<?xml version="1.0" encoding="UTF-8" standalone="no"?>
<!DOCTYPE svg PUBLIC "-//W3C//DTD SVG 1.1//EN"
 "http://www.w3.org/Graphics/SVG/1.1/DTD/svg11.dtd">
<!-- Generated by graphviz version 2.38.0 (20140413.2041)
 -->
<!-- Title: xalanc/PlatformSupport/ArenaAllocator.hpp Pages: 1 -->
<svg width="979pt" height="419pt"
 viewBox="0.00 0.00 979.43 419.00" xmlns="http://www.w3.org/2000/svg" xmlns:xlink="http://www.w3.org/1999/xlink">
<g id="graph0" class="graph" transform="scale(1 1) rotate(0) translate(4 415)">
<title>xalanc/PlatformSupport/ArenaAllocator.hpp</title>
<!-- Node1 -->
<g id="node1" class="node"><title>Node1</title>
<g id="a_node1"><a xlink:title=" ">
<polygon fill="#bfbfbf" stroke="black" points="358,-380.5 358,-410.5 476,-410.5 476,-380.5 358,-380.5"/>
<text text-anchor="start" x="366" y="-398.5" font-family="Helvetica,sans-Serif" font-size="10.00">xalanc/PlatformSupport</text>
<text text-anchor="middle" x="417" y="-387.5" font-family="Helvetica,sans-Serif" font-size="10.00">/ArenaAllocator.hpp</text>
</a>
</g>
</g>
<!-- Node2 -->
<g id="node2" class="node"><title>Node2</title>
<g id="a_node2"><a xlink:title=" ">
<polygon fill="none" stroke="#bfbfbf" points="118,-140 118,-159 174,-159 174,-140 118,-140"/>
<text text-anchor="middle" x="146" y="-147" font-family="Helvetica,sans-Serif" font-size="10.00">algorithm</text>
</a>
</g>
</g>
<!-- Node1&#45;&gt;Node2 -->
<g id="edge1" class="edge"><title>Node1&#45;&gt;Node2</title>
<path fill="none" stroke="midnightblue" d="M357.635,-381.858C325.529,-373.65 285.843,-361.235 253,-344 217.413,-325.325 208.351,-318.346 182,-288 159.409,-261.984 151.977,-254.265 143,-221 138.416,-204.014 139.919,-183.9 142.123,-169.512"/>
<polygon fill="midnightblue" stroke="midnightblue" points="145.621,-169.831 143.937,-159.371 138.731,-168.598 145.621,-169.831"/>
</g>
<!-- Node3 -->
<g id="node3" class="node"><title>Node3</title>
<g id="a_node3"><a xlink:href="STLHelper_8hpp.html" target="_top" xlink:title=" ">
<polygon fill="none" stroke="black" points="262,-324.5 262,-343.5 408,-343.5 408,-324.5 262,-324.5"/>
<text text-anchor="middle" x="335" y="-331.5" font-family="Helvetica,sans-Serif" font-size="10.00">xalanc/Include/STLHelper.hpp</text>
</a>
</g>
</g>
<!-- Node1&#45;&gt;Node3 -->
<g id="edge2" class="edge"><title>Node1&#45;&gt;Node3</title>
<path fill="none" stroke="midnightblue" d="M397.567,-380.399C384.792,-371.129 368.111,-359.025 355.186,-349.647"/>
<polygon fill="midnightblue" stroke="midnightblue" points="357.081,-346.698 346.932,-343.658 352.97,-352.364 357.081,-346.698"/>
</g>
<!-- Node19 -->
<g id="node19" class="node"><title>Node19</title>
<g id="a_node19"><a xlink:href="XalanList_8hpp.html" target="_top" xlink:title=" ">
<polygon fill="none" stroke="black" points="429,-201.5 429,-220.5 569,-220.5 569,-201.5 429,-201.5"/>
<text text-anchor="middle" x="499" y="-208.5" font-family="Helvetica,sans-Serif" font-size="10.00">xalanc/Include/XalanList.hpp</text>
</a>
</g>
</g>
<!-- Node1&#45;&gt;Node19 -->
<g id="edge38" class="edge"><title>Node1&#45;&gt;Node19</title>
<path fill="none" stroke="midnightblue" d="M423.298,-380.483C437.976,-347.817 474.446,-266.647 490.817,-230.211"/>
<polygon fill="midnightblue" stroke="midnightblue" points="494.132,-231.375 495.038,-220.819 487.747,-228.506 494.132,-231.375"/>
</g>
<!-- Node20 -->
<g id="node20" class="node"><title>Node20</title>
<g id="a_node20"><a xlink:href="ArenaBlock_8hpp.html" target="_top" xlink:title=" ">
<polygon fill="none" stroke="black" points="638,-324.5 638,-343.5 724,-343.5 724,-324.5 638,-324.5"/>
<text text-anchor="middle" x="681" y="-331.5" font-family="Helvetica,sans-Serif" font-size="10.00">ArenaBlock.hpp</text>
</a>
</g>
</g>
<!-- Node1&#45;&gt;Node20 -->
<g id="edge39" class="edge"><title>Node1&#45;&gt;Node20</title>
<path fill="none" stroke="midnightblue" d="M476.247,-381.147C523.635,-370.467 589.217,-355.686 633.273,-345.757"/>
<polygon fill="midnightblue" stroke="midnightblue" points="634.172,-349.142 643.158,-343.529 632.633,-342.313 634.172,-349.142"/>
</g>
<!-- Node3&#45;&gt;Node2 -->
<g id="edge7" class="edge"><title>Node3&#45;&gt;Node2</title>
<path fill="none" stroke="midnightblue" d="M306.105,-324.389C264.436,-310.287 188.678,-277.977 154,-221 144.508,-205.404 143.325,-184.235 144.012,-169.174"/>
<polygon fill="midnightblue" stroke="midnightblue" points="147.514,-169.281 144.795,-159.041 140.535,-168.741 147.514,-169.281"/>
</g>
<!-- Node4 -->
<g id="node4" class="node"><title>Node4</title>
<g id="a_node4"><a xlink:href="PlatformDefinitions_8hpp.html" target="_top" xlink:title=" ">
<polygon fill="none" stroke="black" points="111,-73 111,-92 293,-92 293,-73 111,-73"/>
<text text-anchor="middle" x="202" y="-80" font-family="Helvetica,sans-Serif" font-size="10.00">xalanc/Include/PlatformDefinitions.hpp</text>
</a>
</g>
</g>
<!-- Node3&#45;&gt;Node4 -->
<g id="edge3" class="edge"><title>Node3&#45;&gt;Node4</title>
<path fill="none" stroke="midnightblue" d="M270.935,-324.491C241.648,-318.141 207.814,-307.109 182,-288 129.391,-249.055 119.791,-227.7 101,-165 97.0447,-151.802 93.7566,-145.72 101,-134 112.692,-115.083 133.853,-103.015 153.797,-95.4404"/>
<polygon fill="midnightblue" stroke="midnightblue" points="155.155,-98.6734 163.442,-92.0728 152.847,-92.0646 155.155,-98.6734"/>
</g>
<!-- Node8 -->
<g id="node8" class="node"><title>Node8</title>
<g id="a_node8"><a xlink:title=" ">
<polygon fill="none" stroke="#bfbfbf" points="770,-201.5 770,-220.5 828,-220.5 828,-201.5 770,-201.5"/>
<text text-anchor="middle" x="799" y="-208.5" font-family="Helvetica,sans-Serif" font-size="10.00">functional</text>
</a>
</g>
</g>
<!-- Node3&#45;&gt;Node8 -->
<g id="edge8" class="edge"><title>Node3&#45;&gt;Node8</title>
<path fill="none" stroke="midnightblue" d="M367.628,-324.492C450.753,-302.814 670.243,-245.577 759.955,-222.182"/>
<polygon fill="midnightblue" stroke="midnightblue" points="760.94,-225.542 769.734,-219.632 759.174,-218.769 760.94,-225.542"/>
</g>
<!-- Node9 -->
<g id="node9" class="node"><title>Node9</title>
<g id="a_node9"><a xlink:href="XalanMap_8hpp.html" target="_top" xlink:title=" ">
<polygon fill="none" stroke="black" points="263.5,-263 263.5,-282 406.5,-282 406.5,-263 263.5,-263"/>
<text text-anchor="middle" x="335" y="-270" font-family="Helvetica,sans-Serif" font-size="10.00">xalanc/Include/XalanMap.hpp</text>
</a>
</g>
</g>
<!-- Node3&#45;&gt;Node9 -->
<g id="edge9" class="edge"><title>Node3&#45;&gt;Node9</title>
<path fill="none" stroke="midnightblue" d="M335,-324.475C335,-316.08 335,-302.981 335,-292.163"/>
<polygon fill="midnightblue" stroke="midnightblue" points="338.5,-292.009 335,-282.009 331.5,-292.009 338.5,-292.009"/>
</g>
<!-- Node5 -->
<g id="node5" class="node"><title>Node5</title>
<g id="a_node5"><a xlink:title=" ">
<polygon fill="none" stroke="#bfbfbf" points="0,-0.5 0,-30.5 108,-30.5 108,-0.5 0,-0.5"/>
<text text-anchor="start" x="8" y="-18.5" font-family="Helvetica,sans-Serif" font-size="10.00">xercesc/util/Xerces</text>
<text text-anchor="middle" x="54" y="-7.5" font-family="Helvetica,sans-Serif" font-size="10.00">_autoconf_config.hpp</text>
</a>
</g>
</g>
<!-- Node4&#45;&gt;Node5 -->
<g id="edge4" class="edge"><title>Node4&#45;&gt;Node5</title>
<path fill="none" stroke="midnightblue" d="M182.347,-72.8685C160.235,-63.1572 123.695,-47.1092 95.246,-34.6148"/>
<polygon fill="midnightblue" stroke="midnightblue" points="96.5042,-31.3447 85.9408,-30.5281 93.6893,-37.7539 96.5042,-31.3447"/>
</g>
<!-- Node6 -->
<g id="node6" class="node"><title>Node6</title>
<g id="a_node6"><a xlink:title=" ">
<polygon fill="none" stroke="#bfbfbf" points="126.5,-6 126.5,-25 277.5,-25 277.5,-6 126.5,-6"/>
<text text-anchor="middle" x="202" y="-13" font-family="Helvetica,sans-Serif" font-size="10.00">xercesc/util/XercesVersion.hpp</text>
</a>
</g>
</g>
<!-- Node4&#45;&gt;Node6 -->
<g id="edge5" class="edge"><title>Node4&#45;&gt;Node6</title>
<path fill="none" stroke="midnightblue" d="M202,-72.7338C202,-63.1826 202,-47.6183 202,-35.2829"/>
<polygon fill="midnightblue" stroke="midnightblue" points="205.5,-35.1273 202,-25.1273 198.5,-35.1273 205.5,-35.1273"/>
</g>
<!-- Node7 -->
<g id="node7" class="node"><title>Node7</title>
<g id="a_node7"><a xlink:href="XalanVersion_8hpp.html" target="_top" xlink:title=" ">
<polygon fill="none" stroke="black" points="296,-6 296,-25 388,-25 388,-6 296,-6"/>
<text text-anchor="middle" x="342" y="-13" font-family="Helvetica,sans-Serif" font-size="10.00">XalanVersion.hpp</text>
</a>
</g>
</g>
<!-- Node4&#45;&gt;Node7 -->
<g id="edge6" class="edge"><title>Node4&#45;&gt;Node7</title>
<path fill="none" stroke="midnightblue" d="M220.591,-72.8685C244.544,-61.7476 286.395,-42.3167 314.154,-29.4286"/>
<polygon fill="midnightblue" stroke="midnightblue" points="315.736,-32.5529 323.332,-25.1672 312.788,-26.2038 315.736,-32.5529"/>
</g>
<!-- Node9&#45;&gt;Node2 -->
<g id="edge12" class="edge"><title>Node9&#45;&gt;Node2</title>
<path fill="none" stroke="midnightblue" d="M319.788,-262.829C302.651,-252.976 274.052,-236.278 250,-221 220.649,-202.356 187.525,-179.595 166.708,-165.073"/>
<polygon fill="midnightblue" stroke="midnightblue" points="168.527,-162.074 158.327,-159.207 164.513,-167.809 168.527,-162.074"/>
</g>
<!-- Node9&#45;&gt;Node4 -->
<g id="edge10" class="edge"><title>Node9&#45;&gt;Node4</title>
<path fill="none" stroke="midnightblue" d="M263.391,-263.681C205.715,-252.817 130.783,-226.882 109,-165 104.425,-152.004 101.956,-145.841 109,-134 120.009,-115.495 140.43,-103.349 159.337,-95.6181"/>
<polygon fill="midnightblue" stroke="midnightblue" points="160.619,-98.8753 168.738,-92.0686 158.147,-92.3266 160.619,-98.8753"/>
</g>
<!-- Node9&#45;&gt;Node8 -->
<g id="edge13" class="edge"><title>Node9&#45;&gt;Node8</title>
<path fill="none" stroke="midnightblue" d="M406.779,-264.809C490.791,-256.534 633.964,-241.051 756,-221 757.27,-220.791 758.559,-220.571 759.86,-220.342"/>
<polygon fill="midnightblue" stroke="midnightblue" points="760.742,-223.737 769.92,-218.444 759.444,-216.858 760.742,-223.737"/>
</g>
<!-- Node10 -->
<g id="node10" class="node"><title>Node10</title>
<g id="a_node10"><a xlink:title=" ">
<polygon fill="none" stroke="#bfbfbf" points="678,-73 678,-92 726,-92 726,-73 678,-73"/>
<text text-anchor="middle" x="702" y="-80" font-family="Helvetica,sans-Serif" font-size="10.00">cstddef</text>
</a>
</g>
</g>
<!-- Node9&#45;&gt;Node10 -->
<g id="edge11" class="edge"><title>Node9&#45;&gt;Node10</title>
<path fill="none" stroke="midnightblue" d="M396.225,-262.986C490.579,-248.409 664.211,-215.29 698,-165 710.503,-146.392 709.076,-119.646 706.164,-101.934"/>
<polygon fill="midnightblue" stroke="midnightblue" points="709.576,-101.142 704.219,-92.0012 702.706,-102.487 709.576,-101.142"/>
</g>
<!-- Node11 -->
<g id="node11" class="node"><title>Node11</title>
<g id="a_node11"><a xlink:title=" ">
<polygon fill="none" stroke="#bfbfbf" points="163,-201.5 163,-220.5 203,-220.5 203,-201.5 163,-201.5"/>
<text text-anchor="middle" x="183" y="-208.5" font-family="Helvetica,sans-Serif" font-size="10.00">utility</text>
</a>
</g>
</g>
<!-- Node9&#45;&gt;Node11 -->
<g id="edge14" class="edge"><title>Node9&#45;&gt;Node11</title>
<path fill="none" stroke="midnightblue" d="M313.222,-262.975C286.819,-252.64 242.198,-235.173 212.668,-223.613"/>
<polygon fill="midnightblue" stroke="midnightblue" points="213.868,-220.325 203.28,-219.939 211.316,-226.843 213.868,-220.325"/>
</g>
<!-- Node12 -->
<g id="node12" class="node"><title>Node12</title>
<g id="a_node12"><a xlink:href="XalanVector_8hpp.html" target="_top" xlink:title=" ">
<polygon fill="none" stroke="black" points="259,-201.5 259,-220.5 411,-220.5 411,-201.5 259,-201.5"/>
<text text-anchor="middle" x="335" y="-208.5" font-family="Helvetica,sans-Serif" font-size="10.00">xalanc/Include/XalanVector.hpp</text>
</a>
</g>
</g>
<!-- Node9&#45;&gt;Node12 -->
<g id="edge15" class="edge"><title>Node9&#45;&gt;Node12</title>
<path fill="none" stroke="midnightblue" d="M335,-262.975C335,-254.58 335,-241.481 335,-230.663"/>
<polygon fill="midnightblue" stroke="midnightblue" points="338.5,-230.509 335,-220.509 331.5,-230.509 338.5,-230.509"/>
</g>
<!-- Node9&#45;&gt;Node19 -->
<g id="edge29" class="edge"><title>Node9&#45;&gt;Node19</title>
<path fill="none" stroke="midnightblue" d="M358.497,-262.975C386.629,-252.769 433.929,-235.608 465.789,-224.049"/>
<polygon fill="midnightblue" stroke="midnightblue" points="467.34,-227.21 475.546,-220.509 464.952,-220.63 467.34,-227.21"/>
</g>
<!-- Node12&#45;&gt;Node2 -->
<g id="edge18" class="edge"><title>Node12&#45;&gt;Node2</title>
<path fill="none" stroke="midnightblue" d="M305.897,-201.422C276.172,-192.582 228.733,-178.261 188,-165 185.408,-164.156 182.73,-163.269 180.041,-162.366"/>
<polygon fill="midnightblue" stroke="midnightblue" points="180.975,-158.987 170.381,-159.08 178.721,-165.614 180.975,-158.987"/>
</g>
<!-- Node12&#45;&gt;Node4 -->
<g id="edge16" class="edge"><title>Node12&#45;&gt;Node4</title>
<path fill="none" stroke="midnightblue" d="M291.492,-201.496C269.087,-195.017 242.983,-183.869 226,-165 210.385,-147.65 204.904,-120.607 202.995,-102.485"/>
<polygon fill="midnightblue" stroke="midnightblue" points="206.467,-101.984 202.198,-92.2875 199.488,-102.53 206.467,-101.984"/>
</g>
<!-- Node12&#45;&gt;Node10 -->
<g id="edge17" class="edge"><title>Node12&#45;&gt;Node10</title>
<path fill="none" stroke="midnightblue" d="M324.703,-201.35C307.904,-186.231 278.261,-154.645 297,-134 352.671,-72.6659 587.742,-118.487 668,-98 670.361,-97.3974 672.769,-96.6545 675.159,-95.8264"/>
<polygon fill="midnightblue" stroke="midnightblue" points="676.678,-98.9903 684.711,-92.0818 674.123,-92.4732 676.678,-98.9903"/>
</g>
<!-- Node13 -->
<g id="node13" class="node"><title>Node13</title>
<g id="a_node13"><a xlink:title=" ">
<polygon fill="none" stroke="#bfbfbf" points="744.5,-73 744.5,-92 793.5,-92 793.5,-73 744.5,-73"/>
<text text-anchor="middle" x="769" y="-80" font-family="Helvetica,sans-Serif" font-size="10.00">cassert</text>
</a>
</g>
</g>
<!-- Node12&#45;&gt;Node13 -->
<g id="edge19" class="edge"><title>Node12&#45;&gt;Node13</title>
<path fill="none" stroke="midnightblue" d="M407.281,-201.467C503.206,-189.987 661.958,-170.385 674,-165 707.697,-149.931 738.502,-118.978 755.417,-99.8535"/>
<polygon fill="midnightblue" stroke="midnightblue" points="758.107,-102.093 761.978,-92.2304 752.802,-97.5264 758.107,-102.093"/>
</g>
<!-- Node14 -->
<g id="node14" class="node"><title>Node14</title>
<g id="a_node14"><a xlink:title=" ">
<polygon fill="none" stroke="#bfbfbf" points="470,-73 470,-92 504,-92 504,-73 470,-73"/>
<text text-anchor="middle" x="487" y="-80" font-family="Helvetica,sans-Serif" font-size="10.00">new</text>
</a>
</g>
</g>
<!-- Node12&#45;&gt;Node14 -->
<g id="edge20" class="edge"><title>Node12&#45;&gt;Node14</title>
<path fill="none" stroke="midnightblue" d="M309.839,-201.378C293.581,-194.343 273.707,-182.645 264,-165 257.359,-152.928 255.401,-144.765 264,-134 288.222,-103.679 405.535,-90.2154 459.605,-85.5466"/>
<polygon fill="midnightblue" stroke="midnightblue" points="460.15,-89.0137 469.828,-84.7043 459.575,-82.0373 460.15,-89.0137"/>
</g>
<!-- Node15 -->
<g id="node15" class="node"><title>Node15</title>
<g id="a_node15"><a xlink:title=" ">
<polygon fill="none" stroke="#bfbfbf" points="383.5,-140 383.5,-159 430.5,-159 430.5,-140 383.5,-140"/>
<text text-anchor="middle" x="407" y="-147" font-family="Helvetica,sans-Serif" font-size="10.00">iterator</text>
</a>
</g>
</g>
<!-- Node12&#45;&gt;Node15 -->
<g id="edge21" class="edge"><title>Node12&#45;&gt;Node15</title>
<path fill="none" stroke="midnightblue" d="M345.316,-201.475C356.651,-192.108 375.073,-176.884 388.839,-165.508"/>
<polygon fill="midnightblue" stroke="midnightblue" points="391.224,-168.077 396.703,-159.009 386.765,-162.681 391.224,-168.077"/>
</g>
<!-- Node16 -->
<g id="node16" class="node"><title>Node16</title>
<g id="a_node16"><a xlink:title=" ">
<polygon fill="none" stroke="#bfbfbf" points="306.5,-140 306.5,-159 365.5,-159 365.5,-140 306.5,-140"/>
<text text-anchor="middle" x="336" y="-147" font-family="Helvetica,sans-Serif" font-size="10.00">stdexcept</text>
</a>
</g>
</g>
<!-- Node12&#45;&gt;Node16 -->
<g id="edge22" class="edge"><title>Node12&#45;&gt;Node16</title>
<path fill="none" stroke="midnightblue" d="M335.143,-201.475C335.284,-193.08 335.505,-179.981 335.686,-169.163"/>
<polygon fill="midnightblue" stroke="midnightblue" points="339.188,-169.067 335.857,-159.009 332.189,-168.949 339.188,-169.067"/>
</g>
<!-- Node17 -->
<g id="node17" class="node"><title>Node17</title>
<g id="a_node17"><a xlink:href="XalanMemoryManagement_8hpp.html" target="_top" xlink:title=" ">
<polygon fill="none" stroke="black" points="525,-134.5 525,-164.5 665,-164.5 665,-134.5 525,-134.5"/>
<text text-anchor="start" x="533" y="-152.5" font-family="Helvetica,sans-Serif" font-size="10.00">xalanc/Include/XalanMemory</text>
<text text-anchor="middle" x="595" y="-141.5" font-family="Helvetica,sans-Serif" font-size="10.00">Management.hpp</text>
</a>
</g>
</g>
<!-- Node12&#45;&gt;Node17 -->
<g id="edge23" class="edge"><title>Node12&#45;&gt;Node17</title>
<path fill="none" stroke="midnightblue" d="M372.252,-201.475C411.661,-192.456 474.798,-178.008 523.807,-166.792"/>
<polygon fill="midnightblue" stroke="midnightblue" points="524.756,-170.166 533.723,-164.523 523.194,-163.342 524.756,-170.166"/>
</g>
<!-- Node17&#45;&gt;Node4 -->
<g id="edge24" class="edge"><title>Node17&#45;&gt;Node4</title>
<path fill="none" stroke="midnightblue" d="M524.739,-136.879C450.456,-124.593 334.434,-105.404 263.606,-93.6893"/>
<polygon fill="midnightblue" stroke="midnightblue" points="263.932,-90.1957 253.495,-92.0169 262.789,-97.1019 263.932,-90.1957"/>
</g>
<!-- Node17&#45;&gt;Node10 -->
<g id="edge26" class="edge"><title>Node17&#45;&gt;Node10</title>
<path fill="none" stroke="midnightblue" d="M618.217,-134.396C636.327,-123.395 661.34,-108.2 679.313,-97.2819"/>
<polygon fill="midnightblue" stroke="midnightblue" points="681.267,-100.19 687.996,-92.007 677.632,-94.2076 681.267,-100.19"/>
</g>
<!-- Node17&#45;&gt;Node13 -->
<g id="edge25" class="edge"><title>Node17&#45;&gt;Node13</title>
<path fill="none" stroke="midnightblue" d="M635.968,-134.413C664.002,-124.605 701.936,-111.001 735,-98 736.601,-97.3703 738.24,-96.7135 739.891,-96.0421"/>
<polygon fill="midnightblue" stroke="midnightblue" points="741.414,-99.1992 749.302,-92.1253 738.725,-92.7366 741.414,-99.1992"/>
</g>
<!-- Node17&#45;&gt;Node14 -->
<g id="edge27" class="edge"><title>Node17&#45;&gt;Node14</title>
<path fill="none" stroke="midnightblue" d="M571.566,-134.396C553.287,-123.395 528.04,-108.2 509.899,-97.2819"/>
<polygon fill="midnightblue" stroke="midnightblue" points="511.507,-94.1649 501.135,-92.007 507.898,-100.162 511.507,-94.1649"/>
</g>
<!-- Node18 -->
<g id="node18" class="node"><title>Node18</title>
<g id="a_node18"><a xlink:title=" ">
<polygon fill="none" stroke="#bfbfbf" points="522.5,-67.5 522.5,-97.5 659.5,-97.5 659.5,-67.5 522.5,-67.5"/>
<text text-anchor="start" x="530.5" y="-85.5" font-family="Helvetica,sans-Serif" font-size="10.00">xercesc/framework/Memory</text>
<text text-anchor="middle" x="591" y="-74.5" font-family="Helvetica,sans-Serif" font-size="10.00">Manager.hpp</text>
</a>
</g>
</g>
<!-- Node17&#45;&gt;Node18 -->
<g id="edge28" class="edge"><title>Node17&#45;&gt;Node18</title>
<path fill="none" stroke="midnightblue" d="M594.132,-134.396C593.65,-126.56 593.037,-116.596 592.481,-107.565"/>
<polygon fill="midnightblue" stroke="midnightblue" points="595.974,-107.343 591.866,-97.5765 588.987,-107.773 595.974,-107.343"/>
</g>
<!-- Node19&#45;&gt;Node2 -->
<g id="edge32" class="edge"><title>Node19&#45;&gt;Node2</title>
<path fill="none" stroke="midnightblue" d="M448.424,-201.475C377.092,-189.452 248.503,-167.778 184.441,-156.979"/>
<polygon fill="midnightblue" stroke="midnightblue" points="184.805,-153.492 174.363,-155.281 183.642,-160.394 184.805,-153.492"/>
</g>
<!-- Node19&#45;&gt;Node4 -->
<g id="edge30" class="edge"><title>Node19&#45;&gt;Node4</title>
<path fill="none" stroke="midnightblue" d="M494.765,-201.32C486.456,-185.271 466.411,-151.041 439,-134 398.56,-108.858 347.549,-96.0769 303.22,-89.6406"/>
<polygon fill="midnightblue" stroke="midnightblue" points="303.666,-86.169 293.285,-88.2865 302.72,-93.1049 303.666,-86.169"/>
</g>
<!-- Node19&#45;&gt;Node10 -->
<g id="edge31" class="edge"><title>Node19&#45;&gt;Node10</title>
<path fill="none" stroke="midnightblue" d="M569.107,-207.324C604.488,-202.5 645.772,-191.076 674,-165 691.656,-148.691 698.179,-120.754 700.588,-102.207"/>
<polygon fill="midnightblue" stroke="midnightblue" points="704.091,-102.363 701.62,-92.0601 697.126,-101.655 704.091,-102.363"/>
</g>
<!-- Node19&#45;&gt;Node13 -->
<g id="edge33" class="edge"><title>Node19&#45;&gt;Node13</title>
<path fill="none" stroke="midnightblue" d="M569.245,-205.27C632.603,-199.594 719.623,-187.833 745,-165 762.616,-149.15 767.574,-121.096 768.823,-102.398"/>
<polygon fill="midnightblue" stroke="midnightblue" points="772.33,-102.28 769.202,-92.1578 765.335,-102.022 772.33,-102.28"/>
</g>
<!-- Node19&#45;&gt;Node14 -->
<g id="edge34" class="edge"><title>Node19&#45;&gt;Node14</title>
<path fill="none" stroke="midnightblue" d="M498.175,-201.305C496.248,-180.994 491.416,-130.053 488.781,-102.277"/>
<polygon fill="midnightblue" stroke="midnightblue" points="492.259,-101.88 487.831,-92.2557 485.291,-102.542 492.259,-101.88"/>
</g>
<!-- Node19&#45;&gt;Node15 -->
<g id="edge35" class="edge"><title>Node19&#45;&gt;Node15</title>
<path fill="none" stroke="midnightblue" d="M485.819,-201.475C470.926,-191.843 446.456,-176.017 428.727,-164.552"/>
<polygon fill="midnightblue" stroke="midnightblue" points="430.455,-161.501 420.157,-159.009 426.653,-167.379 430.455,-161.501"/>
</g>
<!-- Node19&#45;&gt;Node16 -->
<g id="edge36" class="edge"><title>Node19&#45;&gt;Node16</title>
<path fill="none" stroke="midnightblue" d="M474.519,-201.341C449.282,-192.379 408.818,-177.909 374,-165 371.902,-164.222 369.741,-163.415 367.565,-162.597"/>
<polygon fill="midnightblue" stroke="midnightblue" points="368.668,-159.272 358.076,-159.005 366.19,-165.819 368.668,-159.272"/>
</g>
<!-- Node19&#45;&gt;Node17 -->
<g id="edge37" class="edge"><title>Node19&#45;&gt;Node17</title>
<path fill="none" stroke="midnightblue" d="M512.754,-201.475C525.999,-193.266 546.503,-180.558 563.724,-169.885"/>
<polygon fill="midnightblue" stroke="midnightblue" points="565.719,-172.766 572.375,-164.523 562.031,-166.816 565.719,-172.766"/>
</g>
<!-- Node21 -->
<g id="node21" class="node"><title>Node21</title>
<g id="a_node21"><a xlink:href="ArenaBlockBase_8hpp.html" target="_top" xlink:title=" ">
<polygon fill="none" stroke="black" points="797,-257.5 797,-287.5 915,-287.5 915,-257.5 797,-257.5"/>
<text text-anchor="start" x="805" y="-275.5" font-family="Helvetica,sans-Serif" font-size="10.00">xalanc/PlatformSupport</text>
<text text-anchor="middle" x="856" y="-264.5" font-family="Helvetica,sans-Serif" font-size="10.00">/ArenaBlockBase.hpp</text>
</a>
</g>
</g>
<!-- Node20&#45;&gt;Node21 -->
<g id="edge40" class="edge"><title>Node20&#45;&gt;Node21</title>
<path fill="none" stroke="midnightblue" d="M706.073,-324.475C731.768,-315.739 772.449,-301.907 804.956,-290.855"/>
<polygon fill="midnightblue" stroke="midnightblue" points="806.415,-294.056 814.756,-287.523 804.162,-287.428 806.415,-294.056"/>
</g>
<!-- Node21&#45;&gt;Node8 -->
<g id="edge42" class="edge"><title>Node21&#45;&gt;Node8</title>
<path fill="none" stroke="midnightblue" d="M842.492,-257.399C834.038,-248.575 823.125,-237.183 814.345,-228.018"/>
<polygon fill="midnightblue" stroke="midnightblue" points="816.739,-225.458 807.294,-220.658 811.684,-230.3 816.739,-225.458"/>
</g>
<!-- Node21&#45;&gt;Node13 -->
<g id="edge41" class="edge"><title>Node21&#45;&gt;Node13</title>
<path fill="none" stroke="midnightblue" d="M881.135,-257.441C922.446,-232.549 996.812,-179.093 962,-134 942.784,-109.109 853.725,-94.1211 803.573,-87.5109"/>
<polygon fill="midnightblue" stroke="midnightblue" points="803.862,-84.0196 793.5,-86.227 802.977,-90.9634 803.862,-84.0196"/>
</g>
<!-- Node21&#45;&gt;Node17 -->
<g id="edge43" class="edge"><title>Node21&#45;&gt;Node17</title>
<path fill="none" stroke="midnightblue" d="M856.298,-257.418C855.829,-241.413 852.485,-215.619 837,-201 813.867,-179.161 736.373,-165.681 675.235,-158.202"/>
<polygon fill="midnightblue" stroke="midnightblue" points="675.531,-154.712 665.188,-157.008 674.706,-161.663 675.531,-154.712"/>
</g>
<!-- Node22 -->
<g id="node22" class="node"><title>Node22</title>
<g id="a_node22"><a xlink:href="XalanAllocator_8hpp.html" target="_top" xlink:title=" ">
<polygon fill="none" stroke="black" points="835,-134.5 835,-164.5 953,-164.5 953,-134.5 835,-134.5"/>
<text text-anchor="start" x="843" y="-152.5" font-family="Helvetica,sans-Serif" font-size="10.00">xalanc/PlatformSupport</text>
<text text-anchor="middle" x="894" y="-141.5" font-family="Helvetica,sans-Serif" font-size="10.00">/XalanAllocator.hpp</text>
</a>
</g>
</g>
<!-- Node21&#45;&gt;Node22 -->
<g id="edge44" class="edge"><title>Node21&#45;&gt;Node22</title>
<path fill="none" stroke="midnightblue" d="M860.508,-257.145C866.908,-236.768 878.707,-199.198 886.453,-174.531"/>
<polygon fill="midnightblue" stroke="midnightblue" points="889.84,-175.426 889.498,-164.837 883.162,-173.329 889.84,-175.426"/>
</g>
<!-- Node22&#45;&gt;Node10 -->
<g id="edge45" class="edge"><title>Node22&#45;&gt;Node10</title>
<path fill="none" stroke="midnightblue" d="M845.18,-134.464C813.486,-124.992 771.448,-111.751 735,-98 733.39,-97.3925 731.745,-96.7483 730.091,-96.0821"/>
<polygon fill="midnightblue" stroke="midnightblue" points="731.279,-92.7848 720.704,-92.1312 728.563,-99.2366 731.279,-92.7848"/>
</g>
</g>
</svg>
