<?xml version="1.0" encoding="UTF-8" standalone="no"?>
<!DOCTYPE svg PUBLIC "-//W3C//DTD SVG 1.1//EN"
 "http://www.w3.org/Graphics/SVG/1.1/DTD/svg11.dtd">
<!-- Generated by graphviz version 2.43.0 (0)
 -->
<!-- Title: xalanc/PlatformSupport/ArenaBlockBase.hpp Pages: 1 -->
<svg width="633pt" height="240pt"
 viewBox="0.00 0.00 632.50 240.00" xmlns="http://www.w3.org/2000/svg" xmlns:xlink="http://www.w3.org/1999/xlink">
<g id="graph0" class="graph" transform="scale(1 1) rotate(0) translate(4 236)">
<title>xalanc/PlatformSupport/ArenaBlockBase.hpp</title>
<!-- Node1 -->
<g id="node1" class="node">
<title>Node1</title>
<g id="a_node1"><a xlink:title=" ">
<polygon fill="#bfbfbf" stroke="black" points="230.5,-201.5 230.5,-231.5 361.5,-231.5 361.5,-201.5 230.5,-201.5"/>
<text text-anchor="start" x="238.5" y="-219.5" font-family="Helvetica,sans-Serif" font-size="10.00">xalanc/PlatformSupport</text>
<text text-anchor="middle" x="296" y="-208.5" font-family="Helvetica,sans-Serif" font-size="10.00">/ArenaBlockBase.hpp</text>
</a>
</g>
</g>
<!-- Node2 -->
<g id="node2" class="node">
<title>Node2</title>
<g id="a_node2"><a xlink:title=" ">
<polygon fill="none" stroke="#bfbfbf" points="48,-73 48,-92 100,-92 100,-73 48,-73"/>
<text text-anchor="middle" x="74" y="-80" font-family="Helvetica,sans-Serif" font-size="10.00">cassert</text>
</a>
</g>
</g>
<!-- Node1&#45;&gt;Node2 -->
<g id="edge1" class="edge">
<title>Node1&#45;&gt;Node2</title>
<path fill="none" stroke="midnightblue" d="M262.45,-201.48C240.97,-192.07 212.77,-178.89 189,-165 153.37,-144.19 114.79,-115.43 92.6,-98.23"/>
<polygon fill="midnightblue" stroke="midnightblue" points="94.71,-95.44 84.67,-92.03 90.39,-100.95 94.71,-95.44"/>
</g>
<!-- Node3 -->
<g id="node3" class="node">
<title>Node3</title>
<g id="a_node3"><a xlink:title=" ">
<polygon fill="none" stroke="#bfbfbf" points="198.5,-140 198.5,-159 263.5,-159 263.5,-140 198.5,-140"/>
<text text-anchor="middle" x="231" y="-147" font-family="Helvetica,sans-Serif" font-size="10.00">functional</text>
</a>
</g>
</g>
<!-- Node1&#45;&gt;Node3 -->
<g id="edge2" class="edge">
<title>Node1&#45;&gt;Node3</title>
<path fill="none" stroke="midnightblue" d="M281.9,-201.4C271.56,-191.06 257.52,-177.02 246.81,-166.31"/>
<polygon fill="midnightblue" stroke="midnightblue" points="249.24,-163.79 239.69,-159.19 244.29,-168.74 249.24,-163.79"/>
</g>
<!-- Node4 -->
<g id="node4" class="node">
<title>Node4</title>
<g id="a_node4"><a xlink:href="XalanMemoryManagement_8hpp.html" target="_top" xlink:title=" ">
<polygon fill="none" stroke="black" points="282,-134.5 282,-164.5 440,-164.5 440,-134.5 282,-134.5"/>
<text text-anchor="start" x="290" y="-152.5" font-family="Helvetica,sans-Serif" font-size="10.00">xalanc/Include/XalanMemory</text>
<text text-anchor="middle" x="361" y="-141.5" font-family="Helvetica,sans-Serif" font-size="10.00">Management.hpp</text>
</a>
</g>
</g>
<!-- Node1&#45;&gt;Node4 -->
<g id="edge3" class="edge">
<title>Node1&#45;&gt;Node4</title>
<path fill="none" stroke="midnightblue" d="M310.1,-201.4C318.79,-192.71 330.1,-181.4 339.84,-171.66"/>
<polygon fill="midnightblue" stroke="midnightblue" points="342.33,-174.12 346.92,-164.58 337.38,-169.17 342.33,-174.12"/>
</g>
<!-- Node12 -->
<g id="node12" class="node">
<title>Node12</title>
<g id="a_node12"><a xlink:href="XalanAllocator_8hpp.html" target="_top" xlink:title=" ">
<polygon fill="none" stroke="black" points="493.5,-134.5 493.5,-164.5 624.5,-164.5 624.5,-134.5 493.5,-134.5"/>
<text text-anchor="start" x="501.5" y="-152.5" font-family="Helvetica,sans-Serif" font-size="10.00">xalanc/PlatformSupport</text>
<text text-anchor="middle" x="559" y="-141.5" font-family="Helvetica,sans-Serif" font-size="10.00">/XalanAllocator.hpp</text>
</a>
</g>
</g>
<!-- Node1&#45;&gt;Node12 -->
<g id="edge12" class="edge">
<title>Node1&#45;&gt;Node12</title>
<path fill="none" stroke="midnightblue" d="M352.74,-201.48C393.65,-191.37 449.01,-177.68 492.08,-167.04"/>
<polygon fill="midnightblue" stroke="midnightblue" points="493.04,-170.41 501.91,-164.61 491.36,-163.61 493.04,-170.41"/>
</g>
<!-- Node4&#45;&gt;Node2 -->
<g id="edge8" class="edge">
<title>Node4&#45;&gt;Node2</title>
<path fill="none" stroke="midnightblue" d="M282.4,-134.48C220.95,-123.19 140.8,-107.67 109,-98 106.72,-97.31 104.38,-96.52 102.04,-95.67"/>
<polygon fill="midnightblue" stroke="midnightblue" points="103.23,-92.38 92.64,-92.01 100.69,-98.9 103.23,-92.38"/>
</g>
<!-- Node5 -->
<g id="node5" class="node">
<title>Node5</title>
<g id="a_node5"><a xlink:href="PlatformDefinitions_8hpp.html" target="_top" xlink:title=" ">
<polygon fill="none" stroke="black" points="118,-73 118,-92 324,-92 324,-73 118,-73"/>
<text text-anchor="middle" x="221" y="-80" font-family="Helvetica,sans-Serif" font-size="10.00">xalanc/Include/PlatformDefinitions.hpp</text>
</a>
</g>
</g>
<!-- Node4&#45;&gt;Node5 -->
<g id="edge4" class="edge">
<title>Node4&#45;&gt;Node5</title>
<path fill="none" stroke="midnightblue" d="M330.62,-134.4C306.17,-123.04 272.09,-107.22 248.45,-96.24"/>
<polygon fill="midnightblue" stroke="midnightblue" points="249.87,-93.04 239.32,-92.01 246.92,-99.39 249.87,-93.04"/>
</g>
<!-- Node9 -->
<g id="node9" class="node">
<title>Node9</title>
<g id="a_node9"><a xlink:title=" ">
<polygon fill="none" stroke="#bfbfbf" points="568.5,-73 568.5,-92 621.5,-92 621.5,-73 568.5,-73"/>
<text text-anchor="middle" x="595" y="-80" font-family="Helvetica,sans-Serif" font-size="10.00">cstddef</text>
</a>
</g>
</g>
<!-- Node4&#45;&gt;Node9 -->
<g id="edge9" class="edge">
<title>Node4&#45;&gt;Node9</title>
<path fill="none" stroke="midnightblue" d="M426.21,-134.46C465.4,-125.4 516.02,-112.6 560,-98 561.92,-97.36 563.88,-96.67 565.85,-95.94"/>
<polygon fill="midnightblue" stroke="midnightblue" points="567.53,-99.04 575.57,-92.13 564.98,-92.53 567.53,-99.04"/>
</g>
<!-- Node10 -->
<g id="node10" class="node">
<title>Node10</title>
<g id="a_node10"><a xlink:title=" ">
<polygon fill="none" stroke="#bfbfbf" points="342.5,-73 342.5,-92 379.5,-92 379.5,-73 342.5,-73"/>
<text text-anchor="middle" x="361" y="-80" font-family="Helvetica,sans-Serif" font-size="10.00">new</text>
</a>
</g>
</g>
<!-- Node4&#45;&gt;Node10 -->
<g id="edge10" class="edge">
<title>Node4&#45;&gt;Node10</title>
<path fill="none" stroke="midnightblue" d="M361,-134.4C361,-125.06 361,-112.71 361,-102.52"/>
<polygon fill="midnightblue" stroke="midnightblue" points="364.5,-102.19 361,-92.19 357.5,-102.19 364.5,-102.19"/>
</g>
<!-- Node11 -->
<g id="node11" class="node">
<title>Node11</title>
<g id="a_node11"><a xlink:title=" ">
<polygon fill="none" stroke="#bfbfbf" points="397.5,-67.5 397.5,-97.5 550.5,-97.5 550.5,-67.5 397.5,-67.5"/>
<text text-anchor="start" x="405.5" y="-85.5" font-family="Helvetica,sans-Serif" font-size="10.00">xercesc/framework/Memory</text>
<text text-anchor="middle" x="474" y="-74.5" font-family="Helvetica,sans-Serif" font-size="10.00">Manager.hpp</text>
</a>
</g>
</g>
<!-- Node4&#45;&gt;Node11 -->
<g id="edge11" class="edge">
<title>Node4&#45;&gt;Node11</title>
<path fill="none" stroke="midnightblue" d="M385.52,-134.4C401.66,-125.11 422.99,-112.84 440.67,-102.67"/>
<polygon fill="midnightblue" stroke="midnightblue" points="442.61,-105.6 449.53,-97.58 439.12,-99.53 442.61,-105.6"/>
</g>
<!-- Node6 -->
<g id="node6" class="node">
<title>Node6</title>
<g id="a_node6"><a xlink:title=" ">
<polygon fill="none" stroke="#bfbfbf" points="0,-0.5 0,-30.5 120,-30.5 120,-0.5 0,-0.5"/>
<text text-anchor="start" x="8" y="-18.5" font-family="Helvetica,sans-Serif" font-size="10.00">xercesc/util/Xerces</text>
<text text-anchor="middle" x="60" y="-7.5" font-family="Helvetica,sans-Serif" font-size="10.00">_autoconf_config.hpp</text>
</a>
</g>
</g>
<!-- Node5&#45;&gt;Node6 -->
<g id="edge5" class="edge">
<title>Node5&#45;&gt;Node6</title>
<path fill="none" stroke="midnightblue" d="M199.62,-72.87C175.36,-63.07 135.12,-46.83 104.06,-34.29"/>
<polygon fill="midnightblue" stroke="midnightblue" points="105.33,-31.03 94.75,-30.53 102.71,-37.52 105.33,-31.03"/>
</g>
<!-- Node7 -->
<g id="node7" class="node">
<title>Node7</title>
<g id="a_node7"><a xlink:title=" ">
<polygon fill="none" stroke="#bfbfbf" points="138.5,-6 138.5,-25 303.5,-25 303.5,-6 138.5,-6"/>
<text text-anchor="middle" x="221" y="-13" font-family="Helvetica,sans-Serif" font-size="10.00">xercesc/util/XercesVersion.hpp</text>
</a>
</g>
</g>
<!-- Node5&#45;&gt;Node7 -->
<g id="edge6" class="edge">
<title>Node5&#45;&gt;Node7</title>
<path fill="none" stroke="midnightblue" d="M221,-72.73C221,-63.18 221,-47.62 221,-35.28"/>
<polygon fill="midnightblue" stroke="midnightblue" points="224.5,-35.13 221,-25.13 217.5,-35.13 224.5,-35.13"/>
</g>
<!-- Node8 -->
<g id="node8" class="node">
<title>Node8</title>
<g id="a_node8"><a xlink:href="XalanVersion_8hpp.html" target="_top" xlink:title=" ">
<polygon fill="none" stroke="black" points="321.5,-6 321.5,-25 496.5,-25 496.5,-6 321.5,-6"/>
<text text-anchor="middle" x="409" y="-13" font-family="Helvetica,sans-Serif" font-size="10.00">xalanc/Include/XalanVersion.hpp</text>
</a>
</g>
</g>
<!-- Node5&#45;&gt;Node8 -->
<g id="edge7" class="edge">
<title>Node5&#45;&gt;Node8</title>
<path fill="none" stroke="midnightblue" d="M245.96,-72.87C278.92,-61.47 337.12,-41.35 374.33,-28.49"/>
<polygon fill="midnightblue" stroke="midnightblue" points="375.92,-31.64 384.23,-25.06 373.64,-25.02 375.92,-31.64"/>
</g>
<!-- Node12&#45;&gt;Node9 -->
<g id="edge13" class="edge">
<title>Node12&#45;&gt;Node9</title>
<path fill="none" stroke="midnightblue" d="M566.81,-134.4C572.2,-124.66 579.41,-111.65 585.19,-101.21"/>
<polygon fill="midnightblue" stroke="midnightblue" points="588.4,-102.64 590.18,-92.19 582.28,-99.25 588.4,-102.64"/>
</g>
</g>
</svg>
