<?xml version="1.0" encoding="UTF-8" standalone="no"?>
<!DOCTYPE svg PUBLIC "-//W3C//DTD SVG 1.1//EN"
 "http://www.w3.org/Graphics/SVG/1.1/DTD/svg11.dtd">
<!-- Generated by graphviz version 2.38.0 (20140413.2041)
 -->
<!-- Title: xalanc/PlatformSupport/AttributeVectorEntry.hpp Pages: 1 -->
<!--zoomable 609 -->
<svg id="main" version="1.1" xmlns="http://www.w3.org/2000/svg" xmlns:xlink="http://www.w3.org/1999/xlink" xml:space="preserve" onload="init(evt)">
<style type="text/css"><![CDATA[
.edge:hover path { stroke: red; }
.edge:hover polygon { stroke: red; fill: red; }
]]></style>
<script type="text/javascript"><![CDATA[
var edges = document.getElementsByTagName('g');
if (edges && edges.length) {
  for (var i=0;i<edges.length;i++) {
    if (edges[i].id.substr(0,4)=='edge') {
      edges[i].setAttribute('class','edge');
    }
  }
}
]]></script>
        <defs>
                <circle id="rim" cx="0" cy="0" r="7"/>
                <circle id="rim2" cx="0" cy="0" r="3.5"/>
                <g id="zoomPlus">
                        <use xlink:href="#rim" fill="#404040">
                                <set attributeName="fill" to="#808080" begin="zoomplus.mouseover" end="zoomplus.mouseout"/>
                        </use>
                        <path d="M-4,0h8M0,-4v8" fill="none" stroke="white" stroke-width="1.5" pointer-events="none"/>
                </g>
                <g id="zoomMin">
                        <use xlink:href="#rim" fill="#404040">
                                <set attributeName="fill" to="#808080" begin="zoomminus.mouseover" end="zoomminus.mouseout"/>
                        </use>
                        <path d="M-4,0h8" fill="none" stroke="white" stroke-width="1.5" pointer-events="none"/>
                </g>
                <g id="dirArrow">
                        <path fill="none" stroke="white" stroke-width="1.5" d="M0,-3.0v7 M-2.5,-0.5L0,-3.0L2.5,-0.5"/>
                </g>
               <g id="resetDef">
                       <use xlink:href="#rim2" fill="#404040">
                               <set attributeName="fill" to="#808080" begin="reset.mouseover" end="reset.mouseout"/>
                       </use>
               </g>
        </defs>

<script type="text/javascript">
var viewWidth = 1461;
var viewHeight = 609;
var sectionId = 'dynsection-0';
</script>
<script xlink:href="svgpan.js"/>
<svg id="graph" class="graph">
<g id="viewport">
<title>xalanc/PlatformSupport/AttributeVectorEntry.hpp</title>
<!-- Node1 -->
<g id="node1" class="node"><title>Node1</title>
<g id="a_node1"><a xlink:title=" ">
<polygon fill="#bfbfbf" stroke="black" points="594.5,-570.5 594.5,-600.5 721.5,-600.5 721.5,-570.5 594.5,-570.5"/>
<text text-anchor="start" x="602.5" y="-588.5" font-family="Helvetica,sans-Serif" font-size="10.00">xalanc/PlatformSupport</text>
<text text-anchor="middle" x="658" y="-577.5" font-family="Helvetica,sans-Serif" font-size="10.00">/AttributeVectorEntry.hpp</text>
</a>
</g>
</g>
<!-- Node2 -->
<g id="node2" class="node"><title>Node2</title>
<g id="a_node2"><a xlink:href="PlatformSupportDefinitions_8hpp.html" target="_top" xlink:title=" ">
<polygon fill="none" stroke="black" points="1213.5,-369.5 1213.5,-399.5 1366.5,-399.5 1366.5,-369.5 1213.5,-369.5"/>
<text text-anchor="start" x="1221.5" y="-387.5" font-family="Helvetica,sans-Serif" font-size="10.00">xalanc/PlatformSupport</text>
<text text-anchor="middle" x="1290" y="-376.5" font-family="Helvetica,sans-Serif" font-size="10.00">/PlatformSupportDefinitions.hpp</text>
</a>
</g>
</g>
<!-- Node1&#45;&gt;Node2 -->
<g id="edge1" class="edge"><title>Node1&#45;&gt;Node2</title>
<path fill="none" stroke="midnightblue" d="M721.667,-585.146C891.985,-585.38 1351.48,-575.727 1445,-467 1472.23,-435.343 1425.63,-414.196 1376.58,-401.393"/>
<polygon fill="midnightblue" stroke="midnightblue" points="1377.31,-397.967 1366.76,-398.943 1375.61,-404.759 1377.31,-397.967"/>
</g>
<!-- Node7 -->
<g id="node7" class="node"><title>Node7</title>
<g id="a_node7"><a xlink:href="DOMStringHelper_8hpp.html" target="_top" xlink:title=" ">
<polygon fill="none" stroke="black" points="875,-503.5 875,-533.5 993,-533.5 993,-503.5 875,-503.5"/>
<text text-anchor="start" x="883" y="-521.5" font-family="Helvetica,sans-Serif" font-size="10.00">xalanc/PlatformSupport</text>
<text text-anchor="middle" x="934" y="-510.5" font-family="Helvetica,sans-Serif" font-size="10.00">/DOMStringHelper.hpp</text>
</a>
</g>
</g>
<!-- Node1&#45;&gt;Node7 -->
<g id="edge6" class="edge"><title>Node1&#45;&gt;Node7</title>
<path fill="none" stroke="midnightblue" d="M717.548,-570.476C760.806,-560.289 819.463,-546.474 864.804,-535.796"/>
<polygon fill="midnightblue" stroke="midnightblue" points="865.627,-539.198 874.559,-533.499 864.023,-532.385 865.627,-539.198"/>
</g>
<!-- Node12 -->
<g id="node12" class="node"><title>Node12</title>
<g id="a_node12"><a xlink:href="XalanVector_8hpp.html" target="_top" xlink:title=" ">
<polygon fill="none" stroke="black" points="386,-201.5 386,-220.5 538,-220.5 538,-201.5 386,-201.5"/>
<text text-anchor="middle" x="462" y="-208.5" font-family="Helvetica,sans-Serif" font-size="10.00">xalanc/Include/XalanVector.hpp</text>
</a>
</g>
</g>
<!-- Node1&#45;&gt;Node12 -->
<g id="edge65" class="edge"><title>Node1&#45;&gt;Node12</title>
<path fill="none" stroke="midnightblue" d="M594.335,-579.908C516.499,-570.428 395,-541.393 395,-452.5 395,-452.5 395,-452.5 395,-322 395,-283.704 424.987,-247.416 444.838,-227.589"/>
<polygon fill="midnightblue" stroke="midnightblue" points="447.329,-230.05 452.114,-220.598 442.478,-225.003 447.329,-230.05"/>
</g>
<!-- Node30 -->
<g id="node30" class="node"><title>Node30</title>
<g id="a_node30"><a xlink:href="XalanMemMgrAutoPtr_8hpp.html" target="_top" xlink:title=" ">
<polygon fill="none" stroke="black" points="128.5,-436.5 128.5,-466.5 271.5,-466.5 271.5,-436.5 128.5,-436.5"/>
<text text-anchor="start" x="136.5" y="-454.5" font-family="Helvetica,sans-Serif" font-size="10.00">xalanc/Include/XalanMemMgr</text>
<text text-anchor="middle" x="200" y="-443.5" font-family="Helvetica,sans-Serif" font-size="10.00">AutoPtr.hpp</text>
</a>
</g>
</g>
<!-- Node1&#45;&gt;Node30 -->
<g id="edge66" class="edge"><title>Node1&#45;&gt;Node30</title>
<path fill="none" stroke="midnightblue" d="M594.241,-577.346C537.407,-569.922 452.413,-556.224 381,-534 328.29,-517.596 270.677,-489.811 234.934,-471.31"/>
<polygon fill="midnightblue" stroke="midnightblue" points="236.379,-468.117 225.895,-466.588 233.137,-474.321 236.379,-468.117"/>
</g>
<!-- Node3 -->
<g id="node3" class="node"><title>Node3</title>
<g id="a_node3"><a xlink:href="PlatformDefinitions_8hpp.html" target="_top" xlink:title=" ">
<polygon fill="none" stroke="black" points="740,-73 740,-92 922,-92 922,-73 740,-73"/>
<text text-anchor="middle" x="831" y="-80" font-family="Helvetica,sans-Serif" font-size="10.00">xalanc/Include/PlatformDefinitions.hpp</text>
</a>
</g>
</g>
<!-- Node2&#45;&gt;Node3 -->
<g id="edge2" class="edge"><title>Node2&#45;&gt;Node3</title>
<path fill="none" stroke="midnightblue" d="M1299.33,-369.218C1312.25,-348.035 1334,-306.624 1334,-268 1334,-268 1334,-268 1334,-210 1334,-128 1079.41,-98.6488 932.477,-88.5373"/>
<polygon fill="midnightblue" stroke="midnightblue" points="932.301,-85.0177 922.09,-87.842 931.833,-92.0021 932.301,-85.0177"/>
</g>
<!-- Node4 -->
<g id="node4" class="node"><title>Node4</title>
<g id="a_node4"><a xlink:title=" ">
<polygon fill="none" stroke="#bfbfbf" points="629,-0.5 629,-30.5 737,-30.5 737,-0.5 629,-0.5"/>
<text text-anchor="start" x="637" y="-18.5" font-family="Helvetica,sans-Serif" font-size="10.00">xercesc/util/Xerces</text>
<text text-anchor="middle" x="683" y="-7.5" font-family="Helvetica,sans-Serif" font-size="10.00">_autoconf_config.hpp</text>
</a>
</g>
</g>
<!-- Node3&#45;&gt;Node4 -->
<g id="edge3" class="edge"><title>Node3&#45;&gt;Node4</title>
<path fill="none" stroke="midnightblue" d="M811.347,-72.8685C789.235,-63.1572 752.695,-47.1092 724.246,-34.6148"/>
<polygon fill="midnightblue" stroke="midnightblue" points="725.504,-31.3447 714.941,-30.5281 722.689,-37.7539 725.504,-31.3447"/>
</g>
<!-- Node5 -->
<g id="node5" class="node"><title>Node5</title>
<g id="a_node5"><a xlink:title=" ">
<polygon fill="none" stroke="#bfbfbf" points="755.5,-6 755.5,-25 906.5,-25 906.5,-6 755.5,-6"/>
<text text-anchor="middle" x="831" y="-13" font-family="Helvetica,sans-Serif" font-size="10.00">xercesc/util/XercesVersion.hpp</text>
</a>
</g>
</g>
<!-- Node3&#45;&gt;Node5 -->
<g id="edge4" class="edge"><title>Node3&#45;&gt;Node5</title>
<path fill="none" stroke="midnightblue" d="M831,-72.7338C831,-63.1826 831,-47.6183 831,-35.2829"/>
<polygon fill="midnightblue" stroke="midnightblue" points="834.5,-35.1273 831,-25.1273 827.5,-35.1273 834.5,-35.1273"/>
</g>
<!-- Node6 -->
<g id="node6" class="node"><title>Node6</title>
<g id="a_node6"><a xlink:href="XalanVersion_8hpp.html" target="_top" xlink:title=" ">
<polygon fill="none" stroke="black" points="925,-6 925,-25 1017,-25 1017,-6 925,-6"/>
<text text-anchor="middle" x="971" y="-13" font-family="Helvetica,sans-Serif" font-size="10.00">XalanVersion.hpp</text>
</a>
</g>
</g>
<!-- Node3&#45;&gt;Node6 -->
<g id="edge5" class="edge"><title>Node3&#45;&gt;Node6</title>
<path fill="none" stroke="midnightblue" d="M849.591,-72.8685C873.544,-61.7476 915.395,-42.3167 943.154,-29.4286"/>
<polygon fill="midnightblue" stroke="midnightblue" points="944.736,-32.5529 952.332,-25.1672 941.788,-26.2038 944.736,-32.5529"/>
</g>
<!-- Node7&#45;&gt;Node2 -->
<g id="edge7" class="edge"><title>Node7&#45;&gt;Node2</title>
<path fill="none" stroke="midnightblue" d="M993.34,-516.397C1079.06,-513.547 1231.6,-503.359 1271,-467 1286.55,-452.654 1290.56,-428.262 1291.12,-409.892"/>
<polygon fill="midnightblue" stroke="midnightblue" points="1294.62,-409.632 1291.11,-399.636 1287.62,-409.64 1294.62,-409.632"/>
</g>
<!-- Node8 -->
<g id="node8" class="node"><title>Node8</title>
<g id="a_node8"><a xlink:title=" ">
<polygon fill="none" stroke="#bfbfbf" points="709,-140 709,-159 765,-159 765,-140 709,-140"/>
<text text-anchor="middle" x="737" y="-147" font-family="Helvetica,sans-Serif" font-size="10.00">algorithm</text>
</a>
</g>
</g>
<!-- Node7&#45;&gt;Node8 -->
<g id="edge8" class="edge"><title>Node7&#45;&gt;Node8</title>
<path fill="none" stroke="midnightblue" d="M958.031,-503.236C985.683,-486.864 1032.49,-459.273 1073,-436 1093.23,-424.376 1244.22,-353.143 1256,-333 1268.24,-312.062 1249.57,-266.703 1239,-257 1170.54,-194.172 880.373,-163.024 775.236,-153.641"/>
<polygon fill="midnightblue" stroke="midnightblue" points="775.343,-150.137 765.075,-152.751 774.732,-157.11 775.343,-150.137"/>
</g>
<!-- Node9 -->
<g id="node9" class="node"><title>Node9</title>
<g id="a_node9"><a xlink:title=" ">
<polygon fill="none" stroke="#bfbfbf" points="482.5,-73 482.5,-92 531.5,-92 531.5,-73 482.5,-73"/>
<text text-anchor="middle" x="507" y="-80" font-family="Helvetica,sans-Serif" font-size="10.00">cassert</text>
</a>
</g>
</g>
<!-- Node7&#45;&gt;Node9 -->
<g id="edge9" class="edge"><title>Node7&#45;&gt;Node9</title>
<path fill="none" stroke="midnightblue" d="M874.918,-507.473C780.33,-490.057 601.864,-451.132 566,-400 507.818,-317.048 611.992,-423.951 736,-277 778.411,-226.742 815.957,-184.637 774,-134 744.917,-98.9012 607.604,-88.0162 542.027,-84.7887"/>
<polygon fill="midnightblue" stroke="midnightblue" points="541.923,-81.2804 531.773,-84.318 541.602,-88.273 541.923,-81.2804"/>
</g>
<!-- Node10 -->
<g id="node10" class="node"><title>Node10</title>
<g id="a_node10"><a xlink:title=" ">
<polygon fill="none" stroke="#bfbfbf" points="866,-201.5 866,-220.5 924,-220.5 924,-201.5 866,-201.5"/>
<text text-anchor="middle" x="895" y="-208.5" font-family="Helvetica,sans-Serif" font-size="10.00">functional</text>
</a>
</g>
</g>
<!-- Node7&#45;&gt;Node10 -->
<g id="edge10" class="edge"><title>Node7&#45;&gt;Node10</title>
<path fill="none" stroke="midnightblue" d="M942.501,-503.268C958.238,-474.87 987.719,-410.355 958,-369 928.719,-328.255 880.281,-373.745 851,-333 827.313,-300.038 859.369,-252.956 880.005,-228.371"/>
<polygon fill="midnightblue" stroke="midnightblue" points="882.783,-230.51 886.718,-220.673 877.508,-225.91 882.783,-230.51"/>
</g>
<!-- Node11 -->
<g id="node11" class="node"><title>Node11</title>
<g id="a_node11"><a xlink:title=" ">
<polygon fill="none" stroke="#bfbfbf" points="1082,-442 1082,-461 1126,-461 1126,-442 1082,-442"/>
<text text-anchor="middle" x="1104" y="-449" font-family="Helvetica,sans-Serif" font-size="10.00">iosfwd</text>
</a>
</g>
</g>
<!-- Node7&#45;&gt;Node11 -->
<g id="edge11" class="edge"><title>Node7&#45;&gt;Node11</title>
<path fill="none" stroke="midnightblue" d="M971.919,-503.469C998.8,-493.459 1035.69,-479.595 1068,-467 1069.84,-466.284 1071.72,-465.543 1073.62,-464.791"/>
<polygon fill="midnightblue" stroke="midnightblue" points="1075.1,-467.97 1083.09,-461.014 1072.51,-461.469 1075.1,-467.97"/>
</g>
<!-- Node7&#45;&gt;Node12 -->
<g id="edge12" class="edge"><title>Node7&#45;&gt;Node12</title>
<path fill="none" stroke="midnightblue" d="M874.613,-515.515C772.999,-511.29 570.67,-499.028 508,-467 464.167,-444.599 433,-434.726 433,-385.5 433,-385.5 433,-385.5 433,-322 433,-288.716 445.568,-251.584 454.156,-230.094"/>
<polygon fill="midnightblue" stroke="midnightblue" points="457.482,-231.213 458.089,-220.635 451.018,-228.525 457.482,-231.213"/>
</g>
<!-- Node17 -->
<g id="node17" class="node"><title>Node17</title>
<g id="a_node17"><a xlink:href="XalanMemoryManagement_8hpp.html" target="_top" xlink:title=" ">
<polygon fill="none" stroke="black" points="104,-134.5 104,-164.5 244,-164.5 244,-134.5 104,-134.5"/>
<text text-anchor="start" x="112" y="-152.5" font-family="Helvetica,sans-Serif" font-size="10.00">xalanc/Include/XalanMemory</text>
<text text-anchor="middle" x="174" y="-141.5" font-family="Helvetica,sans-Serif" font-size="10.00">Management.hpp</text>
</a>
</g>
</g>
<!-- Node7&#45;&gt;Node17 -->
<g id="edge42" class="edge"><title>Node7&#45;&gt;Node17</title>
<path fill="none" stroke="midnightblue" d="M874.677,-516.58C762.412,-513.984 523.628,-504.135 451,-467 316.743,-398.353 218.842,-234.51 186.004,-173.721"/>
<polygon fill="midnightblue" stroke="midnightblue" points="188.917,-171.744 181.129,-164.56 182.737,-175.033 188.917,-171.744"/>
</g>
<!-- Node19 -->
<g id="node19" class="node"><title>Node19</title>
<g id="a_node19"><a xlink:href="XalanMap_8hpp.html" target="_top" xlink:title=" ">
<polygon fill="none" stroke="black" points="584.5,-257.5 584.5,-276.5 727.5,-276.5 727.5,-257.5 584.5,-257.5"/>
<text text-anchor="middle" x="656" y="-264.5" font-family="Helvetica,sans-Serif" font-size="10.00">xalanc/Include/XalanMap.hpp</text>
</a>
</g>
</g>
<!-- Node7&#45;&gt;Node19 -->
<g id="edge26" class="edge"><title>Node7&#45;&gt;Node19</title>
<path fill="none" stroke="midnightblue" d="M874.692,-514.296C768.586,-507.954 555.22,-492.194 533,-467 487.727,-415.668 493.788,-369.099 533,-313 544.423,-296.658 562.451,-286.232 581.219,-279.585"/>
<polygon fill="midnightblue" stroke="midnightblue" points="582.309,-282.911 590.767,-276.53 580.176,-276.244 582.309,-282.911"/>
</g>
<!-- Node22 -->
<g id="node22" class="node"><title>Node22</title>
<g id="a_node22"><a xlink:href="STLHelper_8hpp.html" target="_top" xlink:title=" ">
<polygon fill="none" stroke="black" points="860,-313.5 860,-332.5 1006,-332.5 1006,-313.5 860,-313.5"/>
<text text-anchor="middle" x="933" y="-320.5" font-family="Helvetica,sans-Serif" font-size="10.00">xalanc/Include/STLHelper.hpp</text>
</a>
</g>
</g>
<!-- Node7&#45;&gt;Node22 -->
<g id="edge43" class="edge"><title>Node7&#45;&gt;Node22</title>
<path fill="none" stroke="midnightblue" d="M958.587,-503.295C971.095,-494.585 985.085,-482.189 992,-467 1010.05,-427.359 1011.32,-408.036 992,-369 985.397,-355.659 972.735,-345.194 960.829,-337.726"/>
<polygon fill="midnightblue" stroke="midnightblue" points="962.391,-334.587 951.984,-332.602 958.882,-340.643 962.391,-334.587"/>
</g>
<!-- Node23 -->
<g id="node23" class="node"><title>Node23</title>
<g id="a_node23"><a xlink:href="XalanDOMString_8hpp.html" target="_top" xlink:title=" ">
<polygon fill="none" stroke="black" points="575.5,-375 575.5,-394 762.5,-394 762.5,-375 575.5,-375"/>
<text text-anchor="middle" x="669" y="-382" font-family="Helvetica,sans-Serif" font-size="10.00">xalanc/XalanDOM/XalanDOMString.hpp</text>
</a>
</g>
</g>
<!-- Node7&#45;&gt;Node23 -->
<g id="edge48" class="edge"><title>Node7&#45;&gt;Node23</title>
<path fill="none" stroke="midnightblue" d="M895.692,-503.464C870.88,-493.993 838.077,-480.751 810,-467 766.616,-445.752 718.336,-416.564 691.019,-399.498"/>
<polygon fill="midnightblue" stroke="midnightblue" points="692.603,-396.36 682.274,-394 688.877,-402.286 692.603,-396.36"/>
</g>
<!-- Node26 -->
<g id="node26" class="node"><title>Node26</title>
<g id="a_node26"><a xlink:href="FormatterListener_8hpp.html" target="_top" xlink:title=" ">
<polygon fill="none" stroke="black" points="819,-436.5 819,-466.5 937,-466.5 937,-436.5 819,-436.5"/>
<text text-anchor="start" x="827" y="-454.5" font-family="Helvetica,sans-Serif" font-size="10.00">xalanc/PlatformSupport</text>
<text text-anchor="middle" x="878" y="-443.5" font-family="Helvetica,sans-Serif" font-size="10.00">/FormatterListener.hpp</text>
</a>
</g>
</g>
<!-- Node7&#45;&gt;Node26 -->
<g id="edge57" class="edge"><title>Node7&#45;&gt;Node26</title>
<path fill="none" stroke="midnightblue" d="M921.849,-503.396C914.51,-494.878 905.007,-483.847 896.724,-474.233"/>
<polygon fill="midnightblue" stroke="midnightblue" points="899.306,-471.868 890.127,-466.577 894.003,-476.437 899.306,-471.868"/>
</g>
<!-- Node28 -->
<g id="node28" class="node"><title>Node28</title>
<g id="a_node28"><a xlink:href="XalanUnicode_8hpp.html" target="_top" xlink:title=" ">
<polygon fill="none" stroke="black" points="1318,-436.5 1318,-466.5 1436,-466.5 1436,-436.5 1318,-436.5"/>
<text text-anchor="start" x="1326" y="-454.5" font-family="Helvetica,sans-Serif" font-size="10.00">xalanc/PlatformSupport</text>
<text text-anchor="middle" x="1377" y="-443.5" font-family="Helvetica,sans-Serif" font-size="10.00">/XalanUnicode.hpp</text>
</a>
</g>
</g>
<!-- Node7&#45;&gt;Node28 -->
<g id="edge61" class="edge"><title>Node7&#45;&gt;Node28</title>
<path fill="none" stroke="midnightblue" d="M993.121,-510.549C1066.3,-501.687 1194.66,-485.304 1304,-467 1305.25,-466.79 1306.52,-466.575 1307.8,-466.355"/>
<polygon fill="midnightblue" stroke="midnightblue" points="1308.46,-469.791 1317.69,-464.592 1307.23,-462.9 1308.46,-469.791"/>
</g>
<!-- Node29 -->
<g id="node29" class="node"><title>Node29</title>
<g id="a_node29"><a xlink:href="XalanXMLChar_8hpp.html" target="_top" xlink:title=" ">
<polygon fill="none" stroke="black" points="1144,-436.5 1144,-466.5 1262,-466.5 1262,-436.5 1144,-436.5"/>
<text text-anchor="start" x="1152" y="-454.5" font-family="Helvetica,sans-Serif" font-size="10.00">xalanc/PlatformSupport</text>
<text text-anchor="middle" x="1203" y="-443.5" font-family="Helvetica,sans-Serif" font-size="10.00">/XalanXMLChar.hpp</text>
</a>
</g>
</g>
<!-- Node7&#45;&gt;Node29 -->
<g id="edge63" class="edge"><title>Node7&#45;&gt;Node29</title>
<path fill="none" stroke="midnightblue" d="M992.038,-503.476C1033.97,-493.345 1090.74,-479.626 1134.83,-468.973"/>
<polygon fill="midnightblue" stroke="midnightblue" points="1135.7,-472.362 1144.6,-466.611 1134.06,-465.558 1135.7,-472.362"/>
</g>
<!-- Node12&#45;&gt;Node3 -->
<g id="edge13" class="edge"><title>Node12&#45;&gt;Node3</title>
<path fill="none" stroke="midnightblue" d="M443.918,-201.39C430.438,-193.872 413.028,-181.565 405,-165 398.992,-152.601 395.849,-144.3 405,-134 426.224,-110.112 610.452,-95.5563 729.588,-88.5565"/>
<polygon fill="midnightblue" stroke="midnightblue" points="730.053,-92.0356 739.834,-87.9637 729.648,-85.0473 730.053,-92.0356"/>
</g>
<!-- Node12&#45;&gt;Node8 -->
<g id="edge15" class="edge"><title>Node12&#45;&gt;Node8</title>
<path fill="none" stroke="midnightblue" d="M501.401,-201.475C554.17,-190.058 647.162,-169.938 699.137,-158.692"/>
<polygon fill="midnightblue" stroke="midnightblue" points="699.927,-162.102 708.961,-156.567 698.446,-155.261 699.927,-162.102"/>
</g>
<!-- Node12&#45;&gt;Node9 -->
<g id="edge16" class="edge"><title>Node12&#45;&gt;Node9</title>
<path fill="none" stroke="midnightblue" d="M424.898,-201.458C405.555,-194.918 383.572,-183.724 372,-165 364.757,-153.28 364.148,-145.321 372,-134 394.359,-101.764 439.964,-90.0713 471.956,-85.8502"/>
<polygon fill="midnightblue" stroke="midnightblue" points="472.689,-89.2898 482.231,-84.6863 471.901,-82.3343 472.689,-89.2898"/>
</g>
<!-- Node13 -->
<g id="node13" class="node"><title>Node13</title>
<g id="a_node13"><a xlink:title=" ">
<polygon fill="none" stroke="#bfbfbf" points="45,-73 45,-92 93,-92 93,-73 45,-73"/>
<text text-anchor="middle" x="69" y="-80" font-family="Helvetica,sans-Serif" font-size="10.00">cstddef</text>
</a>
</g>
</g>
<!-- Node12&#45;&gt;Node13 -->
<g id="edge14" class="edge"><title>Node12&#45;&gt;Node13</title>
<path fill="none" stroke="midnightblue" d="M385.639,-201.675C279.741,-189.983 100.56,-169.608 95,-165 76.4463,-149.625 70.9669,-121.002 69.4419,-102.1"/>
<polygon fill="midnightblue" stroke="midnightblue" points="72.9332,-101.837 68.9268,-92.0293 65.9423,-102.195 72.9332,-101.837"/>
</g>
<!-- Node14 -->
<g id="node14" class="node"><title>Node14</title>
<g id="a_node14"><a xlink:title=" ">
<polygon fill="none" stroke="#bfbfbf" points="293,-73 293,-92 327,-92 327,-73 293,-73"/>
<text text-anchor="middle" x="310" y="-80" font-family="Helvetica,sans-Serif" font-size="10.00">new</text>
</a>
</g>
</g>
<!-- Node12&#45;&gt;Node14 -->
<g id="edge17" class="edge"><title>Node12&#45;&gt;Node14</title>
<path fill="none" stroke="midnightblue" d="M432.232,-201.426C411.164,-194.249 383.181,-182.361 363,-165 342.368,-147.251 326.7,-119.526 317.928,-101.435"/>
<polygon fill="midnightblue" stroke="midnightblue" points="321.06,-99.8692 313.675,-92.2719 314.71,-102.816 321.06,-99.8692"/>
</g>
<!-- Node15 -->
<g id="node15" class="node"><title>Node15</title>
<g id="a_node15"><a xlink:title=" ">
<polygon fill="none" stroke="#bfbfbf" points="491.5,-140 491.5,-159 538.5,-159 538.5,-140 491.5,-140"/>
<text text-anchor="middle" x="515" y="-147" font-family="Helvetica,sans-Serif" font-size="10.00">iterator</text>
</a>
</g>
</g>
<!-- Node12&#45;&gt;Node15 -->
<g id="edge18" class="edge"><title>Node12&#45;&gt;Node15</title>
<path fill="none" stroke="midnightblue" d="M469.594,-201.475C477.701,-192.373 490.735,-177.741 500.763,-166.483"/>
<polygon fill="midnightblue" stroke="midnightblue" points="503.383,-168.804 507.42,-159.009 498.156,-164.148 503.383,-168.804"/>
</g>
<!-- Node16 -->
<g id="node16" class="node"><title>Node16</title>
<g id="a_node16"><a xlink:title=" ">
<polygon fill="none" stroke="#bfbfbf" points="414.5,-140 414.5,-159 473.5,-159 473.5,-140 414.5,-140"/>
<text text-anchor="middle" x="444" y="-147" font-family="Helvetica,sans-Serif" font-size="10.00">stdexcept</text>
</a>
</g>
</g>
<!-- Node12&#45;&gt;Node16 -->
<g id="edge19" class="edge"><title>Node12&#45;&gt;Node16</title>
<path fill="none" stroke="midnightblue" d="M459.421,-201.475C456.855,-192.992 452.835,-179.704 449.543,-168.822"/>
<polygon fill="midnightblue" stroke="midnightblue" points="452.82,-167.567 446.574,-159.009 446.12,-169.594 452.82,-167.567"/>
</g>
<!-- Node12&#45;&gt;Node17 -->
<g id="edge20" class="edge"><title>Node12&#45;&gt;Node17</title>
<path fill="none" stroke="midnightblue" d="M420.737,-201.475C376.81,-192.4 306.269,-177.826 251.841,-166.582"/>
<polygon fill="midnightblue" stroke="midnightblue" points="252.377,-163.119 241.876,-164.523 250.961,-169.974 252.377,-163.119"/>
</g>
<!-- Node17&#45;&gt;Node3 -->
<g id="edge21" class="edge"><title>Node17&#45;&gt;Node3</title>
<path fill="none" stroke="midnightblue" d="M244.311,-141.544C362.472,-129.854 601.034,-106.252 734.686,-93.0288"/>
<polygon fill="midnightblue" stroke="midnightblue" points="735.307,-96.4845 744.914,-92.0169 734.618,-89.5185 735.307,-96.4845"/>
</g>
<!-- Node17&#45;&gt;Node9 -->
<g id="edge22" class="edge"><title>Node17&#45;&gt;Node9</title>
<path fill="none" stroke="midnightblue" d="M244.214,-134.795C314.16,-121.141 418.649,-100.746 472.366,-90.2603"/>
<polygon fill="midnightblue" stroke="midnightblue" points="473.263,-93.6514 482.408,-88.3003 471.922,-86.781 473.263,-93.6514"/>
</g>
<!-- Node17&#45;&gt;Node13 -->
<g id="edge23" class="edge"><title>Node17&#45;&gt;Node13</title>
<path fill="none" stroke="midnightblue" d="M151.217,-134.396C133.445,-123.395 108.9,-108.2 91.2631,-97.2819"/>
<polygon fill="midnightblue" stroke="midnightblue" points="93.087,-94.2947 82.7421,-92.007 89.4025,-100.247 93.087,-94.2947"/>
</g>
<!-- Node17&#45;&gt;Node14 -->
<g id="edge24" class="edge"><title>Node17&#45;&gt;Node14</title>
<path fill="none" stroke="midnightblue" d="M203.51,-134.396C227.435,-122.961 260.838,-106.996 283.822,-96.0118"/>
<polygon fill="midnightblue" stroke="midnightblue" points="285.462,-99.1069 292.975,-91.6367 282.444,-92.7911 285.462,-99.1069"/>
</g>
<!-- Node18 -->
<g id="node18" class="node"><title>Node18</title>
<g id="a_node18"><a xlink:title=" ">
<polygon fill="none" stroke="#bfbfbf" points="111.5,-67.5 111.5,-97.5 248.5,-97.5 248.5,-67.5 111.5,-67.5"/>
<text text-anchor="start" x="119.5" y="-85.5" font-family="Helvetica,sans-Serif" font-size="10.00">xercesc/framework/Memory</text>
<text text-anchor="middle" x="180" y="-74.5" font-family="Helvetica,sans-Serif" font-size="10.00">Manager.hpp</text>
</a>
</g>
</g>
<!-- Node17&#45;&gt;Node18 -->
<g id="edge25" class="edge"><title>Node17&#45;&gt;Node18</title>
<path fill="none" stroke="midnightblue" d="M175.302,-134.396C176.025,-126.56 176.945,-116.596 177.779,-107.565"/>
<polygon fill="midnightblue" stroke="midnightblue" points="181.267,-107.856 178.701,-97.5765 174.296,-107.212 181.267,-107.856"/>
</g>
<!-- Node19&#45;&gt;Node3 -->
<g id="edge27" class="edge"><title>Node19&#45;&gt;Node3</title>
<path fill="none" stroke="midnightblue" d="M672.206,-257.383C687.017,-249.105 709.117,-235.711 726,-221 767.932,-184.463 804.138,-128.844 820.963,-100.863"/>
<polygon fill="midnightblue" stroke="midnightblue" points="824.011,-102.585 826.084,-92.1949 817.984,-99.0245 824.011,-102.585"/>
</g>
<!-- Node19&#45;&gt;Node8 -->
<g id="edge29" class="edge"><title>Node19&#45;&gt;Node8</title>
<path fill="none" stroke="midnightblue" d="M667.75,-257.444C678.545,-249.109 694.428,-235.591 705,-221 716.677,-204.884 725.551,-183.827 730.958,-168.935"/>
<polygon fill="midnightblue" stroke="midnightblue" points="734.316,-169.935 734.274,-159.34 727.7,-167.649 734.316,-169.935"/>
</g>
<!-- Node19&#45;&gt;Node10 -->
<g id="edge30" class="edge"><title>Node19&#45;&gt;Node10</title>
<path fill="none" stroke="midnightblue" d="M693.87,-257.444C738.197,-247.428 811.228,-230.928 856.025,-220.806"/>
<polygon fill="midnightblue" stroke="midnightblue" points="856.97,-224.181 865.952,-218.563 855.427,-217.353 856.97,-224.181"/>
</g>
<!-- Node19&#45;&gt;Node12 -->
<g id="edge32" class="edge"><title>Node19&#45;&gt;Node12</title>
<path fill="none" stroke="midnightblue" d="M625.26,-257.444C592.056,-248.201 539.009,-233.436 502.443,-223.257"/>
<polygon fill="midnightblue" stroke="midnightblue" points="503.168,-219.826 492.596,-220.516 501.291,-226.57 503.168,-219.826"/>
</g>
<!-- Node19&#45;&gt;Node13 -->
<g id="edge28" class="edge"><title>Node19&#45;&gt;Node13</title>
<path fill="none" stroke="midnightblue" d="M584.247,-260.865C526.973,-255.247 445.296,-243.799 377,-221 358.897,-214.957 357.18,-206.808 339,-201 281.97,-182.779 112.227,-209.342 72,-165 56.7231,-148.16 59.4313,-120.379 63.5726,-102.009"/>
<polygon fill="midnightblue" stroke="midnightblue" points="66.9936,-102.76 66.1197,-92.2009 60.2183,-101 66.9936,-102.76"/>
</g>
<!-- Node20 -->
<g id="node20" class="node"><title>Node20</title>
<g id="a_node20"><a xlink:title=" ">
<polygon fill="none" stroke="#bfbfbf" points="290,-201.5 290,-220.5 330,-220.5 330,-201.5 290,-201.5"/>
<text text-anchor="middle" x="310" y="-208.5" font-family="Helvetica,sans-Serif" font-size="10.00">utility</text>
</a>
</g>
</g>
<!-- Node19&#45;&gt;Node20 -->
<g id="edge31" class="edge"><title>Node19&#45;&gt;Node20</title>
<path fill="none" stroke="midnightblue" d="M584.344,-258.052C520.843,-250.442 425.779,-237.663 344,-221 342.721,-220.739 341.419,-220.46 340.106,-220.166"/>
<polygon fill="midnightblue" stroke="midnightblue" points="340.589,-216.681 330.045,-217.717 338.934,-223.483 340.589,-216.681"/>
</g>
<!-- Node21 -->
<g id="node21" class="node"><title>Node21</title>
<g id="a_node21"><a xlink:href="XalanList_8hpp.html" target="_top" xlink:title=" ">
<polygon fill="none" stroke="black" points="556,-201.5 556,-220.5 696,-220.5 696,-201.5 556,-201.5"/>
<text text-anchor="middle" x="626" y="-208.5" font-family="Helvetica,sans-Serif" font-size="10.00">xalanc/Include/XalanList.hpp</text>
</a>
</g>
</g>
<!-- Node19&#45;&gt;Node21 -->
<g id="edge33" class="edge"><title>Node19&#45;&gt;Node21</title>
<path fill="none" stroke="midnightblue" d="M651.046,-257.083C646.896,-249.613 640.847,-238.724 635.733,-229.52"/>
<polygon fill="midnightblue" stroke="midnightblue" points="638.778,-227.793 630.862,-220.751 632.659,-231.192 638.778,-227.793"/>
</g>
<!-- Node21&#45;&gt;Node3 -->
<g id="edge34" class="edge"><title>Node21&#45;&gt;Node3</title>
<path fill="none" stroke="midnightblue" d="M632.396,-201.293C644.179,-185.802 670.796,-153.273 700,-134 726.968,-116.202 761.134,-103.295 787.812,-94.9867"/>
<polygon fill="midnightblue" stroke="midnightblue" points="789.073,-98.2621 797.639,-92.0268 787.054,-91.5596 789.073,-98.2621"/>
</g>
<!-- Node21&#45;&gt;Node8 -->
<g id="edge36" class="edge"><title>Node21&#45;&gt;Node8</title>
<path fill="none" stroke="midnightblue" d="M641.904,-201.475C660.285,-191.622 690.756,-175.288 712.245,-163.77"/>
<polygon fill="midnightblue" stroke="midnightblue" points="713.966,-166.818 721.126,-159.009 710.659,-160.649 713.966,-166.818"/>
</g>
<!-- Node21&#45;&gt;Node9 -->
<g id="edge37" class="edge"><title>Node21&#45;&gt;Node9</title>
<path fill="none" stroke="midnightblue" d="M627.842,-201.055C630.459,-185.762 633.464,-154.281 619,-134 600.96,-108.705 567.188,-95.8454 541.428,-89.4597"/>
<polygon fill="midnightblue" stroke="midnightblue" points="542.175,-86.0402 531.649,-87.245 540.629,-92.8674 542.175,-86.0402"/>
</g>
<!-- Node21&#45;&gt;Node13 -->
<g id="edge35" class="edge"><title>Node21&#45;&gt;Node13</title>
<path fill="none" stroke="midnightblue" d="M617.231,-201.255C597.574,-181.696 551.359,-135.965 547,-134 366.096,-52.4779 294.384,-146.583 102,-98 99.6963,-97.4182 97.35,-96.6901 95.0245,-95.8718"/>
<polygon fill="midnightblue" stroke="midnightblue" points="96.3277,-92.6235 85.7437,-92.1442 93.7187,-99.1191 96.3277,-92.6235"/>
</g>
<!-- Node21&#45;&gt;Node14 -->
<g id="edge38" class="edge"><title>Node21&#45;&gt;Node14</title>
<path fill="none" stroke="midnightblue" d="M623.493,-201.288C618.376,-185.186 605.128,-150.871 581,-134 541.688,-106.511 397.77,-91.1074 337.178,-85.7177"/>
<polygon fill="midnightblue" stroke="midnightblue" points="337.47,-82.23 327.205,-84.8547 336.866,-89.2039 337.47,-82.23"/>
</g>
<!-- Node21&#45;&gt;Node15 -->
<g id="edge39" class="edge"><title>Node21&#45;&gt;Node15</title>
<path fill="none" stroke="midnightblue" d="M610.096,-201.475C591.715,-191.622 561.244,-175.288 539.755,-163.77"/>
<polygon fill="midnightblue" stroke="midnightblue" points="541.341,-160.649 530.874,-159.009 538.034,-166.818 541.341,-160.649"/>
</g>
<!-- Node21&#45;&gt;Node16 -->
<g id="edge40" class="edge"><title>Node21&#45;&gt;Node16</title>
<path fill="none" stroke="midnightblue" d="M596.868,-201.471C567.657,-192.785 521.472,-178.684 482,-165 479.748,-164.219 477.43,-163.393 475.101,-162.545"/>
<polygon fill="midnightblue" stroke="midnightblue" points="476.211,-159.224 465.618,-159.013 473.768,-165.784 476.211,-159.224"/>
</g>
<!-- Node21&#45;&gt;Node17 -->
<g id="edge41" class="edge"><title>Node21&#45;&gt;Node17</title>
<path fill="none" stroke="midnightblue" d="M561.239,-201.475C480.348,-190.827 341.952,-172.609 254.373,-161.08"/>
<polygon fill="midnightblue" stroke="midnightblue" points="254.587,-157.578 244.216,-159.743 253.674,-164.518 254.587,-157.578"/>
</g>
<!-- Node22&#45;&gt;Node3 -->
<g id="edge44" class="edge"><title>Node22&#45;&gt;Node3</title>
<path fill="none" stroke="midnightblue" d="M940.412,-313.411C947.276,-304.844 957.006,-290.979 961,-277 966.817,-256.64 955.086,-206.932 952,-201 928.465,-155.761 880.954,-117.695 852.979,-97.9793"/>
<polygon fill="midnightblue" stroke="midnightblue" points="854.86,-95.0247 844.638,-92.2369 850.89,-100.79 854.86,-95.0247"/>
</g>
<!-- Node22&#45;&gt;Node8 -->
<g id="edge45" class="edge"><title>Node22&#45;&gt;Node8</title>
<path fill="none" stroke="midnightblue" d="M936.249,-313.244C943.665,-291.597 959.251,-234.872 933,-201 913.869,-176.315 826.809,-161.563 775.377,-154.851"/>
<polygon fill="midnightblue" stroke="midnightblue" points="775.647,-151.358 765.288,-153.578 774.771,-158.302 775.647,-151.358"/>
</g>
<!-- Node22&#45;&gt;Node10 -->
<g id="edge46" class="edge"><title>Node22&#45;&gt;Node10</title>
<path fill="none" stroke="midnightblue" d="M930.018,-313.368C923.858,-295.537 909.611,-254.295 901.312,-230.272"/>
<polygon fill="midnightblue" stroke="midnightblue" points="904.541,-228.9 897.968,-220.591 897.925,-231.186 904.541,-228.9"/>
</g>
<!-- Node22&#45;&gt;Node19 -->
<g id="edge47" class="edge"><title>Node22&#45;&gt;Node19</title>
<path fill="none" stroke="midnightblue" d="M889.109,-313.444C840.483,-303.964 762.054,-288.675 709.776,-278.483"/>
<polygon fill="midnightblue" stroke="midnightblue" points="710.171,-274.995 699.686,-276.516 708.832,-281.865 710.171,-274.995"/>
</g>
<!-- Node23&#45;&gt;Node9 -->
<g id="edge51" class="edge"><title>Node23&#45;&gt;Node9</title>
<path fill="none" stroke="midnightblue" d="M680.895,-374.79C725.554,-341.082 877.163,-216.961 807,-134 773.424,-94.2992 614.035,-85.7947 542.224,-83.9839"/>
<polygon fill="midnightblue" stroke="midnightblue" points="541.961,-80.4773 531.885,-83.7547 541.805,-87.4756 541.961,-80.4773"/>
</g>
<!-- Node23&#45;&gt;Node12 -->
<g id="edge54" class="edge"><title>Node23&#45;&gt;Node12</title>
<path fill="none" stroke="midnightblue" d="M658.735,-374.995C625.764,-347.679 522.26,-261.925 480.12,-227.012"/>
<polygon fill="midnightblue" stroke="midnightblue" points="482.261,-224.241 472.327,-220.556 477.795,-229.631 482.261,-224.241"/>
</g>
<!-- Node23&#45;&gt;Node17 -->
<g id="edge53" class="edge"><title>Node23&#45;&gt;Node17</title>
<path fill="none" stroke="midnightblue" d="M644.213,-374.944C581.623,-352.954 412.801,-291.235 281,-221 252.701,-205.92 222.348,-185.472 201.225,-170.481"/>
<polygon fill="midnightblue" stroke="midnightblue" points="203.217,-167.602 193.05,-164.623 199.141,-173.292 203.217,-167.602"/>
</g>
<!-- Node23&#45;&gt;Node22 -->
<g id="edge52" class="edge"><title>Node23&#45;&gt;Node22</title>
<path fill="none" stroke="midnightblue" d="M706.825,-374.975C753.874,-364.371 834.232,-346.26 885.416,-334.724"/>
<polygon fill="midnightblue" stroke="midnightblue" points="886.26,-338.122 895.245,-332.509 884.721,-331.293 886.26,-338.122"/>
</g>
<!-- Node24 -->
<g id="node24" class="node"><title>Node24</title>
<g id="a_node24"><a xlink:href="XalanDOMDefinitions_8hpp.html" target="_top" xlink:title=" ">
<polygon fill="none" stroke="black" points="1024,-257.5 1024,-276.5 1230,-276.5 1230,-257.5 1024,-257.5"/>
<text text-anchor="middle" x="1127" y="-264.5" font-family="Helvetica,sans-Serif" font-size="10.00">xalanc/XalanDOM/XalanDOMDefinitions.hpp</text>
</a>
</g>
</g>
<!-- Node23&#45;&gt;Node24 -->
<g id="edge49" class="edge"><title>Node23&#45;&gt;Node24</title>
<path fill="none" stroke="midnightblue" d="M724.237,-374.987C739.373,-372.835 755.798,-370.665 771,-369 822.734,-363.335 1202.64,-371.188 1238,-333 1261.08,-308.074 1217.54,-289.821 1178.41,-279.111"/>
<polygon fill="midnightblue" stroke="midnightblue" points="1179.16,-275.689 1168.6,-276.551 1177.39,-282.463 1179.16,-275.689"/>
</g>
<!-- Node25 -->
<g id="node25" class="node"><title>Node25</title>
<g id="a_node25"><a xlink:href="XalanDOMException_8hpp.html" target="_top" xlink:title=" ">
<polygon fill="none" stroke="black" points="1024.5,-313.5 1024.5,-332.5 1229.5,-332.5 1229.5,-313.5 1024.5,-313.5"/>
<text text-anchor="middle" x="1127" y="-320.5" font-family="Helvetica,sans-Serif" font-size="10.00">xalanc/XalanDOM/XalanDOMException.hpp</text>
</a>
</g>
</g>
<!-- Node23&#45;&gt;Node25 -->
<g id="edge55" class="edge"><title>Node23&#45;&gt;Node25</title>
<path fill="none" stroke="midnightblue" d="M727.77,-374.987C741.921,-372.981 756.995,-370.88 771,-369 865.794,-356.272 974.929,-342.625 1047.11,-333.74"/>
<polygon fill="midnightblue" stroke="midnightblue" points="1047.55,-337.213 1057.04,-332.518 1046.69,-330.265 1047.55,-337.213"/>
</g>
<!-- Node24&#45;&gt;Node3 -->
<g id="edge50" class="edge"><title>Node24&#45;&gt;Node3</title>
<path fill="none" stroke="midnightblue" d="M1121.5,-257.424C1106,-233.96 1059.46,-168.185 1004,-134 971.775,-114.139 931.37,-101.771 897.714,-94.2501"/>
<polygon fill="midnightblue" stroke="midnightblue" points="898.013,-90.7351 887.502,-92.0688 896.55,-97.5806 898.013,-90.7351"/>
</g>
<!-- Node25&#45;&gt;Node24 -->
<g id="edge56" class="edge"><title>Node25&#45;&gt;Node24</title>
<path fill="none" stroke="midnightblue" d="M1127,-313.083C1127,-306.006 1127,-295.861 1127,-286.986"/>
<polygon fill="midnightblue" stroke="midnightblue" points="1130.5,-286.751 1127,-276.751 1123.5,-286.751 1130.5,-286.751"/>
</g>
<!-- Node26&#45;&gt;Node2 -->
<g id="edge58" class="edge"><title>Node26&#45;&gt;Node2</title>
<path fill="none" stroke="midnightblue" d="M937.03,-441.187C1006.7,-430.196 1123.16,-411.822 1203.13,-399.205"/>
<polygon fill="midnightblue" stroke="midnightblue" points="1203.85,-402.635 1213.18,-397.619 1202.76,-395.72 1203.85,-402.635"/>
</g>
<!-- Node26&#45;&gt;Node23 -->
<g id="edge60" class="edge"><title>Node26&#45;&gt;Node23</title>
<path fill="none" stroke="midnightblue" d="M832.907,-436.476C795.118,-424.723 741.807,-408.143 706.364,-397.12"/>
<polygon fill="midnightblue" stroke="midnightblue" points="707.011,-393.656 696.423,-394.029 704.932,-400.341 707.011,-393.656"/>
</g>
<!-- Node27 -->
<g id="node27" class="node"><title>Node27</title>
<g id="a_node27"><a xlink:title=" ">
<polygon fill="none" stroke="#bfbfbf" points="780.5,-375 780.5,-394 949.5,-394 949.5,-375 780.5,-375"/>
<text text-anchor="middle" x="865" y="-382" font-family="Helvetica,sans-Serif" font-size="10.00">xercesc/sax/DocumentHandler.hpp</text>
</a>
</g>
</g>
<!-- Node26&#45;&gt;Node27 -->
<g id="edge59" class="edge"><title>Node26&#45;&gt;Node27</title>
<path fill="none" stroke="midnightblue" d="M875.179,-436.396C873.293,-426.963 870.79,-414.448 868.738,-404.189"/>
<polygon fill="midnightblue" stroke="midnightblue" points="872.132,-403.314 866.739,-394.195 865.268,-404.687 872.132,-403.314"/>
</g>
<!-- Node28&#45;&gt;Node2 -->
<g id="edge62" class="edge"><title>Node28&#45;&gt;Node2</title>
<path fill="none" stroke="midnightblue" d="M1358.12,-436.396C1346.15,-427.452 1330.47,-415.737 1317.17,-405.802"/>
<polygon fill="midnightblue" stroke="midnightblue" points="1318.95,-402.758 1308.84,-399.577 1314.76,-408.366 1318.95,-402.758"/>
</g>
<!-- Node29&#45;&gt;Node2 -->
<g id="edge64" class="edge"><title>Node29&#45;&gt;Node2</title>
<path fill="none" stroke="midnightblue" d="M1221.88,-436.396C1233.85,-427.452 1249.53,-415.737 1262.83,-405.802"/>
<polygon fill="midnightblue" stroke="midnightblue" points="1265.24,-408.366 1271.16,-399.577 1261.05,-402.758 1265.24,-408.366"/>
</g>
<!-- Node30&#45;&gt;Node2 -->
<g id="edge67" class="edge"><title>Node30&#45;&gt;Node2</title>
<path fill="none" stroke="midnightblue" d="M271.518,-446.235C464.206,-434.745 993.737,-403.167 1203.14,-390.68"/>
<polygon fill="midnightblue" stroke="midnightblue" points="1203.39,-394.171 1213.16,-390.082 1202.97,-387.184 1203.39,-394.171"/>
</g>
<!-- Node30&#45;&gt;Node9 -->
<g id="edge70" class="edge"><title>Node30&#45;&gt;Node9</title>
<path fill="none" stroke="midnightblue" d="M204.514,-436.249C211.466,-413.001 224,-365.354 224,-324 224,-324 224,-324 224,-266 224,-149.024 396.883,-103.416 472.399,-89.0739"/>
<polygon fill="midnightblue" stroke="midnightblue" points="473.171,-92.491 482.381,-87.2535 471.915,-85.6046 473.171,-92.491"/>
</g>
<!-- Node30&#45;&gt;Node13 -->
<g id="edge69" class="edge"><title>Node30&#45;&gt;Node13</title>
<path fill="none" stroke="midnightblue" d="M130.33,-436.468C72.6107,-420.303 0,-387.373 0,-324 0,-324 0,-324 0,-210 0,-165.662 33.0724,-122.084 53.4236,-99.4649"/>
<polygon fill="midnightblue" stroke="midnightblue" points="56.0109,-101.822 60.2611,-92.1173 50.8865,-97.0536 56.0109,-101.822"/>
</g>
<!-- Node30&#45;&gt;Node17 -->
<g id="edge68" class="edge"><title>Node30&#45;&gt;Node17</title>
<path fill="none" stroke="midnightblue" d="M189.974,-436.478C174.863,-413.926 148,-367.691 148,-324 148,-324 148,-324 148,-266 148,-233.738 157.774,-197.618 165.337,-174.499"/>
<polygon fill="midnightblue" stroke="midnightblue" points="168.711,-175.447 168.613,-164.852 162.083,-173.196 168.711,-175.447"/>
</g>
<!-- Node30&#45;&gt;Node20 -->
<g id="edge71" class="edge"><title>Node30&#45;&gt;Node20</title>
<path fill="none" stroke="midnightblue" d="M212.459,-436.221C220.502,-426.493 230.775,-413.057 238,-400 270.524,-341.224 294.796,-264.734 304.873,-230.259"/>
<polygon fill="midnightblue" stroke="midnightblue" points="308.246,-231.195 307.639,-220.617 301.517,-229.264 308.246,-231.195"/>
</g>
</g>
</svg>
        <g id="navigator" transform="translate(0 0)" fill="#404254">
                <rect fill="#f2f5e9" fill-opacity="0.5" stroke="#606060" stroke-width=".5" x="0" y="0" width="60" height="60"/>
                <use id="zoomplus" xlink:href="#zoomPlus" x="17" y="9" onmousedown="handleZoom(evt,'in')"/>
                <use id="zoomminus" xlink:href="#zoomMin" x="42" y="9" onmousedown="handleZoom(evt,'out')"/>
                <use id="reset" xlink:href="#resetDef" x="30" y="36" onmousedown="handleReset()"/>
                <g id="arrowUp" xlink:href="#dirArrow" transform="translate(30 24)" onmousedown="handlePan(0,-1)">
                  <use xlink:href="#rim" fill="#404040">
                        <set attributeName="fill" to="#808080" begin="arrowUp.mouseover" end="arrowUp.mouseout"/>
                  </use>
                  <path fill="none" stroke="white" stroke-width="1.5" d="M0,-3.0v7 M-2.5,-0.5L0,-3.0L2.5,-0.5"/>
                </g>
                <g id="arrowRight" xlink:href="#dirArrow" transform="rotate(90) translate(36 -43)" onmousedown="handlePan(1,0)">
                  <use xlink:href="#rim" fill="#404040">
                        <set attributeName="fill" to="#808080" begin="arrowRight.mouseover" end="arrowRight.mouseout"/>
                  </use>
                  <path fill="none" stroke="white" stroke-width="1.5" d="M0,-3.0v7 M-2.5,-0.5L0,-3.0L2.5,-0.5"/>
                </g>
                <g id="arrowDown" xlink:href="#dirArrow" transform="rotate(180) translate(-30 -48)" onmousedown="handlePan(0,1)">
                  <use xlink:href="#rim" fill="#404040">
                        <set attributeName="fill" to="#808080" begin="arrowDown.mouseover" end="arrowDown.mouseout"/>
                  </use>
                  <path fill="none" stroke="white" stroke-width="1.5" d="M0,-3.0v7 M-2.5,-0.5L0,-3.0L2.5,-0.5"/>
                </g>
                <g id="arrowLeft" xlink:href="#dirArrow" transform="rotate(270) translate(-36 17)" onmousedown="handlePan(-1,0)">
                  <use xlink:href="#rim" fill="#404040">
                        <set attributeName="fill" to="#808080" begin="arrowLeft.mouseover" end="arrowLeft.mouseout"/>
                  </use>
                  <path fill="none" stroke="white" stroke-width="1.5" d="M0,-3.0v7 M-2.5,-0.5L0,-3.0L2.5,-0.5"/>
                </g>
        </g>
        <svg viewBox="0 0 15 15" width="100%" height="30px" preserveAspectRatio="xMaxYMin meet">
         <g id="arrow_out" transform="scale(0.3 0.3)">
          <a xlink:href="AttributeVectorEntry_8hpp__incl_org.svg" target="_base">
           <rect id="button" ry="5" rx="5" y="6" x="6" height="38" width="38"
                fill="#f2f5e9" fill-opacity="0.5" stroke="#606060" stroke-width="1.0"/>
           <path id="arrow"
             d="M 11.500037,31.436501 C 11.940474,20.09759 22.043105,11.32322 32.158766,21.979434 L 37.068811,17.246167 C 37.068811,17.246167 37.088388,32 37.088388,32 L 22.160133,31.978069 C 22.160133,31.978069 26.997745,27.140456 26.997745,27.140456 C 18.528582,18.264221 13.291696,25.230495 11.500037,31.436501 z"
             style="fill:#404040;"/>
          </a>
         </g>
        </svg>
</svg>
