<?xml version="1.0" encoding="UTF-8" standalone="no"?>
<!DOCTYPE svg PUBLIC "-//W3C//DTD SVG 1.1//EN"
 "http://www.w3.org/Graphics/SVG/1.1/DTD/svg11.dtd">
<!-- Generated by graphviz version 2.38.0 (20140413.2041)
 -->
<!-- Title: xalanc::XalanOutputTranscoder Pages: 1 -->
<svg width="340pt" height="95pt"
 viewBox="0.00 0.00 339.50 95.00" xmlns="http://www.w3.org/2000/svg" xmlns:xlink="http://www.w3.org/1999/xlink">
<g id="graph0" class="graph" transform="scale(1 1) rotate(0) translate(4 91)">
<title>xalanc::XalanOutputTranscoder</title>
<!-- Node1 -->
<g id="node1" class="node"><title>Node1</title>
<g id="a_node1"><a xlink:title=" ">
<polygon fill="#bfbfbf" stroke="black" points="92,-67.5 92,-86.5 244,-86.5 244,-67.5 92,-67.5"/>
<text text-anchor="middle" x="168" y="-74.5" font-family="Helvetica,sans-Serif" font-size="10.00">xalanc::XalanOutputTranscoder</text>
</a>
</g>
</g>
<!-- Node2 -->
<g id="node2" class="node"><title>Node2</title>
<g id="a_node2"><a xlink:href="classxalanc_1_1XalanToXercesTranscoderWrapper.html" target="_top" xlink:title=" ">
<polygon fill="none" stroke="black" points="0,-0.5 0,-30.5 162,-30.5 162,-0.5 0,-0.5"/>
<text text-anchor="start" x="8" y="-18.5" font-family="Helvetica,sans-Serif" font-size="10.00">xalanc::XalanToXercesTranscoder</text>
<text text-anchor="middle" x="81" y="-7.5" font-family="Helvetica,sans-Serif" font-size="10.00">Wrapper</text>
</a>
</g>
</g>
<!-- Node1&#45;&gt;Node2 -->
<g id="edge1" class="edge"><title>Node1&#45;&gt;Node2</title>
<path fill="none" stroke="midnightblue" d="M147.148,-61.739C133.321,-52.2824 115.26,-39.9304 101.504,-30.523"/>
<polygon fill="midnightblue" stroke="midnightblue" points="145.305,-64.7189 155.535,-67.4751 149.257,-58.9409 145.305,-64.7189"/>
</g>
<!-- Node3 -->
<g id="node3" class="node"><title>Node3</title>
<g id="a_node3"><a xlink:href="classxalanc_1_1XalanUTF16Transcoder.html" target="_top" xlink:title=" ">
<polygon fill="none" stroke="black" points="180.5,-6 180.5,-25 331.5,-25 331.5,-6 180.5,-6"/>
<text text-anchor="middle" x="256" y="-13" font-family="Helvetica,sans-Serif" font-size="10.00">xalanc::XalanUTF16Transcoder</text>
</a>
</g>
</g>
<!-- Node1&#45;&gt;Node3 -->
<g id="edge2" class="edge"><title>Node1&#45;&gt;Node3</title>
<path fill="none" stroke="midnightblue" d="M189.279,-61.6127C206.204,-50.1691 229.31,-34.546 243.415,-25.0091"/>
<polygon fill="midnightblue" stroke="midnightblue" points="186.932,-58.9744 180.608,-67.4751 190.853,-64.7733 186.932,-58.9744"/>
</g>
</g>
</svg>
