<?xml version="1.0" encoding="UTF-8" standalone="no"?>
<!DOCTYPE svg PUBLIC "-//W3C//DTD SVG 1.1//EN"
 "http://www.w3.org/Graphics/SVG/1.1/DTD/svg11.dtd">
<!-- Generated by graphviz version 2.43.0 (0)
 -->
<!-- Title: xalanc::DOMStringPrintWriter Pages: 1 -->
<svg width="312pt" height="162pt"
 viewBox="0.00 0.00 312.00 162.00" xmlns="http://www.w3.org/2000/svg" xmlns:xlink="http://www.w3.org/1999/xlink">
<g id="graph0" class="graph" transform="scale(1 1) rotate(0) translate(4 158)">
<title>xalanc::DOMStringPrintWriter</title>
<!-- Node1 -->
<g id="node1" class="node">
<title>Node1</title>
<g id="a_node1"><a xlink:title=" ">
<polygon fill="#bfbfbf" stroke="black" points="86.5,-0.5 86.5,-19.5 246.5,-19.5 246.5,-0.5 86.5,-0.5"/>
<text text-anchor="middle" x="166.5" y="-7.5" font-family="Helvetica,sans-Serif" font-size="10.00">xalanc::DOMStringPrintWriter</text>
</a>
</g>
</g>
<!-- Node2 -->
<g id="node2" class="node">
<title>Node2</title>
<g id="a_node2"><a xlink:href="classxalanc_1_1PrintWriter.html" target="_top" xlink:title=" ">
<polygon fill="none" stroke="black" points="44,-67.5 44,-86.5 151,-86.5 151,-67.5 44,-67.5"/>
<text text-anchor="middle" x="97.5" y="-74.5" font-family="Helvetica,sans-Serif" font-size="10.00">xalanc::PrintWriter</text>
</a>
</g>
</g>
<!-- Node2&#45;&gt;Node1 -->
<g id="edge1" class="edge">
<title>Node2&#45;&gt;Node1</title>
<path fill="none" stroke="midnightblue" d="M114.11,-60.36C127.67,-47.58 146.34,-29.99 157.34,-19.63"/>
<polygon fill="midnightblue" stroke="midnightblue" points="111.68,-57.83 106.81,-67.23 116.48,-62.92 111.68,-57.83"/>
</g>
<!-- Node3 -->
<g id="node3" class="node">
<title>Node3</title>
<g id="a_node3"><a xlink:href="classxalanc_1_1Writer.html" target="_top" xlink:title=" ">
<polygon fill="none" stroke="black" points="0,-134.5 0,-153.5 85,-153.5 85,-134.5 0,-134.5"/>
<text text-anchor="middle" x="42.5" y="-141.5" font-family="Helvetica,sans-Serif" font-size="10.00">xalanc::Writer</text>
</a>
</g>
</g>
<!-- Node3&#45;&gt;Node2 -->
<g id="edge2" class="edge">
<title>Node3&#45;&gt;Node2</title>
<path fill="none" stroke="midnightblue" d="M56.66,-126.27C67.38,-113.6 81.68,-96.7 90.2,-86.63"/>
<polygon fill="midnightblue" stroke="midnightblue" points="53.71,-124.34 49.92,-134.23 59.05,-128.86 53.71,-124.34"/>
</g>
<!-- Node4 -->
<g id="node4" class="node">
<title>Node4</title>
<g id="a_node4"><a xlink:title=" ">
<polygon fill="none" stroke="#bfbfbf" points="103.5,-134.5 103.5,-153.5 203.5,-153.5 203.5,-134.5 103.5,-134.5"/>
<text text-anchor="middle" x="153.5" y="-141.5" font-family="Helvetica,sans-Serif" font-size="10.00">MemoryManager</text>
</a>
</g>
</g>
<!-- Node4&#45;&gt;Node2 -->
<g id="edge3" class="edge">
<title>Node4&#45;&gt;Node2</title>
<path fill="none" stroke="#9a32cd" stroke-dasharray="5,2" d="M139.4,-126.63C128.45,-113.92 113.7,-96.8 104.93,-86.63"/>
<polygon fill="#9a32cd" stroke="#9a32cd" points="136.77,-128.94 145.95,-134.23 142.07,-124.37 136.77,-128.94"/>
<text text-anchor="middle" x="181" y="-108" font-family="Helvetica,sans-Serif" font-size="10.00"> m_memoryManager</text>
</g>
<!-- Node5 -->
<g id="node5" class="node">
<title>Node5</title>
<g id="a_node5"><a xlink:href="classxalanc_1_1XalanDOMString.html" target="_top" xlink:title=" ">
<polygon fill="none" stroke="black" points="169,-67.5 169,-86.5 304,-86.5 304,-67.5 169,-67.5"/>
<text text-anchor="middle" x="236.5" y="-74.5" font-family="Helvetica,sans-Serif" font-size="10.00">xalanc::XalanDOMString</text>
</a>
</g>
</g>
<!-- Node5&#45;&gt;Node1 -->
<g id="edge4" class="edge">
<title>Node5&#45;&gt;Node1</title>
<path fill="none" stroke="#9a32cd" stroke-dasharray="5,2" d="M219.65,-60.36C205.89,-47.58 186.95,-29.99 175.79,-19.63"/>
<polygon fill="#9a32cd" stroke="#9a32cd" points="217.35,-62.99 227.06,-67.23 222.11,-57.86 217.35,-62.99"/>
<text text-anchor="middle" x="245" y="-41" font-family="Helvetica,sans-Serif" font-size="10.00"> m_outputString</text>
</g>
</g>
</svg>
