<?xml version="1.0" encoding="UTF-8" standalone="no"?>
<!DOCTYPE svg PUBLIC "-//W3C//DTD SVG 1.1//EN"
 "http://www.w3.org/Graphics/SVG/1.1/DTD/svg11.dtd">
<!-- Generated by graphviz version 2.38.0 (20140413.2041)
 -->
<!-- Title: xalanc::XalanFileUtility Pages: 1 -->
<svg width="256pt" height="250pt"
 viewBox="0.00 0.00 256.00 250.00" xmlns="http://www.w3.org/2000/svg" xmlns:xlink="http://www.w3.org/1999/xlink">
<g id="graph0" class="graph" transform="scale(1 1) rotate(0) translate(4 246)">
<title>xalanc::XalanFileUtility</title>
<!-- Node1 -->
<g id="node1" class="node"><title>Node1</title>
<g id="a_node1"><a xlink:title=" ">
<polygon fill="#bfbfbf" stroke="black" points="44,-0.5 44,-19.5 159,-19.5 159,-0.5 44,-0.5"/>
<text text-anchor="middle" x="101.5" y="-7.5" font-family="Helvetica,sans-Serif" font-size="10.00">xalanc::XalanFileUtility</text>
</a>
</g>
</g>
<!-- Node2 -->
<g id="node2" class="node"><title>Node2</title>
<g id="a_node2"><a xlink:href="structxalanc_1_1XalanFileUtility_1_1reportStruct.html" target="_top" xlink:title=" ">
<polygon fill="none" stroke="black" points="0,-67.5 0,-97.5 115,-97.5 115,-67.5 0,-67.5"/>
<text text-anchor="start" x="8" y="-85.5" font-family="Helvetica,sans-Serif" font-size="10.00">xalanc::XalanFileUtility</text>
<text text-anchor="middle" x="57.5" y="-74.5" font-family="Helvetica,sans-Serif" font-size="10.00">::reportStruct</text>
</a>
</g>
</g>
<!-- Node2&#45;&gt;Node1 -->
<g id="edge1" class="edge"><title>Node2&#45;&gt;Node1</title>
<path fill="none" stroke="#9a32cd" stroke-dasharray="5,2" d="M71.776,-58.6259C80.0155,-45.4241 89.9105,-29.5696 95.9497,-19.8932"/>
<polygon fill="#9a32cd" stroke="#9a32cd" points="68.7295,-56.8968 66.4041,-67.2333 74.6679,-60.603 68.7295,-56.8968"/>
<text text-anchor="middle" x="94.5" y="-41" font-family="Helvetica,sans-Serif" font-size="10.00"> data</text>
</g>
<!-- Node3 -->
<g id="node3" class="node"><title>Node3</title>
<g id="a_node3"><a xlink:href="classxalanc_1_1XalanDOMString.html" target="_top" xlink:title=" ">
<polygon fill="none" stroke="black" points="69.5,-222.5 69.5,-241.5 191.5,-241.5 191.5,-222.5 69.5,-222.5"/>
<text text-anchor="middle" x="130.5" y="-229.5" font-family="Helvetica,sans-Serif" font-size="10.00">xalanc::XalanDOMString</text>
</a>
</g>
</g>
<!-- Node3&#45;&gt;Node2 -->
<g id="edge2" class="edge"><title>Node3&#45;&gt;Node2</title>
<path fill="none" stroke="#9a32cd" stroke-dasharray="5,2" d="M99.1932,-217.381C93.6199,-213.738 88.3678,-209.302 84.5,-204 60.7472,-171.438 57.32,-121.715 57.1753,-97.597"/>
<polygon fill="#9a32cd" stroke="#9a32cd" points="97.6462,-220.528 108.063,-222.463 101.126,-214.455 97.6462,-220.528"/>
<text text-anchor="middle" x="112.5" y="-196" font-family="Helvetica,sans-Serif" font-size="10.00"> currentNode</text>
<text text-anchor="middle" x="112.5" y="-185" font-family="Helvetica,sans-Serif" font-size="10.00">expected</text>
<text text-anchor="middle" x="112.5" y="-174" font-family="Helvetica,sans-Serif" font-size="10.00">xslFileURL</text>
<text text-anchor="middle" x="112.5" y="-163" font-family="Helvetica,sans-Serif" font-size="10.00">theDrive</text>
<text text-anchor="middle" x="112.5" y="-152" font-family="Helvetica,sans-Serif" font-size="10.00">actual</text>
<text text-anchor="middle" x="112.5" y="-141" font-family="Helvetica,sans-Serif" font-size="10.00">xmlFormat</text>
<text text-anchor="middle" x="112.5" y="-130" font-family="Helvetica,sans-Serif" font-size="10.00">xmlFileURL</text>
<text text-anchor="middle" x="112.5" y="-119" font-family="Helvetica,sans-Serif" font-size="10.00">testOrFile</text>
</g>
<!-- Node4 -->
<g id="node4" class="node"><title>Node4</title>
<g id="a_node4"><a xlink:href="structxalanc_1_1XalanFileUtility_1_1cmdParams.html" target="_top" xlink:title=" ">
<polygon fill="none" stroke="black" points="133,-67.5 133,-97.5 248,-97.5 248,-67.5 133,-67.5"/>
<text text-anchor="start" x="141" y="-85.5" font-family="Helvetica,sans-Serif" font-size="10.00">xalanc::XalanFileUtility</text>
<text text-anchor="middle" x="190.5" y="-74.5" font-family="Helvetica,sans-Serif" font-size="10.00">::cmdParams</text>
</a>
</g>
</g>
<!-- Node3&#45;&gt;Node4 -->
<g id="edge4" class="edge"><title>Node3&#45;&gt;Node4</title>
<path fill="none" stroke="#9a32cd" stroke-dasharray="5,2" d="M140.127,-213.13C141.649,-210.111 143.161,-206.987 144.5,-204 161.358,-166.404 177.746,-120.602 185.631,-97.8119"/>
<polygon fill="#9a32cd" stroke="#9a32cd" points="136.956,-211.641 135.426,-222.125 143.16,-214.884 136.956,-211.641"/>
<text text-anchor="middle" x="191.5" y="-174" font-family="Helvetica,sans-Serif" font-size="10.00"> gold</text>
<text text-anchor="middle" x="191.5" y="-163" font-family="Helvetica,sans-Serif" font-size="10.00">output</text>
<text text-anchor="middle" x="191.5" y="-152" font-family="Helvetica,sans-Serif" font-size="10.00">base</text>
<text text-anchor="middle" x="191.5" y="-141" font-family="Helvetica,sans-Serif" font-size="10.00">sub</text>
</g>
<!-- Node4&#45;&gt;Node1 -->
<g id="edge3" class="edge"><title>Node4&#45;&gt;Node1</title>
<path fill="none" stroke="#9a32cd" stroke-dasharray="5,2" d="M164.472,-60.8826C147.293,-47.274 125.647,-30.1278 112.727,-19.8932"/>
<polygon fill="#9a32cd" stroke="#9a32cd" points="162.478,-63.7675 172.49,-67.2333 166.824,-58.2804 162.478,-63.7675"/>
<text text-anchor="middle" x="159.5" y="-41" font-family="Helvetica,sans-Serif" font-size="10.00"> args</text>
</g>
</g>
</svg>
