<?xml version="1.0" encoding="UTF-8" standalone="no"?>
<!DOCTYPE svg PUBLIC "-//W3C//DTD SVG 1.1//EN"
 "http://www.w3.org/Graphics/SVG/1.1/DTD/svg11.dtd">
<!-- Generated by graphviz version 2.43.0 (0)
 -->
<!-- Title: xalanc::XalanFormatterWriter Pages: 1 -->
<svg width="374pt" height="95pt"
 viewBox="0.00 0.00 373.50 95.00" xmlns="http://www.w3.org/2000/svg" xmlns:xlink="http://www.w3.org/1999/xlink">
<g id="graph0" class="graph" transform="scale(1 1) rotate(0) translate(4 91)">
<title>xalanc::XalanFormatterWriter</title>
<!-- Node1 -->
<g id="node1" class="node">
<title>Node1</title>
<g id="a_node1"><a xlink:title=" ">
<polygon fill="#bfbfbf" stroke="black" points="115,-0.5 115,-19.5 276,-19.5 276,-0.5 115,-0.5"/>
<text text-anchor="middle" x="195.5" y="-7.5" font-family="Helvetica,sans-Serif" font-size="10.00">xalanc::XalanFormatterWriter</text>
</a>
</g>
</g>
<!-- Node2 -->
<g id="node2" class="node">
<title>Node2</title>
<g id="a_node2"><a xlink:href="classxalanc_1_1XalanDOMString.html" target="_top" xlink:title=" ">
<polygon fill="none" stroke="black" points="0,-67.5 0,-86.5 135,-86.5 135,-67.5 0,-67.5"/>
<text text-anchor="middle" x="67.5" y="-74.5" font-family="Helvetica,sans-Serif" font-size="10.00">xalanc::XalanDOMString</text>
</a>
</g>
</g>
<!-- Node2&#45;&gt;Node1 -->
<g id="edge1" class="edge">
<title>Node2&#45;&gt;Node1</title>
<path fill="none" stroke="#9a32cd" stroke-dasharray="5,2" d="M83.98,-60.61C92.81,-53 104.18,-44.15 115.5,-38 129.93,-30.16 147.04,-24.02 161.73,-19.58"/>
<polygon fill="#9a32cd" stroke="#9a32cd" points="81.51,-58.13 76.38,-67.4 86.17,-63.35 81.51,-58.13"/>
<text text-anchor="middle" x="153.5" y="-41" font-family="Helvetica,sans-Serif" font-size="10.00"> m_stringBuffer</text>
</g>
<!-- Node3 -->
<g id="node3" class="node">
<title>Node3</title>
<g id="a_node3"><a xlink:href="classxalanc_1_1Writer.html" target="_top" xlink:title=" ">
<polygon fill="none" stroke="black" points="153,-67.5 153,-86.5 238,-86.5 238,-67.5 153,-67.5"/>
<text text-anchor="middle" x="195.5" y="-74.5" font-family="Helvetica,sans-Serif" font-size="10.00">xalanc::Writer</text>
</a>
</g>
</g>
<!-- Node3&#45;&gt;Node1 -->
<g id="edge2" class="edge">
<title>Node3&#45;&gt;Node1</title>
<path fill="none" stroke="#9a32cd" stroke-dasharray="5,2" d="M195.5,-57.04C195.5,-44.67 195.5,-29.12 195.5,-19.63"/>
<polygon fill="#9a32cd" stroke="#9a32cd" points="192,-57.23 195.5,-67.23 199,-57.23 192,-57.23"/>
<text text-anchor="middle" x="219" y="-41" font-family="Helvetica,sans-Serif" font-size="10.00"> m_writer</text>
</g>
<!-- Node4 -->
<g id="node4" class="node">
<title>Node4</title>
<g id="a_node4"><a xlink:title=" ">
<polygon fill="none" stroke="#bfbfbf" points="256.5,-67.5 256.5,-86.5 356.5,-86.5 356.5,-67.5 256.5,-67.5"/>
<text text-anchor="middle" x="306.5" y="-74.5" font-family="Helvetica,sans-Serif" font-size="10.00">MemoryManager</text>
</a>
</g>
</g>
<!-- Node4&#45;&gt;Node1 -->
<g id="edge3" class="edge">
<title>Node4&#45;&gt;Node1</title>
<path fill="none" stroke="#9a32cd" stroke-dasharray="5,2" d="M284.95,-61.78C273.63,-54.46 259.46,-45.52 246.5,-38 235.41,-31.56 222.66,-24.81 212.68,-19.67"/>
<polygon fill="#9a32cd" stroke="#9a32cd" points="283.05,-64.72 293.34,-67.25 286.87,-58.86 283.05,-64.72"/>
<text text-anchor="middle" x="314" y="-41" font-family="Helvetica,sans-Serif" font-size="10.00"> m_memoryManager</text>
</g>
</g>
</svg>
