<?xml version="1.0" encoding="UTF-8" standalone="no"?>
<!DOCTYPE svg PUBLIC "-//W3C//DTD SVG 1.1//EN"
 "http://www.w3.org/Graphics/SVG/1.1/DTD/svg11.dtd">
<!-- Generated by graphviz version 2.38.0 (20140413.2041)
 -->
<!-- Title: xalanc::XalanDeque&lt; Type, ConstructionTraits &gt; Pages: 1 -->
<svg width="456pt" height="279pt"
 viewBox="0.00 0.00 456.00 279.00" xmlns="http://www.w3.org/2000/svg" xmlns:xlink="http://www.w3.org/1999/xlink">
<g id="graph0" class="graph" transform="scale(1 1) rotate(0) translate(4 275)">
<title>xalanc::XalanDeque&lt; Type, ConstructionTraits &gt;</title>
<!-- Node1 -->
<g id="node1" class="node"><title>Node1</title>
<g id="a_node1"><a xlink:title="Xalan implementation of deque.">
<polygon fill="#bfbfbf" stroke="black" points="0,-131.5 0,-161.5 140,-161.5 140,-131.5 0,-131.5"/>
<text text-anchor="start" x="8" y="-149.5" font-family="Helvetica,sans-Serif" font-size="10.00">xalanc::XalanDeque</text>
<text text-anchor="middle" x="70" y="-138.5" font-family="Helvetica,sans-Serif" font-size="10.00">&lt; Type, ConstructionTraits &gt;</text>
</a>
</g>
</g>
<!-- Node2 -->
<g id="node2" class="node"><title>Node2</title>
<g id="a_node2"><a xlink:href="classxalanc_1_1XalanDeque.html" target="_top" xlink:title=" ">
<polygon fill="none" stroke="black" points="325,-240.5 325,-270.5 427,-270.5 427,-240.5 325,-240.5"/>
<text text-anchor="start" x="333" y="-258.5" font-family="Helvetica,sans-Serif" font-size="10.00">xalanc::XalanDeque</text>
<text text-anchor="middle" x="376" y="-247.5" font-family="Helvetica,sans-Serif" font-size="10.00">&lt; value_type &gt;</text>
</a>
</g>
</g>
<!-- Node1&#45;&gt;Node2 -->
<g id="edge1" class="edge"><title>Node1&#45;&gt;Node2</title>
<path fill="none" stroke="orange" stroke-dasharray="5,2" d="M92.1875,-169.127C108.588,-185.21 132.708,-205.934 158,-217.5 211.565,-241.996 279.212,-250.771 324.615,-253.876"/>
<polygon fill="orange" stroke="orange" points="94.3127,-166.3 84.7853,-161.665 89.343,-171.23 94.3127,-166.3"/>
<text text-anchor="middle" x="222" y="-252.5" font-family="Helvetica,sans-Serif" font-size="10.00"> &lt; value_type &gt;</text>
</g>
<!-- Node3 -->
<g id="node3" class="node"><title>Node3</title>
<g id="a_node3"><a xlink:href="classxalanc_1_1XalanDeque.html" target="_top" xlink:title=" ">
<polygon fill="none" stroke="black" points="325,-191.5 325,-221.5 427,-221.5 427,-191.5 325,-191.5"/>
<text text-anchor="start" x="333" y="-209.5" font-family="Helvetica,sans-Serif" font-size="10.00">xalanc::XalanDeque</text>
<text text-anchor="middle" x="376" y="-198.5" font-family="Helvetica,sans-Serif" font-size="10.00">&lt; XalanNode * &gt;</text>
</a>
</g>
</g>
<!-- Node1&#45;&gt;Node3 -->
<g id="edge2" class="edge"><title>Node1&#45;&gt;Node3</title>
<path fill="none" stroke="orange" stroke-dasharray="5,2" d="M109.746,-165.891C124.511,-172.496 141.709,-179.273 158,-183.5 213.922,-198.009 280.224,-203.394 324.694,-205.376"/>
<polygon fill="orange" stroke="orange" points="110.976,-162.604 100.428,-161.603 108.049,-168.963 110.976,-162.604"/>
<text text-anchor="middle" x="222" y="-205.5" font-family="Helvetica,sans-Serif" font-size="10.00"> &lt; XalanNode * &gt;</text>
</g>
<!-- Node4 -->
<g id="node4" class="node"><title>Node4</title>
<g id="a_node4"><a xlink:href="classxalanc_1_1XalanDeque.html" target="_top" xlink:title=" ">
<polygon fill="none" stroke="black" points="307.5,-120.5 307.5,-172.5 444.5,-172.5 444.5,-120.5 307.5,-120.5"/>
<text text-anchor="start" x="315.5" y="-160.5" font-family="Helvetica,sans-Serif" font-size="10.00">xalanc::XalanDeque</text>
<text text-anchor="start" x="315.5" y="-149.5" font-family="Helvetica,sans-Serif" font-size="10.00">&lt; OutputContext, Construct</text>
<text text-anchor="start" x="315.5" y="-138.5" font-family="Helvetica,sans-Serif" font-size="10.00">WithMemoryManagerTraits</text>
<text text-anchor="middle" x="376" y="-127.5" font-family="Helvetica,sans-Serif" font-size="10.00">&lt; OutputContext &gt; &gt;</text>
</a>
</g>
</g>
<!-- Node1&#45;&gt;Node4 -->
<g id="edge3" class="edge"><title>Node1&#45;&gt;Node4</title>
<path fill="none" stroke="orange" stroke-dasharray="5,2" d="M150.547,-146.5C199.24,-146.5 260.883,-146.5 307.244,-146.5"/>
<polygon fill="orange" stroke="orange" points="150.363,-143 140.363,-146.5 150.363,-150 150.363,-143"/>
<text text-anchor="start" x="160" y="-171.5" font-family="Helvetica,sans-Serif" font-size="10.00"> &lt; OutputContext, Construct</text>
<text text-anchor="start" x="160" y="-160.5" font-family="Helvetica,sans-Serif" font-size="10.00">WithMemoryManagerTraits</text>
<text text-anchor="middle" x="222" y="-149.5" font-family="Helvetica,sans-Serif" font-size="10.00">&lt; OutputContext &gt; &gt;</text>
</g>
<!-- Node5 -->
<g id="node5" class="node"><title>Node5</title>
<g id="a_node5"><a xlink:href="classxalanc_1_1XalanDeque.html" target="_top" xlink:title=" ">
<polygon fill="none" stroke="black" points="304,-49.5 304,-101.5 448,-101.5 448,-49.5 304,-49.5"/>
<text text-anchor="start" x="312" y="-89.5" font-family="Helvetica,sans-Serif" font-size="10.00">xalanc::XalanDeque</text>
<text text-anchor="start" x="312" y="-78.5" font-family="Helvetica,sans-Serif" font-size="10.00">&lt; value_type, ConstructWith</text>
<text text-anchor="start" x="312" y="-67.5" font-family="Helvetica,sans-Serif" font-size="10.00">MemoryManagerTraits&lt; value</text>
<text text-anchor="middle" x="376" y="-56.5" font-family="Helvetica,sans-Serif" font-size="10.00">_type &gt; &gt;</text>
</a>
</g>
</g>
<!-- Node1&#45;&gt;Node5 -->
<g id="edge4" class="edge"><title>Node1&#45;&gt;Node5</title>
<path fill="none" stroke="orange" stroke-dasharray="5,2" d="M110.576,-127.231C125.193,-120.77 142.078,-114.057 158,-109.5 205.659,-95.859 260.873,-87.3044 303.679,-82.188"/>
<polygon fill="orange" stroke="orange" points="108.998,-124.103 101.331,-131.415 111.885,-130.48 108.998,-124.103"/>
<text text-anchor="start" x="158" y="-134.5" font-family="Helvetica,sans-Serif" font-size="10.00"> &lt; value_type, ConstructWith</text>
<text text-anchor="start" x="158" y="-123.5" font-family="Helvetica,sans-Serif" font-size="10.00">MemoryManagerTraits&lt; value</text>
<text text-anchor="middle" x="222" y="-112.5" font-family="Helvetica,sans-Serif" font-size="10.00">_type &gt; &gt;</text>
</g>
<!-- Node6 -->
<g id="node6" class="node"><title>Node6</title>
<g id="a_node6"><a xlink:href="classxalanc_1_1XalanDeque.html" target="_top" xlink:title=" ">
<polygon fill="none" stroke="black" points="310.5,-0.5 310.5,-30.5 441.5,-30.5 441.5,-0.5 310.5,-0.5"/>
<text text-anchor="start" x="318.5" y="-18.5" font-family="Helvetica,sans-Serif" font-size="10.00">xalanc::XalanDeque</text>
<text text-anchor="middle" x="376" y="-7.5" font-family="Helvetica,sans-Serif" font-size="10.00">&lt; XercesBridgeNavigator &gt;</text>
</a>
</g>
</g>
<!-- Node1&#45;&gt;Node6 -->
<g id="edge5" class="edge"><title>Node1&#45;&gt;Node6</title>
<path fill="none" stroke="orange" stroke-dasharray="5,2" d="M90.3992,-123.836C106.709,-106.198 131.546,-82.4483 158,-68.5 205.683,-43.3579 265.56,-29.8933 310.332,-22.8375"/>
<polygon fill="orange" stroke="orange" points="87.6286,-121.682 83.5304,-131.452 92.8268,-126.37 87.6286,-121.682"/>
<text text-anchor="middle" x="222" y="-71.5" font-family="Helvetica,sans-Serif" font-size="10.00"> &lt; XercesBridgeNavigator &gt;</text>
</g>
</g>
</svg>
