<?xml version="1.0" encoding="UTF-8" standalone="no"?>
<!DOCTYPE svg PUBLIC "-//W3C//DTD SVG 1.1//EN"
 "http://www.w3.org/Graphics/SVG/1.1/DTD/svg11.dtd">
<!-- Generated by graphviz version 2.38.0 (20140413.2041)
 -->
<!-- Title: xalanc::ArenaAllocator&lt; ObjectType, ArenaBlockType &gt; Pages: 1 -->
<svg width="1649pt" height="212pt"
 viewBox="0.00 0.00 1649.00 212.00" xmlns="http://www.w3.org/2000/svg" xmlns:xlink="http://www.w3.org/1999/xlink">
<g id="graph0" class="graph" transform="scale(1 1) rotate(0) translate(4 208)">
<title>xalanc::ArenaAllocator&lt; ObjectType, ArenaBlockType &gt;</title>
<!-- Node1 -->
<g id="node1" class="node"><title>Node1</title>
<g id="a_node1"><a xlink:title=" ">
<polygon fill="#bfbfbf" stroke="black" points="1480,-116.5 1480,-146.5 1641,-146.5 1641,-116.5 1480,-116.5"/>
<text text-anchor="start" x="1488" y="-134.5" font-family="Helvetica,sans-Serif" font-size="10.00">xalanc::ArenaAllocator</text>
<text text-anchor="middle" x="1560.5" y="-123.5" font-family="Helvetica,sans-Serif" font-size="10.00">&lt; ObjectType, ArenaBlockType &gt;</text>
</a>
</g>
</g>
<!-- Node2 -->
<g id="node2" class="node"><title>Node2</title>
<g id="a_node2"><a xlink:href="classxalanc_1_1ArenaBlock.html" target="_top" xlink:title=" ">
<polygon fill="none" stroke="black" points="1257,-147.5 1257,-177.5 1358,-177.5 1358,-147.5 1257,-147.5"/>
<text text-anchor="start" x="1265" y="-165.5" font-family="Helvetica,sans-Serif" font-size="10.00">xalanc::ArenaBlock</text>
<text text-anchor="middle" x="1307.5" y="-154.5" font-family="Helvetica,sans-Serif" font-size="10.00">&lt; ObjectType &gt;</text>
</a>
</g>
</g>
<!-- Node2&#45;&gt;Node1 -->
<g id="edge1" class="edge"><title>Node2&#45;&gt;Node1</title>
<path fill="none" stroke="#9a32cd" stroke-dasharray="5,2" d="M1368.16,-155.131C1401.58,-151.004 1443.68,-145.804 1479.88,-141.334"/>
<polygon fill="#9a32cd" stroke="#9a32cd" points="1367.59,-151.676 1358.09,-156.375 1368.44,-158.623 1367.59,-151.676"/>
<text text-anchor="middle" x="1432" y="-154.5" font-family="Helvetica,sans-Serif" font-size="10.00"> m_blockSize</text>
</g>
<!-- Node3 -->
<g id="node3" class="node"><title>Node3</title>
<g id="a_node3"><a xlink:href="classxalanc_1_1ArenaBlockBase.html" target="_top" xlink:title=" ">
<polygon fill="none" stroke="black" points="693,-173.5 693,-203.5 817,-203.5 817,-173.5 693,-173.5"/>
<text text-anchor="start" x="701" y="-191.5" font-family="Helvetica,sans-Serif" font-size="10.00">xalanc::ArenaBlockBase</text>
<text text-anchor="middle" x="755" y="-180.5" font-family="Helvetica,sans-Serif" font-size="10.00">&lt; ObjectType, size_t &gt;</text>
</a>
</g>
</g>
<!-- Node3&#45;&gt;Node2 -->
<g id="edge2" class="edge"><title>Node3&#45;&gt;Node2</title>
<path fill="none" stroke="midnightblue" d="M827.34,-190.799C917.501,-192.784 1077.31,-193.235 1213,-177.5 1227.21,-175.852 1242.56,-173.592 1256.63,-171.326"/>
<polygon fill="midnightblue" stroke="midnightblue" points="827.31,-187.297 817.231,-190.564 827.147,-194.296 827.31,-187.297"/>
</g>
<!-- Node7 -->
<g id="node7" class="node"><title>Node7</title>
<g id="a_node7"><a xlink:href="classxalanc_1_1ArenaBlock.html" target="_top" xlink:title=" ">
<polygon fill="none" stroke="black" points="943,-147.5 943,-177.5 1074,-177.5 1074,-147.5 943,-147.5"/>
<text text-anchor="start" x="951" y="-165.5" font-family="Helvetica,sans-Serif" font-size="10.00">xalanc::ArenaBlock</text>
<text text-anchor="middle" x="1008.5" y="-154.5" font-family="Helvetica,sans-Serif" font-size="10.00">&lt; ObjectType, SizeType &gt;</text>
</a>
</g>
</g>
<!-- Node3&#45;&gt;Node7 -->
<g id="edge8" class="edge"><title>Node3&#45;&gt;Node7</title>
<path fill="none" stroke="midnightblue" d="M827.25,-181.134C863.633,-177.373 907.561,-172.832 942.943,-169.174"/>
<polygon fill="midnightblue" stroke="midnightblue" points="826.789,-177.663 817.202,-182.173 827.509,-184.626 826.789,-177.663"/>
</g>
<!-- Node4 -->
<g id="node4" class="node"><title>Node4</title>
<g id="a_node4"><a xlink:href="classxalanc_1_1XalanAllocator.html" target="_top" xlink:title=" ">
<polygon fill="none" stroke="black" points="220,-166.5 220,-196.5 333,-196.5 333,-166.5 220,-166.5"/>
<text text-anchor="start" x="228" y="-184.5" font-family="Helvetica,sans-Serif" font-size="10.00">xalanc::XalanAllocator</text>
<text text-anchor="middle" x="276.5" y="-173.5" font-family="Helvetica,sans-Serif" font-size="10.00">&lt; ObjectType &gt;</text>
</a>
</g>
</g>
<!-- Node4&#45;&gt;Node3 -->
<g id="edge3" class="edge"><title>Node4&#45;&gt;Node3</title>
<path fill="none" stroke="#9a32cd" stroke-dasharray="5,2" d="M343.338,-184.275C345.925,-184.356 348.487,-184.432 351,-184.5 472.176,-187.795 613.913,-188.462 692.882,-188.549"/>
<polygon fill="#9a32cd" stroke="#9a32cd" points="343.389,-180.775 333.277,-183.936 343.154,-187.771 343.389,-180.775"/>
<text text-anchor="middle" x="488.5" y="-190.5" font-family="Helvetica,sans-Serif" font-size="10.00"> m_allocator</text>
</g>
<!-- Node6 -->
<g id="node6" class="node"><title>Node6</title>
<g id="a_node6"><a xlink:href="classxalanc_1_1ArenaBlockBase.html" target="_top" xlink:title=" ">
<polygon fill="none" stroke="black" points="423,-134.5 423,-164.5 554,-164.5 554,-134.5 423,-134.5"/>
<text text-anchor="start" x="431" y="-152.5" font-family="Helvetica,sans-Serif" font-size="10.00">xalanc::ArenaBlockBase</text>
<text text-anchor="middle" x="488.5" y="-141.5" font-family="Helvetica,sans-Serif" font-size="10.00">&lt; ObjectType, SizeType &gt;</text>
</a>
</g>
</g>
<!-- Node4&#45;&gt;Node6 -->
<g id="edge6" class="edge"><title>Node4&#45;&gt;Node6</title>
<path fill="none" stroke="#9a32cd" stroke-dasharray="5,2" d="M343.147,-171.497C368.582,-167.621 397.62,-163.196 422.951,-159.336"/>
<polygon fill="#9a32cd" stroke="#9a32cd" points="342.583,-168.042 333.225,-173.009 343.638,-174.962 342.583,-168.042"/>
<text text-anchor="middle" x="378" y="-172.5" font-family="Helvetica,sans-Serif" font-size="10.00"> m_allocator</text>
</g>
<!-- Node5 -->
<g id="node5" class="node"><title>Node5</title>
<g id="a_node5"><a xlink:href="classxalanc_1_1XalanAllocator.html" target="_top" xlink:title=" ">
<polygon fill="none" stroke="black" points="0,-166.5 0,-196.5 113,-196.5 113,-166.5 0,-166.5"/>
<text text-anchor="start" x="8" y="-184.5" font-family="Helvetica,sans-Serif" font-size="10.00">xalanc::XalanAllocator</text>
<text text-anchor="middle" x="56.5" y="-173.5" font-family="Helvetica,sans-Serif" font-size="10.00">&lt; Type &gt;</text>
</a>
</g>
</g>
<!-- Node5&#45;&gt;Node4 -->
<g id="edge4" class="edge"><title>Node5&#45;&gt;Node4</title>
<path fill="none" stroke="orange" stroke-dasharray="5,2" d="M123.275,-181.5C154.025,-181.5 190.251,-181.5 219.648,-181.5"/>
<polygon fill="orange" stroke="orange" points="123.075,-178 113.075,-181.5 123.075,-185 123.075,-178"/>
<text text-anchor="middle" x="166.5" y="-184.5" font-family="Helvetica,sans-Serif" font-size="10.00"> &lt; ObjectType &gt;</text>
</g>
<!-- Node6&#45;&gt;Node3 -->
<g id="edge5" class="edge"><title>Node6&#45;&gt;Node3</title>
<path fill="none" stroke="orange" stroke-dasharray="5,2" d="M564.583,-160.321C598.343,-165.213 638.68,-171.098 675,-176.5 680.763,-177.357 686.762,-178.256 692.763,-179.16"/>
<polygon fill="orange" stroke="orange" points="564.728,-156.805 554.329,-158.835 563.725,-163.733 564.728,-156.805"/>
<text text-anchor="middle" x="623.5" y="-179.5" font-family="Helvetica,sans-Serif" font-size="10.00"> &lt; ObjectType, size_t &gt;</text>
</g>
<!-- Node7&#45;&gt;Node2 -->
<g id="edge7" class="edge"><title>Node7&#45;&gt;Node2</title>
<path fill="none" stroke="orange" stroke-dasharray="5,2" d="M1084.5,-162.5C1138.37,-162.5 1209.49,-162.5 1256.54,-162.5"/>
<polygon fill="orange" stroke="orange" points="1084.31,-159 1074.31,-162.5 1084.31,-166 1084.31,-159"/>
<text text-anchor="middle" x="1152.5" y="-165.5" font-family="Helvetica,sans-Serif" font-size="10.00"> &lt; ObjectType &gt;</text>
</g>
<!-- Node8 -->
<g id="node8" class="node"><title>Node8</title>
<g id="a_node8"><a xlink:href="classxalanc_1_1XalanList.html" target="_top" xlink:title=" ">
<polygon fill="none" stroke="black" points="1231,-65.5 1231,-95.5 1384,-95.5 1384,-65.5 1231,-65.5"/>
<text text-anchor="start" x="1239" y="-83.5" font-family="Helvetica,sans-Serif" font-size="10.00">xalanc::XalanList&lt;</text>
<text text-anchor="middle" x="1307.5" y="-72.5" font-family="Helvetica,sans-Serif" font-size="10.00"> ArenaBlock&lt; ObjectType &gt; * &gt;</text>
</a>
</g>
</g>
<!-- Node8&#45;&gt;Node1 -->
<g id="edge9" class="edge"><title>Node8&#45;&gt;Node1</title>
<path fill="none" stroke="#9a32cd" stroke-dasharray="5,2" d="M1392.53,-97.5729C1422.67,-103.699 1456.42,-110.556 1485.64,-116.494"/>
<polygon fill="#9a32cd" stroke="#9a32cd" points="1392.95,-94.0872 1382.45,-95.5258 1391.55,-100.947 1392.95,-94.0872"/>
<text text-anchor="middle" x="1432" y="-114.5" font-family="Helvetica,sans-Serif" font-size="10.00"> m_blocks</text>
</g>
<!-- Node9 -->
<g id="node9" class="node"><title>Node9</title>
<g id="a_node9"><a xlink:title=" ">
<polygon fill="none" stroke="#bfbfbf" points="710.5,-96 710.5,-115 799.5,-115 799.5,-96 710.5,-96"/>
<text text-anchor="middle" x="755" y="-103" font-family="Helvetica,sans-Serif" font-size="10.00">MemoryManager</text>
</a>
</g>
</g>
<!-- Node9&#45;&gt;Node8 -->
<g id="edge10" class="edge"><title>Node9&#45;&gt;Node8</title>
<path fill="none" stroke="#9a32cd" stroke-dasharray="5,2" d="M809.687,-109.027C895.337,-113.784 1068.02,-119.809 1213,-102.5 1225.58,-100.998 1238.94,-98.4482 1251.49,-95.606"/>
<polygon fill="#9a32cd" stroke="#9a32cd" points="809.865,-105.532 799.681,-108.455 809.465,-112.52 809.865,-105.532"/>
<text text-anchor="middle" x="1008.5" y="-117.5" font-family="Helvetica,sans-Serif" font-size="10.00"> m_memoryManager</text>
</g>
<!-- Node11 -->
<g id="node11" class="node"><title>Node11</title>
<g id="a_node11"><a xlink:href="classxalanc_1_1XalanList.html" target="_top" xlink:title="Xalan implementation of a doubly linked list.">
<polygon fill="none" stroke="black" points="960.5,-50.5 960.5,-80.5 1056.5,-80.5 1056.5,-50.5 960.5,-50.5"/>
<text text-anchor="start" x="968.5" y="-68.5" font-family="Helvetica,sans-Serif" font-size="10.00">xalanc::XalanList&lt;</text>
<text text-anchor="middle" x="1008.5" y="-57.5" font-family="Helvetica,sans-Serif" font-size="10.00"> Type &gt;</text>
</a>
</g>
</g>
<!-- Node9&#45;&gt;Node11 -->
<g id="edge14" class="edge"><title>Node9&#45;&gt;Node11</title>
<path fill="none" stroke="#9a32cd" stroke-dasharray="5,2" d="M809.957,-96.5631C818.34,-95.1915 826.902,-93.8001 835,-92.5 877.35,-85.7013 925.585,-78.1694 960.26,-72.792"/>
<polygon fill="#9a32cd" stroke="#9a32cd" points="809.167,-93.1459 799.866,-98.2188 810.301,-100.054 809.167,-93.1459"/>
<text text-anchor="middle" x="880" y="-95.5" font-family="Helvetica,sans-Serif" font-size="10.00"> m_memoryManager</text>
</g>
<!-- Node10 -->
<g id="node10" class="node"><title>Node10</title>
<g id="a_node10"><a xlink:href="structxalanc_1_1XalanList_1_1Node.html" target="_top" xlink:title=" ">
<polygon fill="none" stroke="black" points="707,-0.5 707,-30.5 803,-30.5 803,-0.5 707,-0.5"/>
<text text-anchor="start" x="715" y="-18.5" font-family="Helvetica,sans-Serif" font-size="10.00">xalanc::XalanList&lt;</text>
<text text-anchor="middle" x="755" y="-7.5" font-family="Helvetica,sans-Serif" font-size="10.00"> Type &gt;::Node</text>
</a>
</g>
</g>
<!-- Node10&#45;&gt;Node8 -->
<g id="edge11" class="edge"><title>Node10&#45;&gt;Node8</title>
<path fill="none" stroke="#9a32cd" stroke-dasharray="5,2" d="M813.414,-11.7366C877.338,-8.54421 983.568,-6.21535 1074,-18.5 1141.27,-27.6378 1216.82,-50.1564 1263.03,-65.3866"/>
<polygon fill="#9a32cd" stroke="#9a32cd" points="812.945,-8.2563 803.142,-12.2754 813.311,-15.2467 812.945,-8.2563"/>
<text text-anchor="middle" x="1008.5" y="-32.5" font-family="Helvetica,sans-Serif" font-size="10.00"> m_freeListHeadPtr</text>
<text text-anchor="middle" x="1008.5" y="-21.5" font-family="Helvetica,sans-Serif" font-size="10.00">m_listHead</text>
</g>
<!-- Node10&#45;&gt;Node10 -->
<g id="edge12" class="edge"><title>Node10&#45;&gt;Node10</title>
<path fill="none" stroke="#9a32cd" stroke-dasharray="5,2" d="M732.967,-40.9579C735.701,-45.679 743.046,-49 755,-49 774.617,-49 781.82,-40.0566 776.61,-30.659"/>
<polygon fill="#9a32cd" stroke="#9a32cd" points="736.476,-40.7945 733.39,-30.659 729.482,-40.5066 736.476,-40.7945"/>
<text text-anchor="middle" x="755" y="-63" font-family="Helvetica,sans-Serif" font-size="10.00"> prev</text>
<text text-anchor="middle" x="755" y="-52" font-family="Helvetica,sans-Serif" font-size="10.00">next</text>
</g>
<!-- Node10&#45;&gt;Node11 -->
<g id="edge15" class="edge"><title>Node10&#45;&gt;Node11</title>
<path fill="none" stroke="#9a32cd" stroke-dasharray="5,2" d="M813.085,-26.8489C857.557,-35.6902 918.553,-47.8167 960.294,-56.1151"/>
<polygon fill="#9a32cd" stroke="#9a32cd" points="813.501,-23.3631 803.01,-24.846 812.136,-30.2288 813.501,-23.3631"/>
<text text-anchor="middle" x="880" y="-62.5" font-family="Helvetica,sans-Serif" font-size="10.00"> m_freeListHeadPtr</text>
<text text-anchor="middle" x="880" y="-51.5" font-family="Helvetica,sans-Serif" font-size="10.00">m_listHead</text>
</g>
<!-- Node11&#45;&gt;Node8 -->
<g id="edge13" class="edge"><title>Node11&#45;&gt;Node8</title>
<path fill="none" stroke="orange" stroke-dasharray="5,2" d="M1066.79,-68.3937C1113.45,-70.75 1179.71,-74.0963 1230.74,-76.6738"/>
<polygon fill="orange" stroke="orange" points="1066.72,-64.8858 1056.56,-67.8768 1066.37,-71.8768 1066.72,-64.8858"/>
<text text-anchor="start" x="1092" y="-90.5" font-family="Helvetica,sans-Serif" font-size="10.00"> &lt; ArenaBlock&lt; ObjectType</text>
<text text-anchor="middle" x="1152.5" y="-79.5" font-family="Helvetica,sans-Serif" font-size="10.00"> &gt; * &gt;</text>
</g>
</g>
</svg>
