<?xml version="1.0" encoding="UTF-8" standalone="no"?>
<!DOCTYPE svg PUBLIC "-//W3C//DTD SVG 1.1//EN"
 "http://www.w3.org/Graphics/SVG/1.1/DTD/svg11.dtd">
<!-- Generated by graphviz version 2.43.0 (0)
 -->
<!-- Title: xalanc::XNodeSetNodeProxy::Proxy Pages: 1 -->
<svg width="272pt" height="106pt"
 viewBox="0.00 0.00 272.00 106.00" xmlns="http://www.w3.org/2000/svg" xmlns:xlink="http://www.w3.org/1999/xlink">
<g id="graph0" class="graph" transform="scale(1 1) rotate(0) translate(4 102)">
<title>xalanc::XNodeSetNodeProxy::Proxy</title>
<!-- Node1 -->
<g id="node1" class="node">
<title>Node1</title>
<g id="a_node1"><a xlink:title=" ">
<polygon fill="#bfbfbf" stroke="black" points="61,-0.5 61,-30.5 217,-30.5 217,-0.5 61,-0.5"/>
<text text-anchor="start" x="69" y="-18.5" font-family="Helvetica,sans-Serif" font-size="10.00">xalanc::XNodeSetNodeProxy</text>
<text text-anchor="middle" x="139" y="-7.5" font-family="Helvetica,sans-Serif" font-size="10.00">::Proxy</text>
</a>
</g>
</g>
<!-- Node2 -->
<g id="node2" class="node">
<title>Node2</title>
<g id="a_node2"><a xlink:href="classxalanc_1_1NodeRefListBase.html" target="_top" xlink:title="Local implementation of NodeRefList.">
<polygon fill="none" stroke="black" points="0,-78.5 0,-97.5 138,-97.5 138,-78.5 0,-78.5"/>
<text text-anchor="middle" x="69" y="-85.5" font-family="Helvetica,sans-Serif" font-size="10.00">xalanc::NodeRefListBase</text>
</a>
</g>
</g>
<!-- Node2&#45;&gt;Node1 -->
<g id="edge1" class="edge">
<title>Node2&#45;&gt;Node1</title>
<path fill="none" stroke="midnightblue" d="M84.79,-71.09C96.89,-58.91 113.41,-42.27 125.02,-30.58"/>
<polygon fill="midnightblue" stroke="midnightblue" points="82.15,-68.79 77.58,-78.36 87.11,-73.73 82.15,-68.79"/>
</g>
<!-- Node3 -->
<g id="node3" class="node">
<title>Node3</title>
<g id="a_node3"><a xlink:href="classxalanc_1_1XalanNode.html" target="_top" xlink:title=" ">
<polygon fill="none" stroke="black" points="156,-78.5 156,-97.5 264,-97.5 264,-78.5 156,-78.5"/>
<text text-anchor="middle" x="210" y="-85.5" font-family="Helvetica,sans-Serif" font-size="10.00">xalanc::XalanNode</text>
</a>
</g>
</g>
<!-- Node3&#45;&gt;Node1 -->
<g id="edge2" class="edge">
<title>Node3&#45;&gt;Node1</title>
<path fill="none" stroke="#9a32cd" stroke-dasharray="5,2" d="M193.98,-71.09C181.72,-58.91 164.96,-42.27 153.18,-30.58"/>
<polygon fill="#9a32cd" stroke="#9a32cd" points="191.73,-73.79 201.29,-78.36 196.66,-68.83 191.73,-73.79"/>
<text text-anchor="middle" x="201.5" y="-52" font-family="Helvetica,sans-Serif" font-size="10.00"> m_node</text>
</g>
</g>
</svg>
