<?xml version="1.0" encoding="UTF-8" standalone="no"?>
<!DOCTYPE svg PUBLIC "-//W3C//DTD SVG 1.1//EN"
 "http://www.w3.org/Graphics/SVG/1.1/DTD/svg11.dtd">
<!-- Generated by graphviz version 2.38.0 (20140413.2041)
 -->
<!-- Title: xalanc::XalanObjectCache&lt; ObjectType, CreateFunctorType, DeleteFunctorType, ResetFunctorType &gt; Pages: 1 -->
<svg width="906pt" height="271pt"
 viewBox="0.00 0.00 906.00 271.00" xmlns="http://www.w3.org/2000/svg" xmlns:xlink="http://www.w3.org/1999/xlink">
<g id="graph0" class="graph" transform="scale(1 1) rotate(0) translate(4 267)">
<title>xalanc::XalanObjectCache&lt; ObjectType, CreateFunctorType, DeleteFunctorType, ResetFunctorType &gt;</title>
<!-- Node1 -->
<g id="node1" class="node"><title>Node1</title>
<g id="a_node1"><a xlink:title=" ">
<polygon fill="#bfbfbf" stroke="black" points="0,-93.5 0,-134.5 196,-134.5 196,-93.5 0,-93.5"/>
<text text-anchor="start" x="8" y="-122.5" font-family="Helvetica,sans-Serif" font-size="10.00">xalanc::XalanObjectCache</text>
<text text-anchor="start" x="8" y="-111.5" font-family="Helvetica,sans-Serif" font-size="10.00">&lt; ObjectType, CreateFunctorType,</text>
<text text-anchor="middle" x="98" y="-100.5" font-family="Helvetica,sans-Serif" font-size="10.00"> DeleteFunctorType, ResetFunctorType &gt;</text>
</a>
</g>
</g>
<!-- Node2 -->
<g id="node2" class="node"><title>Node2</title>
<g id="a_node2"><a xlink:href="classxalanc_1_1XalanObjectCache.html" target="_top" xlink:title=" ">
<polygon fill="none" stroke="black" points="461,-171.5 461,-234.5 667,-234.5 667,-171.5 461,-171.5"/>
<text text-anchor="start" x="469" y="-222.5" font-family="Helvetica,sans-Serif" font-size="10.00">xalanc::XalanObjectCache</text>
<text text-anchor="start" x="469" y="-211.5" font-family="Helvetica,sans-Serif" font-size="10.00">&lt; ObjectType, DefaultCacheCreate</text>
<text text-anchor="start" x="469" y="-200.5" font-family="Helvetica,sans-Serif" font-size="10.00">Functor&lt; ObjectType &gt;, DeleteFunctor</text>
<text text-anchor="start" x="469" y="-189.5" font-family="Helvetica,sans-Serif" font-size="10.00">&lt; ObjectType &gt;, DefaultCacheResetFunctor</text>
<text text-anchor="middle" x="564" y="-178.5" font-family="Helvetica,sans-Serif" font-size="10.00">&lt; ObjectType &gt; &gt;</text>
</a>
</g>
</g>
<!-- Node1&#45;&gt;Node2 -->
<g id="edge1" class="edge"><title>Node1&#45;&gt;Node2</title>
<path fill="none" stroke="orange" stroke-dasharray="5,2" d="M134.381,-140.44C156.157,-155.178 185.311,-172.275 214,-181 294.446,-205.466 389.998,-209.899 460.765,-208.813"/>
<polygon fill="orange" stroke="orange" points="136.332,-137.534 126.117,-134.721 132.348,-143.29 136.332,-137.534"/>
<text text-anchor="start" x="249" y="-255" font-family="Helvetica,sans-Serif" font-size="10.00"> &lt; ObjectType, DefaultCache</text>
<text text-anchor="start" x="249" y="-244" font-family="Helvetica,sans-Serif" font-size="10.00">CreateFunctor&lt; ObjectType</text>
<text text-anchor="start" x="249" y="-233" font-family="Helvetica,sans-Serif" font-size="10.00"> &gt;, DeleteFunctor&lt; ObjectType</text>
<text text-anchor="start" x="249" y="-222" font-family="Helvetica,sans-Serif" font-size="10.00"> &gt;, DefaultCacheResetFunctor</text>
<text text-anchor="middle" x="316.5" y="-211" font-family="Helvetica,sans-Serif" font-size="10.00">&lt; ObjectType &gt; &gt;</text>
</g>
<!-- Node4 -->
<g id="node4" class="node"><title>Node4</title>
<g id="a_node4"><a xlink:href="classxalanc_1_1XalanObjectCache.html" target="_top" xlink:title=" ">
<polygon fill="none" stroke="black" points="437,-82.5 437,-145.5 691,-145.5 691,-82.5 437,-82.5"/>
<text text-anchor="start" x="445" y="-133.5" font-family="Helvetica,sans-Serif" font-size="10.00">xalanc::XalanObjectCache</text>
<text text-anchor="start" x="445" y="-122.5" font-family="Helvetica,sans-Serif" font-size="10.00">&lt; MutableNodeRefList, DefaultCache</text>
<text text-anchor="start" x="445" y="-111.5" font-family="Helvetica,sans-Serif" font-size="10.00">CreateFunctorMemMgr&lt; MutableNodeRefList</text>
<text text-anchor="start" x="445" y="-100.5" font-family="Helvetica,sans-Serif" font-size="10.00"> &gt;, DeleteFunctor&lt; MutableNodeRefList</text>
<text text-anchor="middle" x="564" y="-89.5" font-family="Helvetica,sans-Serif" font-size="10.00"> &gt;, ClearCacheResetFunctor&lt; MutableNodeRefList &gt; &gt;</text>
</a>
</g>
</g>
<!-- Node1&#45;&gt;Node4 -->
<g id="edge3" class="edge"><title>Node1&#45;&gt;Node4</title>
<path fill="none" stroke="orange" stroke-dasharray="5,2" d="M206.681,-114C275.377,-114 364.711,-114 436.744,-114"/>
<polygon fill="orange" stroke="orange" points="206.27,-110.5 196.27,-114 206.27,-117.5 206.27,-110.5"/>
<text text-anchor="start" x="214" y="-172" font-family="Helvetica,sans-Serif" font-size="10.00"> &lt; MutableNodeRefList,</text>
<text text-anchor="start" x="214" y="-161" font-family="Helvetica,sans-Serif" font-size="10.00"> DefaultCacheCreateFunctorMem</text>
<text text-anchor="start" x="214" y="-150" font-family="Helvetica,sans-Serif" font-size="10.00">Mgr&lt; MutableNodeRefList &gt;,</text>
<text text-anchor="start" x="214" y="-139" font-family="Helvetica,sans-Serif" font-size="10.00"> DeleteFunctor&lt; MutableNodeRefList</text>
<text text-anchor="start" x="214" y="-128" font-family="Helvetica,sans-Serif" font-size="10.00"> &gt;, ClearCacheResetFunctor&lt; MutableNodeRef</text>
<text text-anchor="middle" x="316.5" y="-117" font-family="Helvetica,sans-Serif" font-size="10.00">List &gt; &gt;</text>
</g>
<!-- Node5 -->
<g id="node5" class="node"><title>Node5</title>
<g id="a_node5"><a xlink:href="classxalanc_1_1XalanObjectCache.html" target="_top" xlink:title=" ">
<polygon fill="none" stroke="black" points="458,-0.5 458,-63.5 670,-63.5 670,-0.5 458,-0.5"/>
<text text-anchor="start" x="466" y="-51.5" font-family="Helvetica,sans-Serif" font-size="10.00">xalanc::XalanObjectCache</text>
<text text-anchor="start" x="466" y="-40.5" font-family="Helvetica,sans-Serif" font-size="10.00">&lt; ObjectType, DefaultCacheCreate</text>
<text text-anchor="start" x="466" y="-29.5" font-family="Helvetica,sans-Serif" font-size="10.00">FunctorMemMgr&lt; ObjectType &gt;,</text>
<text text-anchor="start" x="466" y="-18.5" font-family="Helvetica,sans-Serif" font-size="10.00"> DeleteFunctor&lt; ObjectType &gt;,</text>
<text text-anchor="middle" x="564" y="-7.5" font-family="Helvetica,sans-Serif" font-size="10.00"> DefaultCacheResetFunctor&lt; ObjectType &gt; &gt;</text>
</a>
</g>
</g>
<!-- Node1&#45;&gt;Node5 -->
<g id="edge4" class="edge"><title>Node1&#45;&gt;Node5</title>
<path fill="none" stroke="orange" stroke-dasharray="5,2" d="M139.512,-88.0464C160.821,-75.7608 187.885,-62.2251 214,-55 293.738,-32.939 387.458,-27.8458 457.69,-27.9081"/>
<polygon fill="orange" stroke="orange" points="137.588,-85.1182 130.752,-93.2131 141.144,-91.1476 137.588,-85.1182"/>
<text text-anchor="start" x="237" y="-102" font-family="Helvetica,sans-Serif" font-size="10.00"> &lt; ObjectType, DefaultCache</text>
<text text-anchor="start" x="237" y="-91" font-family="Helvetica,sans-Serif" font-size="10.00">CreateFunctorMemMgr&lt; ObjectType</text>
<text text-anchor="start" x="237" y="-80" font-family="Helvetica,sans-Serif" font-size="10.00"> &gt;, DeleteFunctor&lt; ObjectType</text>
<text text-anchor="start" x="237" y="-69" font-family="Helvetica,sans-Serif" font-size="10.00"> &gt;, DefaultCacheResetFunctor&lt;</text>
<text text-anchor="middle" x="316.5" y="-58" font-family="Helvetica,sans-Serif" font-size="10.00"> ObjectType &gt; &gt;</text>
</g>
<!-- Node3 -->
<g id="node3" class="node"><title>Node3</title>
<g id="a_node3"><a xlink:href="classxalanc_1_1XalanObjectCacheDefault.html" target="_top" xlink:title=" ">
<polygon fill="none" stroke="black" points="747.5,-188 747.5,-218 878.5,-218 878.5,-188 747.5,-188"/>
<text text-anchor="start" x="755.5" y="-206" font-family="Helvetica,sans-Serif" font-size="10.00">xalanc::XalanObjectCache</text>
<text text-anchor="middle" x="813" y="-195" font-family="Helvetica,sans-Serif" font-size="10.00">Default&lt; ObjectType &gt;</text>
</a>
</g>
</g>
<!-- Node2&#45;&gt;Node3 -->
<g id="edge2" class="edge"><title>Node2&#45;&gt;Node3</title>
<path fill="none" stroke="midnightblue" d="M677.455,-203C701.379,-203 725.859,-203 747.268,-203"/>
<polygon fill="midnightblue" stroke="midnightblue" points="677.247,-199.5 667.247,-203 677.247,-206.5 677.247,-199.5"/>
</g>
<!-- Node6 -->
<g id="node6" class="node"><title>Node6</title>
<g id="a_node6"><a xlink:href="classxalanc_1_1XalanMemoryManagerObjectCacheDefault.html" target="_top" xlink:title=" ">
<polygon fill="none" stroke="black" points="728,-17 728,-47 898,-47 898,-17 728,-17"/>
<text text-anchor="start" x="736" y="-35" font-family="Helvetica,sans-Serif" font-size="10.00">xalanc::XalanMemoryManager</text>
<text text-anchor="middle" x="813" y="-24" font-family="Helvetica,sans-Serif" font-size="10.00">ObjectCacheDefault&lt; ObjectType &gt;</text>
</a>
</g>
</g>
<!-- Node5&#45;&gt;Node6 -->
<g id="edge5" class="edge"><title>Node5&#45;&gt;Node6</title>
<path fill="none" stroke="midnightblue" d="M680.561,-32C696.524,-32 712.664,-32 727.909,-32"/>
<polygon fill="midnightblue" stroke="midnightblue" points="680.108,-28.5001 670.108,-32 680.108,-35.5001 680.108,-28.5001"/>
</g>
</g>
</svg>
