<?xml version="1.0" encoding="UTF-8" standalone="no"?>
<!DOCTYPE svg PUBLIC "-//W3C//DTD SVG 1.1//EN"
 "http://www.w3.org/Graphics/SVG/1.1/DTD/svg11.dtd">
<!-- Generated by graphviz version 2.38.0 (20140413.2041)
 -->
<!-- Title: xalanc::XalanSourceTreeElementNANS Pages: 1 -->
<svg width="454pt" height="287pt"
 viewBox="0.00 0.00 453.50 287.00" xmlns="http://www.w3.org/2000/svg" xmlns:xlink="http://www.w3.org/1999/xlink">
<g id="graph0" class="graph" transform="scale(1 1) rotate(0) translate(4 283)">
<title>xalanc::XalanSourceTreeElementNANS</title>
<!-- Node1 -->
<g id="node1" class="node"><title>Node1</title>
<g id="a_node1"><a xlink:title=" ">
<polygon fill="#bfbfbf" stroke="black" points="189.5,-0.5 189.5,-19.5 376.5,-19.5 376.5,-0.5 189.5,-0.5"/>
<text text-anchor="middle" x="283" y="-7.5" font-family="Helvetica,sans-Serif" font-size="10.00">xalanc::XalanSourceTreeElementNANS</text>
</a>
</g>
</g>
<!-- Node2 -->
<g id="node2" class="node"><title>Node2</title>
<g id="a_node2"><a xlink:href="classxalanc_1_1XalanSourceTreeElementNA.html" target="_top" xlink:title=" ">
<polygon fill="none" stroke="black" points="196.5,-57.5 196.5,-76.5 369.5,-76.5 369.5,-57.5 196.5,-57.5"/>
<text text-anchor="middle" x="283" y="-64.5" font-family="Helvetica,sans-Serif" font-size="10.00">xalanc::XalanSourceTreeElementNA</text>
</a>
</g>
</g>
<!-- Node2&#45;&gt;Node1 -->
<g id="edge1" class="edge"><title>Node2&#45;&gt;Node1</title>
<path fill="none" stroke="midnightblue" d="M283,-47.1166C283,-37.8173 283,-27.0557 283,-19.7149"/>
<polygon fill="midnightblue" stroke="midnightblue" points="279.5,-47.4062 283,-57.4063 286.5,-47.4063 279.5,-47.4062"/>
</g>
<!-- Node3 -->
<g id="node3" class="node"><title>Node3</title>
<g id="a_node3"><a xlink:href="classxalanc_1_1XalanSourceTreeElement.html" target="_top" xlink:title=" ">
<polygon fill="none" stroke="black" points="92,-124.5 92,-143.5 252,-143.5 252,-124.5 92,-124.5"/>
<text text-anchor="middle" x="172" y="-131.5" font-family="Helvetica,sans-Serif" font-size="10.00">xalanc::XalanSourceTreeElement</text>
</a>
</g>
</g>
<!-- Node3&#45;&gt;Node2 -->
<g id="edge2" class="edge"><title>Node3&#45;&gt;Node2</title>
<path fill="none" stroke="midnightblue" d="M195.711,-119.115C217.703,-106.237 249.741,-87.4758 268.267,-76.6273"/>
<polygon fill="midnightblue" stroke="midnightblue" points="193.831,-116.16 186.97,-124.234 197.368,-122.201 193.831,-116.16"/>
</g>
<!-- Node4 -->
<g id="node4" class="node"><title>Node4</title>
<g id="a_node4"><a xlink:href="classxalanc_1_1XalanElement.html" target="_top" xlink:title=" ">
<polygon fill="none" stroke="black" points="0,-202.5 0,-221.5 110,-221.5 110,-202.5 0,-202.5"/>
<text text-anchor="middle" x="55" y="-209.5" font-family="Helvetica,sans-Serif" font-size="10.00">xalanc::XalanElement</text>
</a>
</g>
</g>
<!-- Node4&#45;&gt;Node3 -->
<g id="edge3" class="edge"><title>Node4&#45;&gt;Node3</title>
<path fill="none" stroke="midnightblue" d="M76.8995,-196.775C100.957,-181.148 138.816,-156.555 158.735,-143.616"/>
<polygon fill="midnightblue" stroke="midnightblue" points="74.9009,-193.899 68.4214,-202.282 78.7141,-199.77 74.9009,-193.899"/>
</g>
<!-- Node5 -->
<g id="node5" class="node"><title>Node5</title>
<g id="a_node5"><a xlink:href="classxalanc_1_1XalanNode.html" target="_top" xlink:title=" ">
<polygon fill="none" stroke="black" points="6.5,-259.5 6.5,-278.5 103.5,-278.5 103.5,-259.5 6.5,-259.5"/>
<text text-anchor="middle" x="55" y="-266.5" font-family="Helvetica,sans-Serif" font-size="10.00">xalanc::XalanNode</text>
</a>
</g>
</g>
<!-- Node5&#45;&gt;Node4 -->
<g id="edge4" class="edge"><title>Node5&#45;&gt;Node4</title>
<path fill="none" stroke="midnightblue" d="M55,-249.117C55,-239.817 55,-229.056 55,-221.715"/>
<polygon fill="midnightblue" stroke="midnightblue" points="51.5001,-249.406 55,-259.406 58.5001,-249.406 51.5001,-249.406"/>
</g>
<!-- Node6 -->
<g id="node6" class="node"><title>Node6</title>
<g id="a_node6"><a xlink:href="classxalanc_1_1XalanDOMString.html" target="_top" xlink:title=" ">
<polygon fill="none" stroke="black" points="128,-202.5 128,-221.5 250,-221.5 250,-202.5 128,-202.5"/>
<text text-anchor="middle" x="189" y="-209.5" font-family="Helvetica,sans-Serif" font-size="10.00">xalanc::XalanDOMString</text>
</a>
</g>
</g>
<!-- Node6&#45;&gt;Node3 -->
<g id="edge5" class="edge"><title>Node6&#45;&gt;Node3</title>
<path fill="none" stroke="#9a32cd" stroke-dasharray="5,2" d="M184.8,-192.224C181.327,-176.697 176.554,-155.358 173.927,-143.616"/>
<polygon fill="#9a32cd" stroke="#9a32cd" points="181.451,-193.287 187.05,-202.282 188.283,-191.759 181.451,-193.287"/>
<text text-anchor="middle" x="215" y="-176" font-family="Helvetica,sans-Serif" font-size="10.00"> m_tagName</text>
<text text-anchor="middle" x="215" y="-165" font-family="Helvetica,sans-Serif" font-size="10.00">s_emptyString</text>
</g>
<!-- Node7 -->
<g id="node7" class="node"><title>Node7</title>
<g id="a_node7"><a xlink:href="classxalanc_1_1XalanEmptyNamedNodeMap.html" target="_top" xlink:title=" ">
<polygon fill="none" stroke="black" points="270.5,-124.5 270.5,-143.5 445.5,-143.5 445.5,-124.5 270.5,-124.5"/>
<text text-anchor="middle" x="358" y="-131.5" font-family="Helvetica,sans-Serif" font-size="10.00">xalanc::XalanEmptyNamedNodeMap</text>
</a>
</g>
</g>
<!-- Node7&#45;&gt;Node2 -->
<g id="edge6" class="edge"><title>Node7&#45;&gt;Node2</title>
<path fill="none" stroke="#9a32cd" stroke-dasharray="5,2" d="M339.95,-117.356C325.205,-104.578 304.913,-86.9915 292.955,-76.6273"/>
<polygon fill="#9a32cd" stroke="#9a32cd" points="338.036,-120.329 347.885,-124.234 342.621,-115.04 338.036,-120.329"/>
<text text-anchor="middle" x="366.5" y="-98" font-family="Helvetica,sans-Serif" font-size="10.00"> s_emptyAttributes</text>
</g>
<!-- Node8 -->
<g id="node8" class="node"><title>Node8</title>
<g id="a_node8"><a xlink:href="classxalanc_1_1XalanNamedNodeMap.html" target="_top" xlink:title=" ">
<polygon fill="none" stroke="black" points="285,-202.5 285,-221.5 431,-221.5 431,-202.5 285,-202.5"/>
<text text-anchor="middle" x="358" y="-209.5" font-family="Helvetica,sans-Serif" font-size="10.00">xalanc::XalanNamedNodeMap</text>
</a>
</g>
</g>
<!-- Node8&#45;&gt;Node7 -->
<g id="edge7" class="edge"><title>Node8&#45;&gt;Node7</title>
<path fill="none" stroke="midnightblue" d="M358,-192.224C358,-176.697 358,-155.358 358,-143.616"/>
<polygon fill="midnightblue" stroke="midnightblue" points="354.5,-192.282 358,-202.282 361.5,-192.282 354.5,-192.282"/>
</g>
</g>
</svg>
