<?xml version="1.0" encoding="UTF-8" standalone="no"?>
<!DOCTYPE svg PUBLIC "-//W3C//DTD SVG 1.1//EN"
 "http://www.w3.org/Graphics/SVG/1.1/DTD/svg11.dtd">
<!-- Generated by graphviz version 2.38.0 (20140413.2041)
 -->
<!-- Title: xalanc::ElemOtherwise Pages: 1 -->
<svg width="619pt" height="133pt"
 viewBox="0.00 0.00 619.00 133.17" xmlns="http://www.w3.org/2000/svg" xmlns:xlink="http://www.w3.org/1999/xlink">
<g id="graph0" class="graph" transform="scale(1 1) rotate(0) translate(4 129.171)">
<title>xalanc::ElemOtherwise</title>
<!-- Node1 -->
<g id="node1" class="node"><title>Node1</title>
<g id="a_node1"><a xlink:title=" ">
<polygon fill="#bfbfbf" stroke="black" points="493,-105.671 493,-124.671 610,-124.671 610,-105.671 493,-105.671"/>
<text text-anchor="middle" x="551.5" y="-112.671" font-family="Helvetica,sans-Serif" font-size="10.00">xalanc::ElemOtherwise</text>
</a>
</g>
</g>
<!-- Node2 -->
<g id="node2" class="node"><title>Node2</title>
<g id="a_node2"><a xlink:href="classxalanc_1_1ElemTemplateElement.html" target="_top" xlink:title=" ">
<polygon fill="none" stroke="black" points="225,-54.6708 225,-73.6708 374,-73.6708 374,-54.6708 225,-54.6708"/>
<text text-anchor="middle" x="299.5" y="-61.6708" font-family="Helvetica,sans-Serif" font-size="10.00">xalanc::ElemTemplateElement</text>
</a>
</g>
</g>
<!-- Node2&#45;&gt;Node1 -->
<g id="edge1" class="edge"><title>Node2&#45;&gt;Node1</title>
<path fill="none" stroke="midnightblue" d="M340.773,-76.7466C356.63,-81.3998 375.065,-86.4435 392,-90.1708 425.192,-97.4764 462.745,-103.497 492.964,-107.797"/>
<polygon fill="midnightblue" stroke="midnightblue" points="341.35,-73.2665 330.767,-73.7629 339.35,-79.9746 341.35,-73.2665"/>
</g>
<!-- Node2&#45;&gt;Node2 -->
<g id="edge6" class="edge"><title>Node2&#45;&gt;Node2</title>
<path fill="none" stroke="#9a32cd" stroke-dasharray="5,2" d="M276.063,-83.2C277.341,-88.2988 285.154,-92.1708 299.5,-92.1708 321.895,-92.1708 328.368,-82.7361 318.92,-73.9279"/>
<polygon fill="#9a32cd" stroke="#9a32cd" points="279.316,-84.4951 280.08,-73.9279 272.893,-81.7123 279.316,-84.4951"/>
<text text-anchor="middle" x="299.5" y="-95.1708" font-family="Helvetica,sans-Serif" font-size="10.00"> m_firstChild</text>
</g>
<!-- Node4 -->
<g id="node4" class="node"><title>Node4</title>
<g id="a_node4"><a xlink:href="classxalanc_1_1ElemTextLiteral.html" target="_top" xlink:title=" ">
<polygon fill="none" stroke="black" points="492,-60.6708 492,-79.6708 611,-79.6708 611,-60.6708 492,-60.6708"/>
<text text-anchor="middle" x="551.5" y="-67.6708" font-family="Helvetica,sans-Serif" font-size="10.00">xalanc::ElemTextLiteral</text>
</a>
</g>
</g>
<!-- Node2&#45;&gt;Node4 -->
<g id="edge4" class="edge"><title>Node2&#45;&gt;Node4</title>
<path fill="none" stroke="midnightblue" d="M375.137,-74.773C380.835,-75.3331 386.504,-75.812 392,-76.1708 428.367,-78.5454 437.583,-77.5967 474,-76.1708 479.724,-75.9467 485.684,-75.6286 491.638,-75.2544"/>
<polygon fill="midnightblue" stroke="midnightblue" points="375.196,-71.2597 364.882,-73.6853 374.457,-78.2206 375.196,-71.2597"/>
</g>
<!-- Node6 -->
<g id="node6" class="node"><title>Node6</title>
<g id="a_node6"><a xlink:href="classxalanc_1_1ElemTemplate.html" target="_top" xlink:title=" ">
<polygon fill="none" stroke="black" points="495,-12.6708 495,-31.6708 608,-31.6708 608,-12.6708 495,-12.6708"/>
<text text-anchor="middle" x="551.5" y="-19.6708" font-family="Helvetica,sans-Serif" font-size="10.00">xalanc::ElemTemplate</text>
</a>
</g>
</g>
<!-- Node2&#45;&gt;Node6 -->
<g id="edge8" class="edge"><title>Node2&#45;&gt;Node6</title>
<path fill="none" stroke="midnightblue" d="M367.133,-52.9764C407.011,-46.277 457.108,-37.8607 494.857,-31.5189"/>
<polygon fill="midnightblue" stroke="midnightblue" points="366.511,-49.5319 357.229,-54.6404 367.671,-56.4351 366.511,-49.5319"/>
</g>
<!-- Node3 -->
<g id="node3" class="node"><title>Node3</title>
<g id="a_node3"><a xlink:href="classxalanc_1_1PrefixResolver.html" target="_top" xlink:title="This class defines an interface for classes that resolve namespace prefixes to their URIs.">
<polygon fill="none" stroke="black" points="4.5,-73.6708 4.5,-92.6708 117.5,-92.6708 117.5,-73.6708 4.5,-73.6708"/>
<text text-anchor="middle" x="61" y="-80.6708" font-family="Helvetica,sans-Serif" font-size="10.00">xalanc::PrefixResolver</text>
</a>
</g>
</g>
<!-- Node3&#45;&gt;Node2 -->
<g id="edge2" class="edge"><title>Node3&#45;&gt;Node2</title>
<path fill="none" stroke="midnightblue" d="M127.733,-77.8899C157.869,-75.4689 193.715,-72.5891 224.765,-70.0945"/>
<polygon fill="midnightblue" stroke="midnightblue" points="127.435,-74.4025 117.748,-78.6921 127.996,-81.38 127.435,-74.4025"/>
</g>
<!-- Node4&#45;&gt;Node2 -->
<g id="edge3" class="edge"><title>Node4&#45;&gt;Node2</title>
<path fill="none" stroke="#9a32cd" stroke-dasharray="5,2" d="M481.623,-65.4768C479.05,-65.3626 476.502,-65.2597 474,-65.1708 441.338,-64.0103 405.197,-63.6539 374.392,-63.6284"/>
<polygon fill="#9a32cd" stroke="#9a32cd" points="481.469,-68.9734 491.628,-65.9687 481.812,-61.9818 481.469,-68.9734"/>
<text text-anchor="middle" x="433" y="-68.1708" font-family="Helvetica,sans-Serif" font-size="10.00"> m_textLiteralChild</text>
</g>
<!-- Node5 -->
<g id="node5" class="node"><title>Node5</title>
<g id="a_node5"><a xlink:href="classxalanc_1_1XalanDOMString.html" target="_top" xlink:title=" ">
<polygon fill="none" stroke="black" points="0,-35.6708 0,-54.6708 122,-54.6708 122,-35.6708 0,-35.6708"/>
<text text-anchor="middle" x="61" y="-42.6708" font-family="Helvetica,sans-Serif" font-size="10.00">xalanc::XalanDOMString</text>
</a>
</g>
</g>
<!-- Node5&#45;&gt;Node2 -->
<g id="edge5" class="edge"><title>Node5&#45;&gt;Node2</title>
<path fill="none" stroke="#9a32cd" stroke-dasharray="5,2" d="M132.307,-50.341C156.036,-52.1295 182.671,-54.1845 207,-56.1708 212.722,-56.6379 218.643,-57.1319 224.596,-57.6359"/>
<polygon fill="#9a32cd" stroke="#9a32cd" points="132.565,-46.8506 122.331,-49.5918 132.04,-53.8309 132.565,-46.8506"/>
<text text-anchor="middle" x="173.5" y="-59.1708" font-family="Helvetica,sans-Serif" font-size="10.00"> s_emptyString</text>
</g>
<!-- Node6&#45;&gt;Node2 -->
<g id="edge7" class="edge"><title>Node6&#45;&gt;Node2</title>
<path fill="none" stroke="#9a32cd" stroke-dasharray="5,2" d="M510.949,-10.0097C478.419,-1.93384 431.426,5.27225 392,-6.17081 359.307,-15.6597 327.104,-40.7245 311.041,-54.5965"/>
<polygon fill="#9a32cd" stroke="#9a32cd" points="510.414,-13.4876 520.975,-12.6397 512.19,-6.71673 510.414,-13.4876"/>
<text text-anchor="middle" x="433" y="-9.17081" font-family="Helvetica,sans-Serif" font-size="10.00"> m_directTemplate</text>
</g>
</g>
</svg>
