<?xml version="1.0" encoding="UTF-8" standalone="no"?>
<!DOCTYPE svg PUBLIC "-//W3C//DTD SVG 1.1//EN"
 "http://www.w3.org/Graphics/SVG/1.1/DTD/svg11.dtd">
<!-- Generated by graphviz version 2.43.0 (0)
 -->
<!-- Title: xalanc::XalanDOMException Pages: 1 -->
<svg width="359pt" height="127pt"
 viewBox="0.00 0.00 359.00 127.00" xmlns="http://www.w3.org/2000/svg" xmlns:xlink="http://www.w3.org/1999/xlink">
<g id="graph0" class="graph" transform="scale(1 1) rotate(0) translate(4 123)">
<title>xalanc::XalanDOMException</title>
<!-- Node1 -->
<g id="node1" class="node">
<title>Node1</title>
<g id="a_node1"><a xlink:title=" ">
<polygon fill="#bfbfbf" stroke="black" points="0,-50 0,-69 155,-69 155,-50 0,-50"/>
<text text-anchor="middle" x="77.5" y="-57" font-family="Helvetica,sans-Serif" font-size="10.00">xalanc::XalanDOMException</text>
</a>
</g>
</g>
<!-- Node2 -->
<g id="node2" class="node">
<title>Node2</title>
<g id="a_node2"><a xlink:href="classxalanc_1_1XalanDOMString_1_1TranscodingError.html" target="_top" xlink:title=" ">
<polygon fill="none" stroke="black" points="203.5,-88.5 203.5,-118.5 338.5,-118.5 338.5,-88.5 203.5,-88.5"/>
<text text-anchor="start" x="211.5" y="-106.5" font-family="Helvetica,sans-Serif" font-size="10.00">xalanc::XalanDOMString</text>
<text text-anchor="middle" x="271" y="-95.5" font-family="Helvetica,sans-Serif" font-size="10.00">::TranscodingError</text>
</a>
</g>
</g>
<!-- Node1&#45;&gt;Node2 -->
<g id="edge1" class="edge">
<title>Node1&#45;&gt;Node2</title>
<path fill="none" stroke="midnightblue" d="M129.91,-71.31C152.82,-76.58 180.08,-82.84 204.43,-88.43"/>
<polygon fill="midnightblue" stroke="midnightblue" points="130.58,-67.88 120.05,-69.05 129.01,-74.7 130.58,-67.88"/>
</g>
<!-- Node3 -->
<g id="node3" class="node">
<title>Node3</title>
<g id="a_node3"><a xlink:href="classxalanc_1_1XercesDOMException.html" target="_top" xlink:title=" ">
<polygon fill="none" stroke="black" points="191,-50 191,-69 351,-69 351,-50 191,-50"/>
<text text-anchor="middle" x="271" y="-57" font-family="Helvetica,sans-Serif" font-size="10.00">xalanc::XercesDOMException</text>
</a>
</g>
</g>
<!-- Node1&#45;&gt;Node3 -->
<g id="edge2" class="edge">
<title>Node1&#45;&gt;Node3</title>
<path fill="none" stroke="midnightblue" d="M165.02,-59.5C173.61,-59.5 182.29,-59.5 190.79,-59.5"/>
<polygon fill="midnightblue" stroke="midnightblue" points="165.01,-56 155.01,-59.5 165.01,-63 165.01,-56"/>
</g>
<!-- Node4 -->
<g id="node4" class="node">
<title>Node4</title>
<g id="a_node4"><a xlink:href="classxalanc_1_1XercesDOMWrapperException.html" target="_top" xlink:title=" ">
<polygon fill="none" stroke="black" points="194.5,-0.5 194.5,-30.5 347.5,-30.5 347.5,-0.5 194.5,-0.5"/>
<text text-anchor="start" x="202.5" y="-18.5" font-family="Helvetica,sans-Serif" font-size="10.00">xalanc::XercesDOMWrapper</text>
<text text-anchor="middle" x="271" y="-7.5" font-family="Helvetica,sans-Serif" font-size="10.00">Exception</text>
</a>
</g>
</g>
<!-- Node1&#45;&gt;Node4 -->
<g id="edge3" class="edge">
<title>Node1&#45;&gt;Node4</title>
<path fill="none" stroke="midnightblue" d="M129.91,-47.69C152.82,-42.42 180.08,-36.16 204.43,-30.57"/>
<polygon fill="midnightblue" stroke="midnightblue" points="129.01,-44.3 120.05,-49.95 130.58,-51.12 129.01,-44.3"/>
</g>
</g>
</svg>
