<?xml version="1.0" encoding="UTF-8" standalone="no"?>
<!DOCTYPE svg PUBLIC "-//W3C//DTD SVG 1.1//EN"
 "http://www.w3.org/Graphics/SVG/1.1/DTD/svg11.dtd">
<!-- Generated by graphviz version 2.43.0 (0)
 -->
<!-- Title: xalanc::XalanDocumentFragment Pages: 1 -->
<svg width="743pt" height="161pt"
 viewBox="0.00 0.00 743.00 161.00" xmlns="http://www.w3.org/2000/svg" xmlns:xlink="http://www.w3.org/1999/xlink">
<g id="graph0" class="graph" transform="scale(1 1) rotate(0) translate(4 157)">
<title>xalanc::XalanDocumentFragment</title>
<!-- Node1 -->
<g id="node1" class="node">
<title>Node1</title>
<g id="a_node1"><a xlink:title=" ">
<polygon fill="#bfbfbf" stroke="black" points="144,-79 144,-98 323,-98 323,-79 144,-79"/>
<text text-anchor="middle" x="233.5" y="-86" font-family="Helvetica,sans-Serif" font-size="10.00">xalanc::XalanDocumentFragment</text>
</a>
</g>
</g>
<!-- Node3 -->
<g id="node3" class="node">
<title>Node3</title>
<g id="a_node3"><a xlink:href="classxalanc_1_1XalanSourceTreeDocumentFragment.html" target="_top" xlink:title=" ">
<polygon fill="none" stroke="black" points="359,-122.5 359,-152.5 545,-152.5 545,-122.5 359,-122.5"/>
<text text-anchor="start" x="367" y="-140.5" font-family="Helvetica,sans-Serif" font-size="10.00">xalanc::XalanSourceTreeDocument</text>
<text text-anchor="middle" x="452" y="-129.5" font-family="Helvetica,sans-Serif" font-size="10.00">Fragment</text>
</a>
</g>
</g>
<!-- Node1&#45;&gt;Node3 -->
<g id="edge2" class="edge">
<title>Node1&#45;&gt;Node3</title>
<path fill="none" stroke="midnightblue" d="M286.55,-100.28C315.92,-106.93 352.94,-115.31 384.41,-122.43"/>
<polygon fill="midnightblue" stroke="midnightblue" points="287.03,-96.8 276.5,-98.01 285.48,-103.63 287.03,-96.8"/>
</g>
<!-- Node4 -->
<g id="node4" class="node">
<title>Node4</title>
<g id="a_node4"><a xlink:href="classxalanc_1_1XercesDocumentFragmentBridge.html" target="_top" xlink:title="This class is deprecated.">
<polygon fill="none" stroke="black" points="359.5,-73.5 359.5,-103.5 544.5,-103.5 544.5,-73.5 359.5,-73.5"/>
<text text-anchor="start" x="367.5" y="-91.5" font-family="Helvetica,sans-Serif" font-size="10.00">xalanc::XercesDocumentFragment</text>
<text text-anchor="middle" x="452" y="-80.5" font-family="Helvetica,sans-Serif" font-size="10.00">Bridge</text>
</a>
</g>
</g>
<!-- Node1&#45;&gt;Node4 -->
<g id="edge3" class="edge">
<title>Node1&#45;&gt;Node4</title>
<path fill="none" stroke="midnightblue" d="M333.3,-88.5C341.96,-88.5 350.7,-88.5 359.29,-88.5"/>
<polygon fill="midnightblue" stroke="midnightblue" points="333.18,-85 323.18,-88.5 333.18,-92 333.18,-85"/>
</g>
<!-- Node5 -->
<g id="node5" class="node">
<title>Node5</title>
<g id="a_node5"><a xlink:href="classxalanc_1_1XObjectResultTreeFragProxyBase.html" target="_top" xlink:title=" ">
<polygon fill="none" stroke="black" points="380.5,-24.5 380.5,-54.5 523.5,-54.5 523.5,-24.5 380.5,-24.5"/>
<text text-anchor="start" x="388.5" y="-42.5" font-family="Helvetica,sans-Serif" font-size="10.00">xalanc::XObjectResultTree</text>
<text text-anchor="middle" x="452" y="-31.5" font-family="Helvetica,sans-Serif" font-size="10.00">FragProxyBase</text>
</a>
</g>
</g>
<!-- Node1&#45;&gt;Node5 -->
<g id="edge4" class="edge">
<title>Node1&#45;&gt;Node5</title>
<path fill="none" stroke="midnightblue" d="M286.55,-76.72C315.92,-70.07 352.94,-61.69 384.41,-54.57"/>
<polygon fill="midnightblue" stroke="midnightblue" points="285.48,-73.37 276.5,-78.99 287.03,-80.2 285.48,-73.37"/>
</g>
<!-- Node2 -->
<g id="node2" class="node">
<title>Node2</title>
<g id="a_node2"><a xlink:href="classxalanc_1_1XalanNode.html" target="_top" xlink:title=" ">
<polygon fill="none" stroke="black" points="0,-79 0,-98 108,-98 108,-79 0,-79"/>
<text text-anchor="middle" x="54" y="-86" font-family="Helvetica,sans-Serif" font-size="10.00">xalanc::XalanNode</text>
</a>
</g>
</g>
<!-- Node2&#45;&gt;Node1 -->
<g id="edge1" class="edge">
<title>Node2&#45;&gt;Node1</title>
<path fill="none" stroke="midnightblue" d="M118.48,-88.5C126.7,-88.5 135.23,-88.5 143.77,-88.5"/>
<polygon fill="midnightblue" stroke="midnightblue" points="118.26,-85 108.26,-88.5 118.26,-92 118.26,-85"/>
</g>
<!-- Node6 -->
<g id="node6" class="node">
<title>Node6</title>
<g id="a_node6"><a xlink:href="classxalanc_1_1XNodeSetResultTreeFragProxy.html" target="_top" xlink:title=" ">
<polygon fill="none" stroke="black" points="581,-49.5 581,-79.5 735,-79.5 735,-49.5 581,-49.5"/>
<text text-anchor="start" x="589" y="-67.5" font-family="Helvetica,sans-Serif" font-size="10.00">xalanc::XNodeSetResultTree</text>
<text text-anchor="middle" x="658" y="-56.5" font-family="Helvetica,sans-Serif" font-size="10.00">FragProxy</text>
</a>
</g>
</g>
<!-- Node5&#45;&gt;Node6 -->
<g id="edge5" class="edge">
<title>Node5&#45;&gt;Node6</title>
<path fill="none" stroke="midnightblue" d="M533.83,-49.41C549.31,-51.3 565.46,-53.28 580.78,-55.16"/>
<polygon fill="midnightblue" stroke="midnightblue" points="534.13,-45.92 523.78,-48.17 533.28,-52.86 534.13,-45.92"/>
</g>
<!-- Node7 -->
<g id="node7" class="node">
<title>Node7</title>
<g id="a_node7"><a xlink:href="classxalanc_1_1XObjectResultTreeFragProxy.html" target="_top" xlink:title=" ">
<polygon fill="none" stroke="black" points="586.5,-0.5 586.5,-30.5 729.5,-30.5 729.5,-0.5 586.5,-0.5"/>
<text text-anchor="start" x="594.5" y="-18.5" font-family="Helvetica,sans-Serif" font-size="10.00">xalanc::XObjectResultTree</text>
<text text-anchor="middle" x="658" y="-7.5" font-family="Helvetica,sans-Serif" font-size="10.00">FragProxy</text>
</a>
</g>
</g>
<!-- Node5&#45;&gt;Node7 -->
<g id="edge6" class="edge">
<title>Node5&#45;&gt;Node7</title>
<path fill="none" stroke="midnightblue" d="M533.88,-29.99C551.22,-27.94 569.42,-25.8 586.35,-23.81"/>
<polygon fill="midnightblue" stroke="midnightblue" points="533.3,-26.53 523.78,-31.17 534.12,-33.48 533.3,-26.53"/>
</g>
</g>
</svg>
