<?xml version="1.0" encoding="UTF-8" standalone="no"?>
<!DOCTYPE svg PUBLIC "-//W3C//DTD SVG 1.1//EN"
 "http://www.w3.org/Graphics/SVG/1.1/DTD/svg11.dtd">
<!-- Generated by graphviz version 2.38.0 (20140413.2041)
 -->
<!-- Title: xalanc::XalanCDATASection Pages: 1 -->
<svg width="318pt" height="263pt"
 viewBox="0.00 0.00 318.00 263.00" xmlns="http://www.w3.org/2000/svg" xmlns:xlink="http://www.w3.org/1999/xlink">
<g id="graph0" class="graph" transform="scale(1 1) rotate(0) translate(4 259)">
<title>xalanc::XalanCDATASection</title>
<!-- Node1 -->
<g id="node1" class="node"><title>Node1</title>
<g id="a_node1"><a xlink:title=" ">
<polygon fill="#bfbfbf" stroke="black" points="85,-67.5 85,-86.5 225,-86.5 225,-67.5 85,-67.5"/>
<text text-anchor="middle" x="155" y="-74.5" font-family="Helvetica,sans-Serif" font-size="10.00">xalanc::XalanCDATASection</text>
</a>
</g>
</g>
<!-- Node5 -->
<g id="node5" class="node"><title>Node5</title>
<g id="a_node5"><a xlink:href="classxalanc_1_1XercesCDATASectionBridge.html" target="_top" xlink:title="This class is deprecated.">
<polygon fill="none" stroke="black" points="0,-0.5 0,-30.5 146,-30.5 146,-0.5 0,-0.5"/>
<text text-anchor="start" x="8" y="-18.5" font-family="Helvetica,sans-Serif" font-size="10.00">xalanc::XercesCDATASection</text>
<text text-anchor="middle" x="73" y="-7.5" font-family="Helvetica,sans-Serif" font-size="10.00">Bridge</text>
</a>
</g>
</g>
<!-- Node1&#45;&gt;Node5 -->
<g id="edge4" class="edge"><title>Node1&#45;&gt;Node5</title>
<path fill="none" stroke="midnightblue" d="M134.973,-61.468C121.99,-52.0474 105.167,-39.8408 92.3258,-30.523"/>
<polygon fill="midnightblue" stroke="midnightblue" points="133.102,-64.435 143.251,-67.4751 137.213,-58.7693 133.102,-64.435"/>
</g>
<!-- Node6 -->
<g id="node6" class="node"><title>Node6</title>
<g id="a_node6"><a xlink:href="classxalanc_1_1XercesCDATASectionWrapper.html" target="_top" xlink:title=" ">
<polygon fill="none" stroke="black" points="164,-0.5 164,-30.5 310,-30.5 310,-0.5 164,-0.5"/>
<text text-anchor="start" x="172" y="-18.5" font-family="Helvetica,sans-Serif" font-size="10.00">xalanc::XercesCDATASection</text>
<text text-anchor="middle" x="237" y="-7.5" font-family="Helvetica,sans-Serif" font-size="10.00">Wrapper</text>
</a>
</g>
</g>
<!-- Node1&#45;&gt;Node6 -->
<g id="edge5" class="edge"><title>Node1&#45;&gt;Node6</title>
<path fill="none" stroke="midnightblue" d="M175.027,-61.468C188.01,-52.0474 204.833,-39.8408 217.674,-30.523"/>
<polygon fill="midnightblue" stroke="midnightblue" points="172.787,-58.7693 166.749,-67.4751 176.898,-64.435 172.787,-58.7693"/>
</g>
<!-- Node2 -->
<g id="node2" class="node"><title>Node2</title>
<g id="a_node2"><a xlink:href="classxalanc_1_1XalanText.html" target="_top" xlink:title=" ">
<polygon fill="none" stroke="black" points="108.5,-123.5 108.5,-142.5 201.5,-142.5 201.5,-123.5 108.5,-123.5"/>
<text text-anchor="middle" x="155" y="-130.5" font-family="Helvetica,sans-Serif" font-size="10.00">xalanc::XalanText</text>
</a>
</g>
</g>
<!-- Node2&#45;&gt;Node1 -->
<g id="edge1" class="edge"><title>Node2&#45;&gt;Node1</title>
<path fill="none" stroke="midnightblue" d="M155,-112.805C155,-103.91 155,-93.7798 155,-86.7511"/>
<polygon fill="midnightblue" stroke="midnightblue" points="151.5,-113.083 155,-123.083 158.5,-113.083 151.5,-113.083"/>
</g>
<!-- Node3 -->
<g id="node3" class="node"><title>Node3</title>
<g id="a_node3"><a xlink:href="classxalanc_1_1XalanCharacterData.html" target="_top" xlink:title=" ">
<polygon fill="none" stroke="black" points="86.5,-179.5 86.5,-198.5 223.5,-198.5 223.5,-179.5 86.5,-179.5"/>
<text text-anchor="middle" x="155" y="-186.5" font-family="Helvetica,sans-Serif" font-size="10.00">xalanc::XalanCharacterData</text>
</a>
</g>
</g>
<!-- Node3&#45;&gt;Node2 -->
<g id="edge2" class="edge"><title>Node3&#45;&gt;Node2</title>
<path fill="none" stroke="midnightblue" d="M155,-168.805C155,-159.91 155,-149.78 155,-142.751"/>
<polygon fill="midnightblue" stroke="midnightblue" points="151.5,-169.083 155,-179.083 158.5,-169.083 151.5,-169.083"/>
</g>
<!-- Node4 -->
<g id="node4" class="node"><title>Node4</title>
<g id="a_node4"><a xlink:href="classxalanc_1_1XalanNode.html" target="_top" xlink:title=" ">
<polygon fill="none" stroke="black" points="106.5,-235.5 106.5,-254.5 203.5,-254.5 203.5,-235.5 106.5,-235.5"/>
<text text-anchor="middle" x="155" y="-242.5" font-family="Helvetica,sans-Serif" font-size="10.00">xalanc::XalanNode</text>
</a>
</g>
</g>
<!-- Node4&#45;&gt;Node3 -->
<g id="edge3" class="edge"><title>Node4&#45;&gt;Node3</title>
<path fill="none" stroke="midnightblue" d="M155,-224.805C155,-215.91 155,-205.78 155,-198.751"/>
<polygon fill="midnightblue" stroke="midnightblue" points="151.5,-225.083 155,-235.083 158.5,-225.083 151.5,-225.083"/>
</g>
</g>
</svg>
