<?xml version="1.0" encoding="UTF-8" standalone="no"?>
<!DOCTYPE svg PUBLIC "-//W3C//DTD SVG 1.1//EN"
 "http://www.w3.org/Graphics/SVG/1.1/DTD/svg11.dtd">
<!-- Generated by graphviz version 2.43.0 (0)
 -->
<!-- Title: xalanc::XNodeSetBase Pages: 1 -->
<svg width="286pt" height="207pt"
 viewBox="0.00 0.00 285.50 207.00" xmlns="http://www.w3.org/2000/svg" xmlns:xlink="http://www.w3.org/1999/xlink">
<g id="graph0" class="graph" transform="scale(1 1) rotate(0) translate(4 203)">
<title>xalanc::XNodeSetBase</title>
<!-- Node1 -->
<g id="node1" class="node">
<title>Node1</title>
<g id="a_node1"><a xlink:title="Class to hold XPath return types.">
<polygon fill="#bfbfbf" stroke="black" points="62,-56.5 62,-75.5 189,-75.5 189,-56.5 62,-56.5"/>
<text text-anchor="middle" x="125.5" y="-63.5" font-family="Helvetica,sans-Serif" font-size="10.00">xalanc::XNodeSetBase</text>
</a>
</g>
</g>
<!-- Node4 -->
<g id="node4" class="node">
<title>Node4</title>
<g id="a_node4"><a xlink:href="classxalanc_1_1XNodeSet.html" target="_top" xlink:title="Class to hold XPath return types.">
<polygon fill="none" stroke="black" points="0,-0.5 0,-19.5 103,-19.5 103,-0.5 0,-0.5"/>
<text text-anchor="middle" x="51.5" y="-7.5" font-family="Helvetica,sans-Serif" font-size="10.00">xalanc::XNodeSet</text>
</a>
</g>
</g>
<!-- Node1&#45;&gt;Node4 -->
<g id="edge3" class="edge">
<title>Node1&#45;&gt;Node4</title>
<path fill="none" stroke="midnightblue" d="M105.47,-50.38C92.09,-40.62 74.94,-28.11 63.61,-19.83"/>
<polygon fill="midnightblue" stroke="midnightblue" points="103.47,-53.26 113.61,-56.32 107.6,-47.6 103.47,-53.26"/>
</g>
<!-- Node5 -->
<g id="node5" class="node">
<title>Node5</title>
<g id="a_node5"><a xlink:href="classxalanc_1_1XNodeSetNodeProxy.html" target="_top" xlink:title="Class to hold XPath return types.">
<polygon fill="none" stroke="black" points="121.5,-0.5 121.5,-19.5 277.5,-19.5 277.5,-0.5 121.5,-0.5"/>
<text text-anchor="middle" x="199.5" y="-7.5" font-family="Helvetica,sans-Serif" font-size="10.00">xalanc::XNodeSetNodeProxy</text>
</a>
</g>
</g>
<!-- Node1&#45;&gt;Node5 -->
<g id="edge4" class="edge">
<title>Node1&#45;&gt;Node5</title>
<path fill="none" stroke="midnightblue" d="M145.53,-50.38C158.91,-40.62 176.06,-28.11 187.39,-19.83"/>
<polygon fill="midnightblue" stroke="midnightblue" points="143.4,-47.6 137.39,-56.32 147.53,-53.26 143.4,-47.6"/>
</g>
<!-- Node2 -->
<g id="node2" class="node">
<title>Node2</title>
<g id="a_node2"><a xlink:href="classxalanc_1_1XObject.html" target="_top" xlink:title="Class to hold XPath return types.">
<polygon fill="none" stroke="black" points="79.5,-112.5 79.5,-131.5 171.5,-131.5 171.5,-112.5 79.5,-112.5"/>
<text text-anchor="middle" x="125.5" y="-119.5" font-family="Helvetica,sans-Serif" font-size="10.00">xalanc::XObject</text>
</a>
</g>
</g>
<!-- Node2&#45;&gt;Node1 -->
<g id="edge1" class="edge">
<title>Node2&#45;&gt;Node1</title>
<path fill="none" stroke="midnightblue" d="M125.5,-101.8C125.5,-92.91 125.5,-82.78 125.5,-75.75"/>
<polygon fill="midnightblue" stroke="midnightblue" points="122,-102.08 125.5,-112.08 129,-102.08 122,-102.08"/>
</g>
<!-- Node3 -->
<g id="node3" class="node">
<title>Node3</title>
<g id="a_node3"><a xlink:href="classxalanc_1_1XalanReferenceCountedObject.html" target="_top" xlink:title="Class to hold reference count information.">
<polygon fill="none" stroke="black" points="39,-168.5 39,-198.5 212,-198.5 212,-168.5 39,-168.5"/>
<text text-anchor="start" x="47" y="-186.5" font-family="Helvetica,sans-Serif" font-size="10.00">xalanc::XalanReferenceCounted</text>
<text text-anchor="middle" x="125.5" y="-175.5" font-family="Helvetica,sans-Serif" font-size="10.00">Object</text>
</a>
</g>
</g>
<!-- Node3&#45;&gt;Node2 -->
<g id="edge2" class="edge">
<title>Node3&#45;&gt;Node2</title>
<path fill="none" stroke="darkgreen" d="M125.5,-158.29C125.5,-148.86 125.5,-138.65 125.5,-131.66"/>
<polygon fill="darkgreen" stroke="darkgreen" points="122,-158.4 125.5,-168.4 129,-158.4 122,-158.4"/>
</g>
</g>
</svg>
