<?xml version="1.0" encoding="UTF-8" standalone="no"?>
<!DOCTYPE svg PUBLIC "-//W3C//DTD SVG 1.1//EN"
 "http://www.w3.org/Graphics/SVG/1.1/DTD/svg11.dtd">
<!-- Generated by graphviz version 2.43.0 (0)
 -->
<!-- Title: xalanc::XalanMemMgrAutoPtr&lt; Type &gt; Pages: 1 -->
<!--zoomable 356 -->
<svg id="main" version="1.1" xmlns="http://www.w3.org/2000/svg" xmlns:xlink="http://www.w3.org/1999/xlink" xml:space="preserve" onload="init(evt)">
<style type="text/css"><![CDATA[
.edge:hover path { stroke: red; }
.edge:hover polygon { stroke: red; fill: red; }
]]></style>
<script type="text/javascript"><![CDATA[
var edges = document.getElementsByTagName('g');
if (edges && edges.length) {
  for (var i=0;i<edges.length;i++) {
    if (edges[i].id.substr(0,4)=='edge') {
      edges[i].setAttribute('class','edge');
    }
  }
}
]]></script>
        <defs>
                <circle id="rim" cx="0" cy="0" r="7"/>
                <circle id="rim2" cx="0" cy="0" r="3.5"/>
                <g id="zoomPlus">
                        <use xlink:href="#rim" fill="#404040">
                                <set attributeName="fill" to="#808080" begin="zoomplus.mouseover" end="zoomplus.mouseout"/>
                        </use>
                        <path d="M-4,0h8M0,-4v8" fill="none" stroke="white" stroke-width="1.5" pointer-events="none"/>
                </g>
                <g id="zoomMin">
                        <use xlink:href="#rim" fill="#404040">
                                <set attributeName="fill" to="#808080" begin="zoomminus.mouseover" end="zoomminus.mouseout"/>
                        </use>
                        <path d="M-4,0h8" fill="none" stroke="white" stroke-width="1.5" pointer-events="none"/>
                </g>
                <g id="dirArrow">
                        <path fill="none" stroke="white" stroke-width="1.5" d="M0,-3.0v7 M-2.5,-0.5L0,-3.0L2.5,-0.5"/>
                </g>
               <g id="resetDef">
                       <use xlink:href="#rim2" fill="#404040">
                               <set attributeName="fill" to="#808080" begin="reset.mouseover" end="reset.mouseout"/>
                       </use>
               </g>
        </defs>

<script type="text/javascript">
var viewWidth = 578;
var viewHeight = 356;
var sectionId = 'dynsection-0';
</script>
<script xlink:href="svgpan.js"/>
<svg id="graph" class="graph">
<g id="viewport">
<title>xalanc::XalanMemMgrAutoPtr&lt; Type &gt;</title>
<!-- Node1 -->
<g id="node1" class="node">
<title>Node1</title>
<g id="a_node1"><a xlink:title=" ">
<polygon fill="#bfbfbf" stroke="black" points="0,-170.5 0,-200.5 162,-200.5 162,-170.5 0,-170.5"/>
<text text-anchor="start" x="8" y="-188.5" font-family="Helvetica,sans-Serif" font-size="10.00">xalanc::XalanMemMgrAutoPtr</text>
<text text-anchor="middle" x="81" y="-177.5" font-family="Helvetica,sans-Serif" font-size="10.00">&lt; Type &gt;</text>
</a>
</g>
</g>
<!-- Node2 -->
<g id="node2" class="node">
<title>Node2</title>
<g id="a_node2"><a xlink:href="classxalanc_1_1XalanMemMgrAutoPtr.html" target="_top" xlink:title=" ">
<polygon fill="none" stroke="black" points="384.5,-317.5 384.5,-347.5 546.5,-347.5 546.5,-317.5 384.5,-317.5"/>
<text text-anchor="start" x="392.5" y="-335.5" font-family="Helvetica,sans-Serif" font-size="10.00">xalanc::XalanMemMgrAutoPtr</text>
<text text-anchor="middle" x="465.5" y="-324.5" font-family="Helvetica,sans-Serif" font-size="10.00">&lt; xalanc::XObjectFactory &gt;</text>
</a>
</g>
</g>
<!-- Node1&#45;&gt;Node2 -->
<g id="edge1" class="edge">
<title>Node1&#45;&gt;Node2</title>
<path fill="none" stroke="orange" stroke-dasharray="5,2" d="M96.81,-209.38C113.68,-234.31 143.64,-272.39 180,-291.5 243.28,-324.76 324.82,-333.63 384.38,-335"/>
<polygon fill="orange" stroke="orange" points="99.62,-207.28 91.21,-200.85 93.77,-211.13 99.62,-207.28"/>
<text text-anchor="middle" x="261.5" y="-334.5" font-family="Helvetica,sans-Serif" font-size="10.00"> &lt; xalanc::XObjectFactory &gt;</text>
</g>
<!-- Node3 -->
<g id="node3" class="node">
<title>Node3</title>
<g id="a_node3"><a xlink:href="classxalanc_1_1XalanMemMgrAutoPtr.html" target="_top" xlink:title=" ">
<polygon fill="none" stroke="black" points="377.5,-268.5 377.5,-298.5 553.5,-298.5 553.5,-268.5 377.5,-268.5"/>
<text text-anchor="start" x="385.5" y="-286.5" font-family="Helvetica,sans-Serif" font-size="10.00">xalanc::XalanMemMgrAutoPtr</text>
<text text-anchor="middle" x="465.5" y="-275.5" font-family="Helvetica,sans-Serif" font-size="10.00">&lt; xalanc::XPathFactoryDefault &gt;</text>
</a>
</g>
</g>
<!-- Node1&#45;&gt;Node3 -->
<g id="edge2" class="edge">
<title>Node1&#45;&gt;Node3</title>
<path fill="none" stroke="orange" stroke-dasharray="5,2" d="M110.6,-206.55C129.39,-219.3 155.03,-234.75 180,-243.5 243.9,-265.89 320.03,-275.78 377.45,-280.14"/>
<polygon fill="orange" stroke="orange" points="112.43,-203.56 102.22,-200.73 108.44,-209.31 112.43,-203.56"/>
<text text-anchor="middle" x="261.5" y="-279.5" font-family="Helvetica,sans-Serif" font-size="10.00"> &lt; xalanc::XPathFactoryDefault &gt;</text>
</g>
<!-- Node4 -->
<g id="node4" class="node">
<title>Node4</title>
<g id="a_node4"><a xlink:href="classxalanc_1_1XalanMemMgrAutoPtr.html" target="_top" xlink:title=" ">
<polygon fill="none" stroke="black" points="384.5,-219.5 384.5,-249.5 546.5,-249.5 546.5,-219.5 384.5,-219.5"/>
<text text-anchor="start" x="392.5" y="-237.5" font-family="Helvetica,sans-Serif" font-size="10.00">xalanc::XalanMemMgrAutoPtr</text>
<text text-anchor="middle" x="465.5" y="-226.5" font-family="Helvetica,sans-Serif" font-size="10.00">&lt; XPathProcessor &gt;</text>
</a>
</g>
</g>
<!-- Node1&#45;&gt;Node4 -->
<g id="edge3" class="edge">
<title>Node1&#45;&gt;Node4</title>
<path fill="none" stroke="orange" stroke-dasharray="5,2" d="M141.64,-203.14C154.22,-206.34 167.47,-209.35 180,-211.5 248.37,-223.24 327.05,-229.02 384.31,-231.84"/>
<polygon fill="orange" stroke="orange" points="142.29,-199.69 131.73,-200.53 140.51,-206.46 142.29,-199.69"/>
<text text-anchor="middle" x="261.5" y="-231.5" font-family="Helvetica,sans-Serif" font-size="10.00"> &lt; XPathProcessor &gt;</text>
</g>
<!-- Node5 -->
<g id="node5" class="node">
<title>Node5</title>
<g id="a_node5"><a xlink:href="classxalanc_1_1XalanMemMgrAutoPtr.html" target="_top" xlink:title=" ">
<polygon fill="none" stroke="black" points="376,-170.5 376,-200.5 555,-200.5 555,-170.5 376,-170.5"/>
<text text-anchor="start" x="384" y="-188.5" font-family="Helvetica,sans-Serif" font-size="10.00">xalanc::XalanMemMgrAutoPtr</text>
<text text-anchor="middle" x="465.5" y="-177.5" font-family="Helvetica,sans-Serif" font-size="10.00">&lt; xalanc::XalanDOMStringPool &gt;</text>
</a>
</g>
</g>
<!-- Node1&#45;&gt;Node5 -->
<g id="edge4" class="edge">
<title>Node1&#45;&gt;Node5</title>
<path fill="none" stroke="orange" stroke-dasharray="5,2" d="M172.26,-185.5C233.69,-185.5 314.62,-185.5 375.73,-185.5"/>
<polygon fill="orange" stroke="orange" points="172.18,-182 162.18,-185.5 172.18,-189 172.18,-182"/>
<text text-anchor="start" x="195" y="-199.5" font-family="Helvetica,sans-Serif" font-size="10.00"> &lt; xalanc::XalanDOMString</text>
<text text-anchor="middle" x="261.5" y="-188.5" font-family="Helvetica,sans-Serif" font-size="10.00">Pool &gt;</text>
</g>
<!-- Node6 -->
<g id="node6" class="node">
<title>Node6</title>
<g id="a_node6"><a xlink:href="classxalanc_1_1XalanMemMgrAutoPtr.html" target="_top" xlink:title=" ">
<polygon fill="none" stroke="black" points="376,-110 376,-151 555,-151 555,-110 376,-110"/>
<text text-anchor="start" x="384" y="-139" font-family="Helvetica,sans-Serif" font-size="10.00">xalanc::XalanMemMgrAutoPtr</text>
<text text-anchor="start" x="384" y="-128" font-family="Helvetica,sans-Serif" font-size="10.00">&lt; xalanc::XPathExecutionContext</text>
<text text-anchor="middle" x="465.5" y="-117" font-family="Helvetica,sans-Serif" font-size="10.00">Default &gt;</text>
</a>
</g>
</g>
<!-- Node1&#45;&gt;Node6 -->
<g id="edge5" class="edge">
<title>Node1&#45;&gt;Node6</title>
<path fill="none" stroke="orange" stroke-dasharray="5,2" d="M142.3,-167.91C154.69,-164.74 167.7,-161.74 180,-159.5 245.08,-147.63 319.49,-140.26 375.89,-135.92"/>
<polygon fill="orange" stroke="orange" points="141.31,-164.55 132.52,-170.47 143.08,-171.32 141.31,-164.55"/>
<text text-anchor="start" x="197.5" y="-173.5" font-family="Helvetica,sans-Serif" font-size="10.00"> &lt; xalanc::XPathExecution</text>
<text text-anchor="middle" x="261.5" y="-162.5" font-family="Helvetica,sans-Serif" font-size="10.00">ContextDefault &gt;</text>
</g>
<!-- Node7 -->
<g id="node7" class="node">
<title>Node7</title>
<g id="a_node7"><a xlink:href="classxalanc_1_1XalanMemMgrAutoPtr.html" target="_top" xlink:title=" ">
<polygon fill="none" stroke="black" points="368.5,-50 368.5,-91 562.5,-91 562.5,-50 368.5,-50"/>
<text text-anchor="start" x="376.5" y="-79" font-family="Helvetica,sans-Serif" font-size="10.00">xalanc::XalanMemMgrAutoPtr</text>
<text text-anchor="start" x="376.5" y="-68" font-family="Helvetica,sans-Serif" font-size="10.00">&lt; xalanc::XPathConstructionContext</text>
<text text-anchor="middle" x="465.5" y="-57" font-family="Helvetica,sans-Serif" font-size="10.00">Default &gt;</text>
</a>
</g>
</g>
<!-- Node1&#45;&gt;Node7 -->
<g id="edge6" class="edge">
<title>Node1&#45;&gt;Node7</title>
<path fill="none" stroke="orange" stroke-dasharray="5,2" d="M104.5,-163.57C123.16,-146.75 151.2,-124.45 180,-112.5 239.72,-87.72 311.82,-77.26 368.49,-72.98"/>
<polygon fill="orange" stroke="orange" points="102.08,-161.04 97.11,-170.4 106.83,-166.18 102.08,-161.04"/>
<text text-anchor="start" x="190.5" y="-126.5" font-family="Helvetica,sans-Serif" font-size="10.00"> &lt; xalanc::XPathConstruction</text>
<text text-anchor="middle" x="261.5" y="-115.5" font-family="Helvetica,sans-Serif" font-size="10.00">ContextDefault &gt;</text>
</g>
<!-- Node8 -->
<g id="node8" class="node">
<title>Node8</title>
<g id="a_node8"><a xlink:href="classxalanc_1_1XalanMemMgrAutoPtr.html" target="_top" xlink:title=" ">
<polygon fill="none" stroke="black" points="361,-0.5 361,-30.5 570,-30.5 570,-0.5 361,-0.5"/>
<text text-anchor="start" x="369" y="-18.5" font-family="Helvetica,sans-Serif" font-size="10.00">xalanc::XalanMemMgrAutoPtr</text>
<text text-anchor="middle" x="465.5" y="-7.5" font-family="Helvetica,sans-Serif" font-size="10.00">&lt; xalanc::XalanSourceTreeDocument &gt;</text>
</a>
</g>
</g>
<!-- Node1&#45;&gt;Node8 -->
<g id="edge7" class="edge">
<title>Node1&#45;&gt;Node8</title>
<path fill="none" stroke="orange" stroke-dasharray="5,2" d="M92.03,-161.07C106.42,-129.45 136.11,-75.37 180,-49.5 233.99,-17.67 303.76,-8.94 360.69,-8.27"/>
<polygon fill="orange" stroke="orange" points="88.72,-159.91 87.9,-170.48 95.13,-162.73 88.72,-159.91"/>
<text text-anchor="start" x="194.5" y="-63.5" font-family="Helvetica,sans-Serif" font-size="10.00"> &lt; xalanc::XalanSourceTree</text>
<text text-anchor="middle" x="261.5" y="-52.5" font-family="Helvetica,sans-Serif" font-size="10.00">Document &gt;</text>
</g>
</g>
</svg>
        <g id="navigator" transform="translate(0 0)" fill="#404254">
                <rect fill="#f2f5e9" fill-opacity="0.5" stroke="#606060" stroke-width=".5" x="0" y="0" width="60" height="60"/>
                <use id="zoomplus" xlink:href="#zoomPlus" x="17" y="9" onmousedown="handleZoom(evt,'in')"/>
                <use id="zoomminus" xlink:href="#zoomMin" x="42" y="9" onmousedown="handleZoom(evt,'out')"/>
                <use id="reset" xlink:href="#resetDef" x="30" y="36" onmousedown="handleReset()"/>
                <g id="arrowUp" xlink:href="#dirArrow" transform="translate(30 24)" onmousedown="handlePan(0,-1)">
                  <use xlink:href="#rim" fill="#404040">
                        <set attributeName="fill" to="#808080" begin="arrowUp.mouseover" end="arrowUp.mouseout"/>
                  </use>
                  <path fill="none" stroke="white" stroke-width="1.5" d="M0,-3.0v7 M-2.5,-0.5L0,-3.0L2.5,-0.5"/>
                </g>
                <g id="arrowRight" xlink:href="#dirArrow" transform="rotate(90) translate(36 -43)" onmousedown="handlePan(1,0)">
                  <use xlink:href="#rim" fill="#404040">
                        <set attributeName="fill" to="#808080" begin="arrowRight.mouseover" end="arrowRight.mouseout"/>
                  </use>
                  <path fill="none" stroke="white" stroke-width="1.5" d="M0,-3.0v7 M-2.5,-0.5L0,-3.0L2.5,-0.5"/>
                </g>
                <g id="arrowDown" xlink:href="#dirArrow" transform="rotate(180) translate(-30 -48)" onmousedown="handlePan(0,1)">
                  <use xlink:href="#rim" fill="#404040">
                        <set attributeName="fill" to="#808080" begin="arrowDown.mouseover" end="arrowDown.mouseout"/>
                  </use>
                  <path fill="none" stroke="white" stroke-width="1.5" d="M0,-3.0v7 M-2.5,-0.5L0,-3.0L2.5,-0.5"/>
                </g>
                <g id="arrowLeft" xlink:href="#dirArrow" transform="rotate(270) translate(-36 17)" onmousedown="handlePan(-1,0)">
                  <use xlink:href="#rim" fill="#404040">
                        <set attributeName="fill" to="#808080" begin="arrowLeft.mouseover" end="arrowLeft.mouseout"/>
                  </use>
                  <path fill="none" stroke="white" stroke-width="1.5" d="M0,-3.0v7 M-2.5,-0.5L0,-3.0L2.5,-0.5"/>
                </g>
        </g>
        <svg viewBox="0 0 15 15" width="100%" height="30px" preserveAspectRatio="xMaxYMin meet">
         <g id="arrow_out" transform="scale(0.3 0.3)">
          <a xlink:href="classxalanc_1_1XalanMemMgrAutoPtr__inherit__graph_org.svg" target="_base">
           <rect id="button" ry="5" rx="5" y="6" x="6" height="38" width="38"
                fill="#f2f5e9" fill-opacity="0.5" stroke="#606060" stroke-width="1.0"/>
           <path id="arrow"
             d="M 11.500037,31.436501 C 11.940474,20.09759 22.043105,11.32322 32.158766,21.979434 L 37.068811,17.246167 C 37.068811,17.246167 37.088388,32 37.088388,32 L 22.160133,31.978069 C 22.160133,31.978069 26.997745,27.140456 26.997745,27.140456 C 18.528582,18.264221 13.291696,25.230495 11.500037,31.436501 z"
             style="fill:#404040;"/>
          </a>
         </g>
        </svg>
</svg>
