<?xml version="1.0" encoding="UTF-8" standalone="no"?>
<!DOCTYPE svg PUBLIC "-//W3C//DTD SVG 1.1//EN"
 "http://www.w3.org/Graphics/SVG/1.1/DTD/svg11.dtd">
<!-- Generated by graphviz version 2.43.0 (0)
 -->
<!-- Title: xalanc::XalanText Pages: 1 -->
<svg width="847pt" height="249pt"
 viewBox="0.00 0.00 847.00 249.00" xmlns="http://www.w3.org/2000/svg" xmlns:xlink="http://www.w3.org/1999/xlink">
<g id="graph0" class="graph" transform="scale(1 1) rotate(0) translate(4 245)">
<title>xalanc::XalanText</title>
<!-- Node1 -->
<g id="node1" class="node">
<title>Node1</title>
<g id="a_node1"><a xlink:title=" ">
<polygon fill="#bfbfbf" stroke="black" points="333,-88 333,-107 436,-107 436,-88 333,-88"/>
<text text-anchor="middle" x="384.5" y="-95" font-family="Helvetica,sans-Serif" font-size="10.00">xalanc::XalanText</text>
</a>
</g>
</g>
<!-- Node4 -->
<g id="node4" class="node">
<title>Node4</title>
<g id="a_node4"><a xlink:href="classxalanc_1_1XalanCDATASection.html" target="_top" xlink:title=" ">
<polygon fill="none" stroke="black" points="474.5,-167 474.5,-186 625.5,-186 625.5,-167 474.5,-167"/>
<text text-anchor="middle" x="550" y="-174" font-family="Helvetica,sans-Serif" font-size="10.00">xalanc::XalanCDATASection</text>
</a>
</g>
</g>
<!-- Node1&#45;&gt;Node4 -->
<g id="edge3" class="edge">
<title>Node1&#45;&gt;Node4</title>
<path fill="none" stroke="midnightblue" d="M405.43,-113.18C422.33,-125.84 447.64,-143.32 472,-154.5 482.99,-159.55 495.41,-163.71 507.01,-166.99"/>
<polygon fill="midnightblue" stroke="midnightblue" points="407.48,-110.35 397.41,-107.06 403.24,-115.91 407.48,-110.35"/>
</g>
<!-- Node7 -->
<g id="node7" class="node">
<title>Node7</title>
<g id="a_node7"><a xlink:href="classxalanc_1_1XalanSourceTreeText.html" target="_top" xlink:title=" ">
<polygon fill="none" stroke="black" points="472,-126 472,-145 628,-145 628,-126 472,-126"/>
<text text-anchor="middle" x="550" y="-133" font-family="Helvetica,sans-Serif" font-size="10.00">xalanc::XalanSourceTreeText</text>
</a>
</g>
</g>
<!-- Node1&#45;&gt;Node7 -->
<g id="edge6" class="edge">
<title>Node1&#45;&gt;Node7</title>
<path fill="none" stroke="midnightblue" d="M436.68,-109.4C459.67,-114.74 486.41,-120.95 508.04,-125.98"/>
<polygon fill="midnightblue" stroke="midnightblue" points="437.29,-105.94 426.76,-107.09 435.71,-112.76 437.29,-105.94"/>
</g>
<!-- Node9 -->
<g id="node9" class="node">
<title>Node9</title>
<g id="a_node9"><a xlink:href="classxalanc_1_1XercesTextBridge.html" target="_top" xlink:title="This class is deprecated.">
<polygon fill="none" stroke="black" points="480,-88 480,-107 620,-107 620,-88 480,-88"/>
<text text-anchor="middle" x="550" y="-95" font-family="Helvetica,sans-Serif" font-size="10.00">xalanc::XercesTextBridge</text>
</a>
</g>
</g>
<!-- Node1&#45;&gt;Node9 -->
<g id="edge8" class="edge">
<title>Node1&#45;&gt;Node9</title>
<path fill="none" stroke="midnightblue" d="M446.56,-97.5C457.42,-97.5 468.81,-97.5 479.87,-97.5"/>
<polygon fill="midnightblue" stroke="midnightblue" points="446.34,-94 436.34,-97.5 446.34,-101 446.34,-94"/>
</g>
<!-- Node10 -->
<g id="node10" class="node">
<title>Node10</title>
<g id="a_node10"><a xlink:href="classxalanc_1_1XercesTextWrapper.html" target="_top" xlink:title=" ">
<polygon fill="none" stroke="black" points="475.5,-50 475.5,-69 624.5,-69 624.5,-50 475.5,-50"/>
<text text-anchor="middle" x="550" y="-57" font-family="Helvetica,sans-Serif" font-size="10.00">xalanc::XercesTextWrapper</text>
</a>
</g>
</g>
<!-- Node1&#45;&gt;Node10 -->
<g id="edge9" class="edge">
<title>Node1&#45;&gt;Node10</title>
<path fill="none" stroke="midnightblue" d="M436.68,-85.6C459.67,-80.26 486.41,-74.05 508.04,-69.02"/>
<polygon fill="midnightblue" stroke="midnightblue" points="435.71,-82.24 426.76,-87.91 437.29,-89.06 435.71,-82.24"/>
</g>
<!-- Node11 -->
<g id="node11" class="node">
<title>Node11</title>
<g id="a_node11"><a xlink:href="classxalanc_1_1XObjectResultTreeFragProxyText.html" target="_top" xlink:title=" ">
<polygon fill="none" stroke="black" points="478.5,-0.5 478.5,-30.5 621.5,-30.5 621.5,-0.5 478.5,-0.5"/>
<text text-anchor="start" x="486.5" y="-18.5" font-family="Helvetica,sans-Serif" font-size="10.00">xalanc::XObjectResultTree</text>
<text text-anchor="middle" x="550" y="-7.5" font-family="Helvetica,sans-Serif" font-size="10.00">FragProxyText</text>
</a>
</g>
</g>
<!-- Node1&#45;&gt;Node11 -->
<g id="edge10" class="edge">
<title>Node1&#45;&gt;Node11</title>
<path fill="none" stroke="midnightblue" d="M405.83,-81.83C422.79,-69.33 447.98,-52.05 472,-40.5 479.6,-36.84 487.87,-33.53 496.07,-30.6"/>
<polygon fill="midnightblue" stroke="midnightblue" points="403.66,-79.08 397.76,-87.88 407.86,-84.68 403.66,-79.08"/>
</g>
<!-- Node2 -->
<g id="node2" class="node">
<title>Node2</title>
<g id="a_node2"><a xlink:href="classxalanc_1_1XalanCharacterData.html" target="_top" xlink:title=" ">
<polygon fill="none" stroke="black" points="144,-88 144,-107 297,-107 297,-88 144,-88"/>
<text text-anchor="middle" x="220.5" y="-95" font-family="Helvetica,sans-Serif" font-size="10.00">xalanc::XalanCharacterData</text>
</a>
</g>
</g>
<!-- Node2&#45;&gt;Node1 -->
<g id="edge1" class="edge">
<title>Node2&#45;&gt;Node1</title>
<path fill="none" stroke="midnightblue" d="M307.44,-97.5C316.08,-97.5 324.65,-97.5 332.75,-97.5"/>
<polygon fill="midnightblue" stroke="midnightblue" points="307.28,-94 297.28,-97.5 307.28,-101 307.28,-94"/>
</g>
<!-- Node3 -->
<g id="node3" class="node">
<title>Node3</title>
<g id="a_node3"><a xlink:href="classxalanc_1_1XalanNode.html" target="_top" xlink:title=" ">
<polygon fill="none" stroke="black" points="0,-88 0,-107 108,-107 108,-88 0,-88"/>
<text text-anchor="middle" x="54" y="-95" font-family="Helvetica,sans-Serif" font-size="10.00">xalanc::XalanNode</text>
</a>
</g>
</g>
<!-- Node3&#45;&gt;Node2 -->
<g id="edge2" class="edge">
<title>Node3&#45;&gt;Node2</title>
<path fill="none" stroke="midnightblue" d="M118.44,-97.5C126.79,-97.5 135.42,-97.5 143.95,-97.5"/>
<polygon fill="midnightblue" stroke="midnightblue" points="118.41,-94 108.41,-97.5 118.41,-101 118.41,-94"/>
</g>
<!-- Node5 -->
<g id="node5" class="node">
<title>Node5</title>
<g id="a_node5"><a xlink:href="classxalanc_1_1XercesCDATASectionBridge.html" target="_top" xlink:title="This class is deprecated.">
<polygon fill="none" stroke="black" points="673.5,-210.5 673.5,-240.5 829.5,-240.5 829.5,-210.5 673.5,-210.5"/>
<text text-anchor="start" x="681.5" y="-228.5" font-family="Helvetica,sans-Serif" font-size="10.00">xalanc::XercesCDATASection</text>
<text text-anchor="middle" x="751.5" y="-217.5" font-family="Helvetica,sans-Serif" font-size="10.00">Bridge</text>
</a>
</g>
</g>
<!-- Node4&#45;&gt;Node5 -->
<g id="edge4" class="edge">
<title>Node4&#45;&gt;Node5</title>
<path fill="none" stroke="midnightblue" d="M599.91,-188.51C626.87,-195.14 660.59,-203.42 689.28,-210.46"/>
<polygon fill="midnightblue" stroke="midnightblue" points="600.49,-185.05 589.94,-186.06 598.82,-191.85 600.49,-185.05"/>
</g>
<!-- Node6 -->
<g id="node6" class="node">
<title>Node6</title>
<g id="a_node6"><a xlink:href="classxalanc_1_1XercesCDATASectionWrapper.html" target="_top" xlink:title=" ">
<polygon fill="none" stroke="black" points="673.5,-161.5 673.5,-191.5 829.5,-191.5 829.5,-161.5 673.5,-161.5"/>
<text text-anchor="start" x="681.5" y="-179.5" font-family="Helvetica,sans-Serif" font-size="10.00">xalanc::XercesCDATASection</text>
<text text-anchor="middle" x="751.5" y="-168.5" font-family="Helvetica,sans-Serif" font-size="10.00">Wrapper</text>
</a>
</g>
</g>
<!-- Node4&#45;&gt;Node6 -->
<g id="edge5" class="edge">
<title>Node4&#45;&gt;Node6</title>
<path fill="none" stroke="midnightblue" d="M635.92,-176.5C648.35,-176.5 661.09,-176.5 673.36,-176.5"/>
<polygon fill="midnightblue" stroke="midnightblue" points="635.57,-173 625.57,-176.5 635.57,-180 635.57,-173"/>
</g>
<!-- Node8 -->
<g id="node8" class="node">
<title>Node8</title>
<g id="a_node8"><a xlink:href="classxalanc_1_1XalanSourceTreeTextIWS.html" target="_top" xlink:title=" ">
<polygon fill="none" stroke="black" points="664,-123 664,-142 839,-142 839,-123 664,-123"/>
<text text-anchor="middle" x="751.5" y="-130" font-family="Helvetica,sans-Serif" font-size="10.00">xalanc::XalanSourceTreeTextIWS</text>
</a>
</g>
</g>
<!-- Node7&#45;&gt;Node8 -->
<g id="edge7" class="edge">
<title>Node7&#45;&gt;Node8</title>
<path fill="none" stroke="midnightblue" d="M638.4,-134.19C646.88,-134.06 655.48,-133.93 663.95,-133.8"/>
<polygon fill="midnightblue" stroke="midnightblue" points="638.08,-130.69 628.13,-134.34 638.18,-137.69 638.08,-130.69"/>
</g>
</g>
</svg>
