<?xml version="1.0" encoding="UTF-8" standalone="no"?>
<!DOCTYPE svg PUBLIC "-//W3C//DTD SVG 1.1//EN"
 "http://www.w3.org/Graphics/SVG/1.1/DTD/svg11.dtd">
<!-- Generated by graphviz version 2.43.0 (0)
 -->
<!-- Title: xalanc::XalanDefaultDocumentBuilder Pages: 1 -->
<svg width="177pt" height="151pt"
 viewBox="0.00 0.00 177.00 151.00" xmlns="http://www.w3.org/2000/svg" xmlns:xlink="http://www.w3.org/1999/xlink">
<g id="graph0" class="graph" transform="scale(1 1) rotate(0) translate(4 147)">
<title>xalanc::XalanDefaultDocumentBuilder</title>
<!-- Node1 -->
<g id="node1" class="node">
<title>Node1</title>
<g id="a_node1"><a xlink:title="This is class is designed to allow a XalanTranfomer object to use a document that is build dynamicall...">
<polygon fill="#bfbfbf" stroke="black" points="0,-0.5 0,-30.5 169,-30.5 169,-0.5 0,-0.5"/>
<text text-anchor="start" x="8" y="-18.5" font-family="Helvetica,sans-Serif" font-size="10.00">xalanc::XalanDefaultDocument</text>
<text text-anchor="middle" x="84.5" y="-7.5" font-family="Helvetica,sans-Serif" font-size="10.00">Builder</text>
</a>
</g>
</g>
<!-- Node2 -->
<g id="node2" class="node">
<title>Node2</title>
<g id="a_node2"><a xlink:href="classxalanc_1_1XalanDocumentBuilder.html" target="_top" xlink:title="This is abstract base class designed to allow a XalanTranfomer object to use a document that is build...">
<polygon fill="none" stroke="black" points="1,-67.5 1,-86.5 168,-86.5 168,-67.5 1,-67.5"/>
<text text-anchor="middle" x="84.5" y="-74.5" font-family="Helvetica,sans-Serif" font-size="10.00">xalanc::XalanDocumentBuilder</text>
</a>
</g>
</g>
<!-- Node2&#45;&gt;Node1 -->
<g id="edge1" class="edge">
<title>Node2&#45;&gt;Node1</title>
<path fill="none" stroke="midnightblue" d="M84.5,-57.23C84.5,-48.59 84.5,-38.5 84.5,-30.52"/>
<polygon fill="midnightblue" stroke="midnightblue" points="81,-57.48 84.5,-67.48 88,-57.48 81,-57.48"/>
</g>
<!-- Node3 -->
<g id="node3" class="node">
<title>Node3</title>
<g id="a_node3"><a xlink:href="classxalanc_1_1XalanParsedSource.html" target="_top" xlink:title="This is abstract base class designed to allow a XalanTranfomer object to reuse a parsed document.">
<polygon fill="none" stroke="black" points="10.5,-123.5 10.5,-142.5 158.5,-142.5 158.5,-123.5 10.5,-123.5"/>
<text text-anchor="middle" x="84.5" y="-130.5" font-family="Helvetica,sans-Serif" font-size="10.00">xalanc::XalanParsedSource</text>
</a>
</g>
</g>
<!-- Node3&#45;&gt;Node2 -->
<g id="edge2" class="edge">
<title>Node3&#45;&gt;Node2</title>
<path fill="none" stroke="midnightblue" d="M84.5,-112.8C84.5,-103.91 84.5,-93.78 84.5,-86.75"/>
<polygon fill="midnightblue" stroke="midnightblue" points="81,-113.08 84.5,-123.08 88,-113.08 81,-113.08"/>
</g>
</g>
</svg>
