<?xml version="1.0" encoding="UTF-8" standalone="no"?>
<!DOCTYPE svg PUBLIC "-//W3C//DTD SVG 1.1//EN"
 "http://www.w3.org/Graphics/SVG/1.1/DTD/svg11.dtd">
<!-- Generated by graphviz version 2.43.0 (0)
 -->
<!-- Title: xalanc::XalanXPathException Pages: 1 -->
<!--zoomable 284 -->
<svg id="main" version="1.1" xmlns="http://www.w3.org/2000/svg" xmlns:xlink="http://www.w3.org/1999/xlink" xml:space="preserve" onload="init(evt)">
<style type="text/css"><![CDATA[
.edge:hover path { stroke: red; }
.edge:hover polygon { stroke: red; fill: red; }
]]></style>
<script type="text/javascript"><![CDATA[
var edges = document.getElementsByTagName('g');
if (edges && edges.length) {
  for (var i=0;i<edges.length;i++) {
    if (edges[i].id.substr(0,4)=='edge') {
      edges[i].setAttribute('class','edge');
    }
  }
}
]]></script>
        <defs>
                <circle id="rim" cx="0" cy="0" r="7"/>
                <circle id="rim2" cx="0" cy="0" r="3.5"/>
                <g id="zoomPlus">
                        <use xlink:href="#rim" fill="#404040">
                                <set attributeName="fill" to="#808080" begin="zoomplus.mouseover" end="zoomplus.mouseout"/>
                        </use>
                        <path d="M-4,0h8M0,-4v8" fill="none" stroke="white" stroke-width="1.5" pointer-events="none"/>
                </g>
                <g id="zoomMin">
                        <use xlink:href="#rim" fill="#404040">
                                <set attributeName="fill" to="#808080" begin="zoomminus.mouseover" end="zoomminus.mouseout"/>
                        </use>
                        <path d="M-4,0h8" fill="none" stroke="white" stroke-width="1.5" pointer-events="none"/>
                </g>
                <g id="dirArrow">
                        <path fill="none" stroke="white" stroke-width="1.5" d="M0,-3.0v7 M-2.5,-0.5L0,-3.0L2.5,-0.5"/>
                </g>
               <g id="resetDef">
                       <use xlink:href="#rim2" fill="#404040">
                               <set attributeName="fill" to="#808080" begin="reset.mouseover" end="reset.mouseout"/>
                       </use>
               </g>
        </defs>

<script type="text/javascript">
var viewWidth = 747;
var viewHeight = 284;
var sectionId = 'dynsection-0';
</script>
<script xlink:href="svgpan.js"/>
<svg id="graph" class="graph">
<g id="viewport">
<title>xalanc::XalanXPathException</title>
<!-- Node1 -->
<g id="node1" class="node">
<title>Node1</title>
<g id="a_node1"><a xlink:title=" ">
<polygon fill="#bfbfbf" stroke="black" points="157,-128 157,-147 315,-147 315,-128 157,-128"/>
<text text-anchor="middle" x="236" y="-135" font-family="Helvetica,sans-Serif" font-size="10.00">xalanc::XalanXPathException</text>
</a>
</g>
</g>
<!-- Node3 -->
<g id="node3" class="node">
<title>Node3</title>
<g id="a_node3"><a xlink:href="classxalanc_1_1XalanQName_1_1InvalidQNameException.html" target="_top" xlink:title=" ">
<polygon fill="none" stroke="black" points="367,-245.5 367,-275.5 507,-275.5 507,-245.5 367,-245.5"/>
<text text-anchor="start" x="375" y="-263.5" font-family="Helvetica,sans-Serif" font-size="10.00">xalanc::XalanQName</text>
<text text-anchor="middle" x="437" y="-252.5" font-family="Helvetica,sans-Serif" font-size="10.00">::InvalidQNameException</text>
</a>
</g>
</g>
<!-- Node1&#45;&gt;Node3 -->
<g id="edge2" class="edge">
<title>Node1&#45;&gt;Node3</title>
<path fill="none" stroke="midnightblue" d="M252.31,-154.87C272.71,-176.97 310.91,-214.85 351,-236.5 357.34,-239.92 364.22,-242.9 371.22,-245.48"/>
<polygon fill="midnightblue" stroke="midnightblue" points="254.71,-152.3 245.4,-147.24 249.52,-157 254.71,-152.3"/>
</g>
<!-- Node4 -->
<g id="node4" class="node">
<title>Node4</title>
<g id="a_node4"><a xlink:href="classxalanc_1_1XObject_1_1XObjectException.html" target="_top" xlink:title=" ">
<polygon fill="none" stroke="black" points="369,-196.5 369,-226.5 505,-226.5 505,-196.5 369,-196.5"/>
<text text-anchor="start" x="377" y="-214.5" font-family="Helvetica,sans-Serif" font-size="10.00">xalanc::XObject::XObject</text>
<text text-anchor="middle" x="437" y="-203.5" font-family="Helvetica,sans-Serif" font-size="10.00">Exception</text>
</a>
</g>
</g>
<!-- Node1&#45;&gt;Node4 -->
<g id="edge3" class="edge">
<title>Node1&#45;&gt;Node4</title>
<path fill="none" stroke="midnightblue" d="M265.55,-151.34C288.34,-162.06 321.27,-176.84 351,-187.5 359.8,-190.66 369.24,-193.67 378.5,-196.43"/>
<polygon fill="midnightblue" stroke="midnightblue" points="266.97,-148.14 256.44,-147.01 263.97,-154.46 266.97,-148.14"/>
</g>
<!-- Node6 -->
<g id="node6" class="node">
<title>Node6</title>
<g id="a_node6"><a xlink:href="classxalanc_1_1XPathExceptionFunctionNotAvailable.html" target="_top" xlink:title="Exception class thrown when an unknown function is encountered.">
<polygon fill="none" stroke="black" points="351,-147.5 351,-177.5 523,-177.5 523,-147.5 351,-147.5"/>
<text text-anchor="start" x="359" y="-165.5" font-family="Helvetica,sans-Serif" font-size="10.00">xalanc::XPathExceptionFunction</text>
<text text-anchor="middle" x="437" y="-154.5" font-family="Helvetica,sans-Serif" font-size="10.00">NotAvailable</text>
</a>
</g>
</g>
<!-- Node1&#45;&gt;Node6 -->
<g id="edge5" class="edge">
<title>Node1&#45;&gt;Node6</title>
<path fill="none" stroke="midnightblue" d="M322.79,-148.28C332.06,-149.44 341.5,-150.63 350.77,-151.79"/>
<polygon fill="midnightblue" stroke="midnightblue" points="323.16,-144.8 312.8,-147.02 322.29,-151.74 323.16,-144.8"/>
</g>
<!-- Node7 -->
<g id="node7" class="node">
<title>Node7</title>
<g id="a_node7"><a xlink:href="classxalanc_1_1XPathExceptionFunctionNotSupported.html" target="_top" xlink:title="Exception class thrown when an installFunction() is called with a function name that is not supported...">
<polygon fill="none" stroke="black" points="351,-98.5 351,-128.5 523,-128.5 523,-98.5 351,-98.5"/>
<text text-anchor="start" x="359" y="-116.5" font-family="Helvetica,sans-Serif" font-size="10.00">xalanc::XPathExceptionFunction</text>
<text text-anchor="middle" x="437" y="-105.5" font-family="Helvetica,sans-Serif" font-size="10.00">NotSupported</text>
</a>
</g>
</g>
<!-- Node1&#45;&gt;Node7 -->
<g id="edge6" class="edge">
<title>Node1&#45;&gt;Node7</title>
<path fill="none" stroke="midnightblue" d="M325.09,-126.88C333.67,-125.84 342.36,-124.79 350.92,-123.76"/>
<polygon fill="midnightblue" stroke="midnightblue" points="324.59,-123.41 315.08,-128.08 325.43,-130.36 324.59,-123.41"/>
</g>
<!-- Node8 -->
<g id="node8" class="node">
<title>Node8</title>
<g id="a_node8"><a xlink:href="classxalanc_1_1XPathExpression_1_1XPathExpressionException.html" target="_top" xlink:title="Exception class thrown when an invalid XPath expression is encountered.">
<polygon fill="none" stroke="black" points="361,-49.5 361,-79.5 513,-79.5 513,-49.5 361,-49.5"/>
<text text-anchor="start" x="369" y="-67.5" font-family="Helvetica,sans-Serif" font-size="10.00">xalanc::XPathExpression</text>
<text text-anchor="middle" x="437" y="-56.5" font-family="Helvetica,sans-Serif" font-size="10.00">::XPathExpressionException</text>
</a>
</g>
</g>
<!-- Node1&#45;&gt;Node8 -->
<g id="edge7" class="edge">
<title>Node1&#45;&gt;Node8</title>
<path fill="none" stroke="midnightblue" d="M266.4,-123.6C289.18,-113.14 321.68,-98.89 351,-88.5 359.82,-85.38 369.26,-82.38 378.52,-79.62"/>
<polygon fill="midnightblue" stroke="midnightblue" points="264.88,-120.45 257.27,-127.83 267.82,-126.8 264.88,-120.45"/>
</g>
<!-- Node12 -->
<g id="node12" class="node">
<title>Node12</title>
<g id="a_node12"><a xlink:href="classxalanc_1_1XPathParserException.html" target="_top" xlink:title="Exception class thrown when a problem parsing an XPath is encountered.">
<polygon fill="none" stroke="black" points="356.5,-11 356.5,-30 517.5,-30 517.5,-11 356.5,-11"/>
<text text-anchor="middle" x="437" y="-18" font-family="Helvetica,sans-Serif" font-size="10.00">xalanc::XPathParserException</text>
</a>
</g>
</g>
<!-- Node1&#45;&gt;Node12 -->
<g id="edge11" class="edge">
<title>Node1&#45;&gt;Node12</title>
<path fill="none" stroke="midnightblue" d="M251.86,-120.31C272.03,-98.12 310.25,-59.94 351,-39.5 358.7,-35.64 367.19,-32.55 375.73,-30.09"/>
<polygon fill="midnightblue" stroke="midnightblue" points="249.09,-118.16 245.05,-127.96 254.32,-122.82 249.09,-118.16"/>
</g>
<!-- Node2 -->
<g id="node2" class="node">
<title>Node2</title>
<g id="a_node2"><a xlink:href="classxalanc_1_1XSLException.html" target="_top" xlink:title=" ">
<polygon fill="none" stroke="black" points="0,-128 0,-147 121,-147 121,-128 0,-128"/>
<text text-anchor="middle" x="60.5" y="-135" font-family="Helvetica,sans-Serif" font-size="10.00">xalanc::XSLException</text>
</a>
</g>
</g>
<!-- Node2&#45;&gt;Node1 -->
<g id="edge1" class="edge">
<title>Node2&#45;&gt;Node1</title>
<path fill="none" stroke="midnightblue" d="M131.31,-137.5C139.69,-137.5 148.3,-137.5 156.8,-137.5"/>
<polygon fill="midnightblue" stroke="midnightblue" points="131.21,-134 121.21,-137.5 131.21,-141 131.21,-134"/>
</g>
<!-- Node5 -->
<g id="node5" class="node">
<title>Node5</title>
<g id="a_node5"><a xlink:href="classxalanc_1_1XObject_1_1XObjectInvalidConversionException.html" target="_top" xlink:title=" ">
<polygon fill="none" stroke="black" points="573,-196.5 573,-226.5 725,-226.5 725,-196.5 573,-196.5"/>
<text text-anchor="start" x="581" y="-214.5" font-family="Helvetica,sans-Serif" font-size="10.00">xalanc::XObject::XObject</text>
<text text-anchor="middle" x="649" y="-203.5" font-family="Helvetica,sans-Serif" font-size="10.00">InvalidConversionException</text>
</a>
</g>
</g>
<!-- Node4&#45;&gt;Node5 -->
<g id="edge4" class="edge">
<title>Node4&#45;&gt;Node5</title>
<path fill="none" stroke="midnightblue" d="M515.05,-211.5C533.92,-211.5 554.09,-211.5 572.87,-211.5"/>
<polygon fill="midnightblue" stroke="midnightblue" points="515.02,-208 505.02,-211.5 515.02,-215 515.02,-208"/>
</g>
<!-- Node9 -->
<g id="node9" class="node">
<title>Node9</title>
<g id="a_node9"><a xlink:href="classxalanc_1_1XPathExpression_1_1InvalidArgumentCountException.html" target="_top" xlink:title="Exception class thrown when an invalid number of XPath arguments is encountered.">
<polygon fill="none" stroke="black" points="559,-98.5 559,-128.5 739,-128.5 739,-98.5 559,-98.5"/>
<text text-anchor="start" x="567" y="-116.5" font-family="Helvetica,sans-Serif" font-size="10.00">xalanc::XPathExpression</text>
<text text-anchor="middle" x="649" y="-105.5" font-family="Helvetica,sans-Serif" font-size="10.00">::InvalidArgumentCountException</text>
</a>
</g>
</g>
<!-- Node8&#45;&gt;Node9 -->
<g id="edge8" class="edge">
<title>Node8&#45;&gt;Node9</title>
<path fill="none" stroke="midnightblue" d="M512.28,-81.83C535.59,-87.27 561.12,-93.23 583.69,-98.49"/>
<polygon fill="midnightblue" stroke="midnightblue" points="512.97,-78.4 502.43,-79.53 511.38,-85.22 512.97,-78.4"/>
</g>
<!-- Node10 -->
<g id="node10" class="node">
<title>Node10</title>
<g id="a_node10"><a xlink:href="classxalanc_1_1XPathExpression_1_1InvalidArgumentException.html" target="_top" xlink:title="Exception class thrown when an invalid XPath argument is encountered.">
<polygon fill="none" stroke="black" points="573,-49.5 573,-79.5 725,-79.5 725,-49.5 573,-49.5"/>
<text text-anchor="start" x="581" y="-67.5" font-family="Helvetica,sans-Serif" font-size="10.00">xalanc::XPathExpression</text>
<text text-anchor="middle" x="649" y="-56.5" font-family="Helvetica,sans-Serif" font-size="10.00">::InvalidArgumentException</text>
</a>
</g>
</g>
<!-- Node8&#45;&gt;Node10 -->
<g id="edge9" class="edge">
<title>Node8&#45;&gt;Node10</title>
<path fill="none" stroke="midnightblue" d="M523.35,-64.5C539.78,-64.5 556.88,-64.5 572.95,-64.5"/>
<polygon fill="midnightblue" stroke="midnightblue" points="523.22,-61 513.22,-64.5 523.22,-68 523.22,-61"/>
</g>
<!-- Node11 -->
<g id="node11" class="node">
<title>Node11</title>
<g id="a_node11"><a xlink:href="classxalanc_1_1XPathExpression_1_1InvalidOpCodeException.html" target="_top" xlink:title="Exception class thrown when an invalid XPath operation code is encountered.">
<polygon fill="none" stroke="black" points="578,-0.5 578,-30.5 720,-30.5 720,-0.5 578,-0.5"/>
<text text-anchor="start" x="586" y="-18.5" font-family="Helvetica,sans-Serif" font-size="10.00">xalanc::XPathExpression</text>
<text text-anchor="middle" x="649" y="-7.5" font-family="Helvetica,sans-Serif" font-size="10.00">::InvalidOpCodeException</text>
</a>
</g>
</g>
<!-- Node8&#45;&gt;Node11 -->
<g id="edge10" class="edge">
<title>Node8&#45;&gt;Node11</title>
<path fill="none" stroke="midnightblue" d="M512.28,-47.17C535.59,-41.73 561.12,-35.77 583.69,-30.51"/>
<polygon fill="midnightblue" stroke="midnightblue" points="511.38,-43.78 502.43,-49.47 512.97,-50.6 511.38,-43.78"/>
</g>
</g>
</svg>
        <g id="navigator" transform="translate(0 0)" fill="#404254">
                <rect fill="#f2f5e9" fill-opacity="0.5" stroke="#606060" stroke-width=".5" x="0" y="0" width="60" height="60"/>
                <use id="zoomplus" xlink:href="#zoomPlus" x="17" y="9" onmousedown="handleZoom(evt,'in')"/>
                <use id="zoomminus" xlink:href="#zoomMin" x="42" y="9" onmousedown="handleZoom(evt,'out')"/>
                <use id="reset" xlink:href="#resetDef" x="30" y="36" onmousedown="handleReset()"/>
                <g id="arrowUp" xlink:href="#dirArrow" transform="translate(30 24)" onmousedown="handlePan(0,-1)">
                  <use xlink:href="#rim" fill="#404040">
                        <set attributeName="fill" to="#808080" begin="arrowUp.mouseover" end="arrowUp.mouseout"/>
                  </use>
                  <path fill="none" stroke="white" stroke-width="1.5" d="M0,-3.0v7 M-2.5,-0.5L0,-3.0L2.5,-0.5"/>
                </g>
                <g id="arrowRight" xlink:href="#dirArrow" transform="rotate(90) translate(36 -43)" onmousedown="handlePan(1,0)">
                  <use xlink:href="#rim" fill="#404040">
                        <set attributeName="fill" to="#808080" begin="arrowRight.mouseover" end="arrowRight.mouseout"/>
                  </use>
                  <path fill="none" stroke="white" stroke-width="1.5" d="M0,-3.0v7 M-2.5,-0.5L0,-3.0L2.5,-0.5"/>
                </g>
                <g id="arrowDown" xlink:href="#dirArrow" transform="rotate(180) translate(-30 -48)" onmousedown="handlePan(0,1)">
                  <use xlink:href="#rim" fill="#404040">
                        <set attributeName="fill" to="#808080" begin="arrowDown.mouseover" end="arrowDown.mouseout"/>
                  </use>
                  <path fill="none" stroke="white" stroke-width="1.5" d="M0,-3.0v7 M-2.5,-0.5L0,-3.0L2.5,-0.5"/>
                </g>
                <g id="arrowLeft" xlink:href="#dirArrow" transform="rotate(270) translate(-36 17)" onmousedown="handlePan(-1,0)">
                  <use xlink:href="#rim" fill="#404040">
                        <set attributeName="fill" to="#808080" begin="arrowLeft.mouseover" end="arrowLeft.mouseout"/>
                  </use>
                  <path fill="none" stroke="white" stroke-width="1.5" d="M0,-3.0v7 M-2.5,-0.5L0,-3.0L2.5,-0.5"/>
                </g>
        </g>
        <svg viewBox="0 0 15 15" width="100%" height="30px" preserveAspectRatio="xMaxYMin meet">
         <g id="arrow_out" transform="scale(0.3 0.3)">
          <a xlink:href="classxalanc_1_1XalanXPathException__inherit__graph_org.svg" target="_base">
           <rect id="button" ry="5" rx="5" y="6" x="6" height="38" width="38"
                fill="#f2f5e9" fill-opacity="0.5" stroke="#606060" stroke-width="1.0"/>
           <path id="arrow"
             d="M 11.500037,31.436501 C 11.940474,20.09759 22.043105,11.32322 32.158766,21.979434 L 37.068811,17.246167 C 37.068811,17.246167 37.088388,32 37.088388,32 L 22.160133,31.978069 C 22.160133,31.978069 26.997745,27.140456 26.997745,27.140456 C 18.528582,18.264221 13.291696,25.230495 11.500037,31.436501 z"
             style="fill:#404040;"/>
          </a>
         </g>
        </svg>
</svg>
