<?xml version="1.0" encoding="UTF-8" standalone="no"?>
<!DOCTYPE svg PUBLIC "-//W3C//DTD SVG 1.1//EN"
 "http://www.w3.org/Graphics/SVG/1.1/DTD/svg11.dtd">
<!-- Generated by graphviz version 2.43.0 (0)
 -->
<!-- Title: xalanc::FunctionDifference Pages: 1 -->
<svg width="161pt" height="151pt"
 viewBox="0.00 0.00 161.00 151.00" xmlns="http://www.w3.org/2000/svg" xmlns:xlink="http://www.w3.org/1999/xlink">
<g id="graph0" class="graph" transform="scale(1 1) rotate(0) translate(4 147)">
<title>xalanc::FunctionDifference</title>
<!-- Node1 -->
<g id="node1" class="node">
<title>Node1</title>
<g id="a_node1"><a xlink:title="XPath implementation of &quot;difference&quot; function.">
<polygon fill="#bfbfbf" stroke="black" points="3.5,-67.5 3.5,-86.5 149.5,-86.5 149.5,-67.5 3.5,-67.5"/>
<text text-anchor="middle" x="76.5" y="-74.5" font-family="Helvetica,sans-Serif" font-size="10.00">xalanc::FunctionDifference</text>
</a>
</g>
</g>
<!-- Node3 -->
<g id="node3" class="node">
<title>Node3</title>
<g id="a_node3"><a xlink:href="classxalanc_1_1XalanEXSLTFunctionDifference.html" target="_top" xlink:title=" ">
<polygon fill="none" stroke="black" points="0,-0.5 0,-30.5 153,-30.5 153,-0.5 0,-0.5"/>
<text text-anchor="start" x="8" y="-18.5" font-family="Helvetica,sans-Serif" font-size="10.00">xalanc::XalanEXSLTFunction</text>
<text text-anchor="middle" x="76.5" y="-7.5" font-family="Helvetica,sans-Serif" font-size="10.00">Difference</text>
</a>
</g>
</g>
<!-- Node1&#45;&gt;Node3 -->
<g id="edge2" class="edge">
<title>Node1&#45;&gt;Node3</title>
<path fill="none" stroke="midnightblue" d="M76.5,-57.23C76.5,-48.59 76.5,-38.5 76.5,-30.52"/>
<polygon fill="midnightblue" stroke="midnightblue" points="73,-57.48 76.5,-67.48 80,-57.48 73,-57.48"/>
</g>
<!-- Node2 -->
<g id="node2" class="node">
<title>Node2</title>
<g id="a_node2"><a xlink:href="classxalanc_1_1Function.html" target="_top" xlink:title=" ">
<polygon fill="none" stroke="black" points="28.5,-123.5 28.5,-142.5 124.5,-142.5 124.5,-123.5 28.5,-123.5"/>
<text text-anchor="middle" x="76.5" y="-130.5" font-family="Helvetica,sans-Serif" font-size="10.00">xalanc::Function</text>
</a>
</g>
</g>
<!-- Node2&#45;&gt;Node1 -->
<g id="edge1" class="edge">
<title>Node2&#45;&gt;Node1</title>
<path fill="none" stroke="midnightblue" d="M76.5,-112.8C76.5,-103.91 76.5,-93.78 76.5,-86.75"/>
<polygon fill="midnightblue" stroke="midnightblue" points="73,-113.08 76.5,-123.08 80,-113.08 73,-113.08"/>
</g>
</g>
</svg>
