<?xml version="1.0" encoding="UTF-8" standalone="no"?>
<!DOCTYPE svg PUBLIC "-//W3C//DTD SVG 1.1//EN"
 "http://www.w3.org/Graphics/SVG/1.1/DTD/svg11.dtd">
<!-- Generated by graphviz version 2.43.0 (0)
 -->
<!-- Title: xalanc::ArenaBlockBase&lt; ObjectType, SizeType &gt; Pages: 1 -->
<!--zoomable 577 -->
<svg id="main" version="1.1" xmlns="http://www.w3.org/2000/svg" xmlns:xlink="http://www.w3.org/1999/xlink" xml:space="preserve" onload="init(evt)">
<style type="text/css"><![CDATA[
.edge:hover path { stroke: red; }
.edge:hover polygon { stroke: red; fill: red; }
]]></style>
<script type="text/javascript"><![CDATA[
var edges = document.getElementsByTagName('g');
if (edges && edges.length) {
  for (var i=0;i<edges.length;i++) {
    if (edges[i].id.substr(0,4)=='edge') {
      edges[i].setAttribute('class','edge');
    }
  }
}
]]></script>
        <defs>
                <circle id="rim" cx="0" cy="0" r="7"/>
                <circle id="rim2" cx="0" cy="0" r="3.5"/>
                <g id="zoomPlus">
                        <use xlink:href="#rim" fill="#404040">
                                <set attributeName="fill" to="#808080" begin="zoomplus.mouseover" end="zoomplus.mouseout"/>
                        </use>
                        <path d="M-4,0h8M0,-4v8" fill="none" stroke="white" stroke-width="1.5" pointer-events="none"/>
                </g>
                <g id="zoomMin">
                        <use xlink:href="#rim" fill="#404040">
                                <set attributeName="fill" to="#808080" begin="zoomminus.mouseover" end="zoomminus.mouseout"/>
                        </use>
                        <path d="M-4,0h8" fill="none" stroke="white" stroke-width="1.5" pointer-events="none"/>
                </g>
                <g id="dirArrow">
                        <path fill="none" stroke="white" stroke-width="1.5" d="M0,-3.0v7 M-2.5,-0.5L0,-3.0L2.5,-0.5"/>
                </g>
               <g id="resetDef">
                       <use xlink:href="#rim2" fill="#404040">
                               <set attributeName="fill" to="#808080" begin="reset.mouseover" end="reset.mouseout"/>
                       </use>
               </g>
        </defs>

<script type="text/javascript">
var viewWidth = 1069;
var viewHeight = 577;
var sectionId = 'dynsection-0';
</script>
<script xlink:href="svgpan.js"/>
<svg id="graph" class="graph">
<g id="viewport">
<title>xalanc::ArenaBlockBase&lt; ObjectType, SizeType &gt;</title>
<!-- Node1 -->
<g id="node1" class="node">
<title>Node1</title>
<g id="a_node1"><a xlink:title=" ">
<polygon fill="#bfbfbf" stroke="black" points="0,-228.5 0,-258.5 142,-258.5 142,-228.5 0,-228.5"/>
<text text-anchor="start" x="8" y="-246.5" font-family="Helvetica,sans-Serif" font-size="10.00">xalanc::ArenaBlockBase</text>
<text text-anchor="middle" x="71" y="-235.5" font-family="Helvetica,sans-Serif" font-size="10.00">&lt; ObjectType, SizeType &gt;</text>
</a>
</g>
</g>
<!-- Node2 -->
<g id="node2" class="node">
<title>Node2</title>
<g id="a_node2"><a xlink:href="classxalanc_1_1ArenaBlockBase.html" target="_top" xlink:title=" ">
<polygon fill="none" stroke="black" points="461,-527 461,-568 605,-568 605,-527 461,-527"/>
<text text-anchor="start" x="469" y="-556" font-family="Helvetica,sans-Serif" font-size="10.00">xalanc::ArenaBlockBase</text>
<text text-anchor="start" x="469" y="-545" font-family="Helvetica,sans-Serif" font-size="10.00">&lt; nodeset_type, unsigned</text>
<text text-anchor="middle" x="533" y="-534" font-family="Helvetica,sans-Serif" font-size="10.00"> short &gt;</text>
</a>
</g>
</g>
<!-- Node1&#45;&gt;Node2 -->
<g id="edge1" class="edge">
<title>Node1&#45;&gt;Node2</title>
<path fill="none" stroke="orange" stroke-dasharray="5,2" d="M73.6,-268.74C78.13,-317.41 95.3,-424.23 160,-478.5 244.67,-549.52 378.73,-556.99 460.69,-553.77"/>
<polygon fill="orange" stroke="orange" points="77.09,-268.42 72.78,-258.74 70.11,-268.99 77.09,-268.42"/>
<text text-anchor="start" x="160" y="-552.5" font-family="Helvetica,sans-Serif" font-size="10.00"> &lt; nodeset_type, unsigned</text>
<text text-anchor="middle" x="225.5" y="-541.5" font-family="Helvetica,sans-Serif" font-size="10.00"> short &gt;</text>
</g>
<!-- Node4 -->
<g id="node4" class="node">
<title>Node4</title>
<g id="a_node4"><a xlink:href="classxalanc_1_1ArenaBlockBase.html" target="_top" xlink:title=" ">
<polygon fill="none" stroke="black" points="309,-353 309,-394 443,-394 443,-353 309,-353"/>
<text text-anchor="start" x="317" y="-382" font-family="Helvetica,sans-Serif" font-size="10.00">xalanc::ArenaBlockBase</text>
<text text-anchor="start" x="317" y="-371" font-family="Helvetica,sans-Serif" font-size="10.00">&lt; ObjectType, unsigned</text>
<text text-anchor="middle" x="376" y="-360" font-family="Helvetica,sans-Serif" font-size="10.00"> short &gt;</text>
</a>
</g>
</g>
<!-- Node1&#45;&gt;Node4 -->
<g id="edge3" class="edge">
<title>Node1&#45;&gt;Node4</title>
<path fill="none" stroke="orange" stroke-dasharray="5,2" d="M92.4,-266.12C109.01,-283.2 133.9,-305.94 160,-319.5 206.62,-343.72 264.65,-357.47 308.66,-365.02"/>
<polygon fill="orange" stroke="orange" points="94.8,-263.57 85.38,-258.72 89.73,-268.39 94.8,-263.57"/>
<text text-anchor="start" x="166" y="-375.5" font-family="Helvetica,sans-Serif" font-size="10.00"> &lt; ObjectType, unsigned</text>
<text text-anchor="middle" x="225.5" y="-364.5" font-family="Helvetica,sans-Serif" font-size="10.00"> short &gt;</text>
</g>
<!-- Node11 -->
<g id="node11" class="node">
<title>Node11</title>
<g id="a_node11"><a xlink:href="classxalanc_1_1ArenaBlockBase.html" target="_top" xlink:title=" ">
<polygon fill="none" stroke="black" points="633.5,-136.5 633.5,-166.5 767.5,-166.5 767.5,-136.5 633.5,-136.5"/>
<text text-anchor="start" x="641.5" y="-154.5" font-family="Helvetica,sans-Serif" font-size="10.00">xalanc::ArenaBlockBase</text>
<text text-anchor="middle" x="700.5" y="-143.5" font-family="Helvetica,sans-Serif" font-size="10.00">&lt; data_type, size_t &gt;</text>
</a>
</g>
</g>
<!-- Node1&#45;&gt;Node11 -->
<g id="edge12" class="edge">
<title>Node1&#45;&gt;Node11</title>
<path fill="none" stroke="orange" stroke-dasharray="5,2" d="M97.63,-222.07C114.3,-209.41 137.13,-194.36 160,-186.5 322.89,-130.54 529.46,-136.82 633.39,-144.87"/>
<polygon fill="orange" stroke="orange" points="95.22,-219.51 89.5,-228.43 99.53,-225.02 95.22,-219.51"/>
<text text-anchor="middle" x="376" y="-154.5" font-family="Helvetica,sans-Serif" font-size="10.00"> &lt; data_type, size_t &gt;</text>
</g>
<!-- Node13 -->
<g id="node13" class="node">
<title>Node13</title>
<g id="a_node13"><a xlink:href="classxalanc_1_1ArenaBlockBase.html" target="_top" xlink:title=" ">
<polygon fill="none" stroke="black" points="466,-176 466,-217 600,-217 600,-176 466,-176"/>
<text text-anchor="start" x="474" y="-205" font-family="Helvetica,sans-Serif" font-size="10.00">xalanc::ArenaBlockBase</text>
<text text-anchor="start" x="474" y="-194" font-family="Helvetica,sans-Serif" font-size="10.00">&lt; data_type, unsigned</text>
<text text-anchor="middle" x="533" y="-183" font-family="Helvetica,sans-Serif" font-size="10.00"> short &gt;</text>
</a>
</g>
</g>
<!-- Node1&#45;&gt;Node13 -->
<g id="edge14" class="edge">
<title>Node1&#45;&gt;Node13</title>
<path fill="none" stroke="orange" stroke-dasharray="5,2" d="M110.75,-224.14C125.75,-217.59 143.31,-211.04 160,-207.5 265.24,-185.19 390.94,-187.24 465.98,-191.41"/>
<polygon fill="orange" stroke="orange" points="108.96,-221.11 101.29,-228.42 111.84,-227.49 108.96,-221.11"/>
<text text-anchor="start" x="168.5" y="-221.5" font-family="Helvetica,sans-Serif" font-size="10.00"> &lt; data_type, unsigned</text>
<text text-anchor="middle" x="225.5" y="-210.5" font-family="Helvetica,sans-Serif" font-size="10.00"> short &gt;</text>
</g>
<!-- Node14 -->
<g id="node14" class="node">
<title>Node14</title>
<g id="a_node14"><a xlink:href="classxalanc_1_1ArenaBlockBase.html" target="_top" xlink:title=" ">
<polygon fill="none" stroke="black" points="309,-87.5 309,-117.5 443,-117.5 443,-87.5 309,-87.5"/>
<text text-anchor="start" x="317" y="-105.5" font-family="Helvetica,sans-Serif" font-size="10.00">xalanc::ArenaBlockBase</text>
<text text-anchor="middle" x="376" y="-94.5" font-family="Helvetica,sans-Serif" font-size="10.00">&lt; ObjectType, size_t &gt;</text>
</a>
</g>
</g>
<!-- Node1&#45;&gt;Node14 -->
<g id="edge16" class="edge">
<title>Node1&#45;&gt;Node14</title>
<path fill="none" stroke="orange" stroke-dasharray="5,2" d="M83.63,-219.52C97.77,-193.19 124.25,-151.94 160,-131.5 205.12,-105.7 264.07,-99.29 308.83,-98.86"/>
<polygon fill="orange" stroke="orange" points="80.48,-217.99 78.98,-228.48 86.69,-221.21 80.48,-217.99"/>
<text text-anchor="middle" x="225.5" y="-134.5" font-family="Helvetica,sans-Serif" font-size="10.00"> &lt; ObjectType, size_t &gt;</text>
</g>
<!-- Node18 -->
<g id="node18" class="node">
<title>Node18</title>
<g id="a_node18"><a xlink:href="classxalanc_1_1ArenaBlockBase.html" target="_top" xlink:title=" ">
<polygon fill="none" stroke="black" points="461.5,-477 461.5,-518 604.5,-518 604.5,-477 461.5,-477"/>
<text text-anchor="start" x="469.5" y="-506" font-family="Helvetica,sans-Serif" font-size="10.00">xalanc::ArenaBlockBase</text>
<text text-anchor="start" x="469.5" y="-495" font-family="Helvetica,sans-Serif" font-size="10.00">&lt; number_type, unsigned</text>
<text text-anchor="middle" x="533" y="-484" font-family="Helvetica,sans-Serif" font-size="10.00"> short &gt;</text>
</a>
</g>
</g>
<!-- Node1&#45;&gt;Node18 -->
<g id="edge22" class="edge">
<title>Node1&#45;&gt;Node18</title>
<path fill="none" stroke="orange" stroke-dasharray="5,2" d="M80.63,-268.22C93.13,-300.41 119.32,-356.26 160,-387.5 249.47,-456.21 381.12,-482.1 461.44,-491.78"/>
<polygon fill="orange" stroke="orange" points="83.83,-266.8 77.05,-258.66 77.28,-269.25 83.83,-266.8"/>
<text text-anchor="start" x="160.5" y="-466.5" font-family="Helvetica,sans-Serif" font-size="10.00"> &lt; number_type, unsigned</text>
<text text-anchor="middle" x="225.5" y="-455.5" font-family="Helvetica,sans-Serif" font-size="10.00"> short &gt;</text>
</g>
<!-- Node19 -->
<g id="node19" class="node">
<title>Node19</title>
<g id="a_node19"><a xlink:href="classxalanc_1_1ArenaBlockBase.html" target="_top" xlink:title=" ">
<polygon fill="none" stroke="black" points="633,-224 633,-265 768,-265 768,-224 633,-224"/>
<text text-anchor="start" x="641" y="-253" font-family="Helvetica,sans-Serif" font-size="10.00">xalanc::ArenaBlockBase</text>
<text text-anchor="start" x="641" y="-242" font-family="Helvetica,sans-Serif" font-size="10.00">&lt; object_type, unsigned</text>
<text text-anchor="middle" x="700.5" y="-231" font-family="Helvetica,sans-Serif" font-size="10.00"> short &gt;</text>
</a>
</g>
</g>
<!-- Node1&#45;&gt;Node19 -->
<g id="edge24" class="edge">
<title>Node1&#45;&gt;Node19</title>
<path fill="none" stroke="orange" stroke-dasharray="5,2" d="M152.43,-243.63C277.53,-243.83 516.4,-244.21 632.64,-244.39"/>
<polygon fill="orange" stroke="orange" points="152.16,-240.13 142.16,-243.61 152.15,-247.13 152.16,-240.13"/>
<text text-anchor="start" x="315" y="-257.5" font-family="Helvetica,sans-Serif" font-size="10.00"> &lt; object_type, unsigned</text>
<text text-anchor="middle" x="376" y="-246.5" font-family="Helvetica,sans-Serif" font-size="10.00"> short &gt;</text>
</g>
<!-- Node20 -->
<g id="node20" class="node">
<title>Node20</title>
<g id="a_node20"><a xlink:href="classxalanc_1_1ArenaBlockBase.html" target="_top" xlink:title=" ">
<polygon fill="none" stroke="black" points="309,-2.5 309,-32.5 443,-32.5 443,-2.5 309,-2.5"/>
<text text-anchor="start" x="317" y="-20.5" font-family="Helvetica,sans-Serif" font-size="10.00">xalanc::ArenaBlockBase</text>
<text text-anchor="middle" x="376" y="-9.5" font-family="Helvetica,sans-Serif" font-size="10.00">&lt; object_type, size_t &gt;</text>
</a>
</g>
</g>
<!-- Node1&#45;&gt;Node20 -->
<g id="edge26" class="edge">
<title>Node1&#45;&gt;Node20</title>
<path fill="none" stroke="orange" stroke-dasharray="5,2" d="M79.24,-218.22C90.63,-182.93 116.09,-119.22 160,-83.5 202.41,-49 262.73,-32.5 308.69,-24.63"/>
<polygon fill="orange" stroke="orange" points="75.76,-217.61 76.15,-228.2 82.45,-219.68 75.76,-217.61"/>
<text text-anchor="middle" x="225.5" y="-86.5" font-family="Helvetica,sans-Serif" font-size="10.00"> &lt; object_type, size_t &gt;</text>
</g>
<!-- Node21 -->
<g id="node21" class="node">
<title>Node21</title>
<g id="a_node21"><a xlink:href="classxalanc_1_1ArenaBlockBase.html" target="_top" xlink:title=" ">
<polygon fill="none" stroke="black" points="466,-273 466,-314 600,-314 600,-273 466,-273"/>
<text text-anchor="start" x="474" y="-302" font-family="Helvetica,sans-Serif" font-size="10.00">xalanc::ArenaBlockBase</text>
<text text-anchor="start" x="474" y="-291" font-family="Helvetica,sans-Serif" font-size="10.00">&lt; string_type, unsigned</text>
<text text-anchor="middle" x="533" y="-280" font-family="Helvetica,sans-Serif" font-size="10.00"> short &gt;</text>
</a>
</g>
</g>
<!-- Node1&#45;&gt;Node21 -->
<g id="edge28" class="edge">
<title>Node1&#45;&gt;Node21</title>
<path fill="none" stroke="orange" stroke-dasharray="5,2" d="M152.24,-256.48C154.86,-256.83 157.45,-257.17 160,-257.5 266.68,-271.13 391.16,-282.2 465.67,-288.32"/>
<polygon fill="orange" stroke="orange" points="152.46,-252.97 142.07,-255.04 151.49,-259.9 152.46,-252.97"/>
<text text-anchor="start" x="165.5" y="-285.5" font-family="Helvetica,sans-Serif" font-size="10.00"> &lt; string_type, unsigned</text>
<text text-anchor="middle" x="225.5" y="-274.5" font-family="Helvetica,sans-Serif" font-size="10.00"> short &gt;</text>
</g>
<!-- Node3 -->
<g id="node3" class="node">
<title>Node3</title>
<g id="a_node3"><a xlink:href="classxalanc_1_1ReusableArenaBlock.html" target="_top" xlink:title=" ">
<polygon fill="none" stroke="black" points="906,-528.5 906,-558.5 1061,-558.5 1061,-528.5 906,-528.5"/>
<text text-anchor="start" x="914" y="-546.5" font-family="Helvetica,sans-Serif" font-size="10.00">xalanc::ReusableArenaBlock</text>
<text text-anchor="middle" x="983.5" y="-535.5" font-family="Helvetica,sans-Serif" font-size="10.00">&lt; nodeset_type &gt;</text>
</a>
</g>
</g>
<!-- Node2&#45;&gt;Node3 -->
<g id="edge2" class="edge">
<title>Node2&#45;&gt;Node3</title>
<path fill="none" stroke="midnightblue" d="M615.16,-546.78C697.75,-546.04 824.8,-544.91 905.76,-544.18"/>
<polygon fill="midnightblue" stroke="midnightblue" points="615.03,-543.28 605.07,-546.87 615.1,-550.28 615.03,-543.28"/>
</g>
<!-- Node5 -->
<g id="node5" class="node">
<title>Node5</title>
<g id="a_node5"><a xlink:href="classxalanc_1_1ReusableArenaBlock.html" target="_top" xlink:title=" ">
<polygon fill="none" stroke="black" points="906,-386.5 906,-416.5 1061,-416.5 1061,-386.5 906,-386.5"/>
<text text-anchor="start" x="914" y="-404.5" font-family="Helvetica,sans-Serif" font-size="10.00">xalanc::ReusableArenaBlock</text>
<text text-anchor="middle" x="983.5" y="-393.5" font-family="Helvetica,sans-Serif" font-size="10.00">&lt; ObjectType &gt;</text>
</a>
</g>
</g>
<!-- Node4&#45;&gt;Node5 -->
<g id="edge4" class="edge">
<title>Node4&#45;&gt;Node5</title>
<path fill="none" stroke="midnightblue" d="M446.78,-396.96C545.61,-426.95 731.71,-471.48 888,-440.5 911.15,-435.91 935.76,-425.56 954.05,-416.68"/>
<polygon fill="midnightblue" stroke="midnightblue" points="447.79,-393.61 437.2,-394.02 445.73,-400.3 447.79,-393.61"/>
</g>
<!-- Node6 -->
<g id="node6" class="node">
<title>Node6</title>
<g id="a_node6"><a xlink:href="classxalanc_1_1ReusableArenaBlock.html" target="_top" xlink:title=" ">
<polygon fill="none" stroke="black" points="623,-358.5 623,-388.5 778,-388.5 778,-358.5 623,-358.5"/>
<text text-anchor="start" x="631" y="-376.5" font-family="Helvetica,sans-Serif" font-size="10.00">xalanc::ReusableArenaBlock</text>
<text text-anchor="middle" x="700.5" y="-365.5" font-family="Helvetica,sans-Serif" font-size="10.00">&lt; ObjectType, SizeType &gt;</text>
</a>
</g>
</g>
<!-- Node4&#45;&gt;Node6 -->
<g id="edge5" class="edge">
<title>Node4&#45;&gt;Node6</title>
<path fill="none" stroke="midnightblue" d="M453.05,-373.5C504.23,-373.5 571.47,-373.5 622.78,-373.5"/>
<polygon fill="midnightblue" stroke="midnightblue" points="453.04,-370 443.04,-373.5 453.04,-377 453.04,-370"/>
</g>
<!-- Node6&#45;&gt;Node3 -->
<g id="edge10" class="edge">
<title>Node6&#45;&gt;Node3</title>
<path fill="none" stroke="orange" stroke-dasharray="5,2" d="M723.37,-395.96C741.63,-413.89 768.97,-438.84 796,-456.5 843.11,-487.27 902.85,-513.11 941.84,-528.44"/>
<polygon fill="orange" stroke="orange" points="725.68,-393.32 716.12,-388.75 720.74,-398.29 725.68,-393.32"/>
<text text-anchor="middle" x="842" y="-506.5" font-family="Helvetica,sans-Serif" font-size="10.00"> &lt; nodeset_type &gt;</text>
</g>
<!-- Node6&#45;&gt;Node5 -->
<g id="edge8" class="edge">
<title>Node6&#45;&gt;Node5</title>
<path fill="none" stroke="orange" stroke-dasharray="5,2" d="M788.69,-382.19C826.16,-385.92 869.58,-390.25 905.81,-393.86"/>
<polygon fill="orange" stroke="orange" points="788.58,-378.66 778.28,-381.15 787.89,-385.63 788.58,-378.66"/>
<text text-anchor="middle" x="842" y="-394.5" font-family="Helvetica,sans-Serif" font-size="10.00"> &lt; ObjectType &gt;</text>
</g>
<!-- Node7 -->
<g id="node7" class="node">
<title>Node7</title>
<g id="a_node7"><a xlink:href="classxalanc_1_1ReusableArenaBlock.html" target="_top" xlink:title=" ">
<polygon fill="none" stroke="black" points="906,-464.5 906,-494.5 1061,-494.5 1061,-464.5 906,-464.5"/>
<text text-anchor="start" x="914" y="-482.5" font-family="Helvetica,sans-Serif" font-size="10.00">xalanc::ReusableArenaBlock</text>
<text text-anchor="middle" x="983.5" y="-471.5" font-family="Helvetica,sans-Serif" font-size="10.00">&lt; number_type &gt;</text>
</a>
</g>
</g>
<!-- Node6&#45;&gt;Node7 -->
<g id="edge6" class="edge">
<title>Node6&#45;&gt;Node7</title>
<path fill="none" stroke="orange" stroke-dasharray="5,2" d="M750.93,-392.15C805.5,-412.73 892.28,-445.47 942.68,-464.48"/>
<polygon fill="orange" stroke="orange" points="752.05,-388.83 741.46,-388.57 749.58,-395.38 752.05,-388.83"/>
<text text-anchor="middle" x="842" y="-444.5" font-family="Helvetica,sans-Serif" font-size="10.00"> &lt; number_type &gt;</text>
</g>
<!-- Node8 -->
<g id="node8" class="node">
<title>Node8</title>
<g id="a_node8"><a xlink:href="classxalanc_1_1ReusableArenaBlock.html" target="_top" xlink:title=" ">
<polygon fill="none" stroke="black" points="906,-334.5 906,-364.5 1061,-364.5 1061,-334.5 906,-334.5"/>
<text text-anchor="start" x="914" y="-352.5" font-family="Helvetica,sans-Serif" font-size="10.00">xalanc::ReusableArenaBlock</text>
<text text-anchor="middle" x="983.5" y="-341.5" font-family="Helvetica,sans-Serif" font-size="10.00">&lt; string_type &gt;</text>
</a>
</g>
</g>
<!-- Node6&#45;&gt;Node8 -->
<g id="edge7" class="edge">
<title>Node6&#45;&gt;Node8</title>
<path fill="none" stroke="orange" stroke-dasharray="5,2" d="M788.23,-362.27C790.85,-362 793.44,-361.74 796,-361.5 832.01,-358.06 872.03,-355.34 905.74,-353.36"/>
<polygon fill="orange" stroke="orange" points="787.61,-358.82 778.04,-363.37 788.36,-365.78 787.61,-358.82"/>
<text text-anchor="middle" x="842" y="-364.5" font-family="Helvetica,sans-Serif" font-size="10.00"> &lt; string_type &gt;</text>
</g>
<!-- Node9 -->
<g id="node9" class="node">
<title>Node9</title>
<g id="a_node9"><a xlink:href="classxalanc_1_1ReusableArenaBlock.html" target="_top" xlink:title=" ">
<polygon fill="none" stroke="black" points="906,-278.5 906,-308.5 1061,-308.5 1061,-278.5 906,-278.5"/>
<text text-anchor="start" x="914" y="-296.5" font-family="Helvetica,sans-Serif" font-size="10.00">xalanc::ReusableArenaBlock</text>
<text text-anchor="middle" x="983.5" y="-285.5" font-family="Helvetica,sans-Serif" font-size="10.00">&lt; object_type &gt;</text>
</a>
</g>
</g>
<!-- Node6&#45;&gt;Node9 -->
<g id="edge9" class="edge">
<title>Node6&#45;&gt;Node9</title>
<path fill="none" stroke="orange" stroke-dasharray="5,2" d="M748.86,-354.71C763.82,-349.12 780.49,-343.23 796,-338.5 833.76,-327 876.52,-316.5 911.56,-308.54"/>
<polygon fill="orange" stroke="orange" points="747.43,-351.52 739.31,-358.33 749.91,-358.06 747.43,-351.52"/>
<text text-anchor="middle" x="842" y="-341.5" font-family="Helvetica,sans-Serif" font-size="10.00"> &lt; object_type &gt;</text>
</g>
<!-- Node10 -->
<g id="node10" class="node">
<title>Node10</title>
<g id="a_node10"><a xlink:href="classxalanc_1_1ReusableArenaBlock.html" target="_top" xlink:title=" ">
<polygon fill="none" stroke="black" points="906,-215.5 906,-245.5 1061,-245.5 1061,-215.5 906,-215.5"/>
<text text-anchor="start" x="914" y="-233.5" font-family="Helvetica,sans-Serif" font-size="10.00">xalanc::ReusableArenaBlock</text>
<text text-anchor="middle" x="983.5" y="-222.5" font-family="Helvetica,sans-Serif" font-size="10.00">&lt; data_type &gt;</text>
</a>
</g>
</g>
<!-- Node6&#45;&gt;Node10 -->
<g id="edge11" class="edge">
<title>Node6&#45;&gt;Node10</title>
<path fill="none" stroke="orange" stroke-dasharray="5,2" d="M725.17,-351.14C743.41,-334.84 769.85,-313.14 796,-298.5 837.65,-275.19 888.82,-257.2 927.02,-245.59"/>
<polygon fill="orange" stroke="orange" points="722.45,-348.89 717.4,-358.21 727.16,-354.07 722.45,-348.89"/>
<text text-anchor="middle" x="842" y="-301.5" font-family="Helvetica,sans-Serif" font-size="10.00"> &lt; data_type &gt;</text>
</g>
<!-- Node12 -->
<g id="node12" class="node">
<title>Node12</title>
<g id="a_node12"><a xlink:href="classxalanc_1_1ArenaBlock.html" target="_top" xlink:title=" ">
<polygon fill="none" stroke="black" points="928.5,-146.5 928.5,-176.5 1038.5,-176.5 1038.5,-146.5 928.5,-146.5"/>
<text text-anchor="start" x="936.5" y="-164.5" font-family="Helvetica,sans-Serif" font-size="10.00">xalanc::ArenaBlock</text>
<text text-anchor="middle" x="983.5" y="-153.5" font-family="Helvetica,sans-Serif" font-size="10.00">&lt; data_type &gt;</text>
</a>
</g>
</g>
<!-- Node11&#45;&gt;Node12 -->
<g id="edge13" class="edge">
<title>Node11&#45;&gt;Node12</title>
<path fill="none" stroke="midnightblue" d="M778.01,-154.22C825.66,-155.92 885.79,-158.06 928.48,-159.58"/>
<polygon fill="midnightblue" stroke="midnightblue" points="777.86,-150.72 767.74,-153.86 777.61,-157.71 777.86,-150.72"/>
</g>
<!-- Node13&#45;&gt;Node10 -->
<g id="edge15" class="edge">
<title>Node13&#45;&gt;Node10</title>
<path fill="none" stroke="midnightblue" d="M610.06,-202.02C658.2,-205.54 721.75,-210.22 778,-214.5 820.26,-217.71 867.42,-221.39 905.79,-224.42"/>
<polygon fill="midnightblue" stroke="midnightblue" points="610.25,-198.53 600.03,-201.29 609.74,-205.51 610.25,-198.53"/>
</g>
<!-- Node15 -->
<g id="node15" class="node">
<title>Node15</title>
<g id="a_node15"><a xlink:href="classxalanc_1_1ArenaBlock.html" target="_top" xlink:title=" ">
<polygon fill="none" stroke="black" points="928.5,-77.5 928.5,-107.5 1038.5,-107.5 1038.5,-77.5 928.5,-77.5"/>
<text text-anchor="start" x="936.5" y="-95.5" font-family="Helvetica,sans-Serif" font-size="10.00">xalanc::ArenaBlock</text>
<text text-anchor="middle" x="983.5" y="-84.5" font-family="Helvetica,sans-Serif" font-size="10.00">&lt; ObjectType &gt;</text>
</a>
</g>
</g>
<!-- Node14&#45;&gt;Node15 -->
<g id="edge17" class="edge">
<title>Node14&#45;&gt;Node15</title>
<path fill="none" stroke="midnightblue" d="M439.66,-84.9C536.61,-60.26 728.42,-21.87 888,-53.5 911.15,-58.09 935.76,-68.44 954.05,-77.32"/>
<polygon fill="midnightblue" stroke="midnightblue" points="438.54,-81.57 429.73,-87.46 440.29,-88.35 438.54,-81.57"/>
</g>
<!-- Node16 -->
<g id="node16" class="node">
<title>Node16</title>
<g id="a_node16"><a xlink:href="classxalanc_1_1ArenaBlock.html" target="_top" xlink:title=" ">
<polygon fill="none" stroke="black" points="629.5,-87.5 629.5,-117.5 771.5,-117.5 771.5,-87.5 629.5,-87.5"/>
<text text-anchor="start" x="637.5" y="-105.5" font-family="Helvetica,sans-Serif" font-size="10.00">xalanc::ArenaBlock</text>
<text text-anchor="middle" x="700.5" y="-94.5" font-family="Helvetica,sans-Serif" font-size="10.00">&lt; ObjectType, SizeType &gt;</text>
</a>
</g>
</g>
<!-- Node14&#45;&gt;Node16 -->
<g id="edge18" class="edge">
<title>Node14&#45;&gt;Node16</title>
<path fill="none" stroke="midnightblue" d="M453.14,-102.5C506.52,-102.5 577.35,-102.5 629.36,-102.5"/>
<polygon fill="midnightblue" stroke="midnightblue" points="453.04,-99 443.04,-102.5 453.04,-106 453.04,-99"/>
</g>
<!-- Node16&#45;&gt;Node12 -->
<g id="edge21" class="edge">
<title>Node16&#45;&gt;Node12</title>
<path fill="none" stroke="orange" stroke-dasharray="5,2" d="M781.63,-117.8C814.62,-124.25 853.2,-132 888,-139.5 901.01,-142.3 914.99,-145.47 928.1,-148.51"/>
<polygon fill="orange" stroke="orange" points="782.06,-114.32 771.58,-115.84 780.72,-121.19 782.06,-114.32"/>
<text text-anchor="middle" x="842" y="-142.5" font-family="Helvetica,sans-Serif" font-size="10.00"> &lt; data_type &gt;</text>
</g>
<!-- Node16&#45;&gt;Node15 -->
<g id="edge19" class="edge">
<title>Node16&#45;&gt;Node15</title>
<path fill="none" stroke="orange" stroke-dasharray="5,2" d="M781.82,-99.64C828.72,-97.97 886.64,-95.91 928.19,-94.43"/>
<polygon fill="orange" stroke="orange" points="781.55,-96.15 771.68,-100 781.8,-103.14 781.55,-96.15"/>
<text text-anchor="middle" x="842" y="-101.5" font-family="Helvetica,sans-Serif" font-size="10.00"> &lt; ObjectType &gt;</text>
</g>
<!-- Node17 -->
<g id="node17" class="node">
<title>Node17</title>
<g id="a_node17"><a xlink:href="classxalanc_1_1ArenaBlock.html" target="_top" xlink:title=" ">
<polygon fill="none" stroke="black" points="928.5,-0.5 928.5,-30.5 1038.5,-30.5 1038.5,-0.5 928.5,-0.5"/>
<text text-anchor="start" x="936.5" y="-18.5" font-family="Helvetica,sans-Serif" font-size="10.00">xalanc::ArenaBlock</text>
<text text-anchor="middle" x="983.5" y="-7.5" font-family="Helvetica,sans-Serif" font-size="10.00">&lt; object_type &gt;</text>
</a>
</g>
</g>
<!-- Node16&#45;&gt;Node17 -->
<g id="edge20" class="edge">
<title>Node16&#45;&gt;Node17</title>
<path fill="none" stroke="orange" stroke-dasharray="5,2" d="M759.79,-84.45C811.33,-68.49 885.64,-45.49 934,-30.52"/>
<polygon fill="orange" stroke="orange" points="758.64,-81.14 750.13,-87.45 760.71,-87.83 758.64,-81.14"/>
<text text-anchor="middle" x="842" y="-74.5" font-family="Helvetica,sans-Serif" font-size="10.00"> &lt; object_type &gt;</text>
</g>
<!-- Node18&#45;&gt;Node7 -->
<g id="edge23" class="edge">
<title>Node18&#45;&gt;Node7</title>
<path fill="none" stroke="midnightblue" d="M615.09,-503C687,-506.68 794.78,-509.26 888,-499.5 898.59,-498.39 909.74,-496.6 920.52,-494.54"/>
<polygon fill="midnightblue" stroke="midnightblue" points="614.92,-499.49 604.75,-502.45 614.55,-506.48 614.92,-499.49"/>
</g>
<!-- Node19&#45;&gt;Node9 -->
<g id="edge25" class="edge">
<title>Node19&#45;&gt;Node9</title>
<path fill="none" stroke="midnightblue" d="M778.71,-238.92C812.65,-238.32 852.73,-240.13 888,-248.5 894.76,-250.1 927.2,-265.86 952.2,-278.29"/>
<polygon fill="midnightblue" stroke="midnightblue" points="778.3,-235.43 768.39,-239.19 778.48,-242.43 778.3,-235.43"/>
</g>
<!-- Node20&#45;&gt;Node17 -->
<g id="edge27" class="edge">
<title>Node20&#45;&gt;Node17</title>
<path fill="none" stroke="midnightblue" d="M453.43,-17.25C577.58,-16.84 820.06,-16.04 928.19,-15.68"/>
<polygon fill="midnightblue" stroke="midnightblue" points="453.23,-13.75 443.24,-17.28 453.25,-20.75 453.23,-13.75"/>
</g>
<!-- Node21&#45;&gt;Node8 -->
<g id="edge29" class="edge">
<title>Node21&#45;&gt;Node8</title>
<path fill="none" stroke="midnightblue" d="M610.56,-287.89C683.2,-284.68 794.79,-285.26 888,-309.5 896.66,-311.75 897.85,-314.82 906,-318.5 918.15,-323.99 931.56,-329.58 943.72,-334.47"/>
<polygon fill="midnightblue" stroke="midnightblue" points="609.96,-284.42 600.13,-288.39 610.29,-291.41 609.96,-284.42"/>
</g>
</g>
</svg>
        <g id="navigator" transform="translate(0 0)" fill="#404254">
                <rect fill="#f2f5e9" fill-opacity="0.5" stroke="#606060" stroke-width=".5" x="0" y="0" width="60" height="60"/>
                <use id="zoomplus" xlink:href="#zoomPlus" x="17" y="9" onmousedown="handleZoom(evt,'in')"/>
                <use id="zoomminus" xlink:href="#zoomMin" x="42" y="9" onmousedown="handleZoom(evt,'out')"/>
                <use id="reset" xlink:href="#resetDef" x="30" y="36" onmousedown="handleReset()"/>
                <g id="arrowUp" xlink:href="#dirArrow" transform="translate(30 24)" onmousedown="handlePan(0,-1)">
                  <use xlink:href="#rim" fill="#404040">
                        <set attributeName="fill" to="#808080" begin="arrowUp.mouseover" end="arrowUp.mouseout"/>
                  </use>
                  <path fill="none" stroke="white" stroke-width="1.5" d="M0,-3.0v7 M-2.5,-0.5L0,-3.0L2.5,-0.5"/>
                </g>
                <g id="arrowRight" xlink:href="#dirArrow" transform="rotate(90) translate(36 -43)" onmousedown="handlePan(1,0)">
                  <use xlink:href="#rim" fill="#404040">
                        <set attributeName="fill" to="#808080" begin="arrowRight.mouseover" end="arrowRight.mouseout"/>
                  </use>
                  <path fill="none" stroke="white" stroke-width="1.5" d="M0,-3.0v7 M-2.5,-0.5L0,-3.0L2.5,-0.5"/>
                </g>
                <g id="arrowDown" xlink:href="#dirArrow" transform="rotate(180) translate(-30 -48)" onmousedown="handlePan(0,1)">
                  <use xlink:href="#rim" fill="#404040">
                        <set attributeName="fill" to="#808080" begin="arrowDown.mouseover" end="arrowDown.mouseout"/>
                  </use>
                  <path fill="none" stroke="white" stroke-width="1.5" d="M0,-3.0v7 M-2.5,-0.5L0,-3.0L2.5,-0.5"/>
                </g>
                <g id="arrowLeft" xlink:href="#dirArrow" transform="rotate(270) translate(-36 17)" onmousedown="handlePan(-1,0)">
                  <use xlink:href="#rim" fill="#404040">
                        <set attributeName="fill" to="#808080" begin="arrowLeft.mouseover" end="arrowLeft.mouseout"/>
                  </use>
                  <path fill="none" stroke="white" stroke-width="1.5" d="M0,-3.0v7 M-2.5,-0.5L0,-3.0L2.5,-0.5"/>
                </g>
        </g>
        <svg viewBox="0 0 15 15" width="100%" height="30px" preserveAspectRatio="xMaxYMin meet">
         <g id="arrow_out" transform="scale(0.3 0.3)">
          <a xlink:href="classxalanc_1_1ArenaBlockBase__inherit__graph_org.svg" target="_base">
           <rect id="button" ry="5" rx="5" y="6" x="6" height="38" width="38"
                fill="#f2f5e9" fill-opacity="0.5" stroke="#606060" stroke-width="1.0"/>
           <path id="arrow"
             d="M 11.500037,31.436501 C 11.940474,20.09759 22.043105,11.32322 32.158766,21.979434 L 37.068811,17.246167 C 37.068811,17.246167 37.088388,32 37.088388,32 L 22.160133,31.978069 C 22.160133,31.978069 26.997745,27.140456 26.997745,27.140456 C 18.528582,18.264221 13.291696,25.230495 11.500037,31.436501 z"
             style="fill:#404040;"/>
          </a>
         </g>
        </svg>
</svg>
