<?xml version="1.0" encoding="UTF-8" standalone="no"?>
<!DOCTYPE svg PUBLIC "-//W3C//DTD SVG 1.1//EN"
 "http://www.w3.org/Graphics/SVG/1.1/DTD/svg11.dtd">
<!-- Generated by graphviz version 2.38.0 (20140413.2041)
 -->
<!-- Title: xalanc::ElemApplyImport Pages: 1 -->
<!--zoomable 133 -->
<svg id="main" version="1.1" xmlns="http://www.w3.org/2000/svg" xmlns:xlink="http://www.w3.org/1999/xlink" xml:space="preserve" onload="init(evt)">
<style type="text/css"><![CDATA[
.edge:hover path { stroke: red; }
.edge:hover polygon { stroke: red; fill: red; }
]]></style>
<script type="text/javascript"><![CDATA[
var edges = document.getElementsByTagName('g');
if (edges && edges.length) {
  for (var i=0;i<edges.length;i++) {
    if (edges[i].id.substr(0,4)=='edge') {
      edges[i].setAttribute('class','edge');
    }
  }
}
]]></script>
        <defs>
                <circle id="rim" cx="0" cy="0" r="7"/>
                <circle id="rim2" cx="0" cy="0" r="3.5"/>
                <g id="zoomPlus">
                        <use xlink:href="#rim" fill="#404040">
                                <set attributeName="fill" to="#808080" begin="zoomplus.mouseover" end="zoomplus.mouseout"/>
                        </use>
                        <path d="M-4,0h8M0,-4v8" fill="none" stroke="white" stroke-width="1.5" pointer-events="none"/>
                </g>
                <g id="zoomMin">
                        <use xlink:href="#rim" fill="#404040">
                                <set attributeName="fill" to="#808080" begin="zoomminus.mouseover" end="zoomminus.mouseout"/>
                        </use>
                        <path d="M-4,0h8" fill="none" stroke="white" stroke-width="1.5" pointer-events="none"/>
                </g>
                <g id="dirArrow">
                        <path fill="none" stroke="white" stroke-width="1.5" d="M0,-3.0v7 M-2.5,-0.5L0,-3.0L2.5,-0.5"/>
                </g>
               <g id="resetDef">
                       <use xlink:href="#rim2" fill="#404040">
                               <set attributeName="fill" to="#808080" begin="reset.mouseover" end="reset.mouseout"/>
                       </use>
               </g>
        </defs>

<script type="text/javascript">
var viewWidth = 625;
var viewHeight = 133;
var sectionId = 'dynsection-1';
</script>
<script xlink:href="svgpan.js"/>
<svg id="graph" class="graph">
<g id="viewport">
<title>xalanc::ElemApplyImport</title>
<!-- Node1 -->
<g id="node1" class="node"><title>Node1</title>
<g id="a_node1"><a xlink:title=" ">
<polygon fill="#bfbfbf" stroke="black" points="492,-105.825 492,-124.825 617,-124.825 617,-105.825 492,-105.825"/>
<text text-anchor="middle" x="554.5" y="-112.825" font-family="Helvetica,sans-Serif" font-size="10.00">xalanc::ElemApplyImport</text>
</a>
</g>
</g>
<!-- Node2 -->
<g id="node2" class="node"><title>Node2</title>
<g id="a_node2"><a xlink:href="classxalanc_1_1ElemTemplateElement.html" target="_top" xlink:title=" ">
<polygon fill="none" stroke="black" points="225,-54.8254 225,-73.8254 374,-73.8254 374,-54.8254 225,-54.8254"/>
<text text-anchor="middle" x="299.5" y="-61.8254" font-family="Helvetica,sans-Serif" font-size="10.00">xalanc::ElemTemplateElement</text>
</a>
</g>
</g>
<!-- Node2&#45;&gt;Node1 -->
<g id="edge1" class="edge"><title>Node2&#45;&gt;Node1</title>
<path fill="none" stroke="midnightblue" d="M340.767,-76.9264C356.623,-81.5829 375.06,-86.6222 392,-90.3254 424.707,-97.4752 461.575,-103.345 491.819,-107.596"/>
<polygon fill="midnightblue" stroke="midnightblue" points="341.345,-73.4464 330.762,-73.9397 339.343,-80.154 341.345,-73.4464"/>
</g>
<!-- Node2&#45;&gt;Node2 -->
<g id="edge6" class="edge"><title>Node2&#45;&gt;Node2</title>
<path fill="none" stroke="#9a32cd" stroke-dasharray="5,2" d="M276.063,-83.3546C277.341,-88.4534 285.154,-92.3254 299.5,-92.3254 321.895,-92.3254 328.368,-82.8906 318.92,-74.0824"/>
<polygon fill="#9a32cd" stroke="#9a32cd" points="279.316,-84.6497 280.08,-74.0824 272.893,-81.8669 279.316,-84.6497"/>
<text text-anchor="middle" x="299.5" y="-95.3254" font-family="Helvetica,sans-Serif" font-size="10.00"> m_firstChild</text>
</g>
<!-- Node4 -->
<g id="node4" class="node"><title>Node4</title>
<g id="a_node4"><a xlink:href="classxalanc_1_1ElemTextLiteral.html" target="_top" xlink:title=" ">
<polygon fill="none" stroke="black" points="495,-60.8254 495,-79.8254 614,-79.8254 614,-60.8254 495,-60.8254"/>
<text text-anchor="middle" x="554.5" y="-67.8254" font-family="Helvetica,sans-Serif" font-size="10.00">xalanc::ElemTextLiteral</text>
</a>
</g>
</g>
<!-- Node2&#45;&gt;Node4 -->
<g id="edge4" class="edge"><title>Node2&#45;&gt;Node4</title>
<path fill="none" stroke="midnightblue" d="M375.137,-74.9276C380.835,-75.4877 386.504,-75.9665 392,-76.3254 428.367,-78.6999 437.581,-77.6977 474,-76.3254 480.777,-76.07 487.873,-75.6925 494.917,-75.2491"/>
<polygon fill="midnightblue" stroke="midnightblue" points="375.196,-71.4143 364.882,-73.8399 374.457,-78.3752 375.196,-71.4143"/>
</g>
<!-- Node6 -->
<g id="node6" class="node"><title>Node6</title>
<g id="a_node6"><a xlink:href="classxalanc_1_1ElemTemplate.html" target="_top" xlink:title=" ">
<polygon fill="none" stroke="black" points="498,-12.8254 498,-31.8254 611,-31.8254 611,-12.8254 498,-12.8254"/>
<text text-anchor="middle" x="554.5" y="-19.8254" font-family="Helvetica,sans-Serif" font-size="10.00">xalanc::ElemTemplate</text>
</a>
</g>
</g>
<!-- Node2&#45;&gt;Node6 -->
<g id="edge8" class="edge"><title>Node2&#45;&gt;Node6</title>
<path fill="none" stroke="midnightblue" d="M367.969,-53.125C408.472,-46.4012 459.383,-37.9496 497.623,-31.6014"/>
<polygon fill="midnightblue" stroke="midnightblue" points="367.201,-49.7044 357.91,-54.7949 368.348,-56.6099 367.201,-49.7044"/>
</g>
<!-- Node3 -->
<g id="node3" class="node"><title>Node3</title>
<g id="a_node3"><a xlink:href="classxalanc_1_1PrefixResolver.html" target="_top" xlink:title="This class defines an interface for classes that resolve namespace prefixes to their URIs.">
<polygon fill="none" stroke="black" points="4.5,-73.8254 4.5,-92.8254 117.5,-92.8254 117.5,-73.8254 4.5,-73.8254"/>
<text text-anchor="middle" x="61" y="-80.8254" font-family="Helvetica,sans-Serif" font-size="10.00">xalanc::PrefixResolver</text>
</a>
</g>
</g>
<!-- Node3&#45;&gt;Node2 -->
<g id="edge2" class="edge"><title>Node3&#45;&gt;Node2</title>
<path fill="none" stroke="midnightblue" d="M127.733,-78.0445C157.869,-75.6234 193.715,-72.7437 224.765,-70.2491"/>
<polygon fill="midnightblue" stroke="midnightblue" points="127.435,-74.557 117.748,-78.8467 127.996,-81.5346 127.435,-74.557"/>
</g>
<!-- Node4&#45;&gt;Node2 -->
<g id="edge3" class="edge"><title>Node4&#45;&gt;Node2</title>
<path fill="none" stroke="#9a32cd" stroke-dasharray="5,2" d="M484.681,-65.7538C481.069,-65.59 477.492,-65.4452 474,-65.3254 441.337,-64.205 405.195,-63.8547 374.39,-63.823"/>
<polygon fill="#9a32cd" stroke="#9a32cd" points="484.746,-69.2612 494.907,-66.2604 485.092,-62.2698 484.746,-69.2612"/>
<text text-anchor="middle" x="433" y="-68.3254" font-family="Helvetica,sans-Serif" font-size="10.00"> m_textLiteralChild</text>
</g>
<!-- Node5 -->
<g id="node5" class="node"><title>Node5</title>
<g id="a_node5"><a xlink:href="classxalanc_1_1XalanDOMString.html" target="_top" xlink:title=" ">
<polygon fill="none" stroke="black" points="0,-35.8254 0,-54.8254 122,-54.8254 122,-35.8254 0,-35.8254"/>
<text text-anchor="middle" x="61" y="-42.8254" font-family="Helvetica,sans-Serif" font-size="10.00">xalanc::XalanDOMString</text>
</a>
</g>
</g>
<!-- Node5&#45;&gt;Node2 -->
<g id="edge5" class="edge"><title>Node5&#45;&gt;Node2</title>
<path fill="none" stroke="#9a32cd" stroke-dasharray="5,2" d="M132.307,-50.4956C156.036,-52.2841 182.671,-54.3391 207,-56.3254 212.722,-56.7925 218.643,-57.2865 224.596,-57.7904"/>
<polygon fill="#9a32cd" stroke="#9a32cd" points="132.565,-47.0051 122.331,-49.7464 132.04,-53.9855 132.565,-47.0051"/>
<text text-anchor="middle" x="173.5" y="-59.3254" font-family="Helvetica,sans-Serif" font-size="10.00"> s_emptyString</text>
</g>
<!-- Node6&#45;&gt;Node2 -->
<g id="edge7" class="edge"><title>Node6&#45;&gt;Node2</title>
<path fill="none" stroke="#9a32cd" stroke-dasharray="5,2" d="M513.928,-10.2311C480.756,-2.01614 432.461,5.41816 392,-6.32537 359.307,-15.8143 327.104,-40.8791 311.041,-54.7511"/>
<polygon fill="#9a32cd" stroke="#9a32cd" points="513.152,-13.6458 523.712,-12.7853 514.92,-6.87281 513.152,-13.6458"/>
<text text-anchor="middle" x="433" y="-9.32537" font-family="Helvetica,sans-Serif" font-size="10.00"> m_directTemplate</text>
</g>
</g>
</svg>
        <g id="navigator" transform="translate(0 0)" fill="#404254">
                <rect fill="#f2f5e9" fill-opacity="0.5" stroke="#606060" stroke-width=".5" x="0" y="0" width="60" height="60"/>
                <use id="zoomplus" xlink:href="#zoomPlus" x="17" y="9" onmousedown="handleZoom(evt,'in')"/>
                <use id="zoomminus" xlink:href="#zoomMin" x="42" y="9" onmousedown="handleZoom(evt,'out')"/>
                <use id="reset" xlink:href="#resetDef" x="30" y="36" onmousedown="handleReset()"/>
                <g id="arrowUp" xlink:href="#dirArrow" transform="translate(30 24)" onmousedown="handlePan(0,-1)">
                  <use xlink:href="#rim" fill="#404040">
                        <set attributeName="fill" to="#808080" begin="arrowUp.mouseover" end="arrowUp.mouseout"/>
                  </use>
                  <path fill="none" stroke="white" stroke-width="1.5" d="M0,-3.0v7 M-2.5,-0.5L0,-3.0L2.5,-0.5"/>
                </g>
                <g id="arrowRight" xlink:href="#dirArrow" transform="rotate(90) translate(36 -43)" onmousedown="handlePan(1,0)">
                  <use xlink:href="#rim" fill="#404040">
                        <set attributeName="fill" to="#808080" begin="arrowRight.mouseover" end="arrowRight.mouseout"/>
                  </use>
                  <path fill="none" stroke="white" stroke-width="1.5" d="M0,-3.0v7 M-2.5,-0.5L0,-3.0L2.5,-0.5"/>
                </g>
                <g id="arrowDown" xlink:href="#dirArrow" transform="rotate(180) translate(-30 -48)" onmousedown="handlePan(0,1)">
                  <use xlink:href="#rim" fill="#404040">
                        <set attributeName="fill" to="#808080" begin="arrowDown.mouseover" end="arrowDown.mouseout"/>
                  </use>
                  <path fill="none" stroke="white" stroke-width="1.5" d="M0,-3.0v7 M-2.5,-0.5L0,-3.0L2.5,-0.5"/>
                </g>
                <g id="arrowLeft" xlink:href="#dirArrow" transform="rotate(270) translate(-36 17)" onmousedown="handlePan(-1,0)">
                  <use xlink:href="#rim" fill="#404040">
                        <set attributeName="fill" to="#808080" begin="arrowLeft.mouseover" end="arrowLeft.mouseout"/>
                  </use>
                  <path fill="none" stroke="white" stroke-width="1.5" d="M0,-3.0v7 M-2.5,-0.5L0,-3.0L2.5,-0.5"/>
                </g>
        </g>
        <svg viewBox="0 0 15 15" width="100%" height="30px" preserveAspectRatio="xMaxYMin meet">
         <g id="arrow_out" transform="scale(0.3 0.3)">
          <a xlink:href="classxalanc_1_1ElemApplyImport__coll__graph_org.svg" target="_base">
           <rect id="button" ry="5" rx="5" y="6" x="6" height="38" width="38"
                fill="#f2f5e9" fill-opacity="0.5" stroke="#606060" stroke-width="1.0"/>
           <path id="arrow"
             d="M 11.500037,31.436501 C 11.940474,20.09759 22.043105,11.32322 32.158766,21.979434 L 37.068811,17.246167 C 37.068811,17.246167 37.088388,32 37.088388,32 L 22.160133,31.978069 C 22.160133,31.978069 26.997745,27.140456 26.997745,27.140456 C 18.528582,18.264221 13.291696,25.230495 11.500037,31.436501 z"
             style="fill:#404040;"/>
          </a>
         </g>
        </svg>
</svg>
