<?xml version="1.0" encoding="UTF-8" standalone="no"?>
<!DOCTYPE svg PUBLIC "-//W3C//DTD SVG 1.1//EN"
 "http://www.w3.org/Graphics/SVG/1.1/DTD/svg11.dtd">
<!-- Generated by graphviz version 2.43.0 (0)
 -->
<!-- Title: xalanc::XalanObjectCacheDefault&lt; ObjectType &gt; Pages: 1 -->
<svg width="1302pt" height="94pt"
 viewBox="0.00 0.00 1302.00 94.00" xmlns="http://www.w3.org/2000/svg" xmlns:xlink="http://www.w3.org/1999/xlink">
<g id="graph0" class="graph" transform="scale(1 1) rotate(0) translate(4 90)">
<title>xalanc::XalanObjectCacheDefault&lt; ObjectType &gt;</title>
<!-- Node1 -->
<g id="node1" class="node">
<title>Node1</title>
<g id="a_node1"><a xlink:title=" ">
<polygon fill="#bfbfbf" stroke="black" points="1150,-34 1150,-64 1294,-64 1294,-34 1150,-34"/>
<text text-anchor="start" x="1158" y="-52" font-family="Helvetica,sans-Serif" font-size="10.00">xalanc::XalanObjectCache</text>
<text text-anchor="middle" x="1222" y="-41" font-family="Helvetica,sans-Serif" font-size="10.00">Default&lt; ObjectType &gt;</text>
</a>
</g>
</g>
<!-- Node2 -->
<g id="node2" class="node">
<title>Node2</title>
<g id="a_node2"><a xlink:href="classxalanc_1_1XalanObjectCache.html" target="_top" xlink:title=" ">
<polygon fill="none" stroke="black" points="884,-17.5 884,-80.5 1113,-80.5 1113,-17.5 884,-17.5"/>
<text text-anchor="start" x="892" y="-68.5" font-family="Helvetica,sans-Serif" font-size="10.00">xalanc::XalanObjectCache</text>
<text text-anchor="start" x="892" y="-57.5" font-family="Helvetica,sans-Serif" font-size="10.00">&lt; ObjectType, DefaultCacheCreate</text>
<text text-anchor="start" x="892" y="-46.5" font-family="Helvetica,sans-Serif" font-size="10.00">Functor&lt; ObjectType &gt;, DeleteFunctor</text>
<text text-anchor="start" x="892" y="-35.5" font-family="Helvetica,sans-Serif" font-size="10.00">&lt; ObjectType &gt;, DefaultCacheResetFunctor</text>
<text text-anchor="middle" x="998.5" y="-24.5" font-family="Helvetica,sans-Serif" font-size="10.00">&lt; ObjectType &gt; &gt;</text>
</a>
</g>
</g>
<!-- Node2&#45;&gt;Node1 -->
<g id="edge1" class="edge">
<title>Node2&#45;&gt;Node1</title>
<path fill="none" stroke="midnightblue" d="M1123.43,-49C1132.48,-49 1141.41,-49 1149.98,-49"/>
<polygon fill="midnightblue" stroke="midnightblue" points="1123.17,-45.5 1113.17,-49 1123.17,-52.5 1123.17,-45.5"/>
</g>
<!-- Node3 -->
<g id="node3" class="node">
<title>Node3</title>
<g id="a_node3"><a xlink:href="structxalanc_1_1DeleteFunctor.html" target="_top" xlink:title=" ">
<polygon fill="none" stroke="black" points="239,-38 239,-68 362,-68 362,-38 239,-38"/>
<text text-anchor="start" x="247" y="-56" font-family="Helvetica,sans-Serif" font-size="10.00">xalanc::DeleteFunctor</text>
<text text-anchor="middle" x="300.5" y="-45" font-family="Helvetica,sans-Serif" font-size="10.00">&lt; ObjectType &gt;</text>
</a>
</g>
</g>
<!-- Node3&#45;&gt;Node2 -->
<g id="edge2" class="edge">
<title>Node3&#45;&gt;Node2</title>
<path fill="none" stroke="#9a32cd" stroke-dasharray="5,2" d="M372.2,-60.07C479.23,-69.66 688.7,-84.07 866,-70 871.88,-69.53 877.89,-68.95 883.95,-68.28"/>
<polygon fill="#9a32cd" stroke="#9a32cd" points="372.45,-56.58 362.17,-59.16 371.81,-63.55 372.45,-56.58"/>
<text text-anchor="middle" x="590" y="-78" font-family="Helvetica,sans-Serif" font-size="10.00"> m_deleteFunctor</text>
</g>
<!-- Node5 -->
<g id="node5" class="node">
<title>Node5</title>
<g id="a_node5"><a xlink:href="classxalanc_1_1XalanObjectCache.html" target="_top" xlink:title=" ">
<polygon fill="none" stroke="black" points="483,-0.5 483,-41.5 697,-41.5 697,-0.5 483,-0.5"/>
<text text-anchor="start" x="491" y="-29.5" font-family="Helvetica,sans-Serif" font-size="10.00">xalanc::XalanObjectCache</text>
<text text-anchor="start" x="491" y="-18.5" font-family="Helvetica,sans-Serif" font-size="10.00">&lt; ObjectType, CreateFunctorType,</text>
<text text-anchor="middle" x="590" y="-7.5" font-family="Helvetica,sans-Serif" font-size="10.00"> DeleteFunctorType, ResetFunctorType &gt;</text>
</a>
</g>
</g>
<!-- Node3&#45;&gt;Node5 -->
<g id="edge5" class="edge">
<title>Node3&#45;&gt;Node5</title>
<path fill="none" stroke="#9a32cd" stroke-dasharray="5,2" d="M372.22,-45.13C405.53,-41.42 445.97,-36.92 482.86,-32.81"/>
<polygon fill="#9a32cd" stroke="#9a32cd" points="371.67,-41.67 362.12,-46.25 372.45,-48.62 371.67,-41.67"/>
<text text-anchor="middle" x="422.5" y="-47" font-family="Helvetica,sans-Serif" font-size="10.00"> m_deleteFunctor</text>
</g>
<!-- Node4 -->
<g id="node4" class="node">
<title>Node4</title>
<g id="a_node4"><a xlink:href="structxalanc_1_1DeleteFunctor.html" target="_top" xlink:title="Functor to delete objects, used in STL iteration algorithms.">
<polygon fill="none" stroke="black" points="0,-38 0,-68 123,-68 123,-38 0,-38"/>
<text text-anchor="start" x="8" y="-56" font-family="Helvetica,sans-Serif" font-size="10.00">xalanc::DeleteFunctor</text>
<text text-anchor="middle" x="61.5" y="-45" font-family="Helvetica,sans-Serif" font-size="10.00">&lt; Type &gt;</text>
</a>
</g>
</g>
<!-- Node4&#45;&gt;Node3 -->
<g id="edge3" class="edge">
<title>Node4&#45;&gt;Node3</title>
<path fill="none" stroke="orange" stroke-dasharray="5,2" d="M133.44,-53C167.05,-53 206.77,-53 238.93,-53"/>
<polygon fill="orange" stroke="orange" points="133.23,-49.5 123.23,-53 133.23,-56.5 133.23,-49.5"/>
<text text-anchor="middle" x="181" y="-56" font-family="Helvetica,sans-Serif" font-size="10.00"> &lt; ObjectType &gt;</text>
</g>
<!-- Node5&#45;&gt;Node2 -->
<g id="edge4" class="edge">
<title>Node5&#45;&gt;Node2</title>
<path fill="none" stroke="orange" stroke-dasharray="5,2" d="M707.19,-10.87C756.36,-8.55 814.15,-8.4 866,-15 871.85,-15.74 877.81,-16.67 883.8,-17.73"/>
<polygon fill="orange" stroke="orange" points="706.97,-7.38 697.16,-11.38 707.32,-14.37 706.97,-7.38"/>
<text text-anchor="start" x="715" y="-62" font-family="Helvetica,sans-Serif" font-size="10.00"> &lt; ObjectType, DefaultCache</text>
<text text-anchor="start" x="715" y="-51" font-family="Helvetica,sans-Serif" font-size="10.00">CreateFunctor&lt; ObjectType</text>
<text text-anchor="start" x="715" y="-40" font-family="Helvetica,sans-Serif" font-size="10.00"> &gt;, DeleteFunctor&lt; ObjectType</text>
<text text-anchor="start" x="715" y="-29" font-family="Helvetica,sans-Serif" font-size="10.00"> &gt;, DefaultCacheResetFunctor</text>
<text text-anchor="middle" x="790.5" y="-18" font-family="Helvetica,sans-Serif" font-size="10.00">&lt; ObjectType &gt; &gt;</text>
</g>
</g>
</svg>
