<?xml version="1.0" encoding="UTF-8" standalone="no"?>
<!DOCTYPE svg PUBLIC "-//W3C//DTD SVG 1.1//EN"
 "http://www.w3.org/Graphics/SVG/1.1/DTD/svg11.dtd">
<!-- Generated by graphviz version 2.38.0 (20140413.2041)
 -->
<!-- Title: xalanc::XercesDOMWalker Pages: 1 -->
<svg width="339pt" height="88pt"
 viewBox="0.00 0.00 339.00 88.00" xmlns="http://www.w3.org/2000/svg" xmlns:xlink="http://www.w3.org/1999/xlink">
<g id="graph0" class="graph" transform="scale(1 1) rotate(0) translate(4 84)">
<title>xalanc::XercesDOMWalker</title>
<!-- Node1 -->
<g id="node1" class="node"><title>Node1</title>
<g id="a_node1"><a xlink:title=" ">
<polygon fill="#bfbfbf" stroke="black" points="0,-30 0,-49 134,-49 134,-30 0,-30"/>
<text text-anchor="middle" x="67" y="-37" font-family="Helvetica,sans-Serif" font-size="10.00">xalanc::XercesDOMWalker</text>
</a>
</g>
</g>
<!-- Node2 -->
<g id="node2" class="node"><title>Node2</title>
<g id="a_node2"><a xlink:href="classxalanc_1_1XercesDocumentWrapper_1_1BuildWrapperTreeWalker.html" target="_top" xlink:title=" ">
<polygon fill="none" stroke="black" points="170,-49.5 170,-79.5 331,-79.5 331,-49.5 170,-49.5"/>
<text text-anchor="start" x="178" y="-67.5" font-family="Helvetica,sans-Serif" font-size="10.00">xalanc::XercesDocumentWrapper</text>
<text text-anchor="middle" x="250.5" y="-56.5" font-family="Helvetica,sans-Serif" font-size="10.00">::BuildWrapperTreeWalker</text>
</a>
</g>
</g>
<!-- Node1&#45;&gt;Node2 -->
<g id="edge1" class="edge"><title>Node1&#45;&gt;Node2</title>
<path fill="none" stroke="midnightblue" d="M143.995,-49.9676C152.562,-51.1477 161.31,-52.3526 169.921,-53.5388"/>
<polygon fill="midnightblue" stroke="midnightblue" points="144.423,-46.4936 134.039,-48.5963 143.468,-53.4282 144.423,-46.4936"/>
</g>
<!-- Node3 -->
<g id="node3" class="node"><title>Node3</title>
<g id="a_node3"><a xlink:href="classxalanc_1_1XercesDOMFormatterWalker.html" target="_top" xlink:title=" ">
<polygon fill="none" stroke="black" points="178,-0.5 178,-30.5 323,-30.5 323,-0.5 178,-0.5"/>
<text text-anchor="start" x="186" y="-18.5" font-family="Helvetica,sans-Serif" font-size="10.00">xalanc::XercesDOMFormatter</text>
<text text-anchor="middle" x="250.5" y="-7.5" font-family="Helvetica,sans-Serif" font-size="10.00">Walker</text>
</a>
</g>
</g>
<!-- Node1&#45;&gt;Node3 -->
<g id="edge2" class="edge"><title>Node1&#45;&gt;Node3</title>
<path fill="none" stroke="midnightblue" d="M144.213,-29.4222C155.407,-27.9421 166.903,-26.4219 177.997,-24.9549"/>
<polygon fill="midnightblue" stroke="midnightblue" points="143.494,-25.9868 134.039,-30.7676 144.412,-32.9264 143.494,-25.9868"/>
</g>
</g>
</svg>
