<?xml version="1.0" encoding="UTF-8" standalone="no"?>
<!DOCTYPE svg PUBLIC "-//W3C//DTD SVG 1.1//EN"
 "http://www.w3.org/Graphics/SVG/1.1/DTD/svg11.dtd">
<!-- Generated by graphviz version 2.43.0 (0)
 -->
<!-- Title: xalanc::XalanArrayAllocator&lt; Type &gt; Pages: 1 -->
<svg width="481pt" height="137pt"
 viewBox="0.00 0.00 481.00 137.00" xmlns="http://www.w3.org/2000/svg" xmlns:xlink="http://www.w3.org/1999/xlink">
<g id="graph0" class="graph" transform="scale(1 1) rotate(0) translate(4 133)">
<title>xalanc::XalanArrayAllocator&lt; Type &gt;</title>
<!-- Node1 -->
<g id="node1" class="node">
<title>Node1</title>
<g id="a_node1"><a xlink:title=" ">
<polygon fill="#bfbfbf" stroke="black" points="0,-49.5 0,-79.5 152,-79.5 152,-49.5 0,-49.5"/>
<text text-anchor="start" x="8" y="-67.5" font-family="Helvetica,sans-Serif" font-size="10.00">xalanc::XalanArrayAllocator</text>
<text text-anchor="middle" x="76" y="-56.5" font-family="Helvetica,sans-Serif" font-size="10.00">&lt; Type &gt;</text>
</a>
</g>
</g>
<!-- Node2 -->
<g id="node2" class="node">
<title>Node2</title>
<g id="a_node2"><a xlink:href="classxalanc_1_1XalanArrayAllocator.html" target="_top" xlink:title=" ">
<polygon fill="none" stroke="black" points="321,-98.5 321,-128.5 473,-128.5 473,-98.5 321,-98.5"/>
<text text-anchor="start" x="329" y="-116.5" font-family="Helvetica,sans-Serif" font-size="10.00">xalanc::XalanArrayAllocator</text>
<text text-anchor="middle" x="397" y="-105.5" font-family="Helvetica,sans-Serif" font-size="10.00">&lt; const void * &gt;</text>
</a>
</g>
</g>
<!-- Node1&#45;&gt;Node2 -->
<g id="edge1" class="edge">
<title>Node1&#45;&gt;Node2</title>
<path fill="none" stroke="orange" stroke-dasharray="5,2" d="M162.26,-78.29C164.87,-78.7 167.45,-79.1 170,-79.5 220.28,-87.34 276.9,-95.85 320.89,-102.4"/>
<polygon fill="orange" stroke="orange" points="162.53,-74.79 152.11,-76.68 161.44,-81.7 162.53,-74.79"/>
<text text-anchor="middle" x="236.5" y="-101.5" font-family="Helvetica,sans-Serif" font-size="10.00"> &lt; const void * &gt;</text>
</g>
<!-- Node3 -->
<g id="node3" class="node">
<title>Node3</title>
<g id="a_node3"><a xlink:href="classxalanc_1_1XalanArrayAllocator.html" target="_top" xlink:title=" ">
<polygon fill="none" stroke="black" points="321,-49.5 321,-79.5 473,-79.5 473,-49.5 321,-49.5"/>
<text text-anchor="start" x="329" y="-67.5" font-family="Helvetica,sans-Serif" font-size="10.00">xalanc::XalanArrayAllocator</text>
<text text-anchor="middle" x="397" y="-56.5" font-family="Helvetica,sans-Serif" font-size="10.00">&lt; XalanSourceTreeAttr * &gt;</text>
</a>
</g>
</g>
<!-- Node1&#45;&gt;Node3 -->
<g id="edge2" class="edge">
<title>Node1&#45;&gt;Node3</title>
<path fill="none" stroke="orange" stroke-dasharray="5,2" d="M162.22,-64.5C211.59,-64.5 273.19,-64.5 320.76,-64.5"/>
<polygon fill="orange" stroke="orange" points="162.19,-61 152.19,-64.5 162.19,-68 162.19,-61"/>
<text text-anchor="middle" x="236.5" y="-67.5" font-family="Helvetica,sans-Serif" font-size="10.00"> &lt; XalanSourceTreeAttr * &gt;</text>
</g>
<!-- Node4 -->
<g id="node4" class="node">
<title>Node4</title>
<g id="a_node4"><a xlink:href="classxalanc_1_1XalanArrayAllocator.html" target="_top" xlink:title=" ">
<polygon fill="none" stroke="black" points="321,-0.5 321,-30.5 473,-30.5 473,-0.5 321,-0.5"/>
<text text-anchor="start" x="329" y="-18.5" font-family="Helvetica,sans-Serif" font-size="10.00">xalanc::XalanArrayAllocator</text>
<text text-anchor="middle" x="397" y="-7.5" font-family="Helvetica,sans-Serif" font-size="10.00">&lt; XalanDOMChar &gt;</text>
</a>
</g>
</g>
<!-- Node1&#45;&gt;Node4 -->
<g id="edge3" class="edge">
<title>Node1&#45;&gt;Node4</title>
<path fill="none" stroke="orange" stroke-dasharray="5,2" d="M162.26,-50.71C164.87,-50.3 167.45,-49.9 170,-49.5 220.28,-41.66 276.9,-33.15 320.89,-26.6"/>
<polygon fill="orange" stroke="orange" points="161.44,-47.3 152.11,-52.32 162.53,-54.21 161.44,-47.3"/>
<text text-anchor="middle" x="236.5" y="-52.5" font-family="Helvetica,sans-Serif" font-size="10.00"> &lt; XalanDOMChar &gt;</text>
</g>
</g>
</svg>
