<?xml version="1.0" encoding="UTF-8" standalone="no"?>
<!DOCTYPE svg PUBLIC "-//W3C//DTD SVG 1.1//EN"
 "http://www.w3.org/Graphics/SVG/1.1/DTD/svg11.dtd">
<!-- Generated by graphviz version 2.43.0 (0)
 -->
<!-- Title: xalanc::XalanCharacterData Pages: 1 -->
<!--zoomable 306 -->
<svg id="main" version="1.1" xmlns="http://www.w3.org/2000/svg" xmlns:xlink="http://www.w3.org/1999/xlink" xml:space="preserve" onload="init(evt)">
<style type="text/css"><![CDATA[
.edge:hover path { stroke: red; }
.edge:hover polygon { stroke: red; fill: red; }
]]></style>
<script type="text/javascript"><![CDATA[
var edges = document.getElementsByTagName('g');
if (edges && edges.length) {
  for (var i=0;i<edges.length;i++) {
    if (edges[i].id.substr(0,4)=='edge') {
      edges[i].setAttribute('class','edge');
    }
  }
}
]]></script>
        <defs>
                <circle id="rim" cx="0" cy="0" r="7"/>
                <circle id="rim2" cx="0" cy="0" r="3.5"/>
                <g id="zoomPlus">
                        <use xlink:href="#rim" fill="#404040">
                                <set attributeName="fill" to="#808080" begin="zoomplus.mouseover" end="zoomplus.mouseout"/>
                        </use>
                        <path d="M-4,0h8M0,-4v8" fill="none" stroke="white" stroke-width="1.5" pointer-events="none"/>
                </g>
                <g id="zoomMin">
                        <use xlink:href="#rim" fill="#404040">
                                <set attributeName="fill" to="#808080" begin="zoomminus.mouseover" end="zoomminus.mouseout"/>
                        </use>
                        <path d="M-4,0h8" fill="none" stroke="white" stroke-width="1.5" pointer-events="none"/>
                </g>
                <g id="dirArrow">
                        <path fill="none" stroke="white" stroke-width="1.5" d="M0,-3.0v7 M-2.5,-0.5L0,-3.0L2.5,-0.5"/>
                </g>
               <g id="resetDef">
                       <use xlink:href="#rim2" fill="#404040">
                               <set attributeName="fill" to="#808080" begin="reset.mouseover" end="reset.mouseout"/>
                       </use>
               </g>
        </defs>

<script type="text/javascript">
var viewWidth = 903;
var viewHeight = 306;
var sectionId = 'dynsection-0';
</script>
<script xlink:href="svgpan.js"/>
<svg id="graph" class="graph">
<g id="viewport">
<title>xalanc::XalanCharacterData</title>
<!-- Node1 -->
<g id="node1" class="node">
<title>Node1</title>
<g id="a_node1"><a xlink:title=" ">
<polygon fill="#bfbfbf" stroke="black" points="144,-145 144,-164 297,-164 297,-145 144,-145"/>
<text text-anchor="middle" x="220.5" y="-152" font-family="Helvetica,sans-Serif" font-size="10.00">xalanc::XalanCharacterData</text>
</a>
</g>
</g>
<!-- Node3 -->
<g id="node3" class="node">
<title>Node3</title>
<g id="a_node3"><a xlink:href="classxalanc_1_1XalanComment.html" target="_top" xlink:title=" ">
<polygon fill="none" stroke="black" points="333,-221 333,-240 464,-240 464,-221 333,-221"/>
<text text-anchor="middle" x="398.5" y="-228" font-family="Helvetica,sans-Serif" font-size="10.00">xalanc::XalanComment</text>
</a>
</g>
</g>
<!-- Node1&#45;&gt;Node3 -->
<g id="edge2" class="edge">
<title>Node1&#45;&gt;Node3</title>
<path fill="none" stroke="midnightblue" d="M253.15,-168.17C288.42,-183.4 344.54,-207.63 375.39,-220.95"/>
<polygon fill="midnightblue" stroke="midnightblue" points="254.36,-164.88 243.79,-164.13 251.58,-171.3 254.36,-164.88"/>
</g>
<!-- Node7 -->
<g id="node7" class="node">
<title>Node7</title>
<g id="a_node7"><a xlink:href="classxalanc_1_1XalanText.html" target="_top" xlink:title=" ">
<polygon fill="none" stroke="black" points="347,-107 347,-126 450,-126 450,-107 347,-107"/>
<text text-anchor="middle" x="398.5" y="-114" font-family="Helvetica,sans-Serif" font-size="10.00">xalanc::XalanText</text>
</a>
</g>
</g>
<!-- Node1&#45;&gt;Node7 -->
<g id="edge6" class="edge">
<title>Node1&#45;&gt;Node7</title>
<path fill="none" stroke="midnightblue" d="M275.93,-142.75C300.82,-137.37 329.92,-131.09 353.41,-126.02"/>
<polygon fill="midnightblue" stroke="midnightblue" points="274.95,-139.38 265.91,-144.91 276.43,-146.22 274.95,-139.38"/>
</g>
<!-- Node2 -->
<g id="node2" class="node">
<title>Node2</title>
<g id="a_node2"><a xlink:href="classxalanc_1_1XalanNode.html" target="_top" xlink:title=" ">
<polygon fill="none" stroke="black" points="0,-145 0,-164 108,-164 108,-145 0,-145"/>
<text text-anchor="middle" x="54" y="-152" font-family="Helvetica,sans-Serif" font-size="10.00">xalanc::XalanNode</text>
</a>
</g>
</g>
<!-- Node2&#45;&gt;Node1 -->
<g id="edge1" class="edge">
<title>Node2&#45;&gt;Node1</title>
<path fill="none" stroke="midnightblue" d="M118.44,-154.5C126.79,-154.5 135.42,-154.5 143.95,-154.5"/>
<polygon fill="midnightblue" stroke="midnightblue" points="118.41,-151 108.41,-154.5 118.41,-158 118.41,-151"/>
</g>
<!-- Node4 -->
<g id="node4" class="node">
<title>Node4</title>
<g id="a_node4"><a xlink:href="classxalanc_1_1XalanSourceTreeComment.html" target="_top" xlink:title=" ">
<polygon fill="none" stroke="black" points="500,-278 500,-297 684,-297 684,-278 500,-278"/>
<text text-anchor="middle" x="592" y="-285" font-family="Helvetica,sans-Serif" font-size="10.00">xalanc::XalanSourceTreeComment</text>
</a>
</g>
</g>
<!-- Node3&#45;&gt;Node4 -->
<g id="edge3" class="edge">
<title>Node3&#45;&gt;Node4</title>
<path fill="none" stroke="midnightblue" d="M431.25,-243.96C450.82,-251.89 476.56,-261.67 500,-268.5 512.24,-272.07 525.59,-275.24 538.2,-277.93"/>
<polygon fill="midnightblue" stroke="midnightblue" points="432.49,-240.68 421.91,-240.13 429.83,-247.16 432.49,-240.68"/>
</g>
<!-- Node5 -->
<g id="node5" class="node">
<title>Node5</title>
<g id="a_node5"><a xlink:href="classxalanc_1_1XercesCommentBridge.html" target="_top" xlink:title="This class is deprecated.">
<polygon fill="none" stroke="black" points="508.5,-240 508.5,-259 675.5,-259 675.5,-240 508.5,-240"/>
<text text-anchor="middle" x="592" y="-247" font-family="Helvetica,sans-Serif" font-size="10.00">xalanc::XercesCommentBridge</text>
</a>
</g>
</g>
<!-- Node3&#45;&gt;Node5 -->
<g id="edge4" class="edge">
<title>Node3&#45;&gt;Node5</title>
<path fill="none" stroke="midnightblue" d="M474.22,-237.91C485.42,-239.02 497.02,-240.18 508.37,-241.3"/>
<polygon fill="midnightblue" stroke="midnightblue" points="474.36,-234.41 464.07,-236.91 473.67,-241.38 474.36,-234.41"/>
</g>
<!-- Node6 -->
<g id="node6" class="node">
<title>Node6</title>
<g id="a_node6"><a xlink:href="classxalanc_1_1XercesCommentWrapper.html" target="_top" xlink:title=" ">
<polygon fill="none" stroke="black" points="503.5,-202 503.5,-221 680.5,-221 680.5,-202 503.5,-202"/>
<text text-anchor="middle" x="592" y="-209" font-family="Helvetica,sans-Serif" font-size="10.00">xalanc::XercesCommentWrapper</text>
</a>
</g>
</g>
<!-- Node3&#45;&gt;Node6 -->
<g id="edge5" class="edge">
<title>Node3&#45;&gt;Node6</title>
<path fill="none" stroke="midnightblue" d="M474.26,-223.08C483.77,-222.14 493.57,-221.17 503.26,-220.2"/>
<polygon fill="midnightblue" stroke="midnightblue" points="473.67,-219.62 464.07,-224.09 474.36,-226.59 473.67,-219.62"/>
</g>
<!-- Node8 -->
<g id="node8" class="node">
<title>Node8</title>
<g id="a_node8"><a xlink:href="classxalanc_1_1XalanCDATASection.html" target="_top" xlink:title=" ">
<polygon fill="none" stroke="black" points="516.5,-164 516.5,-183 667.5,-183 667.5,-164 516.5,-164"/>
<text text-anchor="middle" x="592" y="-171" font-family="Helvetica,sans-Serif" font-size="10.00">xalanc::XalanCDATASection</text>
</a>
</g>
</g>
<!-- Node7&#45;&gt;Node8 -->
<g id="edge7" class="edge">
<title>Node7&#45;&gt;Node8</title>
<path fill="none" stroke="midnightblue" d="M431.25,-129.96C450.82,-137.89 476.56,-147.67 500,-154.5 512.24,-158.07 525.59,-161.24 538.2,-163.93"/>
<polygon fill="midnightblue" stroke="midnightblue" points="432.49,-126.68 421.91,-126.13 429.83,-133.16 432.49,-126.68"/>
</g>
<!-- Node11 -->
<g id="node11" class="node">
<title>Node11</title>
<g id="a_node11"><a xlink:href="classxalanc_1_1XalanSourceTreeText.html" target="_top" xlink:title=" ">
<polygon fill="none" stroke="black" points="514,-126 514,-145 670,-145 670,-126 514,-126"/>
<text text-anchor="middle" x="592" y="-133" font-family="Helvetica,sans-Serif" font-size="10.00">xalanc::XalanSourceTreeText</text>
</a>
</g>
</g>
<!-- Node7&#45;&gt;Node11 -->
<g id="edge10" class="edge">
<title>Node7&#45;&gt;Node11</title>
<path fill="none" stroke="midnightblue" d="M460.39,-122.54C477.35,-124.22 496,-126.07 513.77,-127.84"/>
<polygon fill="midnightblue" stroke="midnightblue" points="460.36,-119.02 450.06,-121.52 459.67,-125.99 460.36,-119.02"/>
</g>
<!-- Node13 -->
<g id="node13" class="node">
<title>Node13</title>
<g id="a_node13"><a xlink:href="classxalanc_1_1XercesTextBridge.html" target="_top" xlink:title="This class is deprecated.">
<polygon fill="none" stroke="black" points="522,-88 522,-107 662,-107 662,-88 522,-88"/>
<text text-anchor="middle" x="592" y="-95" font-family="Helvetica,sans-Serif" font-size="10.00">xalanc::XercesTextBridge</text>
</a>
</g>
</g>
<!-- Node7&#45;&gt;Node13 -->
<g id="edge12" class="edge">
<title>Node7&#45;&gt;Node13</title>
<path fill="none" stroke="midnightblue" d="M460.09,-110.49C479.69,-108.54 501.57,-106.37 521.75,-104.37"/>
<polygon fill="midnightblue" stroke="midnightblue" points="459.67,-107.01 450.06,-111.48 460.36,-113.98 459.67,-107.01"/>
</g>
<!-- Node14 -->
<g id="node14" class="node">
<title>Node14</title>
<g id="a_node14"><a xlink:href="classxalanc_1_1XercesTextWrapper.html" target="_top" xlink:title=" ">
<polygon fill="none" stroke="black" points="517.5,-50 517.5,-69 666.5,-69 666.5,-50 517.5,-50"/>
<text text-anchor="middle" x="592" y="-57" font-family="Helvetica,sans-Serif" font-size="10.00">xalanc::XercesTextWrapper</text>
</a>
</g>
</g>
<!-- Node7&#45;&gt;Node14 -->
<g id="edge13" class="edge">
<title>Node7&#45;&gt;Node14</title>
<path fill="none" stroke="midnightblue" d="M431.25,-103.04C450.82,-95.11 476.56,-85.33 500,-78.5 512.24,-74.93 525.59,-71.76 538.2,-69.07"/>
<polygon fill="midnightblue" stroke="midnightblue" points="429.83,-99.84 421.91,-106.87 432.49,-106.32 429.83,-99.84"/>
</g>
<!-- Node15 -->
<g id="node15" class="node">
<title>Node15</title>
<g id="a_node15"><a xlink:href="classxalanc_1_1XObjectResultTreeFragProxyText.html" target="_top" xlink:title=" ">
<polygon fill="none" stroke="black" points="520.5,-0.5 520.5,-30.5 663.5,-30.5 663.5,-0.5 520.5,-0.5"/>
<text text-anchor="start" x="528.5" y="-18.5" font-family="Helvetica,sans-Serif" font-size="10.00">xalanc::XObjectResultTree</text>
<text text-anchor="middle" x="592" y="-7.5" font-family="Helvetica,sans-Serif" font-size="10.00">FragProxyText</text>
</a>
</g>
</g>
<!-- Node7&#45;&gt;Node15 -->
<g id="edge14" class="edge">
<title>Node7&#45;&gt;Node15</title>
<path fill="none" stroke="midnightblue" d="M417.03,-99.9C436.06,-82.73 468.04,-56.25 500,-40.5 507.64,-36.73 515.93,-33.47 524.3,-30.65"/>
<polygon fill="midnightblue" stroke="midnightblue" points="414.46,-97.51 409.47,-106.85 419.2,-102.66 414.46,-97.51"/>
</g>
<!-- Node9 -->
<g id="node9" class="node">
<title>Node9</title>
<g id="a_node9"><a xlink:href="classxalanc_1_1XercesCDATASectionBridge.html" target="_top" xlink:title="This class is deprecated.">
<polygon fill="none" stroke="black" points="729.5,-207.5 729.5,-237.5 885.5,-237.5 885.5,-207.5 729.5,-207.5"/>
<text text-anchor="start" x="737.5" y="-225.5" font-family="Helvetica,sans-Serif" font-size="10.00">xalanc::XercesCDATASection</text>
<text text-anchor="middle" x="807.5" y="-214.5" font-family="Helvetica,sans-Serif" font-size="10.00">Bridge</text>
</a>
</g>
</g>
<!-- Node8&#45;&gt;Node9 -->
<g id="edge8" class="edge">
<title>Node8&#45;&gt;Node9</title>
<path fill="none" stroke="midnightblue" d="M650.39,-185.17C661.55,-187.53 673.15,-190.04 684,-192.5 704.5,-197.15 726.85,-202.53 746.78,-207.44"/>
<polygon fill="midnightblue" stroke="midnightblue" points="650.8,-181.68 640.3,-183.05 649.37,-188.53 650.8,-181.68"/>
</g>
<!-- Node10 -->
<g id="node10" class="node">
<title>Node10</title>
<g id="a_node10"><a xlink:href="classxalanc_1_1XercesCDATASectionWrapper.html" target="_top" xlink:title=" ">
<polygon fill="none" stroke="black" points="729.5,-158.5 729.5,-188.5 885.5,-188.5 885.5,-158.5 729.5,-158.5"/>
<text text-anchor="start" x="737.5" y="-176.5" font-family="Helvetica,sans-Serif" font-size="10.00">xalanc::XercesCDATASection</text>
<text text-anchor="middle" x="807.5" y="-165.5" font-family="Helvetica,sans-Serif" font-size="10.00">Wrapper</text>
</a>
</g>
</g>
<!-- Node8&#45;&gt;Node10 -->
<g id="edge9" class="edge">
<title>Node8&#45;&gt;Node10</title>
<path fill="none" stroke="midnightblue" d="M678.09,-173.5C695.02,-173.5 712.7,-173.5 729.34,-173.5"/>
<polygon fill="midnightblue" stroke="midnightblue" points="677.67,-170 667.67,-173.5 677.67,-177 677.67,-170"/>
</g>
<!-- Node12 -->
<g id="node12" class="node">
<title>Node12</title>
<g id="a_node12"><a xlink:href="classxalanc_1_1XalanSourceTreeTextIWS.html" target="_top" xlink:title=" ">
<polygon fill="none" stroke="black" points="720,-120 720,-139 895,-139 895,-120 720,-120"/>
<text text-anchor="middle" x="807.5" y="-127" font-family="Helvetica,sans-Serif" font-size="10.00">xalanc::XalanSourceTreeTextIWS</text>
</a>
</g>
</g>
<!-- Node11&#45;&gt;Node12 -->
<g id="edge11" class="edge">
<title>Node11&#45;&gt;Node12</title>
<path fill="none" stroke="midnightblue" d="M680.4,-133.04C693.39,-132.68 706.78,-132.3 719.76,-131.94"/>
<polygon fill="midnightblue" stroke="midnightblue" points="679.98,-129.55 670.08,-133.33 680.17,-136.55 679.98,-129.55"/>
</g>
</g>
</svg>
        <g id="navigator" transform="translate(0 0)" fill="#404254">
                <rect fill="#f2f5e9" fill-opacity="0.5" stroke="#606060" stroke-width=".5" x="0" y="0" width="60" height="60"/>
                <use id="zoomplus" xlink:href="#zoomPlus" x="17" y="9" onmousedown="handleZoom(evt,'in')"/>
                <use id="zoomminus" xlink:href="#zoomMin" x="42" y="9" onmousedown="handleZoom(evt,'out')"/>
                <use id="reset" xlink:href="#resetDef" x="30" y="36" onmousedown="handleReset()"/>
                <g id="arrowUp" xlink:href="#dirArrow" transform="translate(30 24)" onmousedown="handlePan(0,-1)">
                  <use xlink:href="#rim" fill="#404040">
                        <set attributeName="fill" to="#808080" begin="arrowUp.mouseover" end="arrowUp.mouseout"/>
                  </use>
                  <path fill="none" stroke="white" stroke-width="1.5" d="M0,-3.0v7 M-2.5,-0.5L0,-3.0L2.5,-0.5"/>
                </g>
                <g id="arrowRight" xlink:href="#dirArrow" transform="rotate(90) translate(36 -43)" onmousedown="handlePan(1,0)">
                  <use xlink:href="#rim" fill="#404040">
                        <set attributeName="fill" to="#808080" begin="arrowRight.mouseover" end="arrowRight.mouseout"/>
                  </use>
                  <path fill="none" stroke="white" stroke-width="1.5" d="M0,-3.0v7 M-2.5,-0.5L0,-3.0L2.5,-0.5"/>
                </g>
                <g id="arrowDown" xlink:href="#dirArrow" transform="rotate(180) translate(-30 -48)" onmousedown="handlePan(0,1)">
                  <use xlink:href="#rim" fill="#404040">
                        <set attributeName="fill" to="#808080" begin="arrowDown.mouseover" end="arrowDown.mouseout"/>
                  </use>
                  <path fill="none" stroke="white" stroke-width="1.5" d="M0,-3.0v7 M-2.5,-0.5L0,-3.0L2.5,-0.5"/>
                </g>
                <g id="arrowLeft" xlink:href="#dirArrow" transform="rotate(270) translate(-36 17)" onmousedown="handlePan(-1,0)">
                  <use xlink:href="#rim" fill="#404040">
                        <set attributeName="fill" to="#808080" begin="arrowLeft.mouseover" end="arrowLeft.mouseout"/>
                  </use>
                  <path fill="none" stroke="white" stroke-width="1.5" d="M0,-3.0v7 M-2.5,-0.5L0,-3.0L2.5,-0.5"/>
                </g>
        </g>
        <svg viewBox="0 0 15 15" width="100%" height="30px" preserveAspectRatio="xMaxYMin meet">
         <g id="arrow_out" transform="scale(0.3 0.3)">
          <a xlink:href="classxalanc_1_1XalanCharacterData__inherit__graph_org.svg" target="_base">
           <rect id="button" ry="5" rx="5" y="6" x="6" height="38" width="38"
                fill="#f2f5e9" fill-opacity="0.5" stroke="#606060" stroke-width="1.0"/>
           <path id="arrow"
             d="M 11.500037,31.436501 C 11.940474,20.09759 22.043105,11.32322 32.158766,21.979434 L 37.068811,17.246167 C 37.068811,17.246167 37.088388,32 37.088388,32 L 22.160133,31.978069 C 22.160133,31.978069 26.997745,27.140456 26.997745,27.140456 C 18.528582,18.264221 13.291696,25.230495 11.500037,31.436501 z"
             style="fill:#404040;"/>
          </a>
         </g>
        </svg>
</svg>
