<?xml version="1.0" encoding="UTF-8" standalone="no"?>
<!DOCTYPE svg PUBLIC "-//W3C//DTD SVG 1.1//EN"
 "http://www.w3.org/Graphics/SVG/1.1/DTD/svg11.dtd">
<!-- Generated by graphviz version 2.43.0 (0)
 -->
<!-- Title: xalanc::StylesheetExecutionContext Pages: 1 -->
<svg width="384pt" height="230pt"
 viewBox="0.00 0.00 384.00 230.00" xmlns="http://www.w3.org/2000/svg" xmlns:xlink="http://www.w3.org/1999/xlink">
<g id="graph0" class="graph" transform="scale(1 1) rotate(0) translate(4 226)">
<title>xalanc::StylesheetExecutionContext</title>
<!-- Node1 -->
<g id="node1" class="node">
<title>Node1</title>
<g id="a_node1"><a xlink:title=" ">
<polygon fill="#bfbfbf" stroke="black" points="189,-0.5 189,-30.5 343,-30.5 343,-0.5 189,-0.5"/>
<text text-anchor="start" x="197" y="-18.5" font-family="Helvetica,sans-Serif" font-size="10.00">xalanc::StylesheetExecution</text>
<text text-anchor="middle" x="266" y="-7.5" font-family="Helvetica,sans-Serif" font-size="10.00">Context</text>
</a>
</g>
</g>
<!-- Node2 -->
<g id="node2" class="node">
<title>Node2</title>
<g id="a_node2"><a xlink:href="classxalanc_1_1XPathExecutionContext.html" target="_top" xlink:title=" ">
<polygon fill="none" stroke="black" points="182,-68.5 182,-87.5 350,-87.5 350,-68.5 182,-68.5"/>
<text text-anchor="middle" x="266" y="-75.5" font-family="Helvetica,sans-Serif" font-size="10.00">xalanc::XPathExecutionContext</text>
</a>
</g>
</g>
<!-- Node2&#45;&gt;Node1 -->
<g id="edge1" class="edge">
<title>Node2&#45;&gt;Node1</title>
<path fill="none" stroke="midnightblue" d="M266,-58.22C266,-49.36 266,-38.96 266,-30.76"/>
<polygon fill="midnightblue" stroke="midnightblue" points="262.5,-58.33 266,-68.33 269.5,-58.33 262.5,-58.33"/>
</g>
<!-- Node3 -->
<g id="node3" class="node">
<title>Node3</title>
<g id="a_node3"><a xlink:href="classxalanc_1_1ExecutionContext.html" target="_top" xlink:title=" ">
<polygon fill="none" stroke="black" points="82,-135.5 82,-154.5 222,-154.5 222,-135.5 82,-135.5"/>
<text text-anchor="middle" x="152" y="-142.5" font-family="Helvetica,sans-Serif" font-size="10.00">xalanc::ExecutionContext</text>
</a>
</g>
</g>
<!-- Node3&#45;&gt;Node2 -->
<g id="edge2" class="edge">
<title>Node3&#45;&gt;Node2</title>
<path fill="none" stroke="midnightblue" d="M176.35,-130.12C198.94,-117.24 231.84,-98.48 250.87,-87.63"/>
<polygon fill="midnightblue" stroke="midnightblue" points="174.33,-127.24 167.37,-135.23 177.8,-133.32 174.33,-127.24"/>
</g>
<!-- Node4 -->
<g id="node4" class="node">
<title>Node4</title>
<g id="a_node4"><a xlink:href="classxalanc_1_1ProblemListenerBase.html" target="_top" xlink:title="This is the abstract class that is used when reporting a problem some kind, that requires a message,...">
<polygon fill="none" stroke="black" points="0,-202.5 0,-221.5 158,-221.5 158,-202.5 0,-202.5"/>
<text text-anchor="middle" x="79" y="-209.5" font-family="Helvetica,sans-Serif" font-size="10.00">xalanc::ProblemListenerBase</text>
</a>
</g>
</g>
<!-- Node4&#45;&gt;Node3 -->
<g id="edge3" class="edge">
<title>Node4&#45;&gt;Node3</title>
<path fill="none" stroke="midnightblue" d="M96.57,-195.36C110.92,-182.58 130.67,-164.99 142.31,-154.63"/>
<polygon fill="midnightblue" stroke="midnightblue" points="93.99,-192.97 88.85,-202.23 98.64,-198.2 93.99,-192.97"/>
</g>
<!-- Node5 -->
<g id="node5" class="node">
<title>Node5</title>
<g id="a_node5"><a xlink:title=" ">
<polygon fill="none" stroke="#bfbfbf" points="176,-202.5 176,-221.5 276,-221.5 276,-202.5 176,-202.5"/>
<text text-anchor="middle" x="226" y="-209.5" font-family="Helvetica,sans-Serif" font-size="10.00">MemoryManager</text>
</a>
</g>
</g>
<!-- Node5&#45;&gt;Node3 -->
<g id="edge4" class="edge">
<title>Node5&#45;&gt;Node3</title>
<path fill="none" stroke="#9a32cd" stroke-dasharray="5,2" d="M208.19,-195.36C193.64,-182.58 173.62,-164.99 161.82,-154.63"/>
<polygon fill="#9a32cd" stroke="#9a32cd" points="206.2,-198.26 216.02,-202.23 210.82,-193 206.2,-198.26"/>
<text text-anchor="middle" x="245.5" y="-176" font-family="Helvetica,sans-Serif" font-size="10.00"> m_memoryManager</text>
</g>
<!-- Node6 -->
<g id="node6" class="node">
<title>Node6</title>
<g id="a_node6"><a xlink:href="classxalanc_1_1XObjectFactory.html" target="_top" xlink:title="This class handles the creation of XObjects and manages their lifetime.">
<polygon fill="none" stroke="black" points="240,-135.5 240,-154.5 368,-154.5 368,-135.5 240,-135.5"/>
<text text-anchor="middle" x="304" y="-142.5" font-family="Helvetica,sans-Serif" font-size="10.00">xalanc::XObjectFactory</text>
</a>
</g>
</g>
<!-- Node6&#45;&gt;Node2 -->
<g id="edge5" class="edge">
<title>Node6&#45;&gt;Node2</title>
<path fill="none" stroke="#9a32cd" stroke-dasharray="5,2" d="M293.79,-126.53C286.43,-113.95 276.82,-97.51 271.04,-87.63"/>
<polygon fill="#9a32cd" stroke="#9a32cd" points="290.81,-128.37 298.88,-135.23 296.85,-124.83 290.81,-128.37"/>
<text text-anchor="middle" x="331.5" y="-109" font-family="Helvetica,sans-Serif" font-size="10.00"> m_xobjectFactory</text>
</g>
</g>
</svg>
