<?xml version="1.0" encoding="UTF-8" standalone="no"?>
<!DOCTYPE svg PUBLIC "-//W3C//DTD SVG 1.1//EN"
 "http://www.w3.org/Graphics/SVG/1.1/DTD/svg11.dtd">
<!-- Generated by graphviz version 2.38.0 (20140413.2041)
 -->
<!-- Title: xalanc::ElemTemplateElement Pages: 1 -->
<svg width="619pt" height="92pt"
 viewBox="0.00 0.00 619.00 92.16" xmlns="http://www.w3.org/2000/svg" xmlns:xlink="http://www.w3.org/1999/xlink">
<g id="graph0" class="graph" transform="scale(1 1) rotate(0) translate(4 88.1553)">
<title>xalanc::ElemTemplateElement</title>
<!-- Node1 -->
<g id="node1" class="node"><title>Node1</title>
<g id="a_node1"><a xlink:title=" ">
<polygon fill="#bfbfbf" stroke="black" points="225,-35.6553 225,-54.6553 374,-54.6553 374,-35.6553 225,-35.6553"/>
<text text-anchor="middle" x="299.5" y="-42.6553" font-family="Helvetica,sans-Serif" font-size="10.00">xalanc::ElemTemplateElement</text>
</a>
</g>
</g>
<!-- Node1&#45;&gt;Node1 -->
<g id="edge5" class="edge"><title>Node1&#45;&gt;Node1</title>
<path fill="none" stroke="#9a32cd" stroke-dasharray="5,2" d="M276.063,-64.1844C277.341,-69.2832 285.154,-73.1553 299.5,-73.1553 321.895,-73.1553 328.368,-63.7205 318.92,-54.9123"/>
<polygon fill="#9a32cd" stroke="#9a32cd" points="279.316,-65.4796 280.08,-54.9123 272.893,-62.6967 279.316,-65.4796"/>
<text text-anchor="middle" x="299.5" y="-76.1553" font-family="Helvetica,sans-Serif" font-size="10.00"> m_firstChild</text>
</g>
<!-- Node3 -->
<g id="node3" class="node"><title>Node3</title>
<g id="a_node3"><a xlink:href="classxalanc_1_1ElemTextLiteral.html" target="_top" xlink:title=" ">
<polygon fill="none" stroke="black" points="492,-59.6553 492,-78.6553 611,-78.6553 611,-59.6553 492,-59.6553"/>
<text text-anchor="middle" x="551.5" y="-66.6553" font-family="Helvetica,sans-Serif" font-size="10.00">xalanc::ElemTextLiteral</text>
</a>
</g>
</g>
<!-- Node1&#45;&gt;Node3 -->
<g id="edge3" class="edge"><title>Node1&#45;&gt;Node3</title>
<path fill="none" stroke="midnightblue" d="M333.285,-58.2399C350.467,-64.4026 372.039,-71.0676 392,-74.1553 428.016,-79.7262 437.575,-75.3443 474,-74.1553 479.72,-73.9685 485.677,-73.7035 491.63,-73.3916"/>
<polygon fill="midnightblue" stroke="midnightblue" points="334.314,-54.8889 323.721,-54.7003 331.885,-61.4537 334.314,-54.8889"/>
</g>
<!-- Node5 -->
<g id="node5" class="node"><title>Node5</title>
<g id="a_node5"><a xlink:href="classxalanc_1_1ElemTemplate.html" target="_top" xlink:title=" ">
<polygon fill="none" stroke="black" points="495,-11.6553 495,-30.6553 608,-30.6553 608,-11.6553 495,-11.6553"/>
<text text-anchor="middle" x="551.5" y="-18.6553" font-family="Helvetica,sans-Serif" font-size="10.00">xalanc::ElemTemplate</text>
</a>
</g>
</g>
<!-- Node1&#45;&gt;Node5 -->
<g id="edge7" class="edge"><title>Node1&#45;&gt;Node5</title>
<path fill="none" stroke="midnightblue" d="M384.271,-37.1132C420.669,-33.619 462.319,-29.6206 494.823,-26.5003"/>
<polygon fill="midnightblue" stroke="midnightblue" points="383.776,-33.6446 374.156,-38.0843 384.445,-40.6126 383.776,-33.6446"/>
</g>
<!-- Node2 -->
<g id="node2" class="node"><title>Node2</title>
<g id="a_node2"><a xlink:href="classxalanc_1_1PrefixResolver.html" target="_top" xlink:title="This class defines an interface for classes that resolve namespace prefixes to their URIs.">
<polygon fill="none" stroke="black" points="4.5,-54.6553 4.5,-73.6553 117.5,-73.6553 117.5,-54.6553 4.5,-54.6553"/>
<text text-anchor="middle" x="61" y="-61.6553" font-family="Helvetica,sans-Serif" font-size="10.00">xalanc::PrefixResolver</text>
</a>
</g>
</g>
<!-- Node2&#45;&gt;Node1 -->
<g id="edge1" class="edge"><title>Node2&#45;&gt;Node1</title>
<path fill="none" stroke="midnightblue" d="M127.733,-58.8743C157.869,-56.4533 193.715,-53.5735 224.765,-51.079"/>
<polygon fill="midnightblue" stroke="midnightblue" points="127.435,-55.3869 117.748,-59.6766 127.996,-62.3644 127.435,-55.3869"/>
</g>
<!-- Node3&#45;&gt;Node1 -->
<g id="edge2" class="edge"><title>Node3&#45;&gt;Node1</title>
<path fill="none" stroke="#9a32cd" stroke-dasharray="5,2" d="M481.49,-62.5303C448.142,-59.3289 408.093,-55.4842 374.156,-52.2262"/>
<polygon fill="#9a32cd" stroke="#9a32cd" points="481.321,-66.0301 491.61,-63.5018 481.99,-59.0621 481.321,-66.0301"/>
<text text-anchor="middle" x="433" y="-64.1553" font-family="Helvetica,sans-Serif" font-size="10.00"> m_textLiteralChild</text>
</g>
<!-- Node4 -->
<g id="node4" class="node"><title>Node4</title>
<g id="a_node4"><a xlink:href="classxalanc_1_1XalanDOMString.html" target="_top" xlink:title=" ">
<polygon fill="none" stroke="black" points="0,-16.6553 0,-35.6553 122,-35.6553 122,-16.6553 0,-16.6553"/>
<text text-anchor="middle" x="61" y="-23.6553" font-family="Helvetica,sans-Serif" font-size="10.00">xalanc::XalanDOMString</text>
</a>
</g>
</g>
<!-- Node4&#45;&gt;Node1 -->
<g id="edge4" class="edge"><title>Node4&#45;&gt;Node1</title>
<path fill="none" stroke="#9a32cd" stroke-dasharray="5,2" d="M132.307,-31.3254C156.036,-33.1139 182.671,-35.169 207,-37.1553 212.722,-37.6224 218.643,-38.1163 224.596,-38.6203"/>
<polygon fill="#9a32cd" stroke="#9a32cd" points="132.565,-27.835 122.331,-30.5762 132.04,-34.8154 132.565,-27.835"/>
<text text-anchor="middle" x="173.5" y="-40.1553" font-family="Helvetica,sans-Serif" font-size="10.00"> s_emptyString</text>
</g>
<!-- Node5&#45;&gt;Node1 -->
<g id="edge6" class="edge"><title>Node5&#45;&gt;Node1</title>
<path fill="none" stroke="#9a32cd" stroke-dasharray="5,2" d="M507.753,-9.30927C475.635,-2.15691 430.707,4.12033 392,-4.15525 363.913,-10.1604 334.021,-25.4568 316.318,-35.5727"/>
<polygon fill="#9a32cd" stroke="#9a32cd" points="507.171,-12.7678 517.706,-11.6449 508.77,-5.95287 507.171,-12.7678"/>
<text text-anchor="middle" x="433" y="-7.15525" font-family="Helvetica,sans-Serif" font-size="10.00"> m_directTemplate</text>
</g>
</g>
</svg>
