<?xml version="1.0" encoding="UTF-8" standalone="no"?>
<!DOCTYPE svg PUBLIC "-//W3C//DTD SVG 1.1//EN"
 "http://www.w3.org/Graphics/SVG/1.1/DTD/svg11.dtd">
<!-- Generated by graphviz version 2.43.0 (0)
 -->
<!-- Title: xalanc::FunctionIntersection Pages: 1 -->
<svg width="162pt" height="151pt"
 viewBox="0.00 0.00 162.00 151.00" xmlns="http://www.w3.org/2000/svg" xmlns:xlink="http://www.w3.org/1999/xlink">
<g id="graph0" class="graph" transform="scale(1 1) rotate(0) translate(4 147)">
<title>xalanc::FunctionIntersection</title>
<!-- Node1 -->
<g id="node1" class="node">
<title>Node1</title>
<g id="a_node1"><a xlink:title="XPath implementation of &quot;intersection&quot; function for NodeSets.">
<polygon fill="#bfbfbf" stroke="black" points="0,-67.5 0,-86.5 154,-86.5 154,-67.5 0,-67.5"/>
<text text-anchor="middle" x="77" y="-74.5" font-family="Helvetica,sans-Serif" font-size="10.00">xalanc::FunctionIntersection</text>
</a>
</g>
</g>
<!-- Node3 -->
<g id="node3" class="node">
<title>Node3</title>
<g id="a_node3"><a xlink:href="classxalanc_1_1XalanEXSLTFunctionIntersection.html" target="_top" xlink:title=" ">
<polygon fill="none" stroke="black" points="0.5,-0.5 0.5,-30.5 153.5,-30.5 153.5,-0.5 0.5,-0.5"/>
<text text-anchor="start" x="8.5" y="-18.5" font-family="Helvetica,sans-Serif" font-size="10.00">xalanc::XalanEXSLTFunction</text>
<text text-anchor="middle" x="77" y="-7.5" font-family="Helvetica,sans-Serif" font-size="10.00">Intersection</text>
</a>
</g>
</g>
<!-- Node1&#45;&gt;Node3 -->
<g id="edge2" class="edge">
<title>Node1&#45;&gt;Node3</title>
<path fill="none" stroke="midnightblue" d="M77,-57.23C77,-48.59 77,-38.5 77,-30.52"/>
<polygon fill="midnightblue" stroke="midnightblue" points="73.5,-57.48 77,-67.48 80.5,-57.48 73.5,-57.48"/>
</g>
<!-- Node2 -->
<g id="node2" class="node">
<title>Node2</title>
<g id="a_node2"><a xlink:href="classxalanc_1_1Function.html" target="_top" xlink:title=" ">
<polygon fill="none" stroke="black" points="29,-123.5 29,-142.5 125,-142.5 125,-123.5 29,-123.5"/>
<text text-anchor="middle" x="77" y="-130.5" font-family="Helvetica,sans-Serif" font-size="10.00">xalanc::Function</text>
</a>
</g>
</g>
<!-- Node2&#45;&gt;Node1 -->
<g id="edge1" class="edge">
<title>Node2&#45;&gt;Node1</title>
<path fill="none" stroke="midnightblue" d="M77,-112.8C77,-103.91 77,-93.78 77,-86.75"/>
<polygon fill="midnightblue" stroke="midnightblue" points="73.5,-113.08 77,-123.08 80.5,-113.08 73.5,-113.08"/>
</g>
</g>
</svg>
