<?xml version="1.0" encoding="UTF-8" standalone="no"?>
<!DOCTYPE svg PUBLIC "-//W3C//DTD SVG 1.1//EN"
 "http://www.w3.org/Graphics/SVG/1.1/DTD/svg11.dtd">
<!-- Generated by graphviz version 2.38.0 (20140413.2041)
 -->
<!-- Title: xalanc::DOMSupport Pages: 1 -->
<svg width="502pt" height="104pt"
 viewBox="0.00 0.00 502.00 104.00" xmlns="http://www.w3.org/2000/svg" xmlns:xlink="http://www.w3.org/1999/xlink">
<g id="graph0" class="graph" transform="scale(1 1) rotate(0) translate(4 100)">
<title>xalanc::DOMSupport</title>
<!-- Node1 -->
<g id="node1" class="node"><title>Node1</title>
<g id="a_node1"><a xlink:title=" ">
<polygon fill="#bfbfbf" stroke="black" points="0,-38.5 0,-57.5 107,-57.5 107,-38.5 0,-38.5"/>
<text text-anchor="middle" x="53.5" y="-45.5" font-family="Helvetica,sans-Serif" font-size="10.00">xalanc::DOMSupport</text>
</a>
</g>
</g>
<!-- Node2 -->
<g id="node2" class="node"><title>Node2</title>
<g id="a_node2"><a xlink:href="classxalanc_1_1DOMSupportDefault.html" target="_top" xlink:title=" ">
<polygon fill="none" stroke="black" points="164.5,-76.5 164.5,-95.5 301.5,-95.5 301.5,-76.5 164.5,-76.5"/>
<text text-anchor="middle" x="233" y="-83.5" font-family="Helvetica,sans-Serif" font-size="10.00">xalanc::DOMSupportDefault</text>
</a>
</g>
</g>
<!-- Node1&#45;&gt;Node2 -->
<g id="edge1" class="edge"><title>Node1&#45;&gt;Node2</title>
<path fill="none" stroke="midnightblue" d="M109.165,-59.7463C120.357,-62.1484 132.059,-64.6576 143,-67 157.368,-70.076 173.042,-73.4246 187.178,-76.4417"/>
<polygon fill="midnightblue" stroke="midnightblue" points="109.578,-56.2553 99.0661,-57.5783 108.109,-63.0994 109.578,-56.2553"/>
</g>
<!-- Node3 -->
<g id="node3" class="node"><title>Node3</title>
<g id="a_node3"><a xlink:href="classxalanc_1_1XalanSourceTreeDOMSupport.html" target="_top" xlink:title=" ">
<polygon fill="none" stroke="black" points="143,-38.5 143,-57.5 323,-57.5 323,-38.5 143,-38.5"/>
<text text-anchor="middle" x="233" y="-45.5" font-family="Helvetica,sans-Serif" font-size="10.00">xalanc::XalanSourceTreeDOMSupport</text>
</a>
</g>
</g>
<!-- Node1&#45;&gt;Node3 -->
<g id="edge2" class="edge"><title>Node1&#45;&gt;Node3</title>
<path fill="none" stroke="midnightblue" d="M117.508,-48C125.742,-48 134.3,-48 142.862,-48"/>
<polygon fill="midnightblue" stroke="midnightblue" points="117.275,-44.5001 107.275,-48 117.275,-51.5001 117.275,-44.5001"/>
</g>
<!-- Node5 -->
<g id="node5" class="node"><title>Node5</title>
<g id="a_node5"><a xlink:href="classxalanc_1_1XercesDOMSupport.html" target="_top" xlink:title=" ">
<polygon fill="none" stroke="black" points="164.5,-0.5 164.5,-19.5 301.5,-19.5 301.5,-0.5 164.5,-0.5"/>
<text text-anchor="middle" x="233" y="-7.5" font-family="Helvetica,sans-Serif" font-size="10.00">xalanc::XercesDOMSupport</text>
</a>
</g>
</g>
<!-- Node1&#45;&gt;Node5 -->
<g id="edge4" class="edge"><title>Node1&#45;&gt;Node5</title>
<path fill="none" stroke="midnightblue" d="M109.165,-36.2537C120.357,-33.8516 132.059,-31.3424 143,-29 157.368,-25.924 173.042,-22.5754 187.178,-19.5583"/>
<polygon fill="midnightblue" stroke="midnightblue" points="108.109,-32.9006 99.0661,-38.4217 109.578,-39.7447 108.109,-32.9006"/>
</g>
<!-- Node4 -->
<g id="node4" class="node"><title>Node4</title>
<g id="a_node4"><a xlink:href="classxalanc_1_1XalanDefaultParsedSourceDOMSupport.html" target="_top" xlink:title=" ">
<polygon fill="none" stroke="black" points="359,-33 359,-63 494,-63 494,-33 359,-33"/>
<text text-anchor="start" x="367" y="-51" font-family="Helvetica,sans-Serif" font-size="10.00">xalanc::XalanDefaultParsed</text>
<text text-anchor="middle" x="426.5" y="-40" font-family="Helvetica,sans-Serif" font-size="10.00">SourceDOMSupport</text>
</a>
</g>
</g>
<!-- Node3&#45;&gt;Node4 -->
<g id="edge3" class="edge"><title>Node3&#45;&gt;Node4</title>
<path fill="none" stroke="midnightblue" d="M333.176,-48C341.825,-48 350.437,-48 358.728,-48"/>
<polygon fill="midnightblue" stroke="midnightblue" points="333.023,-44.5001 323.023,-48 333.022,-51.5001 333.023,-44.5001"/>
</g>
</g>
</svg>
