<?xml version="1.0" encoding="UTF-8" standalone="no"?>
<!DOCTYPE svg PUBLIC "-//W3C//DTD SVG 1.1//EN"
 "http://www.w3.org/Graphics/SVG/1.1/DTD/svg11.dtd">
<!-- Generated by graphviz version 2.38.0 (20140413.2041)
 -->
<!-- Title: xalanc::XPathExceptionFunctionNotSupported Pages: 1 -->
<svg width="177pt" height="220pt"
 viewBox="0.00 0.00 177.00 220.00" xmlns="http://www.w3.org/2000/svg" xmlns:xlink="http://www.w3.org/1999/xlink">
<g id="graph0" class="graph" transform="scale(1 1) rotate(0) translate(4 216)">
<title>xalanc::XPathExceptionFunctionNotSupported</title>
<!-- Node1 -->
<g id="node1" class="node"><title>Node1</title>
<g id="a_node1"><a xlink:title="Exception class thrown when an installFunction() is called with a function name that is not supported...">
<polygon fill="#bfbfbf" stroke="black" points="0,-0.5 0,-30.5 158,-30.5 158,-0.5 0,-0.5"/>
<text text-anchor="start" x="8" y="-18.5" font-family="Helvetica,sans-Serif" font-size="10.00">xalanc::XPathExceptionFunction</text>
<text text-anchor="middle" x="79" y="-7.5" font-family="Helvetica,sans-Serif" font-size="10.00">NotSupported</text>
</a>
</g>
</g>
<!-- Node2 -->
<g id="node2" class="node"><title>Node2</title>
<g id="a_node2"><a xlink:href="classxalanc_1_1XalanXPathException.html" target="_top" xlink:title=" ">
<polygon fill="none" stroke="black" points="7.5,-68.5 7.5,-87.5 150.5,-87.5 150.5,-68.5 7.5,-68.5"/>
<text text-anchor="middle" x="79" y="-75.5" font-family="Helvetica,sans-Serif" font-size="10.00">xalanc::XalanXPathException</text>
</a>
</g>
</g>
<!-- Node2&#45;&gt;Node1 -->
<g id="edge1" class="edge"><title>Node2&#45;&gt;Node1</title>
<path fill="none" stroke="midnightblue" d="M79,-58.2154C79,-49.3565 79,-38.9577 79,-30.7587"/>
<polygon fill="midnightblue" stroke="midnightblue" points="75.5001,-58.3318 79,-68.3318 82.5001,-58.3319 75.5001,-58.3318"/>
</g>
<!-- Node3 -->
<g id="node3" class="node"><title>Node3</title>
<g id="a_node3"><a xlink:href="classxalanc_1_1XSLException.html" target="_top" xlink:title=" ">
<polygon fill="none" stroke="black" points="23,-125.5 23,-144.5 135,-144.5 135,-125.5 23,-125.5"/>
<text text-anchor="middle" x="79" y="-132.5" font-family="Helvetica,sans-Serif" font-size="10.00">xalanc::XSLException</text>
</a>
</g>
</g>
<!-- Node3&#45;&gt;Node2 -->
<g id="edge2" class="edge"><title>Node3&#45;&gt;Node2</title>
<path fill="none" stroke="midnightblue" d="M79,-115.117C79,-105.817 79,-95.0557 79,-87.7149"/>
<polygon fill="midnightblue" stroke="midnightblue" points="75.5001,-115.406 79,-125.406 82.5001,-115.406 75.5001,-115.406"/>
</g>
<!-- Node4 -->
<g id="node4" class="node"><title>Node4</title>
<g id="a_node4"><a xlink:title=" ">
<polygon fill="none" stroke="#bfbfbf" points="34.5,-192.5 34.5,-211.5 123.5,-211.5 123.5,-192.5 34.5,-192.5"/>
<text text-anchor="middle" x="79" y="-199.5" font-family="Helvetica,sans-Serif" font-size="10.00">MemoryManager</text>
</a>
</g>
</g>
<!-- Node4&#45;&gt;Node3 -->
<g id="edge3" class="edge"><title>Node4&#45;&gt;Node3</title>
<path fill="none" stroke="#9a32cd" stroke-dasharray="5,2" d="M79,-182.037C79,-169.67 79,-154.12 79,-144.627"/>
<polygon fill="#9a32cd" stroke="#9a32cd" points="75.5001,-182.234 79,-192.234 82.5001,-182.234 75.5001,-182.234"/>
<text text-anchor="middle" x="124" y="-166" font-family="Helvetica,sans-Serif" font-size="10.00"> m_memoryManager</text>
</g>
</g>
</svg>
