<?xml version="1.0" encoding="UTF-8" standalone="no"?>
<!DOCTYPE svg PUBLIC "-//W3C//DTD SVG 1.1//EN"
 "http://www.w3.org/Graphics/SVG/1.1/DTD/svg11.dtd">
<!-- Generated by graphviz version 2.38.0 (20140413.2041)
 -->
<!-- Title: xalanc::XSLTProcessorEnvSupportDefault Pages: 1 -->
<svg width="874pt" height="116pt"
 viewBox="0.00 0.00 874.00 115.50" xmlns="http://www.w3.org/2000/svg" xmlns:xlink="http://www.w3.org/1999/xlink">
<g id="graph0" class="graph" transform="scale(1 1) rotate(0) translate(4 111.5)">
<title>xalanc::XSLTProcessorEnvSupportDefault</title>
<!-- Node1 -->
<g id="node1" class="node"><title>Node1</title>
<g id="a_node1"><a xlink:title=" ">
<polygon fill="#bfbfbf" stroke="black" points="732,-33 732,-63 866,-63 866,-33 732,-33"/>
<text text-anchor="start" x="740" y="-51" font-family="Helvetica,sans-Serif" font-size="10.00">xalanc::XSLTProcessorEnv</text>
<text text-anchor="middle" x="799" y="-40" font-family="Helvetica,sans-Serif" font-size="10.00">SupportDefault</text>
</a>
</g>
</g>
<!-- Node2 -->
<g id="node2" class="node"><title>Node2</title>
<g id="a_node2"><a xlink:href="classxalanc_1_1XSLTProcessorEnvSupport.html" target="_top" xlink:title=" ">
<polygon fill="none" stroke="black" points="472,-77 472,-107 606,-107 606,-77 472,-77"/>
<text text-anchor="start" x="480" y="-95" font-family="Helvetica,sans-Serif" font-size="10.00">xalanc::XSLTProcessorEnv</text>
<text text-anchor="middle" x="539" y="-84" font-family="Helvetica,sans-Serif" font-size="10.00">Support</text>
</a>
</g>
</g>
<!-- Node2&#45;&gt;Node1 -->
<g id="edge1" class="edge"><title>Node2&#45;&gt;Node1</title>
<path fill="none" stroke="midnightblue" d="M616.247,-79.488C646.67,-74.4446 682.006,-68.5226 714,-63 719.839,-61.9921 725.905,-60.9329 731.983,-59.8631"/>
<polygon fill="midnightblue" stroke="midnightblue" points="615.424,-76.0766 606.13,-81.1629 616.568,-82.9826 615.424,-76.0766"/>
</g>
<!-- Node3 -->
<g id="node3" class="node"><title>Node3</title>
<g id="a_node3"><a xlink:href="classxalanc_1_1XPathEnvSupport.html" target="_top" xlink:title=" ">
<polygon fill="none" stroke="black" points="181,-38.5 181,-57.5 307,-57.5 307,-38.5 181,-38.5"/>
<text text-anchor="middle" x="244" y="-45.5" font-family="Helvetica,sans-Serif" font-size="10.00">xalanc::XPathEnvSupport</text>
</a>
</g>
</g>
<!-- Node3&#45;&gt;Node2 -->
<g id="edge2" class="edge"><title>Node3&#45;&gt;Node2</title>
<path fill="none" stroke="midnightblue" d="M308.124,-59.2485C313.827,-60.2036 319.516,-61.1342 325,-62 374.06,-69.7455 429.635,-77.5403 471.714,-83.2426"/>
<polygon fill="midnightblue" stroke="midnightblue" points="308.333,-55.7339 297.888,-57.5117 307.162,-62.6353 308.333,-55.7339"/>
</g>
<!-- Node5 -->
<g id="node5" class="node"><title>Node5</title>
<g id="a_node5"><a xlink:href="classxalanc_1_1XPathEnvSupportDefault.html" target="_top" xlink:title=" ">
<polygon fill="none" stroke="black" points="461,-38.5 461,-57.5 617,-57.5 617,-38.5 461,-38.5"/>
<text text-anchor="middle" x="539" y="-45.5" font-family="Helvetica,sans-Serif" font-size="10.00">xalanc::XPathEnvSupportDefault</text>
</a>
</g>
</g>
<!-- Node3&#45;&gt;Node5 -->
<g id="edge5" class="edge"><title>Node3&#45;&gt;Node5</title>
<path fill="none" stroke="midnightblue" d="M317.377,-48C360.951,-48 416.404,-48 460.814,-48"/>
<polygon fill="midnightblue" stroke="midnightblue" points="317.138,-44.5001 307.138,-48 317.138,-51.5001 317.138,-44.5001"/>
</g>
<!-- Node4 -->
<g id="node4" class="node"><title>Node4</title>
<g id="a_node4"><a xlink:href="classxalanc_1_1ProblemListenerBase.html" target="_top" xlink:title="This is the abstract class that is used when reporting a problem some kind, that requires a message,...">
<polygon fill="none" stroke="black" points="0,-15.5 0,-34.5 144,-34.5 144,-15.5 0,-15.5"/>
<text text-anchor="middle" x="72" y="-22.5" font-family="Helvetica,sans-Serif" font-size="10.00">xalanc::ProblemListenerBase</text>
</a>
</g>
</g>
<!-- Node4&#45;&gt;Node3 -->
<g id="edge3" class="edge"><title>Node4&#45;&gt;Node3</title>
<path fill="none" stroke="midnightblue" d="M153.792,-35.9307C162.846,-37.1557 171.964,-38.3893 180.734,-39.5758"/>
<polygon fill="midnightblue" stroke="midnightblue" points="153.997,-32.4267 143.618,-34.5543 153.059,-39.3635 153.997,-32.4267"/>
</g>
<!-- Node6 -->
<g id="node6" class="node"><title>Node6</title>
<g id="a_node6"><a xlink:href="classxalanc_1_1XSLTProcessor.html" target="_top" xlink:title="This is an interface for an XSLT Processor engine.">
<polygon fill="none" stroke="black" points="325,-0.5 325,-19.5 443,-19.5 443,-0.5 325,-0.5"/>
<text text-anchor="middle" x="384" y="-7.5" font-family="Helvetica,sans-Serif" font-size="10.00">xalanc::XSLTProcessor</text>
</a>
</g>
</g>
<!-- Node4&#45;&gt;Node6 -->
<g id="edge7" class="edge"><title>Node4&#45;&gt;Node6</title>
<path fill="none" stroke="midnightblue" d="M154.282,-21.067C207.88,-18.4736 276.807,-15.1384 324.922,-12.8102"/>
<polygon fill="midnightblue" stroke="midnightblue" points="153.939,-17.5794 144.12,-21.5587 154.278,-24.5712 153.939,-17.5794"/>
</g>
<!-- Node5&#45;&gt;Node1 -->
<g id="edge4" class="edge"><title>Node5&#45;&gt;Node1</title>
<path fill="none" stroke="#9a32cd" stroke-dasharray="5,2" d="M627.496,-48C661.614,-48 700.067,-48 731.809,-48"/>
<polygon fill="#9a32cd" stroke="#9a32cd" points="627.059,-44.5001 617.059,-48 627.059,-51.5001 627.059,-44.5001"/>
<text text-anchor="middle" x="674.5" y="-51" font-family="Helvetica,sans-Serif" font-size="10.00"> m_defaultSupport</text>
</g>
<!-- Node6&#45;&gt;Node1 -->
<g id="edge6" class="edge"><title>Node6&#45;&gt;Node1</title>
<path fill="none" stroke="#9a32cd" stroke-dasharray="5,2" d="M453.512,-10.0328C499.786,-10.6263 562.194,-12.5364 617,-18 655.193,-21.8074 697.533,-28.6773 731.655,-34.8831"/>
<polygon fill="#9a32cd" stroke="#9a32cd" points="453.338,-6.53071 443.3,-9.9197 453.26,-13.5303 453.338,-6.53071"/>
<text text-anchor="middle" x="539" y="-21" font-family="Helvetica,sans-Serif" font-size="10.00"> m_processor</text>
</g>
</g>
</svg>
