<?xml version="1.0" encoding="UTF-8" standalone="no"?>
<!DOCTYPE svg PUBLIC "-//W3C//DTD SVG 1.1//EN"
 "http://www.w3.org/Graphics/SVG/1.1/DTD/svg11.dtd">
<!-- Generated by graphviz version 2.38.0 (20140413.2041)
 -->
<!-- Title: xalanc::XalanCharacterData Pages: 1 -->
<svg width="829pt" height="306pt"
 viewBox="0.00 0.00 829.00 305.50" xmlns="http://www.w3.org/2000/svg" xmlns:xlink="http://www.w3.org/1999/xlink">
<g id="graph0" class="graph" transform="scale(1 1) rotate(0) translate(4 301.5)">
<title>xalanc::XalanCharacterData</title>
<!-- Node1 -->
<g id="node1" class="node"><title>Node1</title>
<g id="a_node1"><a xlink:title=" ">
<polygon fill="#bfbfbf" stroke="black" points="133,-164 133,-183 270,-183 270,-164 133,-164"/>
<text text-anchor="middle" x="201.5" y="-171" font-family="Helvetica,sans-Serif" font-size="10.00">xalanc::XalanCharacterData</text>
</a>
</g>
</g>
<!-- Node3 -->
<g id="node3" class="node"><title>Node3</title>
<g id="a_node3"><a xlink:href="classxalanc_1_1XalanComment.html" target="_top" xlink:title=" ">
<polygon fill="none" stroke="black" points="306,-221 306,-240 422,-240 422,-221 306,-221"/>
<text text-anchor="middle" x="364" y="-228" font-family="Helvetica,sans-Serif" font-size="10.00">xalanc::XalanComment</text>
</a>
</g>
</g>
<!-- Node1&#45;&gt;Node3 -->
<g id="edge2" class="edge"><title>Node1&#45;&gt;Node3</title>
<path fill="none" stroke="midnightblue" d="M238.904,-186.428C268.436,-196.916 309.398,-211.464 336.048,-220.928"/>
<polygon fill="midnightblue" stroke="midnightblue" points="239.959,-183.089 229.364,-183.041 237.616,-189.685 239.959,-183.089"/>
</g>
<!-- Node7 -->
<g id="node7" class="node"><title>Node7</title>
<g id="a_node7"><a xlink:href="classxalanc_1_1XalanText.html" target="_top" xlink:title=" ">
<polygon fill="none" stroke="black" points="317.5,-107 317.5,-126 410.5,-126 410.5,-107 317.5,-107"/>
<text text-anchor="middle" x="364" y="-114" font-family="Helvetica,sans-Serif" font-size="10.00">xalanc::XalanText</text>
</a>
</g>
</g>
<!-- Node1&#45;&gt;Node7 -->
<g id="edge6" class="edge"><title>Node1&#45;&gt;Node7</title>
<path fill="none" stroke="midnightblue" d="M238.904,-160.572C268.436,-150.084 309.398,-135.536 336.048,-126.072"/>
<polygon fill="midnightblue" stroke="midnightblue" points="237.616,-157.315 229.364,-163.959 239.959,-163.911 237.616,-157.315"/>
</g>
<!-- Node2 -->
<g id="node2" class="node"><title>Node2</title>
<g id="a_node2"><a xlink:href="classxalanc_1_1XalanNode.html" target="_top" xlink:title=" ">
<polygon fill="none" stroke="black" points="0,-164 0,-183 97,-183 97,-164 0,-164"/>
<text text-anchor="middle" x="48.5" y="-171" font-family="Helvetica,sans-Serif" font-size="10.00">xalanc::XalanNode</text>
</a>
</g>
</g>
<!-- Node2&#45;&gt;Node1 -->
<g id="edge1" class="edge"><title>Node2&#45;&gt;Node1</title>
<path fill="none" stroke="midnightblue" d="M107.305,-173.5C115.675,-173.5 124.353,-173.5 132.895,-173.5"/>
<polygon fill="midnightblue" stroke="midnightblue" points="107.277,-170 97.2773,-173.5 107.277,-177 107.277,-170"/>
</g>
<!-- Node4 -->
<g id="node4" class="node"><title>Node4</title>
<g id="a_node4"><a xlink:href="classxalanc_1_1XalanSourceTreeComment.html" target="_top" xlink:title=" ">
<polygon fill="none" stroke="black" points="458,-278 458,-297 624,-297 624,-278 458,-278"/>
<text text-anchor="middle" x="541" y="-285" font-family="Helvetica,sans-Serif" font-size="10.00">xalanc::XalanSourceTreeComment</text>
</a>
</g>
</g>
<!-- Node3&#45;&gt;Node4 -->
<g id="edge3" class="edge"><title>Node3&#45;&gt;Node4</title>
<path fill="none" stroke="midnightblue" d="M395.084,-244.227C413.076,-252.074 436.542,-261.679 458,-268.5 469.141,-272.042 481.327,-275.225 492.816,-277.929"/>
<polygon fill="midnightblue" stroke="midnightblue" points="396.261,-240.921 385.7,-240.078 393.43,-247.323 396.261,-240.921"/>
</g>
<!-- Node5 -->
<g id="node5" class="node"><title>Node5</title>
<g id="a_node5"><a xlink:href="classxalanc_1_1XercesCommentBridge.html" target="_top" xlink:title="This class is deprecated.">
<polygon fill="none" stroke="black" points="466,-240 466,-259 616,-259 616,-240 466,-240"/>
<text text-anchor="middle" x="541" y="-247" font-family="Helvetica,sans-Serif" font-size="10.00">xalanc::XercesCommentBridge</text>
</a>
</g>
</g>
<!-- Node3&#45;&gt;Node5 -->
<g id="edge4" class="edge"><title>Node3&#45;&gt;Node5</title>
<path fill="none" stroke="midnightblue" d="M432.285,-237.805C443.318,-239.003 454.805,-240.25 465.99,-241.465"/>
<polygon fill="midnightblue" stroke="midnightblue" points="432.621,-234.321 422.302,-236.721 431.865,-241.28 432.621,-234.321"/>
</g>
<!-- Node6 -->
<g id="node6" class="node"><title>Node6</title>
<g id="a_node6"><a xlink:href="classxalanc_1_1XercesCommentWrapper.html" target="_top" xlink:title=" ">
<polygon fill="none" stroke="black" points="461.5,-202 461.5,-221 620.5,-221 620.5,-202 461.5,-202"/>
<text text-anchor="middle" x="541" y="-209" font-family="Helvetica,sans-Serif" font-size="10.00">xalanc::XercesCommentWrapper</text>
</a>
</g>
</g>
<!-- Node3&#45;&gt;Node6 -->
<g id="edge5" class="edge"><title>Node3&#45;&gt;Node6</title>
<path fill="none" stroke="midnightblue" d="M432.406,-223.182C441.857,-222.155 451.64,-221.093 461.279,-220.047"/>
<polygon fill="midnightblue" stroke="midnightblue" points="431.865,-219.72 422.302,-224.279 432.621,-226.679 431.865,-219.72"/>
</g>
<!-- Node8 -->
<g id="node8" class="node"><title>Node8</title>
<g id="a_node8"><a xlink:href="classxalanc_1_1XalanCDATASection.html" target="_top" xlink:title=" ">
<polygon fill="none" stroke="black" points="471,-164 471,-183 611,-183 611,-164 471,-164"/>
<text text-anchor="middle" x="541" y="-171" font-family="Helvetica,sans-Serif" font-size="10.00">xalanc::XalanCDATASection</text>
</a>
</g>
</g>
<!-- Node7&#45;&gt;Node8 -->
<g id="edge7" class="edge"><title>Node7&#45;&gt;Node8</title>
<path fill="none" stroke="midnightblue" d="M395.084,-130.227C413.076,-138.074 436.542,-147.679 458,-154.5 469.141,-158.042 481.327,-161.225 492.816,-163.929"/>
<polygon fill="midnightblue" stroke="midnightblue" points="396.261,-126.921 385.7,-126.078 393.43,-133.323 396.261,-126.921"/>
</g>
<!-- Node11 -->
<g id="node11" class="node"><title>Node11</title>
<g id="a_node11"><a xlink:href="classxalanc_1_1XalanSourceTreeText.html" target="_top" xlink:title=" ">
<polygon fill="none" stroke="black" points="469.5,-126 469.5,-145 612.5,-145 612.5,-126 469.5,-126"/>
<text text-anchor="middle" x="541" y="-133" font-family="Helvetica,sans-Serif" font-size="10.00">xalanc::XalanSourceTreeText</text>
</a>
</g>
</g>
<!-- Node7&#45;&gt;Node11 -->
<g id="edge10" class="edge"><title>Node7&#45;&gt;Node11</title>
<path fill="none" stroke="midnightblue" d="M420.902,-122.569C436.283,-124.239 453.168,-126.073 469.267,-127.82"/>
<polygon fill="midnightblue" stroke="midnightblue" points="420.842,-119.042 410.522,-121.442 420.086,-126.001 420.842,-119.042"/>
</g>
<!-- Node13 -->
<g id="node13" class="node"><title>Node13</title>
<g id="a_node13"><a xlink:href="classxalanc_1_1XercesTextBridge.html" target="_top" xlink:title="This class is deprecated.">
<polygon fill="none" stroke="black" points="477.5,-88 477.5,-107 604.5,-107 604.5,-88 477.5,-88"/>
<text text-anchor="middle" x="541" y="-95" font-family="Helvetica,sans-Serif" font-size="10.00">xalanc::XercesTextBridge</text>
</a>
</g>
</g>
<!-- Node7&#45;&gt;Node13 -->
<g id="edge12" class="edge"><title>Node7&#45;&gt;Node13</title>
<path fill="none" stroke="midnightblue" d="M420.583,-110.465C438.612,-108.508 458.737,-106.323 477.251,-104.313"/>
<polygon fill="midnightblue" stroke="midnightblue" points="420.086,-106.999 410.522,-111.558 420.842,-113.958 420.086,-106.999"/>
</g>
<!-- Node14 -->
<g id="node14" class="node"><title>Node14</title>
<g id="a_node14"><a xlink:href="classxalanc_1_1XercesTextWrapper.html" target="_top" xlink:title=" ">
<polygon fill="none" stroke="black" points="473,-50 473,-69 609,-69 609,-50 473,-50"/>
<text text-anchor="middle" x="541" y="-57" font-family="Helvetica,sans-Serif" font-size="10.00">xalanc::XercesTextWrapper</text>
</a>
</g>
</g>
<!-- Node7&#45;&gt;Node14 -->
<g id="edge13" class="edge"><title>Node7&#45;&gt;Node14</title>
<path fill="none" stroke="midnightblue" d="M395.084,-102.773C413.076,-94.9262 436.542,-85.3214 458,-78.5 469.141,-74.9582 481.327,-71.7746 492.816,-69.0712"/>
<polygon fill="midnightblue" stroke="midnightblue" points="393.43,-99.677 385.7,-106.922 396.261,-106.079 393.43,-99.677"/>
</g>
<!-- Node15 -->
<g id="node15" class="node"><title>Node15</title>
<g id="a_node15"><a xlink:href="classxalanc_1_1XObjectResultTreeFragProxyText.html" target="_top" xlink:title=" ">
<polygon fill="none" stroke="black" points="475.5,-0.5 475.5,-30.5 606.5,-30.5 606.5,-0.5 475.5,-0.5"/>
<text text-anchor="start" x="483.5" y="-18.5" font-family="Helvetica,sans-Serif" font-size="10.00">xalanc::XObjectResultTree</text>
<text text-anchor="middle" x="541" y="-7.5" font-family="Helvetica,sans-Serif" font-size="10.00">FragProxyText</text>
</a>
</g>
</g>
<!-- Node7&#45;&gt;Node15 -->
<g id="edge14" class="edge"><title>Node7&#45;&gt;Node15</title>
<path fill="none" stroke="midnightblue" d="M381.303,-99.7731C398.817,-82.6738 428.174,-56.4295 458,-40.5 465.089,-36.7139 472.836,-33.4126 480.648,-30.5602"/>
<polygon fill="midnightblue" stroke="midnightblue" points="378.747,-97.3797 374.131,-106.916 383.686,-102.34 378.747,-97.3797"/>
</g>
<!-- Node9 -->
<g id="node9" class="node"><title>Node9</title>
<g id="a_node9"><a xlink:href="classxalanc_1_1XercesCDATASectionBridge.html" target="_top" xlink:title="This class is deprecated.">
<polygon fill="none" stroke="black" points="667.5,-207.5 667.5,-237.5 813.5,-237.5 813.5,-207.5 667.5,-207.5"/>
<text text-anchor="start" x="675.5" y="-225.5" font-family="Helvetica,sans-Serif" font-size="10.00">xalanc::XercesCDATASection</text>
<text text-anchor="middle" x="740.5" y="-214.5" font-family="Helvetica,sans-Serif" font-size="10.00">Bridge</text>
</a>
</g>
</g>
<!-- Node8&#45;&gt;Node9 -->
<g id="edge8" class="edge"><title>Node8&#45;&gt;Node9</title>
<path fill="none" stroke="midnightblue" d="M593.994,-185.329C603.965,-187.659 614.314,-190.12 624,-192.5 643.214,-197.22 664.166,-202.594 682.885,-207.476"/>
<polygon fill="midnightblue" stroke="midnightblue" points="594.721,-181.905 584.188,-183.05 593.136,-188.723 594.721,-181.905"/>
</g>
<!-- Node10 -->
<g id="node10" class="node"><title>Node10</title>
<g id="a_node10"><a xlink:href="classxalanc_1_1XercesCDATASectionWrapper.html" target="_top" xlink:title=" ">
<polygon fill="none" stroke="black" points="667.5,-158.5 667.5,-188.5 813.5,-188.5 813.5,-158.5 667.5,-158.5"/>
<text text-anchor="start" x="675.5" y="-176.5" font-family="Helvetica,sans-Serif" font-size="10.00">xalanc::XercesCDATASection</text>
<text text-anchor="middle" x="740.5" y="-165.5" font-family="Helvetica,sans-Serif" font-size="10.00">Wrapper</text>
</a>
</g>
</g>
<!-- Node8&#45;&gt;Node10 -->
<g id="edge9" class="edge"><title>Node8&#45;&gt;Node10</title>
<path fill="none" stroke="midnightblue" d="M621.476,-173.5C636.671,-173.5 652.5,-173.5 667.447,-173.5"/>
<polygon fill="midnightblue" stroke="midnightblue" points="621.076,-170 611.076,-173.5 621.076,-177 621.076,-170"/>
</g>
<!-- Node12 -->
<g id="node12" class="node"><title>Node12</title>
<g id="a_node12"><a xlink:href="classxalanc_1_1XalanSourceTreeTextIWS.html" target="_top" xlink:title=" ">
<polygon fill="none" stroke="black" points="660,-120 660,-139 821,-139 821,-120 660,-120"/>
<text text-anchor="middle" x="740.5" y="-127" font-family="Helvetica,sans-Serif" font-size="10.00">xalanc::XalanSourceTreeTextIWS</text>
</a>
</g>
</g>
<!-- Node11&#45;&gt;Node12 -->
<g id="edge11" class="edge"><title>Node11&#45;&gt;Node12</title>
<path fill="none" stroke="midnightblue" d="M622.891,-133.043C635.096,-132.672 647.678,-132.29 659.856,-131.92"/>
<polygon fill="midnightblue" stroke="midnightblue" points="622.633,-129.549 612.744,-133.351 622.846,-136.545 622.633,-129.549"/>
</g>
</g>
</svg>
