<?xml version="1.0" encoding="UTF-8" standalone="no"?>
<!DOCTYPE svg PUBLIC "-//W3C//DTD SVG 1.1//EN"
 "http://www.w3.org/Graphics/SVG/1.1/DTD/svg11.dtd">
<!-- Generated by graphviz version 2.38.0 (20140413.2041)
 -->
<!-- Title: xalanc::FormatterToDeprecatedXercesDOM Pages: 1 -->
<svg width="161pt" height="151pt"
 viewBox="0.00 0.00 161.00 151.00" xmlns="http://www.w3.org/2000/svg" xmlns:xlink="http://www.w3.org/1999/xlink">
<g id="graph0" class="graph" transform="scale(1 1) rotate(0) translate(4 147)">
<title>xalanc::FormatterToDeprecatedXercesDOM</title>
<!-- Node1 -->
<g id="node1" class="node"><title>Node1</title>
<g id="a_node1"><a xlink:title="This class takes SAX events (in addition to some extra events that SAX doesn&#39;t handle yet) and adds t...">
<polygon fill="#bfbfbf" stroke="black" points="0,-0.5 0,-30.5 153,-30.5 153,-0.5 0,-0.5"/>
<text text-anchor="start" x="8" y="-18.5" font-family="Helvetica,sans-Serif" font-size="10.00">xalanc::FormatterToDeprecated</text>
<text text-anchor="middle" x="76.5" y="-7.5" font-family="Helvetica,sans-Serif" font-size="10.00">XercesDOM</text>
</a>
</g>
</g>
<!-- Node2 -->
<g id="node2" class="node"><title>Node2</title>
<g id="a_node2"><a xlink:href="classxalanc_1_1FormatterListener.html" target="_top" xlink:title="A SAX&#45;based formatter interface for the XSL processor.">
<polygon fill="none" stroke="black" points="12.5,-67.5 12.5,-86.5 140.5,-86.5 140.5,-67.5 12.5,-67.5"/>
<text text-anchor="middle" x="76.5" y="-74.5" font-family="Helvetica,sans-Serif" font-size="10.00">xalanc::FormatterListener</text>
</a>
</g>
</g>
<!-- Node2&#45;&gt;Node1 -->
<g id="edge1" class="edge"><title>Node2&#45;&gt;Node1</title>
<path fill="none" stroke="midnightblue" d="M76.5,-57.2349C76.5,-48.5864 76.5,-38.4969 76.5,-30.523"/>
<polygon fill="midnightblue" stroke="midnightblue" points="73.0001,-57.4751 76.5,-67.4751 80.0001,-57.4751 73.0001,-57.4751"/>
</g>
<!-- Node3 -->
<g id="node3" class="node"><title>Node3</title>
<g id="a_node3"><a xlink:title=" ">
<polygon fill="none" stroke="#bfbfbf" points="9.5,-123.5 9.5,-142.5 143.5,-142.5 143.5,-123.5 9.5,-123.5"/>
<text text-anchor="middle" x="76.5" y="-130.5" font-family="Helvetica,sans-Serif" font-size="10.00">xercesc::DocumentHandler</text>
</a>
</g>
</g>
<!-- Node3&#45;&gt;Node2 -->
<g id="edge2" class="edge"><title>Node3&#45;&gt;Node2</title>
<path fill="none" stroke="midnightblue" d="M76.5,-112.805C76.5,-103.91 76.5,-93.7798 76.5,-86.7511"/>
<polygon fill="midnightblue" stroke="midnightblue" points="73.0001,-113.083 76.5,-123.083 80.0001,-113.083 73.0001,-113.083"/>
</g>
</g>
</svg>
