<?xml version="1.0" encoding="UTF-8" standalone="no"?>
<!DOCTYPE svg PUBLIC "-//W3C//DTD SVG 1.1//EN"
 "http://www.w3.org/Graphics/SVG/1.1/DTD/svg11.dtd">
<!-- Generated by graphviz version 2.38.0 (20140413.2041)
 -->
<!-- Title: xalanc::ProblemListener Pages: 1 -->
<svg width="304pt" height="151pt"
 viewBox="0.00 0.00 303.50 151.00" xmlns="http://www.w3.org/2000/svg" xmlns:xlink="http://www.w3.org/1999/xlink">
<g id="graph0" class="graph" transform="scale(1 1) rotate(0) translate(4 147)">
<title>xalanc::ProblemListener</title>
<!-- Node1 -->
<g id="node1" class="node"><title>Node1</title>
<g id="a_node1"><a xlink:title="This is the abstract class that the XSL processor uses when it has a problem of some kind,...">
<polygon fill="#bfbfbf" stroke="black" points="93,-67.5 93,-86.5 215,-86.5 215,-67.5 93,-67.5"/>
<text text-anchor="middle" x="154" y="-74.5" font-family="Helvetica,sans-Serif" font-size="10.00">xalanc::ProblemListener</text>
</a>
</g>
</g>
<!-- Node3 -->
<g id="node3" class="node"><title>Node3</title>
<g id="a_node3"><a xlink:href="classxalanc_1_1ProblemListenerDefault.html" target="_top" xlink:title="The implementation of the default error handling for Xalan.">
<polygon fill="none" stroke="black" points="0,-6 0,-25 152,-25 152,-6 0,-6"/>
<text text-anchor="middle" x="76" y="-13" font-family="Helvetica,sans-Serif" font-size="10.00">xalanc::ProblemListenerDefault</text>
</a>
</g>
</g>
<!-- Node1&#45;&gt;Node3 -->
<g id="edge2" class="edge"><title>Node1&#45;&gt;Node3</title>
<path fill="none" stroke="midnightblue" d="M134.721,-61.2938C119.759,-49.8803 99.5411,-34.4577 87.1548,-25.0091"/>
<polygon fill="midnightblue" stroke="midnightblue" points="132.751,-64.1928 142.825,-67.4751 136.996,-58.6272 132.751,-64.1928"/>
</g>
<!-- Node4 -->
<g id="node4" class="node"><title>Node4</title>
<g id="a_node4"><a xlink:href="classxalanc_1_1XalanTransformerProblemListener.html" target="_top" xlink:title=" ">
<polygon fill="none" stroke="black" points="170.5,-0.5 170.5,-30.5 295.5,-30.5 295.5,-0.5 170.5,-0.5"/>
<text text-anchor="start" x="178.5" y="-18.5" font-family="Helvetica,sans-Serif" font-size="10.00">xalanc::XalanTransformer</text>
<text text-anchor="middle" x="233" y="-7.5" font-family="Helvetica,sans-Serif" font-size="10.00">ProblemListener</text>
</a>
</g>
</g>
<!-- Node1&#45;&gt;Node4 -->
<g id="edge3" class="edge"><title>Node1&#45;&gt;Node4</title>
<path fill="none" stroke="midnightblue" d="M173.656,-61.1955C186.114,-51.8129 202.129,-39.7512 214.381,-30.523"/>
<polygon fill="midnightblue" stroke="midnightblue" points="171.201,-58.6631 165.319,-67.4751 175.412,-64.2547 171.201,-58.6631"/>
</g>
<!-- Node2 -->
<g id="node2" class="node"><title>Node2</title>
<g id="a_node2"><a xlink:href="classxalanc_1_1ProblemListenerBase.html" target="_top" xlink:title="This is the abstract class that is used when reporting a problem some kind, that requires a message,...">
<polygon fill="none" stroke="black" points="82,-123.5 82,-142.5 226,-142.5 226,-123.5 82,-123.5"/>
<text text-anchor="middle" x="154" y="-130.5" font-family="Helvetica,sans-Serif" font-size="10.00">xalanc::ProblemListenerBase</text>
</a>
</g>
</g>
<!-- Node2&#45;&gt;Node1 -->
<g id="edge1" class="edge"><title>Node2&#45;&gt;Node1</title>
<path fill="none" stroke="midnightblue" d="M154,-112.805C154,-103.91 154,-93.7798 154,-86.7511"/>
<polygon fill="midnightblue" stroke="midnightblue" points="150.5,-113.083 154,-123.083 157.5,-113.083 150.5,-113.083"/>
</g>
</g>
</svg>
