<?xml version="1.0" encoding="UTF-8" standalone="no"?>
<!DOCTYPE svg PUBLIC "-//W3C//DTD SVG 1.1//EN"
 "http://www.w3.org/Graphics/SVG/1.1/DTD/svg11.dtd">
<!-- Generated by graphviz version 2.43.0 (0)
 -->
<!-- Title: xalanc::NodeRefList Pages: 1 -->
<svg width="309pt" height="184pt"
 viewBox="0.00 0.00 309.00 184.00" xmlns="http://www.w3.org/2000/svg" xmlns:xlink="http://www.w3.org/1999/xlink">
<g id="graph0" class="graph" transform="scale(1 1) rotate(0) translate(4 180)">
<title>xalanc::NodeRefList</title>
<!-- Node1 -->
<g id="node1" class="node">
<title>Node1</title>
<g id="a_node1"><a xlink:title="Local implementation of NodeRefList.">
<polygon fill="#bfbfbf" stroke="black" points="28,-0.5 28,-19.5 142,-19.5 142,-0.5 28,-0.5"/>
<text text-anchor="middle" x="85" y="-7.5" font-family="Helvetica,sans-Serif" font-size="10.00">xalanc::NodeRefList</text>
</a>
</g>
</g>
<!-- Node2 -->
<g id="node2" class="node">
<title>Node2</title>
<g id="a_node2"><a xlink:href="classxalanc_1_1NodeRefListBase.html" target="_top" xlink:title="Local implementation of NodeRefList.">
<polygon fill="none" stroke="black" points="0,-73 0,-92 138,-92 138,-73 0,-73"/>
<text text-anchor="middle" x="69" y="-80" font-family="Helvetica,sans-Serif" font-size="10.00">xalanc::NodeRefListBase</text>
</a>
</g>
</g>
<!-- Node2&#45;&gt;Node1 -->
<g id="edge1" class="edge">
<title>Node2&#45;&gt;Node1</title>
<path fill="none" stroke="midnightblue" d="M73.23,-62.86C76.4,-48.9 80.59,-30.43 83.02,-19.72"/>
<polygon fill="midnightblue" stroke="midnightblue" points="69.76,-62.33 70.96,-72.86 76.59,-63.88 69.76,-62.33"/>
</g>
<!-- Node3 -->
<g id="node3" class="node">
<title>Node3</title>
<g id="a_node3"><a xlink:href="classxalanc_1_1XalanVector.html" target="_top" xlink:title=" ">
<polygon fill="none" stroke="black" points="156.5,-67.5 156.5,-97.5 269.5,-97.5 269.5,-67.5 156.5,-67.5"/>
<text text-anchor="start" x="164.5" y="-85.5" font-family="Helvetica,sans-Serif" font-size="10.00">xalanc::XalanVector</text>
<text text-anchor="middle" x="213" y="-74.5" font-family="Helvetica,sans-Serif" font-size="10.00">&lt; XalanNode * &gt;</text>
</a>
</g>
</g>
<!-- Node3&#45;&gt;Node1 -->
<g id="edge2" class="edge">
<title>Node3&#45;&gt;Node1</title>
<path fill="none" stroke="#9a32cd" stroke-dasharray="5,2" d="M178.44,-62.47C153.03,-48.47 119.71,-30.12 100.49,-19.53"/>
<polygon fill="#9a32cd" stroke="#9a32cd" points="176.96,-65.64 187.4,-67.4 180.33,-59.51 176.96,-65.64"/>
<text text-anchor="middle" x="182" y="-41" font-family="Helvetica,sans-Serif" font-size="10.00"> m_nodeList</text>
</g>
<!-- Node4 -->
<g id="node4" class="node">
<title>Node4</title>
<g id="a_node4"><a xlink:href="classxalanc_1_1XalanVector.html" target="_top" xlink:title=" ">
<polygon fill="none" stroke="black" points="135.5,-145.5 135.5,-175.5 290.5,-175.5 290.5,-145.5 135.5,-145.5"/>
<text text-anchor="start" x="143.5" y="-163.5" font-family="Helvetica,sans-Serif" font-size="10.00">xalanc::XalanVector</text>
<text text-anchor="middle" x="213" y="-152.5" font-family="Helvetica,sans-Serif" font-size="10.00">&lt; Type, ConstructionTraits &gt;</text>
</a>
</g>
</g>
<!-- Node4&#45;&gt;Node3 -->
<g id="edge3" class="edge">
<title>Node4&#45;&gt;Node3</title>
<path fill="none" stroke="orange" stroke-dasharray="5,2" d="M213,-135.09C213,-122.76 213,-108.22 213,-97.73"/>
<polygon fill="orange" stroke="orange" points="209.5,-135.2 213,-145.2 216.5,-135.21 209.5,-135.2"/>
<text text-anchor="middle" x="257" y="-119" font-family="Helvetica,sans-Serif" font-size="10.00"> &lt; XalanNode * &gt;</text>
</g>
</g>
</svg>
