<?xml version="1.0" encoding="UTF-8" standalone="no"?>
<!DOCTYPE svg PUBLIC "-//W3C//DTD SVG 1.1//EN"
 "http://www.w3.org/Graphics/SVG/1.1/DTD/svg11.dtd">
<!-- Generated by graphviz version 2.38.0 (20140413.2041)
 -->
<!-- Title: xalanc::XPathEnvSupport Pages: 1 -->
<svg width="316pt" height="218pt"
 viewBox="0.00 0.00 316.00 218.00" xmlns="http://www.w3.org/2000/svg" xmlns:xlink="http://www.w3.org/1999/xlink">
<g id="graph0" class="graph" transform="scale(1 1) rotate(0) translate(4 214)">
<title>xalanc::XPathEnvSupport</title>
<!-- Node1 -->
<g id="node1" class="node"><title>Node1</title>
<g id="a_node1"><a xlink:title=" ">
<polygon fill="#bfbfbf" stroke="black" points="96,-134.5 96,-153.5 222,-153.5 222,-134.5 96,-134.5"/>
<text text-anchor="middle" x="159" y="-141.5" font-family="Helvetica,sans-Serif" font-size="10.00">xalanc::XPathEnvSupport</text>
</a>
</g>
</g>
<!-- Node3 -->
<g id="node3" class="node"><title>Node3</title>
<g id="a_node3"><a xlink:href="classxalanc_1_1XPathEnvSupportDefault.html" target="_top" xlink:title=" ">
<polygon fill="none" stroke="black" points="0,-73 0,-92 156,-92 156,-73 0,-73"/>
<text text-anchor="middle" x="78" y="-80" font-family="Helvetica,sans-Serif" font-size="10.00">xalanc::XPathEnvSupportDefault</text>
</a>
</g>
</g>
<!-- Node1&#45;&gt;Node3 -->
<g id="edge2" class="edge"><title>Node1&#45;&gt;Node3</title>
<path fill="none" stroke="midnightblue" d="M138.98,-128.294C123.442,-116.88 102.447,-101.458 89.5838,-92.0091"/>
<polygon fill="midnightblue" stroke="midnightblue" points="137.263,-131.376 147.395,-134.475 141.407,-125.734 137.263,-131.376"/>
</g>
<!-- Node4 -->
<g id="node4" class="node"><title>Node4</title>
<g id="a_node4"><a xlink:href="classxalanc_1_1XSLTProcessorEnvSupport.html" target="_top" xlink:title=" ">
<polygon fill="none" stroke="black" points="174,-67.5 174,-97.5 308,-97.5 308,-67.5 174,-67.5"/>
<text text-anchor="start" x="182" y="-85.5" font-family="Helvetica,sans-Serif" font-size="10.00">xalanc::XSLTProcessorEnv</text>
<text text-anchor="middle" x="241" y="-74.5" font-family="Helvetica,sans-Serif" font-size="10.00">Support</text>
</a>
</g>
</g>
<!-- Node1&#45;&gt;Node4 -->
<g id="edge3" class="edge"><title>Node1&#45;&gt;Node4</title>
<path fill="none" stroke="midnightblue" d="M179.027,-128.468C192.01,-119.047 208.833,-106.841 221.674,-97.523"/>
<polygon fill="midnightblue" stroke="midnightblue" points="176.787,-125.769 170.749,-134.475 180.898,-131.435 176.787,-125.769"/>
</g>
<!-- Node2 -->
<g id="node2" class="node"><title>Node2</title>
<g id="a_node2"><a xlink:href="classxalanc_1_1ProblemListenerBase.html" target="_top" xlink:title="This is the abstract class that is used when reporting a problem some kind, that requires a message,...">
<polygon fill="none" stroke="black" points="87,-190.5 87,-209.5 231,-209.5 231,-190.5 87,-190.5"/>
<text text-anchor="middle" x="159" y="-197.5" font-family="Helvetica,sans-Serif" font-size="10.00">xalanc::ProblemListenerBase</text>
</a>
</g>
</g>
<!-- Node2&#45;&gt;Node1 -->
<g id="edge1" class="edge"><title>Node2&#45;&gt;Node1</title>
<path fill="none" stroke="midnightblue" d="M159,-179.805C159,-170.91 159,-160.78 159,-153.751"/>
<polygon fill="midnightblue" stroke="midnightblue" points="155.5,-180.083 159,-190.083 162.5,-180.083 155.5,-180.083"/>
</g>
<!-- Node5 -->
<g id="node5" class="node"><title>Node5</title>
<g id="a_node5"><a xlink:href="classxalanc_1_1XSLTProcessorEnvSupportDefault.html" target="_top" xlink:title=" ">
<polygon fill="none" stroke="black" points="174,-0.5 174,-30.5 308,-30.5 308,-0.5 174,-0.5"/>
<text text-anchor="start" x="182" y="-18.5" font-family="Helvetica,sans-Serif" font-size="10.00">xalanc::XSLTProcessorEnv</text>
<text text-anchor="middle" x="241" y="-7.5" font-family="Helvetica,sans-Serif" font-size="10.00">SupportDefault</text>
</a>
</g>
</g>
<!-- Node4&#45;&gt;Node5 -->
<g id="edge4" class="edge"><title>Node4&#45;&gt;Node5</title>
<path fill="none" stroke="midnightblue" d="M241,-57.1081C241,-48.1539 241,-38.3227 241,-30.5765"/>
<polygon fill="midnightblue" stroke="midnightblue" points="237.5,-57.3959 241,-67.396 244.5,-57.396 237.5,-57.3959"/>
</g>
</g>
</svg>
