<?xml version="1.0" encoding="UTF-8" standalone="no"?>
<!DOCTYPE svg PUBLIC "-//W3C//DTD SVG 1.1//EN"
 "http://www.w3.org/Graphics/SVG/1.1/DTD/svg11.dtd">
<!-- Generated by graphviz version 2.43.0 (0)
 -->
<!-- Title: xalanc::XStringBase Pages: 1 -->
<svg width="651pt" height="180pt"
 viewBox="0.00 0.00 651.00 180.00" xmlns="http://www.w3.org/2000/svg" xmlns:xlink="http://www.w3.org/1999/xlink">
<g id="graph0" class="graph" transform="scale(1 1) rotate(0) translate(4 176)">
<title>xalanc::XStringBase</title>
<!-- Node1 -->
<g id="node1" class="node">
<title>Node1</title>
<g id="a_node1"><a xlink:title=" ">
<polygon fill="#bfbfbf" stroke="black" points="337,-76.5 337,-95.5 451,-95.5 451,-76.5 337,-76.5"/>
<text text-anchor="middle" x="394" y="-83.5" font-family="Helvetica,sans-Serif" font-size="10.00">xalanc::XStringBase</text>
</a>
</g>
</g>
<!-- Node4 -->
<g id="node4" class="node">
<title>Node4</title>
<g id="a_node4"><a xlink:href="classxalanc_1_1XString.html" target="_top" xlink:title=" ">
<polygon fill="none" stroke="black" points="520,-152.5 520,-171.5 610,-171.5 610,-152.5 520,-152.5"/>
<text text-anchor="middle" x="565" y="-159.5" font-family="Helvetica,sans-Serif" font-size="10.00">xalanc::XString</text>
</a>
</g>
</g>
<!-- Node1&#45;&gt;Node4 -->
<g id="edge3" class="edge">
<title>Node1&#45;&gt;Node4</title>
<path fill="none" stroke="midnightblue" d="M416.25,-101.85C434.25,-114.61 461.19,-132.14 487,-143 497.28,-147.33 508.76,-150.82 519.66,-153.57"/>
<polygon fill="midnightblue" stroke="midnightblue" points="417.86,-98.7 407.7,-95.68 413.76,-104.37 417.86,-98.7"/>
</g>
<!-- Node5 -->
<g id="node5" class="node">
<title>Node5</title>
<g id="a_node5"><a xlink:href="classxalanc_1_1XStringAdapter.html" target="_top" xlink:title=" ">
<polygon fill="none" stroke="black" points="501,-114.5 501,-133.5 629,-133.5 629,-114.5 501,-114.5"/>
<text text-anchor="middle" x="565" y="-121.5" font-family="Helvetica,sans-Serif" font-size="10.00">xalanc::XStringAdapter</text>
</a>
</g>
</g>
<!-- Node1&#45;&gt;Node5 -->
<g id="edge4" class="edge">
<title>Node1&#45;&gt;Node5</title>
<path fill="none" stroke="midnightblue" d="M447.59,-97.82C471.41,-103.18 499.21,-109.43 521.66,-114.48"/>
<polygon fill="midnightblue" stroke="midnightblue" points="448.17,-94.37 437.65,-95.59 446.63,-101.2 448.17,-94.37"/>
</g>
<!-- Node6 -->
<g id="node6" class="node">
<title>Node6</title>
<g id="a_node6"><a xlink:href="classxalanc_1_1XStringCached.html" target="_top" xlink:title=" ">
<polygon fill="none" stroke="black" points="502,-76.5 502,-95.5 628,-95.5 628,-76.5 502,-76.5"/>
<text text-anchor="middle" x="565" y="-83.5" font-family="Helvetica,sans-Serif" font-size="10.00">xalanc::XStringCached</text>
</a>
</g>
</g>
<!-- Node1&#45;&gt;Node6 -->
<g id="edge5" class="edge">
<title>Node1&#45;&gt;Node6</title>
<path fill="none" stroke="midnightblue" d="M461.33,-86C474.68,-86 488.66,-86 501.86,-86"/>
<polygon fill="midnightblue" stroke="midnightblue" points="461.27,-82.5 451.27,-86 461.27,-89.5 461.27,-82.5"/>
</g>
<!-- Node7 -->
<g id="node7" class="node">
<title>Node7</title>
<g id="a_node7"><a xlink:href="classxalanc_1_1XStringReference.html" target="_top" xlink:title=" ">
<polygon fill="none" stroke="black" points="495,-38.5 495,-57.5 635,-57.5 635,-38.5 495,-38.5"/>
<text text-anchor="middle" x="565" y="-45.5" font-family="Helvetica,sans-Serif" font-size="10.00">xalanc::XStringReference</text>
</a>
</g>
</g>
<!-- Node1&#45;&gt;Node7 -->
<g id="edge6" class="edge">
<title>Node1&#45;&gt;Node7</title>
<path fill="none" stroke="midnightblue" d="M447.59,-74.18C471.41,-68.82 499.21,-62.57 521.66,-57.52"/>
<polygon fill="midnightblue" stroke="midnightblue" points="446.63,-70.8 437.65,-76.41 448.17,-77.63 446.63,-70.8"/>
</g>
<!-- Node8 -->
<g id="node8" class="node">
<title>Node8</title>
<g id="a_node8"><a xlink:href="classxalanc_1_1XTokenStringAdapter.html" target="_top" xlink:title=" ">
<polygon fill="none" stroke="black" points="487,-0.5 487,-19.5 643,-19.5 643,-0.5 487,-0.5"/>
<text text-anchor="middle" x="565" y="-7.5" font-family="Helvetica,sans-Serif" font-size="10.00">xalanc::XTokenStringAdapter</text>
</a>
</g>
</g>
<!-- Node1&#45;&gt;Node8 -->
<g id="edge7" class="edge">
<title>Node1&#45;&gt;Node8</title>
<path fill="none" stroke="midnightblue" d="M416.25,-70.15C434.25,-57.39 461.19,-39.86 487,-29 495.88,-25.26 505.67,-22.15 515.19,-19.59"/>
<polygon fill="midnightblue" stroke="midnightblue" points="413.76,-67.63 407.7,-76.32 417.86,-73.3 413.76,-67.63"/>
</g>
<!-- Node2 -->
<g id="node2" class="node">
<title>Node2</title>
<g id="a_node2"><a xlink:href="classxalanc_1_1XObject.html" target="_top" xlink:title="Class to hold XPath return types.">
<polygon fill="none" stroke="black" points="209,-76.5 209,-95.5 301,-95.5 301,-76.5 209,-76.5"/>
<text text-anchor="middle" x="255" y="-83.5" font-family="Helvetica,sans-Serif" font-size="10.00">xalanc::XObject</text>
</a>
</g>
</g>
<!-- Node2&#45;&gt;Node1 -->
<g id="edge1" class="edge">
<title>Node2&#45;&gt;Node1</title>
<path fill="none" stroke="midnightblue" d="M311.31,-86C319.72,-86 328.39,-86 336.81,-86"/>
<polygon fill="midnightblue" stroke="midnightblue" points="311.24,-82.5 301.24,-86 311.24,-89.5 311.24,-82.5"/>
</g>
<!-- Node3 -->
<g id="node3" class="node">
<title>Node3</title>
<g id="a_node3"><a xlink:href="classxalanc_1_1XalanReferenceCountedObject.html" target="_top" xlink:title="Class to hold reference count information.">
<polygon fill="none" stroke="black" points="0,-71 0,-101 173,-101 173,-71 0,-71"/>
<text text-anchor="start" x="8" y="-89" font-family="Helvetica,sans-Serif" font-size="10.00">xalanc::XalanReferenceCounted</text>
<text text-anchor="middle" x="86.5" y="-78" font-family="Helvetica,sans-Serif" font-size="10.00">Object</text>
</a>
</g>
</g>
<!-- Node3&#45;&gt;Node2 -->
<g id="edge2" class="edge">
<title>Node3&#45;&gt;Node2</title>
<path fill="none" stroke="darkgreen" d="M183.22,-86C192.05,-86 200.68,-86 208.72,-86"/>
<polygon fill="darkgreen" stroke="darkgreen" points="183.19,-82.5 173.19,-86 183.19,-89.5 183.19,-82.5"/>
</g>
</g>
</svg>
