<?xml version="1.0" encoding="UTF-8" standalone="no"?>
<!DOCTYPE svg PUBLIC "-//W3C//DTD SVG 1.1//EN"
 "http://www.w3.org/Graphics/SVG/1.1/DTD/svg11.dtd">
<!-- Generated by graphviz version 2.38.0 (20140413.2041)
 -->
<!-- Title: xalanc::StylesheetRoot Pages: 1 -->
<!--zoomable 249 -->
<svg id="main" version="1.1" xmlns="http://www.w3.org/2000/svg" xmlns:xlink="http://www.w3.org/1999/xlink" xml:space="preserve" onload="init(evt)">
<style type="text/css"><![CDATA[
.edge:hover path { stroke: red; }
.edge:hover polygon { stroke: red; fill: red; }
]]></style>
<script type="text/javascript"><![CDATA[
var edges = document.getElementsByTagName('g');
if (edges && edges.length) {
  for (var i=0;i<edges.length;i++) {
    if (edges[i].id.substr(0,4)=='edge') {
      edges[i].setAttribute('class','edge');
    }
  }
}
]]></script>
        <defs>
                <circle id="rim" cx="0" cy="0" r="7"/>
                <circle id="rim2" cx="0" cy="0" r="3.5"/>
                <g id="zoomPlus">
                        <use xlink:href="#rim" fill="#404040">
                                <set attributeName="fill" to="#808080" begin="zoomplus.mouseover" end="zoomplus.mouseout"/>
                        </use>
                        <path d="M-4,0h8M0,-4v8" fill="none" stroke="white" stroke-width="1.5" pointer-events="none"/>
                </g>
                <g id="zoomMin">
                        <use xlink:href="#rim" fill="#404040">
                                <set attributeName="fill" to="#808080" begin="zoomminus.mouseover" end="zoomminus.mouseout"/>
                        </use>
                        <path d="M-4,0h8" fill="none" stroke="white" stroke-width="1.5" pointer-events="none"/>
                </g>
                <g id="dirArrow">
                        <path fill="none" stroke="white" stroke-width="1.5" d="M0,-3.0v7 M-2.5,-0.5L0,-3.0L2.5,-0.5"/>
                </g>
               <g id="resetDef">
                       <use xlink:href="#rim2" fill="#404040">
                               <set attributeName="fill" to="#808080" begin="reset.mouseover" end="reset.mouseout"/>
                       </use>
               </g>
        </defs>

<script type="text/javascript">
var viewWidth = 935;
var viewHeight = 249;
var sectionId = 'dynsection-1';
</script>
<script xlink:href="svgpan.js"/>
<svg id="graph" class="graph">
<g id="viewport">
<title>xalanc::StylesheetRoot</title>
<!-- Node1 -->
<g id="node1" class="node"><title>Node1</title>
<g id="a_node1"><a xlink:title="This acts as the stylesheet root of the stylesheet tree, and holds values that are shared by all styl...">
<polygon fill="#bfbfbf" stroke="black" points="545.5,-216 545.5,-235 663.5,-235 663.5,-216 545.5,-216"/>
<text text-anchor="middle" x="604.5" y="-223" font-family="Helvetica,sans-Serif" font-size="10.00">xalanc::StylesheetRoot</text>
</a>
</g>
</g>
<!-- Node2 -->
<g id="node2" class="node"><title>Node2</title>
<g id="a_node2"><a xlink:href="classxalanc_1_1Stylesheet.html" target="_top" xlink:title="This class represents the base stylesheet or an &quot;import&quot; stylesheet.">
<polygon fill="none" stroke="black" points="829,-137 829,-156 927,-156 927,-137 829,-137"/>
<text text-anchor="middle" x="878" y="-144" font-family="Helvetica,sans-Serif" font-size="10.00">xalanc::Stylesheet</text>
</a>
</g>
</g>
<!-- Node1&#45;&gt;Node2 -->
<g id="edge9" class="edge"><title>Node1&#45;&gt;Node2</title>
<path fill="none" stroke="#9a32cd" stroke-dasharray="5,2" d="M674.042,-230.399C715.368,-230.752 768.13,-226.476 811,-207.5 836.682,-196.133 858.878,-170.593 869.793,-156.431"/>
<polygon fill="#9a32cd" stroke="#9a32cd" points="673.855,-226.896 663.794,-230.216 673.73,-233.894 673.855,-226.896"/>
<text text-anchor="middle" x="757.5" y="-232.5" font-family="Helvetica,sans-Serif" font-size="10.00"> m_stylesheetRoot</text>
</g>
<!-- Node2&#45;&gt;Node1 -->
<g id="edge1" class="edge"><title>Node2&#45;&gt;Node1</title>
<path fill="none" stroke="midnightblue" d="M851.685,-160.975C839.66,-167.374 824.904,-174.551 811,-179.5 762.607,-196.724 705.434,-208.897 663.694,-216.376"/>
<polygon fill="midnightblue" stroke="midnightblue" points="853.574,-163.932 860.675,-156.069 850.221,-157.787 853.574,-163.932"/>
</g>
<!-- Node3 -->
<g id="node3" class="node"><title>Node3</title>
<g id="a_node3"><a xlink:href="classxalanc_1_1PrefixResolver.html" target="_top" xlink:title="This class defines an interface for classes that resolve namespace prefixes to their URIs.">
<polygon fill="none" stroke="black" points="548,-175 548,-194 661,-194 661,-175 548,-175"/>
<text text-anchor="middle" x="604.5" y="-182" font-family="Helvetica,sans-Serif" font-size="10.00">xalanc::PrefixResolver</text>
</a>
</g>
</g>
<!-- Node3&#45;&gt;Node2 -->
<g id="edge2" class="edge"><title>Node3&#45;&gt;Node2</title>
<path fill="none" stroke="midnightblue" d="M671.377,-176.432C711.733,-171.344 764.409,-164.441 811,-157.5 816.745,-156.644 822.763,-155.703 828.729,-154.742"/>
<polygon fill="midnightblue" stroke="midnightblue" points="670.88,-172.967 661.394,-177.685 671.752,-179.912 670.88,-172.967"/>
</g>
<!-- Node4 -->
<g id="node4" class="node"><title>Node4</title>
<g id="a_node4"><a xlink:href="classxalanc_1_1XalanQNameByReference.html" target="_top" xlink:title=" ">
<polygon fill="none" stroke="black" points="523,-99 523,-118 686,-118 686,-99 523,-99"/>
<text text-anchor="middle" x="604.5" y="-106" font-family="Helvetica,sans-Serif" font-size="10.00">xalanc::XalanQNameByReference</text>
</a>
</g>
</g>
<!-- Node4&#45;&gt;Node2 -->
<g id="edge3" class="edge"><title>Node4&#45;&gt;Node2</title>
<path fill="none" stroke="#9a32cd" stroke-dasharray="5,2" d="M696.298,-108.422C732.337,-109.898 773.949,-113.501 811,-121.5 826.809,-124.913 843.863,-131.453 856.674,-136.988"/>
<polygon fill="#9a32cd" stroke="#9a32cd" points="696.409,-104.923 686.289,-108.06 696.156,-111.919 696.409,-104.923"/>
<text text-anchor="middle" x="757.5" y="-124.5" font-family="Helvetica,sans-Serif" font-size="10.00"> s_emptyQName</text>
</g>
<!-- Node5 -->
<g id="node5" class="node"><title>Node5</title>
<g id="a_node5"><a xlink:href="classxalanc_1_1XalanQName.html" target="_top" xlink:title="Class to represent a qualified name.">
<polygon fill="none" stroke="black" points="241.5,-99 241.5,-118 348.5,-118 348.5,-99 241.5,-99"/>
<text text-anchor="middle" x="295" y="-106" font-family="Helvetica,sans-Serif" font-size="10.00">xalanc::XalanQName</text>
</a>
</g>
</g>
<!-- Node5&#45;&gt;Node4 -->
<g id="edge4" class="edge"><title>Node5&#45;&gt;Node4</title>
<path fill="none" stroke="midnightblue" d="M358.644,-108.5C406.058,-108.5 471.552,-108.5 522.875,-108.5"/>
<polygon fill="midnightblue" stroke="midnightblue" points="358.512,-105 348.512,-108.5 358.512,-112 358.512,-105"/>
</g>
<!-- Node6 -->
<g id="node6" class="node"><title>Node6</title>
<g id="a_node6"><a xlink:href="classxalanc_1_1XalanDOMString.html" target="_top" xlink:title=" ">
<polygon fill="none" stroke="black" points="0,-121 0,-140 122,-140 122,-121 0,-121"/>
<text text-anchor="middle" x="61" y="-128" font-family="Helvetica,sans-Serif" font-size="10.00">xalanc::XalanDOMString</text>
</a>
</g>
</g>
<!-- Node6&#45;&gt;Node2 -->
<g id="edge6" class="edge"><title>Node6&#45;&gt;Node2</title>
<path fill="none" stroke="#9a32cd" stroke-dasharray="5,2" d="M132.237,-132.323C134.858,-132.384 137.452,-132.443 140,-132.5 399.724,-138.297 710.967,-143.703 828.709,-145.694"/>
<polygon fill="#9a32cd" stroke="#9a32cd" points="132.124,-128.819 122.043,-132.08 131.957,-135.817 132.124,-128.819"/>
<text text-anchor="middle" x="444" y="-143.5" font-family="Helvetica,sans-Serif" font-size="10.00"> m_baseIdent</text>
</g>
<!-- Node6&#45;&gt;Node5 -->
<g id="edge5" class="edge"><title>Node6&#45;&gt;Node5</title>
<path fill="none" stroke="#9a32cd" stroke-dasharray="5,2" d="M132.227,-122.295C134.85,-122.021 137.448,-121.755 140,-121.5 173.64,-118.14 211.472,-114.938 241.22,-112.553"/>
<polygon fill="#9a32cd" stroke="#9a32cd" points="131.595,-118.843 122.024,-123.386 132.34,-125.803 131.595,-118.843"/>
<text text-anchor="middle" x="173.5" y="-124.5" font-family="Helvetica,sans-Serif" font-size="10.00"> s_emptyString</text>
</g>
<!-- Node7 -->
<g id="node7" class="node"><title>Node7</title>
<g id="a_node7"><a xlink:href="classxalanc_1_1XalanVector.html" target="_top" xlink:title=" ">
<polygon fill="none" stroke="black" points="537,-49.5 537,-79.5 672,-79.5 672,-49.5 537,-49.5"/>
<text text-anchor="start" x="545" y="-67.5" font-family="Helvetica,sans-Serif" font-size="10.00">xalanc::XalanVector</text>
<text text-anchor="middle" x="604.5" y="-56.5" font-family="Helvetica,sans-Serif" font-size="10.00">&lt; XalanSpaceNodeTester &gt;</text>
</a>
</g>
</g>
<!-- Node7&#45;&gt;Node2 -->
<g id="edge7" class="edge"><title>Node7&#45;&gt;Node2</title>
<path fill="none" stroke="#9a32cd" stroke-dasharray="5,2" d="M682.362,-66.2789C722.113,-69.5082 770.627,-77.138 811,-94.5 834.317,-104.528 856.428,-124.947 868.2,-136.999"/>
<polygon fill="#9a32cd" stroke="#9a32cd" points="682.422,-62.7739 672.192,-65.5321 681.909,-69.7551 682.422,-62.7739"/>
<text text-anchor="middle" x="757.5" y="-97.5" font-family="Helvetica,sans-Serif" font-size="10.00"> m_whitespaceElements</text>
</g>
<!-- Node8 -->
<g id="node8" class="node"><title>Node8</title>
<g id="a_node8"><a xlink:href="classxalanc_1_1XalanVector.html" target="_top" xlink:title=" ">
<polygon fill="none" stroke="black" points="225,-29.5 225,-59.5 365,-59.5 365,-29.5 225,-29.5"/>
<text text-anchor="start" x="233" y="-47.5" font-family="Helvetica,sans-Serif" font-size="10.00">xalanc::XalanVector</text>
<text text-anchor="middle" x="295" y="-36.5" font-family="Helvetica,sans-Serif" font-size="10.00">&lt; Type, ConstructionTraits &gt;</text>
</a>
</g>
</g>
<!-- Node8&#45;&gt;Node7 -->
<g id="edge8" class="edge"><title>Node8&#45;&gt;Node7</title>
<path fill="none" stroke="orange" stroke-dasharray="5,2" d="M375.157,-49.6484C425.265,-52.9075 489.325,-57.074 536.833,-60.164"/>
<polygon fill="orange" stroke="orange" points="375.215,-46.1449 365.009,-48.9884 374.761,-53.1301 375.215,-46.1449"/>
<text text-anchor="middle" x="444" y="-61.5" font-family="Helvetica,sans-Serif" font-size="10.00"> &lt; XalanSpaceNodeTester &gt;</text>
</g>
<!-- Node9 -->
<g id="node9" class="node"><title>Node9</title>
<g id="a_node9"><a xlink:href="classxalanc_1_1XalanVector.html" target="_top" xlink:title=" ">
<polygon fill="none" stroke="black" points="553,-0.5 553,-30.5 656,-30.5 656,-0.5 553,-0.5"/>
<text text-anchor="start" x="561" y="-18.5" font-family="Helvetica,sans-Serif" font-size="10.00">xalanc::XalanVector</text>
<text text-anchor="middle" x="604.5" y="-7.5" font-family="Helvetica,sans-Serif" font-size="10.00">&lt; KeyDeclaration &gt;</text>
</a>
</g>
</g>
<!-- Node8&#45;&gt;Node9 -->
<g id="edge11" class="edge"><title>Node8&#45;&gt;Node9</title>
<path fill="none" stroke="orange" stroke-dasharray="5,2" d="M375.356,-36.2487C377.934,-35.9941 380.487,-35.7439 383,-35.5 441.153,-29.855 507.984,-23.8626 552.687,-19.9255"/>
<polygon fill="orange" stroke="orange" points="374.927,-32.774 365.324,-37.2489 375.622,-39.7395 374.927,-32.774"/>
<text text-anchor="middle" x="444" y="-38.5" font-family="Helvetica,sans-Serif" font-size="10.00"> &lt; KeyDeclaration &gt;</text>
</g>
<!-- Node9&#45;&gt;Node2 -->
<g id="edge10" class="edge"><title>Node9&#45;&gt;Node2</title>
<path fill="none" stroke="#9a32cd" stroke-dasharray="5,2" d="M666.353,-15.354C709.732,-17.898 767.782,-26.9193 811,-54.5 843.312,-75.121 864.693,-117.707 873.048,-136.831"/>
<polygon fill="#9a32cd" stroke="#9a32cd" points="666.377,-11.8511 656.218,-14.8608 666.036,-18.8428 666.377,-11.8511"/>
<text text-anchor="middle" x="757.5" y="-57.5" font-family="Helvetica,sans-Serif" font-size="10.00"> m_keyDeclarations</text>
</g>
</g>
</svg>
        <g id="navigator" transform="translate(0 0)" fill="#404254">
                <rect fill="#f2f5e9" fill-opacity="0.5" stroke="#606060" stroke-width=".5" x="0" y="0" width="60" height="60"/>
                <use id="zoomplus" xlink:href="#zoomPlus" x="17" y="9" onmousedown="handleZoom(evt,'in')"/>
                <use id="zoomminus" xlink:href="#zoomMin" x="42" y="9" onmousedown="handleZoom(evt,'out')"/>
                <use id="reset" xlink:href="#resetDef" x="30" y="36" onmousedown="handleReset()"/>
                <g id="arrowUp" xlink:href="#dirArrow" transform="translate(30 24)" onmousedown="handlePan(0,-1)">
                  <use xlink:href="#rim" fill="#404040">
                        <set attributeName="fill" to="#808080" begin="arrowUp.mouseover" end="arrowUp.mouseout"/>
                  </use>
                  <path fill="none" stroke="white" stroke-width="1.5" d="M0,-3.0v7 M-2.5,-0.5L0,-3.0L2.5,-0.5"/>
                </g>
                <g id="arrowRight" xlink:href="#dirArrow" transform="rotate(90) translate(36 -43)" onmousedown="handlePan(1,0)">
                  <use xlink:href="#rim" fill="#404040">
                        <set attributeName="fill" to="#808080" begin="arrowRight.mouseover" end="arrowRight.mouseout"/>
                  </use>
                  <path fill="none" stroke="white" stroke-width="1.5" d="M0,-3.0v7 M-2.5,-0.5L0,-3.0L2.5,-0.5"/>
                </g>
                <g id="arrowDown" xlink:href="#dirArrow" transform="rotate(180) translate(-30 -48)" onmousedown="handlePan(0,1)">
                  <use xlink:href="#rim" fill="#404040">
                        <set attributeName="fill" to="#808080" begin="arrowDown.mouseover" end="arrowDown.mouseout"/>
                  </use>
                  <path fill="none" stroke="white" stroke-width="1.5" d="M0,-3.0v7 M-2.5,-0.5L0,-3.0L2.5,-0.5"/>
                </g>
                <g id="arrowLeft" xlink:href="#dirArrow" transform="rotate(270) translate(-36 17)" onmousedown="handlePan(-1,0)">
                  <use xlink:href="#rim" fill="#404040">
                        <set attributeName="fill" to="#808080" begin="arrowLeft.mouseover" end="arrowLeft.mouseout"/>
                  </use>
                  <path fill="none" stroke="white" stroke-width="1.5" d="M0,-3.0v7 M-2.5,-0.5L0,-3.0L2.5,-0.5"/>
                </g>
        </g>
        <svg viewBox="0 0 15 15" width="100%" height="30px" preserveAspectRatio="xMaxYMin meet">
         <g id="arrow_out" transform="scale(0.3 0.3)">
          <a xlink:href="classxalanc_1_1StylesheetRoot__coll__graph_org.svg" target="_base">
           <rect id="button" ry="5" rx="5" y="6" x="6" height="38" width="38"
                fill="#f2f5e9" fill-opacity="0.5" stroke="#606060" stroke-width="1.0"/>
           <path id="arrow"
             d="M 11.500037,31.436501 C 11.940474,20.09759 22.043105,11.32322 32.158766,21.979434 L 37.068811,17.246167 C 37.068811,17.246167 37.088388,32 37.088388,32 L 22.160133,31.978069 C 22.160133,31.978069 26.997745,27.140456 26.997745,27.140456 C 18.528582,18.264221 13.291696,25.230495 11.500037,31.436501 z"
             style="fill:#404040;"/>
          </a>
         </g>
        </svg>
</svg>
