<?xml version="1.0" encoding="UTF-8" standalone="no"?>
<!DOCTYPE svg PUBLIC "-//W3C//DTD SVG 1.1//EN"
 "http://www.w3.org/Graphics/SVG/1.1/DTD/svg11.dtd">
<!-- Generated by graphviz version 2.43.0 (0)
 -->
<!-- Title: xalanc::ArenaBlock&lt; ObjectType, SizeType &gt; Pages: 1 -->
<svg width="1079pt" height="74pt"
 viewBox="0.00 0.00 1079.00 73.50" xmlns="http://www.w3.org/2000/svg" xmlns:xlink="http://www.w3.org/1999/xlink">
<g id="graph0" class="graph" transform="scale(1 1) rotate(0) translate(4 69.5)">
<title>xalanc::ArenaBlock&lt; ObjectType, SizeType &gt;</title>
<!-- Node1 -->
<g id="node1" class="node">
<title>Node1</title>
<g id="a_node1"><a xlink:title=" ">
<polygon fill="#bfbfbf" stroke="black" points="929,-26.5 929,-56.5 1071,-56.5 1071,-26.5 929,-26.5"/>
<text text-anchor="start" x="937" y="-44.5" font-family="Helvetica,sans-Serif" font-size="10.00">xalanc::ArenaBlock</text>
<text text-anchor="middle" x="1000" y="-33.5" font-family="Helvetica,sans-Serif" font-size="10.00">&lt; ObjectType, SizeType &gt;</text>
</a>
</g>
</g>
<!-- Node2 -->
<g id="node2" class="node">
<title>Node2</title>
<g id="a_node2"><a xlink:href="classxalanc_1_1ArenaBlockBase.html" target="_top" xlink:title=" ">
<polygon fill="none" stroke="black" points="758,-26.5 758,-56.5 892,-56.5 892,-26.5 758,-26.5"/>
<text text-anchor="start" x="766" y="-44.5" font-family="Helvetica,sans-Serif" font-size="10.00">xalanc::ArenaBlockBase</text>
<text text-anchor="middle" x="825" y="-33.5" font-family="Helvetica,sans-Serif" font-size="10.00">&lt; ObjectType, size_t &gt;</text>
</a>
</g>
</g>
<!-- Node2&#45;&gt;Node1 -->
<g id="edge1" class="edge">
<title>Node2&#45;&gt;Node1</title>
<path fill="none" stroke="midnightblue" d="M902.55,-41.5C911.27,-41.5 920.13,-41.5 928.77,-41.5"/>
<polygon fill="midnightblue" stroke="midnightblue" points="902.39,-38 892.39,-41.5 902.39,-45 902.39,-38"/>
</g>
<!-- Node3 -->
<g id="node3" class="node">
<title>Node3</title>
<g id="a_node3"><a xlink:href="classxalanc_1_1XalanAllocator.html" target="_top" xlink:title=" ">
<polygon fill="none" stroke="black" points="242,-26.5 242,-56.5 368,-56.5 368,-26.5 242,-26.5"/>
<text text-anchor="start" x="250" y="-44.5" font-family="Helvetica,sans-Serif" font-size="10.00">xalanc::XalanAllocator</text>
<text text-anchor="middle" x="305" y="-33.5" font-family="Helvetica,sans-Serif" font-size="10.00">&lt; ObjectType &gt;</text>
</a>
</g>
</g>
<!-- Node3&#45;&gt;Node2 -->
<g id="edge2" class="edge">
<title>Node3&#45;&gt;Node2</title>
<path fill="none" stroke="#9a32cd" stroke-dasharray="5,2" d="M378.68,-47.16C381.15,-47.29 383.59,-47.4 386,-47.5 543.2,-54.05 582.84,-56.97 740,-49.5 745.71,-49.23 751.62,-48.85 757.56,-48.42"/>
<polygon fill="#9a32cd" stroke="#9a32cd" points="378.61,-43.65 368.43,-46.58 378.22,-50.64 378.61,-43.65"/>
<text text-anchor="middle" x="536" y="-57.5" font-family="Helvetica,sans-Serif" font-size="10.00"> m_allocator</text>
</g>
<!-- Node5 -->
<g id="node5" class="node">
<title>Node5</title>
<g id="a_node5"><a xlink:href="classxalanc_1_1ArenaBlockBase.html" target="_top" xlink:title=" ">
<polygon fill="none" stroke="black" points="465,-0.5 465,-30.5 607,-30.5 607,-0.5 465,-0.5"/>
<text text-anchor="start" x="473" y="-18.5" font-family="Helvetica,sans-Serif" font-size="10.00">xalanc::ArenaBlockBase</text>
<text text-anchor="middle" x="536" y="-7.5" font-family="Helvetica,sans-Serif" font-size="10.00">&lt; ObjectType, SizeType &gt;</text>
</a>
</g>
</g>
<!-- Node3&#45;&gt;Node5 -->
<g id="edge5" class="edge">
<title>Node3&#45;&gt;Node5</title>
<path fill="none" stroke="#9a32cd" stroke-dasharray="5,2" d="M378.25,-33.3C405.85,-30.16 437.25,-26.6 464.66,-23.49"/>
<polygon fill="#9a32cd" stroke="#9a32cd" points="377.81,-29.82 368.27,-34.43 378.6,-36.78 377.81,-29.82"/>
<text text-anchor="middle" x="416.5" y="-35.5" font-family="Helvetica,sans-Serif" font-size="10.00"> m_allocator</text>
</g>
<!-- Node4 -->
<g id="node4" class="node">
<title>Node4</title>
<g id="a_node4"><a xlink:href="classxalanc_1_1XalanAllocator.html" target="_top" xlink:title=" ">
<polygon fill="none" stroke="black" points="0,-26.5 0,-56.5 126,-56.5 126,-26.5 0,-26.5"/>
<text text-anchor="start" x="8" y="-44.5" font-family="Helvetica,sans-Serif" font-size="10.00">xalanc::XalanAllocator</text>
<text text-anchor="middle" x="63" y="-33.5" font-family="Helvetica,sans-Serif" font-size="10.00">&lt; Type &gt;</text>
</a>
</g>
</g>
<!-- Node4&#45;&gt;Node3 -->
<g id="edge3" class="edge">
<title>Node4&#45;&gt;Node3</title>
<path fill="none" stroke="orange" stroke-dasharray="5,2" d="M136.34,-41.5C169.93,-41.5 209.48,-41.5 241.73,-41.5"/>
<polygon fill="orange" stroke="orange" points="136.12,-38 126.12,-41.5 136.12,-45 136.12,-38"/>
<text text-anchor="middle" x="184" y="-44.5" font-family="Helvetica,sans-Serif" font-size="10.00"> &lt; ObjectType &gt;</text>
</g>
<!-- Node5&#45;&gt;Node2 -->
<g id="edge4" class="edge">
<title>Node5&#45;&gt;Node2</title>
<path fill="none" stroke="orange" stroke-dasharray="5,2" d="M617.38,-22.78C661.73,-26.8 716.12,-31.73 757.96,-35.52"/>
<polygon fill="orange" stroke="orange" points="617.48,-19.28 607.21,-21.86 616.85,-26.25 617.48,-19.28"/>
<text text-anchor="middle" x="682.5" y="-37.5" font-family="Helvetica,sans-Serif" font-size="10.00"> &lt; ObjectType, size_t &gt;</text>
</g>
</g>
</svg>
