<?xml version="1.0" encoding="UTF-8" standalone="no"?>
<!DOCTYPE svg PUBLIC "-//W3C//DTD SVG 1.1//EN"
 "http://www.w3.org/Graphics/SVG/1.1/DTD/svg11.dtd">
<!-- Generated by graphviz version 2.38.0 (20140413.2041)
 -->
<!-- Title: xalanc::XalanOtherEncodingWriter&lt; Predicate, ConstantsType &gt; Pages: 1 -->
<svg width="337pt" height="163pt"
 viewBox="0.00 0.00 337.00 163.00" xmlns="http://www.w3.org/2000/svg" xmlns:xlink="http://www.w3.org/1999/xlink">
<g id="graph0" class="graph" transform="scale(1 1) rotate(0) translate(4 159)">
<title>xalanc::XalanOtherEncodingWriter&lt; Predicate, ConstantsType &gt;</title>
<!-- Node1 -->
<g id="node1" class="node"><title>Node1</title>
<g id="a_node1"><a xlink:title=" ">
<polygon fill="#bfbfbf" stroke="black" points="92.5,-0.5 92.5,-30.5 265.5,-30.5 265.5,-0.5 92.5,-0.5"/>
<text text-anchor="start" x="100.5" y="-18.5" font-family="Helvetica,sans-Serif" font-size="10.00">xalanc::XalanOtherEncoding</text>
<text text-anchor="middle" x="179" y="-7.5" font-family="Helvetica,sans-Serif" font-size="10.00">Writer&lt; Predicate, ConstantsType &gt;</text>
</a>
</g>
</g>
<!-- Node2 -->
<g id="node2" class="node"><title>Node2</title>
<g id="a_node2"><a xlink:href="classxalanc_1_1XalanFormatterWriter.html" target="_top" xlink:title=" ">
<polygon fill="none" stroke="black" points="107.5,-68.5 107.5,-87.5 250.5,-87.5 250.5,-68.5 107.5,-68.5"/>
<text text-anchor="middle" x="179" y="-75.5" font-family="Helvetica,sans-Serif" font-size="10.00">xalanc::XalanFormatterWriter</text>
</a>
</g>
</g>
<!-- Node2&#45;&gt;Node1 -->
<g id="edge1" class="edge"><title>Node2&#45;&gt;Node1</title>
<path fill="none" stroke="midnightblue" d="M179,-58.2154C179,-49.3565 179,-38.9577 179,-30.7587"/>
<polygon fill="midnightblue" stroke="midnightblue" points="175.5,-58.3318 179,-68.3318 182.5,-58.3319 175.5,-58.3318"/>
</g>
<!-- Node3 -->
<g id="node3" class="node"><title>Node3</title>
<g id="a_node3"><a xlink:href="classxalanc_1_1XalanDOMString.html" target="_top" xlink:title=" ">
<polygon fill="none" stroke="black" points="0,-135.5 0,-154.5 122,-154.5 122,-135.5 0,-135.5"/>
<text text-anchor="middle" x="61" y="-142.5" font-family="Helvetica,sans-Serif" font-size="10.00">xalanc::XalanDOMString</text>
</a>
</g>
</g>
<!-- Node3&#45;&gt;Node2 -->
<g id="edge2" class="edge"><title>Node3&#45;&gt;Node2</title>
<path fill="none" stroke="#9a32cd" stroke-dasharray="5,2" d="M77.9282,-128.526C86.7351,-121.031 97.949,-112.311 109,-106 122.234,-98.4424 137.993,-92.1532 151.204,-87.5517"/>
<polygon fill="#9a32cd" stroke="#9a32cd" points="75.5114,-125.991 70.3059,-135.219 80.1298,-131.251 75.5114,-125.991"/>
<text text-anchor="middle" x="142" y="-109" font-family="Helvetica,sans-Serif" font-size="10.00"> m_stringBuffer</text>
</g>
<!-- Node4 -->
<g id="node4" class="node"><title>Node4</title>
<g id="a_node4"><a xlink:href="classxalanc_1_1Writer.html" target="_top" xlink:title=" ">
<polygon fill="none" stroke="black" points="140.5,-135.5 140.5,-154.5 217.5,-154.5 217.5,-135.5 140.5,-135.5"/>
<text text-anchor="middle" x="179" y="-142.5" font-family="Helvetica,sans-Serif" font-size="10.00">xalanc::Writer</text>
</a>
</g>
</g>
<!-- Node4&#45;&gt;Node2 -->
<g id="edge3" class="edge"><title>Node4&#45;&gt;Node2</title>
<path fill="none" stroke="#9a32cd" stroke-dasharray="5,2" d="M179,-125.037C179,-112.67 179,-97.1198 179,-87.6273"/>
<polygon fill="#9a32cd" stroke="#9a32cd" points="175.5,-125.234 179,-135.234 182.5,-125.234 175.5,-125.234"/>
<text text-anchor="middle" x="199" y="-109" font-family="Helvetica,sans-Serif" font-size="10.00"> m_writer</text>
</g>
<!-- Node5 -->
<g id="node5" class="node"><title>Node5</title>
<g id="a_node5"><a xlink:title=" ">
<polygon fill="none" stroke="#bfbfbf" points="235.5,-135.5 235.5,-154.5 324.5,-154.5 324.5,-135.5 235.5,-135.5"/>
<text text-anchor="middle" x="280" y="-142.5" font-family="Helvetica,sans-Serif" font-size="10.00">MemoryManager</text>
</a>
</g>
</g>
<!-- Node5&#45;&gt;Node2 -->
<g id="edge4" class="edge"><title>Node5&#45;&gt;Node2</title>
<path fill="none" stroke="#9a32cd" stroke-dasharray="5,2" d="M259.094,-129.79C248.367,-122.568 235.053,-113.712 223,-106 213.186,-99.7206 201.993,-92.8561 193.352,-87.6201"/>
<polygon fill="#9a32cd" stroke="#9a32cd" points="257.167,-132.712 267.412,-135.411 261.086,-126.912 257.167,-132.712"/>
<text text-anchor="middle" x="284" y="-109" font-family="Helvetica,sans-Serif" font-size="10.00"> m_memoryManager</text>
</g>
</g>
</svg>
