<?xml version="1.0" encoding="UTF-8" standalone="no"?>
<!DOCTYPE svg PUBLIC "-//W3C//DTD SVG 1.1//EN"
 "http://www.w3.org/Graphics/SVG/1.1/DTD/svg11.dtd">
<!-- Generated by graphviz version 2.43.0 (0)
 -->
<!-- Title: xalanc::StylesheetExecutionContextDefault Pages: 1 -->
<svg width="384pt" height="298pt"
 viewBox="0.00 0.00 384.00 298.00" xmlns="http://www.w3.org/2000/svg" xmlns:xlink="http://www.w3.org/1999/xlink">
<g id="graph0" class="graph" transform="scale(1 1) rotate(0) translate(4 294)">
<title>xalanc::StylesheetExecutionContextDefault</title>
<!-- Node1 -->
<g id="node1" class="node">
<title>Node1</title>
<g id="a_node1"><a xlink:title=" ">
<polygon fill="#bfbfbf" stroke="black" points="189,-0.5 189,-30.5 343,-30.5 343,-0.5 189,-0.5"/>
<text text-anchor="start" x="197" y="-18.5" font-family="Helvetica,sans-Serif" font-size="10.00">xalanc::StylesheetExecution</text>
<text text-anchor="middle" x="266" y="-7.5" font-family="Helvetica,sans-Serif" font-size="10.00">ContextDefault</text>
</a>
</g>
</g>
<!-- Node2 -->
<g id="node2" class="node">
<title>Node2</title>
<g id="a_node2"><a xlink:href="classxalanc_1_1StylesheetExecutionContext.html" target="_top" xlink:title=" ">
<polygon fill="none" stroke="black" points="189,-68.5 189,-98.5 343,-98.5 343,-68.5 189,-68.5"/>
<text text-anchor="start" x="197" y="-86.5" font-family="Helvetica,sans-Serif" font-size="10.00">xalanc::StylesheetExecution</text>
<text text-anchor="middle" x="266" y="-75.5" font-family="Helvetica,sans-Serif" font-size="10.00">Context</text>
</a>
</g>
</g>
<!-- Node2&#45;&gt;Node1 -->
<g id="edge1" class="edge">
<title>Node2&#45;&gt;Node1</title>
<path fill="none" stroke="midnightblue" d="M266,-58.03C266,-48.86 266,-38.74 266,-30.79"/>
<polygon fill="midnightblue" stroke="midnightblue" points="262.5,-58.18 266,-68.18 269.5,-58.18 262.5,-58.18"/>
</g>
<!-- Node3 -->
<g id="node3" class="node">
<title>Node3</title>
<g id="a_node3"><a xlink:href="classxalanc_1_1XPathExecutionContext.html" target="_top" xlink:title=" ">
<polygon fill="none" stroke="black" points="182,-136.5 182,-155.5 350,-155.5 350,-136.5 182,-136.5"/>
<text text-anchor="middle" x="266" y="-143.5" font-family="Helvetica,sans-Serif" font-size="10.00">xalanc::XPathExecutionContext</text>
</a>
</g>
</g>
<!-- Node3&#45;&gt;Node2 -->
<g id="edge2" class="edge">
<title>Node3&#45;&gt;Node2</title>
<path fill="none" stroke="midnightblue" d="M266,-126.22C266,-117.36 266,-106.96 266,-98.76"/>
<polygon fill="midnightblue" stroke="midnightblue" points="262.5,-126.33 266,-136.33 269.5,-126.33 262.5,-126.33"/>
</g>
<!-- Node4 -->
<g id="node4" class="node">
<title>Node4</title>
<g id="a_node4"><a xlink:href="classxalanc_1_1ExecutionContext.html" target="_top" xlink:title=" ">
<polygon fill="none" stroke="black" points="82,-203.5 82,-222.5 222,-222.5 222,-203.5 82,-203.5"/>
<text text-anchor="middle" x="152" y="-210.5" font-family="Helvetica,sans-Serif" font-size="10.00">xalanc::ExecutionContext</text>
</a>
</g>
</g>
<!-- Node4&#45;&gt;Node3 -->
<g id="edge3" class="edge">
<title>Node4&#45;&gt;Node3</title>
<path fill="none" stroke="midnightblue" d="M176.35,-198.12C198.94,-185.24 231.84,-166.48 250.87,-155.63"/>
<polygon fill="midnightblue" stroke="midnightblue" points="174.33,-195.24 167.37,-203.23 177.8,-201.32 174.33,-195.24"/>
</g>
<!-- Node5 -->
<g id="node5" class="node">
<title>Node5</title>
<g id="a_node5"><a xlink:href="classxalanc_1_1ProblemListenerBase.html" target="_top" xlink:title="This is the abstract class that is used when reporting a problem some kind, that requires a message,...">
<polygon fill="none" stroke="black" points="0,-270.5 0,-289.5 158,-289.5 158,-270.5 0,-270.5"/>
<text text-anchor="middle" x="79" y="-277.5" font-family="Helvetica,sans-Serif" font-size="10.00">xalanc::ProblemListenerBase</text>
</a>
</g>
</g>
<!-- Node5&#45;&gt;Node4 -->
<g id="edge4" class="edge">
<title>Node5&#45;&gt;Node4</title>
<path fill="none" stroke="midnightblue" d="M96.57,-263.36C110.92,-250.58 130.67,-232.99 142.31,-222.63"/>
<polygon fill="midnightblue" stroke="midnightblue" points="93.99,-260.97 88.85,-270.23 98.64,-266.2 93.99,-260.97"/>
</g>
<!-- Node6 -->
<g id="node6" class="node">
<title>Node6</title>
<g id="a_node6"><a xlink:title=" ">
<polygon fill="none" stroke="#bfbfbf" points="176,-270.5 176,-289.5 276,-289.5 276,-270.5 176,-270.5"/>
<text text-anchor="middle" x="226" y="-277.5" font-family="Helvetica,sans-Serif" font-size="10.00">MemoryManager</text>
</a>
</g>
</g>
<!-- Node6&#45;&gt;Node4 -->
<g id="edge5" class="edge">
<title>Node6&#45;&gt;Node4</title>
<path fill="none" stroke="#9a32cd" stroke-dasharray="5,2" d="M208.19,-263.36C193.64,-250.58 173.62,-232.99 161.82,-222.63"/>
<polygon fill="#9a32cd" stroke="#9a32cd" points="206.2,-266.26 216.02,-270.23 210.82,-261 206.2,-266.26"/>
<text text-anchor="middle" x="245.5" y="-244" font-family="Helvetica,sans-Serif" font-size="10.00"> m_memoryManager</text>
</g>
<!-- Node7 -->
<g id="node7" class="node">
<title>Node7</title>
<g id="a_node7"><a xlink:href="classxalanc_1_1XObjectFactory.html" target="_top" xlink:title="This class handles the creation of XObjects and manages their lifetime.">
<polygon fill="none" stroke="black" points="240,-203.5 240,-222.5 368,-222.5 368,-203.5 240,-203.5"/>
<text text-anchor="middle" x="304" y="-210.5" font-family="Helvetica,sans-Serif" font-size="10.00">xalanc::XObjectFactory</text>
</a>
</g>
</g>
<!-- Node7&#45;&gt;Node3 -->
<g id="edge6" class="edge">
<title>Node7&#45;&gt;Node3</title>
<path fill="none" stroke="#9a32cd" stroke-dasharray="5,2" d="M293.79,-194.53C286.43,-181.95 276.82,-165.51 271.04,-155.63"/>
<polygon fill="#9a32cd" stroke="#9a32cd" points="290.81,-196.37 298.88,-203.23 296.85,-192.83 290.81,-196.37"/>
<text text-anchor="middle" x="331.5" y="-177" font-family="Helvetica,sans-Serif" font-size="10.00"> m_xobjectFactory</text>
</g>
</g>
</svg>
