<?xml version="1.0" encoding="UTF-8" standalone="no"?>
<!DOCTYPE svg PUBLIC "-//W3C//DTD SVG 1.1//EN"
 "http://www.w3.org/Graphics/SVG/1.1/DTD/svg11.dtd">
<!-- Generated by graphviz version 2.38.0 (20140413.2041)
 -->
<!-- Title: xalanc::NullPrintWriter Pages: 1 -->
<svg width="215pt" height="152pt"
 viewBox="0.00 0.00 214.50 152.00" xmlns="http://www.w3.org/2000/svg" xmlns:xlink="http://www.w3.org/1999/xlink">
<g id="graph0" class="graph" transform="scale(1 1) rotate(0) translate(4 148)">
<title>xalanc::NullPrintWriter</title>
<!-- Node1 -->
<g id="node1" class="node"><title>Node1</title>
<g id="a_node1"><a xlink:title=" ">
<polygon fill="#bfbfbf" stroke="black" points="31.5,-0.5 31.5,-19.5 145.5,-19.5 145.5,-0.5 31.5,-0.5"/>
<text text-anchor="middle" x="88.5" y="-7.5" font-family="Helvetica,sans-Serif" font-size="10.00">xalanc::NullPrintWriter</text>
</a>
</g>
</g>
<!-- Node2 -->
<g id="node2" class="node"><title>Node2</title>
<g id="a_node2"><a xlink:href="classxalanc_1_1PrintWriter.html" target="_top" xlink:title=" ">
<polygon fill="none" stroke="black" points="39.5,-57.5 39.5,-76.5 137.5,-76.5 137.5,-57.5 39.5,-57.5"/>
<text text-anchor="middle" x="88.5" y="-64.5" font-family="Helvetica,sans-Serif" font-size="10.00">xalanc::PrintWriter</text>
</a>
</g>
</g>
<!-- Node2&#45;&gt;Node1 -->
<g id="edge1" class="edge"><title>Node2&#45;&gt;Node1</title>
<path fill="none" stroke="midnightblue" d="M88.5,-47.1166C88.5,-37.8173 88.5,-27.0557 88.5,-19.7149"/>
<polygon fill="midnightblue" stroke="midnightblue" points="85.0001,-47.4062 88.5,-57.4063 92.0001,-47.4063 85.0001,-47.4062"/>
</g>
<!-- Node3 -->
<g id="node3" class="node"><title>Node3</title>
<g id="a_node3"><a xlink:href="classxalanc_1_1Writer.html" target="_top" xlink:title=" ">
<polygon fill="none" stroke="black" points="0,-124.5 0,-143.5 77,-143.5 77,-124.5 0,-124.5"/>
<text text-anchor="middle" x="38.5" y="-131.5" font-family="Helvetica,sans-Serif" font-size="10.00">xalanc::Writer</text>
</a>
</g>
</g>
<!-- Node3&#45;&gt;Node2 -->
<g id="edge2" class="edge"><title>Node3&#45;&gt;Node2</title>
<path fill="none" stroke="midnightblue" d="M51.3689,-116.27C61.1175,-103.597 74.1147,-86.701 81.8636,-76.6273"/>
<polygon fill="midnightblue" stroke="midnightblue" points="48.5662,-114.174 45.2432,-124.234 54.1146,-118.442 48.5662,-114.174"/>
</g>
<!-- Node4 -->
<g id="node4" class="node"><title>Node4</title>
<g id="a_node4"><a xlink:title=" ">
<polygon fill="none" stroke="#bfbfbf" points="95,-124.5 95,-143.5 184,-143.5 184,-124.5 95,-124.5"/>
<text text-anchor="middle" x="139.5" y="-131.5" font-family="Helvetica,sans-Serif" font-size="10.00">MemoryManager</text>
</a>
</g>
</g>
<!-- Node4&#45;&gt;Node2 -->
<g id="edge3" class="edge"><title>Node4&#45;&gt;Node2</title>
<path fill="none" stroke="#9a32cd" stroke-dasharray="5,2" d="M126.374,-116.27C116.43,-103.597 103.173,-86.701 95.2691,-76.6273"/>
<polygon fill="#9a32cd" stroke="#9a32cd" points="123.695,-118.527 132.622,-124.234 129.203,-114.206 123.695,-118.527"/>
<text text-anchor="middle" x="161.5" y="-98" font-family="Helvetica,sans-Serif" font-size="10.00"> m_memoryManager</text>
</g>
</g>
</svg>
