<?xml version="1.0" encoding="UTF-8" standalone="no"?>
<!DOCTYPE svg PUBLIC "-//W3C//DTD SVG 1.1//EN"
 "http://www.w3.org/Graphics/SVG/1.1/DTD/svg11.dtd">
<!-- Generated by graphviz version 2.38.0 (20140413.2041)
 -->
<!-- Title: xalanc::XSLTEngineImpl Pages: 1 -->
<!--zoomable 279 -->
<svg id="main" version="1.1" xmlns="http://www.w3.org/2000/svg" xmlns:xlink="http://www.w3.org/1999/xlink" xml:space="preserve" onload="init(evt)">
<style type="text/css"><![CDATA[
.edge:hover path { stroke: red; }
.edge:hover polygon { stroke: red; fill: red; }
]]></style>
<script type="text/javascript"><![CDATA[
var edges = document.getElementsByTagName('g');
if (edges && edges.length) {
  for (var i=0;i<edges.length;i++) {
    if (edges[i].id.substr(0,4)=='edge') {
      edges[i].setAttribute('class','edge');
    }
  }
}
]]></script>
        <defs>
                <circle id="rim" cx="0" cy="0" r="7"/>
                <circle id="rim2" cx="0" cy="0" r="3.5"/>
                <g id="zoomPlus">
                        <use xlink:href="#rim" fill="#404040">
                                <set attributeName="fill" to="#808080" begin="zoomplus.mouseover" end="zoomplus.mouseout"/>
                        </use>
                        <path d="M-4,0h8M0,-4v8" fill="none" stroke="white" stroke-width="1.5" pointer-events="none"/>
                </g>
                <g id="zoomMin">
                        <use xlink:href="#rim" fill="#404040">
                                <set attributeName="fill" to="#808080" begin="zoomminus.mouseover" end="zoomminus.mouseout"/>
                        </use>
                        <path d="M-4,0h8" fill="none" stroke="white" stroke-width="1.5" pointer-events="none"/>
                </g>
                <g id="dirArrow">
                        <path fill="none" stroke="white" stroke-width="1.5" d="M0,-3.0v7 M-2.5,-0.5L0,-3.0L2.5,-0.5"/>
                </g>
               <g id="resetDef">
                       <use xlink:href="#rim2" fill="#404040">
                               <set attributeName="fill" to="#808080" begin="reset.mouseover" end="reset.mouseout"/>
                       </use>
               </g>
        </defs>

<script type="text/javascript">
var viewWidth = 648;
var viewHeight = 279;
var sectionId = 'dynsection-1';
</script>
<script xlink:href="svgpan.js"/>
<svg id="graph" class="graph">
<g id="viewport">
<title>xalanc::XSLTEngineImpl</title>
<!-- Node1 -->
<g id="node1" class="node"><title>Node1</title>
<g id="a_node1"><a xlink:title="It&#39;s the responsibility of the XSLTEngineImpl class, collaborating with the XML parser liaison,...">
<polygon fill="#bfbfbf" stroke="black" points="518,-137.5 518,-156.5 640,-156.5 640,-137.5 518,-137.5"/>
<text text-anchor="middle" x="579" y="-144.5" font-family="Helvetica,sans-Serif" font-size="10.00">xalanc::XSLTEngineImpl</text>
</a>
</g>
</g>
<!-- Node2 -->
<g id="node2" class="node"><title>Node2</title>
<g id="a_node2"><a xlink:href="classxalanc_1_1XSLTProcessor.html" target="_top" xlink:title="This is an interface for an XSLT Processor engine.">
<polygon fill="none" stroke="black" points="234,-251.5 234,-270.5 352,-270.5 352,-251.5 234,-251.5"/>
<text text-anchor="middle" x="293" y="-258.5" font-family="Helvetica,sans-Serif" font-size="10.00">xalanc::XSLTProcessor</text>
</a>
</g>
</g>
<!-- Node2&#45;&gt;Node1 -->
<g id="edge1" class="edge"><title>Node2&#45;&gt;Node1</title>
<path fill="none" stroke="midnightblue" d="M362.212,-260.38C404.048,-257.491 457.543,-249.147 500,-227 532.849,-209.864 560.1,-173.766 571.821,-156.539"/>
<polygon fill="midnightblue" stroke="midnightblue" points="361.886,-256.893 352.115,-260.988 362.307,-263.88 361.886,-256.893"/>
</g>
<!-- Node3 -->
<g id="node3" class="node"><title>Node3</title>
<g id="a_node3"><a xlink:href="classxalanc_1_1ProblemListenerBase.html" target="_top" xlink:title="This is the abstract class that is used when reporting a problem some kind, that requires a message,...">
<polygon fill="none" stroke="black" points="0,-251.5 0,-270.5 144,-270.5 144,-251.5 0,-251.5"/>
<text text-anchor="middle" x="72" y="-258.5" font-family="Helvetica,sans-Serif" font-size="10.00">xalanc::ProblemListenerBase</text>
</a>
</g>
</g>
<!-- Node3&#45;&gt;Node2 -->
<g id="edge2" class="edge"><title>Node3&#45;&gt;Node2</title>
<path fill="none" stroke="midnightblue" d="M154.443,-261C180.756,-261 209.387,-261 233.681,-261"/>
<polygon fill="midnightblue" stroke="midnightblue" points="154.103,-257.5 144.103,-261 154.103,-264.5 154.103,-257.5"/>
</g>
<!-- Node4 -->
<g id="node4" class="node"><title>Node4</title>
<g id="a_node4"><a xlink:href="classxalanc_1_1PrefixResolver.html" target="_top" xlink:title="This class defines an interface for classes that resolve namespace prefixes to their URIs.">
<polygon fill="none" stroke="black" points="236.5,-213.5 236.5,-232.5 349.5,-232.5 349.5,-213.5 236.5,-213.5"/>
<text text-anchor="middle" x="293" y="-220.5" font-family="Helvetica,sans-Serif" font-size="10.00">xalanc::PrefixResolver</text>
</a>
</g>
</g>
<!-- Node4&#45;&gt;Node1 -->
<g id="edge3" class="edge"><title>Node4&#45;&gt;Node1</title>
<path fill="none" stroke="midnightblue" d="M359.793,-225.239C401.244,-224.579 455.198,-219.85 500,-203 527.774,-192.555 554.635,-169.561 568.424,-156.519"/>
<polygon fill="midnightblue" stroke="midnightblue" points="359.507,-221.742 349.537,-225.325 359.566,-228.741 359.507,-221.742"/>
</g>
<!-- Node5 -->
<g id="node5" class="node"><title>Node5</title>
<g id="a_node5"><a xlink:href="classxalanc_1_1XalanDOMString.html" target="_top" xlink:title=" ">
<polygon fill="none" stroke="black" points="232,-175.5 232,-194.5 354,-194.5 354,-175.5 232,-175.5"/>
<text text-anchor="middle" x="293" y="-182.5" font-family="Helvetica,sans-Serif" font-size="10.00">xalanc::XalanDOMString</text>
</a>
</g>
</g>
<!-- Node5&#45;&gt;Node1 -->
<g id="edge4" class="edge"><title>Node5&#45;&gt;Node1</title>
<path fill="none" stroke="#9a32cd" stroke-dasharray="5,2" d="M364.269,-178.54C404.174,-174.524 454.997,-168.829 500,-162 510.225,-160.448 521.154,-158.519 531.496,-156.565"/>
<polygon fill="#9a32cd" stroke="#9a32cd" points="363.713,-175.078 354.108,-179.55 364.405,-182.043 363.713,-175.078"/>
<text text-anchor="middle" x="442" y="-191" font-family="Helvetica,sans-Serif" font-size="10.00"> m_resultNameSpaceURL</text>
<text text-anchor="middle" x="442" y="-180" font-family="Helvetica,sans-Serif" font-size="10.00">m_resultNameSpacePrefix</text>
</g>
<!-- Node6 -->
<g id="node6" class="node"><title>Node6</title>
<g id="a_node6"><a xlink:href="classxalanc_1_1XObjectFactory.html" target="_top" xlink:title="This class handles the creation of XObjects and manages their lifetime.">
<polygon fill="none" stroke="black" points="234,-137.5 234,-156.5 352,-156.5 352,-137.5 234,-137.5"/>
<text text-anchor="middle" x="293" y="-144.5" font-family="Helvetica,sans-Serif" font-size="10.00">xalanc::XObjectFactory</text>
</a>
</g>
</g>
<!-- Node6&#45;&gt;Node1 -->
<g id="edge5" class="edge"><title>Node6&#45;&gt;Node1</title>
<path fill="none" stroke="#9a32cd" stroke-dasharray="5,2" d="M362.345,-147C409.8,-147 472.43,-147 517.963,-147"/>
<polygon fill="#9a32cd" stroke="#9a32cd" points="362.157,-143.5 352.157,-147 362.157,-150.5 362.157,-143.5"/>
<text text-anchor="middle" x="442" y="-150" font-family="Helvetica,sans-Serif" font-size="10.00"> m_xobjectFactory</text>
</g>
<!-- Node7 -->
<g id="node7" class="node"><title>Node7</title>
<g id="a_node7"><a xlink:href="classxalanc_1_1XalanMemMgrAutoPtr.html" target="_top" xlink:title=" ">
<polygon fill="none" stroke="black" points="220,-88 220,-118 366,-118 366,-88 220,-88"/>
<text text-anchor="start" x="228" y="-106" font-family="Helvetica,sans-Serif" font-size="10.00">xalanc::XalanMemMgrAutoPtr</text>
<text text-anchor="middle" x="293" y="-95" font-family="Helvetica,sans-Serif" font-size="10.00">&lt; Type &gt;</text>
</a>
</g>
</g>
<!-- Node7&#45;&gt;Node1 -->
<g id="edge6" class="edge"><title>Node7&#45;&gt;Node1</title>
<path fill="none" stroke="#9a32cd" stroke-dasharray="5,2" d="M376.058,-113.591C413.865,-118.718 459.284,-125.223 500,-132 509.93,-133.653 520.539,-135.583 530.633,-137.497"/>
<polygon fill="#9a32cd" stroke="#9a32cd" points="376.491,-110.118 366.113,-112.251 375.556,-117.056 376.491,-110.118"/>
<text text-anchor="middle" x="442" y="-135" font-family="Helvetica,sans-Serif" font-size="10.00"> m_xpathProcessor</text>
</g>
<!-- Node8 -->
<g id="node8" class="node"><title>Node8</title>
<g id="a_node8"><a xlink:href="classxalanc_1_1XalanVector.html" target="_top" xlink:title=" ">
<polygon fill="none" stroke="black" points="241.5,-39 241.5,-69 344.5,-69 344.5,-39 241.5,-39"/>
<text text-anchor="start" x="249.5" y="-57" font-family="Helvetica,sans-Serif" font-size="10.00">xalanc::XalanVector</text>
<text text-anchor="middle" x="293" y="-46" font-family="Helvetica,sans-Serif" font-size="10.00">&lt; bool &gt;</text>
</a>
</g>
</g>
<!-- Node8&#45;&gt;Node1 -->
<g id="edge7" class="edge"><title>Node8&#45;&gt;Node1</title>
<path fill="none" stroke="#9a32cd" stroke-dasharray="5,2" d="M354.871,-62.8083C396.684,-70.0741 452.924,-82.2747 500,-101 524.103,-110.587 549.539,-126.925 564.576,-137.329"/>
<polygon fill="#9a32cd" stroke="#9a32cd" points="355.279,-59.3277 344.835,-61.1108 354.111,-66.2297 355.279,-59.3277"/>
<text text-anchor="middle" x="442" y="-104" font-family="Helvetica,sans-Serif" font-size="10.00"> m_cdataStack</text>
</g>
<!-- Node9 -->
<g id="node9" class="node"><title>Node9</title>
<g id="a_node9"><a xlink:href="classxalanc_1_1XalanVector.html" target="_top" xlink:title=" ">
<polygon fill="none" stroke="black" points="2,-39 2,-69 142,-69 142,-39 2,-39"/>
<text text-anchor="start" x="10" y="-57" font-family="Helvetica,sans-Serif" font-size="10.00">xalanc::XalanVector</text>
<text text-anchor="middle" x="72" y="-46" font-family="Helvetica,sans-Serif" font-size="10.00">&lt; Type, ConstructionTraits &gt;</text>
</a>
</g>
</g>
<!-- Node9&#45;&gt;Node8 -->
<g id="edge8" class="edge"><title>Node9&#45;&gt;Node8</title>
<path fill="none" stroke="orange" stroke-dasharray="5,2" d="M152.606,-54C182.179,-54 214.901,-54 241.207,-54"/>
<polygon fill="orange" stroke="orange" points="152.293,-50.5001 142.293,-54 152.293,-57.5001 152.293,-50.5001"/>
<text text-anchor="middle" x="182" y="-57" font-family="Helvetica,sans-Serif" font-size="10.00"> &lt; bool &gt;</text>
</g>
<!-- Node10 -->
<g id="node10" class="node"><title>Node10</title>
<g id="a_node10"><a xlink:href="classxalanc_1_1XPathFactory.html" target="_top" xlink:title=" ">
<polygon fill="none" stroke="black" points="238,-0.5 238,-19.5 348,-19.5 348,-0.5 238,-0.5"/>
<text text-anchor="middle" x="293" y="-7.5" font-family="Helvetica,sans-Serif" font-size="10.00">xalanc::XPathFactory</text>
</a>
</g>
</g>
<!-- Node10&#45;&gt;Node1 -->
<g id="edge9" class="edge"><title>Node10&#45;&gt;Node1</title>
<path fill="none" stroke="#9a32cd" stroke-dasharray="5,2" d="M358.311,-12.9377C401.079,-17.382 457.065,-28.1666 500,-54 535.21,-75.1854 562.036,-118.056 572.822,-137.284"/>
<polygon fill="#9a32cd" stroke="#9a32cd" points="358.58,-9.44751 348.294,-11.9865 357.918,-16.4162 358.58,-9.44751"/>
<text text-anchor="middle" x="442" y="-57" font-family="Helvetica,sans-Serif" font-size="10.00"> m_xpathFactory</text>
</g>
</g>
</svg>
        <g id="navigator" transform="translate(0 0)" fill="#404254">
                <rect fill="#f2f5e9" fill-opacity="0.5" stroke="#606060" stroke-width=".5" x="0" y="0" width="60" height="60"/>
                <use id="zoomplus" xlink:href="#zoomPlus" x="17" y="9" onmousedown="handleZoom(evt,'in')"/>
                <use id="zoomminus" xlink:href="#zoomMin" x="42" y="9" onmousedown="handleZoom(evt,'out')"/>
                <use id="reset" xlink:href="#resetDef" x="30" y="36" onmousedown="handleReset()"/>
                <g id="arrowUp" xlink:href="#dirArrow" transform="translate(30 24)" onmousedown="handlePan(0,-1)">
                  <use xlink:href="#rim" fill="#404040">
                        <set attributeName="fill" to="#808080" begin="arrowUp.mouseover" end="arrowUp.mouseout"/>
                  </use>
                  <path fill="none" stroke="white" stroke-width="1.5" d="M0,-3.0v7 M-2.5,-0.5L0,-3.0L2.5,-0.5"/>
                </g>
                <g id="arrowRight" xlink:href="#dirArrow" transform="rotate(90) translate(36 -43)" onmousedown="handlePan(1,0)">
                  <use xlink:href="#rim" fill="#404040">
                        <set attributeName="fill" to="#808080" begin="arrowRight.mouseover" end="arrowRight.mouseout"/>
                  </use>
                  <path fill="none" stroke="white" stroke-width="1.5" d="M0,-3.0v7 M-2.5,-0.5L0,-3.0L2.5,-0.5"/>
                </g>
                <g id="arrowDown" xlink:href="#dirArrow" transform="rotate(180) translate(-30 -48)" onmousedown="handlePan(0,1)">
                  <use xlink:href="#rim" fill="#404040">
                        <set attributeName="fill" to="#808080" begin="arrowDown.mouseover" end="arrowDown.mouseout"/>
                  </use>
                  <path fill="none" stroke="white" stroke-width="1.5" d="M0,-3.0v7 M-2.5,-0.5L0,-3.0L2.5,-0.5"/>
                </g>
                <g id="arrowLeft" xlink:href="#dirArrow" transform="rotate(270) translate(-36 17)" onmousedown="handlePan(-1,0)">
                  <use xlink:href="#rim" fill="#404040">
                        <set attributeName="fill" to="#808080" begin="arrowLeft.mouseover" end="arrowLeft.mouseout"/>
                  </use>
                  <path fill="none" stroke="white" stroke-width="1.5" d="M0,-3.0v7 M-2.5,-0.5L0,-3.0L2.5,-0.5"/>
                </g>
        </g>
        <svg viewBox="0 0 15 15" width="100%" height="30px" preserveAspectRatio="xMaxYMin meet">
         <g id="arrow_out" transform="scale(0.3 0.3)">
          <a xlink:href="classxalanc_1_1XSLTEngineImpl__coll__graph_org.svg" target="_base">
           <rect id="button" ry="5" rx="5" y="6" x="6" height="38" width="38"
                fill="#f2f5e9" fill-opacity="0.5" stroke="#606060" stroke-width="1.0"/>
           <path id="arrow"
             d="M 11.500037,31.436501 C 11.940474,20.09759 22.043105,11.32322 32.158766,21.979434 L 37.068811,17.246167 C 37.068811,17.246167 37.088388,32 37.088388,32 L 22.160133,31.978069 C 22.160133,31.978069 26.997745,27.140456 26.997745,27.140456 C 18.528582,18.264221 13.291696,25.230495 11.500037,31.436501 z"
             style="fill:#404040;"/>
          </a>
         </g>
        </svg>
</svg>
