<?xml version="1.0" encoding="UTF-8" standalone="no"?>
<!DOCTYPE svg PUBLIC "-//W3C//DTD SVG 1.1//EN"
 "http://www.w3.org/Graphics/SVG/1.1/DTD/svg11.dtd">
<!-- Generated by graphviz version 2.38.0 (20140413.2041)
 -->
<!-- Title: xalanc::XalanSet&lt; Value &gt; Pages: 1 -->
<svg width="488pt" height="127pt"
 viewBox="0.00 0.00 488.00 126.50" xmlns="http://www.w3.org/2000/svg" xmlns:xlink="http://www.w3.org/1999/xlink">
<g id="graph0" class="graph" transform="scale(1 1) rotate(0) translate(4 122.5)">
<title>xalanc::XalanSet&lt; Value &gt;</title>
<!-- Node1 -->
<g id="node1" class="node"><title>Node1</title>
<g id="a_node1"><a xlink:title="Xalan set implementation.">
<polygon fill="#bfbfbf" stroke="black" points="0,-55 0,-74 132,-74 132,-55 0,-55"/>
<text text-anchor="middle" x="66" y="-62" font-family="Helvetica,sans-Serif" font-size="10.00">xalanc::XalanSet&lt; Value &gt;</text>
</a>
</g>
</g>
<!-- Node2 -->
<g id="node2" class="node"><title>Node2</title>
<g id="a_node2"><a xlink:href="classxalanc_1_1XalanSet.html" target="_top" xlink:title=" ">
<polygon fill="none" stroke="black" points="301,-99 301,-118 480,-118 480,-99 301,-99"/>
<text text-anchor="middle" x="390.5" y="-106" font-family="Helvetica,sans-Serif" font-size="10.00">xalanc::XalanSet&lt; XalanDOMString &gt;</text>
</a>
</g>
</g>
<!-- Node1&#45;&gt;Node2 -->
<g id="edge1" class="edge"><title>Node1&#45;&gt;Node2</title>
<path fill="none" stroke="orange" stroke-dasharray="5,2" d="M127.02,-75.7744C134.742,-77.099 142.55,-78.3767 150,-79.5 199.802,-87.0088 255.661,-93.8621 300.899,-99.0189"/>
<polygon fill="orange" stroke="orange" points="127.41,-72.2896 116.957,-74.0149 126.205,-79.185 127.41,-72.2896"/>
<text text-anchor="middle" x="216.5" y="-99.5" font-family="Helvetica,sans-Serif" font-size="10.00"> &lt; XalanDOMString &gt;</text>
</g>
<!-- Node3 -->
<g id="node3" class="node"><title>Node3</title>
<g id="a_node3"><a xlink:href="classxalanc_1_1XalanSet.html" target="_top" xlink:title=" ">
<polygon fill="none" stroke="black" points="313,-49.5 313,-79.5 468,-79.5 468,-49.5 313,-49.5"/>
<text text-anchor="start" x="321" y="-67.5" font-family="Helvetica,sans-Serif" font-size="10.00">xalanc::XalanSet&lt; XalanQName</text>
<text text-anchor="middle" x="390.5" y="-56.5" font-family="Helvetica,sans-Serif" font-size="10.00">ByReference &gt;</text>
</a>
</g>
</g>
<!-- Node1&#45;&gt;Node3 -->
<g id="edge2" class="edge"><title>Node1&#45;&gt;Node3</title>
<path fill="none" stroke="orange" stroke-dasharray="5,2" d="M142.302,-64.5C193.641,-64.5 261.403,-64.5 312.995,-64.5"/>
<polygon fill="orange" stroke="orange" points="142.263,-61.0001 132.263,-64.5 142.263,-68.0001 142.263,-61.0001"/>
<text text-anchor="middle" x="216.5" y="-67.5" font-family="Helvetica,sans-Serif" font-size="10.00"> &lt; XalanQNameByReference &gt;</text>
</g>
<!-- Node4 -->
<g id="node4" class="node"><title>Node4</title>
<g id="a_node4"><a xlink:href="classxalanc_1_1XalanSet.html" target="_top" xlink:title=" ">
<polygon fill="none" stroke="black" points="329.5,-0.5 329.5,-30.5 451.5,-30.5 451.5,-0.5 329.5,-0.5"/>
<text text-anchor="start" x="337.5" y="-18.5" font-family="Helvetica,sans-Serif" font-size="10.00">xalanc::XalanSet&lt; const</text>
<text text-anchor="middle" x="390.5" y="-7.5" font-family="Helvetica,sans-Serif" font-size="10.00"> XPath * &gt;</text>
</a>
</g>
</g>
<!-- Node1&#45;&gt;Node4 -->
<g id="edge3" class="edge"><title>Node1&#45;&gt;Node4</title>
<path fill="none" stroke="orange" stroke-dasharray="5,2" d="M127.922,-53.2184C135.352,-51.9227 142.844,-50.6541 150,-49.5 210.948,-39.6701 280.87,-29.9185 329.365,-23.3965"/>
<polygon fill="orange" stroke="orange" points="127.105,-49.8085 117.866,-54.9939 128.322,-56.7019 127.105,-49.8085"/>
<text text-anchor="middle" x="216.5" y="-52.5" font-family="Helvetica,sans-Serif" font-size="10.00"> &lt; const XPath * &gt;</text>
</g>
</g>
</svg>
