<?xml version="1.0" encoding="UTF-8" standalone="no"?>
<!DOCTYPE svg PUBLIC "-//W3C//DTD SVG 1.1//EN"
 "http://www.w3.org/Graphics/SVG/1.1/DTD/svg11.dtd">
<!-- Generated by graphviz version 2.43.0 (0)
 -->
<!-- Title: xalanc::XalanCollationServices::CollationCompareFunctor Pages: 1 -->
<svg width="387pt" height="149pt"
 viewBox="0.00 0.00 387.00 148.50" xmlns="http://www.w3.org/2000/svg" xmlns:xlink="http://www.w3.org/1999/xlink">
<g id="graph0" class="graph" transform="scale(1 1) rotate(0) translate(4 144.5)">
<title>xalanc::XalanCollationServices::CollationCompareFunctor</title>
<!-- Node1 -->
<g id="node1" class="node">
<title>Node1</title>
<g id="a_node1"><a xlink:title=" ">
<polygon fill="#bfbfbf" stroke="black" points="0,-61 0,-91 167,-91 167,-61 0,-61"/>
<text text-anchor="start" x="8" y="-79" font-family="Helvetica,sans-Serif" font-size="10.00">xalanc::XalanCollationServices</text>
<text text-anchor="middle" x="83.5" y="-68" font-family="Helvetica,sans-Serif" font-size="10.00">::CollationCompareFunctor</text>
</a>
</g>
</g>
<!-- Node2 -->
<g id="node2" class="node">
<title>Node2</title>
<g id="a_node2"><a xlink:href="classxalanc_1_1ICUBridgeCollationCompareFunctor.html" target="_top" xlink:title=" ">
<polygon fill="none" stroke="black" points="217.5,-110 217.5,-140 364.5,-140 364.5,-110 217.5,-110"/>
<text text-anchor="start" x="225.5" y="-128" font-family="Helvetica,sans-Serif" font-size="10.00">xalanc::ICUBridgeCollation</text>
<text text-anchor="middle" x="291" y="-117" font-family="Helvetica,sans-Serif" font-size="10.00">CompareFunctor</text>
</a>
</g>
</g>
<!-- Node1&#45;&gt;Node2 -->
<g id="edge1" class="edge">
<title>Node1&#45;&gt;Node2</title>
<path fill="none" stroke="midnightblue" d="M157.49,-93.4C180.22,-98.82 205.08,-104.75 227.07,-109.99"/>
<polygon fill="midnightblue" stroke="midnightblue" points="158.09,-89.95 147.55,-91.03 156.47,-96.76 158.09,-89.95"/>
</g>
<!-- Node3 -->
<g id="node3" class="node">
<title>Node3</title>
<g id="a_node3"><a xlink:href="classxalanc_1_1ICUBridgeCollationCompareFunctorImpl.html" target="_top" xlink:title=" ">
<polygon fill="none" stroke="black" points="217.5,-61 217.5,-91 364.5,-91 364.5,-61 217.5,-61"/>
<text text-anchor="start" x="225.5" y="-79" font-family="Helvetica,sans-Serif" font-size="10.00">xalanc::ICUBridgeCollation</text>
<text text-anchor="middle" x="291" y="-68" font-family="Helvetica,sans-Serif" font-size="10.00">CompareFunctorImpl</text>
</a>
</g>
</g>
<!-- Node1&#45;&gt;Node3 -->
<g id="edge2" class="edge">
<title>Node1&#45;&gt;Node3</title>
<path fill="none" stroke="midnightblue" d="M177.4,-76C190.82,-76 204.46,-76 217.4,-76"/>
<polygon fill="midnightblue" stroke="midnightblue" points="177.2,-72.5 167.2,-76 177.2,-79.5 177.2,-72.5"/>
</g>
<!-- Node4 -->
<g id="node4" class="node">
<title>Node4</title>
<g id="a_node4"><a xlink:href="classxalanc_1_1StylesheetExecutionContextDefault_1_1DefaultCollationCompareFunctor.html" target="_top" xlink:title=" ">
<polygon fill="none" stroke="black" points="203,-0.5 203,-41.5 379,-41.5 379,-0.5 203,-0.5"/>
<text text-anchor="start" x="211" y="-29.5" font-family="Helvetica,sans-Serif" font-size="10.00">xalanc::StylesheetExecution</text>
<text text-anchor="start" x="211" y="-18.5" font-family="Helvetica,sans-Serif" font-size="10.00">ContextDefault::DefaultCollation</text>
<text text-anchor="middle" x="291" y="-7.5" font-family="Helvetica,sans-Serif" font-size="10.00">CompareFunctor</text>
</a>
</g>
</g>
<!-- Node1&#45;&gt;Node4 -->
<g id="edge3" class="edge">
<title>Node1&#45;&gt;Node4</title>
<path fill="none" stroke="midnightblue" d="M150.56,-58.32C170.49,-52.99 192.54,-47.08 213.11,-41.58"/>
<polygon fill="midnightblue" stroke="midnightblue" points="149.41,-55 140.65,-60.97 151.22,-61.77 149.41,-55"/>
</g>
</g>
</svg>
