<?xml version="1.0" encoding="UTF-8" standalone="no"?>
<!DOCTYPE svg PUBLIC "-//W3C//DTD SVG 1.1//EN"
 "http://www.w3.org/Graphics/SVG/1.1/DTD/svg11.dtd">
<!-- Generated by graphviz version 2.43.0 (0)
 -->
<!-- Title: xalanc::XercesElementWrapper Pages: 1 -->
<svg width="274pt" height="140pt"
 viewBox="0.00 0.00 274.00 140.00" xmlns="http://www.w3.org/2000/svg" xmlns:xlink="http://www.w3.org/1999/xlink">
<g id="graph0" class="graph" transform="scale(1 1) rotate(0) translate(4 136)">
<title>xalanc::XercesElementWrapper</title>
<!-- Node1 -->
<g id="node1" class="node">
<title>Node1</title>
<g id="a_node1"><a xlink:title=" ">
<polygon fill="#bfbfbf" stroke="black" points="47.5,-0.5 47.5,-19.5 217.5,-19.5 217.5,-0.5 47.5,-0.5"/>
<text text-anchor="middle" x="132.5" y="-7.5" font-family="Helvetica,sans-Serif" font-size="10.00">xalanc::XercesElementWrapper</text>
</a>
</g>
</g>
<!-- Node2 -->
<g id="node2" class="node">
<title>Node2</title>
<g id="a_node2"><a xlink:href="classxalanc_1_1XalanElement.html" target="_top" xlink:title=" ">
<polygon fill="none" stroke="black" points="0,-56.5 0,-75.5 123,-75.5 123,-56.5 0,-56.5"/>
<text text-anchor="middle" x="61.5" y="-63.5" font-family="Helvetica,sans-Serif" font-size="10.00">xalanc::XalanElement</text>
</a>
</g>
</g>
<!-- Node2&#45;&gt;Node1 -->
<g id="edge1" class="edge">
<title>Node2&#45;&gt;Node1</title>
<path fill="none" stroke="midnightblue" d="M81.09,-50.1C93.87,-40.38 110.11,-28.03 120.89,-19.83"/>
<polygon fill="midnightblue" stroke="midnightblue" points="78.75,-47.48 72.91,-56.32 82.99,-53.06 78.75,-47.48"/>
</g>
<!-- Node3 -->
<g id="node3" class="node">
<title>Node3</title>
<g id="a_node3"><a xlink:href="classxalanc_1_1XalanNode.html" target="_top" xlink:title=" ">
<polygon fill="none" stroke="black" points="7.5,-112.5 7.5,-131.5 115.5,-131.5 115.5,-112.5 7.5,-112.5"/>
<text text-anchor="middle" x="61.5" y="-119.5" font-family="Helvetica,sans-Serif" font-size="10.00">xalanc::XalanNode</text>
</a>
</g>
</g>
<!-- Node3&#45;&gt;Node2 -->
<g id="edge2" class="edge">
<title>Node3&#45;&gt;Node2</title>
<path fill="none" stroke="midnightblue" d="M61.5,-101.8C61.5,-92.91 61.5,-82.78 61.5,-75.75"/>
<polygon fill="midnightblue" stroke="midnightblue" points="58,-102.08 61.5,-112.08 65,-102.08 58,-102.08"/>
</g>
<!-- Node4 -->
<g id="node4" class="node">
<title>Node4</title>
<g id="a_node4"><a xlink:href="classxalanc_1_1XalanNodeList.html" target="_top" xlink:title=" ">
<polygon fill="none" stroke="black" points="141,-56.5 141,-75.5 266,-75.5 266,-56.5 141,-56.5"/>
<text text-anchor="middle" x="203.5" y="-63.5" font-family="Helvetica,sans-Serif" font-size="10.00">xalanc::XalanNodeList</text>
</a>
</g>
</g>
<!-- Node4&#45;&gt;Node1 -->
<g id="edge3" class="edge">
<title>Node4&#45;&gt;Node1</title>
<path fill="none" stroke="#8b1a1a" d="M183.91,-50.1C171.13,-40.38 154.89,-28.03 144.11,-19.83"/>
<polygon fill="#8b1a1a" stroke="#8b1a1a" points="182.01,-53.06 192.09,-56.32 186.25,-47.48 182.01,-53.06"/>
</g>
</g>
</svg>
