<?xml version="1.0" encoding="UTF-8" standalone="no"?>
<!DOCTYPE svg PUBLIC "-//W3C//DTD SVG 1.1//EN"
 "http://www.w3.org/Graphics/SVG/1.1/DTD/svg11.dtd">
<!-- Generated by graphviz version 2.38.0 (20140413.2041)
 -->
<!-- Title: xalanc::XalanFileOutputStream::XalanFileOutputStreamWriteException Pages: 1 -->
<svg width="197pt" height="231pt"
 viewBox="0.00 0.00 197.00 231.00" xmlns="http://www.w3.org/2000/svg" xmlns:xlink="http://www.w3.org/1999/xlink">
<g id="graph0" class="graph" transform="scale(1 1) rotate(0) translate(4 227)">
<title>xalanc::XalanFileOutputStream::XalanFileOutputStreamWriteException</title>
<!-- Node1 -->
<g id="node1" class="node"><title>Node1</title>
<g id="a_node1"><a xlink:title=" ">
<polygon fill="#bfbfbf" stroke="black" points="0,-0.5 0,-30.5 189,-30.5 189,-0.5 0,-0.5"/>
<text text-anchor="start" x="8" y="-18.5" font-family="Helvetica,sans-Serif" font-size="10.00">xalanc::XalanFileOutputStream</text>
<text text-anchor="middle" x="94.5" y="-7.5" font-family="Helvetica,sans-Serif" font-size="10.00">::XalanFileOutputStreamWriteException</text>
</a>
</g>
</g>
<!-- Node2 -->
<g id="node2" class="node"><title>Node2</title>
<g id="a_node2"><a xlink:href="classxalanc_1_1XalanOutputStream_1_1XalanOutputStreamException.html" target="_top" xlink:title=" ">
<polygon fill="none" stroke="black" points="19.5,-68.5 19.5,-98.5 169.5,-98.5 169.5,-68.5 19.5,-68.5"/>
<text text-anchor="start" x="27.5" y="-86.5" font-family="Helvetica,sans-Serif" font-size="10.00">xalanc::XalanOutputStream</text>
<text text-anchor="middle" x="94.5" y="-75.5" font-family="Helvetica,sans-Serif" font-size="10.00">::XalanOutputStreamException</text>
</a>
</g>
</g>
<!-- Node2&#45;&gt;Node1 -->
<g id="edge1" class="edge"><title>Node2&#45;&gt;Node1</title>
<path fill="none" stroke="midnightblue" d="M94.5,-58.0322C94.5,-48.8606 94.5,-38.7449 94.5,-30.7931"/>
<polygon fill="midnightblue" stroke="midnightblue" points="91.0001,-58.1789 94.5,-68.179 98.0001,-58.179 91.0001,-58.1789"/>
</g>
<!-- Node3 -->
<g id="node3" class="node"><title>Node3</title>
<g id="a_node3"><a xlink:href="classxalanc_1_1XSLException.html" target="_top" xlink:title=" ">
<polygon fill="none" stroke="black" points="38.5,-136.5 38.5,-155.5 150.5,-155.5 150.5,-136.5 38.5,-136.5"/>
<text text-anchor="middle" x="94.5" y="-143.5" font-family="Helvetica,sans-Serif" font-size="10.00">xalanc::XSLException</text>
</a>
</g>
</g>
<!-- Node3&#45;&gt;Node2 -->
<g id="edge2" class="edge"><title>Node3&#45;&gt;Node2</title>
<path fill="none" stroke="midnightblue" d="M94.5,-126.215C94.5,-117.356 94.5,-106.958 94.5,-98.7587"/>
<polygon fill="midnightblue" stroke="midnightblue" points="91.0001,-126.332 94.5,-136.332 98.0001,-126.332 91.0001,-126.332"/>
</g>
<!-- Node4 -->
<g id="node4" class="node"><title>Node4</title>
<g id="a_node4"><a xlink:title=" ">
<polygon fill="none" stroke="#bfbfbf" points="50,-203.5 50,-222.5 139,-222.5 139,-203.5 50,-203.5"/>
<text text-anchor="middle" x="94.5" y="-210.5" font-family="Helvetica,sans-Serif" font-size="10.00">MemoryManager</text>
</a>
</g>
</g>
<!-- Node4&#45;&gt;Node3 -->
<g id="edge3" class="edge"><title>Node4&#45;&gt;Node3</title>
<path fill="none" stroke="#9a32cd" stroke-dasharray="5,2" d="M94.5,-193.037C94.5,-180.67 94.5,-165.12 94.5,-155.627"/>
<polygon fill="#9a32cd" stroke="#9a32cd" points="91.0001,-193.234 94.5,-203.234 98.0001,-193.234 91.0001,-193.234"/>
<text text-anchor="middle" x="139.5" y="-177" font-family="Helvetica,sans-Serif" font-size="10.00"> m_memoryManager</text>
</g>
</g>
</svg>
