<?xml version="1.0" encoding="UTF-8" standalone="no"?>
<!DOCTYPE svg PUBLIC "-//W3C//DTD SVG 1.1//EN"
 "http://www.w3.org/Graphics/SVG/1.1/DTD/svg11.dtd">
<!-- Generated by graphviz version 2.43.0 (0)
 -->
<!-- Title: xalanc::ElemWithParam Pages: 1 -->
<svg width="681pt" height="134pt"
 viewBox="0.00 0.00 681.00 134.03" xmlns="http://www.w3.org/2000/svg" xmlns:xlink="http://www.w3.org/1999/xlink">
<g id="graph0" class="graph" transform="scale(1 1) rotate(0) translate(4 130.03)">
<title>xalanc::ElemWithParam</title>
<!-- Node1 -->
<g id="node1" class="node">
<title>Node1</title>
<g id="a_node1"><a xlink:title=" ">
<polygon fill="#bfbfbf" stroke="black" points="540,-106.53 540,-125.53 673,-125.53 673,-106.53 540,-106.53"/>
<text text-anchor="middle" x="606.5" y="-113.53" font-family="Helvetica,sans-Serif" font-size="10.00">xalanc::ElemWithParam</text>
</a>
</g>
</g>
<!-- Node2 -->
<g id="node2" class="node">
<title>Node2</title>
<g id="a_node2"><a xlink:href="classxalanc_1_1ElemTemplateElement.html" target="_top" xlink:title=" ">
<polygon fill="none" stroke="black" points="245,-55.53 245,-74.53 410,-74.53 410,-55.53 245,-55.53"/>
<text text-anchor="middle" x="327.5" y="-62.53" font-family="Helvetica,sans-Serif" font-size="10.00">xalanc::ElemTemplateElement</text>
</a>
</g>
</g>
<!-- Node2&#45;&gt;Node1 -->
<g id="edge1" class="edge">
<title>Node2&#45;&gt;Node1</title>
<path fill="none" stroke="midnightblue" d="M370.94,-77.28C388.49,-82.04 409.12,-87.25 428,-91.03 464.77,-98.4 506.25,-104.37 539.86,-108.63"/>
<polygon fill="midnightblue" stroke="midnightblue" points="371.56,-73.82 360.99,-74.54 369.71,-80.57 371.56,-73.82"/>
</g>
<!-- Node2&#45;&gt;Node2 -->
<g id="edge6" class="edge">
<title>Node2&#45;&gt;Node2</title>
<path fill="none" stroke="#9a32cd" stroke-dasharray="5,2" d="M302.2,-84.06C303.58,-89.16 312.01,-93.03 327.5,-93.03 351.67,-93.03 358.66,-83.6 348.46,-74.79"/>
<polygon fill="#9a32cd" stroke="#9a32cd" points="305.47,-85.33 306.54,-74.79 299.13,-82.37 305.47,-85.33"/>
<text text-anchor="middle" x="327.5" y="-96.03" font-family="Helvetica,sans-Serif" font-size="10.00"> m_firstChild</text>
</g>
<!-- Node4 -->
<g id="node4" class="node">
<title>Node4</title>
<g id="a_node4"><a xlink:href="classxalanc_1_1ElemTextLiteral.html" target="_top" xlink:title=" ">
<polygon fill="none" stroke="black" points="541,-62.53 541,-81.53 672,-81.53 672,-62.53 541,-62.53"/>
<text text-anchor="middle" x="606.5" y="-69.53" font-family="Helvetica,sans-Serif" font-size="10.00">xalanc::ElemTextLiteral</text>
</a>
</g>
</g>
<!-- Node2&#45;&gt;Node4 -->
<g id="edge4" class="edge">
<title>Node2&#45;&gt;Node4</title>
<path fill="none" stroke="midnightblue" d="M408.75,-75.55C415.25,-76.15 421.73,-76.66 428,-77.03 469.7,-79.54 480.24,-78.28 522,-77.03 528.1,-76.85 534.44,-76.59 540.79,-76.29"/>
<polygon fill="midnightblue" stroke="midnightblue" points="408.82,-72.04 398.53,-74.55 408.14,-79.01 408.82,-72.04"/>
</g>
<!-- Node6 -->
<g id="node6" class="node">
<title>Node6</title>
<g id="a_node6"><a xlink:href="classxalanc_1_1ElemTemplate.html" target="_top" xlink:title=" ">
<polygon fill="none" stroke="black" points="544,-9.53 544,-28.53 669,-28.53 669,-9.53 544,-9.53"/>
<text text-anchor="middle" x="606.5" y="-16.53" font-family="Helvetica,sans-Serif" font-size="10.00">xalanc::ElemTemplate</text>
</a>
</g>
</g>
<!-- Node2&#45;&gt;Node6 -->
<g id="edge8" class="edge">
<title>Node2&#45;&gt;Node6</title>
<path fill="none" stroke="midnightblue" d="M395.91,-53.84C442.53,-46.1 503.91,-35.9 548.18,-28.55"/>
<polygon fill="midnightblue" stroke="midnightblue" points="395.19,-50.41 385.89,-55.5 396.33,-57.32 395.19,-50.41"/>
</g>
<!-- Node3 -->
<g id="node3" class="node">
<title>Node3</title>
<g id="a_node3"><a xlink:href="classxalanc_1_1PrefixResolver.html" target="_top" xlink:title="This class defines an interface for classes that resolve namespace prefixes to their URIs.">
<polygon fill="none" stroke="black" points="5,-74.53 5,-93.53 130,-93.53 130,-74.53 5,-74.53"/>
<text text-anchor="middle" x="67.5" y="-81.53" font-family="Helvetica,sans-Serif" font-size="10.00">xalanc::PrefixResolver</text>
</a>
</g>
</g>
<!-- Node3&#45;&gt;Node2 -->
<g id="edge2" class="edge">
<title>Node3&#45;&gt;Node2</title>
<path fill="none" stroke="midnightblue" d="M140.58,-78.73C172.94,-76.34 211.28,-73.52 244.71,-71.06"/>
<polygon fill="midnightblue" stroke="midnightblue" points="140.01,-75.26 130.3,-79.48 140.53,-82.24 140.01,-75.26"/>
</g>
<!-- Node4&#45;&gt;Node2 -->
<g id="edge3" class="edge">
<title>Node4&#45;&gt;Node2</title>
<path fill="none" stroke="#9a32cd" stroke-dasharray="5,2" d="M530.71,-66.42C527.77,-66.27 524.86,-66.14 522,-66.03 485.41,-64.63 444.9,-64.24 410.44,-64.25"/>
<polygon fill="#9a32cd" stroke="#9a32cd" points="530.62,-69.92 540.79,-66.96 530.99,-62.93 530.62,-69.92"/>
<text text-anchor="middle" x="475" y="-69.03" font-family="Helvetica,sans-Serif" font-size="10.00"> m_textLiteralChild</text>
</g>
<!-- Node5 -->
<g id="node5" class="node">
<title>Node5</title>
<g id="a_node5"><a xlink:href="classxalanc_1_1XalanDOMString.html" target="_top" xlink:title=" ">
<polygon fill="none" stroke="black" points="0,-36.53 0,-55.53 135,-55.53 135,-36.53 0,-36.53"/>
<text text-anchor="middle" x="67.5" y="-43.53" font-family="Helvetica,sans-Serif" font-size="10.00">xalanc::XalanDOMString</text>
</a>
</g>
</g>
<!-- Node5&#45;&gt;Node2 -->
<g id="edge5" class="edge">
<title>Node5&#45;&gt;Node2</title>
<path fill="none" stroke="#9a32cd" stroke-dasharray="5,2" d="M145.37,-51.2C171.3,-52.99 200.41,-55.04 227,-57.03 232.79,-57.47 238.77,-57.92 244.79,-58.39"/>
<polygon fill="#9a32cd" stroke="#9a32cd" points="145.44,-47.7 135.22,-50.5 144.96,-54.68 145.44,-47.7"/>
<text text-anchor="middle" x="190" y="-60.03" font-family="Helvetica,sans-Serif" font-size="10.00"> s_emptyString</text>
</g>
<!-- Node6&#45;&gt;Node2 -->
<g id="edge7" class="edge">
<title>Node6&#45;&gt;Node2</title>
<path fill="none" stroke="#9a32cd" stroke-dasharray="5,2" d="M558.28,-7.55C522.03,-0.71 471.06,4.6 428,-7.03 393.06,-16.47 357.79,-41.56 340.12,-55.45"/>
<polygon fill="#9a32cd" stroke="#9a32cd" points="557.6,-10.99 568.09,-9.51 558.97,-4.12 557.6,-10.99"/>
<text text-anchor="middle" x="475" y="-10.03" font-family="Helvetica,sans-Serif" font-size="10.00"> m_directTemplate</text>
</g>
</g>
</svg>
