<?xml version="1.0" encoding="UTF-8" standalone="no"?>
<!DOCTYPE svg PUBLIC "-//W3C//DTD SVG 1.1//EN"
 "http://www.w3.org/Graphics/SVG/1.1/DTD/svg11.dtd">
<!-- Generated by graphviz version 2.38.0 (20140413.2041)
 -->
<!-- Title: xalanc::XalanSourceTreeElementNANS Pages: 1 -->
<svg width="195pt" height="252pt"
 viewBox="0.00 0.00 195.00 252.00" xmlns="http://www.w3.org/2000/svg" xmlns:xlink="http://www.w3.org/1999/xlink">
<g id="graph0" class="graph" transform="scale(1 1) rotate(0) translate(4 248)">
<title>xalanc::XalanSourceTreeElementNANS</title>
<!-- Node1 -->
<g id="node1" class="node"><title>Node1</title>
<g id="a_node1"><a xlink:title=" ">
<polygon fill="#bfbfbf" stroke="black" points="0,-0.5 0,-19.5 187,-19.5 187,-0.5 0,-0.5"/>
<text text-anchor="middle" x="93.5" y="-7.5" font-family="Helvetica,sans-Serif" font-size="10.00">xalanc::XalanSourceTreeElementNANS</text>
</a>
</g>
</g>
<!-- Node2 -->
<g id="node2" class="node"><title>Node2</title>
<g id="a_node2"><a xlink:href="classxalanc_1_1XalanSourceTreeElementNA.html" target="_top" xlink:title=" ">
<polygon fill="none" stroke="black" points="7,-56.5 7,-75.5 180,-75.5 180,-56.5 7,-56.5"/>
<text text-anchor="middle" x="93.5" y="-63.5" font-family="Helvetica,sans-Serif" font-size="10.00">xalanc::XalanSourceTreeElementNA</text>
</a>
</g>
</g>
<!-- Node2&#45;&gt;Node1 -->
<g id="edge1" class="edge"><title>Node2&#45;&gt;Node1</title>
<path fill="none" stroke="midnightblue" d="M93.5,-45.8045C93.5,-36.9102 93.5,-26.7798 93.5,-19.7511"/>
<polygon fill="midnightblue" stroke="midnightblue" points="90.0001,-46.083 93.5,-56.083 97.0001,-46.083 90.0001,-46.083"/>
</g>
<!-- Node3 -->
<g id="node3" class="node"><title>Node3</title>
<g id="a_node3"><a xlink:href="classxalanc_1_1XalanSourceTreeElement.html" target="_top" xlink:title=" ">
<polygon fill="none" stroke="black" points="13.5,-112.5 13.5,-131.5 173.5,-131.5 173.5,-112.5 13.5,-112.5"/>
<text text-anchor="middle" x="93.5" y="-119.5" font-family="Helvetica,sans-Serif" font-size="10.00">xalanc::XalanSourceTreeElement</text>
</a>
</g>
</g>
<!-- Node3&#45;&gt;Node2 -->
<g id="edge2" class="edge"><title>Node3&#45;&gt;Node2</title>
<path fill="none" stroke="midnightblue" d="M93.5,-101.805C93.5,-92.9102 93.5,-82.7798 93.5,-75.7511"/>
<polygon fill="midnightblue" stroke="midnightblue" points="90.0001,-102.083 93.5,-112.083 97.0001,-102.083 90.0001,-102.083"/>
</g>
<!-- Node4 -->
<g id="node4" class="node"><title>Node4</title>
<g id="a_node4"><a xlink:href="classxalanc_1_1XalanElement.html" target="_top" xlink:title=" ">
<polygon fill="none" stroke="black" points="38.5,-168.5 38.5,-187.5 148.5,-187.5 148.5,-168.5 38.5,-168.5"/>
<text text-anchor="middle" x="93.5" y="-175.5" font-family="Helvetica,sans-Serif" font-size="10.00">xalanc::XalanElement</text>
</a>
</g>
</g>
<!-- Node4&#45;&gt;Node3 -->
<g id="edge3" class="edge"><title>Node4&#45;&gt;Node3</title>
<path fill="none" stroke="midnightblue" d="M93.5,-157.805C93.5,-148.91 93.5,-138.78 93.5,-131.751"/>
<polygon fill="midnightblue" stroke="midnightblue" points="90.0001,-158.083 93.5,-168.083 97.0001,-158.083 90.0001,-158.083"/>
</g>
<!-- Node5 -->
<g id="node5" class="node"><title>Node5</title>
<g id="a_node5"><a xlink:href="classxalanc_1_1XalanNode.html" target="_top" xlink:title=" ">
<polygon fill="none" stroke="black" points="45,-224.5 45,-243.5 142,-243.5 142,-224.5 45,-224.5"/>
<text text-anchor="middle" x="93.5" y="-231.5" font-family="Helvetica,sans-Serif" font-size="10.00">xalanc::XalanNode</text>
</a>
</g>
</g>
<!-- Node5&#45;&gt;Node4 -->
<g id="edge4" class="edge"><title>Node5&#45;&gt;Node4</title>
<path fill="none" stroke="midnightblue" d="M93.5,-213.805C93.5,-204.91 93.5,-194.78 93.5,-187.751"/>
<polygon fill="midnightblue" stroke="midnightblue" points="90.0001,-214.083 93.5,-224.083 97.0001,-214.083 90.0001,-214.083"/>
</g>
</g>
</svg>
