<?xml version="1.0" encoding="UTF-8" standalone="no"?>
<!DOCTYPE svg PUBLIC "-//W3C//DTD SVG 1.1//EN"
 "http://www.w3.org/Graphics/SVG/1.1/DTD/svg11.dtd">
<!-- Generated by graphviz version 2.38.0 (20140413.2041)
 -->
<!-- Title: xalanc::XalanParamHolder Pages: 1 -->
<svg width="246pt" height="95pt"
 viewBox="0.00 0.00 246.00 95.00" xmlns="http://www.w3.org/2000/svg" xmlns:xlink="http://www.w3.org/1999/xlink">
<g id="graph0" class="graph" transform="scale(1 1) rotate(0) translate(4 91)">
<title>xalanc::XalanParamHolder</title>
<!-- Node1 -->
<g id="node1" class="node"><title>Node1</title>
<g id="a_node1"><a xlink:title=" ">
<polygon fill="#bfbfbf" stroke="black" points="59.5,-0.5 59.5,-19.5 190.5,-19.5 190.5,-0.5 59.5,-0.5"/>
<text text-anchor="middle" x="125" y="-7.5" font-family="Helvetica,sans-Serif" font-size="10.00">xalanc::XalanParamHolder</text>
</a>
</g>
</g>
<!-- Node2 -->
<g id="node2" class="node"><title>Node2</title>
<g id="a_node2"><a xlink:href="classxalanc_1_1XalanDOMString.html" target="_top" xlink:title=" ">
<polygon fill="none" stroke="black" points="0,-67.5 0,-86.5 122,-86.5 122,-67.5 0,-67.5"/>
<text text-anchor="middle" x="61" y="-74.5" font-family="Helvetica,sans-Serif" font-size="10.00">xalanc::XalanDOMString</text>
</a>
</g>
</g>
<!-- Node2&#45;&gt;Node1 -->
<g id="edge1" class="edge"><title>Node2&#45;&gt;Node1</title>
<path fill="none" stroke="#9a32cd" stroke-dasharray="5,2" d="M76.757,-59.9968C89.3081,-47.2496 106.396,-29.8947 116.505,-19.6273"/>
<polygon fill="#9a32cd" stroke="#9a32cd" points="74.1534,-57.6525 69.6313,-67.2338 79.1414,-62.5637 74.1534,-57.6525"/>
<text text-anchor="middle" x="129" y="-41" font-family="Helvetica,sans-Serif" font-size="10.00"> m_expression</text>
</g>
<!-- Node3 -->
<g id="node3" class="node"><title>Node3</title>
<g id="a_node3"><a xlink:href="classxalanc_1_1XObjectPtr.html" target="_top" xlink:title="Class to hold XObjectPtr return types.">
<polygon fill="none" stroke="black" points="140,-67.5 140,-86.5 238,-86.5 238,-67.5 140,-67.5"/>
<text text-anchor="middle" x="189" y="-74.5" font-family="Helvetica,sans-Serif" font-size="10.00">xalanc::XObjectPtr</text>
</a>
</g>
</g>
<!-- Node3&#45;&gt;Node1 -->
<g id="edge2" class="edge"><title>Node3&#45;&gt;Node1</title>
<path fill="none" stroke="#9a32cd" stroke-dasharray="5,2" d="M179.886,-58.2946C175.878,-51.4944 170.767,-43.9456 165,-38 158,-30.7833 148.773,-24.3997 140.946,-19.6538"/>
<polygon fill="#9a32cd" stroke="#9a32cd" points="177.032,-60.3692 184.915,-67.4478 183.167,-56.9982 177.032,-60.3692"/>
<text text-anchor="middle" x="192.5" y="-41" font-family="Helvetica,sans-Serif" font-size="10.00"> m_value</text>
</g>
</g>
</svg>
