<?xml version="1.0" encoding="UTF-8" standalone="no"?>
<!DOCTYPE svg PUBLIC "-//W3C//DTD SVG 1.1//EN"
 "http://www.w3.org/Graphics/SVG/1.1/DTD/svg11.dtd">
<!-- Generated by graphviz version 2.43.0 (0)
 -->
<!-- Title: xalanc::FormatterToHTML Pages: 1 -->
<svg width="854pt" height="224pt"
 viewBox="0.00 0.00 854.00 223.50" xmlns="http://www.w3.org/2000/svg" xmlns:xlink="http://www.w3.org/1999/xlink">
<g id="graph0" class="graph" transform="scale(1 1) rotate(0) translate(4 219.5)">
<title>xalanc::FormatterToHTML</title>
<!-- Node1 -->
<g id="node1" class="node">
<title>Node1</title>
<g id="a_node1"><a xlink:title="FormatterToHTML formats SAX&#45;style events into HTML.">
<polygon fill="#bfbfbf" stroke="black" points="705,-88 705,-107 846,-107 846,-88 705,-88"/>
<text text-anchor="middle" x="775.5" y="-95" font-family="Helvetica,sans-Serif" font-size="10.00">xalanc::FormatterToHTML</text>
</a>
</g>
</g>
<!-- Node2 -->
<g id="node2" class="node">
<title>Node2</title>
<g id="a_node2"><a xlink:href="classxalanc_1_1FormatterToXML.html" target="_top" xlink:title="FormatterToXML formats SAX&#45;style events into XML.">
<polygon fill="none" stroke="black" points="534,-88 534,-107 668,-107 668,-88 534,-88"/>
<text text-anchor="middle" x="601" y="-95" font-family="Helvetica,sans-Serif" font-size="10.00">xalanc::FormatterToXML</text>
</a>
</g>
</g>
<!-- Node2&#45;&gt;Node1 -->
<g id="edge1" class="edge">
<title>Node2&#45;&gt;Node1</title>
<path fill="none" stroke="midnightblue" d="M678.41,-97.5C687.18,-97.5 696.08,-97.5 704.76,-97.5"/>
<polygon fill="midnightblue" stroke="midnightblue" points="678.2,-94 668.2,-97.5 678.2,-101 678.2,-94"/>
</g>
<!-- Node3 -->
<g id="node3" class="node">
<title>Node3</title>
<g id="a_node3"><a xlink:href="classxalanc_1_1FormatterListener.html" target="_top" xlink:title="A SAX&#45;based formatter interface for the XSL processor.">
<polygon fill="none" stroke="black" points="284.5,-126 284.5,-145 426.5,-145 426.5,-126 284.5,-126"/>
<text text-anchor="middle" x="355.5" y="-133" font-family="Helvetica,sans-Serif" font-size="10.00">xalanc::FormatterListener</text>
</a>
</g>
</g>
<!-- Node3&#45;&gt;Node2 -->
<g id="edge2" class="edge">
<title>Node3&#45;&gt;Node2</title>
<path fill="none" stroke="midnightblue" d="M436.07,-124.56C461.62,-120.9 490.03,-116.69 516,-112.5 526.38,-110.82 537.47,-108.92 548.07,-107.05"/>
<polygon fill="midnightblue" stroke="midnightblue" points="435.47,-121.11 426.06,-125.99 436.45,-128.04 435.47,-121.11"/>
</g>
<!-- Node4 -->
<g id="node4" class="node">
<title>Node4</title>
<g id="a_node4"><a xlink:title=" ">
<polygon fill="none" stroke="#bfbfbf" points="3.5,-119 3.5,-138 151.5,-138 151.5,-119 3.5,-119"/>
<text text-anchor="middle" x="77.5" y="-126" font-family="Helvetica,sans-Serif" font-size="10.00">xercesc::DocumentHandler</text>
</a>
</g>
</g>
<!-- Node4&#45;&gt;Node3 -->
<g id="edge3" class="edge">
<title>Node4&#45;&gt;Node3</title>
<path fill="none" stroke="midnightblue" d="M162.03,-130.62C201.07,-131.61 247.03,-132.77 284.26,-133.72"/>
<polygon fill="midnightblue" stroke="midnightblue" points="161.82,-127.11 151.74,-130.36 161.65,-134.11 161.82,-127.11"/>
</g>
<!-- Node5 -->
<g id="node5" class="node">
<title>Node5</title>
<g id="a_node5"><a xlink:href="classxalanc_1_1XalanDOMString.html" target="_top" xlink:title=" ">
<polygon fill="none" stroke="black" points="10,-168 10,-187 145,-187 145,-168 10,-168"/>
<text text-anchor="middle" x="77.5" y="-175" font-family="Helvetica,sans-Serif" font-size="10.00">xalanc::XalanDOMString</text>
</a>
</g>
</g>
<!-- Node5&#45;&gt;Node2 -->
<g id="edge7" class="edge">
<title>Node5&#45;&gt;Node2</title>
<path fill="none" stroke="#9a32cd" stroke-dasharray="5,2" d="M155.25,-177.37C188.15,-176.91 226.99,-175.84 262,-173.5 376.24,-165.85 407.49,-167.03 516,-130.5 537.09,-123.4 560.62,-114.02 577.41,-107.08"/>
<polygon fill="#9a32cd" stroke="#9a32cd" points="155.2,-173.87 145.24,-177.49 155.29,-180.87 155.2,-173.87"/>
<text text-anchor="middle" x="355.5" y="-207.5" font-family="Helvetica,sans-Serif" font-size="10.00"> m_stringBuffer</text>
<text text-anchor="middle" x="355.5" y="-196.5" font-family="Helvetica,sans-Serif" font-size="10.00">m_doctypeSystem</text>
<text text-anchor="middle" x="355.5" y="-185.5" font-family="Helvetica,sans-Serif" font-size="10.00">m_doctypePublic</text>
<text text-anchor="middle" x="355.5" y="-174.5" font-family="Helvetica,sans-Serif" font-size="10.00">m_encoding</text>
</g>
<!-- Node5&#45;&gt;Node3 -->
<g id="edge4" class="edge">
<title>Node5&#45;&gt;Node3</title>
<path fill="none" stroke="#9a32cd" stroke-dasharray="5,2" d="M147.85,-166.41C156.32,-165.08 164.86,-163.75 173,-162.5 211.57,-156.57 254.79,-150.13 289.37,-145.03"/>
<polygon fill="#9a32cd" stroke="#9a32cd" points="147.3,-162.96 137.97,-167.97 148.39,-169.87 147.3,-162.96"/>
<text text-anchor="middle" x="217.5" y="-165.5" font-family="Helvetica,sans-Serif" font-size="10.00"> s_emptyString</text>
</g>
<!-- Node6 -->
<g id="node6" class="node">
<title>Node6</title>
<g id="a_node6"><a xlink:href="classxalanc_1_1PrefixResolver.html" target="_top" xlink:title="This class defines an interface for classes that resolve namespace prefixes to their URIs.">
<polygon fill="none" stroke="black" points="15,-81 15,-100 140,-100 140,-81 15,-81"/>
<text text-anchor="middle" x="77.5" y="-88" font-family="Helvetica,sans-Serif" font-size="10.00">xalanc::PrefixResolver</text>
</a>
</g>
</g>
<!-- Node6&#45;&gt;Node3 -->
<g id="edge5" class="edge">
<title>Node6&#45;&gt;Node3</title>
<path fill="none" stroke="#9a32cd" stroke-dasharray="5,2" d="M150.56,-99C184.47,-103.34 225.41,-109.06 262,-115.5 278.99,-118.49 297.6,-122.39 313.65,-125.95"/>
<polygon fill="#9a32cd" stroke="#9a32cd" points="150.63,-95.49 140.27,-97.7 149.75,-102.43 150.63,-95.49"/>
<text text-anchor="middle" x="217.5" y="-118.5" font-family="Helvetica,sans-Serif" font-size="10.00"> m_prefixResolver</text>
</g>
<!-- Node7 -->
<g id="node7" class="node">
<title>Node7</title>
<g id="a_node7"><a xlink:href="classxalanc_1_1XalanOutputStream.html" target="_top" xlink:title=" ">
<polygon fill="none" stroke="black" points="280,-88 280,-107 431,-107 431,-88 280,-88"/>
<text text-anchor="middle" x="355.5" y="-95" font-family="Helvetica,sans-Serif" font-size="10.00">xalanc::XalanOutputStream</text>
</a>
</g>
</g>
<!-- Node7&#45;&gt;Node2 -->
<g id="edge6" class="edge">
<title>Node7&#45;&gt;Node2</title>
<path fill="none" stroke="#9a32cd" stroke-dasharray="5,2" d="M441.33,-97.5C471.59,-97.5 505.21,-97.5 533.69,-97.5"/>
<polygon fill="#9a32cd" stroke="#9a32cd" points="441.21,-94 431.21,-97.5 441.21,-101 441.21,-94"/>
<text text-anchor="middle" x="482.5" y="-100.5" font-family="Helvetica,sans-Serif" font-size="10.00"> m_stream</text>
</g>
<!-- Node8 -->
<g id="node8" class="node">
<title>Node8</title>
<g id="a_node8"><a xlink:href="classxalanc_1_1Writer.html" target="_top" xlink:title=" ">
<polygon fill="none" stroke="black" points="313,-50 313,-69 398,-69 398,-50 313,-50"/>
<text text-anchor="middle" x="355.5" y="-57" font-family="Helvetica,sans-Serif" font-size="10.00">xalanc::Writer</text>
</a>
</g>
</g>
<!-- Node8&#45;&gt;Node2 -->
<g id="edge8" class="edge">
<title>Node8&#45;&gt;Node2</title>
<path fill="none" stroke="#9a32cd" stroke-dasharray="5,2" d="M408.41,-66.54C439.63,-70.88 480.14,-76.71 516,-82.5 526.38,-84.18 537.47,-86.08 548.07,-87.95"/>
<polygon fill="#9a32cd" stroke="#9a32cd" points="408.59,-63.03 398.2,-65.12 407.63,-69.96 408.59,-63.03"/>
<text text-anchor="middle" x="482.5" y="-85.5" font-family="Helvetica,sans-Serif" font-size="10.00"> m_writer</text>
</g>
<!-- Node9 -->
<g id="node9" class="node">
<title>Node9</title>
<g id="a_node9"><a xlink:href="classxalanc_1_1XalanVector.html" target="_top" xlink:title=" ">
<polygon fill="none" stroke="black" points="299,-0.5 299,-30.5 412,-30.5 412,-0.5 299,-0.5"/>
<text text-anchor="start" x="307" y="-18.5" font-family="Helvetica,sans-Serif" font-size="10.00">xalanc::XalanVector</text>
<text text-anchor="middle" x="355.5" y="-7.5" font-family="Helvetica,sans-Serif" font-size="10.00">&lt; bool &gt;</text>
</a>
</g>
</g>
<!-- Node9&#45;&gt;Node2 -->
<g id="edge9" class="edge">
<title>Node9&#45;&gt;Node2</title>
<path fill="none" stroke="#9a32cd" stroke-dasharray="5,2" d="M422.33,-29.9C451.43,-37.01 485.81,-46.45 516,-57.5 539.66,-66.16 565.68,-79.12 582.39,-87.92"/>
<polygon fill="#9a32cd" stroke="#9a32cd" points="422.82,-26.42 412.28,-27.48 421.18,-33.22 422.82,-26.42"/>
<text text-anchor="middle" x="482.5" y="-60.5" font-family="Helvetica,sans-Serif" font-size="10.00"> m_preserves</text>
</g>
<!-- Node10 -->
<g id="node10" class="node">
<title>Node10</title>
<g id="a_node10"><a xlink:href="classxalanc_1_1XalanVector.html" target="_top" xlink:title=" ">
<polygon fill="none" stroke="black" points="0,-0.5 0,-30.5 155,-30.5 155,-0.5 0,-0.5"/>
<text text-anchor="start" x="8" y="-18.5" font-family="Helvetica,sans-Serif" font-size="10.00">xalanc::XalanVector</text>
<text text-anchor="middle" x="77.5" y="-7.5" font-family="Helvetica,sans-Serif" font-size="10.00">&lt; Type, ConstructionTraits &gt;</text>
</a>
</g>
</g>
<!-- Node10&#45;&gt;Node9 -->
<g id="edge10" class="edge">
<title>Node10&#45;&gt;Node9</title>
<path fill="none" stroke="orange" stroke-dasharray="5,2" d="M165.07,-15.5C208.78,-15.5 260.53,-15.5 298.88,-15.5"/>
<polygon fill="orange" stroke="orange" points="165.01,-12 155.01,-15.5 165.01,-19 165.01,-12"/>
<text text-anchor="middle" x="217.5" y="-18.5" font-family="Helvetica,sans-Serif" font-size="10.00"> &lt; bool &gt;</text>
</g>
</g>
</svg>
