<?xml version="1.0" encoding="UTF-8" standalone="no"?>
<!DOCTYPE svg PUBLIC "-//W3C//DTD SVG 1.1//EN"
 "http://www.w3.org/Graphics/SVG/1.1/DTD/svg11.dtd">
<!-- Generated by graphviz version 2.38.0 (20140413.2041)
 -->
<!-- Title: xalanc::NodeRefList Pages: 1 -->
<svg width="278pt" height="184pt"
 viewBox="0.00 0.00 278.00 184.00" xmlns="http://www.w3.org/2000/svg" xmlns:xlink="http://www.w3.org/1999/xlink">
<g id="graph0" class="graph" transform="scale(1 1) rotate(0) translate(4 180)">
<title>xalanc::NodeRefList</title>
<!-- Node1 -->
<g id="node1" class="node"><title>Node1</title>
<g id="a_node1"><a xlink:title="Local implementation of NodeRefList.">
<polygon fill="#bfbfbf" stroke="black" points="52,-0.5 52,-19.5 156,-19.5 156,-0.5 52,-0.5"/>
<text text-anchor="middle" x="104" y="-7.5" font-family="Helvetica,sans-Serif" font-size="10.00">xalanc::NodeRefList</text>
</a>
</g>
</g>
<!-- Node2 -->
<g id="node2" class="node"><title>Node2</title>
<g id="a_node2"><a xlink:href="classxalanc_1_1NodeRefListBase.html" target="_top" xlink:title="Local implementation of NodeRefList.">
<polygon fill="none" stroke="black" points="0,-73 0,-92 126,-92 126,-73 0,-73"/>
<text text-anchor="middle" x="63" y="-80" font-family="Helvetica,sans-Serif" font-size="10.00">xalanc::NodeRefListBase</text>
</a>
</g>
</g>
<!-- Node2&#45;&gt;Node1 -->
<g id="edge1" class="edge"><title>Node2&#45;&gt;Node1</title>
<path fill="none" stroke="midnightblue" d="M73.125,-64.09C81.3195,-49.9995 92.5174,-30.7445 98.9315,-19.7154"/>
<polygon fill="midnightblue" stroke="midnightblue" points="70.0292,-62.4513 68.0274,-72.8553 76.0803,-65.9704 70.0292,-62.4513"/>
</g>
<!-- Node3 -->
<g id="node3" class="node"><title>Node3</title>
<g id="a_node3"><a xlink:href="classxalanc_1_1XalanVector.html" target="_top" xlink:title=" ">
<polygon fill="none" stroke="black" points="144.5,-67.5 144.5,-97.5 247.5,-97.5 247.5,-67.5 144.5,-67.5"/>
<text text-anchor="start" x="152.5" y="-85.5" font-family="Helvetica,sans-Serif" font-size="10.00">xalanc::XalanVector</text>
<text text-anchor="middle" x="196" y="-74.5" font-family="Helvetica,sans-Serif" font-size="10.00">&lt; XalanNode * &gt;</text>
</a>
</g>
</g>
<!-- Node3&#45;&gt;Node1 -->
<g id="edge2" class="edge"><title>Node3&#45;&gt;Node1</title>
<path fill="none" stroke="#9a32cd" stroke-dasharray="5,2" d="M169.046,-60.8447C151.177,-47.1521 128.653,-29.8915 115.342,-19.6911"/>
<polygon fill="#9a32cd" stroke="#9a32cd" points="167.316,-63.9288 177.382,-67.2333 171.574,-58.3726 167.316,-63.9288"/>
<text text-anchor="middle" x="179" y="-41" font-family="Helvetica,sans-Serif" font-size="10.00"> m_nodeList</text>
</g>
<!-- Node4 -->
<g id="node4" class="node"><title>Node4</title>
<g id="a_node4"><a xlink:href="classxalanc_1_1XalanVector.html" target="_top" xlink:title=" ">
<polygon fill="none" stroke="black" points="126,-145.5 126,-175.5 266,-175.5 266,-145.5 126,-145.5"/>
<text text-anchor="start" x="134" y="-163.5" font-family="Helvetica,sans-Serif" font-size="10.00">xalanc::XalanVector</text>
<text text-anchor="middle" x="196" y="-152.5" font-family="Helvetica,sans-Serif" font-size="10.00">&lt; Type, ConstructionTraits &gt;</text>
</a>
</g>
</g>
<!-- Node4&#45;&gt;Node3 -->
<g id="edge3" class="edge"><title>Node4&#45;&gt;Node3</title>
<path fill="none" stroke="orange" stroke-dasharray="5,2" d="M196,-135.09C196,-122.757 196,-108.224 196,-97.7309"/>
<polygon fill="orange" stroke="orange" points="192.5,-135.205 196,-145.205 199.5,-135.205 192.5,-135.205"/>
<text text-anchor="middle" x="233" y="-119" font-family="Helvetica,sans-Serif" font-size="10.00"> &lt; XalanNode * &gt;</text>
</g>
</g>
</svg>
