<?xml version="1.0" encoding="UTF-8" standalone="no"?>
<!DOCTYPE svg PUBLIC "-//W3C//DTD SVG 1.1//EN"
 "http://www.w3.org/Graphics/SVG/1.1/DTD/svg11.dtd">
<!-- Generated by graphviz version 2.38.0 (20140413.2041)
 -->
<!-- Title: xalanc::XalanMemoryManagerObjectCacheDefault&lt; ObjectType &gt; Pages: 1 -->
<!--zoomable 99 -->
<svg id="main" version="1.1" xmlns="http://www.w3.org/2000/svg" xmlns:xlink="http://www.w3.org/1999/xlink" xml:space="preserve" onload="init(evt)">
<style type="text/css"><![CDATA[
.edge:hover path { stroke: red; }
.edge:hover polygon { stroke: red; fill: red; }
]]></style>
<script type="text/javascript"><![CDATA[
var edges = document.getElementsByTagName('g');
if (edges && edges.length) {
  for (var i=0;i<edges.length;i++) {
    if (edges[i].id.substr(0,4)=='edge') {
      edges[i].setAttribute('class','edge');
    }
  }
}
]]></script>
        <defs>
                <circle id="rim" cx="0" cy="0" r="7"/>
                <circle id="rim2" cx="0" cy="0" r="3.5"/>
                <g id="zoomPlus">
                        <use xlink:href="#rim" fill="#404040">
                                <set attributeName="fill" to="#808080" begin="zoomplus.mouseover" end="zoomplus.mouseout"/>
                        </use>
                        <path d="M-4,0h8M0,-4v8" fill="none" stroke="white" stroke-width="1.5" pointer-events="none"/>
                </g>
                <g id="zoomMin">
                        <use xlink:href="#rim" fill="#404040">
                                <set attributeName="fill" to="#808080" begin="zoomminus.mouseover" end="zoomminus.mouseout"/>
                        </use>
                        <path d="M-4,0h8" fill="none" stroke="white" stroke-width="1.5" pointer-events="none"/>
                </g>
                <g id="dirArrow">
                        <path fill="none" stroke="white" stroke-width="1.5" d="M0,-3.0v7 M-2.5,-0.5L0,-3.0L2.5,-0.5"/>
                </g>
               <g id="resetDef">
                       <use xlink:href="#rim2" fill="#404040">
                               <set attributeName="fill" to="#808080" begin="reset.mouseover" end="reset.mouseout"/>
                       </use>
               </g>
        </defs>

<script type="text/javascript">
var viewWidth = 1261;
var viewHeight = 99;
var sectionId = 'dynsection-1';
</script>
<script xlink:href="svgpan.js"/>
<svg id="graph" class="graph">
<g id="viewport">
<title>xalanc::XalanMemoryManagerObjectCacheDefault&lt; ObjectType &gt;</title>
<!-- Node1 -->
<g id="node1" class="node"><title>Node1</title>
<g id="a_node1"><a xlink:title=" ">
<polygon fill="#bfbfbf" stroke="black" points="1083,-35 1083,-65 1253,-65 1253,-35 1083,-35"/>
<text text-anchor="start" x="1091" y="-53" font-family="Helvetica,sans-Serif" font-size="10.00">xalanc::XalanMemoryManager</text>
<text text-anchor="middle" x="1168" y="-42" font-family="Helvetica,sans-Serif" font-size="10.00">ObjectCacheDefault&lt; ObjectType &gt;</text>
</a>
</g>
</g>
<!-- Node2 -->
<g id="node2" class="node"><title>Node2</title>
<g id="a_node2"><a xlink:href="classxalanc_1_1XalanObjectCache.html" target="_top" xlink:title=" ">
<polygon fill="none" stroke="black" points="834,-18.5 834,-81.5 1046,-81.5 1046,-18.5 834,-18.5"/>
<text text-anchor="start" x="842" y="-69.5" font-family="Helvetica,sans-Serif" font-size="10.00">xalanc::XalanObjectCache</text>
<text text-anchor="start" x="842" y="-58.5" font-family="Helvetica,sans-Serif" font-size="10.00">&lt; ObjectType, DefaultCacheCreate</text>
<text text-anchor="start" x="842" y="-47.5" font-family="Helvetica,sans-Serif" font-size="10.00">FunctorMemMgr&lt; ObjectType &gt;,</text>
<text text-anchor="start" x="842" y="-36.5" font-family="Helvetica,sans-Serif" font-size="10.00"> DeleteFunctor&lt; ObjectType &gt;,</text>
<text text-anchor="middle" x="940" y="-25.5" font-family="Helvetica,sans-Serif" font-size="10.00"> DefaultCacheResetFunctor&lt; ObjectType &gt; &gt;</text>
</a>
</g>
</g>
<!-- Node2&#45;&gt;Node1 -->
<g id="edge1" class="edge"><title>Node2&#45;&gt;Node1</title>
<path fill="none" stroke="midnightblue" d="M1056.19,-50C1065.17,-50 1074.14,-50 1082.85,-50"/>
<polygon fill="midnightblue" stroke="midnightblue" points="1056.06,-46.5001 1046.06,-50 1056.06,-53.5001 1056.06,-46.5001"/>
</g>
<!-- Node3 -->
<g id="node3" class="node"><title>Node3</title>
<g id="a_node3"><a xlink:href="structxalanc_1_1DeleteFunctor.html" target="_top" xlink:title=" ">
<polygon fill="none" stroke="black" points="219,-58 219,-88 331,-88 331,-58 219,-58"/>
<text text-anchor="start" x="227" y="-76" font-family="Helvetica,sans-Serif" font-size="10.00">xalanc::DeleteFunctor</text>
<text text-anchor="middle" x="275" y="-65" font-family="Helvetica,sans-Serif" font-size="10.00">&lt; ObjectType &gt;</text>
</a>
</g>
</g>
<!-- Node3&#45;&gt;Node2 -->
<g id="edge2" class="edge"><title>Node3&#45;&gt;Node2</title>
<path fill="none" stroke="#9a32cd" stroke-dasharray="5,2" d="M341.45,-76.2356C443.189,-80.4816 645.334,-85.7828 816,-71 821.827,-70.4953 827.793,-69.8634 833.805,-69.1368"/>
<polygon fill="#9a32cd" stroke="#9a32cd" points="341.469,-72.7333 331.329,-75.8028 341.17,-79.727 341.469,-72.7333"/>
<text text-anchor="middle" x="541" y="-83" font-family="Helvetica,sans-Serif" font-size="10.00"> m_deleteFunctor</text>
</g>
<!-- Node5 -->
<g id="node5" class="node"><title>Node5</title>
<g id="a_node5"><a xlink:href="classxalanc_1_1XalanObjectCache.html" target="_top" xlink:title=" ">
<polygon fill="none" stroke="black" points="443,-0.5 443,-41.5 639,-41.5 639,-0.5 443,-0.5"/>
<text text-anchor="start" x="451" y="-29.5" font-family="Helvetica,sans-Serif" font-size="10.00">xalanc::XalanObjectCache</text>
<text text-anchor="start" x="451" y="-18.5" font-family="Helvetica,sans-Serif" font-size="10.00">&lt; ObjectType, CreateFunctorType,</text>
<text text-anchor="middle" x="541" y="-7.5" font-family="Helvetica,sans-Serif" font-size="10.00"> DeleteFunctorType, ResetFunctorType &gt;</text>
</a>
</g>
</g>
<!-- Node3&#45;&gt;Node5 -->
<g id="edge5" class="edge"><title>Node3&#45;&gt;Node5</title>
<path fill="none" stroke="#9a32cd" stroke-dasharray="5,2" d="M341.154,-60.1667C371.811,-54.1281 409.005,-46.8021 442.893,-40.1272"/>
<polygon fill="#9a32cd" stroke="#9a32cd" points="340.157,-56.7957 331.022,-62.1624 341.51,-63.6638 340.157,-56.7957"/>
<text text-anchor="middle" x="387" y="-61" font-family="Helvetica,sans-Serif" font-size="10.00"> m_deleteFunctor</text>
</g>
<!-- Node4 -->
<g id="node4" class="node"><title>Node4</title>
<g id="a_node4"><a xlink:href="structxalanc_1_1DeleteFunctor.html" target="_top" xlink:title="Functor to delete objects, used in STL iteration algorithms.">
<polygon fill="none" stroke="black" points="0,-58 0,-88 112,-88 112,-58 0,-58"/>
<text text-anchor="start" x="8" y="-76" font-family="Helvetica,sans-Serif" font-size="10.00">xalanc::DeleteFunctor</text>
<text text-anchor="middle" x="56" y="-65" font-family="Helvetica,sans-Serif" font-size="10.00">&lt; Type &gt;</text>
</a>
</g>
</g>
<!-- Node4&#45;&gt;Node3 -->
<g id="edge3" class="edge"><title>Node4&#45;&gt;Node3</title>
<path fill="none" stroke="orange" stroke-dasharray="5,2" d="M122.234,-73C152.977,-73 189.262,-73 218.643,-73"/>
<polygon fill="orange" stroke="orange" points="122.039,-69.5001 112.039,-73 122.039,-76.5001 122.039,-69.5001"/>
<text text-anchor="middle" x="165.5" y="-76" font-family="Helvetica,sans-Serif" font-size="10.00"> &lt; ObjectType &gt;</text>
</g>
<!-- Node5&#45;&gt;Node2 -->
<g id="edge4" class="edge"><title>Node5&#45;&gt;Node2</title>
<path fill="none" stroke="orange" stroke-dasharray="5,2" d="M649.121,-11.4936C699.909,-8.91164 761.304,-8.57951 816,-16 821.818,-16.7893 827.749,-17.7795 833.708,-18.9206"/>
<polygon fill="orange" stroke="orange" points="648.905,-8.00011 639.11,-12.0384 649.285,-14.9898 648.905,-8.00011"/>
<text text-anchor="start" x="657" y="-63" font-family="Helvetica,sans-Serif" font-size="10.00"> &lt; ObjectType, DefaultCache</text>
<text text-anchor="start" x="657" y="-52" font-family="Helvetica,sans-Serif" font-size="10.00">CreateFunctorMemMgr&lt; ObjectType</text>
<text text-anchor="start" x="657" y="-41" font-family="Helvetica,sans-Serif" font-size="10.00"> &gt;, DeleteFunctor&lt; ObjectType</text>
<text text-anchor="start" x="657" y="-30" font-family="Helvetica,sans-Serif" font-size="10.00"> &gt;, DefaultCacheResetFunctor&lt;</text>
<text text-anchor="middle" x="736.5" y="-19" font-family="Helvetica,sans-Serif" font-size="10.00"> ObjectType &gt; &gt;</text>
</g>
</g>
</svg>
        <g id="navigator" transform="translate(0 0)" fill="#404254">
                <rect fill="#f2f5e9" fill-opacity="0.5" stroke="#606060" stroke-width=".5" x="0" y="0" width="60" height="60"/>
                <use id="zoomplus" xlink:href="#zoomPlus" x="17" y="9" onmousedown="handleZoom(evt,'in')"/>
                <use id="zoomminus" xlink:href="#zoomMin" x="42" y="9" onmousedown="handleZoom(evt,'out')"/>
                <use id="reset" xlink:href="#resetDef" x="30" y="36" onmousedown="handleReset()"/>
                <g id="arrowUp" xlink:href="#dirArrow" transform="translate(30 24)" onmousedown="handlePan(0,-1)">
                  <use xlink:href="#rim" fill="#404040">
                        <set attributeName="fill" to="#808080" begin="arrowUp.mouseover" end="arrowUp.mouseout"/>
                  </use>
                  <path fill="none" stroke="white" stroke-width="1.5" d="M0,-3.0v7 M-2.5,-0.5L0,-3.0L2.5,-0.5"/>
                </g>
                <g id="arrowRight" xlink:href="#dirArrow" transform="rotate(90) translate(36 -43)" onmousedown="handlePan(1,0)">
                  <use xlink:href="#rim" fill="#404040">
                        <set attributeName="fill" to="#808080" begin="arrowRight.mouseover" end="arrowRight.mouseout"/>
                  </use>
                  <path fill="none" stroke="white" stroke-width="1.5" d="M0,-3.0v7 M-2.5,-0.5L0,-3.0L2.5,-0.5"/>
                </g>
                <g id="arrowDown" xlink:href="#dirArrow" transform="rotate(180) translate(-30 -48)" onmousedown="handlePan(0,1)">
                  <use xlink:href="#rim" fill="#404040">
                        <set attributeName="fill" to="#808080" begin="arrowDown.mouseover" end="arrowDown.mouseout"/>
                  </use>
                  <path fill="none" stroke="white" stroke-width="1.5" d="M0,-3.0v7 M-2.5,-0.5L0,-3.0L2.5,-0.5"/>
                </g>
                <g id="arrowLeft" xlink:href="#dirArrow" transform="rotate(270) translate(-36 17)" onmousedown="handlePan(-1,0)">
                  <use xlink:href="#rim" fill="#404040">
                        <set attributeName="fill" to="#808080" begin="arrowLeft.mouseover" end="arrowLeft.mouseout"/>
                  </use>
                  <path fill="none" stroke="white" stroke-width="1.5" d="M0,-3.0v7 M-2.5,-0.5L0,-3.0L2.5,-0.5"/>
                </g>
        </g>
        <svg viewBox="0 0 15 15" width="100%" height="30px" preserveAspectRatio="xMaxYMin meet">
         <g id="arrow_out" transform="scale(0.3 0.3)">
          <a xlink:href="classxalanc_1_1XalanMemoryManagerObjectCacheDefault__coll__graph_org.svg" target="_base">
           <rect id="button" ry="5" rx="5" y="6" x="6" height="38" width="38"
                fill="#f2f5e9" fill-opacity="0.5" stroke="#606060" stroke-width="1.0"/>
           <path id="arrow"
             d="M 11.500037,31.436501 C 11.940474,20.09759 22.043105,11.32322 32.158766,21.979434 L 37.068811,17.246167 C 37.068811,17.246167 37.088388,32 37.088388,32 L 22.160133,31.978069 C 22.160133,31.978069 26.997745,27.140456 26.997745,27.140456 C 18.528582,18.264221 13.291696,25.230495 11.500037,31.436501 z"
             style="fill:#404040;"/>
          </a>
         </g>
        </svg>
</svg>
