<?xml version="1.0" encoding="UTF-8" standalone="no"?>
<!DOCTYPE svg PUBLIC "-//W3C//DTD SVG 1.1//EN"
 "http://www.w3.org/Graphics/SVG/1.1/DTD/svg11.dtd">
<!-- Generated by graphviz version 2.38.0 (20140413.2041)
 -->
<!-- Title: xalanc::XalanAutoPtr&lt; Type &gt; Pages: 1 -->
<svg width="500pt" height="137pt"
 viewBox="0.00 0.00 500.00 137.00" xmlns="http://www.w3.org/2000/svg" xmlns:xlink="http://www.w3.org/1999/xlink">
<g id="graph0" class="graph" transform="scale(1 1) rotate(0) translate(4 133)">
<title>xalanc::XalanAutoPtr&lt; Type &gt;</title>
<!-- Node1 -->
<g id="node1" class="node"><title>Node1</title>
<g id="a_node1"><a xlink:title=" ">
<polygon fill="#bfbfbf" stroke="black" points="0,-49.5 0,-79.5 107,-79.5 107,-49.5 0,-49.5"/>
<text text-anchor="start" x="8" y="-67.5" font-family="Helvetica,sans-Serif" font-size="10.00">xalanc::XalanAutoPtr</text>
<text text-anchor="middle" x="53.5" y="-56.5" font-family="Helvetica,sans-Serif" font-size="10.00">&lt; Type &gt;</text>
</a>
</g>
</g>
<!-- Node2 -->
<g id="node2" class="node"><title>Node2</title>
<g id="a_node2"><a xlink:href="classxalanc_1_1XalanAutoPtr.html" target="_top" xlink:title=" ">
<polygon fill="none" stroke="black" points="316.5,-98.5 316.5,-128.5 486.5,-128.5 486.5,-98.5 316.5,-98.5"/>
<text text-anchor="start" x="324.5" y="-116.5" font-family="Helvetica,sans-Serif" font-size="10.00">xalanc::XalanAutoPtr</text>
<text text-anchor="middle" x="401.5" y="-105.5" font-family="Helvetica,sans-Serif" font-size="10.00">&lt; xalanc::XalanOutputTranscoder &gt;</text>
</a>
</g>
</g>
<!-- Node1&#45;&gt;Node2 -->
<g id="edge1" class="edge"><title>Node1&#45;&gt;Node2</title>
<path fill="none" stroke="orange" stroke-dasharray="5,2" d="M116.99,-78.094C119.693,-78.5877 122.372,-79.0591 125,-79.5 188.926,-90.2244 261.727,-99.065 316.432,-105.041"/>
<polygon fill="orange" stroke="orange" points="117.623,-74.6518 107.146,-76.2231 116.316,-81.5287 117.623,-74.6518"/>
<text text-anchor="middle" x="209" y="-104.5" font-family="Helvetica,sans-Serif" font-size="10.00"> &lt; xalanc::XalanOutputTranscoder &gt;</text>
</g>
<!-- Node3 -->
<g id="node3" class="node"><title>Node3</title>
<g id="a_node3"><a xlink:href="classxalanc_1_1XalanAutoPtr.html" target="_top" xlink:title=" ">
<polygon fill="none" stroke="black" points="311,-49.5 311,-79.5 492,-79.5 492,-49.5 311,-49.5"/>
<text text-anchor="start" x="319" y="-67.5" font-family="Helvetica,sans-Serif" font-size="10.00">xalanc::XalanAutoPtr</text>
<text text-anchor="middle" x="401.5" y="-56.5" font-family="Helvetica,sans-Serif" font-size="10.00">&lt; xalanc::XalanDOMImplementation &gt;</text>
</a>
</g>
</g>
<!-- Node1&#45;&gt;Node3 -->
<g id="edge2" class="edge"><title>Node1&#45;&gt;Node3</title>
<path fill="none" stroke="orange" stroke-dasharray="5,2" d="M117.184,-64.5C171.244,-64.5 249.963,-64.5 310.712,-64.5"/>
<polygon fill="orange" stroke="orange" points="117.05,-61.0001 107.05,-64.5 117.05,-68.0001 117.05,-61.0001"/>
<text text-anchor="middle" x="209" y="-67.5" font-family="Helvetica,sans-Serif" font-size="10.00"> &lt; xalanc::XalanDOMImplementation &gt;</text>
</g>
<!-- Node4 -->
<g id="node4" class="node"><title>Node4</title>
<g id="a_node4"><a xlink:href="classxalanc_1_1XalanAutoPtr.html" target="_top" xlink:title=" ">
<polygon fill="none" stroke="black" points="321.5,-0.5 321.5,-30.5 481.5,-30.5 481.5,-0.5 321.5,-0.5"/>
<text text-anchor="start" x="329.5" y="-18.5" font-family="Helvetica,sans-Serif" font-size="10.00">xalanc::XalanAutoPtr</text>
<text text-anchor="middle" x="401.5" y="-7.5" font-family="Helvetica,sans-Serif" font-size="10.00">&lt; xalanc::XalanDOMStringPool &gt;</text>
</a>
</g>
</g>
<!-- Node1&#45;&gt;Node4 -->
<g id="edge3" class="edge"><title>Node1&#45;&gt;Node4</title>
<path fill="none" stroke="orange" stroke-dasharray="5,2" d="M98.8712,-46.0807C107.42,-43.1217 116.394,-40.4091 125,-38.5 190.131,-24.0512 265.756,-18.5122 321.277,-16.4671"/>
<polygon fill="orange" stroke="orange" points="97.6522,-42.7997 89.4423,-49.4966 100.036,-49.3811 97.6522,-42.7997"/>
<text text-anchor="start" x="150" y="-52.5" font-family="Helvetica,sans-Serif" font-size="10.00"> &lt; xalanc::XalanDOMString</text>
<text text-anchor="middle" x="209" y="-41.5" font-family="Helvetica,sans-Serif" font-size="10.00">Pool &gt;</text>
</g>
</g>
</svg>
