<?xml version="1.0" encoding="UTF-8" standalone="no"?>
<!DOCTYPE svg PUBLIC "-//W3C//DTD SVG 1.1//EN"
 "http://www.w3.org/Graphics/SVG/1.1/DTD/svg11.dtd">
<!-- Generated by graphviz version 2.38.0 (20140413.2041)
 -->
<!-- Title: xalanc::FormatterListener Pages: 1 -->
<svg width="695pt" height="371pt"
 viewBox="0.00 0.00 695.00 371.00" xmlns="http://www.w3.org/2000/svg" xmlns:xlink="http://www.w3.org/1999/xlink">
<g id="graph0" class="graph" transform="scale(1 1) rotate(0) translate(4 367)">
<title>xalanc::FormatterListener</title>
<!-- Node1 -->
<g id="node1" class="node"><title>Node1</title>
<g id="a_node1"><a xlink:title="A SAX&#45;based formatter interface for the XSL processor.">
<polygon fill="#bfbfbf" stroke="black" points="170,-169 170,-188 298,-188 298,-169 170,-169"/>
<text text-anchor="middle" x="234" y="-176" font-family="Helvetica,sans-Serif" font-size="10.00">xalanc::FormatterListener</text>
</a>
</g>
</g>
<!-- Node3 -->
<g id="node3" class="node"><title>Node3</title>
<g id="a_node3"><a xlink:href="classxalanc_1_1FormatterStringLengthCounter.html" target="_top" xlink:title="This class takes SAX events (in addition to some extra events that SAX doesn&#39;t handle yet) and produc...">
<polygon fill="none" stroke="black" points="338,-332.5 338,-362.5 486,-362.5 486,-332.5 338,-332.5"/>
<text text-anchor="start" x="346" y="-350.5" font-family="Helvetica,sans-Serif" font-size="10.00">xalanc::FormatterStringLength</text>
<text text-anchor="middle" x="412" y="-339.5" font-family="Helvetica,sans-Serif" font-size="10.00">Counter</text>
</a>
</g>
</g>
<!-- Node1&#45;&gt;Node3 -->
<g id="edge2" class="edge"><title>Node1&#45;&gt;Node3</title>
<path fill="none" stroke="midnightblue" d="M242.94,-197.544C256.821,-228.531 288.427,-289.785 334,-323.5 338.615,-326.914 343.727,-329.851 349.058,-332.374"/>
<polygon fill="midnightblue" stroke="midnightblue" points="246.11,-196.058 238.917,-188.279 239.689,-198.845 246.11,-196.058"/>
</g>
<!-- Node4 -->
<g id="node4" class="node"><title>Node4</title>
<g id="a_node4"><a xlink:href="classxalanc_1_1FormatterToDeprecatedXercesDOM.html" target="_top" xlink:title="This class takes SAX events (in addition to some extra events that SAX doesn&#39;t handle yet) and adds t...">
<polygon fill="none" stroke="black" points="335.5,-283.5 335.5,-313.5 488.5,-313.5 488.5,-283.5 335.5,-283.5"/>
<text text-anchor="start" x="343.5" y="-301.5" font-family="Helvetica,sans-Serif" font-size="10.00">xalanc::FormatterToDeprecated</text>
<text text-anchor="middle" x="412" y="-290.5" font-family="Helvetica,sans-Serif" font-size="10.00">XercesDOM</text>
</a>
</g>
</g>
<!-- Node1&#45;&gt;Node4 -->
<g id="edge3" class="edge"><title>Node1&#45;&gt;Node4</title>
<path fill="none" stroke="midnightblue" d="M248.816,-195.902C266.472,-217.06 298.97,-252.532 334,-273.5 340.392,-277.326 347.437,-280.639 354.592,-283.488"/>
<polygon fill="midnightblue" stroke="midnightblue" points="251.434,-193.575 242.395,-188.048 246.014,-198.005 251.434,-193.575"/>
</g>
<!-- Node5 -->
<g id="node5" class="node"><title>Node5</title>
<g id="a_node5"><a xlink:href="classxalanc_1_1FormatterToNull.html" target="_top" xlink:title="This class takes SAX events (in addition to some extra events that SAX doesn&#39;t handle yet) and produc...">
<polygon fill="none" stroke="black" points="352,-245 352,-264 472,-264 472,-245 352,-245"/>
<text text-anchor="middle" x="412" y="-252" font-family="Helvetica,sans-Serif" font-size="10.00">xalanc::FormatterToNull</text>
</a>
</g>
</g>
<!-- Node1&#45;&gt;Node5 -->
<g id="edge4" class="edge"><title>Node1&#45;&gt;Node5</title>
<path fill="none" stroke="midnightblue" d="M257.249,-193.746C276.733,-206.49 306.199,-224.326 334,-235.5 343.199,-239.197 353.314,-242.317 363.102,-244.893"/>
<polygon fill="midnightblue" stroke="midnightblue" points="259.055,-190.743 248.79,-188.121 255.179,-196.572 259.055,-190.743"/>
</g>
<!-- Node6 -->
<g id="node6" class="node"><title>Node6</title>
<g id="a_node6"><a xlink:href="classxalanc_1_1FormatterToSourceTree.html" target="_top" xlink:title="This class takes SAX events (in addition to some extra events that SAX doesn&#39;t handle yet) and adds t...">
<polygon fill="none" stroke="black" points="335.5,-207 335.5,-226 488.5,-226 488.5,-207 335.5,-207"/>
<text text-anchor="middle" x="412" y="-214" font-family="Helvetica,sans-Serif" font-size="10.00">xalanc::FormatterToSourceTree</text>
</a>
</g>
</g>
<!-- Node1&#45;&gt;Node6 -->
<g id="edge5" class="edge"><title>Node1&#45;&gt;Node6</title>
<path fill="none" stroke="midnightblue" d="M289.433,-190.253C314.319,-195.626 343.419,-201.909 366.907,-206.98"/>
<polygon fill="midnightblue" stroke="midnightblue" points="289.926,-186.778 279.412,-188.089 288.448,-193.621 289.926,-186.778"/>
</g>
<!-- Node7 -->
<g id="node7" class="node"><title>Node7</title>
<g id="a_node7"><a xlink:href="classxalanc_1_1FormatterToText.html" target="_top" xlink:title="This class takes SAX events (in addition to some extra events that SAX doesn&#39;t handle yet) and produc...">
<polygon fill="none" stroke="black" points="351,-169 351,-188 473,-188 473,-169 351,-169"/>
<text text-anchor="middle" x="412" y="-176" font-family="Helvetica,sans-Serif" font-size="10.00">xalanc::FormatterToText</text>
</a>
</g>
</g>
<!-- Node1&#45;&gt;Node7 -->
<g id="edge6" class="edge"><title>Node1&#45;&gt;Node7</title>
<path fill="none" stroke="midnightblue" d="M308.235,-178.5C322.39,-178.5 337.07,-178.5 350.752,-178.5"/>
<polygon fill="midnightblue" stroke="midnightblue" points="308.043,-175 298.043,-178.5 308.043,-182 308.043,-175"/>
</g>
<!-- Node8 -->
<g id="node8" class="node"><title>Node8</title>
<g id="a_node8"><a xlink:href="classxalanc_1_1FormatterToXercesDOM.html" target="_top" xlink:title="This class takes SAX events (in addition to some extra events that SAX doesn&#39;t handle yet) and adds t...">
<polygon fill="none" stroke="black" points="334.5,-131 334.5,-150 489.5,-150 489.5,-131 334.5,-131"/>
<text text-anchor="middle" x="412" y="-138" font-family="Helvetica,sans-Serif" font-size="10.00">xalanc::FormatterToXercesDOM</text>
</a>
</g>
</g>
<!-- Node1&#45;&gt;Node8 -->
<g id="edge7" class="edge"><title>Node1&#45;&gt;Node8</title>
<path fill="none" stroke="midnightblue" d="M289.433,-166.747C314.319,-161.374 343.419,-155.091 366.907,-150.02"/>
<polygon fill="midnightblue" stroke="midnightblue" points="288.448,-163.379 279.412,-168.911 289.926,-170.222 288.448,-163.379"/>
</g>
<!-- Node9 -->
<g id="node9" class="node"><title>Node9</title>
<g id="a_node9"><a xlink:href="classxalanc_1_1FormatterToXML.html" target="_top" xlink:title="FormatterToXML formats SAX&#45;style events into XML.">
<polygon fill="none" stroke="black" points="351,-93 351,-112 473,-112 473,-93 351,-93"/>
<text text-anchor="middle" x="412" y="-100" font-family="Helvetica,sans-Serif" font-size="10.00">xalanc::FormatterToXML</text>
</a>
</g>
</g>
<!-- Node1&#45;&gt;Node9 -->
<g id="edge8" class="edge"><title>Node1&#45;&gt;Node9</title>
<path fill="none" stroke="midnightblue" d="M257.249,-163.254C276.733,-150.51 306.199,-132.674 334,-121.5 343.199,-117.803 353.314,-114.683 363.102,-112.107"/>
<polygon fill="midnightblue" stroke="midnightblue" points="255.179,-160.428 248.79,-168.879 259.055,-166.257 255.179,-160.428"/>
</g>
<!-- Node11 -->
<g id="node11" class="node"><title>Node11</title>
<g id="a_node11"><a xlink:href="classxalanc_1_1StylesheetHandler.html" target="_top" xlink:title="This class processes a stylesheet via SAX events, and inits the given stylesheet.">
<polygon fill="none" stroke="black" points="346.5,-55 346.5,-74 477.5,-74 477.5,-55 346.5,-55"/>
<text text-anchor="middle" x="412" y="-62" font-family="Helvetica,sans-Serif" font-size="10.00">xalanc::StylesheetHandler</text>
</a>
</g>
</g>
<!-- Node1&#45;&gt;Node11 -->
<g id="edge10" class="edge"><title>Node1&#45;&gt;Node11</title>
<path fill="none" stroke="midnightblue" d="M248.576,-160.68C265.988,-139.097 298.238,-103.193 334,-83.5 340.996,-79.6478 348.774,-76.5659 356.621,-74.1029"/>
<polygon fill="midnightblue" stroke="midnightblue" points="245.692,-158.684 242.254,-168.705 251.191,-163.016 245.692,-158.684"/>
</g>
<!-- Node12 -->
<g id="node12" class="node"><title>Node12</title>
<g id="a_node12"><a xlink:href="classxalanc_1_1XalanXMLSerializerBase.html" target="_top" xlink:title="XalanXMLSerializerBase serves as a base class for XML serializers based on FormatterListener events.">
<polygon fill="none" stroke="black" points="334,-17 334,-36 490,-36 490,-17 334,-17"/>
<text text-anchor="middle" x="412" y="-24" font-family="Helvetica,sans-Serif" font-size="10.00">xalanc::XalanXMLSerializerBase</text>
</a>
</g>
</g>
<!-- Node1&#45;&gt;Node12 -->
<g id="edge11" class="edge"><title>Node1&#45;&gt;Node12</title>
<path fill="none" stroke="midnightblue" d="M243.766,-159.516C258.257,-130.318 290.033,-74.7104 334,-45.5 339.849,-41.6141 346.424,-38.5223 353.202,-36.0626"/>
<polygon fill="midnightblue" stroke="midnightblue" points="240.55,-158.127 239.37,-168.656 246.859,-161.161 240.55,-158.127"/>
</g>
<!-- Node2 -->
<g id="node2" class="node"><title>Node2</title>
<g id="a_node2"><a xlink:title=" ">
<polygon fill="none" stroke="#bfbfbf" points="0,-169 0,-188 134,-188 134,-169 0,-169"/>
<text text-anchor="middle" x="67" y="-176" font-family="Helvetica,sans-Serif" font-size="10.00">xercesc::DocumentHandler</text>
</a>
</g>
</g>
<!-- Node2&#45;&gt;Node1 -->
<g id="edge1" class="edge"><title>Node2&#45;&gt;Node1</title>
<path fill="none" stroke="midnightblue" d="M144.437,-178.5C152.917,-178.5 161.482,-178.5 169.773,-178.5"/>
<polygon fill="midnightblue" stroke="midnightblue" points="144.161,-175 134.161,-178.5 144.161,-182 144.161,-175"/>
</g>
<!-- Node10 -->
<g id="node10" class="node"><title>Node10</title>
<g id="a_node10"><a xlink:href="classxalanc_1_1FormatterToHTML.html" target="_top" xlink:title="FormatterToHTML formats SAX&#45;style events into HTML.">
<polygon fill="none" stroke="black" points="542,-93 542,-112 671,-112 671,-93 542,-93"/>
<text text-anchor="middle" x="606.5" y="-100" font-family="Helvetica,sans-Serif" font-size="10.00">xalanc::FormatterToHTML</text>
</a>
</g>
</g>
<!-- Node9&#45;&gt;Node10 -->
<g id="edge9" class="edge"><title>Node9&#45;&gt;Node10</title>
<path fill="none" stroke="midnightblue" d="M483.282,-102.5C502.438,-102.5 523.078,-102.5 541.844,-102.5"/>
<polygon fill="midnightblue" stroke="midnightblue" points="483.116,-99.0001 473.116,-102.5 483.116,-106 483.116,-99.0001"/>
</g>
<!-- Node13 -->
<g id="node13" class="node"><title>Node13</title>
<g id="a_node13"><a xlink:href="classxalanc_1_1FormatterToXMLUnicode.html" target="_top" xlink:title="FormatterToXMLUnicode formats SAX&#45;style events into XML.">
<polygon fill="none" stroke="black" points="526,-0.5 526,-52.5 687,-52.5 687,-0.5 526,-0.5"/>
<text text-anchor="start" x="534" y="-40.5" font-family="Helvetica,sans-Serif" font-size="10.00">xalanc::FormatterToXMLUnicode</text>
<text text-anchor="start" x="534" y="-29.5" font-family="Helvetica,sans-Serif" font-size="10.00">&lt; UnicodeWriter, ConstantsType,</text>
<text text-anchor="start" x="534" y="-18.5" font-family="Helvetica,sans-Serif" font-size="10.00"> CharPredicate, IndentHandler,</text>
<text text-anchor="middle" x="606.5" y="-7.5" font-family="Helvetica,sans-Serif" font-size="10.00"> XMLVersion &gt;</text>
</a>
</g>
</g>
<!-- Node12&#45;&gt;Node13 -->
<g id="edge12" class="edge"><title>Node12&#45;&gt;Node13</title>
<path fill="none" stroke="midnightblue" d="M500.428,-26.5C508.874,-26.5 517.412,-26.5 525.779,-26.5"/>
<polygon fill="midnightblue" stroke="midnightblue" points="500.188,-23.0001 490.188,-26.5 500.188,-30.0001 500.188,-23.0001"/>
</g>
</g>
</svg>
