<?xml version="1.0" encoding="UTF-8" standalone="no"?>
<!DOCTYPE svg PUBLIC "-//W3C//DTD SVG 1.1//EN"
 "http://www.w3.org/Graphics/SVG/1.1/DTD/svg11.dtd">
<!-- Generated by graphviz version 2.43.0 (0)
 -->
<!-- Title: xalanc::XalanProcessingInstruction Pages: 1 -->
<svg width="563pt" height="137pt"
 viewBox="0.00 0.00 563.00 137.00" xmlns="http://www.w3.org/2000/svg" xmlns:xlink="http://www.w3.org/1999/xlink">
<g id="graph0" class="graph" transform="scale(1 1) rotate(0) translate(4 133)">
<title>xalanc::XalanProcessingInstruction</title>
<!-- Node1 -->
<g id="node1" class="node">
<title>Node1</title>
<g id="a_node1"><a xlink:title=" ">
<polygon fill="#bfbfbf" stroke="black" points="144,-55 144,-74 331,-74 331,-55 144,-55"/>
<text text-anchor="middle" x="237.5" y="-62" font-family="Helvetica,sans-Serif" font-size="10.00">xalanc::XalanProcessingInstruction</text>
</a>
</g>
</g>
<!-- Node3 -->
<g id="node3" class="node">
<title>Node3</title>
<g id="a_node3"><a xlink:href="classxalanc_1_1XalanSourceTreeProcessingInstruction.html" target="_top" xlink:title=" ">
<polygon fill="none" stroke="black" points="367,-98.5 367,-128.5 555,-128.5 555,-98.5 367,-98.5"/>
<text text-anchor="start" x="375" y="-116.5" font-family="Helvetica,sans-Serif" font-size="10.00">xalanc::XalanSourceTreeProcessing</text>
<text text-anchor="middle" x="461" y="-105.5" font-family="Helvetica,sans-Serif" font-size="10.00">Instruction</text>
</a>
</g>
</g>
<!-- Node1&#45;&gt;Node3 -->
<g id="edge2" class="edge">
<title>Node1&#45;&gt;Node3</title>
<path fill="none" stroke="midnightblue" d="M291.36,-76.19C321.47,-82.86 359.53,-91.27 391.87,-98.43"/>
<polygon fill="midnightblue" stroke="midnightblue" points="291.99,-72.75 281.47,-74.01 290.48,-79.58 291.99,-72.75"/>
</g>
<!-- Node4 -->
<g id="node4" class="node">
<title>Node4</title>
<g id="a_node4"><a xlink:href="classxalanc_1_1XercesProcessingInstructionBridge.html" target="_top" xlink:title="This class is deprecated.">
<polygon fill="none" stroke="black" points="391,-49.5 391,-79.5 531,-79.5 531,-49.5 391,-49.5"/>
<text text-anchor="start" x="399" y="-67.5" font-family="Helvetica,sans-Serif" font-size="10.00">xalanc::XercesProcessing</text>
<text text-anchor="middle" x="461" y="-56.5" font-family="Helvetica,sans-Serif" font-size="10.00">InstructionBridge</text>
</a>
</g>
</g>
<!-- Node1&#45;&gt;Node4 -->
<g id="edge3" class="edge">
<title>Node1&#45;&gt;Node4</title>
<path fill="none" stroke="midnightblue" d="M341.54,-64.5C358.3,-64.5 375.29,-64.5 390.97,-64.5"/>
<polygon fill="midnightblue" stroke="midnightblue" points="341.15,-61 331.15,-64.5 341.15,-68 341.15,-61"/>
</g>
<!-- Node5 -->
<g id="node5" class="node">
<title>Node5</title>
<g id="a_node5"><a xlink:href="classxalanc_1_1XercesProcessingInstructionWrapper.html" target="_top" xlink:title=" ">
<polygon fill="none" stroke="black" points="391,-0.5 391,-30.5 531,-30.5 531,-0.5 391,-0.5"/>
<text text-anchor="start" x="399" y="-18.5" font-family="Helvetica,sans-Serif" font-size="10.00">xalanc::XercesProcessing</text>
<text text-anchor="middle" x="461" y="-7.5" font-family="Helvetica,sans-Serif" font-size="10.00">InstructionWrapper</text>
</a>
</g>
</g>
<!-- Node1&#45;&gt;Node5 -->
<g id="edge4" class="edge">
<title>Node1&#45;&gt;Node5</title>
<path fill="none" stroke="midnightblue" d="M291.36,-52.81C321.47,-46.14 359.53,-37.73 391.87,-30.57"/>
<polygon fill="midnightblue" stroke="midnightblue" points="290.48,-49.42 281.47,-54.99 291.99,-56.25 290.48,-49.42"/>
</g>
<!-- Node2 -->
<g id="node2" class="node">
<title>Node2</title>
<g id="a_node2"><a xlink:href="classxalanc_1_1XalanNode.html" target="_top" xlink:title=" ">
<polygon fill="none" stroke="black" points="0,-55 0,-74 108,-74 108,-55 0,-55"/>
<text text-anchor="middle" x="54" y="-62" font-family="Helvetica,sans-Serif" font-size="10.00">xalanc::XalanNode</text>
</a>
</g>
</g>
<!-- Node2&#45;&gt;Node1 -->
<g id="edge1" class="edge">
<title>Node2&#45;&gt;Node1</title>
<path fill="none" stroke="midnightblue" d="M118.66,-64.5C126.85,-64.5 135.37,-64.5 143.91,-64.5"/>
<polygon fill="midnightblue" stroke="midnightblue" points="118.47,-61 108.47,-64.5 118.47,-68 118.47,-61"/>
</g>
</g>
</svg>
