<?xml version="1.0" encoding="UTF-8" standalone="no"?>
<!DOCTYPE svg PUBLIC "-//W3C//DTD SVG 1.1//EN"
 "http://www.w3.org/Graphics/SVG/1.1/DTD/svg11.dtd">
<!-- Generated by graphviz version 2.38.0 (20140413.2041)
 -->
<!-- Title: xalanc::XObject Pages: 1 -->
<svg width="627pt" height="332pt"
 viewBox="0.00 0.00 627.00 332.00" xmlns="http://www.w3.org/2000/svg" xmlns:xlink="http://www.w3.org/1999/xlink">
<g id="graph0" class="graph" transform="scale(1 1) rotate(0) translate(4 328)">
<title>xalanc::XObject</title>
<!-- Node1 -->
<g id="node1" class="node"><title>Node1</title>
<g id="a_node1"><a xlink:title="Class to hold XPath return types.">
<polygon fill="#bfbfbf" stroke="black" points="190,-152.5 190,-171.5 275,-171.5 275,-152.5 190,-152.5"/>
<text text-anchor="middle" x="232.5" y="-159.5" font-family="Helvetica,sans-Serif" font-size="10.00">xalanc::XObject</text>
</a>
</g>
</g>
<!-- Node3 -->
<g id="node3" class="node"><title>Node3</title>
<g id="a_node3"><a xlink:href="classxalanc_1_1XBoolean.html" target="_top" xlink:title=" ">
<polygon fill="none" stroke="black" points="326,-285.5 326,-304.5 418,-304.5 418,-285.5 326,-285.5"/>
<text text-anchor="middle" x="372" y="-292.5" font-family="Helvetica,sans-Serif" font-size="10.00">xalanc::XBoolean</text>
</a>
</g>
</g>
<!-- Node1&#45;&gt;Node3 -->
<g id="edge2" class="edge"><title>Node1&#45;&gt;Node3</title>
<path fill="none" stroke="midnightblue" d="M241.448,-180.785C253.077,-206.058 277.094,-250.744 311,-276 316.17,-279.851 322.144,-282.936 328.277,-285.404"/>
<polygon fill="midnightblue" stroke="midnightblue" points="244.605,-179.27 237.353,-171.546 238.205,-182.106 244.605,-179.27"/>
</g>
<!-- Node4 -->
<g id="node4" class="node"><title>Node4</title>
<g id="a_node4"><a xlink:href="classxalanc_1_1XNodeSetBase.html" target="_top" xlink:title="Class to hold XPath return types.">
<polygon fill="none" stroke="black" points="314,-247.5 314,-266.5 430,-266.5 430,-247.5 314,-247.5"/>
<text text-anchor="middle" x="372" y="-254.5" font-family="Helvetica,sans-Serif" font-size="10.00">xalanc::XNodeSetBase</text>
</a>
</g>
</g>
<!-- Node1&#45;&gt;Node4 -->
<g id="edge3" class="edge"><title>Node1&#45;&gt;Node4</title>
<path fill="none" stroke="midnightblue" d="M254.232,-177.857C269.68,-189.522 291.402,-205.611 311,-219 325.661,-229.016 342.812,-239.787 355.014,-247.295"/>
<polygon fill="midnightblue" stroke="midnightblue" points="256.007,-174.81 245.925,-171.553 251.776,-180.386 256.007,-174.81"/>
</g>
<!-- Node7 -->
<g id="node7" class="node"><title>Node7</title>
<g id="a_node7"><a xlink:href="classxalanc_1_1XNumberBase.html" target="_top" xlink:title=" ">
<polygon fill="none" stroke="black" points="315.5,-190.5 315.5,-209.5 428.5,-209.5 428.5,-190.5 315.5,-190.5"/>
<text text-anchor="middle" x="372" y="-197.5" font-family="Helvetica,sans-Serif" font-size="10.00">xalanc::XNumberBase</text>
</a>
</g>
</g>
<!-- Node1&#45;&gt;Node7 -->
<g id="edge6" class="edge"><title>Node1&#45;&gt;Node7</title>
<path fill="none" stroke="midnightblue" d="M278.073,-174.318C296.965,-179.539 318.647,-185.532 336.314,-190.414"/>
<polygon fill="midnightblue" stroke="midnightblue" points="278.768,-170.879 268.197,-171.589 276.903,-177.626 278.768,-170.879"/>
</g>
<!-- Node10 -->
<g id="node10" class="node"><title>Node10</title>
<g id="a_node10"><a xlink:href="classxalanc_1_1XResultTreeFrag.html" target="_top" xlink:title=" ">
<polygon fill="none" stroke="black" points="311,-152.5 311,-171.5 433,-171.5 433,-152.5 311,-152.5"/>
<text text-anchor="middle" x="372" y="-159.5" font-family="Helvetica,sans-Serif" font-size="10.00">xalanc::XResultTreeFrag</text>
</a>
</g>
</g>
<!-- Node1&#45;&gt;Node10 -->
<g id="edge9" class="edge"><title>Node1&#45;&gt;Node10</title>
<path fill="none" stroke="midnightblue" d="M285.185,-162C293.608,-162 302.396,-162 310.999,-162"/>
<polygon fill="midnightblue" stroke="midnightblue" points="285.128,-158.5 275.128,-162 285.128,-165.5 285.128,-158.5"/>
</g>
<!-- Node11 -->
<g id="node11" class="node"><title>Node11</title>
<g id="a_node11"><a xlink:href="classxalanc_1_1XStringBase.html" target="_top" xlink:title=" ">
<polygon fill="none" stroke="black" points="320,-114.5 320,-133.5 424,-133.5 424,-114.5 320,-114.5"/>
<text text-anchor="middle" x="372" y="-121.5" font-family="Helvetica,sans-Serif" font-size="10.00">xalanc::XStringBase</text>
</a>
</g>
</g>
<!-- Node1&#45;&gt;Node11 -->
<g id="edge10" class="edge"><title>Node1&#45;&gt;Node11</title>
<path fill="none" stroke="midnightblue" d="M278.073,-149.682C296.965,-144.461 318.647,-138.468 336.314,-133.586"/>
<polygon fill="midnightblue" stroke="midnightblue" points="276.903,-146.374 268.197,-152.411 278.768,-153.121 276.903,-146.374"/>
</g>
<!-- Node17 -->
<g id="node17" class="node"><title>Node17</title>
<g id="a_node17"><a xlink:href="classxalanc_1_1XToken.html" target="_top" xlink:title=" ">
<polygon fill="none" stroke="black" points="330.5,-76.5 330.5,-95.5 413.5,-95.5 413.5,-76.5 330.5,-76.5"/>
<text text-anchor="middle" x="372" y="-83.5" font-family="Helvetica,sans-Serif" font-size="10.00">xalanc::XToken</text>
</a>
</g>
</g>
<!-- Node1&#45;&gt;Node17 -->
<g id="edge16" class="edge"><title>Node1&#45;&gt;Node17</title>
<path fill="none" stroke="midnightblue" d="M252.259,-145.453C267.279,-132.911 289.345,-116.011 311,-105 318.207,-101.335 326.261,-98.2015 334.07,-95.5981"/>
<polygon fill="midnightblue" stroke="midnightblue" points="249.622,-143.103 244.287,-152.256 254.166,-148.427 249.622,-143.103"/>
</g>
<!-- Node18 -->
<g id="node18" class="node"><title>Node18</title>
<g id="a_node18"><a xlink:href="classxalanc_1_1XUnknown.html" target="_top" xlink:title=" ">
<polygon fill="none" stroke="black" points="324,-38.5 324,-57.5 420,-57.5 420,-38.5 324,-38.5"/>
<text text-anchor="middle" x="372" y="-45.5" font-family="Helvetica,sans-Serif" font-size="10.00">xalanc::XUnknown</text>
</a>
</g>
</g>
<!-- Node1&#45;&gt;Node18 -->
<g id="edge17" class="edge"><title>Node1&#45;&gt;Node18</title>
<path fill="none" stroke="midnightblue" d="M243.935,-143.583C256.97,-122.18 281.224,-87.2219 311,-67 316.695,-63.1326 323.22,-60.018 329.823,-57.5199"/>
<polygon fill="midnightblue" stroke="midnightblue" points="240.822,-141.97 238.755,-152.361 246.851,-145.527 240.822,-141.97"/>
</g>
<!-- Node2 -->
<g id="node2" class="node"><title>Node2</title>
<g id="a_node2"><a xlink:href="classxalanc_1_1XalanReferenceCountedObject.html" target="_top" xlink:title="Class to hold reference count information.">
<polygon fill="none" stroke="black" points="0,-147 0,-177 154,-177 154,-147 0,-147"/>
<text text-anchor="start" x="8" y="-165" font-family="Helvetica,sans-Serif" font-size="10.00">xalanc::XalanReferenceCounted</text>
<text text-anchor="middle" x="77" y="-154" font-family="Helvetica,sans-Serif" font-size="10.00">Object</text>
</a>
</g>
</g>
<!-- Node2&#45;&gt;Node1 -->
<g id="edge1" class="edge"><title>Node2&#45;&gt;Node1</title>
<path fill="none" stroke="darkgreen" d="M164.561,-162C173.259,-162 181.785,-162 189.684,-162"/>
<polygon fill="darkgreen" stroke="darkgreen" points="164.3,-158.5 154.3,-162 164.3,-165.5 164.3,-158.5"/>
</g>
<!-- Node5 -->
<g id="node5" class="node"><title>Node5</title>
<g id="a_node5"><a xlink:href="classxalanc_1_1XNodeSet.html" target="_top" xlink:title="Class to hold XPath return types.">
<polygon fill="none" stroke="black" points="497,-304.5 497,-323.5 591,-323.5 591,-304.5 497,-304.5"/>
<text text-anchor="middle" x="544" y="-311.5" font-family="Helvetica,sans-Serif" font-size="10.00">xalanc::XNodeSet</text>
</a>
</g>
</g>
<!-- Node4&#45;&gt;Node5 -->
<g id="edge4" class="edge"><title>Node4&#45;&gt;Node5</title>
<path fill="none" stroke="midnightblue" d="M416.216,-269.66C421.918,-271.628 427.64,-273.758 433,-276 449.691,-282.981 452.123,-288.484 469,-295 478.404,-298.631 488.746,-301.781 498.641,-304.415"/>
<polygon fill="midnightblue" stroke="midnightblue" points="417.299,-266.331 406.706,-266.509 415.098,-272.976 417.299,-266.331"/>
</g>
<!-- Node6 -->
<g id="node6" class="node"><title>Node6</title>
<g id="a_node6"><a xlink:href="classxalanc_1_1XNodeSetNodeProxy.html" target="_top" xlink:title="Class to hold XPath return types.">
<polygon fill="none" stroke="black" points="473,-266.5 473,-285.5 615,-285.5 615,-266.5 473,-266.5"/>
<text text-anchor="middle" x="544" y="-273.5" font-family="Helvetica,sans-Serif" font-size="10.00">xalanc::XNodeSetNodeProxy</text>
</a>
</g>
</g>
<!-- Node4&#45;&gt;Node6 -->
<g id="edge5" class="edge"><title>Node4&#45;&gt;Node6</title>
<path fill="none" stroke="midnightblue" d="M440.2,-264.511C450.906,-265.707 462.006,-266.948 472.779,-268.152"/>
<polygon fill="midnightblue" stroke="midnightblue" points="440.407,-261.012 430.08,-263.38 439.63,-267.969 440.407,-261.012"/>
</g>
<!-- Node8 -->
<g id="node8" class="node"><title>Node8</title>
<g id="a_node8"><a xlink:href="classxalanc_1_1XNumber.html" target="_top" xlink:title=" ">
<polygon fill="none" stroke="black" points="499,-228.5 499,-247.5 589,-247.5 589,-228.5 499,-228.5"/>
<text text-anchor="middle" x="544" y="-235.5" font-family="Helvetica,sans-Serif" font-size="10.00">xalanc::XNumber</text>
</a>
</g>
</g>
<!-- Node7&#45;&gt;Node8 -->
<g id="edge7" class="edge"><title>Node7&#45;&gt;Node8</title>
<path fill="none" stroke="midnightblue" d="M425.898,-211.824C449.865,-217.182 477.824,-223.431 500.41,-228.48"/>
<polygon fill="midnightblue" stroke="midnightblue" points="426.421,-208.355 415.898,-209.589 424.894,-215.186 426.421,-208.355"/>
</g>
<!-- Node9 -->
<g id="node9" class="node"><title>Node9</title>
<g id="a_node9"><a xlink:href="classxalanc_1_1XTokenNumberAdapter.html" target="_top" xlink:title=" ">
<polygon fill="none" stroke="black" points="469,-190.5 469,-209.5 619,-209.5 619,-190.5 469,-190.5"/>
<text text-anchor="middle" x="544" y="-197.5" font-family="Helvetica,sans-Serif" font-size="10.00">xalanc::XTokenNumberAdapter</text>
</a>
</g>
</g>
<!-- Node7&#45;&gt;Node9 -->
<g id="edge8" class="edge"><title>Node7&#45;&gt;Node9</title>
<path fill="none" stroke="midnightblue" d="M438.806,-200C448.687,-200 458.934,-200 468.973,-200"/>
<polygon fill="midnightblue" stroke="midnightblue" points="438.664,-196.5 428.664,-200 438.664,-203.5 438.664,-196.5"/>
</g>
<!-- Node12 -->
<g id="node12" class="node"><title>Node12</title>
<g id="a_node12"><a xlink:href="classxalanc_1_1XString.html" target="_top" xlink:title=" ">
<polygon fill="none" stroke="black" points="503,-152.5 503,-171.5 585,-171.5 585,-152.5 503,-152.5"/>
<text text-anchor="middle" x="544" y="-159.5" font-family="Helvetica,sans-Serif" font-size="10.00">xalanc::XString</text>
</a>
</g>
</g>
<!-- Node11&#45;&gt;Node12 -->
<g id="edge11" class="edge"><title>Node11&#45;&gt;Node12</title>
<path fill="none" stroke="midnightblue" d="M425.88,-135.82C450.684,-141.365 479.767,-147.865 502.746,-153.002"/>
<polygon fill="midnightblue" stroke="midnightblue" points="426.421,-132.355 415.898,-133.589 424.894,-139.186 426.421,-132.355"/>
</g>
<!-- Node13 -->
<g id="node13" class="node"><title>Node13</title>
<g id="a_node13"><a xlink:href="classxalanc_1_1XStringAdapter.html" target="_top" xlink:title=" ">
<polygon fill="none" stroke="black" points="486,-114.5 486,-133.5 602,-133.5 602,-114.5 486,-114.5"/>
<text text-anchor="middle" x="544" y="-121.5" font-family="Helvetica,sans-Serif" font-size="10.00">xalanc::XStringAdapter</text>
</a>
</g>
</g>
<!-- Node11&#45;&gt;Node13 -->
<g id="edge12" class="edge"><title>Node11&#45;&gt;Node13</title>
<path fill="none" stroke="midnightblue" d="M434.267,-124C451.069,-124 469.216,-124 485.781,-124"/>
<polygon fill="midnightblue" stroke="midnightblue" points="434.006,-120.5 424.006,-124 434.006,-127.5 434.006,-120.5"/>
</g>
<!-- Node14 -->
<g id="node14" class="node"><title>Node14</title>
<g id="a_node14"><a xlink:href="classxalanc_1_1XStringCached.html" target="_top" xlink:title=" ">
<polygon fill="none" stroke="black" points="486.5,-76.5 486.5,-95.5 601.5,-95.5 601.5,-76.5 486.5,-76.5"/>
<text text-anchor="middle" x="544" y="-83.5" font-family="Helvetica,sans-Serif" font-size="10.00">xalanc::XStringCached</text>
</a>
</g>
</g>
<!-- Node11&#45;&gt;Node14 -->
<g id="edge13" class="edge"><title>Node11&#45;&gt;Node14</title>
<path fill="none" stroke="midnightblue" d="M425.898,-112.176C449.865,-106.818 477.824,-100.569 500.41,-95.5201"/>
<polygon fill="midnightblue" stroke="midnightblue" points="424.894,-108.814 415.898,-114.411 426.421,-115.645 424.894,-108.814"/>
</g>
<!-- Node15 -->
<g id="node15" class="node"><title>Node15</title>
<g id="a_node15"><a xlink:href="classxalanc_1_1XStringReference.html" target="_top" xlink:title=" ">
<polygon fill="none" stroke="black" points="481.5,-38.5 481.5,-57.5 606.5,-57.5 606.5,-38.5 481.5,-38.5"/>
<text text-anchor="middle" x="544" y="-45.5" font-family="Helvetica,sans-Serif" font-size="10.00">xalanc::XStringReference</text>
</a>
</g>
</g>
<!-- Node11&#45;&gt;Node15 -->
<g id="edge14" class="edge"><title>Node11&#45;&gt;Node15</title>
<path fill="none" stroke="midnightblue" d="M422.359,-110.661C426.065,-108.974 429.658,-107.093 433,-105 452.717,-92.6512 448.949,-78.7985 469,-67 475.63,-63.0985 483.055,-59.9895 490.573,-57.5143"/>
<polygon fill="midnightblue" stroke="midnightblue" points="420.942,-107.459 412.992,-114.463 423.575,-113.945 420.942,-107.459"/>
</g>
<!-- Node16 -->
<g id="node16" class="node"><title>Node16</title>
<g id="a_node16"><a xlink:href="classxalanc_1_1XTokenStringAdapter.html" target="_top" xlink:title=" ">
<polygon fill="none" stroke="black" points="473,-0.5 473,-19.5 615,-19.5 615,-0.5 473,-0.5"/>
<text text-anchor="middle" x="544" y="-7.5" font-family="Helvetica,sans-Serif" font-size="10.00">xalanc::XTokenStringAdapter</text>
</a>
</g>
</g>
<!-- Node11&#45;&gt;Node16 -->
<g id="edge15" class="edge"><title>Node11&#45;&gt;Node16</title>
<path fill="none" stroke="midnightblue" d="M426.754,-109.651C428.958,-108.243 431.055,-106.697 433,-105 461.16,-80.424 440.171,-52.7874 469,-29 473.706,-25.1168 479.11,-22.0157 484.81,-19.5409"/>
<polygon fill="midnightblue" stroke="midnightblue" points="424.986,-106.628 417.814,-114.426 428.283,-112.802 424.986,-106.628"/>
</g>
</g>
</svg>
