<?xml version="1.0" encoding="UTF-8" standalone="no"?>
<!DOCTYPE svg PUBLIC "-//W3C//DTD SVG 1.1//EN"
 "http://www.w3.org/Graphics/SVG/1.1/DTD/svg11.dtd">
<!-- Generated by graphviz version 2.38.0 (20140413.2041)
 -->
<!-- Title: xalanc::XalanFStreamOutputStream::XalanFStreamOutputStreamWriteException Pages: 1 -->
<svg width="184pt" height="173pt"
 viewBox="0.00 0.00 184.00 173.00" xmlns="http://www.w3.org/2000/svg" xmlns:xlink="http://www.w3.org/1999/xlink">
<g id="graph0" class="graph" transform="scale(1 1) rotate(0) translate(4 169)">
<title>xalanc::XalanFStreamOutputStream::XalanFStreamOutputStreamWriteException</title>
<!-- Node1 -->
<g id="node1" class="node"><title>Node1</title>
<g id="a_node1"><a xlink:title=" ">
<polygon fill="#bfbfbf" stroke="black" points="0,-0.5 0,-41.5 176,-41.5 176,-0.5 0,-0.5"/>
<text text-anchor="start" x="8" y="-29.5" font-family="Helvetica,sans-Serif" font-size="10.00">xalanc::XalanFStreamOutput</text>
<text text-anchor="start" x="8" y="-18.5" font-family="Helvetica,sans-Serif" font-size="10.00">Stream::XalanFStreamOutputStream</text>
<text text-anchor="middle" x="88" y="-7.5" font-family="Helvetica,sans-Serif" font-size="10.00">WriteException</text>
</a>
</g>
</g>
<!-- Node2 -->
<g id="node2" class="node"><title>Node2</title>
<g id="a_node2"><a xlink:href="classxalanc_1_1XalanOutputStream_1_1XalanOutputStreamException.html" target="_top" xlink:title=" ">
<polygon fill="none" stroke="black" points="13,-78.5 13,-108.5 163,-108.5 163,-78.5 13,-78.5"/>
<text text-anchor="start" x="21" y="-96.5" font-family="Helvetica,sans-Serif" font-size="10.00">xalanc::XalanOutputStream</text>
<text text-anchor="middle" x="88" y="-85.5" font-family="Helvetica,sans-Serif" font-size="10.00">::XalanOutputStreamException</text>
</a>
</g>
</g>
<!-- Node2&#45;&gt;Node1 -->
<g id="edge1" class="edge"><title>Node2&#45;&gt;Node1</title>
<path fill="none" stroke="midnightblue" d="M88,-67.9815C88,-59.3468 88,-49.7625 88,-41.5884"/>
<polygon fill="midnightblue" stroke="midnightblue" points="84.5001,-68.2332 88,-78.2333 91.5001,-68.2333 84.5001,-68.2332"/>
</g>
<!-- Node3 -->
<g id="node3" class="node"><title>Node3</title>
<g id="a_node3"><a xlink:href="classxalanc_1_1XSLException.html" target="_top" xlink:title=" ">
<polygon fill="none" stroke="black" points="32,-145.5 32,-164.5 144,-164.5 144,-145.5 32,-145.5"/>
<text text-anchor="middle" x="88" y="-152.5" font-family="Helvetica,sans-Serif" font-size="10.00">xalanc::XSLException</text>
</a>
</g>
</g>
<!-- Node3&#45;&gt;Node2 -->
<g id="edge2" class="edge"><title>Node3&#45;&gt;Node2</title>
<path fill="none" stroke="midnightblue" d="M88,-135.235C88,-126.586 88,-116.497 88,-108.523"/>
<polygon fill="midnightblue" stroke="midnightblue" points="84.5001,-135.475 88,-145.475 91.5001,-135.475 84.5001,-135.475"/>
</g>
</g>
</svg>
