<?xml version="1.0" encoding="UTF-8" standalone="no"?>
<!DOCTYPE svg PUBLIC "-//W3C//DTD SVG 1.1//EN"
 "http://www.w3.org/Graphics/SVG/1.1/DTD/svg11.dtd">
<!-- Generated by graphviz version 2.38.0 (20140413.2041)
 -->
<!-- Title: xalanc::XPathParserException Pages: 1 -->
<svg width="173pt" height="209pt"
 viewBox="0.00 0.00 172.50 209.00" xmlns="http://www.w3.org/2000/svg" xmlns:xlink="http://www.w3.org/1999/xlink">
<g id="graph0" class="graph" transform="scale(1 1) rotate(0) translate(4 205)">
<title>xalanc::XPathParserException</title>
<!-- Node1 -->
<g id="node1" class="node"><title>Node1</title>
<g id="a_node1"><a xlink:title="Exception class thrown when a problem parsing an XPath is encountered.">
<polygon fill="#bfbfbf" stroke="black" points="0,-0.5 0,-19.5 149,-19.5 149,-0.5 0,-0.5"/>
<text text-anchor="middle" x="74.5" y="-7.5" font-family="Helvetica,sans-Serif" font-size="10.00">xalanc::XPathParserException</text>
</a>
</g>
</g>
<!-- Node2 -->
<g id="node2" class="node"><title>Node2</title>
<g id="a_node2"><a xlink:href="classxalanc_1_1XalanXPathException.html" target="_top" xlink:title=" ">
<polygon fill="none" stroke="black" points="3,-57.5 3,-76.5 146,-76.5 146,-57.5 3,-57.5"/>
<text text-anchor="middle" x="74.5" y="-64.5" font-family="Helvetica,sans-Serif" font-size="10.00">xalanc::XalanXPathException</text>
</a>
</g>
</g>
<!-- Node2&#45;&gt;Node1 -->
<g id="edge1" class="edge"><title>Node2&#45;&gt;Node1</title>
<path fill="none" stroke="midnightblue" d="M74.5,-47.1166C74.5,-37.8173 74.5,-27.0557 74.5,-19.7149"/>
<polygon fill="midnightblue" stroke="midnightblue" points="71.0001,-47.4062 74.5,-57.4063 78.0001,-47.4063 71.0001,-47.4062"/>
</g>
<!-- Node3 -->
<g id="node3" class="node"><title>Node3</title>
<g id="a_node3"><a xlink:href="classxalanc_1_1XSLException.html" target="_top" xlink:title=" ">
<polygon fill="none" stroke="black" points="18.5,-114.5 18.5,-133.5 130.5,-133.5 130.5,-114.5 18.5,-114.5"/>
<text text-anchor="middle" x="74.5" y="-121.5" font-family="Helvetica,sans-Serif" font-size="10.00">xalanc::XSLException</text>
</a>
</g>
</g>
<!-- Node3&#45;&gt;Node2 -->
<g id="edge2" class="edge"><title>Node3&#45;&gt;Node2</title>
<path fill="none" stroke="midnightblue" d="M74.5,-104.117C74.5,-94.8173 74.5,-84.0557 74.5,-76.7149"/>
<polygon fill="midnightblue" stroke="midnightblue" points="71.0001,-104.406 74.5,-114.406 78.0001,-104.406 71.0001,-104.406"/>
</g>
<!-- Node4 -->
<g id="node4" class="node"><title>Node4</title>
<g id="a_node4"><a xlink:title=" ">
<polygon fill="none" stroke="#bfbfbf" points="30,-181.5 30,-200.5 119,-200.5 119,-181.5 30,-181.5"/>
<text text-anchor="middle" x="74.5" y="-188.5" font-family="Helvetica,sans-Serif" font-size="10.00">MemoryManager</text>
</a>
</g>
</g>
<!-- Node4&#45;&gt;Node3 -->
<g id="edge3" class="edge"><title>Node4&#45;&gt;Node3</title>
<path fill="none" stroke="#9a32cd" stroke-dasharray="5,2" d="M74.5,-171.037C74.5,-158.67 74.5,-143.12 74.5,-133.627"/>
<polygon fill="#9a32cd" stroke="#9a32cd" points="71.0001,-171.234 74.5,-181.234 78.0001,-171.234 71.0001,-171.234"/>
<text text-anchor="middle" x="119.5" y="-155" font-family="Helvetica,sans-Serif" font-size="10.00"> m_memoryManager</text>
</g>
</g>
</svg>
