<?xml version="1.0" encoding="UTF-8" standalone="no"?>
<!DOCTYPE svg PUBLIC "-//W3C//DTD SVG 1.1//EN"
 "http://www.w3.org/Graphics/SVG/1.1/DTD/svg11.dtd">
<!-- Generated by graphviz version 2.43.0 (0)
 -->
<!-- Title: xalanc::VariablesStack::InvalidStackContextException Pages: 1 -->
<svg width="198pt" height="220pt"
 viewBox="0.00 0.00 197.50 220.00" xmlns="http://www.w3.org/2000/svg" xmlns:xlink="http://www.w3.org/1999/xlink">
<g id="graph0" class="graph" transform="scale(1 1) rotate(0) translate(4 216)">
<title>xalanc::VariablesStack::InvalidStackContextException</title>
<!-- Node1 -->
<g id="node1" class="node">
<title>Node1</title>
<g id="a_node1"><a xlink:title=" ">
<polygon fill="#bfbfbf" stroke="black" points="2,-0.5 2,-30.5 171,-30.5 171,-0.5 2,-0.5"/>
<text text-anchor="start" x="10" y="-18.5" font-family="Helvetica,sans-Serif" font-size="10.00">xalanc::VariablesStack</text>
<text text-anchor="middle" x="86.5" y="-7.5" font-family="Helvetica,sans-Serif" font-size="10.00">::InvalidStackContextException</text>
</a>
</g>
</g>
<!-- Node2 -->
<g id="node2" class="node">
<title>Node2</title>
<g id="a_node2"><a xlink:href="classxalanc_1_1XSLTProcessorException.html" target="_top" xlink:title=" ">
<polygon fill="none" stroke="black" points="0,-68.5 0,-87.5 173,-87.5 173,-68.5 0,-68.5"/>
<text text-anchor="middle" x="86.5" y="-75.5" font-family="Helvetica,sans-Serif" font-size="10.00">xalanc::XSLTProcessorException</text>
</a>
</g>
</g>
<!-- Node2&#45;&gt;Node1 -->
<g id="edge1" class="edge">
<title>Node2&#45;&gt;Node1</title>
<path fill="none" stroke="midnightblue" d="M86.5,-58.22C86.5,-49.36 86.5,-38.96 86.5,-30.76"/>
<polygon fill="midnightblue" stroke="midnightblue" points="83,-58.33 86.5,-68.33 90,-58.33 83,-58.33"/>
</g>
<!-- Node3 -->
<g id="node3" class="node">
<title>Node3</title>
<g id="a_node3"><a xlink:href="classxalanc_1_1XSLException.html" target="_top" xlink:title=" ">
<polygon fill="none" stroke="black" points="26,-125.5 26,-144.5 147,-144.5 147,-125.5 26,-125.5"/>
<text text-anchor="middle" x="86.5" y="-132.5" font-family="Helvetica,sans-Serif" font-size="10.00">xalanc::XSLException</text>
</a>
</g>
</g>
<!-- Node3&#45;&gt;Node2 -->
<g id="edge2" class="edge">
<title>Node3&#45;&gt;Node2</title>
<path fill="none" stroke="midnightblue" d="M86.5,-115.12C86.5,-105.82 86.5,-95.06 86.5,-87.71"/>
<polygon fill="midnightblue" stroke="midnightblue" points="83,-115.41 86.5,-125.41 90,-115.41 83,-115.41"/>
</g>
<!-- Node4 -->
<g id="node4" class="node">
<title>Node4</title>
<g id="a_node4"><a xlink:title=" ">
<polygon fill="none" stroke="#bfbfbf" points="36.5,-192.5 36.5,-211.5 136.5,-211.5 136.5,-192.5 36.5,-192.5"/>
<text text-anchor="middle" x="86.5" y="-199.5" font-family="Helvetica,sans-Serif" font-size="10.00">MemoryManager</text>
</a>
</g>
</g>
<!-- Node4&#45;&gt;Node3 -->
<g id="edge3" class="edge">
<title>Node4&#45;&gt;Node3</title>
<path fill="none" stroke="#9a32cd" stroke-dasharray="5,2" d="M86.5,-182.04C86.5,-169.67 86.5,-154.12 86.5,-144.63"/>
<polygon fill="#9a32cd" stroke="#9a32cd" points="83,-182.23 86.5,-192.23 90,-182.23 83,-182.23"/>
<text text-anchor="middle" x="138" y="-166" font-family="Helvetica,sans-Serif" font-size="10.00"> m_memoryManager</text>
</g>
</g>
</svg>
