<?xml version="1.0" encoding="UTF-8" standalone="no"?>
<!DOCTYPE svg PUBLIC "-//W3C//DTD SVG 1.1//EN"
 "http://www.w3.org/Graphics/SVG/1.1/DTD/svg11.dtd">
<!-- Generated by graphviz version 2.43.0 (0)
 -->
<!-- Title: xalanc::ExtensionFunctionHandler Pages: 1 -->
<svg width="368pt" height="206pt"
 viewBox="0.00 0.00 367.50 206.00" xmlns="http://www.w3.org/2000/svg" xmlns:xlink="http://www.w3.org/1999/xlink">
<g id="graph0" class="graph" transform="scale(1 1) rotate(0) translate(4 202)">
<title>xalanc::ExtensionFunctionHandler</title>
<!-- Node1 -->
<g id="node1" class="node">
<title>Node1</title>
<g id="a_node1"><a xlink:title="Class handling an extension namespace for XPath.">
<polygon fill="#bfbfbf" stroke="black" points="68.5,-0.5 68.5,-30.5 212.5,-30.5 212.5,-0.5 68.5,-0.5"/>
<text text-anchor="start" x="76.5" y="-18.5" font-family="Helvetica,sans-Serif" font-size="10.00">xalanc::ExtensionFunction</text>
<text text-anchor="middle" x="140.5" y="-7.5" font-family="Helvetica,sans-Serif" font-size="10.00">Handler</text>
</a>
</g>
</g>
<!-- Node2 -->
<g id="node2" class="node">
<title>Node2</title>
<g id="a_node2"><a xlink:href="classxalanc_1_1XalanDOMString.html" target="_top" xlink:title=" ">
<polygon fill="none" stroke="black" points="0,-111.5 0,-130.5 135,-130.5 135,-111.5 0,-111.5"/>
<text text-anchor="middle" x="67.5" y="-118.5" font-family="Helvetica,sans-Serif" font-size="10.00">xalanc::XalanDOMString</text>
</a>
</g>
</g>
<!-- Node2&#45;&gt;Node1 -->
<g id="edge1" class="edge">
<title>Node2&#45;&gt;Node1</title>
<path fill="none" stroke="#9a32cd" stroke-dasharray="5,2" d="M75.48,-102.02C82.54,-87.09 93.69,-65.67 106.5,-49 111.48,-42.52 117.75,-36.15 123.55,-30.78"/>
<polygon fill="#9a32cd" stroke="#9a32cd" points="72.27,-100.63 71.28,-111.18 78.63,-103.55 72.27,-100.63"/>
<text text-anchor="middle" x="149.5" y="-85" font-family="Helvetica,sans-Serif" font-size="10.00"> m_scriptSrcURL</text>
<text text-anchor="middle" x="149.5" y="-74" font-family="Helvetica,sans-Serif" font-size="10.00">m_namespaceUri</text>
<text text-anchor="middle" x="149.5" y="-63" font-family="Helvetica,sans-Serif" font-size="10.00">m_scriptSrc</text>
<text text-anchor="middle" x="149.5" y="-52" font-family="Helvetica,sans-Serif" font-size="10.00">m_scriptLang</text>
</g>
<!-- Node3 -->
<g id="node3" class="node">
<title>Node3</title>
<g id="a_node3"><a xlink:href="classxalanc_1_1XalanSet.html" target="_top" xlink:title=" ">
<polygon fill="none" stroke="black" points="153,-111.5 153,-130.5 354,-130.5 354,-111.5 153,-111.5"/>
<text text-anchor="middle" x="253.5" y="-118.5" font-family="Helvetica,sans-Serif" font-size="10.00">xalanc::XalanSet&lt; XalanDOMString &gt;</text>
</a>
</g>
</g>
<!-- Node3&#45;&gt;Node1 -->
<g id="edge2" class="edge">
<title>Node3&#45;&gt;Node1</title>
<path fill="none" stroke="#9a32cd" stroke-dasharray="5,2" d="M241.21,-102.94C229.71,-87.7 211.49,-65.31 192.5,-49 184.59,-42.2 175.11,-35.84 166.43,-30.59"/>
<polygon fill="#9a32cd" stroke="#9a32cd" points="238.7,-105.43 247.45,-111.4 244.33,-101.27 238.7,-105.43"/>
<text text-anchor="middle" x="264.5" y="-68.5" font-family="Helvetica,sans-Serif" font-size="10.00"> m_functions</text>
</g>
<!-- Node4 -->
<g id="node4" class="node">
<title>Node4</title>
<g id="a_node4"><a xlink:href="classxalanc_1_1XalanSet.html" target="_top" xlink:title="Xalan set implementation.">
<polygon fill="none" stroke="black" points="179.5,-178.5 179.5,-197.5 327.5,-197.5 327.5,-178.5 179.5,-178.5"/>
<text text-anchor="middle" x="253.5" y="-185.5" font-family="Helvetica,sans-Serif" font-size="10.00">xalanc::XalanSet&lt; Value &gt;</text>
</a>
</g>
</g>
<!-- Node4&#45;&gt;Node3 -->
<g id="edge3" class="edge">
<title>Node4&#45;&gt;Node3</title>
<path fill="none" stroke="orange" stroke-dasharray="5,2" d="M253.5,-168.04C253.5,-155.67 253.5,-140.12 253.5,-130.63"/>
<polygon fill="orange" stroke="orange" points="250,-168.23 253.5,-178.23 257,-168.23 250,-168.23"/>
<text text-anchor="middle" x="306.5" y="-152" font-family="Helvetica,sans-Serif" font-size="10.00"> &lt; XalanDOMString &gt;</text>
</g>
</g>
</svg>
