<?xml version="1.0" encoding="UTF-8" standalone="no"?>
<!DOCTYPE svg PUBLIC "-//W3C//DTD SVG 1.1//EN"
 "http://www.w3.org/Graphics/SVG/1.1/DTD/svg11.dtd">
<!-- Generated by graphviz version 2.38.0 (20140413.2041)
 -->
<!-- Title: xalanc::StylesheetExecutionContext Pages: 1 -->
<svg width="355pt" height="230pt"
 viewBox="0.00 0.00 355.00 230.00" xmlns="http://www.w3.org/2000/svg" xmlns:xlink="http://www.w3.org/1999/xlink">
<g id="graph0" class="graph" transform="scale(1 1) rotate(0) translate(4 226)">
<title>xalanc::StylesheetExecutionContext</title>
<!-- Node1 -->
<g id="node1" class="node"><title>Node1</title>
<g id="a_node1"><a xlink:title=" ">
<polygon fill="#bfbfbf" stroke="black" points="173.5,-0.5 173.5,-30.5 314.5,-30.5 314.5,-0.5 173.5,-0.5"/>
<text text-anchor="start" x="181.5" y="-18.5" font-family="Helvetica,sans-Serif" font-size="10.00">xalanc::StylesheetExecution</text>
<text text-anchor="middle" x="244" y="-7.5" font-family="Helvetica,sans-Serif" font-size="10.00">Context</text>
</a>
</g>
</g>
<!-- Node2 -->
<g id="node2" class="node"><title>Node2</title>
<g id="a_node2"><a xlink:href="classxalanc_1_1XPathExecutionContext.html" target="_top" xlink:title=" ">
<polygon fill="none" stroke="black" points="167,-68.5 167,-87.5 321,-87.5 321,-68.5 167,-68.5"/>
<text text-anchor="middle" x="244" y="-75.5" font-family="Helvetica,sans-Serif" font-size="10.00">xalanc::XPathExecutionContext</text>
</a>
</g>
</g>
<!-- Node2&#45;&gt;Node1 -->
<g id="edge1" class="edge"><title>Node2&#45;&gt;Node1</title>
<path fill="none" stroke="midnightblue" d="M244,-58.2154C244,-49.3565 244,-38.9577 244,-30.7587"/>
<polygon fill="midnightblue" stroke="midnightblue" points="240.5,-58.3318 244,-68.3318 247.5,-58.3319 240.5,-58.3318"/>
</g>
<!-- Node3 -->
<g id="node3" class="node"><title>Node3</title>
<g id="a_node3"><a xlink:href="classxalanc_1_1ExecutionContext.html" target="_top" xlink:title=" ">
<polygon fill="none" stroke="black" points="75,-135.5 75,-154.5 203,-154.5 203,-135.5 75,-135.5"/>
<text text-anchor="middle" x="139" y="-142.5" font-family="Helvetica,sans-Serif" font-size="10.00">xalanc::ExecutionContext</text>
</a>
</g>
</g>
<!-- Node3&#45;&gt;Node2 -->
<g id="edge2" class="edge"><title>Node3&#45;&gt;Node2</title>
<path fill="none" stroke="midnightblue" d="M161.709,-129.942C182.503,-117.07 212.617,-98.4274 230.064,-87.6273"/>
<polygon fill="midnightblue" stroke="midnightblue" points="159.821,-126.994 153.161,-135.234 163.506,-132.946 159.821,-126.994"/>
</g>
<!-- Node4 -->
<g id="node4" class="node"><title>Node4</title>
<g id="a_node4"><a xlink:href="classxalanc_1_1ProblemListenerBase.html" target="_top" xlink:title="This is the abstract class that is used when reporting a problem some kind, that requires a message,...">
<polygon fill="none" stroke="black" points="0,-202.5 0,-221.5 144,-221.5 144,-202.5 0,-202.5"/>
<text text-anchor="middle" x="72" y="-209.5" font-family="Helvetica,sans-Serif" font-size="10.00">xalanc::ProblemListenerBase</text>
</a>
</g>
</g>
<!-- Node4&#45;&gt;Node3 -->
<g id="edge3" class="edge"><title>Node4&#45;&gt;Node3</title>
<path fill="none" stroke="midnightblue" d="M88.4956,-194.997C101.635,-182.25 119.524,-164.895 130.107,-154.627"/>
<polygon fill="midnightblue" stroke="midnightblue" points="85.7762,-192.759 81.0359,-202.234 90.6504,-197.783 85.7762,-192.759"/>
</g>
<!-- Node5 -->
<g id="node5" class="node"><title>Node5</title>
<g id="a_node5"><a xlink:title=" ">
<polygon fill="none" stroke="#bfbfbf" points="162.5,-202.5 162.5,-221.5 251.5,-221.5 251.5,-202.5 162.5,-202.5"/>
<text text-anchor="middle" x="207" y="-209.5" font-family="Helvetica,sans-Serif" font-size="10.00">MemoryManager</text>
</a>
</g>
</g>
<!-- Node5&#45;&gt;Node3 -->
<g id="edge4" class="edge"><title>Node5&#45;&gt;Node3</title>
<path fill="none" stroke="#9a32cd" stroke-dasharray="5,2" d="M190.258,-194.997C176.923,-182.25 158.767,-164.895 148.025,-154.627"/>
<polygon fill="#9a32cd" stroke="#9a32cd" points="188.182,-197.854 197.829,-202.234 193.019,-192.794 188.182,-197.854"/>
<text text-anchor="middle" x="223" y="-176" font-family="Helvetica,sans-Serif" font-size="10.00"> m_memoryManager</text>
</g>
<!-- Node6 -->
<g id="node6" class="node"><title>Node6</title>
<g id="a_node6"><a xlink:href="classxalanc_1_1XObjectFactory.html" target="_top" xlink:title="This class handles the creation of XObjects and manages their lifetime.">
<polygon fill="none" stroke="black" points="221,-135.5 221,-154.5 339,-154.5 339,-135.5 221,-135.5"/>
<text text-anchor="middle" x="280" y="-142.5" font-family="Helvetica,sans-Serif" font-size="10.00">xalanc::XObjectFactory</text>
</a>
</g>
</g>
<!-- Node6&#45;&gt;Node2 -->
<g id="edge5" class="edge"><title>Node6&#45;&gt;Node2</title>
<path fill="none" stroke="#9a32cd" stroke-dasharray="5,2" d="M270.121,-126.163C263.179,-113.628 254.197,-97.4104 248.778,-87.6273"/>
<polygon fill="#9a32cd" stroke="#9a32cd" points="267.238,-128.182 275.145,-135.234 273.362,-124.79 267.238,-128.182"/>
<text text-anchor="middle" x="306" y="-109" font-family="Helvetica,sans-Serif" font-size="10.00"> m_xobjectFactory</text>
</g>
</g>
</svg>
