<?xml version="1.0" encoding="UTF-8" standalone="no"?>
<!DOCTYPE svg PUBLIC "-//W3C//DTD SVG 1.1//EN"
 "http://www.w3.org/Graphics/SVG/1.1/DTD/svg11.dtd">
<!-- Generated by graphviz version 2.43.0 (0)
 -->
<!-- Title: xalanc::XPathEnvSupport Pages: 1 -->
<svg width="344pt" height="218pt"
 viewBox="0.00 0.00 343.50 218.00" xmlns="http://www.w3.org/2000/svg" xmlns:xlink="http://www.w3.org/1999/xlink">
<g id="graph0" class="graph" transform="scale(1 1) rotate(0) translate(4 214)">
<title>xalanc::XPathEnvSupport</title>
<!-- Node1 -->
<g id="node1" class="node">
<title>Node1</title>
<g id="a_node1"><a xlink:title=" ">
<polygon fill="#bfbfbf" stroke="black" points="106,-134.5 106,-153.5 244,-153.5 244,-134.5 106,-134.5"/>
<text text-anchor="middle" x="175" y="-141.5" font-family="Helvetica,sans-Serif" font-size="10.00">xalanc::XPathEnvSupport</text>
</a>
</g>
</g>
<!-- Node3 -->
<g id="node3" class="node">
<title>Node3</title>
<g id="a_node3"><a xlink:href="classxalanc_1_1XPathEnvSupportDefault.html" target="_top" xlink:title=" ">
<polygon fill="none" stroke="black" points="0,-73 0,-92 174,-92 174,-73 0,-73"/>
<text text-anchor="middle" x="87" y="-80" font-family="Helvetica,sans-Serif" font-size="10.00">xalanc::XPathEnvSupportDefault</text>
</a>
</g>
</g>
<!-- Node1&#45;&gt;Node3 -->
<g id="edge2" class="edge">
<title>Node1&#45;&gt;Node3</title>
<path fill="none" stroke="midnightblue" d="M153.72,-128.61C136.8,-117.17 113.69,-101.55 99.58,-92.01"/>
<polygon fill="midnightblue" stroke="midnightblue" points="152.15,-131.77 162.39,-134.48 156.07,-125.97 152.15,-131.77"/>
</g>
<!-- Node4 -->
<g id="node4" class="node">
<title>Node4</title>
<g id="a_node4"><a xlink:href="classxalanc_1_1XSLTProcessorEnvSupport.html" target="_top" xlink:title=" ">
<polygon fill="none" stroke="black" points="192.5,-67.5 192.5,-97.5 335.5,-97.5 335.5,-67.5 192.5,-67.5"/>
<text text-anchor="start" x="200.5" y="-85.5" font-family="Helvetica,sans-Serif" font-size="10.00">xalanc::XSLTProcessorEnv</text>
<text text-anchor="middle" x="264" y="-74.5" font-family="Helvetica,sans-Serif" font-size="10.00">Support</text>
</a>
</g>
</g>
<!-- Node1&#45;&gt;Node4 -->
<g id="edge3" class="edge">
<title>Node1&#45;&gt;Node4</title>
<path fill="none" stroke="midnightblue" d="M196.33,-128.74C210.48,-119.28 228.95,-106.93 243.02,-97.52"/>
<polygon fill="midnightblue" stroke="midnightblue" points="194.12,-126.01 187.75,-134.48 198.01,-131.83 194.12,-126.01"/>
</g>
<!-- Node2 -->
<g id="node2" class="node">
<title>Node2</title>
<g id="a_node2"><a xlink:href="classxalanc_1_1ProblemListenerBase.html" target="_top" xlink:title="This is the abstract class that is used when reporting a problem some kind, that requires a message,...">
<polygon fill="none" stroke="black" points="96,-190.5 96,-209.5 254,-209.5 254,-190.5 96,-190.5"/>
<text text-anchor="middle" x="175" y="-197.5" font-family="Helvetica,sans-Serif" font-size="10.00">xalanc::ProblemListenerBase</text>
</a>
</g>
</g>
<!-- Node2&#45;&gt;Node1 -->
<g id="edge1" class="edge">
<title>Node2&#45;&gt;Node1</title>
<path fill="none" stroke="midnightblue" d="M175,-179.8C175,-170.91 175,-160.78 175,-153.75"/>
<polygon fill="midnightblue" stroke="midnightblue" points="171.5,-180.08 175,-190.08 178.5,-180.08 171.5,-180.08"/>
</g>
<!-- Node5 -->
<g id="node5" class="node">
<title>Node5</title>
<g id="a_node5"><a xlink:href="classxalanc_1_1XSLTProcessorEnvSupportDefault.html" target="_top" xlink:title=" ">
<polygon fill="none" stroke="black" points="192.5,-0.5 192.5,-30.5 335.5,-30.5 335.5,-0.5 192.5,-0.5"/>
<text text-anchor="start" x="200.5" y="-18.5" font-family="Helvetica,sans-Serif" font-size="10.00">xalanc::XSLTProcessorEnv</text>
<text text-anchor="middle" x="264" y="-7.5" font-family="Helvetica,sans-Serif" font-size="10.00">SupportDefault</text>
</a>
</g>
</g>
<!-- Node4&#45;&gt;Node5 -->
<g id="edge4" class="edge">
<title>Node4&#45;&gt;Node5</title>
<path fill="none" stroke="midnightblue" d="M264,-57.11C264,-48.15 264,-38.32 264,-30.58"/>
<polygon fill="midnightblue" stroke="midnightblue" points="260.5,-57.4 264,-67.4 267.5,-57.4 260.5,-57.4"/>
</g>
</g>
</svg>
