<?xml version="1.0" encoding="UTF-8" standalone="no"?>
<!DOCTYPE svg PUBLIC "-//W3C//DTD SVG 1.1//EN"
 "http://www.w3.org/Graphics/SVG/1.1/DTD/svg11.dtd">
<!-- Generated by graphviz version 2.38.0 (20140413.2041)
 -->
<!-- Title: xalanc::NLSHandler Pages: 1 -->
<svg width="286pt" height="209pt"
 viewBox="0.00 0.00 286.00 209.00" xmlns="http://www.w3.org/2000/svg" xmlns:xlink="http://www.w3.org/1999/xlink">
<g id="graph0" class="graph" transform="scale(1 1) rotate(0) translate(4 205)">
<title>xalanc::NLSHandler</title>
<!-- Node1 -->
<g id="node1" class="node"><title>Node1</title>
<g id="a_node1"><a xlink:title=" ">
<polygon fill="#bfbfbf" stroke="black" points="116.5,-0.5 116.5,-19.5 219.5,-19.5 219.5,-0.5 116.5,-0.5"/>
<text text-anchor="middle" x="168" y="-7.5" font-family="Helvetica,sans-Serif" font-size="10.00">xalanc::NLSHandler</text>
</a>
</g>
</g>
<!-- Node2 -->
<g id="node2" class="node"><title>Node2</title>
<g id="a_node2"><a xlink:href="classxalanc_1_1ICUResHandler.html" target="_top" xlink:title=" ">
<polygon fill="none" stroke="black" points="109.5,-57.5 109.5,-76.5 226.5,-76.5 226.5,-57.5 109.5,-57.5"/>
<text text-anchor="middle" x="168" y="-64.5" font-family="Helvetica,sans-Serif" font-size="10.00">xalanc::ICUResHandler</text>
</a>
</g>
</g>
<!-- Node2&#45;&gt;Node1 -->
<g id="edge1" class="edge"><title>Node2&#45;&gt;Node1</title>
<path fill="none" stroke="midnightblue" d="M168,-47.1166C168,-37.8173 168,-27.0557 168,-19.7149"/>
<polygon fill="midnightblue" stroke="midnightblue" points="164.5,-47.4062 168,-57.4063 171.5,-47.4063 164.5,-47.4062"/>
</g>
<!-- Node3 -->
<g id="node3" class="node"><title>Node3</title>
<g id="a_node3"><a xlink:href="classxalanc_1_1SAX2Handler.html" target="_top" xlink:title=" ">
<polygon fill="none" stroke="black" points="6,-124.5 6,-143.5 114,-143.5 114,-124.5 6,-124.5"/>
<text text-anchor="middle" x="60" y="-131.5" font-family="Helvetica,sans-Serif" font-size="10.00">xalanc::SAX2Handler</text>
</a>
</g>
</g>
<!-- Node3&#45;&gt;Node2 -->
<g id="edge2" class="edge"><title>Node3&#45;&gt;Node2</title>
<path fill="none" stroke="midnightblue" d="M83.3575,-118.942C104.746,-106.07 135.721,-87.4274 153.665,-76.6273"/>
<polygon fill="midnightblue" stroke="midnightblue" points="81.3285,-116.078 74.5654,-124.234 84.9381,-122.076 81.3285,-116.078"/>
</g>
<!-- Node4 -->
<g id="node4" class="node"><title>Node4</title>
<g id="a_node4"><a xlink:title=" ">
<polygon fill="none" stroke="#bfbfbf" points="0,-181.5 0,-200.5 120,-200.5 120,-181.5 0,-181.5"/>
<text text-anchor="middle" x="60" y="-188.5" font-family="Helvetica,sans-Serif" font-size="10.00">xercesc::DefaultHandler</text>
</a>
</g>
</g>
<!-- Node4&#45;&gt;Node3 -->
<g id="edge3" class="edge"><title>Node4&#45;&gt;Node3</title>
<path fill="none" stroke="midnightblue" d="M60,-171.117C60,-161.817 60,-151.056 60,-143.715"/>
<polygon fill="midnightblue" stroke="midnightblue" points="56.5001,-171.406 60,-181.406 63.5001,-171.406 56.5001,-171.406"/>
</g>
<!-- Node5 -->
<g id="node5" class="node"><title>Node5</title>
<g id="a_node5"><a xlink:href="classxalanc_1_1MsgFileOutputStream.html" target="_top" xlink:title=" ">
<polygon fill="none" stroke="black" points="132,-124.5 132,-143.5 278,-143.5 278,-124.5 132,-124.5"/>
<text text-anchor="middle" x="205" y="-131.5" font-family="Helvetica,sans-Serif" font-size="10.00">xalanc::MsgFileOutputStream</text>
</a>
</g>
</g>
<!-- Node5&#45;&gt;Node2 -->
<g id="edge4" class="edge"><title>Node5&#45;&gt;Node2</title>
<path fill="none" stroke="#9a32cd" stroke-dasharray="5,2" d="M195.058,-115.535C187.895,-102.95 178.535,-86.5072 172.911,-76.6273"/>
<polygon fill="#9a32cd" stroke="#9a32cd" points="192.021,-117.275 200.01,-124.234 198.105,-113.812 192.021,-117.275"/>
<text text-anchor="middle" x="211.5" y="-98" font-family="Helvetica,sans-Serif" font-size="10.00"> m_stream</text>
</g>
</g>
</svg>
