<?xml version="1.0" encoding="UTF-8" standalone="no"?>
<!DOCTYPE svg PUBLIC "-//W3C//DTD SVG 1.1//EN"
 "http://www.w3.org/Graphics/SVG/1.1/DTD/svg11.dtd">
<!-- Generated by graphviz version 2.38.0 (20140413.2041)
 -->
<!-- Title: xalanc::XObject Pages: 1 -->
<svg width="343pt" height="183pt"
 viewBox="0.00 0.00 343.00 183.00" xmlns="http://www.w3.org/2000/svg" xmlns:xlink="http://www.w3.org/1999/xlink">
<g id="graph0" class="graph" transform="scale(1 1) rotate(0) translate(4 179)">
<title>xalanc::XObject</title>
<!-- Node1 -->
<g id="node1" class="node"><title>Node1</title>
<g id="a_node1"><a xlink:title="Class to hold XPath return types.">
<polygon fill="#bfbfbf" stroke="black" points="112.5,-0.5 112.5,-19.5 197.5,-19.5 197.5,-0.5 112.5,-0.5"/>
<text text-anchor="middle" x="155" y="-7.5" font-family="Helvetica,sans-Serif" font-size="10.00">xalanc::XObject</text>
</a>
</g>
</g>
<!-- Node2 -->
<g id="node2" class="node"><title>Node2</title>
<g id="a_node2"><a xlink:href="classxalanc_1_1XalanReferenceCountedObject.html" target="_top" xlink:title="Class to hold reference count information.">
<polygon fill="none" stroke="black" points="0,-144.5 0,-174.5 154,-174.5 154,-144.5 0,-144.5"/>
<text text-anchor="start" x="8" y="-162.5" font-family="Helvetica,sans-Serif" font-size="10.00">xalanc::XalanReferenceCounted</text>
<text text-anchor="middle" x="77" y="-151.5" font-family="Helvetica,sans-Serif" font-size="10.00">Object</text>
</a>
</g>
</g>
<!-- Node2&#45;&gt;Node1 -->
<g id="edge1" class="edge"><title>Node2&#45;&gt;Node1</title>
<path fill="none" stroke="darkgreen" d="M89.2504,-135.334C106.858,-102.037 138.505,-42.1932 150.353,-19.7868"/>
<polygon fill="darkgreen" stroke="darkgreen" points="86.0597,-133.881 84.479,-144.357 92.2478,-137.153 86.0597,-133.881"/>
</g>
<!-- Node3 -->
<g id="node3" class="node"><title>Node3</title>
<g id="a_node3"><a xlink:href="classxalanc_1_1XalanDOMString.html" target="_top" xlink:title=" ">
<polygon fill="none" stroke="black" points="172,-150 172,-169 294,-169 294,-150 172,-150"/>
<text text-anchor="middle" x="233" y="-157" font-family="Helvetica,sans-Serif" font-size="10.00">xalanc::XalanDOMString</text>
</a>
</g>
</g>
<!-- Node3&#45;&gt;Node1 -->
<g id="edge2" class="edge"><title>Node3&#45;&gt;Node1</title>
<path fill="none" stroke="#9a32cd" stroke-dasharray="5,2" d="M223.551,-140.632C206.667,-108.704 171.926,-43.0079 159.524,-19.5543"/>
<polygon fill="#9a32cd" stroke="#9a32cd" points="220.586,-142.511 228.354,-149.715 226.774,-139.239 220.586,-142.511"/>
<text text-anchor="middle" x="274.5" y="-118" font-family="Helvetica,sans-Serif" font-size="10.00"> s_trueString</text>
<text text-anchor="middle" x="274.5" y="-107" font-family="Helvetica,sans-Serif" font-size="10.00">s_nodesetString</text>
<text text-anchor="middle" x="274.5" y="-96" font-family="Helvetica,sans-Serif" font-size="10.00">s_falseString</text>
<text text-anchor="middle" x="274.5" y="-85" font-family="Helvetica,sans-Serif" font-size="10.00">s_numberString</text>
<text text-anchor="middle" x="274.5" y="-74" font-family="Helvetica,sans-Serif" font-size="10.00">s_resultTreeFragmentString</text>
<text text-anchor="middle" x="274.5" y="-63" font-family="Helvetica,sans-Serif" font-size="10.00">s_booleanString</text>
<text text-anchor="middle" x="274.5" y="-52" font-family="Helvetica,sans-Serif" font-size="10.00">s_emptyString</text>
<text text-anchor="middle" x="274.5" y="-41" font-family="Helvetica,sans-Serif" font-size="10.00">s_stringString</text>
</g>
</g>
</svg>
