<?xml version="1.0" encoding="UTF-8" standalone="no"?>
<!DOCTYPE svg PUBLIC "-//W3C//DTD SVG 1.1//EN"
 "http://www.w3.org/Graphics/SVG/1.1/DTD/svg11.dtd">
<!-- Generated by graphviz version 2.38.0 (20140413.2041)
 -->
<!-- Title: xalanc::XSLTProcessorException Pages: 1 -->
<svg width="524pt" height="88pt"
 viewBox="0.00 0.00 524.00 88.00" xmlns="http://www.w3.org/2000/svg" xmlns:xlink="http://www.w3.org/1999/xlink">
<g id="graph0" class="graph" transform="scale(1 1) rotate(0) translate(4 84)">
<title>xalanc::XSLTProcessorException</title>
<!-- Node1 -->
<g id="node1" class="node"><title>Node1</title>
<g id="a_node1"><a xlink:title=" ">
<polygon fill="#bfbfbf" stroke="black" points="148,-30 148,-49 309,-49 309,-30 148,-30"/>
<text text-anchor="middle" x="228.5" y="-37" font-family="Helvetica,sans-Serif" font-size="10.00">xalanc::XSLTProcessorException</text>
</a>
</g>
</g>
<!-- Node3 -->
<g id="node3" class="node"><title>Node3</title>
<g id="a_node3"><a xlink:href="classxalanc_1_1ElemMessage_1_1ElemMessageTerminateException.html" target="_top" xlink:title=" ">
<polygon fill="none" stroke="black" points="345,-49.5 345,-79.5 516,-79.5 516,-49.5 345,-49.5"/>
<text text-anchor="start" x="353" y="-67.5" font-family="Helvetica,sans-Serif" font-size="10.00">xalanc::ElemMessage</text>
<text text-anchor="middle" x="430.5" y="-56.5" font-family="Helvetica,sans-Serif" font-size="10.00">::ElemMessageTerminateException</text>
</a>
</g>
</g>
<!-- Node1&#45;&gt;Node3 -->
<g id="edge2" class="edge"><title>Node1&#45;&gt;Node3</title>
<path fill="none" stroke="midnightblue" d="M315.681,-50.2726C325.352,-51.4815 335.198,-52.7123 344.85,-53.9187"/>
<polygon fill="midnightblue" stroke="midnightblue" points="316.039,-46.7902 305.682,-49.0227 315.171,-53.7362 316.039,-46.7902"/>
</g>
<!-- Node4 -->
<g id="node4" class="node"><title>Node4</title>
<g id="a_node4"><a xlink:href="classxalanc_1_1VariablesStack_1_1InvalidStackContextException.html" target="_top" xlink:title=" ">
<polygon fill="none" stroke="black" points="354.5,-0.5 354.5,-30.5 506.5,-30.5 506.5,-0.5 354.5,-0.5"/>
<text text-anchor="start" x="362.5" y="-18.5" font-family="Helvetica,sans-Serif" font-size="10.00">xalanc::VariablesStack</text>
<text text-anchor="middle" x="430.5" y="-7.5" font-family="Helvetica,sans-Serif" font-size="10.00">::InvalidStackContextException</text>
</a>
</g>
</g>
<!-- Node1&#45;&gt;Node4 -->
<g id="edge3" class="edge"><title>Node1&#45;&gt;Node4</title>
<path fill="none" stroke="midnightblue" d="M318.788,-28.7854C330.715,-27.3542 342.848,-25.8982 354.497,-24.5003"/>
<polygon fill="midnightblue" stroke="midnightblue" points="318.344,-25.3135 308.833,-29.9801 319.178,-32.2636 318.344,-25.3135"/>
</g>
<!-- Node2 -->
<g id="node2" class="node"><title>Node2</title>
<g id="a_node2"><a xlink:href="classxalanc_1_1XSLException.html" target="_top" xlink:title=" ">
<polygon fill="none" stroke="black" points="0,-30 0,-49 112,-49 112,-30 0,-30"/>
<text text-anchor="middle" x="56" y="-37" font-family="Helvetica,sans-Serif" font-size="10.00">xalanc::XSLException</text>
</a>
</g>
</g>
<!-- Node2&#45;&gt;Node1 -->
<g id="edge1" class="edge"><title>Node2&#45;&gt;Node1</title>
<path fill="none" stroke="midnightblue" d="M122.403,-39.5C130.768,-39.5 139.403,-39.5 147.96,-39.5"/>
<polygon fill="midnightblue" stroke="midnightblue" points="122.356,-36.0001 112.356,-39.5 122.356,-43.0001 122.356,-36.0001"/>
</g>
</g>
</svg>
