<?xml version="1.0" encoding="UTF-8" standalone="no"?>
<!DOCTYPE svg PUBLIC "-//W3C//DTD SVG 1.1//EN"
 "http://www.w3.org/Graphics/SVG/1.1/DTD/svg11.dtd">
<!-- Generated by graphviz version 2.38.0 (20140413.2041)
 -->
<!-- Title: xalanc::ArenaAllocator&lt; ObjectType, ArenaBlockType &gt; Pages: 1 -->
<svg width="1144pt" height="470pt"
 viewBox="0.00 0.00 1144.00 469.50" xmlns="http://www.w3.org/2000/svg" xmlns:xlink="http://www.w3.org/1999/xlink">
<g id="graph0" class="graph" transform="scale(1 1) rotate(0) translate(4 465.5)">
<title>xalanc::ArenaAllocator&lt; ObjectType, ArenaBlockType &gt;</title>
<!-- Node1 -->
<g id="node1" class="node"><title>Node1</title>
<g id="a_node1"><a xlink:title=" ">
<polygon fill="#bfbfbf" stroke="black" points="0,-200.5 0,-230.5 161,-230.5 161,-200.5 0,-200.5"/>
<text text-anchor="start" x="8" y="-218.5" font-family="Helvetica,sans-Serif" font-size="10.00">xalanc::ArenaAllocator</text>
<text text-anchor="middle" x="80.5" y="-207.5" font-family="Helvetica,sans-Serif" font-size="10.00">&lt; ObjectType, ArenaBlockType &gt;</text>
</a>
</g>
</g>
<!-- Node2 -->
<g id="node2" class="node"><title>Node2</title>
<g id="a_node2"><a xlink:href="classxalanc_1_1ArenaAllocator.html" target="_top" xlink:title=" ">
<polygon fill="none" stroke="black" points="528,-401 528,-442 682,-442 682,-401 528,-401"/>
<text text-anchor="start" x="536" y="-430" font-family="Helvetica,sans-Serif" font-size="10.00">xalanc::ArenaAllocator</text>
<text text-anchor="start" x="536" y="-419" font-family="Helvetica,sans-Serif" font-size="10.00">&lt; number_type, ReusableArena</text>
<text text-anchor="middle" x="605" y="-408" font-family="Helvetica,sans-Serif" font-size="10.00">Block&lt; number_type &gt; &gt;</text>
</a>
</g>
</g>
<!-- Node1&#45;&gt;Node2 -->
<g id="edge1" class="edge"><title>Node1&#45;&gt;Node2</title>
<path fill="none" stroke="orange" stroke-dasharray="5,2" d="M87.2599,-240.564C97.8496,-280.285 124.504,-356.747 179,-391.5 284.866,-459.012 437.201,-450.182 527.831,-436.569"/>
<polygon fill="orange" stroke="orange" points="90.5909,-239.46 84.7432,-230.625 83.8051,-241.178 90.5909,-239.46"/>
<text text-anchor="start" x="179" y="-453.5" font-family="Helvetica,sans-Serif" font-size="10.00"> &lt; number_type, ReusableArena</text>
<text text-anchor="middle" x="249.5" y="-442.5" font-family="Helvetica,sans-Serif" font-size="10.00">Block&lt; number_type &gt; &gt;</text>
</g>
<!-- Node4 -->
<g id="node4" class="node"><title>Node4</title>
<g id="a_node4"><a xlink:href="classxalanc_1_1ArenaAllocator.html" target="_top" xlink:title=" ">
<polygon fill="none" stroke="black" points="531,-353 531,-394 679,-394 679,-353 531,-353"/>
<text text-anchor="start" x="539" y="-382" font-family="Helvetica,sans-Serif" font-size="10.00">xalanc::ArenaAllocator</text>
<text text-anchor="start" x="539" y="-371" font-family="Helvetica,sans-Serif" font-size="10.00">&lt; object_type, ReusableArena</text>
<text text-anchor="middle" x="605" y="-360" font-family="Helvetica,sans-Serif" font-size="10.00">Block&lt; object_type &gt; &gt;</text>
</a>
</g>
</g>
<!-- Node1&#45;&gt;Node4 -->
<g id="edge3" class="edge"><title>Node1&#45;&gt;Node4</title>
<path fill="none" stroke="orange" stroke-dasharray="5,2" d="M93.2241,-239.633C108.566,-268.265 138.36,-314.839 179,-336.5 238.069,-367.983 425.594,-373.454 530.735,-373.949"/>
<polygon fill="orange" stroke="orange" points="96.2893,-237.941 88.5803,-230.673 90.0743,-241.162 96.2893,-237.941"/>
<text text-anchor="start" x="182" y="-379.5" font-family="Helvetica,sans-Serif" font-size="10.00"> &lt; object_type, ReusableArena</text>
<text text-anchor="middle" x="249.5" y="-368.5" font-family="Helvetica,sans-Serif" font-size="10.00">Block&lt; object_type &gt; &gt;</text>
</g>
<!-- Node6 -->
<g id="node6" class="node"><title>Node6</title>
<g id="a_node6"><a xlink:href="classxalanc_1_1ArenaAllocator.html" target="_top" xlink:title=" ">
<polygon fill="none" stroke="black" points="366.5,-98.5 366.5,-128.5 481.5,-128.5 481.5,-98.5 366.5,-98.5"/>
<text text-anchor="start" x="374.5" y="-116.5" font-family="Helvetica,sans-Serif" font-size="10.00">xalanc::ArenaAllocator</text>
<text text-anchor="middle" x="424" y="-105.5" font-family="Helvetica,sans-Serif" font-size="10.00">&lt; ObjectType &gt;</text>
</a>
</g>
</g>
<!-- Node1&#45;&gt;Node6 -->
<g id="edge5" class="edge"><title>Node1&#45;&gt;Node6</title>
<path fill="none" stroke="orange" stroke-dasharray="5,2" d="M102.985,-193.289C121.393,-175.768 149.534,-152.37 179,-140.5 239.682,-116.055 315.319,-111.217 366.159,-111.263"/>
<polygon fill="orange" stroke="orange" points="100.425,-190.897 95.7159,-200.387 105.316,-195.905 100.425,-190.897"/>
<text text-anchor="middle" x="249.5" y="-143.5" font-family="Helvetica,sans-Serif" font-size="10.00"> &lt; ObjectType &gt;</text>
</g>
<!-- Node7 -->
<g id="node7" class="node"><title>Node7</title>
<g id="a_node7"><a xlink:href="classxalanc_1_1ArenaAllocator.html" target="_top" xlink:title=" ">
<polygon fill="none" stroke="black" points="700,-303 700,-344 865,-344 865,-303 700,-303"/>
<text text-anchor="start" x="708" y="-332" font-family="Helvetica,sans-Serif" font-size="10.00">xalanc::ArenaAllocator</text>
<text text-anchor="start" x="708" y="-321" font-family="Helvetica,sans-Serif" font-size="10.00">&lt; data_type, ReusableArenaBlock</text>
<text text-anchor="middle" x="782.5" y="-310" font-family="Helvetica,sans-Serif" font-size="10.00">&lt; data_type &gt; &gt;</text>
</a>
</g>
</g>
<!-- Node1&#45;&gt;Node7 -->
<g id="edge6" class="edge"><title>Node1&#45;&gt;Node7</title>
<path fill="none" stroke="orange" stroke-dasharray="5,2" d="M104.427,-237.35C122.961,-253.526 150.563,-274.433 179,-284.5 356.364,-347.291 581.217,-341.202 699.764,-331.955"/>
<polygon fill="orange" stroke="orange" points="106.604,-234.6 96.8221,-230.53 101.93,-239.812 106.604,-234.6"/>
<text text-anchor="start" x="360.5" y="-351.5" font-family="Helvetica,sans-Serif" font-size="10.00"> &lt; data_type, ReusableArena</text>
<text text-anchor="middle" x="424" y="-340.5" font-family="Helvetica,sans-Serif" font-size="10.00">Block&lt; data_type &gt; &gt;</text>
</g>
<!-- Node9 -->
<g id="node9" class="node"><title>Node9</title>
<g id="a_node9"><a xlink:href="classxalanc_1_1ArenaAllocator.html" target="_top" xlink:title=" ">
<polygon fill="none" stroke="black" points="366.5,-49.5 366.5,-79.5 481.5,-79.5 481.5,-49.5 366.5,-49.5"/>
<text text-anchor="start" x="374.5" y="-67.5" font-family="Helvetica,sans-Serif" font-size="10.00">xalanc::ArenaAllocator</text>
<text text-anchor="middle" x="424" y="-56.5" font-family="Helvetica,sans-Serif" font-size="10.00">&lt; object_type &gt;</text>
</a>
</g>
</g>
<!-- Node1&#45;&gt;Node9 -->
<g id="edge8" class="edge"><title>Node1&#45;&gt;Node9</title>
<path fill="none" stroke="orange" stroke-dasharray="5,2" d="M94.3294,-191.263C110.255,-163.812 140.133,-120.101 179,-98.5 237.04,-66.2437 314.421,-60.6064 366.339,-61.1652"/>
<polygon fill="orange" stroke="orange" points="91.137,-189.8 89.2862,-200.231 97.2385,-193.231 91.137,-189.8"/>
<text text-anchor="middle" x="249.5" y="-101.5" font-family="Helvetica,sans-Serif" font-size="10.00"> &lt; object_type &gt;</text>
</g>
<!-- Node10 -->
<g id="node10" class="node"><title>Node10</title>
<g id="a_node10"><a xlink:href="classxalanc_1_1ArenaAllocator.html" target="_top" xlink:title=" ">
<polygon fill="none" stroke="black" points="366.5,-0.5 366.5,-30.5 481.5,-30.5 481.5,-0.5 366.5,-0.5"/>
<text text-anchor="start" x="374.5" y="-18.5" font-family="Helvetica,sans-Serif" font-size="10.00">xalanc::ArenaAllocator</text>
<text text-anchor="middle" x="424" y="-7.5" font-family="Helvetica,sans-Serif" font-size="10.00">&lt; data_type &gt;</text>
</a>
</g>
</g>
<!-- Node1&#45;&gt;Node10 -->
<g id="edge9" class="edge"><title>Node1&#45;&gt;Node10</title>
<path fill="none" stroke="orange" stroke-dasharray="5,2" d="M88.332,-190.709C100.088,-153.14 127.946,-82.5645 179,-48.5 234.649,-11.3697 313.446,-7.30418 366.293,-9.75297"/>
<polygon fill="orange" stroke="orange" points="84.9541,-189.789 85.4373,-200.372 91.6597,-191.797 84.9541,-189.789"/>
<text text-anchor="middle" x="249.5" y="-51.5" font-family="Helvetica,sans-Serif" font-size="10.00"> &lt; data_type &gt;</text>
</g>
<!-- Node11 -->
<g id="node11" class="node"><title>Node11</title>
<g id="a_node11"><a xlink:href="classxalanc_1_1ArenaAllocator.html" target="_top" xlink:title=" ">
<polygon fill="none" stroke="black" points="532,-188 532,-229 678,-229 678,-188 532,-188"/>
<text text-anchor="start" x="540" y="-217" font-family="Helvetica,sans-Serif" font-size="10.00">xalanc::ArenaAllocator</text>
<text text-anchor="start" x="540" y="-206" font-family="Helvetica,sans-Serif" font-size="10.00">&lt; string_type, ReusableArena</text>
<text text-anchor="middle" x="605" y="-195" font-family="Helvetica,sans-Serif" font-size="10.00">Block&lt; string_type &gt; &gt;</text>
</a>
</g>
</g>
<!-- Node1&#45;&gt;Node11 -->
<g id="edge10" class="edge"><title>Node1&#45;&gt;Node11</title>
<path fill="none" stroke="orange" stroke-dasharray="5,2" d="M171.432,-214.295C273.51,-212.928 438.002,-210.724 531.988,-209.465"/>
<polygon fill="orange" stroke="orange" points="171.093,-210.799 161.141,-214.433 171.187,-217.799 171.093,-210.799"/>
<text text-anchor="start" x="183" y="-228.5" font-family="Helvetica,sans-Serif" font-size="10.00"> &lt; string_type, ReusableArena</text>
<text text-anchor="middle" x="249.5" y="-217.5" font-family="Helvetica,sans-Serif" font-size="10.00">Block&lt; string_type &gt; &gt;</text>
</g>
<!-- Node13 -->
<g id="node13" class="node"><title>Node13</title>
<g id="a_node13"><a xlink:href="classxalanc_1_1ArenaAllocator.html" target="_top" xlink:title=" ">
<polygon fill="none" stroke="black" points="704.5,-94 704.5,-135 860.5,-135 860.5,-94 704.5,-94"/>
<text text-anchor="start" x="712.5" y="-123" font-family="Helvetica,sans-Serif" font-size="10.00">xalanc::ArenaAllocator</text>
<text text-anchor="start" x="712.5" y="-112" font-family="Helvetica,sans-Serif" font-size="10.00">&lt; nodeset_type, ReusableArena</text>
<text text-anchor="middle" x="782.5" y="-101" font-family="Helvetica,sans-Serif" font-size="10.00">Block&lt; nodeset_type &gt; &gt;</text>
</a>
</g>
</g>
<!-- Node1&#45;&gt;Node13 -->
<g id="edge12" class="edge"><title>Node1&#45;&gt;Node13</title>
<path fill="none" stroke="orange" stroke-dasharray="5,2" d="M171.288,-202.545C309.948,-182.538 573.793,-144.469 704.36,-125.63"/>
<polygon fill="orange" stroke="orange" points="170.515,-199.12 161.117,-204.012 171.515,-206.048 170.515,-199.12"/>
<text text-anchor="start" x="356" y="-192.5" font-family="Helvetica,sans-Serif" font-size="10.00"> &lt; nodeset_type, Reusable</text>
<text text-anchor="middle" x="424" y="-181.5" font-family="Helvetica,sans-Serif" font-size="10.00">ArenaBlock&lt; nodeset_type &gt; &gt;</text>
</g>
<!-- Node15 -->
<g id="node15" class="node"><title>Node15</title>
<g id="a_node15"><a xlink:href="classxalanc_1_1ArenaAllocator.html" target="_top" xlink:title=" ">
<polygon fill="none" stroke="black" points="338,-244 338,-285 510,-285 510,-244 338,-244"/>
<text text-anchor="start" x="346" y="-273" font-family="Helvetica,sans-Serif" font-size="10.00">xalanc::ArenaAllocator</text>
<text text-anchor="start" x="346" y="-262" font-family="Helvetica,sans-Serif" font-size="10.00">&lt; ObjectType, ReusableArenaBlock</text>
<text text-anchor="middle" x="424" y="-251" font-family="Helvetica,sans-Serif" font-size="10.00">&lt; ObjectType &gt; &gt;</text>
</a>
</g>
</g>
<!-- Node1&#45;&gt;Node15 -->
<g id="edge14" class="edge"><title>Node1&#45;&gt;Node15</title>
<path fill="none" stroke="orange" stroke-dasharray="5,2" d="M144.063,-233.046C155.613,-235.855 167.62,-238.493 179,-240.5 231.399,-249.739 290.801,-255.677 337.874,-259.336"/>
<polygon fill="orange" stroke="orange" points="144.608,-229.574 134.057,-230.544 142.91,-236.365 144.608,-229.574"/>
<text text-anchor="start" x="182.5" y="-272.5" font-family="Helvetica,sans-Serif" font-size="10.00"> &lt; ObjectType, ReusableArena</text>
<text text-anchor="middle" x="249.5" y="-261.5" font-family="Helvetica,sans-Serif" font-size="10.00">Block&lt; ObjectType &gt; &gt;</text>
</g>
<!-- Node3 -->
<g id="node3" class="node"><title>Node3</title>
<g id="a_node3"><a xlink:href="classxalanc_1_1ReusableArenaAllocator.html" target="_top" xlink:title=" ">
<polygon fill="none" stroke="black" points="981,-398.5 981,-428.5 1136,-428.5 1136,-398.5 981,-398.5"/>
<text text-anchor="start" x="989" y="-416.5" font-family="Helvetica,sans-Serif" font-size="10.00">xalanc::ReusableArenaAllocator</text>
<text text-anchor="middle" x="1058.5" y="-405.5" font-family="Helvetica,sans-Serif" font-size="10.00">&lt; number_type &gt;</text>
</a>
</g>
</g>
<!-- Node2&#45;&gt;Node3 -->
<g id="edge2" class="edge"><title>Node2&#45;&gt;Node3</title>
<path fill="none" stroke="midnightblue" d="M692.288,-419.971C775.653,-418.494 900.735,-416.278 980.73,-414.86"/>
<polygon fill="midnightblue" stroke="midnightblue" points="692.017,-416.475 682.08,-420.152 692.141,-423.474 692.017,-416.475"/>
</g>
<!-- Node5 -->
<g id="node5" class="node"><title>Node5</title>
<g id="a_node5"><a xlink:href="classxalanc_1_1ReusableArenaAllocator.html" target="_top" xlink:title=" ">
<polygon fill="none" stroke="black" points="981,-334.5 981,-364.5 1136,-364.5 1136,-334.5 981,-334.5"/>
<text text-anchor="start" x="989" y="-352.5" font-family="Helvetica,sans-Serif" font-size="10.00">xalanc::ReusableArenaAllocator</text>
<text text-anchor="middle" x="1058.5" y="-341.5" font-family="Helvetica,sans-Serif" font-size="10.00">&lt; object_type &gt;</text>
</a>
</g>
</g>
<!-- Node4&#45;&gt;Node5 -->
<g id="edge4" class="edge"><title>Node4&#45;&gt;Node5</title>
<path fill="none" stroke="midnightblue" d="M689.511,-377.2C762.041,-379.309 869.78,-379.785 963,-369.5 973.418,-368.351 984.381,-366.57 995.003,-364.536"/>
<polygon fill="midnightblue" stroke="midnightblue" points="689.175,-373.688 679.072,-376.878 688.959,-380.685 689.175,-373.688"/>
</g>
<!-- Node8 -->
<g id="node8" class="node"><title>Node8</title>
<g id="a_node8"><a xlink:href="classxalanc_1_1ReusableArenaAllocator.html" target="_top" xlink:title=" ">
<polygon fill="none" stroke="black" points="981,-256.5 981,-286.5 1136,-286.5 1136,-256.5 981,-256.5"/>
<text text-anchor="start" x="989" y="-274.5" font-family="Helvetica,sans-Serif" font-size="10.00">xalanc::ReusableArenaAllocator</text>
<text text-anchor="middle" x="1058.5" y="-263.5" font-family="Helvetica,sans-Serif" font-size="10.00">&lt; data_type &gt;</text>
</a>
</g>
</g>
<!-- Node7&#45;&gt;Node8 -->
<g id="edge7" class="edge"><title>Node7&#45;&gt;Node8</title>
<path fill="none" stroke="midnightblue" d="M875.505,-322.473C903.852,-320.655 934.969,-317.118 963,-310.5 985.456,-305.198 1009.47,-295.224 1027.68,-286.69"/>
<polygon fill="midnightblue" stroke="midnightblue" points="874.979,-318.997 865.198,-323.067 875.382,-325.986 874.979,-318.997"/>
</g>
<!-- Node12 -->
<g id="node12" class="node"><title>Node12</title>
<g id="a_node12"><a xlink:href="classxalanc_1_1ReusableArenaAllocator.html" target="_top" xlink:title=" ">
<polygon fill="none" stroke="black" points="981,-197.5 981,-227.5 1136,-227.5 1136,-197.5 981,-197.5"/>
<text text-anchor="start" x="989" y="-215.5" font-family="Helvetica,sans-Serif" font-size="10.00">xalanc::ReusableArenaAllocator</text>
<text text-anchor="middle" x="1058.5" y="-204.5" font-family="Helvetica,sans-Serif" font-size="10.00">&lt; string_type &gt;</text>
</a>
</g>
</g>
<!-- Node11&#45;&gt;Node12 -->
<g id="edge11" class="edge"><title>Node11&#45;&gt;Node12</title>
<path fill="none" stroke="midnightblue" d="M688.24,-190.872C760.907,-177.949 869.553,-165.108 963,-180.5 982.997,-183.794 1004.45,-190.761 1021.86,-197.356"/>
<polygon fill="midnightblue" stroke="midnightblue" points="687.442,-187.46 678.23,-192.694 688.695,-194.347 687.442,-187.46"/>
</g>
<!-- Node14 -->
<g id="node14" class="node"><title>Node14</title>
<g id="a_node14"><a xlink:href="classxalanc_1_1ReusableArenaAllocator.html" target="_top" xlink:title=" ">
<polygon fill="none" stroke="black" points="981,-128.5 981,-158.5 1136,-158.5 1136,-128.5 981,-128.5"/>
<text text-anchor="start" x="989" y="-146.5" font-family="Helvetica,sans-Serif" font-size="10.00">xalanc::ReusableArenaAllocator</text>
<text text-anchor="middle" x="1058.5" y="-135.5" font-family="Helvetica,sans-Serif" font-size="10.00">&lt; nodeset_type &gt;</text>
</a>
</g>
</g>
<!-- Node13&#45;&gt;Node14 -->
<g id="edge13" class="edge"><title>Node13&#45;&gt;Node14</title>
<path fill="none" stroke="midnightblue" d="M870.835,-123.743C906.09,-127.475 946.42,-131.743 980.551,-135.356"/>
<polygon fill="midnightblue" stroke="midnightblue" points="870.866,-120.227 860.553,-122.655 870.129,-127.188 870.866,-120.227"/>
</g>
<!-- Node16 -->
<g id="node16" class="node"><title>Node16</title>
<g id="a_node16"><a xlink:href="classxalanc_1_1ReusableArenaAllocator.html" target="_top" xlink:title=" ">
<polygon fill="none" stroke="black" points="705,-249.5 705,-279.5 860,-279.5 860,-249.5 705,-249.5"/>
<text text-anchor="start" x="713" y="-267.5" font-family="Helvetica,sans-Serif" font-size="10.00">xalanc::ReusableArenaAllocator</text>
<text text-anchor="middle" x="782.5" y="-256.5" font-family="Helvetica,sans-Serif" font-size="10.00">&lt; ObjectType &gt;</text>
</a>
</g>
</g>
<!-- Node15&#45;&gt;Node16 -->
<g id="edge15" class="edge"><title>Node15&#45;&gt;Node16</title>
<path fill="none" stroke="midnightblue" d="M520.629,-264.5C578.404,-264.5 651.048,-264.5 704.997,-264.5"/>
<polygon fill="midnightblue" stroke="midnightblue" points="520.391,-261 510.391,-264.5 520.391,-268 520.391,-261"/>
</g>
<!-- Node16&#45;&gt;Node3 -->
<g id="edge16" class="edge"><title>Node16&#45;&gt;Node3</title>
<path fill="none" stroke="orange" stroke-dasharray="5,2" d="M853.195,-284.539C857.435,-287.171 861.424,-290.143 865,-293.5 879.806,-307.401 868.751,-321.029 883,-335.5 913.849,-366.83 959.511,-386.624 996.388,-398.43"/>
<polygon fill="orange" stroke="orange" points="854.645,-281.343 844.194,-279.603 851.279,-287.48 854.645,-281.343"/>
<text text-anchor="middle" x="923" y="-388.5" font-family="Helvetica,sans-Serif" font-size="10.00"> &lt; number_type &gt;</text>
</g>
<!-- Node16&#45;&gt;Node5 -->
<g id="edge18" class="edge"><title>Node16&#45;&gt;Node5</title>
<path fill="none" stroke="orange" stroke-dasharray="5,2" d="M841.495,-282.491C891.168,-297.901 961.891,-319.84 1008.71,-334.363"/>
<polygon fill="orange" stroke="orange" points="842.443,-279.121 831.855,-279.501 840.369,-285.806 842.443,-279.121"/>
<text text-anchor="middle" x="923" y="-323.5" font-family="Helvetica,sans-Serif" font-size="10.00"> &lt; object_type &gt;</text>
</g>
<!-- Node16&#45;&gt;Node8 -->
<g id="edge20" class="edge"><title>Node16&#45;&gt;Node8</title>
<path fill="none" stroke="orange" stroke-dasharray="5,2" d="M870.611,-263.973C899.968,-264.065 932.911,-264.462 963,-265.5 968.832,-265.701 974.865,-265.962 980.929,-266.262"/>
<polygon fill="orange" stroke="orange" points="870.394,-260.473 860.387,-263.953 870.38,-267.473 870.394,-260.473"/>
<text text-anchor="middle" x="923" y="-268.5" font-family="Helvetica,sans-Serif" font-size="10.00"> &lt; data_type &gt;</text>
</g>
<!-- Node16&#45;&gt;Node12 -->
<g id="edge17" class="edge"><title>Node16&#45;&gt;Node12</title>
<path fill="none" stroke="orange" stroke-dasharray="5,2" d="M870.062,-248.072C905.595,-241.329 946.391,-233.586 980.83,-227.051"/>
<polygon fill="orange" stroke="orange" points="869.361,-244.643 860.189,-249.946 870.666,-251.52 869.361,-244.643"/>
<text text-anchor="middle" x="923" y="-248.5" font-family="Helvetica,sans-Serif" font-size="10.00"> &lt; string_type &gt;</text>
</g>
<!-- Node16&#45;&gt;Node14 -->
<g id="edge19" class="edge"><title>Node16&#45;&gt;Node14</title>
<path fill="none" stroke="orange" stroke-dasharray="5,2" d="M822.923,-244.885C841.107,-235.992 863.042,-225.481 883,-216.5 929.717,-195.478 984.296,-172.969 1019.81,-158.591"/>
<polygon fill="orange" stroke="orange" points="821.22,-241.823 813.786,-249.372 824.305,-248.106 821.22,-241.823"/>
<text text-anchor="middle" x="923" y="-219.5" font-family="Helvetica,sans-Serif" font-size="10.00"> &lt; nodeset_type &gt;</text>
</g>
</g>
</svg>
