<?xml version="1.0" encoding="UTF-8" standalone="no"?>
<!DOCTYPE svg PUBLIC "-//W3C//DTD SVG 1.1//EN"
 "http://www.w3.org/Graphics/SVG/1.1/DTD/svg11.dtd">
<!-- Generated by graphviz version 2.43.0 (0)
 -->
<!-- Title: xalanc::XPathFactory Pages: 1 -->
<svg width="326pt" height="84pt"
 viewBox="0.00 0.00 325.50 84.00" xmlns="http://www.w3.org/2000/svg" xmlns:xlink="http://www.w3.org/1999/xlink">
<g id="graph0" class="graph" transform="scale(1 1) rotate(0) translate(4 80)">
<title>xalanc::XPathFactory</title>
<!-- Node1 -->
<g id="node1" class="node">
<title>Node1</title>
<g id="a_node1"><a xlink:title=" ">
<polygon fill="#bfbfbf" stroke="black" points="97.5,-56.5 97.5,-75.5 215.5,-75.5 215.5,-56.5 97.5,-56.5"/>
<text text-anchor="middle" x="156.5" y="-63.5" font-family="Helvetica,sans-Serif" font-size="10.00">xalanc::XPathFactory</text>
</a>
</g>
</g>
<!-- Node2 -->
<g id="node2" class="node">
<title>Node2</title>
<g id="a_node2"><a xlink:href="classxalanc_1_1XPathFactoryBlock.html" target="_top" xlink:title=" ">
<polygon fill="none" stroke="black" points="0,-0.5 0,-19.5 145,-19.5 145,-0.5 0,-0.5"/>
<text text-anchor="middle" x="72.5" y="-7.5" font-family="Helvetica,sans-Serif" font-size="10.00">xalanc::XPathFactoryBlock</text>
</a>
</g>
</g>
<!-- Node1&#45;&gt;Node2 -->
<g id="edge1" class="edge">
<title>Node1&#45;&gt;Node2</title>
<path fill="none" stroke="midnightblue" d="M134.57,-50.9C119.16,-41 99.05,-28.07 85.96,-19.65"/>
<polygon fill="midnightblue" stroke="midnightblue" points="132.7,-53.86 143,-56.32 136.48,-47.97 132.7,-53.86"/>
</g>
<!-- Node3 -->
<g id="node3" class="node">
<title>Node3</title>
<g id="a_node3"><a xlink:href="classxalanc_1_1XPathFactoryDefault.html" target="_top" xlink:title=" ">
<polygon fill="none" stroke="black" points="163.5,-0.5 163.5,-19.5 317.5,-19.5 317.5,-0.5 163.5,-0.5"/>
<text text-anchor="middle" x="240.5" y="-7.5" font-family="Helvetica,sans-Serif" font-size="10.00">xalanc::XPathFactoryDefault</text>
</a>
</g>
</g>
<!-- Node1&#45;&gt;Node3 -->
<g id="edge2" class="edge">
<title>Node1&#45;&gt;Node3</title>
<path fill="none" stroke="midnightblue" d="M178.43,-50.9C193.84,-41 213.95,-28.07 227.04,-19.65"/>
<polygon fill="midnightblue" stroke="midnightblue" points="176.52,-47.97 170,-56.32 180.3,-53.86 176.52,-47.97"/>
</g>
</g>
</svg>
