<?xml version="1.0" encoding="UTF-8" standalone="no"?>
<!DOCTYPE svg PUBLIC "-//W3C//DTD SVG 1.1//EN"
 "http://www.w3.org/Graphics/SVG/1.1/DTD/svg11.dtd">
<!-- Generated by graphviz version 2.43.0 (0)
 -->
<!-- Title: xalanc::XPathExpression::InvalidOpCodeException Pages: 1 -->
<svg width="190pt" height="288pt"
 viewBox="0.00 0.00 190.00 288.00" xmlns="http://www.w3.org/2000/svg" xmlns:xlink="http://www.w3.org/1999/xlink">
<g id="graph0" class="graph" transform="scale(1 1) rotate(0) translate(4 284)">
<title>xalanc::XPathExpression::InvalidOpCodeException</title>
<!-- Node1 -->
<g id="node1" class="node">
<title>Node1</title>
<g id="a_node1"><a xlink:title="Exception class thrown when an invalid XPath operation code is encountered.">
<polygon fill="#bfbfbf" stroke="black" points="8,-0.5 8,-30.5 150,-30.5 150,-0.5 8,-0.5"/>
<text text-anchor="start" x="16" y="-18.5" font-family="Helvetica,sans-Serif" font-size="10.00">xalanc::XPathExpression</text>
<text text-anchor="middle" x="79" y="-7.5" font-family="Helvetica,sans-Serif" font-size="10.00">::InvalidOpCodeException</text>
</a>
</g>
</g>
<!-- Node2 -->
<g id="node2" class="node">
<title>Node2</title>
<g id="a_node2"><a xlink:href="classxalanc_1_1XPathExpression_1_1XPathExpressionException.html" target="_top" xlink:title="Exception class thrown when an invalid XPath expression is encountered.">
<polygon fill="none" stroke="black" points="3,-68.5 3,-98.5 155,-98.5 155,-68.5 3,-68.5"/>
<text text-anchor="start" x="11" y="-86.5" font-family="Helvetica,sans-Serif" font-size="10.00">xalanc::XPathExpression</text>
<text text-anchor="middle" x="79" y="-75.5" font-family="Helvetica,sans-Serif" font-size="10.00">::XPathExpressionException</text>
</a>
</g>
</g>
<!-- Node2&#45;&gt;Node1 -->
<g id="edge1" class="edge">
<title>Node2&#45;&gt;Node1</title>
<path fill="none" stroke="midnightblue" d="M79,-58.03C79,-48.86 79,-38.74 79,-30.79"/>
<polygon fill="midnightblue" stroke="midnightblue" points="75.5,-58.18 79,-68.18 82.5,-58.18 75.5,-58.18"/>
</g>
<!-- Node3 -->
<g id="node3" class="node">
<title>Node3</title>
<g id="a_node3"><a xlink:href="classxalanc_1_1XalanXPathException.html" target="_top" xlink:title=" ">
<polygon fill="none" stroke="black" points="0,-136.5 0,-155.5 158,-155.5 158,-136.5 0,-136.5"/>
<text text-anchor="middle" x="79" y="-143.5" font-family="Helvetica,sans-Serif" font-size="10.00">xalanc::XalanXPathException</text>
</a>
</g>
</g>
<!-- Node3&#45;&gt;Node2 -->
<g id="edge2" class="edge">
<title>Node3&#45;&gt;Node2</title>
<path fill="none" stroke="midnightblue" d="M79,-126.22C79,-117.36 79,-106.96 79,-98.76"/>
<polygon fill="midnightblue" stroke="midnightblue" points="75.5,-126.33 79,-136.33 82.5,-126.33 75.5,-126.33"/>
</g>
<!-- Node4 -->
<g id="node4" class="node">
<title>Node4</title>
<g id="a_node4"><a xlink:href="classxalanc_1_1XSLException.html" target="_top" xlink:title=" ">
<polygon fill="none" stroke="black" points="18.5,-193.5 18.5,-212.5 139.5,-212.5 139.5,-193.5 18.5,-193.5"/>
<text text-anchor="middle" x="79" y="-200.5" font-family="Helvetica,sans-Serif" font-size="10.00">xalanc::XSLException</text>
</a>
</g>
</g>
<!-- Node4&#45;&gt;Node3 -->
<g id="edge3" class="edge">
<title>Node4&#45;&gt;Node3</title>
<path fill="none" stroke="midnightblue" d="M79,-183.12C79,-173.82 79,-163.06 79,-155.71"/>
<polygon fill="midnightblue" stroke="midnightblue" points="75.5,-183.41 79,-193.41 82.5,-183.41 75.5,-183.41"/>
</g>
<!-- Node5 -->
<g id="node5" class="node">
<title>Node5</title>
<g id="a_node5"><a xlink:title=" ">
<polygon fill="none" stroke="#bfbfbf" points="29,-260.5 29,-279.5 129,-279.5 129,-260.5 29,-260.5"/>
<text text-anchor="middle" x="79" y="-267.5" font-family="Helvetica,sans-Serif" font-size="10.00">MemoryManager</text>
</a>
</g>
</g>
<!-- Node5&#45;&gt;Node4 -->
<g id="edge4" class="edge">
<title>Node5&#45;&gt;Node4</title>
<path fill="none" stroke="#9a32cd" stroke-dasharray="5,2" d="M79,-250.04C79,-237.67 79,-222.12 79,-212.63"/>
<polygon fill="#9a32cd" stroke="#9a32cd" points="75.5,-250.23 79,-260.23 82.5,-250.23 75.5,-250.23"/>
<text text-anchor="middle" x="130.5" y="-234" font-family="Helvetica,sans-Serif" font-size="10.00"> m_memoryManager</text>
</g>
</g>
</svg>
