<?xml version="1.0" encoding="UTF-8" standalone="no"?>
<!DOCTYPE svg PUBLIC "-//W3C//DTD SVG 1.1//EN"
 "http://www.w3.org/Graphics/SVG/1.1/DTD/svg11.dtd">
<!-- Generated by graphviz version 2.43.0 (0)
 -->
<!-- Title: xalanc::ElemText Pages: 1 -->
<svg width="679pt" height="134pt"
 viewBox="0.00 0.00 679.00 133.98" xmlns="http://www.w3.org/2000/svg" xmlns:xlink="http://www.w3.org/1999/xlink">
<g id="graph0" class="graph" transform="scale(1 1) rotate(0) translate(4 129.98)">
<title>xalanc::ElemText</title>
<!-- Node1 -->
<g id="node1" class="node">
<title>Node1</title>
<g id="a_node1"><a xlink:title="This primarily acts as a marker on the element stack to signal that whitespace should be preserved.">
<polygon fill="#bfbfbf" stroke="black" points="555.5,-106.48 555.5,-125.48 655.5,-125.48 655.5,-106.48 555.5,-106.48"/>
<text text-anchor="middle" x="605.5" y="-113.48" font-family="Helvetica,sans-Serif" font-size="10.00">xalanc::ElemText</text>
</a>
</g>
</g>
<!-- Node2 -->
<g id="node2" class="node">
<title>Node2</title>
<g id="a_node2"><a xlink:href="classxalanc_1_1ElemTemplateElement.html" target="_top" xlink:title=" ">
<polygon fill="none" stroke="black" points="245,-55.48 245,-74.48 410,-74.48 410,-55.48 245,-55.48"/>
<text text-anchor="middle" x="327.5" y="-62.48" font-family="Helvetica,sans-Serif" font-size="10.00">xalanc::ElemTemplateElement</text>
</a>
</g>
</g>
<!-- Node2&#45;&gt;Node1 -->
<g id="edge1" class="edge">
<title>Node2&#45;&gt;Node1</title>
<path fill="none" stroke="midnightblue" d="M370.94,-77.22C388.49,-81.98 409.12,-87.19 428,-90.98 470.63,-99.54 519.63,-106.24 555.17,-110.53"/>
<polygon fill="midnightblue" stroke="midnightblue" points="371.56,-73.76 360.99,-74.48 369.71,-80.51 371.56,-73.76"/>
</g>
<!-- Node2&#45;&gt;Node2 -->
<g id="edge6" class="edge">
<title>Node2&#45;&gt;Node2</title>
<path fill="none" stroke="#9a32cd" stroke-dasharray="5,2" d="M302.2,-84.01C303.58,-89.11 312.01,-92.98 327.5,-92.98 351.67,-92.98 358.66,-83.55 348.46,-74.74"/>
<polygon fill="#9a32cd" stroke="#9a32cd" points="305.47,-85.28 306.54,-74.74 299.13,-82.31 305.47,-85.28"/>
<text text-anchor="middle" x="327.5" y="-95.98" font-family="Helvetica,sans-Serif" font-size="10.00"> m_firstChild</text>
</g>
<!-- Node4 -->
<g id="node4" class="node">
<title>Node4</title>
<g id="a_node4"><a xlink:href="classxalanc_1_1ElemTextLiteral.html" target="_top" xlink:title=" ">
<polygon fill="none" stroke="black" points="540,-62.48 540,-81.48 671,-81.48 671,-62.48 540,-62.48"/>
<text text-anchor="middle" x="605.5" y="-69.48" font-family="Helvetica,sans-Serif" font-size="10.00">xalanc::ElemTextLiteral</text>
</a>
</g>
</g>
<!-- Node2&#45;&gt;Node4 -->
<g id="edge4" class="edge">
<title>Node2&#45;&gt;Node4</title>
<path fill="none" stroke="midnightblue" d="M408.75,-75.5C415.25,-76.1 421.73,-76.6 428,-76.98 469.7,-79.49 480.24,-78.25 522,-76.98 527.74,-76.81 533.7,-76.57 539.67,-76.28"/>
<polygon fill="midnightblue" stroke="midnightblue" points="408.82,-71.99 398.53,-74.5 408.14,-78.96 408.82,-71.99"/>
</g>
<!-- Node6 -->
<g id="node6" class="node">
<title>Node6</title>
<g id="a_node6"><a xlink:href="classxalanc_1_1ElemTemplate.html" target="_top" xlink:title=" ">
<polygon fill="none" stroke="black" points="543,-9.48 543,-28.48 668,-28.48 668,-9.48 543,-9.48"/>
<text text-anchor="middle" x="605.5" y="-16.48" font-family="Helvetica,sans-Serif" font-size="10.00">xalanc::ElemTemplate</text>
</a>
</g>
</g>
<!-- Node2&#45;&gt;Node6 -->
<g id="edge8" class="edge">
<title>Node2&#45;&gt;Node6</title>
<path fill="none" stroke="midnightblue" d="M395.66,-53.79C442.12,-46.04 503.27,-35.85 547.39,-28.5"/>
<polygon fill="midnightblue" stroke="midnightblue" points="394.98,-50.35 385.69,-55.45 396.13,-57.26 394.98,-50.35"/>
</g>
<!-- Node3 -->
<g id="node3" class="node">
<title>Node3</title>
<g id="a_node3"><a xlink:href="classxalanc_1_1PrefixResolver.html" target="_top" xlink:title="This class defines an interface for classes that resolve namespace prefixes to their URIs.">
<polygon fill="none" stroke="black" points="5,-74.48 5,-93.48 130,-93.48 130,-74.48 5,-74.48"/>
<text text-anchor="middle" x="67.5" y="-81.48" font-family="Helvetica,sans-Serif" font-size="10.00">xalanc::PrefixResolver</text>
</a>
</g>
</g>
<!-- Node3&#45;&gt;Node2 -->
<g id="edge2" class="edge">
<title>Node3&#45;&gt;Node2</title>
<path fill="none" stroke="midnightblue" d="M140.58,-78.67C172.94,-76.29 211.28,-73.47 244.71,-71"/>
<polygon fill="midnightblue" stroke="midnightblue" points="140.01,-75.21 130.3,-79.43 140.53,-82.19 140.01,-75.21"/>
</g>
<!-- Node4&#45;&gt;Node2 -->
<g id="edge3" class="edge">
<title>Node4&#45;&gt;Node2</title>
<path fill="none" stroke="#9a32cd" stroke-dasharray="5,2" d="M529.64,-66.32C527.06,-66.19 524.51,-66.08 522,-65.98 485.41,-64.56 444.9,-64.17 410.44,-64.18"/>
<polygon fill="#9a32cd" stroke="#9a32cd" points="529.5,-69.81 539.67,-66.85 529.87,-62.82 529.5,-69.81"/>
<text text-anchor="middle" x="475" y="-68.98" font-family="Helvetica,sans-Serif" font-size="10.00"> m_textLiteralChild</text>
</g>
<!-- Node5 -->
<g id="node5" class="node">
<title>Node5</title>
<g id="a_node5"><a xlink:href="classxalanc_1_1XalanDOMString.html" target="_top" xlink:title=" ">
<polygon fill="none" stroke="black" points="0,-36.48 0,-55.48 135,-55.48 135,-36.48 0,-36.48"/>
<text text-anchor="middle" x="67.5" y="-43.48" font-family="Helvetica,sans-Serif" font-size="10.00">xalanc::XalanDOMString</text>
</a>
</g>
</g>
<!-- Node5&#45;&gt;Node2 -->
<g id="edge5" class="edge">
<title>Node5&#45;&gt;Node2</title>
<path fill="none" stroke="#9a32cd" stroke-dasharray="5,2" d="M145.37,-51.15C171.3,-52.93 200.41,-54.99 227,-56.98 232.79,-57.41 238.77,-57.87 244.79,-58.34"/>
<polygon fill="#9a32cd" stroke="#9a32cd" points="145.44,-47.64 135.22,-50.45 144.96,-54.63 145.44,-47.64"/>
<text text-anchor="middle" x="190" y="-59.98" font-family="Helvetica,sans-Serif" font-size="10.00"> s_emptyString</text>
</g>
<!-- Node6&#45;&gt;Node2 -->
<g id="edge7" class="edge">
<title>Node6&#45;&gt;Node2</title>
<path fill="none" stroke="#9a32cd" stroke-dasharray="5,2" d="M556.74,-7.38C520.75,-0.64 470.5,4.5 428,-6.98 393.06,-16.42 357.79,-41.51 340.12,-55.39"/>
<polygon fill="#9a32cd" stroke="#9a32cd" points="556.47,-10.9 566.96,-9.42 557.83,-4.03 556.47,-10.9"/>
<text text-anchor="middle" x="475" y="-9.98" font-family="Helvetica,sans-Serif" font-size="10.00"> m_directTemplate</text>
</g>
</g>
</svg>
