<?xml version="1.0" encoding="UTF-8" standalone="no"?>
<!DOCTYPE svg PUBLIC "-//W3C//DTD SVG 1.1//EN"
 "http://www.w3.org/Graphics/SVG/1.1/DTD/svg11.dtd">
<!-- Generated by graphviz version 2.38.0 (20140413.2041)
 -->
<!-- Title: xalanc::XalanSourceTreeElementA Pages: 1 -->
<svg width="407pt" height="220pt"
 viewBox="0.00 0.00 407.00 220.00" xmlns="http://www.w3.org/2000/svg" xmlns:xlink="http://www.w3.org/1999/xlink">
<g id="graph0" class="graph" transform="scale(1 1) rotate(0) translate(4 216)">
<title>xalanc::XalanSourceTreeElementA</title>
<!-- Node1 -->
<g id="node1" class="node"><title>Node1</title>
<g id="a_node1"><a xlink:title=" ">
<polygon fill="#bfbfbf" stroke="black" points="199.5,-0.5 199.5,-19.5 366.5,-19.5 366.5,-0.5 199.5,-0.5"/>
<text text-anchor="middle" x="283" y="-7.5" font-family="Helvetica,sans-Serif" font-size="10.00">xalanc::XalanSourceTreeElementA</text>
</a>
</g>
</g>
<!-- Node2 -->
<g id="node2" class="node"><title>Node2</title>
<g id="a_node2"><a xlink:href="classxalanc_1_1XalanSourceTreeElement.html" target="_top" xlink:title=" ">
<polygon fill="none" stroke="black" points="75,-57.5 75,-76.5 235,-76.5 235,-57.5 75,-57.5"/>
<text text-anchor="middle" x="155" y="-64.5" font-family="Helvetica,sans-Serif" font-size="10.00">xalanc::XalanSourceTreeElement</text>
</a>
</g>
</g>
<!-- Node2&#45;&gt;Node1 -->
<g id="edge1" class="edge"><title>Node2&#45;&gt;Node1</title>
<path fill="none" stroke="midnightblue" d="M184.385,-53.3735C208.524,-43.0012 242.061,-28.5911 263.14,-19.5334"/>
<polygon fill="midnightblue" stroke="midnightblue" points="182.806,-50.2426 175,-57.4063 185.57,-56.674 182.806,-50.2426"/>
</g>
<!-- Node3 -->
<g id="node3" class="node"><title>Node3</title>
<g id="a_node3"><a xlink:href="classxalanc_1_1XalanElement.html" target="_top" xlink:title=" ">
<polygon fill="none" stroke="black" points="0,-135.5 0,-154.5 110,-154.5 110,-135.5 0,-135.5"/>
<text text-anchor="middle" x="55" y="-142.5" font-family="Helvetica,sans-Serif" font-size="10.00">xalanc::XalanElement</text>
</a>
</g>
</g>
<!-- Node3&#45;&gt;Node2 -->
<g id="edge2" class="edge"><title>Node3&#45;&gt;Node2</title>
<path fill="none" stroke="midnightblue" d="M74.5388,-129.15C95.1317,-113.5 126.863,-89.3841 143.663,-76.6165"/>
<polygon fill="midnightblue" stroke="midnightblue" points="72.3151,-126.444 66.4713,-135.282 76.5507,-132.018 72.3151,-126.444"/>
</g>
<!-- Node4 -->
<g id="node4" class="node"><title>Node4</title>
<g id="a_node4"><a xlink:href="classxalanc_1_1XalanNode.html" target="_top" xlink:title=" ">
<polygon fill="none" stroke="black" points="6.5,-192.5 6.5,-211.5 103.5,-211.5 103.5,-192.5 6.5,-192.5"/>
<text text-anchor="middle" x="55" y="-199.5" font-family="Helvetica,sans-Serif" font-size="10.00">xalanc::XalanNode</text>
</a>
</g>
</g>
<!-- Node4&#45;&gt;Node3 -->
<g id="edge3" class="edge"><title>Node4&#45;&gt;Node3</title>
<path fill="none" stroke="midnightblue" d="M55,-182.117C55,-172.817 55,-162.056 55,-154.715"/>
<polygon fill="midnightblue" stroke="midnightblue" points="51.5001,-182.406 55,-192.406 58.5001,-182.406 51.5001,-182.406"/>
</g>
<!-- Node5 -->
<g id="node5" class="node"><title>Node5</title>
<g id="a_node5"><a xlink:href="classxalanc_1_1XalanDOMString.html" target="_top" xlink:title=" ">
<polygon fill="none" stroke="black" points="128,-135.5 128,-154.5 250,-154.5 250,-135.5 128,-135.5"/>
<text text-anchor="middle" x="189" y="-142.5" font-family="Helvetica,sans-Serif" font-size="10.00">xalanc::XalanDOMString</text>
</a>
</g>
</g>
<!-- Node5&#45;&gt;Node2 -->
<g id="edge4" class="edge"><title>Node5&#45;&gt;Node2</title>
<path fill="none" stroke="#9a32cd" stroke-dasharray="5,2" d="M181.002,-126.122C174.026,-110.53 164.21,-88.5862 158.855,-76.6165"/>
<polygon fill="#9a32cd" stroke="#9a32cd" points="177.821,-127.583 185.1,-135.282 184.211,-124.724 177.821,-127.583"/>
<text text-anchor="middle" x="209" y="-109" font-family="Helvetica,sans-Serif" font-size="10.00"> m_tagName</text>
<text text-anchor="middle" x="209" y="-98" font-family="Helvetica,sans-Serif" font-size="10.00">s_emptyString</text>
</g>
<!-- Node6 -->
<g id="node6" class="node"><title>Node6</title>
<g id="a_node6"><a xlink:href="classxalanc_1_1XalanNamedNodeMap.html" target="_top" xlink:title=" ">
<polygon fill="none" stroke="black" points="253,-57.5 253,-76.5 399,-76.5 399,-57.5 253,-57.5"/>
<text text-anchor="middle" x="326" y="-64.5" font-family="Helvetica,sans-Serif" font-size="10.00">xalanc::XalanNamedNodeMap</text>
</a>
</g>
</g>
<!-- Node6&#45;&gt;Node1 -->
<g id="edge5" class="edge"><title>Node6&#45;&gt;Node1</title>
<path fill="none" stroke="#8b1a1a" d="M312.892,-49.2344C305.276,-39.4932 295.994,-27.6204 289.813,-19.7149"/>
<polygon fill="#8b1a1a" stroke="#8b1a1a" points="310.365,-51.6839 319.281,-57.4063 315.879,-47.3724 310.365,-51.6839"/>
</g>
</g>
</svg>
