<?xml version="1.0" encoding="UTF-8" standalone="no"?>
<!DOCTYPE svg PUBLIC "-//W3C//DTD SVG 1.1//EN"
 "http://www.w3.org/Graphics/SVG/1.1/DTD/svg11.dtd">
<!-- Generated by graphviz version 2.43.0 (0)
 -->
<!-- Title: xalanc::XPathExpression::XPathExpressionException Pages: 1 -->
<svg width="727pt" height="137pt"
 viewBox="0.00 0.00 727.00 137.00" xmlns="http://www.w3.org/2000/svg" xmlns:xlink="http://www.w3.org/1999/xlink">
<g id="graph0" class="graph" transform="scale(1 1) rotate(0) translate(4 133)">
<title>xalanc::XPathExpression::XPathExpressionException</title>
<!-- Node1 -->
<g id="node1" class="node">
<title>Node1</title>
<g id="a_node1"><a xlink:title="Exception class thrown when an invalid XPath expression is encountered.">
<polygon fill="#bfbfbf" stroke="black" points="351,-49.5 351,-79.5 503,-79.5 503,-49.5 351,-49.5"/>
<text text-anchor="start" x="359" y="-67.5" font-family="Helvetica,sans-Serif" font-size="10.00">xalanc::XPathExpression</text>
<text text-anchor="middle" x="427" y="-56.5" font-family="Helvetica,sans-Serif" font-size="10.00">::XPathExpressionException</text>
</a>
</g>
</g>
<!-- Node4 -->
<g id="node4" class="node">
<title>Node4</title>
<g id="a_node4"><a xlink:href="classxalanc_1_1XPathExpression_1_1InvalidArgumentCountException.html" target="_top" xlink:title="Exception class thrown when an invalid number of XPath arguments is encountered.">
<polygon fill="none" stroke="black" points="539,-98.5 539,-128.5 719,-128.5 719,-98.5 539,-98.5"/>
<text text-anchor="start" x="547" y="-116.5" font-family="Helvetica,sans-Serif" font-size="10.00">xalanc::XPathExpression</text>
<text text-anchor="middle" x="629" y="-105.5" font-family="Helvetica,sans-Serif" font-size="10.00">::InvalidArgumentCountException</text>
</a>
</g>
</g>
<!-- Node1&#45;&gt;Node4 -->
<g id="edge3" class="edge">
<title>Node1&#45;&gt;Node4</title>
<path fill="none" stroke="midnightblue" d="M499.33,-81.98C521.38,-87.38 545.45,-93.28 566.75,-98.49"/>
<polygon fill="midnightblue" stroke="midnightblue" points="499.91,-78.51 489.37,-79.53 498.25,-85.31 499.91,-78.51"/>
</g>
<!-- Node5 -->
<g id="node5" class="node">
<title>Node5</title>
<g id="a_node5"><a xlink:href="classxalanc_1_1XPathExpression_1_1InvalidArgumentException.html" target="_top" xlink:title="Exception class thrown when an invalid XPath argument is encountered.">
<polygon fill="none" stroke="black" points="553,-49.5 553,-79.5 705,-79.5 705,-49.5 553,-49.5"/>
<text text-anchor="start" x="561" y="-67.5" font-family="Helvetica,sans-Serif" font-size="10.00">xalanc::XPathExpression</text>
<text text-anchor="middle" x="629" y="-56.5" font-family="Helvetica,sans-Serif" font-size="10.00">::InvalidArgumentException</text>
</a>
</g>
</g>
<!-- Node1&#45;&gt;Node5 -->
<g id="edge4" class="edge">
<title>Node1&#45;&gt;Node5</title>
<path fill="none" stroke="midnightblue" d="M513.07,-64.5C526.3,-64.5 539.88,-64.5 552.87,-64.5"/>
<polygon fill="midnightblue" stroke="midnightblue" points="513.04,-61 503.04,-64.5 513.04,-68 513.04,-61"/>
</g>
<!-- Node6 -->
<g id="node6" class="node">
<title>Node6</title>
<g id="a_node6"><a xlink:href="classxalanc_1_1XPathExpression_1_1InvalidOpCodeException.html" target="_top" xlink:title="Exception class thrown when an invalid XPath operation code is encountered.">
<polygon fill="none" stroke="black" points="558,-0.5 558,-30.5 700,-30.5 700,-0.5 558,-0.5"/>
<text text-anchor="start" x="566" y="-18.5" font-family="Helvetica,sans-Serif" font-size="10.00">xalanc::XPathExpression</text>
<text text-anchor="middle" x="629" y="-7.5" font-family="Helvetica,sans-Serif" font-size="10.00">::InvalidOpCodeException</text>
</a>
</g>
</g>
<!-- Node1&#45;&gt;Node6 -->
<g id="edge5" class="edge">
<title>Node1&#45;&gt;Node6</title>
<path fill="none" stroke="midnightblue" d="M499.33,-47.02C521.38,-41.62 545.45,-35.72 566.75,-30.51"/>
<polygon fill="midnightblue" stroke="midnightblue" points="498.25,-43.69 489.37,-49.47 499.91,-50.49 498.25,-43.69"/>
</g>
<!-- Node2 -->
<g id="node2" class="node">
<title>Node2</title>
<g id="a_node2"><a xlink:href="classxalanc_1_1XalanXPathException.html" target="_top" xlink:title=" ">
<polygon fill="none" stroke="black" points="157,-55 157,-74 315,-74 315,-55 157,-55"/>
<text text-anchor="middle" x="236" y="-62" font-family="Helvetica,sans-Serif" font-size="10.00">xalanc::XalanXPathException</text>
</a>
</g>
</g>
<!-- Node2&#45;&gt;Node1 -->
<g id="edge1" class="edge">
<title>Node2&#45;&gt;Node1</title>
<path fill="none" stroke="midnightblue" d="M325.24,-64.5C333.81,-64.5 342.44,-64.5 350.86,-64.5"/>
<polygon fill="midnightblue" stroke="midnightblue" points="325.24,-61 315.24,-64.5 325.24,-68 325.24,-61"/>
</g>
<!-- Node3 -->
<g id="node3" class="node">
<title>Node3</title>
<g id="a_node3"><a xlink:href="classxalanc_1_1XSLException.html" target="_top" xlink:title=" ">
<polygon fill="none" stroke="black" points="0,-55 0,-74 121,-74 121,-55 0,-55"/>
<text text-anchor="middle" x="60.5" y="-62" font-family="Helvetica,sans-Serif" font-size="10.00">xalanc::XSLException</text>
</a>
</g>
</g>
<!-- Node3&#45;&gt;Node2 -->
<g id="edge2" class="edge">
<title>Node3&#45;&gt;Node2</title>
<path fill="none" stroke="midnightblue" d="M131.31,-64.5C139.69,-64.5 148.3,-64.5 156.8,-64.5"/>
<polygon fill="midnightblue" stroke="midnightblue" points="131.21,-61 121.21,-64.5 131.21,-68 131.21,-61"/>
</g>
</g>
</svg>
