<?xml version="1.0" encoding="UTF-8" standalone="no"?>
<!DOCTYPE svg PUBLIC "-//W3C//DTD SVG 1.1//EN"
 "http://www.w3.org/Graphics/SVG/1.1/DTD/svg11.dtd">
<!-- Generated by graphviz version 2.38.0 (20140413.2041)
 -->
<!-- Title: xalanc::XPathExpression::InvalidArgumentCountException Pages: 1 -->
<svg width="178pt" height="288pt"
 viewBox="0.00 0.00 178.00 288.00" xmlns="http://www.w3.org/2000/svg" xmlns:xlink="http://www.w3.org/1999/xlink">
<g id="graph0" class="graph" transform="scale(1 1) rotate(0) translate(4 284)">
<title>xalanc::XPathExpression::InvalidArgumentCountException</title>
<!-- Node1 -->
<g id="node1" class="node"><title>Node1</title>
<g id="a_node1"><a xlink:title="Exception class thrown when an invalid number of XPath arguments is encountered.">
<polygon fill="#bfbfbf" stroke="black" points="0,-0.5 0,-30.5 160,-30.5 160,-0.5 0,-0.5"/>
<text text-anchor="start" x="8" y="-18.5" font-family="Helvetica,sans-Serif" font-size="10.00">xalanc::XPathExpression</text>
<text text-anchor="middle" x="80" y="-7.5" font-family="Helvetica,sans-Serif" font-size="10.00">::InvalidArgumentCountException</text>
</a>
</g>
</g>
<!-- Node2 -->
<g id="node2" class="node"><title>Node2</title>
<g id="a_node2"><a xlink:href="classxalanc_1_1XPathExpression_1_1XPathExpressionException.html" target="_top" xlink:title="Exception class thrown when an invalid XPath expression is encountered.">
<polygon fill="none" stroke="black" points="10,-68.5 10,-98.5 150,-98.5 150,-68.5 10,-68.5"/>
<text text-anchor="start" x="18" y="-86.5" font-family="Helvetica,sans-Serif" font-size="10.00">xalanc::XPathExpression</text>
<text text-anchor="middle" x="80" y="-75.5" font-family="Helvetica,sans-Serif" font-size="10.00">::XPathExpressionException</text>
</a>
</g>
</g>
<!-- Node2&#45;&gt;Node1 -->
<g id="edge1" class="edge"><title>Node2&#45;&gt;Node1</title>
<path fill="none" stroke="midnightblue" d="M80,-58.0322C80,-48.8606 80,-38.7449 80,-30.7931"/>
<polygon fill="midnightblue" stroke="midnightblue" points="76.5001,-58.1789 80,-68.179 83.5001,-58.179 76.5001,-58.1789"/>
</g>
<!-- Node3 -->
<g id="node3" class="node"><title>Node3</title>
<g id="a_node3"><a xlink:href="classxalanc_1_1XalanXPathException.html" target="_top" xlink:title=" ">
<polygon fill="none" stroke="black" points="8.5,-136.5 8.5,-155.5 151.5,-155.5 151.5,-136.5 8.5,-136.5"/>
<text text-anchor="middle" x="80" y="-143.5" font-family="Helvetica,sans-Serif" font-size="10.00">xalanc::XalanXPathException</text>
</a>
</g>
</g>
<!-- Node3&#45;&gt;Node2 -->
<g id="edge2" class="edge"><title>Node3&#45;&gt;Node2</title>
<path fill="none" stroke="midnightblue" d="M80,-126.215C80,-117.356 80,-106.958 80,-98.7587"/>
<polygon fill="midnightblue" stroke="midnightblue" points="76.5001,-126.332 80,-136.332 83.5001,-126.332 76.5001,-126.332"/>
</g>
<!-- Node4 -->
<g id="node4" class="node"><title>Node4</title>
<g id="a_node4"><a xlink:href="classxalanc_1_1XSLException.html" target="_top" xlink:title=" ">
<polygon fill="none" stroke="black" points="24,-193.5 24,-212.5 136,-212.5 136,-193.5 24,-193.5"/>
<text text-anchor="middle" x="80" y="-200.5" font-family="Helvetica,sans-Serif" font-size="10.00">xalanc::XSLException</text>
</a>
</g>
</g>
<!-- Node4&#45;&gt;Node3 -->
<g id="edge3" class="edge"><title>Node4&#45;&gt;Node3</title>
<path fill="none" stroke="midnightblue" d="M80,-183.117C80,-173.817 80,-163.056 80,-155.715"/>
<polygon fill="midnightblue" stroke="midnightblue" points="76.5001,-183.406 80,-193.406 83.5001,-183.406 76.5001,-183.406"/>
</g>
<!-- Node5 -->
<g id="node5" class="node"><title>Node5</title>
<g id="a_node5"><a xlink:title=" ">
<polygon fill="none" stroke="#bfbfbf" points="35.5,-260.5 35.5,-279.5 124.5,-279.5 124.5,-260.5 35.5,-260.5"/>
<text text-anchor="middle" x="80" y="-267.5" font-family="Helvetica,sans-Serif" font-size="10.00">MemoryManager</text>
</a>
</g>
</g>
<!-- Node5&#45;&gt;Node4 -->
<g id="edge4" class="edge"><title>Node5&#45;&gt;Node4</title>
<path fill="none" stroke="#9a32cd" stroke-dasharray="5,2" d="M80,-250.037C80,-237.67 80,-222.12 80,-212.627"/>
<polygon fill="#9a32cd" stroke="#9a32cd" points="76.5001,-250.234 80,-260.234 83.5001,-250.234 76.5001,-250.234"/>
<text text-anchor="middle" x="125" y="-234" font-family="Helvetica,sans-Serif" font-size="10.00"> m_memoryManager</text>
</g>
</g>
</svg>
