<?xml version="1.0" encoding="UTF-8" standalone="no"?>
<!DOCTYPE svg PUBLIC "-//W3C//DTD SVG 1.1//EN"
 "http://www.w3.org/Graphics/SVG/1.1/DTD/svg11.dtd">
<!-- Generated by graphviz version 2.43.0 (0)
 -->
<!-- Title: xalanc::XPathExecutionContext Pages: 1 -->
<svg width="384pt" height="162pt"
 viewBox="0.00 0.00 384.00 162.00" xmlns="http://www.w3.org/2000/svg" xmlns:xlink="http://www.w3.org/1999/xlink">
<g id="graph0" class="graph" transform="scale(1 1) rotate(0) translate(4 158)">
<title>xalanc::XPathExecutionContext</title>
<!-- Node1 -->
<g id="node1" class="node">
<title>Node1</title>
<g id="a_node1"><a xlink:title=" ">
<polygon fill="#bfbfbf" stroke="black" points="182,-0.5 182,-19.5 350,-19.5 350,-0.5 182,-0.5"/>
<text text-anchor="middle" x="266" y="-7.5" font-family="Helvetica,sans-Serif" font-size="10.00">xalanc::XPathExecutionContext</text>
</a>
</g>
</g>
<!-- Node2 -->
<g id="node2" class="node">
<title>Node2</title>
<g id="a_node2"><a xlink:href="classxalanc_1_1ExecutionContext.html" target="_top" xlink:title=" ">
<polygon fill="none" stroke="black" points="82,-67.5 82,-86.5 222,-86.5 222,-67.5 82,-67.5"/>
<text text-anchor="middle" x="152" y="-74.5" font-family="Helvetica,sans-Serif" font-size="10.00">xalanc::ExecutionContext</text>
</a>
</g>
</g>
<!-- Node2&#45;&gt;Node1 -->
<g id="edge1" class="edge">
<title>Node2&#45;&gt;Node1</title>
<path fill="none" stroke="midnightblue" d="M176.35,-62.12C198.94,-49.24 231.84,-30.48 250.87,-19.63"/>
<polygon fill="midnightblue" stroke="midnightblue" points="174.33,-59.24 167.37,-67.23 177.8,-65.32 174.33,-59.24"/>
</g>
<!-- Node3 -->
<g id="node3" class="node">
<title>Node3</title>
<g id="a_node3"><a xlink:href="classxalanc_1_1ProblemListenerBase.html" target="_top" xlink:title="This is the abstract class that is used when reporting a problem some kind, that requires a message,...">
<polygon fill="none" stroke="black" points="0,-134.5 0,-153.5 158,-153.5 158,-134.5 0,-134.5"/>
<text text-anchor="middle" x="79" y="-141.5" font-family="Helvetica,sans-Serif" font-size="10.00">xalanc::ProblemListenerBase</text>
</a>
</g>
</g>
<!-- Node3&#45;&gt;Node2 -->
<g id="edge2" class="edge">
<title>Node3&#45;&gt;Node2</title>
<path fill="none" stroke="midnightblue" d="M96.57,-127.36C110.92,-114.58 130.67,-96.99 142.31,-86.63"/>
<polygon fill="midnightblue" stroke="midnightblue" points="93.99,-124.97 88.85,-134.23 98.64,-130.2 93.99,-124.97"/>
</g>
<!-- Node4 -->
<g id="node4" class="node">
<title>Node4</title>
<g id="a_node4"><a xlink:title=" ">
<polygon fill="none" stroke="#bfbfbf" points="176,-134.5 176,-153.5 276,-153.5 276,-134.5 176,-134.5"/>
<text text-anchor="middle" x="226" y="-141.5" font-family="Helvetica,sans-Serif" font-size="10.00">MemoryManager</text>
</a>
</g>
</g>
<!-- Node4&#45;&gt;Node2 -->
<g id="edge3" class="edge">
<title>Node4&#45;&gt;Node2</title>
<path fill="none" stroke="#9a32cd" stroke-dasharray="5,2" d="M208.19,-127.36C193.64,-114.58 173.62,-96.99 161.82,-86.63"/>
<polygon fill="#9a32cd" stroke="#9a32cd" points="206.2,-130.26 216.02,-134.23 210.82,-125 206.2,-130.26"/>
<text text-anchor="middle" x="245.5" y="-108" font-family="Helvetica,sans-Serif" font-size="10.00"> m_memoryManager</text>
</g>
<!-- Node5 -->
<g id="node5" class="node">
<title>Node5</title>
<g id="a_node5"><a xlink:href="classxalanc_1_1XObjectFactory.html" target="_top" xlink:title="This class handles the creation of XObjects and manages their lifetime.">
<polygon fill="none" stroke="black" points="240,-67.5 240,-86.5 368,-86.5 368,-67.5 240,-67.5"/>
<text text-anchor="middle" x="304" y="-74.5" font-family="Helvetica,sans-Serif" font-size="10.00">xalanc::XObjectFactory</text>
</a>
</g>
</g>
<!-- Node5&#45;&gt;Node1 -->
<g id="edge4" class="edge">
<title>Node5&#45;&gt;Node1</title>
<path fill="none" stroke="#9a32cd" stroke-dasharray="5,2" d="M293.79,-58.53C286.43,-45.95 276.82,-29.51 271.04,-19.63"/>
<polygon fill="#9a32cd" stroke="#9a32cd" points="290.81,-60.37 298.88,-67.23 296.85,-56.83 290.81,-60.37"/>
<text text-anchor="middle" x="331.5" y="-41" font-family="Helvetica,sans-Serif" font-size="10.00"> m_xobjectFactory</text>
</g>
</g>
</svg>
