<?xml version="1.0" encoding="UTF-8" standalone="no"?>
<!DOCTYPE svg PUBLIC "-//W3C//DTD SVG 1.1//EN"
 "http://www.w3.org/Graphics/SVG/1.1/DTD/svg11.dtd">
<!-- Generated by graphviz version 2.38.0 (20140413.2041)
 -->
<!-- Title: xalanc::ArenaBlock&lt; ObjectType, SizeType &gt; Pages: 1 -->
<svg width="779pt" height="137pt"
 viewBox="0.00 0.00 779.00 137.00" xmlns="http://www.w3.org/2000/svg" xmlns:xlink="http://www.w3.org/1999/xlink">
<g id="graph0" class="graph" transform="scale(1 1) rotate(0) translate(4 133)">
<title>xalanc::ArenaBlock&lt; ObjectType, SizeType &gt;</title>
<!-- Node1 -->
<g id="node1" class="node"><title>Node1</title>
<g id="a_node1"><a xlink:title=" ">
<polygon fill="#bfbfbf" stroke="black" points="431,-49.5 431,-79.5 562,-79.5 562,-49.5 431,-49.5"/>
<text text-anchor="start" x="439" y="-67.5" font-family="Helvetica,sans-Serif" font-size="10.00">xalanc::ArenaBlock</text>
<text text-anchor="middle" x="496.5" y="-56.5" font-family="Helvetica,sans-Serif" font-size="10.00">&lt; ObjectType, SizeType &gt;</text>
</a>
</g>
</g>
<!-- Node4 -->
<g id="node4" class="node"><title>Node4</title>
<g id="a_node4"><a xlink:href="classxalanc_1_1ArenaBlock.html" target="_top" xlink:title=" ">
<polygon fill="none" stroke="black" points="670,-98.5 670,-128.5 771,-128.5 771,-98.5 670,-98.5"/>
<text text-anchor="start" x="678" y="-116.5" font-family="Helvetica,sans-Serif" font-size="10.00">xalanc::ArenaBlock</text>
<text text-anchor="middle" x="720.5" y="-105.5" font-family="Helvetica,sans-Serif" font-size="10.00">&lt; ObjectType &gt;</text>
</a>
</g>
</g>
<!-- Node1&#45;&gt;Node4 -->
<g id="edge3" class="edge"><title>Node1&#45;&gt;Node4</title>
<path fill="none" stroke="orange" stroke-dasharray="5,2" d="M571.836,-80.9075C604.023,-88.0117 640.843,-96.1387 669.664,-102.5"/>
<polygon fill="orange" stroke="orange" points="572.529,-77.4763 562.01,-78.7387 571.02,-84.3118 572.529,-77.4763"/>
<text text-anchor="middle" x="616" y="-100.5" font-family="Helvetica,sans-Serif" font-size="10.00"> &lt; ObjectType &gt;</text>
</g>
<!-- Node5 -->
<g id="node5" class="node"><title>Node5</title>
<g id="a_node5"><a xlink:href="classxalanc_1_1ArenaBlock.html" target="_top" xlink:title=" ">
<polygon fill="none" stroke="black" points="670,-49.5 670,-79.5 771,-79.5 771,-49.5 670,-49.5"/>
<text text-anchor="start" x="678" y="-67.5" font-family="Helvetica,sans-Serif" font-size="10.00">xalanc::ArenaBlock</text>
<text text-anchor="middle" x="720.5" y="-56.5" font-family="Helvetica,sans-Serif" font-size="10.00">&lt; object_type &gt;</text>
</a>
</g>
</g>
<!-- Node1&#45;&gt;Node5 -->
<g id="edge4" class="edge"><title>Node1&#45;&gt;Node5</title>
<path fill="none" stroke="orange" stroke-dasharray="5,2" d="M572.252,-64.5C604.34,-64.5 640.967,-64.5 669.664,-64.5"/>
<polygon fill="orange" stroke="orange" points="572.01,-61.0001 562.01,-64.5 572.01,-68.0001 572.01,-61.0001"/>
<text text-anchor="middle" x="616" y="-67.5" font-family="Helvetica,sans-Serif" font-size="10.00"> &lt; object_type &gt;</text>
</g>
<!-- Node6 -->
<g id="node6" class="node"><title>Node6</title>
<g id="a_node6"><a xlink:href="classxalanc_1_1ArenaBlock.html" target="_top" xlink:title=" ">
<polygon fill="none" stroke="black" points="670,-0.5 670,-30.5 771,-30.5 771,-0.5 670,-0.5"/>
<text text-anchor="start" x="678" y="-18.5" font-family="Helvetica,sans-Serif" font-size="10.00">xalanc::ArenaBlock</text>
<text text-anchor="middle" x="720.5" y="-7.5" font-family="Helvetica,sans-Serif" font-size="10.00">&lt; data_type &gt;</text>
</a>
</g>
</g>
<!-- Node1&#45;&gt;Node6 -->
<g id="edge5" class="edge"><title>Node1&#45;&gt;Node6</title>
<path fill="none" stroke="orange" stroke-dasharray="5,2" d="M571.836,-48.0925C604.023,-40.9883 640.843,-32.8613 669.664,-26.4999"/>
<polygon fill="orange" stroke="orange" points="571.02,-44.6882 562.01,-50.2613 572.529,-51.5237 571.02,-44.6882"/>
<text text-anchor="middle" x="616" y="-49.5" font-family="Helvetica,sans-Serif" font-size="10.00"> &lt; data_type &gt;</text>
</g>
<!-- Node2 -->
<g id="node2" class="node"><title>Node2</title>
<g id="a_node2"><a xlink:href="classxalanc_1_1ArenaBlockBase.html" target="_top" xlink:title=" ">
<polygon fill="none" stroke="black" points="270,-49.5 270,-79.5 394,-79.5 394,-49.5 270,-49.5"/>
<text text-anchor="start" x="278" y="-67.5" font-family="Helvetica,sans-Serif" font-size="10.00">xalanc::ArenaBlockBase</text>
<text text-anchor="middle" x="332" y="-56.5" font-family="Helvetica,sans-Serif" font-size="10.00">&lt; ObjectType, size_t &gt;</text>
</a>
</g>
</g>
<!-- Node2&#45;&gt;Node1 -->
<g id="edge1" class="edge"><title>Node2&#45;&gt;Node1</title>
<path fill="none" stroke="midnightblue" d="M404.562,-64.5C413.27,-64.5 422.128,-64.5 430.728,-64.5"/>
<polygon fill="midnightblue" stroke="midnightblue" points="404.434,-61.0001 394.434,-64.5 404.434,-68.0001 404.434,-61.0001"/>
</g>
<!-- Node3 -->
<g id="node3" class="node"><title>Node3</title>
<g id="a_node3"><a xlink:href="classxalanc_1_1ArenaBlockBase.html" target="_top" xlink:title=" ">
<polygon fill="none" stroke="black" points="0,-49.5 0,-79.5 131,-79.5 131,-49.5 0,-49.5"/>
<text text-anchor="start" x="8" y="-67.5" font-family="Helvetica,sans-Serif" font-size="10.00">xalanc::ArenaBlockBase</text>
<text text-anchor="middle" x="65.5" y="-56.5" font-family="Helvetica,sans-Serif" font-size="10.00">&lt; ObjectType, SizeType &gt;</text>
</a>
</g>
</g>
<!-- Node3&#45;&gt;Node2 -->
<g id="edge2" class="edge"><title>Node3&#45;&gt;Node2</title>
<path fill="none" stroke="orange" stroke-dasharray="5,2" d="M141.315,-64.5C181.891,-64.5 231.419,-64.5 269.69,-64.5"/>
<polygon fill="orange" stroke="orange" points="141.204,-61.0001 131.204,-64.5 141.204,-68.0001 141.204,-61.0001"/>
<text text-anchor="middle" x="200.5" y="-67.5" font-family="Helvetica,sans-Serif" font-size="10.00"> &lt; ObjectType, size_t &gt;</text>
</g>
</g>
</svg>
