<?xml version="1.0" encoding="UTF-8" standalone="no"?>
<!DOCTYPE svg PUBLIC "-//W3C//DTD SVG 1.1//EN"
 "http://www.w3.org/Graphics/SVG/1.1/DTD/svg11.dtd">
<!-- Generated by graphviz version 2.38.0 (20140413.2041)
 -->
<!-- Title: xalanc::AVTPart Pages: 1 -->
<svg width="258pt" height="84pt"
 viewBox="0.00 0.00 257.50 84.00" xmlns="http://www.w3.org/2000/svg" xmlns:xlink="http://www.w3.org/1999/xlink">
<g id="graph0" class="graph" transform="scale(1 1) rotate(0) translate(4 80)">
<title>xalanc::AVTPart</title>
<!-- Node1 -->
<g id="node1" class="node"><title>Node1</title>
<g id="a_node1"><a xlink:title="Class to hold a part, either a string or XPath, of an Attribute Value Template.">
<polygon fill="#bfbfbf" stroke="black" points="82,-56.5 82,-75.5 170,-75.5 170,-56.5 82,-56.5"/>
<text text-anchor="middle" x="126" y="-63.5" font-family="Helvetica,sans-Serif" font-size="10.00">xalanc::AVTPart</text>
</a>
</g>
</g>
<!-- Node2 -->
<g id="node2" class="node"><title>Node2</title>
<g id="a_node2"><a xlink:href="classxalanc_1_1AVTPartSimple.html" target="_top" xlink:title="Simple string part of a complex AVT.">
<polygon fill="none" stroke="black" points="0,-0.5 0,-19.5 118,-19.5 118,-0.5 0,-0.5"/>
<text text-anchor="middle" x="59" y="-7.5" font-family="Helvetica,sans-Serif" font-size="10.00">xalanc::AVTPartSimple</text>
</a>
</g>
</g>
<!-- Node1&#45;&gt;Node2 -->
<g id="edge1" class="edge"><title>Node1&#45;&gt;Node2</title>
<path fill="none" stroke="midnightblue" d="M107.165,-49.8197C95.1616,-40.1452 80.0283,-27.9481 69.9606,-19.8339"/>
<polygon fill="midnightblue" stroke="midnightblue" points="105.253,-52.7738 115.235,-56.324 109.646,-47.3236 105.253,-52.7738"/>
</g>
<!-- Node3 -->
<g id="node3" class="node"><title>Node3</title>
<g id="a_node3"><a xlink:href="classxalanc_1_1AVTPartXPath.html" target="_top" xlink:title="Simple string part of a complex AVT.">
<polygon fill="none" stroke="black" points="136.5,-0.5 136.5,-19.5 249.5,-19.5 249.5,-0.5 136.5,-0.5"/>
<text text-anchor="middle" x="193" y="-7.5" font-family="Helvetica,sans-Serif" font-size="10.00">xalanc::AVTPartXPath</text>
</a>
</g>
</g>
<!-- Node1&#45;&gt;Node3 -->
<g id="edge2" class="edge"><title>Node1&#45;&gt;Node3</title>
<path fill="none" stroke="midnightblue" d="M144.835,-49.8197C156.838,-40.1452 171.972,-27.9481 182.039,-19.8339"/>
<polygon fill="midnightblue" stroke="midnightblue" points="142.354,-47.3236 136.765,-56.324 146.747,-52.7738 142.354,-47.3236"/>
</g>
</g>
</svg>
