<?xml version="1.0" encoding="UTF-8" standalone="no"?>
<!DOCTYPE svg PUBLIC "-//W3C//DTD SVG 1.1//EN"
 "http://www.w3.org/Graphics/SVG/1.1/DTD/svg11.dtd">
<!-- Generated by graphviz version 2.38.0 (20140413.2041)
 -->
<!-- Title: xalanc::XPathExecutionContextDefault Pages: 1 -->
<svg width="1556pt" height="605pt"
 viewBox="0.00 0.00 1556.00 605.34" xmlns="http://www.w3.org/2000/svg" xmlns:xlink="http://www.w3.org/1999/xlink">
<g id="graph0" class="graph" transform="scale(1 1) rotate(0) translate(4 601.341)">
<title>xalanc::XPathExecutionContextDefault</title>
<!-- Node1 -->
<g id="node1" class="node"><title>Node1</title>
<g id="a_node1"><a xlink:title="A basic implementation of the class XPathExecutionContext.">
<polygon fill="#bfbfbf" stroke="black" points="1394,-317.341 1394,-347.341 1548,-347.341 1548,-317.341 1394,-317.341"/>
<text text-anchor="start" x="1402" y="-335.341" font-family="Helvetica,sans-Serif" font-size="10.00">xalanc::XPathExecutionContext</text>
<text text-anchor="middle" x="1471" y="-324.341" font-family="Helvetica,sans-Serif" font-size="10.00">Default</text>
</a>
</g>
</g>
<!-- Node2 -->
<g id="node2" class="node"><title>Node2</title>
<g id="a_node2"><a xlink:href="classxalanc_1_1XPathExecutionContext.html" target="_top" xlink:title=" ">
<polygon fill="none" stroke="black" points="1070,-505.841 1070,-524.841 1224,-524.841 1224,-505.841 1070,-505.841"/>
<text text-anchor="middle" x="1147" y="-512.841" font-family="Helvetica,sans-Serif" font-size="10.00">xalanc::XPathExecutionContext</text>
</a>
</g>
</g>
<!-- Node2&#45;&gt;Node1 -->
<g id="edge1" class="edge"><title>Node2&#45;&gt;Node1</title>
<path fill="none" stroke="midnightblue" d="M1234.33,-519.654C1279.76,-517.982 1334.48,-509.385 1376,-482.341 1426.47,-449.463 1454.76,-379.002 1465.25,-347.779"/>
<polygon fill="midnightblue" stroke="midnightblue" points="1234.09,-516.159 1224.19,-519.919 1234.28,-523.156 1234.09,-516.159"/>
</g>
<!-- Node3 -->
<g id="node3" class="node"><title>Node3</title>
<g id="a_node3"><a xlink:href="classxalanc_1_1ExecutionContext.html" target="_top" xlink:title=" ">
<polygon fill="none" stroke="black" points="617,-533.841 617,-552.841 745,-552.841 745,-533.841 617,-533.841"/>
<text text-anchor="middle" x="681" y="-540.841" font-family="Helvetica,sans-Serif" font-size="10.00">xalanc::ExecutionContext</text>
</a>
</g>
</g>
<!-- Node3&#45;&gt;Node2 -->
<g id="edge2" class="edge"><title>Node3&#45;&gt;Node2</title>
<path fill="none" stroke="midnightblue" d="M755.253,-538.92C841.167,-533.736 982.888,-525.184 1069.98,-519.928"/>
<polygon fill="midnightblue" stroke="midnightblue" points="754.831,-535.439 745.06,-539.535 755.253,-542.426 754.831,-535.439"/>
</g>
<!-- Node4 -->
<g id="node4" class="node"><title>Node4</title>
<g id="a_node4"><a xlink:href="classxalanc_1_1ProblemListenerBase.html" target="_top" xlink:title="This is the abstract class that is used when reporting a problem some kind, that requires a message,...">
<polygon fill="none" stroke="black" points="265,-564.841 265,-583.841 409,-583.841 409,-564.841 265,-564.841"/>
<text text-anchor="middle" x="337" y="-571.841" font-family="Helvetica,sans-Serif" font-size="10.00">xalanc::ProblemListenerBase</text>
</a>
</g>
</g>
<!-- Node4&#45;&gt;Node3 -->
<g id="edge3" class="edge"><title>Node4&#45;&gt;Node3</title>
<path fill="none" stroke="midnightblue" d="M419.557,-566.948C480.04,-561.466 561.298,-554.1 616.869,-549.063"/>
<polygon fill="midnightblue" stroke="midnightblue" points="418.921,-563.491 409.278,-567.88 419.553,-570.463 418.921,-563.491"/>
</g>
<!-- Node29 -->
<g id="node29" class="node"><title>Node29</title>
<g id="a_node29"><a xlink:href="classxalanc_1_1XPathEnvSupport.html" target="_top" xlink:title=" ">
<polygon fill="none" stroke="black" points="836.5,-554.841 836.5,-573.841 962.5,-573.841 962.5,-554.841 836.5,-554.841"/>
<text text-anchor="middle" x="899.5" y="-561.841" font-family="Helvetica,sans-Serif" font-size="10.00">xalanc::XPathEnvSupport</text>
</a>
</g>
</g>
<!-- Node4&#45;&gt;Node29 -->
<g id="edge33" class="edge"><title>Node4&#45;&gt;Node29</title>
<path fill="none" stroke="midnightblue" d="M419.599,-572.885C532.694,-570.867 734.624,-567.264 836.331,-565.45"/>
<polygon fill="midnightblue" stroke="midnightblue" points="419.208,-569.391 409.272,-573.069 419.333,-576.39 419.208,-569.391"/>
</g>
<!-- Node5 -->
<g id="node5" class="node"><title>Node5</title>
<g id="a_node5"><a xlink:title=" ">
<polygon fill="none" stroke="#bfbfbf" points="292.5,-520.841 292.5,-539.841 381.5,-539.841 381.5,-520.841 292.5,-520.841"/>
<text text-anchor="middle" x="337" y="-527.841" font-family="Helvetica,sans-Serif" font-size="10.00">MemoryManager</text>
</a>
</g>
</g>
<!-- Node5&#45;&gt;Node3 -->
<g id="edge4" class="edge"><title>Node5&#45;&gt;Node3</title>
<path fill="none" stroke="#9a32cd" stroke-dasharray="5,2" d="M391.606,-529.075C437.632,-528.348 505.732,-528.126 565,-531.341 581.837,-532.254 600.006,-533.86 616.821,-535.606"/>
<polygon fill="#9a32cd" stroke="#9a32cd" points="391.494,-525.576 381.555,-529.247 391.614,-532.575 391.494,-525.576"/>
<text text-anchor="middle" x="500" y="-534.341" font-family="Helvetica,sans-Serif" font-size="10.00"> m_memoryManager</text>
</g>
<!-- Node6 -->
<g id="node6" class="node"><title>Node6</title>
<g id="a_node6"><a xlink:href="classxalanc_1_1XObjectFactory.html" target="_top" xlink:title="This class handles the creation of XObjects and manages their lifetime.">
<polygon fill="none" stroke="black" points="622,-495.841 622,-514.841 740,-514.841 740,-495.841 622,-495.841"/>
<text text-anchor="middle" x="681" y="-502.841" font-family="Helvetica,sans-Serif" font-size="10.00">xalanc::XObjectFactory</text>
</a>
</g>
</g>
<!-- Node6&#45;&gt;Node2 -->
<g id="edge5" class="edge"><title>Node6&#45;&gt;Node2</title>
<path fill="none" stroke="#9a32cd" stroke-dasharray="5,2" d="M750.198,-505.618C814.992,-506.018 915.145,-506.989 1002,-509.341 1024.01,-509.937 1047.91,-510.832 1069.79,-511.75"/>
<polygon fill="#9a32cd" stroke="#9a32cd" points="750.131,-502.118 740.11,-505.559 750.09,-509.117 750.131,-502.118"/>
<text text-anchor="middle" x="899.5" y="-512.341" font-family="Helvetica,sans-Serif" font-size="10.00"> m_xobjectFactory</text>
</g>
<!-- Node7 -->
<g id="node7" class="node"><title>Node7</title>
<g id="a_node7"><a xlink:href="structxalanc_1_1XPathExecutionContextDefault_1_1ContextNodeListPositionCache.html" target="_top" xlink:title=" ">
<polygon fill="none" stroke="black" points="1053,-456.341 1053,-486.341 1241,-486.341 1241,-456.341 1053,-456.341"/>
<text text-anchor="start" x="1061" y="-474.341" font-family="Helvetica,sans-Serif" font-size="10.00">xalanc::XPathExecutionContext</text>
<text text-anchor="middle" x="1147" y="-463.341" font-family="Helvetica,sans-Serif" font-size="10.00">Default::ContextNodeListPositionCache</text>
</a>
</g>
</g>
<!-- Node7&#45;&gt;Node1 -->
<g id="edge6" class="edge"><title>Node7&#45;&gt;Node1</title>
<path fill="none" stroke="#9a32cd" stroke-dasharray="5,2" d="M1251.1,-472.114C1292.01,-468.634 1338.22,-459.722 1376,-439.341 1416.26,-417.622 1447.42,-371.415 1461.61,-347.455"/>
<polygon fill="#9a32cd" stroke="#9a32cd" points="1250.8,-468.626 1241.09,-472.867 1251.33,-475.606 1250.8,-468.626"/>
<text text-anchor="middle" x="1334" y="-470.341" font-family="Helvetica,sans-Serif" font-size="10.00"> m_cachedPosition</text>
</g>
<!-- Node8 -->
<g id="node8" class="node"><title>Node8</title>
<g id="a_node8"><a xlink:href="classxalanc_1_1XalanNode.html" target="_top" xlink:title=" ">
<polygon fill="none" stroke="black" points="632.5,-457.841 632.5,-476.841 729.5,-476.841 729.5,-457.841 632.5,-457.841"/>
<text text-anchor="middle" x="681" y="-464.841" font-family="Helvetica,sans-Serif" font-size="10.00">xalanc::XalanNode</text>
</a>
</g>
</g>
<!-- Node8&#45;&gt;Node7 -->
<g id="edge7" class="edge"><title>Node8&#45;&gt;Node7</title>
<path fill="none" stroke="#9a32cd" stroke-dasharray="5,2" d="M740.095,-467.841C818.599,-468.518 959.452,-469.732 1052.84,-470.537"/>
<polygon fill="#9a32cd" stroke="#9a32cd" points="739.938,-464.34 729.909,-467.754 739.878,-471.34 739.938,-464.34"/>
<text text-anchor="middle" x="899.5" y="-473.341" font-family="Helvetica,sans-Serif" font-size="10.00"> m_node</text>
</g>
<!-- Node9 -->
<g id="node9" class="node"><title>Node9</title>
<g id="a_node9"><a xlink:href="classxalanc_1_1XalanDOMString.html" target="_top" xlink:title=" ">
<polygon fill="none" stroke="black" points="276,-397.841 276,-416.841 398,-416.841 398,-397.841 276,-397.841"/>
<text text-anchor="middle" x="337" y="-404.841" font-family="Helvetica,sans-Serif" font-size="10.00">xalanc::XalanDOMString</text>
</a>
</g>
</g>
<!-- Node9&#45;&gt;Node1 -->
<g id="edge8" class="edge"><title>Node9&#45;&gt;Node1</title>
<path fill="none" stroke="#9a32cd" stroke-dasharray="5,2" d="M408.444,-407.067C576.541,-405.648 1014.12,-397.427 1376,-351.341 1384.34,-350.278 1393.05,-348.896 1401.65,-347.361"/>
<polygon fill="#9a32cd" stroke="#9a32cd" points="408.215,-403.569 398.243,-407.148 408.27,-410.569 408.215,-403.569"/>
<text text-anchor="middle" x="899.5" y="-400.341" font-family="Helvetica,sans-Serif" font-size="10.00"> m_currentPattern</text>
</g>
<!-- Node15 -->
<g id="node15" class="node"><title>Node15</title>
<g id="a_node15"><a xlink:href="classxalanc_1_1XalanQName.html" target="_top" xlink:title="Class to represent a qualified name.">
<polygon fill="none" stroke="black" points="627.5,-417.841 627.5,-436.841 734.5,-436.841 734.5,-417.841 627.5,-417.841"/>
<text text-anchor="middle" x="681" y="-424.841" font-family="Helvetica,sans-Serif" font-size="10.00">xalanc::XalanQName</text>
</a>
</g>
</g>
<!-- Node9&#45;&gt;Node15 -->
<g id="edge15" class="edge"><title>Node9&#45;&gt;Node15</title>
<path fill="none" stroke="#9a32cd" stroke-dasharray="5,2" d="M408.522,-411.465C473.541,-415.267 568.592,-420.826 627.256,-424.256"/>
<polygon fill="#9a32cd" stroke="#9a32cd" points="408.543,-407.96 398.355,-410.87 408.134,-414.948 408.543,-407.96"/>
<text text-anchor="middle" x="500" y="-423.341" font-family="Helvetica,sans-Serif" font-size="10.00"> s_emptyString</text>
</g>
<!-- Node10 -->
<g id="node10" class="node"><title>Node10</title>
<g id="a_node10"><a xlink:href="classxalanc_1_1XalanVector.html" target="_top" xlink:title=" ">
<polygon fill="none" stroke="black" points="828,-241.341 828,-271.341 971,-271.341 971,-241.341 828,-241.341"/>
<text text-anchor="start" x="836" y="-259.341" font-family="Helvetica,sans-Serif" font-size="10.00">xalanc::XalanVector</text>
<text text-anchor="middle" x="899.5" y="-248.341" font-family="Helvetica,sans-Serif" font-size="10.00">&lt; const NodeRefListBase * &gt;</text>
</a>
</g>
</g>
<!-- Node10&#45;&gt;Node1 -->
<g id="edge9" class="edge"><title>Node10&#45;&gt;Node1</title>
<path fill="none" stroke="#9a32cd" stroke-dasharray="5,2" d="M981.715,-254.684C1057.78,-254.445 1174.36,-257.448 1274,-274.341 1329.1,-283.682 1390.59,-303.483 1429.75,-317.338"/>
<polygon fill="#9a32cd" stroke="#9a32cd" points="981.238,-251.187 971.256,-254.739 981.274,-258.187 981.238,-251.187"/>
<text text-anchor="middle" x="1147" y="-277.341" font-family="Helvetica,sans-Serif" font-size="10.00"> m_contextNodeListStack</text>
</g>
<!-- Node11 -->
<g id="node11" class="node"><title>Node11</title>
<g id="a_node11"><a xlink:href="classxalanc_1_1XalanVector.html" target="_top" xlink:title=" ">
<polygon fill="none" stroke="black" points="267,-268.341 267,-298.341 407,-298.341 407,-268.341 267,-268.341"/>
<text text-anchor="start" x="275" y="-286.341" font-family="Helvetica,sans-Serif" font-size="10.00">xalanc::XalanVector</text>
<text text-anchor="middle" x="337" y="-275.341" font-family="Helvetica,sans-Serif" font-size="10.00">&lt; Type, ConstructionTraits &gt;</text>
</a>
</g>
</g>
<!-- Node11&#45;&gt;Node10 -->
<g id="edge10" class="edge"><title>Node11&#45;&gt;Node10</title>
<path fill="none" stroke="orange" stroke-dasharray="5,2" d="M417.014,-279.534C526.607,-274.255 723.075,-264.791 827.966,-259.738"/>
<polygon fill="orange" stroke="orange" points="416.829,-276.039 407.009,-280.016 417.166,-283.031 416.829,-276.039"/>
<text text-anchor="middle" x="500" y="-282.341" font-family="Helvetica,sans-Serif" font-size="10.00"> &lt; const NodeRefListBase * &gt;</text>
</g>
<!-- Node18 -->
<g id="node18" class="node"><title>Node18</title>
<g id="a_node18"><a xlink:href="classxalanc_1_1XalanVector.html" target="_top" xlink:title=" ">
<polygon fill="none" stroke="black" points="629.5,-320.341 629.5,-350.341 732.5,-350.341 732.5,-320.341 629.5,-320.341"/>
<text text-anchor="start" x="637.5" y="-338.341" font-family="Helvetica,sans-Serif" font-size="10.00">xalanc::XalanVector</text>
<text text-anchor="middle" x="681" y="-327.341" font-family="Helvetica,sans-Serif" font-size="10.00">&lt; XalanNode * &gt;</text>
</a>
</g>
</g>
<!-- Node11&#45;&gt;Node18 -->
<g id="edge19" class="edge"><title>Node11&#45;&gt;Node18</title>
<path fill="none" stroke="orange" stroke-dasharray="5,2" d="M417.48,-295.425C482.892,-305.371 573.632,-319.168 629.494,-327.661"/>
<polygon fill="orange" stroke="orange" points="417.621,-291.907 407.209,-293.864 416.569,-298.827 417.621,-291.907"/>
<text text-anchor="middle" x="500" y="-320.341" font-family="Helvetica,sans-Serif" font-size="10.00"> &lt; XalanNode * &gt;</text>
</g>
<!-- Node12 -->
<g id="node12" class="node"><title>Node12</title>
<g id="a_node12"><a xlink:href="classxalanc_1_1XalanDOMStringCache.html" target="_top" xlink:title=" ">
<polygon fill="none" stroke="black" points="1072,-209.841 1072,-228.841 1222,-228.841 1222,-209.841 1072,-209.841"/>
<text text-anchor="middle" x="1147" y="-216.841" font-family="Helvetica,sans-Serif" font-size="10.00">xalanc::XalanDOMStringCache</text>
</a>
</g>
</g>
<!-- Node12&#45;&gt;Node1 -->
<g id="edge11" class="edge"><title>Node12&#45;&gt;Node1</title>
<path fill="none" stroke="#9a32cd" stroke-dasharray="5,2" d="M1232.32,-213.832C1276.91,-214.129 1331.48,-219.749 1376,-240.341 1413.1,-257.501 1444.27,-295.643 1459.67,-317.035"/>
<polygon fill="#9a32cd" stroke="#9a32cd" points="1232.08,-210.332 1222.09,-213.854 1232.1,-217.332 1232.08,-210.332"/>
<text text-anchor="middle" x="1334" y="-243.341" font-family="Helvetica,sans-Serif" font-size="10.00"> m_stringCache</text>
</g>
<!-- Node13 -->
<g id="node13" class="node"><title>Node13</title>
<g id="a_node13"><a xlink:href="classxalanc_1_1PrefixResolver.html" target="_top" xlink:title="This class defines an interface for classes that resolve namespace prefixes to their URIs.">
<polygon fill="none" stroke="black" points="1090.5,-171.841 1090.5,-190.841 1203.5,-190.841 1203.5,-171.841 1090.5,-171.841"/>
<text text-anchor="middle" x="1147" y="-178.841" font-family="Helvetica,sans-Serif" font-size="10.00">xalanc::PrefixResolver</text>
</a>
</g>
</g>
<!-- Node13&#45;&gt;Node1 -->
<g id="edge12" class="edge"><title>Node13&#45;&gt;Node1</title>
<path fill="none" stroke="#9a32cd" stroke-dasharray="5,2" d="M1214.12,-173.894C1262.1,-171.638 1326.93,-175.334 1376,-203.341 1422.21,-229.714 1451.98,-289.09 1463.98,-317.129"/>
<polygon fill="#9a32cd" stroke="#9a32cd" points="1213.63,-170.417 1203.84,-174.48 1214.02,-177.405 1213.63,-170.417"/>
<text text-anchor="middle" x="1334" y="-206.341" font-family="Helvetica,sans-Serif" font-size="10.00"> m_prefixResolver</text>
</g>
<!-- Node14 -->
<g id="node14" class="node"><title>Node14</title>
<g id="a_node14"><a xlink:href="classxalanc_1_1XalanQNameByValue.html" target="_top" xlink:title=" ">
<polygon fill="none" stroke="black" points="1075,-417.841 1075,-436.841 1219,-436.841 1219,-417.841 1075,-417.841"/>
<text text-anchor="middle" x="1147" y="-424.841" font-family="Helvetica,sans-Serif" font-size="10.00">xalanc::XalanQNameByValue</text>
</a>
</g>
</g>
<!-- Node14&#45;&gt;Node1 -->
<g id="edge13" class="edge"><title>Node14&#45;&gt;Node1</title>
<path fill="none" stroke="#9a32cd" stroke-dasharray="5,2" d="M1229.39,-429.275C1274.06,-427.779 1329.63,-421.64 1376,-403.341 1407.77,-390.803 1438.09,-364.409 1455.34,-347.572"/>
<polygon fill="#9a32cd" stroke="#9a32cd" points="1229.06,-425.783 1219.16,-429.544 1229.25,-432.78 1229.06,-425.783"/>
<text text-anchor="middle" x="1334" y="-427.341" font-family="Helvetica,sans-Serif" font-size="10.00"> m_scratchQName</text>
</g>
<!-- Node15&#45;&gt;Node14 -->
<g id="edge14" class="edge"><title>Node15&#45;&gt;Node14</title>
<path fill="none" stroke="midnightblue" d="M744.913,-427.341C830.869,-427.341 984.599,-427.341 1074.72,-427.341"/>
<polygon fill="midnightblue" stroke="midnightblue" points="744.775,-423.841 734.775,-427.341 744.775,-430.841 744.775,-423.841"/>
</g>
<!-- Node16 -->
<g id="node16" class="node"><title>Node16</title>
<g id="a_node16"><a xlink:href="classxalanc_1_1NodeRefList.html" target="_top" xlink:title="Local implementation of NodeRefList.">
<polygon fill="none" stroke="black" points="1095,-294.841 1095,-313.841 1199,-313.841 1199,-294.841 1095,-294.841"/>
<text text-anchor="middle" x="1147" y="-301.841" font-family="Helvetica,sans-Serif" font-size="10.00">xalanc::NodeRefList</text>
</a>
</g>
</g>
<!-- Node16&#45;&gt;Node1 -->
<g id="edge16" class="edge"><title>Node16&#45;&gt;Node1</title>
<path fill="none" stroke="#9a32cd" stroke-dasharray="5,2" d="M1209.18,-309.661C1261.61,-314.22 1337.36,-320.807 1393.73,-325.708"/>
<polygon fill="#9a32cd" stroke="#9a32cd" points="1209.29,-306.157 1199.02,-308.777 1208.68,-313.131 1209.29,-306.157"/>
<text text-anchor="middle" x="1334" y="-327.341" font-family="Helvetica,sans-Serif" font-size="10.00"> s_dummyList</text>
</g>
<!-- Node17 -->
<g id="node17" class="node"><title>Node17</title>
<g id="a_node17"><a xlink:href="classxalanc_1_1NodeRefListBase.html" target="_top" xlink:title="Local implementation of NodeRefList.">
<polygon fill="none" stroke="black" points="618,-281.841 618,-300.841 744,-300.841 744,-281.841 618,-281.841"/>
<text text-anchor="middle" x="681" y="-288.841" font-family="Helvetica,sans-Serif" font-size="10.00">xalanc::NodeRefListBase</text>
</a>
</g>
</g>
<!-- Node17&#45;&gt;Node16 -->
<g id="edge17" class="edge"><title>Node17&#45;&gt;Node16</title>
<path fill="none" stroke="midnightblue" d="M754.152,-293.362C848.725,-296.012 1012.27,-300.594 1094.96,-302.911"/>
<polygon fill="midnightblue" stroke="midnightblue" points="754.19,-289.862 744.096,-293.08 753.994,-296.859 754.19,-289.862"/>
</g>
<!-- Node18&#45;&gt;Node1 -->
<g id="edge30" class="edge"><title>Node18&#45;&gt;Node1</title>
<path fill="none" stroke="#9a32cd" stroke-dasharray="5,2" d="M742.762,-335.968C760.268,-336.122 779.392,-336.264 797,-336.341 1054.33,-337.459 1118.72,-341.812 1376,-336.341 1381.8,-336.217 1387.79,-336.051 1393.82,-335.857"/>
<polygon fill="#9a32cd" stroke="#9a32cd" points="742.696,-332.467 732.665,-335.876 742.633,-339.467 742.696,-332.467"/>
<text text-anchor="middle" x="1147" y="-342.341" font-family="Helvetica,sans-Serif" font-size="10.00"> m_currentNodeStack</text>
</g>
<!-- Node18&#45;&gt;Node16 -->
<g id="edge18" class="edge"><title>Node18&#45;&gt;Node16</title>
<path fill="none" stroke="#9a32cd" stroke-dasharray="5,2" d="M742.738,-329.754C760.244,-328.227 779.374,-326.637 797,-325.341 902.787,-317.56 1026.77,-310.616 1094.82,-306.993"/>
<polygon fill="#9a32cd" stroke="#9a32cd" points="742.296,-326.28 732.642,-330.644 742.911,-333.253 742.296,-326.28"/>
<text text-anchor="middle" x="899.5" y="-328.341" font-family="Helvetica,sans-Serif" font-size="10.00"> m_nodeList</text>
</g>
<!-- Node19 -->
<g id="node19" class="node"><title>Node19</title>
<g id="a_node19"><a xlink:href="classxalanc_1_1XalanObjectCache.html" target="_top" xlink:title=" ">
<polygon fill="none" stroke="black" points="1020,-89.8406 1020,-152.841 1274,-152.841 1274,-89.8406 1020,-89.8406"/>
<text text-anchor="start" x="1028" y="-140.841" font-family="Helvetica,sans-Serif" font-size="10.00">xalanc::XalanObjectCache</text>
<text text-anchor="start" x="1028" y="-129.841" font-family="Helvetica,sans-Serif" font-size="10.00">&lt; MutableNodeRefList, DefaultCache</text>
<text text-anchor="start" x="1028" y="-118.841" font-family="Helvetica,sans-Serif" font-size="10.00">CreateFunctorMemMgr&lt; MutableNodeRefList</text>
<text text-anchor="start" x="1028" y="-107.841" font-family="Helvetica,sans-Serif" font-size="10.00"> &gt;, DeleteFunctor&lt; MutableNodeRefList</text>
<text text-anchor="middle" x="1147" y="-96.8406" font-family="Helvetica,sans-Serif" font-size="10.00"> &gt;, ClearCacheResetFunctor&lt; MutableNodeRefList &gt; &gt;</text>
</a>
</g>
</g>
<!-- Node19&#45;&gt;Node1 -->
<g id="edge20" class="edge"><title>Node19&#45;&gt;Node1</title>
<path fill="none" stroke="#9a32cd" stroke-dasharray="5,2" d="M1284.18,-125.891C1316.52,-132.139 1349.34,-143.233 1376,-162.341 1430.83,-201.631 1457.36,-283.29 1466.34,-317.136"/>
<polygon fill="#9a32cd" stroke="#9a32cd" points="1284.62,-122.416 1274.16,-124.105 1283.39,-129.307 1284.62,-122.416"/>
<text text-anchor="middle" x="1334" y="-165.341" font-family="Helvetica,sans-Serif" font-size="10.00"> m_nodeListCache</text>
</g>
<!-- Node20 -->
<g id="node20" class="node"><title>Node20</title>
<g id="a_node20"><a xlink:href="structxalanc_1_1DeleteFunctor.html" target="_top" xlink:title=" ">
<polygon fill="none" stroke="black" points="439,-86.3406 439,-116.341 561,-116.341 561,-86.3406 439,-86.3406"/>
<text text-anchor="start" x="447" y="-104.341" font-family="Helvetica,sans-Serif" font-size="10.00">xalanc::DeleteFunctor</text>
<text text-anchor="middle" x="500" y="-93.3406" font-family="Helvetica,sans-Serif" font-size="10.00">&lt; MutableNodeRefList &gt;</text>
</a>
</g>
</g>
<!-- Node20&#45;&gt;Node19 -->
<g id="edge21" class="edge"><title>Node20&#45;&gt;Node19</title>
<path fill="none" stroke="#9a32cd" stroke-dasharray="5,2" d="M571.186,-103.517C678.672,-106.85 885.659,-113.268 1019.7,-117.424"/>
<polygon fill="#9a32cd" stroke="#9a32cd" points="571.205,-100.016 561.101,-103.204 570.988,-107.013 571.205,-100.016"/>
<text text-anchor="middle" x="681" y="-113.341" font-family="Helvetica,sans-Serif" font-size="10.00"> m_deleteFunctor</text>
</g>
<!-- Node21 -->
<g id="node21" class="node"><title>Node21</title>
<g id="a_node21"><a xlink:href="structxalanc_1_1DeleteFunctor.html" target="_top" xlink:title="Functor to delete objects, used in STL iteration algorithms.">
<polygon fill="none" stroke="black" points="0,-60.3406 0,-90.3406 112,-90.3406 112,-60.3406 0,-60.3406"/>
<text text-anchor="start" x="8" y="-78.3406" font-family="Helvetica,sans-Serif" font-size="10.00">xalanc::DeleteFunctor</text>
<text text-anchor="middle" x="56" y="-67.3406" font-family="Helvetica,sans-Serif" font-size="10.00">&lt; Type &gt;</text>
</a>
</g>
</g>
<!-- Node21&#45;&gt;Node20 -->
<g id="edge22" class="edge"><title>Node21&#45;&gt;Node20</title>
<path fill="none" stroke="orange" stroke-dasharray="5,2" d="M122.18,-79.1747C207.587,-84.1987 356.201,-92.9407 438.973,-97.8096"/>
<polygon fill="orange" stroke="orange" points="122.274,-75.6743 112.086,-78.581 121.863,-82.6622 122.274,-75.6743"/>
<text text-anchor="middle" x="184.5" y="-89.3406" font-family="Helvetica,sans-Serif" font-size="10.00"> &lt; MutableNodeRefList &gt;</text>
</g>
<!-- Node27 -->
<g id="node27" class="node"><title>Node27</title>
<g id="a_node27"><a xlink:href="structxalanc_1_1DeleteFunctor.html" target="_top" xlink:title=" ">
<polygon fill="none" stroke="black" points="281,-34.3406 281,-64.3406 393,-64.3406 393,-34.3406 281,-34.3406"/>
<text text-anchor="start" x="289" y="-52.3406" font-family="Helvetica,sans-Serif" font-size="10.00">xalanc::DeleteFunctor</text>
<text text-anchor="middle" x="337" y="-41.3406" font-family="Helvetica,sans-Serif" font-size="10.00">&lt; ObjectType &gt;</text>
</a>
</g>
</g>
<!-- Node21&#45;&gt;Node27 -->
<g id="edge29" class="edge"><title>Node21&#45;&gt;Node27</title>
<path fill="none" stroke="orange" stroke-dasharray="5,2" d="M122.339,-63.3326C124.923,-62.9759 127.484,-62.6431 130,-62.3406 180.878,-56.225 239.193,-52.8853 280.762,-51.1286"/>
<polygon fill="orange" stroke="orange" points="121.686,-59.8909 112.305,-64.8134 122.708,-66.8159 121.686,-59.8909"/>
<text text-anchor="middle" x="184.5" y="-65.3406" font-family="Helvetica,sans-Serif" font-size="10.00"> &lt; ObjectType &gt;</text>
</g>
<!-- Node22 -->
<g id="node22" class="node"><title>Node22</title>
<g id="a_node22"><a xlink:href="classxalanc_1_1DefaultCacheCreateFunctorMemMgr.html" target="_top" xlink:title=" ">
<polygon fill="none" stroke="black" points="584.5,-192.341 584.5,-222.341 777.5,-222.341 777.5,-192.341 584.5,-192.341"/>
<text text-anchor="start" x="592.5" y="-210.341" font-family="Helvetica,sans-Serif" font-size="10.00">xalanc::DefaultCacheCreate</text>
<text text-anchor="middle" x="681" y="-199.341" font-family="Helvetica,sans-Serif" font-size="10.00">FunctorMemMgr&lt; MutableNodeRefList &gt;</text>
</a>
</g>
</g>
<!-- Node22&#45;&gt;Node19 -->
<g id="edge23" class="edge"><title>Node22&#45;&gt;Node19</title>
<path fill="none" stroke="#9a32cd" stroke-dasharray="5,2" d="M787.835,-197.331C850.522,-190.358 931.271,-179.555 1002,-164.341 1016.92,-161.131 1032.54,-157.143 1047.77,-152.899"/>
<polygon fill="#9a32cd" stroke="#9a32cd" points="787.098,-193.89 777.539,-198.46 787.861,-200.849 787.098,-193.89"/>
<text text-anchor="middle" x="899.5" y="-199.341" font-family="Helvetica,sans-Serif" font-size="10.00"> m_createFunctor</text>
</g>
<!-- Node23 -->
<g id="node23" class="node"><title>Node23</title>
<g id="a_node23"><a xlink:href="classxalanc_1_1DefaultCacheCreateFunctorMemMgr.html" target="_top" xlink:title=" ">
<polygon fill="none" stroke="black" points="259.5,-192.341 259.5,-222.341 414.5,-222.341 414.5,-192.341 259.5,-192.341"/>
<text text-anchor="start" x="267.5" y="-210.341" font-family="Helvetica,sans-Serif" font-size="10.00">xalanc::DefaultCacheCreate</text>
<text text-anchor="middle" x="337" y="-199.341" font-family="Helvetica,sans-Serif" font-size="10.00">FunctorMemMgr&lt; ObjectType &gt;</text>
</a>
</g>
</g>
<!-- Node23&#45;&gt;Node22 -->
<g id="edge24" class="edge"><title>Node23&#45;&gt;Node22</title>
<path fill="none" stroke="orange" stroke-dasharray="5,2" d="M424.936,-207.341C473.562,-207.341 534.259,-207.341 584.243,-207.341"/>
<polygon fill="orange" stroke="orange" points="424.752,-203.841 414.751,-207.341 424.751,-210.841 424.752,-203.841"/>
<text text-anchor="middle" x="500" y="-210.341" font-family="Helvetica,sans-Serif" font-size="10.00"> &lt; MutableNodeRefList &gt;</text>
</g>
<!-- Node24 -->
<g id="node24" class="node"><title>Node24</title>
<g id="a_node24"><a xlink:href="classxalanc_1_1ClearCacheResetFunctor.html" target="_top" xlink:title=" ">
<polygon fill="none" stroke="black" points="601,-143.341 601,-173.341 761,-173.341 761,-143.341 601,-143.341"/>
<text text-anchor="start" x="609" y="-161.341" font-family="Helvetica,sans-Serif" font-size="10.00">xalanc::ClearCacheResetFunctor</text>
<text text-anchor="middle" x="681" y="-150.341" font-family="Helvetica,sans-Serif" font-size="10.00">&lt; MutableNodeRefList &gt;</text>
</a>
</g>
</g>
<!-- Node24&#45;&gt;Node19 -->
<g id="edge25" class="edge"><title>Node24&#45;&gt;Node19</title>
<path fill="none" stroke="#9a32cd" stroke-dasharray="5,2" d="M771.431,-151.209C841.971,-145.584 941.231,-137.669 1019.85,-131.4"/>
<polygon fill="#9a32cd" stroke="#9a32cd" points="770.927,-147.738 761.237,-152.022 771.484,-154.716 770.927,-147.738"/>
<text text-anchor="middle" x="899.5" y="-152.341" font-family="Helvetica,sans-Serif" font-size="10.00"> m_resetFunctor</text>
</g>
<!-- Node25 -->
<g id="node25" class="node"><title>Node25</title>
<g id="a_node25"><a xlink:href="classxalanc_1_1ClearCacheResetFunctor.html" target="_top" xlink:title=" ">
<polygon fill="none" stroke="black" points="257,-143.341 257,-173.341 417,-173.341 417,-143.341 257,-143.341"/>
<text text-anchor="start" x="265" y="-161.341" font-family="Helvetica,sans-Serif" font-size="10.00">xalanc::ClearCacheResetFunctor</text>
<text text-anchor="middle" x="337" y="-150.341" font-family="Helvetica,sans-Serif" font-size="10.00">&lt; ObjectType &gt;</text>
</a>
</g>
</g>
<!-- Node25&#45;&gt;Node24 -->
<g id="edge26" class="edge"><title>Node25&#45;&gt;Node24</title>
<path fill="none" stroke="orange" stroke-dasharray="5,2" d="M427.53,-158.341C481.273,-158.341 549.028,-158.341 600.813,-158.341"/>
<polygon fill="orange" stroke="orange" points="427.321,-154.841 417.321,-158.341 427.321,-161.841 427.321,-154.841"/>
<text text-anchor="middle" x="500" y="-161.341" font-family="Helvetica,sans-Serif" font-size="10.00"> &lt; MutableNodeRefList &gt;</text>
</g>
<!-- Node26 -->
<g id="node26" class="node"><title>Node26</title>
<g id="a_node26"><a xlink:href="classxalanc_1_1XalanObjectCache.html" target="_top" xlink:title=" ">
<polygon fill="none" stroke="black" points="583,-23.8406 583,-64.8406 779,-64.8406 779,-23.8406 583,-23.8406"/>
<text text-anchor="start" x="591" y="-52.8406" font-family="Helvetica,sans-Serif" font-size="10.00">xalanc::XalanObjectCache</text>
<text text-anchor="start" x="591" y="-41.8406" font-family="Helvetica,sans-Serif" font-size="10.00">&lt; ObjectType, CreateFunctorType,</text>
<text text-anchor="middle" x="681" y="-30.8406" font-family="Helvetica,sans-Serif" font-size="10.00"> DeleteFunctorType, ResetFunctorType &gt;</text>
</a>
</g>
</g>
<!-- Node26&#45;&gt;Node19 -->
<g id="edge27" class="edge"><title>Node26&#45;&gt;Node19</title>
<path fill="none" stroke="orange" stroke-dasharray="5,2" d="M748.169,-20.7925C817.729,-0.541588 927.245,18.0799 1002,-33.3406 1020.43,-46.0173 1003.78,-64.9335 1020,-80.3406 1023.59,-83.7473 1027.46,-86.8709 1031.54,-89.735"/>
<polygon fill="orange" stroke="orange" points="746.776,-17.5563 738.205,-23.784 748.789,-24.2607 746.776,-17.5563"/>
<text text-anchor="start" x="797" y="-91.3406" font-family="Helvetica,sans-Serif" font-size="10.00"> &lt; MutableNodeRefList,</text>
<text text-anchor="start" x="797" y="-80.3406" font-family="Helvetica,sans-Serif" font-size="10.00"> DefaultCacheCreateFunctorMem</text>
<text text-anchor="start" x="797" y="-69.3406" font-family="Helvetica,sans-Serif" font-size="10.00">Mgr&lt; MutableNodeRefList &gt;,</text>
<text text-anchor="start" x="797" y="-58.3406" font-family="Helvetica,sans-Serif" font-size="10.00"> DeleteFunctor&lt; MutableNodeRefList</text>
<text text-anchor="start" x="797" y="-47.3406" font-family="Helvetica,sans-Serif" font-size="10.00"> &gt;, ClearCacheResetFunctor&lt; MutableNodeRef</text>
<text text-anchor="middle" x="899.5" y="-36.3406" font-family="Helvetica,sans-Serif" font-size="10.00">List &gt; &gt;</text>
</g>
<!-- Node27&#45;&gt;Node26 -->
<g id="edge28" class="edge"><title>Node27&#45;&gt;Node26</title>
<path fill="none" stroke="#9a32cd" stroke-dasharray="5,2" d="M403.529,-48.3826C454.342,-47.6397 525.542,-46.5988 582.961,-45.7593"/>
<polygon fill="#9a32cd" stroke="#9a32cd" points="403.276,-44.8858 393.328,-48.5317 403.378,-51.8851 403.276,-44.8858"/>
<text text-anchor="middle" x="500" y="-51.3406" font-family="Helvetica,sans-Serif" font-size="10.00"> m_deleteFunctor</text>
</g>
<!-- Node28 -->
<g id="node28" class="node"><title>Node28</title>
<g id="a_node28"><a xlink:href="classxalanc_1_1DOMSupport.html" target="_top" xlink:title=" ">
<polygon fill="none" stroke="black" points="1093.5,-51.8406 1093.5,-70.8406 1200.5,-70.8406 1200.5,-51.8406 1093.5,-51.8406"/>
<text text-anchor="middle" x="1147" y="-58.8406" font-family="Helvetica,sans-Serif" font-size="10.00">xalanc::DOMSupport</text>
</a>
</g>
</g>
<!-- Node28&#45;&gt;Node1 -->
<g id="edge31" class="edge"><title>Node28&#45;&gt;Node1</title>
<path fill="none" stroke="#9a32cd" stroke-dasharray="5,2" d="M1211.07,-59.9268C1261.71,-62.1915 1331.47,-73.458 1376,-114.341 1438.54,-171.761 1461.3,-277.93 1467.8,-317.212"/>
<polygon fill="#9a32cd" stroke="#9a32cd" points="1211.01,-56.4227 1200.89,-59.5802 1210.77,-63.4186 1211.01,-56.4227"/>
<text text-anchor="middle" x="1334" y="-117.341" font-family="Helvetica,sans-Serif" font-size="10.00"> m_domSupport</text>
</g>
<!-- Node29&#45;&gt;Node1 -->
<g id="edge32" class="edge"><title>Node29&#45;&gt;Node1</title>
<path fill="none" stroke="#9a32cd" stroke-dasharray="5,2" d="M958.013,-575.462C1054.91,-590.752 1252.22,-606.629 1376,-512.341 1432.51,-469.294 1458.3,-382.495 1466.72,-347.488"/>
<polygon fill="#9a32cd" stroke="#9a32cd" points="958.544,-572.003 948.11,-573.846 957.416,-578.911 958.544,-572.003"/>
<text text-anchor="middle" x="1147" y="-589.341" font-family="Helvetica,sans-Serif" font-size="10.00"> m_xpathEnvSupport</text>
</g>
</g>
</svg>
