<?xml version="1.0" encoding="UTF-8" standalone="no"?>
<!DOCTYPE svg PUBLIC "-//W3C//DTD SVG 1.1//EN"
 "http://www.w3.org/Graphics/SVG/1.1/DTD/svg11.dtd">
<!-- Generated by graphviz version 2.38.0 (20140413.2041)
 -->
<!-- Title: xalanc::XalanXPathException Pages: 1 -->
<!--zoomable 284 -->
<svg id="main" version="1.1" xmlns="http://www.w3.org/2000/svg" xmlns:xlink="http://www.w3.org/1999/xlink" xml:space="preserve" onload="init(evt)">
<style type="text/css"><![CDATA[
.edge:hover path { stroke: red; }
.edge:hover polygon { stroke: red; fill: red; }
]]></style>
<script type="text/javascript"><![CDATA[
var edges = document.getElementsByTagName('g');
if (edges && edges.length) {
  for (var i=0;i<edges.length;i++) {
    if (edges[i].id.substr(0,4)=='edge') {
      edges[i].setAttribute('class','edge');
    }
  }
}
]]></script>
        <defs>
                <circle id="rim" cx="0" cy="0" r="7"/>
                <circle id="rim2" cx="0" cy="0" r="3.5"/>
                <g id="zoomPlus">
                        <use xlink:href="#rim" fill="#404040">
                                <set attributeName="fill" to="#808080" begin="zoomplus.mouseover" end="zoomplus.mouseout"/>
                        </use>
                        <path d="M-4,0h8M0,-4v8" fill="none" stroke="white" stroke-width="1.5" pointer-events="none"/>
                </g>
                <g id="zoomMin">
                        <use xlink:href="#rim" fill="#404040">
                                <set attributeName="fill" to="#808080" begin="zoomminus.mouseover" end="zoomminus.mouseout"/>
                        </use>
                        <path d="M-4,0h8" fill="none" stroke="white" stroke-width="1.5" pointer-events="none"/>
                </g>
                <g id="dirArrow">
                        <path fill="none" stroke="white" stroke-width="1.5" d="M0,-3.0v7 M-2.5,-0.5L0,-3.0L2.5,-0.5"/>
                </g>
               <g id="resetDef">
                       <use xlink:href="#rim2" fill="#404040">
                               <set attributeName="fill" to="#808080" begin="reset.mouseover" end="reset.mouseout"/>
                       </use>
               </g>
        </defs>

<script type="text/javascript">
var viewWidth = 689;
var viewHeight = 284;
var sectionId = 'dynsection-0';
</script>
<script xlink:href="svgpan.js"/>
<svg id="graph" class="graph">
<g id="viewport">
<title>xalanc::XalanXPathException</title>
<!-- Node1 -->
<g id="node1" class="node"><title>Node1</title>
<g id="a_node1"><a xlink:title=" ">
<polygon fill="#bfbfbf" stroke="black" points="148,-128 148,-147 291,-147 291,-128 148,-128"/>
<text text-anchor="middle" x="219.5" y="-135" font-family="Helvetica,sans-Serif" font-size="10.00">xalanc::XalanXPathException</text>
</a>
</g>
</g>
<!-- Node3 -->
<g id="node3" class="node"><title>Node3</title>
<g id="a_node3"><a xlink:href="classxalanc_1_1XalanQName_1_1InvalidQNameException.html" target="_top" xlink:title=" ">
<polygon fill="none" stroke="black" points="343.5,-245.5 343.5,-275.5 468.5,-275.5 468.5,-245.5 343.5,-245.5"/>
<text text-anchor="start" x="351.5" y="-263.5" font-family="Helvetica,sans-Serif" font-size="10.00">xalanc::XalanQName</text>
<text text-anchor="middle" x="406" y="-252.5" font-family="Helvetica,sans-Serif" font-size="10.00">::InvalidQNameException</text>
</a>
</g>
</g>
<!-- Node1&#45;&gt;Node3 -->
<g id="edge2" class="edge"><title>Node1&#45;&gt;Node3</title>
<path fill="none" stroke="midnightblue" d="M234.968,-154.818C253.989,-176.555 289.423,-213.633 327,-235.5 333.514,-239.291 340.674,-242.583 347.934,-245.422"/>
<polygon fill="midnightblue" stroke="midnightblue" points="237.463,-152.352 228.294,-147.045 232.152,-156.912 237.463,-152.352"/>
</g>
<!-- Node4 -->
<g id="node4" class="node"><title>Node4</title>
<g id="a_node4"><a xlink:href="classxalanc_1_1XObject_1_1XObjectException.html" target="_top" xlink:title=" ">
<polygon fill="none" stroke="black" points="343.5,-196.5 343.5,-226.5 468.5,-226.5 468.5,-196.5 343.5,-196.5"/>
<text text-anchor="start" x="351.5" y="-214.5" font-family="Helvetica,sans-Serif" font-size="10.00">xalanc::XObject::XObject</text>
<text text-anchor="middle" x="406" y="-203.5" font-family="Helvetica,sans-Serif" font-size="10.00">Exception</text>
</a>
</g>
</g>
<!-- Node1&#45;&gt;Node4 -->
<g id="edge3" class="edge"><title>Node1&#45;&gt;Node4</title>
<path fill="none" stroke="midnightblue" d="M248.538,-151.532C269.784,-161.886 299.856,-175.95 327,-186.5 335.88,-189.951 345.455,-193.309 354.753,-196.385"/>
<polygon fill="midnightblue" stroke="midnightblue" points="249.957,-148.33 239.439,-147.061 246.871,-154.612 249.957,-148.33"/>
</g>
<!-- Node6 -->
<g id="node6" class="node"><title>Node6</title>
<g id="a_node6"><a xlink:href="classxalanc_1_1XPathExceptionFunctionNotAvailable.html" target="_top" xlink:title="Exception class thrown when an unknown function is encountered.">
<polygon fill="none" stroke="black" points="327,-147.5 327,-177.5 485,-177.5 485,-147.5 327,-147.5"/>
<text text-anchor="start" x="335" y="-165.5" font-family="Helvetica,sans-Serif" font-size="10.00">xalanc::XPathExceptionFunction</text>
<text text-anchor="middle" x="406" y="-154.5" font-family="Helvetica,sans-Serif" font-size="10.00">NotAvailable</text>
</a>
</g>
</g>
<!-- Node1&#45;&gt;Node6 -->
<g id="edge5" class="edge"><title>Node1&#45;&gt;Node6</title>
<path fill="none" stroke="midnightblue" d="M300.847,-148.387C309.497,-149.559 318.288,-150.75 326.91,-151.919"/>
<polygon fill="midnightblue" stroke="midnightblue" points="301.157,-144.897 290.778,-147.023 300.217,-151.834 301.157,-144.897"/>
</g>
<!-- Node7 -->
<g id="node7" class="node"><title>Node7</title>
<g id="a_node7"><a xlink:href="classxalanc_1_1XPathExceptionFunctionNotSupported.html" target="_top" xlink:title="Exception class thrown when an installFunction() is called with a function name that is not supported...">
<polygon fill="none" stroke="black" points="327,-98.5 327,-128.5 485,-128.5 485,-98.5 327,-98.5"/>
<text text-anchor="start" x="335" y="-116.5" font-family="Helvetica,sans-Serif" font-size="10.00">xalanc::XPathExceptionFunction</text>
<text text-anchor="middle" x="406" y="-105.5" font-family="Helvetica,sans-Serif" font-size="10.00">NotSupported</text>
</a>
</g>
</g>
<!-- Node1&#45;&gt;Node7 -->
<g id="edge6" class="edge"><title>Node1&#45;&gt;Node7</title>
<path fill="none" stroke="midnightblue" d="M301.011,-127.027C309.573,-125.913 318.272,-124.782 326.807,-123.671"/>
<polygon fill="midnightblue" stroke="midnightblue" points="300.506,-123.563 291.041,-128.324 301.409,-130.505 300.506,-123.563"/>
</g>
<!-- Node8 -->
<g id="node8" class="node"><title>Node8</title>
<g id="a_node8"><a xlink:href="classxalanc_1_1XPathExpression_1_1XPathExpressionException.html" target="_top" xlink:title="Exception class thrown when an invalid XPath expression is encountered.">
<polygon fill="none" stroke="black" points="336,-49.5 336,-79.5 476,-79.5 476,-49.5 336,-49.5"/>
<text text-anchor="start" x="344" y="-67.5" font-family="Helvetica,sans-Serif" font-size="10.00">xalanc::XPathExpression</text>
<text text-anchor="middle" x="406" y="-56.5" font-family="Helvetica,sans-Serif" font-size="10.00">::XPathExpressionException</text>
</a>
</g>
</g>
<!-- Node1&#45;&gt;Node8 -->
<g id="edge7" class="edge"><title>Node1&#45;&gt;Node8</title>
<path fill="none" stroke="midnightblue" d="M248.502,-123.376C269.731,-112.974 299.795,-98.8912 327,-88.5 335.206,-85.3656 344.012,-82.3417 352.647,-79.5587"/>
<polygon fill="midnightblue" stroke="midnightblue" points="246.825,-120.3 239.412,-127.869 249.928,-126.575 246.825,-120.3"/>
</g>
<!-- Node12 -->
<g id="node12" class="node"><title>Node12</title>
<g id="a_node12"><a xlink:href="classxalanc_1_1XPathParserException.html" target="_top" xlink:title="Exception class thrown when a problem parsing an XPath is encountered.">
<polygon fill="none" stroke="black" points="331.5,-11 331.5,-30 480.5,-30 480.5,-11 331.5,-11"/>
<text text-anchor="middle" x="406" y="-18" font-family="Helvetica,sans-Serif" font-size="10.00">xalanc::XPathParserException</text>
</a>
</g>
</g>
<!-- Node1&#45;&gt;Node12 -->
<g id="edge11" class="edge"><title>Node1&#45;&gt;Node12</title>
<path fill="none" stroke="midnightblue" d="M234.73,-119.756C253.499,-97.5684 288.668,-60.0148 327,-39.5 334.25,-35.6198 342.302,-32.519 350.4,-30.0443"/>
<polygon fill="midnightblue" stroke="midnightblue" points="231.832,-117.767 228.153,-127.703 237.225,-122.23 231.832,-117.767"/>
</g>
<!-- Node2 -->
<g id="node2" class="node"><title>Node2</title>
<g id="a_node2"><a xlink:href="classxalanc_1_1XSLException.html" target="_top" xlink:title=" ">
<polygon fill="none" stroke="black" points="0,-128 0,-147 112,-147 112,-128 0,-128"/>
<text text-anchor="middle" x="56" y="-135" font-family="Helvetica,sans-Serif" font-size="10.00">xalanc::XSLException</text>
</a>
</g>
</g>
<!-- Node2&#45;&gt;Node1 -->
<g id="edge1" class="edge"><title>Node2&#45;&gt;Node1</title>
<path fill="none" stroke="midnightblue" d="M122.28,-137.5C130.72,-137.5 139.394,-137.5 147.915,-137.5"/>
<polygon fill="midnightblue" stroke="midnightblue" points="122.127,-134 112.127,-137.5 122.127,-141 122.127,-134"/>
</g>
<!-- Node5 -->
<g id="node5" class="node"><title>Node5</title>
<g id="a_node5"><a xlink:href="classxalanc_1_1XObject_1_1XObjectInvalidConversionException.html" target="_top" xlink:title=" ">
<polygon fill="none" stroke="black" points="534,-196.5 534,-226.5 668,-226.5 668,-196.5 534,-196.5"/>
<text text-anchor="start" x="542" y="-214.5" font-family="Helvetica,sans-Serif" font-size="10.00">xalanc::XObject::XObject</text>
<text text-anchor="middle" x="601" y="-203.5" font-family="Helvetica,sans-Serif" font-size="10.00">InvalidConversionException</text>
</a>
</g>
</g>
<!-- Node4&#45;&gt;Node5 -->
<g id="edge4" class="edge"><title>Node4&#45;&gt;Node5</title>
<path fill="none" stroke="midnightblue" d="M478.789,-211.5C496.874,-211.5 516.202,-211.5 533.988,-211.5"/>
<polygon fill="midnightblue" stroke="midnightblue" points="478.597,-208 468.597,-211.5 478.597,-215 478.597,-208"/>
</g>
<!-- Node9 -->
<g id="node9" class="node"><title>Node9</title>
<g id="a_node9"><a xlink:href="classxalanc_1_1XPathExpression_1_1InvalidArgumentCountException.html" target="_top" xlink:title="Exception class thrown when an invalid number of XPath arguments is encountered.">
<polygon fill="none" stroke="black" points="521,-98.5 521,-128.5 681,-128.5 681,-98.5 521,-98.5"/>
<text text-anchor="start" x="529" y="-116.5" font-family="Helvetica,sans-Serif" font-size="10.00">xalanc::XPathExpression</text>
<text text-anchor="middle" x="601" y="-105.5" font-family="Helvetica,sans-Serif" font-size="10.00">::InvalidArgumentCountException</text>
</a>
</g>
</g>
<!-- Node8&#45;&gt;Node9 -->
<g id="edge8" class="edge"><title>Node8&#45;&gt;Node9</title>
<path fill="none" stroke="midnightblue" d="M476.125,-82.0498C497.319,-87.4306 520.433,-93.299 540.894,-98.4938"/>
<polygon fill="midnightblue" stroke="midnightblue" points="476.772,-78.6031 466.218,-79.5346 475.049,-85.3879 476.772,-78.6031"/>
</g>
<!-- Node10 -->
<g id="node10" class="node"><title>Node10</title>
<g id="a_node10"><a xlink:href="classxalanc_1_1XPathExpression_1_1InvalidArgumentException.html" target="_top" xlink:title="Exception class thrown when an invalid XPath argument is encountered.">
<polygon fill="none" stroke="black" points="534,-49.5 534,-79.5 668,-79.5 668,-49.5 534,-49.5"/>
<text text-anchor="start" x="542" y="-67.5" font-family="Helvetica,sans-Serif" font-size="10.00">xalanc::XPathExpression</text>
<text text-anchor="middle" x="601" y="-56.5" font-family="Helvetica,sans-Serif" font-size="10.00">::InvalidArgumentException</text>
</a>
</g>
</g>
<!-- Node8&#45;&gt;Node10 -->
<g id="edge9" class="edge"><title>Node8&#45;&gt;Node10</title>
<path fill="none" stroke="midnightblue" d="M486.406,-64.5C502.206,-64.5 518.637,-64.5 533.933,-64.5"/>
<polygon fill="midnightblue" stroke="midnightblue" points="486.132,-61.0001 476.132,-64.5 486.132,-68.0001 486.132,-61.0001"/>
</g>
<!-- Node11 -->
<g id="node11" class="node"><title>Node11</title>
<g id="a_node11"><a xlink:href="classxalanc_1_1XPathExpression_1_1InvalidOpCodeException.html" target="_top" xlink:title="Exception class thrown when an invalid XPath operation code is encountered.">
<polygon fill="none" stroke="black" points="537,-0.5 537,-30.5 665,-30.5 665,-0.5 537,-0.5"/>
<text text-anchor="start" x="545" y="-18.5" font-family="Helvetica,sans-Serif" font-size="10.00">xalanc::XPathExpression</text>
<text text-anchor="middle" x="601" y="-7.5" font-family="Helvetica,sans-Serif" font-size="10.00">::InvalidOpCodeException</text>
</a>
</g>
</g>
<!-- Node8&#45;&gt;Node11 -->
<g id="edge10" class="edge"><title>Node8&#45;&gt;Node11</title>
<path fill="none" stroke="midnightblue" d="M476.125,-46.9502C497.319,-41.5694 520.433,-35.701 540.894,-30.5062"/>
<polygon fill="midnightblue" stroke="midnightblue" points="475.049,-43.6121 466.218,-49.4654 476.772,-50.3969 475.049,-43.6121"/>
</g>
</g>
</svg>
        <g id="navigator" transform="translate(0 0)" fill="#404254">
                <rect fill="#f2f5e9" fill-opacity="0.5" stroke="#606060" stroke-width=".5" x="0" y="0" width="60" height="60"/>
                <use id="zoomplus" xlink:href="#zoomPlus" x="17" y="9" onmousedown="handleZoom(evt,'in')"/>
                <use id="zoomminus" xlink:href="#zoomMin" x="42" y="9" onmousedown="handleZoom(evt,'out')"/>
                <use id="reset" xlink:href="#resetDef" x="30" y="36" onmousedown="handleReset()"/>
                <g id="arrowUp" xlink:href="#dirArrow" transform="translate(30 24)" onmousedown="handlePan(0,-1)">
                  <use xlink:href="#rim" fill="#404040">
                        <set attributeName="fill" to="#808080" begin="arrowUp.mouseover" end="arrowUp.mouseout"/>
                  </use>
                  <path fill="none" stroke="white" stroke-width="1.5" d="M0,-3.0v7 M-2.5,-0.5L0,-3.0L2.5,-0.5"/>
                </g>
                <g id="arrowRight" xlink:href="#dirArrow" transform="rotate(90) translate(36 -43)" onmousedown="handlePan(1,0)">
                  <use xlink:href="#rim" fill="#404040">
                        <set attributeName="fill" to="#808080" begin="arrowRight.mouseover" end="arrowRight.mouseout"/>
                  </use>
                  <path fill="none" stroke="white" stroke-width="1.5" d="M0,-3.0v7 M-2.5,-0.5L0,-3.0L2.5,-0.5"/>
                </g>
                <g id="arrowDown" xlink:href="#dirArrow" transform="rotate(180) translate(-30 -48)" onmousedown="handlePan(0,1)">
                  <use xlink:href="#rim" fill="#404040">
                        <set attributeName="fill" to="#808080" begin="arrowDown.mouseover" end="arrowDown.mouseout"/>
                  </use>
                  <path fill="none" stroke="white" stroke-width="1.5" d="M0,-3.0v7 M-2.5,-0.5L0,-3.0L2.5,-0.5"/>
                </g>
                <g id="arrowLeft" xlink:href="#dirArrow" transform="rotate(270) translate(-36 17)" onmousedown="handlePan(-1,0)">
                  <use xlink:href="#rim" fill="#404040">
                        <set attributeName="fill" to="#808080" begin="arrowLeft.mouseover" end="arrowLeft.mouseout"/>
                  </use>
                  <path fill="none" stroke="white" stroke-width="1.5" d="M0,-3.0v7 M-2.5,-0.5L0,-3.0L2.5,-0.5"/>
                </g>
        </g>
        <svg viewBox="0 0 15 15" width="100%" height="30px" preserveAspectRatio="xMaxYMin meet">
         <g id="arrow_out" transform="scale(0.3 0.3)">
          <a xlink:href="classxalanc_1_1XalanXPathException__inherit__graph_org.svg" target="_base">
           <rect id="button" ry="5" rx="5" y="6" x="6" height="38" width="38"
                fill="#f2f5e9" fill-opacity="0.5" stroke="#606060" stroke-width="1.0"/>
           <path id="arrow"
             d="M 11.500037,31.436501 C 11.940474,20.09759 22.043105,11.32322 32.158766,21.979434 L 37.068811,17.246167 C 37.068811,17.246167 37.088388,32 37.088388,32 L 22.160133,31.978069 C 22.160133,31.978069 26.997745,27.140456 26.997745,27.140456 C 18.528582,18.264221 13.291696,25.230495 11.500037,31.436501 z"
             style="fill:#404040;"/>
          </a>
         </g>
        </svg>
</svg>
