<?xml version="1.0" encoding="UTF-8" standalone="no"?>
<!DOCTYPE svg PUBLIC "-//W3C//DTD SVG 1.1//EN"
 "http://www.w3.org/Graphics/SVG/1.1/DTD/svg11.dtd">
<!-- Generated by graphviz version 2.43.0 (0)
 -->
<!-- Title: xalanc::XalanList&lt; Type &gt; Pages: 1 -->
<svg width="483pt" height="736pt"
 viewBox="0.00 0.00 483.00 735.86" xmlns="http://www.w3.org/2000/svg" xmlns:xlink="http://www.w3.org/1999/xlink">
<g id="graph0" class="graph" transform="scale(1 1) rotate(0) translate(4 731.86)">
<title>xalanc::XalanList&lt; Type &gt;</title>
<!-- Node1 -->
<g id="node1" class="node">
<title>Node1</title>
<g id="a_node1"><a xlink:title="Xalan implementation of a doubly linked list.">
<polygon fill="#bfbfbf" stroke="black" points="0,-349.86 0,-379.86 108,-379.86 108,-349.86 0,-349.86"/>
<text text-anchor="start" x="8" y="-367.86" font-family="Helvetica,sans-Serif" font-size="10.00">xalanc::XalanList&lt;</text>
<text text-anchor="middle" x="54" y="-356.86" font-family="Helvetica,sans-Serif" font-size="10.00"> Type &gt;</text>
</a>
</g>
</g>
<!-- Node2 -->
<g id="node2" class="node">
<title>Node2</title>
<g id="a_node2"><a xlink:href="classxalanc_1_1XalanList.html" target="_top" xlink:title=" ">
<polygon fill="none" stroke="black" points="327,-667.36 327,-708.36 452,-708.36 452,-667.36 327,-667.36"/>
<text text-anchor="start" x="335" y="-696.36" font-family="Helvetica,sans-Serif" font-size="10.00">xalanc::XalanList&lt;</text>
<text text-anchor="start" x="335" y="-685.36" font-family="Helvetica,sans-Serif" font-size="10.00"> ReusableArenaBlock</text>
<text text-anchor="middle" x="389.5" y="-674.36" font-family="Helvetica,sans-Serif" font-size="10.00">&lt; nodeset_type &gt; * &gt;</text>
</a>
</g>
</g>
<!-- Node1&#45;&gt;Node2 -->
<g id="edge1" class="edge">
<title>Node1&#45;&gt;Node2</title>
<path fill="none" stroke="orange" stroke-dasharray="5,2" d="M57.22,-390.16C63.55,-455.93 84,-629.66 126,-665.86 180.82,-713.11 268.17,-710.35 326.89,-701.36"/>
<polygon fill="orange" stroke="orange" points="60.68,-389.51 56.26,-379.88 53.71,-390.16 60.68,-389.51"/>
<text text-anchor="start" x="148.5" y="-719.86" font-family="Helvetica,sans-Serif" font-size="10.00"> &lt; ReusableArenaBlock</text>
<text text-anchor="middle" x="206" y="-708.86" font-family="Helvetica,sans-Serif" font-size="10.00">&lt; nodeset_type &gt; * &gt;</text>
</g>
<!-- Node3 -->
<g id="node3" class="node">
<title>Node3</title>
<g id="a_node3"><a xlink:href="classxalanc_1_1XalanList.html" target="_top" xlink:title=" ">
<polygon fill="none" stroke="black" points="329.5,-607.36 329.5,-648.36 449.5,-648.36 449.5,-607.36 329.5,-607.36"/>
<text text-anchor="start" x="337.5" y="-636.36" font-family="Helvetica,sans-Serif" font-size="10.00">xalanc::XalanList&lt;</text>
<text text-anchor="start" x="337.5" y="-625.36" font-family="Helvetica,sans-Serif" font-size="10.00"> ReusableArenaBlock</text>
<text text-anchor="middle" x="389.5" y="-614.36" font-family="Helvetica,sans-Serif" font-size="10.00">&lt; ObjectType &gt; * &gt;</text>
</a>
</g>
</g>
<!-- Node1&#45;&gt;Node3 -->
<g id="edge2" class="edge">
<title>Node1&#45;&gt;Node3</title>
<path fill="none" stroke="orange" stroke-dasharray="5,2" d="M54.27,-390.02C54.36,-439.02 62.23,-547.03 126,-599.86 182.47,-646.64 270.89,-645.89 329.27,-638.74"/>
<polygon fill="orange" stroke="orange" points="57.77,-390 54.36,-379.97 50.77,-389.94 57.77,-390"/>
<text text-anchor="start" x="148.5" y="-655.86" font-family="Helvetica,sans-Serif" font-size="10.00"> &lt; ReusableArenaBlock</text>
<text text-anchor="middle" x="206" y="-644.86" font-family="Helvetica,sans-Serif" font-size="10.00">&lt; ObjectType &gt; * &gt;</text>
</g>
<!-- Node4 -->
<g id="node4" class="node">
<title>Node4</title>
<g id="a_node4"><a xlink:href="classxalanc_1_1XalanList.html" target="_top" xlink:title=" ">
<polygon fill="none" stroke="black" points="323,-557.86 323,-587.86 456,-587.86 456,-557.86 323,-557.86"/>
<text text-anchor="start" x="331" y="-575.86" font-family="Helvetica,sans-Serif" font-size="10.00">xalanc::XalanList&lt;</text>
<text text-anchor="middle" x="389.5" y="-564.86" font-family="Helvetica,sans-Serif" font-size="10.00"> CollationCacheStruct &gt;</text>
</a>
</g>
</g>
<!-- Node1&#45;&gt;Node4 -->
<g id="edge3" class="edge">
<title>Node1&#45;&gt;Node4</title>
<path fill="none" stroke="orange" stroke-dasharray="5,2" d="M57.03,-390.11C61.7,-429.87 76.92,-506.43 126,-543.86 181.96,-586.55 265.19,-588.47 322.87,-583.17"/>
<polygon fill="orange" stroke="orange" points="60.49,-389.51 55.98,-379.93 53.53,-390.24 60.49,-389.51"/>
<text text-anchor="middle" x="206" y="-587.86" font-family="Helvetica,sans-Serif" font-size="10.00"> &lt; CollationCacheStruct &gt;</text>
</g>
<!-- Node5 -->
<g id="node5" class="node">
<title>Node5</title>
<g id="a_node5"><a xlink:href="classxalanc_1_1XalanList.html" target="_top" xlink:title=" ">
<polygon fill="none" stroke="black" points="335.5,-508.86 335.5,-538.86 443.5,-538.86 443.5,-508.86 335.5,-508.86"/>
<text text-anchor="start" x="343.5" y="-526.86" font-family="Helvetica,sans-Serif" font-size="10.00">xalanc::XalanList&lt;</text>
<text text-anchor="middle" x="389.5" y="-515.86" font-family="Helvetica,sans-Serif" font-size="10.00"> Entry &gt;</text>
</a>
</g>
</g>
<!-- Node1&#45;&gt;Node5 -->
<g id="edge4" class="edge">
<title>Node1&#45;&gt;Node5</title>
<path fill="none" stroke="orange" stroke-dasharray="5,2" d="M62.31,-389.67C72,-417.88 91.98,-462.99 126,-485.86 188.67,-528 278.77,-531.74 335.44,-528.99"/>
<polygon fill="orange" stroke="orange" points="65.62,-388.53 59.19,-380.11 58.96,-390.7 65.62,-388.53"/>
<text text-anchor="middle" x="206" y="-531.86" font-family="Helvetica,sans-Serif" font-size="10.00"> &lt; Entry &gt;</text>
</g>
<!-- Node6 -->
<g id="node6" class="node">
<title>Node6</title>
<g id="a_node6"><a xlink:href="classxalanc_1_1XalanList.html" target="_top" xlink:title=" ">
<polygon fill="none" stroke="black" points="335.5,-459.86 335.5,-489.86 443.5,-489.86 443.5,-459.86 335.5,-459.86"/>
<text text-anchor="start" x="343.5" y="-477.86" font-family="Helvetica,sans-Serif" font-size="10.00">xalanc::XalanList&lt;</text>
<text text-anchor="middle" x="389.5" y="-466.86" font-family="Helvetica,sans-Serif" font-size="10.00"> ListEntryType &gt;</text>
</a>
</g>
</g>
<!-- Node1&#45;&gt;Node6 -->
<g id="edge5" class="edge">
<title>Node1&#45;&gt;Node6</title>
<path fill="none" stroke="orange" stroke-dasharray="5,2" d="M73.2,-387.61C86.29,-402.35 105.23,-420.64 126,-430.86 193.16,-463.93 280.44,-472.76 335.48,-474.8"/>
<polygon fill="orange" stroke="orange" points="75.72,-385.18 66.56,-379.87 70.41,-389.74 75.72,-385.18"/>
<text text-anchor="middle" x="206" y="-473.86" font-family="Helvetica,sans-Serif" font-size="10.00"> &lt; ListEntryType &gt;</text>
</g>
<!-- Node7 -->
<g id="node7" class="node">
<title>Node7</title>
<g id="a_node7"><a xlink:href="classxalanc_1_1XalanList.html" target="_top" xlink:title=" ">
<polygon fill="none" stroke="black" points="328,-399.36 328,-440.36 451,-440.36 451,-399.36 328,-399.36"/>
<text text-anchor="start" x="336" y="-428.36" font-family="Helvetica,sans-Serif" font-size="10.00">xalanc::XalanList&lt;</text>
<text text-anchor="start" x="336" y="-417.36" font-family="Helvetica,sans-Serif" font-size="10.00"> ReusableArenaBlock</text>
<text text-anchor="middle" x="389.5" y="-406.36" font-family="Helvetica,sans-Serif" font-size="10.00">&lt; number_type &gt; * &gt;</text>
</a>
</g>
</g>
<!-- Node1&#45;&gt;Node7 -->
<g id="edge6" class="edge">
<title>Node1&#45;&gt;Node7</title>
<path fill="none" stroke="orange" stroke-dasharray="5,2" d="M117.95,-378.36C120.67,-378.88 123.36,-379.38 126,-379.86 194.94,-392.39 274.56,-404.14 327.87,-411.62"/>
<polygon fill="orange" stroke="orange" points="118.54,-374.91 108.05,-376.41 117.19,-381.78 118.54,-374.91"/>
<text text-anchor="start" x="148.5" y="-418.86" font-family="Helvetica,sans-Serif" font-size="10.00"> &lt; ReusableArenaBlock</text>
<text text-anchor="middle" x="206" y="-407.86" font-family="Helvetica,sans-Serif" font-size="10.00">&lt; number_type &gt; * &gt;</text>
</g>
<!-- Node8 -->
<g id="node8" class="node">
<title>Node8</title>
<g id="a_node8"><a xlink:href="classxalanc_1_1XalanList.html" target="_top" xlink:title=" ">
<polygon fill="none" stroke="black" points="307.5,-349.86 307.5,-379.86 471.5,-379.86 471.5,-349.86 307.5,-349.86"/>
<text text-anchor="start" x="315.5" y="-367.86" font-family="Helvetica,sans-Serif" font-size="10.00">xalanc::XalanList&lt;</text>
<text text-anchor="middle" x="389.5" y="-356.86" font-family="Helvetica,sans-Serif" font-size="10.00"> DecimalFormatCacheStruct &gt;</text>
</a>
</g>
</g>
<!-- Node1&#45;&gt;Node8 -->
<g id="edge7" class="edge">
<title>Node1&#45;&gt;Node8</title>
<path fill="none" stroke="orange" stroke-dasharray="5,2" d="M118.28,-364.86C171.96,-364.86 249.28,-364.86 307.47,-364.86"/>
<polygon fill="orange" stroke="orange" points="118.21,-361.36 108.21,-364.86 118.21,-368.36 118.21,-361.36"/>
<text text-anchor="middle" x="206" y="-367.86" font-family="Helvetica,sans-Serif" font-size="10.00"> &lt; DecimalFormatCacheStruct &gt;</text>
</g>
<!-- Node9 -->
<g id="node9" class="node">
<title>Node9</title>
<g id="a_node9"><a xlink:href="classxalanc_1_1XalanList.html" target="_top" xlink:title=" ">
<polygon fill="none" stroke="black" points="329.5,-289.36 329.5,-330.36 449.5,-330.36 449.5,-289.36 329.5,-289.36"/>
<text text-anchor="start" x="337.5" y="-318.36" font-family="Helvetica,sans-Serif" font-size="10.00">xalanc::XalanList&lt;</text>
<text text-anchor="start" x="337.5" y="-307.36" font-family="Helvetica,sans-Serif" font-size="10.00"> ReusableArenaBlock</text>
<text text-anchor="middle" x="389.5" y="-296.36" font-family="Helvetica,sans-Serif" font-size="10.00">&lt; object_type &gt; * &gt;</text>
</a>
</g>
</g>
<!-- Node1&#45;&gt;Node9 -->
<g id="edge8" class="edge">
<title>Node1&#45;&gt;Node9</title>
<path fill="none" stroke="orange" stroke-dasharray="5,2" d="M100.56,-346.35C108.92,-343.48 117.64,-340.82 126,-338.86 194.74,-322.73 275.77,-315.51 329.43,-312.32"/>
<polygon fill="orange" stroke="orange" points="99.21,-343.12 90.97,-349.78 101.57,-349.71 99.21,-343.12"/>
<text text-anchor="start" x="148.5" y="-352.86" font-family="Helvetica,sans-Serif" font-size="10.00"> &lt; ReusableArenaBlock</text>
<text text-anchor="middle" x="206" y="-341.86" font-family="Helvetica,sans-Serif" font-size="10.00">&lt; object_type &gt; * &gt;</text>
</g>
<!-- Node10 -->
<g id="node10" class="node">
<title>Node10</title>
<g id="a_node10"><a xlink:href="classxalanc_1_1XalanList.html" target="_top" xlink:title=" ">
<polygon fill="none" stroke="black" points="306.5,-239.86 306.5,-269.86 472.5,-269.86 472.5,-239.86 306.5,-239.86"/>
<text text-anchor="start" x="314.5" y="-257.86" font-family="Helvetica,sans-Serif" font-size="10.00">xalanc::XalanList&lt;</text>
<text text-anchor="middle" x="389.5" y="-246.86" font-family="Helvetica,sans-Serif" font-size="10.00"> ArenaBlock&lt; data_type &gt; * &gt;</text>
</a>
</g>
</g>
<!-- Node1&#45;&gt;Node10 -->
<g id="edge9" class="edge">
<title>Node1&#45;&gt;Node10</title>
<path fill="none" stroke="orange" stroke-dasharray="5,2" d="M70.39,-341.04C83.09,-323.54 102.74,-300.8 126,-288.86 181.71,-260.28 252.47,-252.49 306.49,-251.46"/>
<polygon fill="orange" stroke="orange" points="67.25,-339.43 64.41,-349.64 73,-343.43 67.25,-339.43"/>
<text text-anchor="start" x="154.5" y="-302.86" font-family="Helvetica,sans-Serif" font-size="10.00"> &lt; ArenaBlock&lt; data</text>
<text text-anchor="middle" x="206" y="-291.86" font-family="Helvetica,sans-Serif" font-size="10.00">_type &gt; * &gt;</text>
</g>
<!-- Node11 -->
<g id="node11" class="node">
<title>Node11</title>
<g id="a_node11"><a xlink:href="classxalanc_1_1XalanList.html" target="_top" xlink:title=" ">
<polygon fill="none" stroke="black" points="329.5,-179.36 329.5,-220.36 449.5,-220.36 449.5,-179.36 329.5,-179.36"/>
<text text-anchor="start" x="337.5" y="-208.36" font-family="Helvetica,sans-Serif" font-size="10.00">xalanc::XalanList&lt;</text>
<text text-anchor="start" x="337.5" y="-197.36" font-family="Helvetica,sans-Serif" font-size="10.00"> ReusableArenaBlock</text>
<text text-anchor="middle" x="389.5" y="-186.36" font-family="Helvetica,sans-Serif" font-size="10.00">&lt; data_type &gt; * &gt;</text>
</a>
</g>
</g>
<!-- Node1&#45;&gt;Node11 -->
<g id="edge10" class="edge">
<title>Node1&#45;&gt;Node11</title>
<path fill="none" stroke="orange" stroke-dasharray="5,2" d="M60.16,-339.56C68.18,-307.28 86.98,-252.48 126,-225.86 185.96,-184.96 272.3,-184.74 329.37,-190.5"/>
<polygon fill="orange" stroke="orange" points="56.69,-339.03 57.83,-349.56 63.5,-340.62 56.69,-339.03"/>
<text text-anchor="start" x="148.5" y="-239.86" font-family="Helvetica,sans-Serif" font-size="10.00"> &lt; ReusableArenaBlock</text>
<text text-anchor="middle" x="206" y="-228.86" font-family="Helvetica,sans-Serif" font-size="10.00">&lt; data_type &gt; * &gt;</text>
</g>
<!-- Node12 -->
<g id="node12" class="node">
<title>Node12</title>
<g id="a_node12"><a xlink:href="classxalanc_1_1XalanList.html" target="_top" xlink:title=" ">
<polygon fill="none" stroke="black" points="331.5,-119.36 331.5,-160.36 447.5,-160.36 447.5,-119.36 331.5,-119.36"/>
<text text-anchor="start" x="339.5" y="-148.36" font-family="Helvetica,sans-Serif" font-size="10.00">xalanc::XalanList&lt;</text>
<text text-anchor="start" x="339.5" y="-137.36" font-family="Helvetica,sans-Serif" font-size="10.00"> ArenaBlock&lt; object</text>
<text text-anchor="middle" x="389.5" y="-126.36" font-family="Helvetica,sans-Serif" font-size="10.00">_type &gt; * &gt;</text>
</a>
</g>
</g>
<!-- Node1&#45;&gt;Node12 -->
<g id="edge11" class="edge">
<title>Node1&#45;&gt;Node12</title>
<path fill="none" stroke="orange" stroke-dasharray="5,2" d="M55.5,-339.47C57.89,-295.16 69.78,-204.3 126,-160.86 184.43,-115.72 273.61,-119.18 331.48,-127.88"/>
<polygon fill="orange" stroke="orange" points="52,-339.54 55.08,-349.68 58.99,-339.83 52,-339.54"/>
<text text-anchor="start" x="150" y="-174.86" font-family="Helvetica,sans-Serif" font-size="10.00"> &lt; ArenaBlock&lt; object</text>
<text text-anchor="middle" x="206" y="-163.86" font-family="Helvetica,sans-Serif" font-size="10.00">_type &gt; * &gt;</text>
</g>
<!-- Node13 -->
<g id="node13" class="node">
<title>Node13</title>
<g id="a_node13"><a xlink:href="classxalanc_1_1XalanList.html" target="_top" xlink:title=" ">
<polygon fill="none" stroke="black" points="304,-69.86 304,-99.86 475,-99.86 475,-69.86 304,-69.86"/>
<text text-anchor="start" x="312" y="-87.86" font-family="Helvetica,sans-Serif" font-size="10.00">xalanc::XalanList&lt;</text>
<text text-anchor="middle" x="389.5" y="-76.86" font-family="Helvetica,sans-Serif" font-size="10.00"> ArenaBlock&lt; ObjectType &gt; * &gt;</text>
</a>
</g>
</g>
<!-- Node1&#45;&gt;Node13 -->
<g id="edge12" class="edge">
<title>Node1&#45;&gt;Node13</title>
<path fill="none" stroke="orange" stroke-dasharray="5,2" d="M57.92,-339.31C65.46,-278.24 87.73,-126.64 126,-95.86 184.12,-49.12 275.07,-57.6 333.21,-69.83"/>
<polygon fill="orange" stroke="orange" points="54.4,-339.26 56.68,-349.61 61.35,-340.1 54.4,-339.26"/>
<text text-anchor="start" x="138" y="-109.86" font-family="Helvetica,sans-Serif" font-size="10.00"> &lt; ArenaBlock&lt; ObjectType</text>
<text text-anchor="middle" x="206" y="-98.86" font-family="Helvetica,sans-Serif" font-size="10.00"> &gt; * &gt;</text>
</g>
<!-- Node14 -->
<g id="node14" class="node">
<title>Node14</title>
<g id="a_node14"><a xlink:href="classxalanc_1_1XalanList.html" target="_top" xlink:title=" ">
<polygon fill="none" stroke="black" points="329.5,-9.36 329.5,-50.36 449.5,-50.36 449.5,-9.36 329.5,-9.36"/>
<text text-anchor="start" x="337.5" y="-38.36" font-family="Helvetica,sans-Serif" font-size="10.00">xalanc::XalanList&lt;</text>
<text text-anchor="start" x="337.5" y="-27.36" font-family="Helvetica,sans-Serif" font-size="10.00"> ReusableArenaBlock</text>
<text text-anchor="middle" x="389.5" y="-16.36" font-family="Helvetica,sans-Serif" font-size="10.00">&lt; string_type &gt; * &gt;</text>
</a>
</g>
</g>
<!-- Node1&#45;&gt;Node14 -->
<g id="edge13" class="edge">
<title>Node1&#45;&gt;Node14</title>
<path fill="none" stroke="orange" stroke-dasharray="5,2" d="M56.53,-339.34C61.35,-268.79 78.77,-73.76 126,-34.86 182.38,11.57 271.04,1.83 329.47,-11.95"/>
<polygon fill="orange" stroke="orange" points="53.02,-339.34 55.87,-349.55 60.01,-339.8 53.02,-339.34"/>
<text text-anchor="start" x="148.5" y="-48.86" font-family="Helvetica,sans-Serif" font-size="10.00"> &lt; ReusableArenaBlock</text>
<text text-anchor="middle" x="206" y="-37.86" font-family="Helvetica,sans-Serif" font-size="10.00">&lt; string_type &gt; * &gt;</text>
</g>
</g>
</svg>
