<?xml version="1.0" encoding="UTF-8" standalone="no"?>
<!DOCTYPE svg PUBLIC "-//W3C//DTD SVG 1.1//EN"
 "http://www.w3.org/Graphics/SVG/1.1/DTD/svg11.dtd">
<!-- Generated by graphviz version 2.43.0 (0)
 -->
<!-- Title: xalanc::Stylesheet Pages: 1 -->
<svg width="1284pt" height="203pt"
 viewBox="0.00 0.00 1284.00 202.50" xmlns="http://www.w3.org/2000/svg" xmlns:xlink="http://www.w3.org/1999/xlink">
<g id="graph0" class="graph" transform="scale(1 1) rotate(0) translate(4 198.5)">
<title>xalanc::Stylesheet</title>
<!-- Node1 -->
<g id="node1" class="node">
<title>Node1</title>
<g id="a_node1"><a xlink:title="This class represents the base stylesheet or an &quot;import&quot; stylesheet.">
<polygon fill="#bfbfbf" stroke="black" points="912,-99 912,-118 1019,-118 1019,-99 912,-99"/>
<text text-anchor="middle" x="965.5" y="-106" font-family="Helvetica,sans-Serif" font-size="10.00">xalanc::Stylesheet</text>
</a>
</g>
</g>
<!-- Node8 -->
<g id="node8" class="node">
<title>Node8</title>
<g id="a_node8"><a xlink:href="classxalanc_1_1StylesheetRoot.html" target="_top" xlink:title="This acts as the stylesheet root of the stylesheet tree, and holds values that are shared by all styl...">
<polygon fill="none" stroke="black" points="1147,-99 1147,-118 1276,-118 1276,-99 1147,-99"/>
<text text-anchor="middle" x="1211.5" y="-106" font-family="Helvetica,sans-Serif" font-size="10.00">xalanc::StylesheetRoot</text>
</a>
</g>
</g>
<!-- Node1&#45;&gt;Node8 -->
<g id="edge9" class="edge">
<title>Node1&#45;&gt;Node8</title>
<path fill="none" stroke="midnightblue" d="M1029.52,-108.5C1065.52,-108.5 1110.55,-108.5 1146.68,-108.5"/>
<polygon fill="midnightblue" stroke="midnightblue" points="1029.14,-105 1019.14,-108.5 1029.14,-112 1029.14,-105"/>
</g>
<!-- Node2 -->
<g id="node2" class="node">
<title>Node2</title>
<g id="a_node2"><a xlink:href="classxalanc_1_1PrefixResolver.html" target="_top" xlink:title="This class defines an interface for classes that resolve namespace prefixes to their URIs.">
<polygon fill="none" stroke="black" points="602.5,-175 602.5,-194 727.5,-194 727.5,-175 602.5,-175"/>
<text text-anchor="middle" x="665" y="-182" font-family="Helvetica,sans-Serif" font-size="10.00">xalanc::PrefixResolver</text>
</a>
</g>
</g>
<!-- Node2&#45;&gt;Node1 -->
<g id="edge1" class="edge">
<title>Node2&#45;&gt;Node1</title>
<path fill="none" stroke="midnightblue" d="M737.76,-186.5C783.83,-185.5 844.15,-179.85 894,-160.5 918.67,-150.93 942.37,-130.34 955.03,-118.14"/>
<polygon fill="midnightblue" stroke="midnightblue" points="737.51,-183 727.57,-186.65 737.62,-190 737.51,-183"/>
</g>
<!-- Node3 -->
<g id="node3" class="node">
<title>Node3</title>
<g id="a_node3"><a xlink:href="classxalanc_1_1XalanQNameByReference.html" target="_top" xlink:title=" ">
<polygon fill="none" stroke="black" points="574,-99 574,-118 756,-118 756,-99 574,-99"/>
<text text-anchor="middle" x="665" y="-106" font-family="Helvetica,sans-Serif" font-size="10.00">xalanc::XalanQNameByReference</text>
</a>
</g>
</g>
<!-- Node3&#45;&gt;Node1 -->
<g id="edge2" class="edge">
<title>Node3&#45;&gt;Node1</title>
<path fill="none" stroke="#9a32cd" stroke-dasharray="5,2" d="M766.62,-108.5C815.26,-108.5 871.64,-108.5 911.75,-108.5"/>
<polygon fill="#9a32cd" stroke="#9a32cd" points="766.37,-105 756.37,-108.5 766.37,-112 766.37,-105"/>
<text text-anchor="middle" x="834" y="-111.5" font-family="Helvetica,sans-Serif" font-size="10.00"> s_emptyQName</text>
</g>
<!-- Node4 -->
<g id="node4" class="node">
<title>Node4</title>
<g id="a_node4"><a xlink:href="classxalanc_1_1XalanQName.html" target="_top" xlink:title="Class to represent a qualified name.">
<polygon fill="none" stroke="black" points="263,-99 263,-118 382,-118 382,-99 263,-99"/>
<text text-anchor="middle" x="322.5" y="-106" font-family="Helvetica,sans-Serif" font-size="10.00">xalanc::XalanQName</text>
</a>
</g>
</g>
<!-- Node4&#45;&gt;Node3 -->
<g id="edge3" class="edge">
<title>Node4&#45;&gt;Node3</title>
<path fill="none" stroke="midnightblue" d="M392.22,-108.5C444.53,-108.5 516.99,-108.5 573.94,-108.5"/>
<polygon fill="midnightblue" stroke="midnightblue" points="392.03,-105 382.03,-108.5 392.03,-112 392.03,-105"/>
</g>
<!-- Node5 -->
<g id="node5" class="node">
<title>Node5</title>
<g id="a_node5"><a xlink:href="classxalanc_1_1XalanDOMString.html" target="_top" xlink:title=" ">
<polygon fill="none" stroke="black" points="0,-118 0,-137 135,-137 135,-118 0,-118"/>
<text text-anchor="middle" x="67.5" y="-125" font-family="Helvetica,sans-Serif" font-size="10.00">xalanc::XalanDOMString</text>
</a>
</g>
</g>
<!-- Node5&#45;&gt;Node1 -->
<g id="edge5" class="edge">
<title>Node5&#45;&gt;Node1</title>
<path fill="none" stroke="#9a32cd" stroke-dasharray="5,2" d="M145.37,-132.24C147.95,-132.34 150.49,-132.43 153,-132.5 185.87,-133.47 194.11,-132.66 227,-132.5 462.12,-131.39 520.92,-132.02 756,-127.5 817.35,-126.32 833.08,-130.8 894,-123.5 904.44,-122.25 915.61,-120.2 925.92,-118.02"/>
<polygon fill="#9a32cd" stroke="#9a32cd" points="145.5,-128.75 135.37,-131.82 145.21,-135.74 145.5,-128.75"/>
<text text-anchor="middle" x="487" y="-134.5" font-family="Helvetica,sans-Serif" font-size="10.00"> m_baseIdent</text>
</g>
<!-- Node5&#45;&gt;Node4 -->
<g id="edge4" class="edge">
<title>Node5&#45;&gt;Node4</title>
<path fill="none" stroke="#9a32cd" stroke-dasharray="5,2" d="M145.74,-121.7C183.46,-118.87 228.09,-115.51 262.95,-112.9"/>
<polygon fill="#9a32cd" stroke="#9a32cd" points="145.01,-118.24 135.3,-122.48 145.54,-125.22 145.01,-118.24"/>
<text text-anchor="middle" x="190" y="-123.5" font-family="Helvetica,sans-Serif" font-size="10.00"> s_emptyString</text>
</g>
<!-- Node6 -->
<g id="node6" class="node">
<title>Node6</title>
<g id="a_node6"><a xlink:href="classxalanc_1_1XalanVector.html" target="_top" xlink:title=" ">
<polygon fill="none" stroke="black" points="589.5,-49.5 589.5,-79.5 740.5,-79.5 740.5,-49.5 589.5,-49.5"/>
<text text-anchor="start" x="597.5" y="-67.5" font-family="Helvetica,sans-Serif" font-size="10.00">xalanc::XalanVector</text>
<text text-anchor="middle" x="665" y="-56.5" font-family="Helvetica,sans-Serif" font-size="10.00">&lt; XalanSpaceNodeTester &gt;</text>
</a>
</g>
</g>
<!-- Node6&#45;&gt;Node1 -->
<g id="edge6" class="edge">
<title>Node6&#45;&gt;Node1</title>
<path fill="none" stroke="#9a32cd" stroke-dasharray="5,2" d="M750.82,-73.59C793.84,-78.63 846.84,-85.5 894,-93.5 903.25,-95.07 913.14,-97.01 922.48,-98.96"/>
<polygon fill="#9a32cd" stroke="#9a32cd" points="751.01,-70.09 740.68,-72.41 750.21,-77.04 751.01,-70.09"/>
<text text-anchor="middle" x="834" y="-96.5" font-family="Helvetica,sans-Serif" font-size="10.00"> m_whitespaceElements</text>
</g>
<!-- Node7 -->
<g id="node7" class="node">
<title>Node7</title>
<g id="a_node7"><a xlink:href="classxalanc_1_1XalanVector.html" target="_top" xlink:title=" ">
<polygon fill="none" stroke="black" points="245,-32.5 245,-62.5 400,-62.5 400,-32.5 245,-32.5"/>
<text text-anchor="start" x="253" y="-50.5" font-family="Helvetica,sans-Serif" font-size="10.00">xalanc::XalanVector</text>
<text text-anchor="middle" x="322.5" y="-39.5" font-family="Helvetica,sans-Serif" font-size="10.00">&lt; Type, ConstructionTraits &gt;</text>
</a>
</g>
</g>
<!-- Node7&#45;&gt;Node6 -->
<g id="edge7" class="edge">
<title>Node7&#45;&gt;Node6</title>
<path fill="none" stroke="orange" stroke-dasharray="5,2" d="M410.48,-51.84C465.83,-54.61 536.74,-58.15 589.49,-60.78"/>
<polygon fill="orange" stroke="orange" points="410.5,-48.34 400.34,-51.34 410.15,-55.33 410.5,-48.34"/>
<text text-anchor="middle" x="487" y="-61.5" font-family="Helvetica,sans-Serif" font-size="10.00"> &lt; XalanSpaceNodeTester &gt;</text>
</g>
<!-- Node9 -->
<g id="node9" class="node">
<title>Node9</title>
<g id="a_node9"><a xlink:href="classxalanc_1_1XalanVector.html" target="_top" xlink:title=" ">
<polygon fill="none" stroke="black" points="608.5,-0.5 608.5,-30.5 721.5,-30.5 721.5,-0.5 608.5,-0.5"/>
<text text-anchor="start" x="616.5" y="-18.5" font-family="Helvetica,sans-Serif" font-size="10.00">xalanc::XalanVector</text>
<text text-anchor="middle" x="665" y="-7.5" font-family="Helvetica,sans-Serif" font-size="10.00">&lt; KeyDeclaration &gt;</text>
</a>
</g>
</g>
<!-- Node7&#45;&gt;Node9 -->
<g id="edge11" class="edge">
<title>Node7&#45;&gt;Node9</title>
<path fill="none" stroke="orange" stroke-dasharray="5,2" d="M410.25,-39.23C412.86,-38.98 415.45,-38.74 418,-38.5 483.34,-32.33 558.45,-25.32 608.31,-20.68"/>
<polygon fill="orange" stroke="orange" points="409.71,-35.77 400.09,-40.19 410.37,-42.74 409.71,-35.77"/>
<text text-anchor="middle" x="487" y="-41.5" font-family="Helvetica,sans-Serif" font-size="10.00"> &lt; KeyDeclaration &gt;</text>
</g>
<!-- Node8&#45;&gt;Node1 -->
<g id="edge8" class="edge">
<title>Node8&#45;&gt;Node1</title>
<path fill="none" stroke="#9a32cd" stroke-dasharray="5,2" d="M1142.9,-97.77C1138.2,-97.27 1133.54,-96.83 1129,-96.5 1088.22,-93.51 1077.74,-93.06 1037,-96.5 1030.2,-97.07 1023.06,-97.96 1016.05,-98.99"/>
<polygon fill="#9a32cd" stroke="#9a32cd" points="1142.84,-101.29 1153.18,-98.99 1143.66,-94.34 1142.84,-101.29"/>
<text text-anchor="middle" x="1083" y="-99.5" font-family="Helvetica,sans-Serif" font-size="10.00"> m_stylesheetRoot</text>
</g>
<!-- Node9&#45;&gt;Node1 -->
<g id="edge10" class="edge">
<title>Node9&#45;&gt;Node1</title>
<path fill="none" stroke="#9a32cd" stroke-dasharray="5,2" d="M731.64,-21.89C778.3,-28.06 841.71,-39.79 894,-61.5 916.55,-70.86 939.5,-87.85 952.85,-98.63"/>
<polygon fill="#9a32cd" stroke="#9a32cd" points="732.02,-18.41 721.65,-20.62 731.13,-25.36 732.02,-18.41"/>
<text text-anchor="middle" x="834" y="-64.5" font-family="Helvetica,sans-Serif" font-size="10.00"> m_keyDeclarations</text>
</g>
</g>
</svg>
