<?xml version="1.0" encoding="UTF-8" standalone="no"?>
<!DOCTYPE svg PUBLIC "-//W3C//DTD SVG 1.1//EN"
 "http://www.w3.org/Graphics/SVG/1.1/DTD/svg11.dtd">
<!-- Generated by graphviz version 2.38.0 (20140413.2041)
 -->
<!-- Title: xalanc::XalanTransformerProblemListener Pages: 1 -->
<svg width="152pt" height="151pt"
 viewBox="0.00 0.00 152.00 151.00" xmlns="http://www.w3.org/2000/svg" xmlns:xlink="http://www.w3.org/1999/xlink">
<g id="graph0" class="graph" transform="scale(1 1) rotate(0) translate(4 147)">
<title>xalanc::XalanTransformerProblemListener</title>
<!-- Node1 -->
<g id="node1" class="node"><title>Node1</title>
<g id="a_node1"><a xlink:title=" ">
<polygon fill="#bfbfbf" stroke="black" points="9.5,-0.5 9.5,-30.5 134.5,-30.5 134.5,-0.5 9.5,-0.5"/>
<text text-anchor="start" x="17.5" y="-18.5" font-family="Helvetica,sans-Serif" font-size="10.00">xalanc::XalanTransformer</text>
<text text-anchor="middle" x="72" y="-7.5" font-family="Helvetica,sans-Serif" font-size="10.00">ProblemListener</text>
</a>
</g>
</g>
<!-- Node2 -->
<g id="node2" class="node"><title>Node2</title>
<g id="a_node2"><a xlink:href="classxalanc_1_1ProblemListener.html" target="_top" xlink:title="This is the abstract class that the XSL processor uses when it has a problem of some kind,...">
<polygon fill="none" stroke="black" points="11,-67.5 11,-86.5 133,-86.5 133,-67.5 11,-67.5"/>
<text text-anchor="middle" x="72" y="-74.5" font-family="Helvetica,sans-Serif" font-size="10.00">xalanc::ProblemListener</text>
</a>
</g>
</g>
<!-- Node2&#45;&gt;Node1 -->
<g id="edge1" class="edge"><title>Node2&#45;&gt;Node1</title>
<path fill="none" stroke="midnightblue" d="M72,-57.2349C72,-48.5864 72,-38.4969 72,-30.523"/>
<polygon fill="midnightblue" stroke="midnightblue" points="68.5001,-57.4751 72,-67.4751 75.5001,-57.4751 68.5001,-57.4751"/>
</g>
<!-- Node3 -->
<g id="node3" class="node"><title>Node3</title>
<g id="a_node3"><a xlink:href="classxalanc_1_1ProblemListenerBase.html" target="_top" xlink:title="This is the abstract class that is used when reporting a problem some kind, that requires a message,...">
<polygon fill="none" stroke="black" points="0,-123.5 0,-142.5 144,-142.5 144,-123.5 0,-123.5"/>
<text text-anchor="middle" x="72" y="-130.5" font-family="Helvetica,sans-Serif" font-size="10.00">xalanc::ProblemListenerBase</text>
</a>
</g>
</g>
<!-- Node3&#45;&gt;Node2 -->
<g id="edge2" class="edge"><title>Node3&#45;&gt;Node2</title>
<path fill="none" stroke="midnightblue" d="M72,-112.805C72,-103.91 72,-93.7798 72,-86.7511"/>
<polygon fill="midnightblue" stroke="midnightblue" points="68.5001,-113.083 72,-123.083 75.5001,-113.083 68.5001,-113.083"/>
</g>
</g>
</svg>
