<?xml version="1.0" encoding="UTF-8" standalone="no"?>
<!DOCTYPE svg PUBLIC "-//W3C//DTD SVG 1.1//EN"
 "http://www.w3.org/Graphics/SVG/1.1/DTD/svg11.dtd">
<!-- Generated by graphviz version 2.43.0 (0)
 -->
<!-- Title: xalanc::PrefixResolver Pages: 1 -->
<svg width="929pt" height="978pt"
 viewBox="0.00 0.00 929.00 978.00" xmlns="http://www.w3.org/2000/svg" xmlns:xlink="http://www.w3.org/1999/xlink">
<g id="graph0" class="graph" transform="scale(1 1) rotate(0) translate(4 974)">
<title>xalanc::PrefixResolver</title>
<!-- Node1 -->
<g id="node1" class="node">
<title>Node1</title>
<g id="a_node1"><a xlink:title="This class defines an interface for classes that resolve namespace prefixes to their URIs.">
<polygon fill="#bfbfbf" stroke="black" points="0,-368.5 0,-387.5 125,-387.5 125,-368.5 0,-368.5"/>
<text text-anchor="middle" x="62.5" y="-375.5" font-family="Helvetica,sans-Serif" font-size="10.00">xalanc::PrefixResolver</text>
</a>
</g>
</g>
<!-- Node2 -->
<g id="node2" class="node">
<title>Node2</title>
<g id="a_node2"><a xlink:href="classxalanc_1_1ElementPrefixResolverProxy.html" target="_top" xlink:title=" ">
<polygon fill="none" stroke="black" points="164.5,-514 164.5,-544 330.5,-544 330.5,-514 164.5,-514"/>
<text text-anchor="start" x="172.5" y="-532" font-family="Helvetica,sans-Serif" font-size="10.00">xalanc::ElementPrefixResolver</text>
<text text-anchor="middle" x="247.5" y="-521" font-family="Helvetica,sans-Serif" font-size="10.00">Proxy</text>
</a>
</g>
</g>
<!-- Node1&#45;&gt;Node2 -->
<g id="edge1" class="edge">
<title>Node1&#45;&gt;Node2</title>
<path fill="none" stroke="midnightblue" d="M72.88,-396.53C87.78,-424.1 119.48,-475.69 161,-504 166.62,-507.83 172.84,-511.09 179.28,-513.85"/>
<polygon fill="midnightblue" stroke="midnightblue" points="75.91,-394.78 68.16,-387.55 69.71,-398.03 75.91,-394.78"/>
</g>
<!-- Node3 -->
<g id="node3" class="node">
<title>Node3</title>
<g id="a_node3"><a xlink:href="classxalanc_1_1ElemTemplateElement.html" target="_top" xlink:title=" ">
<polygon fill="none" stroke="black" points="165,-475.5 165,-494.5 330,-494.5 330,-475.5 165,-475.5"/>
<text text-anchor="middle" x="247.5" y="-482.5" font-family="Helvetica,sans-Serif" font-size="10.00">xalanc::ElemTemplateElement</text>
</a>
</g>
</g>
<!-- Node1&#45;&gt;Node3 -->
<g id="edge2" class="edge">
<title>Node1&#45;&gt;Node3</title>
<path fill="none" stroke="midnightblue" d="M77.8,-395.5C95.28,-415.68 126.78,-448.34 161,-466 168.57,-469.91 176.91,-473.01 185.34,-475.48"/>
<polygon fill="midnightblue" stroke="midnightblue" points="80.33,-393.08 71.2,-387.7 74.99,-397.59 80.33,-393.08"/>
</g>
<!-- Node36 -->
<g id="node36" class="node">
<title>Node36</title>
<g id="a_node36"><a xlink:href="classxalanc_1_1Stylesheet.html" target="_top" xlink:title="This class represents the base stylesheet or an &quot;import&quot; stylesheet.">
<polygon fill="none" stroke="black" points="194,-437.5 194,-456.5 301,-456.5 301,-437.5 194,-437.5"/>
<text text-anchor="middle" x="247.5" y="-444.5" font-family="Helvetica,sans-Serif" font-size="10.00">xalanc::Stylesheet</text>
</a>
</g>
</g>
<!-- Node1&#45;&gt;Node36 -->
<g id="edge35" class="edge">
<title>Node1&#45;&gt;Node36</title>
<path fill="none" stroke="midnightblue" d="M87.87,-392.72C107.13,-403.79 135.01,-418.62 161,-428 171.44,-431.77 182.88,-434.93 193.9,-437.53"/>
<polygon fill="midnightblue" stroke="midnightblue" points="89.55,-389.64 79.15,-387.62 86.02,-395.69 89.55,-389.64"/>
</g>
<!-- Node38 -->
<g id="node38" class="node">
<title>Node38</title>
<g id="a_node38"><a xlink:href="classxalanc_1_1XalanDocumentPrefixResolver.html" target="_top" xlink:title=" ">
<polygon fill="none" stroke="black" points="167,-388 167,-418 328,-418 328,-388 167,-388"/>
<text text-anchor="start" x="175" y="-406" font-family="Helvetica,sans-Serif" font-size="10.00">xalanc::XalanDocumentPrefix</text>
<text text-anchor="middle" x="247.5" y="-395" font-family="Helvetica,sans-Serif" font-size="10.00">Resolver</text>
</a>
</g>
</g>
<!-- Node1&#45;&gt;Node38 -->
<g id="edge37" class="edge">
<title>Node1&#45;&gt;Node38</title>
<path fill="none" stroke="midnightblue" d="M135.4,-387.82C145.73,-389.23 156.42,-390.69 166.89,-392.12"/>
<polygon fill="midnightblue" stroke="midnightblue" points="135.58,-384.31 125.2,-386.43 134.63,-391.25 135.58,-384.31"/>
</g>
<!-- Node39 -->
<g id="node39" class="node">
<title>Node39</title>
<g id="a_node39"><a xlink:href="classxalanc_1_1XalanNamespacesStack_1_1PrefixResolverProxy.html" target="_top" xlink:title=" ">
<polygon fill="none" stroke="black" points="161,-339 161,-369 334,-369 334,-339 161,-339"/>
<text text-anchor="start" x="169" y="-357" font-family="Helvetica,sans-Serif" font-size="10.00">xalanc::XalanNamespacesStack</text>
<text text-anchor="middle" x="247.5" y="-346" font-family="Helvetica,sans-Serif" font-size="10.00">::PrefixResolverProxy</text>
</a>
</g>
</g>
<!-- Node1&#45;&gt;Node39 -->
<g id="edge38" class="edge">
<title>Node1&#45;&gt;Node39</title>
<path fill="none" stroke="midnightblue" d="M135.25,-368.59C143.6,-367.49 152.19,-366.37 160.7,-365.25"/>
<polygon fill="midnightblue" stroke="midnightblue" points="134.66,-365.14 125.2,-369.91 135.57,-372.08 134.66,-365.14"/>
</g>
<!-- Node40 -->
<g id="node40" class="node">
<title>Node40</title>
<g id="a_node40"><a xlink:href="classxalanc_1_1XalanQName_1_1PrefixResolverProxy.html" target="_top" xlink:title=" ">
<polygon fill="none" stroke="black" points="187,-290 187,-320 308,-320 308,-290 187,-290"/>
<text text-anchor="start" x="195" y="-308" font-family="Helvetica,sans-Serif" font-size="10.00">xalanc::XalanQName</text>
<text text-anchor="middle" x="247.5" y="-297" font-family="Helvetica,sans-Serif" font-size="10.00">::PrefixResolverProxy</text>
</a>
</g>
</g>
<!-- Node1&#45;&gt;Node40 -->
<g id="edge39" class="edge">
<title>Node1&#45;&gt;Node40</title>
<path fill="none" stroke="midnightblue" d="M89.51,-363.66C108.84,-353.38 136.07,-339.7 161,-330 170.22,-326.41 180.18,-323.06 189.93,-320.04"/>
<polygon fill="midnightblue" stroke="midnightblue" points="87.85,-360.57 80.7,-368.39 91.17,-366.74 87.85,-360.57"/>
</g>
<!-- Node41 -->
<g id="node41" class="node">
<title>Node41</title>
<g id="a_node41"><a xlink:href="classxalanc_1_1XalanSimplePrefixResolver.html" target="_top" xlink:title=" ">
<polygon fill="none" stroke="black" points="175.5,-241 175.5,-271 319.5,-271 319.5,-241 175.5,-241"/>
<text text-anchor="start" x="183.5" y="-259" font-family="Helvetica,sans-Serif" font-size="10.00">xalanc::XalanSimplePrefix</text>
<text text-anchor="middle" x="247.5" y="-248" font-family="Helvetica,sans-Serif" font-size="10.00">Resolver</text>
</a>
</g>
</g>
<!-- Node1&#45;&gt;Node41 -->
<g id="edge40" class="edge">
<title>Node1&#45;&gt;Node41</title>
<path fill="none" stroke="midnightblue" d="M76.6,-360.37C93.68,-338.61 125.59,-301.92 161,-281 167.52,-277.15 174.68,-273.85 182,-271.04"/>
<polygon fill="midnightblue" stroke="midnightblue" points="73.73,-358.37 70.42,-368.44 79.28,-362.63 73.73,-358.37"/>
</g>
<!-- Node42 -->
<g id="node42" class="node">
<title>Node42</title>
<g id="a_node42"><a xlink:href="classxalanc_1_1XSLTEngineImpl.html" target="_top" xlink:title="It&#39;s the responsibility of the XSLTEngineImpl class, collaborating with the XML parser liaison,...">
<polygon fill="none" stroke="black" points="181,-202.5 181,-221.5 314,-221.5 314,-202.5 181,-202.5"/>
<text text-anchor="middle" x="247.5" y="-209.5" font-family="Helvetica,sans-Serif" font-size="10.00">xalanc::XSLTEngineImpl</text>
</a>
</g>
</g>
<!-- Node1&#45;&gt;Node42 -->
<g id="edge41" class="edge">
<title>Node1&#45;&gt;Node42</title>
<path fill="none" stroke="midnightblue" d="M70.75,-358.91C83.76,-327.32 114.18,-264.44 161,-232 167.27,-227.66 174.34,-224.25 181.68,-221.58"/>
<polygon fill="midnightblue" stroke="midnightblue" points="67.44,-357.75 67,-368.33 73.95,-360.33 67.44,-357.75"/>
</g>
<!-- Node4 -->
<g id="node4" class="node">
<title>Node4</title>
<g id="a_node4"><a xlink:href="classxalanc_1_1ElemApplyImport.html" target="_top" xlink:title=" ">
<polygon fill="none" stroke="black" points="387.5,-950.5 387.5,-969.5 527.5,-969.5 527.5,-950.5 387.5,-950.5"/>
<text text-anchor="middle" x="457.5" y="-957.5" font-family="Helvetica,sans-Serif" font-size="10.00">xalanc::ElemApplyImport</text>
</a>
</g>
</g>
<!-- Node3&#45;&gt;Node4 -->
<g id="edge3" class="edge">
<title>Node3&#45;&gt;Node4</title>
<path fill="none" stroke="midnightblue" d="M329.69,-500.64C331.22,-501.99 332.66,-503.44 334,-505 397.5,-578.62 306.01,-867.81 370,-941 374.76,-946.44 380.68,-950.52 387.19,-953.56"/>
<polygon fill="midnightblue" stroke="midnightblue" points="331.62,-497.72 321.46,-494.72 327.53,-503.4 331.62,-497.72"/>
</g>
<!-- Node5 -->
<g id="node5" class="node">
<title>Node5</title>
<g id="a_node5"><a xlink:href="classxalanc_1_1ElemAttribute.html" target="_top" xlink:title=" ">
<polygon fill="none" stroke="black" points="396.5,-912.5 396.5,-931.5 518.5,-931.5 518.5,-912.5 396.5,-912.5"/>
<text text-anchor="middle" x="457.5" y="-919.5" font-family="Helvetica,sans-Serif" font-size="10.00">xalanc::ElemAttribute</text>
</a>
</g>
</g>
<!-- Node3&#45;&gt;Node5 -->
<g id="edge4" class="edge">
<title>Node3&#45;&gt;Node5</title>
<path fill="none" stroke="midnightblue" d="M329.55,-500.55C331.12,-501.92 332.61,-503.4 334,-505 392.26,-572.02 311.28,-836.38 370,-903 376.91,-910.84 386.26,-915.86 396.25,-919"/>
<polygon fill="midnightblue" stroke="midnightblue" points="331.22,-497.44 321.03,-494.52 327.18,-503.15 331.22,-497.44"/>
</g>
<!-- Node6 -->
<g id="node6" class="node">
<title>Node6</title>
<g id="a_node6"><a xlink:href="classxalanc_1_1ElemCallTemplate.html" target="_top" xlink:title=" ">
<polygon fill="none" stroke="black" points="386,-874.5 386,-893.5 529,-893.5 529,-874.5 386,-874.5"/>
<text text-anchor="middle" x="457.5" y="-881.5" font-family="Helvetica,sans-Serif" font-size="10.00">xalanc::ElemCallTemplate</text>
</a>
</g>
</g>
<!-- Node3&#45;&gt;Node6 -->
<g id="edge5" class="edge">
<title>Node3&#45;&gt;Node6</title>
<path fill="none" stroke="midnightblue" d="M329.53,-500.56C331.11,-501.93 332.6,-503.41 334,-505 440.07,-625.85 263.11,-744.87 370,-865 374.39,-869.94 379.75,-873.76 385.63,-876.69"/>
<polygon fill="midnightblue" stroke="midnightblue" points="331.18,-497.45 320.99,-494.56 327.16,-503.17 331.18,-497.45"/>
</g>
<!-- Node7 -->
<g id="node7" class="node">
<title>Node7</title>
<g id="a_node7"><a xlink:href="classxalanc_1_1ElemChoose.html" target="_top" xlink:title=" ">
<polygon fill="none" stroke="black" points="399.5,-836.5 399.5,-855.5 515.5,-855.5 515.5,-836.5 399.5,-836.5"/>
<text text-anchor="middle" x="457.5" y="-843.5" font-family="Helvetica,sans-Serif" font-size="10.00">xalanc::ElemChoose</text>
</a>
</g>
</g>
<!-- Node3&#45;&gt;Node7 -->
<g id="edge6" class="edge">
<title>Node3&#45;&gt;Node7</title>
<path fill="none" stroke="midnightblue" d="M329.5,-500.59C331.09,-501.95 332.6,-503.42 334,-505 429.62,-612.67 273.65,-719.98 370,-827 377.72,-835.57 388.33,-840.75 399.49,-843.79"/>
<polygon fill="midnightblue" stroke="midnightblue" points="331.14,-497.46 320.94,-494.61 327.13,-503.2 331.14,-497.46"/>
</g>
<!-- Node8 -->
<g id="node8" class="node">
<title>Node8</title>
<g id="a_node8"><a xlink:href="classxalanc_1_1ElemComment.html" target="_top" xlink:title=" ">
<polygon fill="none" stroke="black" points="393.5,-798.5 393.5,-817.5 521.5,-817.5 521.5,-798.5 393.5,-798.5"/>
<text text-anchor="middle" x="457.5" y="-805.5" font-family="Helvetica,sans-Serif" font-size="10.00">xalanc::ElemComment</text>
</a>
</g>
</g>
<!-- Node3&#45;&gt;Node8 -->
<g id="edge7" class="edge">
<title>Node3&#45;&gt;Node8</title>
<path fill="none" stroke="midnightblue" d="M329.47,-500.61C331.07,-501.97 332.58,-503.43 334,-505 419.18,-599.51 284.18,-695.07 370,-789 376.33,-795.92 384.55,-800.63 393.41,-803.77"/>
<polygon fill="midnightblue" stroke="midnightblue" points="331.08,-497.47 320.87,-494.67 327.11,-503.23 331.08,-497.47"/>
</g>
<!-- Node9 -->
<g id="node9" class="node">
<title>Node9</title>
<g id="a_node9"><a xlink:href="classxalanc_1_1ElemCopyOf.html" target="_top" xlink:title=" ">
<polygon fill="none" stroke="black" points="399.5,-760.5 399.5,-779.5 515.5,-779.5 515.5,-760.5 399.5,-760.5"/>
<text text-anchor="middle" x="457.5" y="-767.5" font-family="Helvetica,sans-Serif" font-size="10.00">xalanc::ElemCopyOf</text>
</a>
</g>
</g>
<!-- Node3&#45;&gt;Node9 -->
<g id="edge8" class="edge">
<title>Node3&#45;&gt;Node9</title>
<path fill="none" stroke="midnightblue" d="M328.89,-500.2C330.7,-501.67 332.41,-503.27 334,-505 408.76,-586.36 294.68,-670.15 370,-751 377.76,-759.33 388.25,-764.43 399.26,-767.47"/>
<polygon fill="midnightblue" stroke="midnightblue" points="330.64,-497.16 320.38,-494.53 326.76,-502.99 330.64,-497.16"/>
</g>
<!-- Node10 -->
<g id="node10" class="node">
<title>Node10</title>
<g id="a_node10"><a xlink:href="classxalanc_1_1ElemDecimalFormat.html" target="_top" xlink:title=" ">
<polygon fill="none" stroke="black" points="380,-722.5 380,-741.5 535,-741.5 535,-722.5 380,-722.5"/>
<text text-anchor="middle" x="457.5" y="-729.5" font-family="Helvetica,sans-Serif" font-size="10.00">xalanc::ElemDecimalFormat</text>
</a>
</g>
</g>
<!-- Node3&#45;&gt;Node10 -->
<g id="edge9" class="edge">
<title>Node3&#45;&gt;Node10</title>
<path fill="none" stroke="midnightblue" d="M328.83,-500.26C330.65,-501.71 332.39,-503.29 334,-505 398.37,-573.25 305.16,-645.19 370,-713 373.61,-716.78 377.79,-719.89 382.32,-722.44"/>
<polygon fill="midnightblue" stroke="midnightblue" points="330.54,-497.2 320.26,-494.64 326.71,-503.05 330.54,-497.2"/>
</g>
<!-- Node11 -->
<g id="node11" class="node">
<title>Node11</title>
<g id="a_node11"><a xlink:href="classxalanc_1_1ElemEmpty.html" target="_top" xlink:title=" ">
<polygon fill="none" stroke="black" points="402,-684.5 402,-703.5 513,-703.5 513,-684.5 402,-684.5"/>
<text text-anchor="middle" x="457.5" y="-691.5" font-family="Helvetica,sans-Serif" font-size="10.00">xalanc::ElemEmpty</text>
</a>
</g>
</g>
<!-- Node3&#45;&gt;Node11 -->
<g id="edge10" class="edge">
<title>Node3&#45;&gt;Node11</title>
<path fill="none" stroke="midnightblue" d="M328.6,-500.22C330.5,-501.69 332.31,-503.27 334,-505 388.03,-560.18 315.6,-620.18 370,-675 378.56,-683.62 390.07,-688.73 401.9,-691.68"/>
<polygon fill="midnightblue" stroke="midnightblue" points="330.01,-496.98 319.69,-494.59 326.27,-502.89 330.01,-496.98"/>
</g>
<!-- Node12 -->
<g id="node12" class="node">
<title>Node12</title>
<g id="a_node12"><a xlink:href="classxalanc_1_1ElemFallback.html" target="_top" xlink:title=" ">
<polygon fill="none" stroke="black" points="398,-646.5 398,-665.5 517,-665.5 517,-646.5 398,-646.5"/>
<text text-anchor="middle" x="457.5" y="-653.5" font-family="Helvetica,sans-Serif" font-size="10.00">xalanc::ElemFallback</text>
</a>
</g>
</g>
<!-- Node3&#45;&gt;Node12 -->
<g id="edge11" class="edge">
<title>Node3&#45;&gt;Node12</title>
<path fill="none" stroke="midnightblue" d="M327.86,-499.91C330.02,-501.46 332.08,-503.15 334,-505 377.78,-547.21 325.94,-595.09 370,-637 377.69,-644.31 387.51,-649.06 397.77,-652.1"/>
<polygon fill="midnightblue" stroke="midnightblue" points="329.4,-496.76 319.01,-494.65 325.82,-502.77 329.4,-496.76"/>
</g>
<!-- Node13 -->
<g id="node13" class="node">
<title>Node13</title>
<g id="a_node13"><a xlink:href="classxalanc_1_1ElemForEach.html" target="_top" xlink:title=" ">
<polygon fill="none" stroke="black" points="398.5,-608.5 398.5,-627.5 516.5,-627.5 516.5,-608.5 398.5,-608.5"/>
<text text-anchor="middle" x="457.5" y="-615.5" font-family="Helvetica,sans-Serif" font-size="10.00">xalanc::ElemForEach</text>
</a>
</g>
</g>
<!-- Node3&#45;&gt;Node13 -->
<g id="edge12" class="edge">
<title>Node3&#45;&gt;Node13</title>
<path fill="none" stroke="midnightblue" d="M326.34,-499.34C329.04,-501.03 331.61,-502.91 334,-505 367.71,-534.41 336.09,-569.82 370,-599 378.04,-605.92 388.03,-610.49 398.34,-613.47"/>
<polygon fill="midnightblue" stroke="midnightblue" points="327.79,-496.15 317.32,-494.55 324.5,-502.33 327.79,-496.15"/>
</g>
<!-- Node15 -->
<g id="node15" class="node">
<title>Node15</title>
<g id="a_node15"><a xlink:href="classxalanc_1_1ElemForwardCompatible.html" target="_top" xlink:title=" ">
<polygon fill="none" stroke="black" points="370,-570.5 370,-589.5 545,-589.5 545,-570.5 370,-570.5"/>
<text text-anchor="middle" x="457.5" y="-577.5" font-family="Helvetica,sans-Serif" font-size="10.00">xalanc::ElemForwardCompatible</text>
</a>
</g>
</g>
<!-- Node3&#45;&gt;Node15 -->
<g id="edge14" class="edge">
<title>Node3&#45;&gt;Node15</title>
<path fill="none" stroke="midnightblue" d="M323.04,-498.57C326.88,-500.44 330.57,-502.58 334,-505 358.17,-522.06 345.71,-544.1 370,-561 375.55,-564.86 381.75,-567.96 388.21,-570.44"/>
<polygon fill="midnightblue" stroke="midnightblue" points="324.4,-495.34 313.83,-494.63 321.65,-501.78 324.4,-495.34"/>
</g>
<!-- Node16 -->
<g id="node16" class="node">
<title>Node16</title>
<g id="a_node16"><a xlink:href="classxalanc_1_1ElemIf.html" target="_top" xlink:title=" ">
<polygon fill="none" stroke="black" points="414.5,-532.5 414.5,-551.5 500.5,-551.5 500.5,-532.5 414.5,-532.5"/>
<text text-anchor="middle" x="457.5" y="-539.5" font-family="Helvetica,sans-Serif" font-size="10.00">xalanc::ElemIf</text>
</a>
</g>
</g>
<!-- Node3&#45;&gt;Node16 -->
<g id="edge15" class="edge">
<title>Node3&#45;&gt;Node16</title>
<path fill="none" stroke="midnightblue" d="M308.17,-497.07C316.93,-499.38 325.77,-502.03 334,-505 350.82,-511.08 353.14,-517.04 370,-523 384.06,-527.97 399.88,-531.9 414.12,-534.87"/>
<polygon fill="midnightblue" stroke="midnightblue" points="308.91,-493.64 298.36,-494.59 307.2,-500.43 308.91,-493.64"/>
</g>
<!-- Node17 -->
<g id="node17" class="node">
<title>Node17</title>
<g id="a_node17"><a xlink:href="classxalanc_1_1ElemMessage.html" target="_top" xlink:title=" ">
<polygon fill="none" stroke="black" points="396,-494.5 396,-513.5 519,-513.5 519,-494.5 396,-494.5"/>
<text text-anchor="middle" x="457.5" y="-501.5" font-family="Helvetica,sans-Serif" font-size="10.00">xalanc::ElemMessage</text>
</a>
</g>
</g>
<!-- Node3&#45;&gt;Node17 -->
<g id="edge16" class="edge">
<title>Node3&#45;&gt;Node17</title>
<path fill="none" stroke="midnightblue" d="M340.18,-493.37C358.98,-495.09 378.32,-496.86 395.71,-498.45"/>
<polygon fill="midnightblue" stroke="midnightblue" points="340.39,-489.88 330.11,-492.45 339.75,-496.85 340.39,-489.88"/>
</g>
<!-- Node18 -->
<g id="node18" class="node">
<title>Node18</title>
<g id="a_node18"><a xlink:href="classxalanc_1_1ElemNumber.html" target="_top" xlink:title=" ">
<polygon fill="none" stroke="black" points="398,-456.5 398,-475.5 517,-475.5 517,-456.5 398,-456.5"/>
<text text-anchor="middle" x="457.5" y="-463.5" font-family="Helvetica,sans-Serif" font-size="10.00">xalanc::ElemNumber</text>
</a>
</g>
</g>
<!-- Node3&#45;&gt;Node18 -->
<g id="edge17" class="edge">
<title>Node3&#45;&gt;Node18</title>
<path fill="none" stroke="midnightblue" d="M340.28,-476.62C359.86,-474.83 380.02,-472.99 397.94,-471.35"/>
<polygon fill="midnightblue" stroke="midnightblue" points="339.75,-473.15 330.11,-477.55 340.39,-480.12 339.75,-473.15"/>
</g>
<!-- Node19 -->
<g id="node19" class="node">
<title>Node19</title>
<g id="a_node19"><a xlink:href="classxalanc_1_1ElemOtherwise.html" target="_top" xlink:title=" ">
<polygon fill="none" stroke="black" points="393,-418.5 393,-437.5 522,-437.5 522,-418.5 393,-418.5"/>
<text text-anchor="middle" x="457.5" y="-425.5" font-family="Helvetica,sans-Serif" font-size="10.00">xalanc::ElemOtherwise</text>
</a>
</g>
</g>
<!-- Node3&#45;&gt;Node19 -->
<g id="edge18" class="edge">
<title>Node3&#45;&gt;Node19</title>
<path fill="none" stroke="midnightblue" d="M311.92,-472.91C319.45,-470.89 326.95,-468.59 334,-466 350.98,-459.76 353.01,-453.22 370,-447 380.25,-443.25 391.47,-440.11 402.33,-437.55"/>
<polygon fill="midnightblue" stroke="midnightblue" points="310.88,-469.56 302.04,-475.41 312.59,-476.35 310.88,-469.56"/>
</g>
<!-- Node20 -->
<g id="node20" class="node">
<title>Node20</title>
<g id="a_node20"><a xlink:href="classxalanc_1_1ElemPI.html" target="_top" xlink:title=" ">
<polygon fill="none" stroke="black" points="413,-380.5 413,-399.5 502,-399.5 502,-380.5 413,-380.5"/>
<text text-anchor="middle" x="457.5" y="-387.5" font-family="Helvetica,sans-Serif" font-size="10.00">xalanc::ElemPI</text>
</a>
</g>
</g>
<!-- Node3&#45;&gt;Node20 -->
<g id="edge19" class="edge">
<title>Node3&#45;&gt;Node20</title>
<path fill="none" stroke="midnightblue" d="M325.36,-471.22C328.37,-469.66 331.26,-467.92 334,-466 358.51,-448.76 345.47,-426.21 370,-409 382.46,-400.26 398.22,-395.43 412.86,-392.81"/>
<polygon fill="midnightblue" stroke="midnightblue" points="323.72,-468.12 316.03,-475.41 326.59,-474.5 323.72,-468.12"/>
</g>
<!-- Node21 -->
<g id="node21" class="node">
<title>Node21</title>
<g id="a_node21"><a xlink:href="classxalanc_1_1ElemSort.html" target="_top" xlink:title=" ">
<polygon fill="none" stroke="black" points="408,-342.5 408,-361.5 507,-361.5 507,-342.5 408,-342.5"/>
<text text-anchor="middle" x="457.5" y="-349.5" font-family="Helvetica,sans-Serif" font-size="10.00">xalanc::ElemSort</text>
</a>
</g>
</g>
<!-- Node3&#45;&gt;Node21 -->
<g id="edge20" class="edge">
<title>Node3&#45;&gt;Node21</title>
<path fill="none" stroke="midnightblue" d="M328.4,-470.27C330.35,-468.96 332.23,-467.54 334,-466 368.13,-436.44 335.83,-400.51 370,-371 380.47,-361.95 394.27,-356.92 407.77,-354.2"/>
<polygon fill="midnightblue" stroke="midnightblue" points="326.39,-467.39 319.4,-475.36 329.83,-473.48 326.39,-467.39"/>
</g>
<!-- Node22 -->
<g id="node22" class="node">
<title>Node22</title>
<g id="a_node22"><a xlink:href="classxalanc_1_1ElemTemplate.html" target="_top" xlink:title=" ">
<polygon fill="none" stroke="black" points="395,-304.5 395,-323.5 520,-323.5 520,-304.5 395,-304.5"/>
<text text-anchor="middle" x="457.5" y="-311.5" font-family="Helvetica,sans-Serif" font-size="10.00">xalanc::ElemTemplate</text>
</a>
</g>
</g>
<!-- Node3&#45;&gt;Node22 -->
<g id="edge21" class="edge">
<title>Node3&#45;&gt;Node22</title>
<path fill="none" stroke="midnightblue" d="M329.32,-469.97C330.95,-468.74 332.52,-467.42 334,-466 378.28,-423.7 325.67,-375.25 370,-333 376.9,-326.42 385.53,-321.92 394.65,-318.87"/>
<polygon fill="midnightblue" stroke="midnightblue" points="327.26,-467.13 320.63,-475.4 330.97,-473.07 327.26,-467.13"/>
</g>
<!-- Node23 -->
<g id="node23" class="node">
<title>Node23</title>
<g id="a_node23"><a xlink:href="classxalanc_1_1ElemText.html" target="_top" xlink:title="This primarily acts as a marker on the element stack to signal that whitespace should be preserved.">
<polygon fill="none" stroke="black" points="407.5,-266.5 407.5,-285.5 507.5,-285.5 507.5,-266.5 407.5,-266.5"/>
<text text-anchor="middle" x="457.5" y="-273.5" font-family="Helvetica,sans-Serif" font-size="10.00">xalanc::ElemText</text>
</a>
</g>
</g>
<!-- Node3&#45;&gt;Node23 -->
<g id="edge22" class="edge">
<title>Node3&#45;&gt;Node23</title>
<path fill="none" stroke="midnightblue" d="M329.95,-469.67C331.36,-468.52 332.71,-467.3 334,-466 388.61,-410.78 315.32,-350.16 370,-295 379.85,-285.06 393.63,-279.79 407.3,-277.12"/>
<polygon fill="midnightblue" stroke="midnightblue" points="327.67,-466.98 321.28,-475.43 331.54,-472.81 327.67,-466.98"/>
</g>
<!-- Node24 -->
<g id="node24" class="node">
<title>Node24</title>
<g id="a_node24"><a xlink:href="classxalanc_1_1ElemTextLiteral.html" target="_top" xlink:title=" ">
<polygon fill="none" stroke="black" points="392,-228.5 392,-247.5 523,-247.5 523,-228.5 392,-228.5"/>
<text text-anchor="middle" x="457.5" y="-235.5" font-family="Helvetica,sans-Serif" font-size="10.00">xalanc::ElemTextLiteral</text>
</a>
</g>
</g>
<!-- Node3&#45;&gt;Node24 -->
<g id="edge23" class="edge">
<title>Node3&#45;&gt;Node24</title>
<path fill="none" stroke="midnightblue" d="M330.13,-469.63C331.48,-468.5 332.77,-467.29 334,-466 399.03,-397.77 304.89,-325.15 370,-257 376.05,-250.66 383.7,-246.21 391.93,-243.11"/>
<polygon fill="midnightblue" stroke="midnightblue" points="328.07,-466.8 321.83,-475.36 332.05,-472.56 328.07,-466.8"/>
</g>
<!-- Node25 -->
<g id="node25" class="node">
<title>Node25</title>
<g id="a_node25"><a xlink:href="classxalanc_1_1ElemUse.html" target="_top" xlink:title=" ">
<polygon fill="none" stroke="black" points="408.5,-190.5 408.5,-209.5 506.5,-209.5 506.5,-190.5 408.5,-190.5"/>
<text text-anchor="middle" x="457.5" y="-197.5" font-family="Helvetica,sans-Serif" font-size="10.00">xalanc::ElemUse</text>
</a>
</g>
</g>
<!-- Node3&#45;&gt;Node25 -->
<g id="edge24" class="edge">
<title>Node3&#45;&gt;Node25</title>
<path fill="none" stroke="midnightblue" d="M330.18,-469.67C331.51,-468.53 332.79,-467.3 334,-466 409.49,-384.71 294.41,-300.2 370,-219 379.85,-208.42 394.13,-203.05 408.25,-200.49"/>
<polygon fill="midnightblue" stroke="midnightblue" points="328.11,-466.85 321.94,-475.46 332.13,-472.58 328.11,-466.85"/>
</g>
<!-- Node31 -->
<g id="node31" class="node">
<title>Node31</title>
<g id="a_node31"><a xlink:href="classxalanc_1_1ElemValueOf.html" target="_top" xlink:title=" ">
<polygon fill="none" stroke="black" points="398.5,-152.5 398.5,-171.5 516.5,-171.5 516.5,-152.5 398.5,-152.5"/>
<text text-anchor="middle" x="457.5" y="-159.5" font-family="Helvetica,sans-Serif" font-size="10.00">xalanc::ElemValueOf</text>
</a>
</g>
</g>
<!-- Node3&#45;&gt;Node31 -->
<g id="edge30" class="edge">
<title>Node3&#45;&gt;Node31</title>
<path fill="none" stroke="midnightblue" d="M330.68,-469.29C331.83,-468.26 332.94,-467.16 334,-466 419.98,-371.62 283.9,-275.27 370,-181 377.47,-172.83 387.57,-167.75 398.25,-164.67"/>
<polygon fill="midnightblue" stroke="midnightblue" points="328.44,-466.59 322.41,-475.31 332.56,-472.25 328.44,-466.59"/>
</g>
<!-- Node32 -->
<g id="node32" class="node">
<title>Node32</title>
<g id="a_node32"><a xlink:href="classxalanc_1_1ElemVariable.html" target="_top" xlink:title=" ">
<polygon fill="none" stroke="black" points="398,-114.5 398,-133.5 517,-133.5 517,-114.5 398,-114.5"/>
<text text-anchor="middle" x="457.5" y="-121.5" font-family="Helvetica,sans-Serif" font-size="10.00">xalanc::ElemVariable</text>
</a>
</g>
</g>
<!-- Node3&#45;&gt;Node32 -->
<g id="edge31" class="edge">
<title>Node3&#45;&gt;Node32</title>
<path fill="none" stroke="midnightblue" d="M330.7,-469.31C331.85,-468.27 332.95,-467.17 334,-466 430.49,-358.51 273.37,-250.37 370,-143 377.3,-134.89 387.21,-129.81 397.71,-126.71"/>
<polygon fill="midnightblue" stroke="midnightblue" points="328.45,-466.62 322.47,-475.37 332.6,-472.26 328.45,-466.62"/>
</g>
<!-- Node34 -->
<g id="node34" class="node">
<title>Node34</title>
<g id="a_node34"><a xlink:href="classxalanc_1_1ElemWhen.html" target="_top" xlink:title=" ">
<polygon fill="none" stroke="black" points="404,-76.5 404,-95.5 511,-95.5 511,-76.5 404,-76.5"/>
<text text-anchor="middle" x="457.5" y="-83.5" font-family="Helvetica,sans-Serif" font-size="10.00">xalanc::ElemWhen</text>
</a>
</g>
</g>
<!-- Node3&#45;&gt;Node34 -->
<g id="edge33" class="edge">
<title>Node3&#45;&gt;Node34</title>
<path fill="none" stroke="midnightblue" d="M330.72,-469.33C331.86,-468.28 332.96,-467.17 334,-466 441.02,-345.39 262.84,-225.48 370,-105 378.69,-95.24 391.14,-89.86 403.9,-87.04"/>
<polygon fill="midnightblue" stroke="midnightblue" points="328.47,-466.64 322.52,-475.41 332.64,-472.26 328.47,-466.64"/>
</g>
<!-- Node35 -->
<g id="node35" class="node">
<title>Node35</title>
<g id="a_node35"><a xlink:href="classxalanc_1_1ElemWithParam.html" target="_top" xlink:title=" ">
<polygon fill="none" stroke="black" points="391,-38.5 391,-57.5 524,-57.5 524,-38.5 391,-38.5"/>
<text text-anchor="middle" x="457.5" y="-45.5" font-family="Helvetica,sans-Serif" font-size="10.00">xalanc::ElemWithParam</text>
</a>
</g>
</g>
<!-- Node3&#45;&gt;Node35 -->
<g id="edge34" class="edge">
<title>Node3&#45;&gt;Node35</title>
<path fill="none" stroke="midnightblue" d="M330.73,-469.34C331.87,-468.29 332.96,-467.18 334,-466 392.77,-399.13 311.14,-133.8 370,-67 375.59,-60.66 382.77,-56.16 390.6,-53.01"/>
<polygon fill="midnightblue" stroke="midnightblue" points="328.48,-466.66 322.56,-475.45 332.67,-472.27 328.48,-466.66"/>
</g>
<!-- Node14 -->
<g id="node14" class="node">
<title>Node14</title>
<g id="a_node14"><a xlink:href="classxalanc_1_1ElemApplyTemplates.html" target="_top" xlink:title=" ">
<polygon fill="none" stroke="black" points="581,-608.5 581,-627.5 739,-627.5 739,-608.5 581,-608.5"/>
<text text-anchor="middle" x="660" y="-615.5" font-family="Helvetica,sans-Serif" font-size="10.00">xalanc::ElemApplyTemplates</text>
</a>
</g>
</g>
<!-- Node13&#45;&gt;Node14 -->
<g id="edge13" class="edge">
<title>Node13&#45;&gt;Node14</title>
<path fill="none" stroke="midnightblue" d="M526.81,-618C544.18,-618 562.99,-618 580.81,-618"/>
<polygon fill="midnightblue" stroke="midnightblue" points="526.76,-614.5 516.76,-618 526.76,-621.5 526.76,-614.5"/>
</g>
<!-- Node26 -->
<g id="node26" class="node">
<title>Node26</title>
<g id="a_node26"><a xlink:href="classxalanc_1_1ElemAttributeSet.html" target="_top" xlink:title=" ">
<polygon fill="none" stroke="black" points="591,-266.5 591,-285.5 729,-285.5 729,-266.5 591,-266.5"/>
<text text-anchor="middle" x="660" y="-273.5" font-family="Helvetica,sans-Serif" font-size="10.00">xalanc::ElemAttributeSet</text>
</a>
</g>
</g>
<!-- Node25&#45;&gt;Node26 -->
<g id="edge25" class="edge">
<title>Node25&#45;&gt;Node26</title>
<path fill="none" stroke="midnightblue" d="M516.46,-207.71C526.36,-210.41 536.27,-214.06 545,-219 565.25,-230.44 560.88,-245.33 581,-257 587.63,-260.85 595.01,-263.92 602.52,-266.37"/>
<polygon fill="midnightblue" stroke="midnightblue" points="517.14,-204.27 506.59,-205.3 515.48,-211.07 517.14,-204.27"/>
</g>
<!-- Node27 -->
<g id="node27" class="node">
<title>Node27</title>
<g id="a_node27"><a xlink:href="classxalanc_1_1ElemCopy.html" target="_top" xlink:title=" ">
<polygon fill="none" stroke="black" points="608,-228.5 608,-247.5 712,-247.5 712,-228.5 608,-228.5"/>
<text text-anchor="middle" x="660" y="-235.5" font-family="Helvetica,sans-Serif" font-size="10.00">xalanc::ElemCopy</text>
</a>
</g>
</g>
<!-- Node25&#45;&gt;Node27 -->
<g id="edge26" class="edge">
<title>Node25&#45;&gt;Node27</title>
<path fill="none" stroke="midnightblue" d="M516.56,-211C545.67,-216.52 580.59,-223.14 608.57,-228.44"/>
<polygon fill="midnightblue" stroke="midnightblue" points="517,-207.53 506.52,-209.1 515.7,-214.4 517,-207.53"/>
</g>
<!-- Node28 -->
<g id="node28" class="node">
<title>Node28</title>
<g id="a_node28"><a xlink:href="classxalanc_1_1ElemElement.html" target="_top" xlink:title=" ">
<polygon fill="none" stroke="black" points="600,-190.5 600,-209.5 720,-209.5 720,-190.5 600,-190.5"/>
<text text-anchor="middle" x="660" y="-197.5" font-family="Helvetica,sans-Serif" font-size="10.00">xalanc::ElemElement</text>
</a>
</g>
</g>
<!-- Node25&#45;&gt;Node28 -->
<g id="edge27" class="edge">
<title>Node25&#45;&gt;Node28</title>
<path fill="none" stroke="midnightblue" d="M516.67,-200C542.82,-200 573.64,-200 599.9,-200"/>
<polygon fill="midnightblue" stroke="midnightblue" points="516.52,-196.5 506.52,-200 516.52,-203.5 516.52,-196.5"/>
</g>
<!-- Node29 -->
<g id="node29" class="node">
<title>Node29</title>
<g id="a_node29"><a xlink:href="classxalanc_1_1ElemLiteralResult.html" target="_top" xlink:title=" ">
<polygon fill="none" stroke="black" points="589.5,-152.5 589.5,-171.5 730.5,-171.5 730.5,-152.5 589.5,-152.5"/>
<text text-anchor="middle" x="660" y="-159.5" font-family="Helvetica,sans-Serif" font-size="10.00">xalanc::ElemLiteralResult</text>
</a>
</g>
</g>
<!-- Node25&#45;&gt;Node29 -->
<g id="edge28" class="edge">
<title>Node25&#45;&gt;Node29</title>
<path fill="none" stroke="midnightblue" d="M516.56,-189C545.67,-183.48 580.59,-176.86 608.57,-171.56"/>
<polygon fill="midnightblue" stroke="midnightblue" points="515.7,-185.6 506.52,-190.9 517,-192.47 515.7,-185.6"/>
</g>
<!-- Node30 -->
<g id="node30" class="node">
<title>Node30</title>
<g id="a_node30"><a xlink:href="classxalanc_1_1ElemExtensionCall.html" target="_top" xlink:title=" ">
<polygon fill="none" stroke="black" points="775,-152.5 775,-171.5 921,-171.5 921,-152.5 775,-152.5"/>
<text text-anchor="middle" x="848" y="-159.5" font-family="Helvetica,sans-Serif" font-size="10.00">xalanc::ElemExtensionCall</text>
</a>
</g>
</g>
<!-- Node29&#45;&gt;Node30 -->
<g id="edge29" class="edge">
<title>Node29&#45;&gt;Node30</title>
<path fill="none" stroke="midnightblue" d="M740.79,-162C752.08,-162 763.63,-162 774.77,-162"/>
<polygon fill="midnightblue" stroke="midnightblue" points="740.52,-158.5 730.52,-162 740.52,-165.5 740.52,-158.5"/>
</g>
<!-- Node33 -->
<g id="node33" class="node">
<title>Node33</title>
<g id="a_node33"><a xlink:href="classxalanc_1_1ElemParam.html" target="_top" xlink:title=" ">
<polygon fill="none" stroke="black" points="605,-114.5 605,-133.5 715,-133.5 715,-114.5 605,-114.5"/>
<text text-anchor="middle" x="660" y="-121.5" font-family="Helvetica,sans-Serif" font-size="10.00">xalanc::ElemParam</text>
</a>
</g>
</g>
<!-- Node32&#45;&gt;Node33 -->
<g id="edge32" class="edge">
<title>Node32&#45;&gt;Node33</title>
<path fill="none" stroke="midnightblue" d="M527.32,-124C552.66,-124 580.99,-124 604.86,-124"/>
<polygon fill="midnightblue" stroke="midnightblue" points="527.03,-120.5 517.03,-124 527.03,-127.5 527.03,-120.5"/>
</g>
<!-- Node37 -->
<g id="node37" class="node">
<title>Node37</title>
<g id="a_node37"><a xlink:href="classxalanc_1_1StylesheetRoot.html" target="_top" xlink:title="This acts as the stylesheet root of the stylesheet tree, and holds values that are shared by all styl...">
<polygon fill="none" stroke="black" points="393,-0.5 393,-19.5 522,-19.5 522,-0.5 393,-0.5"/>
<text text-anchor="middle" x="457.5" y="-7.5" font-family="Helvetica,sans-Serif" font-size="10.00">xalanc::StylesheetRoot</text>
</a>
</g>
</g>
<!-- Node36&#45;&gt;Node37 -->
<g id="edge36" class="edge">
<title>Node36&#45;&gt;Node37</title>
<path fill="none" stroke="midnightblue" d="M310.8,-442.96C319.63,-439.8 327.81,-435.05 334,-428 392.77,-361.13 311.14,-95.8 370,-29 376.1,-22.08 384.09,-17.36 392.75,-14.19"/>
<polygon fill="midnightblue" stroke="midnightblue" points="309.64,-439.65 301.01,-445.79 311.58,-446.37 309.64,-439.65"/>
</g>
</g>
</svg>
