<?xml version="1.0" encoding="UTF-8" standalone="no"?>
<!DOCTYPE svg PUBLIC "-//W3C//DTD SVG 1.1//EN"
 "http://www.w3.org/Graphics/SVG/1.1/DTD/svg11.dtd">
<!-- Generated by graphviz version 2.43.0 (0)
 -->
<!-- Title: xalanc::ReusableArenaBlock&lt; ObjectType, SizeType &gt; Pages: 1 -->
<svg width="1096pt" height="78pt"
 viewBox="0.00 0.00 1096.00 77.50" xmlns="http://www.w3.org/2000/svg" xmlns:xlink="http://www.w3.org/1999/xlink">
<g id="graph0" class="graph" transform="scale(1 1) rotate(0) translate(4 73.5)">
<title>xalanc::ReusableArenaBlock&lt; ObjectType, SizeType &gt;</title>
<!-- Node1 -->
<g id="node1" class="node">
<title>Node1</title>
<g id="a_node1"><a xlink:title=" ">
<polygon fill="#bfbfbf" stroke="black" points="933,-26.5 933,-56.5 1088,-56.5 1088,-26.5 933,-26.5"/>
<text text-anchor="start" x="941" y="-44.5" font-family="Helvetica,sans-Serif" font-size="10.00">xalanc::ReusableArenaBlock</text>
<text text-anchor="middle" x="1010.5" y="-33.5" font-family="Helvetica,sans-Serif" font-size="10.00">&lt; ObjectType, SizeType &gt;</text>
</a>
</g>
</g>
<!-- Node2 -->
<g id="node2" class="node">
<title>Node2</title>
<g id="a_node2"><a xlink:href="classxalanc_1_1ArenaBlockBase.html" target="_top" xlink:title=" ">
<polygon fill="none" stroke="black" points="762,-21 762,-62 896,-62 896,-21 762,-21"/>
<text text-anchor="start" x="770" y="-50" font-family="Helvetica,sans-Serif" font-size="10.00">xalanc::ArenaBlockBase</text>
<text text-anchor="start" x="770" y="-39" font-family="Helvetica,sans-Serif" font-size="10.00">&lt; ObjectType, unsigned</text>
<text text-anchor="middle" x="829" y="-28" font-family="Helvetica,sans-Serif" font-size="10.00"> short &gt;</text>
</a>
</g>
</g>
<!-- Node2&#45;&gt;Node1 -->
<g id="edge1" class="edge">
<title>Node2&#45;&gt;Node1</title>
<path fill="none" stroke="midnightblue" d="M906.32,-41.5C915.13,-41.5 924.12,-41.5 932.94,-41.5"/>
<polygon fill="midnightblue" stroke="midnightblue" points="906.07,-38 896.07,-41.5 906.07,-45 906.07,-38"/>
</g>
<!-- Node3 -->
<g id="node3" class="node">
<title>Node3</title>
<g id="a_node3"><a xlink:href="classxalanc_1_1XalanAllocator.html" target="_top" xlink:title=" ">
<polygon fill="none" stroke="black" points="242,-26.5 242,-56.5 368,-56.5 368,-26.5 242,-26.5"/>
<text text-anchor="start" x="250" y="-44.5" font-family="Helvetica,sans-Serif" font-size="10.00">xalanc::XalanAllocator</text>
<text text-anchor="middle" x="305" y="-33.5" font-family="Helvetica,sans-Serif" font-size="10.00">&lt; ObjectType &gt;</text>
</a>
</g>
</g>
<!-- Node3&#45;&gt;Node2 -->
<g id="edge2" class="edge">
<title>Node3&#45;&gt;Node2</title>
<path fill="none" stroke="#9a32cd" stroke-dasharray="5,2" d="M378.12,-47.81C465,-54.41 615.36,-62.64 744,-53.5 749.73,-53.09 755.67,-52.53 761.61,-51.87"/>
<polygon fill="#9a32cd" stroke="#9a32cd" points="378.34,-44.32 368.1,-47.04 377.8,-51.3 378.34,-44.32"/>
<text text-anchor="middle" x="536" y="-61.5" font-family="Helvetica,sans-Serif" font-size="10.00"> m_allocator</text>
</g>
<!-- Node5 -->
<g id="node5" class="node">
<title>Node5</title>
<g id="a_node5"><a xlink:href="classxalanc_1_1ArenaBlockBase.html" target="_top" xlink:title=" ">
<polygon fill="none" stroke="black" points="465,-0.5 465,-30.5 607,-30.5 607,-0.5 465,-0.5"/>
<text text-anchor="start" x="473" y="-18.5" font-family="Helvetica,sans-Serif" font-size="10.00">xalanc::ArenaBlockBase</text>
<text text-anchor="middle" x="536" y="-7.5" font-family="Helvetica,sans-Serif" font-size="10.00">&lt; ObjectType, SizeType &gt;</text>
</a>
</g>
</g>
<!-- Node3&#45;&gt;Node5 -->
<g id="edge5" class="edge">
<title>Node3&#45;&gt;Node5</title>
<path fill="none" stroke="#9a32cd" stroke-dasharray="5,2" d="M378.25,-33.3C405.85,-30.16 437.25,-26.6 464.66,-23.49"/>
<polygon fill="#9a32cd" stroke="#9a32cd" points="377.81,-29.82 368.27,-34.43 378.6,-36.78 377.81,-29.82"/>
<text text-anchor="middle" x="416.5" y="-35.5" font-family="Helvetica,sans-Serif" font-size="10.00"> m_allocator</text>
</g>
<!-- Node4 -->
<g id="node4" class="node">
<title>Node4</title>
<g id="a_node4"><a xlink:href="classxalanc_1_1XalanAllocator.html" target="_top" xlink:title=" ">
<polygon fill="none" stroke="black" points="0,-26.5 0,-56.5 126,-56.5 126,-26.5 0,-26.5"/>
<text text-anchor="start" x="8" y="-44.5" font-family="Helvetica,sans-Serif" font-size="10.00">xalanc::XalanAllocator</text>
<text text-anchor="middle" x="63" y="-33.5" font-family="Helvetica,sans-Serif" font-size="10.00">&lt; Type &gt;</text>
</a>
</g>
</g>
<!-- Node4&#45;&gt;Node3 -->
<g id="edge3" class="edge">
<title>Node4&#45;&gt;Node3</title>
<path fill="none" stroke="orange" stroke-dasharray="5,2" d="M136.34,-41.5C169.93,-41.5 209.48,-41.5 241.73,-41.5"/>
<polygon fill="orange" stroke="orange" points="136.12,-38 126.12,-41.5 136.12,-45 136.12,-38"/>
<text text-anchor="middle" x="184" y="-44.5" font-family="Helvetica,sans-Serif" font-size="10.00"> &lt; ObjectType &gt;</text>
</g>
<!-- Node5&#45;&gt;Node2 -->
<g id="edge4" class="edge">
<title>Node5&#45;&gt;Node2</title>
<path fill="none" stroke="orange" stroke-dasharray="5,2" d="M617.1,-20.92C655.52,-23.71 702.18,-27.4 744,-31.5 749.85,-32.07 755.92,-32.71 762,-33.38"/>
<polygon fill="orange" stroke="orange" points="617.23,-17.42 607.01,-20.19 616.73,-24.4 617.23,-17.42"/>
<text text-anchor="start" x="625" y="-45.5" font-family="Helvetica,sans-Serif" font-size="10.00"> &lt; ObjectType, unsigned</text>
<text text-anchor="middle" x="684.5" y="-34.5" font-family="Helvetica,sans-Serif" font-size="10.00"> short &gt;</text>
</g>
</g>
</svg>
