<?xml version="1.0" encoding="UTF-8" standalone="no"?>
<!DOCTYPE svg PUBLIC "-//W3C//DTD SVG 1.1//EN"
 "http://www.w3.org/Graphics/SVG/1.1/DTD/svg11.dtd">
<!-- Generated by graphviz version 2.38.0 (20140413.2041)
 -->
<!-- Title: xalanc/XalanSourceTree Pages: 1 -->
<!--zoomable 511 -->
<svg id="main" version="1.1" xmlns="http://www.w3.org/2000/svg" xmlns:xlink="http://www.w3.org/1999/xlink" xml:space="preserve" onload="init(evt)">
<style type="text/css"><![CDATA[
.edge:hover path { stroke: red; }
.edge:hover polygon { stroke: red; fill: red; }
]]></style>
<script type="text/javascript"><![CDATA[
var edges = document.getElementsByTagName('g');
if (edges && edges.length) {
  for (var i=0;i<edges.length;i++) {
    if (edges[i].id.substr(0,4)=='edge') {
      edges[i].setAttribute('class','edge');
    }
  }
}
]]></script>
        <defs>
                <circle id="rim" cx="0" cy="0" r="7"/>
                <circle id="rim2" cx="0" cy="0" r="3.5"/>
                <g id="zoomPlus">
                        <use xlink:href="#rim" fill="#404040">
                                <set attributeName="fill" to="#808080" begin="zoomplus.mouseover" end="zoomplus.mouseout"/>
                        </use>
                        <path d="M-4,0h8M0,-4v8" fill="none" stroke="white" stroke-width="1.5" pointer-events="none"/>
                </g>
                <g id="zoomMin">
                        <use xlink:href="#rim" fill="#404040">
                                <set attributeName="fill" to="#808080" begin="zoomminus.mouseover" end="zoomminus.mouseout"/>
                        </use>
                        <path d="M-4,0h8" fill="none" stroke="white" stroke-width="1.5" pointer-events="none"/>
                </g>
                <g id="dirArrow">
                        <path fill="none" stroke="white" stroke-width="1.5" d="M0,-3.0v7 M-2.5,-0.5L0,-3.0L2.5,-0.5"/>
                </g>
               <g id="resetDef">
                       <use xlink:href="#rim2" fill="#404040">
                               <set attributeName="fill" to="#808080" begin="reset.mouseover" end="reset.mouseout"/>
                       </use>
               </g>
        </defs>

<script type="text/javascript">
var viewWidth = 498;
var viewHeight = 511;
var sectionId = 'dynsection-0';
</script>
<script xlink:href="svgpan.js"/>
<svg id="graph" class="graph">
<g id="viewport">
<title>xalanc/XalanSourceTree</title>
<g id="clust1" class="cluster"><title>clusterdir_4fe86e58e6df1a0cd67cae514a3234ec</title>
<g id="a_clust1"><a xlink:href="dir_4fe86e58e6df1a0cd67cae514a3234ec.html" target="_top" xlink:title="xalanc">
<polygon fill="#ddddee" stroke="black" points="201,-424 201,-495 307,-495 307,-424 201,-424"/>
<text text-anchor="middle" x="254" y="-483" font-family="Helvetica,sans-Serif" font-size="10.00">xalanc</text>
</a>
</g>
</g>
<!-- dir_e1f1c3069ac5555fd7d7780bcf9dbafa -->
<g id="node1" class="node"><title>dir_e1f1c3069ac5555fd7d7780bcf9dbafa</title>
<g id="a_node1"><a xlink:href="dir_e1f1c3069ac5555fd7d7780bcf9dbafa.html" target="_top" xlink:title="XalanSourceTree">
<polygon fill="#eeeeff" stroke="black" points="298.5,-468 209.5,-468 209.5,-432 298.5,-432 298.5,-468"/>
<text text-anchor="middle" x="254" y="-447.5" font-family="Helvetica,sans-Serif" font-size="10.00">XalanSourceTree</text>
</a>
</g>
</g>
<!-- dir_bd626f48b2f751fd24704cf98093773c -->
<g id="node2" class="node"><title>dir_bd626f48b2f751fd24704cf98093773c</title>
<g id="a_node2"><a xlink:href="dir_bd626f48b2f751fd24704cf98093773c.html" target="_top" xlink:title="PlatformSupport">
<polygon fill="none" stroke="black" points="200,-180 114,-180 114,-144 200,-144 200,-180"/>
<text text-anchor="middle" x="157" y="-159.5" font-family="Helvetica,sans-Serif" font-size="10.00">PlatformSupport</text>
</a>
</g>
</g>
<!-- dir_e1f1c3069ac5555fd7d7780bcf9dbafa&#45;&gt;dir_bd626f48b2f751fd24704cf98093773c -->
<g id="edge12" class="edge"><title>dir_e1f1c3069ac5555fd7d7780bcf9dbafa&#45;&gt;dir_bd626f48b2f751fd24704cf98093773c</title>
<path fill="none" stroke="black" d="M229.264,-431.92C200.781,-410.544 155.651,-370.976 138,-324 121.117,-279.067 135.161,-222.549 146.418,-189.823"/>
<polygon fill="black" stroke="black" points="149.832,-190.673 149.932,-180.079 143.247,-188.298 149.832,-190.673"/>
<g id="a_edge12&#45;headlabel"><a xlink:href="dir_000013_000005.html" target="_top" xlink:title="15">
<text text-anchor="middle" x="151.283" y="-192.518" font-family="Helvetica,sans-Serif" font-size="10.00">15</text>
</a>
</g>
</g>
<!-- dir_31d1584d1b1bd63f85633ff943c76478 -->
<g id="node3" class="node"><title>dir_31d1584d1b1bd63f85633ff943c76478</title>
<g id="a_node3"><a xlink:href="dir_31d1584d1b1bd63f85633ff943c76478.html" target="_top" xlink:title="Include">
<polygon fill="none" stroke="black" points="184,-36 130,-36 130,-0 184,-0 184,-36"/>
<text text-anchor="middle" x="157" y="-15.5" font-family="Helvetica,sans-Serif" font-size="10.00">Include</text>
</a>
</g>
</g>
<!-- dir_e1f1c3069ac5555fd7d7780bcf9dbafa&#45;&gt;dir_31d1584d1b1bd63f85633ff943c76478 -->
<g id="edge13" class="edge"><title>dir_e1f1c3069ac5555fd7d7780bcf9dbafa&#45;&gt;dir_31d1584d1b1bd63f85633ff943c76478</title>
<path fill="none" stroke="black" d="M209.466,-444.328C136.62,-433.954 0,-401.852 0,-307 0,-307 0,-307 0,-161 0,-117.449 10.1568,-102.747 41,-72 62.7754,-50.2925 95.0599,-36.5401 120.045,-28.4998"/>
<polygon fill="black" stroke="black" points="121.363,-31.7572 129.909,-25.4959 119.324,-25.0608 121.363,-31.7572"/>
<g id="a_edge13&#45;headlabel"><a xlink:href="dir_000013_000004.html" target="_top" xlink:title="8">
<text text-anchor="middle" x="118.751" y="-33.0204" font-family="Helvetica,sans-Serif" font-size="10.00">8</text>
</a>
</g>
</g>
<!-- dir_3aa9b7acd6ddc89d8eca1da6bd7073d4 -->
<g id="node4" class="node"><title>dir_3aa9b7acd6ddc89d8eca1da6bd7073d4</title>
<g id="a_node4"><a xlink:href="dir_3aa9b7acd6ddc89d8eca1da6bd7073d4.html" target="_top" xlink:title="XMLSupport">
<polygon fill="none" stroke="black" points="288.5,-324 219.5,-324 219.5,-288 288.5,-288 288.5,-324"/>
<text text-anchor="middle" x="254" y="-303.5" font-family="Helvetica,sans-Serif" font-size="10.00">XMLSupport</text>
</a>
</g>
</g>
<!-- dir_e1f1c3069ac5555fd7d7780bcf9dbafa&#45;&gt;dir_3aa9b7acd6ddc89d8eca1da6bd7073d4 -->
<g id="edge14" class="edge"><title>dir_e1f1c3069ac5555fd7d7780bcf9dbafa&#45;&gt;dir_3aa9b7acd6ddc89d8eca1da6bd7073d4</title>
<path fill="none" stroke="black" d="M254,-431.871C254,-407.67 254,-363.211 254,-334.393"/>
<polygon fill="black" stroke="black" points="257.5,-334.189 254,-324.189 250.5,-334.189 257.5,-334.189"/>
<g id="a_edge14&#45;headlabel"><a xlink:href="dir_000013_000017.html" target="_top" xlink:title="1">
<text text-anchor="middle" x="260.339" y="-335.284" font-family="Helvetica,sans-Serif" font-size="10.00">1</text>
</a>
</g>
</g>
<!-- dir_83a3b5b40a6f9adf8910408980761211 -->
<g id="node5" class="node"><title>dir_83a3b5b40a6f9adf8910408980761211</title>
<g id="a_node5"><a xlink:href="dir_83a3b5b40a6f9adf8910408980761211.html" target="_top" xlink:title="XPath">
<polygon fill="none" stroke="black" points="201,-324 147,-324 147,-288 201,-288 201,-324"/>
<text text-anchor="middle" x="174" y="-303.5" font-family="Helvetica,sans-Serif" font-size="10.00">XPath</text>
</a>
</g>
</g>
<!-- dir_e1f1c3069ac5555fd7d7780bcf9dbafa&#45;&gt;dir_83a3b5b40a6f9adf8910408980761211 -->
<g id="edge15" class="edge"><title>dir_e1f1c3069ac5555fd7d7780bcf9dbafa&#45;&gt;dir_83a3b5b40a6f9adf8910408980761211</title>
<path fill="none" stroke="black" d="M244.35,-431.871C230.535,-407.35 205.004,-362.032 188.794,-333.259"/>
<polygon fill="black" stroke="black" points="191.642,-331.184 183.684,-324.189 185.543,-334.62 191.642,-331.184"/>
<g id="a_edge15&#45;headlabel"><a xlink:href="dir_000013_000018.html" target="_top" xlink:title="1">
<text text-anchor="middle" x="195.88" y="-330.422" font-family="Helvetica,sans-Serif" font-size="10.00">1</text>
</a>
</g>
</g>
<!-- dir_b090b8748e4b70feab6047a0bae7310f -->
<g id="node6" class="node"><title>dir_b090b8748e4b70feab6047a0bae7310f</title>
<g id="a_node6"><a xlink:href="dir_b090b8748e4b70feab6047a0bae7310f.html" target="_top" xlink:title="XercesParserLiaison">
<polygon fill="none" stroke="red" points="450.5,-396 345.5,-396 345.5,-360 450.5,-360 450.5,-396"/>
<text text-anchor="middle" x="398" y="-375.5" font-family="Helvetica,sans-Serif" font-size="10.00">XercesParserLiaison</text>
</a>
</g>
</g>
<!-- dir_e1f1c3069ac5555fd7d7780bcf9dbafa&#45;&gt;dir_b090b8748e4b70feab6047a0bae7310f -->
<g id="edge16" class="edge"><title>dir_e1f1c3069ac5555fd7d7780bcf9dbafa&#45;&gt;dir_b090b8748e4b70feab6047a0bae7310f</title>
<path fill="none" stroke="black" d="M289.226,-431.876C308.577,-422.469 332.773,-410.708 353.427,-400.667"/>
<polygon fill="black" stroke="black" points="355.175,-403.71 362.638,-396.19 352.114,-397.414 355.175,-403.71"/>
<g id="a_edge16&#45;headlabel"><a xlink:href="dir_000013_000015.html" target="_top" xlink:title="2">
<text text-anchor="middle" x="353.183" y="-405.335" font-family="Helvetica,sans-Serif" font-size="10.00">2</text>
</a>
</g>
</g>
<!-- dir_f7433f2121216d9de9e3e02d65931268 -->
<g id="node7" class="node"><title>dir_f7433f2121216d9de9e3e02d65931268</title>
<g id="a_node7"><a xlink:href="dir_f7433f2121216d9de9e3e02d65931268.html" target="_top" xlink:title="XalanDOM">
<polygon fill="none" stroke="black" points="297,-108 235,-108 235,-72 297,-72 297,-108"/>
<text text-anchor="middle" x="266" y="-87.5" font-family="Helvetica,sans-Serif" font-size="10.00">XalanDOM</text>
</a>
</g>
</g>
<!-- dir_e1f1c3069ac5555fd7d7780bcf9dbafa&#45;&gt;dir_f7433f2121216d9de9e3e02d65931268 -->
<g id="edge17" class="edge"><title>dir_e1f1c3069ac5555fd7d7780bcf9dbafa&#45;&gt;dir_f7433f2121216d9de9e3e02d65931268</title>
<path fill="none" stroke="black" d="M298.535,-443.827C352.757,-436.507 439.532,-421.141 459,-396 531.723,-302.085 460.901,-220.457 370,-144 351.256,-128.235 327.031,-115.542 306.677,-106.535"/>
<polygon fill="black" stroke="black" points="307.905,-103.254 297.335,-102.536 305.15,-109.689 307.905,-103.254"/>
<g id="a_edge17&#45;headlabel"><a xlink:href="dir_000013_000010.html" target="_top" xlink:title="19">
<text text-anchor="middle" x="312.327" y="-99.5587" font-family="Helvetica,sans-Serif" font-size="10.00">19</text>
</a>
</g>
</g>
<!-- dir_f0a4229872794e1f1bf0a7a792e5f50e -->
<g id="node8" class="node"><title>dir_f0a4229872794e1f1bf0a7a792e5f50e</title>
<g id="a_node8"><a xlink:href="dir_f0a4229872794e1f1bf0a7a792e5f50e.html" target="_top" xlink:title="DOMSupport">
<polygon fill="none" stroke="black" points="367.5,-252 294.5,-252 294.5,-216 367.5,-216 367.5,-252"/>
<text text-anchor="middle" x="331" y="-231.5" font-family="Helvetica,sans-Serif" font-size="10.00">DOMSupport</text>
</a>
</g>
</g>
<!-- dir_e1f1c3069ac5555fd7d7780bcf9dbafa&#45;&gt;dir_f0a4229872794e1f1bf0a7a792e5f50e -->
<g id="edge18" class="edge"><title>dir_e1f1c3069ac5555fd7d7780bcf9dbafa&#45;&gt;dir_f0a4229872794e1f1bf0a7a792e5f50e</title>
<path fill="none" stroke="black" d="M260.171,-431.849C273.547,-394.675 305.295,-306.439 321.35,-261.82"/>
<polygon fill="black" stroke="black" points="324.707,-262.827 324.8,-252.232 318.121,-260.457 324.707,-262.827"/>
<g id="a_edge18&#45;headlabel"><a xlink:href="dir_000013_000001.html" target="_top" xlink:title="2">
<text text-anchor="middle" x="326.162" y="-264.67" font-family="Helvetica,sans-Serif" font-size="10.00">2</text>
</a>
</g>
</g>
<!-- dir_bd626f48b2f751fd24704cf98093773c&#45;&gt;dir_31d1584d1b1bd63f85633ff943c76478 -->
<g id="edge1" class="edge"><title>dir_bd626f48b2f751fd24704cf98093773c&#45;&gt;dir_31d1584d1b1bd63f85633ff943c76478</title>
<path fill="none" stroke="black" d="M152.416,-143.871C149.857,-119.67 149.566,-75.2108 151.541,-46.3932"/>
<polygon fill="black" stroke="black" points="155.049,-46.45 152.409,-36.1893 148.074,-45.8566 155.049,-46.45"/>
<g id="a_edge1&#45;headlabel"><a xlink:href="dir_000005_000004.html" target="_top" xlink:title="25">
<text text-anchor="middle" x="157.573" y="-47.7723" font-family="Helvetica,sans-Serif" font-size="10.00">25</text>
</a>
</g>
</g>
<!-- dir_bd626f48b2f751fd24704cf98093773c&#45;&gt;dir_f7433f2121216d9de9e3e02d65931268 -->
<g id="edge2" class="edge"><title>dir_bd626f48b2f751fd24704cf98093773c&#45;&gt;dir_f7433f2121216d9de9e3e02d65931268</title>
<path fill="none" stroke="black" d="M183.664,-143.876C197.784,-134.808 215.311,-123.552 230.561,-113.759"/>
<polygon fill="black" stroke="black" points="232.71,-116.538 239.233,-108.19 228.927,-110.648 232.71,-116.538"/>
<g id="a_edge2&#45;headlabel"><a xlink:href="dir_000005_000010.html" target="_top" xlink:title="21">
<text text-anchor="middle" x="231.22" y="-118.37" font-family="Helvetica,sans-Serif" font-size="10.00">21</text>
</a>
</g>
</g>
<!-- dir_31d1584d1b1bd63f85633ff943c76478&#45;&gt;dir_bd626f48b2f751fd24704cf98093773c -->
<g id="edge3" class="edge"><title>dir_31d1584d1b1bd63f85633ff943c76478&#45;&gt;dir_bd626f48b2f751fd24704cf98093773c</title>
<path fill="none" stroke="black" d="M161.591,-36.1893C164.145,-60.4244 164.433,-104.888 162.454,-133.679"/>
<polygon fill="black" stroke="black" points="158.947,-133.61 161.584,-143.871 165.922,-134.205 158.947,-133.61"/>
<g id="a_edge3&#45;headlabel"><a xlink:href="dir_000004_000005.html" target="_top" xlink:title="2">
<text text-anchor="middle" x="156.424" y="-127.287" font-family="Helvetica,sans-Serif" font-size="10.00">2</text>
</a>
</g>
</g>
<!-- dir_3aa9b7acd6ddc89d8eca1da6bd7073d4&#45;&gt;dir_bd626f48b2f751fd24704cf98093773c -->
<g id="edge4" class="edge"><title>dir_3aa9b7acd6ddc89d8eca1da6bd7073d4&#45;&gt;dir_bd626f48b2f751fd24704cf98093773c</title>
<path fill="none" stroke="black" d="M242.3,-287.871C225.404,-263.137 194.053,-217.242 174.427,-188.512"/>
<polygon fill="black" stroke="black" points="177.273,-186.472 168.742,-180.189 171.493,-190.421 177.273,-186.472"/>
<g id="a_edge4&#45;headlabel"><a xlink:href="dir_000017_000005.html" target="_top" xlink:title="19">
<text text-anchor="middle" x="181.645" y="-185.339" font-family="Helvetica,sans-Serif" font-size="10.00">19</text>
</a>
</g>
</g>
<!-- dir_3aa9b7acd6ddc89d8eca1da6bd7073d4&#45;&gt;dir_31d1584d1b1bd63f85633ff943c76478 -->
<g id="edge5" class="edge"><title>dir_3aa9b7acd6ddc89d8eca1da6bd7073d4&#45;&gt;dir_31d1584d1b1bd63f85633ff943c76478</title>
<path fill="none" stroke="black" d="M219.454,-287.823C183.22,-267.638 128.357,-230.395 105,-180 83.7744,-134.204 114.476,-77.3444 136.955,-44.91"/>
<polygon fill="black" stroke="black" points="140.046,-46.6057 143.027,-36.439 134.356,-42.5275 140.046,-46.6057"/>
<g id="a_edge5&#45;headlabel"><a xlink:href="dir_000017_000004.html" target="_top" xlink:title="7">
<text text-anchor="middle" x="140.259" y="-48.6814" font-family="Helvetica,sans-Serif" font-size="10.00">7</text>
</a>
</g>
</g>
<!-- dir_3aa9b7acd6ddc89d8eca1da6bd7073d4&#45;&gt;dir_f7433f2121216d9de9e3e02d65931268 -->
<g id="edge6" class="edge"><title>dir_3aa9b7acd6ddc89d8eca1da6bd7073d4&#45;&gt;dir_f7433f2121216d9de9e3e02d65931268</title>
<path fill="none" stroke="black" d="M254.962,-287.849C257.037,-250.832 261.952,-163.181 264.464,-118.386"/>
<polygon fill="black" stroke="black" points="267.968,-118.413 265.034,-108.232 260.979,-118.021 267.968,-118.413"/>
<g id="a_edge6&#45;headlabel"><a xlink:href="dir_000017_000010.html" target="_top" xlink:title="5">
<text text-anchor="middle" x="270.602" y="-119.661" font-family="Helvetica,sans-Serif" font-size="10.00">5</text>
</a>
</g>
</g>
<!-- dir_3aa9b7acd6ddc89d8eca1da6bd7073d4&#45;&gt;dir_f0a4229872794e1f1bf0a7a792e5f50e -->
<g id="edge7" class="edge"><title>dir_3aa9b7acd6ddc89d8eca1da6bd7073d4&#45;&gt;dir_f0a4229872794e1f1bf0a7a792e5f50e</title>
<path fill="none" stroke="black" d="M273.034,-287.697C282.545,-279.05 294.207,-268.449 304.57,-259.027"/>
<polygon fill="black" stroke="black" points="307.14,-261.421 312.185,-252.104 302.431,-256.241 307.14,-261.421"/>
<g id="a_edge7&#45;headlabel"><a xlink:href="dir_000017_000001.html" target="_top" xlink:title="3">
<text text-anchor="middle" x="306.39" y="-263.44" font-family="Helvetica,sans-Serif" font-size="10.00">3</text>
</a>
</g>
</g>
<!-- dir_83a3b5b40a6f9adf8910408980761211&#45;&gt;dir_bd626f48b2f751fd24704cf98093773c -->
<g id="edge8" class="edge"><title>dir_83a3b5b40a6f9adf8910408980761211&#45;&gt;dir_bd626f48b2f751fd24704cf98093773c</title>
<path fill="none" stroke="black" d="M171.949,-287.871C169.052,-263.67 163.729,-219.211 160.279,-190.393"/>
<polygon fill="black" stroke="black" points="163.722,-189.702 159.058,-180.189 156.771,-190.534 163.722,-189.702"/>
<g id="a_edge8&#45;headlabel"><a xlink:href="dir_000018_000005.html" target="_top" xlink:title="35">
<text text-anchor="middle" x="166.968" y="-190.434" font-family="Helvetica,sans-Serif" font-size="10.00">35</text>
</a>
</g>
</g>
<!-- dir_83a3b5b40a6f9adf8910408980761211&#45;&gt;dir_31d1584d1b1bd63f85633ff943c76478 -->
<g id="edge9" class="edge"><title>dir_83a3b5b40a6f9adf8910408980761211&#45;&gt;dir_31d1584d1b1bd63f85633ff943c76478</title>
<path fill="none" stroke="black" d="M146.83,-300.61C120.048,-294.681 80.526,-281.262 62,-252 19.2071,-184.407 21.4914,-140.986 62,-72 74.5486,-50.6298 99.1926,-37.2424 120.235,-29.2689"/>
<polygon fill="black" stroke="black" points="121.623,-32.4914 129.9,-25.8778 119.305,-25.8862 121.623,-32.4914"/>
<g id="a_edge9&#45;headlabel"><a xlink:href="dir_000018_000004.html" target="_top" xlink:title="22">
<text text-anchor="middle" x="119.171" y="-33.8606" font-family="Helvetica,sans-Serif" font-size="10.00">22</text>
</a>
</g>
</g>
<!-- dir_83a3b5b40a6f9adf8910408980761211&#45;&gt;dir_f7433f2121216d9de9e3e02d65931268 -->
<g id="edge10" class="edge"><title>dir_83a3b5b40a6f9adf8910408980761211&#45;&gt;dir_f7433f2121216d9de9e3e02d65931268</title>
<path fill="none" stroke="black" d="M181.373,-287.849C197.388,-250.597 235.448,-162.067 254.591,-117.539"/>
<polygon fill="black" stroke="black" points="257.857,-118.802 258.592,-108.232 251.427,-116.037 257.857,-118.802"/>
<g id="a_edge10&#45;headlabel"><a xlink:href="dir_000018_000010.html" target="_top" xlink:title="27">
<text text-anchor="middle" x="259.046" y="-120.726" font-family="Helvetica,sans-Serif" font-size="10.00">27</text>
</a>
</g>
</g>
<!-- dir_83a3b5b40a6f9adf8910408980761211&#45;&gt;dir_f0a4229872794e1f1bf0a7a792e5f50e -->
<g id="edge11" class="edge"><title>dir_83a3b5b40a6f9adf8910408980761211&#45;&gt;dir_f0a4229872794e1f1bf0a7a792e5f50e</title>
<path fill="none" stroke="black" d="M201.089,-292.108C204.09,-290.709 207.106,-289.317 210,-288 234.658,-276.78 262.323,-264.63 284.97,-254.797"/>
<polygon fill="black" stroke="black" points="286.561,-257.922 294.345,-250.735 283.778,-251.5 286.561,-257.922"/>
<g id="a_edge11&#45;headlabel"><a xlink:href="dir_000018_000001.html" target="_top" xlink:title="2">
<text text-anchor="middle" x="284.392" y="-259.457" font-family="Helvetica,sans-Serif" font-size="10.00">2</text>
</a>
</g>
</g>
<!-- dir_b090b8748e4b70feab6047a0bae7310f&#45;&gt;dir_bd626f48b2f751fd24704cf98093773c -->
<g id="edge19" class="edge"><title>dir_b090b8748e4b70feab6047a0bae7310f&#45;&gt;dir_bd626f48b2f751fd24704cf98093773c</title>
<path fill="none" stroke="black" d="M401.289,-359.889C406.467,-327.396 412.495,-256.406 376,-216 354.11,-191.763 267.607,-176.596 210.091,-168.978"/>
<polygon fill="black" stroke="black" points="210.43,-165.492 200.065,-167.687 209.536,-172.435 210.43,-165.492"/>
<g id="a_edge19&#45;headlabel"><a xlink:href="dir_000015_000005.html" target="_top" xlink:title="12">
<text text-anchor="middle" x="214.358" y="-160.635" font-family="Helvetica,sans-Serif" font-size="10.00">12</text>
</a>
</g>
</g>
<!-- dir_b090b8748e4b70feab6047a0bae7310f&#45;&gt;dir_31d1584d1b1bd63f85633ff943c76478 -->
<g id="edge20" class="edge"><title>dir_b090b8748e4b70feab6047a0bae7310f&#45;&gt;dir_31d1584d1b1bd63f85633ff943c76478</title>
<path fill="none" stroke="black" d="M414.463,-359.919C422.654,-350.218 431.704,-337.366 436,-324 440.896,-308.768 437.32,-303.945 436,-288 427.18,-181.428 415.461,-136.28 330,-72 289.614,-41.6235 231.667,-28.4951 194.179,-22.9327"/>
<polygon fill="black" stroke="black" points="194.564,-19.4527 184.18,-21.5564 193.61,-26.3873 194.564,-19.4527"/>
<g id="a_edge20&#45;headlabel"><a xlink:href="dir_000015_000004.html" target="_top" xlink:title="19">
<text text-anchor="middle" x="198.512" y="-14.63" font-family="Helvetica,sans-Serif" font-size="10.00">19</text>
</a>
</g>
</g>
<!-- dir_b090b8748e4b70feab6047a0bae7310f&#45;&gt;dir_3aa9b7acd6ddc89d8eca1da6bd7073d4 -->
<g id="edge21" class="edge"><title>dir_b090b8748e4b70feab6047a0bae7310f&#45;&gt;dir_3aa9b7acd6ddc89d8eca1da6bd7073d4</title>
<path fill="none" stroke="black" d="M362.774,-359.876C343.278,-350.399 318.866,-338.532 298.111,-328.443"/>
<polygon fill="black" stroke="black" points="299.387,-325.171 288.863,-323.947 296.326,-331.467 299.387,-325.171"/>
<g id="a_edge21&#45;headlabel"><a xlink:href="dir_000015_000017.html" target="_top" xlink:title="1">
<text text-anchor="middle" x="303.861" y="-321.689" font-family="Helvetica,sans-Serif" font-size="10.00">1</text>
</a>
</g>
</g>
<!-- dir_b090b8748e4b70feab6047a0bae7310f&#45;&gt;dir_f7433f2121216d9de9e3e02d65931268 -->
<g id="edge22" class="edge"><title>dir_b090b8748e4b70feab6047a0bae7310f&#45;&gt;dir_f7433f2121216d9de9e3e02d65931268</title>
<path fill="none" stroke="black" d="M406.718,-359.833C411.375,-349.694 416.625,-336.444 419,-324 428.139,-276.127 425.019,-257.826 400,-216 374.622,-173.574 330.682,-136.598 300.063,-114.086"/>
<polygon fill="black" stroke="black" points="301.964,-111.142 291.807,-108.128 297.868,-116.818 301.964,-111.142"/>
<g id="a_edge22&#45;headlabel"><a xlink:href="dir_000015_000010.html" target="_top" xlink:title="40">
<text text-anchor="middle" x="306.541" y="-108.443" font-family="Helvetica,sans-Serif" font-size="10.00">40</text>
</a>
</g>
</g>
<!-- dir_b090b8748e4b70feab6047a0bae7310f&#45;&gt;dir_f0a4229872794e1f1bf0a7a792e5f50e -->
<g id="edge23" class="edge"><title>dir_b090b8748e4b70feab6047a0bae7310f&#45;&gt;dir_f0a4229872794e1f1bf0a7a792e5f50e</title>
<path fill="none" stroke="black" d="M389.918,-359.871C378.348,-335.35 356.966,-290.032 343.39,-261.259"/>
<polygon fill="black" stroke="black" points="346.543,-259.74 339.11,-252.189 340.212,-262.727 346.543,-259.74"/>
<g id="a_edge23&#45;headlabel"><a xlink:href="dir_000015_000001.html" target="_top" xlink:title="2">
<text text-anchor="middle" x="350.645" y="-259.279" font-family="Helvetica,sans-Serif" font-size="10.00">2</text>
</a>
</g>
</g>
<!-- dir_f7433f2121216d9de9e3e02d65931268&#45;&gt;dir_31d1584d1b1bd63f85633ff943c76478 -->
<g id="edge24" class="edge"><title>dir_f7433f2121216d9de9e3e02d65931268&#45;&gt;dir_31d1584d1b1bd63f85633ff943c76478</title>
<path fill="none" stroke="black" d="M239.336,-71.8761C225.216,-62.8083 207.689,-51.5523 192.439,-41.7592"/>
<polygon fill="black" stroke="black" points="194.073,-38.6485 183.767,-36.1898 190.29,-44.5385 194.073,-38.6485"/>
<g id="a_edge24&#45;headlabel"><a xlink:href="dir_000010_000004.html" target="_top" xlink:title="5">
<text text-anchor="middle" x="198.631" y="-35.7018" font-family="Helvetica,sans-Serif" font-size="10.00">5</text>
</a>
</g>
</g>
<!-- dir_f0a4229872794e1f1bf0a7a792e5f50e&#45;&gt;dir_bd626f48b2f751fd24704cf98093773c -->
<g id="edge25" class="edge"><title>dir_f0a4229872794e1f1bf0a7a792e5f50e&#45;&gt;dir_bd626f48b2f751fd24704cf98093773c</title>
<path fill="none" stroke="black" d="M294.099,-218.155C269.291,-208.175 236.239,-194.878 208.804,-183.841"/>
<polygon fill="black" stroke="black" points="209.94,-180.525 199.357,-180.04 207.328,-187.019 209.94,-180.525"/>
<g id="a_edge25&#45;headlabel"><a xlink:href="dir_000001_000005.html" target="_top" xlink:title="9">
<text text-anchor="middle" x="214.335" y="-176.733" font-family="Helvetica,sans-Serif" font-size="10.00">9</text>
</a>
</g>
</g>
<!-- dir_f0a4229872794e1f1bf0a7a792e5f50e&#45;&gt;dir_31d1584d1b1bd63f85633ff943c76478 -->
<g id="edge26" class="edge"><title>dir_f0a4229872794e1f1bf0a7a792e5f50e&#45;&gt;dir_31d1584d1b1bd63f85633ff943c76478</title>
<path fill="none" stroke="black" d="M333.588,-215.687C337.38,-183.479 340.635,-113.833 306,-72 278.549,-38.8438 228.836,-26.4205 194.425,-21.7712"/>
<polygon fill="black" stroke="black" points="194.623,-18.2701 184.279,-20.5635 193.795,-25.221 194.623,-18.2701"/>
<g id="a_edge26&#45;headlabel"><a xlink:href="dir_000001_000004.html" target="_top" xlink:title="6">
<text text-anchor="middle" x="198.528" y="-13.3754" font-family="Helvetica,sans-Serif" font-size="10.00">6</text>
</a>
</g>
</g>
<!-- dir_f0a4229872794e1f1bf0a7a792e5f50e&#45;&gt;dir_f7433f2121216d9de9e3e02d65931268 -->
<g id="edge27" class="edge"><title>dir_f0a4229872794e1f1bf0a7a792e5f50e&#45;&gt;dir_f7433f2121216d9de9e3e02d65931268</title>
<path fill="none" stroke="black" d="M323.159,-215.871C311.984,-191.457 291.371,-146.426 278.192,-117.635"/>
<polygon fill="black" stroke="black" points="281.213,-115.825 273.868,-108.189 274.848,-118.739 281.213,-115.825"/>
<g id="a_edge27&#45;headlabel"><a xlink:href="dir_000001_000010.html" target="_top" xlink:title="8">
<text text-anchor="middle" x="285.291" y="-115.412" font-family="Helvetica,sans-Serif" font-size="10.00">8</text>
</a>
</g>
</g>
</g>
</svg>
        <g id="navigator" transform="translate(0 0)" fill="#404254">
                <rect fill="#f2f5e9" fill-opacity="0.5" stroke="#606060" stroke-width=".5" x="0" y="0" width="60" height="60"/>
                <use id="zoomplus" xlink:href="#zoomPlus" x="17" y="9" onmousedown="handleZoom(evt,'in')"/>
                <use id="zoomminus" xlink:href="#zoomMin" x="42" y="9" onmousedown="handleZoom(evt,'out')"/>
                <use id="reset" xlink:href="#resetDef" x="30" y="36" onmousedown="handleReset()"/>
                <g id="arrowUp" xlink:href="#dirArrow" transform="translate(30 24)" onmousedown="handlePan(0,-1)">
                  <use xlink:href="#rim" fill="#404040">
                        <set attributeName="fill" to="#808080" begin="arrowUp.mouseover" end="arrowUp.mouseout"/>
                  </use>
                  <path fill="none" stroke="white" stroke-width="1.5" d="M0,-3.0v7 M-2.5,-0.5L0,-3.0L2.5,-0.5"/>
                </g>
                <g id="arrowRight" xlink:href="#dirArrow" transform="rotate(90) translate(36 -43)" onmousedown="handlePan(1,0)">
                  <use xlink:href="#rim" fill="#404040">
                        <set attributeName="fill" to="#808080" begin="arrowRight.mouseover" end="arrowRight.mouseout"/>
                  </use>
                  <path fill="none" stroke="white" stroke-width="1.5" d="M0,-3.0v7 M-2.5,-0.5L0,-3.0L2.5,-0.5"/>
                </g>
                <g id="arrowDown" xlink:href="#dirArrow" transform="rotate(180) translate(-30 -48)" onmousedown="handlePan(0,1)">
                  <use xlink:href="#rim" fill="#404040">
                        <set attributeName="fill" to="#808080" begin="arrowDown.mouseover" end="arrowDown.mouseout"/>
                  </use>
                  <path fill="none" stroke="white" stroke-width="1.5" d="M0,-3.0v7 M-2.5,-0.5L0,-3.0L2.5,-0.5"/>
                </g>
                <g id="arrowLeft" xlink:href="#dirArrow" transform="rotate(270) translate(-36 17)" onmousedown="handlePan(-1,0)">
                  <use xlink:href="#rim" fill="#404040">
                        <set attributeName="fill" to="#808080" begin="arrowLeft.mouseover" end="arrowLeft.mouseout"/>
                  </use>
                  <path fill="none" stroke="white" stroke-width="1.5" d="M0,-3.0v7 M-2.5,-0.5L0,-3.0L2.5,-0.5"/>
                </g>
        </g>
        <svg viewBox="0 0 15 15" width="100%" height="30px" preserveAspectRatio="xMaxYMin meet">
         <g id="arrow_out" transform="scale(0.3 0.3)">
          <a xlink:href="dir_e1f1c3069ac5555fd7d7780bcf9dbafa_dep_org.svg" target="_base">
           <rect id="button" ry="5" rx="5" y="6" x="6" height="38" width="38"
                fill="#f2f5e9" fill-opacity="0.5" stroke="#606060" stroke-width="1.0"/>
           <path id="arrow"
             d="M 11.500037,31.436501 C 11.940474,20.09759 22.043105,11.32322 32.158766,21.979434 L 37.068811,17.246167 C 37.068811,17.246167 37.088388,32 37.088388,32 L 22.160133,31.978069 C 22.160133,31.978069 26.997745,27.140456 26.997745,27.140456 C 18.528582,18.264221 13.291696,25.230495 11.500037,31.436501 z"
             style="fill:#404040;"/>
          </a>
         </g>
        </svg>
</svg>
