<?xml version="1.0" encoding="UTF-8" standalone="no"?>
<!DOCTYPE svg PUBLIC "-//W3C//DTD SVG 1.1//EN"
 "http://www.w3.org/Graphics/SVG/1.1/DTD/svg11.dtd">
<!-- Generated by graphviz version 2.43.0 (0)
 -->
<!-- Title: xalanc/Utils Pages: 1 -->
<svg width="298pt" height="159pt"
 viewBox="0.00 0.00 298.00 159.00" xmlns="http://www.w3.org/2000/svg" xmlns:xlink="http://www.w3.org/1999/xlink">
<g id="graph0" class="graph" transform="scale(1 1) rotate(0) translate(4 155)">
<title>xalanc/Utils</title>
<g id="clust1" class="cluster">
<title>clusterdir_003fc10f9967e916e3442dacf4c44a60</title>
<g id="a_clust1"><a xlink:href="dir_003fc10f9967e916e3442dacf4c44a60.html" target="_top" xlink:title="xalanc">
<polygon fill="#ddddee" stroke="black" points="8,-56 8,-143 282,-143 282,-56 8,-56"/>
<text text-anchor="middle" x="145" y="-131" font-family="Helvetica,sans-Serif" font-size="10.00">xalanc</text>
</a>
</g>
</g>
<g id="clust2" class="cluster">
<title>clusterdir_6d84acc5ec7a7692c66da14d716c6ba4</title>
<g id="a_clust2"><a xlink:href="dir_6d84acc5ec7a7692c66da14d716c6ba4.html" target="_top">
<polygon fill="#eeeeff" stroke="black" points="16,-64 16,-116 274,-116 274,-64 16,-64"/>
</a>
</g>
</g>
<!-- dir_6d84acc5ec7a7692c66da14d716c6ba4 -->
<g id="node1" class="node">
<title>dir_6d84acc5ec7a7692c66da14d716c6ba4</title>
<text text-anchor="middle" x="239" y="-87.5" font-family="Helvetica,sans-Serif" font-size="10.00">Utils</text>
</g>
<!-- dir_1eebad7b1d76311f5ce77bd9f9849bda -->
<g id="node2" class="node">
<title>dir_1eebad7b1d76311f5ce77bd9f9849bda</title>
<g id="a_node2"><a xlink:href="dir_1eebad7b1d76311f5ce77bd9f9849bda.html" target="_top" xlink:title="MsgCreator">
<polygon fill="white" stroke="black" points="193.5,-108 120.5,-108 120.5,-72 193.5,-72 193.5,-108"/>
<text text-anchor="middle" x="157" y="-87.5" font-family="Helvetica,sans-Serif" font-size="10.00">MsgCreator</text>
</a>
</g>
</g>
<!-- dir_d7e70032e019862b66970d3661bcaf01 -->
<g id="node4" class="node">
<title>dir_d7e70032e019862b66970d3661bcaf01</title>
<g id="a_node4"><a xlink:href="dir_d7e70032e019862b66970d3661bcaf01.html" target="_top" xlink:title="xalanc">
<polygon fill="none" stroke="red" points="137,-36 83,-36 83,0 137,0 137,-36"/>
<text text-anchor="middle" x="110" y="-15.5" font-family="Helvetica,sans-Serif" font-size="10.00">xalanc</text>
</a>
</g>
</g>
<!-- dir_1eebad7b1d76311f5ce77bd9f9849bda&#45;&gt;dir_d7e70032e019862b66970d3661bcaf01 -->
<g id="edge2" class="edge">
<title>dir_1eebad7b1d76311f5ce77bd9f9849bda&#45;&gt;dir_d7e70032e019862b66970d3661bcaf01</title>
<path fill="none" stroke="black" d="M145.38,-71.7C139.86,-63.47 133.15,-53.48 127.07,-44.42"/>
<polygon fill="black" stroke="black" points="129.96,-42.46 121.48,-36.1 124.15,-46.36 129.96,-42.46"/>
<g id="a_edge2&#45;headlabel"><a xlink:href="dir_000011_000000.html" target="_top" xlink:title="6">
<text text-anchor="middle" x="134.33" y="-41.36" font-family="Helvetica,sans-Serif" font-size="10.00">6</text>
</a>
</g>
</g>
<!-- dir_2ac8c5e5bc8f52652b39281016388b98 -->
<g id="node3" class="node">
<title>dir_2ac8c5e5bc8f52652b39281016388b98</title>
<g id="a_node3"><a xlink:href="dir_2ac8c5e5bc8f52652b39281016388b98.html" target="_top" xlink:title="XalanMsgLib">
<polygon fill="white" stroke="black" points="102.5,-108 23.5,-108 23.5,-72 102.5,-72 102.5,-108"/>
<text text-anchor="middle" x="63" y="-87.5" font-family="Helvetica,sans-Serif" font-size="10.00">XalanMsgLib</text>
</a>
</g>
</g>
<!-- dir_2ac8c5e5bc8f52652b39281016388b98&#45;&gt;dir_d7e70032e019862b66970d3661bcaf01 -->
<g id="edge1" class="edge">
<title>dir_2ac8c5e5bc8f52652b39281016388b98&#45;&gt;dir_d7e70032e019862b66970d3661bcaf01</title>
<path fill="none" stroke="black" d="M74.62,-71.7C80.14,-63.47 86.85,-53.48 92.93,-44.42"/>
<polygon fill="black" stroke="black" points="95.85,-46.36 98.52,-36.1 90.04,-42.46 95.85,-46.36"/>
<g id="a_edge1&#45;headlabel"><a xlink:href="dir_000009_000000.html" target="_top" xlink:title="1">
<text text-anchor="middle" x="96.2" y="-48.42" font-family="Helvetica,sans-Serif" font-size="10.00">1</text>
</a>
</g>
</g>
</g>
</svg>
