<?xml version="1.0" encoding="UTF-8" standalone="no"?>
<!DOCTYPE svg PUBLIC "-//W3C//DTD SVG 1.1//EN"
 "http://www.w3.org/Graphics/SVG/1.1/DTD/svg11.dtd">
<!-- Generated by graphviz version 2.43.0 (0)
 -->
<!-- Title: xalanc/XalanEXSLT Pages: 1 -->
<svg width="242pt" height="367pt"
 viewBox="0.00 0.00 241.96 367.00" xmlns="http://www.w3.org/2000/svg" xmlns:xlink="http://www.w3.org/1999/xlink">
<g id="graph0" class="graph" transform="scale(1 1) rotate(0) translate(4 363)">
<title>xalanc/XalanEXSLT</title>
<g id="clust1" class="cluster">
<title>clusterdir_003fc10f9967e916e3442dacf4c44a60</title>
<g id="a_clust1"><a xlink:href="dir_003fc10f9967e916e3442dacf4c44a60.html" target="_top" xlink:title="xalanc">
<polygon fill="#ddddee" stroke="black" points="100,-280 100,-351 190,-351 190,-280 100,-280"/>
<text text-anchor="middle" x="145" y="-339" font-family="Helvetica,sans-Serif" font-size="10.00">xalanc</text>
</a>
</g>
</g>
<!-- dir_4b055654f7757117e7a025725fe22714 -->
<g id="node1" class="node">
<title>dir_4b055654f7757117e7a025725fe22714</title>
<g id="a_node1"><a xlink:href="dir_4b055654f7757117e7a025725fe22714.html" target="_top" xlink:title="XalanEXSLT">
<polygon fill="#eeeeff" stroke="black" points="182,-324 108,-324 108,-288 182,-288 182,-324"/>
<text text-anchor="middle" x="145" y="-303.5" font-family="Helvetica,sans-Serif" font-size="10.00">XalanEXSLT</text>
</a>
</g>
</g>
<!-- dir_d7413574a66885a14b97f024b806a867 -->
<g id="node2" class="node">
<title>dir_d7413574a66885a14b97f024b806a867</title>
<g id="a_node2"><a xlink:href="dir_d7413574a66885a14b97f024b806a867.html" target="_top" xlink:title="XalanExtensions">
<polygon fill="none" stroke="black" points="98,-252 0,-252 0,-216 98,-216 98,-252"/>
<text text-anchor="middle" x="49" y="-231.5" font-family="Helvetica,sans-Serif" font-size="10.00">XalanExtensions</text>
</a>
</g>
</g>
<!-- dir_4b055654f7757117e7a025725fe22714&#45;&gt;dir_d7413574a66885a14b97f024b806a867 -->
<g id="edge6" class="edge">
<title>dir_4b055654f7757117e7a025725fe22714&#45;&gt;dir_d7413574a66885a14b97f024b806a867</title>
<path fill="none" stroke="black" d="M121.27,-287.7C109.06,-278.8 94.01,-267.82 80.82,-258.2"/>
<polygon fill="black" stroke="black" points="82.6,-255.17 72.46,-252.1 78.48,-260.82 82.6,-255.17"/>
<g id="a_edge6&#45;headlabel"><a xlink:href="dir_000013_000014.html" target="_top" xlink:title="11">
<text text-anchor="middle" x="87.18" y="-252.49" font-family="Helvetica,sans-Serif" font-size="10.00">11</text>
</a>
</g>
</g>
<!-- dir_d7e70032e019862b66970d3661bcaf01 -->
<g id="node3" class="node">
<title>dir_d7e70032e019862b66970d3661bcaf01</title>
<g id="a_node3"><a xlink:href="dir_d7e70032e019862b66970d3661bcaf01.html" target="_top" xlink:title="xalanc">
<polygon fill="none" stroke="red" points="152,-36 98,-36 98,0 152,0 152,-36"/>
<text text-anchor="middle" x="125" y="-15.5" font-family="Helvetica,sans-Serif" font-size="10.00">xalanc</text>
</a>
</g>
</g>
<!-- dir_4b055654f7757117e7a025725fe22714&#45;&gt;dir_d7e70032e019862b66970d3661bcaf01 -->
<g id="edge7" class="edge">
<title>dir_4b055654f7757117e7a025725fe22714&#45;&gt;dir_d7e70032e019862b66970d3661bcaf01</title>
<path fill="none" stroke="black" d="M159.65,-287.86C192,-247.79 263.36,-145.84 220,-72 207.45,-50.63 182.81,-37.24 161.76,-29.27"/>
<polygon fill="black" stroke="black" points="162.69,-25.89 152.1,-25.88 160.38,-32.49 162.69,-25.89"/>
<g id="a_edge7&#45;headlabel"><a xlink:href="dir_000013_000000.html" target="_top" xlink:title="1">
<text text-anchor="middle" x="167.03" y="-21.9" font-family="Helvetica,sans-Serif" font-size="10.00">1</text>
</a>
</g>
</g>
<!-- dir_50c1de3ca5a55e0f703cf19d23858c8c -->
<g id="node4" class="node">
<title>dir_50c1de3ca5a55e0f703cf19d23858c8c</title>
<g id="a_node4"><a xlink:href="dir_50c1de3ca5a55e0f703cf19d23858c8c.html" target="_top" xlink:title="PlatformSupport">
<polygon fill="none" stroke="black" points="211,-108 115,-108 115,-72 211,-72 211,-108"/>
<text text-anchor="middle" x="163" y="-87.5" font-family="Helvetica,sans-Serif" font-size="10.00">PlatformSupport</text>
</a>
</g>
</g>
<!-- dir_4b055654f7757117e7a025725fe22714&#45;&gt;dir_50c1de3ca5a55e0f703cf19d23858c8c -->
<g id="edge8" class="edge">
<title>dir_4b055654f7757117e7a025725fe22714&#45;&gt;dir_50c1de3ca5a55e0f703cf19d23858c8c</title>
<path fill="none" stroke="black" d="M146.44,-287.85C149.56,-250.83 156.93,-163.18 160.7,-118.39"/>
<polygon fill="black" stroke="black" points="164.2,-118.49 161.55,-108.23 157.22,-117.9 164.2,-118.49"/>
<g id="a_edge8&#45;headlabel"><a xlink:href="dir_000013_000007.html" target="_top" xlink:title="5">
<text text-anchor="middle" x="166.73" y="-119.81" font-family="Helvetica,sans-Serif" font-size="10.00">5</text>
</a>
</g>
</g>
<!-- dir_2963099998ca16a589f19b8e8f92109e -->
<g id="node5" class="node">
<title>dir_2963099998ca16a589f19b8e8f92109e</title>
<g id="a_node5"><a xlink:href="dir_2963099998ca16a589f19b8e8f92109e.html" target="_top" xlink:title="XPath">
<polygon fill="none" stroke="black" points="134,-180 80,-180 80,-144 134,-144 134,-180"/>
<text text-anchor="middle" x="107" y="-159.5" font-family="Helvetica,sans-Serif" font-size="10.00">XPath</text>
</a>
</g>
</g>
<!-- dir_4b055654f7757117e7a025725fe22714&#45;&gt;dir_2963099998ca16a589f19b8e8f92109e -->
<g id="edge9" class="edge">
<title>dir_4b055654f7757117e7a025725fe22714&#45;&gt;dir_2963099998ca16a589f19b8e8f92109e</title>
<path fill="none" stroke="black" d="M140.42,-287.87C133.91,-263.56 121.94,-218.82 114.23,-190.01"/>
<polygon fill="black" stroke="black" points="117.57,-188.94 111.6,-180.19 110.8,-190.75 117.57,-188.94"/>
<g id="a_edge9&#45;headlabel"><a xlink:href="dir_000013_000020.html" target="_top" xlink:title="6">
<text text-anchor="middle" x="121.24" y="-189.18" font-family="Helvetica,sans-Serif" font-size="10.00">6</text>
</a>
</g>
</g>
<!-- dir_d7413574a66885a14b97f024b806a867&#45;&gt;dir_d7e70032e019862b66970d3661bcaf01 -->
<g id="edge1" class="edge">
<title>dir_d7413574a66885a14b97f024b806a867&#45;&gt;dir_d7e70032e019862b66970d3661bcaf01</title>
<path fill="none" stroke="black" d="M52.51,-215.74C56.37,-197.66 63.07,-168.53 71,-144 81.61,-111.17 86.19,-103.61 100,-72 103.85,-63.19 108.26,-53.67 112.29,-45.16"/>
<polygon fill="black" stroke="black" points="115.48,-46.6 116.64,-36.07 109.17,-43.58 115.48,-46.6"/>
<g id="a_edge1&#45;headlabel"><a xlink:href="dir_000014_000000.html" target="_top" xlink:title="1">
<text text-anchor="middle" x="116.49" y="-48.57" font-family="Helvetica,sans-Serif" font-size="10.00">1</text>
</a>
</g>
</g>
<!-- dir_d7413574a66885a14b97f024b806a867&#45;&gt;dir_2963099998ca16a589f19b8e8f92109e -->
<g id="edge2" class="edge">
<title>dir_d7413574a66885a14b97f024b806a867&#45;&gt;dir_2963099998ca16a589f19b8e8f92109e</title>
<path fill="none" stroke="black" d="M63.34,-215.7C70.29,-207.3 78.77,-197.07 86.4,-187.86"/>
<polygon fill="black" stroke="black" points="89.14,-190.04 92.83,-180.1 83.75,-185.57 89.14,-190.04"/>
<g id="a_edge2&#45;headlabel"><a xlink:href="dir_000014_000020.html" target="_top" xlink:title="6">
<text text-anchor="middle" x="89.04" y="-192.12" font-family="Helvetica,sans-Serif" font-size="10.00">6</text>
</a>
</g>
</g>
<!-- dir_50c1de3ca5a55e0f703cf19d23858c8c&#45;&gt;dir_d7e70032e019862b66970d3661bcaf01 -->
<g id="edge3" class="edge">
<title>dir_50c1de3ca5a55e0f703cf19d23858c8c&#45;&gt;dir_d7e70032e019862b66970d3661bcaf01</title>
<path fill="none" stroke="black" d="M153.61,-71.7C149.24,-63.64 143.94,-53.89 139.1,-44.98"/>
<polygon fill="black" stroke="black" points="142.13,-43.22 134.29,-36.1 135.98,-46.56 142.13,-43.22"/>
<g id="a_edge3&#45;headlabel"><a xlink:href="dir_000007_000000.html" target="_top" xlink:title="1">
<text text-anchor="middle" x="146.34" y="-42.53" font-family="Helvetica,sans-Serif" font-size="10.00">1</text>
</a>
</g>
</g>
<!-- dir_2963099998ca16a589f19b8e8f92109e&#45;&gt;dir_d7e70032e019862b66970d3661bcaf01 -->
<g id="edge4" class="edge">
<title>dir_2963099998ca16a589f19b8e8f92109e&#45;&gt;dir_d7e70032e019862b66970d3661bcaf01</title>
<path fill="none" stroke="black" d="M104.96,-143.79C103.25,-125.75 101.71,-96.66 106,-72 107.52,-63.24 110.36,-54.01 113.39,-45.75"/>
<polygon fill="black" stroke="black" points="116.72,-46.84 117.11,-36.25 110.21,-44.29 116.72,-46.84"/>
<g id="a_edge4&#45;headlabel"><a xlink:href="dir_000020_000000.html" target="_top" xlink:title="1">
<text text-anchor="middle" x="118.06" y="-48.72" font-family="Helvetica,sans-Serif" font-size="10.00">1</text>
</a>
</g>
</g>
<!-- dir_2963099998ca16a589f19b8e8f92109e&#45;&gt;dir_50c1de3ca5a55e0f703cf19d23858c8c -->
<g id="edge5" class="edge">
<title>dir_2963099998ca16a589f19b8e8f92109e&#45;&gt;dir_50c1de3ca5a55e0f703cf19d23858c8c</title>
<path fill="none" stroke="black" d="M120.84,-143.7C127.49,-135.39 135.58,-125.28 142.89,-116.14"/>
<polygon fill="black" stroke="black" points="145.8,-118.1 149.32,-108.1 140.34,-113.73 145.8,-118.1"/>
<g id="a_edge5&#45;headlabel"><a xlink:href="dir_000020_000007.html" target="_top" xlink:title="35">
<text text-anchor="middle" x="145.77" y="-120.18" font-family="Helvetica,sans-Serif" font-size="10.00">35</text>
</a>
</g>
</g>
</g>
</svg>
