<?xml version="1.0" encoding="UTF-8" standalone="no"?>
<!DOCTYPE svg PUBLIC "-//W3C//DTD SVG 1.1//EN"
 "http://www.w3.org/Graphics/SVG/1.1/DTD/svg11.dtd">
<!-- Generated by graphviz version 2.38.0 (20140413.2041)
 -->
<!-- Title: xalanc/XercesParserLiaison Pages: 1 -->
<svg width="323pt" height="447pt"
 viewBox="0.00 0.00 323.00 447.00" xmlns="http://www.w3.org/2000/svg" xmlns:xlink="http://www.w3.org/1999/xlink">
<g id="graph0" class="graph" transform="scale(1 1) rotate(0) translate(4 443)">
<title>xalanc/XercesParserLiaison</title>
<g id="clust1" class="cluster"><title>clusterdir_4fe86e58e6df1a0cd67cae514a3234ec</title>
<g id="a_clust1"><a xlink:href="dir_4fe86e58e6df1a0cd67cae514a3234ec.html" target="_top" xlink:title="xalanc">
<polygon fill="#ddddee" stroke="black" points="8,-344 8,-431 230,-431 230,-344 8,-344"/>
<text text-anchor="middle" x="119" y="-419" font-family="Helvetica,sans-Serif" font-size="10.00">xalanc</text>
</a>
</g>
</g>
<g id="clust2" class="cluster"><title>clusterdir_b090b8748e4b70feab6047a0bae7310f</title>
<g id="a_clust2"><a xlink:href="dir_b090b8748e4b70feab6047a0bae7310f.html" target="_top">
<polygon fill="#eeeeff" stroke="black" points="16,-352 16,-404 222,-404 222,-352 16,-352"/>
</a>
</g>
</g>
<!-- dir_b090b8748e4b70feab6047a0bae7310f -->
<g id="node1" class="node"><title>dir_b090b8748e4b70feab6047a0bae7310f</title>
<text text-anchor="middle" x="77" y="-375.5" font-family="Helvetica,sans-Serif" font-size="10.00">XercesParserLiaison</text>
</g>
<!-- dir_3aa9b7acd6ddc89d8eca1da6bd7073d4 -->
<g id="node5" class="node"><title>dir_3aa9b7acd6ddc89d8eca1da6bd7073d4</title>
<g id="a_node5"><a xlink:href="dir_3aa9b7acd6ddc89d8eca1da6bd7073d4.html" target="_top" xlink:title="XMLSupport">
<polygon fill="none" stroke="black" points="87.5,-324 18.5,-324 18.5,-288 87.5,-288 87.5,-324"/>
<text text-anchor="middle" x="53" y="-303.5" font-family="Helvetica,sans-Serif" font-size="10.00">XMLSupport</text>
</a>
</g>
</g>
<!-- dir_b090b8748e4b70feab6047a0bae7310f&#45;&gt;dir_3aa9b7acd6ddc89d8eca1da6bd7073d4 -->
<g id="edge12" class="edge"><title>dir_b090b8748e4b70feab6047a0bae7310f&#45;&gt;dir_3aa9b7acd6ddc89d8eca1da6bd7073d4</title>
<path fill="none" stroke="black" d="M71.0674,-359.697C68.3936,-351.898 65.1744,-342.509 62.1986,-333.829"/>
<polygon fill="black" stroke="black" points="65.4185,-332.429 58.8643,-324.104 58.7968,-334.699 65.4185,-332.429"/>
<g id="a_edge12&#45;headlabel"><a xlink:href="dir_000015_000017.html" target="_top" xlink:title="1">
<text text-anchor="middle" x="69.27" y="-332.408" font-family="Helvetica,sans-Serif" font-size="10.00">1</text>
</a>
</g>
</g>
<!-- dir_b52a77b3f57cb5d8d9baccc1ee7cdab5 -->
<g id="node2" class="node"><title>dir_b52a77b3f57cb5d8d9baccc1ee7cdab5</title>
<g id="a_node2"><a xlink:href="dir_b52a77b3f57cb5d8d9baccc1ee7cdab5.html" target="_top" xlink:title="Deprecated">
<polygon fill="white" stroke="black" points="214,-396 148,-396 148,-360 214,-360 214,-396"/>
<text text-anchor="middle" x="181" y="-375.5" font-family="Helvetica,sans-Serif" font-size="10.00">Deprecated</text>
</a>
</g>
</g>
<!-- dir_bd626f48b2f751fd24704cf98093773c -->
<g id="node3" class="node"><title>dir_bd626f48b2f751fd24704cf98093773c</title>
<g id="a_node3"><a xlink:href="dir_bd626f48b2f751fd24704cf98093773c.html" target="_top" xlink:title="PlatformSupport">
<polygon fill="none" stroke="black" points="249,-180 163,-180 163,-144 249,-144 249,-180"/>
<text text-anchor="middle" x="206" y="-159.5" font-family="Helvetica,sans-Serif" font-size="10.00">PlatformSupport</text>
</a>
</g>
</g>
<!-- dir_b52a77b3f57cb5d8d9baccc1ee7cdab5&#45;&gt;dir_bd626f48b2f751fd24704cf98093773c -->
<g id="edge8" class="edge"><title>dir_b52a77b3f57cb5d8d9baccc1ee7cdab5&#45;&gt;dir_bd626f48b2f751fd24704cf98093773c</title>
<path fill="none" stroke="black" d="M189.392,-359.724C200.369,-336.076 219.021,-291.99 226,-252 228.751,-236.238 228.871,-231.74 226,-216 224.394,-207.196 221.403,-197.954 218.214,-189.698"/>
<polygon fill="black" stroke="black" points="221.351,-188.125 214.306,-180.212 214.879,-190.791 221.351,-188.125"/>
<g id="a_edge8&#45;headlabel"><a xlink:href="dir_000016_000005.html" target="_top" xlink:title="5">
<text text-anchor="middle" x="225.346" y="-187.867" font-family="Helvetica,sans-Serif" font-size="10.00">5</text>
</a>
</g>
</g>
<!-- dir_31d1584d1b1bd63f85633ff943c76478 -->
<g id="node4" class="node"><title>dir_31d1584d1b1bd63f85633ff943c76478</title>
<g id="a_node4"><a xlink:href="dir_31d1584d1b1bd63f85633ff943c76478.html" target="_top" xlink:title="Include">
<polygon fill="none" stroke="black" points="233,-36 179,-36 179,-0 233,-0 233,-36"/>
<text text-anchor="middle" x="206" y="-15.5" font-family="Helvetica,sans-Serif" font-size="10.00">Include</text>
</a>
</g>
</g>
<!-- dir_b52a77b3f57cb5d8d9baccc1ee7cdab5&#45;&gt;dir_31d1584d1b1bd63f85633ff943c76478 -->
<g id="edge9" class="edge"><title>dir_b52a77b3f57cb5d8d9baccc1ee7cdab5&#45;&gt;dir_31d1584d1b1bd63f85633ff943c76478</title>
<path fill="none" stroke="black" d="M214.124,-360.391C253.805,-337.874 315,-293.641 315,-235 315,-235 315,-235 315,-161 315,-110.932 271.833,-67.6439 239.829,-42.4312"/>
<polygon fill="black" stroke="black" points="241.628,-39.4007 231.556,-36.1131 237.379,-44.964 241.628,-39.4007"/>
<g id="a_edge9&#45;headlabel"><a xlink:href="dir_000016_000004.html" target="_top" xlink:title="4">
<text text-anchor="middle" x="246.208" y="-36.8258" font-family="Helvetica,sans-Serif" font-size="10.00">4</text>
</a>
</g>
</g>
<!-- dir_f7433f2121216d9de9e3e02d65931268 -->
<g id="node6" class="node"><title>dir_f7433f2121216d9de9e3e02d65931268</title>
<g id="a_node6"><a xlink:href="dir_f7433f2121216d9de9e3e02d65931268.html" target="_top" xlink:title="XalanDOM">
<polygon fill="none" stroke="black" points="166,-108 104,-108 104,-72 166,-72 166,-108"/>
<text text-anchor="middle" x="135" y="-87.5" font-family="Helvetica,sans-Serif" font-size="10.00">XalanDOM</text>
</a>
</g>
</g>
<!-- dir_b52a77b3f57cb5d8d9baccc1ee7cdab5&#45;&gt;dir_f7433f2121216d9de9e3e02d65931268 -->
<g id="edge10" class="edge"><title>dir_b52a77b3f57cb5d8d9baccc1ee7cdab5&#45;&gt;dir_f7433f2121216d9de9e3e02d65931268</title>
<path fill="none" stroke="black" d="M172.422,-359.747C161.204,-336.124 142.138,-292.068 135,-252 126.719,-205.52 129.366,-150.287 132.125,-118.085"/>
<polygon fill="black" stroke="black" points="135.613,-118.373 133.049,-108.094 128.643,-117.729 135.613,-118.373"/>
<g id="a_edge10&#45;headlabel"><a xlink:href="dir_000016_000010.html" target="_top" xlink:title="19">
<text text-anchor="middle" x="138.109" y="-119.714" font-family="Helvetica,sans-Serif" font-size="10.00">19</text>
</a>
</g>
</g>
<!-- dir_f0a4229872794e1f1bf0a7a792e5f50e -->
<g id="node7" class="node"><title>dir_f0a4229872794e1f1bf0a7a792e5f50e</title>
<g id="a_node7"><a xlink:href="dir_f0a4229872794e1f1bf0a7a792e5f50e.html" target="_top" xlink:title="DOMSupport">
<polygon fill="none" stroke="black" points="217.5,-252 144.5,-252 144.5,-216 217.5,-216 217.5,-252"/>
<text text-anchor="middle" x="181" y="-231.5" font-family="Helvetica,sans-Serif" font-size="10.00">DOMSupport</text>
</a>
</g>
</g>
<!-- dir_b52a77b3f57cb5d8d9baccc1ee7cdab5&#45;&gt;dir_f0a4229872794e1f1bf0a7a792e5f50e -->
<g id="edge11" class="edge"><title>dir_b52a77b3f57cb5d8d9baccc1ee7cdab5&#45;&gt;dir_f0a4229872794e1f1bf0a7a792e5f50e</title>
<path fill="none" stroke="black" d="M181,-359.871C181,-335.67 181,-291.211 181,-262.393"/>
<polygon fill="black" stroke="black" points="184.5,-262.189 181,-252.189 177.5,-262.189 184.5,-262.189"/>
<g id="a_edge11&#45;headlabel"><a xlink:href="dir_000016_000001.html" target="_top" xlink:title="1">
<text text-anchor="middle" x="187.339" y="-263.284" font-family="Helvetica,sans-Serif" font-size="10.00">1</text>
</a>
</g>
</g>
<!-- dir_bd626f48b2f751fd24704cf98093773c&#45;&gt;dir_31d1584d1b1bd63f85633ff943c76478 -->
<g id="edge1" class="edge"><title>dir_bd626f48b2f751fd24704cf98093773c&#45;&gt;dir_31d1584d1b1bd63f85633ff943c76478</title>
<path fill="none" stroke="black" d="M201.416,-143.871C198.857,-119.67 198.566,-75.2108 200.541,-46.3932"/>
<polygon fill="black" stroke="black" points="204.049,-46.45 201.409,-36.1893 197.074,-45.8566 204.049,-46.45"/>
<g id="a_edge1&#45;headlabel"><a xlink:href="dir_000005_000004.html" target="_top" xlink:title="25">
<text text-anchor="middle" x="206.573" y="-47.7723" font-family="Helvetica,sans-Serif" font-size="10.00">25</text>
</a>
</g>
</g>
<!-- dir_bd626f48b2f751fd24704cf98093773c&#45;&gt;dir_f7433f2121216d9de9e3e02d65931268 -->
<g id="edge2" class="edge"><title>dir_bd626f48b2f751fd24704cf98093773c&#45;&gt;dir_f7433f2121216d9de9e3e02d65931268</title>
<path fill="none" stroke="black" d="M188.449,-143.697C179.766,-135.135 169.137,-124.656 159.652,-115.304"/>
<polygon fill="black" stroke="black" points="161.927,-112.633 152.349,-108.104 157.012,-117.617 161.927,-112.633"/>
<g id="a_edge2&#45;headlabel"><a xlink:href="dir_000005_000010.html" target="_top" xlink:title="21">
<text text-anchor="middle" x="166.48" y="-110.635" font-family="Helvetica,sans-Serif" font-size="10.00">21</text>
</a>
</g>
</g>
<!-- dir_31d1584d1b1bd63f85633ff943c76478&#45;&gt;dir_bd626f48b2f751fd24704cf98093773c -->
<g id="edge3" class="edge"><title>dir_31d1584d1b1bd63f85633ff943c76478&#45;&gt;dir_bd626f48b2f751fd24704cf98093773c</title>
<path fill="none" stroke="black" d="M210.591,-36.1893C213.145,-60.4244 213.433,-104.888 211.454,-133.679"/>
<polygon fill="black" stroke="black" points="207.947,-133.61 210.584,-143.871 214.922,-134.205 207.947,-133.61"/>
<g id="a_edge3&#45;headlabel"><a xlink:href="dir_000004_000005.html" target="_top" xlink:title="2">
<text text-anchor="middle" x="205.424" y="-127.287" font-family="Helvetica,sans-Serif" font-size="10.00">2</text>
</a>
</g>
</g>
<!-- dir_3aa9b7acd6ddc89d8eca1da6bd7073d4&#45;&gt;dir_bd626f48b2f751fd24704cf98093773c -->
<g id="edge4" class="edge"><title>dir_3aa9b7acd6ddc89d8eca1da6bd7073d4&#45;&gt;dir_bd626f48b2f751fd24704cf98093773c</title>
<path fill="none" stroke="black" d="M67.2448,-287.719C82.9552,-269.11 109.411,-239.075 135,-216 146.695,-205.454 160.39,-194.867 172.616,-185.958"/>
<polygon fill="black" stroke="black" points="174.722,-188.756 180.803,-180.08 170.639,-183.07 174.722,-188.756"/>
<g id="a_edge4&#45;headlabel"><a xlink:href="dir_000017_000005.html" target="_top" xlink:title="19">
<text text-anchor="middle" x="173.458" y="-190.658" font-family="Helvetica,sans-Serif" font-size="10.00">19</text>
</a>
</g>
</g>
<!-- dir_3aa9b7acd6ddc89d8eca1da6bd7073d4&#45;&gt;dir_31d1584d1b1bd63f85633ff943c76478 -->
<g id="edge5" class="edge"><title>dir_3aa9b7acd6ddc89d8eca1da6bd7073d4&#45;&gt;dir_31d1584d1b1bd63f85633ff943c76478</title>
<path fill="none" stroke="black" d="M50.3843,-287.902C44.8982,-245.196 37.0882,-132.924 95,-72 115.083,-50.8727 145.307,-37.2075 169.148,-29.0533"/>
<polygon fill="black" stroke="black" points="170.489,-32.2982 178.927,-25.8904 168.335,-25.6379 170.489,-32.2982"/>
<g id="a_edge5&#45;headlabel"><a xlink:href="dir_000017_000004.html" target="_top" xlink:title="7">
<text text-anchor="middle" x="167.943" y="-33.6058" font-family="Helvetica,sans-Serif" font-size="10.00">7</text>
</a>
</g>
</g>
<!-- dir_3aa9b7acd6ddc89d8eca1da6bd7073d4&#45;&gt;dir_f7433f2121216d9de9e3e02d65931268 -->
<g id="edge6" class="edge"><title>dir_3aa9b7acd6ddc89d8eca1da6bd7073d4&#45;&gt;dir_f7433f2121216d9de9e3e02d65931268</title>
<path fill="none" stroke="black" d="M52.9791,-287.969C53.6107,-257.392 58.0516,-191.916 83,-144 88.5713,-133.3 97.0186,-123.34 105.494,-115.009"/>
<polygon fill="black" stroke="black" points="107.948,-117.507 112.879,-108.13 103.176,-112.385 107.948,-117.507"/>
<g id="a_edge6&#45;headlabel"><a xlink:href="dir_000017_000010.html" target="_top" xlink:title="5">
<text text-anchor="middle" x="107.253" y="-119.535" font-family="Helvetica,sans-Serif" font-size="10.00">5</text>
</a>
</g>
</g>
<!-- dir_3aa9b7acd6ddc89d8eca1da6bd7073d4&#45;&gt;dir_f0a4229872794e1f1bf0a7a792e5f50e -->
<g id="edge7" class="edge"><title>dir_3aa9b7acd6ddc89d8eca1da6bd7073d4&#45;&gt;dir_f0a4229872794e1f1bf0a7a792e5f50e</title>
<path fill="none" stroke="black" d="M84.3123,-287.876C101.203,-278.639 122.247,-267.131 140.385,-257.212"/>
<polygon fill="black" stroke="black" points="142.473,-260.059 149.567,-252.19 139.114,-253.917 142.473,-260.059"/>
<g id="a_edge7&#45;headlabel"><a xlink:href="dir_000017_000001.html" target="_top" xlink:title="3">
<text text-anchor="middle" x="140.681" y="-261.775" font-family="Helvetica,sans-Serif" font-size="10.00">3</text>
</a>
</g>
</g>
<!-- dir_f7433f2121216d9de9e3e02d65931268&#45;&gt;dir_31d1584d1b1bd63f85633ff943c76478 -->
<g id="edge13" class="edge"><title>dir_f7433f2121216d9de9e3e02d65931268&#45;&gt;dir_31d1584d1b1bd63f85633ff943c76478</title>
<path fill="none" stroke="black" d="M152.551,-71.6966C161.234,-63.135 171.863,-52.6562 181.348,-43.3045"/>
<polygon fill="black" stroke="black" points="183.988,-45.6175 188.651,-36.1043 179.073,-40.6327 183.988,-45.6175"/>
<g id="a_edge13&#45;headlabel"><a xlink:href="dir_000010_000004.html" target="_top" xlink:title="5">
<text text-anchor="middle" x="183.421" y="-47.663" font-family="Helvetica,sans-Serif" font-size="10.00">5</text>
</a>
</g>
</g>
<!-- dir_f0a4229872794e1f1bf0a7a792e5f50e&#45;&gt;dir_bd626f48b2f751fd24704cf98093773c -->
<g id="edge14" class="edge"><title>dir_f0a4229872794e1f1bf0a7a792e5f50e&#45;&gt;dir_bd626f48b2f751fd24704cf98093773c</title>
<path fill="none" stroke="black" d="M187.18,-215.697C189.995,-207.813 193.391,-198.304 196.519,-189.546"/>
<polygon fill="black" stroke="black" points="199.824,-190.699 199.891,-180.104 193.232,-188.345 199.824,-190.699"/>
<g id="a_edge14&#45;headlabel"><a xlink:href="dir_000001_000005.html" target="_top" xlink:title="9">
<text text-anchor="middle" x="201.289" y="-192.539" font-family="Helvetica,sans-Serif" font-size="10.00">9</text>
</a>
</g>
</g>
<!-- dir_f0a4229872794e1f1bf0a7a792e5f50e&#45;&gt;dir_31d1584d1b1bd63f85633ff943c76478 -->
<g id="edge15" class="edge"><title>dir_f0a4229872794e1f1bf0a7a792e5f50e&#45;&gt;dir_31d1584d1b1bd63f85633ff943c76478</title>
<path fill="none" stroke="black" d="M217.845,-217.285C233.181,-208.677 249.392,-196.376 258,-180 281.713,-134.892 249.4,-76.9771 226.11,-44.3327"/>
<polygon fill="black" stroke="black" points="228.878,-42.189 220.129,-36.2138 223.243,-46.3409 228.878,-42.189"/>
<g id="a_edge15&#45;headlabel"><a xlink:href="dir_000001_000004.html" target="_top" xlink:title="6">
<text text-anchor="middle" x="233.296" y="-40.899" font-family="Helvetica,sans-Serif" font-size="10.00">6</text>
</a>
</g>
</g>
<!-- dir_f0a4229872794e1f1bf0a7a792e5f50e&#45;&gt;dir_f7433f2121216d9de9e3e02d65931268 -->
<g id="edge16" class="edge"><title>dir_f0a4229872794e1f1bf0a7a792e5f50e&#45;&gt;dir_f7433f2121216d9de9e3e02d65931268</title>
<path fill="none" stroke="black" d="M170.813,-215.844C165.167,-205.708 158.417,-192.458 154,-180 146.839,-159.804 141.933,-136.028 138.902,-118.134"/>
<polygon fill="black" stroke="black" points="142.332,-117.413 137.293,-108.093 135.42,-118.521 142.332,-117.413"/>
<g id="a_edge16&#45;headlabel"><a xlink:href="dir_000001_000010.html" target="_top" xlink:title="8">
<text text-anchor="middle" x="145.704" y="-118.013" font-family="Helvetica,sans-Serif" font-size="10.00">8</text>
</a>
</g>
</g>
</g>
</svg>
