<?xml version="1.0" encoding="UTF-8" standalone="no"?>
<!DOCTYPE svg PUBLIC "-//W3C//DTD SVG 1.1//EN"
 "http://www.w3.org/Graphics/SVG/1.1/DTD/svg11.dtd">
<!-- Generated by graphviz version 2.43.0 (0)
 -->
<!-- Title: xalanc/XSLT Pages: 1 -->
<svg width="586pt" height="583pt"
 viewBox="0.00 0.00 585.66 583.00" xmlns="http://www.w3.org/2000/svg" xmlns:xlink="http://www.w3.org/1999/xlink">
<g id="graph0" class="graph" transform="scale(1 1) rotate(0) translate(4 579)">
<title>xalanc/XSLT</title>
<g id="clust1" class="cluster">
<title>clusterdir_003fc10f9967e916e3442dacf4c44a60</title>
<g id="a_clust1"><a xlink:href="dir_003fc10f9967e916e3442dacf4c44a60.html" target="_top" xlink:title="xalanc">
<polygon fill="#ddddee" stroke="black" points="258,-496 258,-567 328,-567 328,-496 258,-496"/>
<text text-anchor="middle" x="293" y="-555" font-family="Helvetica,sans-Serif" font-size="10.00">xalanc</text>
</a>
</g>
</g>
<!-- dir_b08386bfa4e79330d49d5b62dc280d90 -->
<g id="node1" class="node">
<title>dir_b08386bfa4e79330d49d5b62dc280d90</title>
<g id="a_node1"><a xlink:href="dir_b08386bfa4e79330d49d5b62dc280d90.html" target="_top" xlink:title="XSLT">
<polygon fill="#eeeeff" stroke="black" points="320,-540 266,-540 266,-504 320,-504 320,-540"/>
<text text-anchor="middle" x="293" y="-519.5" font-family="Helvetica,sans-Serif" font-size="10.00">XSLT</text>
</a>
</g>
</g>
<!-- dir_d7e70032e019862b66970d3661bcaf01 -->
<g id="node2" class="node">
<title>dir_d7e70032e019862b66970d3661bcaf01</title>
<g id="a_node2"><a xlink:href="dir_d7e70032e019862b66970d3661bcaf01.html" target="_top" xlink:title="xalanc">
<polygon fill="none" stroke="red" points="303,-36 249,-36 249,0 303,0 303,-36"/>
<text text-anchor="middle" x="276" y="-15.5" font-family="Helvetica,sans-Serif" font-size="10.00">xalanc</text>
</a>
</g>
</g>
<!-- dir_b08386bfa4e79330d49d5b62dc280d90&#45;&gt;dir_d7e70032e019862b66970d3661bcaf01 -->
<g id="edge29" class="edge">
<title>dir_b08386bfa4e79330d49d5b62dc280d90&#45;&gt;dir_d7e70032e019862b66970d3661bcaf01</title>
<path fill="none" stroke="black" d="M265.96,-520.3C193.43,-516.83 0,-496.58 0,-379 0,-379 0,-379 0,-161 0,-54.85 163.42,-27.98 238.76,-21.24"/>
<polygon fill="black" stroke="black" points="239.1,-24.72 248.78,-20.41 238.53,-17.74 239.1,-24.72"/>
<g id="a_edge29&#45;headlabel"><a xlink:href="dir_000022_000000.html" target="_top" xlink:title="1">
<text text-anchor="middle" x="235.75" y="-25.34" font-family="Helvetica,sans-Serif" font-size="10.00">1</text>
</a>
</g>
</g>
<!-- dir_539728437c2e2b3d61fff83879e81a91 -->
<g id="node3" class="node">
<title>dir_539728437c2e2b3d61fff83879e81a91</title>
<g id="a_node3"><a xlink:href="dir_539728437c2e2b3d61fff83879e81a91.html" target="_top" xlink:title="XalanSourceTree">
<polygon fill="none" stroke="black" points="381,-468 283,-468 283,-432 381,-432 381,-468"/>
<text text-anchor="middle" x="332" y="-447.5" font-family="Helvetica,sans-Serif" font-size="10.00">XalanSourceTree</text>
</a>
</g>
</g>
<!-- dir_b08386bfa4e79330d49d5b62dc280d90&#45;&gt;dir_539728437c2e2b3d61fff83879e81a91 -->
<g id="edge30" class="edge">
<title>dir_b08386bfa4e79330d49d5b62dc280d90&#45;&gt;dir_539728437c2e2b3d61fff83879e81a91</title>
<path fill="none" stroke="black" d="M302.64,-503.7C307.13,-495.64 312.56,-485.89 317.52,-476.98"/>
<polygon fill="black" stroke="black" points="320.66,-478.54 322.47,-468.1 314.55,-475.14 320.66,-478.54"/>
<g id="a_edge30&#45;headlabel"><a xlink:href="dir_000022_000015.html" target="_top" xlink:title="5">
<text text-anchor="middle" x="321.39" y="-480.57" font-family="Helvetica,sans-Serif" font-size="10.00">5</text>
</a>
</g>
</g>
<!-- dir_965d6216b410d837fa586352f15ad424 -->
<g id="node4" class="node">
<title>dir_965d6216b410d837fa586352f15ad424</title>
<g id="a_node4"><a xlink:href="dir_965d6216b410d837fa586352f15ad424.html" target="_top" xlink:title="XalanDOM">
<polygon fill="none" stroke="black" points="286,-252 218,-252 218,-216 286,-216 286,-252"/>
<text text-anchor="middle" x="252" y="-231.5" font-family="Helvetica,sans-Serif" font-size="10.00">XalanDOM</text>
</a>
</g>
</g>
<!-- dir_b08386bfa4e79330d49d5b62dc280d90&#45;&gt;dir_965d6216b410d837fa586352f15ad424 -->
<g id="edge31" class="edge">
<title>dir_b08386bfa4e79330d49d5b62dc280d90&#45;&gt;dir_965d6216b410d837fa586352f15ad424</title>
<path fill="none" stroke="black" d="M265.82,-507.7C230.8,-488.68 172.25,-449.95 154,-396 136.04,-342.91 185.98,-288.8 221,-258.79"/>
<polygon fill="black" stroke="black" points="223.65,-261.14 229.09,-252.05 219.17,-255.76 223.65,-261.14"/>
<g id="a_edge31&#45;headlabel"><a xlink:href="dir_000022_000012.html" target="_top" xlink:title="31">
<text text-anchor="middle" x="222.7" y="-263.12" font-family="Helvetica,sans-Serif" font-size="10.00">31</text>
</a>
</g>
</g>
<!-- dir_50c1de3ca5a55e0f703cf19d23858c8c -->
<g id="node5" class="node">
<title>dir_50c1de3ca5a55e0f703cf19d23858c8c</title>
<g id="a_node5"><a xlink:href="dir_50c1de3ca5a55e0f703cf19d23858c8c.html" target="_top" xlink:title="PlatformSupport">
<polygon fill="none" stroke="black" points="362,-108 266,-108 266,-72 362,-72 362,-108"/>
<text text-anchor="middle" x="314" y="-87.5" font-family="Helvetica,sans-Serif" font-size="10.00">PlatformSupport</text>
</a>
</g>
</g>
<!-- dir_b08386bfa4e79330d49d5b62dc280d90&#45;&gt;dir_50c1de3ca5a55e0f703cf19d23858c8c -->
<g id="edge32" class="edge">
<title>dir_b08386bfa4e79330d49d5b62dc280d90&#45;&gt;dir_50c1de3ca5a55e0f703cf19d23858c8c</title>
<path fill="none" stroke="black" d="M320.06,-517.68C353.58,-512.35 410.9,-499.13 449,-468 477.69,-444.56 481.33,-431.76 491,-396 520.53,-286.78 536.4,-222.58 455,-144 432.36,-122.15 399.86,-109.13 371.76,-101.47"/>
<polygon fill="black" stroke="black" points="372.59,-98.07 362.03,-98.97 370.85,-104.85 372.59,-98.07"/>
<g id="a_edge32&#45;headlabel"><a xlink:href="dir_000022_000007.html" target="_top" xlink:title="52">
<text text-anchor="middle" x="376.78" y="-93.71" font-family="Helvetica,sans-Serif" font-size="10.00">52</text>
</a>
</g>
</g>
<!-- dir_2963099998ca16a589f19b8e8f92109e -->
<g id="node6" class="node">
<title>dir_2963099998ca16a589f19b8e8f92109e</title>
<g id="a_node6"><a xlink:href="dir_2963099998ca16a589f19b8e8f92109e.html" target="_top" xlink:title="XPath">
<polygon fill="none" stroke="black" points="217,-396 163,-396 163,-360 217,-360 217,-396"/>
<text text-anchor="middle" x="190" y="-375.5" font-family="Helvetica,sans-Serif" font-size="10.00">XPath</text>
</a>
</g>
</g>
<!-- dir_b08386bfa4e79330d49d5b62dc280d90&#45;&gt;dir_2963099998ca16a589f19b8e8f92109e -->
<g id="edge33" class="edge">
<title>dir_b08386bfa4e79330d49d5b62dc280d90&#45;&gt;dir_2963099998ca16a589f19b8e8f92109e</title>
<path fill="none" stroke="black" d="M270.06,-503.87C258.26,-494.25 244.24,-481.49 234,-468 219.43,-448.79 207.65,-424.01 199.95,-405.47"/>
<polygon fill="black" stroke="black" points="203.19,-404.13 196.21,-396.15 196.69,-406.74 203.19,-404.13"/>
<g id="a_edge33&#45;headlabel"><a xlink:href="dir_000022_000020.html" target="_top" xlink:title="51">
<text text-anchor="middle" x="207.16" y="-403.91" font-family="Helvetica,sans-Serif" font-size="10.00">51</text>
</a>
</g>
</g>
<!-- dir_55adc3828666d020d2327d6287029afa -->
<g id="node7" class="node">
<title>dir_55adc3828666d020d2327d6287029afa</title>
<g id="a_node7"><a xlink:href="dir_55adc3828666d020d2327d6287029afa.html" target="_top" xlink:title="XMLSupport">
<polygon fill="none" stroke="black" points="465.5,-396 390.5,-396 390.5,-360 465.5,-360 465.5,-396"/>
<text text-anchor="middle" x="428" y="-375.5" font-family="Helvetica,sans-Serif" font-size="10.00">XMLSupport</text>
</a>
</g>
</g>
<!-- dir_b08386bfa4e79330d49d5b62dc280d90&#45;&gt;dir_55adc3828666d020d2327d6287029afa -->
<g id="edge34" class="edge">
<title>dir_b08386bfa4e79330d49d5b62dc280d90&#45;&gt;dir_55adc3828666d020d2327d6287029afa</title>
<path fill="none" stroke="black" d="M320.03,-511.89C341.47,-503.46 370.91,-489.03 390,-468 405.99,-450.39 415.91,-425.04 421.59,-405.9"/>
<polygon fill="black" stroke="black" points="424.97,-406.83 424.25,-396.26 418.22,-404.97 424.97,-406.83"/>
<g id="a_edge34&#45;headlabel"><a xlink:href="dir_000022_000019.html" target="_top" xlink:title="2">
<text text-anchor="middle" x="426.75" y="-408.55" font-family="Helvetica,sans-Serif" font-size="10.00">2</text>
</a>
</g>
</g>
<!-- dir_517b760d8d6673c69e1adc352f84adcd -->
<g id="node8" class="node">
<title>dir_517b760d8d6673c69e1adc352f84adcd</title>
<g id="a_node8"><a xlink:href="dir_517b760d8d6673c69e1adc352f84adcd.html" target="_top" xlink:title="DOMSupport">
<polygon fill="none" stroke="black" points="296,-324 218,-324 218,-288 296,-288 296,-324"/>
<text text-anchor="middle" x="257" y="-303.5" font-family="Helvetica,sans-Serif" font-size="10.00">DOMSupport</text>
</a>
</g>
</g>
<!-- dir_b08386bfa4e79330d49d5b62dc280d90&#45;&gt;dir_517b760d8d6673c69e1adc352f84adcd -->
<g id="edge35" class="edge">
<title>dir_b08386bfa4e79330d49d5b62dc280d90&#45;&gt;dir_517b760d8d6673c69e1adc352f84adcd</title>
<path fill="none" stroke="black" d="M285.59,-503.65C281.54,-493.45 276.79,-480.2 274,-468 263.42,-421.72 259.4,-366.42 257.89,-334.15"/>
<polygon fill="black" stroke="black" points="261.39,-333.98 257.47,-324.14 254.39,-334.28 261.39,-333.98"/>
<g id="a_edge35&#45;headlabel"><a xlink:href="dir_000022_000003.html" target="_top" xlink:title="2">
<text text-anchor="middle" x="264.38" y="-334.96" font-family="Helvetica,sans-Serif" font-size="10.00">2</text>
</a>
</g>
</g>
<!-- dir_65a65c116c6d4a706b6311f223438191 -->
<g id="node9" class="node">
<title>dir_65a65c116c6d4a706b6311f223438191</title>
<g id="a_node9"><a xlink:href="dir_65a65c116c6d4a706b6311f223438191.html" target="_top" xlink:title="Include">
<polygon fill="none" stroke="black" points="396,-180 342,-180 342,-144 396,-144 396,-180"/>
<text text-anchor="middle" x="369" y="-159.5" font-family="Helvetica,sans-Serif" font-size="10.00">Include</text>
</a>
</g>
</g>
<!-- dir_b08386bfa4e79330d49d5b62dc280d90&#45;&gt;dir_65a65c116c6d4a706b6311f223438191 -->
<g id="edge36" class="edge">
<title>dir_b08386bfa4e79330d49d5b62dc280d90&#45;&gt;dir_65a65c116c6d4a706b6311f223438191</title>
<path fill="none" stroke="black" d="M320.22,-513.34C364.73,-499.03 450.6,-463.4 475,-396 496.93,-335.42 441.51,-244.84 423,-216 416.25,-205.48 407.06,-195.46 398.17,-187.02"/>
<polygon fill="black" stroke="black" points="400.26,-184.19 390.51,-180.04 395.55,-189.37 400.26,-184.19"/>
<g id="a_edge36&#45;headlabel"><a xlink:href="dir_000022_000006.html" target="_top" xlink:title="33">
<text text-anchor="middle" x="404.83" y="-182.01" font-family="Helvetica,sans-Serif" font-size="10.00">33</text>
</a>
</g>
</g>
<!-- dir_539728437c2e2b3d61fff83879e81a91&#45;&gt;dir_d7e70032e019862b66970d3661bcaf01 -->
<g id="edge1" class="edge">
<title>dir_539728437c2e2b3d61fff83879e81a91&#45;&gt;dir_d7e70032e019862b66970d3661bcaf01</title>
<path fill="none" stroke="black" d="M381.02,-444.1C415.9,-438.17 461.6,-425.03 491,-396 574.14,-313.89 592.85,-257.73 566,-144 557.78,-109.18 558.34,-93.83 530,-72 496.52,-46.21 375.65,-29.75 313.5,-22.8"/>
<polygon fill="black" stroke="black" points="313.65,-19.3 303.33,-21.69 312.89,-26.26 313.65,-19.3"/>
<g id="a_edge1&#45;headlabel"><a xlink:href="dir_000015_000000.html" target="_top" xlink:title="1">
<text text-anchor="middle" x="317.53" y="-14.36" font-family="Helvetica,sans-Serif" font-size="10.00">1</text>
</a>
</g>
</g>
<!-- dir_539728437c2e2b3d61fff83879e81a91&#45;&gt;dir_965d6216b410d837fa586352f15ad424 -->
<g id="edge2" class="edge">
<title>dir_539728437c2e2b3d61fff83879e81a91&#45;&gt;dir_965d6216b410d837fa586352f15ad424</title>
<path fill="none" stroke="black" d="M332.46,-431.96C332.59,-401.37 329.66,-335.87 305,-288 299.47,-277.26 290.98,-267.35 282.41,-259.06"/>
<polygon fill="black" stroke="black" points="284.67,-256.39 274.93,-252.23 279.95,-261.56 284.67,-256.39"/>
<g id="a_edge2&#45;headlabel"><a xlink:href="dir_000015_000012.html" target="_top" xlink:title="19">
<text text-anchor="middle" x="289.24" y="-254.22" font-family="Helvetica,sans-Serif" font-size="10.00">19</text>
</a>
</g>
</g>
<!-- dir_539728437c2e2b3d61fff83879e81a91&#45;&gt;dir_50c1de3ca5a55e0f703cf19d23858c8c -->
<g id="edge3" class="edge">
<title>dir_539728437c2e2b3d61fff83879e81a91&#45;&gt;dir_50c1de3ca5a55e0f703cf19d23858c8c</title>
<path fill="none" stroke="black" d="M381.13,-444.84C413.63,-439.24 453.98,-426.21 475,-396 484.14,-382.87 476.32,-375.95 475,-360 466.9,-262.09 492.96,-217.71 428,-144 413.17,-127.18 391.89,-115.32 371.72,-107.16"/>
<polygon fill="black" stroke="black" points="372.84,-103.84 362.25,-103.55 370.35,-110.38 372.84,-103.84"/>
<g id="a_edge3&#45;headlabel"><a xlink:href="dir_000015_000007.html" target="_top" xlink:title="15">
<text text-anchor="middle" x="377.21" y="-99.96" font-family="Helvetica,sans-Serif" font-size="10.00">15</text>
</a>
</g>
</g>
<!-- dir_539728437c2e2b3d61fff83879e81a91&#45;&gt;dir_2963099998ca16a589f19b8e8f92109e -->
<g id="edge4" class="edge">
<title>dir_539728437c2e2b3d61fff83879e81a91&#45;&gt;dir_2963099998ca16a589f19b8e8f92109e</title>
<path fill="none" stroke="black" d="M297.26,-431.88C275.81,-421.3 248.31,-407.74 226.53,-397.01"/>
<polygon fill="black" stroke="black" points="227.79,-393.73 217.27,-392.44 224.69,-400 227.79,-393.73"/>
<g id="a_edge4&#45;headlabel"><a xlink:href="dir_000015_000020.html" target="_top" xlink:title="1">
<text text-anchor="middle" x="232.27" y="-390.27" font-family="Helvetica,sans-Serif" font-size="10.00">1</text>
</a>
</g>
</g>
<!-- dir_539728437c2e2b3d61fff83879e81a91&#45;&gt;dir_55adc3828666d020d2327d6287029afa -->
<g id="edge5" class="edge">
<title>dir_539728437c2e2b3d61fff83879e81a91&#45;&gt;dir_55adc3828666d020d2327d6287029afa</title>
<path fill="none" stroke="black" d="M355.73,-431.7C367.94,-422.8 382.99,-411.82 396.18,-402.2"/>
<polygon fill="black" stroke="black" points="398.52,-404.82 404.54,-396.1 394.4,-399.17 398.52,-404.82"/>
<g id="a_edge5&#45;headlabel"><a xlink:href="dir_000015_000019.html" target="_top" xlink:title="1">
<text text-anchor="middle" x="397.29" y="-406.74" font-family="Helvetica,sans-Serif" font-size="10.00">1</text>
</a>
</g>
</g>
<!-- dir_539728437c2e2b3d61fff83879e81a91&#45;&gt;dir_517b760d8d6673c69e1adc352f84adcd -->
<g id="edge6" class="edge">
<title>dir_539728437c2e2b3d61fff83879e81a91&#45;&gt;dir_517b760d8d6673c69e1adc352f84adcd</title>
<path fill="none" stroke="black" d="M322.95,-431.87C310,-407.35 286.07,-362.03 270.87,-333.26"/>
<polygon fill="black" stroke="black" points="273.84,-331.4 266.08,-324.19 267.65,-334.67 273.84,-331.4"/>
<g id="a_edge6&#45;headlabel"><a xlink:href="dir_000015_000003.html" target="_top" xlink:title="2">
<text text-anchor="middle" x="278.03" y="-330.75" font-family="Helvetica,sans-Serif" font-size="10.00">2</text>
</a>
</g>
</g>
<!-- dir_539728437c2e2b3d61fff83879e81a91&#45;&gt;dir_65a65c116c6d4a706b6311f223438191 -->
<g id="edge7" class="edge">
<title>dir_539728437c2e2b3d61fff83879e81a91&#45;&gt;dir_65a65c116c6d4a706b6311f223438191</title>
<path fill="none" stroke="black" d="M336.4,-431.91C338.93,-421.58 341.99,-408.1 344,-396 356.3,-322.01 363.85,-233.74 367.11,-190.13"/>
<polygon fill="black" stroke="black" points="370.61,-190.28 367.85,-180.05 363.63,-189.77 370.61,-190.28"/>
<g id="a_edge7&#45;headlabel"><a xlink:href="dir_000015_000006.html" target="_top" xlink:title="7">
<text text-anchor="middle" x="373.18" y="-191.57" font-family="Helvetica,sans-Serif" font-size="10.00">7</text>
</a>
</g>
</g>
<!-- dir_965d6216b410d837fa586352f15ad424&#45;&gt;dir_d7e70032e019862b66970d3661bcaf01 -->
<g id="edge8" class="edge">
<title>dir_965d6216b410d837fa586352f15ad424&#45;&gt;dir_d7e70032e019862b66970d3661bcaf01</title>
<path fill="none" stroke="black" d="M250.8,-215.89C249.09,-186.27 247.19,-123.65 257,-72 258.66,-63.26 261.54,-54.04 264.56,-45.78"/>
<polygon fill="black" stroke="black" points="267.89,-46.87 268.25,-36.28 261.37,-44.34 267.89,-46.87"/>
<g id="a_edge8&#45;headlabel"><a xlink:href="dir_000012_000000.html" target="_top" xlink:title="1">
<text text-anchor="middle" x="269.24" y="-48.75" font-family="Helvetica,sans-Serif" font-size="10.00">1</text>
</a>
</g>
</g>
<!-- dir_965d6216b410d837fa586352f15ad424&#45;&gt;dir_65a65c116c6d4a706b6311f223438191 -->
<g id="edge9" class="edge">
<title>dir_965d6216b410d837fa586352f15ad424&#45;&gt;dir_65a65c116c6d4a706b6311f223438191</title>
<path fill="none" stroke="black" d="M280.62,-215.88C296.38,-206.45 316.08,-194.66 332.89,-184.61"/>
<polygon fill="black" stroke="black" points="335.1,-187.36 341.88,-179.23 331.5,-181.36 335.1,-187.36"/>
<g id="a_edge9&#45;headlabel"><a xlink:href="dir_000012_000006.html" target="_top" xlink:title="4">
<text text-anchor="middle" x="333.47" y="-189.15" font-family="Helvetica,sans-Serif" font-size="10.00">4</text>
</a>
</g>
</g>
<!-- dir_50c1de3ca5a55e0f703cf19d23858c8c&#45;&gt;dir_d7e70032e019862b66970d3661bcaf01 -->
<g id="edge10" class="edge">
<title>dir_50c1de3ca5a55e0f703cf19d23858c8c&#45;&gt;dir_d7e70032e019862b66970d3661bcaf01</title>
<path fill="none" stroke="black" d="M304.61,-71.7C300.24,-63.64 294.94,-53.89 290.1,-44.98"/>
<polygon fill="black" stroke="black" points="293.13,-43.22 285.29,-36.1 286.98,-46.56 293.13,-43.22"/>
<g id="a_edge10&#45;headlabel"><a xlink:href="dir_000007_000000.html" target="_top" xlink:title="1">
<text text-anchor="middle" x="297.34" y="-42.53" font-family="Helvetica,sans-Serif" font-size="10.00">1</text>
</a>
</g>
</g>
<!-- dir_50c1de3ca5a55e0f703cf19d23858c8c&#45;&gt;dir_965d6216b410d837fa586352f15ad424 -->
<g id="edge11" class="edge">
<title>dir_50c1de3ca5a55e0f703cf19d23858c8c&#45;&gt;dir_965d6216b410d837fa586352f15ad424</title>
<path fill="none" stroke="black" d="M306.49,-108.19C295.82,-132.64 276.16,-177.67 263.6,-206.44"/>
<polygon fill="black" stroke="black" points="260.27,-205.31 259.48,-215.87 266.69,-208.11 260.27,-205.31"/>
<g id="a_edge11&#45;headlabel"><a xlink:href="dir_000007_000012.html" target="_top" xlink:title="21">
<text text-anchor="middle" x="259.11" y="-198.38" font-family="Helvetica,sans-Serif" font-size="10.00">21</text>
</a>
</g>
</g>
<!-- dir_50c1de3ca5a55e0f703cf19d23858c8c&#45;&gt;dir_65a65c116c6d4a706b6311f223438191 -->
<g id="edge12" class="edge">
<title>dir_50c1de3ca5a55e0f703cf19d23858c8c&#45;&gt;dir_65a65c116c6d4a706b6311f223438191</title>
<path fill="none" stroke="black" d="M333.33,-108.1C340.63,-116.3 348.69,-126.28 355.38,-135.36"/>
<polygon fill="black" stroke="black" points="352.67,-137.58 361.32,-143.7 358.37,-133.52 352.67,-137.58"/>
<g id="a_edge12&#45;headlabel"><a xlink:href="dir_000007_000006.html" target="_top" xlink:title="24">
<text text-anchor="middle" x="348.27" y="-133.8" font-family="Helvetica,sans-Serif" font-size="10.00">24</text>
</a>
</g>
</g>
<!-- dir_2963099998ca16a589f19b8e8f92109e&#45;&gt;dir_d7e70032e019862b66970d3661bcaf01 -->
<g id="edge13" class="edge">
<title>dir_2963099998ca16a589f19b8e8f92109e&#45;&gt;dir_d7e70032e019862b66970d3661bcaf01</title>
<path fill="none" stroke="black" d="M162.98,-359.96C129.27,-336.37 76,-290.33 76,-235 76,-235 76,-235 76,-161 76,-82.06 180.86,-42.99 238.73,-27.44"/>
<polygon fill="black" stroke="black" points="239.8,-30.77 248.61,-24.89 238.05,-24 239.8,-30.77"/>
<g id="a_edge13&#45;headlabel"><a xlink:href="dir_000020_000000.html" target="_top" xlink:title="1">
<text text-anchor="middle" x="237.03" y="-31.92" font-family="Helvetica,sans-Serif" font-size="10.00">1</text>
</a>
</g>
</g>
<!-- dir_2963099998ca16a589f19b8e8f92109e&#45;&gt;dir_965d6216b410d837fa586352f15ad424 -->
<g id="edge14" class="edge">
<title>dir_2963099998ca16a589f19b8e8f92109e&#45;&gt;dir_965d6216b410d837fa586352f15ad424</title>
<path fill="none" stroke="black" d="M191.27,-359.84C193.17,-341.33 197.82,-311.38 209,-288 213.8,-277.95 220.87,-268.14 227.9,-259.75"/>
<polygon fill="black" stroke="black" points="230.58,-261.99 234.55,-252.17 225.32,-257.38 230.58,-261.99"/>
<g id="a_edge14&#45;headlabel"><a xlink:href="dir_000020_000012.html" target="_top" xlink:title="27">
<text text-anchor="middle" x="230.35" y="-264.07" font-family="Helvetica,sans-Serif" font-size="10.00">27</text>
</a>
</g>
</g>
<!-- dir_2963099998ca16a589f19b8e8f92109e&#45;&gt;dir_50c1de3ca5a55e0f703cf19d23858c8c -->
<g id="edge15" class="edge">
<title>dir_2963099998ca16a589f19b8e8f92109e&#45;&gt;dir_50c1de3ca5a55e0f703cf19d23858c8c</title>
<path fill="none" stroke="black" d="M184.69,-359.93C176.19,-329.3 162.7,-263.74 186,-216 207.04,-172.88 249.3,-136.28 279.5,-114.04"/>
<polygon fill="black" stroke="black" points="281.61,-116.84 287.67,-108.15 277.51,-111.16 281.61,-116.84"/>
<g id="a_edge15&#45;headlabel"><a xlink:href="dir_000020_000007.html" target="_top" xlink:title="35">
<text text-anchor="middle" x="280.35" y="-118.74" font-family="Helvetica,sans-Serif" font-size="10.00">35</text>
</a>
</g>
</g>
<!-- dir_2963099998ca16a589f19b8e8f92109e&#45;&gt;dir_517b760d8d6673c69e1adc352f84adcd -->
<g id="edge16" class="edge">
<title>dir_2963099998ca16a589f19b8e8f92109e&#45;&gt;dir_517b760d8d6673c69e1adc352f84adcd</title>
<path fill="none" stroke="black" d="M206.56,-359.7C214.68,-351.22 224.59,-340.86 233.47,-331.58"/>
<polygon fill="black" stroke="black" points="236.24,-333.75 240.63,-324.1 231.19,-328.91 236.24,-333.75"/>
<g id="a_edge16&#45;headlabel"><a xlink:href="dir_000020_000003.html" target="_top" xlink:title="2">
<text text-anchor="middle" x="235.81" y="-335.81" font-family="Helvetica,sans-Serif" font-size="10.00">2</text>
</a>
</g>
</g>
<!-- dir_2963099998ca16a589f19b8e8f92109e&#45;&gt;dir_65a65c116c6d4a706b6311f223438191 -->
<g id="edge17" class="edge">
<title>dir_2963099998ca16a589f19b8e8f92109e&#45;&gt;dir_65a65c116c6d4a706b6311f223438191</title>
<path fill="none" stroke="black" d="M186.32,-359.91C180.41,-327.46 172.85,-256.54 209,-216 240.19,-181.01 295,-169.06 331.65,-165.01"/>
<polygon fill="black" stroke="black" points="332.31,-168.47 341.93,-164.03 331.64,-161.5 332.31,-168.47"/>
<g id="a_edge17&#45;headlabel"><a xlink:href="dir_000020_000006.html" target="_top" xlink:title="21">
<text text-anchor="middle" x="329" y="-169.13" font-family="Helvetica,sans-Serif" font-size="10.00">21</text>
</a>
</g>
</g>
<!-- dir_55adc3828666d020d2327d6287029afa&#45;&gt;dir_d7e70032e019862b66970d3661bcaf01 -->
<g id="edge18" class="edge">
<title>dir_55adc3828666d020d2327d6287029afa&#45;&gt;dir_d7e70032e019862b66970d3661bcaf01</title>
<path fill="none" stroke="black" d="M458.33,-359.96C495.04,-336.82 552,-291.79 552,-235 552,-235 552,-235 552,-161 552,-54.85 388.58,-27.98 313.24,-21.24"/>
<polygon fill="black" stroke="black" points="313.47,-17.74 303.22,-20.41 312.9,-24.72 313.47,-17.74"/>
<g id="a_edge18&#45;headlabel"><a xlink:href="dir_000019_000000.html" target="_top" xlink:title="1">
<text text-anchor="middle" x="317.29" y="-12.71" font-family="Helvetica,sans-Serif" font-size="10.00">1</text>
</a>
</g>
</g>
<!-- dir_55adc3828666d020d2327d6287029afa&#45;&gt;dir_965d6216b410d837fa586352f15ad424 -->
<g id="edge19" class="edge">
<title>dir_55adc3828666d020d2327d6287029afa&#45;&gt;dir_965d6216b410d837fa586352f15ad424</title>
<path fill="none" stroke="black" d="M412.78,-359.75C395.66,-340.9 366.51,-310.4 338,-288 323.84,-276.87 307.2,-266.14 292.35,-257.29"/>
<polygon fill="black" stroke="black" points="293.77,-254.06 283.38,-252.02 290.23,-260.1 293.77,-254.06"/>
<g id="a_edge19&#45;headlabel"><a xlink:href="dir_000019_000012.html" target="_top" xlink:title="5">
<text text-anchor="middle" x="298.31" y="-250.93" font-family="Helvetica,sans-Serif" font-size="10.00">5</text>
</a>
</g>
</g>
<!-- dir_55adc3828666d020d2327d6287029afa&#45;&gt;dir_50c1de3ca5a55e0f703cf19d23858c8c -->
<g id="edge20" class="edge">
<title>dir_55adc3828666d020d2327d6287029afa&#45;&gt;dir_50c1de3ca5a55e0f703cf19d23858c8c</title>
<path fill="none" stroke="black" d="M431.76,-359.97C439.91,-318.36 454.68,-210.14 405,-144 395.36,-131.17 381.64,-120.91 367.76,-112.96"/>
<polygon fill="black" stroke="black" points="369.12,-109.72 358.66,-108.07 365.81,-115.88 369.12,-109.72"/>
<g id="a_edge20&#45;headlabel"><a xlink:href="dir_000019_000007.html" target="_top" xlink:title="19">
<text text-anchor="middle" x="373.63" y="-106.42" font-family="Helvetica,sans-Serif" font-size="10.00">19</text>
</a>
</g>
</g>
<!-- dir_55adc3828666d020d2327d6287029afa&#45;&gt;dir_517b760d8d6673c69e1adc352f84adcd -->
<g id="edge21" class="edge">
<title>dir_55adc3828666d020d2327d6287029afa&#45;&gt;dir_517b760d8d6673c69e1adc352f84adcd</title>
<path fill="none" stroke="black" d="M390.47,-361.64C365.5,-351.41 332.45,-337.88 305.48,-326.85"/>
<polygon fill="black" stroke="black" points="306.8,-323.6 296.22,-323.06 304.15,-330.08 306.8,-323.6"/>
<g id="a_edge21&#45;headlabel"><a xlink:href="dir_000019_000003.html" target="_top" xlink:title="3">
<text text-anchor="middle" x="311.2" y="-319.84" font-family="Helvetica,sans-Serif" font-size="10.00">3</text>
</a>
</g>
</g>
<!-- dir_55adc3828666d020d2327d6287029afa&#45;&gt;dir_65a65c116c6d4a706b6311f223438191 -->
<g id="edge22" class="edge">
<title>dir_55adc3828666d020d2327d6287029afa&#45;&gt;dir_65a65c116c6d4a706b6311f223438191</title>
<path fill="none" stroke="black" d="M427.85,-359.94C427.08,-329.86 423.11,-265.88 404,-216 400.31,-206.37 394.65,-196.7 388.94,-188.31"/>
<polygon fill="black" stroke="black" points="391.73,-186.19 383.07,-180.08 386.03,-190.26 391.73,-186.19"/>
<g id="a_edge22&#45;headlabel"><a xlink:href="dir_000019_000006.html" target="_top" xlink:title="6">
<text text-anchor="middle" x="396.13" y="-184.96" font-family="Helvetica,sans-Serif" font-size="10.00">6</text>
</a>
</g>
</g>
<!-- dir_517b760d8d6673c69e1adc352f84adcd&#45;&gt;dir_d7e70032e019862b66970d3661bcaf01 -->
<g id="edge23" class="edge">
<title>dir_517b760d8d6673c69e1adc352f84adcd&#45;&gt;dir_d7e70032e019862b66970d3661bcaf01</title>
<path fill="none" stroke="black" d="M235.29,-287.79C225.24,-278.41 214.36,-265.9 209,-252 203.24,-237.07 206.84,-231.85 209,-216 217.97,-150.19 224.91,-133.9 249,-72 252.48,-63.05 257,-53.61 261.34,-45.21"/>
<polygon fill="black" stroke="black" points="264.49,-46.73 266.09,-36.26 258.31,-43.45 264.49,-46.73"/>
<g id="a_edge23&#45;headlabel"><a xlink:href="dir_000003_000000.html" target="_top" xlink:title="1">
<text text-anchor="middle" x="265.31" y="-48.74" font-family="Helvetica,sans-Serif" font-size="10.00">1</text>
</a>
</g>
</g>
<!-- dir_517b760d8d6673c69e1adc352f84adcd&#45;&gt;dir_965d6216b410d837fa586352f15ad424 -->
<g id="edge24" class="edge">
<title>dir_517b760d8d6673c69e1adc352f84adcd&#45;&gt;dir_965d6216b410d837fa586352f15ad424</title>
<path fill="none" stroke="black" d="M255.76,-287.7C255.21,-279.98 254.55,-270.71 253.94,-262.11"/>
<polygon fill="black" stroke="black" points="257.43,-261.83 253.22,-252.1 250.44,-262.33 257.43,-261.83"/>
<g id="a_edge24&#45;headlabel"><a xlink:href="dir_000003_000012.html" target="_top" xlink:title="8">
<text text-anchor="middle" x="260.51" y="-262.71" font-family="Helvetica,sans-Serif" font-size="10.00">8</text>
</a>
</g>
</g>
<!-- dir_517b760d8d6673c69e1adc352f84adcd&#45;&gt;dir_50c1de3ca5a55e0f703cf19d23858c8c -->
<g id="edge25" class="edge">
<title>dir_517b760d8d6673c69e1adc352f84adcd&#45;&gt;dir_50c1de3ca5a55e0f703cf19d23858c8c</title>
<path fill="none" stroke="black" d="M272.84,-287.7C280.85,-277.93 289.93,-265.09 295,-252 312.27,-207.44 314.99,-151.16 314.86,-118.31"/>
<polygon fill="black" stroke="black" points="318.36,-118.07 314.73,-108.12 311.36,-118.16 318.36,-118.07"/>
<g id="a_edge25&#45;headlabel"><a xlink:href="dir_000003_000007.html" target="_top" xlink:title="9">
<text text-anchor="middle" x="321.25" y="-119.13" font-family="Helvetica,sans-Serif" font-size="10.00">9</text>
</a>
</g>
</g>
<!-- dir_517b760d8d6673c69e1adc352f84adcd&#45;&gt;dir_65a65c116c6d4a706b6311f223438191 -->
<g id="edge26" class="edge">
<title>dir_517b760d8d6673c69e1adc352f84adcd&#45;&gt;dir_65a65c116c6d4a706b6311f223438191</title>
<path fill="none" stroke="black" d="M286.34,-287.93C300.33,-278.68 316.48,-266.23 328,-252 342.99,-233.48 353.85,-208.59 360.62,-189.83"/>
<polygon fill="black" stroke="black" points="364.01,-190.72 363.95,-180.13 357.39,-188.45 364.01,-190.72"/>
<g id="a_edge26&#45;headlabel"><a xlink:href="dir_000003_000006.html" target="_top" xlink:title="5">
<text text-anchor="middle" x="365.53" y="-192.54" font-family="Helvetica,sans-Serif" font-size="10.00">5</text>
</a>
</g>
</g>
<!-- dir_65a65c116c6d4a706b6311f223438191&#45;&gt;dir_d7e70032e019862b66970d3661bcaf01 -->
<g id="edge27" class="edge">
<title>dir_65a65c116c6d4a706b6311f223438191&#45;&gt;dir_d7e70032e019862b66970d3661bcaf01</title>
<path fill="none" stroke="black" d="M374.38,-143.94C379.29,-124.98 383.99,-94.12 371,-72 358.45,-50.63 333.81,-37.24 312.76,-29.27"/>
<polygon fill="black" stroke="black" points="313.69,-25.89 303.1,-25.88 311.38,-32.49 313.69,-25.89"/>
<g id="a_edge27&#45;headlabel"><a xlink:href="dir_000006_000000.html" target="_top" xlink:title="7">
<text text-anchor="middle" x="318.03" y="-21.9" font-family="Helvetica,sans-Serif" font-size="10.00">7</text>
</a>
</g>
</g>
<!-- dir_65a65c116c6d4a706b6311f223438191&#45;&gt;dir_50c1de3ca5a55e0f703cf19d23858c8c -->
<g id="edge28" class="edge">
<title>dir_65a65c116c6d4a706b6311f223438191&#45;&gt;dir_50c1de3ca5a55e0f703cf19d23858c8c</title>
<path fill="none" stroke="black" d="M349.49,-143.7C342.18,-135.47 334.13,-125.48 327.45,-116.42"/>
<polygon fill="black" stroke="black" points="330.19,-114.23 321.54,-108.1 324.48,-118.28 330.19,-114.23"/>
<g id="a_edge28&#45;headlabel"><a xlink:href="dir_000006_000007.html" target="_top" xlink:title="2">
<text text-anchor="middle" x="334.59" y="-113.01" font-family="Helvetica,sans-Serif" font-size="10.00">2</text>
</a>
</g>
</g>
</g>
</svg>
