<?xml version="1.0" encoding="UTF-8" standalone="no"?>
<!DOCTYPE svg PUBLIC "-//W3C//DTD SVG 1.1//EN"
 "http://www.w3.org/Graphics/SVG/1.1/DTD/svg11.dtd">
<!-- Generated by graphviz version 2.38.0 (20140413.2041)
 -->
<!-- Title: xalanc/XalanEXSLT Pages: 1 -->
<svg width="217pt" height="367pt"
 viewBox="0.00 0.00 217.20 367.00" xmlns="http://www.w3.org/2000/svg" xmlns:xlink="http://www.w3.org/1999/xlink">
<g id="graph0" class="graph" transform="scale(1 1) rotate(0) translate(4 363)">
<title>xalanc/XalanEXSLT</title>
<g id="clust1" class="cluster"><title>clusterdir_4fe86e58e6df1a0cd67cae514a3234ec</title>
<g id="a_clust1"><a xlink:href="dir_4fe86e58e6df1a0cd67cae514a3234ec.html" target="_top" xlink:title="xalanc">
<polygon fill="#ddddee" stroke="black" points="29.6969,-280 29.6969,-351 115.697,-351 115.697,-280 29.6969,-280"/>
<text text-anchor="middle" x="72.6969" y="-339" font-family="Helvetica,sans-Serif" font-size="10.00">xalanc</text>
</a>
</g>
</g>
<!-- dir_99b3a4dab9aa3cf06ab64ef7d637af5e -->
<g id="node1" class="node"><title>dir_99b3a4dab9aa3cf06ab64ef7d637af5e</title>
<g id="a_node1"><a xlink:href="dir_99b3a4dab9aa3cf06ab64ef7d637af5e.html" target="_top" xlink:title="XalanEXSLT">
<polygon fill="#eeeeff" stroke="black" points="107.197,-324 38.1969,-324 38.1969,-288 107.197,-288 107.197,-324"/>
<text text-anchor="middle" x="72.6969" y="-303.5" font-family="Helvetica,sans-Serif" font-size="10.00">XalanEXSLT</text>
</a>
</g>
</g>
<!-- dir_bd626f48b2f751fd24704cf98093773c -->
<g id="node2" class="node"><title>dir_bd626f48b2f751fd24704cf98093773c</title>
<g id="a_node2"><a xlink:href="dir_bd626f48b2f751fd24704cf98093773c.html" target="_top" xlink:title="PlatformSupport">
<polygon fill="none" stroke="black" points="98.6969,-108 12.6969,-108 12.6969,-72 98.6969,-72 98.6969,-108"/>
<text text-anchor="middle" x="55.6969" y="-87.5" font-family="Helvetica,sans-Serif" font-size="10.00">PlatformSupport</text>
</a>
</g>
</g>
<!-- dir_99b3a4dab9aa3cf06ab64ef7d637af5e&#45;&gt;dir_bd626f48b2f751fd24704cf98093773c -->
<g id="edge7" class="edge"><title>dir_99b3a4dab9aa3cf06ab64ef7d637af5e&#45;&gt;dir_bd626f48b2f751fd24704cf98093773c</title>
<path fill="none" stroke="black" d="M71.3344,-287.849C68.3938,-250.832 61.4309,-163.181 57.8724,-118.386"/>
<polygon fill="black" stroke="black" points="61.3468,-117.924 57.0658,-108.232 54.3688,-118.478 61.3468,-117.924"/>
<g id="a_edge7&#45;headlabel"><a xlink:href="dir_000011_000005.html" target="_top" xlink:title="5">
<text text-anchor="middle" x="64.4617" y="-118.782" font-family="Helvetica,sans-Serif" font-size="10.00">5</text>
</a>
</g>
</g>
<!-- dir_31d1584d1b1bd63f85633ff943c76478 -->
<g id="node3" class="node"><title>dir_31d1584d1b1bd63f85633ff943c76478</title>
<g id="a_node3"><a xlink:href="dir_31d1584d1b1bd63f85633ff943c76478.html" target="_top" xlink:title="Include">
<polygon fill="none" stroke="black" points="82.6969,-36 28.6969,-36 28.6969,-0 82.6969,-0 82.6969,-36"/>
<text text-anchor="middle" x="55.6969" y="-15.5" font-family="Helvetica,sans-Serif" font-size="10.00">Include</text>
</a>
</g>
</g>
<!-- dir_99b3a4dab9aa3cf06ab64ef7d637af5e&#45;&gt;dir_31d1584d1b1bd63f85633ff943c76478 -->
<g id="edge8" class="edge"><title>dir_99b3a4dab9aa3cf06ab64ef7d637af5e&#45;&gt;dir_31d1584d1b1bd63f85633ff943c76478</title>
<path fill="none" stroke="black" d="M64.469,-287.868C48.8585,-254.305 15.4531,-177.129 3.69686,-108 1.01438,-92.2265 -2.35562,-86.8111 3.69686,-72 8.1849,-61.0173 16.1673,-51.081 24.5513,-42.8582"/>
<polygon fill="black" stroke="black" points="26.9319,-45.4241 31.9448,-36.0901 22.2053,-40.2608 26.9319,-45.4241"/>
<g id="a_edge8&#45;headlabel"><a xlink:href="dir_000011_000004.html" target="_top" xlink:title="1">
<text text-anchor="middle" x="26.1977" y="-47.4455" font-family="Helvetica,sans-Serif" font-size="10.00">1</text>
</a>
</g>
</g>
<!-- dir_83a3b5b40a6f9adf8910408980761211 -->
<g id="node4" class="node"><title>dir_83a3b5b40a6f9adf8910408980761211</title>
<g id="a_node4"><a xlink:href="dir_83a3b5b40a6f9adf8910408980761211.html" target="_top" xlink:title="XPath">
<polygon fill="none" stroke="black" points="136.697,-180 82.6969,-180 82.6969,-144 136.697,-144 136.697,-180"/>
<text text-anchor="middle" x="109.697" y="-159.5" font-family="Helvetica,sans-Serif" font-size="10.00">XPath</text>
</a>
</g>
</g>
<!-- dir_99b3a4dab9aa3cf06ab64ef7d637af5e&#45;&gt;dir_83a3b5b40a6f9adf8910408980761211 -->
<g id="edge9" class="edge"><title>dir_99b3a4dab9aa3cf06ab64ef7d637af5e&#45;&gt;dir_83a3b5b40a6f9adf8910408980761211</title>
<path fill="none" stroke="black" d="M77.1599,-287.871C83.4937,-263.564 95.1526,-218.819 102.658,-190.013"/>
<polygon fill="black" stroke="black" points="106.083,-190.749 105.218,-180.189 99.3095,-188.984 106.083,-190.749"/>
<g id="a_edge9&#45;headlabel"><a xlink:href="dir_000011_000018.html" target="_top" xlink:title="6">
<text text-anchor="middle" x="107.925" y="-192.443" font-family="Helvetica,sans-Serif" font-size="10.00">6</text>
</a>
</g>
</g>
<!-- dir_39ef7e16b32bdd36a9d01f70977a8a9a -->
<g id="node5" class="node"><title>dir_39ef7e16b32bdd36a9d01f70977a8a9a</title>
<g id="a_node5"><a xlink:href="dir_39ef7e16b32bdd36a9d01f70977a8a9a.html" target="_top" xlink:title="XalanExtensions">
<polygon fill="none" stroke="black" points="209.197,-252 120.197,-252 120.197,-216 209.197,-216 209.197,-252"/>
<text text-anchor="middle" x="164.697" y="-231.5" font-family="Helvetica,sans-Serif" font-size="10.00">XalanExtensions</text>
</a>
</g>
</g>
<!-- dir_99b3a4dab9aa3cf06ab64ef7d637af5e&#45;&gt;dir_39ef7e16b32bdd36a9d01f70977a8a9a -->
<g id="edge10" class="edge"><title>dir_99b3a4dab9aa3cf06ab64ef7d637af5e&#45;&gt;dir_39ef7e16b32bdd36a9d01f70977a8a9a</title>
<path fill="none" stroke="black" d="M95.4384,-287.697C107.136,-278.796 121.558,-267.823 134.207,-258.199"/>
<polygon fill="black" stroke="black" points="136.378,-260.945 142.217,-252.104 132.139,-255.374 136.378,-260.945"/>
<g id="a_edge10&#45;headlabel"><a xlink:href="dir_000011_000012.html" target="_top" xlink:title="11">
<text text-anchor="middle" x="135.236" y="-262.881" font-family="Helvetica,sans-Serif" font-size="10.00">11</text>
</a>
</g>
</g>
<!-- dir_bd626f48b2f751fd24704cf98093773c&#45;&gt;dir_31d1584d1b1bd63f85633ff943c76478 -->
<g id="edge1" class="edge"><title>dir_bd626f48b2f751fd24704cf98093773c&#45;&gt;dir_31d1584d1b1bd63f85633ff943c76478</title>
<path fill="none" stroke="black" d="M49.7811,-71.6966C48.9854,-63.9827 48.7589,-54.7125 49.1016,-46.1124"/>
<polygon fill="black" stroke="black" points="52.5952,-46.3243 49.8018,-36.1043 45.6123,-45.8356 52.5952,-46.3243"/>
<g id="a_edge1&#45;headlabel"><a xlink:href="dir_000005_000004.html" target="_top" xlink:title="25">
<text text-anchor="middle" x="55.1768" y="-47.6083" font-family="Helvetica,sans-Serif" font-size="10.00">25</text>
</a>
</g>
</g>
<!-- dir_31d1584d1b1bd63f85633ff943c76478&#45;&gt;dir_bd626f48b2f751fd24704cf98093773c -->
<g id="edge2" class="edge"><title>dir_31d1584d1b1bd63f85633ff943c76478&#45;&gt;dir_bd626f48b2f751fd24704cf98093773c</title>
<path fill="none" stroke="black" d="M61.5919,-36.1043C62.3974,-43.7913 62.6337,-53.0537 62.3009,-61.6651"/>
<polygon fill="black" stroke="black" points="58.8054,-61.4805 61.6126,-71.6966 65.789,-61.9597 58.8054,-61.4805"/>
<g id="a_edge2&#45;headlabel"><a xlink:href="dir_000004_000005.html" target="_top" xlink:title="2">
<text text-anchor="middle" x="56.2188" y="-55.2" font-family="Helvetica,sans-Serif" font-size="10.00">2</text>
</a>
</g>
</g>
<!-- dir_83a3b5b40a6f9adf8910408980761211&#45;&gt;dir_bd626f48b2f751fd24704cf98093773c -->
<g id="edge3" class="edge"><title>dir_83a3b5b40a6f9adf8910408980761211&#45;&gt;dir_bd626f48b2f751fd24704cf98093773c</title>
<path fill="none" stroke="black" d="M96.3485,-143.697C89.9401,-135.389 82.1392,-125.277 75.0911,-116.141"/>
<polygon fill="black" stroke="black" points="77.7709,-113.884 68.8916,-108.104 72.2285,-118.16 77.7709,-113.884"/>
<g id="a_edge3&#45;headlabel"><a xlink:href="dir_000018_000005.html" target="_top" xlink:title="35">
<text text-anchor="middle" x="82.2146" y="-112.496" font-family="Helvetica,sans-Serif" font-size="10.00">35</text>
</a>
</g>
</g>
<!-- dir_83a3b5b40a6f9adf8910408980761211&#45;&gt;dir_31d1584d1b1bd63f85633ff943c76478 -->
<g id="edge4" class="edge"><title>dir_83a3b5b40a6f9adf8910408980761211&#45;&gt;dir_31d1584d1b1bd63f85633ff943c76478</title>
<path fill="none" stroke="black" d="M112.924,-143.827C115.598,-125.311 117.548,-95.354 107.697,-72 103.086,-61.0684 95.0687,-51.1464 86.6909,-42.9211"/>
<polygon fill="black" stroke="black" points="89.0456,-40.3316 79.3122,-36.1469 84.3116,-45.4881 89.0456,-40.3316"/>
<g id="a_edge4&#45;headlabel"><a xlink:href="dir_000018_000004.html" target="_top" xlink:title="22">
<text text-anchor="middle" x="93.6137" y="-38.1711" font-family="Helvetica,sans-Serif" font-size="10.00">22</text>
</a>
</g>
</g>
<!-- dir_39ef7e16b32bdd36a9d01f70977a8a9a&#45;&gt;dir_31d1584d1b1bd63f85633ff943c76478 -->
<g id="edge5" class="edge"><title>dir_39ef7e16b32bdd36a9d01f70977a8a9a&#45;&gt;dir_31d1584d1b1bd63f85633ff943c76478</title>
<path fill="none" stroke="black" d="M164.402,-215.92C163.084,-184.694 156.57,-117.434 125.697,-72 116.857,-58.9902 103.77,-47.8574 91.2965,-39.2021"/>
<polygon fill="black" stroke="black" points="93.0942,-36.1951 82.8187,-33.6132 89.2413,-42.0394 93.0942,-36.1951"/>
<g id="a_edge5&#45;headlabel"><a xlink:href="dir_000012_000004.html" target="_top" xlink:title="1">
<text text-anchor="middle" x="97.658" y="-33.303" font-family="Helvetica,sans-Serif" font-size="10.00">1</text>
</a>
</g>
</g>
<!-- dir_39ef7e16b32bdd36a9d01f70977a8a9a&#45;&gt;dir_83a3b5b40a6f9adf8910408980761211 -->
<g id="edge6" class="edge"><title>dir_39ef7e16b32bdd36a9d01f70977a8a9a&#45;&gt;dir_83a3b5b40a6f9adf8910408980761211</title>
<path fill="none" stroke="black" d="M151.101,-215.697C144.574,-207.389 136.629,-197.277 129.45,-188.141"/>
<polygon fill="black" stroke="black" points="132.066,-185.805 123.136,-180.104 126.562,-190.13 132.066,-185.805"/>
<g id="a_edge6&#45;headlabel"><a xlink:href="dir_000012_000018.html" target="_top" xlink:title="6">
<text text-anchor="middle" x="136.52" y="-184.377" font-family="Helvetica,sans-Serif" font-size="10.00">6</text>
</a>
</g>
</g>
</g>
</svg>
