<?xml version="1.0" encoding="UTF-8" standalone="no"?>
<!DOCTYPE svg PUBLIC "-//W3C//DTD SVG 1.1//EN"
 "http://www.w3.org/Graphics/SVG/1.1/DTD/svg11.dtd">
<!-- Generated by graphviz version 2.43.0 (0)
 -->
<!-- Title: xalanc/PlatformSupport/DOMStringHelper.hpp Pages: 1 -->
<!--zoomable 542 -->
<svg id="main" version="1.1" xmlns="http://www.w3.org/2000/svg" xmlns:xlink="http://www.w3.org/1999/xlink" xml:space="preserve" onload="init(evt)">
<style type="text/css"><![CDATA[
.edge:hover path { stroke: red; }
.edge:hover polygon { stroke: red; fill: red; }
]]></style>
<script type="text/javascript"><![CDATA[
var edges = document.getElementsByTagName('g');
if (edges && edges.length) {
  for (var i=0;i<edges.length;i++) {
    if (edges[i].id.substr(0,4)=='edge') {
      edges[i].setAttribute('class','edge');
    }
  }
}
]]></script>
        <defs>
                <circle id="rim" cx="0" cy="0" r="7"/>
                <circle id="rim2" cx="0" cy="0" r="3.5"/>
                <g id="zoomPlus">
                        <use xlink:href="#rim" fill="#404040">
                                <set attributeName="fill" to="#808080" begin="zoomplus.mouseover" end="zoomplus.mouseout"/>
                        </use>
                        <path d="M-4,0h8M0,-4v8" fill="none" stroke="white" stroke-width="1.5" pointer-events="none"/>
                </g>
                <g id="zoomMin">
                        <use xlink:href="#rim" fill="#404040">
                                <set attributeName="fill" to="#808080" begin="zoomminus.mouseover" end="zoomminus.mouseout"/>
                        </use>
                        <path d="M-4,0h8" fill="none" stroke="white" stroke-width="1.5" pointer-events="none"/>
                </g>
                <g id="dirArrow">
                        <path fill="none" stroke="white" stroke-width="1.5" d="M0,-3.0v7 M-2.5,-0.5L0,-3.0L2.5,-0.5"/>
                </g>
               <g id="resetDef">
                       <use xlink:href="#rim2" fill="#404040">
                               <set attributeName="fill" to="#808080" begin="reset.mouseover" end="reset.mouseout"/>
                       </use>
               </g>
        </defs>

<script type="text/javascript">
var viewWidth = 1311;
var viewHeight = 542;
var sectionId = 'dynsection-0';
</script>
<script xlink:href="svgpan.js"/>
<svg id="graph" class="graph">
<g id="viewport">
<title>xalanc/PlatformSupport/DOMStringHelper.hpp</title>
<!-- Node1 -->
<g id="node1" class="node">
<title>Node1</title>
<g id="a_node1"><a xlink:title=" ">
<polygon fill="#bfbfbf" stroke="black" points="593.5,-503.5 593.5,-533.5 724.5,-533.5 724.5,-503.5 593.5,-503.5"/>
<text text-anchor="start" x="601.5" y="-521.5" font-family="Helvetica,sans-Serif" font-size="10.00">xalanc/PlatformSupport</text>
<text text-anchor="middle" x="659" y="-510.5" font-family="Helvetica,sans-Serif" font-size="10.00">/DOMStringHelper.hpp</text>
</a>
</g>
</g>
<!-- Node2 -->
<g id="node2" class="node">
<title>Node2</title>
<g id="a_node2"><a xlink:href="PlatformSupportDefinitions_8hpp.html" target="_top" xlink:title=" ">
<polygon fill="none" stroke="black" points="28.5,-369.5 28.5,-399.5 201.5,-399.5 201.5,-369.5 28.5,-369.5"/>
<text text-anchor="start" x="36.5" y="-387.5" font-family="Helvetica,sans-Serif" font-size="10.00">xalanc/PlatformSupport</text>
<text text-anchor="middle" x="115" y="-376.5" font-family="Helvetica,sans-Serif" font-size="10.00">/PlatformSupportDefinitions.hpp</text>
</a>
</g>
</g>
<!-- Node1&#45;&gt;Node2 -->
<g id="edge1" class="edge">
<title>Node1&#45;&gt;Node2</title>
<path fill="none" stroke="midnightblue" d="M593.21,-514.67C517.85,-510.04 391.34,-497.99 287,-467 236.04,-451.86 181.2,-423.57 147.49,-404.63"/>
<polygon fill="midnightblue" stroke="midnightblue" points="148.98,-401.45 138.56,-399.55 145.52,-407.54 148.98,-401.45"/>
</g>
<!-- Node7 -->
<g id="node7" class="node">
<title>Node7</title>
<g id="a_node7"><a xlink:title=" ">
<polygon fill="none" stroke="#bfbfbf" points="1009,-140 1009,-159 1073,-159 1073,-140 1009,-140"/>
<text text-anchor="middle" x="1041" y="-147" font-family="Helvetica,sans-Serif" font-size="10.00">algorithm</text>
</a>
</g>
</g>
<!-- Node1&#45;&gt;Node7 -->
<g id="edge6" class="edge">
<title>Node1&#45;&gt;Node7</title>
<path fill="none" stroke="midnightblue" d="M724.71,-515.99C874.23,-510.77 1227,-487.62 1227,-385.5 1227,-385.5 1227,-385.5 1227,-266 1227,-235.9 1229.18,-222.38 1208,-201 1175.07,-167.76 1121.07,-156.25 1083.42,-152.34"/>
<polygon fill="midnightblue" stroke="midnightblue" points="1083.54,-148.84 1073.27,-151.43 1082.92,-155.81 1083.54,-148.84"/>
</g>
<!-- Node8 -->
<g id="node8" class="node">
<title>Node8</title>
<g id="a_node8"><a xlink:title=" ">
<polygon fill="none" stroke="#bfbfbf" points="216,-73 216,-92 268,-92 268,-73 216,-73"/>
<text text-anchor="middle" x="242" y="-80" font-family="Helvetica,sans-Serif" font-size="10.00">cassert</text>
</a>
</g>
</g>
<!-- Node1&#45;&gt;Node8 -->
<g id="edge7" class="edge">
<title>Node1&#45;&gt;Node8</title>
<path fill="none" stroke="midnightblue" d="M593.42,-515.7C443.88,-511.1 87.07,-497.06 42,-467 8.1,-444.39 0,-426.25 0,-385.5 0,-385.5 0,-385.5 0,-210 0,-118.42 137.78,-93.02 205.42,-86.07"/>
<polygon fill="midnightblue" stroke="midnightblue" points="206.01,-89.53 215.64,-85.11 205.36,-82.56 206.01,-89.53"/>
</g>
<!-- Node9 -->
<g id="node9" class="node">
<title>Node9</title>
<g id="a_node9"><a xlink:title=" ">
<polygon fill="none" stroke="#bfbfbf" points="1133.5,-201.5 1133.5,-220.5 1198.5,-220.5 1198.5,-201.5 1133.5,-201.5"/>
<text text-anchor="middle" x="1166" y="-208.5" font-family="Helvetica,sans-Serif" font-size="10.00">functional</text>
</a>
</g>
</g>
<!-- Node1&#45;&gt;Node9 -->
<g id="edge8" class="edge">
<title>Node1&#45;&gt;Node9</title>
<path fill="none" stroke="midnightblue" d="M724.58,-514.65C864.78,-506.75 1181,-478.63 1181,-385.5 1181,-385.5 1181,-385.5 1181,-322 1181,-289.5 1174.49,-252.1 1170.05,-230.34"/>
<polygon fill="midnightblue" stroke="midnightblue" points="1173.46,-229.56 1167.96,-220.5 1166.61,-231.01 1173.46,-229.56"/>
</g>
<!-- Node10 -->
<g id="node10" class="node">
<title>Node10</title>
<g id="a_node10"><a xlink:title=" ">
<polygon fill="none" stroke="#bfbfbf" points="1255,-442 1255,-461 1303,-461 1303,-442 1255,-442"/>
<text text-anchor="middle" x="1279" y="-449" font-family="Helvetica,sans-Serif" font-size="10.00">iosfwd</text>
</a>
</g>
</g>
<!-- Node1&#45;&gt;Node10 -->
<g id="edge9" class="edge">
<title>Node1&#45;&gt;Node10</title>
<path fill="none" stroke="midnightblue" d="M724.51,-517.7C833.21,-516.73 1057.13,-509.19 1241,-467 1244,-466.31 1247.08,-465.44 1250.13,-464.46"/>
<polygon fill="midnightblue" stroke="midnightblue" points="1251.35,-467.74 1259.6,-461.09 1249.01,-461.14 1251.35,-467.74"/>
</g>
<!-- Node11 -->
<g id="node11" class="node">
<title>Node11</title>
<g id="a_node11"><a xlink:href="XalanVector_8hpp.html" target="_top" xlink:title=" ">
<polygon fill="none" stroke="black" points="593.5,-201.5 593.5,-220.5 762.5,-220.5 762.5,-201.5 593.5,-201.5"/>
<text text-anchor="middle" x="678" y="-208.5" font-family="Helvetica,sans-Serif" font-size="10.00">xalanc/Include/XalanVector.hpp</text>
</a>
</g>
</g>
<!-- Node1&#45;&gt;Node11 -->
<g id="edge10" class="edge">
<title>Node1&#45;&gt;Node11</title>
<path fill="none" stroke="midnightblue" d="M665.97,-503.24C676.94,-479.44 697,-429.86 697,-385.5 697,-385.5 697,-385.5 697,-322 697,-289.49 688.84,-252.35 683.22,-230.61"/>
<polygon fill="midnightblue" stroke="midnightblue" points="686.54,-229.5 680.56,-220.75 679.78,-231.32 686.54,-229.5"/>
</g>
<!-- Node16 -->
<g id="node16" class="node">
<title>Node16</title>
<g id="a_node16"><a xlink:href="XalanMemoryManagement_8hpp.html" target="_top" xlink:title=" ">
<polygon fill="none" stroke="black" points="488,-134.5 488,-164.5 646,-164.5 646,-134.5 488,-134.5"/>
<text text-anchor="start" x="496" y="-152.5" font-family="Helvetica,sans-Serif" font-size="10.00">xalanc/Include/XalanMemory</text>
<text text-anchor="middle" x="567" y="-141.5" font-family="Helvetica,sans-Serif" font-size="10.00">Management.hpp</text>
</a>
</g>
</g>
<!-- Node1&#45;&gt;Node16 -->
<g id="edge40" class="edge">
<title>Node1&#45;&gt;Node16</title>
<path fill="none" stroke="midnightblue" d="M658.27,-503.38C656.66,-476.76 651.94,-417.45 640,-369 623.22,-300.86 605.93,-287.98 585,-221 580.24,-205.78 575.8,-188.42 572.52,-174.74"/>
<polygon fill="midnightblue" stroke="midnightblue" points="575.85,-173.6 570.15,-164.67 569.03,-175.2 575.85,-173.6"/>
</g>
<!-- Node18 -->
<g id="node18" class="node">
<title>Node18</title>
<g id="a_node18"><a xlink:href="XalanMap_8hpp.html" target="_top" xlink:title=" ">
<polygon fill="none" stroke="black" points="779,-257.5 779,-276.5 939,-276.5 939,-257.5 779,-257.5"/>
<text text-anchor="middle" x="859" y="-264.5" font-family="Helvetica,sans-Serif" font-size="10.00">xalanc/Include/XalanMap.hpp</text>
</a>
</g>
</g>
<!-- Node1&#45;&gt;Node18 -->
<g id="edge24" class="edge">
<title>Node1&#45;&gt;Node18</title>
<path fill="none" stroke="midnightblue" d="M677.4,-503.23C688.39,-493.91 701.93,-480.92 711,-467 750.83,-405.84 719.17,-367.24 768,-313 781.53,-297.97 801.22,-287.37 818.82,-280.25"/>
<polygon fill="midnightblue" stroke="midnightblue" points="820.22,-283.47 828.33,-276.65 817.74,-276.92 820.22,-283.47"/>
</g>
<!-- Node21 -->
<g id="node21" class="node">
<title>Node21</title>
<g id="a_node21"><a xlink:href="STLHelper_8hpp.html" target="_top" xlink:title=" ">
<polygon fill="none" stroke="black" points="777,-313.5 777,-332.5 937,-332.5 937,-313.5 777,-313.5"/>
<text text-anchor="middle" x="857" y="-320.5" font-family="Helvetica,sans-Serif" font-size="10.00">xalanc/Include/STLHelper.hpp</text>
</a>
</g>
</g>
<!-- Node1&#45;&gt;Node21 -->
<g id="edge41" class="edge">
<title>Node1&#45;&gt;Node21</title>
<path fill="none" stroke="midnightblue" d="M696.93,-503.42C716.58,-494.89 740.13,-482.62 758,-467 800.29,-430.02 833.41,-371.25 848.34,-341.91"/>
<polygon fill="midnightblue" stroke="midnightblue" points="851.53,-343.35 852.85,-332.84 845.26,-340.23 851.53,-343.35"/>
</g>
<!-- Node22 -->
<g id="node22" class="node">
<title>Node22</title>
<g id="a_node22"><a xlink:href="XalanDOMString_8hpp.html" target="_top" xlink:title=" ">
<polygon fill="none" stroke="black" points="423,-375 423,-394 631,-394 631,-375 423,-375"/>
<text text-anchor="middle" x="527" y="-382" font-family="Helvetica,sans-Serif" font-size="10.00">xalanc/XalanDOM/XalanDOMString.hpp</text>
</a>
</g>
</g>
<!-- Node1&#45;&gt;Node22 -->
<g id="edge46" class="edge">
<title>Node1&#45;&gt;Node22</title>
<path fill="none" stroke="midnightblue" d="M649.39,-503.35C637.48,-486.36 616.05,-457.46 594,-436 580.04,-422.42 562.39,-409.25 548.7,-399.76"/>
<polygon fill="midnightblue" stroke="midnightblue" points="550.6,-396.82 540.36,-394.1 546.67,-402.61 550.6,-396.82"/>
</g>
<!-- Node25 -->
<g id="node25" class="node">
<title>Node25</title>
<g id="a_node25"><a xlink:href="FormatterListener_8hpp.html" target="_top" xlink:title=" ">
<polygon fill="none" stroke="black" points="453.5,-436.5 453.5,-466.5 584.5,-466.5 584.5,-436.5 453.5,-436.5"/>
<text text-anchor="start" x="461.5" y="-454.5" font-family="Helvetica,sans-Serif" font-size="10.00">xalanc/PlatformSupport</text>
<text text-anchor="middle" x="519" y="-443.5" font-family="Helvetica,sans-Serif" font-size="10.00">/FormatterListener.hpp</text>
</a>
</g>
</g>
<!-- Node1&#45;&gt;Node25 -->
<g id="edge55" class="edge">
<title>Node1&#45;&gt;Node25</title>
<path fill="none" stroke="midnightblue" d="M628.62,-503.4C608.07,-493.86 580.74,-481.16 558.5,-470.84"/>
<polygon fill="midnightblue" stroke="midnightblue" points="559.86,-467.61 549.32,-466.58 556.91,-473.96 559.86,-467.61"/>
</g>
<!-- Node27 -->
<g id="node27" class="node">
<title>Node27</title>
<g id="a_node27"><a xlink:href="XalanUnicode_8hpp.html" target="_top" xlink:title=" ">
<polygon fill="none" stroke="black" points="295.5,-436.5 295.5,-466.5 426.5,-466.5 426.5,-436.5 295.5,-436.5"/>
<text text-anchor="start" x="303.5" y="-454.5" font-family="Helvetica,sans-Serif" font-size="10.00">xalanc/PlatformSupport</text>
<text text-anchor="middle" x="361" y="-443.5" font-family="Helvetica,sans-Serif" font-size="10.00">/XalanUnicode.hpp</text>
</a>
</g>
</g>
<!-- Node1&#45;&gt;Node27 -->
<g id="edge59" class="edge">
<title>Node1&#45;&gt;Node27</title>
<path fill="none" stroke="midnightblue" d="M594.71,-503.48C547.88,-493.26 484.35,-479.41 435.35,-468.72"/>
<polygon fill="midnightblue" stroke="midnightblue" points="435.95,-465.27 425.44,-466.55 434.46,-472.11 435.95,-465.27"/>
</g>
<!-- Node28 -->
<g id="node28" class="node">
<title>Node28</title>
<g id="a_node28"><a xlink:href="XalanXMLChar_8hpp.html" target="_top" xlink:title=" ">
<polygon fill="none" stroke="black" points="51.5,-436.5 51.5,-466.5 182.5,-466.5 182.5,-436.5 51.5,-436.5"/>
<text text-anchor="start" x="59.5" y="-454.5" font-family="Helvetica,sans-Serif" font-size="10.00">xalanc/PlatformSupport</text>
<text text-anchor="middle" x="117" y="-443.5" font-family="Helvetica,sans-Serif" font-size="10.00">/XalanXMLChar.hpp</text>
</a>
</g>
</g>
<!-- Node1&#45;&gt;Node28 -->
<g id="edge61" class="edge">
<title>Node1&#45;&gt;Node28</title>
<path fill="none" stroke="midnightblue" d="M593.46,-509.82C509.97,-500 361.24,-482.44 234,-467 220.59,-465.37 206.32,-463.62 192.53,-461.92"/>
<polygon fill="midnightblue" stroke="midnightblue" points="192.94,-458.44 182.59,-460.69 192.08,-465.39 192.94,-458.44"/>
</g>
<!-- Node3 -->
<g id="node3" class="node">
<title>Node3</title>
<g id="a_node3"><a xlink:href="PlatformDefinitions_8hpp.html" target="_top" xlink:title=" ">
<polygon fill="none" stroke="black" points="286,-73 286,-92 492,-92 492,-73 286,-73"/>
<text text-anchor="middle" x="389" y="-80" font-family="Helvetica,sans-Serif" font-size="10.00">xalanc/Include/PlatformDefinitions.hpp</text>
</a>
</g>
</g>
<!-- Node2&#45;&gt;Node3 -->
<g id="edge2" class="edge">
<title>Node2&#45;&gt;Node3</title>
<path fill="none" stroke="midnightblue" d="M119.65,-369.45C126.38,-347.89 138,-305.21 138,-268 138,-268 138,-268 138,-210 138,-163.49 277.17,-116.1 348.25,-94.94"/>
<polygon fill="midnightblue" stroke="midnightblue" points="349.62,-98.18 358.22,-92.01 347.64,-91.47 349.62,-98.18"/>
</g>
<!-- Node4 -->
<g id="node4" class="node">
<title>Node4</title>
<g id="a_node4"><a xlink:title=" ">
<polygon fill="none" stroke="#bfbfbf" points="168,-0.5 168,-30.5 288,-30.5 288,-0.5 168,-0.5"/>
<text text-anchor="start" x="176" y="-18.5" font-family="Helvetica,sans-Serif" font-size="10.00">xercesc/util/Xerces</text>
<text text-anchor="middle" x="228" y="-7.5" font-family="Helvetica,sans-Serif" font-size="10.00">_autoconf_config.hpp</text>
</a>
</g>
</g>
<!-- Node3&#45;&gt;Node4 -->
<g id="edge3" class="edge">
<title>Node3&#45;&gt;Node4</title>
<path fill="none" stroke="midnightblue" d="M367.62,-72.87C343.36,-63.07 303.12,-46.83 272.06,-34.29"/>
<polygon fill="midnightblue" stroke="midnightblue" points="273.33,-31.03 262.75,-30.53 270.71,-37.52 273.33,-31.03"/>
</g>
<!-- Node5 -->
<g id="node5" class="node">
<title>Node5</title>
<g id="a_node5"><a xlink:title=" ">
<polygon fill="none" stroke="#bfbfbf" points="306.5,-6 306.5,-25 471.5,-25 471.5,-6 306.5,-6"/>
<text text-anchor="middle" x="389" y="-13" font-family="Helvetica,sans-Serif" font-size="10.00">xercesc/util/XercesVersion.hpp</text>
</a>
</g>
</g>
<!-- Node3&#45;&gt;Node5 -->
<g id="edge4" class="edge">
<title>Node3&#45;&gt;Node5</title>
<path fill="none" stroke="midnightblue" d="M389,-72.73C389,-63.18 389,-47.62 389,-35.28"/>
<polygon fill="midnightblue" stroke="midnightblue" points="392.5,-35.13 389,-25.13 385.5,-35.13 392.5,-35.13"/>
</g>
<!-- Node6 -->
<g id="node6" class="node">
<title>Node6</title>
<g id="a_node6"><a xlink:href="XalanVersion_8hpp.html" target="_top" xlink:title=" ">
<polygon fill="none" stroke="black" points="489.5,-6 489.5,-25 664.5,-25 664.5,-6 489.5,-6"/>
<text text-anchor="middle" x="577" y="-13" font-family="Helvetica,sans-Serif" font-size="10.00">xalanc/Include/XalanVersion.hpp</text>
</a>
</g>
</g>
<!-- Node3&#45;&gt;Node6 -->
<g id="edge5" class="edge">
<title>Node3&#45;&gt;Node6</title>
<path fill="none" stroke="midnightblue" d="M413.96,-72.87C446.92,-61.47 505.12,-41.35 542.33,-28.49"/>
<polygon fill="midnightblue" stroke="midnightblue" points="543.92,-31.64 552.23,-25.06 541.64,-25.02 543.92,-31.64"/>
</g>
<!-- Node11&#45;&gt;Node3 -->
<g id="edge11" class="edge">
<title>Node11&#45;&gt;Node3</title>
<path fill="none" stroke="midnightblue" d="M597.75,-201.42C560.12,-195.05 515.62,-184.02 479,-165 462.41,-156.38 425.62,-120.59 404.57,-99.41"/>
<polygon fill="midnightblue" stroke="midnightblue" points="406.87,-96.76 397.35,-92.1 401.88,-101.67 406.87,-96.76"/>
</g>
<!-- Node11&#45;&gt;Node7 -->
<g id="edge13" class="edge">
<title>Node11&#45;&gt;Node7</title>
<path fill="none" stroke="midnightblue" d="M730.01,-201.48C802.4,-189.61 932.12,-168.35 998.84,-157.41"/>
<polygon fill="midnightblue" stroke="midnightblue" points="999.68,-160.82 1008.98,-155.75 998.55,-153.91 999.68,-160.82"/>
</g>
<!-- Node11&#45;&gt;Node8 -->
<g id="edge14" class="edge">
<title>Node11&#45;&gt;Node8</title>
<path fill="none" stroke="midnightblue" d="M593.36,-209.17C493.68,-206.68 335.53,-197.53 287,-165 265.01,-150.26 252.74,-121.03 246.75,-101.87"/>
<polygon fill="midnightblue" stroke="midnightblue" points="250.1,-100.84 243.99,-92.19 243.37,-102.76 250.1,-100.84"/>
</g>
<!-- Node12 -->
<g id="node12" class="node">
<title>Node12</title>
<g id="a_node12"><a xlink:title=" ">
<polygon fill="none" stroke="#bfbfbf" points="847.5,-73 847.5,-92 900.5,-92 900.5,-73 847.5,-73"/>
<text text-anchor="middle" x="874" y="-80" font-family="Helvetica,sans-Serif" font-size="10.00">cstddef</text>
</a>
</g>
</g>
<!-- Node11&#45;&gt;Node12 -->
<g id="edge12" class="edge">
<title>Node11&#45;&gt;Node12</title>
<path fill="none" stroke="midnightblue" d="M681.91,-201.4C689.42,-185.77 707.34,-152.64 732,-134 763.41,-110.25 806.96,-96.97 837.53,-90.06"/>
<polygon fill="midnightblue" stroke="midnightblue" points="838.31,-93.47 847.36,-87.96 836.84,-86.63 838.31,-93.47"/>
</g>
<!-- Node13 -->
<g id="node13" class="node">
<title>Node13</title>
<g id="a_node13"><a xlink:title=" ">
<polygon fill="none" stroke="#bfbfbf" points="681.5,-73 681.5,-92 718.5,-92 718.5,-73 681.5,-73"/>
<text text-anchor="middle" x="700" y="-80" font-family="Helvetica,sans-Serif" font-size="10.00">new</text>
</a>
</g>
</g>
<!-- Node11&#45;&gt;Node13 -->
<g id="edge15" class="edge">
<title>Node11&#45;&gt;Node13</title>
<path fill="none" stroke="midnightblue" d="M679.51,-201.31C683.04,-180.99 691.9,-130.05 696.73,-102.28"/>
<polygon fill="midnightblue" stroke="midnightblue" points="700.21,-102.71 698.48,-92.26 693.32,-101.51 700.21,-102.71"/>
</g>
<!-- Node14 -->
<g id="node14" class="node">
<title>Node14</title>
<g id="a_node14"><a xlink:title=" ">
<polygon fill="none" stroke="#bfbfbf" points="740.5,-140 740.5,-159 793.5,-159 793.5,-140 740.5,-140"/>
<text text-anchor="middle" x="767" y="-147" font-family="Helvetica,sans-Serif" font-size="10.00">iterator</text>
</a>
</g>
</g>
<!-- Node11&#45;&gt;Node14 -->
<g id="edge16" class="edge">
<title>Node11&#45;&gt;Node14</title>
<path fill="none" stroke="midnightblue" d="M690.75,-201.48C705.03,-191.93 728.4,-176.31 745.51,-164.87"/>
<polygon fill="midnightblue" stroke="midnightblue" points="747.9,-167.48 754.27,-159.01 744.01,-161.66 747.9,-167.48"/>
</g>
<!-- Node15 -->
<g id="node15" class="node">
<title>Node15</title>
<g id="a_node15"><a xlink:title=" ">
<polygon fill="none" stroke="#bfbfbf" points="811.5,-140 811.5,-159 876.5,-159 876.5,-140 811.5,-140"/>
<text text-anchor="middle" x="844" y="-147" font-family="Helvetica,sans-Serif" font-size="10.00">stdexcept</text>
</a>
</g>
</g>
<!-- Node11&#45;&gt;Node15 -->
<g id="edge17" class="edge">
<title>Node11&#45;&gt;Node15</title>
<path fill="none" stroke="midnightblue" d="M701.78,-201.48C730.38,-191.22 778.55,-173.96 810.8,-162.4"/>
<polygon fill="midnightblue" stroke="midnightblue" points="812.03,-165.68 820.26,-159.01 809.67,-159.09 812.03,-165.68"/>
</g>
<!-- Node11&#45;&gt;Node16 -->
<g id="edge18" class="edge">
<title>Node11&#45;&gt;Node16</title>
<path fill="none" stroke="midnightblue" d="M662.1,-201.48C646.5,-193.12 622.2,-180.09 602.07,-169.3"/>
<polygon fill="midnightblue" stroke="midnightblue" points="603.63,-166.16 593.16,-164.52 600.32,-172.33 603.63,-166.16"/>
</g>
<!-- Node16&#45;&gt;Node3 -->
<g id="edge19" class="edge">
<title>Node16&#45;&gt;Node3</title>
<path fill="none" stroke="midnightblue" d="M528.38,-134.4C496.59,-122.79 452.02,-106.51 421.91,-95.52"/>
<polygon fill="midnightblue" stroke="midnightblue" points="422.89,-92.15 412.3,-92.01 420.49,-98.72 422.89,-92.15"/>
</g>
<!-- Node16&#45;&gt;Node8 -->
<g id="edge20" class="edge">
<title>Node16&#45;&gt;Node8</title>
<path fill="none" stroke="midnightblue" d="M487.77,-139.5C428.87,-131.65 346.94,-118.31 277,-98 274.71,-97.33 272.36,-96.57 270.03,-95.74"/>
<polygon fill="midnightblue" stroke="midnightblue" points="271.21,-92.44 260.62,-92.1 268.68,-98.97 271.21,-92.44"/>
</g>
<!-- Node16&#45;&gt;Node12 -->
<g id="edge21" class="edge">
<title>Node16&#45;&gt;Node12</title>
<path fill="none" stroke="midnightblue" d="M633.24,-134.48C695.74,-121.24 787.14,-101.89 837.44,-91.24"/>
<polygon fill="midnightblue" stroke="midnightblue" points="838.17,-94.66 847.23,-89.17 836.72,-87.82 838.17,-94.66"/>
</g>
<!-- Node16&#45;&gt;Node13 -->
<g id="edge22" class="edge">
<title>Node16&#45;&gt;Node13</title>
<path fill="none" stroke="midnightblue" d="M597.81,-134.3C619.06,-124.39 647.9,-110.71 673,-98 673.81,-97.59 674.63,-97.17 675.46,-96.74"/>
<polygon fill="midnightblue" stroke="midnightblue" points="677.14,-99.81 684.36,-92.06 673.88,-93.62 677.14,-99.81"/>
</g>
<!-- Node17 -->
<g id="node17" class="node">
<title>Node17</title>
<g id="a_node17"><a xlink:title=" ">
<polygon fill="none" stroke="#bfbfbf" points="510.5,-67.5 510.5,-97.5 663.5,-97.5 663.5,-67.5 510.5,-67.5"/>
<text text-anchor="start" x="518.5" y="-85.5" font-family="Helvetica,sans-Serif" font-size="10.00">xercesc/framework/Memory</text>
<text text-anchor="middle" x="587" y="-74.5" font-family="Helvetica,sans-Serif" font-size="10.00">Manager.hpp</text>
</a>
</g>
</g>
<!-- Node16&#45;&gt;Node17 -->
<g id="edge23" class="edge">
<title>Node16&#45;&gt;Node17</title>
<path fill="none" stroke="midnightblue" d="M571.34,-134.4C573.78,-126.47 576.88,-116.38 579.69,-107.27"/>
<polygon fill="midnightblue" stroke="midnightblue" points="583.07,-108.16 582.67,-97.58 576.38,-106.1 583.07,-108.16"/>
</g>
<!-- Node18&#45;&gt;Node3 -->
<g id="edge25" class="edge">
<title>Node18&#45;&gt;Node3</title>
<path fill="none" stroke="midnightblue" d="M781.66,-257.47C726.29,-250.36 650.3,-238.53 585,-221 517.08,-202.77 490.78,-210.31 437,-165 416.84,-148.02 403.09,-120.3 395.64,-101.97"/>
<polygon fill="midnightblue" stroke="midnightblue" points="398.83,-100.51 391.98,-92.43 392.29,-103.02 398.83,-100.51"/>
</g>
<!-- Node18&#45;&gt;Node7 -->
<g id="edge27" class="edge">
<title>Node18&#45;&gt;Node7</title>
<path fill="none" stroke="midnightblue" d="M931.77,-257.43C958.91,-251.1 988.36,-240.1 1010,-221 1025.31,-207.49 1033.39,-185 1037.41,-169.06"/>
<polygon fill="midnightblue" stroke="midnightblue" points="1040.84,-169.78 1039.59,-159.26 1034,-168.26 1040.84,-169.78"/>
</g>
<!-- Node18&#45;&gt;Node9 -->
<g id="edge28" class="edge">
<title>Node18&#45;&gt;Node9</title>
<path fill="none" stroke="midnightblue" d="M907.65,-257.44C967.01,-247 1066.47,-229.51 1123.1,-219.55"/>
<polygon fill="midnightblue" stroke="midnightblue" points="1123.92,-222.96 1133.16,-217.78 1122.7,-216.06 1123.92,-222.96"/>
</g>
<!-- Node18&#45;&gt;Node11 -->
<g id="edge30" class="edge">
<title>Node18&#45;&gt;Node11</title>
<path fill="none" stroke="midnightblue" d="M830.32,-257.44C799.47,-248.24 750.27,-233.56 716.17,-223.39"/>
<polygon fill="midnightblue" stroke="midnightblue" points="717.13,-220.02 706.55,-220.52 715.13,-226.73 717.13,-220.02"/>
</g>
<!-- Node18&#45;&gt;Node12 -->
<g id="edge26" class="edge">
<title>Node18&#45;&gt;Node12</title>
<path fill="none" stroke="midnightblue" d="M938.17,-257.47C993.05,-246.55 1060.06,-221.68 1082,-165 1108.98,-95.31 977.5,-84.35 910.82,-83.2"/>
<polygon fill="midnightblue" stroke="midnightblue" points="910.75,-79.7 900.71,-83.09 910.67,-86.7 910.75,-79.7"/>
</g>
<!-- Node19 -->
<g id="node19" class="node">
<title>Node19</title>
<g id="a_node19"><a xlink:title=" ">
<polygon fill="none" stroke="#bfbfbf" points="955.5,-201.5 955.5,-220.5 1000.5,-220.5 1000.5,-201.5 955.5,-201.5"/>
<text text-anchor="middle" x="978" y="-208.5" font-family="Helvetica,sans-Serif" font-size="10.00">utility</text>
</a>
</g>
</g>
<!-- Node18&#45;&gt;Node19 -->
<g id="edge29" class="edge">
<title>Node18&#45;&gt;Node19</title>
<path fill="none" stroke="midnightblue" d="M877.86,-257.44C897.27,-248.64 927.73,-234.81 949.96,-224.72"/>
<polygon fill="midnightblue" stroke="midnightblue" points="951.57,-227.84 959.23,-220.52 948.68,-221.46 951.57,-227.84"/>
</g>
<!-- Node20 -->
<g id="node20" class="node">
<title>Node20</title>
<g id="a_node20"><a xlink:href="XalanList_8hpp.html" target="_top" xlink:title=" ">
<polygon fill="none" stroke="black" points="781,-201.5 781,-220.5 937,-220.5 937,-201.5 781,-201.5"/>
<text text-anchor="middle" x="859" y="-208.5" font-family="Helvetica,sans-Serif" font-size="10.00">xalanc/Include/XalanList.hpp</text>
</a>
</g>
</g>
<!-- Node18&#45;&gt;Node20 -->
<g id="edge31" class="edge">
<title>Node18&#45;&gt;Node20</title>
<path fill="none" stroke="midnightblue" d="M859,-257.08C859,-250.01 859,-239.86 859,-230.99"/>
<polygon fill="midnightblue" stroke="midnightblue" points="862.5,-230.75 859,-220.75 855.5,-230.75 862.5,-230.75"/>
</g>
<!-- Node20&#45;&gt;Node3 -->
<g id="edge32" class="edge">
<title>Node20&#45;&gt;Node3</title>
<path fill="none" stroke="midnightblue" d="M867.03,-201.37C880.36,-186.01 903.91,-153.67 886,-134 857.15,-102.32 544.59,-102.73 502,-98 489.15,-96.57 475.5,-94.93 462.3,-93.28"/>
<polygon fill="midnightblue" stroke="midnightblue" points="462.67,-89.79 452.31,-92.01 461.79,-96.74 462.67,-89.79"/>
</g>
<!-- Node20&#45;&gt;Node7 -->
<g id="edge34" class="edge">
<title>Node20&#45;&gt;Node7</title>
<path fill="none" stroke="midnightblue" d="M885.08,-201.48C916.57,-191.18 969.7,-173.81 1005.06,-162.25"/>
<polygon fill="midnightblue" stroke="midnightblue" points="1006.55,-165.44 1014.97,-159.01 1004.38,-158.79 1006.55,-165.44"/>
</g>
<!-- Node20&#45;&gt;Node8 -->
<g id="edge35" class="edge">
<title>Node20&#45;&gt;Node8</title>
<path fill="none" stroke="midnightblue" d="M780.97,-201.61C678.37,-190.45 507.69,-171.39 479,-165 402.01,-147.86 315.21,-114.12 271.1,-95.89"/>
<polygon fill="midnightblue" stroke="midnightblue" points="272.43,-92.65 261.85,-92.04 269.73,-99.11 272.43,-92.65"/>
</g>
<!-- Node20&#45;&gt;Node12 -->
<g id="edge33" class="edge">
<title>Node20&#45;&gt;Node12</title>
<path fill="none" stroke="midnightblue" d="M902.07,-201.49C922.4,-195.07 944.82,-183.99 957,-165 964.44,-153.4 963.75,-146.01 957,-134 946.89,-116.01 927.48,-103.68 909.98,-95.71"/>
<polygon fill="midnightblue" stroke="midnightblue" points="911.1,-92.38 900.52,-91.72 908.38,-98.83 911.1,-92.38"/>
</g>
<!-- Node20&#45;&gt;Node13 -->
<g id="edge36" class="edge">
<title>Node20&#45;&gt;Node13</title>
<path fill="none" stroke="midnightblue" d="M878.3,-201.48C892.43,-194.08 910.56,-181.89 919,-165 925.16,-152.68 927.58,-144.78 919,-134 895.53,-104.51 782.77,-90.77 728.84,-85.8"/>
<polygon fill="midnightblue" stroke="midnightblue" points="728.85,-82.29 718.58,-84.9 728.24,-89.26 728.85,-82.29"/>
</g>
<!-- Node20&#45;&gt;Node14 -->
<g id="edge37" class="edge">
<title>Node20&#45;&gt;Node14</title>
<path fill="none" stroke="midnightblue" d="M845.82,-201.48C830.93,-191.84 806.46,-176.02 788.73,-164.55"/>
<polygon fill="midnightblue" stroke="midnightblue" points="790.45,-161.5 780.16,-159.01 786.65,-167.38 790.45,-161.5"/>
</g>
<!-- Node20&#45;&gt;Node15 -->
<g id="edge38" class="edge">
<title>Node20&#45;&gt;Node15</title>
<path fill="none" stroke="midnightblue" d="M856.85,-201.48C854.71,-192.99 851.36,-179.7 848.62,-168.82"/>
<polygon fill="midnightblue" stroke="midnightblue" points="851.98,-167.85 846.15,-159.01 845.2,-169.56 851.98,-167.85"/>
</g>
<!-- Node20&#45;&gt;Node16 -->
<g id="edge39" class="edge">
<title>Node20&#45;&gt;Node16</title>
<path fill="none" stroke="midnightblue" d="M817.16,-201.48C772.63,-192.4 701.11,-177.83 645.92,-166.58"/>
<polygon fill="midnightblue" stroke="midnightblue" points="646.32,-163.09 635.82,-164.52 644.92,-169.95 646.32,-163.09"/>
</g>
<!-- Node21&#45;&gt;Node3 -->
<g id="edge42" class="edge">
<title>Node21&#45;&gt;Node3</title>
<path fill="none" stroke="midnightblue" d="M810.19,-313.49C739.87,-299.7 603.72,-269.07 496,-221 453.67,-202.11 434.81,-202.82 408,-165 394.84,-146.43 390.67,-120.06 389.42,-102.4"/>
<polygon fill="midnightblue" stroke="midnightblue" points="392.9,-102.04 388.95,-92.22 385.91,-102.37 392.9,-102.04"/>
</g>
<!-- Node21&#45;&gt;Node7 -->
<g id="edge43" class="edge">
<title>Node21&#45;&gt;Node7</title>
<path fill="none" stroke="midnightblue" d="M889.2,-313.41C929.97,-300.67 998.76,-272.52 1031,-221 1040.72,-205.47 1042.54,-184.29 1042.34,-169.21"/>
<polygon fill="midnightblue" stroke="midnightblue" points="1045.83,-168.9 1041.9,-159.06 1038.84,-169.2 1045.83,-168.9"/>
</g>
<!-- Node21&#45;&gt;Node9 -->
<g id="edge44" class="edge">
<title>Node21&#45;&gt;Node9</title>
<path fill="none" stroke="midnightblue" d="M937.17,-314.91C1002.74,-307.9 1089.28,-295.52 1119,-277 1136.86,-265.87 1150.01,-245.23 1157.79,-230.18"/>
<polygon fill="midnightblue" stroke="midnightblue" points="1161.1,-231.37 1162.31,-220.85 1154.8,-228.32 1161.1,-231.37"/>
</g>
<!-- Node21&#45;&gt;Node18 -->
<g id="edge45" class="edge">
<title>Node21&#45;&gt;Node18</title>
<path fill="none" stroke="midnightblue" d="M857.33,-313.08C857.59,-306.01 857.97,-295.86 858.3,-286.99"/>
<polygon fill="midnightblue" stroke="midnightblue" points="861.8,-286.87 858.68,-276.75 854.81,-286.61 861.8,-286.87"/>
</g>
<!-- Node22&#45;&gt;Node8 -->
<g id="edge49" class="edge">
<title>Node22&#45;&gt;Node8</title>
<path fill="none" stroke="midnightblue" d="M465.44,-374.99C379,-362.81 231.12,-340.97 222,-333 199.24,-313.11 202,-298.23 202,-268 202,-268 202,-268 202,-210 202,-169.49 220.88,-124.94 232.7,-101.01"/>
<polygon fill="midnightblue" stroke="midnightblue" points="235.82,-102.59 237.25,-92.1 229.59,-99.41 235.82,-102.59"/>
</g>
<!-- Node22&#45;&gt;Node11 -->
<g id="edge52" class="edge">
<title>Node22&#45;&gt;Node11</title>
<path fill="none" stroke="midnightblue" d="M534.7,-374.76C558.73,-347.46 632.66,-263.5 663.86,-228.05"/>
<polygon fill="midnightblue" stroke="midnightblue" points="666.52,-230.34 670.5,-220.52 661.26,-225.71 666.52,-230.34"/>
</g>
<!-- Node22&#45;&gt;Node16 -->
<g id="edge51" class="edge">
<title>Node22&#45;&gt;Node16</title>
<path fill="none" stroke="midnightblue" d="M523.63,-374.67C513.8,-347.43 487.48,-262.9 514,-201 519.01,-189.32 528.19,-179.06 537.52,-170.89"/>
<polygon fill="midnightblue" stroke="midnightblue" points="539.77,-173.57 545.3,-164.53 535.34,-168.15 539.77,-173.57"/>
</g>
<!-- Node22&#45;&gt;Node21 -->
<g id="edge50" class="edge">
<title>Node22&#45;&gt;Node21</title>
<path fill="none" stroke="midnightblue" d="M574.28,-374.98C633.83,-364.24 736.06,-345.81 799.9,-334.29"/>
<polygon fill="midnightblue" stroke="midnightblue" points="800.59,-337.73 809.81,-332.51 799.34,-330.84 800.59,-337.73"/>
</g>
<!-- Node23 -->
<g id="node23" class="node">
<title>Node23</title>
<g id="a_node23"><a xlink:href="XalanDOMDefinitions_8hpp.html" target="_top" xlink:title=" ">
<polygon fill="none" stroke="black" points="230,-257.5 230,-276.5 462,-276.5 462,-257.5 230,-257.5"/>
<text text-anchor="middle" x="346" y="-264.5" font-family="Helvetica,sans-Serif" font-size="10.00">xalanc/XalanDOM/XalanDOMDefinitions.hpp</text>
</a>
</g>
</g>
<!-- Node22&#45;&gt;Node23 -->
<g id="edge47" class="edge">
<title>Node22&#45;&gt;Node23</title>
<path fill="none" stroke="midnightblue" d="M521.79,-374.89C512.51,-360.23 491.75,-330.33 467,-313 444.83,-297.48 416.66,-286.59 393.07,-279.41"/>
<polygon fill="midnightblue" stroke="midnightblue" points="393.86,-275.99 383.28,-276.56 391.9,-282.72 393.86,-275.99"/>
</g>
<!-- Node24 -->
<g id="node24" class="node">
<title>Node24</title>
<g id="a_node24"><a xlink:href="XalanDOMException_8hpp.html" target="_top" xlink:title=" ">
<polygon fill="none" stroke="black" points="230.5,-313.5 230.5,-332.5 457.5,-332.5 457.5,-313.5 230.5,-313.5"/>
<text text-anchor="middle" x="344" y="-320.5" font-family="Helvetica,sans-Serif" font-size="10.00">xalanc/XalanDOM/XalanDOMException.hpp</text>
</a>
</g>
</g>
<!-- Node22&#45;&gt;Node24 -->
<g id="edge53" class="edge">
<title>Node22&#45;&gt;Node24</title>
<path fill="none" stroke="midnightblue" d="M500.78,-374.98C468.98,-364.64 415.23,-347.16 379.68,-335.6"/>
<polygon fill="midnightblue" stroke="midnightblue" points="380.76,-332.27 370.17,-332.51 378.6,-338.93 380.76,-332.27"/>
</g>
<!-- Node23&#45;&gt;Node3 -->
<g id="edge48" class="edge">
<title>Node23&#45;&gt;Node3</title>
<path fill="none" stroke="midnightblue" d="M347.04,-257.23C349.69,-235.87 357.39,-179.57 370,-134 373.01,-123.11 377.4,-111.27 381.21,-101.8"/>
<polygon fill="midnightblue" stroke="midnightblue" points="384.55,-102.86 385.14,-92.28 378.09,-100.18 384.55,-102.86"/>
</g>
<!-- Node24&#45;&gt;Node23 -->
<g id="edge54" class="edge">
<title>Node24&#45;&gt;Node23</title>
<path fill="none" stroke="midnightblue" d="M344.33,-313.08C344.59,-306.01 344.97,-295.86 345.3,-286.99"/>
<polygon fill="midnightblue" stroke="midnightblue" points="348.8,-286.87 345.68,-276.75 341.81,-286.61 348.8,-286.87"/>
</g>
<!-- Node25&#45;&gt;Node2 -->
<g id="edge56" class="edge">
<title>Node25&#45;&gt;Node2</title>
<path fill="none" stroke="midnightblue" d="M453.32,-438.92C447.47,-437.92 441.63,-436.93 436,-436 360.72,-423.5 275.38,-410.11 211.62,-400.26"/>
<polygon fill="midnightblue" stroke="midnightblue" points="211.99,-396.78 201.58,-398.71 210.93,-403.7 211.99,-396.78"/>
</g>
<!-- Node25&#45;&gt;Node22 -->
<g id="edge58" class="edge">
<title>Node25&#45;&gt;Node22</title>
<path fill="none" stroke="midnightblue" d="M520.74,-436.4C521.9,-426.96 523.44,-414.45 524.7,-404.19"/>
<polygon fill="midnightblue" stroke="midnightblue" points="528.18,-404.55 525.93,-394.19 521.23,-403.69 528.18,-404.55"/>
</g>
<!-- Node26 -->
<g id="node26" class="node">
<title>Node26</title>
<g id="a_node26"><a xlink:title=" ">
<polygon fill="none" stroke="#bfbfbf" points="219.5,-375 219.5,-394 404.5,-394 404.5,-375 219.5,-375"/>
<text text-anchor="middle" x="312" y="-382" font-family="Helvetica,sans-Serif" font-size="10.00">xercesc/sax/DocumentHandler.hpp</text>
</a>
</g>
</g>
<!-- Node25&#45;&gt;Node26 -->
<g id="edge57" class="edge">
<title>Node25&#45;&gt;Node26</title>
<path fill="none" stroke="midnightblue" d="M474.34,-436.48C436.91,-424.72 384.11,-408.14 349.01,-397.12"/>
<polygon fill="midnightblue" stroke="midnightblue" points="349.75,-393.69 339.16,-394.03 347.65,-400.36 349.75,-393.69"/>
</g>
<!-- Node27&#45;&gt;Node2 -->
<g id="edge60" class="edge">
<title>Node27&#45;&gt;Node2</title>
<path fill="none" stroke="midnightblue" d="M307.92,-436.48C269.82,-426.41 218.32,-412.8 178.11,-402.17"/>
<polygon fill="midnightblue" stroke="midnightblue" points="178.97,-398.78 168.4,-399.61 177.18,-405.55 178.97,-398.78"/>
</g>
<!-- Node28&#45;&gt;Node2 -->
<g id="edge62" class="edge">
<title>Node28&#45;&gt;Node2</title>
<path fill="none" stroke="midnightblue" d="M116.57,-436.4C116.33,-428.64 116.02,-418.81 115.75,-409.86"/>
<polygon fill="midnightblue" stroke="midnightblue" points="119.24,-409.46 115.43,-399.58 112.24,-409.68 119.24,-409.46"/>
</g>
</g>
</svg>
        <g id="navigator" transform="translate(0 0)" fill="#404254">
                <rect fill="#f2f5e9" fill-opacity="0.5" stroke="#606060" stroke-width=".5" x="0" y="0" width="60" height="60"/>
                <use id="zoomplus" xlink:href="#zoomPlus" x="17" y="9" onmousedown="handleZoom(evt,'in')"/>
                <use id="zoomminus" xlink:href="#zoomMin" x="42" y="9" onmousedown="handleZoom(evt,'out')"/>
                <use id="reset" xlink:href="#resetDef" x="30" y="36" onmousedown="handleReset()"/>
                <g id="arrowUp" xlink:href="#dirArrow" transform="translate(30 24)" onmousedown="handlePan(0,-1)">
                  <use xlink:href="#rim" fill="#404040">
                        <set attributeName="fill" to="#808080" begin="arrowUp.mouseover" end="arrowUp.mouseout"/>
                  </use>
                  <path fill="none" stroke="white" stroke-width="1.5" d="M0,-3.0v7 M-2.5,-0.5L0,-3.0L2.5,-0.5"/>
                </g>
                <g id="arrowRight" xlink:href="#dirArrow" transform="rotate(90) translate(36 -43)" onmousedown="handlePan(1,0)">
                  <use xlink:href="#rim" fill="#404040">
                        <set attributeName="fill" to="#808080" begin="arrowRight.mouseover" end="arrowRight.mouseout"/>
                  </use>
                  <path fill="none" stroke="white" stroke-width="1.5" d="M0,-3.0v7 M-2.5,-0.5L0,-3.0L2.5,-0.5"/>
                </g>
                <g id="arrowDown" xlink:href="#dirArrow" transform="rotate(180) translate(-30 -48)" onmousedown="handlePan(0,1)">
                  <use xlink:href="#rim" fill="#404040">
                        <set attributeName="fill" to="#808080" begin="arrowDown.mouseover" end="arrowDown.mouseout"/>
                  </use>
                  <path fill="none" stroke="white" stroke-width="1.5" d="M0,-3.0v7 M-2.5,-0.5L0,-3.0L2.5,-0.5"/>
                </g>
                <g id="arrowLeft" xlink:href="#dirArrow" transform="rotate(270) translate(-36 17)" onmousedown="handlePan(-1,0)">
                  <use xlink:href="#rim" fill="#404040">
                        <set attributeName="fill" to="#808080" begin="arrowLeft.mouseover" end="arrowLeft.mouseout"/>
                  </use>
                  <path fill="none" stroke="white" stroke-width="1.5" d="M0,-3.0v7 M-2.5,-0.5L0,-3.0L2.5,-0.5"/>
                </g>
        </g>
        <svg viewBox="0 0 15 15" width="100%" height="30px" preserveAspectRatio="xMaxYMin meet">
         <g id="arrow_out" transform="scale(0.3 0.3)">
          <a xlink:href="DOMStringHelper_8hpp__incl_org.svg" target="_base">
           <rect id="button" ry="5" rx="5" y="6" x="6" height="38" width="38"
                fill="#f2f5e9" fill-opacity="0.5" stroke="#606060" stroke-width="1.0"/>
           <path id="arrow"
             d="M 11.500037,31.436501 C 11.940474,20.09759 22.043105,11.32322 32.158766,21.979434 L 37.068811,17.246167 C 37.068811,17.246167 37.088388,32 37.088388,32 L 22.160133,31.978069 C 22.160133,31.978069 26.997745,27.140456 26.997745,27.140456 C 18.528582,18.264221 13.291696,25.230495 11.500037,31.436501 z"
             style="fill:#404040;"/>
          </a>
         </g>
        </svg>
</svg>
