<?xml version="1.0" encoding="UTF-8" standalone="no"?>
<!DOCTYPE svg PUBLIC "-//W3C//DTD SVG 1.1//EN"
 "http://www.w3.org/Graphics/SVG/1.1/DTD/svg11.dtd">
<!-- Generated by graphviz version 2.38.0 (20140413.2041)
 -->
<!-- Title: xalanc/DOMSupport/DOMSupportInit.hpp Pages: 1 -->
<svg width="372pt" height="229pt"
 viewBox="0.00 0.00 372.19 229.00" xmlns="http://www.w3.org/2000/svg" xmlns:xlink="http://www.w3.org/1999/xlink">
<g id="graph0" class="graph" transform="scale(1 1) rotate(0) translate(4 225)">
<title>xalanc/DOMSupport/DOMSupportInit.hpp</title>
<!-- Node1 -->
<g id="node1" class="node"><title>Node1</title>
<g id="a_node1"><a xlink:title=" ">
<polygon fill="#bfbfbf" stroke="black" points="67.1861,-190.5 67.1861,-220.5 231.186,-220.5 231.186,-190.5 67.1861,-190.5"/>
<text text-anchor="start" x="75.1861" y="-208.5" font-family="Helvetica,sans-Serif" font-size="10.00">xalanc/DOMSupport/DOMSupport</text>
<text text-anchor="middle" x="149.186" y="-197.5" font-family="Helvetica,sans-Serif" font-size="10.00">Init.hpp</text>
</a>
</g>
</g>
<!-- Node2 -->
<g id="node2" class="node"><title>Node2</title>
<g id="a_node2"><a xlink:href="XalanSourceTreeInit_8hpp.html" target="_top" xlink:title=" ">
<polygon fill="none" stroke="black" points="132.186,-56.5 132.186,-86.5 256.186,-86.5 256.186,-56.5 132.186,-56.5"/>
<text text-anchor="start" x="140.186" y="-74.5" font-family="Helvetica,sans-Serif" font-size="10.00">xalanc/XalanSourceTree</text>
<text text-anchor="middle" x="194.186" y="-63.5" font-family="Helvetica,sans-Serif" font-size="10.00">/XalanSourceTreeInit.hpp</text>
</a>
</g>
</g>
<!-- Node1&#45;&gt;Node2 -->
<g id="edge1" class="edge"><title>Node1&#45;&gt;Node2</title>
<path fill="none" stroke="midnightblue" d="M167.324,-182.337C173.307,-173.931 179.394,-163.972 183.186,-154 191.762,-131.446 193.809,-103.152 194.21,-86.5261"/>
<polygon fill="midnightblue" stroke="midnightblue" points="164.424,-180.37 161.227,-190.471 170.025,-184.568 164.424,-180.37"/>
</g>
<!-- Node3 -->
<g id="node3" class="node"><title>Node3</title>
<g id="a_node3"><a xlink:href="XSLTInit_8hpp.html" target="_top" xlink:title=" ">
<polygon fill="none" stroke="black" points="82.1861,-0.5 82.1861,-19.5 210.186,-19.5 210.186,-0.5 82.1861,-0.5"/>
<text text-anchor="middle" x="146.186" y="-7.5" font-family="Helvetica,sans-Serif" font-size="10.00">xalanc/XSLT/XSLTInit.hpp</text>
</a>
</g>
</g>
<!-- Node1&#45;&gt;Node3 -->
<g id="edge9" class="edge"><title>Node1&#45;&gt;Node3</title>
<path fill="none" stroke="midnightblue" d="M57.256,-189.207C38.4152,-181.702 20.8106,-170.551 9.18607,-154 -30.9282,-96.886 78.7218,-40.4329 125.843,-19.5058"/>
<polygon fill="midnightblue" stroke="midnightblue" points="56.2944,-192.582 66.8885,-192.708 58.6854,-186.003 56.2944,-192.582"/>
</g>
<!-- Node4 -->
<g id="node4" class="node"><title>Node4</title>
<g id="a_node4"><a xlink:href="XMLSupportInit_8hpp.html" target="_top" xlink:title=" ">
<polygon fill="none" stroke="black" points="18.1861,-123.5 18.1861,-153.5 174.186,-153.5 174.186,-123.5 18.1861,-123.5"/>
<text text-anchor="start" x="26.1861" y="-141.5" font-family="Helvetica,sans-Serif" font-size="10.00">xalanc/XMLSupport/XMLSupport</text>
<text text-anchor="middle" x="96.1861" y="-130.5" font-family="Helvetica,sans-Serif" font-size="10.00">Init.hpp</text>
</a>
</g>
</g>
<!-- Node1&#45;&gt;Node4 -->
<g id="edge3" class="edge"><title>Node1&#45;&gt;Node4</title>
<path fill="none" stroke="midnightblue" d="M131.205,-182.447C123.419,-172.899 114.535,-162.004 107.664,-153.577"/>
<polygon fill="midnightblue" stroke="midnightblue" points="128.654,-184.858 137.686,-190.396 134.079,-180.434 128.654,-184.858"/>
</g>
<!-- Node5 -->
<g id="node5" class="node"><title>Node5</title>
<g id="a_node5"><a xlink:href="XPathInit_8hpp.html" target="_top" xlink:title=" ">
<polygon fill="none" stroke="black" points="230.186,-129 230.186,-148 364.186,-148 364.186,-129 230.186,-129"/>
<text text-anchor="middle" x="297.186" y="-136" font-family="Helvetica,sans-Serif" font-size="10.00">xalanc/XPath/XPathInit.hpp</text>
</a>
</g>
</g>
<!-- Node1&#45;&gt;Node5 -->
<g id="edge6" class="edge"><title>Node1&#45;&gt;Node5</title>
<path fill="none" stroke="midnightblue" d="M190.637,-186.295C219.178,-173.76 255.787,-157.682 277.816,-148.007"/>
<polygon fill="midnightblue" stroke="midnightblue" points="189.048,-183.17 181.3,-190.396 191.863,-189.579 189.048,-183.17"/>
</g>
<!-- Node2&#45;&gt;Node3 -->
<g id="edge2" class="edge"><title>Node2&#45;&gt;Node3</title>
<path fill="none" stroke="midnightblue" d="M176.361,-48.4043C168.299,-38.411 159.24,-27.1815 153.17,-19.6578"/>
<polygon fill="midnightblue" stroke="midnightblue" points="173.808,-50.8138 182.811,-56.3993 179.256,-46.4186 173.808,-50.8138"/>
</g>
<!-- Node4&#45;&gt;Node2 -->
<g id="edge4" class="edge"><title>Node4&#45;&gt;Node2</title>
<path fill="none" stroke="midnightblue" d="M125.988,-117.734C141.152,-107.676 159.231,-95.6847 172.963,-86.5765"/>
<polygon fill="midnightblue" stroke="midnightblue" points="123.85,-114.952 117.451,-123.396 127.719,-120.785 123.85,-114.952"/>
</g>
<!-- Node4&#45;&gt;Node3 -->
<g id="edge5" class="edge"><title>Node4&#45;&gt;Node3</title>
<path fill="none" stroke="midnightblue" d="M103.068,-113.544C108.042,-97.1163 115.259,-74.9504 123.186,-56 128.604,-43.0494 136.234,-28.7089 141.194,-19.7747"/>
<polygon fill="midnightblue" stroke="midnightblue" points="99.6269,-112.837 100.138,-123.419 106.338,-114.828 99.6269,-112.837"/>
</g>
<!-- Node5&#45;&gt;Node2 -->
<g id="edge7" class="edge"><title>Node5&#45;&gt;Node2</title>
<path fill="none" stroke="midnightblue" d="M274.451,-123.153C257.214,-112.275 233.648,-97.4029 216.512,-86.589"/>
<polygon fill="midnightblue" stroke="midnightblue" points="272.97,-126.357 283.295,-128.734 276.706,-120.437 272.97,-126.357"/>
</g>
<!-- Node5&#45;&gt;Node3 -->
<g id="edge8" class="edge"><title>Node5&#45;&gt;Node3</title>
<path fill="none" stroke="midnightblue" d="M294.292,-118.579C290.563,-100.309 282.384,-72.9822 265.186,-56 246.012,-37.0663 218.087,-25.9587 194.106,-19.5181"/>
<polygon fill="midnightblue" stroke="midnightblue" points="290.88,-119.38 296.08,-128.611 297.771,-118.152 290.88,-119.38"/>
</g>
</g>
</svg>
