<?xml version="1.0" encoding="UTF-8" standalone="no"?>
<!DOCTYPE svg PUBLIC "-//W3C//DTD SVG 1.1//EN"
 "http://www.w3.org/Graphics/SVG/1.1/DTD/svg11.dtd">
<!-- Generated by graphviz version 2.38.0 (20140413.2041)
 -->
<!-- Title: xalanc/DOMSupport/DOMSupportException.hpp Pages: 1 -->
<svg width="1515pt" height="676pt"
 viewBox="0.00 0.00 1515.00 676.00" xmlns="http://www.w3.org/2000/svg" xmlns:xlink="http://www.w3.org/1999/xlink">
<g id="graph0" class="graph" transform="scale(1 1) rotate(0) translate(4 672)">
<title>xalanc/DOMSupport/DOMSupportException.hpp</title>
<!-- Node1 -->
<g id="node1" class="node"><title>Node1</title>
<g id="a_node1"><a xlink:title=" ">
<polygon fill="#bfbfbf" stroke="black" points="79,-637.5 79,-667.5 243,-667.5 243,-637.5 79,-637.5"/>
<text text-anchor="start" x="87" y="-655.5" font-family="Helvetica,sans-Serif" font-size="10.00">xalanc/DOMSupport/DOMSupport</text>
<text text-anchor="middle" x="161" y="-644.5" font-family="Helvetica,sans-Serif" font-size="10.00">Exception.hpp</text>
</a>
</g>
</g>
<!-- Node2 -->
<g id="node2" class="node"><title>Node2</title>
<g id="a_node2"><a xlink:href="DOMSupportDefinitions_8hpp.html" target="_top" xlink:title=" ">
<polygon fill="none" stroke="black" points="0,-570.5 0,-600.5 164,-600.5 164,-570.5 0,-570.5"/>
<text text-anchor="start" x="8" y="-588.5" font-family="Helvetica,sans-Serif" font-size="10.00">xalanc/DOMSupport/DOMSupport</text>
<text text-anchor="middle" x="82" y="-577.5" font-family="Helvetica,sans-Serif" font-size="10.00">Definitions.hpp</text>
</a>
</g>
</g>
<!-- Node1&#45;&gt;Node2 -->
<g id="edge1" class="edge"><title>Node1&#45;&gt;Node2</title>
<path fill="none" stroke="midnightblue" d="M143.858,-637.396C133.092,-628.538 119.021,-616.96 107.02,-607.086"/>
<polygon fill="midnightblue" stroke="midnightblue" points="109.054,-604.227 99.1084,-600.577 104.607,-609.633 109.054,-604.227"/>
</g>
<!-- Node7 -->
<g id="node7" class="node"><title>Node7</title>
<g id="a_node7"><a xlink:href="XSLException_8hpp.html" target="_top" xlink:title=" ">
<polygon fill="none" stroke="black" points="182,-570.5 182,-600.5 300,-600.5 300,-570.5 182,-570.5"/>
<text text-anchor="start" x="190" y="-588.5" font-family="Helvetica,sans-Serif" font-size="10.00">xalanc/PlatformSupport</text>
<text text-anchor="middle" x="241" y="-577.5" font-family="Helvetica,sans-Serif" font-size="10.00">/XSLException.hpp</text>
</a>
</g>
</g>
<!-- Node1&#45;&gt;Node7 -->
<g id="edge6" class="edge"><title>Node1&#45;&gt;Node7</title>
<path fill="none" stroke="midnightblue" d="M178.359,-637.396C189.261,-628.538 203.51,-616.96 215.663,-607.086"/>
<polygon fill="midnightblue" stroke="midnightblue" points="218.121,-609.599 223.675,-600.577 213.707,-604.166 218.121,-609.599"/>
</g>
<!-- Node3 -->
<g id="node3" class="node"><title>Node3</title>
<g id="a_node3"><a xlink:href="PlatformDefinitions_8hpp.html" target="_top" xlink:title=" ">
<polygon fill="none" stroke="black" points="566,-73 566,-92 748,-92 748,-73 566,-73"/>
<text text-anchor="middle" x="657" y="-80" font-family="Helvetica,sans-Serif" font-size="10.00">xalanc/Include/PlatformDefinitions.hpp</text>
</a>
</g>
</g>
<!-- Node2&#45;&gt;Node3 -->
<g id="edge2" class="edge"><title>Node2&#45;&gt;Node3</title>
<path fill="none" stroke="midnightblue" d="M82,-570.241C82,-546.034 82,-495.354 82,-452.5 82,-452.5 82,-452.5 82,-210 82,-114.138 390.693,-90.8405 555.717,-85.2352"/>
<polygon fill="midnightblue" stroke="midnightblue" points="556.008,-88.7277 565.89,-84.9059 555.781,-81.7314 556.008,-88.7277"/>
</g>
<!-- Node4 -->
<g id="node4" class="node"><title>Node4</title>
<g id="a_node4"><a xlink:title=" ">
<polygon fill="none" stroke="#bfbfbf" points="455,-0.5 455,-30.5 563,-30.5 563,-0.5 455,-0.5"/>
<text text-anchor="start" x="463" y="-18.5" font-family="Helvetica,sans-Serif" font-size="10.00">xercesc/util/Xerces</text>
<text text-anchor="middle" x="509" y="-7.5" font-family="Helvetica,sans-Serif" font-size="10.00">_autoconf_config.hpp</text>
</a>
</g>
</g>
<!-- Node3&#45;&gt;Node4 -->
<g id="edge3" class="edge"><title>Node3&#45;&gt;Node4</title>
<path fill="none" stroke="midnightblue" d="M637.347,-72.8685C615.235,-63.1572 578.695,-47.1092 550.246,-34.6148"/>
<polygon fill="midnightblue" stroke="midnightblue" points="551.504,-31.3447 540.941,-30.5281 548.689,-37.7539 551.504,-31.3447"/>
</g>
<!-- Node5 -->
<g id="node5" class="node"><title>Node5</title>
<g id="a_node5"><a xlink:title=" ">
<polygon fill="none" stroke="#bfbfbf" points="581.5,-6 581.5,-25 732.5,-25 732.5,-6 581.5,-6"/>
<text text-anchor="middle" x="657" y="-13" font-family="Helvetica,sans-Serif" font-size="10.00">xercesc/util/XercesVersion.hpp</text>
</a>
</g>
</g>
<!-- Node3&#45;&gt;Node5 -->
<g id="edge4" class="edge"><title>Node3&#45;&gt;Node5</title>
<path fill="none" stroke="midnightblue" d="M657,-72.7338C657,-63.1826 657,-47.6183 657,-35.2829"/>
<polygon fill="midnightblue" stroke="midnightblue" points="660.5,-35.1273 657,-25.1273 653.5,-35.1273 660.5,-35.1273"/>
</g>
<!-- Node6 -->
<g id="node6" class="node"><title>Node6</title>
<g id="a_node6"><a xlink:href="XalanVersion_8hpp.html" target="_top" xlink:title=" ">
<polygon fill="none" stroke="black" points="751,-6 751,-25 843,-25 843,-6 751,-6"/>
<text text-anchor="middle" x="797" y="-13" font-family="Helvetica,sans-Serif" font-size="10.00">XalanVersion.hpp</text>
</a>
</g>
</g>
<!-- Node3&#45;&gt;Node6 -->
<g id="edge5" class="edge"><title>Node3&#45;&gt;Node6</title>
<path fill="none" stroke="midnightblue" d="M675.591,-72.8685C699.544,-61.7476 741.395,-42.3167 769.154,-29.4286"/>
<polygon fill="midnightblue" stroke="midnightblue" points="770.736,-32.5529 778.332,-25.1672 767.788,-26.2038 770.736,-32.5529"/>
</g>
<!-- Node8 -->
<g id="node8" class="node"><title>Node8</title>
<g id="a_node8"><a xlink:href="PlatformSupportDefinitions_8hpp.html" target="_top" xlink:title=" ">
<polygon fill="none" stroke="black" points="337.5,-369.5 337.5,-399.5 490.5,-399.5 490.5,-369.5 337.5,-369.5"/>
<text text-anchor="start" x="345.5" y="-387.5" font-family="Helvetica,sans-Serif" font-size="10.00">xalanc/PlatformSupport</text>
<text text-anchor="middle" x="414" y="-376.5" font-family="Helvetica,sans-Serif" font-size="10.00">/PlatformSupportDefinitions.hpp</text>
</a>
</g>
</g>
<!-- Node7&#45;&gt;Node8 -->
<g id="edge7" class="edge"><title>Node7&#45;&gt;Node8</title>
<path fill="none" stroke="midnightblue" d="M218.488,-570.373C177.957,-543.231 100.362,-482.379 139,-436 162.691,-407.563 255.743,-395.085 327.113,-389.644"/>
<polygon fill="midnightblue" stroke="midnightblue" points="327.754,-393.107 337.474,-388.891 327.247,-386.125 327.754,-393.107"/>
</g>
<!-- Node9 -->
<g id="node9" class="node"><title>Node9</title>
<g id="a_node9"><a xlink:href="DOMStringHelper_8hpp.html" target="_top" xlink:title=" ">
<polygon fill="none" stroke="black" points="788,-503.5 788,-533.5 906,-533.5 906,-503.5 788,-503.5"/>
<text text-anchor="start" x="796" y="-521.5" font-family="Helvetica,sans-Serif" font-size="10.00">xalanc/PlatformSupport</text>
<text text-anchor="middle" x="847" y="-510.5" font-family="Helvetica,sans-Serif" font-size="10.00">/DOMStringHelper.hpp</text>
</a>
</g>
</g>
<!-- Node7&#45;&gt;Node9 -->
<g id="edge9" class="edge"><title>Node7&#45;&gt;Node9</title>
<path fill="none" stroke="midnightblue" d="M300.209,-578.149C412.926,-566.059 657.777,-539.796 777.825,-526.92"/>
<polygon fill="midnightblue" stroke="midnightblue" points="778.428,-530.375 787.997,-525.829 777.681,-523.415 778.428,-530.375"/>
</g>
<!-- Node32 -->
<g id="node32" class="node"><title>Node32</title>
<g id="a_node32"><a xlink:href="XalanLocator_8hpp.html" target="_top" xlink:title=" ">
<polygon fill="none" stroke="black" points="182,-503.5 182,-533.5 300,-533.5 300,-503.5 182,-503.5"/>
<text text-anchor="start" x="190" y="-521.5" font-family="Helvetica,sans-Serif" font-size="10.00">xalanc/PlatformSupport</text>
<text text-anchor="middle" x="241" y="-510.5" font-family="Helvetica,sans-Serif" font-size="10.00">/XalanLocator.hpp</text>
</a>
</g>
</g>
<!-- Node7&#45;&gt;Node32 -->
<g id="edge68" class="edge"><title>Node7&#45;&gt;Node32</title>
<path fill="none" stroke="midnightblue" d="M241,-570.396C241,-562.645 241,-552.812 241,-543.86"/>
<polygon fill="midnightblue" stroke="midnightblue" points="244.5,-543.576 241,-533.577 237.5,-543.577 244.5,-543.576"/>
</g>
<!-- Node8&#45;&gt;Node3 -->
<g id="edge8" class="edge"><title>Node8&#45;&gt;Node3</title>
<path fill="none" stroke="midnightblue" d="M414,-369.275C414,-347.476 414,-304.495 414,-268 414,-268 414,-268 414,-210 414,-138.602 497.558,-107.441 566.678,-93.8777"/>
<polygon fill="midnightblue" stroke="midnightblue" points="567.568,-97.2721 576.759,-92.0016 566.288,-90.3902 567.568,-97.2721"/>
</g>
<!-- Node9&#45;&gt;Node8 -->
<g id="edge10" class="edge"><title>Node9&#45;&gt;Node8</title>
<path fill="none" stroke="midnightblue" d="M787.644,-511.173C742.361,-504.622 679.402,-491.719 629,-467 609.431,-457.403 610.322,-446.086 591,-436 562.116,-420.922 528.161,-409.843 497.757,-401.97"/>
<polygon fill="midnightblue" stroke="midnightblue" points="498.572,-398.567 488.021,-399.526 496.868,-405.356 498.572,-398.567"/>
</g>
<!-- Node10 -->
<g id="node10" class="node"><title>Node10</title>
<g id="a_node10"><a xlink:title=" ">
<polygon fill="none" stroke="#bfbfbf" points="780,-140 780,-159 836,-159 836,-140 780,-140"/>
<text text-anchor="middle" x="808" y="-147" font-family="Helvetica,sans-Serif" font-size="10.00">algorithm</text>
</a>
</g>
</g>
<!-- Node9&#45;&gt;Node10 -->
<g id="edge11" class="edge"><title>Node9&#45;&gt;Node10</title>
<path fill="none" stroke="midnightblue" d="M906.176,-508.231C939.17,-500.963 979.776,-488.367 1011,-467 1051.86,-439.035 1077.34,-416.686 1064,-369 1036.3,-269.997 990.104,-258.673 905,-201 883.254,-186.264 856.68,-172.705 836.849,-163.356"/>
<polygon fill="midnightblue" stroke="midnightblue" points="838.25,-160.148 827.706,-159.117 835.306,-166.498 838.25,-160.148"/>
</g>
<!-- Node11 -->
<g id="node11" class="node"><title>Node11</title>
<g id="a_node11"><a xlink:title=" ">
<polygon fill="none" stroke="#bfbfbf" points="1406.5,-73 1406.5,-92 1455.5,-92 1455.5,-73 1406.5,-73"/>
<text text-anchor="middle" x="1431" y="-80" font-family="Helvetica,sans-Serif" font-size="10.00">cassert</text>
</a>
</g>
</g>
<!-- Node9&#45;&gt;Node11 -->
<g id="edge12" class="edge"><title>Node9&#45;&gt;Node11</title>
<path fill="none" stroke="midnightblue" d="M906.151,-518.134C1068.15,-518.292 1507,-507.465 1507,-385.5 1507,-385.5 1507,-385.5 1507,-210 1507,-164.622 1470.62,-121.482 1448.2,-99.205"/>
<polygon fill="midnightblue" stroke="midnightblue" points="1450.57,-96.6293 1440.94,-92.2259 1445.72,-101.678 1450.57,-96.6293"/>
</g>
<!-- Node12 -->
<g id="node12" class="node"><title>Node12</title>
<g id="a_node12"><a xlink:title=" ">
<polygon fill="none" stroke="#bfbfbf" points="628,-201.5 628,-220.5 686,-220.5 686,-201.5 628,-201.5"/>
<text text-anchor="middle" x="657" y="-208.5" font-family="Helvetica,sans-Serif" font-size="10.00">functional</text>
</a>
</g>
</g>
<!-- Node9&#45;&gt;Node12 -->
<g id="edge13" class="edge"><title>Node9&#45;&gt;Node12</title>
<path fill="none" stroke="midnightblue" d="M841.105,-503.442C826.674,-469.719 788.932,-385.777 764,-369 656.247,-296.491 562.569,-427.995 474,-333 450.948,-308.275 450.095,-283.565 471,-257 488.934,-234.209 568.911,-221.575 617.968,-215.844"/>
<polygon fill="midnightblue" stroke="midnightblue" points="618.387,-219.319 627.934,-214.725 617.605,-212.363 618.387,-219.319"/>
</g>
<!-- Node13 -->
<g id="node13" class="node"><title>Node13</title>
<g id="a_node13"><a xlink:title=" ">
<polygon fill="none" stroke="#bfbfbf" points="850,-442 850,-461 894,-461 894,-442 850,-442"/>
<text text-anchor="middle" x="872" y="-449" font-family="Helvetica,sans-Serif" font-size="10.00">iosfwd</text>
</a>
</g>
</g>
<!-- Node9&#45;&gt;Node13 -->
<g id="edge14" class="edge"><title>Node9&#45;&gt;Node13</title>
<path fill="none" stroke="midnightblue" d="M852.425,-503.396C856.13,-493.763 861.071,-480.914 865.063,-470.537"/>
<polygon fill="midnightblue" stroke="midnightblue" points="868.333,-471.784 868.656,-461.195 861.799,-469.272 868.333,-471.784"/>
</g>
<!-- Node14 -->
<g id="node14" class="node"><title>Node14</title>
<g id="a_node14"><a xlink:href="XalanVector_8hpp.html" target="_top" xlink:title=" ">
<polygon fill="none" stroke="black" points="1110,-201.5 1110,-220.5 1262,-220.5 1262,-201.5 1110,-201.5"/>
<text text-anchor="middle" x="1186" y="-208.5" font-family="Helvetica,sans-Serif" font-size="10.00">xalanc/Include/XalanVector.hpp</text>
</a>
</g>
</g>
<!-- Node9&#45;&gt;Node14 -->
<g id="edge15" class="edge"><title>Node9&#45;&gt;Node14</title>
<path fill="none" stroke="midnightblue" d="M906.099,-517.135C970.389,-514.669 1074.83,-504.515 1156,-467 1206.8,-443.519 1252,-441.469 1252,-385.5 1252,-385.5 1252,-385.5 1252,-322 1252,-283.857 1222.46,-247.517 1202.91,-227.64"/>
<polygon fill="midnightblue" stroke="midnightblue" points="1205.33,-225.119 1195.74,-220.628 1200.44,-230.123 1205.33,-225.119"/>
</g>
<!-- Node19 -->
<g id="node19" class="node"><title>Node19</title>
<g id="a_node19"><a xlink:href="XalanMemoryManagement_8hpp.html" target="_top" xlink:title=" ">
<polygon fill="none" stroke="black" points="1225,-134.5 1225,-164.5 1365,-164.5 1365,-134.5 1225,-134.5"/>
<text text-anchor="start" x="1233" y="-152.5" font-family="Helvetica,sans-Serif" font-size="10.00">xalanc/Include/XalanMemory</text>
<text text-anchor="middle" x="1295" y="-141.5" font-family="Helvetica,sans-Serif" font-size="10.00">Management.hpp</text>
</a>
</g>
</g>
<!-- Node9&#45;&gt;Node19 -->
<g id="edge45" class="edge"><title>Node9&#45;&gt;Node19</title>
<path fill="none" stroke="midnightblue" d="M906.462,-513.708C1035.15,-503.872 1328,-471.986 1328,-385.5 1328,-385.5 1328,-385.5 1328,-266 1328,-233.119 1315.48,-196.929 1305.87,-173.978"/>
<polygon fill="midnightblue" stroke="midnightblue" points="1309.03,-172.487 1301.84,-164.712 1302.62,-175.278 1309.03,-172.487"/>
</g>
<!-- Node21 -->
<g id="node21" class="node"><title>Node21</title>
<g id="a_node21"><a xlink:href="XalanMap_8hpp.html" target="_top" xlink:title=" ">
<polygon fill="none" stroke="black" points="818.5,-257.5 818.5,-276.5 961.5,-276.5 961.5,-257.5 818.5,-257.5"/>
<text text-anchor="middle" x="890" y="-264.5" font-family="Helvetica,sans-Serif" font-size="10.00">xalanc/Include/XalanMap.hpp</text>
</a>
</g>
</g>
<!-- Node9&#45;&gt;Node21 -->
<g id="edge29" class="edge"><title>Node9&#45;&gt;Node21</title>
<path fill="none" stroke="midnightblue" d="M897.89,-503.384C945.702,-487.11 1014.47,-455.228 1046,-400 1078.44,-343.176 983.174,-299.718 927.37,-279.859"/>
<polygon fill="midnightblue" stroke="midnightblue" points="928.376,-276.504 917.782,-276.54 926.086,-283.119 928.376,-276.504"/>
</g>
<!-- Node24 -->
<g id="node24" class="node"><title>Node24</title>
<g id="a_node24"><a xlink:href="STLHelper_8hpp.html" target="_top" xlink:title=" ">
<polygon fill="none" stroke="black" points="746,-313.5 746,-332.5 892,-332.5 892,-313.5 746,-313.5"/>
<text text-anchor="middle" x="819" y="-320.5" font-family="Helvetica,sans-Serif" font-size="10.00">xalanc/Include/STLHelper.hpp</text>
</a>
</g>
</g>
<!-- Node9&#45;&gt;Node24 -->
<g id="edge46" class="edge"><title>Node9&#45;&gt;Node24</title>
<path fill="none" stroke="midnightblue" d="M844.941,-503.271C839.974,-468.944 827.33,-381.566 821.735,-342.9"/>
<polygon fill="midnightblue" stroke="midnightblue" points="825.137,-341.973 820.241,-332.577 818.209,-342.975 825.137,-341.973"/>
</g>
<!-- Node25 -->
<g id="node25" class="node"><title>Node25</title>
<g id="a_node25"><a xlink:href="XalanDOMString_8hpp.html" target="_top" xlink:title=" ">
<polygon fill="none" stroke="black" points="850.5,-375 850.5,-394 1037.5,-394 1037.5,-375 850.5,-375"/>
<text text-anchor="middle" x="944" y="-382" font-family="Helvetica,sans-Serif" font-size="10.00">xalanc/XalanDOM/XalanDOMString.hpp</text>
</a>
</g>
</g>
<!-- Node9&#45;&gt;Node25 -->
<g id="edge51" class="edge"><title>Node9&#45;&gt;Node25</title>
<path fill="none" stroke="midnightblue" d="M866.048,-503.317C877.739,-493.935 892.441,-480.845 903,-467 918.113,-447.184 930.136,-420.939 937.159,-403.654"/>
<polygon fill="midnightblue" stroke="midnightblue" points="940.479,-404.774 940.869,-394.187 933.962,-402.221 940.479,-404.774"/>
</g>
<!-- Node28 -->
<g id="node28" class="node"><title>Node28</title>
<g id="a_node28"><a xlink:href="FormatterListener_8hpp.html" target="_top" xlink:title=" ">
<polygon fill="none" stroke="black" points="638,-436.5 638,-466.5 756,-466.5 756,-436.5 638,-436.5"/>
<text text-anchor="start" x="646" y="-454.5" font-family="Helvetica,sans-Serif" font-size="10.00">xalanc/PlatformSupport</text>
<text text-anchor="middle" x="697" y="-443.5" font-family="Helvetica,sans-Serif" font-size="10.00">/FormatterListener.hpp</text>
</a>
</g>
</g>
<!-- Node9&#45;&gt;Node28 -->
<g id="edge60" class="edge"><title>Node9&#45;&gt;Node28</title>
<path fill="none" stroke="midnightblue" d="M814.452,-503.396C792.241,-493.771 762.622,-480.936 738.686,-470.564"/>
<polygon fill="midnightblue" stroke="midnightblue" points="740.051,-467.341 729.484,-466.577 737.268,-473.764 740.051,-467.341"/>
</g>
<!-- Node30 -->
<g id="node30" class="node"><title>Node30</title>
<g id="a_node30"><a xlink:href="XalanUnicode_8hpp.html" target="_top" xlink:title=" ">
<polygon fill="none" stroke="black" points="328,-436.5 328,-466.5 446,-466.5 446,-436.5 328,-436.5"/>
<text text-anchor="start" x="336" y="-454.5" font-family="Helvetica,sans-Serif" font-size="10.00">xalanc/PlatformSupport</text>
<text text-anchor="middle" x="387" y="-443.5" font-family="Helvetica,sans-Serif" font-size="10.00">/XalanUnicode.hpp</text>
</a>
</g>
</g>
<!-- Node9&#45;&gt;Node30 -->
<g id="edge64" class="edge"><title>Node9&#45;&gt;Node30</title>
<path fill="none" stroke="midnightblue" d="M787.669,-511.389C712.723,-503.328 579.607,-487.879 456.28,-467.137"/>
<polygon fill="midnightblue" stroke="midnightblue" points="456.728,-463.663 446.283,-465.44 455.556,-470.564 456.728,-463.663"/>
</g>
<!-- Node31 -->
<g id="node31" class="node"><title>Node31</title>
<g id="a_node31"><a xlink:href="XalanXMLChar_8hpp.html" target="_top" xlink:title=" ">
<polygon fill="none" stroke="black" points="464,-436.5 464,-466.5 582,-466.5 582,-436.5 464,-436.5"/>
<text text-anchor="start" x="472" y="-454.5" font-family="Helvetica,sans-Serif" font-size="10.00">xalanc/PlatformSupport</text>
<text text-anchor="middle" x="523" y="-443.5" font-family="Helvetica,sans-Serif" font-size="10.00">/XalanXMLChar.hpp</text>
</a>
</g>
</g>
<!-- Node9&#45;&gt;Node31 -->
<g id="edge66" class="edge"><title>Node9&#45;&gt;Node31</title>
<path fill="none" stroke="midnightblue" d="M787.95,-505.654C732.736,-494.577 650.28,-478.035 592.045,-466.352"/>
<polygon fill="midnightblue" stroke="midnightblue" points="592.684,-462.91 582.191,-464.375 591.307,-469.773 592.684,-462.91"/>
</g>
<!-- Node14&#45;&gt;Node3 -->
<g id="edge16" class="edge"><title>Node14&#45;&gt;Node3</title>
<path fill="none" stroke="midnightblue" d="M1176.18,-201.42C1165.88,-192.4 1149.24,-177.773 1135,-165 1119.78,-151.346 1119.62,-142.455 1101,-134 1041.92,-107.171 870.474,-93.8416 758.735,-87.8251"/>
<polygon fill="midnightblue" stroke="midnightblue" points="758.62,-84.3143 748.449,-87.2828 758.251,-91.3046 758.62,-84.3143"/>
</g>
<!-- Node14&#45;&gt;Node10 -->
<g id="edge18" class="edge"><title>Node14&#45;&gt;Node10</title>
<path fill="none" stroke="midnightblue" d="M1131.84,-201.475C1054.53,-189.305 914.391,-167.247 846.682,-156.589"/>
<polygon fill="midnightblue" stroke="midnightblue" points="846.88,-153.077 836.457,-154.979 845.792,-159.992 846.88,-153.077"/>
</g>
<!-- Node14&#45;&gt;Node11 -->
<g id="edge19" class="edge"><title>Node14&#45;&gt;Node11</title>
<path fill="none" stroke="midnightblue" d="M1262.25,-202.852C1317.49,-196.166 1386.02,-184.263 1407,-165 1424.46,-148.975 1429.46,-120.966 1430.76,-102.325"/>
<polygon fill="midnightblue" stroke="midnightblue" points="1434.26,-102.253 1431.17,-92.1206 1427.27,-101.972 1434.26,-102.253"/>
</g>
<!-- Node15 -->
<g id="node15" class="node"><title>Node15</title>
<g id="a_node15"><a xlink:title=" ">
<polygon fill="none" stroke="#bfbfbf" points="994,-73 994,-92 1042,-92 1042,-73 994,-73"/>
<text text-anchor="middle" x="1018" y="-80" font-family="Helvetica,sans-Serif" font-size="10.00">cstddef</text>
</a>
</g>
</g>
<!-- Node14&#45;&gt;Node15 -->
<g id="edge17" class="edge"><title>Node14&#45;&gt;Node15</title>
<path fill="none" stroke="midnightblue" d="M1182.21,-201.299C1175.06,-185.816 1158.21,-153.302 1135,-134 1110.63,-113.737 1076.89,-100.338 1051.91,-92.466"/>
<polygon fill="midnightblue" stroke="midnightblue" points="1052.71,-89.0525 1042.13,-89.5237 1050.69,-95.7558 1052.71,-89.0525"/>
</g>
<!-- Node16 -->
<g id="node16" class="node"><title>Node16</title>
<g id="a_node16"><a xlink:title=" ">
<polygon fill="none" stroke="#bfbfbf" points="1177,-73 1177,-92 1211,-92 1211,-73 1177,-73"/>
<text text-anchor="middle" x="1194" y="-80" font-family="Helvetica,sans-Serif" font-size="10.00">new</text>
</a>
</g>
</g>
<!-- Node14&#45;&gt;Node16 -->
<g id="edge20" class="edge"><title>Node14&#45;&gt;Node16</title>
<path fill="none" stroke="midnightblue" d="M1186.55,-201.305C1187.83,-180.994 1191.06,-130.053 1192.81,-102.277"/>
<polygon fill="midnightblue" stroke="midnightblue" points="1196.31,-102.457 1193.45,-92.2557 1189.32,-102.015 1196.31,-102.457"/>
</g>
<!-- Node17 -->
<g id="node17" class="node"><title>Node17</title>
<g id="a_node17"><a xlink:title=" ">
<polygon fill="none" stroke="#bfbfbf" points="1045.5,-140 1045.5,-159 1092.5,-159 1092.5,-140 1045.5,-140"/>
<text text-anchor="middle" x="1069" y="-147" font-family="Helvetica,sans-Serif" font-size="10.00">iterator</text>
</a>
</g>
</g>
<!-- Node14&#45;&gt;Node17 -->
<g id="edge21" class="edge"><title>Node14&#45;&gt;Node17</title>
<path fill="none" stroke="midnightblue" d="M1169.24,-201.475C1149.78,-191.578 1117.45,-175.142 1094.79,-163.615"/>
<polygon fill="midnightblue" stroke="midnightblue" points="1096.23,-160.422 1085.73,-159.009 1093.06,-166.662 1096.23,-160.422"/>
</g>
<!-- Node18 -->
<g id="node18" class="node"><title>Node18</title>
<g id="a_node18"><a xlink:title=" ">
<polygon fill="none" stroke="#bfbfbf" points="968.5,-140 968.5,-159 1027.5,-159 1027.5,-140 968.5,-140"/>
<text text-anchor="middle" x="998" y="-147" font-family="Helvetica,sans-Serif" font-size="10.00">stdexcept</text>
</a>
</g>
</g>
<!-- Node14&#45;&gt;Node18 -->
<g id="edge22" class="edge"><title>Node14&#45;&gt;Node18</title>
<path fill="none" stroke="midnightblue" d="M1155.05,-201.431C1124.58,-192.824 1076.8,-178.882 1036,-165 1033.74,-164.232 1031.42,-163.415 1029.09,-162.574"/>
<polygon fill="midnightblue" stroke="midnightblue" points="1030.2,-159.251 1019.6,-159.057 1027.76,-165.815 1030.2,-159.251"/>
</g>
<!-- Node14&#45;&gt;Node19 -->
<g id="edge23" class="edge"><title>Node14&#45;&gt;Node19</title>
<path fill="none" stroke="midnightblue" d="M1201.62,-201.475C1216.86,-193.153 1240.58,-180.207 1260.29,-169.445"/>
<polygon fill="midnightblue" stroke="midnightblue" points="1262.21,-172.386 1269.31,-164.523 1258.86,-166.242 1262.21,-172.386"/>
</g>
<!-- Node19&#45;&gt;Node3 -->
<g id="edge24" class="edge"><title>Node19&#45;&gt;Node3</title>
<path fill="none" stroke="midnightblue" d="M1224.9,-141.358C1109.63,-129.614 879.982,-106.218 750.825,-93.059"/>
<polygon fill="midnightblue" stroke="midnightblue" points="750.861,-89.5446 740.557,-92.0129 750.151,-96.5085 750.861,-89.5446"/>
</g>
<!-- Node19&#45;&gt;Node11 -->
<g id="edge25" class="edge"><title>Node19&#45;&gt;Node11</title>
<path fill="none" stroke="midnightblue" d="M1324.51,-134.396C1348.16,-123.092 1381.08,-107.361 1404.03,-96.3903"/>
<polygon fill="midnightblue" stroke="midnightblue" points="1405.69,-99.4771 1413.2,-92.007 1402.67,-93.1614 1405.69,-99.4771"/>
</g>
<!-- Node19&#45;&gt;Node15 -->
<g id="edge26" class="edge"><title>Node19&#45;&gt;Node15</title>
<path fill="none" stroke="midnightblue" d="M1235.24,-134.476C1179.31,-121.354 1097.75,-102.214 1052.13,-91.5098"/>
<polygon fill="midnightblue" stroke="midnightblue" points="1052.69,-88.046 1042.16,-89.1689 1051.09,-94.8609 1052.69,-88.046"/>
</g>
<!-- Node19&#45;&gt;Node16 -->
<g id="edge27" class="edge"><title>Node19&#45;&gt;Node16</title>
<path fill="none" stroke="midnightblue" d="M1273.08,-134.396C1256.15,-123.496 1232.81,-108.479 1215.88,-97.5835"/>
<polygon fill="midnightblue" stroke="midnightblue" points="1217.52,-94.4756 1207.22,-92.007 1213.73,-100.362 1217.52,-94.4756"/>
</g>
<!-- Node20 -->
<g id="node20" class="node"><title>Node20</title>
<g id="a_node20"><a xlink:title=" ">
<polygon fill="none" stroke="#bfbfbf" points="1229.5,-67.5 1229.5,-97.5 1366.5,-97.5 1366.5,-67.5 1229.5,-67.5"/>
<text text-anchor="start" x="1237.5" y="-85.5" font-family="Helvetica,sans-Serif" font-size="10.00">xercesc/framework/Memory</text>
<text text-anchor="middle" x="1298" y="-74.5" font-family="Helvetica,sans-Serif" font-size="10.00">Manager.hpp</text>
</a>
</g>
</g>
<!-- Node19&#45;&gt;Node20 -->
<g id="edge28" class="edge"><title>Node19&#45;&gt;Node20</title>
<path fill="none" stroke="midnightblue" d="M1295.65,-134.396C1296.01,-126.645 1296.46,-116.812 1296.88,-107.86"/>
<polygon fill="midnightblue" stroke="midnightblue" points="1300.39,-107.727 1297.35,-97.5765 1293.39,-107.404 1300.39,-107.727"/>
</g>
<!-- Node21&#45;&gt;Node3 -->
<g id="edge30" class="edge"><title>Node21&#45;&gt;Node3</title>
<path fill="none" stroke="midnightblue" d="M860.57,-257.445C838.045,-250.027 806.891,-237.825 783,-221 733.529,-186.161 689.142,-128.916 668.778,-100.541"/>
<polygon fill="midnightblue" stroke="midnightblue" points="671.446,-98.2516 662.82,-92.0994 665.727,-102.288 671.446,-98.2516"/>
</g>
<!-- Node21&#45;&gt;Node10 -->
<g id="edge32" class="edge"><title>Node21&#45;&gt;Node10</title>
<path fill="none" stroke="midnightblue" d="M880.366,-257.313C871.123,-248.673 857.113,-234.755 847,-221 834.613,-204.152 823.393,-182.939 816.202,-168.205"/>
<polygon fill="midnightblue" stroke="midnightblue" points="819.36,-166.697 811.902,-159.172 813.04,-169.706 819.36,-166.697"/>
</g>
<!-- Node21&#45;&gt;Node12 -->
<g id="edge33" class="edge"><title>Node21&#45;&gt;Node12</title>
<path fill="none" stroke="midnightblue" d="M853.08,-257.444C810.195,-247.504 739.75,-231.178 695.998,-221.038"/>
<polygon fill="midnightblue" stroke="midnightblue" points="696.549,-217.573 686.017,-218.725 694.969,-224.393 696.549,-217.573"/>
</g>
<!-- Node21&#45;&gt;Node14 -->
<g id="edge35" class="edge"><title>Node21&#45;&gt;Node14</title>
<path fill="none" stroke="midnightblue" d="M936.902,-257.444C989.08,-247.925 1073.37,-232.547 1129.23,-222.356"/>
<polygon fill="midnightblue" stroke="midnightblue" points="1130.11,-225.754 1139.32,-220.516 1128.85,-218.868 1130.11,-225.754"/>
</g>
<!-- Node21&#45;&gt;Node15 -->
<g id="edge31" class="edge"><title>Node21&#45;&gt;Node15</title>
<path fill="none" stroke="midnightblue" d="M871.404,-257.456C828.946,-236.824 731.492,-182.403 771,-134 797.435,-101.613 921.956,-89.4411 983.456,-85.3489"/>
<polygon fill="midnightblue" stroke="midnightblue" points="984.057,-88.8181 993.818,-84.6966 983.618,-81.8319 984.057,-88.8181"/>
</g>
<!-- Node22 -->
<g id="node22" class="node"><title>Node22</title>
<g id="a_node22"><a xlink:title=" ">
<polygon fill="none" stroke="#bfbfbf" points="856,-201.5 856,-220.5 896,-220.5 896,-201.5 856,-201.5"/>
<text text-anchor="middle" x="876" y="-208.5" font-family="Helvetica,sans-Serif" font-size="10.00">utility</text>
</a>
</g>
</g>
<!-- Node21&#45;&gt;Node22 -->
<g id="edge34" class="edge"><title>Node21&#45;&gt;Node22</title>
<path fill="none" stroke="midnightblue" d="M887.688,-257.083C885.833,-249.927 883.165,-239.635 880.846,-230.691"/>
<polygon fill="midnightblue" stroke="midnightblue" points="884.166,-229.553 878.269,-220.751 877.391,-231.309 884.166,-229.553"/>
</g>
<!-- Node23 -->
<g id="node23" class="node"><title>Node23</title>
<g id="a_node23"><a xlink:href="XalanList_8hpp.html" target="_top" xlink:title=" ">
<polygon fill="none" stroke="black" points="952,-201.5 952,-220.5 1092,-220.5 1092,-201.5 952,-201.5"/>
<text text-anchor="middle" x="1022" y="-208.5" font-family="Helvetica,sans-Serif" font-size="10.00">xalanc/Include/XalanList.hpp</text>
</a>
</g>
</g>
<!-- Node21&#45;&gt;Node23 -->
<g id="edge36" class="edge"><title>Node21&#45;&gt;Node23</title>
<path fill="none" stroke="midnightblue" d="M910.916,-257.444C932.736,-248.517 967.15,-234.439 991.892,-224.317"/>
<polygon fill="midnightblue" stroke="midnightblue" points="993.252,-227.542 1001.18,-220.516 990.601,-221.063 993.252,-227.542"/>
</g>
<!-- Node23&#45;&gt;Node3 -->
<g id="edge37" class="edge"><title>Node23&#45;&gt;Node3</title>
<path fill="none" stroke="midnightblue" d="M1001.87,-201.383C980.727,-192.333 946.521,-177.681 917,-165 884.988,-151.249 877.909,-145.438 845,-134 798.26,-117.755 743.487,-103.573 705.16,-94.4084"/>
<polygon fill="midnightblue" stroke="midnightblue" points="705.834,-90.9712 695.296,-92.0737 704.221,-97.783 705.834,-90.9712"/>
</g>
<!-- Node23&#45;&gt;Node10 -->
<g id="edge39" class="edge"><title>Node23&#45;&gt;Node10</title>
<path fill="none" stroke="midnightblue" d="M986.2,-201.482C951.253,-192.967 896.674,-179.14 850,-165 847.232,-164.161 844.373,-163.257 841.51,-162.325"/>
<polygon fill="midnightblue" stroke="midnightblue" points="842.478,-158.958 831.884,-159.1 840.254,-165.595 842.478,-158.958"/>
</g>
<!-- Node23&#45;&gt;Node11 -->
<g id="edge40" class="edge"><title>Node23&#45;&gt;Node11</title>
<path fill="none" stroke="midnightblue" d="M1092.15,-201.753C1193.1,-189.782 1368.01,-168.621 1374,-165 1398.31,-150.301 1414.92,-120.832 1423.68,-101.649"/>
<polygon fill="midnightblue" stroke="midnightblue" points="1427,-102.779 1427.74,-92.2096 1420.57,-100.013 1427,-102.779"/>
</g>
<!-- Node23&#45;&gt;Node15 -->
<g id="edge38" class="edge"><title>Node23&#45;&gt;Node15</title>
<path fill="none" stroke="midnightblue" d="M980.529,-201.497C960.414,-195.06 938.047,-183.952 926,-165 918.609,-153.373 918.983,-145.857 926,-134 938.521,-112.844 963.398,-99.961 984.13,-92.5067"/>
<polygon fill="midnightblue" stroke="midnightblue" points="985.509,-95.737 993.902,-89.271 983.309,-89.0919 985.509,-95.737"/>
</g>
<!-- Node23&#45;&gt;Node16 -->
<g id="edge41" class="edge"><title>Node23&#45;&gt;Node16</title>
<path fill="none" stroke="midnightblue" d="M1001.15,-201.427C986.422,-194.129 967.795,-182.091 959,-165 952.696,-152.749 950.341,-144.717 959,-134 984.877,-101.971 1110.51,-89.3134 1166.72,-85.1943"/>
<polygon fill="midnightblue" stroke="midnightblue" points="1167.25,-88.6658 1176.98,-84.4811 1166.77,-81.6826 1167.25,-88.6658"/>
</g>
<!-- Node23&#45;&gt;Node17 -->
<g id="edge42" class="edge"><title>Node23&#45;&gt;Node17</title>
<path fill="none" stroke="midnightblue" d="M1028.73,-201.475C1035.78,-192.55 1047.03,-178.307 1055.85,-167.143"/>
<polygon fill="midnightblue" stroke="midnightblue" points="1058.83,-169.026 1062.28,-159.009 1053.33,-164.687 1058.83,-169.026"/>
</g>
<!-- Node23&#45;&gt;Node18 -->
<g id="edge43" class="edge"><title>Node23&#45;&gt;Node18</title>
<path fill="none" stroke="midnightblue" d="M1018.56,-201.475C1015.1,-192.904 1009.67,-179.427 1005.25,-168.483"/>
<polygon fill="midnightblue" stroke="midnightblue" points="1008.42,-166.974 1001.43,-159.009 1001.93,-169.592 1008.42,-166.974"/>
</g>
<!-- Node23&#45;&gt;Node19 -->
<g id="edge44" class="edge"><title>Node23&#45;&gt;Node19</title>
<path fill="none" stroke="midnightblue" d="M1061.11,-201.475C1102.58,-192.438 1169.07,-177.947 1220.57,-166.722"/>
<polygon fill="midnightblue" stroke="midnightblue" points="1221.63,-170.072 1230.66,-164.523 1220.14,-163.233 1221.63,-170.072"/>
</g>
<!-- Node24&#45;&gt;Node3 -->
<g id="edge47" class="edge"><title>Node24&#45;&gt;Node3</title>
<path fill="none" stroke="midnightblue" d="M800.636,-313.487C782.087,-304.756 752.72,-290.57 728,-277 712.966,-268.747 710.103,-265.126 695,-257 662.086,-239.291 638.987,-252.583 619,-221 594.489,-182.267 625.28,-127.671 644.223,-100.394"/>
<polygon fill="midnightblue" stroke="midnightblue" points="647.083,-102.411 650.095,-92.253 641.406,-98.3155 647.083,-102.411"/>
</g>
<!-- Node24&#45;&gt;Node10 -->
<g id="edge48" class="edge"><title>Node24&#45;&gt;Node10</title>
<path fill="none" stroke="midnightblue" d="M816.538,-313.464C814.081,-304.48 810.466,-289.882 809,-277 804.671,-238.947 805.775,-194.039 806.92,-169.272"/>
<polygon fill="midnightblue" stroke="midnightblue" points="810.423,-169.295 807.445,-159.127 803.433,-168.933 810.423,-169.295"/>
</g>
<!-- Node24&#45;&gt;Node12 -->
<g id="edge49" class="edge"><title>Node24&#45;&gt;Node12</title>
<path fill="none" stroke="midnightblue" d="M807.366,-313.376C790.201,-300.724 756.989,-276.518 728,-257 712.012,-246.236 693.624,-234.601 679.567,-225.859"/>
<polygon fill="midnightblue" stroke="midnightblue" points="681.369,-222.858 671.024,-220.57 677.684,-228.81 681.369,-222.858"/>
</g>
<!-- Node24&#45;&gt;Node21 -->
<g id="edge50" class="edge"><title>Node24&#45;&gt;Node21</title>
<path fill="none" stroke="midnightblue" d="M830.407,-313.324C841.109,-305.185 857.341,-292.839 870.163,-283.087"/>
<polygon fill="midnightblue" stroke="midnightblue" points="872.544,-285.673 878.385,-276.834 868.307,-280.102 872.544,-285.673"/>
</g>
<!-- Node25&#45;&gt;Node11 -->
<g id="edge54" class="edge"><title>Node25&#45;&gt;Node11</title>
<path fill="none" stroke="midnightblue" d="M991.902,-374.987C1032.33,-366.907 1091.24,-353.008 1140,-333 1277.45,-276.602 1353.33,-292.857 1429,-165 1440.29,-145.916 1438.51,-119.664 1435.43,-102.166"/>
<polygon fill="midnightblue" stroke="midnightblue" points="1438.8,-101.176 1433.34,-92.0949 1431.95,-102.597 1438.8,-101.176"/>
</g>
<!-- Node25&#45;&gt;Node14 -->
<g id="edge57" class="edge"><title>Node25&#45;&gt;Node14</title>
<path fill="none" stroke="midnightblue" d="M956.001,-374.995C994.788,-347.508 1117.07,-260.849 1165.73,-226.362"/>
<polygon fill="midnightblue" stroke="midnightblue" points="1167.79,-229.194 1173.93,-220.556 1163.74,-223.483 1167.79,-229.194"/>
</g>
<!-- Node25&#45;&gt;Node19 -->
<g id="edge56" class="edge"><title>Node25&#45;&gt;Node19</title>
<path fill="none" stroke="midnightblue" d="M981.382,-374.947C1048.86,-357.61 1191.37,-312.003 1271,-221 1282.37,-208.003 1288.41,-189.374 1291.59,-174.53"/>
<polygon fill="midnightblue" stroke="midnightblue" points="1295.06,-174.993 1293.43,-164.525 1288.18,-173.727 1295.06,-174.993"/>
</g>
<!-- Node25&#45;&gt;Node24 -->
<g id="edge55" class="edge"><title>Node25&#45;&gt;Node24</title>
<path fill="none" stroke="midnightblue" d="M926.091,-374.975C905.113,-364.99 870.15,-348.348 845.907,-336.807"/>
<polygon fill="midnightblue" stroke="midnightblue" points="847.41,-333.647 836.876,-332.509 844.401,-339.967 847.41,-333.647"/>
</g>
<!-- Node26 -->
<g id="node26" class="node"><title>Node26</title>
<g id="a_node26"><a xlink:href="XalanDOMDefinitions_8hpp.html" target="_top" xlink:title=" ">
<polygon fill="none" stroke="black" points="480,-257.5 480,-276.5 686,-276.5 686,-257.5 480,-257.5"/>
<text text-anchor="middle" x="583" y="-264.5" font-family="Helvetica,sans-Serif" font-size="10.00">xalanc/XalanDOM/XalanDOMDefinitions.hpp</text>
</a>
</g>
</g>
<!-- Node25&#45;&gt;Node26 -->
<g id="edge52" class="edge"><title>Node25&#45;&gt;Node26</title>
<path fill="none" stroke="midnightblue" d="M895.825,-374.935C853.282,-366.624 789.963,-352.421 737,-333 718.339,-326.157 715.15,-321.101 697,-313 670.088,-300.988 638.927,-288.802 615.992,-280.146"/>
<polygon fill="midnightblue" stroke="midnightblue" points="616.984,-276.78 606.391,-276.547 614.527,-283.334 616.984,-276.78"/>
</g>
<!-- Node27 -->
<g id="node27" class="node"><title>Node27</title>
<g id="a_node27"><a xlink:href="XalanDOMException_8hpp.html" target="_top" xlink:title=" ">
<polygon fill="none" stroke="black" points="483.5,-313.5 483.5,-332.5 688.5,-332.5 688.5,-313.5 483.5,-313.5"/>
<text text-anchor="middle" x="586" y="-320.5" font-family="Helvetica,sans-Serif" font-size="10.00">xalanc/XalanDOM/XalanDOMException.hpp</text>
</a>
</g>
</g>
<!-- Node25&#45;&gt;Node27 -->
<g id="edge58" class="edge"><title>Node25&#45;&gt;Node27</title>
<path fill="none" stroke="midnightblue" d="M892.707,-374.975C827.842,-364.194 716.291,-345.654 647.09,-334.153"/>
<polygon fill="midnightblue" stroke="midnightblue" points="647.636,-330.696 637.198,-332.509 646.488,-337.601 647.636,-330.696"/>
</g>
<!-- Node26&#45;&gt;Node3 -->
<g id="edge53" class="edge"><title>Node26&#45;&gt;Node3</title>
<path fill="none" stroke="midnightblue" d="M580.688,-257.314C575.304,-235.186 563.983,-175.514 586,-134 594.745,-117.511 611.555,-105.185 626.623,-96.8398"/>
<polygon fill="midnightblue" stroke="midnightblue" points="628.413,-99.8546 635.692,-92.1565 625.201,-93.6349 628.413,-99.8546"/>
</g>
<!-- Node27&#45;&gt;Node26 -->
<g id="edge59" class="edge"><title>Node27&#45;&gt;Node26</title>
<path fill="none" stroke="midnightblue" d="M585.505,-313.083C585.111,-306.006 584.548,-295.861 584.055,-286.986"/>
<polygon fill="midnightblue" stroke="midnightblue" points="587.536,-286.542 583.486,-276.751 580.546,-286.93 587.536,-286.542"/>
</g>
<!-- Node28&#45;&gt;Node8 -->
<g id="edge61" class="edge"><title>Node28&#45;&gt;Node8</title>
<path fill="none" stroke="midnightblue" d="M637.674,-436.874C593.187,-426.656 532.116,-412.629 485.028,-401.814"/>
<polygon fill="midnightblue" stroke="midnightblue" points="485.732,-398.385 475.203,-399.557 484.165,-405.207 485.732,-398.385"/>
</g>
<!-- Node28&#45;&gt;Node25 -->
<g id="edge63" class="edge"><title>Node28&#45;&gt;Node25</title>
<path fill="none" stroke="midnightblue" d="M750.291,-436.476C795.623,-424.547 859.852,-407.644 901.715,-396.628"/>
<polygon fill="midnightblue" stroke="midnightblue" points="902.811,-399.958 911.591,-394.029 901.03,-393.189 902.811,-399.958"/>
</g>
<!-- Node29 -->
<g id="node29" class="node"><title>Node29</title>
<g id="a_node29"><a xlink:title=" ">
<polygon fill="none" stroke="#bfbfbf" points="586.5,-375 586.5,-394 755.5,-394 755.5,-375 586.5,-375"/>
<text text-anchor="middle" x="671" y="-382" font-family="Helvetica,sans-Serif" font-size="10.00">xercesc/sax/DocumentHandler.hpp</text>
</a>
</g>
</g>
<!-- Node28&#45;&gt;Node29 -->
<g id="edge62" class="edge"><title>Node28&#45;&gt;Node29</title>
<path fill="none" stroke="midnightblue" d="M691.358,-436.396C687.505,-426.763 682.366,-413.914 678.215,-403.537"/>
<polygon fill="midnightblue" stroke="midnightblue" points="681.441,-402.179 674.478,-394.195 674.942,-404.779 681.441,-402.179"/>
</g>
<!-- Node30&#45;&gt;Node8 -->
<g id="edge65" class="edge"><title>Node30&#45;&gt;Node8</title>
<path fill="none" stroke="midnightblue" d="M392.859,-436.396C396.184,-428.389 400.433,-418.162 404.248,-408.978"/>
<polygon fill="midnightblue" stroke="midnightblue" points="407.549,-410.154 408.153,-399.577 401.084,-407.469 407.549,-410.154"/>
</g>
<!-- Node31&#45;&gt;Node8 -->
<g id="edge67" class="edge"><title>Node31&#45;&gt;Node8</title>
<path fill="none" stroke="midnightblue" d="M499.349,-436.396C483.922,-427.197 463.58,-415.066 446.624,-404.955"/>
<polygon fill="midnightblue" stroke="midnightblue" points="447.987,-401.692 437.605,-399.577 444.401,-407.704 447.987,-401.692"/>
</g>
<!-- Node32&#45;&gt;Node8 -->
<g id="edge69" class="edge"><title>Node32&#45;&gt;Node8</title>
<path fill="none" stroke="midnightblue" d="M252.255,-503.197C266.466,-485.787 292.297,-456.214 319,-436 335.335,-423.634 355.113,-412.594 372.384,-404.014"/>
<polygon fill="midnightblue" stroke="midnightblue" points="374.211,-407.018 381.683,-399.507 371.158,-400.719 374.211,-407.018"/>
</g>
<!-- Node33 -->
<g id="node33" class="node"><title>Node33</title>
<g id="a_node33"><a xlink:title=" ">
<polygon fill="none" stroke="#bfbfbf" points="148,-442 148,-461 272,-461 272,-442 148,-442"/>
<text text-anchor="middle" x="210" y="-449" font-family="Helvetica,sans-Serif" font-size="10.00">xercesc/sax/Locator.hpp</text>
</a>
</g>
</g>
<!-- Node32&#45;&gt;Node33 -->
<g id="edge70" class="edge"><title>Node32&#45;&gt;Node33</title>
<path fill="none" stroke="midnightblue" d="M234.273,-503.396C229.679,-493.763 223.552,-480.914 218.602,-470.537"/>
<polygon fill="midnightblue" stroke="midnightblue" points="221.611,-468.714 214.147,-461.195 215.292,-471.727 221.611,-468.714"/>
</g>
</g>
</svg>
