<?xml version="1.0" encoding="UTF-8" standalone="no"?>
<!DOCTYPE svg PUBLIC "-//W3C//DTD SVG 1.1//EN"
 "http://www.w3.org/Graphics/SVG/1.1/DTD/svg11.dtd">
<!-- Generated by graphviz version 2.43.0 (0)
 -->
<!-- Title: xalanc/XSLT/ElemUse.hpp Pages: 1 -->
<!--zoomable 296 -->
<svg id="main" version="1.1" xmlns="http://www.w3.org/2000/svg" xmlns:xlink="http://www.w3.org/1999/xlink" xml:space="preserve" onload="init(evt)">
<style type="text/css"><![CDATA[
.edge:hover path { stroke: red; }
.edge:hover polygon { stroke: red; fill: red; }
]]></style>
<script type="text/javascript"><![CDATA[
var edges = document.getElementsByTagName('g');
if (edges && edges.length) {
  for (var i=0;i<edges.length;i++) {
    if (edges[i].id.substr(0,4)=='edge') {
      edges[i].setAttribute('class','edge');
    }
  }
}
]]></script>
        <defs>
                <circle id="rim" cx="0" cy="0" r="7"/>
                <circle id="rim2" cx="0" cy="0" r="3.5"/>
                <g id="zoomPlus">
                        <use xlink:href="#rim" fill="#404040">
                                <set attributeName="fill" to="#808080" begin="zoomplus.mouseover" end="zoomplus.mouseout"/>
                        </use>
                        <path d="M-4,0h8M0,-4v8" fill="none" stroke="white" stroke-width="1.5" pointer-events="none"/>
                </g>
                <g id="zoomMin">
                        <use xlink:href="#rim" fill="#404040">
                                <set attributeName="fill" to="#808080" begin="zoomminus.mouseover" end="zoomminus.mouseout"/>
                        </use>
                        <path d="M-4,0h8" fill="none" stroke="white" stroke-width="1.5" pointer-events="none"/>
                </g>
                <g id="dirArrow">
                        <path fill="none" stroke="white" stroke-width="1.5" d="M0,-3.0v7 M-2.5,-0.5L0,-3.0L2.5,-0.5"/>
                </g>
               <g id="resetDef">
                       <use xlink:href="#rim2" fill="#404040">
                               <set attributeName="fill" to="#808080" begin="reset.mouseover" end="reset.mouseout"/>
                       </use>
               </g>
        </defs>

<script type="text/javascript">
var viewWidth = 816;
var viewHeight = 296;
var sectionId = 'dynsection-1';
</script>
<script xlink:href="svgpan.js"/>
<svg id="graph" class="graph">
<g id="viewport">
<title>xalanc/XSLT/ElemUse.hpp</title>
<!-- Node1 -->
<g id="node1" class="node">
<title>Node1</title>
<g id="a_node1"><a xlink:title=" ">
<polygon fill="#bfbfbf" stroke="black" points="253.5,-268.5 253.5,-287.5 396.5,-287.5 396.5,-268.5 253.5,-268.5"/>
<text text-anchor="middle" x="325" y="-275.5" font-family="Helvetica,sans-Serif" font-size="10.00">xalanc/XSLT/ElemUse.hpp</text>
</a>
</g>
</g>
<!-- Node2 -->
<g id="node2" class="node">
<title>Node2</title>
<g id="a_node2"><a xlink:href="ElemAttributeSet_8hpp.html" target="_top" xlink:title=" ">
<polygon fill="none" stroke="black" points="0,-201.5 0,-231.5 146,-231.5 146,-201.5 0,-201.5"/>
<text text-anchor="start" x="8" y="-219.5" font-family="Helvetica,sans-Serif" font-size="10.00">xalanc/XSLT/ElemAttribute</text>
<text text-anchor="middle" x="73" y="-208.5" font-family="Helvetica,sans-Serif" font-size="10.00">Set.hpp</text>
</a>
</g>
</g>
<!-- Node1&#45;&gt;Node2 -->
<g id="edge1" class="edge">
<title>Node1&#45;&gt;Node2</title>
<path fill="none" stroke="midnightblue" d="M279.13,-266.17C237.95,-256.45 177.26,-242.12 132.39,-231.52"/>
<polygon fill="midnightblue" stroke="midnightblue" points="278.36,-269.58 288.89,-268.48 279.97,-262.77 278.36,-269.58"/>
</g>
<!-- Node6 -->
<g id="node6" class="node">
<title>Node6</title>
<g id="a_node6"><a xlink:href="ElemCopy_8hpp.html" target="_top" xlink:title=" ">
<polygon fill="none" stroke="black" points="164.5,-207 164.5,-226 311.5,-226 311.5,-207 164.5,-207"/>
<text text-anchor="middle" x="238" y="-214" font-family="Helvetica,sans-Serif" font-size="10.00">xalanc/XSLT/ElemCopy.hpp</text>
</a>
</g>
</g>
<!-- Node1&#45;&gt;Node6 -->
<g id="edge5" class="edge">
<title>Node1&#45;&gt;Node6</title>
<path fill="none" stroke="midnightblue" d="M303.96,-262.61C287.23,-251.17 264.39,-235.55 250.44,-226.01"/>
<polygon fill="midnightblue" stroke="midnightblue" points="302.3,-265.72 312.54,-268.48 306.26,-259.94 302.3,-265.72"/>
</g>
<!-- Node7 -->
<g id="node7" class="node">
<title>Node7</title>
<g id="a_node7"><a xlink:href="ElemElement_8hpp.html" target="_top" xlink:title=" ">
<polygon fill="none" stroke="black" points="330,-207 330,-226 494,-226 494,-207 330,-207"/>
<text text-anchor="middle" x="412" y="-214" font-family="Helvetica,sans-Serif" font-size="10.00">xalanc/XSLT/ElemElement.hpp</text>
</a>
</g>
</g>
<!-- Node1&#45;&gt;Node7 -->
<g id="edge6" class="edge">
<title>Node1&#45;&gt;Node7</title>
<path fill="none" stroke="midnightblue" d="M346.04,-262.61C362.77,-251.17 385.61,-235.55 399.56,-226.01"/>
<polygon fill="midnightblue" stroke="midnightblue" points="343.74,-259.94 337.46,-268.48 347.7,-265.72 343.74,-259.94"/>
</g>
<!-- Node9 -->
<g id="node9" class="node">
<title>Node9</title>
<g id="a_node9"><a xlink:href="ElemLiteralResult_8hpp.html" target="_top" xlink:title=" ">
<polygon fill="none" stroke="black" points="512.5,-207 512.5,-226 697.5,-226 697.5,-207 512.5,-207"/>
<text text-anchor="middle" x="605" y="-214" font-family="Helvetica,sans-Serif" font-size="10.00">xalanc/XSLT/ElemLiteralResult.hpp</text>
</a>
</g>
</g>
<!-- Node1&#45;&gt;Node9 -->
<g id="edge9" class="edge">
<title>Node1&#45;&gt;Node9</title>
<path fill="none" stroke="midnightblue" d="M375.21,-266.33C429.51,-254.79 514.99,-236.63 564.96,-226.01"/>
<polygon fill="midnightblue" stroke="midnightblue" points="374.17,-262.97 365.12,-268.48 375.63,-269.82 374.17,-262.97"/>
</g>
<!-- Node3 -->
<g id="node3" class="node">
<title>Node3</title>
<g id="a_node3"><a xlink:href="XalanElemAttributeSetAllocator_8hpp.html" target="_top" xlink:title=" ">
<polygon fill="none" stroke="black" points="60.5,-134.5 60.5,-164.5 233.5,-164.5 233.5,-134.5 60.5,-134.5"/>
<text text-anchor="start" x="68.5" y="-152.5" font-family="Helvetica,sans-Serif" font-size="10.00">xalanc/XSLT/XalanElemAttribute</text>
<text text-anchor="middle" x="147" y="-141.5" font-family="Helvetica,sans-Serif" font-size="10.00">SetAllocator.hpp</text>
</a>
</g>
</g>
<!-- Node2&#45;&gt;Node3 -->
<g id="edge2" class="edge">
<title>Node2&#45;&gt;Node3</title>
<path fill="none" stroke="midnightblue" d="M96.8,-194.6C107.97,-184.78 120.99,-173.34 130.97,-164.58"/>
<polygon fill="midnightblue" stroke="midnightblue" points="94.26,-192.17 89.06,-201.4 98.88,-197.43 94.26,-192.17"/>
</g>
<!-- Node4 -->
<g id="node4" class="node">
<title>Node4</title>
<g id="a_node4"><a xlink:href="StylesheetConstructionContextDefault_8hpp.html" target="_top" xlink:title=" ">
<polygon fill="none" stroke="black" points="278.5,-67.5 278.5,-97.5 469.5,-97.5 469.5,-67.5 278.5,-67.5"/>
<text text-anchor="start" x="286.5" y="-85.5" font-family="Helvetica,sans-Serif" font-size="10.00">xalanc/XSLT/StylesheetConstruction</text>
<text text-anchor="middle" x="374" y="-74.5" font-family="Helvetica,sans-Serif" font-size="10.00">ContextDefault.hpp</text>
</a>
</g>
</g>
<!-- Node3&#45;&gt;Node4 -->
<g id="edge3" class="edge">
<title>Node3&#45;&gt;Node4</title>
<path fill="none" stroke="midnightblue" d="M205.62,-131.71C242.56,-121.14 289.71,-107.63 324.72,-97.61"/>
<polygon fill="midnightblue" stroke="midnightblue" points="204.63,-128.36 195.98,-134.48 206.55,-135.09 204.63,-128.36"/>
</g>
<!-- Node5 -->
<g id="node5" class="node">
<title>Node5</title>
<g id="a_node5"><a xlink:href="XalanCompiledStylesheetDefault_8hpp.html" target="_top" xlink:title=" ">
<polygon fill="none" stroke="black" points="272.5,-0.5 272.5,-30.5 475.5,-30.5 475.5,-0.5 272.5,-0.5"/>
<text text-anchor="start" x="280.5" y="-18.5" font-family="Helvetica,sans-Serif" font-size="10.00">xalanc/XalanTransformer</text>
<text text-anchor="middle" x="374" y="-7.5" font-family="Helvetica,sans-Serif" font-size="10.00">/XalanCompiledStylesheetDefault.hpp</text>
</a>
</g>
</g>
<!-- Node4&#45;&gt;Node5 -->
<g id="edge4" class="edge">
<title>Node4&#45;&gt;Node5</title>
<path fill="none" stroke="midnightblue" d="M374,-57.11C374,-48.15 374,-38.32 374,-30.58"/>
<polygon fill="midnightblue" stroke="midnightblue" points="370.5,-57.4 374,-67.4 377.5,-57.4 370.5,-57.4"/>
</g>
<!-- Node8 -->
<g id="node8" class="node">
<title>Node8</title>
<g id="a_node8"><a xlink:href="XalanElemElementAllocator_8hpp.html" target="_top" xlink:title=" ">
<polygon fill="none" stroke="black" points="288.5,-134.5 288.5,-164.5 459.5,-164.5 459.5,-134.5 288.5,-134.5"/>
<text text-anchor="start" x="296.5" y="-152.5" font-family="Helvetica,sans-Serif" font-size="10.00">xalanc/XSLT/XalanElemElement</text>
<text text-anchor="middle" x="374" y="-141.5" font-family="Helvetica,sans-Serif" font-size="10.00">Allocator.hpp</text>
</a>
</g>
</g>
<!-- Node7&#45;&gt;Node8 -->
<g id="edge7" class="edge">
<title>Node7&#45;&gt;Node8</title>
<path fill="none" stroke="midnightblue" d="M401.79,-198.03C395.66,-187.56 387.97,-174.4 382.24,-164.59"/>
<polygon fill="midnightblue" stroke="midnightblue" points="398.81,-199.87 406.88,-206.73 404.85,-196.33 398.81,-199.87"/>
</g>
<!-- Node8&#45;&gt;Node4 -->
<g id="edge8" class="edge">
<title>Node8&#45;&gt;Node4</title>
<path fill="none" stroke="midnightblue" d="M374,-124.11C374,-115.15 374,-105.32 374,-97.58"/>
<polygon fill="midnightblue" stroke="midnightblue" points="370.5,-124.4 374,-134.4 377.5,-124.4 370.5,-124.4"/>
</g>
<!-- Node10 -->
<g id="node10" class="node">
<title>Node10</title>
<g id="a_node10"><a xlink:href="ElemExtensionCall_8hpp.html" target="_top" xlink:title=" ">
<polygon fill="none" stroke="black" points="477.5,-134.5 477.5,-164.5 628.5,-164.5 628.5,-134.5 477.5,-134.5"/>
<text text-anchor="start" x="485.5" y="-152.5" font-family="Helvetica,sans-Serif" font-size="10.00">xalanc/XSLT/ElemExtension</text>
<text text-anchor="middle" x="553" y="-141.5" font-family="Helvetica,sans-Serif" font-size="10.00">Call.hpp</text>
</a>
</g>
</g>
<!-- Node9&#45;&gt;Node10 -->
<g id="edge10" class="edge">
<title>Node9&#45;&gt;Node10</title>
<path fill="none" stroke="midnightblue" d="M591.54,-198.67C583.08,-188.09 572.28,-174.6 564.27,-164.59"/>
<polygon fill="midnightblue" stroke="midnightblue" points="589.01,-201.11 597.99,-206.73 594.47,-196.74 589.01,-201.11"/>
</g>
<!-- Node11 -->
<g id="node11" class="node">
<title>Node11</title>
<g id="a_node11"><a xlink:href="XalanElemLiteralResultAllocator_8hpp.html" target="_top" xlink:title=" ">
<polygon fill="none" stroke="black" points="646.5,-134.5 646.5,-164.5 807.5,-164.5 807.5,-134.5 646.5,-134.5"/>
<text text-anchor="start" x="654.5" y="-152.5" font-family="Helvetica,sans-Serif" font-size="10.00">xalanc/XSLT/XalanElemLiteral</text>
<text text-anchor="middle" x="727" y="-141.5" font-family="Helvetica,sans-Serif" font-size="10.00">ResultAllocator.hpp</text>
</a>
</g>
</g>
<!-- Node9&#45;&gt;Node11 -->
<g id="edge11" class="edge">
<title>Node9&#45;&gt;Node11</title>
<path fill="none" stroke="midnightblue" d="M630.25,-202.05C650.76,-191.12 679.59,-175.76 700.44,-164.65"/>
<polygon fill="midnightblue" stroke="midnightblue" points="628.38,-199.08 621.2,-206.87 631.67,-205.26 628.38,-199.08"/>
</g>
<!-- Node11&#45;&gt;Node4 -->
<g id="edge12" class="edge">
<title>Node11&#45;&gt;Node4</title>
<path fill="none" stroke="midnightblue" d="M640.92,-132.65C582.66,-121.92 506.41,-107.88 450.33,-97.55"/>
<polygon fill="midnightblue" stroke="midnightblue" points="640.37,-136.11 650.84,-134.48 641.64,-129.22 640.37,-136.11"/>
</g>
</g>
</svg>
        <g id="navigator" transform="translate(0 0)" fill="#404254">
                <rect fill="#f2f5e9" fill-opacity="0.5" stroke="#606060" stroke-width=".5" x="0" y="0" width="60" height="60"/>
                <use id="zoomplus" xlink:href="#zoomPlus" x="17" y="9" onmousedown="handleZoom(evt,'in')"/>
                <use id="zoomminus" xlink:href="#zoomMin" x="42" y="9" onmousedown="handleZoom(evt,'out')"/>
                <use id="reset" xlink:href="#resetDef" x="30" y="36" onmousedown="handleReset()"/>
                <g id="arrowUp" xlink:href="#dirArrow" transform="translate(30 24)" onmousedown="handlePan(0,-1)">
                  <use xlink:href="#rim" fill="#404040">
                        <set attributeName="fill" to="#808080" begin="arrowUp.mouseover" end="arrowUp.mouseout"/>
                  </use>
                  <path fill="none" stroke="white" stroke-width="1.5" d="M0,-3.0v7 M-2.5,-0.5L0,-3.0L2.5,-0.5"/>
                </g>
                <g id="arrowRight" xlink:href="#dirArrow" transform="rotate(90) translate(36 -43)" onmousedown="handlePan(1,0)">
                  <use xlink:href="#rim" fill="#404040">
                        <set attributeName="fill" to="#808080" begin="arrowRight.mouseover" end="arrowRight.mouseout"/>
                  </use>
                  <path fill="none" stroke="white" stroke-width="1.5" d="M0,-3.0v7 M-2.5,-0.5L0,-3.0L2.5,-0.5"/>
                </g>
                <g id="arrowDown" xlink:href="#dirArrow" transform="rotate(180) translate(-30 -48)" onmousedown="handlePan(0,1)">
                  <use xlink:href="#rim" fill="#404040">
                        <set attributeName="fill" to="#808080" begin="arrowDown.mouseover" end="arrowDown.mouseout"/>
                  </use>
                  <path fill="none" stroke="white" stroke-width="1.5" d="M0,-3.0v7 M-2.5,-0.5L0,-3.0L2.5,-0.5"/>
                </g>
                <g id="arrowLeft" xlink:href="#dirArrow" transform="rotate(270) translate(-36 17)" onmousedown="handlePan(-1,0)">
                  <use xlink:href="#rim" fill="#404040">
                        <set attributeName="fill" to="#808080" begin="arrowLeft.mouseover" end="arrowLeft.mouseout"/>
                  </use>
                  <path fill="none" stroke="white" stroke-width="1.5" d="M0,-3.0v7 M-2.5,-0.5L0,-3.0L2.5,-0.5"/>
                </g>
        </g>
        <svg viewBox="0 0 15 15" width="100%" height="30px" preserveAspectRatio="xMaxYMin meet">
         <g id="arrow_out" transform="scale(0.3 0.3)">
          <a xlink:href="ElemUse_8hpp__dep__incl_org.svg" target="_base">
           <rect id="button" ry="5" rx="5" y="6" x="6" height="38" width="38"
                fill="#f2f5e9" fill-opacity="0.5" stroke="#606060" stroke-width="1.0"/>
           <path id="arrow"
             d="M 11.500037,31.436501 C 11.940474,20.09759 22.043105,11.32322 32.158766,21.979434 L 37.068811,17.246167 C 37.068811,17.246167 37.088388,32 37.088388,32 L 22.160133,31.978069 C 22.160133,31.978069 26.997745,27.140456 26.997745,27.140456 C 18.528582,18.264221 13.291696,25.230495 11.500037,31.436501 z"
             style="fill:#404040;"/>
          </a>
         </g>
        </svg>
</svg>
