<?xml version="1.0" encoding="UTF-8" standalone="no"?>
<!DOCTYPE svg PUBLIC "-//W3C//DTD SVG 1.1//EN"
 "http://www.w3.org/Graphics/SVG/1.1/DTD/svg11.dtd">
<!-- Generated by graphviz version 2.43.0 (0)
 -->
<!-- Title: xalanc/XSLT/ElemEmpty.hpp Pages: 1 -->
<svg width="196pt" height="151pt"
 viewBox="0.00 0.00 196.00 151.00" xmlns="http://www.w3.org/2000/svg" xmlns:xlink="http://www.w3.org/1999/xlink">
<g id="graph0" class="graph" transform="scale(1 1) rotate(0) translate(4 147)">
<title>xalanc/XSLT/ElemEmpty.hpp</title>
<!-- Node1 -->
<g id="node1" class="node">
<title>Node1</title>
<g id="a_node1"><a xlink:title=" ">
<polygon fill="#bfbfbf" stroke="black" points="17,-123.5 17,-142.5 171,-142.5 171,-123.5 17,-123.5"/>
<text text-anchor="middle" x="94" y="-130.5" font-family="Helvetica,sans-Serif" font-size="10.00">xalanc/XSLT/ElemEmpty.hpp</text>
</a>
</g>
</g>
<!-- Node2 -->
<g id="node2" class="node">
<title>Node2</title>
<g id="a_node2"><a xlink:href="XalanElemEmptyAllocator_8hpp.html" target="_top" xlink:title=" ">
<polygon fill="none" stroke="black" points="13,-56.5 13,-86.5 175,-86.5 175,-56.5 13,-56.5"/>
<text text-anchor="start" x="21" y="-74.5" font-family="Helvetica,sans-Serif" font-size="10.00">xalanc/XSLT/XalanElemEmpty</text>
<text text-anchor="middle" x="94" y="-63.5" font-family="Helvetica,sans-Serif" font-size="10.00">Allocator.hpp</text>
</a>
</g>
</g>
<!-- Node1&#45;&gt;Node2 -->
<g id="edge1" class="edge">
<title>Node1&#45;&gt;Node2</title>
<path fill="none" stroke="midnightblue" d="M94,-113.23C94,-104.59 94,-94.5 94,-86.52"/>
<polygon fill="midnightblue" stroke="midnightblue" points="90.5,-113.48 94,-123.48 97.5,-113.48 90.5,-113.48"/>
</g>
<!-- Node3 -->
<g id="node3" class="node">
<title>Node3</title>
<g id="a_node3"><a xlink:href="StylesheetHandler_8hpp.html" target="_top" xlink:title=" ">
<polygon fill="none" stroke="black" points="0,-0.5 0,-19.5 188,-19.5 188,-0.5 0,-0.5"/>
<text text-anchor="middle" x="94" y="-7.5" font-family="Helvetica,sans-Serif" font-size="10.00">xalanc/XSLT/StylesheetHandler.hpp</text>
</a>
</g>
</g>
<!-- Node2&#45;&gt;Node3 -->
<g id="edge2" class="edge">
<title>Node2&#45;&gt;Node3</title>
<path fill="none" stroke="midnightblue" d="M94,-46.29C94,-36.86 94,-26.65 94,-19.66"/>
<polygon fill="midnightblue" stroke="midnightblue" points="90.5,-46.4 94,-56.4 97.5,-46.4 90.5,-46.4"/>
</g>
</g>
</svg>
