<?xml version="1.0" encoding="UTF-8" standalone="no"?>
<!DOCTYPE svg PUBLIC "-//W3C//DTD SVG 1.1//EN"
 "http://www.w3.org/Graphics/SVG/1.1/DTD/svg11.dtd">
<!-- Generated by graphviz version 2.43.0 (0)
 -->
<!-- Title: xalanc/XSLT/ElemVariable.hpp Pages: 1 -->
<svg width="368pt" height="229pt"
 viewBox="0.00 0.00 368.00 229.00" xmlns="http://www.w3.org/2000/svg" xmlns:xlink="http://www.w3.org/1999/xlink">
<g id="graph0" class="graph" transform="scale(1 1) rotate(0) translate(4 225)">
<title>xalanc/XSLT/ElemVariable.hpp</title>
<!-- Node1 -->
<g id="node1" class="node">
<title>Node1</title>
<g id="a_node1"><a xlink:title=" ">
<polygon fill="#bfbfbf" stroke="black" points="85.5,-201.5 85.5,-220.5 249.5,-220.5 249.5,-201.5 85.5,-201.5"/>
<text text-anchor="middle" x="167.5" y="-208.5" font-family="Helvetica,sans-Serif" font-size="10.00">xalanc/XSLT/ElemVariable.hpp</text>
</a>
</g>
</g>
<!-- Node2 -->
<g id="node2" class="node">
<title>Node2</title>
<g id="a_node2"><a xlink:href="ElemParam_8hpp.html" target="_top" xlink:title=" ">
<polygon fill="none" stroke="black" points="0,-140 0,-159 155,-159 155,-140 0,-140"/>
<text text-anchor="middle" x="77.5" y="-147" font-family="Helvetica,sans-Serif" font-size="10.00">xalanc/XSLT/ElemParam.hpp</text>
</a>
</g>
</g>
<!-- Node1&#45;&gt;Node2 -->
<g id="edge1" class="edge">
<title>Node1&#45;&gt;Node2</title>
<path fill="none" stroke="midnightblue" d="M146.22,-195.93C128.87,-184.46 104.93,-168.63 90.37,-159.01"/>
<polygon fill="midnightblue" stroke="midnightblue" points="144.33,-198.88 154.61,-201.48 148.19,-193.04 144.33,-198.88"/>
</g>
<!-- Node3 -->
<g id="node3" class="node">
<title>Node3</title>
<g id="a_node3"><a xlink:href="XalanElemVariableAllocator_8hpp.html" target="_top" xlink:title=" ">
<polygon fill="none" stroke="black" points="173.5,-134.5 173.5,-164.5 343.5,-164.5 343.5,-134.5 173.5,-134.5"/>
<text text-anchor="start" x="181.5" y="-152.5" font-family="Helvetica,sans-Serif" font-size="10.00">xalanc/XSLT/XalanElemVariable</text>
<text text-anchor="middle" x="258.5" y="-141.5" font-family="Helvetica,sans-Serif" font-size="10.00">Allocator.hpp</text>
</a>
</g>
</g>
<!-- Node1&#45;&gt;Node3 -->
<g id="edge2" class="edge">
<title>Node1&#45;&gt;Node3</title>
<path fill="none" stroke="midnightblue" d="M189.31,-195.74C203.77,-186.28 222.67,-173.93 237.05,-164.52"/>
<polygon fill="midnightblue" stroke="midnightblue" points="186.99,-193.07 180.54,-201.48 190.82,-198.93 186.99,-193.07"/>
</g>
<!-- Node4 -->
<g id="node4" class="node">
<title>Node4</title>
<g id="a_node4"><a xlink:href="StylesheetConstructionContextDefault_8hpp.html" target="_top" xlink:title=" ">
<polygon fill="none" stroke="black" points="163,-67.5 163,-97.5 354,-97.5 354,-67.5 163,-67.5"/>
<text text-anchor="start" x="171" y="-85.5" font-family="Helvetica,sans-Serif" font-size="10.00">xalanc/XSLT/StylesheetConstruction</text>
<text text-anchor="middle" x="258.5" y="-74.5" font-family="Helvetica,sans-Serif" font-size="10.00">ContextDefault.hpp</text>
</a>
</g>
</g>
<!-- Node3&#45;&gt;Node4 -->
<g id="edge3" class="edge">
<title>Node3&#45;&gt;Node4</title>
<path fill="none" stroke="midnightblue" d="M258.5,-124.11C258.5,-115.15 258.5,-105.32 258.5,-97.58"/>
<polygon fill="midnightblue" stroke="midnightblue" points="255,-124.4 258.5,-134.4 262,-124.4 255,-124.4"/>
</g>
<!-- Node5 -->
<g id="node5" class="node">
<title>Node5</title>
<g id="a_node5"><a xlink:href="XalanCompiledStylesheetDefault_8hpp.html" target="_top" xlink:title=" ">
<polygon fill="none" stroke="black" points="157,-0.5 157,-30.5 360,-30.5 360,-0.5 157,-0.5"/>
<text text-anchor="start" x="165" y="-18.5" font-family="Helvetica,sans-Serif" font-size="10.00">xalanc/XalanTransformer</text>
<text text-anchor="middle" x="258.5" y="-7.5" font-family="Helvetica,sans-Serif" font-size="10.00">/XalanCompiledStylesheetDefault.hpp</text>
</a>
</g>
</g>
<!-- Node4&#45;&gt;Node5 -->
<g id="edge4" class="edge">
<title>Node4&#45;&gt;Node5</title>
<path fill="none" stroke="midnightblue" d="M258.5,-57.11C258.5,-48.15 258.5,-38.32 258.5,-30.58"/>
<polygon fill="midnightblue" stroke="midnightblue" points="255,-57.4 258.5,-67.4 262,-57.4 255,-57.4"/>
</g>
</g>
</svg>
