<?xml version="1.0" encoding="UTF-8" standalone="no"?>
<!DOCTYPE svg PUBLIC "-//W3C//DTD SVG 1.1//EN"
 "http://www.w3.org/Graphics/SVG/1.1/DTD/svg11.dtd">
<!-- Generated by graphviz version 2.38.0 (20140413.2041)
 -->
<!-- Title: xalanc/XSLT/ElemUse.hpp Pages: 1 -->
<svg width="754pt" height="296pt"
 viewBox="0.00 0.00 753.50 296.00" xmlns="http://www.w3.org/2000/svg" xmlns:xlink="http://www.w3.org/1999/xlink">
<g id="graph0" class="graph" transform="scale(1 1) rotate(0) translate(4 292)">
<title>xalanc/XSLT/ElemUse.hpp</title>
<!-- Node1 -->
<g id="node1" class="node"><title>Node1</title>
<g id="a_node1"><a xlink:title=" ">
<polygon fill="#bfbfbf" stroke="black" points="234.5,-268.5 234.5,-287.5 366.5,-287.5 366.5,-268.5 234.5,-268.5"/>
<text text-anchor="middle" x="300.5" y="-275.5" font-family="Helvetica,sans-Serif" font-size="10.00">xalanc/XSLT/ElemUse.hpp</text>
</a>
</g>
</g>
<!-- Node2 -->
<g id="node2" class="node"><title>Node2</title>
<g id="a_node2"><a xlink:href="ElemAttributeSet_8hpp.html" target="_top" xlink:title=" ">
<polygon fill="none" stroke="black" points="0,-201.5 0,-231.5 133,-231.5 133,-201.5 0,-201.5"/>
<text text-anchor="start" x="8" y="-219.5" font-family="Helvetica,sans-Serif" font-size="10.00">xalanc/XSLT/ElemAttribute</text>
<text text-anchor="middle" x="66.5" y="-208.5" font-family="Helvetica,sans-Serif" font-size="10.00">Set.hpp</text>
</a>
</g>
</g>
<!-- Node1&#45;&gt;Node2 -->
<g id="edge1" class="edge"><title>Node1&#45;&gt;Node2</title>
<path fill="none" stroke="midnightblue" d="M257.174,-265.983C218.954,-256.265 163.051,-242.05 121.649,-231.523"/>
<polygon fill="midnightblue" stroke="midnightblue" points="256.419,-269.403 266.974,-268.475 258.144,-262.619 256.419,-269.403"/>
</g>
<!-- Node6 -->
<g id="node6" class="node"><title>Node6</title>
<g id="a_node6"><a xlink:href="ElemCopy_8hpp.html" target="_top" xlink:title=" ">
<polygon fill="none" stroke="black" points="151,-207 151,-226 288,-226 288,-207 151,-207"/>
<text text-anchor="middle" x="219.5" y="-214" font-family="Helvetica,sans-Serif" font-size="10.00">xalanc/XSLT/ElemCopy.hpp</text>
</a>
</g>
</g>
<!-- Node1&#45;&gt;Node6 -->
<g id="edge5" class="edge"><title>Node1&#45;&gt;Node6</title>
<path fill="none" stroke="midnightblue" d="M280.48,-262.294C264.942,-250.88 243.947,-235.458 231.084,-226.009"/>
<polygon fill="midnightblue" stroke="midnightblue" points="278.763,-265.376 288.895,-268.475 282.907,-259.734 278.763,-265.376"/>
</g>
<!-- Node7 -->
<g id="node7" class="node"><title>Node7</title>
<g id="a_node7"><a xlink:href="ElemElement_8hpp.html" target="_top" xlink:title=" ">
<polygon fill="none" stroke="black" points="306,-207 306,-226 457,-226 457,-207 306,-207"/>
<text text-anchor="middle" x="381.5" y="-214" font-family="Helvetica,sans-Serif" font-size="10.00">xalanc/XSLT/ElemElement.hpp</text>
</a>
</g>
</g>
<!-- Node1&#45;&gt;Node7 -->
<g id="edge6" class="edge"><title>Node1&#45;&gt;Node7</title>
<path fill="none" stroke="midnightblue" d="M320.52,-262.294C336.058,-250.88 357.053,-235.458 369.916,-226.009"/>
<polygon fill="midnightblue" stroke="midnightblue" points="318.093,-259.734 312.105,-268.475 322.237,-265.376 318.093,-259.734"/>
</g>
<!-- Node9 -->
<g id="node9" class="node"><title>Node9</title>
<g id="a_node9"><a xlink:href="ElemLiteralResult_8hpp.html" target="_top" xlink:title=" ">
<polygon fill="none" stroke="black" points="475,-207 475,-226 644,-226 644,-207 475,-207"/>
<text text-anchor="middle" x="559.5" y="-214" font-family="Helvetica,sans-Serif" font-size="10.00">xalanc/XSLT/ElemLiteralResult.hpp</text>
</a>
</g>
</g>
<!-- Node1&#45;&gt;Node9 -->
<g id="edge9" class="edge"><title>Node1&#45;&gt;Node9</title>
<path fill="none" stroke="midnightblue" d="M347.572,-266.186C397.829,-254.641 476.43,-236.584 522.46,-226.009"/>
<polygon fill="midnightblue" stroke="midnightblue" points="346.571,-262.825 337.608,-268.475 348.138,-269.647 346.571,-262.825"/>
</g>
<!-- Node3 -->
<g id="node3" class="node"><title>Node3</title>
<g id="a_node3"><a xlink:href="XalanElemAttributeSetAllocator_8hpp.html" target="_top" xlink:title=" ">
<polygon fill="none" stroke="black" points="58.5,-134.5 58.5,-164.5 214.5,-164.5 214.5,-134.5 58.5,-134.5"/>
<text text-anchor="start" x="66.5" y="-152.5" font-family="Helvetica,sans-Serif" font-size="10.00">xalanc/XSLT/XalanElemAttribute</text>
<text text-anchor="middle" x="136.5" y="-141.5" font-family="Helvetica,sans-Serif" font-size="10.00">SetAllocator.hpp</text>
</a>
</g>
</g>
<!-- Node2&#45;&gt;Node3 -->
<g id="edge2" class="edge"><title>Node2&#45;&gt;Node3</title>
<path fill="none" stroke="midnightblue" d="M89.3184,-194.311C99.8187,-184.561 111.99,-173.259 121.341,-164.577"/>
<polygon fill="midnightblue" stroke="midnightblue" points="86.6353,-192.027 81.689,-201.396 91.3985,-197.156 86.6353,-192.027"/>
</g>
<!-- Node4 -->
<g id="node4" class="node"><title>Node4</title>
<g id="a_node4"><a xlink:href="StylesheetConstructionContextDefault_8hpp.html" target="_top" xlink:title=" ">
<polygon fill="none" stroke="black" points="258,-67.5 258,-97.5 433,-97.5 433,-67.5 258,-67.5"/>
<text text-anchor="start" x="266" y="-85.5" font-family="Helvetica,sans-Serif" font-size="10.00">xalanc/XSLT/StylesheetConstruction</text>
<text text-anchor="middle" x="345.5" y="-74.5" font-family="Helvetica,sans-Serif" font-size="10.00">ContextDefault.hpp</text>
</a>
</g>
</g>
<!-- Node3&#45;&gt;Node4 -->
<g id="edge3" class="edge"><title>Node3&#45;&gt;Node4</title>
<path fill="none" stroke="midnightblue" d="M191.341,-131.444C225.22,-120.908 268.172,-107.549 300.128,-97.6109"/>
<polygon fill="midnightblue" stroke="midnightblue" points="190.102,-128.164 181.593,-134.476 192.181,-134.848 190.102,-128.164"/>
</g>
<!-- Node5 -->
<g id="node5" class="node"><title>Node5</title>
<g id="a_node5"><a xlink:href="XalanCompiledStylesheetDefault_8hpp.html" target="_top" xlink:title=" ">
<polygon fill="none" stroke="black" points="256,-0.5 256,-30.5 435,-30.5 435,-0.5 256,-0.5"/>
<text text-anchor="start" x="264" y="-18.5" font-family="Helvetica,sans-Serif" font-size="10.00">xalanc/XalanTransformer</text>
<text text-anchor="middle" x="345.5" y="-7.5" font-family="Helvetica,sans-Serif" font-size="10.00">/XalanCompiledStylesheetDefault.hpp</text>
</a>
</g>
</g>
<!-- Node4&#45;&gt;Node5 -->
<g id="edge4" class="edge"><title>Node4&#45;&gt;Node5</title>
<path fill="none" stroke="midnightblue" d="M345.5,-57.1081C345.5,-48.1539 345.5,-38.3227 345.5,-30.5765"/>
<polygon fill="midnightblue" stroke="midnightblue" points="342,-57.3959 345.5,-67.396 349,-57.396 342,-57.3959"/>
</g>
<!-- Node8 -->
<g id="node8" class="node"><title>Node8</title>
<g id="a_node8"><a xlink:href="XalanElemElementAllocator_8hpp.html" target="_top" xlink:title=" ">
<polygon fill="none" stroke="black" points="268,-134.5 268,-164.5 423,-164.5 423,-134.5 268,-134.5"/>
<text text-anchor="start" x="276" y="-152.5" font-family="Helvetica,sans-Serif" font-size="10.00">xalanc/XSLT/XalanElemElement</text>
<text text-anchor="middle" x="345.5" y="-141.5" font-family="Helvetica,sans-Serif" font-size="10.00">Allocator.hpp</text>
</a>
</g>
</g>
<!-- Node7&#45;&gt;Node8 -->
<g id="edge7" class="edge"><title>Node7&#45;&gt;Node8</title>
<path fill="none" stroke="midnightblue" d="M371.649,-197.713C365.875,-187.287 358.682,-174.301 353.303,-164.589"/>
<polygon fill="midnightblue" stroke="midnightblue" points="368.738,-199.682 376.645,-206.734 374.862,-196.29 368.738,-199.682"/>
</g>
<!-- Node8&#45;&gt;Node4 -->
<g id="edge8" class="edge"><title>Node8&#45;&gt;Node4</title>
<path fill="none" stroke="midnightblue" d="M345.5,-124.108C345.5,-115.154 345.5,-105.323 345.5,-97.5765"/>
<polygon fill="midnightblue" stroke="midnightblue" points="342,-124.396 345.5,-134.396 349,-124.396 342,-124.396"/>
</g>
<!-- Node10 -->
<g id="node10" class="node"><title>Node10</title>
<g id="a_node10"><a xlink:href="ElemExtensionCall_8hpp.html" target="_top" xlink:title=" ">
<polygon fill="none" stroke="black" points="441.5,-134.5 441.5,-164.5 581.5,-164.5 581.5,-134.5 441.5,-134.5"/>
<text text-anchor="start" x="449.5" y="-152.5" font-family="Helvetica,sans-Serif" font-size="10.00">xalanc/XSLT/ElemExtension</text>
<text text-anchor="middle" x="511.5" y="-141.5" font-family="Helvetica,sans-Serif" font-size="10.00">Call.hpp</text>
</a>
</g>
</g>
<!-- Node9&#45;&gt;Node10 -->
<g id="edge10" class="edge"><title>Node9&#45;&gt;Node10</title>
<path fill="none" stroke="midnightblue" d="M547.074,-198.673C539.262,-188.094 529.298,-174.602 521.904,-164.589"/>
<polygon fill="midnightblue" stroke="midnightblue" points="544.271,-200.769 553.027,-206.734 549.902,-196.61 544.271,-200.769"/>
</g>
<!-- Node11 -->
<g id="node11" class="node"><title>Node11</title>
<g id="a_node11"><a xlink:href="XalanElemLiteralResultAllocator_8hpp.html" target="_top" xlink:title=" ">
<polygon fill="none" stroke="black" points="599.5,-134.5 599.5,-164.5 745.5,-164.5 745.5,-134.5 599.5,-134.5"/>
<text text-anchor="start" x="607.5" y="-152.5" font-family="Helvetica,sans-Serif" font-size="10.00">xalanc/XSLT/XalanElemLiteral</text>
<text text-anchor="middle" x="672.5" y="-141.5" font-family="Helvetica,sans-Serif" font-size="10.00">ResultAllocator.hpp</text>
</a>
</g>
</g>
<!-- Node9&#45;&gt;Node11 -->
<g id="edge11" class="edge"><title>Node9&#45;&gt;Node11</title>
<path fill="none" stroke="midnightblue" d="M583.658,-201.604C602.633,-190.689 628.946,-175.553 648.007,-164.589"/>
<polygon fill="midnightblue" stroke="midnightblue" points="581.663,-198.714 574.74,-206.734 585.153,-204.781 581.663,-198.714"/>
</g>
<!-- Node11&#45;&gt;Node4 -->
<g id="edge12" class="edge"><title>Node11&#45;&gt;Node4</title>
<path fill="none" stroke="midnightblue" d="M592.088,-132.516C538.212,-121.807 467.944,-107.839 416.207,-97.5549"/>
<polygon fill="midnightblue" stroke="midnightblue" points="591.458,-135.959 601.948,-134.476 592.823,-129.093 591.458,-135.959"/>
</g>
</g>
</svg>
