<?xml version="1.0" encoding="UTF-8" standalone="no"?>
<!DOCTYPE svg PUBLIC "-//W3C//DTD SVG 1.1//EN"
 "http://www.w3.org/Graphics/SVG/1.1/DTD/svg11.dtd">
<!-- Generated by graphviz version 2.38.0 (20140413.2041)
 -->
<!-- Title: xalanc/PlatformSupport/FormatterListener.hpp Pages: 1 -->
<!--zoomable 475 -->
<svg id="main" version="1.1" xmlns="http://www.w3.org/2000/svg" xmlns:xlink="http://www.w3.org/1999/xlink" xml:space="preserve" onload="init(evt)">
<style type="text/css"><![CDATA[
.edge:hover path { stroke: red; }
.edge:hover polygon { stroke: red; fill: red; }
]]></style>
<script type="text/javascript"><![CDATA[
var edges = document.getElementsByTagName('g');
if (edges && edges.length) {
  for (var i=0;i<edges.length;i++) {
    if (edges[i].id.substr(0,4)=='edge') {
      edges[i].setAttribute('class','edge');
    }
  }
}
]]></script>
        <defs>
                <circle id="rim" cx="0" cy="0" r="7"/>
                <circle id="rim2" cx="0" cy="0" r="3.5"/>
                <g id="zoomPlus">
                        <use xlink:href="#rim" fill="#404040">
                                <set attributeName="fill" to="#808080" begin="zoomplus.mouseover" end="zoomplus.mouseout"/>
                        </use>
                        <path d="M-4,0h8M0,-4v8" fill="none" stroke="white" stroke-width="1.5" pointer-events="none"/>
                </g>
                <g id="zoomMin">
                        <use xlink:href="#rim" fill="#404040">
                                <set attributeName="fill" to="#808080" begin="zoomminus.mouseover" end="zoomminus.mouseout"/>
                        </use>
                        <path d="M-4,0h8" fill="none" stroke="white" stroke-width="1.5" pointer-events="none"/>
                </g>
                <g id="dirArrow">
                        <path fill="none" stroke="white" stroke-width="1.5" d="M0,-3.0v7 M-2.5,-0.5L0,-3.0L2.5,-0.5"/>
                </g>
               <g id="resetDef">
                       <use xlink:href="#rim2" fill="#404040">
                               <set attributeName="fill" to="#808080" begin="reset.mouseover" end="reset.mouseout"/>
                       </use>
               </g>
        </defs>

<script type="text/javascript">
var viewWidth = 1133;
var viewHeight = 475;
var sectionId = 'dynsection-0';
</script>
<script xlink:href="svgpan.js"/>
<svg id="graph" class="graph">
<g id="viewport">
<title>xalanc/PlatformSupport/FormatterListener.hpp</title>
<!-- Node1 -->
<g id="node1" class="node"><title>Node1</title>
<g id="a_node1"><a xlink:title=" ">
<polygon fill="#bfbfbf" stroke="black" points="174.5,-436.5 174.5,-466.5 292.5,-466.5 292.5,-436.5 174.5,-436.5"/>
<text text-anchor="start" x="182.5" y="-454.5" font-family="Helvetica,sans-Serif" font-size="10.00">xalanc/PlatformSupport</text>
<text text-anchor="middle" x="233.5" y="-443.5" font-family="Helvetica,sans-Serif" font-size="10.00">/FormatterListener.hpp</text>
</a>
</g>
</g>
<!-- Node2 -->
<g id="node2" class="node"><title>Node2</title>
<g id="a_node2"><a xlink:href="PlatformSupportDefinitions_8hpp.html" target="_top" xlink:title=" ">
<polygon fill="none" stroke="black" points="0,-313.5 0,-343.5 153,-343.5 153,-313.5 0,-313.5"/>
<text text-anchor="start" x="8" y="-331.5" font-family="Helvetica,sans-Serif" font-size="10.00">xalanc/PlatformSupport</text>
<text text-anchor="middle" x="76.5" y="-320.5" font-family="Helvetica,sans-Serif" font-size="10.00">/PlatformSupportDefinitions.hpp</text>
</a>
</g>
</g>
<!-- Node1&#45;&gt;Node2 -->
<g id="edge1" class="edge"><title>Node1&#45;&gt;Node2</title>
<path fill="none" stroke="midnightblue" d="M200.911,-436.465C181.994,-427.496 158.272,-414.789 139.5,-400 121.715,-385.989 104.807,-366.611 92.9926,-351.716"/>
<polygon fill="midnightblue" stroke="midnightblue" points="95.5486,-349.3 86.6574,-343.538 90.0149,-353.587 95.5486,-349.3"/>
</g>
<!-- Node7 -->
<g id="node7" class="node"><title>Node7</title>
<g id="a_node7"><a xlink:title=" ">
<polygon fill="none" stroke="#bfbfbf" points="149,-380.5 149,-399.5 318,-399.5 318,-380.5 149,-380.5"/>
<text text-anchor="middle" x="233.5" y="-387.5" font-family="Helvetica,sans-Serif" font-size="10.00">xercesc/sax/DocumentHandler.hpp</text>
</a>
</g>
</g>
<!-- Node1&#45;&gt;Node7 -->
<g id="edge6" class="edge"><title>Node1&#45;&gt;Node7</title>
<path fill="none" stroke="midnightblue" d="M233.5,-436.399C233.5,-428.466 233.5,-418.458 233.5,-409.858"/>
<polygon fill="midnightblue" stroke="midnightblue" points="237,-409.658 233.5,-399.658 230,-409.658 237,-409.658"/>
</g>
<!-- Node8 -->
<g id="node8" class="node"><title>Node8</title>
<g id="a_node8"><a xlink:href="XalanDOMString_8hpp.html" target="_top" xlink:title=" ">
<polygon fill="none" stroke="black" points="350,-380.5 350,-399.5 537,-399.5 537,-380.5 350,-380.5"/>
<text text-anchor="middle" x="443.5" y="-387.5" font-family="Helvetica,sans-Serif" font-size="10.00">xalanc/XalanDOM/XalanDOMString.hpp</text>
</a>
</g>
</g>
<!-- Node1&#45;&gt;Node8 -->
<g id="edge7" class="edge"><title>Node1&#45;&gt;Node8</title>
<path fill="none" stroke="midnightblue" d="M283.001,-436.475C319.863,-426.03 369.532,-411.958 403.805,-402.247"/>
<polygon fill="midnightblue" stroke="midnightblue" points="404.81,-405.6 413.478,-399.506 402.902,-398.865 404.81,-405.6"/>
</g>
<!-- Node3 -->
<g id="node3" class="node"><title>Node3</title>
<g id="a_node3"><a xlink:href="PlatformDefinitions_8hpp.html" target="_top" xlink:title=" ">
<polygon fill="none" stroke="black" points="273.5,-73 273.5,-92 455.5,-92 455.5,-73 273.5,-73"/>
<text text-anchor="middle" x="364.5" y="-80" font-family="Helvetica,sans-Serif" font-size="10.00">xalanc/Include/PlatformDefinitions.hpp</text>
</a>
</g>
</g>
<!-- Node2&#45;&gt;Node3 -->
<g id="edge2" class="edge"><title>Node2&#45;&gt;Node3</title>
<path fill="none" stroke="midnightblue" d="M92.4344,-313.464C129.025,-281.308 222.027,-199.992 301.5,-134 316.045,-121.922 332.751,-108.553 345.304,-98.606"/>
<polygon fill="midnightblue" stroke="midnightblue" points="347.577,-101.271 353.253,-92.3243 343.237,-95.7784 347.577,-101.271"/>
</g>
<!-- Node4 -->
<g id="node4" class="node"><title>Node4</title>
<g id="a_node4"><a xlink:title=" ">
<polygon fill="none" stroke="#bfbfbf" points="162.5,-0.5 162.5,-30.5 270.5,-30.5 270.5,-0.5 162.5,-0.5"/>
<text text-anchor="start" x="170.5" y="-18.5" font-family="Helvetica,sans-Serif" font-size="10.00">xercesc/util/Xerces</text>
<text text-anchor="middle" x="216.5" y="-7.5" font-family="Helvetica,sans-Serif" font-size="10.00">_autoconf_config.hpp</text>
</a>
</g>
</g>
<!-- Node3&#45;&gt;Node4 -->
<g id="edge3" class="edge"><title>Node3&#45;&gt;Node4</title>
<path fill="none" stroke="midnightblue" d="M344.847,-72.8685C322.735,-63.1572 286.195,-47.1092 257.746,-34.6148"/>
<polygon fill="midnightblue" stroke="midnightblue" points="259.004,-31.3447 248.441,-30.5281 256.189,-37.7539 259.004,-31.3447"/>
</g>
<!-- Node5 -->
<g id="node5" class="node"><title>Node5</title>
<g id="a_node5"><a xlink:title=" ">
<polygon fill="none" stroke="#bfbfbf" points="289,-6 289,-25 440,-25 440,-6 289,-6"/>
<text text-anchor="middle" x="364.5" y="-13" font-family="Helvetica,sans-Serif" font-size="10.00">xercesc/util/XercesVersion.hpp</text>
</a>
</g>
</g>
<!-- Node3&#45;&gt;Node5 -->
<g id="edge4" class="edge"><title>Node3&#45;&gt;Node5</title>
<path fill="none" stroke="midnightblue" d="M364.5,-72.7338C364.5,-63.1826 364.5,-47.6183 364.5,-35.2829"/>
<polygon fill="midnightblue" stroke="midnightblue" points="368,-35.1273 364.5,-25.1273 361,-35.1273 368,-35.1273"/>
</g>
<!-- Node6 -->
<g id="node6" class="node"><title>Node6</title>
<g id="a_node6"><a xlink:href="XalanVersion_8hpp.html" target="_top" xlink:title=" ">
<polygon fill="none" stroke="black" points="458.5,-6 458.5,-25 550.5,-25 550.5,-6 458.5,-6"/>
<text text-anchor="middle" x="504.5" y="-13" font-family="Helvetica,sans-Serif" font-size="10.00">XalanVersion.hpp</text>
</a>
</g>
</g>
<!-- Node3&#45;&gt;Node6 -->
<g id="edge5" class="edge"><title>Node3&#45;&gt;Node6</title>
<path fill="none" stroke="midnightblue" d="M383.091,-72.8685C407.044,-61.7476 448.895,-42.3167 476.654,-29.4286"/>
<polygon fill="midnightblue" stroke="midnightblue" points="478.236,-32.5529 485.832,-25.1672 475.288,-26.2038 478.236,-32.5529"/>
</g>
<!-- Node9 -->
<g id="node9" class="node"><title>Node9</title>
<g id="a_node9"><a xlink:href="XalanDOMDefinitions_8hpp.html" target="_top" xlink:title=" ">
<polygon fill="none" stroke="black" points="189.5,-257.5 189.5,-276.5 395.5,-276.5 395.5,-257.5 189.5,-257.5"/>
<text text-anchor="middle" x="292.5" y="-264.5" font-family="Helvetica,sans-Serif" font-size="10.00">xalanc/XalanDOM/XalanDOMDefinitions.hpp</text>
</a>
</g>
</g>
<!-- Node8&#45;&gt;Node9 -->
<g id="edge8" class="edge"><title>Node8&#45;&gt;Node9</title>
<path fill="none" stroke="midnightblue" d="M372.508,-380.493C304.809,-371.652 211.544,-357.276 200.5,-344 191.689,-333.408 193.205,-324.688 200.5,-313 210.258,-297.364 227.197,-287.013 243.902,-280.23"/>
<polygon fill="midnightblue" stroke="midnightblue" points="245.482,-283.378 253.655,-276.636 243.062,-276.81 245.482,-283.378"/>
</g>
<!-- Node10 -->
<g id="node10" class="node"><title>Node10</title>
<g id="a_node10"><a xlink:title=" ">
<polygon fill="none" stroke="#bfbfbf" points="925,-73 925,-92 974,-92 974,-73 925,-73"/>
<text text-anchor="middle" x="949.5" y="-80" font-family="Helvetica,sans-Serif" font-size="10.00">cassert</text>
</a>
</g>
</g>
<!-- Node8&#45;&gt;Node10 -->
<g id="edge10" class="edge"><title>Node8&#45;&gt;Node10</title>
<path fill="none" stroke="midnightblue" d="M537.337,-381.917C723.879,-366.571 1123.5,-326.831 1123.5,-268 1123.5,-268 1123.5,-268 1123.5,-210 1123.5,-175.183 1128.24,-159.466 1104.5,-134 1073.28,-100.514 1019.62,-89.183 984.354,-85.3785"/>
<polygon fill="midnightblue" stroke="midnightblue" points="984.324,-81.8608 974.043,-84.4232 983.678,-88.8309 984.324,-81.8608"/>
</g>
<!-- Node11 -->
<g id="node11" class="node"><title>Node11</title>
<g id="a_node11"><a xlink:href="STLHelper_8hpp.html" target="_top" xlink:title=" ">
<polygon fill="none" stroke="black" points="528.5,-319 528.5,-338 674.5,-338 674.5,-319 528.5,-319"/>
<text text-anchor="middle" x="601.5" y="-326" font-family="Helvetica,sans-Serif" font-size="10.00">xalanc/Include/STLHelper.hpp</text>
</a>
</g>
</g>
<!-- Node8&#45;&gt;Node11 -->
<g id="edge11" class="edge"><title>Node8&#45;&gt;Node11</title>
<path fill="none" stroke="midnightblue" d="M466.138,-380.475C493.24,-370.269 538.81,-353.108 569.504,-341.549"/>
<polygon fill="midnightblue" stroke="midnightblue" points="570.78,-344.809 578.904,-338.009 568.313,-338.258 570.78,-344.809"/>
</g>
<!-- Node17 -->
<g id="node17" class="node"><title>Node17</title>
<g id="a_node17"><a xlink:href="XalanVector_8hpp.html" target="_top" xlink:title=" ">
<polygon fill="none" stroke="black" points="605.5,-201.5 605.5,-220.5 757.5,-220.5 757.5,-201.5 605.5,-201.5"/>
<text text-anchor="middle" x="681.5" y="-208.5" font-family="Helvetica,sans-Serif" font-size="10.00">xalanc/Include/XalanVector.hpp</text>
</a>
</g>
</g>
<!-- Node8&#45;&gt;Node17 -->
<g id="edge45" class="edge"><title>Node8&#45;&gt;Node17</title>
<path fill="none" stroke="midnightblue" d="M450.925,-380.381C463.922,-365.581 492.035,-334.824 519.5,-313 564.609,-277.156 623.157,-243.419 656.091,-225.456"/>
<polygon fill="midnightblue" stroke="midnightblue" points="657.924,-228.444 665.057,-220.611 654.596,-222.285 657.924,-228.444"/>
</g>
<!-- Node21 -->
<g id="node21" class="node"><title>Node21</title>
<g id="a_node21"><a xlink:href="XalanMemoryManagement_8hpp.html" target="_top" xlink:title=" ">
<polygon fill="none" stroke="black" points="472.5,-134.5 472.5,-164.5 612.5,-164.5 612.5,-134.5 472.5,-134.5"/>
<text text-anchor="start" x="480.5" y="-152.5" font-family="Helvetica,sans-Serif" font-size="10.00">xalanc/Include/XalanMemory</text>
<text text-anchor="middle" x="542.5" y="-141.5" font-family="Helvetica,sans-Serif" font-size="10.00">Management.hpp</text>
</a>
</g>
</g>
<!-- Node8&#45;&gt;Node21 -->
<g id="edge44" class="edge"><title>Node8&#45;&gt;Node21</title>
<path fill="none" stroke="midnightblue" d="M443.278,-380.417C442.937,-352.435 444.902,-262.143 481.5,-201 488.576,-189.178 499.459,-178.874 510.085,-170.71"/>
<polygon fill="midnightblue" stroke="midnightblue" points="512.428,-173.334 518.474,-164.633 508.322,-167.665 512.428,-173.334"/>
</g>
<!-- Node24 -->
<g id="node24" class="node"><title>Node24</title>
<g id="a_node24"><a xlink:href="XalanDOMException_8hpp.html" target="_top" xlink:title=" ">
<polygon fill="none" stroke="black" points="210,-319 210,-338 415,-338 415,-319 210,-319"/>
<text text-anchor="middle" x="312.5" y="-326" font-family="Helvetica,sans-Serif" font-size="10.00">xalanc/XalanDOM/XalanDOMException.hpp</text>
</a>
</g>
</g>
<!-- Node8&#45;&gt;Node24 -->
<g id="edge46" class="edge"><title>Node8&#45;&gt;Node24</title>
<path fill="none" stroke="midnightblue" d="M424.731,-380.475C402.649,-370.445 365.781,-353.7 340.361,-342.155"/>
<polygon fill="midnightblue" stroke="midnightblue" points="341.787,-338.958 331.234,-338.009 338.892,-345.331 341.787,-338.958"/>
</g>
<!-- Node9&#45;&gt;Node3 -->
<g id="edge9" class="edge"><title>Node9&#45;&gt;Node3</title>
<path fill="none" stroke="midnightblue" d="M292.404,-257.44C292.495,-235.608 294.878,-176.573 316.5,-134 323.415,-120.384 335.184,-107.916 345.337,-98.7749"/>
<polygon fill="midnightblue" stroke="midnightblue" points="347.695,-101.364 353.01,-92.1989 343.139,-96.049 347.695,-101.364"/>
</g>
<!-- Node11&#45;&gt;Node3 -->
<g id="edge12" class="edge"><title>Node11&#45;&gt;Node3</title>
<path fill="none" stroke="midnightblue" d="M577.936,-318.976C529.247,-299.965 418.129,-249.037 370.5,-165 359.539,-145.661 359.748,-119.466 361.559,-102.051"/>
<polygon fill="midnightblue" stroke="midnightblue" points="365.043,-102.407 362.88,-92.0348 358.103,-101.491 365.043,-102.407"/>
</g>
<!-- Node12 -->
<g id="node12" class="node"><title>Node12</title>
<g id="a_node12"><a xlink:title=" ">
<polygon fill="none" stroke="#bfbfbf" points="1039.5,-140 1039.5,-159 1095.5,-159 1095.5,-140 1039.5,-140"/>
<text text-anchor="middle" x="1067.5" y="-147" font-family="Helvetica,sans-Serif" font-size="10.00">algorithm</text>
</a>
</g>
</g>
<!-- Node11&#45;&gt;Node12 -->
<g id="edge13" class="edge"><title>Node11&#45;&gt;Node12</title>
<path fill="none" stroke="midnightblue" d="M674.948,-318.994C787.359,-304.53 994.636,-271.688 1047.5,-221 1061.39,-207.679 1065.85,-185.483 1067.17,-169.552"/>
<polygon fill="midnightblue" stroke="midnightblue" points="1070.68,-169.434 1067.67,-159.276 1063.69,-169.095 1070.68,-169.434"/>
</g>
<!-- Node13 -->
<g id="node13" class="node"><title>Node13</title>
<g id="a_node13"><a xlink:title=" ">
<polygon fill="none" stroke="#bfbfbf" points="490.5,-201.5 490.5,-220.5 548.5,-220.5 548.5,-201.5 490.5,-201.5"/>
<text text-anchor="middle" x="519.5" y="-208.5" font-family="Helvetica,sans-Serif" font-size="10.00">functional</text>
</a>
</g>
</g>
<!-- Node11&#45;&gt;Node13 -->
<g id="edge14" class="edge"><title>Node11&#45;&gt;Node13</title>
<path fill="none" stroke="midnightblue" d="M595.337,-318.819C581.802,-299.755 549.28,-253.947 531.54,-228.958"/>
<polygon fill="midnightblue" stroke="midnightblue" points="534.378,-226.91 525.735,-220.782 528.67,-230.962 534.378,-226.91"/>
</g>
<!-- Node14 -->
<g id="node14" class="node"><title>Node14</title>
<g id="a_node14"><a xlink:href="XalanMap_8hpp.html" target="_top" xlink:title=" ">
<polygon fill="none" stroke="black" points="631,-257.5 631,-276.5 774,-276.5 774,-257.5 631,-257.5"/>
<text text-anchor="middle" x="702.5" y="-264.5" font-family="Helvetica,sans-Serif" font-size="10.00">xalanc/Include/XalanMap.hpp</text>
</a>
</g>
</g>
<!-- Node11&#45;&gt;Node14 -->
<g id="edge15" class="edge"><title>Node11&#45;&gt;Node14</title>
<path fill="none" stroke="midnightblue" d="M615.971,-318.975C632.471,-309.255 659.678,-293.227 679.181,-281.737"/>
<polygon fill="midnightblue" stroke="midnightblue" points="681.216,-284.601 688.056,-276.509 677.663,-278.569 681.216,-284.601"/>
</g>
<!-- Node14&#45;&gt;Node3 -->
<g id="edge16" class="edge"><title>Node14&#45;&gt;Node3</title>
<path fill="none" stroke="midnightblue" d="M681.184,-257.481C659.636,-248.746 625.473,-234.557 596.5,-221 578.856,-212.744 575.832,-207.587 557.5,-201 487.272,-175.765 449.479,-214.347 393.5,-165 375.315,-148.97 368.533,-120.753 366.004,-102.091"/>
<polygon fill="midnightblue" stroke="midnightblue" points="369.482,-101.704 364.933,-92.1354 362.523,-102.452 369.482,-101.704"/>
</g>
<!-- Node14&#45;&gt;Node12 -->
<g id="edge18" class="edge"><title>Node14&#45;&gt;Node12</title>
<path fill="none" stroke="midnightblue" d="M774.248,-263.052C856.315,-258.471 984.511,-247.256 1024.5,-221 1043.18,-208.736 1055.05,-185.273 1061.48,-168.794"/>
<polygon fill="midnightblue" stroke="midnightblue" points="1064.86,-169.755 1064.94,-159.161 1058.27,-167.391 1064.86,-169.755"/>
</g>
<!-- Node14&#45;&gt;Node13 -->
<g id="edge19" class="edge"><title>Node14&#45;&gt;Node13</title>
<path fill="none" stroke="midnightblue" d="M673.503,-257.444C642.315,-248.241 592.57,-233.562 558.092,-223.388"/>
<polygon fill="midnightblue" stroke="midnightblue" points="558.943,-219.99 548.361,-220.516 556.962,-226.704 558.943,-219.99"/>
</g>
<!-- Node15 -->
<g id="node15" class="node"><title>Node15</title>
<g id="a_node15"><a xlink:title=" ">
<polygon fill="none" stroke="#bfbfbf" points="796.5,-73 796.5,-92 844.5,-92 844.5,-73 796.5,-73"/>
<text text-anchor="middle" x="820.5" y="-80" font-family="Helvetica,sans-Serif" font-size="10.00">cstddef</text>
</a>
</g>
</g>
<!-- Node14&#45;&gt;Node15 -->
<g id="edge17" class="edge"><title>Node14&#45;&gt;Node15</title>
<path fill="none" stroke="midnightblue" d="M774.012,-260.754C831.184,-254.95 904.899,-243.301 924.5,-221 950.054,-191.926 949.28,-166.657 928.5,-134 912.385,-108.675 879.871,-95.8372 854.708,-89.4654"/>
<polygon fill="midnightblue" stroke="midnightblue" points="855.318,-86.0144 844.788,-87.1842 853.749,-92.8363 855.318,-86.0144"/>
</g>
<!-- Node16 -->
<g id="node16" class="node"><title>Node16</title>
<g id="a_node16"><a xlink:title=" ">
<polygon fill="none" stroke="#bfbfbf" points="975.5,-201.5 975.5,-220.5 1015.5,-220.5 1015.5,-201.5 975.5,-201.5"/>
<text text-anchor="middle" x="995.5" y="-208.5" font-family="Helvetica,sans-Serif" font-size="10.00">utility</text>
</a>
</g>
</g>
<!-- Node14&#45;&gt;Node16 -->
<g id="edge20" class="edge"><title>Node14&#45;&gt;Node16</title>
<path fill="none" stroke="midnightblue" d="M759.874,-257.495C812.542,-249.341 892.617,-236.071 961.5,-221 962.775,-220.721 964.074,-220.426 965.384,-220.119"/>
<polygon fill="midnightblue" stroke="midnightblue" points="966.574,-223.43 975.434,-217.62 964.885,-216.637 966.574,-223.43"/>
</g>
<!-- Node14&#45;&gt;Node17 -->
<g id="edge21" class="edge"><title>Node14&#45;&gt;Node17</title>
<path fill="none" stroke="midnightblue" d="M699.032,-257.083C696.188,-249.77 692.071,-239.181 688.54,-230.103"/>
<polygon fill="midnightblue" stroke="midnightblue" points="691.79,-228.803 684.903,-220.751 685.266,-231.34 691.79,-228.803"/>
</g>
<!-- Node23 -->
<g id="node23" class="node"><title>Node23</title>
<g id="a_node23"><a xlink:href="XalanList_8hpp.html" target="_top" xlink:title=" ">
<polygon fill="none" stroke="black" points="775.5,-201.5 775.5,-220.5 915.5,-220.5 915.5,-201.5 775.5,-201.5"/>
<text text-anchor="middle" x="845.5" y="-208.5" font-family="Helvetica,sans-Serif" font-size="10.00">xalanc/Include/XalanList.hpp</text>
</a>
</g>
</g>
<!-- Node14&#45;&gt;Node23 -->
<g id="edge35" class="edge"><title>Node14&#45;&gt;Node23</title>
<path fill="none" stroke="midnightblue" d="M725.159,-257.444C748.902,-248.478 786.409,-234.314 813.238,-224.183"/>
<polygon fill="midnightblue" stroke="midnightblue" points="814.829,-227.324 822.947,-220.516 812.356,-220.775 814.829,-227.324"/>
</g>
<!-- Node17&#45;&gt;Node3 -->
<g id="edge22" class="edge"><title>Node17&#45;&gt;Node3</title>
<path fill="none" stroke="midnightblue" d="M605.225,-202.229C542.522,-194.773 459.466,-182.118 430.5,-165 404.472,-149.618 384.441,-119.9 373.578,-100.916"/>
<polygon fill="midnightblue" stroke="midnightblue" points="376.623,-99.19 368.75,-92.1002 370.483,-102.552 376.623,-99.19"/>
</g>
<!-- Node17&#45;&gt;Node10 -->
<g id="edge25" class="edge"><title>Node17&#45;&gt;Node10</title>
<path fill="none" stroke="midnightblue" d="M685.103,-201.378C692.234,-185.426 709.718,-151.352 735.5,-134 764.596,-114.418 862.176,-96.9293 914.937,-88.6175"/>
<polygon fill="midnightblue" stroke="midnightblue" points="915.513,-92.0702 924.859,-87.0796 914.441,-85.1528 915.513,-92.0702"/>
</g>
<!-- Node17&#45;&gt;Node12 -->
<g id="edge24" class="edge"><title>Node17&#45;&gt;Node12</title>
<path fill="none" stroke="midnightblue" d="M736.804,-201.475C816.316,-189.219 960.886,-166.934 1029.46,-156.364"/>
<polygon fill="midnightblue" stroke="midnightblue" points="1030.05,-159.815 1039.4,-154.832 1028.98,-152.896 1030.05,-159.815"/>
</g>
<!-- Node17&#45;&gt;Node15 -->
<g id="edge23" class="edge"><title>Node17&#45;&gt;Node15</title>
<path fill="none" stroke="midnightblue" d="M681.556,-201.356C682.11,-185.964 685.389,-153.588 702.5,-134 723.983,-109.406 759.539,-96.4212 786.015,-89.8133"/>
<polygon fill="midnightblue" stroke="midnightblue" points="787.066,-93.1629 796.025,-87.5067 785.494,-86.3417 787.066,-93.1629"/>
</g>
<!-- Node18 -->
<g id="node18" class="node"><title>Node18</title>
<g id="a_node18"><a xlink:title=" ">
<polygon fill="none" stroke="#bfbfbf" points="629.5,-73 629.5,-92 663.5,-92 663.5,-73 629.5,-73"/>
<text text-anchor="middle" x="646.5" y="-80" font-family="Helvetica,sans-Serif" font-size="10.00">new</text>
</a>
</g>
</g>
<!-- Node17&#45;&gt;Node18 -->
<g id="edge26" class="edge"><title>Node17&#45;&gt;Node18</title>
<path fill="none" stroke="midnightblue" d="M677.868,-201.499C674.142,-192.543 668.359,-177.967 664.5,-165 658.186,-143.786 652.998,-118.872 649.841,-102.226"/>
<polygon fill="midnightblue" stroke="midnightblue" points="653.242,-101.371 647.99,-92.1696 646.358,-102.638 653.242,-101.371"/>
</g>
<!-- Node19 -->
<g id="node19" class="node"><title>Node19</title>
<g id="a_node19"><a xlink:title=" ">
<polygon fill="none" stroke="#bfbfbf" points="822,-140 822,-159 869,-159 869,-140 822,-140"/>
<text text-anchor="middle" x="845.5" y="-147" font-family="Helvetica,sans-Serif" font-size="10.00">iterator</text>
</a>
</g>
</g>
<!-- Node17&#45;&gt;Node19 -->
<g id="edge27" class="edge"><title>Node17&#45;&gt;Node19</title>
<path fill="none" stroke="midnightblue" d="M708.583,-201.425C735.24,-192.815 776.998,-178.87 812.5,-165 814.103,-164.374 815.742,-163.715 817.392,-163.037"/>
<polygon fill="midnightblue" stroke="midnightblue" points="818.931,-166.186 826.766,-159.054 816.193,-159.744 818.931,-166.186"/>
</g>
<!-- Node20 -->
<g id="node20" class="node"><title>Node20</title>
<g id="a_node20"><a xlink:title=" ">
<polygon fill="none" stroke="#bfbfbf" points="745,-140 745,-159 804,-159 804,-140 745,-140"/>
<text text-anchor="middle" x="774.5" y="-147" font-family="Helvetica,sans-Serif" font-size="10.00">stdexcept</text>
</a>
</g>
</g>
<!-- Node17&#45;&gt;Node20 -->
<g id="edge28" class="edge"><title>Node17&#45;&gt;Node20</title>
<path fill="none" stroke="midnightblue" d="M694.825,-201.475C709.88,-191.843 734.616,-176.017 752.537,-164.552"/>
<polygon fill="midnightblue" stroke="midnightblue" points="754.663,-167.347 761.2,-159.009 750.89,-161.45 754.663,-167.347"/>
</g>
<!-- Node17&#45;&gt;Node21 -->
<g id="edge29" class="edge"><title>Node17&#45;&gt;Node21</title>
<path fill="none" stroke="midnightblue" d="M661.585,-201.475C641.615,-192.927 610.25,-179.501 584.722,-168.573"/>
<polygon fill="midnightblue" stroke="midnightblue" points="585.83,-165.241 575.26,-164.523 583.075,-171.676 585.83,-165.241"/>
</g>
<!-- Node21&#45;&gt;Node3 -->
<g id="edge30" class="edge"><title>Node21&#45;&gt;Node3</title>
<path fill="none" stroke="midnightblue" d="M503.877,-134.396C472.092,-122.789 427.525,-106.515 397.414,-95.5192"/>
<polygon fill="midnightblue" stroke="midnightblue" points="398.39,-92.1495 387.796,-92.007 395.989,-98.7249 398.39,-92.1495"/>
</g>
<!-- Node21&#45;&gt;Node10 -->
<g id="edge31" class="edge"><title>Node21&#45;&gt;Node10</title>
<path fill="none" stroke="midnightblue" d="M612.929,-137.252C701.042,-123.18 848.427,-99.6419 915.002,-89.0096"/>
<polygon fill="midnightblue" stroke="midnightblue" points="915.648,-92.4507 924.971,-87.4174 914.544,-85.5383 915.648,-92.4507"/>
</g>
<!-- Node21&#45;&gt;Node15 -->
<g id="edge32" class="edge"><title>Node21&#45;&gt;Node15</title>
<path fill="none" stroke="midnightblue" d="M602.48,-134.476C658.603,-121.354 740.463,-102.214 786.243,-91.5098"/>
<polygon fill="midnightblue" stroke="midnightblue" points="787.314,-94.8538 796.255,-89.1689 785.72,-88.0376 787.314,-94.8538"/>
</g>
<!-- Node21&#45;&gt;Node18 -->
<g id="edge33" class="edge"><title>Node21&#45;&gt;Node18</title>
<path fill="none" stroke="midnightblue" d="M565.066,-134.396C582.507,-123.496 606.534,-108.479 623.966,-97.5835"/>
<polygon fill="midnightblue" stroke="midnightblue" points="626.264,-100.275 632.889,-92.007 622.554,-94.339 626.264,-100.275"/>
</g>
<!-- Node22 -->
<g id="node22" class="node"><title>Node22</title>
<g id="a_node22"><a xlink:title=" ">
<polygon fill="none" stroke="#bfbfbf" points="474,-67.5 474,-97.5 611,-97.5 611,-67.5 474,-67.5"/>
<text text-anchor="start" x="482" y="-85.5" font-family="Helvetica,sans-Serif" font-size="10.00">xercesc/framework/Memory</text>
<text text-anchor="middle" x="542.5" y="-74.5" font-family="Helvetica,sans-Serif" font-size="10.00">Manager.hpp</text>
</a>
</g>
</g>
<!-- Node21&#45;&gt;Node22 -->
<g id="edge34" class="edge"><title>Node21&#45;&gt;Node22</title>
<path fill="none" stroke="midnightblue" d="M542.5,-134.396C542.5,-126.645 542.5,-116.812 542.5,-107.86"/>
<polygon fill="midnightblue" stroke="midnightblue" points="546,-107.576 542.5,-97.5765 539,-107.577 546,-107.576"/>
</g>
<!-- Node23&#45;&gt;Node3 -->
<g id="edge36" class="edge"><title>Node23&#45;&gt;Node3</title>
<path fill="none" stroke="midnightblue" d="M775.348,-202.001C666.018,-189.499 467.033,-166.582 463.5,-165 444.535,-156.507 444.441,-147.33 428.5,-134 413.856,-121.754 396.878,-108.394 384.089,-98.4933"/>
<polygon fill="midnightblue" stroke="midnightblue" points="386.043,-95.58 375.986,-92.2477 381.77,-101.124 386.043,-95.58"/>
</g>
<!-- Node23&#45;&gt;Node10 -->
<g id="edge39" class="edge"><title>Node23&#45;&gt;Node10</title>
<path fill="none" stroke="midnightblue" d="M873.272,-201.494C891.545,-194.511 914.576,-182.827 928.5,-165 942.733,-146.777 947.394,-119.94 948.878,-102.103"/>
<polygon fill="midnightblue" stroke="midnightblue" points="952.374,-102.274 949.457,-92.0889 945.386,-101.87 952.374,-102.274"/>
</g>
<!-- Node23&#45;&gt;Node12 -->
<g id="edge38" class="edge"><title>Node23&#45;&gt;Node12</title>
<path fill="none" stroke="midnightblue" d="M883.687,-201.476C920.304,-193.061 977.021,-179.398 1025.5,-165 1028.27,-164.176 1031.13,-163.283 1034,-162.358"/>
<polygon fill="midnightblue" stroke="midnightblue" points="1035.25,-165.63 1043.63,-159.146 1033.04,-158.99 1035.25,-165.63"/>
</g>
<!-- Node23&#45;&gt;Node15 -->
<g id="edge37" class="edge"><title>Node23&#45;&gt;Node15</title>
<path fill="none" stroke="midnightblue" d="M867.959,-201.382C883.269,-194.184 902.363,-182.288 911.5,-165 917.938,-152.819 918.49,-145.873 911.5,-134 899.211,-113.126 874.837,-100.265 854.406,-92.7498"/>
<polygon fill="midnightblue" stroke="midnightblue" points="855.357,-89.3766 844.763,-89.478 853.108,-96.0055 855.357,-89.3766"/>
</g>
<!-- Node23&#45;&gt;Node18 -->
<g id="edge40" class="edge"><title>Node23&#45;&gt;Node18</title>
<path fill="none" stroke="midnightblue" d="M854.646,-201.2C869.208,-186.125 894.377,-154.966 877.5,-134 852.16,-102.522 729.176,-89.5929 673.719,-85.2997"/>
<polygon fill="midnightblue" stroke="midnightblue" points="673.807,-81.7968 663.577,-84.5533 673.293,-88.7779 673.807,-81.7968"/>
</g>
<!-- Node23&#45;&gt;Node19 -->
<g id="edge41" class="edge"><title>Node23&#45;&gt;Node19</title>
<path fill="none" stroke="midnightblue" d="M845.5,-201.475C845.5,-193.08 845.5,-179.981 845.5,-169.163"/>
<polygon fill="midnightblue" stroke="midnightblue" points="849,-169.009 845.5,-159.009 842,-169.009 849,-169.009"/>
</g>
<!-- Node23&#45;&gt;Node20 -->
<g id="edge42" class="edge"><title>Node23&#45;&gt;Node20</title>
<path fill="none" stroke="midnightblue" d="M835.327,-201.475C824.15,-192.108 805.983,-176.884 792.409,-165.508"/>
<polygon fill="midnightblue" stroke="midnightblue" points="794.566,-162.75 784.654,-159.009 790.07,-168.115 794.566,-162.75"/>
</g>
<!-- Node23&#45;&gt;Node21 -->
<g id="edge43" class="edge"><title>Node23&#45;&gt;Node21</title>
<path fill="none" stroke="midnightblue" d="M802.087,-201.475C755.468,-192.32 680.357,-177.571 622.895,-166.287"/>
<polygon fill="midnightblue" stroke="midnightblue" points="623.233,-162.787 612.746,-164.294 621.884,-169.656 623.233,-162.787"/>
</g>
<!-- Node24&#45;&gt;Node9 -->
<g id="edge47" class="edge"><title>Node24&#45;&gt;Node9</title>
<path fill="none" stroke="midnightblue" d="M309.634,-318.975C306.783,-310.492 302.317,-297.204 298.659,-286.322"/>
<polygon fill="midnightblue" stroke="midnightblue" points="301.864,-284.873 295.36,-276.509 295.229,-287.103 301.864,-284.873"/>
</g>
</g>
</svg>
        <g id="navigator" transform="translate(0 0)" fill="#404254">
                <rect fill="#f2f5e9" fill-opacity="0.5" stroke="#606060" stroke-width=".5" x="0" y="0" width="60" height="60"/>
                <use id="zoomplus" xlink:href="#zoomPlus" x="17" y="9" onmousedown="handleZoom(evt,'in')"/>
                <use id="zoomminus" xlink:href="#zoomMin" x="42" y="9" onmousedown="handleZoom(evt,'out')"/>
                <use id="reset" xlink:href="#resetDef" x="30" y="36" onmousedown="handleReset()"/>
                <g id="arrowUp" xlink:href="#dirArrow" transform="translate(30 24)" onmousedown="handlePan(0,-1)">
                  <use xlink:href="#rim" fill="#404040">
                        <set attributeName="fill" to="#808080" begin="arrowUp.mouseover" end="arrowUp.mouseout"/>
                  </use>
                  <path fill="none" stroke="white" stroke-width="1.5" d="M0,-3.0v7 M-2.5,-0.5L0,-3.0L2.5,-0.5"/>
                </g>
                <g id="arrowRight" xlink:href="#dirArrow" transform="rotate(90) translate(36 -43)" onmousedown="handlePan(1,0)">
                  <use xlink:href="#rim" fill="#404040">
                        <set attributeName="fill" to="#808080" begin="arrowRight.mouseover" end="arrowRight.mouseout"/>
                  </use>
                  <path fill="none" stroke="white" stroke-width="1.5" d="M0,-3.0v7 M-2.5,-0.5L0,-3.0L2.5,-0.5"/>
                </g>
                <g id="arrowDown" xlink:href="#dirArrow" transform="rotate(180) translate(-30 -48)" onmousedown="handlePan(0,1)">
                  <use xlink:href="#rim" fill="#404040">
                        <set attributeName="fill" to="#808080" begin="arrowDown.mouseover" end="arrowDown.mouseout"/>
                  </use>
                  <path fill="none" stroke="white" stroke-width="1.5" d="M0,-3.0v7 M-2.5,-0.5L0,-3.0L2.5,-0.5"/>
                </g>
                <g id="arrowLeft" xlink:href="#dirArrow" transform="rotate(270) translate(-36 17)" onmousedown="handlePan(-1,0)">
                  <use xlink:href="#rim" fill="#404040">
                        <set attributeName="fill" to="#808080" begin="arrowLeft.mouseover" end="arrowLeft.mouseout"/>
                  </use>
                  <path fill="none" stroke="white" stroke-width="1.5" d="M0,-3.0v7 M-2.5,-0.5L0,-3.0L2.5,-0.5"/>
                </g>
        </g>
        <svg viewBox="0 0 15 15" width="100%" height="30px" preserveAspectRatio="xMaxYMin meet">
         <g id="arrow_out" transform="scale(0.3 0.3)">
          <a xlink:href="FormatterListener_8hpp__incl_org.svg" target="_base">
           <rect id="button" ry="5" rx="5" y="6" x="6" height="38" width="38"
                fill="#f2f5e9" fill-opacity="0.5" stroke="#606060" stroke-width="1.0"/>
           <path id="arrow"
             d="M 11.500037,31.436501 C 11.940474,20.09759 22.043105,11.32322 32.158766,21.979434 L 37.068811,17.246167 C 37.068811,17.246167 37.088388,32 37.088388,32 L 22.160133,31.978069 C 22.160133,31.978069 26.997745,27.140456 26.997745,27.140456 C 18.528582,18.264221 13.291696,25.230495 11.500037,31.436501 z"
             style="fill:#404040;"/>
          </a>
         </g>
        </svg>
</svg>
