<?xml version="1.0" encoding="UTF-8" standalone="no"?>
<!DOCTYPE svg PUBLIC "-//W3C//DTD SVG 1.1//EN"
 "http://www.w3.org/Graphics/SVG/1.1/DTD/svg11.dtd">
<!-- Generated by graphviz version 2.43.0 (0)
 -->
<!-- Title: xalanc/XercesParserLiaison/Deprecated/FormatterToDeprecatedXercesDOM.hpp Pages: 1 -->
<!--zoomable 564 -->
<svg id="main" version="1.1" xmlns="http://www.w3.org/2000/svg" xmlns:xlink="http://www.w3.org/1999/xlink" xml:space="preserve" onload="init(evt)">
<style type="text/css"><![CDATA[
.edge:hover path { stroke: red; }
.edge:hover polygon { stroke: red; fill: red; }
]]></style>
<script type="text/javascript"><![CDATA[
var edges = document.getElementsByTagName('g');
if (edges && edges.length) {
  for (var i=0;i<edges.length;i++) {
    if (edges[i].id.substr(0,4)=='edge') {
      edges[i].setAttribute('class','edge');
    }
  }
}
]]></script>
        <defs>
                <circle id="rim" cx="0" cy="0" r="7"/>
                <circle id="rim2" cx="0" cy="0" r="3.5"/>
                <g id="zoomPlus">
                        <use xlink:href="#rim" fill="#404040">
                                <set attributeName="fill" to="#808080" begin="zoomplus.mouseover" end="zoomplus.mouseout"/>
                        </use>
                        <path d="M-4,0h8M0,-4v8" fill="none" stroke="white" stroke-width="1.5" pointer-events="none"/>
                </g>
                <g id="zoomMin">
                        <use xlink:href="#rim" fill="#404040">
                                <set attributeName="fill" to="#808080" begin="zoomminus.mouseover" end="zoomminus.mouseout"/>
                        </use>
                        <path d="M-4,0h8" fill="none" stroke="white" stroke-width="1.5" pointer-events="none"/>
                </g>
                <g id="dirArrow">
                        <path fill="none" stroke="white" stroke-width="1.5" d="M0,-3.0v7 M-2.5,-0.5L0,-3.0L2.5,-0.5"/>
                </g>
               <g id="resetDef">
                       <use xlink:href="#rim2" fill="#404040">
                               <set attributeName="fill" to="#808080" begin="reset.mouseover" end="reset.mouseout"/>
                       </use>
               </g>
        </defs>

<script type="text/javascript">
var viewWidth = 1879;
var viewHeight = 564;
var sectionId = 'dynsection-0';
</script>
<script xlink:href="svgpan.js"/>
<svg id="graph" class="graph">
<g id="viewport">
<title>xalanc/XercesParserLiaison/Deprecated/FormatterToDeprecatedXercesDOM.hpp</title>
<!-- Node1 -->
<g id="node1" class="node">
<title>Node1</title>
<g id="a_node1"><a xlink:title=" ">
<polygon fill="#bfbfbf" stroke="black" points="1128,-514.5 1128,-555.5 1322,-555.5 1322,-514.5 1128,-514.5"/>
<text text-anchor="start" x="1136" y="-543.5" font-family="Helvetica,sans-Serif" font-size="10.00">xalanc/XercesParserLiaison</text>
<text text-anchor="start" x="1136" y="-532.5" font-family="Helvetica,sans-Serif" font-size="10.00">/Deprecated/FormatterToDeprecated</text>
<text text-anchor="middle" x="1225" y="-521.5" font-family="Helvetica,sans-Serif" font-size="10.00">XercesDOM.hpp</text>
</a>
</g>
</g>
<!-- Node2 -->
<g id="node2" class="node">
<title>Node2</title>
<g id="a_node2"><a xlink:href="XercesParserLiaisonDefinitions_8hpp.html" target="_top" xlink:title=" ">
<polygon fill="none" stroke="black" points="112.5,-380.5 112.5,-410.5 303.5,-410.5 303.5,-380.5 112.5,-380.5"/>
<text text-anchor="start" x="120.5" y="-398.5" font-family="Helvetica,sans-Serif" font-size="10.00">xalanc/XercesParserLiaison</text>
<text text-anchor="middle" x="208" y="-387.5" font-family="Helvetica,sans-Serif" font-size="10.00">/XercesParserLiaisonDefinitions.hpp</text>
</a>
</g>
</g>
<!-- Node1&#45;&gt;Node2 -->
<g id="edge1" class="edge">
<title>Node1&#45;&gt;Node2</title>
<path fill="none" stroke="midnightblue" d="M1127.95,-520.88C936.65,-495.01 512.29,-437.64 313.98,-410.83"/>
<polygon fill="midnightblue" stroke="midnightblue" points="314.22,-407.33 303.84,-409.46 313.28,-414.27 314.22,-407.33"/>
</g>
<!-- Node8 -->
<g id="node8" class="node">
<title>Node8</title>
<g id="a_node8"><a xlink:href="XalanVector_8hpp.html" target="_top" xlink:title=" ">
<polygon fill="none" stroke="black" points="1084.5,-201.5 1084.5,-220.5 1253.5,-220.5 1253.5,-201.5 1084.5,-201.5"/>
<text text-anchor="middle" x="1169" y="-208.5" font-family="Helvetica,sans-Serif" font-size="10.00">xalanc/Include/XalanVector.hpp</text>
</a>
</g>
</g>
<!-- Node1&#45;&gt;Node8 -->
<g id="edge7" class="edge">
<title>Node1&#45;&gt;Node8</title>
<path fill="none" stroke="midnightblue" d="M1241.05,-514.32C1262.71,-485.28 1296.97,-429.08 1282,-380 1262.77,-316.96 1211.1,-256.15 1184.82,-228.11"/>
<polygon fill="midnightblue" stroke="midnightblue" points="1187.27,-225.61 1177.83,-220.8 1182.21,-230.45 1187.27,-225.61"/>
</g>
<!-- Node17 -->
<g id="node17" class="node">
<title>Node17</title>
<g id="a_node17"><a xlink:href="FormatterListener_8hpp.html" target="_top" xlink:title=" ">
<polygon fill="none" stroke="black" points="967.5,-447.5 967.5,-477.5 1098.5,-477.5 1098.5,-447.5 967.5,-447.5"/>
<text text-anchor="start" x="975.5" y="-465.5" font-family="Helvetica,sans-Serif" font-size="10.00">xalanc/PlatformSupport</text>
<text text-anchor="middle" x="1033" y="-454.5" font-family="Helvetica,sans-Serif" font-size="10.00">/FormatterListener.hpp</text>
</a>
</g>
</g>
<!-- Node1&#45;&gt;Node17 -->
<g id="edge21" class="edge">
<title>Node1&#45;&gt;Node17</title>
<path fill="none" stroke="midnightblue" d="M1171.77,-514.46C1143.28,-503.99 1108.47,-491.21 1080.84,-481.07"/>
<polygon fill="midnightblue" stroke="midnightblue" points="1081.98,-477.76 1071.39,-477.6 1079.57,-484.33 1081.98,-477.76"/>
</g>
<!-- Node20 -->
<g id="node20" class="node">
<title>Node20</title>
<g id="a_node20"><a xlink:href="XalanDOMString_8hpp.html" target="_top" xlink:title=" ">
<polygon fill="none" stroke="black" points="1065,-386 1065,-405 1273,-405 1273,-386 1065,-386"/>
<text text-anchor="middle" x="1169" y="-393" font-family="Helvetica,sans-Serif" font-size="10.00">xalanc/XalanDOM/XalanDOMString.hpp</text>
</a>
</g>
</g>
<!-- Node1&#45;&gt;Node20 -->
<g id="edge53" class="edge">
<title>Node1&#45;&gt;Node20</title>
<path fill="none" stroke="midnightblue" d="M1216.98,-514.3C1206.08,-487.54 1186.76,-440.1 1176.27,-414.34"/>
<polygon fill="midnightblue" stroke="midnightblue" points="1179.49,-412.98 1172.48,-405.04 1173.01,-415.62 1179.49,-412.98"/>
</g>
<!-- Node28 -->
<g id="node28" class="node">
<title>Node28</title>
<g id="a_node28"><a xlink:href="XercesBridgeTypes_8hpp.html" target="_top" xlink:title=" ">
<polygon fill="none" stroke="black" points="355,-447.5 355,-477.5 547,-477.5 547,-447.5 355,-447.5"/>
<text text-anchor="start" x="363" y="-465.5" font-family="Helvetica,sans-Serif" font-size="10.00">xalanc/XercesParserLiaison</text>
<text text-anchor="middle" x="451" y="-454.5" font-family="Helvetica,sans-Serif" font-size="10.00">/Deprecated/XercesBridgeTypes.hpp</text>
</a>
</g>
</g>
<!-- Node1&#45;&gt;Node28 -->
<g id="edge54" class="edge">
<title>Node1&#45;&gt;Node28</title>
<path fill="none" stroke="midnightblue" d="M1127.76,-525.14C982.09,-511.87 708.29,-486.94 557.44,-473.2"/>
<polygon fill="midnightblue" stroke="midnightblue" points="557.52,-469.69 547.24,-472.27 556.88,-476.66 557.52,-469.69"/>
</g>
<!-- Node29 -->
<g id="node29" class="node">
<title>Node29</title>
<g id="a_node29"><a xlink:title=" ">
<polygon fill="none" stroke="#bfbfbf" points="1319,-453 1319,-472 1501,-472 1501,-453 1319,-453"/>
<text text-anchor="middle" x="1410" y="-460" font-family="Helvetica,sans-Serif" font-size="10.00">xercesc/dom/DOM_Document.hpp</text>
</a>
</g>
</g>
<!-- Node1&#45;&gt;Node29 -->
<g id="edge56" class="edge">
<title>Node1&#45;&gt;Node29</title>
<path fill="none" stroke="midnightblue" d="M1276.53,-514.36C1308.91,-502.02 1349.67,-486.49 1377.58,-475.85"/>
<polygon fill="midnightblue" stroke="midnightblue" points="1379.14,-479.01 1387.24,-472.17 1376.65,-472.46 1379.14,-479.01"/>
</g>
<!-- Node30 -->
<g id="node30" class="node">
<title>Node30</title>
<g id="a_node30"><a xlink:title=" ">
<polygon fill="none" stroke="#bfbfbf" points="1519.5,-447.5 1519.5,-477.5 1680.5,-477.5 1680.5,-447.5 1519.5,-447.5"/>
<text text-anchor="start" x="1527.5" y="-465.5" font-family="Helvetica,sans-Serif" font-size="10.00">xercesc/dom/DOM_Document</text>
<text text-anchor="middle" x="1600" y="-454.5" font-family="Helvetica,sans-Serif" font-size="10.00">Fragment.hpp</text>
</a>
</g>
</g>
<!-- Node1&#45;&gt;Node30 -->
<g id="edge57" class="edge">
<title>Node1&#45;&gt;Node30</title>
<path fill="none" stroke="midnightblue" d="M1322.06,-515.75C1381.84,-504.51 1457.75,-490.24 1515.12,-479.46"/>
<polygon fill="midnightblue" stroke="midnightblue" points="1516.07,-482.84 1525.25,-477.55 1514.78,-475.96 1516.07,-482.84"/>
</g>
<!-- Node31 -->
<g id="node31" class="node">
<title>Node31</title>
<g id="a_node31"><a xlink:title=" ">
<polygon fill="none" stroke="#bfbfbf" points="1699,-453 1699,-472 1871,-472 1871,-453 1699,-453"/>
<text text-anchor="middle" x="1785" y="-460" font-family="Helvetica,sans-Serif" font-size="10.00">xercesc/dom/DOM_Element.hpp</text>
</a>
</g>
</g>
<!-- Node1&#45;&gt;Node31 -->
<g id="edge58" class="edge">
<title>Node1&#45;&gt;Node31</title>
<path fill="none" stroke="midnightblue" d="M1322.19,-523.2C1416.35,-512.53 1563.11,-495.32 1690,-478 1700.15,-476.61 1710.89,-475.06 1721.36,-473.5"/>
<polygon fill="midnightblue" stroke="midnightblue" points="1721.92,-476.95 1731.29,-472 1720.88,-470.03 1721.92,-476.95"/>
</g>
<!-- Node3 -->
<g id="node3" class="node">
<title>Node3</title>
<g id="a_node3"><a xlink:href="PlatformDefinitions_8hpp.html" target="_top" xlink:title=" ">
<polygon fill="none" stroke="black" points="531,-73 531,-92 737,-92 737,-73 531,-73"/>
<text text-anchor="middle" x="634" y="-80" font-family="Helvetica,sans-Serif" font-size="10.00">xalanc/Include/PlatformDefinitions.hpp</text>
</a>
</g>
</g>
<!-- Node2&#45;&gt;Node3 -->
<g id="edge2" class="edge">
<title>Node2&#45;&gt;Node3</title>
<path fill="none" stroke="midnightblue" d="M202.47,-380.22C194.31,-357.83 180,-312.96 180,-273.5 180,-273.5 180,-273.5 180,-210 180,-139.36 386.56,-106.46 521.03,-92.53"/>
<polygon fill="midnightblue" stroke="midnightblue" points="521.38,-96.01 530.98,-91.52 520.68,-89.05 521.38,-96.01"/>
</g>
<!-- Node7 -->
<g id="node7" class="node">
<title>Node7</title>
<g id="a_node7"><a xlink:title=" ">
<polygon fill="none" stroke="#bfbfbf" points="0,-324.5 0,-343.5 152,-343.5 152,-324.5 0,-324.5"/>
<text text-anchor="middle" x="76" y="-331.5" font-family="Helvetica,sans-Serif" font-size="10.00">xercesc/util/XercesDefs.hpp</text>
</a>
</g>
</g>
<!-- Node2&#45;&gt;Node7 -->
<g id="edge6" class="edge">
<title>Node2&#45;&gt;Node7</title>
<path fill="none" stroke="midnightblue" d="M176.72,-380.4C154.77,-370.51 125.66,-357.38 104.38,-347.79"/>
<polygon fill="midnightblue" stroke="midnightblue" points="105.76,-344.58 95.21,-343.66 102.89,-350.96 105.76,-344.58"/>
</g>
<!-- Node4 -->
<g id="node4" class="node">
<title>Node4</title>
<g id="a_node4"><a xlink:title=" ">
<polygon fill="none" stroke="#bfbfbf" points="413,-0.5 413,-30.5 533,-30.5 533,-0.5 413,-0.5"/>
<text text-anchor="start" x="421" y="-18.5" font-family="Helvetica,sans-Serif" font-size="10.00">xercesc/util/Xerces</text>
<text text-anchor="middle" x="473" y="-7.5" font-family="Helvetica,sans-Serif" font-size="10.00">_autoconf_config.hpp</text>
</a>
</g>
</g>
<!-- Node3&#45;&gt;Node4 -->
<g id="edge3" class="edge">
<title>Node3&#45;&gt;Node4</title>
<path fill="none" stroke="midnightblue" d="M612.62,-72.87C588.36,-63.07 548.12,-46.83 517.06,-34.29"/>
<polygon fill="midnightblue" stroke="midnightblue" points="518.33,-31.03 507.75,-30.53 515.71,-37.52 518.33,-31.03"/>
</g>
<!-- Node5 -->
<g id="node5" class="node">
<title>Node5</title>
<g id="a_node5"><a xlink:title=" ">
<polygon fill="none" stroke="#bfbfbf" points="551.5,-6 551.5,-25 716.5,-25 716.5,-6 551.5,-6"/>
<text text-anchor="middle" x="634" y="-13" font-family="Helvetica,sans-Serif" font-size="10.00">xercesc/util/XercesVersion.hpp</text>
</a>
</g>
</g>
<!-- Node3&#45;&gt;Node5 -->
<g id="edge4" class="edge">
<title>Node3&#45;&gt;Node5</title>
<path fill="none" stroke="midnightblue" d="M634,-72.73C634,-63.18 634,-47.62 634,-35.28"/>
<polygon fill="midnightblue" stroke="midnightblue" points="637.5,-35.13 634,-25.13 630.5,-35.13 637.5,-35.13"/>
</g>
<!-- Node6 -->
<g id="node6" class="node">
<title>Node6</title>
<g id="a_node6"><a xlink:href="XalanVersion_8hpp.html" target="_top" xlink:title=" ">
<polygon fill="none" stroke="black" points="734.5,-6 734.5,-25 909.5,-25 909.5,-6 734.5,-6"/>
<text text-anchor="middle" x="822" y="-13" font-family="Helvetica,sans-Serif" font-size="10.00">xalanc/Include/XalanVersion.hpp</text>
</a>
</g>
</g>
<!-- Node3&#45;&gt;Node6 -->
<g id="edge5" class="edge">
<title>Node3&#45;&gt;Node6</title>
<path fill="none" stroke="midnightblue" d="M658.96,-72.87C691.92,-61.47 750.12,-41.35 787.33,-28.49"/>
<polygon fill="midnightblue" stroke="midnightblue" points="788.92,-31.64 797.23,-25.06 786.64,-25.02 788.92,-31.64"/>
</g>
<!-- Node8&#45;&gt;Node3 -->
<g id="edge8" class="edge">
<title>Node8&#45;&gt;Node3</title>
<path fill="none" stroke="midnightblue" d="M1161,-201.26C1143.43,-182.15 1102.34,-138.04 1094,-134 1034.8,-105.35 863.16,-92.69 747.13,-87.29"/>
<polygon fill="midnightblue" stroke="midnightblue" points="747.28,-83.79 737.13,-86.83 746.96,-90.78 747.28,-83.79"/>
</g>
<!-- Node9 -->
<g id="node9" class="node">
<title>Node9</title>
<g id="a_node9"><a xlink:title=" ">
<polygon fill="none" stroke="#bfbfbf" points="1122.5,-73 1122.5,-92 1175.5,-92 1175.5,-73 1122.5,-73"/>
<text text-anchor="middle" x="1149" y="-80" font-family="Helvetica,sans-Serif" font-size="10.00">cstddef</text>
</a>
</g>
</g>
<!-- Node8&#45;&gt;Node9 -->
<g id="edge9" class="edge">
<title>Node8&#45;&gt;Node9</title>
<path fill="none" stroke="midnightblue" d="M1253.45,-201.46C1312.95,-191.99 1376.94,-172.63 1346,-134 1300.16,-76.78 1255.02,-119.77 1185,-98 1182.72,-97.29 1180.38,-96.5 1178.04,-95.66"/>
<polygon fill="midnightblue" stroke="midnightblue" points="1179.19,-92.35 1168.6,-92.07 1176.7,-98.9 1179.19,-92.35"/>
</g>
<!-- Node10 -->
<g id="node10" class="node">
<title>Node10</title>
<g id="a_node10"><a xlink:title=" ">
<polygon fill="none" stroke="#bfbfbf" points="714,-140 714,-159 778,-159 778,-140 714,-140"/>
<text text-anchor="middle" x="746" y="-147" font-family="Helvetica,sans-Serif" font-size="10.00">algorithm</text>
</a>
</g>
</g>
<!-- Node8&#45;&gt;Node10 -->
<g id="edge10" class="edge">
<title>Node8&#45;&gt;Node10</title>
<path fill="none" stroke="midnightblue" d="M1108.39,-201.48C1021.45,-189.25 863.51,-167.03 788.18,-156.43"/>
<polygon fill="midnightblue" stroke="midnightblue" points="788.5,-152.94 778.11,-155.02 787.52,-159.88 788.5,-152.94"/>
</g>
<!-- Node11 -->
<g id="node11" class="node">
<title>Node11</title>
<g id="a_node11"><a xlink:title=" ">
<polygon fill="none" stroke="#bfbfbf" points="1396,-73 1396,-92 1448,-92 1448,-73 1396,-73"/>
<text text-anchor="middle" x="1422" y="-80" font-family="Helvetica,sans-Serif" font-size="10.00">cassert</text>
</a>
</g>
</g>
<!-- Node8&#45;&gt;Node11 -->
<g id="edge11" class="edge">
<title>Node8&#45;&gt;Node11</title>
<path fill="none" stroke="midnightblue" d="M1253.66,-205.58C1316.77,-200.35 1395.6,-189.09 1417,-165 1432.04,-148.07 1430.26,-120.53 1426.79,-102.22"/>
<polygon fill="midnightblue" stroke="midnightblue" points="1430.2,-101.42 1424.61,-92.42 1423.36,-102.94 1430.2,-101.42"/>
</g>
<!-- Node12 -->
<g id="node12" class="node">
<title>Node12</title>
<g id="a_node12"><a xlink:title=" ">
<polygon fill="none" stroke="#bfbfbf" points="1067.5,-73 1067.5,-92 1104.5,-92 1104.5,-73 1067.5,-73"/>
<text text-anchor="middle" x="1086" y="-80" font-family="Helvetica,sans-Serif" font-size="10.00">new</text>
</a>
</g>
</g>
<!-- Node8&#45;&gt;Node12 -->
<g id="edge12" class="edge">
<title>Node8&#45;&gt;Node12</title>
<path fill="none" stroke="midnightblue" d="M1164.81,-201.27C1157.75,-186.83 1142.68,-157.25 1127,-134 1118.89,-121.98 1108.6,-109.31 1100.36,-99.67"/>
<polygon fill="midnightblue" stroke="midnightblue" points="1102.96,-97.32 1093.75,-92.07 1097.67,-101.92 1102.96,-97.32"/>
</g>
<!-- Node13 -->
<g id="node13" class="node">
<title>Node13</title>
<g id="a_node13"><a xlink:title=" ">
<polygon fill="none" stroke="#bfbfbf" points="948.5,-140 948.5,-159 1001.5,-159 1001.5,-140 948.5,-140"/>
<text text-anchor="middle" x="975" y="-147" font-family="Helvetica,sans-Serif" font-size="10.00">iterator</text>
</a>
</g>
</g>
<!-- Node8&#45;&gt;Node13 -->
<g id="edge13" class="edge">
<title>Node8&#45;&gt;Node13</title>
<path fill="none" stroke="midnightblue" d="M1135.08,-201.45C1102.87,-193.07 1053.22,-179.47 1011,-165 1008.88,-164.27 1006.7,-163.49 1004.51,-162.68"/>
<polygon fill="midnightblue" stroke="midnightblue" points="1005.63,-159.36 995.04,-159.01 1003.1,-165.88 1005.63,-159.36"/>
</g>
<!-- Node14 -->
<g id="node14" class="node">
<title>Node14</title>
<g id="a_node14"><a xlink:title=" ">
<polygon fill="none" stroke="#bfbfbf" points="1019.5,-140 1019.5,-159 1084.5,-159 1084.5,-140 1019.5,-140"/>
<text text-anchor="middle" x="1052" y="-147" font-family="Helvetica,sans-Serif" font-size="10.00">stdexcept</text>
</a>
</g>
</g>
<!-- Node8&#45;&gt;Node14 -->
<g id="edge14" class="edge">
<title>Node8&#45;&gt;Node14</title>
<path fill="none" stroke="midnightblue" d="M1152.24,-201.48C1132.78,-191.58 1100.45,-175.14 1077.79,-163.62"/>
<polygon fill="midnightblue" stroke="midnightblue" points="1079.23,-160.42 1068.73,-159.01 1076.06,-166.66 1079.23,-160.42"/>
</g>
<!-- Node15 -->
<g id="node15" class="node">
<title>Node15</title>
<g id="a_node15"><a xlink:href="XalanMemoryManagement_8hpp.html" target="_top" xlink:title=" ">
<polygon fill="none" stroke="black" points="1179,-134.5 1179,-164.5 1337,-164.5 1337,-134.5 1179,-134.5"/>
<text text-anchor="start" x="1187" y="-152.5" font-family="Helvetica,sans-Serif" font-size="10.00">xalanc/Include/XalanMemory</text>
<text text-anchor="middle" x="1258" y="-141.5" font-family="Helvetica,sans-Serif" font-size="10.00">Management.hpp</text>
</a>
</g>
</g>
<!-- Node8&#45;&gt;Node15 -->
<g id="edge15" class="edge">
<title>Node8&#45;&gt;Node15</title>
<path fill="none" stroke="midnightblue" d="M1181.75,-201.48C1193.92,-193.34 1212.69,-180.79 1228.56,-170.18"/>
<polygon fill="midnightblue" stroke="midnightblue" points="1230.66,-172.99 1237.02,-164.52 1226.77,-167.17 1230.66,-172.99"/>
</g>
<!-- Node15&#45;&gt;Node3 -->
<g id="edge16" class="edge">
<title>Node15&#45;&gt;Node3</title>
<path fill="none" stroke="midnightblue" d="M1178.69,-139.62C1161.64,-137.74 1143.72,-135.78 1127,-134 988.66,-119.26 828.4,-102.99 729.09,-93.01"/>
<polygon fill="midnightblue" stroke="midnightblue" points="729.38,-89.52 719.08,-92 728.68,-96.48 729.38,-89.52"/>
</g>
<!-- Node15&#45;&gt;Node9 -->
<g id="edge18" class="edge">
<title>Node15&#45;&gt;Node9</title>
<path fill="none" stroke="midnightblue" d="M1234.35,-134.4C1215.82,-123.34 1190.19,-108.06 1171.86,-97.13"/>
<polygon fill="midnightblue" stroke="midnightblue" points="1173.65,-94.12 1163.27,-92.01 1170.06,-100.13 1173.65,-94.12"/>
</g>
<!-- Node15&#45;&gt;Node11 -->
<g id="edge17" class="edge">
<title>Node15&#45;&gt;Node11</title>
<path fill="none" stroke="midnightblue" d="M1293.59,-134.4C1322.62,-122.89 1363.22,-106.8 1390.95,-95.81"/>
<polygon fill="midnightblue" stroke="midnightblue" points="1392.53,-98.95 1400.54,-92.01 1389.95,-92.44 1392.53,-98.95"/>
</g>
<!-- Node15&#45;&gt;Node12 -->
<g id="edge19" class="edge">
<title>Node15&#45;&gt;Node12</title>
<path fill="none" stroke="midnightblue" d="M1212.62,-134.4C1183.95,-125.05 1146.35,-111.97 1114,-98 1112.97,-97.56 1111.92,-97.09 1110.87,-96.61"/>
<polygon fill="midnightblue" stroke="midnightblue" points="1112.03,-93.28 1101.51,-92.02 1108.95,-99.56 1112.03,-93.28"/>
</g>
<!-- Node16 -->
<g id="node16" class="node">
<title>Node16</title>
<g id="a_node16"><a xlink:title=" ">
<polygon fill="none" stroke="#bfbfbf" points="1193.5,-67.5 1193.5,-97.5 1346.5,-97.5 1346.5,-67.5 1193.5,-67.5"/>
<text text-anchor="start" x="1201.5" y="-85.5" font-family="Helvetica,sans-Serif" font-size="10.00">xercesc/framework/Memory</text>
<text text-anchor="middle" x="1270" y="-74.5" font-family="Helvetica,sans-Serif" font-size="10.00">Manager.hpp</text>
</a>
</g>
</g>
<!-- Node15&#45;&gt;Node16 -->
<g id="edge20" class="edge">
<title>Node15&#45;&gt;Node16</title>
<path fill="none" stroke="midnightblue" d="M1260.6,-134.4C1262.05,-126.56 1263.89,-116.6 1265.56,-107.57"/>
<polygon fill="midnightblue" stroke="midnightblue" points="1269.03,-108.05 1267.4,-97.58 1262.14,-106.77 1269.03,-108.05"/>
</g>
<!-- Node18 -->
<g id="node18" class="node">
<title>Node18</title>
<g id="a_node18"><a xlink:href="PlatformSupportDefinitions_8hpp.html" target="_top" xlink:title=" ">
<polygon fill="none" stroke="black" points="208.5,-257.5 208.5,-287.5 381.5,-287.5 381.5,-257.5 208.5,-257.5"/>
<text text-anchor="start" x="216.5" y="-275.5" font-family="Helvetica,sans-Serif" font-size="10.00">xalanc/PlatformSupport</text>
<text text-anchor="middle" x="295" y="-264.5" font-family="Helvetica,sans-Serif" font-size="10.00">/PlatformSupportDefinitions.hpp</text>
</a>
</g>
</g>
<!-- Node17&#45;&gt;Node18 -->
<g id="edge22" class="edge">
<title>Node17&#45;&gt;Node18</title>
<path fill="none" stroke="midnightblue" d="M967.17,-457.72C849.88,-449.15 598.69,-422.47 403,-344 372.13,-331.62 340.72,-309.87 319.8,-293.8"/>
<polygon fill="midnightblue" stroke="midnightblue" points="321.8,-290.92 311.77,-287.51 317.49,-296.43 321.8,-290.92"/>
</g>
<!-- Node19 -->
<g id="node19" class="node">
<title>Node19</title>
<g id="a_node19"><a xlink:title=" ">
<polygon fill="none" stroke="#bfbfbf" points="861.5,-386 861.5,-405 1046.5,-405 1046.5,-386 861.5,-386"/>
<text text-anchor="middle" x="954" y="-393" font-family="Helvetica,sans-Serif" font-size="10.00">xercesc/sax/DocumentHandler.hpp</text>
</a>
</g>
</g>
<!-- Node17&#45;&gt;Node19 -->
<g id="edge24" class="edge">
<title>Node17&#45;&gt;Node19</title>
<path fill="none" stroke="midnightblue" d="M1015.86,-447.4C1003.05,-436.86 985.57,-422.48 972.46,-411.69"/>
<polygon fill="midnightblue" stroke="midnightblue" points="974.51,-408.85 964.57,-405.19 970.07,-414.25 974.51,-408.85"/>
</g>
<!-- Node17&#45;&gt;Node20 -->
<g id="edge25" class="edge">
<title>Node17&#45;&gt;Node20</title>
<path fill="none" stroke="midnightblue" d="M1062.51,-447.4C1086.16,-436.09 1119.08,-420.36 1142.03,-409.39"/>
<polygon fill="midnightblue" stroke="midnightblue" points="1143.69,-412.48 1151.2,-405.01 1140.67,-406.16 1143.69,-412.48"/>
</g>
<!-- Node18&#45;&gt;Node3 -->
<g id="edge23" class="edge">
<title>Node18&#45;&gt;Node3</title>
<path fill="none" stroke="midnightblue" d="M320.48,-257.37C383.62,-222.35 546.73,-131.9 609.17,-97.27"/>
<polygon fill="midnightblue" stroke="midnightblue" points="611.25,-100.12 618.3,-92.21 607.86,-94 611.25,-100.12"/>
</g>
<!-- Node20&#45;&gt;Node8 -->
<g id="edge50" class="edge">
<title>Node20&#45;&gt;Node8</title>
<path fill="none" stroke="midnightblue" d="M1169,-385.7C1169,-357.69 1169,-270.21 1169,-231.16"/>
<polygon fill="midnightblue" stroke="midnightblue" points="1172.5,-230.71 1169,-220.71 1165.5,-230.71 1172.5,-230.71"/>
</g>
<!-- Node20&#45;&gt;Node11 -->
<g id="edge28" class="edge">
<title>Node20&#45;&gt;Node11</title>
<path fill="none" stroke="midnightblue" d="M1187.3,-385.87C1238.47,-360.6 1382.7,-281.1 1436,-165 1445.42,-144.47 1437.98,-118.39 1430.83,-101.34"/>
<polygon fill="midnightblue" stroke="midnightblue" points="1433.92,-99.66 1426.58,-92.01 1427.55,-102.57 1433.92,-99.66"/>
</g>
<!-- Node20&#45;&gt;Node15 -->
<g id="edge49" class="edge">
<title>Node20&#45;&gt;Node15</title>
<path fill="none" stroke="midnightblue" d="M1175.83,-385.77C1194.38,-361.44 1245.49,-290.07 1263,-221 1266.83,-205.89 1265.63,-188.41 1263.44,-174.64"/>
<polygon fill="midnightblue" stroke="midnightblue" points="1266.83,-173.7 1261.56,-164.51 1259.95,-174.98 1266.83,-173.7"/>
</g>
<!-- Node21 -->
<g id="node21" class="node">
<title>Node21</title>
<g id="a_node21"><a xlink:href="XalanDOMDefinitions_8hpp.html" target="_top" xlink:title=" ">
<polygon fill="none" stroke="black" points="400,-263 400,-282 632,-282 632,-263 400,-263"/>
<text text-anchor="middle" x="516" y="-270" font-family="Helvetica,sans-Serif" font-size="10.00">xalanc/XalanDOM/XalanDOMDefinitions.hpp</text>
</a>
</g>
</g>
<!-- Node20&#45;&gt;Node21 -->
<g id="edge26" class="edge">
<title>Node20&#45;&gt;Node21</title>
<path fill="none" stroke="midnightblue" d="M1104.49,-385.98C1088.64,-383.95 1071.72,-381.84 1056,-380 905.52,-362.36 864.81,-377.3 717,-344 684.08,-336.58 595.93,-303.91 548.04,-285.76"/>
<polygon fill="midnightblue" stroke="midnightblue" points="549.05,-282.4 538.46,-282.12 546.57,-288.94 549.05,-282.4"/>
</g>
<!-- Node22 -->
<g id="node22" class="node">
<title>Node22</title>
<g id="a_node22"><a xlink:href="STLHelper_8hpp.html" target="_top" xlink:title=" ">
<polygon fill="none" stroke="black" points="726,-324.5 726,-343.5 886,-343.5 886,-324.5 726,-324.5"/>
<text text-anchor="middle" x="806" y="-331.5" font-family="Helvetica,sans-Serif" font-size="10.00">xalanc/Include/STLHelper.hpp</text>
</a>
</g>
</g>
<!-- Node20&#45;&gt;Node22 -->
<g id="edge29" class="edge">
<title>Node20&#45;&gt;Node22</title>
<path fill="none" stroke="midnightblue" d="M1116.99,-385.98C1051.22,-375.19 938.11,-356.65 867.94,-345.15"/>
<polygon fill="midnightblue" stroke="midnightblue" points="868.35,-341.67 857.91,-343.51 867.21,-348.58 868.35,-341.67"/>
</g>
<!-- Node27 -->
<g id="node27" class="node">
<title>Node27</title>
<g id="a_node27"><a xlink:href="XalanDOMException_8hpp.html" target="_top" xlink:title=" ">
<polygon fill="none" stroke="black" points="412.5,-324.5 412.5,-343.5 639.5,-343.5 639.5,-324.5 412.5,-324.5"/>
<text text-anchor="middle" x="526" y="-331.5" font-family="Helvetica,sans-Serif" font-size="10.00">xalanc/XalanDOM/XalanDOMException.hpp</text>
</a>
</g>
</g>
<!-- Node20&#45;&gt;Node27 -->
<g id="edge51" class="edge">
<title>Node20&#45;&gt;Node27</title>
<path fill="none" stroke="midnightblue" d="M1106.3,-385.97C1089.94,-383.88 1072.32,-381.74 1056,-380 917.12,-365.2 757.34,-352.18 649.84,-344"/>
<polygon fill="midnightblue" stroke="midnightblue" points="649.84,-340.49 639.6,-343.23 649.31,-347.47 649.84,-340.49"/>
</g>
<!-- Node21&#45;&gt;Node3 -->
<g id="edge27" class="edge">
<title>Node21&#45;&gt;Node3</title>
<path fill="none" stroke="midnightblue" d="M517.52,-262.97C521.93,-240.13 536.47,-176.39 568,-134 579.09,-119.09 595.73,-106.4 609.52,-97.47"/>
<polygon fill="midnightblue" stroke="midnightblue" points="611.43,-100.41 618.09,-92.16 607.75,-94.46 611.43,-100.41"/>
</g>
<!-- Node22&#45;&gt;Node3 -->
<g id="edge30" class="edge">
<title>Node22&#45;&gt;Node3</title>
<path fill="none" stroke="midnightblue" d="M770.46,-324.47C743.85,-317.17 707.16,-305.1 678,-288 675.57,-286.58 603.16,-223.56 602,-221 583.58,-180.22 607.71,-127.67 623.07,-100.88"/>
<polygon fill="midnightblue" stroke="midnightblue" points="626.1,-102.62 628.23,-92.24 620.1,-99.03 626.1,-102.62"/>
</g>
<!-- Node22&#45;&gt;Node10 -->
<g id="edge31" class="edge">
<title>Node22&#45;&gt;Node10</title>
<path fill="none" stroke="midnightblue" d="M842.7,-324.35C861.83,-317.77 883.57,-306.58 895,-288 902.22,-276.26 901.3,-269.25 895,-257 881.49,-230.74 809.14,-186.51 770.45,-164.22"/>
<polygon fill="midnightblue" stroke="midnightblue" points="771.81,-160.97 761.39,-159.05 768.34,-167.05 771.81,-160.97"/>
</g>
<!-- Node23 -->
<g id="node23" class="node">
<title>Node23</title>
<g id="a_node23"><a xlink:title=" ">
<polygon fill="none" stroke="#bfbfbf" points="610.5,-201.5 610.5,-220.5 675.5,-220.5 675.5,-201.5 610.5,-201.5"/>
<text text-anchor="middle" x="643" y="-208.5" font-family="Helvetica,sans-Serif" font-size="10.00">functional</text>
</a>
</g>
</g>
<!-- Node22&#45;&gt;Node23 -->
<g id="edge32" class="edge">
<title>Node22&#45;&gt;Node23</title>
<path fill="none" stroke="midnightblue" d="M784.37,-324.47C765.61,-316.52 738.21,-303.58 717,-288 693.24,-270.55 670.25,-245.2 656.37,-228.66"/>
<polygon fill="midnightblue" stroke="midnightblue" points="659.04,-226.4 649.98,-220.9 653.64,-230.85 659.04,-226.4"/>
</g>
<!-- Node24 -->
<g id="node24" class="node">
<title>Node24</title>
<g id="a_node24"><a xlink:href="XalanMap_8hpp.html" target="_top" xlink:title=" ">
<polygon fill="none" stroke="black" points="726,-263 726,-282 886,-282 886,-263 726,-263"/>
<text text-anchor="middle" x="806" y="-270" font-family="Helvetica,sans-Serif" font-size="10.00">xalanc/Include/XalanMap.hpp</text>
</a>
</g>
</g>
<!-- Node22&#45;&gt;Node24 -->
<g id="edge33" class="edge">
<title>Node22&#45;&gt;Node24</title>
<path fill="none" stroke="midnightblue" d="M806,-324.48C806,-316.08 806,-302.98 806,-292.16"/>
<polygon fill="midnightblue" stroke="midnightblue" points="809.5,-292.01 806,-282.01 802.5,-292.01 809.5,-292.01"/>
</g>
<!-- Node24&#45;&gt;Node3 -->
<g id="edge34" class="edge">
<title>Node24&#45;&gt;Node3</title>
<path fill="none" stroke="midnightblue" d="M787.14,-262.9C769.39,-254.15 742.82,-239.3 724,-221 686.3,-184.32 656.22,-129.16 642.34,-101.16"/>
<polygon fill="midnightblue" stroke="midnightblue" points="645.49,-99.63 637.98,-92.16 639.19,-102.68 645.49,-99.63"/>
</g>
<!-- Node24&#45;&gt;Node8 -->
<g id="edge39" class="edge">
<title>Node24&#45;&gt;Node8</title>
<path fill="none" stroke="midnightblue" d="M858.01,-262.98C923.78,-252.19 1036.89,-233.65 1107.06,-222.15"/>
<polygon fill="midnightblue" stroke="midnightblue" points="1107.79,-225.58 1117.09,-220.51 1106.65,-218.67 1107.79,-225.58"/>
</g>
<!-- Node24&#45;&gt;Node9 -->
<g id="edge35" class="edge">
<title>Node24&#45;&gt;Node9</title>
<path fill="none" stroke="midnightblue" d="M810.88,-263C825.45,-238.48 871.25,-167.25 930,-134 1002.52,-92.95 1034.22,-122.07 1114,-98 1116.28,-97.31 1118.62,-96.53 1120.96,-95.69"/>
<polygon fill="midnightblue" stroke="midnightblue" points="1122.31,-98.92 1130.36,-92.03 1119.77,-92.39 1122.31,-98.92"/>
</g>
<!-- Node24&#45;&gt;Node10 -->
<g id="edge36" class="edge">
<title>Node24&#45;&gt;Node10</title>
<path fill="none" stroke="midnightblue" d="M804.86,-262.84C802.79,-249.1 797.62,-221.77 787,-201 780.56,-188.4 770.6,-176.04 762.11,-166.7"/>
<polygon fill="midnightblue" stroke="midnightblue" points="764.57,-164.2 755.16,-159.34 759.48,-169.01 764.57,-164.2"/>
</g>
<!-- Node24&#45;&gt;Node23 -->
<g id="edge37" class="edge">
<title>Node24&#45;&gt;Node23</title>
<path fill="none" stroke="midnightblue" d="M782.65,-262.98C754.69,-252.77 707.67,-235.61 676.01,-224.05"/>
<polygon fill="midnightblue" stroke="midnightblue" points="676.9,-220.65 666.31,-220.51 674.5,-227.23 676.9,-220.65"/>
</g>
<!-- Node25 -->
<g id="node25" class="node">
<title>Node25</title>
<g id="a_node25"><a xlink:title=" ">
<polygon fill="none" stroke="#bfbfbf" points="732.5,-201.5 732.5,-220.5 777.5,-220.5 777.5,-201.5 732.5,-201.5"/>
<text text-anchor="middle" x="755" y="-208.5" font-family="Helvetica,sans-Serif" font-size="10.00">utility</text>
</a>
</g>
</g>
<!-- Node24&#45;&gt;Node25 -->
<g id="edge38" class="edge">
<title>Node24&#45;&gt;Node25</title>
<path fill="none" stroke="midnightblue" d="M798.69,-262.98C790.97,-253.96 778.59,-239.52 768.98,-228.31"/>
<polygon fill="midnightblue" stroke="midnightblue" points="771.46,-225.82 762.29,-220.51 766.14,-230.38 771.46,-225.82"/>
</g>
<!-- Node26 -->
<g id="node26" class="node">
<title>Node26</title>
<g id="a_node26"><a xlink:href="XalanList_8hpp.html" target="_top" xlink:title=" ">
<polygon fill="none" stroke="black" points="910,-201.5 910,-220.5 1066,-220.5 1066,-201.5 910,-201.5"/>
<text text-anchor="middle" x="988" y="-208.5" font-family="Helvetica,sans-Serif" font-size="10.00">xalanc/Include/XalanList.hpp</text>
</a>
</g>
</g>
<!-- Node24&#45;&gt;Node26 -->
<g id="edge40" class="edge">
<title>Node24&#45;&gt;Node26</title>
<path fill="none" stroke="midnightblue" d="M832.08,-262.98C863.57,-252.68 916.7,-235.31 952.06,-223.75"/>
<polygon fill="midnightblue" stroke="midnightblue" points="953.55,-226.94 961.97,-220.51 951.38,-220.29 953.55,-226.94"/>
</g>
<!-- Node26&#45;&gt;Node3 -->
<g id="edge41" class="edge">
<title>Node26&#45;&gt;Node3</title>
<path fill="none" stroke="midnightblue" d="M966.4,-201.49C929.7,-187.1 852.77,-157.28 787,-134 747.38,-119.98 701.57,-105.02 670.48,-95.06"/>
<polygon fill="midnightblue" stroke="midnightblue" points="671.52,-91.71 660.93,-92 669.39,-98.38 671.52,-91.71"/>
</g>
<!-- Node26&#45;&gt;Node9 -->
<g id="edge42" class="edge">
<title>Node26&#45;&gt;Node9</title>
<path fill="none" stroke="midnightblue" d="M975.4,-201.34C955.68,-186.75 921.57,-156.63 940,-134 989.86,-72.76 1038.52,-121.22 1114,-98 1116.15,-97.34 1118.34,-96.6 1120.53,-95.81"/>
<polygon fill="midnightblue" stroke="midnightblue" points="1121.93,-99.02 1129.98,-92.14 1119.39,-92.5 1121.93,-99.02"/>
</g>
<!-- Node26&#45;&gt;Node10 -->
<g id="edge43" class="edge">
<title>Node26&#45;&gt;Node10</title>
<path fill="none" stroke="midnightblue" d="M946.47,-201.47C906.63,-193.05 844.89,-179.38 792,-165 788.67,-164.09 785.21,-163.1 781.77,-162.08"/>
<polygon fill="midnightblue" stroke="midnightblue" points="782.75,-158.72 772.17,-159.14 780.71,-165.41 782.75,-158.72"/>
</g>
<!-- Node26&#45;&gt;Node11 -->
<g id="edge44" class="edge">
<title>Node26&#45;&gt;Node11</title>
<path fill="none" stroke="midnightblue" d="M1066.14,-201.54C1167.71,-190.35 1333.68,-171.3 1346,-165 1374.87,-150.24 1398.51,-119.88 1411.39,-100.67"/>
<polygon fill="midnightblue" stroke="midnightblue" points="1414.35,-102.55 1416.83,-92.25 1408.47,-98.75 1414.35,-102.55"/>
</g>
<!-- Node26&#45;&gt;Node12 -->
<g id="edge45" class="edge">
<title>Node26&#45;&gt;Node12</title>
<path fill="none" stroke="midnightblue" d="M956.19,-201.38C938.05,-194.66 916.84,-183.31 906,-165 898.98,-153.14 897.68,-144.98 906,-134 924.28,-109.88 1011.44,-94.11 1057.43,-87.31"/>
<polygon fill="midnightblue" stroke="midnightblue" points="1057.97,-90.77 1067.37,-85.89 1056.98,-83.84 1057.97,-90.77"/>
</g>
<!-- Node26&#45;&gt;Node13 -->
<g id="edge46" class="edge">
<title>Node26&#45;&gt;Node13</title>
<path fill="none" stroke="midnightblue" d="M986.14,-201.48C984.28,-192.99 981.38,-179.7 979,-168.82"/>
<polygon fill="midnightblue" stroke="midnightblue" points="982.41,-168.03 976.86,-159.01 975.57,-169.53 982.41,-168.03"/>
</g>
<!-- Node26&#45;&gt;Node14 -->
<g id="edge47" class="edge">
<title>Node26&#45;&gt;Node14</title>
<path fill="none" stroke="midnightblue" d="M997.17,-201.48C1007.15,-192.2 1023.31,-177.17 1035.51,-165.83"/>
<polygon fill="midnightblue" stroke="midnightblue" points="1037.91,-168.38 1042.85,-159.01 1033.14,-163.25 1037.91,-168.38"/>
</g>
<!-- Node26&#45;&gt;Node15 -->
<g id="edge48" class="edge">
<title>Node26&#45;&gt;Node15</title>
<path fill="none" stroke="midnightblue" d="M1026.68,-201.48C1067.69,-192.44 1133.45,-177.95 1184.39,-166.72"/>
<polygon fill="midnightblue" stroke="midnightblue" points="1185.35,-170.09 1194.37,-164.52 1183.85,-163.26 1185.35,-170.09"/>
</g>
<!-- Node27&#45;&gt;Node21 -->
<g id="edge52" class="edge">
<title>Node27&#45;&gt;Node21</title>
<path fill="none" stroke="midnightblue" d="M524.57,-324.48C523.16,-316.08 520.95,-302.98 519.14,-292.16"/>
<polygon fill="midnightblue" stroke="midnightblue" points="522.54,-291.29 517.43,-282.01 515.64,-292.45 522.54,-291.29"/>
</g>
<!-- Node28&#45;&gt;Node2 -->
<g id="edge55" class="edge">
<title>Node28&#45;&gt;Node2</title>
<path fill="none" stroke="midnightblue" d="M398.57,-447.48C361.01,-437.43 310.27,-423.86 270.59,-413.24"/>
<polygon fill="midnightblue" stroke="midnightblue" points="271.32,-409.81 260.75,-410.61 269.51,-416.58 271.32,-409.81"/>
</g>
</g>
</svg>
        <g id="navigator" transform="translate(0 0)" fill="#404254">
                <rect fill="#f2f5e9" fill-opacity="0.5" stroke="#606060" stroke-width=".5" x="0" y="0" width="60" height="60"/>
                <use id="zoomplus" xlink:href="#zoomPlus" x="17" y="9" onmousedown="handleZoom(evt,'in')"/>
                <use id="zoomminus" xlink:href="#zoomMin" x="42" y="9" onmousedown="handleZoom(evt,'out')"/>
                <use id="reset" xlink:href="#resetDef" x="30" y="36" onmousedown="handleReset()"/>
                <g id="arrowUp" xlink:href="#dirArrow" transform="translate(30 24)" onmousedown="handlePan(0,-1)">
                  <use xlink:href="#rim" fill="#404040">
                        <set attributeName="fill" to="#808080" begin="arrowUp.mouseover" end="arrowUp.mouseout"/>
                  </use>
                  <path fill="none" stroke="white" stroke-width="1.5" d="M0,-3.0v7 M-2.5,-0.5L0,-3.0L2.5,-0.5"/>
                </g>
                <g id="arrowRight" xlink:href="#dirArrow" transform="rotate(90) translate(36 -43)" onmousedown="handlePan(1,0)">
                  <use xlink:href="#rim" fill="#404040">
                        <set attributeName="fill" to="#808080" begin="arrowRight.mouseover" end="arrowRight.mouseout"/>
                  </use>
                  <path fill="none" stroke="white" stroke-width="1.5" d="M0,-3.0v7 M-2.5,-0.5L0,-3.0L2.5,-0.5"/>
                </g>
                <g id="arrowDown" xlink:href="#dirArrow" transform="rotate(180) translate(-30 -48)" onmousedown="handlePan(0,1)">
                  <use xlink:href="#rim" fill="#404040">
                        <set attributeName="fill" to="#808080" begin="arrowDown.mouseover" end="arrowDown.mouseout"/>
                  </use>
                  <path fill="none" stroke="white" stroke-width="1.5" d="M0,-3.0v7 M-2.5,-0.5L0,-3.0L2.5,-0.5"/>
                </g>
                <g id="arrowLeft" xlink:href="#dirArrow" transform="rotate(270) translate(-36 17)" onmousedown="handlePan(-1,0)">
                  <use xlink:href="#rim" fill="#404040">
                        <set attributeName="fill" to="#808080" begin="arrowLeft.mouseover" end="arrowLeft.mouseout"/>
                  </use>
                  <path fill="none" stroke="white" stroke-width="1.5" d="M0,-3.0v7 M-2.5,-0.5L0,-3.0L2.5,-0.5"/>
                </g>
        </g>
        <svg viewBox="0 0 15 15" width="100%" height="30px" preserveAspectRatio="xMaxYMin meet">
         <g id="arrow_out" transform="scale(0.3 0.3)">
          <a xlink:href="FormatterToDeprecatedXercesDOM_8hpp__incl_org.svg" target="_base">
           <rect id="button" ry="5" rx="5" y="6" x="6" height="38" width="38"
                fill="#f2f5e9" fill-opacity="0.5" stroke="#606060" stroke-width="1.0"/>
           <path id="arrow"
             d="M 11.500037,31.436501 C 11.940474,20.09759 22.043105,11.32322 32.158766,21.979434 L 37.068811,17.246167 C 37.068811,17.246167 37.088388,32 37.088388,32 L 22.160133,31.978069 C 22.160133,31.978069 26.997745,27.140456 26.997745,27.140456 C 18.528582,18.264221 13.291696,25.230495 11.500037,31.436501 z"
             style="fill:#404040;"/>
          </a>
         </g>
        </svg>
</svg>
