<?xml version="1.0" encoding="UTF-8" standalone="no"?>
<!DOCTYPE svg PUBLIC "-//W3C//DTD SVG 1.1//EN"
 "http://www.w3.org/Graphics/SVG/1.1/DTD/svg11.dtd">
<!-- Generated by graphviz version 2.38.0 (20140413.2041)
 -->
<!-- Title: xalanc/XMLSupport/FormatterToHTML.hpp Pages: 1 -->
<svg width="1337pt" height="676pt"
 viewBox="0.00 0.00 1337.00 676.00" xmlns="http://www.w3.org/2000/svg" xmlns:xlink="http://www.w3.org/1999/xlink">
<g id="graph0" class="graph" transform="scale(1 1) rotate(0) translate(4 672)">
<title>xalanc/XMLSupport/FormatterToHTML.hpp</title>
<!-- Node1 -->
<g id="node1" class="node"><title>Node1</title>
<g id="a_node1"><a xlink:title=" ">
<polygon fill="#bfbfbf" stroke="black" points="345,-637.5 345,-667.5 491,-667.5 491,-637.5 345,-637.5"/>
<text text-anchor="start" x="353" y="-655.5" font-family="Helvetica,sans-Serif" font-size="10.00">xalanc/XMLSupport/Formatter</text>
<text text-anchor="middle" x="418" y="-644.5" font-family="Helvetica,sans-Serif" font-size="10.00">ToHTML.hpp</text>
</a>
</g>
</g>
<!-- Node2 -->
<g id="node2" class="node"><title>Node2</title>
<g id="a_node2"><a xlink:href="XMLSupportDefinitions_8hpp.html" target="_top" xlink:title=" ">
<polygon fill="none" stroke="black" points="0,-503.5 0,-533.5 156,-533.5 156,-503.5 0,-503.5"/>
<text text-anchor="start" x="8" y="-521.5" font-family="Helvetica,sans-Serif" font-size="10.00">xalanc/XMLSupport/XMLSupport</text>
<text text-anchor="middle" x="78" y="-510.5" font-family="Helvetica,sans-Serif" font-size="10.00">Definitions.hpp</text>
</a>
</g>
</g>
<!-- Node1&#45;&gt;Node2 -->
<g id="edge1" class="edge"><title>Node1&#45;&gt;Node2</title>
<path fill="none" stroke="midnightblue" d="M344.815,-649.249C261.388,-645.136 132.019,-633.552 97,-601 81.5056,-586.597 77.4902,-562.213 76.9084,-543.861"/>
<polygon fill="midnightblue" stroke="midnightblue" points="80.4084,-543.616 76.9097,-533.615 73.4084,-543.615 80.4084,-543.616"/>
</g>
<!-- Node7 -->
<g id="node7" class="node"><title>Node7</title>
<g id="a_node7"><a xlink:href="XalanVector_8hpp.html" target="_top" xlink:title=" ">
<polygon fill="none" stroke="black" points="705,-201.5 705,-220.5 857,-220.5 857,-201.5 705,-201.5"/>
<text text-anchor="middle" x="781" y="-208.5" font-family="Helvetica,sans-Serif" font-size="10.00">xalanc/Include/XalanVector.hpp</text>
</a>
</g>
</g>
<!-- Node1&#45;&gt;Node7 -->
<g id="edge6" class="edge"><title>Node1&#45;&gt;Node7</title>
<path fill="none" stroke="midnightblue" d="M491.234,-650.357C649.242,-645.907 1008,-624.266 1008,-519.5 1008,-519.5 1008,-519.5 1008,-383.5 1008,-351.049 1009.68,-338.007 989,-313 948.157,-263.614 877.365,-236.546 829.861,-223.165"/>
<polygon fill="midnightblue" stroke="midnightblue" points="830.664,-219.757 820.096,-220.515 828.83,-226.512 830.664,-219.757"/>
</g>
<!-- Node16 -->
<g id="node16" class="node"><title>Node16</title>
<g id="a_node16"><a xlink:href="FormatterToXML_8hpp.html" target="_top" xlink:title=" ">
<polygon fill="none" stroke="black" points="345,-570.5 345,-600.5 491,-600.5 491,-570.5 345,-570.5"/>
<text text-anchor="start" x="353" y="-588.5" font-family="Helvetica,sans-Serif" font-size="10.00">xalanc/XMLSupport/Formatter</text>
<text text-anchor="middle" x="418" y="-577.5" font-family="Helvetica,sans-Serif" font-size="10.00">ToXML.hpp</text>
</a>
</g>
</g>
<!-- Node1&#45;&gt;Node16 -->
<g id="edge20" class="edge"><title>Node1&#45;&gt;Node16</title>
<path fill="none" stroke="midnightblue" d="M418,-637.396C418,-629.645 418,-619.812 418,-610.86"/>
<polygon fill="midnightblue" stroke="midnightblue" points="421.5,-610.576 418,-600.577 414.5,-610.577 421.5,-610.576"/>
</g>
<!-- Node25 -->
<g id="node25" class="node"><title>Node25</title>
<g id="a_node25"><a xlink:href="DOMStringHelper_8hpp.html" target="_top" xlink:title=" ">
<polygon fill="none" stroke="black" points="747,-503.5 747,-533.5 865,-533.5 865,-503.5 747,-503.5"/>
<text text-anchor="start" x="755" y="-521.5" font-family="Helvetica,sans-Serif" font-size="10.00">xalanc/PlatformSupport</text>
<text text-anchor="middle" x="806" y="-510.5" font-family="Helvetica,sans-Serif" font-size="10.00">/DOMStringHelper.hpp</text>
</a>
</g>
</g>
<!-- Node1&#45;&gt;Node25 -->
<g id="edge73" class="edge"><title>Node1&#45;&gt;Node25</title>
<path fill="none" stroke="midnightblue" d="M459.155,-637.499C530.602,-613.192 677.369,-563.261 755.099,-536.817"/>
<polygon fill="midnightblue" stroke="midnightblue" points="756.343,-540.091 764.683,-533.556 754.088,-533.464 756.343,-540.091"/>
</g>
<!-- Node32 -->
<g id="node32" class="node"><title>Node32</title>
<g id="a_node32"><a xlink:href="XalanHTMLElementsProperties_8hpp.html" target="_top" xlink:title=" ">
<polygon fill="none" stroke="black" points="106,-570.5 106,-600.5 300,-600.5 300,-570.5 106,-570.5"/>
<text text-anchor="start" x="114" y="-588.5" font-family="Helvetica,sans-Serif" font-size="10.00">xalanc/XMLSupport/XalanHTMLElements</text>
<text text-anchor="middle" x="203" y="-577.5" font-family="Helvetica,sans-Serif" font-size="10.00">Properties.hpp</text>
</a>
</g>
</g>
<!-- Node1&#45;&gt;Node32 -->
<g id="edge74" class="edge"><title>Node1&#45;&gt;Node32</title>
<path fill="none" stroke="midnightblue" d="M371.613,-637.476C338.665,-627.515 294.247,-614.086 259.272,-603.512"/>
<polygon fill="midnightblue" stroke="midnightblue" points="260.26,-600.155 249.675,-600.611 258.234,-606.855 260.26,-600.155"/>
</g>
<!-- Node3 -->
<g id="node3" class="node"><title>Node3</title>
<g id="a_node3"><a xlink:href="PlatformDefinitions_8hpp.html" target="_top" xlink:title=" ">
<polygon fill="none" stroke="black" points="325,-73 325,-92 507,-92 507,-73 325,-73"/>
<text text-anchor="middle" x="416" y="-80" font-family="Helvetica,sans-Serif" font-size="10.00">xalanc/Include/PlatformDefinitions.hpp</text>
</a>
</g>
</g>
<!-- Node2&#45;&gt;Node3 -->
<g id="edge2" class="edge"><title>Node2&#45;&gt;Node3</title>
<path fill="none" stroke="midnightblue" d="M77.6424,-503.242C77.0672,-479.037 76,-428.359 76,-385.5 76,-385.5 76,-385.5 76,-210 76,-151.698 253.831,-111.562 352.275,-93.8095"/>
<polygon fill="midnightblue" stroke="midnightblue" points="352.892,-97.2547 362.126,-92.0599 351.668,-90.3626 352.892,-97.2547"/>
</g>
<!-- Node4 -->
<g id="node4" class="node"><title>Node4</title>
<g id="a_node4"><a xlink:title=" ">
<polygon fill="none" stroke="#bfbfbf" points="214,-0.5 214,-30.5 322,-30.5 322,-0.5 214,-0.5"/>
<text text-anchor="start" x="222" y="-18.5" font-family="Helvetica,sans-Serif" font-size="10.00">xercesc/util/Xerces</text>
<text text-anchor="middle" x="268" y="-7.5" font-family="Helvetica,sans-Serif" font-size="10.00">_autoconf_config.hpp</text>
</a>
</g>
</g>
<!-- Node3&#45;&gt;Node4 -->
<g id="edge3" class="edge"><title>Node3&#45;&gt;Node4</title>
<path fill="none" stroke="midnightblue" d="M396.347,-72.8685C374.235,-63.1572 337.695,-47.1092 309.246,-34.6148"/>
<polygon fill="midnightblue" stroke="midnightblue" points="310.504,-31.3447 299.941,-30.5281 307.689,-37.7539 310.504,-31.3447"/>
</g>
<!-- Node5 -->
<g id="node5" class="node"><title>Node5</title>
<g id="a_node5"><a xlink:title=" ">
<polygon fill="none" stroke="#bfbfbf" points="340.5,-6 340.5,-25 491.5,-25 491.5,-6 340.5,-6"/>
<text text-anchor="middle" x="416" y="-13" font-family="Helvetica,sans-Serif" font-size="10.00">xercesc/util/XercesVersion.hpp</text>
</a>
</g>
</g>
<!-- Node3&#45;&gt;Node5 -->
<g id="edge4" class="edge"><title>Node3&#45;&gt;Node5</title>
<path fill="none" stroke="midnightblue" d="M416,-72.7338C416,-63.1826 416,-47.6183 416,-35.2829"/>
<polygon fill="midnightblue" stroke="midnightblue" points="419.5,-35.1273 416,-25.1273 412.5,-35.1273 419.5,-35.1273"/>
</g>
<!-- Node6 -->
<g id="node6" class="node"><title>Node6</title>
<g id="a_node6"><a xlink:href="XalanVersion_8hpp.html" target="_top" xlink:title=" ">
<polygon fill="none" stroke="black" points="510,-6 510,-25 602,-25 602,-6 510,-6"/>
<text text-anchor="middle" x="556" y="-13" font-family="Helvetica,sans-Serif" font-size="10.00">XalanVersion.hpp</text>
</a>
</g>
</g>
<!-- Node3&#45;&gt;Node6 -->
<g id="edge5" class="edge"><title>Node3&#45;&gt;Node6</title>
<path fill="none" stroke="midnightblue" d="M434.591,-72.8685C458.544,-61.7476 500.395,-42.3167 528.154,-29.4286"/>
<polygon fill="midnightblue" stroke="midnightblue" points="529.736,-32.5529 537.332,-25.1672 526.788,-26.2038 529.736,-32.5529"/>
</g>
<!-- Node7&#45;&gt;Node3 -->
<g id="edge7" class="edge"><title>Node7&#45;&gt;Node3</title>
<path fill="none" stroke="midnightblue" d="M704.955,-204.368C655.127,-198.7 589.396,-187.405 535,-165 495.142,-148.583 455.078,-117.391 433.109,-98.7194"/>
<polygon fill="midnightblue" stroke="midnightblue" points="435.21,-95.9093 425.359,-92.0094 430.628,-101.201 435.21,-95.9093"/>
</g>
<!-- Node8 -->
<g id="node8" class="node"><title>Node8</title>
<g id="a_node8"><a xlink:title=" ">
<polygon fill="none" stroke="#bfbfbf" points="937,-73 937,-92 985,-92 985,-73 937,-73"/>
<text text-anchor="middle" x="961" y="-80" font-family="Helvetica,sans-Serif" font-size="10.00">cstddef</text>
</a>
</g>
</g>
<!-- Node7&#45;&gt;Node8 -->
<g id="edge8" class="edge"><title>Node7&#45;&gt;Node8</title>
<path fill="none" stroke="midnightblue" d="M781.512,-201.409C782.902,-185.809 788.046,-152.714 807,-134 839.298,-102.111 892.04,-90.3586 926.637,-86.0275"/>
<polygon fill="midnightblue" stroke="midnightblue" points="927.194,-89.4873 936.748,-84.9076 926.424,-82.5298 927.194,-89.4873"/>
</g>
<!-- Node9 -->
<g id="node9" class="node"><title>Node9</title>
<g id="a_node9"><a xlink:title=" ">
<polygon fill="none" stroke="#bfbfbf" points="1111,-140 1111,-159 1167,-159 1167,-140 1111,-140"/>
<text text-anchor="middle" x="1139" y="-147" font-family="Helvetica,sans-Serif" font-size="10.00">algorithm</text>
</a>
</g>
</g>
<!-- Node7&#45;&gt;Node9 -->
<g id="edge9" class="edge"><title>Node7&#45;&gt;Node9</title>
<path fill="none" stroke="midnightblue" d="M832.293,-201.475C904.818,-189.421 1035.71,-167.668 1100.51,-156.898"/>
<polygon fill="midnightblue" stroke="midnightblue" points="1101.4,-160.297 1110.69,-155.205 1100.25,-153.392 1101.4,-160.297"/>
</g>
<!-- Node10 -->
<g id="node10" class="node"><title>Node10</title>
<g id="a_node10"><a xlink:title=" ">
<polygon fill="none" stroke="#bfbfbf" points="747.5,-73 747.5,-92 796.5,-92 796.5,-73 747.5,-73"/>
<text text-anchor="middle" x="772" y="-80" font-family="Helvetica,sans-Serif" font-size="10.00">cassert</text>
</a>
</g>
</g>
<!-- Node7&#45;&gt;Node10 -->
<g id="edge10" class="edge"><title>Node7&#45;&gt;Node10</title>
<path fill="none" stroke="midnightblue" d="M779.324,-201.414C777.643,-192.389 775.144,-177.757 774,-165 772.088,-143.674 771.737,-119.092 771.77,-102.55"/>
<polygon fill="midnightblue" stroke="midnightblue" points="775.273,-102.111 771.845,-92.0865 768.274,-102.061 775.273,-102.111"/>
</g>
<!-- Node11 -->
<g id="node11" class="node"><title>Node11</title>
<g id="a_node11"><a xlink:title=" ">
<polygon fill="none" stroke="#bfbfbf" points="695,-73 695,-92 729,-92 729,-73 695,-73"/>
<text text-anchor="middle" x="712" y="-80" font-family="Helvetica,sans-Serif" font-size="10.00">new</text>
</a>
</g>
</g>
<!-- Node7&#45;&gt;Node11 -->
<g id="edge11" class="edge"><title>Node7&#45;&gt;Node11</title>
<path fill="none" stroke="midnightblue" d="M776.257,-201.305C765.031,-180.723 736.649,-128.689 721.643,-101.178"/>
<polygon fill="midnightblue" stroke="midnightblue" points="724.637,-99.3587 716.776,-92.2557 718.492,-102.711 724.637,-99.3587"/>
</g>
<!-- Node12 -->
<g id="node12" class="node"><title>Node12</title>
<g id="a_node12"><a xlink:title=" ">
<polygon fill="none" stroke="#bfbfbf" points="816.5,-140 816.5,-159 863.5,-159 863.5,-140 816.5,-140"/>
<text text-anchor="middle" x="840" y="-147" font-family="Helvetica,sans-Serif" font-size="10.00">iterator</text>
</a>
</g>
</g>
<!-- Node7&#45;&gt;Node12 -->
<g id="edge12" class="edge"><title>Node7&#45;&gt;Node12</title>
<path fill="none" stroke="midnightblue" d="M789.453,-201.475C798.566,-192.285 813.27,-177.456 824.476,-166.156"/>
<polygon fill="midnightblue" stroke="midnightblue" points="827.007,-168.574 831.562,-159.009 822.036,-163.646 827.007,-168.574"/>
</g>
<!-- Node13 -->
<g id="node13" class="node"><title>Node13</title>
<g id="a_node13"><a xlink:title=" ">
<polygon fill="none" stroke="#bfbfbf" points="881.5,-140 881.5,-159 940.5,-159 940.5,-140 881.5,-140"/>
<text text-anchor="middle" x="911" y="-147" font-family="Helvetica,sans-Serif" font-size="10.00">stdexcept</text>
</a>
</g>
</g>
<!-- Node7&#45;&gt;Node13 -->
<g id="edge13" class="edge"><title>Node7&#45;&gt;Node13</title>
<path fill="none" stroke="midnightblue" d="M799.626,-201.475C821.443,-191.49 857.804,-174.848 883.017,-163.307"/>
<polygon fill="midnightblue" stroke="midnightblue" points="884.772,-166.353 892.409,-159.009 881.859,-159.988 884.772,-166.353"/>
</g>
<!-- Node14 -->
<g id="node14" class="node"><title>Node14</title>
<g id="a_node14"><a xlink:href="XalanMemoryManagement_8hpp.html" target="_top" xlink:title=" ">
<polygon fill="none" stroke="black" points="544,-134.5 544,-164.5 684,-164.5 684,-134.5 544,-134.5"/>
<text text-anchor="start" x="552" y="-152.5" font-family="Helvetica,sans-Serif" font-size="10.00">xalanc/Include/XalanMemory</text>
<text text-anchor="middle" x="614" y="-141.5" font-family="Helvetica,sans-Serif" font-size="10.00">Management.hpp</text>
</a>
</g>
</g>
<!-- Node7&#45;&gt;Node14 -->
<g id="edge14" class="edge"><title>Node7&#45;&gt;Node14</title>
<path fill="none" stroke="midnightblue" d="M757.073,-201.475C732.658,-192.776 694.066,-179.026 663.112,-167.998"/>
<polygon fill="midnightblue" stroke="midnightblue" points="663.953,-164.582 653.359,-164.523 661.604,-171.176 663.953,-164.582"/>
</g>
<!-- Node14&#45;&gt;Node3 -->
<g id="edge15" class="edge"><title>Node14&#45;&gt;Node3</title>
<path fill="none" stroke="midnightblue" d="M571.037,-134.396C535.373,-122.688 485.243,-106.231 451.742,-95.2336"/>
<polygon fill="midnightblue" stroke="midnightblue" points="452.506,-91.8007 441.914,-92.007 450.323,-98.4515 452.506,-91.8007"/>
</g>
<!-- Node14&#45;&gt;Node8 -->
<g id="edge17" class="edge"><title>Node14&#45;&gt;Node8</title>
<path fill="none" stroke="midnightblue" d="M684.221,-135.346C757.895,-121.546 870.633,-100.428 926.769,-89.9121"/>
<polygon fill="midnightblue" stroke="midnightblue" points="927.708,-93.2973 936.892,-88.0159 926.419,-86.4169 927.708,-93.2973"/>
</g>
<!-- Node14&#45;&gt;Node10 -->
<g id="edge16" class="edge"><title>Node14&#45;&gt;Node10</title>
<path fill="none" stroke="midnightblue" d="M649.072,-134.395C673.938,-124.35 708.07,-110.476 738,-98 739.407,-97.4136 740.845,-96.8112 742.297,-96.2009"/>
<polygon fill="midnightblue" stroke="midnightblue" points="744.042,-99.2629 751.887,-92.1419 741.314,-92.8165 744.042,-99.2629"/>
</g>
<!-- Node14&#45;&gt;Node11 -->
<g id="edge18" class="edge"><title>Node14&#45;&gt;Node11</title>
<path fill="none" stroke="midnightblue" d="M635.265,-134.396C651.699,-123.496 674.34,-108.479 690.766,-97.5835"/>
<polygon fill="midnightblue" stroke="midnightblue" points="692.775,-100.451 699.174,-92.007 688.906,-94.6177 692.775,-100.451"/>
</g>
<!-- Node15 -->
<g id="node15" class="node"><title>Node15</title>
<g id="a_node15"><a xlink:title=" ">
<polygon fill="none" stroke="#bfbfbf" points="539.5,-67.5 539.5,-97.5 676.5,-97.5 676.5,-67.5 539.5,-67.5"/>
<text text-anchor="start" x="547.5" y="-85.5" font-family="Helvetica,sans-Serif" font-size="10.00">xercesc/framework/Memory</text>
<text text-anchor="middle" x="608" y="-74.5" font-family="Helvetica,sans-Serif" font-size="10.00">Manager.hpp</text>
</a>
</g>
</g>
<!-- Node14&#45;&gt;Node15 -->
<g id="edge19" class="edge"><title>Node14&#45;&gt;Node15</title>
<path fill="none" stroke="midnightblue" d="M612.698,-134.396C611.975,-126.56 611.055,-116.596 610.221,-107.565"/>
<polygon fill="midnightblue" stroke="midnightblue" points="613.704,-107.212 609.299,-97.5765 606.733,-107.856 613.704,-107.212"/>
</g>
<!-- Node16&#45;&gt;Node2 -->
<g id="edge21" class="edge"><title>Node16&#45;&gt;Node2</title>
<path fill="none" stroke="midnightblue" d="M344.644,-570.476C290.777,-560.178 217.526,-546.174 161.429,-535.45"/>
<polygon fill="midnightblue" stroke="midnightblue" points="161.997,-531.995 151.518,-533.555 160.683,-538.87 161.997,-531.995"/>
</g>
<!-- Node16&#45;&gt;Node7 -->
<g id="edge22" class="edge"><title>Node16&#45;&gt;Node7</title>
<path fill="none" stroke="midnightblue" d="M431.481,-570.234C458.955,-541.777 524.311,-477.159 589,-436 622.238,-414.852 640.587,-426.208 670,-400 725.377,-350.658 760.951,-266.902 774.64,-230.174"/>
<polygon fill="midnightblue" stroke="midnightblue" points="777.939,-231.345 778.052,-220.75 771.357,-228.961 777.939,-231.345"/>
</g>
<!-- Node17 -->
<g id="node17" class="node"><title>Node17</title>
<g id="a_node17"><a xlink:href="XalanDOMString_8hpp.html" target="_top" xlink:title=" ">
<polygon fill="none" stroke="black" points="116.5,-375 116.5,-394 303.5,-394 303.5,-375 116.5,-375"/>
<text text-anchor="middle" x="210" y="-382" font-family="Helvetica,sans-Serif" font-size="10.00">xalanc/XalanDOM/XalanDOMString.hpp</text>
</a>
</g>
</g>
<!-- Node16&#45;&gt;Node17 -->
<g id="edge23" class="edge"><title>Node16&#45;&gt;Node17</title>
<path fill="none" stroke="midnightblue" d="M385.093,-570.376C345.734,-551.938 280.254,-516.131 241,-467 226.124,-448.381 217.821,-421.842 213.632,-404.164"/>
<polygon fill="midnightblue" stroke="midnightblue" points="217.019,-403.263 211.49,-394.225 210.176,-404.738 217.019,-403.263"/>
</g>
<!-- Node16&#45;&gt;Node25 -->
<g id="edge51" class="edge"><title>Node16&#45;&gt;Node25</title>
<path fill="none" stroke="midnightblue" d="M491.436,-572.198C562.004,-560.376 667.832,-542.647 736.907,-531.075"/>
<polygon fill="midnightblue" stroke="midnightblue" points="737.539,-534.518 746.823,-529.414 736.382,-527.614 737.539,-534.518"/>
</g>
<!-- Node28 -->
<g id="node28" class="node"><title>Node28</title>
<g id="a_node28"><a xlink:href="FormatterListener_8hpp.html" target="_top" xlink:title=" ">
<polygon fill="none" stroke="black" points="250,-436.5 250,-466.5 368,-466.5 368,-436.5 250,-436.5"/>
<text text-anchor="start" x="258" y="-454.5" font-family="Helvetica,sans-Serif" font-size="10.00">xalanc/PlatformSupport</text>
<text text-anchor="middle" x="309" y="-443.5" font-family="Helvetica,sans-Serif" font-size="10.00">/FormatterListener.hpp</text>
</a>
</g>
</g>
<!-- Node16&#45;&gt;Node28 -->
<g id="edge72" class="edge"><title>Node16&#45;&gt;Node28</title>
<path fill="none" stroke="midnightblue" d="M406.335,-570.374C387.322,-547.349 349.521,-501.572 327.031,-474.336"/>
<polygon fill="midnightblue" stroke="midnightblue" points="329.647,-472.007 320.581,-466.525 324.25,-476.464 329.647,-472.007"/>
</g>
<!-- Node30 -->
<g id="node30" class="node"><title>Node30</title>
<g id="a_node30"><a xlink:href="XalanUnicode_8hpp.html" target="_top" xlink:title=" ">
<polygon fill="none" stroke="black" points="386,-436.5 386,-466.5 504,-466.5 504,-436.5 386,-436.5"/>
<text text-anchor="start" x="394" y="-454.5" font-family="Helvetica,sans-Serif" font-size="10.00">xalanc/PlatformSupport</text>
<text text-anchor="middle" x="445" y="-443.5" font-family="Helvetica,sans-Serif" font-size="10.00">/XalanUnicode.hpp</text>
</a>
</g>
</g>
<!-- Node16&#45;&gt;Node30 -->
<g id="edge71" class="edge"><title>Node16&#45;&gt;Node30</title>
<path fill="none" stroke="midnightblue" d="M420.889,-570.374C425.477,-547.945 434.481,-503.924 440.094,-476.486"/>
<polygon fill="midnightblue" stroke="midnightblue" points="443.556,-477.023 442.131,-466.525 436.698,-475.62 443.556,-477.023"/>
</g>
<!-- Node17&#45;&gt;Node7 -->
<g id="edge48" class="edge"><title>Node17&#45;&gt;Node7</title>
<path fill="none" stroke="midnightblue" d="M259.967,-374.922C308.272,-366.145 383.298,-351.232 447,-333 561.624,-300.194 693.593,-247.935 751.348,-224.31"/>
<polygon fill="midnightblue" stroke="midnightblue" points="752.688,-227.544 760.609,-220.507 750.029,-221.069 752.688,-227.544"/>
</g>
<!-- Node17&#45;&gt;Node10 -->
<g id="edge26" class="edge"><title>Node17&#45;&gt;Node10</title>
<path fill="none" stroke="midnightblue" d="M251.866,-374.98C282.52,-367.379 324.149,-354.125 356,-333 455.137,-267.247 430.998,-191.75 535,-134 615.108,-89.5175 650.178,-124.142 738,-98 740.149,-97.3604 742.344,-96.6253 744.534,-95.8326"/>
<polygon fill="midnightblue" stroke="midnightblue" points="745.924,-99.0465 753.931,-92.1074 743.345,-92.5392 745.924,-99.0465"/>
</g>
<!-- Node17&#45;&gt;Node14 -->
<g id="edge47" class="edge"><title>Node17&#45;&gt;Node14</title>
<path fill="none" stroke="midnightblue" d="M261.349,-374.923C298.541,-367.348 349.234,-354.15 390,-333 474.385,-289.219 556.593,-210.24 593.6,-172.173"/>
<polygon fill="midnightblue" stroke="midnightblue" points="596.381,-174.33 600.795,-164.698 591.338,-169.475 596.381,-174.33"/>
</g>
<!-- Node18 -->
<g id="node18" class="node"><title>Node18</title>
<g id="a_node18"><a xlink:href="XalanDOMDefinitions_8hpp.html" target="_top" xlink:title=" ">
<polygon fill="none" stroke="black" points="142,-257.5 142,-276.5 348,-276.5 348,-257.5 142,-257.5"/>
<text text-anchor="middle" x="245" y="-264.5" font-family="Helvetica,sans-Serif" font-size="10.00">xalanc/XalanDOM/XalanDOMDefinitions.hpp</text>
</a>
</g>
</g>
<!-- Node17&#45;&gt;Node18 -->
<g id="edge24" class="edge"><title>Node17&#45;&gt;Node18</title>
<path fill="none" stroke="midnightblue" d="M186.908,-374.892C158.23,-362.84 115.136,-339.429 133,-313 143.992,-296.737 161.935,-286.351 180.271,-279.718"/>
<polygon fill="midnightblue" stroke="midnightblue" points="181.445,-283.016 189.861,-276.58 179.268,-276.364 181.445,-283.016"/>
</g>
<!-- Node19 -->
<g id="node19" class="node"><title>Node19</title>
<g id="a_node19"><a xlink:href="STLHelper_8hpp.html" target="_top" xlink:title=" ">
<polygon fill="none" stroke="black" points="834,-313.5 834,-332.5 980,-332.5 980,-313.5 834,-313.5"/>
<text text-anchor="middle" x="907" y="-320.5" font-family="Helvetica,sans-Serif" font-size="10.00">xalanc/Include/STLHelper.hpp</text>
</a>
</g>
</g>
<!-- Node17&#45;&gt;Node19 -->
<g id="edge27" class="edge"><title>Node17&#45;&gt;Node19</title>
<path fill="none" stroke="midnightblue" d="M265.236,-374.973C280.371,-372.82 296.797,-370.654 312,-369 493.944,-349.209 708.134,-335.303 823.414,-328.584"/>
<polygon fill="midnightblue" stroke="midnightblue" points="823.797,-332.068 833.577,-327.996 823.392,-325.08 823.797,-332.068"/>
</g>
<!-- Node24 -->
<g id="node24" class="node"><title>Node24</title>
<g id="a_node24"><a xlink:href="XalanDOMException_8hpp.html" target="_top" xlink:title=" ">
<polygon fill="none" stroke="black" points="142.5,-313.5 142.5,-332.5 347.5,-332.5 347.5,-313.5 142.5,-313.5"/>
<text text-anchor="middle" x="245" y="-320.5" font-family="Helvetica,sans-Serif" font-size="10.00">xalanc/XalanDOM/XalanDOMException.hpp</text>
</a>
</g>
</g>
<!-- Node17&#45;&gt;Node24 -->
<g id="edge49" class="edge"><title>Node17&#45;&gt;Node24</title>
<path fill="none" stroke="midnightblue" d="M215.015,-374.975C220.161,-366.227 228.312,-352.369 234.818,-341.309"/>
<polygon fill="midnightblue" stroke="midnightblue" points="237.941,-342.903 239.995,-332.509 231.908,-339.354 237.941,-342.903"/>
</g>
<!-- Node18&#45;&gt;Node3 -->
<g id="edge25" class="edge"><title>Node18&#45;&gt;Node3</title>
<path fill="none" stroke="midnightblue" d="M250.74,-257.377C265.598,-235.398 307.155,-176.046 350,-134 363.638,-120.617 380.829,-107.565 394.247,-98.0838"/>
<polygon fill="midnightblue" stroke="midnightblue" points="396.615,-100.701 402.843,-92.1301 392.63,-94.9464 396.615,-100.701"/>
</g>
<!-- Node19&#45;&gt;Node3 -->
<g id="edge28" class="edge"><title>Node19&#45;&gt;Node3</title>
<path fill="none" stroke="midnightblue" d="M833.974,-318.963C730.682,-310.542 543.241,-279.357 442,-165 426.421,-147.402 420.167,-120.418 417.663,-102.376"/>
<polygon fill="midnightblue" stroke="midnightblue" points="421.118,-101.776 416.518,-92.2311 414.162,-102.561 421.118,-101.776"/>
</g>
<!-- Node19&#45;&gt;Node9 -->
<g id="edge29" class="edge"><title>Node19&#45;&gt;Node9</title>
<path fill="none" stroke="midnightblue" d="M917.298,-313.481C941.844,-293.28 1005.94,-241.16 1062,-201 1079.87,-188.201 1100.75,-174.586 1116.25,-164.722"/>
<polygon fill="midnightblue" stroke="midnightblue" points="1118.56,-167.407 1125.14,-159.106 1114.82,-161.49 1118.56,-167.407"/>
</g>
<!-- Node20 -->
<g id="node20" class="node"><title>Node20</title>
<g id="a_node20"><a xlink:title=" ">
<polygon fill="none" stroke="#bfbfbf" points="1205,-201.5 1205,-220.5 1263,-220.5 1263,-201.5 1205,-201.5"/>
<text text-anchor="middle" x="1234" y="-208.5" font-family="Helvetica,sans-Serif" font-size="10.00">functional</text>
</a>
</g>
</g>
<!-- Node19&#45;&gt;Node20 -->
<g id="edge30" class="edge"><title>Node19&#45;&gt;Node20</title>
<path fill="none" stroke="midnightblue" d="M980.204,-317.594C1053.72,-311.946 1160.84,-300.003 1195,-277 1211.34,-265.997 1221.9,-245.642 1227.86,-230.631"/>
<polygon fill="midnightblue" stroke="midnightblue" points="1231.29,-231.449 1231.4,-220.855 1224.7,-229.065 1231.29,-231.449"/>
</g>
<!-- Node21 -->
<g id="node21" class="node"><title>Node21</title>
<g id="a_node21"><a xlink:href="XalanMap_8hpp.html" target="_top" xlink:title=" ">
<polygon fill="none" stroke="black" points="1043.5,-257.5 1043.5,-276.5 1186.5,-276.5 1186.5,-257.5 1043.5,-257.5"/>
<text text-anchor="middle" x="1115" y="-264.5" font-family="Helvetica,sans-Serif" font-size="10.00">xalanc/Include/XalanMap.hpp</text>
</a>
</g>
</g>
<!-- Node19&#45;&gt;Node21 -->
<g id="edge31" class="edge"><title>Node19&#45;&gt;Node21</title>
<path fill="none" stroke="midnightblue" d="M939.958,-313.444C975.787,-304.142 1033.16,-289.246 1072.39,-279.062"/>
<polygon fill="midnightblue" stroke="midnightblue" points="1073.4,-282.417 1082.2,-276.516 1071.64,-275.642 1073.4,-282.417"/>
</g>
<!-- Node21&#45;&gt;Node3 -->
<g id="edge32" class="edge"><title>Node21&#45;&gt;Node3</title>
<path fill="none" stroke="midnightblue" d="M1043.44,-262.226C896.697,-253.296 567.759,-226.8 476,-165 452.146,-148.934 434.266,-120.093 424.473,-101.382"/>
<polygon fill="midnightblue" stroke="midnightblue" points="427.476,-99.5597 419.878,-92.175 421.212,-102.686 427.476,-99.5597"/>
</g>
<!-- Node21&#45;&gt;Node7 -->
<g id="edge37" class="edge"><title>Node21&#45;&gt;Node7</title>
<path fill="none" stroke="midnightblue" d="M1062.08,-257.444C1002.83,-247.865 906.903,-232.356 843.883,-222.167"/>
<polygon fill="midnightblue" stroke="midnightblue" points="844.106,-218.657 833.676,-220.516 842.989,-225.568 844.106,-218.657"/>
</g>
<!-- Node21&#45;&gt;Node8 -->
<g id="edge33" class="edge"><title>Node21&#45;&gt;Node8</title>
<path fill="none" stroke="midnightblue" d="M1125.13,-257.201C1149.69,-234.807 1208.14,-174.564 1176,-134 1153.84,-106.037 1050.29,-92.0429 995.384,-86.4851"/>
<polygon fill="midnightblue" stroke="midnightblue" points="995.382,-82.9685 985.091,-85.4844 994.705,-89.9356 995.382,-82.9685"/>
</g>
<!-- Node21&#45;&gt;Node9 -->
<g id="edge34" class="edge"><title>Node21&#45;&gt;Node9</title>
<path fill="none" stroke="midnightblue" d="M1116.8,-257.319C1120.68,-238.673 1129.87,-194.443 1135.13,-169.132"/>
<polygon fill="midnightblue" stroke="midnightblue" points="1138.57,-169.785 1137.18,-159.282 1131.71,-168.361 1138.57,-169.785"/>
</g>
<!-- Node21&#45;&gt;Node20 -->
<g id="edge35" class="edge"><title>Node21&#45;&gt;Node20</title>
<path fill="none" stroke="midnightblue" d="M1133.86,-257.444C1153.27,-248.636 1183.73,-234.812 1205.96,-224.722"/>
<polygon fill="midnightblue" stroke="midnightblue" points="1207.57,-227.836 1215.23,-220.516 1204.68,-221.462 1207.57,-227.836"/>
</g>
<!-- Node22 -->
<g id="node22" class="node"><title>Node22</title>
<g id="a_node22"><a xlink:title=" ">
<polygon fill="none" stroke="#bfbfbf" points="1071,-201.5 1071,-220.5 1111,-220.5 1111,-201.5 1071,-201.5"/>
<text text-anchor="middle" x="1091" y="-208.5" font-family="Helvetica,sans-Serif" font-size="10.00">utility</text>
</a>
</g>
</g>
<!-- Node21&#45;&gt;Node22 -->
<g id="edge36" class="edge"><title>Node21&#45;&gt;Node22</title>
<path fill="none" stroke="midnightblue" d="M1111.04,-257.083C1107.79,-249.77 1103.08,-239.181 1099.05,-230.103"/>
<polygon fill="midnightblue" stroke="midnightblue" points="1102.15,-228.468 1094.89,-220.751 1095.75,-231.311 1102.15,-228.468"/>
</g>
<!-- Node23 -->
<g id="node23" class="node"><title>Node23</title>
<g id="a_node23"><a xlink:href="XalanList_8hpp.html" target="_top" xlink:title=" ">
<polygon fill="none" stroke="black" points="875,-201.5 875,-220.5 1015,-220.5 1015,-201.5 875,-201.5"/>
<text text-anchor="middle" x="945" y="-208.5" font-family="Helvetica,sans-Serif" font-size="10.00">xalanc/Include/XalanList.hpp</text>
</a>
</g>
</g>
<!-- Node21&#45;&gt;Node23 -->
<g id="edge38" class="edge"><title>Node21&#45;&gt;Node23</title>
<path fill="none" stroke="midnightblue" d="M1088.06,-257.444C1059.34,-248.32 1013.67,-233.813 981.679,-223.651"/>
<polygon fill="midnightblue" stroke="midnightblue" points="982.401,-220.208 971.811,-220.516 980.282,-226.88 982.401,-220.208"/>
</g>
<!-- Node23&#45;&gt;Node3 -->
<g id="edge39" class="edge"><title>Node23&#45;&gt;Node3</title>
<path fill="none" stroke="midnightblue" d="M948.943,-201.385C955.439,-185.748 966.064,-152.593 949,-134 917.405,-99.5738 576.464,-102.949 530,-98 516.878,-96.6024 502.927,-94.9591 489.452,-93.2903"/>
<polygon fill="midnightblue" stroke="midnightblue" points="489.618,-89.7839 479.261,-92.0129 488.748,-96.7296 489.618,-89.7839"/>
</g>
<!-- Node23&#45;&gt;Node8 -->
<g id="edge40" class="edge"><title>Node23&#45;&gt;Node8</title>
<path fill="none" stroke="midnightblue" d="M1001.69,-201.495C1023.35,-195.18 1045.95,-184.176 1059,-165 1066.75,-153.609 1066.17,-145.764 1059,-134 1045.18,-111.325 1017.55,-98.3947 995.142,-91.3069"/>
<polygon fill="midnightblue" stroke="midnightblue" points="995.862,-87.8714 985.283,-88.4474 993.912,-94.5944 995.862,-87.8714"/>
</g>
<!-- Node23&#45;&gt;Node9 -->
<g id="edge41" class="edge"><title>Node23&#45;&gt;Node9</title>
<path fill="none" stroke="midnightblue" d="M975.403,-201.431C1006.18,-192.657 1055.07,-178.438 1097,-165 1099.6,-164.168 1102.28,-163.289 1104.97,-162.393"/>
<polygon fill="midnightblue" stroke="midnightblue" points="1106.28,-165.642 1114.63,-159.119 1104.04,-159.012 1106.28,-165.642"/>
</g>
<!-- Node23&#45;&gt;Node10 -->
<g id="edge42" class="edge"><title>Node23&#45;&gt;Node10</title>
<path fill="none" stroke="midnightblue" d="M973.015,-201.397C990.174,-194.515 1010.75,-182.984 1021,-165 1027.82,-153.03 1029.72,-144.667 1021,-134 994.344,-101.395 868.915,-89.3337 806.895,-85.3092"/>
<polygon fill="midnightblue" stroke="midnightblue" points="806.995,-81.8089 796.8,-84.689 806.566,-88.7957 806.995,-81.8089"/>
</g>
<!-- Node23&#45;&gt;Node11 -->
<g id="edge43" class="edge"><title>Node23&#45;&gt;Node11</title>
<path fill="none" stroke="midnightblue" d="M955.191,-201.443C971.828,-186.469 1001.23,-155.099 983,-134 947.028,-92.3561 790.108,-115.692 738,-98 736.789,-97.5887 735.569,-97.1215 734.353,-96.6129"/>
<polygon fill="midnightblue" stroke="midnightblue" points="735.846,-93.4468 725.331,-92.1486 732.742,-99.7207 735.846,-93.4468"/>
</g>
<!-- Node23&#45;&gt;Node12 -->
<g id="edge44" class="edge"><title>Node23&#45;&gt;Node12</title>
<path fill="none" stroke="midnightblue" d="M929.956,-201.475C912.725,-191.711 884.26,-175.581 863.966,-164.081"/>
<polygon fill="midnightblue" stroke="midnightblue" points="865.442,-160.894 855.016,-159.009 861.991,-166.984 865.442,-160.894"/>
</g>
<!-- Node23&#45;&gt;Node13 -->
<g id="edge45" class="edge"><title>Node23&#45;&gt;Node13</title>
<path fill="none" stroke="midnightblue" d="M940.129,-201.475C935.13,-192.727 927.211,-178.869 920.891,-167.809"/>
<polygon fill="midnightblue" stroke="midnightblue" points="923.863,-165.955 915.862,-159.009 917.785,-169.428 923.863,-165.955"/>
</g>
<!-- Node23&#45;&gt;Node14 -->
<g id="edge46" class="edge"><title>Node23&#45;&gt;Node14</title>
<path fill="none" stroke="midnightblue" d="M897.576,-201.475C844.55,-191.943 757.783,-176.346 694.169,-164.911"/>
<polygon fill="midnightblue" stroke="midnightblue" points="694.628,-161.438 684.167,-163.113 693.39,-168.327 694.628,-161.438"/>
</g>
<!-- Node24&#45;&gt;Node18 -->
<g id="edge50" class="edge"><title>Node24&#45;&gt;Node18</title>
<path fill="none" stroke="midnightblue" d="M245,-313.083C245,-306.006 245,-295.861 245,-286.986"/>
<polygon fill="midnightblue" stroke="midnightblue" points="248.5,-286.751 245,-276.751 241.5,-286.751 248.5,-286.751"/>
</g>
<!-- Node25&#45;&gt;Node7 -->
<g id="edge58" class="edge"><title>Node25&#45;&gt;Node7</title>
<path fill="none" stroke="midnightblue" d="M827.295,-503.377C838.727,-494.461 851.727,-481.836 858,-467 863.366,-454.31 860.27,-449.589 858,-436 854.464,-414.839 805.525,-279.324 787.556,-229.957"/>
<polygon fill="midnightblue" stroke="midnightblue" points="790.844,-228.757 784.131,-220.56 784.267,-231.154 790.844,-228.757"/>
</g>
<!-- Node25&#45;&gt;Node9 -->
<g id="edge54" class="edge"><title>Node25&#45;&gt;Node9</title>
<path fill="none" stroke="midnightblue" d="M865.151,-513.313C956.595,-506.217 1127.63,-490.295 1184,-467 1239.25,-444.169 1291,-445.279 1291,-385.5 1291,-385.5 1291,-385.5 1291,-266 1291,-235.902 1292.43,-223.101 1272,-201 1247.33,-174.312 1207.08,-161.62 1177.31,-155.651"/>
<polygon fill="midnightblue" stroke="midnightblue" points="1177.72,-152.169 1167.26,-153.808 1176.46,-159.054 1177.72,-152.169"/>
</g>
<!-- Node25&#45;&gt;Node10 -->
<g id="edge55" class="edge"><title>Node25&#45;&gt;Node10</title>
<path fill="none" stroke="midnightblue" d="M865.255,-515.046C967.813,-510.066 1173.7,-496.632 1239,-467 1288.14,-444.701 1329,-439.463 1329,-385.5 1329,-385.5 1329,-385.5 1329,-210 1329,-134.073 1248.7,-155.907 1176,-134 1140.97,-123.443 898.326,-96.9283 806.819,-87.1748"/>
<polygon fill="midnightblue" stroke="midnightblue" points="806.997,-83.674 796.683,-86.0971 806.256,-90.6348 806.997,-83.674"/>
</g>
<!-- Node25&#45;&gt;Node14 -->
<g id="edge60" class="edge"><title>Node25&#45;&gt;Node14</title>
<path fill="none" stroke="midnightblue" d="M809.593,-503.288C813.125,-486.727 817.052,-458.731 810,-436 791.701,-377.012 676.532,-228.818 631.766,-172.597"/>
<polygon fill="midnightblue" stroke="midnightblue" points="634.427,-170.32 625.451,-164.69 628.957,-174.688 634.427,-170.32"/>
</g>
<!-- Node25&#45;&gt;Node17 -->
<g id="edge62" class="edge"><title>Node25&#45;&gt;Node17</title>
<path fill="none" stroke="midnightblue" d="M807.281,-503.473C808.114,-484.923 806.413,-452.643 787,-436 746.816,-401.551 364.618,-405.728 312,-400 300.123,-398.707 287.499,-397.102 275.327,-395.435"/>
<polygon fill="midnightblue" stroke="midnightblue" points="275.624,-391.942 265.236,-394.026 274.656,-398.875 275.624,-391.942"/>
</g>
<!-- Node25&#45;&gt;Node19 -->
<g id="edge61" class="edge"><title>Node25&#45;&gt;Node19</title>
<path fill="none" stroke="midnightblue" d="M849.614,-503.383C866.958,-495.484 885.3,-483.763 896,-467 920.601,-428.46 915.569,-371.635 910.758,-342.585"/>
<polygon fill="midnightblue" stroke="midnightblue" points="914.172,-341.796 908.924,-332.592 907.287,-343.06 914.172,-341.796"/>
</g>
<!-- Node25&#45;&gt;Node20 -->
<g id="edge56" class="edge"><title>Node25&#45;&gt;Node20</title>
<path fill="none" stroke="midnightblue" d="M865.358,-512.489C986.951,-500.584 1253,-465.406 1253,-385.5 1253,-385.5 1253,-385.5 1253,-322 1253,-289.489 1244.84,-252.35 1239.22,-230.61"/>
<polygon fill="midnightblue" stroke="midnightblue" points="1242.54,-229.498 1236.56,-220.751 1235.78,-231.317 1242.54,-229.498"/>
</g>
<!-- Node25&#45;&gt;Node21 -->
<g id="edge59" class="edge"><title>Node25&#45;&gt;Node21</title>
<path fill="none" stroke="midnightblue" d="M845.855,-503.437C867.864,-494.697 895.096,-482.226 917,-467 996.686,-411.609 1072.2,-321.988 1101.82,-284.901"/>
<polygon fill="midnightblue" stroke="midnightblue" points="1104.88,-286.672 1108.34,-276.656 1099.39,-282.331 1104.88,-286.672"/>
</g>
<!-- Node26 -->
<g id="node26" class="node"><title>Node26</title>
<g id="a_node26"><a xlink:href="PlatformSupportDefinitions_8hpp.html" target="_top" xlink:title=" ">
<polygon fill="none" stroke="black" points="508.5,-369.5 508.5,-399.5 661.5,-399.5 661.5,-369.5 508.5,-369.5"/>
<text text-anchor="start" x="516.5" y="-387.5" font-family="Helvetica,sans-Serif" font-size="10.00">xalanc/PlatformSupport</text>
<text text-anchor="middle" x="585" y="-376.5" font-family="Helvetica,sans-Serif" font-size="10.00">/PlatformSupportDefinitions.hpp</text>
</a>
</g>
</g>
<!-- Node25&#45;&gt;Node26 -->
<g id="edge52" class="edge"><title>Node25&#45;&gt;Node26</title>
<path fill="none" stroke="midnightblue" d="M746.773,-511.674C689.638,-504.715 608.954,-490.904 589,-467 575.932,-451.346 576.295,-427.53 579.117,-409.679"/>
<polygon fill="midnightblue" stroke="midnightblue" points="582.582,-410.194 581.036,-399.713 575.708,-408.871 582.582,-410.194"/>
</g>
<!-- Node27 -->
<g id="node27" class="node"><title>Node27</title>
<g id="a_node27"><a xlink:title=" ">
<polygon fill="none" stroke="#bfbfbf" points="734,-442 734,-461 778,-461 778,-442 734,-442"/>
<text text-anchor="middle" x="756" y="-449" font-family="Helvetica,sans-Serif" font-size="10.00">iosfwd</text>
</a>
</g>
</g>
<!-- Node25&#45;&gt;Node27 -->
<g id="edge57" class="edge"><title>Node25&#45;&gt;Node27</title>
<path fill="none" stroke="midnightblue" d="M795.151,-503.396C787.432,-493.361 777.029,-479.838 768.887,-469.253"/>
<polygon fill="midnightblue" stroke="midnightblue" points="771.559,-466.987 762.688,-461.195 766.011,-471.255 771.559,-466.987"/>
</g>
<!-- Node25&#45;&gt;Node28 -->
<g id="edge63" class="edge"><title>Node25&#45;&gt;Node28</title>
<path fill="none" stroke="midnightblue" d="M746.772,-512.284C665.731,-504.757 515.582,-489.425 378.149,-467.098"/>
<polygon fill="midnightblue" stroke="midnightblue" points="378.711,-463.644 368.277,-465.479 377.578,-470.552 378.711,-463.644"/>
</g>
<!-- Node25&#45;&gt;Node30 -->
<g id="edge67" class="edge"><title>Node25&#45;&gt;Node30</title>
<path fill="none" stroke="midnightblue" d="M746.792,-506.839C683.055,-495.363 581.762,-477.125 514.345,-464.986"/>
<polygon fill="midnightblue" stroke="midnightblue" points="514.702,-461.494 504.24,-463.166 513.461,-468.383 514.702,-461.494"/>
</g>
<!-- Node31 -->
<g id="node31" class="node"><title>Node31</title>
<g id="a_node31"><a xlink:href="XalanXMLChar_8hpp.html" target="_top" xlink:title=" ">
<polygon fill="none" stroke="black" points="598,-436.5 598,-466.5 716,-466.5 716,-436.5 598,-436.5"/>
<text text-anchor="start" x="606" y="-454.5" font-family="Helvetica,sans-Serif" font-size="10.00">xalanc/PlatformSupport</text>
<text text-anchor="middle" x="657" y="-443.5" font-family="Helvetica,sans-Serif" font-size="10.00">/XalanXMLChar.hpp</text>
</a>
</g>
</g>
<!-- Node25&#45;&gt;Node31 -->
<g id="edge69" class="edge"><title>Node25&#45;&gt;Node31</title>
<path fill="none" stroke="midnightblue" d="M773.669,-503.396C751.703,-493.814 722.445,-481.05 698.724,-470.702"/>
<polygon fill="midnightblue" stroke="midnightblue" points="699.833,-467.367 689.268,-466.577 697.034,-473.783 699.833,-467.367"/>
</g>
<!-- Node26&#45;&gt;Node3 -->
<g id="edge53" class="edge"><title>Node26&#45;&gt;Node3</title>
<path fill="none" stroke="midnightblue" d="M569.764,-369.438C535.967,-337.159 455.097,-253.678 422,-165 414.422,-144.696 413.751,-119.606 414.443,-102.67"/>
<polygon fill="midnightblue" stroke="midnightblue" points="417.953,-102.602 415.071,-92.4068 410.966,-102.174 417.953,-102.602"/>
</g>
<!-- Node28&#45;&gt;Node17 -->
<g id="edge66" class="edge"><title>Node28&#45;&gt;Node17</title>
<path fill="none" stroke="midnightblue" d="M287.518,-436.396C270.916,-425.496 248.044,-410.479 231.45,-399.584"/>
<polygon fill="midnightblue" stroke="midnightblue" points="233.237,-396.57 222.957,-394.007 229.395,-402.421 233.237,-396.57"/>
</g>
<!-- Node28&#45;&gt;Node26 -->
<g id="edge64" class="edge"><title>Node28&#45;&gt;Node26</title>
<path fill="none" stroke="midnightblue" d="M368.209,-436.556C411.446,-426.373 470.201,-412.536 515.638,-401.835"/>
<polygon fill="midnightblue" stroke="midnightblue" points="516.482,-405.232 525.413,-399.533 514.877,-398.419 516.482,-405.232"/>
</g>
<!-- Node29 -->
<g id="node29" class="node"><title>Node29</title>
<g id="a_node29"><a xlink:title=" ">
<polygon fill="none" stroke="#bfbfbf" points="321.5,-375 321.5,-394 490.5,-394 490.5,-375 321.5,-375"/>
<text text-anchor="middle" x="406" y="-382" font-family="Helvetica,sans-Serif" font-size="10.00">xercesc/sax/DocumentHandler.hpp</text>
</a>
</g>
</g>
<!-- Node28&#45;&gt;Node29 -->
<g id="edge65" class="edge"><title>Node28&#45;&gt;Node29</title>
<path fill="none" stroke="midnightblue" d="M330.048,-436.396C346.314,-425.496 368.724,-410.479 384.983,-399.584"/>
<polygon fill="midnightblue" stroke="midnightblue" points="386.946,-402.481 393.305,-394.007 383.049,-396.666 386.946,-402.481"/>
</g>
<!-- Node30&#45;&gt;Node26 -->
<g id="edge68" class="edge"><title>Node30&#45;&gt;Node26</title>
<path fill="none" stroke="midnightblue" d="M475.378,-436.396C495.925,-426.856 523.264,-414.163 545.499,-403.84"/>
<polygon fill="midnightblue" stroke="midnightblue" points="547.085,-406.962 554.681,-399.577 544.137,-400.613 547.085,-406.962"/>
</g>
<!-- Node31&#45;&gt;Node26 -->
<g id="edge70" class="edge"><title>Node31&#45;&gt;Node26</title>
<path fill="none" stroke="midnightblue" d="M641.377,-436.396C631.659,-427.623 618.987,-416.183 608.119,-406.371"/>
<polygon fill="midnightblue" stroke="midnightblue" points="610.361,-403.68 600.592,-399.577 605.67,-408.876 610.361,-403.68"/>
</g>
<!-- Node32&#45;&gt;Node2 -->
<g id="edge75" class="edge"><title>Node32&#45;&gt;Node2</title>
<path fill="none" stroke="midnightblue" d="M175.877,-570.396C157.777,-560.984 133.774,-548.503 114.069,-538.256"/>
<polygon fill="midnightblue" stroke="midnightblue" points="115.557,-535.085 105.07,-533.577 112.328,-541.295 115.557,-535.085"/>
</g>
<!-- Node32&#45;&gt;Node17 -->
<g id="edge76" class="edge"><title>Node32&#45;&gt;Node17</title>
<path fill="none" stroke="midnightblue" d="M203.454,-570.164C204.301,-543.667 206.196,-485.237 208,-436 208.384,-425.527 208.845,-413.834 209.227,-404.339"/>
<polygon fill="midnightblue" stroke="midnightblue" points="212.735,-404.211 209.645,-394.077 205.741,-403.927 212.735,-404.211"/>
</g>
</g>
</svg>
