<?xml version="1.0" encoding="UTF-8" standalone="no"?>
<!DOCTYPE svg PUBLIC "-//W3C//DTD SVG 1.1//EN"
 "http://www.w3.org/Graphics/SVG/1.1/DTD/svg11.dtd">
<!-- Generated by graphviz version 2.43.0 (0)
 -->
<!-- Title: xalanc/XMLSupport/FormatterToHTML.hpp Pages: 1 -->
<svg width="1415pt" height="676pt"
 viewBox="0.00 0.00 1415.00 676.00" xmlns="http://www.w3.org/2000/svg" xmlns:xlink="http://www.w3.org/1999/xlink">
<g id="graph0" class="graph" transform="scale(1 1) rotate(0) translate(4 672)">
<title>xalanc/XMLSupport/FormatterToHTML.hpp</title>
<!-- Node1 -->
<g id="node1" class="node">
<title>Node1</title>
<g id="a_node1"><a xlink:title=" ">
<polygon fill="#bfbfbf" stroke="black" points="373.5,-637.5 373.5,-667.5 534.5,-667.5 534.5,-637.5 373.5,-637.5"/>
<text text-anchor="start" x="381.5" y="-655.5" font-family="Helvetica,sans-Serif" font-size="10.00">xalanc/XMLSupport/Formatter</text>
<text text-anchor="middle" x="454" y="-644.5" font-family="Helvetica,sans-Serif" font-size="10.00">ToHTML.hpp</text>
</a>
</g>
</g>
<!-- Node2 -->
<g id="node2" class="node">
<title>Node2</title>
<g id="a_node2"><a xlink:href="XMLSupportDefinitions_8hpp.html" target="_top" xlink:title=" ">
<polygon fill="none" stroke="black" points="0,-503.5 0,-533.5 172,-533.5 172,-503.5 0,-503.5"/>
<text text-anchor="start" x="8" y="-521.5" font-family="Helvetica,sans-Serif" font-size="10.00">xalanc/XMLSupport/XMLSupport</text>
<text text-anchor="middle" x="86" y="-510.5" font-family="Helvetica,sans-Serif" font-size="10.00">Definitions.hpp</text>
</a>
</g>
</g>
<!-- Node1&#45;&gt;Node2 -->
<g id="edge1" class="edge">
<title>Node1&#45;&gt;Node2</title>
<path fill="none" stroke="midnightblue" d="M373.28,-650.07C282.58,-646.76 143.05,-635.93 105,-601 89.34,-586.63 85.38,-562.07 84.85,-543.66"/>
<polygon fill="midnightblue" stroke="midnightblue" points="88.35,-543.66 84.88,-533.65 81.35,-543.64 88.35,-543.66"/>
</g>
<!-- Node7 -->
<g id="node7" class="node">
<title>Node7</title>
<g id="a_node7"><a xlink:href="XalanVector_8hpp.html" target="_top" xlink:title=" ">
<polygon fill="none" stroke="black" points="735.5,-201.5 735.5,-220.5 904.5,-220.5 904.5,-201.5 735.5,-201.5"/>
<text text-anchor="middle" x="820" y="-208.5" font-family="Helvetica,sans-Serif" font-size="10.00">xalanc/Include/XalanVector.hpp</text>
</a>
</g>
</g>
<!-- Node1&#45;&gt;Node7 -->
<g id="edge6" class="edge">
<title>Node1&#45;&gt;Node7</title>
<path fill="none" stroke="midnightblue" d="M534.61,-651C702.24,-647.78 1073,-628.35 1073,-519.5 1073,-519.5 1073,-519.5 1073,-383.5 1073,-351.05 1075.23,-337.54 1054,-313 1009.53,-261.6 934.18,-235.52 881.02,-222.88"/>
<polygon fill="midnightblue" stroke="midnightblue" points="881.56,-219.42 871.03,-220.6 880,-226.24 881.56,-219.42"/>
</g>
<!-- Node16 -->
<g id="node16" class="node">
<title>Node16</title>
<g id="a_node16"><a xlink:href="FormatterToXML_8hpp.html" target="_top" xlink:title=" ">
<polygon fill="none" stroke="black" points="373.5,-570.5 373.5,-600.5 534.5,-600.5 534.5,-570.5 373.5,-570.5"/>
<text text-anchor="start" x="381.5" y="-588.5" font-family="Helvetica,sans-Serif" font-size="10.00">xalanc/XMLSupport/Formatter</text>
<text text-anchor="middle" x="454" y="-577.5" font-family="Helvetica,sans-Serif" font-size="10.00">ToXML.hpp</text>
</a>
</g>
</g>
<!-- Node1&#45;&gt;Node16 -->
<g id="edge20" class="edge">
<title>Node1&#45;&gt;Node16</title>
<path fill="none" stroke="midnightblue" d="M454,-637.4C454,-629.64 454,-619.81 454,-610.86"/>
<polygon fill="midnightblue" stroke="midnightblue" points="457.5,-610.58 454,-600.58 450.5,-610.58 457.5,-610.58"/>
</g>
<!-- Node25 -->
<g id="node25" class="node">
<title>Node25</title>
<g id="a_node25"><a xlink:href="DOMStringHelper_8hpp.html" target="_top" xlink:title=" ">
<polygon fill="none" stroke="black" points="801.5,-503.5 801.5,-533.5 932.5,-533.5 932.5,-503.5 801.5,-503.5"/>
<text text-anchor="start" x="809.5" y="-521.5" font-family="Helvetica,sans-Serif" font-size="10.00">xalanc/PlatformSupport</text>
<text text-anchor="middle" x="867" y="-510.5" font-family="Helvetica,sans-Serif" font-size="10.00">/DOMStringHelper.hpp</text>
</a>
</g>
</g>
<!-- Node1&#45;&gt;Node25 -->
<g id="edge73" class="edge">
<title>Node1&#45;&gt;Node25</title>
<path fill="none" stroke="midnightblue" d="M497.81,-637.5C574.01,-613.14 730.72,-563.06 813.32,-536.66"/>
<polygon fill="midnightblue" stroke="midnightblue" points="814.56,-539.93 823.02,-533.56 812.43,-533.27 814.56,-539.93"/>
</g>
<!-- Node32 -->
<g id="node32" class="node">
<title>Node32</title>
<g id="a_node32"><a xlink:href="XalanHTMLElementsProperties_8hpp.html" target="_top" xlink:title=" ">
<polygon fill="none" stroke="black" points="114.5,-570.5 114.5,-600.5 329.5,-600.5 329.5,-570.5 114.5,-570.5"/>
<text text-anchor="start" x="122.5" y="-588.5" font-family="Helvetica,sans-Serif" font-size="10.00">xalanc/XMLSupport/XalanHTMLElements</text>
<text text-anchor="middle" x="222" y="-577.5" font-family="Helvetica,sans-Serif" font-size="10.00">Properties.hpp</text>
</a>
</g>
</g>
<!-- Node1&#45;&gt;Node32 -->
<g id="edge74" class="edge">
<title>Node1&#45;&gt;Node32</title>
<path fill="none" stroke="midnightblue" d="M403.95,-637.48C368.24,-627.47 320.05,-613.97 282.24,-603.38"/>
<polygon fill="midnightblue" stroke="midnightblue" points="282.94,-599.94 272.37,-600.61 281.05,-606.68 282.94,-599.94"/>
</g>
<!-- Node3 -->
<g id="node3" class="node">
<title>Node3</title>
<g id="a_node3"><a xlink:href="PlatformDefinitions_8hpp.html" target="_top" xlink:title=" ">
<polygon fill="none" stroke="black" points="344,-73 344,-92 550,-92 550,-73 344,-73"/>
<text text-anchor="middle" x="447" y="-80" font-family="Helvetica,sans-Serif" font-size="10.00">xalanc/Include/PlatformDefinitions.hpp</text>
</a>
</g>
</g>
<!-- Node2&#45;&gt;Node3 -->
<g id="edge2" class="edge">
<title>Node2&#45;&gt;Node3</title>
<path fill="none" stroke="midnightblue" d="M84.57,-503.26C82.27,-479.08 78,-428.43 78,-385.5 78,-385.5 78,-385.5 78,-210 78,-148.33 264.76,-110.38 372.55,-93.62"/>
<polygon fill="midnightblue" stroke="midnightblue" points="373.37,-97.03 382.73,-92.06 372.31,-90.11 373.37,-97.03"/>
</g>
<!-- Node4 -->
<g id="node4" class="node">
<title>Node4</title>
<g id="a_node4"><a xlink:title=" ">
<polygon fill="none" stroke="#bfbfbf" points="226,-0.5 226,-30.5 346,-30.5 346,-0.5 226,-0.5"/>
<text text-anchor="start" x="234" y="-18.5" font-family="Helvetica,sans-Serif" font-size="10.00">xercesc/util/Xerces</text>
<text text-anchor="middle" x="286" y="-7.5" font-family="Helvetica,sans-Serif" font-size="10.00">_autoconf_config.hpp</text>
</a>
</g>
</g>
<!-- Node3&#45;&gt;Node4 -->
<g id="edge3" class="edge">
<title>Node3&#45;&gt;Node4</title>
<path fill="none" stroke="midnightblue" d="M425.62,-72.87C401.36,-63.07 361.12,-46.83 330.06,-34.29"/>
<polygon fill="midnightblue" stroke="midnightblue" points="331.33,-31.03 320.75,-30.53 328.71,-37.52 331.33,-31.03"/>
</g>
<!-- Node5 -->
<g id="node5" class="node">
<title>Node5</title>
<g id="a_node5"><a xlink:title=" ">
<polygon fill="none" stroke="#bfbfbf" points="364.5,-6 364.5,-25 529.5,-25 529.5,-6 364.5,-6"/>
<text text-anchor="middle" x="447" y="-13" font-family="Helvetica,sans-Serif" font-size="10.00">xercesc/util/XercesVersion.hpp</text>
</a>
</g>
</g>
<!-- Node3&#45;&gt;Node5 -->
<g id="edge4" class="edge">
<title>Node3&#45;&gt;Node5</title>
<path fill="none" stroke="midnightblue" d="M447,-72.73C447,-63.18 447,-47.62 447,-35.28"/>
<polygon fill="midnightblue" stroke="midnightblue" points="450.5,-35.13 447,-25.13 443.5,-35.13 450.5,-35.13"/>
</g>
<!-- Node6 -->
<g id="node6" class="node">
<title>Node6</title>
<g id="a_node6"><a xlink:href="XalanVersion_8hpp.html" target="_top" xlink:title=" ">
<polygon fill="none" stroke="black" points="547.5,-6 547.5,-25 722.5,-25 722.5,-6 547.5,-6"/>
<text text-anchor="middle" x="635" y="-13" font-family="Helvetica,sans-Serif" font-size="10.00">xalanc/Include/XalanVersion.hpp</text>
</a>
</g>
</g>
<!-- Node3&#45;&gt;Node6 -->
<g id="edge5" class="edge">
<title>Node3&#45;&gt;Node6</title>
<path fill="none" stroke="midnightblue" d="M471.96,-72.87C504.92,-61.47 563.12,-41.35 600.33,-28.49"/>
<polygon fill="midnightblue" stroke="midnightblue" points="601.92,-31.64 610.23,-25.06 599.64,-25.02 601.92,-31.64"/>
</g>
<!-- Node7&#45;&gt;Node3 -->
<g id="edge7" class="edge">
<title>Node7&#45;&gt;Node3</title>
<path fill="none" stroke="midnightblue" d="M735.24,-203.22C685.95,-197.2 623.42,-185.94 571,-165 529.64,-148.47 487.58,-117.09 464.64,-98.46"/>
<polygon fill="midnightblue" stroke="midnightblue" points="466.76,-95.67 456.82,-92 462.3,-101.07 466.76,-95.67"/>
</g>
<!-- Node8 -->
<g id="node8" class="node">
<title>Node8</title>
<g id="a_node8"><a xlink:title=" ">
<polygon fill="none" stroke="#bfbfbf" points="997.5,-73 997.5,-92 1050.5,-92 1050.5,-73 997.5,-73"/>
<text text-anchor="middle" x="1024" y="-80" font-family="Helvetica,sans-Serif" font-size="10.00">cstddef</text>
</a>
</g>
</g>
<!-- Node7&#45;&gt;Node8 -->
<g id="edge8" class="edge">
<title>Node7&#45;&gt;Node8</title>
<path fill="none" stroke="midnightblue" d="M822.31,-201.31C826.95,-185.54 838.88,-152.19 861,-134 897.45,-104.03 951.64,-91.8 987.39,-86.84"/>
<polygon fill="midnightblue" stroke="midnightblue" points="987.92,-90.3 997.4,-85.58 987.04,-83.36 987.92,-90.3"/>
</g>
<!-- Node9 -->
<g id="node9" class="node">
<title>Node9</title>
<g id="a_node9"><a xlink:title=" ">
<polygon fill="none" stroke="#bfbfbf" points="1177,-140 1177,-159 1241,-159 1241,-140 1177,-140"/>
<text text-anchor="middle" x="1209" y="-147" font-family="Helvetica,sans-Serif" font-size="10.00">algorithm</text>
</a>
</g>
</g>
<!-- Node7&#45;&gt;Node9 -->
<g id="edge9" class="edge">
<title>Node7&#45;&gt;Node9</title>
<path fill="none" stroke="midnightblue" d="M875.73,-201.48C954.36,-189.45 1096.13,-167.76 1166.7,-156.97"/>
<polygon fill="midnightblue" stroke="midnightblue" points="1167.64,-160.37 1176.99,-155.4 1166.58,-153.45 1167.64,-160.37"/>
</g>
<!-- Node10 -->
<g id="node10" class="node">
<title>Node10</title>
<g id="a_node10"><a xlink:title=" ">
<polygon fill="none" stroke="#bfbfbf" points="803,-73 803,-92 855,-92 855,-73 803,-73"/>
<text text-anchor="middle" x="829" y="-80" font-family="Helvetica,sans-Serif" font-size="10.00">cassert</text>
</a>
</g>
</g>
<!-- Node7&#45;&gt;Node10 -->
<g id="edge10" class="edge">
<title>Node7&#45;&gt;Node10</title>
<path fill="none" stroke="midnightblue" d="M820.62,-201.31C822.06,-180.99 825.69,-130.05 827.66,-102.28"/>
<polygon fill="midnightblue" stroke="midnightblue" points="831.16,-102.48 828.38,-92.26 824.18,-101.98 831.16,-102.48"/>
</g>
<!-- Node11 -->
<g id="node11" class="node">
<title>Node11</title>
<g id="a_node11"><a xlink:title=" ">
<polygon fill="none" stroke="#bfbfbf" points="747.5,-73 747.5,-92 784.5,-92 784.5,-73 747.5,-73"/>
<text text-anchor="middle" x="766" y="-80" font-family="Helvetica,sans-Serif" font-size="10.00">new</text>
</a>
</g>
</g>
<!-- Node7&#45;&gt;Node11 -->
<g id="edge11" class="edge">
<title>Node7&#45;&gt;Node11</title>
<path fill="none" stroke="midnightblue" d="M816.29,-201.31C807.54,-180.81 785.48,-129.15 773.7,-101.54"/>
<polygon fill="midnightblue" stroke="midnightblue" points="776.88,-100.08 769.74,-92.26 770.44,-102.83 776.88,-100.08"/>
</g>
<!-- Node12 -->
<g id="node12" class="node">
<title>Node12</title>
<g id="a_node12"><a xlink:title=" ">
<polygon fill="none" stroke="#bfbfbf" points="870.5,-140 870.5,-159 923.5,-159 923.5,-140 870.5,-140"/>
<text text-anchor="middle" x="897" y="-147" font-family="Helvetica,sans-Serif" font-size="10.00">iterator</text>
</a>
</g>
</g>
<!-- Node7&#45;&gt;Node12 -->
<g id="edge12" class="edge">
<title>Node7&#45;&gt;Node12</title>
<path fill="none" stroke="midnightblue" d="M831.03,-201.48C843.27,-192.02 863.23,-176.6 877.99,-165.19"/>
<polygon fill="midnightblue" stroke="midnightblue" points="880.22,-167.89 885.99,-159.01 875.94,-162.35 880.22,-167.89"/>
</g>
<!-- Node13 -->
<g id="node13" class="node">
<title>Node13</title>
<g id="a_node13"><a xlink:title=" ">
<polygon fill="none" stroke="#bfbfbf" points="941.5,-140 941.5,-159 1006.5,-159 1006.5,-140 941.5,-140"/>
<text text-anchor="middle" x="974" y="-147" font-family="Helvetica,sans-Serif" font-size="10.00">stdexcept</text>
</a>
</g>
</g>
<!-- Node7&#45;&gt;Node13 -->
<g id="edge13" class="edge">
<title>Node7&#45;&gt;Node13</title>
<path fill="none" stroke="midnightblue" d="M842.06,-201.48C868.37,-191.31 912.51,-174.26 942.42,-162.7"/>
<polygon fill="midnightblue" stroke="midnightblue" points="943.91,-165.88 951.98,-159.01 941.39,-159.35 943.91,-165.88"/>
</g>
<!-- Node14 -->
<g id="node14" class="node">
<title>Node14</title>
<g id="a_node14"><a xlink:href="XalanMemoryManagement_8hpp.html" target="_top" xlink:title=" ">
<polygon fill="none" stroke="black" points="580,-134.5 580,-164.5 738,-164.5 738,-134.5 580,-134.5"/>
<text text-anchor="start" x="588" y="-152.5" font-family="Helvetica,sans-Serif" font-size="10.00">xalanc/Include/XalanMemory</text>
<text text-anchor="middle" x="659" y="-141.5" font-family="Helvetica,sans-Serif" font-size="10.00">Management.hpp</text>
</a>
</g>
</g>
<!-- Node7&#45;&gt;Node14 -->
<g id="edge14" class="edge">
<title>Node7&#45;&gt;Node14</title>
<path fill="none" stroke="midnightblue" d="M796.93,-201.48C773.4,-192.78 736.19,-179.03 706.35,-168"/>
<polygon fill="midnightblue" stroke="midnightblue" points="707.54,-164.71 696.94,-164.52 705.11,-171.27 707.54,-164.71"/>
</g>
<!-- Node14&#45;&gt;Node3 -->
<g id="edge15" class="edge">
<title>Node14&#45;&gt;Node3</title>
<path fill="none" stroke="midnightblue" d="M613.26,-134.48C574.76,-122.67 520.39,-106 484.44,-94.98"/>
<polygon fill="midnightblue" stroke="midnightblue" points="485.4,-91.61 474.82,-92.03 483.35,-98.31 485.4,-91.61"/>
</g>
<!-- Node14&#45;&gt;Node8 -->
<g id="edge17" class="edge">
<title>Node14&#45;&gt;Node8</title>
<path fill="none" stroke="midnightblue" d="M737.75,-134.48C814.89,-120.74 929.06,-100.41 987.15,-90.06"/>
<polygon fill="midnightblue" stroke="midnightblue" points="988.09,-93.45 997.32,-88.25 986.87,-86.56 988.09,-93.45"/>
</g>
<!-- Node14&#45;&gt;Node10 -->
<g id="edge16" class="edge">
<title>Node14&#45;&gt;Node10</title>
<path fill="none" stroke="midnightblue" d="M696.92,-134.47C723.8,-124.46 760.69,-110.59 793,-98 794.84,-97.28 796.72,-96.54 798.62,-95.79"/>
<polygon fill="midnightblue" stroke="midnightblue" points="800.1,-98.97 808.09,-92.01 797.51,-92.47 800.1,-98.97"/>
</g>
<!-- Node14&#45;&gt;Node11 -->
<g id="edge18" class="edge">
<title>Node14&#45;&gt;Node11</title>
<path fill="none" stroke="midnightblue" d="M682.22,-134.4C700.33,-123.39 725.34,-108.2 743.31,-97.28"/>
<polygon fill="midnightblue" stroke="midnightblue" points="745.27,-100.19 752,-92.01 741.63,-94.21 745.27,-100.19"/>
</g>
<!-- Node15 -->
<g id="node15" class="node">
<title>Node15</title>
<g id="a_node15"><a xlink:title=" ">
<polygon fill="none" stroke="#bfbfbf" points="576.5,-67.5 576.5,-97.5 729.5,-97.5 729.5,-67.5 576.5,-67.5"/>
<text text-anchor="start" x="584.5" y="-85.5" font-family="Helvetica,sans-Serif" font-size="10.00">xercesc/framework/Memory</text>
<text text-anchor="middle" x="653" y="-74.5" font-family="Helvetica,sans-Serif" font-size="10.00">Manager.hpp</text>
</a>
</g>
</g>
<!-- Node14&#45;&gt;Node15 -->
<g id="edge19" class="edge">
<title>Node14&#45;&gt;Node15</title>
<path fill="none" stroke="midnightblue" d="M657.7,-134.4C656.97,-126.56 656.05,-116.6 655.22,-107.57"/>
<polygon fill="midnightblue" stroke="midnightblue" points="658.7,-107.21 654.3,-97.58 651.73,-107.86 658.7,-107.21"/>
</g>
<!-- Node16&#45;&gt;Node2 -->
<g id="edge21" class="edge">
<title>Node16&#45;&gt;Node2</title>
<path fill="none" stroke="midnightblue" d="M374.6,-570.48C316.06,-560.14 236.36,-546.06 175.55,-535.32"/>
<polygon fill="midnightblue" stroke="midnightblue" points="176.03,-531.85 165.57,-533.55 174.81,-538.74 176.03,-531.85"/>
</g>
<!-- Node16&#45;&gt;Node7 -->
<g id="edge22" class="edge">
<title>Node16&#45;&gt;Node7</title>
<path fill="none" stroke="midnightblue" d="M468.09,-570.19C496.8,-541.65 565.01,-476.88 632,-436 667.02,-414.63 686.57,-427.51 717,-400 770.79,-351.37 802.37,-267.86 814.38,-230.73"/>
<polygon fill="midnightblue" stroke="midnightblue" points="817.85,-231.38 817.49,-220.79 811.17,-229.29 817.85,-231.38"/>
</g>
<!-- Node17 -->
<g id="node17" class="node">
<title>Node17</title>
<g id="a_node17"><a xlink:href="XalanDOMString_8hpp.html" target="_top" xlink:title=" ">
<polygon fill="none" stroke="black" points="106,-375 106,-394 314,-394 314,-375 106,-375"/>
<text text-anchor="middle" x="210" y="-382" font-family="Helvetica,sans-Serif" font-size="10.00">xalanc/XalanDOM/XalanDOMString.hpp</text>
</a>
</g>
</g>
<!-- Node16&#45;&gt;Node17 -->
<g id="edge23" class="edge">
<title>Node16&#45;&gt;Node17</title>
<path fill="none" stroke="midnightblue" d="M419.45,-570.45C377.06,-551.85 304.94,-515.65 257,-467 238.69,-448.41 224.93,-421.29 217.17,-403.52"/>
<polygon fill="midnightblue" stroke="midnightblue" points="220.3,-401.93 213.22,-394.05 213.84,-404.62 220.3,-401.93"/>
</g>
<!-- Node16&#45;&gt;Node25 -->
<g id="edge51" class="edge">
<title>Node16&#45;&gt;Node25</title>
<path fill="none" stroke="midnightblue" d="M534.61,-571.81C608.93,-560.12 718.44,-542.88 791.2,-531.43"/>
<polygon fill="midnightblue" stroke="midnightblue" points="791.88,-534.87 801.21,-529.85 790.79,-527.95 791.88,-534.87"/>
</g>
<!-- Node28 -->
<g id="node28" class="node">
<title>Node28</title>
<g id="a_node28"><a xlink:href="FormatterListener_8hpp.html" target="_top" xlink:title=" ">
<polygon fill="none" stroke="black" points="266.5,-436.5 266.5,-466.5 397.5,-466.5 397.5,-436.5 266.5,-436.5"/>
<text text-anchor="start" x="274.5" y="-454.5" font-family="Helvetica,sans-Serif" font-size="10.00">xalanc/PlatformSupport</text>
<text text-anchor="middle" x="332" y="-443.5" font-family="Helvetica,sans-Serif" font-size="10.00">/FormatterListener.hpp</text>
</a>
</g>
</g>
<!-- Node16&#45;&gt;Node28 -->
<g id="edge72" class="edge">
<title>Node16&#45;&gt;Node28</title>
<path fill="none" stroke="midnightblue" d="M440.94,-570.37C419.57,-547.25 376.99,-501.18 351.86,-473.99"/>
<polygon fill="midnightblue" stroke="midnightblue" points="354.32,-471.49 344.96,-466.52 349.18,-476.24 354.32,-471.49"/>
</g>
<!-- Node30 -->
<g id="node30" class="node">
<title>Node30</title>
<g id="a_node30"><a xlink:href="XalanUnicode_8hpp.html" target="_top" xlink:title=" ">
<polygon fill="none" stroke="black" points="415.5,-436.5 415.5,-466.5 546.5,-466.5 546.5,-436.5 415.5,-436.5"/>
<text text-anchor="start" x="423.5" y="-454.5" font-family="Helvetica,sans-Serif" font-size="10.00">xalanc/PlatformSupport</text>
<text text-anchor="middle" x="481" y="-443.5" font-family="Helvetica,sans-Serif" font-size="10.00">/XalanUnicode.hpp</text>
</a>
</g>
</g>
<!-- Node16&#45;&gt;Node30 -->
<g id="edge71" class="edge">
<title>Node16&#45;&gt;Node30</title>
<path fill="none" stroke="midnightblue" d="M456.89,-570.37C461.48,-547.94 470.48,-503.92 476.09,-476.49"/>
<polygon fill="midnightblue" stroke="midnightblue" points="479.56,-477.02 478.13,-466.52 472.7,-475.62 479.56,-477.02"/>
</g>
<!-- Node17&#45;&gt;Node7 -->
<g id="edge48" class="edge">
<title>Node17&#45;&gt;Node7</title>
<path fill="none" stroke="midnightblue" d="M266.28,-374.99C319.5,-366.39 401.36,-351.71 471,-333 590.97,-300.77 729.22,-248.03 789.38,-224.28"/>
<polygon fill="midnightblue" stroke="midnightblue" points="790.68,-227.53 798.69,-220.59 788.1,-221.02 790.68,-227.53"/>
</g>
<!-- Node17&#45;&gt;Node10 -->
<g id="edge26" class="edge">
<title>Node17&#45;&gt;Node10</title>
<path fill="none" stroke="midnightblue" d="M263.47,-374.98C298.5,-367.68 344.24,-354.79 380,-333 484.68,-269.2 462.45,-190.97 571,-134 659.51,-87.55 696.71,-124.84 793,-98 795.44,-97.32 797.94,-96.53 800.44,-95.67"/>
<polygon fill="midnightblue" stroke="midnightblue" points="801.71,-98.93 809.84,-92.13 799.25,-92.37 801.71,-98.93"/>
</g>
<!-- Node17&#45;&gt;Node14 -->
<g id="edge47" class="edge">
<title>Node17&#45;&gt;Node14</title>
<path fill="none" stroke="midnightblue" d="M270.6,-374.99C312.35,-367.6 368.31,-354.59 414,-333 505.49,-289.77 596.68,-209.62 637.21,-171.58"/>
<polygon fill="midnightblue" stroke="midnightblue" points="639.77,-173.98 644.63,-164.56 634.96,-168.89 639.77,-173.98"/>
</g>
<!-- Node18 -->
<g id="node18" class="node">
<title>Node18</title>
<g id="a_node18"><a xlink:href="XalanDOMDefinitions_8hpp.html" target="_top" xlink:title=" ">
<polygon fill="none" stroke="black" points="140,-257.5 140,-276.5 372,-276.5 372,-257.5 140,-257.5"/>
<text text-anchor="middle" x="256" y="-264.5" font-family="Helvetica,sans-Serif" font-size="10.00">xalanc/XalanDOM/XalanDOMDefinitions.hpp</text>
</a>
</g>
</g>
<!-- Node17&#45;&gt;Node18 -->
<g id="edge24" class="edge">
<title>Node17&#45;&gt;Node18</title>
<path fill="none" stroke="midnightblue" d="M187.82,-374.92C159.71,-362.73 116.95,-338.97 135,-313 146.38,-296.63 164.46,-286.2 183.22,-279.56"/>
<polygon fill="midnightblue" stroke="midnightblue" points="184.29,-282.89 192.75,-276.51 182.16,-276.22 184.29,-282.89"/>
</g>
<!-- Node19 -->
<g id="node19" class="node">
<title>Node19</title>
<g id="a_node19"><a xlink:href="STLHelper_8hpp.html" target="_top" xlink:title=" ">
<polygon fill="none" stroke="black" points="885,-313.5 885,-332.5 1045,-332.5 1045,-313.5 885,-313.5"/>
<text text-anchor="middle" x="965" y="-320.5" font-family="Helvetica,sans-Serif" font-size="10.00">xalanc/Include/STLHelper.hpp</text>
</a>
</g>
</g>
<!-- Node17&#45;&gt;Node19 -->
<g id="edge27" class="edge">
<title>Node17&#45;&gt;Node19</title>
<path fill="none" stroke="midnightblue" d="M271.21,-374.99C287.98,-372.84 306.17,-370.67 323,-369 519.29,-349.54 750.16,-335.52 874.57,-328.69"/>
<polygon fill="midnightblue" stroke="midnightblue" points="875.01,-332.17 884.8,-328.13 874.63,-325.18 875.01,-332.17"/>
</g>
<!-- Node24 -->
<g id="node24" class="node">
<title>Node24</title>
<g id="a_node24"><a xlink:href="XalanDOMException_8hpp.html" target="_top" xlink:title=" ">
<polygon fill="none" stroke="black" points="144.5,-313.5 144.5,-332.5 371.5,-332.5 371.5,-313.5 144.5,-313.5"/>
<text text-anchor="middle" x="258" y="-320.5" font-family="Helvetica,sans-Serif" font-size="10.00">xalanc/XalanDOM/XalanDOMException.hpp</text>
</a>
</g>
</g>
<!-- Node17&#45;&gt;Node24 -->
<g id="edge49" class="edge">
<title>Node17&#45;&gt;Node24</title>
<path fill="none" stroke="midnightblue" d="M216.88,-374.98C224.15,-365.96 235.8,-351.52 244.84,-340.31"/>
<polygon fill="midnightblue" stroke="midnightblue" points="247.58,-342.49 251.14,-332.51 242.13,-338.09 247.58,-342.49"/>
</g>
<!-- Node18&#45;&gt;Node3 -->
<g id="edge25" class="edge">
<title>Node18&#45;&gt;Node3</title>
<path fill="none" stroke="midnightblue" d="M263.93,-257.36C283.8,-235.84 337.65,-178.35 386,-134 399.53,-121.59 415.55,-108.38 427.78,-98.58"/>
<polygon fill="midnightblue" stroke="midnightblue" points="430.27,-101.08 435.92,-92.12 425.91,-95.6 430.27,-101.08"/>
</g>
<!-- Node19&#45;&gt;Node3 -->
<g id="edge28" class="edge">
<title>Node19&#45;&gt;Node3</title>
<path fill="none" stroke="midnightblue" d="M884.93,-319.58C776.02,-311.8 582.47,-281.28 475,-165 458.85,-147.53 451.96,-120.32 449.06,-102.21"/>
<polygon fill="midnightblue" stroke="midnightblue" points="452.52,-101.72 447.72,-92.28 445.59,-102.66 452.52,-101.72"/>
</g>
<!-- Node19&#45;&gt;Node9 -->
<g id="edge29" class="edge">
<title>Node19&#45;&gt;Node9</title>
<path fill="none" stroke="midnightblue" d="M975.75,-313.44C1001.39,-293.15 1068.35,-240.85 1127,-201 1146.19,-187.96 1168.67,-174.22 1185.23,-164.37"/>
<polygon fill="midnightblue" stroke="midnightblue" points="1187.4,-167.15 1194.23,-159.05 1183.84,-161.13 1187.4,-167.15"/>
</g>
<!-- Node20 -->
<g id="node20" class="node">
<title>Node20</title>
<g id="a_node20"><a xlink:title=" ">
<polygon fill="none" stroke="#bfbfbf" points="1275.5,-201.5 1275.5,-220.5 1340.5,-220.5 1340.5,-201.5 1275.5,-201.5"/>
<text text-anchor="middle" x="1308" y="-208.5" font-family="Helvetica,sans-Serif" font-size="10.00">functional</text>
</a>
</g>
</g>
<!-- Node19&#45;&gt;Node20 -->
<g id="edge30" class="edge">
<title>Node19&#45;&gt;Node20</title>
<path fill="none" stroke="midnightblue" d="M1045.27,-318.5C1124.31,-313.64 1238.23,-302.36 1274,-277 1289.55,-265.98 1298.54,-245.62 1303.32,-230.62"/>
<polygon fill="midnightblue" stroke="midnightblue" points="1306.73,-231.42 1306.1,-220.85 1300,-229.51 1306.73,-231.42"/>
</g>
<!-- Node21 -->
<g id="node21" class="node">
<title>Node21</title>
<g id="a_node21"><a xlink:href="XalanMap_8hpp.html" target="_top" xlink:title=" ">
<polygon fill="none" stroke="black" points="1105,-257.5 1105,-276.5 1265,-276.5 1265,-257.5 1105,-257.5"/>
<text text-anchor="middle" x="1185" y="-264.5" font-family="Helvetica,sans-Serif" font-size="10.00">xalanc/Include/XalanMap.hpp</text>
</a>
</g>
</g>
<!-- Node19&#45;&gt;Node21 -->
<g id="edge31" class="edge">
<title>Node19&#45;&gt;Node21</title>
<path fill="none" stroke="midnightblue" d="M999.86,-313.44C1037.92,-304.1 1098.96,-289.12 1140.46,-278.93"/>
<polygon fill="midnightblue" stroke="midnightblue" points="1141.43,-282.3 1150.3,-276.52 1139.76,-275.5 1141.43,-282.3"/>
</g>
<!-- Node21&#45;&gt;Node3 -->
<g id="edge32" class="edge">
<title>Node21&#45;&gt;Node3</title>
<path fill="none" stroke="midnightblue" d="M1104.71,-262.37C947.6,-253.92 606.43,-228.62 510,-165 485.45,-148.8 466.45,-119.79 455.99,-101.1"/>
<polygon fill="midnightblue" stroke="midnightblue" points="459.01,-99.32 451.2,-92.16 452.84,-102.63 459.01,-99.32"/>
</g>
<!-- Node21&#45;&gt;Node7 -->
<g id="edge37" class="edge">
<title>Node21&#45;&gt;Node7</title>
<path fill="none" stroke="midnightblue" d="M1127.16,-257.44C1062.16,-247.83 956.72,-232.23 887.87,-222.04"/>
<polygon fill="midnightblue" stroke="midnightblue" points="887.97,-218.52 877.56,-220.52 886.94,-225.44 887.97,-218.52"/>
</g>
<!-- Node21&#45;&gt;Node8 -->
<g id="edge33" class="edge">
<title>Node21&#45;&gt;Node8</title>
<path fill="none" stroke="midnightblue" d="M1195.61,-257.24C1221.36,-234.93 1282.74,-174.87 1250,-134 1226.69,-104.91 1118.54,-91.46 1060.71,-86.26"/>
<polygon fill="midnightblue" stroke="midnightblue" points="1060.8,-82.76 1050.53,-85.39 1060.2,-89.73 1060.8,-82.76"/>
</g>
<!-- Node21&#45;&gt;Node9 -->
<g id="edge34" class="edge">
<title>Node21&#45;&gt;Node9</title>
<path fill="none" stroke="midnightblue" d="M1186.8,-257.32C1190.68,-238.67 1199.87,-194.44 1205.13,-169.13"/>
<polygon fill="midnightblue" stroke="midnightblue" points="1208.57,-169.78 1207.18,-159.28 1201.71,-168.36 1208.57,-169.78"/>
</g>
<!-- Node21&#45;&gt;Node20 -->
<g id="edge35" class="edge">
<title>Node21&#45;&gt;Node20</title>
<path fill="none" stroke="midnightblue" d="M1204.49,-257.44C1224.64,-248.6 1256.32,-234.69 1279.33,-224.59"/>
<polygon fill="midnightblue" stroke="midnightblue" points="1280.85,-227.74 1288.6,-220.52 1278.04,-221.33 1280.85,-227.74"/>
</g>
<!-- Node22 -->
<g id="node22" class="node">
<title>Node22</title>
<g id="a_node22"><a xlink:title=" ">
<polygon fill="none" stroke="#bfbfbf" points="1135.5,-201.5 1135.5,-220.5 1180.5,-220.5 1180.5,-201.5 1135.5,-201.5"/>
<text text-anchor="middle" x="1158" y="-208.5" font-family="Helvetica,sans-Serif" font-size="10.00">utility</text>
</a>
</g>
</g>
<!-- Node21&#45;&gt;Node22 -->
<g id="edge36" class="edge">
<title>Node21&#45;&gt;Node22</title>
<path fill="none" stroke="midnightblue" d="M1180.54,-257.08C1176.85,-249.69 1171.48,-238.95 1166.91,-229.81"/>
<polygon fill="midnightblue" stroke="midnightblue" points="1169.98,-228.13 1162.38,-220.75 1163.72,-231.26 1169.98,-228.13"/>
</g>
<!-- Node23 -->
<g id="node23" class="node">
<title>Node23</title>
<g id="a_node23"><a xlink:href="XalanList_8hpp.html" target="_top" xlink:title=" ">
<polygon fill="none" stroke="black" points="923,-201.5 923,-220.5 1079,-220.5 1079,-201.5 923,-201.5"/>
<text text-anchor="middle" x="1001" y="-208.5" font-family="Helvetica,sans-Serif" font-size="10.00">xalanc/Include/XalanList.hpp</text>
</a>
</g>
</g>
<!-- Node21&#45;&gt;Node23 -->
<g id="edge38" class="edge">
<title>Node21&#45;&gt;Node23</title>
<path fill="none" stroke="midnightblue" d="M1155.84,-257.44C1124.49,-248.24 1074.47,-233.56 1039.8,-223.39"/>
<polygon fill="midnightblue" stroke="midnightblue" points="1040.6,-219.97 1030.02,-220.52 1038.63,-226.69 1040.6,-219.97"/>
</g>
<!-- Node23&#45;&gt;Node3 -->
<g id="edge39" class="edge">
<title>Node23&#45;&gt;Node3</title>
<path fill="none" stroke="midnightblue" d="M1006.61,-201.43C1016.03,-185.87 1032.38,-152.83 1015,-134 981.13,-97.3 616.69,-103 567,-98 553.05,-96.6 538.22,-94.94 523.9,-93.26"/>
<polygon fill="midnightblue" stroke="midnightblue" points="523.94,-89.74 513.59,-92.03 523.11,-96.69 523.94,-89.74"/>
</g>
<!-- Node23&#45;&gt;Node8 -->
<g id="edge40" class="edge">
<title>Node23&#45;&gt;Node8</title>
<path fill="none" stroke="midnightblue" d="M1067.4,-201.41C1089.4,-195.05 1111.66,-184.03 1125,-165 1132.91,-153.72 1132.24,-145.72 1125,-134 1110.99,-111.34 1083.4,-98.51 1060.59,-91.45"/>
<polygon fill="midnightblue" stroke="midnightblue" points="1061.41,-88.05 1050.83,-88.69 1059.5,-94.78 1061.41,-88.05"/>
</g>
<!-- Node23&#45;&gt;Node9 -->
<g id="edge41" class="edge">
<title>Node23&#45;&gt;Node9</title>
<path fill="none" stroke="midnightblue" d="M1033.06,-201.44C1065.81,-192.62 1118.08,-178.31 1163,-165 1166.13,-164.07 1169.38,-163.09 1172.63,-162.09"/>
<polygon fill="midnightblue" stroke="midnightblue" points="1173.78,-165.4 1182.29,-159.09 1171.7,-158.71 1173.78,-165.4"/>
</g>
<!-- Node23&#45;&gt;Node10 -->
<g id="edge42" class="edge">
<title>Node23&#45;&gt;Node10</title>
<path fill="none" stroke="midnightblue" d="M1035.18,-201.49C1053.99,-194.88 1075.74,-183.6 1087,-165 1094.14,-153.21 1095.76,-144.64 1087,-134 1059.32,-100.37 929.49,-88.82 865.22,-85.11"/>
<polygon fill="midnightblue" stroke="midnightblue" points="865.3,-81.61 855.13,-84.56 864.92,-88.6 865.3,-81.61"/>
</g>
<!-- Node23&#45;&gt;Node11 -->
<g id="edge43" class="edge">
<title>Node23&#45;&gt;Node11</title>
<path fill="none" stroke="midnightblue" d="M1013.43,-201.45C1033.34,-186.75 1068.24,-156.15 1049,-134 1011.47,-90.8 848.52,-115.41 794,-98 792.57,-97.54 791.12,-97.02 789.67,-96.44"/>
<polygon fill="midnightblue" stroke="midnightblue" points="790.96,-93.18 780.42,-92.14 788.02,-99.53 790.96,-93.18"/>
</g>
<!-- Node23&#45;&gt;Node12 -->
<g id="edge44" class="edge">
<title>Node23&#45;&gt;Node12</title>
<path fill="none" stroke="midnightblue" d="M986.1,-201.48C969.03,-191.71 940.84,-175.58 920.74,-164.08"/>
<polygon fill="midnightblue" stroke="midnightblue" points="922.29,-160.94 911.87,-159.01 918.81,-167.01 922.29,-160.94"/>
</g>
<!-- Node23&#45;&gt;Node13 -->
<g id="edge45" class="edge">
<title>Node23&#45;&gt;Node13</title>
<path fill="none" stroke="midnightblue" d="M997.13,-201.48C993.2,-192.82 987,-179.15 982.01,-168.15"/>
<polygon fill="midnightblue" stroke="midnightblue" points="985.18,-166.67 977.86,-159.01 978.81,-169.56 985.18,-166.67"/>
</g>
<!-- Node23&#45;&gt;Node14 -->
<g id="edge46" class="edge">
<title>Node23&#45;&gt;Node14</title>
<path fill="none" stroke="midnightblue" d="M952,-201.48C899.05,-192.26 813.55,-177.39 748.54,-166.08"/>
<polygon fill="midnightblue" stroke="midnightblue" points="748.74,-162.56 738.29,-164.29 747.54,-169.46 748.74,-162.56"/>
</g>
<!-- Node24&#45;&gt;Node18 -->
<g id="edge50" class="edge">
<title>Node24&#45;&gt;Node18</title>
<path fill="none" stroke="midnightblue" d="M257.67,-313.08C257.41,-306.01 257.03,-295.86 256.7,-286.99"/>
<polygon fill="midnightblue" stroke="midnightblue" points="260.19,-286.61 256.32,-276.75 253.2,-286.87 260.19,-286.61"/>
</g>
<!-- Node25&#45;&gt;Node7 -->
<g id="edge58" class="edge">
<title>Node25&#45;&gt;Node7</title>
<path fill="none" stroke="midnightblue" d="M888.3,-503.38C899.73,-494.46 912.73,-481.84 919,-467 924.37,-454.31 921.85,-449.48 919,-436 916.69,-425.05 851.24,-280.66 828.05,-229.68"/>
<polygon fill="midnightblue" stroke="midnightblue" points="831.22,-228.2 823.89,-220.54 824.85,-231.1 831.22,-228.2"/>
</g>
<!-- Node25&#45;&gt;Node9 -->
<g id="edge54" class="edge">
<title>Node25&#45;&gt;Node9</title>
<path fill="none" stroke="midnightblue" d="M932.7,-513.35C1029.58,-506.53 1205.6,-491.23 1264,-467 1318.56,-444.36 1369,-444.57 1369,-385.5 1369,-385.5 1369,-385.5 1369,-266 1369,-235.9 1370.64,-222.91 1350,-201 1324.29,-173.71 1282.81,-161.14 1251.48,-155.37"/>
<polygon fill="midnightblue" stroke="midnightblue" points="1251.72,-151.86 1241.28,-153.66 1250.56,-158.76 1251.72,-151.86"/>
</g>
<!-- Node25&#45;&gt;Node10 -->
<g id="edge55" class="edge">
<title>Node25&#45;&gt;Node10</title>
<path fill="none" stroke="midnightblue" d="M932.85,-515.06C1040.77,-510.24 1250,-497.23 1317,-467 1366.19,-444.81 1407,-439.46 1407,-385.5 1407,-385.5 1407,-385.5 1407,-210 1407,-132.48 1324.39,-155.8 1250,-134 1213.4,-123.27 960.18,-96.82 865.03,-87.13"/>
<polygon fill="midnightblue" stroke="midnightblue" points="865.32,-83.64 855.02,-86.11 864.61,-90.61 865.32,-83.64"/>
</g>
<!-- Node25&#45;&gt;Node14 -->
<g id="edge60" class="edge">
<title>Node25&#45;&gt;Node14</title>
<path fill="none" stroke="midnightblue" d="M870.74,-503.24C874.41,-486.63 878.47,-458.6 871,-436 860.86,-405.35 725.77,-234.2 676.68,-172.6"/>
<polygon fill="midnightblue" stroke="midnightblue" points="679.31,-170.29 670.34,-164.66 673.84,-174.66 679.31,-170.29"/>
</g>
<!-- Node25&#45;&gt;Node17 -->
<g id="edge62" class="edge">
<title>Node25&#45;&gt;Node17</title>
<path fill="none" stroke="midnightblue" d="M868.3,-503.45C869.15,-484.88 867.47,-452.57 848,-436 803.47,-398.1 381.19,-405.72 323,-400 309.46,-398.67 295.03,-397 281.18,-395.28"/>
<polygon fill="midnightblue" stroke="midnightblue" points="281.57,-391.81 271.21,-394.03 280.69,-398.75 281.57,-391.81"/>
</g>
<!-- Node25&#45;&gt;Node19 -->
<g id="edge61" class="edge">
<title>Node25&#45;&gt;Node19</title>
<path fill="none" stroke="midnightblue" d="M910.78,-503.49C928.16,-495.61 946.48,-483.87 957,-467 981.16,-428.26 974.78,-371.52 969.24,-342.54"/>
<polygon fill="midnightblue" stroke="midnightblue" points="972.62,-341.64 967.15,-332.57 965.77,-343.07 972.62,-341.64"/>
</g>
<!-- Node25&#45;&gt;Node20 -->
<g id="edge56" class="edge">
<title>Node25&#45;&gt;Node20</title>
<path fill="none" stroke="midnightblue" d="M932.99,-512.54C1061.09,-501.09 1331,-467.26 1331,-385.5 1331,-385.5 1331,-385.5 1331,-322 1331,-289.12 1321.03,-251.86 1314.22,-230.24"/>
<polygon fill="midnightblue" stroke="midnightblue" points="1317.54,-229.12 1311.1,-220.71 1310.89,-231.3 1317.54,-229.12"/>
</g>
<!-- Node25&#45;&gt;Node21 -->
<g id="edge59" class="edge">
<title>Node25&#45;&gt;Node21</title>
<path fill="none" stroke="midnightblue" d="M906.2,-503.46C928.26,-494.65 955.75,-482.1 978,-467 1060.48,-411.02 1140.41,-321.07 1171.45,-284.38"/>
<polygon fill="midnightblue" stroke="midnightblue" points="1174.2,-286.54 1177.94,-276.63 1168.84,-282.04 1174.2,-286.54"/>
</g>
<!-- Node26 -->
<g id="node26" class="node">
<title>Node26</title>
<g id="a_node26"><a xlink:href="PlatformSupportDefinitions_8hpp.html" target="_top" xlink:title=" ">
<polygon fill="none" stroke="black" points="535.5,-369.5 535.5,-399.5 708.5,-399.5 708.5,-369.5 535.5,-369.5"/>
<text text-anchor="start" x="543.5" y="-387.5" font-family="Helvetica,sans-Serif" font-size="10.00">xalanc/PlatformSupport</text>
<text text-anchor="middle" x="622" y="-376.5" font-family="Helvetica,sans-Serif" font-size="10.00">/PlatformSupportDefinitions.hpp</text>
</a>
</g>
</g>
<!-- Node25&#45;&gt;Node26 -->
<g id="edge52" class="edge">
<title>Node25&#45;&gt;Node26</title>
<path fill="none" stroke="midnightblue" d="M801.28,-511.82C739.88,-505.08 654.42,-491.52 632,-467 618.07,-451.77 616.7,-427.7 618.14,-409.66"/>
<polygon fill="midnightblue" stroke="midnightblue" points="621.63,-409.92 619.27,-399.59 614.67,-409.14 621.63,-409.92"/>
</g>
<!-- Node27 -->
<g id="node27" class="node">
<title>Node27</title>
<g id="a_node27"><a xlink:title=" ">
<polygon fill="none" stroke="#bfbfbf" points="791,-442 791,-461 839,-461 839,-442 791,-442"/>
<text text-anchor="middle" x="815" y="-449" font-family="Helvetica,sans-Serif" font-size="10.00">iosfwd</text>
</a>
</g>
</g>
<!-- Node25&#45;&gt;Node27 -->
<g id="edge57" class="edge">
<title>Node25&#45;&gt;Node27</title>
<path fill="none" stroke="midnightblue" d="M855.72,-503.4C847.69,-493.36 836.87,-479.84 828.4,-469.25"/>
<polygon fill="midnightblue" stroke="midnightblue" points="830.94,-466.82 821.96,-461.19 825.47,-471.19 830.94,-466.82"/>
</g>
<!-- Node25&#45;&gt;Node28 -->
<g id="edge63" class="edge">
<title>Node25&#45;&gt;Node28</title>
<path fill="none" stroke="midnightblue" d="M801.12,-512.04C713.46,-504.39 553.48,-489.07 407.74,-467.19"/>
<polygon fill="midnightblue" stroke="midnightblue" points="408.13,-463.71 397.72,-465.68 407.08,-470.63 408.13,-463.71"/>
</g>
<!-- Node25&#45;&gt;Node30 -->
<g id="edge67" class="edge">
<title>Node25&#45;&gt;Node30</title>
<path fill="none" stroke="midnightblue" d="M801.08,-506.4C733.36,-495 628.05,-477.26 556.89,-465.28"/>
<polygon fill="midnightblue" stroke="midnightblue" points="557.09,-461.76 546.65,-463.55 555.93,-468.67 557.09,-461.76"/>
</g>
<!-- Node31 -->
<g id="node31" class="node">
<title>Node31</title>
<g id="a_node31"><a xlink:href="XalanXMLChar_8hpp.html" target="_top" xlink:title=" ">
<polygon fill="none" stroke="black" points="641.5,-436.5 641.5,-466.5 772.5,-466.5 772.5,-436.5 641.5,-436.5"/>
<text text-anchor="start" x="649.5" y="-454.5" font-family="Helvetica,sans-Serif" font-size="10.00">xalanc/PlatformSupport</text>
<text text-anchor="middle" x="707" y="-443.5" font-family="Helvetica,sans-Serif" font-size="10.00">/XalanXMLChar.hpp</text>
</a>
</g>
</g>
<!-- Node25&#45;&gt;Node31 -->
<g id="edge69" class="edge">
<title>Node25&#45;&gt;Node31</title>
<path fill="none" stroke="midnightblue" d="M832.28,-503.4C808.49,-493.73 776.72,-480.82 751.13,-470.43"/>
<polygon fill="midnightblue" stroke="midnightblue" points="752.23,-467.1 741.65,-466.58 749.6,-473.58 752.23,-467.1"/>
</g>
<!-- Node26&#45;&gt;Node3 -->
<g id="edge53" class="edge">
<title>Node26&#45;&gt;Node3</title>
<path fill="none" stroke="midnightblue" d="M606.11,-369.27C571.29,-336.97 488.57,-253.98 454,-165 446.14,-144.78 445.17,-119.67 445.66,-102.71"/>
<polygon fill="midnightblue" stroke="midnightblue" points="449.17,-102.59 446.17,-92.43 442.18,-102.24 449.17,-102.59"/>
</g>
<!-- Node28&#45;&gt;Node17 -->
<g id="edge66" class="edge">
<title>Node28&#45;&gt;Node17</title>
<path fill="none" stroke="midnightblue" d="M305.53,-436.4C284.6,-425.24 255.57,-409.78 235.03,-398.83"/>
<polygon fill="midnightblue" stroke="midnightblue" points="236.44,-395.62 225.97,-394.01 233.15,-401.8 236.44,-395.62"/>
</g>
<!-- Node28&#45;&gt;Node26 -->
<g id="edge64" class="edge">
<title>Node28&#45;&gt;Node26</title>
<path fill="none" stroke="midnightblue" d="M394.57,-436.48C439.96,-426.3 501.49,-412.51 549.11,-401.84"/>
<polygon fill="midnightblue" stroke="midnightblue" points="550.05,-405.21 559.04,-399.61 548.52,-398.38 550.05,-405.21"/>
</g>
<!-- Node29 -->
<g id="node29" class="node">
<title>Node29</title>
<g id="a_node29"><a xlink:title=" ">
<polygon fill="none" stroke="#bfbfbf" points="332.5,-375 332.5,-394 517.5,-394 517.5,-375 332.5,-375"/>
<text text-anchor="middle" x="425" y="-382" font-family="Helvetica,sans-Serif" font-size="10.00">xercesc/sax/DocumentHandler.hpp</text>
</a>
</g>
</g>
<!-- Node28&#45;&gt;Node29 -->
<g id="edge65" class="edge">
<title>Node28&#45;&gt;Node29</title>
<path fill="none" stroke="midnightblue" d="M352.18,-436.4C367.63,-425.6 388.86,-410.76 404.42,-399.89"/>
<polygon fill="midnightblue" stroke="midnightblue" points="406.64,-402.6 412.83,-394.01 402.63,-396.87 406.64,-402.6"/>
</g>
<!-- Node30&#45;&gt;Node26 -->
<g id="edge68" class="edge">
<title>Node30&#45;&gt;Node26</title>
<path fill="none" stroke="midnightblue" d="M511.59,-436.4C532.29,-426.86 559.82,-414.16 582.22,-403.84"/>
<polygon fill="midnightblue" stroke="midnightblue" points="583.85,-406.94 591.46,-399.58 580.92,-400.58 583.85,-406.94"/>
</g>
<!-- Node31&#45;&gt;Node26 -->
<g id="edge70" class="edge">
<title>Node31&#45;&gt;Node26</title>
<path fill="none" stroke="midnightblue" d="M688.56,-436.4C676.86,-427.45 661.54,-415.74 648.55,-405.8"/>
<polygon fill="midnightblue" stroke="midnightblue" points="650.48,-402.87 640.41,-399.58 646.23,-408.43 650.48,-402.87"/>
</g>
<!-- Node32&#45;&gt;Node2 -->
<g id="edge75" class="edge">
<title>Node32&#45;&gt;Node2</title>
<path fill="none" stroke="midnightblue" d="M192.49,-570.4C172.62,-560.9 146.21,-548.28 124.66,-537.98"/>
<polygon fill="midnightblue" stroke="midnightblue" points="125.98,-534.73 115.45,-533.58 122.97,-541.05 125.98,-534.73"/>
</g>
<!-- Node32&#45;&gt;Node17 -->
<g id="edge76" class="edge">
<title>Node32&#45;&gt;Node17</title>
<path fill="none" stroke="midnightblue" d="M221.14,-570.19C219.01,-534.99 213.54,-444.17 211.15,-404.51"/>
<polygon fill="midnightblue" stroke="midnightblue" points="214.63,-404.13 210.53,-394.36 207.64,-404.55 214.63,-404.13"/>
</g>
</g>
</svg>
