<?xml version="1.0" encoding="UTF-8" standalone="no"?>
<!DOCTYPE svg PUBLIC "-//W3C//DTD SVG 1.1//EN"
 "http://www.w3.org/Graphics/SVG/1.1/DTD/svg11.dtd">
<!-- Generated by graphviz version 2.38.0 (20140413.2041)
 -->
<!-- Title: xalanc/ICUBridge/ICUBridgeDefinitions.hpp Pages: 1 -->
<svg width="1130pt" height="106pt"
 viewBox="0.00 0.00 1129.50 106.00" xmlns="http://www.w3.org/2000/svg" xmlns:xlink="http://www.w3.org/1999/xlink">
<g id="graph0" class="graph" transform="scale(1 1) rotate(0) translate(4 102)">
<title>xalanc/ICUBridge/ICUBridgeDefinitions.hpp</title>
<!-- Node1 -->
<g id="node1" class="node"><title>Node1</title>
<g id="a_node1"><a xlink:title=" ">
<polygon fill="#bfbfbf" stroke="black" points="507.5,-67.5 507.5,-97.5 645.5,-97.5 645.5,-67.5 507.5,-67.5"/>
<text text-anchor="start" x="515.5" y="-85.5" font-family="Helvetica,sans-Serif" font-size="10.00">xalanc/ICUBridge/ICUBridge</text>
<text text-anchor="middle" x="576.5" y="-74.5" font-family="Helvetica,sans-Serif" font-size="10.00">Definitions.hpp</text>
</a>
</g>
</g>
<!-- Node2 -->
<g id="node2" class="node"><title>Node2</title>
<g id="a_node2"><a xlink:href="ICUBridge_8hpp.html" target="_top" xlink:title=" ">
<polygon fill="none" stroke="black" points="0,-6 0,-25 157,-25 157,-6 0,-6"/>
<text text-anchor="middle" x="78.5" y="-13" font-family="Helvetica,sans-Serif" font-size="10.00">xalanc/ICUBridge/ICUBridge.hpp</text>
</a>
</g>
</g>
<!-- Node1&#45;&gt;Node2 -->
<g id="edge1" class="edge"><title>Node1&#45;&gt;Node2</title>
<path fill="none" stroke="midnightblue" d="M497.396,-72.725C414.731,-63.3283 281.324,-47.5244 166.5,-31 154.086,-29.2135 140.718,-27.1059 128.242,-25.0592"/>
<polygon fill="midnightblue" stroke="midnightblue" points="497.139,-76.2182 507.47,-73.8669 497.928,-69.2628 497.139,-76.2182"/>
</g>
<!-- Node3 -->
<g id="node3" class="node"><title>Node3</title>
<g id="a_node3"><a xlink:href="ICUBridgeCleanup_8hpp.html" target="_top" xlink:title=" ">
<polygon fill="none" stroke="black" points="175.5,-0.5 175.5,-30.5 313.5,-30.5 313.5,-0.5 175.5,-0.5"/>
<text text-anchor="start" x="183.5" y="-18.5" font-family="Helvetica,sans-Serif" font-size="10.00">xalanc/ICUBridge/ICUBridge</text>
<text text-anchor="middle" x="244.5" y="-7.5" font-family="Helvetica,sans-Serif" font-size="10.00">Cleanup.hpp</text>
</a>
</g>
</g>
<!-- Node1&#45;&gt;Node3 -->
<g id="edge2" class="edge"><title>Node1&#45;&gt;Node3</title>
<path fill="none" stroke="midnightblue" d="M497.435,-66.0205C441.487,-55.0668 367.185,-40.5197 313.605,-30.0296"/>
<polygon fill="midnightblue" stroke="midnightblue" points="496.82,-69.4663 507.306,-67.953 498.165,-62.5968 496.82,-69.4663"/>
</g>
<!-- Node4 -->
<g id="node4" class="node"><title>Node4</title>
<g id="a_node4"><a xlink:href="ICUBridgeCollationCompareFunctor_8hpp.html" target="_top" xlink:title=" ">
<polygon fill="none" stroke="black" points="332,-0.5 332,-30.5 477,-30.5 477,-0.5 332,-0.5"/>
<text text-anchor="start" x="340" y="-18.5" font-family="Helvetica,sans-Serif" font-size="10.00">xalanc/ICUBridge/ICUBridge</text>
<text text-anchor="middle" x="404.5" y="-7.5" font-family="Helvetica,sans-Serif" font-size="10.00">CollationCompareFunctor.hpp</text>
</a>
</g>
</g>
<!-- Node1&#45;&gt;Node4 -->
<g id="edge3" class="edge"><title>Node1&#45;&gt;Node4</title>
<path fill="none" stroke="midnightblue" d="M529.712,-63.8185C502.065,-53.3707 467.54,-40.3231 441.749,-30.5765"/>
<polygon fill="midnightblue" stroke="midnightblue" points="528.587,-67.1349 539.179,-67.396 531.062,-60.5868 528.587,-67.1349"/>
</g>
<!-- Node5 -->
<g id="node5" class="node"><title>Node5</title>
<g id="a_node5"><a xlink:href="ICUBridgeCollationCompareFunctorImpl_8hpp.html" target="_top" xlink:title=" ">
<polygon fill="none" stroke="black" points="495,-0.5 495,-30.5 658,-30.5 658,-0.5 495,-0.5"/>
<text text-anchor="start" x="503" y="-18.5" font-family="Helvetica,sans-Serif" font-size="10.00">xalanc/ICUBridge/ICUBridge</text>
<text text-anchor="middle" x="576.5" y="-7.5" font-family="Helvetica,sans-Serif" font-size="10.00">CollationCompareFunctorImpl.hpp</text>
</a>
</g>
</g>
<!-- Node1&#45;&gt;Node5 -->
<g id="edge4" class="edge"><title>Node1&#45;&gt;Node5</title>
<path fill="none" stroke="midnightblue" d="M576.5,-57.1081C576.5,-48.1539 576.5,-38.3227 576.5,-30.5765"/>
<polygon fill="midnightblue" stroke="midnightblue" points="573,-57.3959 576.5,-67.396 580,-57.396 573,-57.3959"/>
</g>
<!-- Node6 -->
<g id="node6" class="node"><title>Node6</title>
<g id="a_node6"><a xlink:href="ICUFormatNumberFunctor_8hpp.html" target="_top" xlink:title=" ">
<polygon fill="none" stroke="black" points="676,-0.5 676,-30.5 817,-30.5 817,-0.5 676,-0.5"/>
<text text-anchor="start" x="684" y="-18.5" font-family="Helvetica,sans-Serif" font-size="10.00">xalanc/ICUBridge/ICUFormat</text>
<text text-anchor="middle" x="746.5" y="-7.5" font-family="Helvetica,sans-Serif" font-size="10.00">NumberFunctor.hpp</text>
</a>
</g>
</g>
<!-- Node1&#45;&gt;Node6 -->
<g id="edge5" class="edge"><title>Node1&#45;&gt;Node6</title>
<path fill="none" stroke="midnightblue" d="M622.744,-63.8185C650.069,-53.3707 684.193,-40.3231 709.685,-30.5765"/>
<polygon fill="midnightblue" stroke="midnightblue" points="621.478,-60.5553 613.387,-67.396 623.978,-67.0937 621.478,-60.5553"/>
</g>
<!-- Node7 -->
<g id="node7" class="node"><title>Node7</title>
<g id="a_node7"><a xlink:href="ICUXalanNumberFormatFactory_8hpp.html" target="_top" xlink:title=" ">
<polygon fill="none" stroke="black" points="835.5,-0.5 835.5,-30.5 969.5,-30.5 969.5,-0.5 835.5,-0.5"/>
<text text-anchor="start" x="843.5" y="-18.5" font-family="Helvetica,sans-Serif" font-size="10.00">xalanc/ICUBridge/ICUXalan</text>
<text text-anchor="middle" x="902.5" y="-7.5" font-family="Helvetica,sans-Serif" font-size="10.00">NumberFormatFactory.hpp</text>
</a>
</g>
</g>
<!-- Node1&#45;&gt;Node7 -->
<g id="edge6" class="edge"><title>Node1&#45;&gt;Node7</title>
<path fill="none" stroke="midnightblue" d="M655.698,-65.7091C710.72,-54.7383 783.243,-40.2783 835.416,-29.8757"/>
<polygon fill="midnightblue" stroke="midnightblue" points="654.759,-62.3273 645.636,-67.7152 656.128,-69.1922 654.759,-62.3273"/>
</g>
<!-- Node8 -->
<g id="node8" class="node"><title>Node8</title>
<g id="a_node8"><a xlink:href="ICUXalanNumberFormatProxy_8hpp.html" target="_top" xlink:title=" ">
<polygon fill="none" stroke="black" points="987.5,-0.5 987.5,-30.5 1121.5,-30.5 1121.5,-0.5 987.5,-0.5"/>
<text text-anchor="start" x="995.5" y="-18.5" font-family="Helvetica,sans-Serif" font-size="10.00">xalanc/ICUBridge/ICUXalan</text>
<text text-anchor="middle" x="1054.5" y="-7.5" font-family="Helvetica,sans-Serif" font-size="10.00">NumberFormatProxy.hpp</text>
</a>
</g>
</g>
<!-- Node1&#45;&gt;Node8 -->
<g id="edge7" class="edge"><title>Node1&#45;&gt;Node8</title>
<path fill="none" stroke="midnightblue" d="M655.84,-73.0396C737.077,-64.0238 866.898,-48.6378 978.5,-31 981.419,-30.5387 984.397,-30.0496 987.404,-29.5409"/>
<polygon fill="midnightblue" stroke="midnightblue" points="655.243,-69.5841 645.688,-74.1612 656.012,-76.5418 655.243,-69.5841"/>
</g>
</g>
</svg>
