<?xml version="1.0" encoding="UTF-8" standalone="no"?>
<!DOCTYPE svg PUBLIC "-//W3C//DTD SVG 1.1//EN"
 "http://www.w3.org/Graphics/SVG/1.1/DTD/svg11.dtd">
<!-- Generated by graphviz version 2.38.0 (20140413.2041)
 -->
<!-- Title: xalanc/ICUBridge/ICUBridge.hpp Pages: 1 -->
<!--zoomable 464 -->
<svg id="main" version="1.1" xmlns="http://www.w3.org/2000/svg" xmlns:xlink="http://www.w3.org/1999/xlink" xml:space="preserve" onload="init(evt)">
<style type="text/css"><![CDATA[
.edge:hover path { stroke: red; }
.edge:hover polygon { stroke: red; fill: red; }
]]></style>
<script type="text/javascript"><![CDATA[
var edges = document.getElementsByTagName('g');
if (edges && edges.length) {
  for (var i=0;i<edges.length;i++) {
    if (edges[i].id.substr(0,4)=='edge') {
      edges[i].setAttribute('class','edge');
    }
  }
}
]]></script>
        <defs>
                <circle id="rim" cx="0" cy="0" r="7"/>
                <circle id="rim2" cx="0" cy="0" r="3.5"/>
                <g id="zoomPlus">
                        <use xlink:href="#rim" fill="#404040">
                                <set attributeName="fill" to="#808080" begin="zoomplus.mouseover" end="zoomplus.mouseout"/>
                        </use>
                        <path d="M-4,0h8M0,-4v8" fill="none" stroke="white" stroke-width="1.5" pointer-events="none"/>
                </g>
                <g id="zoomMin">
                        <use xlink:href="#rim" fill="#404040">
                                <set attributeName="fill" to="#808080" begin="zoomminus.mouseover" end="zoomminus.mouseout"/>
                        </use>
                        <path d="M-4,0h8" fill="none" stroke="white" stroke-width="1.5" pointer-events="none"/>
                </g>
                <g id="dirArrow">
                        <path fill="none" stroke="white" stroke-width="1.5" d="M0,-3.0v7 M-2.5,-0.5L0,-3.0L2.5,-0.5"/>
                </g>
               <g id="resetDef">
                       <use xlink:href="#rim2" fill="#404040">
                               <set attributeName="fill" to="#808080" begin="reset.mouseover" end="reset.mouseout"/>
                       </use>
               </g>
        </defs>

<script type="text/javascript">
var viewWidth = 1117;
var viewHeight = 464;
var sectionId = 'dynsection-0';
</script>
<script xlink:href="svgpan.js"/>
<svg id="graph" class="graph">
<g id="viewport">
<title>xalanc/ICUBridge/ICUBridge.hpp</title>
<!-- Node1 -->
<g id="node1" class="node"><title>Node1</title>
<g id="a_node1"><a xlink:title=" ">
<polygon fill="#bfbfbf" stroke="black" points="349.5,-436.5 349.5,-455.5 506.5,-455.5 506.5,-436.5 349.5,-436.5"/>
<text text-anchor="middle" x="428" y="-443.5" font-family="Helvetica,sans-Serif" font-size="10.00">xalanc/ICUBridge/ICUBridge.hpp</text>
</a>
</g>
</g>
<!-- Node2 -->
<g id="node2" class="node"><title>Node2</title>
<g id="a_node2"><a xlink:href="ICUBridgeDefinitions_8hpp.html" target="_top" xlink:title=" ">
<polygon fill="none" stroke="black" points="0,-313.5 0,-343.5 138,-343.5 138,-313.5 0,-313.5"/>
<text text-anchor="start" x="8" y="-331.5" font-family="Helvetica,sans-Serif" font-size="10.00">xalanc/ICUBridge/ICUBridge</text>
<text text-anchor="middle" x="69" y="-320.5" font-family="Helvetica,sans-Serif" font-size="10.00">Definitions.hpp</text>
</a>
</g>
</g>
<!-- Node1&#45;&gt;Node2 -->
<g id="edge1" class="edge"><title>Node1&#45;&gt;Node2</title>
<path fill="none" stroke="midnightblue" d="M401.31,-436.413C342.405,-417.462 200.334,-371.754 122.388,-346.676"/>
<polygon fill="midnightblue" stroke="midnightblue" points="123.341,-343.306 112.75,-343.575 121.197,-349.97 123.341,-343.306"/>
</g>
<!-- Node7 -->
<g id="node7" class="node"><title>Node7</title>
<g id="a_node7"><a xlink:href="XalanDOMString_8hpp.html" target="_top" xlink:title=" ">
<polygon fill="none" stroke="black" points="334.5,-380.5 334.5,-399.5 521.5,-399.5 521.5,-380.5 334.5,-380.5"/>
<text text-anchor="middle" x="428" y="-387.5" font-family="Helvetica,sans-Serif" font-size="10.00">xalanc/XalanDOM/XalanDOMString.hpp</text>
</a>
</g>
</g>
<!-- Node1&#45;&gt;Node7 -->
<g id="edge6" class="edge"><title>Node1&#45;&gt;Node7</title>
<path fill="none" stroke="midnightblue" d="M428,-436.083C428,-429.006 428,-418.861 428,-409.986"/>
<polygon fill="midnightblue" stroke="midnightblue" points="431.5,-409.751 428,-399.751 424.5,-409.751 431.5,-409.751"/>
</g>
<!-- Node24 -->
<g id="node24" class="node"><title>Node24</title>
<g id="a_node24"><a xlink:title=" ">
<polygon fill="none" stroke="#bfbfbf" points="540,-380.5 540,-399.5 626,-399.5 626,-380.5 540,-380.5"/>
<text text-anchor="middle" x="583" y="-387.5" font-family="Helvetica,sans-Serif" font-size="10.00">unicode/unistr.h</text>
</a>
</g>
</g>
<!-- Node1&#45;&gt;Node24 -->
<g id="edge47" class="edge"><title>Node1&#45;&gt;Node24</title>
<path fill="none" stroke="midnightblue" d="M452.56,-436.444C478.523,-427.399 519.668,-413.064 548.797,-402.916"/>
<polygon fill="midnightblue" stroke="midnightblue" points="550.263,-406.112 558.555,-399.516 547.96,-399.501 550.263,-406.112"/>
</g>
<!-- Node3 -->
<g id="node3" class="node"><title>Node3</title>
<g id="a_node3"><a xlink:href="PlatformDefinitions_8hpp.html" target="_top" xlink:title=" ">
<polygon fill="none" stroke="black" points="258,-73 258,-92 440,-92 440,-73 258,-73"/>
<text text-anchor="middle" x="349" y="-80" font-family="Helvetica,sans-Serif" font-size="10.00">xalanc/Include/PlatformDefinitions.hpp</text>
</a>
</g>
</g>
<!-- Node2&#45;&gt;Node3 -->
<g id="edge2" class="edge"><title>Node2&#45;&gt;Node3</title>
<path fill="none" stroke="midnightblue" d="M84.2789,-313.374C119.384,-281.029 208.722,-199.349 286,-134 300.436,-121.792 317.148,-108.43 329.731,-98.5187"/>
<polygon fill="midnightblue" stroke="midnightblue" points="331.995,-101.191 337.703,-92.2649 327.675,-95.683 331.995,-101.191"/>
</g>
<!-- Node4 -->
<g id="node4" class="node"><title>Node4</title>
<g id="a_node4"><a xlink:title=" ">
<polygon fill="none" stroke="#bfbfbf" points="147,-0.5 147,-30.5 255,-30.5 255,-0.5 147,-0.5"/>
<text text-anchor="start" x="155" y="-18.5" font-family="Helvetica,sans-Serif" font-size="10.00">xercesc/util/Xerces</text>
<text text-anchor="middle" x="201" y="-7.5" font-family="Helvetica,sans-Serif" font-size="10.00">_autoconf_config.hpp</text>
</a>
</g>
</g>
<!-- Node3&#45;&gt;Node4 -->
<g id="edge3" class="edge"><title>Node3&#45;&gt;Node4</title>
<path fill="none" stroke="midnightblue" d="M329.347,-72.8685C307.235,-63.1572 270.695,-47.1092 242.246,-34.6148"/>
<polygon fill="midnightblue" stroke="midnightblue" points="243.504,-31.3447 232.941,-30.5281 240.689,-37.7539 243.504,-31.3447"/>
</g>
<!-- Node5 -->
<g id="node5" class="node"><title>Node5</title>
<g id="a_node5"><a xlink:title=" ">
<polygon fill="none" stroke="#bfbfbf" points="273.5,-6 273.5,-25 424.5,-25 424.5,-6 273.5,-6"/>
<text text-anchor="middle" x="349" y="-13" font-family="Helvetica,sans-Serif" font-size="10.00">xercesc/util/XercesVersion.hpp</text>
</a>
</g>
</g>
<!-- Node3&#45;&gt;Node5 -->
<g id="edge4" class="edge"><title>Node3&#45;&gt;Node5</title>
<path fill="none" stroke="midnightblue" d="M349,-72.7338C349,-63.1826 349,-47.6183 349,-35.2829"/>
<polygon fill="midnightblue" stroke="midnightblue" points="352.5,-35.1273 349,-25.1273 345.5,-35.1273 352.5,-35.1273"/>
</g>
<!-- Node6 -->
<g id="node6" class="node"><title>Node6</title>
<g id="a_node6"><a xlink:href="XalanVersion_8hpp.html" target="_top" xlink:title=" ">
<polygon fill="none" stroke="black" points="443,-6 443,-25 535,-25 535,-6 443,-6"/>
<text text-anchor="middle" x="489" y="-13" font-family="Helvetica,sans-Serif" font-size="10.00">XalanVersion.hpp</text>
</a>
</g>
</g>
<!-- Node3&#45;&gt;Node6 -->
<g id="edge5" class="edge"><title>Node3&#45;&gt;Node6</title>
<path fill="none" stroke="midnightblue" d="M367.591,-72.8685C391.544,-61.7476 433.395,-42.3167 461.154,-29.4286"/>
<polygon fill="midnightblue" stroke="midnightblue" points="462.736,-32.5529 470.332,-25.1672 459.788,-26.2038 462.736,-32.5529"/>
</g>
<!-- Node8 -->
<g id="node8" class="node"><title>Node8</title>
<g id="a_node8"><a xlink:href="XalanDOMDefinitions_8hpp.html" target="_top" xlink:title=" ">
<polygon fill="none" stroke="black" points="174,-257.5 174,-276.5 380,-276.5 380,-257.5 174,-257.5"/>
<text text-anchor="middle" x="277" y="-264.5" font-family="Helvetica,sans-Serif" font-size="10.00">xalanc/XalanDOM/XalanDOMDefinitions.hpp</text>
</a>
</g>
</g>
<!-- Node7&#45;&gt;Node8 -->
<g id="edge7" class="edge"><title>Node7&#45;&gt;Node8</title>
<path fill="none" stroke="midnightblue" d="M334.396,-383.788C274.322,-378.262 204.103,-366.966 185,-344 176.189,-333.408 177.705,-324.688 185,-313 194.758,-297.364 211.697,-287.013 228.402,-280.23"/>
<polygon fill="midnightblue" stroke="midnightblue" points="229.982,-283.378 238.155,-276.636 227.562,-276.81 229.982,-283.378"/>
</g>
<!-- Node9 -->
<g id="node9" class="node"><title>Node9</title>
<g id="a_node9"><a xlink:title=" ">
<polygon fill="none" stroke="#bfbfbf" points="909.5,-73 909.5,-92 958.5,-92 958.5,-73 909.5,-73"/>
<text text-anchor="middle" x="934" y="-80" font-family="Helvetica,sans-Serif" font-size="10.00">cassert</text>
</a>
</g>
</g>
<!-- Node7&#45;&gt;Node9 -->
<g id="edge9" class="edge"><title>Node7&#45;&gt;Node9</title>
<path fill="none" stroke="midnightblue" d="M495.687,-380.489C667.685,-358.411 1108,-298.877 1108,-268 1108,-268 1108,-268 1108,-210 1108,-175.183 1112.74,-159.466 1089,-134 1057.78,-100.514 1004.12,-89.183 968.854,-85.3785"/>
<polygon fill="midnightblue" stroke="midnightblue" points="968.824,-81.8608 958.543,-84.4232 968.178,-88.8309 968.824,-81.8608"/>
</g>
<!-- Node10 -->
<g id="node10" class="node"><title>Node10</title>
<g id="a_node10"><a xlink:href="STLHelper_8hpp.html" target="_top" xlink:title=" ">
<polygon fill="none" stroke="black" points="513,-319 513,-338 659,-338 659,-319 513,-319"/>
<text text-anchor="middle" x="586" y="-326" font-family="Helvetica,sans-Serif" font-size="10.00">xalanc/Include/STLHelper.hpp</text>
</a>
</g>
</g>
<!-- Node7&#45;&gt;Node10 -->
<g id="edge10" class="edge"><title>Node7&#45;&gt;Node10</title>
<path fill="none" stroke="midnightblue" d="M450.638,-380.475C477.74,-370.269 523.31,-353.108 554.004,-341.549"/>
<polygon fill="midnightblue" stroke="midnightblue" points="555.28,-344.809 563.404,-338.009 552.813,-338.258 555.28,-344.809"/>
</g>
<!-- Node16 -->
<g id="node16" class="node"><title>Node16</title>
<g id="a_node16"><a xlink:href="XalanVector_8hpp.html" target="_top" xlink:title=" ">
<polygon fill="none" stroke="black" points="590,-201.5 590,-220.5 742,-220.5 742,-201.5 590,-201.5"/>
<text text-anchor="middle" x="666" y="-208.5" font-family="Helvetica,sans-Serif" font-size="10.00">xalanc/Include/XalanVector.hpp</text>
</a>
</g>
</g>
<!-- Node7&#45;&gt;Node16 -->
<g id="edge44" class="edge"><title>Node7&#45;&gt;Node16</title>
<path fill="none" stroke="midnightblue" d="M435.425,-380.381C448.422,-365.581 476.535,-334.824 504,-313 549.109,-277.156 607.657,-243.419 640.591,-225.456"/>
<polygon fill="midnightblue" stroke="midnightblue" points="642.424,-228.444 649.557,-220.611 639.096,-222.285 642.424,-228.444"/>
</g>
<!-- Node20 -->
<g id="node20" class="node"><title>Node20</title>
<g id="a_node20"><a xlink:href="XalanMemoryManagement_8hpp.html" target="_top" xlink:title=" ">
<polygon fill="none" stroke="black" points="457,-134.5 457,-164.5 597,-164.5 597,-134.5 457,-134.5"/>
<text text-anchor="start" x="465" y="-152.5" font-family="Helvetica,sans-Serif" font-size="10.00">xalanc/Include/XalanMemory</text>
<text text-anchor="middle" x="527" y="-141.5" font-family="Helvetica,sans-Serif" font-size="10.00">Management.hpp</text>
</a>
</g>
</g>
<!-- Node7&#45;&gt;Node20 -->
<g id="edge43" class="edge"><title>Node7&#45;&gt;Node20</title>
<path fill="none" stroke="midnightblue" d="M427.778,-380.417C427.437,-352.435 429.402,-262.143 466,-201 473.076,-189.178 483.959,-178.874 494.585,-170.71"/>
<polygon fill="midnightblue" stroke="midnightblue" points="496.928,-173.334 502.974,-164.633 492.822,-167.665 496.928,-173.334"/>
</g>
<!-- Node23 -->
<g id="node23" class="node"><title>Node23</title>
<g id="a_node23"><a xlink:href="XalanDOMException_8hpp.html" target="_top" xlink:title=" ">
<polygon fill="none" stroke="black" points="194.5,-319 194.5,-338 399.5,-338 399.5,-319 194.5,-319"/>
<text text-anchor="middle" x="297" y="-326" font-family="Helvetica,sans-Serif" font-size="10.00">xalanc/XalanDOM/XalanDOMException.hpp</text>
</a>
</g>
</g>
<!-- Node7&#45;&gt;Node23 -->
<g id="edge45" class="edge"><title>Node7&#45;&gt;Node23</title>
<path fill="none" stroke="midnightblue" d="M409.231,-380.475C387.149,-370.445 350.281,-353.7 324.861,-342.155"/>
<polygon fill="midnightblue" stroke="midnightblue" points="326.287,-338.958 315.734,-338.009 323.392,-345.331 326.287,-338.958"/>
</g>
<!-- Node8&#45;&gt;Node3 -->
<g id="edge8" class="edge"><title>Node8&#45;&gt;Node3</title>
<path fill="none" stroke="midnightblue" d="M276.904,-257.44C276.995,-235.608 279.378,-176.573 301,-134 307.915,-120.384 319.684,-107.916 329.837,-98.7749"/>
<polygon fill="midnightblue" stroke="midnightblue" points="332.195,-101.364 337.51,-92.1989 327.639,-96.049 332.195,-101.364"/>
</g>
<!-- Node10&#45;&gt;Node3 -->
<g id="edge11" class="edge"><title>Node10&#45;&gt;Node3</title>
<path fill="none" stroke="midnightblue" d="M562.436,-318.976C513.747,-299.965 402.629,-249.037 355,-165 344.039,-145.661 344.248,-119.466 346.059,-102.051"/>
<polygon fill="midnightblue" stroke="midnightblue" points="349.543,-102.407 347.38,-92.0348 342.603,-101.491 349.543,-102.407"/>
</g>
<!-- Node11 -->
<g id="node11" class="node"><title>Node11</title>
<g id="a_node11"><a xlink:title=" ">
<polygon fill="none" stroke="#bfbfbf" points="1024,-140 1024,-159 1080,-159 1080,-140 1024,-140"/>
<text text-anchor="middle" x="1052" y="-147" font-family="Helvetica,sans-Serif" font-size="10.00">algorithm</text>
</a>
</g>
</g>
<!-- Node10&#45;&gt;Node11 -->
<g id="edge12" class="edge"><title>Node10&#45;&gt;Node11</title>
<path fill="none" stroke="midnightblue" d="M659.448,-318.994C771.859,-304.53 979.136,-271.688 1032,-221 1045.89,-207.679 1050.35,-185.483 1051.67,-169.552"/>
<polygon fill="midnightblue" stroke="midnightblue" points="1055.18,-169.434 1052.17,-159.276 1048.19,-169.095 1055.18,-169.434"/>
</g>
<!-- Node12 -->
<g id="node12" class="node"><title>Node12</title>
<g id="a_node12"><a xlink:title=" ">
<polygon fill="none" stroke="#bfbfbf" points="475,-201.5 475,-220.5 533,-220.5 533,-201.5 475,-201.5"/>
<text text-anchor="middle" x="504" y="-208.5" font-family="Helvetica,sans-Serif" font-size="10.00">functional</text>
</a>
</g>
</g>
<!-- Node10&#45;&gt;Node12 -->
<g id="edge13" class="edge"><title>Node10&#45;&gt;Node12</title>
<path fill="none" stroke="midnightblue" d="M579.837,-318.819C566.302,-299.755 533.78,-253.947 516.04,-228.958"/>
<polygon fill="midnightblue" stroke="midnightblue" points="518.878,-226.91 510.235,-220.782 513.17,-230.962 518.878,-226.91"/>
</g>
<!-- Node13 -->
<g id="node13" class="node"><title>Node13</title>
<g id="a_node13"><a xlink:href="XalanMap_8hpp.html" target="_top" xlink:title=" ">
<polygon fill="none" stroke="black" points="615.5,-257.5 615.5,-276.5 758.5,-276.5 758.5,-257.5 615.5,-257.5"/>
<text text-anchor="middle" x="687" y="-264.5" font-family="Helvetica,sans-Serif" font-size="10.00">xalanc/Include/XalanMap.hpp</text>
</a>
</g>
</g>
<!-- Node10&#45;&gt;Node13 -->
<g id="edge14" class="edge"><title>Node10&#45;&gt;Node13</title>
<path fill="none" stroke="midnightblue" d="M600.471,-318.975C616.971,-309.255 644.178,-293.227 663.681,-281.737"/>
<polygon fill="midnightblue" stroke="midnightblue" points="665.716,-284.601 672.556,-276.509 662.163,-278.569 665.716,-284.601"/>
</g>
<!-- Node13&#45;&gt;Node3 -->
<g id="edge15" class="edge"><title>Node13&#45;&gt;Node3</title>
<path fill="none" stroke="midnightblue" d="M665.684,-257.481C644.136,-248.746 609.973,-234.557 581,-221 563.356,-212.744 560.332,-207.587 542,-201 471.772,-175.765 433.979,-214.347 378,-165 359.815,-148.97 353.033,-120.753 350.504,-102.091"/>
<polygon fill="midnightblue" stroke="midnightblue" points="353.982,-101.704 349.433,-92.1354 347.023,-102.452 353.982,-101.704"/>
</g>
<!-- Node13&#45;&gt;Node11 -->
<g id="edge17" class="edge"><title>Node13&#45;&gt;Node11</title>
<path fill="none" stroke="midnightblue" d="M758.748,-263.052C840.815,-258.471 969.011,-247.256 1009,-221 1027.68,-208.736 1039.55,-185.273 1045.98,-168.794"/>
<polygon fill="midnightblue" stroke="midnightblue" points="1049.36,-169.755 1049.44,-159.161 1042.77,-167.391 1049.36,-169.755"/>
</g>
<!-- Node13&#45;&gt;Node12 -->
<g id="edge18" class="edge"><title>Node13&#45;&gt;Node12</title>
<path fill="none" stroke="midnightblue" d="M658.003,-257.444C626.815,-248.241 577.07,-233.562 542.592,-223.388"/>
<polygon fill="midnightblue" stroke="midnightblue" points="543.443,-219.99 532.861,-220.516 541.462,-226.704 543.443,-219.99"/>
</g>
<!-- Node14 -->
<g id="node14" class="node"><title>Node14</title>
<g id="a_node14"><a xlink:title=" ">
<polygon fill="none" stroke="#bfbfbf" points="781,-73 781,-92 829,-92 829,-73 781,-73"/>
<text text-anchor="middle" x="805" y="-80" font-family="Helvetica,sans-Serif" font-size="10.00">cstddef</text>
</a>
</g>
</g>
<!-- Node13&#45;&gt;Node14 -->
<g id="edge16" class="edge"><title>Node13&#45;&gt;Node14</title>
<path fill="none" stroke="midnightblue" d="M758.512,-260.754C815.684,-254.95 889.399,-243.301 909,-221 934.554,-191.926 933.78,-166.657 913,-134 896.885,-108.675 864.371,-95.8372 839.208,-89.4654"/>
<polygon fill="midnightblue" stroke="midnightblue" points="839.818,-86.0144 829.288,-87.1842 838.249,-92.8363 839.818,-86.0144"/>
</g>
<!-- Node15 -->
<g id="node15" class="node"><title>Node15</title>
<g id="a_node15"><a xlink:title=" ">
<polygon fill="none" stroke="#bfbfbf" points="960,-201.5 960,-220.5 1000,-220.5 1000,-201.5 960,-201.5"/>
<text text-anchor="middle" x="980" y="-208.5" font-family="Helvetica,sans-Serif" font-size="10.00">utility</text>
</a>
</g>
</g>
<!-- Node13&#45;&gt;Node15 -->
<g id="edge19" class="edge"><title>Node13&#45;&gt;Node15</title>
<path fill="none" stroke="midnightblue" d="M744.374,-257.495C797.042,-249.341 877.117,-236.071 946,-221 947.275,-220.721 948.574,-220.426 949.884,-220.119"/>
<polygon fill="midnightblue" stroke="midnightblue" points="951.074,-223.43 959.934,-217.62 949.385,-216.637 951.074,-223.43"/>
</g>
<!-- Node13&#45;&gt;Node16 -->
<g id="edge20" class="edge"><title>Node13&#45;&gt;Node16</title>
<path fill="none" stroke="midnightblue" d="M683.532,-257.083C680.688,-249.77 676.571,-239.181 673.04,-230.103"/>
<polygon fill="midnightblue" stroke="midnightblue" points="676.29,-228.803 669.403,-220.751 669.766,-231.34 676.29,-228.803"/>
</g>
<!-- Node22 -->
<g id="node22" class="node"><title>Node22</title>
<g id="a_node22"><a xlink:href="XalanList_8hpp.html" target="_top" xlink:title=" ">
<polygon fill="none" stroke="black" points="760,-201.5 760,-220.5 900,-220.5 900,-201.5 760,-201.5"/>
<text text-anchor="middle" x="830" y="-208.5" font-family="Helvetica,sans-Serif" font-size="10.00">xalanc/Include/XalanList.hpp</text>
</a>
</g>
</g>
<!-- Node13&#45;&gt;Node22 -->
<g id="edge34" class="edge"><title>Node13&#45;&gt;Node22</title>
<path fill="none" stroke="midnightblue" d="M709.659,-257.444C733.402,-248.478 770.909,-234.314 797.738,-224.183"/>
<polygon fill="midnightblue" stroke="midnightblue" points="799.329,-227.324 807.447,-220.516 796.856,-220.775 799.329,-227.324"/>
</g>
<!-- Node16&#45;&gt;Node3 -->
<g id="edge21" class="edge"><title>Node16&#45;&gt;Node3</title>
<path fill="none" stroke="midnightblue" d="M589.725,-202.229C527.022,-194.773 443.966,-182.118 415,-165 388.972,-149.618 368.941,-119.9 358.078,-100.916"/>
<polygon fill="midnightblue" stroke="midnightblue" points="361.123,-99.19 353.25,-92.1002 354.983,-102.552 361.123,-99.19"/>
</g>
<!-- Node16&#45;&gt;Node9 -->
<g id="edge24" class="edge"><title>Node16&#45;&gt;Node9</title>
<path fill="none" stroke="midnightblue" d="M669.603,-201.378C676.734,-185.426 694.218,-151.352 720,-134 749.096,-114.418 846.676,-96.9293 899.437,-88.6175"/>
<polygon fill="midnightblue" stroke="midnightblue" points="900.013,-92.0702 909.359,-87.0796 898.941,-85.1528 900.013,-92.0702"/>
</g>
<!-- Node16&#45;&gt;Node11 -->
<g id="edge23" class="edge"><title>Node16&#45;&gt;Node11</title>
<path fill="none" stroke="midnightblue" d="M721.304,-201.475C800.816,-189.219 945.386,-166.934 1013.96,-156.364"/>
<polygon fill="midnightblue" stroke="midnightblue" points="1014.55,-159.815 1023.9,-154.832 1013.48,-152.896 1014.55,-159.815"/>
</g>
<!-- Node16&#45;&gt;Node14 -->
<g id="edge22" class="edge"><title>Node16&#45;&gt;Node14</title>
<path fill="none" stroke="midnightblue" d="M666.056,-201.356C666.61,-185.964 669.889,-153.588 687,-134 708.483,-109.406 744.039,-96.4212 770.515,-89.8133"/>
<polygon fill="midnightblue" stroke="midnightblue" points="771.566,-93.1629 780.525,-87.5067 769.994,-86.3417 771.566,-93.1629"/>
</g>
<!-- Node17 -->
<g id="node17" class="node"><title>Node17</title>
<g id="a_node17"><a xlink:title=" ">
<polygon fill="none" stroke="#bfbfbf" points="614,-73 614,-92 648,-92 648,-73 614,-73"/>
<text text-anchor="middle" x="631" y="-80" font-family="Helvetica,sans-Serif" font-size="10.00">new</text>
</a>
</g>
</g>
<!-- Node16&#45;&gt;Node17 -->
<g id="edge25" class="edge"><title>Node16&#45;&gt;Node17</title>
<path fill="none" stroke="midnightblue" d="M662.368,-201.499C658.642,-192.543 652.859,-177.967 649,-165 642.686,-143.786 637.498,-118.872 634.341,-102.226"/>
<polygon fill="midnightblue" stroke="midnightblue" points="637.742,-101.371 632.49,-92.1696 630.858,-102.638 637.742,-101.371"/>
</g>
<!-- Node18 -->
<g id="node18" class="node"><title>Node18</title>
<g id="a_node18"><a xlink:title=" ">
<polygon fill="none" stroke="#bfbfbf" points="806.5,-140 806.5,-159 853.5,-159 853.5,-140 806.5,-140"/>
<text text-anchor="middle" x="830" y="-147" font-family="Helvetica,sans-Serif" font-size="10.00">iterator</text>
</a>
</g>
</g>
<!-- Node16&#45;&gt;Node18 -->
<g id="edge26" class="edge"><title>Node16&#45;&gt;Node18</title>
<path fill="none" stroke="midnightblue" d="M693.083,-201.425C719.74,-192.815 761.498,-178.87 797,-165 798.603,-164.374 800.242,-163.715 801.892,-163.037"/>
<polygon fill="midnightblue" stroke="midnightblue" points="803.431,-166.186 811.266,-159.054 800.693,-159.744 803.431,-166.186"/>
</g>
<!-- Node19 -->
<g id="node19" class="node"><title>Node19</title>
<g id="a_node19"><a xlink:title=" ">
<polygon fill="none" stroke="#bfbfbf" points="729.5,-140 729.5,-159 788.5,-159 788.5,-140 729.5,-140"/>
<text text-anchor="middle" x="759" y="-147" font-family="Helvetica,sans-Serif" font-size="10.00">stdexcept</text>
</a>
</g>
</g>
<!-- Node16&#45;&gt;Node19 -->
<g id="edge27" class="edge"><title>Node16&#45;&gt;Node19</title>
<path fill="none" stroke="midnightblue" d="M679.325,-201.475C694.38,-191.843 719.116,-176.017 737.037,-164.552"/>
<polygon fill="midnightblue" stroke="midnightblue" points="739.163,-167.347 745.7,-159.009 735.39,-161.45 739.163,-167.347"/>
</g>
<!-- Node16&#45;&gt;Node20 -->
<g id="edge28" class="edge"><title>Node16&#45;&gt;Node20</title>
<path fill="none" stroke="midnightblue" d="M646.085,-201.475C626.115,-192.927 594.75,-179.501 569.222,-168.573"/>
<polygon fill="midnightblue" stroke="midnightblue" points="570.33,-165.241 559.76,-164.523 567.575,-171.676 570.33,-165.241"/>
</g>
<!-- Node20&#45;&gt;Node3 -->
<g id="edge29" class="edge"><title>Node20&#45;&gt;Node3</title>
<path fill="none" stroke="midnightblue" d="M488.377,-134.396C456.592,-122.789 412.025,-106.515 381.914,-95.5192"/>
<polygon fill="midnightblue" stroke="midnightblue" points="382.89,-92.1495 372.296,-92.007 380.489,-98.7249 382.89,-92.1495"/>
</g>
<!-- Node20&#45;&gt;Node9 -->
<g id="edge30" class="edge"><title>Node20&#45;&gt;Node9</title>
<path fill="none" stroke="midnightblue" d="M597.429,-137.252C685.542,-123.18 832.927,-99.6419 899.502,-89.0096"/>
<polygon fill="midnightblue" stroke="midnightblue" points="900.148,-92.4507 909.471,-87.4174 899.044,-85.5383 900.148,-92.4507"/>
</g>
<!-- Node20&#45;&gt;Node14 -->
<g id="edge31" class="edge"><title>Node20&#45;&gt;Node14</title>
<path fill="none" stroke="midnightblue" d="M586.98,-134.476C643.103,-121.354 724.963,-102.214 770.743,-91.5098"/>
<polygon fill="midnightblue" stroke="midnightblue" points="771.814,-94.8538 780.755,-89.1689 770.22,-88.0376 771.814,-94.8538"/>
</g>
<!-- Node20&#45;&gt;Node17 -->
<g id="edge32" class="edge"><title>Node20&#45;&gt;Node17</title>
<path fill="none" stroke="midnightblue" d="M549.566,-134.396C567.007,-123.496 591.034,-108.479 608.466,-97.5835"/>
<polygon fill="midnightblue" stroke="midnightblue" points="610.764,-100.275 617.389,-92.007 607.054,-94.339 610.764,-100.275"/>
</g>
<!-- Node21 -->
<g id="node21" class="node"><title>Node21</title>
<g id="a_node21"><a xlink:title=" ">
<polygon fill="none" stroke="#bfbfbf" points="458.5,-67.5 458.5,-97.5 595.5,-97.5 595.5,-67.5 458.5,-67.5"/>
<text text-anchor="start" x="466.5" y="-85.5" font-family="Helvetica,sans-Serif" font-size="10.00">xercesc/framework/Memory</text>
<text text-anchor="middle" x="527" y="-74.5" font-family="Helvetica,sans-Serif" font-size="10.00">Manager.hpp</text>
</a>
</g>
</g>
<!-- Node20&#45;&gt;Node21 -->
<g id="edge33" class="edge"><title>Node20&#45;&gt;Node21</title>
<path fill="none" stroke="midnightblue" d="M527,-134.396C527,-126.645 527,-116.812 527,-107.86"/>
<polygon fill="midnightblue" stroke="midnightblue" points="530.5,-107.576 527,-97.5765 523.5,-107.577 530.5,-107.576"/>
</g>
<!-- Node22&#45;&gt;Node3 -->
<g id="edge35" class="edge"><title>Node22&#45;&gt;Node3</title>
<path fill="none" stroke="midnightblue" d="M759.848,-202.001C650.518,-189.499 451.533,-166.582 448,-165 429.035,-156.507 428.941,-147.33 413,-134 398.356,-121.754 381.378,-108.394 368.589,-98.4933"/>
<polygon fill="midnightblue" stroke="midnightblue" points="370.543,-95.58 360.486,-92.2477 366.27,-101.124 370.543,-95.58"/>
</g>
<!-- Node22&#45;&gt;Node9 -->
<g id="edge38" class="edge"><title>Node22&#45;&gt;Node9</title>
<path fill="none" stroke="midnightblue" d="M857.772,-201.494C876.045,-194.511 899.076,-182.827 913,-165 927.233,-146.777 931.894,-119.94 933.378,-102.103"/>
<polygon fill="midnightblue" stroke="midnightblue" points="936.874,-102.274 933.957,-92.0889 929.886,-101.87 936.874,-102.274"/>
</g>
<!-- Node22&#45;&gt;Node11 -->
<g id="edge37" class="edge"><title>Node22&#45;&gt;Node11</title>
<path fill="none" stroke="midnightblue" d="M868.187,-201.476C904.804,-193.061 961.521,-179.398 1010,-165 1012.77,-164.176 1015.63,-163.283 1018.5,-162.358"/>
<polygon fill="midnightblue" stroke="midnightblue" points="1019.75,-165.63 1028.13,-159.146 1017.54,-158.99 1019.75,-165.63"/>
</g>
<!-- Node22&#45;&gt;Node14 -->
<g id="edge36" class="edge"><title>Node22&#45;&gt;Node14</title>
<path fill="none" stroke="midnightblue" d="M852.459,-201.382C867.769,-194.184 886.863,-182.288 896,-165 902.438,-152.819 902.99,-145.873 896,-134 883.711,-113.126 859.337,-100.265 838.906,-92.7498"/>
<polygon fill="midnightblue" stroke="midnightblue" points="839.857,-89.3766 829.263,-89.478 837.608,-96.0055 839.857,-89.3766"/>
</g>
<!-- Node22&#45;&gt;Node17 -->
<g id="edge39" class="edge"><title>Node22&#45;&gt;Node17</title>
<path fill="none" stroke="midnightblue" d="M839.146,-201.2C853.708,-186.125 878.877,-154.966 862,-134 836.66,-102.522 713.676,-89.5929 658.219,-85.2997"/>
<polygon fill="midnightblue" stroke="midnightblue" points="658.307,-81.7968 648.077,-84.5533 657.793,-88.7779 658.307,-81.7968"/>
</g>
<!-- Node22&#45;&gt;Node18 -->
<g id="edge40" class="edge"><title>Node22&#45;&gt;Node18</title>
<path fill="none" stroke="midnightblue" d="M830,-201.475C830,-193.08 830,-179.981 830,-169.163"/>
<polygon fill="midnightblue" stroke="midnightblue" points="833.5,-169.009 830,-159.009 826.5,-169.009 833.5,-169.009"/>
</g>
<!-- Node22&#45;&gt;Node19 -->
<g id="edge41" class="edge"><title>Node22&#45;&gt;Node19</title>
<path fill="none" stroke="midnightblue" d="M819.827,-201.475C808.65,-192.108 790.483,-176.884 776.909,-165.508"/>
<polygon fill="midnightblue" stroke="midnightblue" points="779.066,-162.75 769.154,-159.009 774.57,-168.115 779.066,-162.75"/>
</g>
<!-- Node22&#45;&gt;Node20 -->
<g id="edge42" class="edge"><title>Node22&#45;&gt;Node20</title>
<path fill="none" stroke="midnightblue" d="M786.587,-201.475C739.968,-192.32 664.857,-177.571 607.395,-166.287"/>
<polygon fill="midnightblue" stroke="midnightblue" points="607.733,-162.787 597.246,-164.294 606.384,-169.656 607.733,-162.787"/>
</g>
<!-- Node23&#45;&gt;Node8 -->
<g id="edge46" class="edge"><title>Node23&#45;&gt;Node8</title>
<path fill="none" stroke="midnightblue" d="M294.134,-318.975C291.283,-310.492 286.817,-297.204 283.159,-286.322"/>
<polygon fill="midnightblue" stroke="midnightblue" points="286.364,-284.873 279.86,-276.509 279.729,-287.103 286.364,-284.873"/>
</g>
</g>
</svg>
        <g id="navigator" transform="translate(0 0)" fill="#404254">
                <rect fill="#f2f5e9" fill-opacity="0.5" stroke="#606060" stroke-width=".5" x="0" y="0" width="60" height="60"/>
                <use id="zoomplus" xlink:href="#zoomPlus" x="17" y="9" onmousedown="handleZoom(evt,'in')"/>
                <use id="zoomminus" xlink:href="#zoomMin" x="42" y="9" onmousedown="handleZoom(evt,'out')"/>
                <use id="reset" xlink:href="#resetDef" x="30" y="36" onmousedown="handleReset()"/>
                <g id="arrowUp" xlink:href="#dirArrow" transform="translate(30 24)" onmousedown="handlePan(0,-1)">
                  <use xlink:href="#rim" fill="#404040">
                        <set attributeName="fill" to="#808080" begin="arrowUp.mouseover" end="arrowUp.mouseout"/>
                  </use>
                  <path fill="none" stroke="white" stroke-width="1.5" d="M0,-3.0v7 M-2.5,-0.5L0,-3.0L2.5,-0.5"/>
                </g>
                <g id="arrowRight" xlink:href="#dirArrow" transform="rotate(90) translate(36 -43)" onmousedown="handlePan(1,0)">
                  <use xlink:href="#rim" fill="#404040">
                        <set attributeName="fill" to="#808080" begin="arrowRight.mouseover" end="arrowRight.mouseout"/>
                  </use>
                  <path fill="none" stroke="white" stroke-width="1.5" d="M0,-3.0v7 M-2.5,-0.5L0,-3.0L2.5,-0.5"/>
                </g>
                <g id="arrowDown" xlink:href="#dirArrow" transform="rotate(180) translate(-30 -48)" onmousedown="handlePan(0,1)">
                  <use xlink:href="#rim" fill="#404040">
                        <set attributeName="fill" to="#808080" begin="arrowDown.mouseover" end="arrowDown.mouseout"/>
                  </use>
                  <path fill="none" stroke="white" stroke-width="1.5" d="M0,-3.0v7 M-2.5,-0.5L0,-3.0L2.5,-0.5"/>
                </g>
                <g id="arrowLeft" xlink:href="#dirArrow" transform="rotate(270) translate(-36 17)" onmousedown="handlePan(-1,0)">
                  <use xlink:href="#rim" fill="#404040">
                        <set attributeName="fill" to="#808080" begin="arrowLeft.mouseover" end="arrowLeft.mouseout"/>
                  </use>
                  <path fill="none" stroke="white" stroke-width="1.5" d="M0,-3.0v7 M-2.5,-0.5L0,-3.0L2.5,-0.5"/>
                </g>
        </g>
        <svg viewBox="0 0 15 15" width="100%" height="30px" preserveAspectRatio="xMaxYMin meet">
         <g id="arrow_out" transform="scale(0.3 0.3)">
          <a xlink:href="ICUBridge_8hpp__incl_org.svg" target="_base">
           <rect id="button" ry="5" rx="5" y="6" x="6" height="38" width="38"
                fill="#f2f5e9" fill-opacity="0.5" stroke="#606060" stroke-width="1.0"/>
           <path id="arrow"
             d="M 11.500037,31.436501 C 11.940474,20.09759 22.043105,11.32322 32.158766,21.979434 L 37.068811,17.246167 C 37.068811,17.246167 37.088388,32 37.088388,32 L 22.160133,31.978069 C 22.160133,31.978069 26.997745,27.140456 26.997745,27.140456 C 18.528582,18.264221 13.291696,25.230495 11.500037,31.436501 z"
             style="fill:#404040;"/>
          </a>
         </g>
        </svg>
</svg>
