<?xml version="1.0" encoding="UTF-8" standalone="no"?>
<!DOCTYPE svg PUBLIC "-//W3C//DTD SVG 1.1//EN"
 "http://www.w3.org/Graphics/SVG/1.1/DTD/svg11.dtd">
<!-- Generated by graphviz version 2.43.0 (0)
 -->
<!-- Title: Graphical Class Hierarchy Pages: 1 -->
<svg width="521pt" height="88pt"
 viewBox="0.00 0.00 521.00 88.00" xmlns="http://www.w3.org/2000/svg" xmlns:xlink="http://www.w3.org/1999/xlink">
<g id="graph0" class="graph" transform="scale(1 1) rotate(0) translate(4 84)">
<title>Graphical Class Hierarchy</title>
<!-- Node861 -->
<g id="node1" class="node">
<title>Node861</title>
<g id="a_node1"><a xlink:title=" ">
<polygon fill="none" stroke="#bfbfbf" points="0,-30 0,-49 100,-49 100,-30 0,-30"/>
<text text-anchor="middle" x="50" y="-37" font-family="Helvetica,sans-Serif" font-size="10.00">MemoryManager</text>
</a>
</g>
</g>
<!-- Node0 -->
<g id="node2" class="node">
<title>Node0</title>
<g id="a_node2"><a xlink:href="classxalanc_1_1XalanMemoryManager.html" target="_top" xlink:title=" ">
<polygon fill="none" stroke="black" points="136,-30 136,-49 302,-49 302,-30 136,-30"/>
<text text-anchor="middle" x="219" y="-37" font-family="Helvetica,sans-Serif" font-size="10.00">xalanc::XalanMemoryManager</text>
</a>
</g>
</g>
<!-- Node861&#45;&gt;Node0 -->
<g id="edge1" class="edge">
<title>Node861&#45;&gt;Node0</title>
<path fill="none" stroke="midnightblue" d="M110.47,-39.5C118.74,-39.5 127.35,-39.5 135.94,-39.5"/>
<polygon fill="midnightblue" stroke="midnightblue" points="110.2,-36 100.2,-39.5 110.2,-43 110.2,-36"/>
</g>
<!-- Node1 -->
<g id="node3" class="node">
<title>Node1</title>
<g id="a_node3"><a xlink:href="classxalanc_1_1XalanDiagnosticMemoryManager.html" target="_top" xlink:title=" ">
<polygon fill="none" stroke="black" points="338,-49.5 338,-79.5 513,-79.5 513,-49.5 338,-49.5"/>
<text text-anchor="start" x="346" y="-67.5" font-family="Helvetica,sans-Serif" font-size="10.00">xalanc::XalanDiagnosticMemory</text>
<text text-anchor="middle" x="425.5" y="-56.5" font-family="Helvetica,sans-Serif" font-size="10.00">Manager</text>
</a>
</g>
</g>
<!-- Node0&#45;&gt;Node1 -->
<g id="edge2" class="edge">
<title>Node0&#45;&gt;Node1</title>
<path fill="none" stroke="midnightblue" d="M308.12,-50.27C318.01,-51.48 328.08,-52.71 337.94,-53.92"/>
<polygon fill="midnightblue" stroke="midnightblue" points="308.25,-46.76 297.9,-49.02 307.4,-53.71 308.25,-46.76"/>
</g>
<!-- Node2 -->
<g id="node4" class="node">
<title>Node2</title>
<g id="a_node4"><a xlink:href="classxalanc_1_1XalanMemoryManagerDefault.html" target="_top" xlink:title=" ">
<polygon fill="none" stroke="black" points="342.5,-0.5 342.5,-30.5 508.5,-30.5 508.5,-0.5 342.5,-0.5"/>
<text text-anchor="start" x="350.5" y="-18.5" font-family="Helvetica,sans-Serif" font-size="10.00">xalanc::XalanMemoryManager</text>
<text text-anchor="middle" x="425.5" y="-7.5" font-family="Helvetica,sans-Serif" font-size="10.00">Default</text>
</a>
</g>
</g>
<!-- Node0&#45;&gt;Node2 -->
<g id="edge3" class="edge">
<title>Node0&#45;&gt;Node2</title>
<path fill="none" stroke="midnightblue" d="M311.08,-28.81C321.54,-27.58 332.15,-26.34 342.48,-25.13"/>
<polygon fill="midnightblue" stroke="midnightblue" points="310.64,-25.34 301.12,-29.98 311.46,-32.29 310.64,-25.34"/>
</g>
</g>
</svg>
