<?xml version="1.0" encoding="UTF-8" standalone="no"?>
<!DOCTYPE svg PUBLIC "-//W3C//DTD SVG 1.1//EN"
 "http://www.w3.org/Graphics/SVG/1.1/DTD/svg11.dtd">
<!-- Generated by graphviz version 2.38.0 (20140413.2041)
 -->
<!-- Title: Graphical Class Hierarchy Pages: 1 -->
<svg width="347pt" height="149pt"
 viewBox="0.00 0.00 347.00 148.50" xmlns="http://www.w3.org/2000/svg" xmlns:xlink="http://www.w3.org/1999/xlink">
<g id="graph0" class="graph" transform="scale(1 1) rotate(0) translate(4 144.5)">
<title>Graphical Class Hierarchy</title>
<!-- Node0 -->
<g id="node1" class="node"><title>Node0</title>
<g id="a_node1"><a xlink:href="classxalanc_1_1XalanCollationServices_1_1CollationCompareFunctor.html" target="_top" xlink:title=" ">
<polygon fill="none" stroke="black" points="0,-61 0,-91 149,-91 149,-61 0,-61"/>
<text text-anchor="start" x="8" y="-79" font-family="Helvetica,sans-Serif" font-size="10.00">xalanc::XalanCollationServices</text>
<text text-anchor="middle" x="74.5" y="-68" font-family="Helvetica,sans-Serif" font-size="10.00">::CollationCompareFunctor</text>
</a>
</g>
</g>
<!-- Node1 -->
<g id="node2" class="node"><title>Node1</title>
<g id="a_node2"><a xlink:href="classxalanc_1_1ICUBridgeCollationCompareFunctor.html" target="_top" xlink:title=" ">
<polygon fill="none" stroke="black" points="196,-110 196,-140 328,-140 328,-110 196,-110"/>
<text text-anchor="start" x="204" y="-128" font-family="Helvetica,sans-Serif" font-size="10.00">xalanc::ICUBridgeCollation</text>
<text text-anchor="middle" x="262" y="-117" font-family="Helvetica,sans-Serif" font-size="10.00">CompareFunctor</text>
</a>
</g>
</g>
<!-- Node0&#45;&gt;Node1 -->
<g id="edge1" class="edge"><title>Node0&#45;&gt;Node1</title>
<path fill="none" stroke="midnightblue" d="M142.215,-93.6229C162.51,-98.9837 184.614,-104.823 204.191,-109.994"/>
<polygon fill="midnightblue" stroke="midnightblue" points="142.979,-90.2047 132.417,-91.0346 141.191,-96.9725 142.979,-90.2047"/>
</g>
<!-- Node2 -->
<g id="node3" class="node"><title>Node2</title>
<g id="a_node3"><a xlink:href="classxalanc_1_1ICUBridgeCollationCompareFunctorImpl.html" target="_top" xlink:title=" ">
<polygon fill="none" stroke="black" points="196,-61 196,-91 328,-91 328,-61 196,-61"/>
<text text-anchor="start" x="204" y="-79" font-family="Helvetica,sans-Serif" font-size="10.00">xalanc::ICUBridgeCollation</text>
<text text-anchor="middle" x="262" y="-68" font-family="Helvetica,sans-Serif" font-size="10.00">CompareFunctorImpl</text>
</a>
</g>
</g>
<!-- Node0&#45;&gt;Node2 -->
<g id="edge2" class="edge"><title>Node0&#45;&gt;Node2</title>
<path fill="none" stroke="midnightblue" d="M159.325,-76C171.602,-76 184.09,-76 195.917,-76"/>
<polygon fill="midnightblue" stroke="midnightblue" points="159.081,-72.5001 149.081,-76 159.081,-79.5001 159.081,-72.5001"/>
</g>
<!-- Node3 -->
<g id="node4" class="node"><title>Node3</title>
<g id="a_node4"><a xlink:href="classxalanc_1_1StylesheetExecutionContextDefault_1_1DefaultCollationCompareFunctor.html" target="_top" xlink:title=" ">
<polygon fill="none" stroke="black" points="185,-0.5 185,-41.5 339,-41.5 339,-0.5 185,-0.5"/>
<text text-anchor="start" x="193" y="-29.5" font-family="Helvetica,sans-Serif" font-size="10.00">xalanc::StylesheetExecution</text>
<text text-anchor="start" x="193" y="-18.5" font-family="Helvetica,sans-Serif" font-size="10.00">ContextDefault::DefaultCollation</text>
<text text-anchor="middle" x="262" y="-7.5" font-family="Helvetica,sans-Serif" font-size="10.00">CompareFunctor</text>
</a>
</g>
</g>
<!-- Node0&#45;&gt;Node3 -->
<g id="edge3" class="edge"><title>Node0&#45;&gt;Node3</title>
<path fill="none" stroke="midnightblue" d="M135.869,-58.1009C153.665,-52.8243 173.281,-47.0084 191.597,-41.5777"/>
<polygon fill="midnightblue" stroke="midnightblue" points="134.781,-54.7727 126.189,-60.971 136.771,-61.4839 134.781,-54.7727"/>
</g>
</g>
</svg>
