<?xml version="1.0" encoding="UTF-8" standalone="no"?>
<!DOCTYPE svg PUBLIC "-//W3C//DTD SVG 1.1//EN"
 "http://www.w3.org/Graphics/SVG/1.1/DTD/svg11.dtd">
<!-- Generated by graphviz version 2.43.0 (0)
 -->
<!-- Title: Graphical Class Hierarchy Pages: 1 -->
<svg width="714pt" height="371pt"
 viewBox="0.00 0.00 714.00 371.00" xmlns="http://www.w3.org/2000/svg" xmlns:xlink="http://www.w3.org/1999/xlink">
<g id="graph0" class="graph" transform="scale(1 1) rotate(0) translate(4 367)">
<title>Graphical Class Hierarchy</title>
<!-- Node727 -->
<g id="node1" class="node">
<title>Node727</title>
<g id="a_node1"><a xlink:title=" ">
<polygon fill="none" stroke="#bfbfbf" points="0,-169 0,-188 105,-188 105,-169 0,-169"/>
<text text-anchor="middle" x="52.5" y="-176" font-family="Helvetica,sans-Serif" font-size="10.00">DocumentHandler</text>
</a>
</g>
</g>
<!-- Node0 -->
<g id="node2" class="node">
<title>Node0</title>
<g id="a_node2"><a xlink:href="classxalanc_1_1FormatterListener.html" target="_top" xlink:title="A SAX&#45;based formatter interface for the XSL processor.">
<polygon fill="none" stroke="black" points="141,-169 141,-188 283,-188 283,-169 141,-169"/>
<text text-anchor="middle" x="212" y="-176" font-family="Helvetica,sans-Serif" font-size="10.00">xalanc::FormatterListener</text>
</a>
</g>
</g>
<!-- Node727&#45;&gt;Node0 -->
<g id="edge1" class="edge">
<title>Node727&#45;&gt;Node0</title>
<path fill="none" stroke="midnightblue" d="M115.14,-178.5C123.53,-178.5 132.19,-178.5 140.72,-178.5"/>
<polygon fill="midnightblue" stroke="midnightblue" points="115.07,-175 105.07,-178.5 115.07,-182 115.07,-175"/>
</g>
<!-- Node1 -->
<g id="node3" class="node">
<title>Node1</title>
<g id="a_node3"><a xlink:href="classxalanc_1_1FormatterStringLengthCounter.html" target="_top" xlink:title="This class takes SAX events (in addition to some extra events that SAX doesn&#39;t handle yet) and produc...">
<polygon fill="none" stroke="black" points="323.5,-332.5 323.5,-362.5 487.5,-362.5 487.5,-332.5 323.5,-332.5"/>
<text text-anchor="start" x="331.5" y="-350.5" font-family="Helvetica,sans-Serif" font-size="10.00">xalanc::FormatterStringLength</text>
<text text-anchor="middle" x="405.5" y="-339.5" font-family="Helvetica,sans-Serif" font-size="10.00">Counter</text>
</a>
</g>
</g>
<!-- Node0&#45;&gt;Node1 -->
<g id="edge2" class="edge">
<title>Node0&#45;&gt;Node1</title>
<path fill="none" stroke="midnightblue" d="M221.76,-197.69C236.99,-228.89 271.35,-290.44 319,-323.5 323.94,-326.93 329.36,-329.87 335,-332.39"/>
<polygon fill="midnightblue" stroke="midnightblue" points="224.78,-195.9 217.33,-188.36 218.46,-198.89 224.78,-195.9"/>
</g>
<!-- Node2 -->
<g id="node4" class="node">
<title>Node2</title>
<g id="a_node4"><a xlink:href="classxalanc_1_1FormatterToDeprecatedXercesDOM.html" target="_top" xlink:title="This class takes SAX events (in addition to some extra events that SAX doesn&#39;t handle yet) and adds t...">
<polygon fill="none" stroke="black" points="320.5,-283.5 320.5,-313.5 490.5,-313.5 490.5,-283.5 320.5,-283.5"/>
<text text-anchor="start" x="328.5" y="-301.5" font-family="Helvetica,sans-Serif" font-size="10.00">xalanc::FormatterToDeprecated</text>
<text text-anchor="middle" x="405.5" y="-290.5" font-family="Helvetica,sans-Serif" font-size="10.00">XercesDOM</text>
</a>
</g>
</g>
<!-- Node0&#45;&gt;Node2 -->
<g id="edge3" class="edge">
<title>Node0&#45;&gt;Node2</title>
<path fill="none" stroke="midnightblue" d="M227.7,-195.74C246.71,-217 281.82,-252.82 319,-273.5 325.89,-277.33 333.43,-280.63 341.09,-283.46"/>
<polygon fill="midnightblue" stroke="midnightblue" points="230.24,-193.33 221.01,-188.12 224.98,-197.95 230.24,-193.33"/>
</g>
<!-- Node3 -->
<g id="node5" class="node">
<title>Node3</title>
<g id="a_node5"><a xlink:href="classxalanc_1_1FormatterToNull.html" target="_top" xlink:title="This class takes SAX events (in addition to some extra events that SAX doesn&#39;t handle yet) and produc...">
<polygon fill="none" stroke="black" points="339,-245 339,-264 472,-264 472,-245 339,-245"/>
<text text-anchor="middle" x="405.5" y="-252" font-family="Helvetica,sans-Serif" font-size="10.00">xalanc::FormatterToNull</text>
</a>
</g>
</g>
<!-- Node0&#45;&gt;Node3 -->
<g id="edge4" class="edge">
<title>Node0&#45;&gt;Node3</title>
<path fill="none" stroke="midnightblue" d="M236.35,-193.49C257.26,-206.31 289.15,-224.4 319,-235.5 329.12,-239.26 340.2,-242.4 350.94,-244.97"/>
<polygon fill="midnightblue" stroke="midnightblue" points="238.17,-190.5 227.83,-188.18 234.47,-196.44 238.17,-190.5"/>
</g>
<!-- Node4 -->
<g id="node6" class="node">
<title>Node4</title>
<g id="a_node6"><a xlink:href="classxalanc_1_1FormatterToSourceTree.html" target="_top" xlink:title="This class takes SAX events (in addition to some extra events that SAX doesn&#39;t handle yet) and adds t...">
<polygon fill="none" stroke="black" points="322,-207 322,-226 489,-226 489,-207 322,-207"/>
<text text-anchor="middle" x="405.5" y="-214" font-family="Helvetica,sans-Serif" font-size="10.00">xalanc::FormatterToSourceTree</text>
</a>
</g>
</g>
<!-- Node0&#45;&gt;Node4 -->
<g id="edge5" class="edge">
<title>Node0&#45;&gt;Node4</title>
<path fill="none" stroke="midnightblue" d="M271.15,-190.04C298.46,-195.46 330.63,-201.84 356.52,-206.98"/>
<polygon fill="midnightblue" stroke="midnightblue" points="271.81,-186.6 261.32,-188.09 270.45,-193.47 271.81,-186.6"/>
</g>
<!-- Node5 -->
<g id="node7" class="node">
<title>Node5</title>
<g id="a_node7"><a xlink:href="classxalanc_1_1FormatterToText.html" target="_top" xlink:title="This class takes SAX events (in addition to some extra events that SAX doesn&#39;t handle yet) and produc...">
<polygon fill="none" stroke="black" points="338.5,-169 338.5,-188 472.5,-188 472.5,-169 338.5,-169"/>
<text text-anchor="middle" x="405.5" y="-176" font-family="Helvetica,sans-Serif" font-size="10.00">xalanc::FormatterToText</text>
</a>
</g>
</g>
<!-- Node0&#45;&gt;Node5 -->
<g id="edge6" class="edge">
<title>Node0&#45;&gt;Node5</title>
<path fill="none" stroke="midnightblue" d="M293.49,-178.5C308.46,-178.5 323.95,-178.5 338.43,-178.5"/>
<polygon fill="midnightblue" stroke="midnightblue" points="293.22,-175 283.22,-178.5 293.22,-182 293.22,-175"/>
</g>
<!-- Node6 -->
<g id="node8" class="node">
<title>Node6</title>
<g id="a_node8"><a xlink:href="classxalanc_1_1FormatterToXercesDOM.html" target="_top" xlink:title="This class takes SAX events (in addition to some extra events that SAX doesn&#39;t handle yet) and adds t...">
<polygon fill="none" stroke="black" points="320.5,-131 320.5,-150 490.5,-150 490.5,-131 320.5,-131"/>
<text text-anchor="middle" x="405.5" y="-138" font-family="Helvetica,sans-Serif" font-size="10.00">xalanc::FormatterToXercesDOM</text>
</a>
</g>
</g>
<!-- Node0&#45;&gt;Node6 -->
<g id="edge7" class="edge">
<title>Node0&#45;&gt;Node6</title>
<path fill="none" stroke="midnightblue" d="M271.15,-166.96C298.46,-161.54 330.63,-155.16 356.52,-150.02"/>
<polygon fill="midnightblue" stroke="midnightblue" points="270.45,-163.53 261.32,-168.91 271.81,-170.4 270.45,-163.53"/>
</g>
<!-- Node7 -->
<g id="node9" class="node">
<title>Node7</title>
<g id="a_node9"><a xlink:href="classxalanc_1_1FormatterToXML.html" target="_top" xlink:title="FormatterToXML formats SAX&#45;style events into XML.">
<polygon fill="none" stroke="black" points="338.5,-93 338.5,-112 472.5,-112 472.5,-93 338.5,-93"/>
<text text-anchor="middle" x="405.5" y="-100" font-family="Helvetica,sans-Serif" font-size="10.00">xalanc::FormatterToXML</text>
</a>
</g>
</g>
<!-- Node0&#45;&gt;Node7 -->
<g id="edge8" class="edge">
<title>Node0&#45;&gt;Node7</title>
<path fill="none" stroke="midnightblue" d="M236.35,-163.51C257.26,-150.69 289.15,-132.6 319,-121.5 329.12,-117.74 340.2,-114.6 350.94,-112.03"/>
<polygon fill="midnightblue" stroke="midnightblue" points="234.47,-160.56 227.83,-168.82 238.17,-166.5 234.47,-160.56"/>
</g>
<!-- Node9 -->
<g id="node11" class="node">
<title>Node9</title>
<g id="a_node11"><a xlink:href="classxalanc_1_1StylesheetHandler.html" target="_top" xlink:title="This class processes a stylesheet via SAX events, and inits the given stylesheet.">
<polygon fill="none" stroke="black" points="333,-55 333,-74 478,-74 478,-55 333,-55"/>
<text text-anchor="middle" x="405.5" y="-62" font-family="Helvetica,sans-Serif" font-size="10.00">xalanc::StylesheetHandler</text>
</a>
</g>
</g>
<!-- Node0&#45;&gt;Node9 -->
<g id="edge10" class="edge">
<title>Node0&#45;&gt;Node9</title>
<path fill="none" stroke="midnightblue" d="M227.2,-161.19C245.92,-139.57 280.97,-103.04 319,-83.5 326.57,-79.61 334.93,-76.51 343.35,-74.04"/>
<polygon fill="midnightblue" stroke="midnightblue" points="224.43,-159.05 220.64,-168.94 229.77,-163.57 224.43,-159.05"/>
</g>
<!-- Node10 -->
<g id="node12" class="node">
<title>Node10</title>
<g id="a_node12"><a xlink:href="classxalanc_1_1XalanXMLSerializerBase.html" target="_top" xlink:title="XalanXMLSerializerBase serves as a base class for XML serializers based on FormatterListener events.">
<polygon fill="none" stroke="black" points="319,-17 319,-36 492,-36 492,-17 319,-17"/>
<text text-anchor="middle" x="405.5" y="-24" font-family="Helvetica,sans-Serif" font-size="10.00">xalanc::XalanXMLSerializerBase</text>
</a>
</g>
</g>
<!-- Node0&#45;&gt;Node10 -->
<g id="edge11" class="edge">
<title>Node0&#45;&gt;Node10</title>
<path fill="none" stroke="midnightblue" d="M222.43,-159.82C238.22,-130.56 272.85,-74.32 319,-45.5 325.19,-41.63 332.07,-38.55 339.15,-36.09"/>
<polygon fill="midnightblue" stroke="midnightblue" points="219.19,-158.47 217.65,-168.95 225.39,-161.72 219.19,-158.47"/>
</g>
<!-- Node8 -->
<g id="node10" class="node">
<title>Node8</title>
<g id="a_node10"><a xlink:href="classxalanc_1_1FormatterToHTML.html" target="_top" xlink:title="FormatterToHTML formats SAX&#45;style events into HTML.">
<polygon fill="none" stroke="black" points="546.5,-93 546.5,-112 687.5,-112 687.5,-93 546.5,-93"/>
<text text-anchor="middle" x="617" y="-100" font-family="Helvetica,sans-Serif" font-size="10.00">xalanc::FormatterToHTML</text>
</a>
</g>
</g>
<!-- Node7&#45;&gt;Node8 -->
<g id="edge9" class="edge">
<title>Node7&#45;&gt;Node8</title>
<path fill="none" stroke="midnightblue" d="M482.81,-102.5C503.52,-102.5 525.83,-102.5 546.17,-102.5"/>
<polygon fill="midnightblue" stroke="midnightblue" points="482.79,-99 472.79,-102.5 482.79,-106 482.79,-99"/>
</g>
<!-- Node11 -->
<g id="node13" class="node">
<title>Node11</title>
<g id="a_node13"><a xlink:href="classxalanc_1_1FormatterToXMLUnicode.html" target="_top" xlink:title="FormatterToXMLUnicode formats SAX&#45;style events into XML.">
<polygon fill="none" stroke="black" points="528,-0.5 528,-52.5 706,-52.5 706,-0.5 528,-0.5"/>
<text text-anchor="start" x="536" y="-40.5" font-family="Helvetica,sans-Serif" font-size="10.00">xalanc::FormatterToXMLUnicode</text>
<text text-anchor="start" x="536" y="-29.5" font-family="Helvetica,sans-Serif" font-size="10.00">&lt; UnicodeWriter, ConstantsType,</text>
<text text-anchor="start" x="536" y="-18.5" font-family="Helvetica,sans-Serif" font-size="10.00"> CharPredicate, IndentHandler,</text>
<text text-anchor="middle" x="617" y="-7.5" font-family="Helvetica,sans-Serif" font-size="10.00"> XMLVersion &gt;</text>
</a>
</g>
</g>
<!-- Node10&#45;&gt;Node11 -->
<g id="edge12" class="edge">
<title>Node10&#45;&gt;Node11</title>
<path fill="none" stroke="midnightblue" d="M502.29,-26.5C510.75,-26.5 519.3,-26.5 527.7,-26.5"/>
<polygon fill="midnightblue" stroke="midnightblue" points="502.01,-23 492.01,-26.5 502.01,-30 502.01,-23"/>
</g>
</g>
</svg>
