<?xml version="1.0" encoding="UTF-8" standalone="no"?>
<!DOCTYPE svg PUBLIC "-//W3C//DTD SVG 1.1//EN"
 "http://www.w3.org/Graphics/SVG/1.1/DTD/svg11.dtd">
<!-- Generated by graphviz version 2.43.0 (0)
 -->
<!-- Title: xalanc/Utils/MsgCreator/MsgFileOutputStream.hpp Pages: 1 -->
<svg width="294pt" height="240pt"
 viewBox="0.00 0.00 294.00 240.00" xmlns="http://www.w3.org/2000/svg" xmlns:xlink="http://www.w3.org/1999/xlink">
<g id="graph0" class="graph" transform="scale(1 1) rotate(0) translate(4 236)">
<title>xalanc/Utils/MsgCreator/MsgFileOutputStream.hpp</title>
<!-- Node1 -->
<g id="node1" class="node">
<title>Node1</title>
<g id="a_node1"><a xlink:title=" ">
<polygon fill="#bfbfbf" stroke="black" points="70,-201.5 70,-231.5 216,-231.5 216,-201.5 70,-201.5"/>
<text text-anchor="start" x="78" y="-219.5" font-family="Helvetica,sans-Serif" font-size="10.00">xalanc/Utils/MsgCreator</text>
<text text-anchor="middle" x="143" y="-208.5" font-family="Helvetica,sans-Serif" font-size="10.00">/MsgFileOutputStream.hpp</text>
</a>
</g>
</g>
<!-- Node2 -->
<g id="node2" class="node">
<title>Node2</title>
<g id="a_node2"><a xlink:href="SAX2Handler_8hpp.html" target="_top" xlink:title=" ">
<polygon fill="none" stroke="black" points="76,-134.5 76,-164.5 210,-164.5 210,-134.5 76,-134.5"/>
<text text-anchor="start" x="84" y="-152.5" font-family="Helvetica,sans-Serif" font-size="10.00">xalanc/Utils/MsgCreator</text>
<text text-anchor="middle" x="143" y="-141.5" font-family="Helvetica,sans-Serif" font-size="10.00">/SAX2Handler.hpp</text>
</a>
</g>
</g>
<!-- Node1&#45;&gt;Node2 -->
<g id="edge1" class="edge">
<title>Node1&#45;&gt;Node2</title>
<path fill="none" stroke="midnightblue" d="M143,-191.11C143,-182.15 143,-172.32 143,-164.58"/>
<polygon fill="midnightblue" stroke="midnightblue" points="139.5,-191.4 143,-201.4 146.5,-191.4 139.5,-191.4"/>
</g>
<!-- Node3 -->
<g id="node3" class="node">
<title>Node3</title>
<g id="a_node3"><a xlink:href="ICUResHandler_8hpp.html" target="_top" xlink:title=" ">
<polygon fill="none" stroke="black" points="0,-67.5 0,-97.5 134,-97.5 134,-67.5 0,-67.5"/>
<text text-anchor="start" x="8" y="-85.5" font-family="Helvetica,sans-Serif" font-size="10.00">xalanc/Utils/MsgCreator</text>
<text text-anchor="middle" x="67" y="-74.5" font-family="Helvetica,sans-Serif" font-size="10.00">/ICUResHandler.hpp</text>
</a>
</g>
</g>
<!-- Node2&#45;&gt;Node3 -->
<g id="edge2" class="edge">
<title>Node2&#45;&gt;Node3</title>
<path fill="none" stroke="midnightblue" d="M118.89,-127.88C107.34,-118.01 93.81,-106.43 83.46,-97.58"/>
<polygon fill="midnightblue" stroke="midnightblue" points="116.63,-130.56 126.51,-134.4 121.18,-125.24 116.63,-130.56"/>
</g>
<!-- Node5 -->
<g id="node5" class="node">
<title>Node5</title>
<g id="a_node5"><a xlink:href="InMemHandler_8hpp.html" target="_top" xlink:title=" ">
<polygon fill="none" stroke="black" points="152,-67.5 152,-97.5 286,-97.5 286,-67.5 152,-67.5"/>
<text text-anchor="start" x="160" y="-85.5" font-family="Helvetica,sans-Serif" font-size="10.00">xalanc/Utils/MsgCreator</text>
<text text-anchor="middle" x="219" y="-74.5" font-family="Helvetica,sans-Serif" font-size="10.00">/InMemHandler.hpp</text>
</a>
</g>
</g>
<!-- Node2&#45;&gt;Node5 -->
<g id="edge4" class="edge">
<title>Node2&#45;&gt;Node5</title>
<path fill="none" stroke="midnightblue" d="M167.11,-127.88C178.66,-118.01 192.19,-106.43 202.54,-97.58"/>
<polygon fill="midnightblue" stroke="midnightblue" points="164.82,-125.24 159.49,-134.4 169.37,-130.56 164.82,-125.24"/>
</g>
<!-- Node4 -->
<g id="node4" class="node">
<title>Node4</title>
<g id="a_node4"><a xlink:href="NLSHandler_8hpp.html" target="_top" xlink:title=" ">
<polygon fill="none" stroke="black" points="0,-0.5 0,-30.5 134,-30.5 134,-0.5 0,-0.5"/>
<text text-anchor="start" x="8" y="-18.5" font-family="Helvetica,sans-Serif" font-size="10.00">xalanc/Utils/MsgCreator</text>
<text text-anchor="middle" x="67" y="-7.5" font-family="Helvetica,sans-Serif" font-size="10.00">/NLSHandler.hpp</text>
</a>
</g>
</g>
<!-- Node3&#45;&gt;Node4 -->
<g id="edge3" class="edge">
<title>Node3&#45;&gt;Node4</title>
<path fill="none" stroke="midnightblue" d="M67,-57.11C67,-48.15 67,-38.32 67,-30.58"/>
<polygon fill="midnightblue" stroke="midnightblue" points="63.5,-57.4 67,-67.4 70.5,-57.4 63.5,-57.4"/>
</g>
</g>
</svg>
