<?xml version="1.0" encoding="UTF-8" standalone="no"?>
<!DOCTYPE svg PUBLIC "-//W3C//DTD SVG 1.1//EN"
 "http://www.w3.org/Graphics/SVG/1.1/DTD/svg11.dtd">
<!-- Generated by graphviz version 2.38.0 (20140413.2041)
 -->
<!-- Title: xalanc/Utils/MsgCreator/MsgFileOutputStream.hpp Pages: 1 -->
<svg width="268pt" height="240pt"
 viewBox="0.00 0.00 268.00 240.00" xmlns="http://www.w3.org/2000/svg" xmlns:xlink="http://www.w3.org/1999/xlink">
<g id="graph0" class="graph" transform="scale(1 1) rotate(0) translate(4 236)">
<title>xalanc/Utils/MsgCreator/MsgFileOutputStream.hpp</title>
<!-- Node1 -->
<g id="node1" class="node"><title>Node1</title>
<g id="a_node1"><a xlink:title=" ">
<polygon fill="#bfbfbf" stroke="black" points="62.5,-201.5 62.5,-231.5 196.5,-231.5 196.5,-201.5 62.5,-201.5"/>
<text text-anchor="start" x="70.5" y="-219.5" font-family="Helvetica,sans-Serif" font-size="10.00">xalanc/Utils/MsgCreator</text>
<text text-anchor="middle" x="129.5" y="-208.5" font-family="Helvetica,sans-Serif" font-size="10.00">/MsgFileOutputStream.hpp</text>
</a>
</g>
</g>
<!-- Node2 -->
<g id="node2" class="node"><title>Node2</title>
<g id="a_node2"><a xlink:href="SAX2Handler_8hpp.html" target="_top" xlink:title=" ">
<polygon fill="none" stroke="black" points="69,-134.5 69,-164.5 190,-164.5 190,-134.5 69,-134.5"/>
<text text-anchor="start" x="77" y="-152.5" font-family="Helvetica,sans-Serif" font-size="10.00">xalanc/Utils/MsgCreator</text>
<text text-anchor="middle" x="129.5" y="-141.5" font-family="Helvetica,sans-Serif" font-size="10.00">/SAX2Handler.hpp</text>
</a>
</g>
</g>
<!-- Node1&#45;&gt;Node2 -->
<g id="edge1" class="edge"><title>Node1&#45;&gt;Node2</title>
<path fill="none" stroke="midnightblue" d="M129.5,-191.108C129.5,-182.154 129.5,-172.323 129.5,-164.577"/>
<polygon fill="midnightblue" stroke="midnightblue" points="126,-191.396 129.5,-201.396 133,-191.396 126,-191.396"/>
</g>
<!-- Node3 -->
<g id="node3" class="node"><title>Node3</title>
<g id="a_node3"><a xlink:href="ICUResHandler_8hpp.html" target="_top" xlink:title=" ">
<polygon fill="none" stroke="black" points="0,-67.5 0,-97.5 121,-97.5 121,-67.5 0,-67.5"/>
<text text-anchor="start" x="8" y="-85.5" font-family="Helvetica,sans-Serif" font-size="10.00">xalanc/Utils/MsgCreator</text>
<text text-anchor="middle" x="60.5" y="-74.5" font-family="Helvetica,sans-Serif" font-size="10.00">/ICUResHandler.hpp</text>
</a>
</g>
</g>
<!-- Node2&#45;&gt;Node3 -->
<g id="edge2" class="edge"><title>Node2&#45;&gt;Node3</title>
<path fill="none" stroke="midnightblue" d="M107.008,-127.311C96.6573,-117.561 84.6596,-106.259 75.4428,-97.5765"/>
<polygon fill="midnightblue" stroke="midnightblue" points="104.849,-130.087 114.528,-134.396 109.649,-124.991 104.849,-130.087"/>
</g>
<!-- Node5 -->
<g id="node5" class="node"><title>Node5</title>
<g id="a_node5"><a xlink:href="InMemHandler_8hpp.html" target="_top" xlink:title=" ">
<polygon fill="none" stroke="black" points="139,-67.5 139,-97.5 260,-97.5 260,-67.5 139,-67.5"/>
<text text-anchor="start" x="147" y="-85.5" font-family="Helvetica,sans-Serif" font-size="10.00">xalanc/Utils/MsgCreator</text>
<text text-anchor="middle" x="199.5" y="-74.5" font-family="Helvetica,sans-Serif" font-size="10.00">/InMemHandler.hpp</text>
</a>
</g>
</g>
<!-- Node2&#45;&gt;Node5 -->
<g id="edge4" class="edge"><title>Node2&#45;&gt;Node5</title>
<path fill="none" stroke="midnightblue" d="M152.318,-127.311C162.819,-117.561 174.99,-106.259 184.341,-97.5765"/>
<polygon fill="midnightblue" stroke="midnightblue" points="149.635,-125.027 144.689,-134.396 154.399,-130.156 149.635,-125.027"/>
</g>
<!-- Node4 -->
<g id="node4" class="node"><title>Node4</title>
<g id="a_node4"><a xlink:href="NLSHandler_8hpp.html" target="_top" xlink:title=" ">
<polygon fill="none" stroke="black" points="0,-0.5 0,-30.5 121,-30.5 121,-0.5 0,-0.5"/>
<text text-anchor="start" x="8" y="-18.5" font-family="Helvetica,sans-Serif" font-size="10.00">xalanc/Utils/MsgCreator</text>
<text text-anchor="middle" x="60.5" y="-7.5" font-family="Helvetica,sans-Serif" font-size="10.00">/NLSHandler.hpp</text>
</a>
</g>
</g>
<!-- Node3&#45;&gt;Node4 -->
<g id="edge3" class="edge"><title>Node3&#45;&gt;Node4</title>
<path fill="none" stroke="midnightblue" d="M60.5,-57.1081C60.5,-48.1539 60.5,-38.3227 60.5,-30.5765"/>
<polygon fill="midnightblue" stroke="midnightblue" points="57.0001,-57.3959 60.5,-67.396 64.0001,-57.396 57.0001,-57.3959"/>
</g>
</g>
</svg>
