<?xml version="1.0" encoding="UTF-8" standalone="no"?>
<!DOCTYPE svg PUBLIC "-//W3C//DTD SVG 1.1//EN"
 "http://www.w3.org/Graphics/SVG/1.1/DTD/svg11.dtd">
<!-- Generated by graphviz version 2.43.0 (0)
 -->
<!-- Title: xalanc/XSLT/NamespacesHandler.hpp Pages: 1 -->
<svg width="5030pt" height="419pt"
 viewBox="0.00 0.00 5029.50 419.00" xmlns="http://www.w3.org/2000/svg" xmlns:xlink="http://www.w3.org/1999/xlink">
<g id="graph0" class="graph" transform="scale(1 1) rotate(0) translate(4 415)">
<title>xalanc/XSLT/NamespacesHandler.hpp</title>
<!-- Node1 -->
<g id="node1" class="node">
<title>Node1</title>
<g id="a_node1"><a xlink:title=" ">
<polygon fill="#bfbfbf" stroke="black" points="4487,-391.5 4487,-410.5 4687,-410.5 4687,-391.5 4487,-391.5"/>
<text text-anchor="middle" x="4587" y="-398.5" font-family="Helvetica,sans-Serif" font-size="10.00">xalanc/XSLT/NamespacesHandler.hpp</text>
</a>
</g>
</g>
<!-- Node2 -->
<g id="node2" class="node">
<title>Node2</title>
<g id="a_node2"><a xlink:href="ElemTemplateElement_8hpp.html" target="_top" xlink:title=" ">
<polygon fill="none" stroke="black" points="2360,-324.5 2360,-354.5 2508,-354.5 2508,-324.5 2360,-324.5"/>
<text text-anchor="start" x="2368" y="-342.5" font-family="Helvetica,sans-Serif" font-size="10.00">xalanc/XSLT/ElemTemplate</text>
<text text-anchor="middle" x="2434" y="-331.5" font-family="Helvetica,sans-Serif" font-size="10.00">Element.hpp</text>
</a>
</g>
</g>
<!-- Node1&#45;&gt;Node2 -->
<g id="edge1" class="edge">
<title>Node1&#45;&gt;Node2</title>
<path fill="none" stroke="midnightblue" d="M4476.5,-396.95C4093.38,-386.36 2827.98,-351.39 2508.01,-342.55"/>
<polygon fill="midnightblue" stroke="midnightblue" points="4476.67,-400.45 4486.76,-397.23 4476.86,-393.45 4476.67,-400.45"/>
</g>
<!-- Node25 -->
<g id="node25" class="node">
<title>Node25</title>
<g id="a_node25"><a xlink:href="StylesheetHandler_8hpp.html" target="_top" xlink:title=" ">
<polygon fill="none" stroke="black" points="4384,-140 4384,-159 4572,-159 4572,-140 4384,-140"/>
<text text-anchor="middle" x="4478" y="-147" font-family="Helvetica,sans-Serif" font-size="10.00">xalanc/XSLT/StylesheetHandler.hpp</text>
</a>
</g>
</g>
<!-- Node1&#45;&gt;Node25 -->
<g id="edge68" class="edge">
<title>Node1&#45;&gt;Node25</title>
<path fill="none" stroke="midnightblue" d="M4590.58,-381.06C4596.64,-343.35 4604.91,-257.66 4568,-201 4554.21,-179.83 4528.31,-166.66 4507.82,-159.1"/>
<polygon fill="midnightblue" stroke="midnightblue" points="4587.1,-380.68 4588.83,-391.13 4593.99,-381.88 4587.1,-380.68"/>
</g>
<!-- Node50 -->
<g id="node50" class="node">
<title>Node50</title>
<g id="a_node50"><a xlink:href="Stylesheet_8hpp.html" target="_top" xlink:title=" ">
<polygon fill="none" stroke="black" points="4615.5,-207 4615.5,-226 4766.5,-226 4766.5,-207 4615.5,-207"/>
<text text-anchor="middle" x="4691" y="-214" font-family="Helvetica,sans-Serif" font-size="10.00">xalanc/XSLT/Stylesheet.hpp</text>
</a>
</g>
</g>
<!-- Node1&#45;&gt;Node50 -->
<g id="edge59" class="edge">
<title>Node1&#45;&gt;Node50</title>
<path fill="none" stroke="midnightblue" d="M4597.14,-382.21C4619.01,-343.83 4669.94,-254.45 4686.03,-226.21"/>
<polygon fill="midnightblue" stroke="midnightblue" points="4593.93,-380.78 4592.02,-391.2 4600.01,-384.24 4593.93,-380.78"/>
</g>
<!-- Node3 -->
<g id="node3" class="node">
<title>Node3</title>
<g id="a_node3"><a xlink:href="ElemApplyImport_8hpp.html" target="_top" xlink:title=" ">
<polygon fill="none" stroke="black" points="4203,-268.5 4203,-287.5 4387,-287.5 4387,-268.5 4203,-268.5"/>
<text text-anchor="middle" x="4295" y="-275.5" font-family="Helvetica,sans-Serif" font-size="10.00">xalanc/XSLT/ElemApplyImport.hpp</text>
</a>
</g>
</g>
<!-- Node2&#45;&gt;Node3 -->
<g id="edge2" class="edge">
<title>Node2&#45;&gt;Node3</title>
<path fill="none" stroke="midnightblue" d="M2518.52,-337.88C2772.37,-335.62 3550.28,-325.88 4194,-288 4196.9,-287.83 4199.85,-287.64 4202.82,-287.44"/>
<polygon fill="midnightblue" stroke="midnightblue" points="2518.24,-334.38 2508.27,-337.97 2518.3,-341.38 2518.24,-334.38"/>
</g>
<!-- Node4 -->
<g id="node4" class="node">
<title>Node4</title>
<g id="a_node4"><a xlink:href="ElemAttribute_8hpp.html" target="_top" xlink:title=" ">
<polygon fill="none" stroke="black" points="3122.5,-268.5 3122.5,-287.5 3289.5,-287.5 3289.5,-268.5 3122.5,-268.5"/>
<text text-anchor="middle" x="3206" y="-275.5" font-family="Helvetica,sans-Serif" font-size="10.00">xalanc/XSLT/ElemAttribute.hpp</text>
</a>
</g>
</g>
<!-- Node2&#45;&gt;Node4 -->
<g id="edge3" class="edge">
<title>Node2&#45;&gt;Node4</title>
<path fill="none" stroke="midnightblue" d="M2518.17,-332.88C2646.69,-324.17 2899.55,-306.45 3114,-288 3116.72,-287.77 3119.48,-287.52 3122.27,-287.27"/>
<polygon fill="midnightblue" stroke="midnightblue" points="2517.74,-329.41 2508,-333.57 2518.22,-336.39 2517.74,-329.41"/>
</g>
<!-- Node8 -->
<g id="node8" class="node">
<title>Node8</title>
<g id="a_node8"><a xlink:href="ElemUse_8hpp.html" target="_top" xlink:title=" ">
<polygon fill="none" stroke="black" points="3307.5,-268.5 3307.5,-287.5 3450.5,-287.5 3450.5,-268.5 3307.5,-268.5"/>
<text text-anchor="middle" x="3379" y="-275.5" font-family="Helvetica,sans-Serif" font-size="10.00">xalanc/XSLT/ElemUse.hpp</text>
</a>
</g>
</g>
<!-- Node2&#45;&gt;Node8 -->
<g id="edge7" class="edge">
<title>Node2&#45;&gt;Node8</title>
<path fill="none" stroke="midnightblue" d="M2518.53,-335.07C2673.47,-328.46 3013.29,-312.39 3299,-288 3301.79,-287.76 3304.62,-287.51 3307.49,-287.24"/>
<polygon fill="midnightblue" stroke="midnightblue" points="2517.99,-331.59 2508.15,-335.52 2518.29,-338.59 2517.99,-331.59"/>
</g>
<!-- Node17 -->
<g id="node17" class="node">
<title>Node17</title>
<g id="a_node17"><a xlink:href="ElemCallTemplate_8hpp.html" target="_top" xlink:title=" ">
<polygon fill="none" stroke="black" points="3469,-268.5 3469,-287.5 3657,-287.5 3657,-268.5 3469,-268.5"/>
<text text-anchor="middle" x="3563" y="-275.5" font-family="Helvetica,sans-Serif" font-size="10.00">xalanc/XSLT/ElemCallTemplate.hpp</text>
</a>
</g>
</g>
<!-- Node2&#45;&gt;Node17 -->
<g id="edge19" class="edge">
<title>Node2&#45;&gt;Node17</title>
<path fill="none" stroke="midnightblue" d="M2518.28,-335.44C2693.67,-328.82 3110.66,-311.85 3460,-288 3462.95,-287.8 3465.96,-287.59 3468.99,-287.36"/>
<polygon fill="midnightblue" stroke="midnightblue" points="2517.95,-331.95 2508.09,-335.82 2518.21,-338.94 2517.95,-331.95"/>
</g>
<!-- Node19 -->
<g id="node19" class="node">
<title>Node19</title>
<g id="a_node19"><a xlink:href="ElemChoose_8hpp.html" target="_top" xlink:title=" ">
<polygon fill="none" stroke="black" points="368,-268.5 368,-287.5 528,-287.5 528,-268.5 368,-268.5"/>
<text text-anchor="middle" x="448" y="-275.5" font-family="Helvetica,sans-Serif" font-size="10.00">xalanc/XSLT/ElemChoose.hpp</text>
</a>
</g>
</g>
<!-- Node2&#45;&gt;Node19 -->
<g id="edge22" class="edge">
<title>Node2&#45;&gt;Node19</title>
<path fill="none" stroke="midnightblue" d="M2349.41,-338.48C2082.8,-337.95 1236.2,-332.6 537,-288 534.06,-287.81 531.06,-287.6 528.03,-287.38"/>
<polygon fill="midnightblue" stroke="midnightblue" points="2349.78,-341.98 2359.79,-338.5 2349.79,-334.98 2349.78,-341.98"/>
</g>
<!-- Node20 -->
<g id="node20" class="node">
<title>Node20</title>
<g id="a_node20"><a xlink:href="ElemComment_8hpp.html" target="_top" xlink:title=" ">
<polygon fill="none" stroke="black" points="546,-268.5 546,-287.5 718,-287.5 718,-268.5 546,-268.5"/>
<text text-anchor="middle" x="632" y="-275.5" font-family="Helvetica,sans-Serif" font-size="10.00">xalanc/XSLT/ElemComment.hpp</text>
</a>
</g>
</g>
<!-- Node2&#45;&gt;Node20 -->
<g id="edge23" class="edge">
<title>Node2&#45;&gt;Node20</title>
<path fill="none" stroke="midnightblue" d="M2349.84,-337.94C2101.38,-335.88 1349.41,-326.65 727,-288 724.11,-287.82 721.16,-287.62 718.19,-287.41"/>
<polygon fill="midnightblue" stroke="midnightblue" points="2349.86,-341.44 2359.88,-338.02 2349.91,-334.44 2349.86,-341.44"/>
</g>
<!-- Node21 -->
<g id="node21" class="node">
<title>Node21</title>
<g id="a_node21"><a xlink:href="ElemCopyOf_8hpp.html" target="_top" xlink:title=" ">
<polygon fill="none" stroke="black" points="736.5,-268.5 736.5,-287.5 895.5,-287.5 895.5,-268.5 736.5,-268.5"/>
<text text-anchor="middle" x="816" y="-275.5" font-family="Helvetica,sans-Serif" font-size="10.00">xalanc/XSLT/ElemCopyOf.hpp</text>
</a>
</g>
</g>
<!-- Node2&#45;&gt;Node21 -->
<g id="edge24" class="edge">
<title>Node2&#45;&gt;Node21</title>
<path fill="none" stroke="midnightblue" d="M2349.85,-337.76C2118.71,-335.28 1454.65,-325.2 904,-288 901.24,-287.81 898.44,-287.61 895.6,-287.39"/>
<polygon fill="midnightblue" stroke="midnightblue" points="2349.84,-341.26 2359.87,-337.86 2349.91,-334.26 2349.84,-341.26"/>
</g>
<!-- Node22 -->
<g id="node22" class="node">
<title>Node22</title>
<g id="a_node22"><a xlink:href="ElemDecimalFormat_8hpp.html" target="_top" xlink:title=" ">
<polygon fill="none" stroke="black" points="913.5,-268.5 913.5,-287.5 1112.5,-287.5 1112.5,-268.5 913.5,-268.5"/>
<text text-anchor="middle" x="1013" y="-275.5" font-family="Helvetica,sans-Serif" font-size="10.00">xalanc/XSLT/ElemDecimalFormat.hpp</text>
</a>
</g>
</g>
<!-- Node2&#45;&gt;Node22 -->
<g id="edge25" class="edge">
<title>Node2&#45;&gt;Node22</title>
<path fill="none" stroke="midnightblue" d="M2349.65,-336.56C2141.09,-331.49 1584.51,-316.21 1121,-288 1118.28,-287.83 1115.52,-287.66 1112.73,-287.47"/>
<polygon fill="midnightblue" stroke="midnightblue" points="2349.83,-340.07 2359.91,-336.81 2350,-333.07 2349.83,-340.07"/>
</g>
<!-- Node23 -->
<g id="node23" class="node">
<title>Node23</title>
<g id="a_node23"><a xlink:href="ElemEmpty_8hpp.html" target="_top" xlink:title=" ">
<polygon fill="none" stroke="black" points="4405,-268.5 4405,-287.5 4559,-287.5 4559,-268.5 4405,-268.5"/>
<text text-anchor="middle" x="4482" y="-275.5" font-family="Helvetica,sans-Serif" font-size="10.00">xalanc/XSLT/ElemEmpty.hpp</text>
</a>
</g>
</g>
<!-- Node2&#45;&gt;Node23 -->
<g id="edge26" class="edge">
<title>Node2&#45;&gt;Node23</title>
<path fill="none" stroke="midnightblue" d="M2518.23,-338.69C2790.3,-338.81 3670.05,-335.26 4396,-288 4398.85,-287.81 4401.74,-287.61 4404.67,-287.38"/>
<polygon fill="midnightblue" stroke="midnightblue" points="2518.04,-335.19 2508.04,-338.69 2518.04,-342.19 2518.04,-335.19"/>
</g>
<!-- Node26 -->
<g id="node26" class="node">
<title>Node26</title>
<g id="a_node26"><a xlink:href="ElemFallback_8hpp.html" target="_top" xlink:title=" ">
<polygon fill="none" stroke="black" points="1324,-268.5 1324,-287.5 1488,-287.5 1488,-268.5 1324,-268.5"/>
<text text-anchor="middle" x="1406" y="-275.5" font-family="Helvetica,sans-Serif" font-size="10.00">xalanc/XSLT/ElemFallback.hpp</text>
</a>
</g>
</g>
<!-- Node2&#45;&gt;Node26 -->
<g id="edge29" class="edge">
<title>Node2&#45;&gt;Node26</title>
<path fill="none" stroke="midnightblue" d="M2349.8,-335.23C2185.61,-328.56 1811.23,-311.99 1497,-288 1494.15,-287.78 1491.25,-287.55 1488.33,-287.31"/>
<polygon fill="midnightblue" stroke="midnightblue" points="2349.7,-338.72 2359.83,-335.63 2349.98,-331.73 2349.7,-338.72"/>
</g>
<!-- Node27 -->
<g id="node27" class="node">
<title>Node27</title>
<g id="a_node27"><a xlink:href="ElemForEach_8hpp.html" target="_top" xlink:title=" ">
<polygon fill="none" stroke="black" points="0,-268.5 0,-287.5 162,-287.5 162,-268.5 0,-268.5"/>
<text text-anchor="middle" x="81" y="-275.5" font-family="Helvetica,sans-Serif" font-size="10.00">xalanc/XSLT/ElemForEach.hpp</text>
</a>
</g>
</g>
<!-- Node2&#45;&gt;Node27 -->
<g id="edge30" class="edge">
<title>Node2&#45;&gt;Node27</title>
<path fill="none" stroke="midnightblue" d="M2349.38,-338.97C2050.96,-340.12 1019.96,-339.84 171,-288 168.18,-287.83 165.31,-287.64 162.41,-287.43"/>
<polygon fill="midnightblue" stroke="midnightblue" points="2349.69,-342.47 2359.68,-338.93 2349.67,-335.47 2349.69,-342.47"/>
</g>
<!-- Node30 -->
<g id="node30" class="node">
<title>Node30</title>
<g id="a_node30"><a xlink:href="ElemForwardCompatible_8hpp.html" target="_top" xlink:title=" ">
<polygon fill="none" stroke="black" points="1688.5,-268.5 1688.5,-287.5 1907.5,-287.5 1907.5,-268.5 1688.5,-268.5"/>
<text text-anchor="middle" x="1798" y="-275.5" font-family="Helvetica,sans-Serif" font-size="10.00">xalanc/XSLT/ElemForwardCompatible.hpp</text>
</a>
</g>
</g>
<!-- Node2&#45;&gt;Node30 -->
<g id="edge34" class="edge">
<title>Node2&#45;&gt;Node30</title>
<path fill="none" stroke="midnightblue" d="M2349.59,-330.6C2229.95,-319.41 2011.93,-299.01 1888.86,-287.5"/>
<polygon fill="midnightblue" stroke="midnightblue" points="2349.52,-334.11 2359.8,-331.56 2350.17,-327.14 2349.52,-334.11"/>
</g>
<!-- Node31 -->
<g id="node31" class="node">
<title>Node31</title>
<g id="a_node31"><a xlink:href="ElemIf_8hpp.html" target="_top" xlink:title=" ">
<polygon fill="none" stroke="black" points="1926,-268.5 1926,-287.5 2056,-287.5 2056,-268.5 1926,-268.5"/>
<text text-anchor="middle" x="1991" y="-275.5" font-family="Helvetica,sans-Serif" font-size="10.00">xalanc/XSLT/ElemIf.hpp</text>
</a>
</g>
</g>
<!-- Node2&#45;&gt;Node31 -->
<g id="edge35" class="edge">
<title>Node2&#45;&gt;Node31</title>
<path fill="none" stroke="midnightblue" d="M2349.86,-327.2C2263.88,-315.65 2132.27,-297.97 2054.6,-287.54"/>
<polygon fill="midnightblue" stroke="midnightblue" points="2349.47,-330.68 2359.85,-328.54 2350.41,-323.74 2349.47,-330.68"/>
</g>
<!-- Node32 -->
<g id="node32" class="node">
<title>Node32</title>
<g id="a_node32"><a xlink:href="ElemMessage_8hpp.html" target="_top" xlink:title=" ">
<polygon fill="none" stroke="black" points="2074.5,-268.5 2074.5,-287.5 2241.5,-287.5 2241.5,-268.5 2074.5,-268.5"/>
<text text-anchor="middle" x="2158" y="-275.5" font-family="Helvetica,sans-Serif" font-size="10.00">xalanc/XSLT/ElemMessage.hpp</text>
</a>
</g>
</g>
<!-- Node2&#45;&gt;Node32 -->
<g id="edge36" class="edge">
<title>Node2&#45;&gt;Node32</title>
<path fill="none" stroke="midnightblue" d="M2359.06,-322.34C2306.91,-311.1 2239.46,-296.56 2197.46,-287.51"/>
<polygon fill="midnightblue" stroke="midnightblue" points="2358.43,-325.79 2368.94,-324.47 2359.9,-318.95 2358.43,-325.79"/>
</g>
<!-- Node33 -->
<g id="node33" class="node">
<title>Node33</title>
<g id="a_node33"><a xlink:href="ElemNumber_8hpp.html" target="_top" xlink:title=" ">
<polygon fill="none" stroke="black" points="2260,-268.5 2260,-287.5 2422,-287.5 2422,-268.5 2260,-268.5"/>
<text text-anchor="middle" x="2341" y="-275.5" font-family="Helvetica,sans-Serif" font-size="10.00">xalanc/XSLT/ElemNumber.hpp</text>
</a>
</g>
</g>
<!-- Node2&#45;&gt;Node33 -->
<g id="edge37" class="edge">
<title>Node2&#45;&gt;Node33</title>
<path fill="none" stroke="midnightblue" d="M2403.17,-318.78C2386.69,-308.23 2367.23,-295.78 2354.53,-287.66"/>
<polygon fill="midnightblue" stroke="midnightblue" points="2401.65,-321.96 2411.96,-324.4 2405.42,-316.06 2401.65,-321.96"/>
</g>
<!-- Node34 -->
<g id="node34" class="node">
<title>Node34</title>
<g id="a_node34"><a xlink:href="ElemOtherwise_8hpp.html" target="_top" xlink:title=" ">
<polygon fill="none" stroke="black" points="2440.5,-268.5 2440.5,-287.5 2613.5,-287.5 2613.5,-268.5 2440.5,-268.5"/>
<text text-anchor="middle" x="2527" y="-275.5" font-family="Helvetica,sans-Serif" font-size="10.00">xalanc/XSLT/ElemOtherwise.hpp</text>
</a>
</g>
</g>
<!-- Node2&#45;&gt;Node34 -->
<g id="edge38" class="edge">
<title>Node2&#45;&gt;Node34</title>
<path fill="none" stroke="midnightblue" d="M2464.83,-318.78C2481.31,-308.23 2500.77,-295.78 2513.47,-287.66"/>
<polygon fill="midnightblue" stroke="midnightblue" points="2462.58,-316.06 2456.04,-324.4 2466.35,-321.96 2462.58,-316.06"/>
</g>
<!-- Node35 -->
<g id="node35" class="node">
<title>Node35</title>
<g id="a_node35"><a xlink:href="ElemVariable_8hpp.html" target="_top" xlink:title=" ">
<polygon fill="none" stroke="black" points="1506,-268.5 1506,-287.5 1670,-287.5 1670,-268.5 1506,-268.5"/>
<text text-anchor="middle" x="1588" y="-275.5" font-family="Helvetica,sans-Serif" font-size="10.00">xalanc/XSLT/ElemVariable.hpp</text>
</a>
</g>
</g>
<!-- Node2&#45;&gt;Node35 -->
<g id="edge39" class="edge">
<title>Node2&#45;&gt;Node35</title>
<path fill="none" stroke="midnightblue" d="M2349.8,-333.74C2210.26,-325.67 1922.31,-308.16 1679,-288 1676.15,-287.76 1673.25,-287.52 1670.33,-287.26"/>
<polygon fill="midnightblue" stroke="midnightblue" points="2349.81,-337.25 2360,-334.33 2350.22,-330.26 2349.81,-337.25"/>
</g>
<!-- Node38 -->
<g id="node38" class="node">
<title>Node38</title>
<g id="a_node38"><a xlink:href="ElemPI_8hpp.html" target="_top" xlink:title=" ">
<polygon fill="none" stroke="black" points="2810.5,-268.5 2810.5,-287.5 2943.5,-287.5 2943.5,-268.5 2810.5,-268.5"/>
<text text-anchor="middle" x="2877" y="-275.5" font-family="Helvetica,sans-Serif" font-size="10.00">xalanc/XSLT/ElemPI.hpp</text>
</a>
</g>
</g>
<!-- Node2&#45;&gt;Node38 -->
<g id="edge43" class="edge">
<title>Node2&#45;&gt;Node38</title>
<path fill="none" stroke="midnightblue" d="M2518.14,-327.2C2604.12,-315.65 2735.73,-297.97 2813.4,-287.54"/>
<polygon fill="midnightblue" stroke="midnightblue" points="2517.59,-323.74 2508.15,-328.54 2518.53,-330.68 2517.59,-323.74"/>
</g>
<!-- Node39 -->
<g id="node39" class="node">
<title>Node39</title>
<g id="a_node39"><a xlink:href="ElemSort_8hpp.html" target="_top" xlink:title=" ">
<polygon fill="none" stroke="black" points="2961.5,-268.5 2961.5,-287.5 3104.5,-287.5 3104.5,-268.5 2961.5,-268.5"/>
<text text-anchor="middle" x="3033" y="-275.5" font-family="Helvetica,sans-Serif" font-size="10.00">xalanc/XSLT/ElemSort.hpp</text>
</a>
</g>
</g>
<!-- Node2&#45;&gt;Node39 -->
<g id="edge44" class="edge">
<title>Node2&#45;&gt;Node39</title>
<path fill="none" stroke="midnightblue" d="M2518.38,-330.68C2621.11,-321.07 2799.86,-304.06 2953,-288 2955.78,-287.71 2958.61,-287.41 2961.48,-287.1"/>
<polygon fill="midnightblue" stroke="midnightblue" points="2518.01,-327.2 2508.38,-331.62 2518.66,-334.17 2518.01,-327.2"/>
</g>
<!-- Node40 -->
<g id="node40" class="node">
<title>Node40</title>
<g id="a_node40"><a xlink:href="ElemTemplate_8hpp.html" target="_top" xlink:title=" ">
<polygon fill="none" stroke="black" points="180.5,-268.5 180.5,-287.5 349.5,-287.5 349.5,-268.5 180.5,-268.5"/>
<text text-anchor="middle" x="265" y="-275.5" font-family="Helvetica,sans-Serif" font-size="10.00">xalanc/XSLT/ElemTemplate.hpp</text>
</a>
</g>
</g>
<!-- Node2&#45;&gt;Node40 -->
<g id="edge45" class="edge">
<title>Node2&#45;&gt;Node40</title>
<path fill="none" stroke="midnightblue" d="M2349.79,-338.6C2067.86,-338.46 1131.36,-334.31 359,-288 355.89,-287.81 352.73,-287.61 349.53,-287.38"/>
<polygon fill="midnightblue" stroke="midnightblue" points="2349.94,-342.1 2359.94,-338.6 2349.95,-335.1 2349.94,-342.1"/>
</g>
<!-- Node42 -->
<g id="node42" class="node">
<title>Node42</title>
<g id="a_node42"><a xlink:href="ElemText_8hpp.html" target="_top" xlink:title=" ">
<polygon fill="none" stroke="black" points="3675,-268.5 3675,-287.5 3819,-287.5 3819,-268.5 3675,-268.5"/>
<text text-anchor="middle" x="3747" y="-275.5" font-family="Helvetica,sans-Serif" font-size="10.00">xalanc/XSLT/ElemText.hpp</text>
</a>
</g>
</g>
<!-- Node2&#45;&gt;Node42 -->
<g id="edge48" class="edge">
<title>Node2&#45;&gt;Node42</title>
<path fill="none" stroke="midnightblue" d="M2518.17,-337.07C2717.72,-333.24 3235.11,-320.73 3666,-288 3668.82,-287.79 3671.7,-287.55 3674.6,-287.3"/>
<polygon fill="midnightblue" stroke="midnightblue" points="2517.98,-333.57 2508.05,-337.26 2518.12,-340.57 2517.98,-333.57"/>
</g>
<!-- Node44 -->
<g id="node44" class="node">
<title>Node44</title>
<g id="a_node44"><a xlink:href="ElemTextLiteral_8hpp.html" target="_top" xlink:title=" ">
<polygon fill="none" stroke="black" points="1130.5,-268.5 1130.5,-287.5 1305.5,-287.5 1305.5,-268.5 1130.5,-268.5"/>
<text text-anchor="middle" x="1218" y="-275.5" font-family="Helvetica,sans-Serif" font-size="10.00">xalanc/XSLT/ElemTextLiteral.hpp</text>
</a>
</g>
</g>
<!-- Node2&#45;&gt;Node44 -->
<g id="edge51" class="edge">
<title>Node2&#45;&gt;Node44</title>
<path fill="none" stroke="midnightblue" d="M2349.94,-336.07C2163.5,-330.38 1701.25,-314.62 1315,-288 1311.96,-287.79 1308.87,-287.57 1305.75,-287.33"/>
<polygon fill="midnightblue" stroke="midnightblue" points="2349.85,-339.57 2359.95,-336.37 2350.06,-332.57 2349.85,-339.57"/>
</g>
<!-- Node46 -->
<g id="node46" class="node">
<title>Node46</title>
<g id="a_node46"><a xlink:href="ElemValueOf_8hpp.html" target="_top" xlink:title=" ">
<polygon fill="none" stroke="black" points="2631.5,-268.5 2631.5,-287.5 2792.5,-287.5 2792.5,-268.5 2631.5,-268.5"/>
<text text-anchor="middle" x="2712" y="-275.5" font-family="Helvetica,sans-Serif" font-size="10.00">xalanc/XSLT/ElemValueOf.hpp</text>
</a>
</g>
</g>
<!-- Node2&#45;&gt;Node46 -->
<g id="edge54" class="edge">
<title>Node2&#45;&gt;Node46</title>
<path fill="none" stroke="midnightblue" d="M2509.48,-322.34C2562.01,-311.1 2629.95,-296.56 2672.26,-287.51"/>
<polygon fill="midnightblue" stroke="midnightblue" points="2508.58,-318.96 2499.53,-324.47 2510.04,-325.8 2508.58,-318.96"/>
</g>
<!-- Node48 -->
<g id="node48" class="node">
<title>Node48</title>
<g id="a_node48"><a xlink:href="ElemWhen_8hpp.html" target="_top" xlink:title=" ">
<polygon fill="none" stroke="black" points="3837,-268.5 3837,-287.5 3989,-287.5 3989,-268.5 3837,-268.5"/>
<text text-anchor="middle" x="3913" y="-275.5" font-family="Helvetica,sans-Serif" font-size="10.00">xalanc/XSLT/ElemWhen.hpp</text>
</a>
</g>
</g>
<!-- Node2&#45;&gt;Node48 -->
<g id="edge57" class="edge">
<title>Node2&#45;&gt;Node48</title>
<path fill="none" stroke="midnightblue" d="M2518.2,-337.48C2735.38,-334.41 3332.21,-323.19 3828,-288 3830.81,-287.8 3833.68,-287.58 3836.57,-287.35"/>
<polygon fill="midnightblue" stroke="midnightblue" points="2518.1,-333.98 2508.15,-337.62 2518.19,-340.98 2518.1,-333.98"/>
</g>
<!-- Node49 -->
<g id="node49" class="node">
<title>Node49</title>
<g id="a_node49"><a xlink:href="ElemWithParam_8hpp.html" target="_top" xlink:title=" ">
<polygon fill="none" stroke="black" points="4007.5,-268.5 4007.5,-287.5 4184.5,-287.5 4184.5,-268.5 4007.5,-268.5"/>
<text text-anchor="middle" x="4096" y="-275.5" font-family="Helvetica,sans-Serif" font-size="10.00">xalanc/XSLT/ElemWithParam.hpp</text>
</a>
</g>
</g>
<!-- Node2&#45;&gt;Node49 -->
<g id="edge58" class="edge">
<title>Node2&#45;&gt;Node49</title>
<path fill="none" stroke="midnightblue" d="M2518.32,-337.53C2753,-334.47 3433.59,-323 3998,-288 4001.07,-287.81 4004.19,-287.6 4007.34,-287.38"/>
<polygon fill="midnightblue" stroke="midnightblue" points="2518.11,-334.04 2508.16,-337.67 2518.2,-341.04 2518.11,-334.04"/>
</g>
<!-- Node5 -->
<g id="node5" class="node">
<title>Node5</title>
<g id="a_node5"><a xlink:href="XalanElemAttributeAllocator_8hpp.html" target="_top" xlink:title=" ">
<polygon fill="none" stroke="black" points="2737.5,-134.5 2737.5,-164.5 2910.5,-164.5 2910.5,-134.5 2737.5,-134.5"/>
<text text-anchor="start" x="2745.5" y="-152.5" font-family="Helvetica,sans-Serif" font-size="10.00">xalanc/XSLT/XalanElemAttribute</text>
<text text-anchor="middle" x="2824" y="-141.5" font-family="Helvetica,sans-Serif" font-size="10.00">Allocator.hpp</text>
</a>
</g>
</g>
<!-- Node4&#45;&gt;Node5 -->
<g id="edge4" class="edge">
<title>Node4&#45;&gt;Node5</title>
<path fill="none" stroke="midnightblue" d="M3128.28,-267.11C3049.57,-256.73 2936.81,-240.73 2918,-232 2883.52,-215.99 2852.02,-183.47 2835.7,-164.71"/>
<polygon fill="midnightblue" stroke="midnightblue" points="3128.3,-270.64 3138.67,-268.47 3129.21,-263.7 3128.3,-270.64"/>
</g>
<!-- Node6 -->
<g id="node6" class="node">
<title>Node6</title>
<g id="a_node6"><a xlink:href="StylesheetConstructionContextDefault_8hpp.html" target="_top" xlink:title=" ">
<polygon fill="none" stroke="black" points="2728.5,-67.5 2728.5,-97.5 2919.5,-97.5 2919.5,-67.5 2728.5,-67.5"/>
<text text-anchor="start" x="2736.5" y="-85.5" font-family="Helvetica,sans-Serif" font-size="10.00">xalanc/XSLT/StylesheetConstruction</text>
<text text-anchor="middle" x="2824" y="-74.5" font-family="Helvetica,sans-Serif" font-size="10.00">ContextDefault.hpp</text>
</a>
</g>
</g>
<!-- Node5&#45;&gt;Node6 -->
<g id="edge5" class="edge">
<title>Node5&#45;&gt;Node6</title>
<path fill="none" stroke="midnightblue" d="M2824,-124.11C2824,-115.15 2824,-105.32 2824,-97.58"/>
<polygon fill="midnightblue" stroke="midnightblue" points="2820.5,-124.4 2824,-134.4 2827.5,-124.4 2820.5,-124.4"/>
</g>
<!-- Node7 -->
<g id="node7" class="node">
<title>Node7</title>
<g id="a_node7"><a xlink:href="XalanCompiledStylesheetDefault_8hpp.html" target="_top" xlink:title=" ">
<polygon fill="none" stroke="black" points="4517.5,-0.5 4517.5,-30.5 4720.5,-30.5 4720.5,-0.5 4517.5,-0.5"/>
<text text-anchor="start" x="4525.5" y="-18.5" font-family="Helvetica,sans-Serif" font-size="10.00">xalanc/XalanTransformer</text>
<text text-anchor="middle" x="4619" y="-7.5" font-family="Helvetica,sans-Serif" font-size="10.00">/XalanCompiledStylesheetDefault.hpp</text>
</a>
</g>
</g>
<!-- Node6&#45;&gt;Node7 -->
<g id="edge6" class="edge">
<title>Node6&#45;&gt;Node7</title>
<path fill="none" stroke="midnightblue" d="M2929.75,-77.67C3249.47,-66.09 4203.3,-31.55 4517.43,-20.18"/>
<polygon fill="midnightblue" stroke="midnightblue" points="2929.42,-74.18 2919.56,-78.04 2929.68,-81.18 2929.42,-74.18"/>
</g>
<!-- Node9 -->
<g id="node9" class="node">
<title>Node9</title>
<g id="a_node9"><a xlink:href="ElemAttributeSet_8hpp.html" target="_top" xlink:title=" ">
<polygon fill="none" stroke="black" points="3302,-201.5 3302,-231.5 3448,-231.5 3448,-201.5 3302,-201.5"/>
<text text-anchor="start" x="3310" y="-219.5" font-family="Helvetica,sans-Serif" font-size="10.00">xalanc/XSLT/ElemAttribute</text>
<text text-anchor="middle" x="3375" y="-208.5" font-family="Helvetica,sans-Serif" font-size="10.00">Set.hpp</text>
</a>
</g>
</g>
<!-- Node8&#45;&gt;Node9 -->
<g id="edge8" class="edge">
<title>Node8&#45;&gt;Node9</title>
<path fill="none" stroke="midnightblue" d="M3377.74,-258.23C3377.16,-249.59 3376.48,-239.5 3375.94,-231.52"/>
<polygon fill="midnightblue" stroke="midnightblue" points="3374.26,-258.73 3378.43,-268.48 3381.25,-258.26 3374.26,-258.73"/>
</g>
<!-- Node11 -->
<g id="node11" class="node">
<title>Node11</title>
<g id="a_node11"><a xlink:href="ElemCopy_8hpp.html" target="_top" xlink:title=" ">
<polygon fill="none" stroke="black" points="2926.5,-207 2926.5,-226 3073.5,-226 3073.5,-207 2926.5,-207"/>
<text text-anchor="middle" x="3000" y="-214" font-family="Helvetica,sans-Serif" font-size="10.00">xalanc/XSLT/ElemCopy.hpp</text>
</a>
</g>
</g>
<!-- Node8&#45;&gt;Node11 -->
<g id="edge11" class="edge">
<title>Node8&#45;&gt;Node11</title>
<path fill="none" stroke="midnightblue" d="M3310.42,-267.01C3250.38,-258.16 3160.83,-244.71 3083,-232 3071.6,-230.14 3059.33,-228.04 3047.81,-226.04"/>
<polygon fill="midnightblue" stroke="midnightblue" points="3310.13,-270.51 3320.53,-268.5 3311.15,-263.58 3310.13,-270.51"/>
</g>
<!-- Node12 -->
<g id="node12" class="node">
<title>Node12</title>
<g id="a_node12"><a xlink:href="ElemElement_8hpp.html" target="_top" xlink:title=" ">
<polygon fill="none" stroke="black" points="3469,-207 3469,-226 3633,-226 3633,-207 3469,-207"/>
<text text-anchor="middle" x="3551" y="-214" font-family="Helvetica,sans-Serif" font-size="10.00">xalanc/XSLT/ElemElement.hpp</text>
</a>
</g>
</g>
<!-- Node8&#45;&gt;Node12 -->
<g id="edge12" class="edge">
<title>Node8&#45;&gt;Node12</title>
<path fill="none" stroke="midnightblue" d="M3413.45,-265.08C3446.88,-253.52 3496.79,-236.25 3526.4,-226.01"/>
<polygon fill="midnightblue" stroke="midnightblue" points="3411.95,-261.9 3403.64,-268.48 3414.24,-268.51 3411.95,-261.9"/>
</g>
<!-- Node14 -->
<g id="node14" class="node">
<title>Node14</title>
<g id="a_node14"><a xlink:href="ElemLiteralResult_8hpp.html" target="_top" xlink:title=" ">
<polygon fill="none" stroke="black" points="3091.5,-207 3091.5,-226 3276.5,-226 3276.5,-207 3091.5,-207"/>
<text text-anchor="middle" x="3184" y="-214" font-family="Helvetica,sans-Serif" font-size="10.00">xalanc/XSLT/ElemLiteralResult.hpp</text>
</a>
</g>
</g>
<!-- Node8&#45;&gt;Node14 -->
<g id="edge15" class="edge">
<title>Node8&#45;&gt;Node14</title>
<path fill="none" stroke="midnightblue" d="M3341.4,-265.53C3303.51,-253.96 3245.89,-236.38 3211.89,-226.01"/>
<polygon fill="midnightblue" stroke="midnightblue" points="3340.48,-268.9 3351.06,-268.48 3342.52,-262.21 3340.48,-268.9"/>
</g>
<!-- Node10 -->
<g id="node10" class="node">
<title>Node10</title>
<g id="a_node10"><a xlink:href="XalanElemAttributeSetAllocator_8hpp.html" target="_top" xlink:title=" ">
<polygon fill="none" stroke="black" points="3276.5,-134.5 3276.5,-164.5 3449.5,-164.5 3449.5,-134.5 3276.5,-134.5"/>
<text text-anchor="start" x="3284.5" y="-152.5" font-family="Helvetica,sans-Serif" font-size="10.00">xalanc/XSLT/XalanElemAttribute</text>
<text text-anchor="middle" x="3363" y="-141.5" font-family="Helvetica,sans-Serif" font-size="10.00">SetAllocator.hpp</text>
</a>
</g>
</g>
<!-- Node9&#45;&gt;Node10 -->
<g id="edge9" class="edge">
<title>Node9&#45;&gt;Node10</title>
<path fill="none" stroke="midnightblue" d="M3370.55,-191.4C3368.88,-182.37 3367.04,-172.41 3365.6,-164.58"/>
<polygon fill="midnightblue" stroke="midnightblue" points="3367.14,-192.2 3372.4,-201.4 3374.02,-190.93 3367.14,-192.2"/>
</g>
<!-- Node10&#45;&gt;Node6 -->
<g id="edge10" class="edge">
<title>Node10&#45;&gt;Node6</title>
<path fill="none" stroke="midnightblue" d="M3266.15,-133.78C3140.96,-117.25 3007.47,-102.57 2919.83,-93.33"/>
<polygon fill="midnightblue" stroke="midnightblue" points="3265.92,-137.28 3276.3,-135.13 3266.85,-130.34 3265.92,-137.28"/>
</g>
<!-- Node13 -->
<g id="node13" class="node">
<title>Node13</title>
<g id="a_node13"><a xlink:href="XalanElemElementAllocator_8hpp.html" target="_top" xlink:title=" ">
<polygon fill="none" stroke="black" points="3467.5,-134.5 3467.5,-164.5 3638.5,-164.5 3638.5,-134.5 3467.5,-134.5"/>
<text text-anchor="start" x="3475.5" y="-152.5" font-family="Helvetica,sans-Serif" font-size="10.00">xalanc/XSLT/XalanElemElement</text>
<text text-anchor="middle" x="3553" y="-141.5" font-family="Helvetica,sans-Serif" font-size="10.00">Allocator.hpp</text>
</a>
</g>
</g>
<!-- Node12&#45;&gt;Node13 -->
<g id="edge13" class="edge">
<title>Node12&#45;&gt;Node13</title>
<path fill="none" stroke="midnightblue" d="M3551.59,-196.41C3551.9,-186.22 3552.28,-173.9 3552.57,-164.59"/>
<polygon fill="midnightblue" stroke="midnightblue" points="3548.08,-196.63 3551.27,-206.73 3555.08,-196.85 3548.08,-196.63"/>
</g>
<!-- Node13&#45;&gt;Node6 -->
<g id="edge14" class="edge">
<title>Node13&#45;&gt;Node6</title>
<path fill="none" stroke="midnightblue" d="M3457.54,-133.88C3260.87,-111.23 3042.1,-96.32 2919.69,-88.91"/>
<polygon fill="midnightblue" stroke="midnightblue" points="3457.14,-137.36 3467.48,-135.03 3457.95,-130.4 3457.14,-137.36"/>
</g>
<!-- Node15 -->
<g id="node15" class="node">
<title>Node15</title>
<g id="a_node15"><a xlink:href="ElemExtensionCall_8hpp.html" target="_top" xlink:title=" ">
<polygon fill="none" stroke="black" points="2928.5,-134.5 2928.5,-164.5 3079.5,-164.5 3079.5,-134.5 2928.5,-134.5"/>
<text text-anchor="start" x="2936.5" y="-152.5" font-family="Helvetica,sans-Serif" font-size="10.00">xalanc/XSLT/ElemExtension</text>
<text text-anchor="middle" x="3004" y="-141.5" font-family="Helvetica,sans-Serif" font-size="10.00">Call.hpp</text>
</a>
</g>
</g>
<!-- Node14&#45;&gt;Node15 -->
<g id="edge16" class="edge">
<title>Node14&#45;&gt;Node15</title>
<path fill="none" stroke="midnightblue" d="M3150.34,-203.35C3119.83,-192.33 3074.87,-176.09 3042.85,-164.53"/>
<polygon fill="midnightblue" stroke="midnightblue" points="3149.5,-206.76 3160.1,-206.87 3151.88,-200.18 3149.5,-206.76"/>
</g>
<!-- Node16 -->
<g id="node16" class="node">
<title>Node16</title>
<g id="a_node16"><a xlink:href="XalanElemLiteralResultAllocator_8hpp.html" target="_top" xlink:title=" ">
<polygon fill="none" stroke="black" points="3097.5,-134.5 3097.5,-164.5 3258.5,-164.5 3258.5,-134.5 3097.5,-134.5"/>
<text text-anchor="start" x="3105.5" y="-152.5" font-family="Helvetica,sans-Serif" font-size="10.00">xalanc/XSLT/XalanElemLiteral</text>
<text text-anchor="middle" x="3178" y="-141.5" font-family="Helvetica,sans-Serif" font-size="10.00">ResultAllocator.hpp</text>
</a>
</g>
</g>
<!-- Node14&#45;&gt;Node16 -->
<g id="edge17" class="edge">
<title>Node14&#45;&gt;Node16</title>
<path fill="none" stroke="midnightblue" d="M3182.27,-196.74C3181.32,-186.49 3180.17,-174 3179.3,-164.59"/>
<polygon fill="midnightblue" stroke="midnightblue" points="3178.79,-197.1 3183.19,-206.73 3185.76,-196.45 3178.79,-197.1"/>
</g>
<!-- Node16&#45;&gt;Node6 -->
<g id="edge18" class="edge">
<title>Node16&#45;&gt;Node6</title>
<path fill="none" stroke="midnightblue" d="M3091.67,-132.65C3033.26,-121.92 2956.79,-107.88 2900.54,-97.55"/>
<polygon fill="midnightblue" stroke="midnightblue" points="3091.16,-136.11 3101.62,-134.48 3092.42,-129.23 3091.16,-136.11"/>
</g>
<!-- Node18 -->
<g id="node18" class="node">
<title>Node18</title>
<g id="a_node18"><a xlink:href="XalanElemCallTemplateAllocator_8hpp.html" target="_top" xlink:title=" ">
<polygon fill="none" stroke="black" points="3656.5,-134.5 3656.5,-164.5 3805.5,-164.5 3805.5,-134.5 3656.5,-134.5"/>
<text text-anchor="start" x="3664.5" y="-152.5" font-family="Helvetica,sans-Serif" font-size="10.00">xalanc/XSLT/XalanElemCall</text>
<text text-anchor="middle" x="3731" y="-141.5" font-family="Helvetica,sans-Serif" font-size="10.00">TemplateAllocator.hpp</text>
</a>
</g>
</g>
<!-- Node17&#45;&gt;Node18 -->
<g id="edge20" class="edge">
<title>Node17&#45;&gt;Node18</title>
<path fill="none" stroke="midnightblue" d="M3589.82,-263.65C3605.55,-255.36 3625.52,-244.01 3642,-232 3670.96,-210.9 3700.94,-181.63 3717.66,-164.51"/>
<polygon fill="midnightblue" stroke="midnightblue" points="3587.91,-260.7 3580.64,-268.4 3591.13,-266.92 3587.91,-260.7"/>
</g>
<!-- Node18&#45;&gt;Node6 -->
<g id="edge21" class="edge">
<title>Node18&#45;&gt;Node6</title>
<path fill="none" stroke="midnightblue" d="M3646.46,-133.9C3377.97,-102.82 3071.85,-90.48 2919.78,-85.9"/>
<polygon fill="midnightblue" stroke="midnightblue" points="3646.06,-137.38 3656.4,-135.06 3646.87,-130.43 3646.06,-137.38"/>
</g>
<!-- Node24 -->
<g id="node24" class="node">
<title>Node24</title>
<g id="a_node24"><a xlink:href="XalanElemEmptyAllocator_8hpp.html" target="_top" xlink:title=" ">
<polygon fill="none" stroke="black" points="4397,-201.5 4397,-231.5 4559,-231.5 4559,-201.5 4397,-201.5"/>
<text text-anchor="start" x="4405" y="-219.5" font-family="Helvetica,sans-Serif" font-size="10.00">xalanc/XSLT/XalanElemEmpty</text>
<text text-anchor="middle" x="4478" y="-208.5" font-family="Helvetica,sans-Serif" font-size="10.00">Allocator.hpp</text>
</a>
</g>
</g>
<!-- Node23&#45;&gt;Node24 -->
<g id="edge27" class="edge">
<title>Node23&#45;&gt;Node24</title>
<path fill="none" stroke="midnightblue" d="M4480.74,-258.23C4480.16,-249.59 4479.48,-239.5 4478.94,-231.52"/>
<polygon fill="midnightblue" stroke="midnightblue" points="4477.26,-258.73 4481.43,-268.48 4484.25,-258.26 4477.26,-258.73"/>
</g>
<!-- Node24&#45;&gt;Node25 -->
<g id="edge28" class="edge">
<title>Node24&#45;&gt;Node25</title>
<path fill="none" stroke="midnightblue" d="M4478,-191.25C4478,-180.02 4478,-167.38 4478,-159.19"/>
<polygon fill="midnightblue" stroke="midnightblue" points="4474.5,-191.4 4478,-201.4 4481.5,-191.4 4474.5,-191.4"/>
</g>
<!-- Node28 -->
<g id="node28" class="node">
<title>Node28</title>
<g id="a_node28"><a xlink:href="ElemApplyTemplates_8hpp.html" target="_top" xlink:title=" ">
<polygon fill="none" stroke="black" points="140,-207 140,-226 342,-226 342,-207 140,-207"/>
<text text-anchor="middle" x="241" y="-214" font-family="Helvetica,sans-Serif" font-size="10.00">xalanc/XSLT/ElemApplyTemplates.hpp</text>
</a>
</g>
</g>
<!-- Node27&#45;&gt;Node28 -->
<g id="edge31" class="edge">
<title>Node27&#45;&gt;Node28</title>
<path fill="none" stroke="midnightblue" d="M113.45,-264.93C144.55,-253.37 190.69,-236.21 218.12,-226.01"/>
<polygon fill="midnightblue" stroke="midnightblue" points="112.08,-261.71 103.92,-268.48 114.52,-268.27 112.08,-261.71"/>
</g>
<!-- Node29 -->
<g id="node29" class="node">
<title>Node29</title>
<g id="a_node29"><a xlink:href="XalanElemApplyTemplatesAllocator_8hpp.html" target="_top" xlink:title=" ">
<polygon fill="none" stroke="black" points="282,-134.5 282,-164.5 440,-164.5 440,-134.5 282,-134.5"/>
<text text-anchor="start" x="290" y="-152.5" font-family="Helvetica,sans-Serif" font-size="10.00">xalanc/XSLT/XalanElemApply</text>
<text text-anchor="middle" x="361" y="-141.5" font-family="Helvetica,sans-Serif" font-size="10.00">TemplatesAllocator.hpp</text>
</a>
</g>
</g>
<!-- Node28&#45;&gt;Node29 -->
<g id="edge32" class="edge">
<title>Node28&#45;&gt;Node29</title>
<path fill="none" stroke="midnightblue" d="M266.1,-201.9C286.29,-190.97 314.56,-175.65 334.99,-164.59"/>
<polygon fill="midnightblue" stroke="midnightblue" points="264.31,-198.89 257.18,-206.73 267.64,-205.05 264.31,-198.89"/>
</g>
<!-- Node29&#45;&gt;Node6 -->
<g id="edge33" class="edge">
<title>Node29&#45;&gt;Node6</title>
<path fill="none" stroke="midnightblue" d="M450.35,-146.14C833.19,-136.04 2333.55,-96.44 2728.37,-86.02"/>
<polygon fill="midnightblue" stroke="midnightblue" points="450.06,-142.65 440.16,-146.41 450.25,-149.65 450.06,-142.65"/>
</g>
<!-- Node36 -->
<g id="node36" class="node">
<title>Node36</title>
<g id="a_node36"><a xlink:href="ElemParam_8hpp.html" target="_top" xlink:title=" ">
<polygon fill="none" stroke="black" points="1616.5,-207 1616.5,-226 1771.5,-226 1771.5,-207 1616.5,-207"/>
<text text-anchor="middle" x="1694" y="-214" font-family="Helvetica,sans-Serif" font-size="10.00">xalanc/XSLT/ElemParam.hpp</text>
</a>
</g>
</g>
<!-- Node35&#45;&gt;Node36 -->
<g id="edge40" class="edge">
<title>Node35&#45;&gt;Node36</title>
<path fill="none" stroke="midnightblue" d="M1611.95,-263.56C1632.46,-252.04 1661.38,-235.81 1678.84,-226.01"/>
<polygon fill="midnightblue" stroke="midnightblue" points="1610.19,-260.53 1603.19,-268.48 1613.62,-266.63 1610.19,-260.53"/>
</g>
<!-- Node37 -->
<g id="node37" class="node">
<title>Node37</title>
<g id="a_node37"><a xlink:href="XalanElemVariableAllocator_8hpp.html" target="_top" xlink:title=" ">
<polygon fill="none" stroke="black" points="2390,-134.5 2390,-164.5 2560,-164.5 2560,-134.5 2390,-134.5"/>
<text text-anchor="start" x="2398" y="-152.5" font-family="Helvetica,sans-Serif" font-size="10.00">xalanc/XSLT/XalanElemVariable</text>
<text text-anchor="middle" x="2475" y="-141.5" font-family="Helvetica,sans-Serif" font-size="10.00">Allocator.hpp</text>
</a>
</g>
</g>
<!-- Node35&#45;&gt;Node37 -->
<g id="edge41" class="edge">
<title>Node35&#45;&gt;Node37</title>
<path fill="none" stroke="midnightblue" d="M1586.95,-258.23C1587.08,-240.53 1590.43,-214.73 1607,-201 1621.96,-188.61 2174.22,-163.49 2389.92,-154.12"/>
<polygon fill="midnightblue" stroke="midnightblue" points="1583.45,-258.34 1587.2,-268.25 1590.45,-258.16 1583.45,-258.34"/>
</g>
<!-- Node37&#45;&gt;Node6 -->
<g id="edge42" class="edge">
<title>Node37&#45;&gt;Node6</title>
<path fill="none" stroke="midnightblue" d="M2560.46,-132.58C2618.01,-121.86 2693.2,-107.86 2748.54,-97.55"/>
<polygon fill="midnightblue" stroke="midnightblue" points="2559.49,-129.2 2550.3,-134.48 2560.77,-136.09 2559.49,-129.2"/>
</g>
<!-- Node41 -->
<g id="node41" class="node">
<title>Node41</title>
<g id="a_node41"><a xlink:href="XalanElemTemplateAllocator_8hpp.html" target="_top" xlink:title=" ">
<polygon fill="none" stroke="black" points="1429,-134.5 1429,-164.5 1605,-164.5 1605,-134.5 1429,-134.5"/>
<text text-anchor="start" x="1437" y="-152.5" font-family="Helvetica,sans-Serif" font-size="10.00">xalanc/XSLT/XalanElemTemplate</text>
<text text-anchor="middle" x="1517" y="-141.5" font-family="Helvetica,sans-Serif" font-size="10.00">Allocator.hpp</text>
</a>
</g>
</g>
<!-- Node40&#45;&gt;Node41 -->
<g id="edge46" class="edge">
<title>Node40&#45;&gt;Node41</title>
<path fill="none" stroke="midnightblue" d="M359.81,-267.42C594.7,-243.69 1201.06,-182.42 1428.8,-159.41"/>
<polygon fill="midnightblue" stroke="midnightblue" points="359.18,-263.97 349.58,-268.45 359.88,-270.93 359.18,-263.97"/>
</g>
<!-- Node41&#45;&gt;Node6 -->
<g id="edge47" class="edge">
<title>Node41&#45;&gt;Node6</title>
<path fill="none" stroke="midnightblue" d="M1615.29,-143.61C1858.79,-131.5 2487.65,-100.23 2728.35,-88.26"/>
<polygon fill="midnightblue" stroke="midnightblue" points="1614.85,-140.13 1605.04,-144.12 1615.2,-147.12 1614.85,-140.13"/>
</g>
<!-- Node43 -->
<g id="node43" class="node">
<title>Node43</title>
<g id="a_node43"><a xlink:href="XalanElemTextAllocator_8hpp.html" target="_top" xlink:title=" ">
<polygon fill="none" stroke="black" points="3977.5,-201.5 3977.5,-231.5 4128.5,-231.5 4128.5,-201.5 3977.5,-201.5"/>
<text text-anchor="start" x="3985.5" y="-219.5" font-family="Helvetica,sans-Serif" font-size="10.00">xalanc/XSLT/XalanElemText</text>
<text text-anchor="middle" x="4053" y="-208.5" font-family="Helvetica,sans-Serif" font-size="10.00">Allocator.hpp</text>
</a>
</g>
</g>
<!-- Node42&#45;&gt;Node43 -->
<g id="edge49" class="edge">
<title>Node42&#45;&gt;Node43</title>
<path fill="none" stroke="midnightblue" d="M3800.81,-266.54C3850.83,-256.81 3925.7,-242.25 3980.88,-231.52"/>
<polygon fill="midnightblue" stroke="midnightblue" points="3799.99,-263.13 3790.84,-268.48 3801.33,-270 3799.99,-263.13"/>
</g>
<!-- Node43&#45;&gt;Node25 -->
<g id="edge50" class="edge">
<title>Node43&#45;&gt;Node25</title>
<path fill="none" stroke="midnightblue" d="M4139.08,-202.33C4223.64,-189.4 4350.17,-170.05 4422.31,-159.02"/>
<polygon fill="midnightblue" stroke="midnightblue" points="4138.34,-198.91 4128.98,-203.88 4139.4,-205.83 4138.34,-198.91"/>
</g>
<!-- Node45 -->
<g id="node45" class="node">
<title>Node45</title>
<g id="a_node45"><a xlink:href="XalanElemTextLiteralAllocator_8hpp.html" target="_top" xlink:title=" ">
<polygon fill="none" stroke="black" points="1275.5,-201.5 1275.5,-231.5 1426.5,-231.5 1426.5,-201.5 1275.5,-201.5"/>
<text text-anchor="start" x="1283.5" y="-219.5" font-family="Helvetica,sans-Serif" font-size="10.00">xalanc/XSLT/XalanElemText</text>
<text text-anchor="middle" x="1351" y="-208.5" font-family="Helvetica,sans-Serif" font-size="10.00">LiteralAllocator.hpp</text>
</a>
</g>
</g>
<!-- Node44&#45;&gt;Node45 -->
<g id="edge52" class="edge">
<title>Node44&#45;&gt;Node45</title>
<path fill="none" stroke="midnightblue" d="M1246.32,-264.33C1267.84,-254.7 1297.42,-241.47 1319.65,-231.52"/>
<polygon fill="midnightblue" stroke="midnightblue" points="1244.75,-261.2 1237.06,-268.48 1247.61,-267.59 1244.75,-261.2"/>
</g>
<!-- Node45&#45;&gt;Node6 -->
<g id="edge53" class="edge">
<title>Node45&#45;&gt;Node6</title>
<path fill="none" stroke="midnightblue" d="M1436.61,-207.83C1693.78,-184.78 2458.3,-116.27 2728.28,-92.08"/>
<polygon fill="midnightblue" stroke="midnightblue" points="1436.23,-204.35 1426.58,-208.73 1436.85,-211.32 1436.23,-204.35"/>
</g>
<!-- Node47 -->
<g id="node47" class="node">
<title>Node47</title>
<g id="a_node47"><a xlink:href="XalanElemValueOfAllocator_8hpp.html" target="_top" xlink:title=" ">
<polygon fill="none" stroke="black" points="2631,-201.5 2631,-231.5 2789,-231.5 2789,-201.5 2631,-201.5"/>
<text text-anchor="start" x="2639" y="-219.5" font-family="Helvetica,sans-Serif" font-size="10.00">xalanc/XSLT/XalanElemValue</text>
<text text-anchor="middle" x="2710" y="-208.5" font-family="Helvetica,sans-Serif" font-size="10.00">OfAllocator.hpp</text>
</a>
</g>
</g>
<!-- Node46&#45;&gt;Node47 -->
<g id="edge55" class="edge">
<title>Node46&#45;&gt;Node47</title>
<path fill="none" stroke="midnightblue" d="M2711.37,-258.23C2711.08,-249.59 2710.74,-239.5 2710.47,-231.52"/>
<polygon fill="midnightblue" stroke="midnightblue" points="2707.88,-258.6 2711.71,-268.48 2714.88,-258.36 2707.88,-258.6"/>
</g>
<!-- Node47&#45;&gt;Node6 -->
<g id="edge56" class="edge">
<title>Node47&#45;&gt;Node6</title>
<path fill="none" stroke="midnightblue" d="M2710.45,-191.3C2711.92,-173.78 2716.38,-150.4 2729,-134 2741.87,-117.27 2761.89,-105.47 2780.23,-97.51"/>
<polygon fill="midnightblue" stroke="midnightblue" points="2706.95,-191.15 2709.87,-201.33 2713.94,-191.55 2706.95,-191.15"/>
</g>
<!-- Node50&#45;&gt;Node25 -->
<g id="edge65" class="edge">
<title>Node50&#45;&gt;Node25</title>
<path fill="none" stroke="midnightblue" d="M4653.08,-203.93C4610.91,-191.06 4543.77,-170.57 4506.06,-159.06"/>
<polygon fill="midnightblue" stroke="midnightblue" points="4652.13,-207.3 4662.72,-206.87 4654.17,-200.6 4652.13,-207.3"/>
</g>
<!-- Node51 -->
<g id="node51" class="node">
<title>Node51</title>
<g id="a_node51"><a xlink:href="StylesheetExecutionContextDefault_8hpp.html" target="_top" xlink:title=" ">
<polygon fill="none" stroke="black" points="4590.5,-134.5 4590.5,-164.5 4767.5,-164.5 4767.5,-134.5 4590.5,-134.5"/>
<text text-anchor="start" x="4598.5" y="-152.5" font-family="Helvetica,sans-Serif" font-size="10.00">xalanc/XSLT/StylesheetExecution</text>
<text text-anchor="middle" x="4679" y="-141.5" font-family="Helvetica,sans-Serif" font-size="10.00">ContextDefault.hpp</text>
</a>
</g>
</g>
<!-- Node50&#45;&gt;Node51 -->
<g id="edge60" class="edge">
<title>Node50&#45;&gt;Node51</title>
<path fill="none" stroke="midnightblue" d="M4687.54,-196.74C4685.64,-186.49 4683.34,-174 4681.6,-164.59"/>
<polygon fill="midnightblue" stroke="midnightblue" points="4684.12,-197.54 4689.38,-206.73 4691.01,-196.26 4684.12,-197.54"/>
</g>
<!-- Node55 -->
<g id="node55" class="node">
<title>Node55</title>
<g id="a_node55"><a xlink:href="StylesheetRoot_8hpp.html" target="_top" xlink:title=" ">
<polygon fill="none" stroke="black" points="4848.5,-73 4848.5,-92 5021.5,-92 5021.5,-73 4848.5,-73"/>
<text text-anchor="middle" x="4935" y="-80" font-family="Helvetica,sans-Serif" font-size="10.00">xalanc/XSLT/StylesheetRoot.hpp</text>
</a>
</g>
</g>
<!-- Node50&#45;&gt;Node55 -->
<g id="edge66" class="edge">
<title>Node50&#45;&gt;Node55</title>
<path fill="none" stroke="midnightblue" d="M4715.9,-202.03C4766.04,-174.9 4877.91,-114.39 4919.25,-92.02"/>
<polygon fill="midnightblue" stroke="midnightblue" points="4714.14,-199 4707.01,-206.84 4717.47,-205.16 4714.14,-199"/>
</g>
<!-- Node51&#45;&gt;Node7 -->
<g id="edge64" class="edge">
<title>Node51&#45;&gt;Node7</title>
<path fill="none" stroke="midnightblue" d="M4658.12,-126.41C4651.17,-118.05 4643.94,-108.1 4639,-98 4628.17,-75.89 4622.93,-47.45 4620.61,-30.68"/>
<polygon fill="midnightblue" stroke="midnightblue" points="4655.69,-128.95 4664.9,-134.2 4660.97,-124.35 4655.69,-128.95"/>
</g>
<!-- Node52 -->
<g id="node52" class="node">
<title>Node52</title>
<g id="a_node52"><a xlink:href="ICUBridgeCollationCompareFunctorImpl_8hpp.html" target="_top" xlink:title=" ">
<polygon fill="none" stroke="black" points="4647.5,-67.5 4647.5,-97.5 4830.5,-97.5 4830.5,-67.5 4647.5,-67.5"/>
<text text-anchor="start" x="4655.5" y="-85.5" font-family="Helvetica,sans-Serif" font-size="10.00">xalanc/ICUBridge/ICUBridge</text>
<text text-anchor="middle" x="4739" y="-74.5" font-family="Helvetica,sans-Serif" font-size="10.00">CollationCompareFunctorImpl.hpp</text>
</a>
</g>
</g>
<!-- Node51&#45;&gt;Node52 -->
<g id="edge61" class="edge">
<title>Node51&#45;&gt;Node52</title>
<path fill="none" stroke="midnightblue" d="M4698.82,-127.02C4707.76,-117.34 4718.07,-106.17 4726.01,-97.58"/>
<polygon fill="midnightblue" stroke="midnightblue" points="4696.23,-124.67 4692.02,-134.4 4701.37,-129.42 4696.23,-124.67"/>
</g>
<!-- Node53 -->
<g id="node53" class="node">
<title>Node53</title>
<g id="a_node53"><a xlink:href="ICUFormatNumberFunctor_8hpp.html" target="_top" xlink:title=" ">
<polygon fill="none" stroke="black" points="4269.5,-67.5 4269.5,-97.5 4424.5,-97.5 4424.5,-67.5 4269.5,-67.5"/>
<text text-anchor="start" x="4277.5" y="-85.5" font-family="Helvetica,sans-Serif" font-size="10.00">xalanc/ICUBridge/ICUFormat</text>
<text text-anchor="middle" x="4347" y="-74.5" font-family="Helvetica,sans-Serif" font-size="10.00">NumberFunctor.hpp</text>
</a>
</g>
</g>
<!-- Node51&#45;&gt;Node53 -->
<g id="edge62" class="edge">
<title>Node51&#45;&gt;Node53</title>
<path fill="none" stroke="midnightblue" d="M4597.36,-132.52C4542.66,-121.81 4471.32,-107.84 4418.79,-97.55"/>
<polygon fill="midnightblue" stroke="midnightblue" points="4596.88,-135.99 4607.37,-134.48 4598.23,-129.12 4596.88,-135.99"/>
</g>
<!-- Node54 -->
<g id="node54" class="node">
<title>Node54</title>
<g id="a_node54"><a xlink:href="ICUXalanNumberFormatFactory_8hpp.html" target="_top" xlink:title=" ">
<polygon fill="none" stroke="black" points="4442.5,-67.5 4442.5,-97.5 4591.5,-97.5 4591.5,-67.5 4442.5,-67.5"/>
<text text-anchor="start" x="4450.5" y="-85.5" font-family="Helvetica,sans-Serif" font-size="10.00">xalanc/ICUBridge/ICUXalan</text>
<text text-anchor="middle" x="4517" y="-74.5" font-family="Helvetica,sans-Serif" font-size="10.00">NumberFormatFactory.hpp</text>
</a>
</g>
</g>
<!-- Node51&#45;&gt;Node54 -->
<g id="edge63" class="edge">
<title>Node51&#45;&gt;Node54</title>
<path fill="none" stroke="midnightblue" d="M4634.25,-130.54C4608.33,-120.14 4576.16,-107.24 4552.08,-97.58"/>
<polygon fill="midnightblue" stroke="midnightblue" points="4633.26,-133.92 4643.85,-134.4 4635.87,-127.42 4633.26,-133.92"/>
</g>
<!-- Node55&#45;&gt;Node7 -->
<g id="edge67" class="edge">
<title>Node55&#45;&gt;Node7</title>
<path fill="none" stroke="midnightblue" d="M4883.43,-70.89C4830.01,-59.9 4746.25,-42.68 4687.35,-30.56"/>
<polygon fill="midnightblue" stroke="midnightblue" points="4882.86,-74.35 4893.36,-72.94 4884.27,-67.49 4882.86,-74.35"/>
</g>
</g>
</svg>
