<?xml version="1.0" encoding="UTF-8" standalone="no"?>
<!DOCTYPE svg PUBLIC "-//W3C//DTD SVG 1.1//EN"
 "http://www.w3.org/Graphics/SVG/1.1/DTD/svg11.dtd">
<!-- Generated by graphviz version 2.38.0 (20140413.2041)
 -->
<!-- Title: xalanc/XSLT/NodeSortKey.hpp Pages: 1 -->
<!--zoomable 531 -->
<svg id="main" version="1.1" xmlns="http://www.w3.org/2000/svg" xmlns:xlink="http://www.w3.org/1999/xlink" xml:space="preserve" onload="init(evt)">
<style type="text/css"><![CDATA[
.edge:hover path { stroke: red; }
.edge:hover polygon { stroke: red; fill: red; }
]]></style>
<script type="text/javascript"><![CDATA[
var edges = document.getElementsByTagName('g');
if (edges && edges.length) {
  for (var i=0;i<edges.length;i++) {
    if (edges[i].id.substr(0,4)=='edge') {
      edges[i].setAttribute('class','edge');
    }
  }
}
]]></script>
        <defs>
                <circle id="rim" cx="0" cy="0" r="7"/>
                <circle id="rim2" cx="0" cy="0" r="3.5"/>
                <g id="zoomPlus">
                        <use xlink:href="#rim" fill="#404040">
                                <set attributeName="fill" to="#808080" begin="zoomplus.mouseover" end="zoomplus.mouseout"/>
                        </use>
                        <path d="M-4,0h8M0,-4v8" fill="none" stroke="white" stroke-width="1.5" pointer-events="none"/>
                </g>
                <g id="zoomMin">
                        <use xlink:href="#rim" fill="#404040">
                                <set attributeName="fill" to="#808080" begin="zoomminus.mouseover" end="zoomminus.mouseout"/>
                        </use>
                        <path d="M-4,0h8" fill="none" stroke="white" stroke-width="1.5" pointer-events="none"/>
                </g>
                <g id="dirArrow">
                        <path fill="none" stroke="white" stroke-width="1.5" d="M0,-3.0v7 M-2.5,-0.5L0,-3.0L2.5,-0.5"/>
                </g>
               <g id="resetDef">
                       <use xlink:href="#rim2" fill="#404040">
                               <set attributeName="fill" to="#808080" begin="reset.mouseover" end="reset.mouseout"/>
                       </use>
               </g>
        </defs>

<script type="text/javascript">
var viewWidth = 1182;
var viewHeight = 531;
var sectionId = 'dynsection-0';
</script>
<script xlink:href="svgpan.js"/>
<svg id="graph" class="graph">
<g id="viewport">
<title>xalanc/XSLT/NodeSortKey.hpp</title>
<!-- Node1 -->
<g id="node1" class="node"><title>Node1</title>
<g id="a_node1"><a xlink:title=" ">
<polygon fill="#bfbfbf" stroke="black" points="884,-503.5 884,-522.5 1034,-522.5 1034,-503.5 884,-503.5"/>
<text text-anchor="middle" x="959" y="-510.5" font-family="Helvetica,sans-Serif" font-size="10.00">xalanc/XSLT/NodeSortKey.hpp</text>
</a>
</g>
</g>
<!-- Node2 -->
<g id="node2" class="node"><title>Node2</title>
<g id="a_node2"><a xlink:href="XSLTDefinitions_8hpp.html" target="_top" xlink:title=" ">
<polygon fill="none" stroke="black" points="1070.5,-442 1070.5,-461 1173.5,-461 1173.5,-442 1070.5,-442"/>
<text text-anchor="middle" x="1122" y="-449" font-family="Helvetica,sans-Serif" font-size="10.00">XSLTDefinitions.hpp</text>
</a>
</g>
</g>
<!-- Node1&#45;&gt;Node2 -->
<g id="edge1" class="edge"><title>Node1&#45;&gt;Node2</title>
<path fill="none" stroke="midnightblue" d="M982.354,-503.475C1010.31,-493.269 1057.33,-476.108 1088.99,-464.549"/>
<polygon fill="midnightblue" stroke="midnightblue" points="1090.5,-467.726 1098.69,-461.009 1088.1,-461.15 1090.5,-467.726"/>
</g>
<!-- Node7 -->
<g id="node7" class="node"><title>Node7</title>
<g id="a_node7"><a xlink:href="XalanDOMString_8hpp.html" target="_top" xlink:title=" ">
<polygon fill="none" stroke="black" points="680.5,-375 680.5,-394 867.5,-394 867.5,-375 680.5,-375"/>
<text text-anchor="middle" x="774" y="-382" font-family="Helvetica,sans-Serif" font-size="10.00">xalanc/XalanDOM/XalanDOMString.hpp</text>
</a>
</g>
</g>
<!-- Node1&#45;&gt;Node7 -->
<g id="edge6" class="edge"><title>Node1&#45;&gt;Node7</title>
<path fill="none" stroke="midnightblue" d="M943.038,-503.393C927.23,-494.703 902.489,-480.649 882,-467 849.355,-445.252 813.344,-417.198 792.249,-400.319"/>
<polygon fill="midnightblue" stroke="midnightblue" points="794.413,-397.567 784.428,-394.024 790.024,-403.02 794.413,-397.567"/>
</g>
<!-- Node24 -->
<g id="node24" class="node"><title>Node24</title>
<g id="a_node24"><a xlink:href="XalanCollationServices_8hpp.html" target="_top" xlink:title=" ">
<polygon fill="none" stroke="black" points="891,-436.5 891,-466.5 1027,-466.5 1027,-436.5 891,-436.5"/>
<text text-anchor="start" x="899" y="-454.5" font-family="Helvetica,sans-Serif" font-size="10.00">xalanc/PlatformSupport</text>
<text text-anchor="middle" x="959" y="-443.5" font-family="Helvetica,sans-Serif" font-size="10.00">/XalanCollationServices.hpp</text>
</a>
</g>
</g>
<!-- Node1&#45;&gt;Node24 -->
<g id="edge47" class="edge"><title>Node1&#45;&gt;Node24</title>
<path fill="none" stroke="midnightblue" d="M959,-503.475C959,-496.471 959,-486.192 959,-476.696"/>
<polygon fill="midnightblue" stroke="midnightblue" points="962.5,-476.523 959,-466.523 955.5,-476.523 962.5,-476.523"/>
</g>
<!-- Node3 -->
<g id="node3" class="node"><title>Node3</title>
<g id="a_node3"><a xlink:href="PlatformDefinitions_8hpp.html" target="_top" xlink:title=" ">
<polygon fill="none" stroke="black" points="748,-73 748,-92 930,-92 930,-73 748,-73"/>
<text text-anchor="middle" x="839" y="-80" font-family="Helvetica,sans-Serif" font-size="10.00">xalanc/Include/PlatformDefinitions.hpp</text>
</a>
</g>
</g>
<!-- Node2&#45;&gt;Node3 -->
<g id="edge2" class="edge"><title>Node2&#45;&gt;Node3</title>
<path fill="none" stroke="midnightblue" d="M1125.08,-441.732C1131.97,-421.348 1148,-369.066 1148,-324 1148,-324 1148,-324 1148,-210 1148,-169.568 1131.58,-156.519 1098,-134 1070.42,-115.502 990.995,-101.758 927.304,-93.3169"/>
<polygon fill="midnightblue" stroke="midnightblue" points="927.595,-89.8254 917.227,-92.0078 926.693,-96.7671 927.595,-89.8254"/>
</g>
<!-- Node4 -->
<g id="node4" class="node"><title>Node4</title>
<g id="a_node4"><a xlink:title=" ">
<polygon fill="none" stroke="#bfbfbf" points="637,-0.5 637,-30.5 745,-30.5 745,-0.5 637,-0.5"/>
<text text-anchor="start" x="645" y="-18.5" font-family="Helvetica,sans-Serif" font-size="10.00">xercesc/util/Xerces</text>
<text text-anchor="middle" x="691" y="-7.5" font-family="Helvetica,sans-Serif" font-size="10.00">_autoconf_config.hpp</text>
</a>
</g>
</g>
<!-- Node3&#45;&gt;Node4 -->
<g id="edge3" class="edge"><title>Node3&#45;&gt;Node4</title>
<path fill="none" stroke="midnightblue" d="M819.347,-72.8685C797.235,-63.1572 760.695,-47.1092 732.246,-34.6148"/>
<polygon fill="midnightblue" stroke="midnightblue" points="733.504,-31.3447 722.941,-30.5281 730.689,-37.7539 733.504,-31.3447"/>
</g>
<!-- Node5 -->
<g id="node5" class="node"><title>Node5</title>
<g id="a_node5"><a xlink:title=" ">
<polygon fill="none" stroke="#bfbfbf" points="763.5,-6 763.5,-25 914.5,-25 914.5,-6 763.5,-6"/>
<text text-anchor="middle" x="839" y="-13" font-family="Helvetica,sans-Serif" font-size="10.00">xercesc/util/XercesVersion.hpp</text>
</a>
</g>
</g>
<!-- Node3&#45;&gt;Node5 -->
<g id="edge4" class="edge"><title>Node3&#45;&gt;Node5</title>
<path fill="none" stroke="midnightblue" d="M839,-72.7338C839,-63.1826 839,-47.6183 839,-35.2829"/>
<polygon fill="midnightblue" stroke="midnightblue" points="842.5,-35.1273 839,-25.1273 835.5,-35.1273 842.5,-35.1273"/>
</g>
<!-- Node6 -->
<g id="node6" class="node"><title>Node6</title>
<g id="a_node6"><a xlink:href="XalanVersion_8hpp.html" target="_top" xlink:title=" ">
<polygon fill="none" stroke="black" points="933,-6 933,-25 1025,-25 1025,-6 933,-6"/>
<text text-anchor="middle" x="979" y="-13" font-family="Helvetica,sans-Serif" font-size="10.00">XalanVersion.hpp</text>
</a>
</g>
</g>
<!-- Node3&#45;&gt;Node6 -->
<g id="edge5" class="edge"><title>Node3&#45;&gt;Node6</title>
<path fill="none" stroke="midnightblue" d="M857.591,-72.8685C881.544,-61.7476 923.395,-42.3167 951.154,-29.4286"/>
<polygon fill="midnightblue" stroke="midnightblue" points="952.736,-32.5529 960.332,-25.1672 949.788,-26.2038 952.736,-32.5529"/>
</g>
<!-- Node8 -->
<g id="node8" class="node"><title>Node8</title>
<g id="a_node8"><a xlink:href="XalanDOMDefinitions_8hpp.html" target="_top" xlink:title=" ">
<polygon fill="none" stroke="black" points="876,-257.5 876,-276.5 1082,-276.5 1082,-257.5 876,-257.5"/>
<text text-anchor="middle" x="979" y="-264.5" font-family="Helvetica,sans-Serif" font-size="10.00">xalanc/XalanDOM/XalanDOMDefinitions.hpp</text>
</a>
</g>
</g>
<!-- Node7&#45;&gt;Node8 -->
<g id="edge7" class="edge"><title>Node7&#45;&gt;Node8</title>
<path fill="none" stroke="midnightblue" d="M783.442,-374.965C799.605,-360.683 834.033,-331.672 867,-313 890.984,-299.416 919.889,-287.911 942.327,-279.935"/>
<polygon fill="midnightblue" stroke="midnightblue" points="943.532,-283.222 951.827,-276.631 941.232,-276.61 943.532,-283.222"/>
</g>
<!-- Node9 -->
<g id="node9" class="node"><title>Node9</title>
<g id="a_node9"><a xlink:title=" ">
<polygon fill="none" stroke="#bfbfbf" points="51.5,-73 51.5,-92 100.5,-92 100.5,-73 51.5,-73"/>
<text text-anchor="middle" x="76" y="-80" font-family="Helvetica,sans-Serif" font-size="10.00">cassert</text>
</a>
</g>
</g>
<!-- Node7&#45;&gt;Node9 -->
<g id="edge9" class="edge"><title>Node7&#45;&gt;Node9</title>
<path fill="none" stroke="midnightblue" d="M680.252,-379.15C474.185,-368.337 0,-336.059 0,-268 0,-268 0,-268 0,-210 0,-164.622 36.3794,-121.482 58.7989,-99.205"/>
<polygon fill="midnightblue" stroke="midnightblue" points="61.2772,-101.678 66.0643,-92.2259 56.4279,-96.6293 61.2772,-101.678"/>
</g>
<!-- Node10 -->
<g id="node10" class="node"><title>Node10</title>
<g id="a_node10"><a xlink:href="STLHelper_8hpp.html" target="_top" xlink:title=" ">
<polygon fill="none" stroke="black" points="674,-313.5 674,-332.5 820,-332.5 820,-313.5 674,-313.5"/>
<text text-anchor="middle" x="747" y="-320.5" font-family="Helvetica,sans-Serif" font-size="10.00">xalanc/Include/STLHelper.hpp</text>
</a>
</g>
</g>
<!-- Node7&#45;&gt;Node10 -->
<g id="edge10" class="edge"><title>Node7&#45;&gt;Node10</title>
<path fill="none" stroke="midnightblue" d="M770.132,-374.975C766.202,-366.315 760,-352.649 755.007,-341.645"/>
<polygon fill="midnightblue" stroke="midnightblue" points="758.181,-340.169 750.861,-332.509 751.806,-343.062 758.181,-340.169"/>
</g>
<!-- Node16 -->
<g id="node16" class="node"><title>Node16</title>
<g id="a_node16"><a xlink:href="XalanVector_8hpp.html" target="_top" xlink:title=" ">
<polygon fill="none" stroke="black" points="272,-201.5 272,-220.5 424,-220.5 424,-201.5 272,-201.5"/>
<text text-anchor="middle" x="348" y="-208.5" font-family="Helvetica,sans-Serif" font-size="10.00">xalanc/Include/XalanVector.hpp</text>
</a>
</g>
</g>
<!-- Node7&#45;&gt;Node16 -->
<g id="edge44" class="edge"><title>Node7&#45;&gt;Node16</title>
<path fill="none" stroke="midnightblue" d="M752.875,-374.995C683.251,-346.966 460.797,-257.41 378.763,-224.385"/>
<polygon fill="midnightblue" stroke="midnightblue" points="379.837,-221.044 369.253,-220.556 377.222,-227.537 379.837,-221.044"/>
</g>
<!-- Node20 -->
<g id="node20" class="node"><title>Node20</title>
<g id="a_node20"><a xlink:href="XalanMemoryManagement_8hpp.html" target="_top" xlink:title=" ">
<polygon fill="none" stroke="black" points="142,-134.5 142,-164.5 282,-164.5 282,-134.5 142,-134.5"/>
<text text-anchor="start" x="150" y="-152.5" font-family="Helvetica,sans-Serif" font-size="10.00">xalanc/Include/XalanMemory</text>
<text text-anchor="middle" x="212" y="-141.5" font-family="Helvetica,sans-Serif" font-size="10.00">Management.hpp</text>
</a>
</g>
</g>
<!-- Node7&#45;&gt;Node20 -->
<g id="edge43" class="edge"><title>Node7&#45;&gt;Node20</title>
<path fill="none" stroke="midnightblue" d="M700.071,-374.999C594.297,-359.728 397.7,-319.496 263,-221 246.136,-208.669 232.609,-189.086 223.735,-173.685"/>
<polygon fill="midnightblue" stroke="midnightblue" points="226.703,-171.82 218.822,-164.739 220.567,-175.189 226.703,-171.82"/>
</g>
<!-- Node23 -->
<g id="node23" class="node"><title>Node23</title>
<g id="a_node23"><a xlink:href="XalanDOMException_8hpp.html" target="_top" xlink:title=" ">
<polygon fill="none" stroke="black" points="876.5,-313.5 876.5,-332.5 1081.5,-332.5 1081.5,-313.5 876.5,-313.5"/>
<text text-anchor="middle" x="979" y="-320.5" font-family="Helvetica,sans-Serif" font-size="10.00">xalanc/XalanDOM/XalanDOMException.hpp</text>
</a>
</g>
</g>
<!-- Node7&#45;&gt;Node23 -->
<g id="edge45" class="edge"><title>Node7&#45;&gt;Node23</title>
<path fill="none" stroke="midnightblue" d="M803.372,-374.975C839.297,-364.548 900.232,-346.862 940.044,-335.307"/>
<polygon fill="midnightblue" stroke="midnightblue" points="941.055,-338.658 949.683,-332.509 939.104,-331.935 941.055,-338.658"/>
</g>
<!-- Node8&#45;&gt;Node3 -->
<g id="edge8" class="edge"><title>Node8&#45;&gt;Node3</title>
<path fill="none" stroke="midnightblue" d="M976.138,-257.455C968.354,-235.156 945.009,-174.149 910,-134 896.993,-119.083 878.734,-106.222 863.99,-97.2123"/>
<polygon fill="midnightblue" stroke="midnightblue" points="865.735,-94.1779 855.343,-92.1162 862.181,-100.209 865.735,-94.1779"/>
</g>
<!-- Node10&#45;&gt;Node3 -->
<g id="edge11" class="edge"><title>Node10&#45;&gt;Node3</title>
<path fill="none" stroke="midnightblue" d="M767.874,-313.414C798.763,-299.385 855.324,-268.285 877,-221 895.843,-179.895 868.48,-127.483 851.234,-100.8"/>
<polygon fill="midnightblue" stroke="midnightblue" points="853.932,-98.5403 845.443,-92.2019 848.127,-102.451 853.932,-98.5403"/>
</g>
<!-- Node11 -->
<g id="node11" class="node"><title>Node11</title>
<g id="a_node11"><a xlink:title=" ">
<polygon fill="none" stroke="#bfbfbf" points="633,-140 633,-159 689,-159 689,-140 633,-140"/>
<text text-anchor="middle" x="661" y="-147" font-family="Helvetica,sans-Serif" font-size="10.00">algorithm</text>
</a>
</g>
</g>
<!-- Node10&#45;&gt;Node11 -->
<g id="edge12" class="edge"><title>Node10&#45;&gt;Node11</title>
<path fill="none" stroke="midnightblue" d="M686.519,-313.469C664.682,-307.144 642.185,-296.139 629,-277 605.536,-242.939 631.818,-193.119 648.823,-167.343"/>
<polygon fill="midnightblue" stroke="midnightblue" points="651.773,-169.23 654.559,-159.008 646.007,-165.261 651.773,-169.23"/>
</g>
<!-- Node12 -->
<g id="node12" class="node"><title>Node12</title>
<g id="a_node12"><a xlink:title=" ">
<polygon fill="none" stroke="#bfbfbf" points="810,-201.5 810,-220.5 868,-220.5 868,-201.5 810,-201.5"/>
<text text-anchor="middle" x="839" y="-208.5" font-family="Helvetica,sans-Serif" font-size="10.00">functional</text>
</a>
</g>
</g>
<!-- Node10&#45;&gt;Node12 -->
<g id="edge13" class="edge"><title>Node10&#45;&gt;Node12</title>
<path fill="none" stroke="midnightblue" d="M755.883,-313.32C764.807,-304.46 778.805,-290.175 790,-277 803.383,-261.25 817.467,-242.281 827.083,-228.912"/>
<polygon fill="midnightblue" stroke="midnightblue" points="830.011,-230.835 832.963,-220.659 824.31,-226.773 830.011,-230.835"/>
</g>
<!-- Node13 -->
<g id="node13" class="node"><title>Node13</title>
<g id="a_node13"><a xlink:href="XalanMap_8hpp.html" target="_top" xlink:title=" ">
<polygon fill="none" stroke="black" points="638.5,-257.5 638.5,-276.5 781.5,-276.5 781.5,-257.5 638.5,-257.5"/>
<text text-anchor="middle" x="710" y="-264.5" font-family="Helvetica,sans-Serif" font-size="10.00">xalanc/Include/XalanMap.hpp</text>
</a>
</g>
</g>
<!-- Node10&#45;&gt;Node13 -->
<g id="edge14" class="edge"><title>Node10&#45;&gt;Node13</title>
<path fill="none" stroke="midnightblue" d="M740.89,-313.083C735.718,-305.534 728.154,-294.495 721.806,-285.23"/>
<polygon fill="midnightblue" stroke="midnightblue" points="724.536,-283.022 715.996,-276.751 718.761,-286.979 724.536,-283.022"/>
</g>
<!-- Node13&#45;&gt;Node3 -->
<g id="edge15" class="edge"><title>Node13&#45;&gt;Node3</title>
<path fill="none" stroke="midnightblue" d="M722.484,-257.436C734.002,-249.094 751.074,-235.572 763,-221 794.417,-182.615 819.551,-129.377 831.474,-101.76"/>
<polygon fill="midnightblue" stroke="midnightblue" points="834.84,-102.785 835.508,-92.2107 828.392,-100.061 834.84,-102.785"/>
</g>
<!-- Node13&#45;&gt;Node11 -->
<g id="edge17" class="edge"><title>Node13&#45;&gt;Node11</title>
<path fill="none" stroke="midnightblue" d="M700.166,-257.408C691.284,-249.048 678.621,-235.513 672,-221 664.535,-204.637 661.999,-184.158 661.203,-169.495"/>
<polygon fill="midnightblue" stroke="midnightblue" points="664.691,-169.056 660.876,-159.172 657.694,-169.278 664.691,-169.056"/>
</g>
<!-- Node13&#45;&gt;Node12 -->
<g id="edge18" class="edge"><title>Node13&#45;&gt;Node12</title>
<path fill="none" stroke="midnightblue" d="M730.44,-257.444C751.67,-248.557 785.099,-234.563 809.255,-224.451"/>
<polygon fill="midnightblue" stroke="midnightblue" points="810.782,-227.606 818.655,-220.516 808.079,-221.149 810.782,-227.606"/>
</g>
<!-- Node14 -->
<g id="node14" class="node"><title>Node14</title>
<g id="a_node14"><a xlink:title=" ">
<polygon fill="none" stroke="#bfbfbf" points="435,-73 435,-92 483,-92 483,-73 435,-73"/>
<text text-anchor="middle" x="459" y="-80" font-family="Helvetica,sans-Serif" font-size="10.00">cstddef</text>
</a>
</g>
</g>
<!-- Node13&#45;&gt;Node14 -->
<g id="edge16" class="edge"><title>Node13&#45;&gt;Node14</title>
<path fill="none" stroke="midnightblue" d="M708.964,-257.381C707.894,-248.329 706.214,-233.676 705,-221 703.151,-201.693 710.81,-148.564 698,-134 671.379,-103.735 552.52,-90.572 493.079,-85.8003"/>
<polygon fill="midnightblue" stroke="midnightblue" points="493.286,-82.306 483.047,-85.0297 492.75,-89.2854 493.286,-82.306"/>
</g>
<!-- Node15 -->
<g id="node15" class="node"><title>Node15</title>
<g id="a_node15"><a xlink:title=" ">
<polygon fill="none" stroke="#bfbfbf" points="714,-201.5 714,-220.5 754,-220.5 754,-201.5 714,-201.5"/>
<text text-anchor="middle" x="734" y="-208.5" font-family="Helvetica,sans-Serif" font-size="10.00">utility</text>
</a>
</g>
</g>
<!-- Node13&#45;&gt;Node15 -->
<g id="edge19" class="edge"><title>Node13&#45;&gt;Node15</title>
<path fill="none" stroke="midnightblue" d="M713.963,-257.083C717.213,-249.77 721.919,-239.181 725.954,-230.103"/>
<polygon fill="midnightblue" stroke="midnightblue" points="729.248,-231.311 730.111,-220.751 722.851,-228.468 729.248,-231.311"/>
</g>
<!-- Node13&#45;&gt;Node16 -->
<g id="edge20" class="edge"><title>Node13&#45;&gt;Node16</title>
<path fill="none" stroke="midnightblue" d="M652.64,-257.444C588.166,-247.826 483.599,-232.228 415.311,-222.041"/>
<polygon fill="midnightblue" stroke="midnightblue" points="415.499,-218.53 405.092,-220.516 414.466,-225.454 415.499,-218.53"/>
</g>
<!-- Node22 -->
<g id="node22" class="node"><title>Node22</title>
<g id="a_node22"><a xlink:href="XalanList_8hpp.html" target="_top" xlink:title=" ">
<polygon fill="none" stroke="black" points="442,-201.5 442,-220.5 582,-220.5 582,-201.5 442,-201.5"/>
<text text-anchor="middle" x="512" y="-208.5" font-family="Helvetica,sans-Serif" font-size="10.00">xalanc/Include/XalanList.hpp</text>
</a>
</g>
</g>
<!-- Node13&#45;&gt;Node22 -->
<g id="edge34" class="edge"><title>Node13&#45;&gt;Node22</title>
<path fill="none" stroke="midnightblue" d="M678.626,-257.444C644.737,-248.201 590.597,-233.436 553.276,-223.257"/>
<polygon fill="midnightblue" stroke="midnightblue" points="553.795,-219.771 543.227,-220.516 551.954,-226.524 553.795,-219.771"/>
</g>
<!-- Node16&#45;&gt;Node3 -->
<g id="edge21" class="edge"><title>Node16&#45;&gt;Node3</title>
<path fill="none" stroke="midnightblue" d="M347.276,-201.339C346.464,-185.322 347.303,-151.144 367,-134 394.377,-110.172 607.577,-95.2246 737.897,-88.2189"/>
<polygon fill="midnightblue" stroke="midnightblue" points="738.109,-91.7127 747.909,-87.6875 737.738,-84.7226 738.109,-91.7127"/>
</g>
<!-- Node16&#45;&gt;Node9 -->
<g id="edge24" class="edge"><title>Node16&#45;&gt;Node9</title>
<path fill="none" stroke="midnightblue" d="M271.874,-201.569C216.246,-194.167 146.584,-181.928 123,-165 101.269,-149.402 88.107,-120.407 81.4439,-101.54"/>
<polygon fill="midnightblue" stroke="midnightblue" points="84.7631,-100.429 78.3265,-92.0135 78.1103,-102.606 84.7631,-100.429"/>
</g>
<!-- Node16&#45;&gt;Node11 -->
<g id="edge23" class="edge"><title>Node16&#45;&gt;Node11</title>
<path fill="none" stroke="midnightblue" d="M392.845,-201.475C454.717,-189.714 565.171,-168.717 623.125,-157.7"/>
<polygon fill="midnightblue" stroke="midnightblue" points="623.803,-161.134 632.974,-155.828 622.496,-154.257 623.803,-161.134"/>
</g>
<!-- Node16&#45;&gt;Node14 -->
<g id="edge22" class="edge"><title>Node16&#45;&gt;Node14</title>
<path fill="none" stroke="midnightblue" d="M342.576,-201.188C334.057,-186.096 319.895,-154.911 334,-134 354.196,-104.059 395.461,-91.8645 425.057,-86.9013"/>
<polygon fill="midnightblue" stroke="midnightblue" points="425.607,-90.3581 434.986,-85.43 424.581,-83.4338 425.607,-90.3581"/>
</g>
<!-- Node17 -->
<g id="node17" class="node"><title>Node17</title>
<g id="a_node17"><a xlink:title=" ">
<polygon fill="none" stroke="#bfbfbf" points="138,-73 138,-92 172,-92 172,-73 138,-73"/>
<text text-anchor="middle" x="155" y="-80" font-family="Helvetica,sans-Serif" font-size="10.00">new</text>
</a>
</g>
</g>
<!-- Node16&#45;&gt;Node17 -->
<g id="edge25" class="edge"><title>Node16&#45;&gt;Node17</title>
<path fill="none" stroke="midnightblue" d="M271.904,-204.09C217.323,-198.086 150.463,-186.496 133,-165 117.891,-146.401 131.055,-118.316 142.541,-100.447"/>
<polygon fill="midnightblue" stroke="midnightblue" points="145.469,-102.366 148.236,-92.1393 139.695,-98.4089 145.469,-102.366"/>
</g>
<!-- Node18 -->
<g id="node18" class="node"><title>Node18</title>
<g id="a_node18"><a xlink:title=" ">
<polygon fill="none" stroke="#bfbfbf" points="453.5,-140 453.5,-159 500.5,-159 500.5,-140 453.5,-140"/>
<text text-anchor="middle" x="477" y="-147" font-family="Helvetica,sans-Serif" font-size="10.00">iterator</text>
</a>
</g>
</g>
<!-- Node16&#45;&gt;Node18 -->
<g id="edge26" class="edge"><title>Node16&#45;&gt;Node18</title>
<path fill="none" stroke="midnightblue" d="M366.483,-201.475C388.132,-191.49 424.213,-174.848 449.232,-163.307"/>
<polygon fill="midnightblue" stroke="midnightblue" points="450.937,-166.376 458.552,-159.009 448.005,-160.019 450.937,-166.376"/>
</g>
<!-- Node19 -->
<g id="node19" class="node"><title>Node19</title>
<g id="a_node19"><a xlink:title=" ">
<polygon fill="none" stroke="#bfbfbf" points="376.5,-140 376.5,-159 435.5,-159 435.5,-140 376.5,-140"/>
<text text-anchor="middle" x="406" y="-147" font-family="Helvetica,sans-Serif" font-size="10.00">stdexcept</text>
</a>
</g>
</g>
<!-- Node16&#45;&gt;Node19 -->
<g id="edge27" class="edge"><title>Node16&#45;&gt;Node19</title>
<path fill="none" stroke="midnightblue" d="M356.31,-201.475C365.182,-192.373 379.446,-177.741 390.42,-166.483"/>
<polygon fill="midnightblue" stroke="midnightblue" points="393.231,-168.613 397.705,-159.009 388.219,-163.727 393.231,-168.613"/>
</g>
<!-- Node16&#45;&gt;Node20 -->
<g id="edge28" class="edge"><title>Node16&#45;&gt;Node20</title>
<path fill="none" stroke="midnightblue" d="M328.515,-201.475C308.976,-192.927 278.288,-179.501 253.311,-168.573"/>
<polygon fill="midnightblue" stroke="midnightblue" points="254.617,-165.325 244.053,-164.523 251.811,-171.738 254.617,-165.325"/>
</g>
<!-- Node20&#45;&gt;Node3 -->
<g id="edge29" class="edge"><title>Node20&#45;&gt;Node3</title>
<path fill="none" stroke="midnightblue" d="M282.294,-139.919C299.219,-137.915 317.25,-135.833 334,-134 474.287,-118.65 636.709,-102.74 738.655,-92.9791"/>
<polygon fill="midnightblue" stroke="midnightblue" points="739.014,-96.4609 748.635,-92.0247 738.347,-89.4927 739.014,-96.4609"/>
</g>
<!-- Node20&#45;&gt;Node9 -->
<g id="edge30" class="edge"><title>Node20&#45;&gt;Node9</title>
<path fill="none" stroke="midnightblue" d="M182.49,-134.396C158.838,-123.092 125.924,-107.361 102.97,-96.3903"/>
<polygon fill="midnightblue" stroke="midnightblue" points="104.331,-93.1614 93.7993,-92.007 101.312,-99.4771 104.331,-93.1614"/>
</g>
<!-- Node20&#45;&gt;Node14 -->
<g id="edge31" class="edge"><title>Node20&#45;&gt;Node14</title>
<path fill="none" stroke="midnightblue" d="M265.291,-134.476C313.795,-121.712 383.935,-103.254 425.162,-92.4047"/>
<polygon fill="midnightblue" stroke="midnightblue" points="426.21,-95.7483 434.99,-89.8185 424.428,-88.9787 426.21,-95.7483"/>
</g>
<!-- Node20&#45;&gt;Node17 -->
<g id="edge32" class="edge"><title>Node20&#45;&gt;Node17</title>
<path fill="none" stroke="midnightblue" d="M199.632,-134.396C190.744,-124.261 178.736,-110.567 169.414,-99.9368"/>
<polygon fill="midnightblue" stroke="midnightblue" points="171.849,-97.4055 162.624,-92.1945 166.586,-102.021 171.849,-97.4055"/>
</g>
<!-- Node21 -->
<g id="node21" class="node"><title>Node21</title>
<g id="a_node21"><a xlink:title=" ">
<polygon fill="none" stroke="#bfbfbf" points="190.5,-67.5 190.5,-97.5 327.5,-97.5 327.5,-67.5 190.5,-67.5"/>
<text text-anchor="start" x="198.5" y="-85.5" font-family="Helvetica,sans-Serif" font-size="10.00">xercesc/framework/Memory</text>
<text text-anchor="middle" x="259" y="-74.5" font-family="Helvetica,sans-Serif" font-size="10.00">Manager.hpp</text>
</a>
</g>
</g>
<!-- Node20&#45;&gt;Node21 -->
<g id="edge33" class="edge"><title>Node20&#45;&gt;Node21</title>
<path fill="none" stroke="midnightblue" d="M222.198,-134.396C228.234,-126.049 236.015,-115.287 242.867,-105.811"/>
<polygon fill="midnightblue" stroke="midnightblue" points="245.798,-107.731 248.822,-97.5765 240.126,-103.629 245.798,-107.731"/>
</g>
<!-- Node22&#45;&gt;Node3 -->
<g id="edge35" class="edge"><title>Node22&#45;&gt;Node3</title>
<path fill="none" stroke="midnightblue" d="M522.046,-201.277C540.783,-185.463 582.9,-152.032 624,-134 669.345,-114.105 723.656,-101.431 766.347,-93.7558"/>
<polygon fill="midnightblue" stroke="midnightblue" points="767.13,-97.1721 776.379,-92.005 765.927,-90.2763 767.13,-97.1721"/>
</g>
<!-- Node22&#45;&gt;Node9 -->
<g id="edge38" class="edge"><title>Node22&#45;&gt;Node9</title>
<path fill="none" stroke="midnightblue" d="M441.976,-201.866C332.905,-189.171 134.648,-165.986 133,-165 108.624,-150.41 92.0362,-120.91 83.2946,-101.691"/>
<polygon fill="midnightblue" stroke="midnightblue" points="86.3984,-100.048 79.2457,-92.2316 79.9632,-102.802 86.3984,-100.048"/>
</g>
<!-- Node22&#45;&gt;Node11 -->
<g id="edge37" class="edge"><title>Node22&#45;&gt;Node11</title>
<path fill="none" stroke="midnightblue" d="M533.348,-201.475C558.686,-191.357 601.138,-174.405 630.071,-162.851"/>
<polygon fill="midnightblue" stroke="midnightblue" points="631.703,-165.968 639.692,-159.009 629.107,-159.467 631.703,-165.968"/>
</g>
<!-- Node22&#45;&gt;Node14 -->
<g id="edge36" class="edge"><title>Node22&#45;&gt;Node14</title>
<path fill="none" stroke="midnightblue" d="M520.613,-201.235C533.771,-186.736 556.049,-157.07 543,-134 532.157,-114.829 510.804,-102.134 492.342,-94.2677"/>
<polygon fill="midnightblue" stroke="midnightblue" points="493.608,-91.0047 483.021,-90.5853 491.036,-97.515 493.608,-91.0047"/>
</g>
<!-- Node22&#45;&gt;Node17 -->
<g id="edge39" class="edge"><title>Node22&#45;&gt;Node17</title>
<path fill="none" stroke="midnightblue" d="M514.845,-201.357C519.404,-185.673 526.2,-152.446 509,-134 458.993,-80.371 250.853,-120.301 181,-98 179.754,-97.6021 178.5,-97.1412 177.252,-96.6335"/>
<polygon fill="midnightblue" stroke="midnightblue" points="178.548,-93.3706 168.029,-92.0992 175.459,-99.6524 178.548,-93.3706"/>
</g>
<!-- Node22&#45;&gt;Node18 -->
<g id="edge40" class="edge"><title>Node22&#45;&gt;Node18</title>
<path fill="none" stroke="midnightblue" d="M506.985,-201.475C501.839,-192.727 493.688,-178.869 487.182,-167.809"/>
<polygon fill="midnightblue" stroke="midnightblue" points="490.092,-165.854 482.005,-159.009 484.059,-169.403 490.092,-165.854"/>
</g>
<!-- Node22&#45;&gt;Node19 -->
<g id="edge41" class="edge"><title>Node22&#45;&gt;Node19</title>
<path fill="none" stroke="midnightblue" d="M496.813,-201.475C479.338,-191.666 450.421,-175.435 429.917,-163.925"/>
<polygon fill="midnightblue" stroke="midnightblue" points="431.592,-160.852 421.159,-159.009 428.166,-166.956 431.592,-160.852"/>
</g>
<!-- Node22&#45;&gt;Node20 -->
<g id="edge42" class="edge"><title>Node22&#45;&gt;Node20</title>
<path fill="none" stroke="midnightblue" d="M469.017,-201.475C423.012,-192.351 348.984,-177.668 292.165,-166.399"/>
<polygon fill="midnightblue" stroke="midnightblue" points="292.616,-162.921 282.127,-164.408 291.255,-169.787 292.616,-162.921"/>
</g>
<!-- Node23&#45;&gt;Node8 -->
<g id="edge46" class="edge"><title>Node23&#45;&gt;Node8</title>
<path fill="none" stroke="midnightblue" d="M979,-313.083C979,-306.006 979,-295.861 979,-286.986"/>
<polygon fill="midnightblue" stroke="midnightblue" points="982.5,-286.751 979,-276.751 975.5,-286.751 982.5,-286.751"/>
</g>
<!-- Node24&#45;&gt;Node7 -->
<g id="edge50" class="edge"><title>Node24&#45;&gt;Node7</title>
<path fill="none" stroke="midnightblue" d="M918.858,-436.396C885.679,-424.739 839.1,-408.373 807.801,-397.376"/>
<polygon fill="midnightblue" stroke="midnightblue" points="808.807,-394.02 798.212,-394.007 806.487,-400.624 808.807,-394.02"/>
</g>
<!-- Node25 -->
<g id="node25" class="node"><title>Node25</title>
<g id="a_node25"><a xlink:href="PlatformSupportDefinitions_8hpp.html" target="_top" xlink:title=" ">
<polygon fill="none" stroke="black" points="912.5,-369.5 912.5,-399.5 1065.5,-399.5 1065.5,-369.5 912.5,-369.5"/>
<text text-anchor="start" x="920.5" y="-387.5" font-family="Helvetica,sans-Serif" font-size="10.00">xalanc/PlatformSupport</text>
<text text-anchor="middle" x="989" y="-376.5" font-family="Helvetica,sans-Serif" font-size="10.00">/PlatformSupportDefinitions.hpp</text>
</a>
</g>
</g>
<!-- Node24&#45;&gt;Node25 -->
<g id="edge48" class="edge"><title>Node24&#45;&gt;Node25</title>
<path fill="none" stroke="midnightblue" d="M965.51,-436.396C969.244,-428.304 974.026,-417.944 978.299,-408.685"/>
<polygon fill="midnightblue" stroke="midnightblue" points="981.49,-410.123 982.503,-399.577 975.135,-407.189 981.49,-410.123"/>
</g>
<!-- Node25&#45;&gt;Node3 -->
<g id="edge49" class="edge"><title>Node25&#45;&gt;Node3</title>
<path fill="none" stroke="midnightblue" d="M1035.45,-369.443C1054.7,-361.514 1075.81,-349.754 1090,-333 1109.54,-309.937 1110,-298.225 1110,-268 1110,-268 1110,-268 1110,-210 1110,-132.358 1017.53,-102.259 940.626,-90.6528"/>
<polygon fill="midnightblue" stroke="midnightblue" points="940.763,-87.1373 930.37,-89.1987 939.78,-94.068 940.763,-87.1373"/>
</g>
</g>
</svg>
        <g id="navigator" transform="translate(0 0)" fill="#404254">
                <rect fill="#f2f5e9" fill-opacity="0.5" stroke="#606060" stroke-width=".5" x="0" y="0" width="60" height="60"/>
                <use id="zoomplus" xlink:href="#zoomPlus" x="17" y="9" onmousedown="handleZoom(evt,'in')"/>
                <use id="zoomminus" xlink:href="#zoomMin" x="42" y="9" onmousedown="handleZoom(evt,'out')"/>
                <use id="reset" xlink:href="#resetDef" x="30" y="36" onmousedown="handleReset()"/>
                <g id="arrowUp" xlink:href="#dirArrow" transform="translate(30 24)" onmousedown="handlePan(0,-1)">
                  <use xlink:href="#rim" fill="#404040">
                        <set attributeName="fill" to="#808080" begin="arrowUp.mouseover" end="arrowUp.mouseout"/>
                  </use>
                  <path fill="none" stroke="white" stroke-width="1.5" d="M0,-3.0v7 M-2.5,-0.5L0,-3.0L2.5,-0.5"/>
                </g>
                <g id="arrowRight" xlink:href="#dirArrow" transform="rotate(90) translate(36 -43)" onmousedown="handlePan(1,0)">
                  <use xlink:href="#rim" fill="#404040">
                        <set attributeName="fill" to="#808080" begin="arrowRight.mouseover" end="arrowRight.mouseout"/>
                  </use>
                  <path fill="none" stroke="white" stroke-width="1.5" d="M0,-3.0v7 M-2.5,-0.5L0,-3.0L2.5,-0.5"/>
                </g>
                <g id="arrowDown" xlink:href="#dirArrow" transform="rotate(180) translate(-30 -48)" onmousedown="handlePan(0,1)">
                  <use xlink:href="#rim" fill="#404040">
                        <set attributeName="fill" to="#808080" begin="arrowDown.mouseover" end="arrowDown.mouseout"/>
                  </use>
                  <path fill="none" stroke="white" stroke-width="1.5" d="M0,-3.0v7 M-2.5,-0.5L0,-3.0L2.5,-0.5"/>
                </g>
                <g id="arrowLeft" xlink:href="#dirArrow" transform="rotate(270) translate(-36 17)" onmousedown="handlePan(-1,0)">
                  <use xlink:href="#rim" fill="#404040">
                        <set attributeName="fill" to="#808080" begin="arrowLeft.mouseover" end="arrowLeft.mouseout"/>
                  </use>
                  <path fill="none" stroke="white" stroke-width="1.5" d="M0,-3.0v7 M-2.5,-0.5L0,-3.0L2.5,-0.5"/>
                </g>
        </g>
        <svg viewBox="0 0 15 15" width="100%" height="30px" preserveAspectRatio="xMaxYMin meet">
         <g id="arrow_out" transform="scale(0.3 0.3)">
          <a xlink:href="NodeSortKey_8hpp__incl_org.svg" target="_base">
           <rect id="button" ry="5" rx="5" y="6" x="6" height="38" width="38"
                fill="#f2f5e9" fill-opacity="0.5" stroke="#606060" stroke-width="1.0"/>
           <path id="arrow"
             d="M 11.500037,31.436501 C 11.940474,20.09759 22.043105,11.32322 32.158766,21.979434 L 37.068811,17.246167 C 37.068811,17.246167 37.088388,32 37.088388,32 L 22.160133,31.978069 C 22.160133,31.978069 26.997745,27.140456 26.997745,27.140456 C 18.528582,18.264221 13.291696,25.230495 11.500037,31.436501 z"
             style="fill:#404040;"/>
          </a>
         </g>
        </svg>
</svg>
