<?xml version="1.0" encoding="UTF-8" standalone="no"?>
<!DOCTYPE svg PUBLIC "-//W3C//DTD SVG 1.1//EN"
 "http://www.w3.org/Graphics/SVG/1.1/DTD/svg11.dtd">
<!-- Generated by graphviz version 2.43.0 (0)
 -->
<!-- Title: xalanc/XPath/NodeRefList.hpp Pages: 1 -->
<svg width="822pt" height="296pt"
 viewBox="0.00 0.00 821.50 296.00" xmlns="http://www.w3.org/2000/svg" xmlns:xlink="http://www.w3.org/1999/xlink">
<g id="graph0" class="graph" transform="scale(1 1) rotate(0) translate(4 292)">
<title>xalanc/XPath/NodeRefList.hpp</title>
<!-- Node1 -->
<g id="node1" class="node">
<title>Node1</title>
<g id="a_node1"><a xlink:title=" ">
<polygon fill="#bfbfbf" stroke="black" points="120.5,-268.5 120.5,-287.5 283.5,-287.5 283.5,-268.5 120.5,-268.5"/>
<text text-anchor="middle" x="202" y="-275.5" font-family="Helvetica,sans-Serif" font-size="10.00">xalanc/XPath/NodeRefList.hpp</text>
</a>
</g>
</g>
<!-- Node2 -->
<g id="node2" class="node">
<title>Node2</title>
<g id="a_node2"><a xlink:href="XPathDefinitions_8hpp.html" target="_top" xlink:title=" ">
<polygon fill="none" stroke="black" points="0,-140 0,-159 184,-159 184,-140 0,-140"/>
<text text-anchor="middle" x="92" y="-147" font-family="Helvetica,sans-Serif" font-size="10.00">xalanc/XPath/XPathDefinitions.hpp</text>
</a>
</g>
</g>
<!-- Node1&#45;&gt;Node2 -->
<g id="edge1" class="edge">
<title>Node1&#45;&gt;Node2</title>
<path fill="none" stroke="midnightblue" d="M177.27,-268.42C159.68,-261.19 136.67,-249.23 122,-232 106.53,-213.84 98.72,-186.99 95.01,-169.13"/>
<polygon fill="midnightblue" stroke="midnightblue" points="98.42,-168.3 93.17,-159.1 91.54,-169.57 98.42,-168.3"/>
</g>
<!-- Node7 -->
<g id="node7" class="node">
<title>Node7</title>
<g id="a_node7"><a xlink:href="XalanVector_8hpp.html" target="_top" xlink:title=" ">
<polygon fill="none" stroke="black" points="379.5,-207 379.5,-226 548.5,-226 548.5,-207 379.5,-207"/>
<text text-anchor="middle" x="464" y="-214" font-family="Helvetica,sans-Serif" font-size="10.00">xalanc/Include/XalanVector.hpp</text>
</a>
</g>
</g>
<!-- Node1&#45;&gt;Node7 -->
<g id="edge6" class="edge">
<title>Node1&#45;&gt;Node7</title>
<path fill="none" stroke="midnightblue" d="M239.54,-268.48C286.23,-257.87 365.98,-239.76 416.78,-228.22"/>
<polygon fill="midnightblue" stroke="midnightblue" points="417.55,-231.64 426.53,-226.01 416,-224.81 417.55,-231.64"/>
</g>
<!-- Node16 -->
<g id="node16" class="node">
<title>Node16</title>
<g id="a_node16"><a xlink:href="NodeRefListBase_8hpp.html" target="_top" xlink:title=" ">
<polygon fill="none" stroke="black" points="131,-201.5 131,-231.5 273,-231.5 273,-201.5 131,-201.5"/>
<text text-anchor="start" x="139" y="-219.5" font-family="Helvetica,sans-Serif" font-size="10.00">xalanc/XPath/NodeRefList</text>
<text text-anchor="middle" x="202" y="-208.5" font-family="Helvetica,sans-Serif" font-size="10.00">Base.hpp</text>
</a>
</g>
</g>
<!-- Node1&#45;&gt;Node16 -->
<g id="edge20" class="edge">
<title>Node1&#45;&gt;Node16</title>
<path fill="none" stroke="midnightblue" d="M202,-268.48C202,-261.47 202,-251.19 202,-241.7"/>
<polygon fill="midnightblue" stroke="midnightblue" points="205.5,-241.52 202,-231.52 198.5,-241.52 205.5,-241.52"/>
</g>
<!-- Node3 -->
<g id="node3" class="node">
<title>Node3</title>
<g id="a_node3"><a xlink:href="PlatformDefinitions_8hpp.html" target="_top" xlink:title=" ">
<polygon fill="none" stroke="black" points="147,-73 147,-92 353,-92 353,-73 147,-73"/>
<text text-anchor="middle" x="250" y="-80" font-family="Helvetica,sans-Serif" font-size="10.00">xalanc/Include/PlatformDefinitions.hpp</text>
</a>
</g>
</g>
<!-- Node2&#45;&gt;Node3 -->
<g id="edge2" class="edge">
<title>Node2&#45;&gt;Node3</title>
<path fill="none" stroke="midnightblue" d="M112.98,-139.87C140.25,-128.65 188.07,-108.98 219.39,-96.09"/>
<polygon fill="midnightblue" stroke="midnightblue" points="221.02,-99.21 228.93,-92.17 218.35,-92.74 221.02,-99.21"/>
</g>
<!-- Node4 -->
<g id="node4" class="node">
<title>Node4</title>
<g id="a_node4"><a xlink:title=" ">
<polygon fill="none" stroke="#bfbfbf" points="29,-0.5 29,-30.5 149,-30.5 149,-0.5 29,-0.5"/>
<text text-anchor="start" x="37" y="-18.5" font-family="Helvetica,sans-Serif" font-size="10.00">xercesc/util/Xerces</text>
<text text-anchor="middle" x="89" y="-7.5" font-family="Helvetica,sans-Serif" font-size="10.00">_autoconf_config.hpp</text>
</a>
</g>
</g>
<!-- Node3&#45;&gt;Node4 -->
<g id="edge3" class="edge">
<title>Node3&#45;&gt;Node4</title>
<path fill="none" stroke="midnightblue" d="M228.62,-72.87C204.36,-63.07 164.12,-46.83 133.06,-34.29"/>
<polygon fill="midnightblue" stroke="midnightblue" points="134.33,-31.03 123.75,-30.53 131.71,-37.52 134.33,-31.03"/>
</g>
<!-- Node5 -->
<g id="node5" class="node">
<title>Node5</title>
<g id="a_node5"><a xlink:title=" ">
<polygon fill="none" stroke="#bfbfbf" points="167.5,-6 167.5,-25 332.5,-25 332.5,-6 167.5,-6"/>
<text text-anchor="middle" x="250" y="-13" font-family="Helvetica,sans-Serif" font-size="10.00">xercesc/util/XercesVersion.hpp</text>
</a>
</g>
</g>
<!-- Node3&#45;&gt;Node5 -->
<g id="edge4" class="edge">
<title>Node3&#45;&gt;Node5</title>
<path fill="none" stroke="midnightblue" d="M250,-72.73C250,-63.18 250,-47.62 250,-35.28"/>
<polygon fill="midnightblue" stroke="midnightblue" points="253.5,-35.13 250,-25.13 246.5,-35.13 253.5,-35.13"/>
</g>
<!-- Node6 -->
<g id="node6" class="node">
<title>Node6</title>
<g id="a_node6"><a xlink:href="XalanVersion_8hpp.html" target="_top" xlink:title=" ">
<polygon fill="none" stroke="black" points="350.5,-6 350.5,-25 525.5,-25 525.5,-6 350.5,-6"/>
<text text-anchor="middle" x="438" y="-13" font-family="Helvetica,sans-Serif" font-size="10.00">xalanc/Include/XalanVersion.hpp</text>
</a>
</g>
</g>
<!-- Node3&#45;&gt;Node6 -->
<g id="edge5" class="edge">
<title>Node3&#45;&gt;Node6</title>
<path fill="none" stroke="midnightblue" d="M274.96,-72.87C307.92,-61.47 366.12,-41.35 403.33,-28.49"/>
<polygon fill="midnightblue" stroke="midnightblue" points="404.92,-31.64 413.23,-25.06 402.64,-25.02 404.92,-31.64"/>
</g>
<!-- Node7&#45;&gt;Node3 -->
<g id="edge7" class="edge">
<title>Node7&#45;&gt;Node3</title>
<path fill="none" stroke="midnightblue" d="M404.27,-206.93C354.12,-198.54 287.75,-184.21 269,-165 252.78,-148.38 249.41,-120.75 249.16,-102.33"/>
<polygon fill="midnightblue" stroke="midnightblue" points="252.66,-102.29 249.33,-92.23 245.66,-102.17 252.66,-102.29"/>
</g>
<!-- Node8 -->
<g id="node8" class="node">
<title>Node8</title>
<g id="a_node8"><a xlink:title=" ">
<polygon fill="none" stroke="#bfbfbf" points="463.5,-73 463.5,-92 516.5,-92 516.5,-73 463.5,-73"/>
<text text-anchor="middle" x="490" y="-80" font-family="Helvetica,sans-Serif" font-size="10.00">cstddef</text>
</a>
</g>
</g>
<!-- Node7&#45;&gt;Node8 -->
<g id="edge8" class="edge">
<title>Node7&#45;&gt;Node8</title>
<path fill="none" stroke="midnightblue" d="M474.67,-206.76C484.94,-197.6 499.8,-182.16 506,-165 513.63,-143.89 506.06,-118.31 498.96,-101.51"/>
<polygon fill="midnightblue" stroke="midnightblue" points="502.09,-99.93 494.74,-92.3 495.72,-102.85 502.09,-99.93"/>
</g>
<!-- Node9 -->
<g id="node9" class="node">
<title>Node9</title>
<g id="a_node9"><a xlink:title=" ">
<polygon fill="none" stroke="#bfbfbf" points="278,-140 278,-159 342,-159 342,-140 278,-140"/>
<text text-anchor="middle" x="310" y="-147" font-family="Helvetica,sans-Serif" font-size="10.00">algorithm</text>
</a>
</g>
</g>
<!-- Node7&#45;&gt;Node9 -->
<g id="edge9" class="edge">
<title>Node7&#45;&gt;Node9</title>
<path fill="none" stroke="midnightblue" d="M443.55,-206.87C416.97,-195.65 370.36,-175.98 339.83,-163.09"/>
<polygon fill="midnightblue" stroke="midnightblue" points="341.11,-159.83 330.53,-159.17 338.39,-166.28 341.11,-159.83"/>
</g>
<!-- Node10 -->
<g id="node10" class="node">
<title>Node10</title>
<g id="a_node10"><a xlink:title=" ">
<polygon fill="none" stroke="#bfbfbf" points="706,-73 706,-92 758,-92 758,-73 706,-73"/>
<text text-anchor="middle" x="732" y="-80" font-family="Helvetica,sans-Serif" font-size="10.00">cassert</text>
</a>
</g>
</g>
<!-- Node7&#45;&gt;Node10 -->
<g id="edge10" class="edge">
<title>Node7&#45;&gt;Node10</title>
<path fill="none" stroke="midnightblue" d="M548.58,-209.22C613.82,-202.54 696.72,-189.44 720,-165 735.77,-148.45 736.52,-120.8 734.87,-102.36"/>
<polygon fill="midnightblue" stroke="midnightblue" points="738.32,-101.75 733.64,-92.25 731.37,-102.6 738.32,-101.75"/>
</g>
<!-- Node11 -->
<g id="node11" class="node">
<title>Node11</title>
<g id="a_node11"><a xlink:title=" ">
<polygon fill="none" stroke="#bfbfbf" points="776.5,-73 776.5,-92 813.5,-92 813.5,-73 776.5,-73"/>
<text text-anchor="middle" x="795" y="-80" font-family="Helvetica,sans-Serif" font-size="10.00">new</text>
</a>
</g>
</g>
<!-- Node7&#45;&gt;Node11 -->
<g id="edge11" class="edge">
<title>Node7&#45;&gt;Node11</title>
<path fill="none" stroke="midnightblue" d="M548.64,-207.26C617.82,-199.22 709.07,-185.23 740,-165 763.51,-149.63 779.52,-120.35 787.96,-101.39"/>
<polygon fill="midnightblue" stroke="midnightblue" points="791.22,-102.65 791.87,-92.07 784.77,-99.94 791.22,-102.65"/>
</g>
<!-- Node12 -->
<g id="node12" class="node">
<title>Node12</title>
<g id="a_node12"><a xlink:title=" ">
<polygon fill="none" stroke="#bfbfbf" points="360.5,-140 360.5,-159 413.5,-159 413.5,-140 360.5,-140"/>
<text text-anchor="middle" x="387" y="-147" font-family="Helvetica,sans-Serif" font-size="10.00">iterator</text>
</a>
</g>
</g>
<!-- Node7&#45;&gt;Node12 -->
<g id="edge12" class="edge">
<title>Node7&#45;&gt;Node12</title>
<path fill="none" stroke="midnightblue" d="M453.62,-206.73C441.15,-196.21 420.03,-178.38 404.91,-165.62"/>
<polygon fill="midnightblue" stroke="midnightblue" points="407.12,-162.9 397.22,-159.13 402.6,-168.25 407.12,-162.9"/>
</g>
<!-- Node13 -->
<g id="node13" class="node">
<title>Node13</title>
<g id="a_node13"><a xlink:title=" ">
<polygon fill="none" stroke="#bfbfbf" points="431.5,-140 431.5,-159 496.5,-159 496.5,-140 431.5,-140"/>
<text text-anchor="middle" x="464" y="-147" font-family="Helvetica,sans-Serif" font-size="10.00">stdexcept</text>
</a>
</g>
</g>
<!-- Node7&#45;&gt;Node13 -->
<g id="edge13" class="edge">
<title>Node7&#45;&gt;Node13</title>
<path fill="none" stroke="midnightblue" d="M464,-206.73C464,-197.18 464,-181.62 464,-169.28"/>
<polygon fill="midnightblue" stroke="midnightblue" points="467.5,-169.13 464,-159.13 460.5,-169.13 467.5,-169.13"/>
</g>
<!-- Node14 -->
<g id="node14" class="node">
<title>Node14</title>
<g id="a_node14"><a xlink:href="XalanMemoryManagement_8hpp.html" target="_top" xlink:title=" ">
<polygon fill="none" stroke="black" points="553,-134.5 553,-164.5 711,-164.5 711,-134.5 553,-134.5"/>
<text text-anchor="start" x="561" y="-152.5" font-family="Helvetica,sans-Serif" font-size="10.00">xalanc/Include/XalanMemory</text>
<text text-anchor="middle" x="632" y="-141.5" font-family="Helvetica,sans-Serif" font-size="10.00">Management.hpp</text>
</a>
</g>
</g>
<!-- Node7&#45;&gt;Node14 -->
<g id="edge14" class="edge">
<title>Node7&#45;&gt;Node14</title>
<path fill="none" stroke="midnightblue" d="M486.31,-206.87C511.63,-197.07 553.61,-180.83 586.02,-168.29"/>
<polygon fill="midnightblue" stroke="midnightblue" points="587.68,-171.4 595.74,-164.53 585.15,-164.87 587.68,-171.4"/>
</g>
<!-- Node14&#45;&gt;Node3 -->
<g id="edge15" class="edge">
<title>Node14&#45;&gt;Node3</title>
<path fill="none" stroke="midnightblue" d="M552.85,-135.03C480.76,-122.77 375.86,-104.92 310.35,-93.77"/>
<polygon fill="midnightblue" stroke="midnightblue" points="310.63,-90.27 300.18,-92.04 309.45,-97.17 310.63,-90.27"/>
</g>
<!-- Node14&#45;&gt;Node8 -->
<g id="edge17" class="edge">
<title>Node14&#45;&gt;Node8</title>
<path fill="none" stroke="midnightblue" d="M601.19,-134.4C576.38,-123.04 541.82,-107.22 517.84,-96.24"/>
<polygon fill="midnightblue" stroke="midnightblue" points="519.13,-92.99 508.58,-92.01 516.22,-99.35 519.13,-92.99"/>
</g>
<!-- Node14&#45;&gt;Node10 -->
<g id="edge16" class="edge">
<title>Node14&#45;&gt;Node10</title>
<path fill="none" stroke="midnightblue" d="M653.7,-134.4C670.47,-123.5 693.57,-108.48 710.33,-97.58"/>
<polygon fill="midnightblue" stroke="midnightblue" points="712.44,-100.39 718.91,-92.01 708.62,-94.52 712.44,-100.39"/>
</g>
<!-- Node14&#45;&gt;Node11 -->
<g id="edge18" class="edge">
<title>Node14&#45;&gt;Node11</title>
<path fill="none" stroke="midnightblue" d="M673.58,-134.4C700.54,-124.91 736.24,-111.66 767,-98 768,-97.56 769.02,-97.09 770.04,-96.62"/>
<polygon fill="midnightblue" stroke="midnightblue" points="771.75,-99.68 779.17,-92.12 768.65,-93.4 771.75,-99.68"/>
</g>
<!-- Node15 -->
<g id="node15" class="node">
<title>Node15</title>
<g id="a_node15"><a xlink:title=" ">
<polygon fill="none" stroke="#bfbfbf" points="534.5,-67.5 534.5,-97.5 687.5,-97.5 687.5,-67.5 534.5,-67.5"/>
<text text-anchor="start" x="542.5" y="-85.5" font-family="Helvetica,sans-Serif" font-size="10.00">xercesc/framework/Memory</text>
<text text-anchor="middle" x="611" y="-74.5" font-family="Helvetica,sans-Serif" font-size="10.00">Manager.hpp</text>
</a>
</g>
</g>
<!-- Node14&#45;&gt;Node15 -->
<g id="edge19" class="edge">
<title>Node14&#45;&gt;Node15</title>
<path fill="none" stroke="midnightblue" d="M627.44,-134.4C624.88,-126.47 621.62,-116.38 618.68,-107.27"/>
<polygon fill="midnightblue" stroke="midnightblue" points="621.95,-106.02 615.55,-97.58 615.29,-108.17 621.95,-106.02"/>
</g>
<!-- Node16&#45;&gt;Node2 -->
<g id="edge21" class="edge">
<title>Node16&#45;&gt;Node2</title>
<path fill="none" stroke="midnightblue" d="M178.13,-201.4C159.43,-190.34 133.56,-175.06 115.07,-164.13"/>
<polygon fill="midnightblue" stroke="midnightblue" points="116.79,-161.08 106.4,-159.01 113.23,-167.11 116.79,-161.08"/>
</g>
<!-- Node16&#45;&gt;Node8 -->
<g id="edge22" class="edge">
<title>Node16&#45;&gt;Node8</title>
<path fill="none" stroke="midnightblue" d="M209.69,-201.25C220.44,-182.75 241.73,-150.86 269,-134 299.51,-115.14 398.59,-97.54 453.14,-88.96"/>
<polygon fill="midnightblue" stroke="midnightblue" points="453.76,-92.41 463.1,-87.42 452.69,-85.49 453.76,-92.41"/>
</g>
</g>
</svg>
