<?xml version="1.0" encoding="UTF-8" standalone="no"?>
<!DOCTYPE svg PUBLIC "-//W3C//DTD SVG 1.1//EN"
 "http://www.w3.org/Graphics/SVG/1.1/DTD/svg11.dtd">
<!-- Generated by graphviz version 2.43.0 (0)
 -->
<!-- Title: xalanc/PlatformSupport/PlatformSupportInit.hpp Pages: 1 -->
<svg width="704pt" height="307pt"
 viewBox="0.00 0.00 704.00 307.00" xmlns="http://www.w3.org/2000/svg" xmlns:xlink="http://www.w3.org/1999/xlink">
<g id="graph0" class="graph" transform="scale(1 1) rotate(0) translate(4 303)">
<title>xalanc/PlatformSupport/PlatformSupportInit.hpp</title>
<!-- Node1 -->
<g id="node1" class="node">
<title>Node1</title>
<g id="a_node1"><a xlink:title=" ">
<polygon fill="#bfbfbf" stroke="black" points="119.5,-268.5 119.5,-298.5 255.5,-298.5 255.5,-268.5 119.5,-268.5"/>
<text text-anchor="start" x="127.5" y="-286.5" font-family="Helvetica,sans-Serif" font-size="10.00">xalanc/PlatformSupport</text>
<text text-anchor="middle" x="187.5" y="-275.5" font-family="Helvetica,sans-Serif" font-size="10.00">/PlatformSupportInit.hpp</text>
</a>
</g>
</g>
<!-- Node2 -->
<g id="node2" class="node">
<title>Node2</title>
<g id="a_node2"><a xlink:href="PlatformSupportDefinitions_8hpp.html" target="_top" xlink:title=" ">
<polygon fill="none" stroke="black" points="0,-201.5 0,-231.5 173,-231.5 173,-201.5 0,-201.5"/>
<text text-anchor="start" x="8" y="-219.5" font-family="Helvetica,sans-Serif" font-size="10.00">xalanc/PlatformSupport</text>
<text text-anchor="middle" x="86.5" y="-208.5" font-family="Helvetica,sans-Serif" font-size="10.00">/PlatformSupportDefinitions.hpp</text>
</a>
</g>
</g>
<!-- Node1&#45;&gt;Node2 -->
<g id="edge1" class="edge">
<title>Node1&#45;&gt;Node2</title>
<path fill="none" stroke="midnightblue" d="M165.58,-268.4C151.42,-259.28 132.79,-247.29 117.17,-237.24"/>
<polygon fill="midnightblue" stroke="midnightblue" points="118.68,-234.05 108.37,-231.58 114.89,-239.93 118.68,-234.05"/>
</g>
<!-- Node7 -->
<g id="node7" class="node">
<title>Node7</title>
<g id="a_node7"><a xlink:href="XalanDOMInit_8hpp.html" target="_top" xlink:title=" ">
<polygon fill="none" stroke="black" points="191,-207 191,-226 386,-226 386,-207 191,-207"/>
<text text-anchor="middle" x="288.5" y="-214" font-family="Helvetica,sans-Serif" font-size="10.00">xalanc/XalanDOM/XalanDOMInit.hpp</text>
</a>
</g>
</g>
<!-- Node1&#45;&gt;Node7 -->
<g id="edge6" class="edge">
<title>Node1&#45;&gt;Node7</title>
<path fill="none" stroke="midnightblue" d="M209.42,-268.4C226.35,-257.5 249.69,-242.48 266.62,-231.58"/>
<polygon fill="midnightblue" stroke="midnightblue" points="268.77,-234.36 275.28,-226.01 264.98,-228.48 268.77,-234.36"/>
</g>
<!-- Node3 -->
<g id="node3" class="node">
<title>Node3</title>
<g id="a_node3"><a xlink:href="PlatformDefinitions_8hpp.html" target="_top" xlink:title=" ">
<polygon fill="none" stroke="black" points="122.5,-73 122.5,-92 328.5,-92 328.5,-73 122.5,-73"/>
<text text-anchor="middle" x="225.5" y="-80" font-family="Helvetica,sans-Serif" font-size="10.00">xalanc/Include/PlatformDefinitions.hpp</text>
</a>
</g>
</g>
<!-- Node2&#45;&gt;Node3 -->
<g id="edge2" class="edge">
<title>Node2&#45;&gt;Node3</title>
<path fill="none" stroke="midnightblue" d="M86.09,-201.41C86.31,-183.68 89.29,-153.21 105.5,-134 121.89,-114.57 147.03,-102.47 170.07,-95"/>
<polygon fill="midnightblue" stroke="midnightblue" points="171.22,-98.31 179.79,-92.08 169.2,-91.61 171.22,-98.31"/>
</g>
<!-- Node4 -->
<g id="node4" class="node">
<title>Node4</title>
<g id="a_node4"><a xlink:title=" ">
<polygon fill="none" stroke="#bfbfbf" points="4.5,-0.5 4.5,-30.5 124.5,-30.5 124.5,-0.5 4.5,-0.5"/>
<text text-anchor="start" x="12.5" y="-18.5" font-family="Helvetica,sans-Serif" font-size="10.00">xercesc/util/Xerces</text>
<text text-anchor="middle" x="64.5" y="-7.5" font-family="Helvetica,sans-Serif" font-size="10.00">_autoconf_config.hpp</text>
</a>
</g>
</g>
<!-- Node3&#45;&gt;Node4 -->
<g id="edge3" class="edge">
<title>Node3&#45;&gt;Node4</title>
<path fill="none" stroke="midnightblue" d="M204.12,-72.87C179.86,-63.07 139.62,-46.83 108.56,-34.29"/>
<polygon fill="midnightblue" stroke="midnightblue" points="109.83,-31.03 99.25,-30.53 107.21,-37.52 109.83,-31.03"/>
</g>
<!-- Node5 -->
<g id="node5" class="node">
<title>Node5</title>
<g id="a_node5"><a xlink:title=" ">
<polygon fill="none" stroke="#bfbfbf" points="143,-6 143,-25 308,-25 308,-6 143,-6"/>
<text text-anchor="middle" x="225.5" y="-13" font-family="Helvetica,sans-Serif" font-size="10.00">xercesc/util/XercesVersion.hpp</text>
</a>
</g>
</g>
<!-- Node3&#45;&gt;Node5 -->
<g id="edge4" class="edge">
<title>Node3&#45;&gt;Node5</title>
<path fill="none" stroke="midnightblue" d="M225.5,-72.73C225.5,-63.18 225.5,-47.62 225.5,-35.28"/>
<polygon fill="midnightblue" stroke="midnightblue" points="229,-35.13 225.5,-25.13 222,-35.13 229,-35.13"/>
</g>
<!-- Node6 -->
<g id="node6" class="node">
<title>Node6</title>
<g id="a_node6"><a xlink:href="XalanVersion_8hpp.html" target="_top" xlink:title=" ">
<polygon fill="none" stroke="black" points="326,-6 326,-25 501,-25 501,-6 326,-6"/>
<text text-anchor="middle" x="413.5" y="-13" font-family="Helvetica,sans-Serif" font-size="10.00">xalanc/Include/XalanVersion.hpp</text>
</a>
</g>
</g>
<!-- Node3&#45;&gt;Node6 -->
<g id="edge5" class="edge">
<title>Node3&#45;&gt;Node6</title>
<path fill="none" stroke="midnightblue" d="M250.46,-72.87C283.42,-61.47 341.62,-41.35 378.83,-28.49"/>
<polygon fill="midnightblue" stroke="midnightblue" points="380.42,-31.64 388.73,-25.06 378.14,-25.02 380.42,-31.64"/>
</g>
<!-- Node8 -->
<g id="node8" class="node">
<title>Node8</title>
<g id="a_node8"><a xlink:href="XalanDOMDefinitions_8hpp.html" target="_top" xlink:title=" ">
<polygon fill="none" stroke="black" points="114.5,-140 114.5,-159 346.5,-159 346.5,-140 114.5,-140"/>
<text text-anchor="middle" x="230.5" y="-147" font-family="Helvetica,sans-Serif" font-size="10.00">xalanc/XalanDOM/XalanDOMDefinitions.hpp</text>
</a>
</g>
</g>
<!-- Node7&#45;&gt;Node8 -->
<g id="edge7" class="edge">
<title>Node7&#45;&gt;Node8</title>
<path fill="none" stroke="midnightblue" d="M280.68,-206.73C271.55,-196.5 256.26,-179.36 244.95,-166.69"/>
<polygon fill="midnightblue" stroke="midnightblue" points="247.47,-164.26 238.2,-159.13 242.24,-168.92 247.47,-164.26"/>
</g>
<!-- Node9 -->
<g id="node9" class="node">
<title>Node9</title>
<g id="a_node9"><a xlink:href="XalanMemoryManagement_8hpp.html" target="_top" xlink:title=" ">
<polygon fill="none" stroke="black" points="364.5,-134.5 364.5,-164.5 522.5,-164.5 522.5,-134.5 364.5,-134.5"/>
<text text-anchor="start" x="372.5" y="-152.5" font-family="Helvetica,sans-Serif" font-size="10.00">xalanc/Include/XalanMemory</text>
<text text-anchor="middle" x="443.5" y="-141.5" font-family="Helvetica,sans-Serif" font-size="10.00">Management.hpp</text>
</a>
</g>
</g>
<!-- Node7&#45;&gt;Node9 -->
<g id="edge9" class="edge">
<title>Node7&#45;&gt;Node9</title>
<path fill="none" stroke="midnightblue" d="M309.08,-206.87C332.34,-197.12 370.84,-180.97 400.69,-168.45"/>
<polygon fill="midnightblue" stroke="midnightblue" points="402.18,-171.62 410.05,-164.53 399.47,-165.17 402.18,-171.62"/>
</g>
<!-- Node8&#45;&gt;Node3 -->
<g id="edge8" class="edge">
<title>Node8&#45;&gt;Node3</title>
<path fill="none" stroke="midnightblue" d="M229.83,-139.73C229.09,-130.18 227.89,-114.62 226.94,-102.28"/>
<polygon fill="midnightblue" stroke="midnightblue" points="230.42,-101.83 226.16,-92.13 223.44,-102.37 230.42,-101.83"/>
</g>
<!-- Node9&#45;&gt;Node3 -->
<g id="edge10" class="edge">
<title>Node9&#45;&gt;Node3</title>
<path fill="none" stroke="midnightblue" d="M396.47,-134.48C356.88,-122.67 300.96,-106 264,-94.98"/>
<polygon fill="midnightblue" stroke="midnightblue" points="264.69,-91.53 254.1,-92.03 262.69,-98.24 264.69,-91.53"/>
</g>
<!-- Node10 -->
<g id="node10" class="node">
<title>Node10</title>
<g id="a_node10"><a xlink:title=" ">
<polygon fill="none" stroke="#bfbfbf" points="346.5,-73 346.5,-92 398.5,-92 398.5,-73 346.5,-73"/>
<text text-anchor="middle" x="372.5" y="-80" font-family="Helvetica,sans-Serif" font-size="10.00">cassert</text>
</a>
</g>
</g>
<!-- Node9&#45;&gt;Node10 -->
<g id="edge11" class="edge">
<title>Node9&#45;&gt;Node10</title>
<path fill="none" stroke="midnightblue" d="M428.09,-134.4C416.69,-123.96 401.17,-109.75 389.43,-99"/>
<polygon fill="midnightblue" stroke="midnightblue" points="391.74,-96.37 382,-92.19 387.01,-101.53 391.74,-96.37"/>
</g>
<!-- Node11 -->
<g id="node11" class="node">
<title>Node11</title>
<g id="a_node11"><a xlink:title=" ">
<polygon fill="none" stroke="#bfbfbf" points="417,-73 417,-92 470,-92 470,-73 417,-73"/>
<text text-anchor="middle" x="443.5" y="-80" font-family="Helvetica,sans-Serif" font-size="10.00">cstddef</text>
</a>
</g>
</g>
<!-- Node9&#45;&gt;Node11 -->
<g id="edge12" class="edge">
<title>Node9&#45;&gt;Node11</title>
<path fill="none" stroke="midnightblue" d="M443.5,-134.4C443.5,-125.06 443.5,-112.71 443.5,-102.52"/>
<polygon fill="midnightblue" stroke="midnightblue" points="447,-102.19 443.5,-92.19 440,-102.19 447,-102.19"/>
</g>
<!-- Node12 -->
<g id="node12" class="node">
<title>Node12</title>
<g id="a_node12"><a xlink:title=" ">
<polygon fill="none" stroke="#bfbfbf" points="488,-73 488,-92 525,-92 525,-73 488,-73"/>
<text text-anchor="middle" x="506.5" y="-80" font-family="Helvetica,sans-Serif" font-size="10.00">new</text>
</a>
</g>
</g>
<!-- Node9&#45;&gt;Node12 -->
<g id="edge13" class="edge">
<title>Node9&#45;&gt;Node12</title>
<path fill="none" stroke="midnightblue" d="M457.17,-134.4C467.09,-124.16 480.53,-110.3 490.87,-99.62"/>
<polygon fill="midnightblue" stroke="midnightblue" points="493.63,-101.81 498.07,-92.19 488.6,-96.94 493.63,-101.81"/>
</g>
<!-- Node13 -->
<g id="node13" class="node">
<title>Node13</title>
<g id="a_node13"><a xlink:title=" ">
<polygon fill="none" stroke="#bfbfbf" points="543,-67.5 543,-97.5 696,-97.5 696,-67.5 543,-67.5"/>
<text text-anchor="start" x="551" y="-85.5" font-family="Helvetica,sans-Serif" font-size="10.00">xercesc/framework/Memory</text>
<text text-anchor="middle" x="619.5" y="-74.5" font-family="Helvetica,sans-Serif" font-size="10.00">Manager.hpp</text>
</a>
</g>
</g>
<!-- Node9&#45;&gt;Node13 -->
<g id="edge14" class="edge">
<title>Node9&#45;&gt;Node13</title>
<path fill="none" stroke="midnightblue" d="M481.69,-134.4C508.1,-124.64 543.43,-111.59 571.7,-101.15"/>
<polygon fill="midnightblue" stroke="midnightblue" points="573.22,-104.32 581.39,-97.58 570.79,-97.76 573.22,-104.32"/>
</g>
</g>
</svg>
