<?xml version="1.0" encoding="UTF-8" standalone="no"?>
<!DOCTYPE svg PUBLIC "-//W3C//DTD SVG 1.1//EN"
 "http://www.w3.org/Graphics/SVG/1.1/DTD/svg11.dtd">
<!-- Generated by graphviz version 2.38.0 (20140413.2041)
 -->
<!-- Title: xalanc/PlatformSupport/PlatformSupportInit.hpp Pages: 1 -->
<svg width="643pt" height="307pt"
 viewBox="0.00 0.00 642.50 307.00" xmlns="http://www.w3.org/2000/svg" xmlns:xlink="http://www.w3.org/1999/xlink">
<g id="graph0" class="graph" transform="scale(1 1) rotate(0) translate(4 303)">
<title>xalanc/PlatformSupport/PlatformSupportInit.hpp</title>
<!-- Node1 -->
<g id="node1" class="node"><title>Node1</title>
<g id="a_node1"><a xlink:title=" ">
<polygon fill="#bfbfbf" stroke="black" points="111.5,-268.5 111.5,-298.5 232.5,-298.5 232.5,-268.5 111.5,-268.5"/>
<text text-anchor="start" x="119.5" y="-286.5" font-family="Helvetica,sans-Serif" font-size="10.00">xalanc/PlatformSupport</text>
<text text-anchor="middle" x="172" y="-275.5" font-family="Helvetica,sans-Serif" font-size="10.00">/PlatformSupportInit.hpp</text>
</a>
</g>
</g>
<!-- Node2 -->
<g id="node2" class="node"><title>Node2</title>
<g id="a_node2"><a xlink:href="PlatformSupportDefinitions_8hpp.html" target="_top" xlink:title=" ">
<polygon fill="none" stroke="black" points="4.5,-201.5 4.5,-231.5 157.5,-231.5 157.5,-201.5 4.5,-201.5"/>
<text text-anchor="start" x="12.5" y="-219.5" font-family="Helvetica,sans-Serif" font-size="10.00">xalanc/PlatformSupport</text>
<text text-anchor="middle" x="81" y="-208.5" font-family="Helvetica,sans-Serif" font-size="10.00">/PlatformSupportDefinitions.hpp</text>
</a>
</g>
</g>
<!-- Node1&#45;&gt;Node2 -->
<g id="edge1" class="edge"><title>Node1&#45;&gt;Node2</title>
<path fill="none" stroke="midnightblue" d="M152.254,-268.396C139.614,-259.367 123.02,-247.514 109.026,-237.518"/>
<polygon fill="midnightblue" stroke="midnightblue" points="110.879,-234.541 100.707,-231.577 106.81,-240.237 110.879,-234.541"/>
</g>
<!-- Node7 -->
<g id="node7" class="node"><title>Node7</title>
<g id="a_node7"><a xlink:href="XalanDOMInit_8hpp.html" target="_top" xlink:title=" ">
<polygon fill="none" stroke="black" points="176,-207 176,-226 350,-226 350,-207 176,-207"/>
<text text-anchor="middle" x="263" y="-214" font-family="Helvetica,sans-Serif" font-size="10.00">xalanc/XalanDOM/XalanDOMInit.hpp</text>
</a>
</g>
</g>
<!-- Node1&#45;&gt;Node7 -->
<g id="edge6" class="edge"><title>Node1&#45;&gt;Node7</title>
<path fill="none" stroke="midnightblue" d="M191.746,-268.396C206.865,-257.597 227.641,-242.756 242.858,-231.887"/>
<polygon fill="midnightblue" stroke="midnightblue" points="244.987,-234.667 251.09,-226.007 240.918,-228.971 244.987,-234.667"/>
</g>
<!-- Node3 -->
<g id="node3" class="node"><title>Node3</title>
<g id="a_node3"><a xlink:href="PlatformDefinitions_8hpp.html" target="_top" xlink:title=" ">
<polygon fill="none" stroke="black" points="111,-73 111,-92 293,-92 293,-73 111,-73"/>
<text text-anchor="middle" x="202" y="-80" font-family="Helvetica,sans-Serif" font-size="10.00">xalanc/Include/PlatformDefinitions.hpp</text>
</a>
</g>
</g>
<!-- Node2&#45;&gt;Node3 -->
<g id="edge2" class="edge"><title>Node2&#45;&gt;Node3</title>
<path fill="none" stroke="midnightblue" d="M80.7818,-201.26C81.2386,-183.644 84.4808,-153.586 100,-134 114.725,-115.416 138.057,-103.158 158.691,-95.3793"/>
<polygon fill="midnightblue" stroke="midnightblue" points="159.978,-98.637 168.247,-92.0132 157.652,-92.0346 159.978,-98.637"/>
</g>
<!-- Node4 -->
<g id="node4" class="node"><title>Node4</title>
<g id="a_node4"><a xlink:title=" ">
<polygon fill="none" stroke="#bfbfbf" points="0,-0.5 0,-30.5 108,-30.5 108,-0.5 0,-0.5"/>
<text text-anchor="start" x="8" y="-18.5" font-family="Helvetica,sans-Serif" font-size="10.00">xercesc/util/Xerces</text>
<text text-anchor="middle" x="54" y="-7.5" font-family="Helvetica,sans-Serif" font-size="10.00">_autoconf_config.hpp</text>
</a>
</g>
</g>
<!-- Node3&#45;&gt;Node4 -->
<g id="edge3" class="edge"><title>Node3&#45;&gt;Node4</title>
<path fill="none" stroke="midnightblue" d="M182.347,-72.8685C160.235,-63.1572 123.695,-47.1092 95.246,-34.6148"/>
<polygon fill="midnightblue" stroke="midnightblue" points="96.5042,-31.3447 85.9408,-30.5281 93.6893,-37.7539 96.5042,-31.3447"/>
</g>
<!-- Node5 -->
<g id="node5" class="node"><title>Node5</title>
<g id="a_node5"><a xlink:title=" ">
<polygon fill="none" stroke="#bfbfbf" points="126.5,-6 126.5,-25 277.5,-25 277.5,-6 126.5,-6"/>
<text text-anchor="middle" x="202" y="-13" font-family="Helvetica,sans-Serif" font-size="10.00">xercesc/util/XercesVersion.hpp</text>
</a>
</g>
</g>
<!-- Node3&#45;&gt;Node5 -->
<g id="edge4" class="edge"><title>Node3&#45;&gt;Node5</title>
<path fill="none" stroke="midnightblue" d="M202,-72.7338C202,-63.1826 202,-47.6183 202,-35.2829"/>
<polygon fill="midnightblue" stroke="midnightblue" points="205.5,-35.1273 202,-25.1273 198.5,-35.1273 205.5,-35.1273"/>
</g>
<!-- Node6 -->
<g id="node6" class="node"><title>Node6</title>
<g id="a_node6"><a xlink:href="XalanVersion_8hpp.html" target="_top" xlink:title=" ">
<polygon fill="none" stroke="black" points="296,-6 296,-25 388,-25 388,-6 296,-6"/>
<text text-anchor="middle" x="342" y="-13" font-family="Helvetica,sans-Serif" font-size="10.00">XalanVersion.hpp</text>
</a>
</g>
</g>
<!-- Node3&#45;&gt;Node6 -->
<g id="edge5" class="edge"><title>Node3&#45;&gt;Node6</title>
<path fill="none" stroke="midnightblue" d="M220.591,-72.8685C244.544,-61.7476 286.395,-42.3167 314.154,-29.4286"/>
<polygon fill="midnightblue" stroke="midnightblue" points="315.736,-32.5529 323.332,-25.1672 312.788,-26.2038 315.736,-32.5529"/>
</g>
<!-- Node8 -->
<g id="node8" class="node"><title>Node8</title>
<g id="a_node8"><a xlink:href="XalanDOMDefinitions_8hpp.html" target="_top" xlink:title=" ">
<polygon fill="none" stroke="black" points="109,-140 109,-159 315,-159 315,-140 109,-140"/>
<text text-anchor="middle" x="212" y="-147" font-family="Helvetica,sans-Serif" font-size="10.00">xalanc/XalanDOM/XalanDOMDefinitions.hpp</text>
</a>
</g>
</g>
<!-- Node7&#45;&gt;Node8 -->
<g id="edge7" class="edge"><title>Node7&#45;&gt;Node8</title>
<path fill="none" stroke="midnightblue" d="M256.122,-206.734C248.169,-196.598 234.903,-179.69 224.99,-167.056"/>
<polygon fill="midnightblue" stroke="midnightblue" points="227.696,-164.834 218.769,-159.127 222.188,-169.155 227.696,-164.834"/>
</g>
<!-- Node9 -->
<g id="node9" class="node"><title>Node9</title>
<g id="a_node9"><a xlink:href="XalanMemoryManagement_8hpp.html" target="_top" xlink:title=" ">
<polygon fill="none" stroke="black" points="333,-134.5 333,-164.5 473,-164.5 473,-134.5 333,-134.5"/>
<text text-anchor="start" x="341" y="-152.5" font-family="Helvetica,sans-Serif" font-size="10.00">xalanc/Include/XalanMemory</text>
<text text-anchor="middle" x="403" y="-141.5" font-family="Helvetica,sans-Serif" font-size="10.00">Management.hpp</text>
</a>
</g>
</g>
<!-- Node7&#45;&gt;Node9 -->
<g id="edge9" class="edge"><title>Node7&#45;&gt;Node9</title>
<path fill="none" stroke="midnightblue" d="M281.591,-206.869C302.417,-197.199 336.772,-181.249 363.632,-168.778"/>
<polygon fill="midnightblue" stroke="midnightblue" points="365.19,-171.914 372.786,-164.528 362.242,-165.565 365.19,-171.914"/>
</g>
<!-- Node8&#45;&gt;Node3 -->
<g id="edge8" class="edge"><title>Node8&#45;&gt;Node3</title>
<path fill="none" stroke="midnightblue" d="M210.651,-139.734C209.182,-130.183 206.787,-114.618 204.89,-102.283"/>
<polygon fill="midnightblue" stroke="midnightblue" points="208.307,-101.479 203.327,-92.1273 201.389,-102.543 208.307,-101.479"/>
</g>
<!-- Node9&#45;&gt;Node3 -->
<g id="edge10" class="edge"><title>Node9&#45;&gt;Node3</title>
<path fill="none" stroke="midnightblue" d="M359.386,-134.396C323.026,-122.638 271.853,-106.089 237.845,-95.0916"/>
<polygon fill="midnightblue" stroke="midnightblue" points="238.898,-91.7538 228.306,-92.007 236.744,-98.4142 238.898,-91.7538"/>
</g>
<!-- Node10 -->
<g id="node10" class="node"><title>Node10</title>
<g id="a_node10"><a xlink:title=" ">
<polygon fill="none" stroke="#bfbfbf" points="311.5,-73 311.5,-92 360.5,-92 360.5,-73 311.5,-73"/>
<text text-anchor="middle" x="336" y="-80" font-family="Helvetica,sans-Serif" font-size="10.00">cassert</text>
</a>
</g>
</g>
<!-- Node9&#45;&gt;Node10 -->
<g id="edge11" class="edge"><title>Node9&#45;&gt;Node10</title>
<path fill="none" stroke="midnightblue" d="M388.462,-134.396C377.808,-124.06 363.34,-110.024 352.295,-99.309"/>
<polygon fill="midnightblue" stroke="midnightblue" points="354.577,-96.6456 344.962,-92.1945 349.702,-101.67 354.577,-96.6456"/>
</g>
<!-- Node11 -->
<g id="node11" class="node"><title>Node11</title>
<g id="a_node11"><a xlink:title=" ">
<polygon fill="none" stroke="#bfbfbf" points="379,-73 379,-92 427,-92 427,-73 379,-73"/>
<text text-anchor="middle" x="403" y="-80" font-family="Helvetica,sans-Serif" font-size="10.00">cstddef</text>
</a>
</g>
</g>
<!-- Node9&#45;&gt;Node11 -->
<g id="edge12" class="edge"><title>Node9&#45;&gt;Node11</title>
<path fill="none" stroke="midnightblue" d="M403,-134.396C403,-125.064 403,-112.714 403,-102.517"/>
<polygon fill="midnightblue" stroke="midnightblue" points="406.5,-102.195 403,-92.1945 399.5,-102.195 406.5,-102.195"/>
</g>
<!-- Node12 -->
<g id="node12" class="node"><title>Node12</title>
<g id="a_node12"><a xlink:title=" ">
<polygon fill="none" stroke="#bfbfbf" points="445,-73 445,-92 479,-92 479,-73 445,-73"/>
<text text-anchor="middle" x="462" y="-80" font-family="Helvetica,sans-Serif" font-size="10.00">new</text>
</a>
</g>
</g>
<!-- Node9&#45;&gt;Node12 -->
<g id="edge13" class="edge"><title>Node9&#45;&gt;Node12</title>
<path fill="none" stroke="midnightblue" d="M415.802,-134.396C425.093,-124.161 437.678,-110.296 447.366,-99.622"/>
<polygon fill="midnightblue" stroke="midnightblue" points="449.979,-101.951 454.108,-92.1945 444.795,-97.2467 449.979,-101.951"/>
</g>
<!-- Node13 -->
<g id="node13" class="node"><title>Node13</title>
<g id="a_node13"><a xlink:title=" ">
<polygon fill="none" stroke="#bfbfbf" points="497.5,-67.5 497.5,-97.5 634.5,-97.5 634.5,-67.5 497.5,-67.5"/>
<text text-anchor="start" x="505.5" y="-85.5" font-family="Helvetica,sans-Serif" font-size="10.00">xercesc/framework/Memory</text>
<text text-anchor="middle" x="566" y="-74.5" font-family="Helvetica,sans-Serif" font-size="10.00">Manager.hpp</text>
</a>
</g>
</g>
<!-- Node9&#45;&gt;Node13 -->
<g id="edge14" class="edge"><title>Node9&#45;&gt;Node13</title>
<path fill="none" stroke="midnightblue" d="M438.369,-134.396C462.719,-124.686 495.261,-111.709 521.391,-101.289"/>
<polygon fill="midnightblue" stroke="midnightblue" points="522.708,-104.532 530.7,-97.5765 520.115,-98.0296 522.708,-104.532"/>
</g>
</g>
</svg>
