<?xml version="1.0" encoding="UTF-8" standalone="no"?>
<!DOCTYPE svg PUBLIC "-//W3C//DTD SVG 1.1//EN"
 "http://www.w3.org/Graphics/SVG/1.1/DTD/svg11.dtd">
<!-- Generated by graphviz version 2.43.0 (0)
 -->
<!-- Title: xalanc/PlatformSupport/ReusableArenaAllocator.hpp Pages: 1 -->
<!--zoomable 486 -->
<svg id="main" version="1.1" xmlns="http://www.w3.org/2000/svg" xmlns:xlink="http://www.w3.org/1999/xlink" xml:space="preserve" onload="init(evt)">
<style type="text/css"><![CDATA[
.edge:hover path { stroke: red; }
.edge:hover polygon { stroke: red; fill: red; }
]]></style>
<script type="text/javascript"><![CDATA[
var edges = document.getElementsByTagName('g');
if (edges && edges.length) {
  for (var i=0;i<edges.length;i++) {
    if (edges[i].id.substr(0,4)=='edge') {
      edges[i].setAttribute('class','edge');
    }
  }
}
]]></script>
        <defs>
                <circle id="rim" cx="0" cy="0" r="7"/>
                <circle id="rim2" cx="0" cy="0" r="3.5"/>
                <g id="zoomPlus">
                        <use xlink:href="#rim" fill="#404040">
                                <set attributeName="fill" to="#808080" begin="zoomplus.mouseover" end="zoomplus.mouseout"/>
                        </use>
                        <path d="M-4,0h8M0,-4v8" fill="none" stroke="white" stroke-width="1.5" pointer-events="none"/>
                </g>
                <g id="zoomMin">
                        <use xlink:href="#rim" fill="#404040">
                                <set attributeName="fill" to="#808080" begin="zoomminus.mouseover" end="zoomminus.mouseout"/>
                        </use>
                        <path d="M-4,0h8" fill="none" stroke="white" stroke-width="1.5" pointer-events="none"/>
                </g>
                <g id="dirArrow">
                        <path fill="none" stroke="white" stroke-width="1.5" d="M0,-3.0v7 M-2.5,-0.5L0,-3.0L2.5,-0.5"/>
                </g>
               <g id="resetDef">
                       <use xlink:href="#rim2" fill="#404040">
                               <set attributeName="fill" to="#808080" begin="reset.mouseover" end="reset.mouseout"/>
                       </use>
               </g>
        </defs>

<script type="text/javascript">
var viewWidth = 1394;
var viewHeight = 486;
var sectionId = 'dynsection-0';
</script>
<script xlink:href="svgpan.js"/>
<svg id="graph" class="graph">
<g id="viewport">
<title>xalanc/PlatformSupport/ReusableArenaAllocator.hpp</title>
<!-- Node1 -->
<g id="node1" class="node">
<title>Node1</title>
<g id="a_node1"><a xlink:title=" ">
<polygon fill="#bfbfbf" stroke="black" points="871,-447.5 871,-477.5 1028,-477.5 1028,-447.5 871,-447.5"/>
<text text-anchor="start" x="879" y="-465.5" font-family="Helvetica,sans-Serif" font-size="10.00">xalanc/PlatformSupport</text>
<text text-anchor="middle" x="949.5" y="-454.5" font-family="Helvetica,sans-Serif" font-size="10.00">/ReusableArenaAllocator.hpp</text>
</a>
</g>
</g>
<!-- Node2 -->
<g id="node2" class="node">
<title>Node2</title>
<g id="a_node2"><a xlink:title=" ">
<polygon fill="none" stroke="#bfbfbf" points="1230.5,-140 1230.5,-159 1294.5,-159 1294.5,-140 1230.5,-140"/>
<text text-anchor="middle" x="1262.5" y="-147" font-family="Helvetica,sans-Serif" font-size="10.00">algorithm</text>
</a>
</g>
</g>
<!-- Node1&#45;&gt;Node2 -->
<g id="edge1" class="edge">
<title>Node1&#45;&gt;Node2</title>
<path fill="none" stroke="midnightblue" d="M1028.2,-456.75C1153.79,-446.98 1385.5,-419.07 1385.5,-346 1385.5,-346 1385.5,-346 1385.5,-282.5 1385.5,-226.43 1325.36,-184.23 1289.19,-163.92"/>
<polygon fill="midnightblue" stroke="midnightblue" points="1290.58,-160.7 1280.12,-159.01 1287.25,-166.85 1290.58,-160.7"/>
</g>
<!-- Node3 -->
<g id="node3" class="node">
<title>Node3</title>
<g id="a_node3"><a xlink:href="ReusableArenaBlock_8hpp.html" target="_top" xlink:title=" ">
<polygon fill="none" stroke="black" points="489.5,-335.5 489.5,-354.5 627.5,-354.5 627.5,-335.5 489.5,-335.5"/>
<text text-anchor="middle" x="558.5" y="-342.5" font-family="Helvetica,sans-Serif" font-size="10.00">ReusableArenaBlock.hpp</text>
</a>
</g>
</g>
<!-- Node1&#45;&gt;Node3 -->
<g id="edge2" class="edge">
<title>Node1&#45;&gt;Node3</title>
<path fill="none" stroke="midnightblue" d="M901.95,-447.45C823.77,-424.36 669.59,-378.82 597.45,-357.51"/>
<polygon fill="midnightblue" stroke="midnightblue" points="598,-354.02 587.42,-354.54 596.02,-360.73 598,-354.02"/>
</g>
<!-- Node19 -->
<g id="node19" class="node">
<title>Node19</title>
<g id="a_node19"><a xlink:href="ArenaAllocator_8hpp.html" target="_top" xlink:title=" ">
<polygon fill="none" stroke="black" points="895,-391.5 895,-410.5 1004,-410.5 1004,-391.5 895,-391.5"/>
<text text-anchor="middle" x="949.5" y="-398.5" font-family="Helvetica,sans-Serif" font-size="10.00">ArenaAllocator.hpp</text>
</a>
</g>
</g>
<!-- Node1&#45;&gt;Node19 -->
<g id="edge24" class="edge">
<title>Node1&#45;&gt;Node19</title>
<path fill="none" stroke="midnightblue" d="M949.5,-447.4C949.5,-439.47 949.5,-429.46 949.5,-420.86"/>
<polygon fill="midnightblue" stroke="midnightblue" points="953,-420.66 949.5,-410.66 946,-420.66 953,-420.66"/>
</g>
<!-- Node4 -->
<g id="node4" class="node">
<title>Node4</title>
<g id="a_node4"><a xlink:href="ArenaBlockBase_8hpp.html" target="_top" xlink:title=" ">
<polygon fill="none" stroke="black" points="493,-268.5 493,-298.5 624,-298.5 624,-268.5 493,-268.5"/>
<text text-anchor="start" x="501" y="-286.5" font-family="Helvetica,sans-Serif" font-size="10.00">xalanc/PlatformSupport</text>
<text text-anchor="middle" x="558.5" y="-275.5" font-family="Helvetica,sans-Serif" font-size="10.00">/ArenaBlockBase.hpp</text>
</a>
</g>
</g>
<!-- Node3&#45;&gt;Node4 -->
<g id="edge3" class="edge">
<title>Node3&#45;&gt;Node4</title>
<path fill="none" stroke="midnightblue" d="M558.5,-335.48C558.5,-328.47 558.5,-318.19 558.5,-308.7"/>
<polygon fill="midnightblue" stroke="midnightblue" points="562,-308.52 558.5,-298.52 555,-308.52 562,-308.52"/>
</g>
<!-- Node16 -->
<g id="node16" class="node">
<title>Node16</title>
<g id="a_node16"><a xlink:href="XalanMemMgrAutoPtr_8hpp.html" target="_top" xlink:title=" ">
<polygon fill="none" stroke="black" points="307,-201.5 307,-231.5 468,-231.5 468,-201.5 307,-201.5"/>
<text text-anchor="start" x="315" y="-219.5" font-family="Helvetica,sans-Serif" font-size="10.00">xalanc/Include/XalanMemMgr</text>
<text text-anchor="middle" x="387.5" y="-208.5" font-family="Helvetica,sans-Serif" font-size="10.00">AutoPtr.hpp</text>
</a>
</g>
</g>
<!-- Node3&#45;&gt;Node16 -->
<g id="edge17" class="edge">
<title>Node3&#45;&gt;Node16</title>
<path fill="none" stroke="midnightblue" d="M542.51,-335.41C527,-326.85 503,-312.98 483.5,-299 457.07,-280.05 428.94,-255.6 410.02,-238.45"/>
<polygon fill="midnightblue" stroke="midnightblue" points="412.24,-235.74 402.5,-231.58 407.52,-240.91 412.24,-235.74"/>
</g>
<!-- Node5 -->
<g id="node5" class="node">
<title>Node5</title>
<g id="a_node5"><a xlink:title=" ">
<polygon fill="none" stroke="#bfbfbf" points="411.5,-73 411.5,-92 463.5,-92 463.5,-73 411.5,-73"/>
<text text-anchor="middle" x="437.5" y="-80" font-family="Helvetica,sans-Serif" font-size="10.00">cassert</text>
</a>
</g>
</g>
<!-- Node4&#45;&gt;Node5 -->
<g id="edge4" class="edge">
<title>Node4&#45;&gt;Node5</title>
<path fill="none" stroke="midnightblue" d="M492.98,-278C424.9,-271.94 324.58,-258.68 297.5,-232 266.16,-201.12 257.69,-169.63 283.5,-134 297.5,-114.67 360.56,-98.79 401.52,-90.27"/>
<polygon fill="midnightblue" stroke="midnightblue" points="402.31,-93.68 411.41,-88.26 400.92,-86.82 402.31,-93.68"/>
</g>
<!-- Node6 -->
<g id="node6" class="node">
<title>Node6</title>
<g id="a_node6"><a xlink:title=" ">
<polygon fill="none" stroke="#bfbfbf" points="696,-207 696,-226 761,-226 761,-207 696,-207"/>
<text text-anchor="middle" x="728.5" y="-214" font-family="Helvetica,sans-Serif" font-size="10.00">functional</text>
</a>
</g>
</g>
<!-- Node4&#45;&gt;Node6 -->
<g id="edge5" class="edge">
<title>Node4&#45;&gt;Node6</title>
<path fill="none" stroke="midnightblue" d="M595.39,-268.4C625.61,-256.84 667.94,-240.66 696.69,-229.66"/>
<polygon fill="midnightblue" stroke="midnightblue" points="698.16,-232.85 706.25,-226.01 695.66,-226.31 698.16,-232.85"/>
</g>
<!-- Node7 -->
<g id="node7" class="node">
<title>Node7</title>
<g id="a_node7"><a xlink:href="XalanMemoryManagement_8hpp.html" target="_top" xlink:title=" ">
<polygon fill="none" stroke="black" points="479.5,-134.5 479.5,-164.5 637.5,-164.5 637.5,-134.5 479.5,-134.5"/>
<text text-anchor="start" x="487.5" y="-152.5" font-family="Helvetica,sans-Serif" font-size="10.00">xalanc/Include/XalanMemory</text>
<text text-anchor="middle" x="558.5" y="-141.5" font-family="Helvetica,sans-Serif" font-size="10.00">Management.hpp</text>
</a>
</g>
</g>
<!-- Node4&#45;&gt;Node7 -->
<g id="edge6" class="edge">
<title>Node4&#45;&gt;Node7</title>
<path fill="none" stroke="midnightblue" d="M558.5,-268.37C558.5,-246.04 558.5,-202.31 558.5,-174.85"/>
<polygon fill="midnightblue" stroke="midnightblue" points="562,-174.52 558.5,-164.52 555,-174.52 562,-174.52"/>
</g>
<!-- Node15 -->
<g id="node15" class="node">
<title>Node15</title>
<g id="a_node15"><a xlink:href="XalanAllocator_8hpp.html" target="_top" xlink:title=" ">
<polygon fill="none" stroke="black" points="0,-201.5 0,-231.5 131,-231.5 131,-201.5 0,-201.5"/>
<text text-anchor="start" x="8" y="-219.5" font-family="Helvetica,sans-Serif" font-size="10.00">xalanc/PlatformSupport</text>
<text text-anchor="middle" x="65.5" y="-208.5" font-family="Helvetica,sans-Serif" font-size="10.00">/XalanAllocator.hpp</text>
</a>
</g>
</g>
<!-- Node4&#45;&gt;Node15 -->
<g id="edge15" class="edge">
<title>Node4&#45;&gt;Node15</title>
<path fill="none" stroke="midnightblue" d="M492.89,-275.66C411.29,-266.88 267.81,-250.55 145.5,-232 144.2,-231.8 142.9,-231.6 141.58,-231.4"/>
<polygon fill="midnightblue" stroke="midnightblue" points="141.8,-227.89 131.37,-229.75 140.69,-234.8 141.8,-227.89"/>
</g>
<!-- Node7&#45;&gt;Node5 -->
<g id="edge11" class="edge">
<title>Node7&#45;&gt;Node5</title>
<path fill="none" stroke="midnightblue" d="M532.24,-134.4C511.48,-123.24 482.7,-107.78 462.32,-96.83"/>
<polygon fill="midnightblue" stroke="midnightblue" points="463.8,-93.66 453.34,-92.01 460.49,-99.82 463.8,-93.66"/>
</g>
<!-- Node8 -->
<g id="node8" class="node">
<title>Node8</title>
<g id="a_node8"><a xlink:href="PlatformDefinitions_8hpp.html" target="_top" xlink:title=" ">
<polygon fill="none" stroke="black" points="926.5,-73 926.5,-92 1132.5,-92 1132.5,-73 926.5,-73"/>
<text text-anchor="middle" x="1029.5" y="-80" font-family="Helvetica,sans-Serif" font-size="10.00">xalanc/Include/PlatformDefinitions.hpp</text>
</a>
</g>
</g>
<!-- Node7&#45;&gt;Node8 -->
<g id="edge7" class="edge">
<title>Node7&#45;&gt;Node8</title>
<path fill="none" stroke="midnightblue" d="M637.6,-137.58C727.08,-125.24 871.53,-105.3 957.82,-93.39"/>
<polygon fill="midnightblue" stroke="midnightblue" points="958.36,-96.85 967.79,-92.02 957.4,-89.92 958.36,-96.85"/>
</g>
<!-- Node12 -->
<g id="node12" class="node">
<title>Node12</title>
<g id="a_node12"><a xlink:title=" ">
<polygon fill="none" stroke="#bfbfbf" points="275,-73 275,-92 328,-92 328,-73 275,-73"/>
<text text-anchor="middle" x="301.5" y="-80" font-family="Helvetica,sans-Serif" font-size="10.00">cstddef</text>
</a>
</g>
</g>
<!-- Node7&#45;&gt;Node12 -->
<g id="edge12" class="edge">
<title>Node7&#45;&gt;Node12</title>
<path fill="none" stroke="midnightblue" d="M503.05,-134.48C453.05,-121.83 380.96,-103.6 337.91,-92.71"/>
<polygon fill="midnightblue" stroke="midnightblue" points="338.7,-89.3 328.15,-90.24 336.98,-96.08 338.7,-89.3"/>
</g>
<!-- Node13 -->
<g id="node13" class="node">
<title>Node13</title>
<g id="a_node13"><a xlink:title=" ">
<polygon fill="none" stroke="#bfbfbf" points="653,-73 653,-92 690,-92 690,-73 653,-73"/>
<text text-anchor="middle" x="671.5" y="-80" font-family="Helvetica,sans-Serif" font-size="10.00">new</text>
</a>
</g>
</g>
<!-- Node7&#45;&gt;Node13 -->
<g id="edge13" class="edge">
<title>Node7&#45;&gt;Node13</title>
<path fill="none" stroke="midnightblue" d="M583.02,-134.4C602.23,-123.34 628.8,-108.06 647.8,-97.13"/>
<polygon fill="midnightblue" stroke="midnightblue" points="649.79,-100.03 656.71,-92.01 646.3,-93.96 649.79,-100.03"/>
</g>
<!-- Node14 -->
<g id="node14" class="node">
<title>Node14</title>
<g id="a_node14"><a xlink:title=" ">
<polygon fill="none" stroke="#bfbfbf" points="482,-67.5 482,-97.5 635,-97.5 635,-67.5 482,-67.5"/>
<text text-anchor="start" x="490" y="-85.5" font-family="Helvetica,sans-Serif" font-size="10.00">xercesc/framework/Memory</text>
<text text-anchor="middle" x="558.5" y="-74.5" font-family="Helvetica,sans-Serif" font-size="10.00">Manager.hpp</text>
</a>
</g>
</g>
<!-- Node7&#45;&gt;Node14 -->
<g id="edge14" class="edge">
<title>Node7&#45;&gt;Node14</title>
<path fill="none" stroke="midnightblue" d="M558.5,-134.4C558.5,-126.64 558.5,-116.81 558.5,-107.86"/>
<polygon fill="midnightblue" stroke="midnightblue" points="562,-107.58 558.5,-97.58 555,-107.58 562,-107.58"/>
</g>
<!-- Node9 -->
<g id="node9" class="node">
<title>Node9</title>
<g id="a_node9"><a xlink:title=" ">
<polygon fill="none" stroke="#bfbfbf" points="808.5,-0.5 808.5,-30.5 928.5,-30.5 928.5,-0.5 808.5,-0.5"/>
<text text-anchor="start" x="816.5" y="-18.5" font-family="Helvetica,sans-Serif" font-size="10.00">xercesc/util/Xerces</text>
<text text-anchor="middle" x="868.5" y="-7.5" font-family="Helvetica,sans-Serif" font-size="10.00">_autoconf_config.hpp</text>
</a>
</g>
</g>
<!-- Node8&#45;&gt;Node9 -->
<g id="edge8" class="edge">
<title>Node8&#45;&gt;Node9</title>
<path fill="none" stroke="midnightblue" d="M1008.12,-72.87C983.86,-63.07 943.62,-46.83 912.56,-34.29"/>
<polygon fill="midnightblue" stroke="midnightblue" points="913.83,-31.03 903.25,-30.53 911.21,-37.52 913.83,-31.03"/>
</g>
<!-- Node10 -->
<g id="node10" class="node">
<title>Node10</title>
<g id="a_node10"><a xlink:title=" ">
<polygon fill="none" stroke="#bfbfbf" points="947,-6 947,-25 1112,-25 1112,-6 947,-6"/>
<text text-anchor="middle" x="1029.5" y="-13" font-family="Helvetica,sans-Serif" font-size="10.00">xercesc/util/XercesVersion.hpp</text>
</a>
</g>
</g>
<!-- Node8&#45;&gt;Node10 -->
<g id="edge9" class="edge">
<title>Node8&#45;&gt;Node10</title>
<path fill="none" stroke="midnightblue" d="M1029.5,-72.73C1029.5,-63.18 1029.5,-47.62 1029.5,-35.28"/>
<polygon fill="midnightblue" stroke="midnightblue" points="1033,-35.13 1029.5,-25.13 1026,-35.13 1033,-35.13"/>
</g>
<!-- Node11 -->
<g id="node11" class="node">
<title>Node11</title>
<g id="a_node11"><a xlink:href="XalanVersion_8hpp.html" target="_top" xlink:title=" ">
<polygon fill="none" stroke="black" points="1130,-6 1130,-25 1305,-25 1305,-6 1130,-6"/>
<text text-anchor="middle" x="1217.5" y="-13" font-family="Helvetica,sans-Serif" font-size="10.00">xalanc/Include/XalanVersion.hpp</text>
</a>
</g>
</g>
<!-- Node8&#45;&gt;Node11 -->
<g id="edge10" class="edge">
<title>Node8&#45;&gt;Node11</title>
<path fill="none" stroke="midnightblue" d="M1054.46,-72.87C1087.42,-61.47 1145.62,-41.35 1182.83,-28.49"/>
<polygon fill="midnightblue" stroke="midnightblue" points="1184.42,-31.64 1192.73,-25.06 1182.14,-25.02 1184.42,-31.64"/>
</g>
<!-- Node15&#45;&gt;Node12 -->
<g id="edge16" class="edge">
<title>Node15&#45;&gt;Node12</title>
<path fill="none" stroke="midnightblue" d="M75.83,-201.36C89.75,-183.28 116.16,-152.15 145.5,-134 182.75,-110.96 231.57,-97.38 264.6,-90.2"/>
<polygon fill="midnightblue" stroke="midnightblue" points="265.66,-93.56 274.73,-88.09 264.23,-86.7 265.66,-93.56"/>
</g>
<!-- Node16&#45;&gt;Node5 -->
<g id="edge22" class="edge">
<title>Node16&#45;&gt;Node5</title>
<path fill="none" stroke="midnightblue" d="M338.38,-201.28C320.74,-193.55 302.7,-181.97 292.5,-165 285.4,-153.19 284.52,-145.23 292.5,-134 316.99,-99.54 366.79,-88.39 401.13,-84.9"/>
<polygon fill="midnightblue" stroke="midnightblue" points="401.58,-88.38 411.25,-84.05 400.99,-81.4 401.58,-88.38"/>
</g>
<!-- Node16&#45;&gt;Node7 -->
<g id="edge20" class="edge">
<title>Node16&#45;&gt;Node7</title>
<path fill="none" stroke="midnightblue" d="M424.6,-201.4C450.26,-191.64 484.59,-178.59 512.06,-168.15"/>
<polygon fill="midnightblue" stroke="midnightblue" points="513.36,-171.4 521.47,-164.58 510.88,-164.86 513.36,-171.4"/>
</g>
<!-- Node16&#45;&gt;Node12 -->
<g id="edge21" class="edge">
<title>Node16&#45;&gt;Node12</title>
<path fill="none" stroke="midnightblue" d="M331.4,-201.39C312.9,-193.78 294.31,-182.27 283.5,-165 271.22,-145.39 281.26,-118.54 290.56,-101.11"/>
<polygon fill="midnightblue" stroke="midnightblue" points="293.81,-102.47 295.77,-92.06 287.74,-98.98 293.81,-102.47"/>
</g>
<!-- Node17 -->
<g id="node17" class="node">
<title>Node17</title>
<g id="a_node17"><a xlink:href="PlatformSupportDefinitions_8hpp.html" target="_top" xlink:title=" ">
<polygon fill="none" stroke="black" points="694,-134.5 694,-164.5 867,-164.5 867,-134.5 694,-134.5"/>
<text text-anchor="start" x="702" y="-152.5" font-family="Helvetica,sans-Serif" font-size="10.00">xalanc/PlatformSupport</text>
<text text-anchor="middle" x="780.5" y="-141.5" font-family="Helvetica,sans-Serif" font-size="10.00">/PlatformSupportDefinitions.hpp</text>
</a>
</g>
</g>
<!-- Node16&#45;&gt;Node17 -->
<g id="edge18" class="edge">
<title>Node16&#45;&gt;Node17</title>
<path fill="none" stroke="midnightblue" d="M468.45,-202.11C531.5,-191.68 619.17,-177.18 685.53,-166.21"/>
<polygon fill="midnightblue" stroke="midnightblue" points="686.28,-169.63 695.58,-164.55 685.14,-162.72 686.28,-169.63"/>
</g>
<!-- Node18 -->
<g id="node18" class="node">
<title>Node18</title>
<g id="a_node18"><a xlink:title=" ">
<polygon fill="none" stroke="#bfbfbf" points="302,-140 302,-159 347,-159 347,-140 302,-140"/>
<text text-anchor="middle" x="324.5" y="-147" font-family="Helvetica,sans-Serif" font-size="10.00">utility</text>
</a>
</g>
</g>
<!-- Node16&#45;&gt;Node18 -->
<g id="edge23" class="edge">
<title>Node16&#45;&gt;Node18</title>
<path fill="none" stroke="midnightblue" d="M373.83,-201.4C363.91,-191.16 350.47,-177.3 340.13,-166.62"/>
<polygon fill="midnightblue" stroke="midnightblue" points="342.4,-163.94 332.93,-159.19 337.37,-168.81 342.4,-163.94"/>
</g>
<!-- Node17&#45;&gt;Node8 -->
<g id="edge19" class="edge">
<title>Node17&#45;&gt;Node8</title>
<path fill="none" stroke="midnightblue" d="M834.22,-134.48C880.02,-122.52 944.94,-105.57 987.14,-94.56"/>
<polygon fill="midnightblue" stroke="midnightblue" points="988.04,-97.94 996.83,-92.03 986.27,-91.17 988.04,-97.94"/>
</g>
<!-- Node19&#45;&gt;Node2 -->
<g id="edge25" class="edge">
<title>Node19&#45;&gt;Node2</title>
<path fill="none" stroke="midnightblue" d="M984.42,-391.45C1013.9,-383.66 1056.87,-370.96 1092.5,-355 1136.88,-335.12 1147.49,-328.04 1186.5,-299 1221.82,-272.7 1241.04,-271.98 1259.5,-232 1268.66,-212.15 1267.86,-186.61 1265.79,-169.45"/>
<polygon fill="midnightblue" stroke="midnightblue" points="1269.18,-168.47 1264.25,-159.09 1262.26,-169.49 1269.18,-168.47"/>
</g>
<!-- Node20 -->
<g id="node20" class="node">
<title>Node20</title>
<g id="a_node20"><a xlink:href="STLHelper_8hpp.html" target="_top" xlink:title=" ">
<polygon fill="none" stroke="black" points="923.5,-335.5 923.5,-354.5 1083.5,-354.5 1083.5,-335.5 923.5,-335.5"/>
<text text-anchor="middle" x="1003.5" y="-342.5" font-family="Helvetica,sans-Serif" font-size="10.00">xalanc/Include/STLHelper.hpp</text>
</a>
</g>
</g>
<!-- Node19&#45;&gt;Node20 -->
<g id="edge26" class="edge">
<title>Node19&#45;&gt;Node20</title>
<path fill="none" stroke="midnightblue" d="M958.42,-391.08C966.28,-383.22 977.93,-371.57 987.42,-362.08"/>
<polygon fill="midnightblue" stroke="midnightblue" points="990.15,-364.3 994.75,-354.75 985.2,-359.35 990.15,-364.3"/>
</g>
<!-- Node25 -->
<g id="node25" class="node">
<title>Node25</title>
<g id="a_node25"><a xlink:href="XalanList_8hpp.html" target="_top" xlink:title=" ">
<polygon fill="none" stroke="black" points="817.5,-207 817.5,-226 973.5,-226 973.5,-207 817.5,-207"/>
<text text-anchor="middle" x="895.5" y="-214" font-family="Helvetica,sans-Serif" font-size="10.00">xalanc/Include/XalanList.hpp</text>
</a>
</g>
</g>
<!-- Node19&#45;&gt;Node25 -->
<g id="edge54" class="edge">
<title>Node19&#45;&gt;Node25</title>
<path fill="none" stroke="midnightblue" d="M940.4,-391.28C932.19,-382.82 920.5,-369.23 914.5,-355 897.7,-315.17 895.11,-263.65 895.07,-236.38"/>
<polygon fill="midnightblue" stroke="midnightblue" points="898.57,-236.31 895.18,-226.28 891.57,-236.24 898.57,-236.31"/>
</g>
<!-- Node26 -->
<g id="node26" class="node">
<title>Node26</title>
<g id="a_node26"><a xlink:href="ArenaBlock_8hpp.html" target="_top" xlink:title=" ">
<polygon fill="none" stroke="black" points="710,-335.5 710,-354.5 803,-354.5 803,-335.5 710,-335.5"/>
<text text-anchor="middle" x="756.5" y="-342.5" font-family="Helvetica,sans-Serif" font-size="10.00">ArenaBlock.hpp</text>
</a>
</g>
</g>
<!-- Node19&#45;&gt;Node26 -->
<g id="edge55" class="edge">
<title>Node19&#45;&gt;Node26</title>
<path fill="none" stroke="midnightblue" d="M918.92,-391.44C885.89,-382.2 833.11,-367.44 796.73,-357.26"/>
<polygon fill="midnightblue" stroke="midnightblue" points="797.51,-353.84 786.94,-354.52 795.63,-360.58 797.51,-353.84"/>
</g>
<!-- Node20&#45;&gt;Node2 -->
<g id="edge28" class="edge">
<title>Node20&#45;&gt;Node2</title>
<path fill="none" stroke="midnightblue" d="M1043.51,-335.39C1095.6,-322.13 1186.06,-291.72 1237.5,-232 1252.78,-214.25 1258.73,-187.3 1261.03,-169.31"/>
<polygon fill="midnightblue" stroke="midnightblue" points="1264.53,-169.5 1262.07,-159.2 1257.57,-168.79 1264.53,-169.5"/>
</g>
<!-- Node20&#45;&gt;Node6 -->
<g id="edge29" class="edge">
<title>Node20&#45;&gt;Node6</title>
<path fill="none" stroke="midnightblue" d="M984.6,-335.31C937.09,-313.45 812.5,-256.14 756.49,-230.37"/>
<polygon fill="midnightblue" stroke="midnightblue" points="757.72,-227.09 747.17,-226.09 754.79,-233.45 757.72,-227.09"/>
</g>
<!-- Node20&#45;&gt;Node8 -->
<g id="edge27" class="edge">
<title>Node20&#45;&gt;Node8</title>
<path fill="none" stroke="midnightblue" d="M1072.07,-335.49C1107.75,-329.04 1151.17,-317.93 1186.5,-299 1265.74,-256.55 1361.02,-203.09 1303.5,-134 1282.78,-109.12 1208.8,-96.45 1142.93,-90.02"/>
<polygon fill="midnightblue" stroke="midnightblue" points="1143.14,-86.53 1132.86,-89.08 1142.49,-93.5 1143.14,-86.53"/>
</g>
<!-- Node21 -->
<g id="node21" class="node">
<title>Node21</title>
<g id="a_node21"><a xlink:href="XalanMap_8hpp.html" target="_top" xlink:title=" ">
<polygon fill="none" stroke="black" points="923.5,-274 923.5,-293 1083.5,-293 1083.5,-274 923.5,-274"/>
<text text-anchor="middle" x="1003.5" y="-281" font-family="Helvetica,sans-Serif" font-size="10.00">xalanc/Include/XalanMap.hpp</text>
</a>
</g>
</g>
<!-- Node20&#45;&gt;Node21 -->
<g id="edge30" class="edge">
<title>Node20&#45;&gt;Node21</title>
<path fill="none" stroke="midnightblue" d="M1003.5,-335.48C1003.5,-327.08 1003.5,-313.98 1003.5,-303.16"/>
<polygon fill="midnightblue" stroke="midnightblue" points="1007,-303.01 1003.5,-293.01 1000,-303.01 1007,-303.01"/>
</g>
<!-- Node21&#45;&gt;Node2 -->
<g id="edge33" class="edge">
<title>Node21&#45;&gt;Node2</title>
<path fill="none" stroke="midnightblue" d="M1083.63,-276.85C1124.37,-270.69 1172.87,-258 1209.5,-232 1231.92,-216.08 1247.27,-187.41 1255.47,-168.67"/>
<polygon fill="midnightblue" stroke="midnightblue" points="1258.8,-169.77 1259.38,-159.19 1252.33,-167.1 1258.8,-169.77"/>
</g>
<!-- Node21&#45;&gt;Node6 -->
<g id="edge34" class="edge">
<title>Node21&#45;&gt;Node6</title>
<path fill="none" stroke="midnightblue" d="M959.96,-273.95C913.89,-264.66 839.19,-248.85 775.5,-232 771.9,-231.05 768.17,-230 764.45,-228.92"/>
<polygon fill="midnightblue" stroke="midnightblue" points="765.32,-225.53 754.74,-226.01 763.32,-232.23 765.32,-225.53"/>
</g>
<!-- Node21&#45;&gt;Node8 -->
<g id="edge31" class="edge">
<title>Node21&#45;&gt;Node8</title>
<path fill="none" stroke="midnightblue" d="M1083.82,-278.31C1116.09,-272.19 1150.37,-259.12 1170.5,-232 1184.99,-212.48 1167.01,-146.5 1156.5,-134 1139.92,-114.29 1114.57,-102.21 1090.87,-94.84"/>
<polygon fill="midnightblue" stroke="midnightblue" points="1091.77,-91.46 1081.19,-92.06 1089.83,-98.19 1091.77,-91.46"/>
</g>
<!-- Node21&#45;&gt;Node12 -->
<g id="edge32" class="edge">
<title>Node21&#45;&gt;Node12</title>
<path fill="none" stroke="midnightblue" d="M923.46,-279.13C743.77,-271.25 321.99,-250.84 297.5,-232 262.04,-204.72 263.63,-177.4 274.5,-134 277.44,-122.26 283.69,-110.27 289.43,-100.92"/>
<polygon fill="midnightblue" stroke="midnightblue" points="292.56,-102.54 295.08,-92.25 286.69,-98.72 292.56,-102.54"/>
</g>
<!-- Node21&#45;&gt;Node18 -->
<g id="edge35" class="edge">
<title>Node21&#45;&gt;Node18</title>
<path fill="none" stroke="midnightblue" d="M944.93,-273.93C904.98,-266.53 851.69,-253.53 808.5,-232 788.68,-222.12 790.07,-209.2 769.5,-201 597.92,-132.64 533.89,-212.86 355.5,-165 353.56,-164.48 351.6,-163.85 349.65,-163.14"/>
<polygon fill="midnightblue" stroke="midnightblue" points="350.76,-159.81 340.18,-159.14 348.03,-166.25 350.76,-159.81"/>
</g>
<!-- Node22 -->
<g id="node22" class="node">
<title>Node22</title>
<g id="a_node22"><a xlink:href="XalanVector_8hpp.html" target="_top" xlink:title=" ">
<polygon fill="none" stroke="black" points="992,-207 992,-226 1161,-226 1161,-207 992,-207"/>
<text text-anchor="middle" x="1076.5" y="-214" font-family="Helvetica,sans-Serif" font-size="10.00">xalanc/Include/XalanVector.hpp</text>
</a>
</g>
</g>
<!-- Node21&#45;&gt;Node22 -->
<g id="edge36" class="edge">
<title>Node21&#45;&gt;Node22</title>
<path fill="none" stroke="midnightblue" d="M1013.35,-273.73C1025.06,-263.31 1044.82,-245.71 1059.12,-232.97"/>
<polygon fill="midnightblue" stroke="midnightblue" points="1061.67,-235.39 1066.81,-226.13 1057.01,-230.16 1061.67,-235.39"/>
</g>
<!-- Node21&#45;&gt;Node25 -->
<g id="edge45" class="edge">
<title>Node21&#45;&gt;Node25</title>
<path fill="none" stroke="midnightblue" d="M988.93,-273.73C970.88,-262.87 939.89,-244.22 918.58,-231.39"/>
<polygon fill="midnightblue" stroke="midnightblue" points="920.21,-228.29 909.83,-226.13 916.6,-234.28 920.21,-228.29"/>
</g>
<!-- Node22&#45;&gt;Node2 -->
<g id="edge39" class="edge">
<title>Node22&#45;&gt;Node2</title>
<path fill="none" stroke="midnightblue" d="M1101.2,-206.87C1133.81,-195.47 1191.38,-175.35 1228.2,-162.49"/>
<polygon fill="midnightblue" stroke="midnightblue" points="1229.71,-165.67 1237.99,-159.06 1227.4,-159.06 1229.71,-165.67"/>
</g>
<!-- Node22&#45;&gt;Node5 -->
<g id="edge40" class="edge">
<title>Node22&#45;&gt;Node5</title>
<path fill="none" stroke="midnightblue" d="M1078.94,-206.86C1083.08,-190.12 1089.23,-153.23 1069.5,-134 1021.92,-87.61 537.26,-112.92 472.5,-98 469.83,-97.38 467.1,-96.58 464.4,-95.68"/>
<polygon fill="midnightblue" stroke="midnightblue" points="465.52,-92.36 454.93,-92.05 463.02,-98.9 465.52,-92.36"/>
</g>
<!-- Node22&#45;&gt;Node7 -->
<g id="edge44" class="edge">
<title>Node22&#45;&gt;Node7</title>
<path fill="none" stroke="midnightblue" d="M1023.35,-206.97C1010.03,-204.93 995.75,-202.81 982.5,-201 919.88,-192.44 752.6,-172.88 647.84,-160.77"/>
<polygon fill="midnightblue" stroke="midnightblue" points="648.24,-157.3 637.9,-159.63 647.44,-164.25 648.24,-157.3"/>
</g>
<!-- Node22&#45;&gt;Node8 -->
<g id="edge37" class="edge">
<title>Node22&#45;&gt;Node8</title>
<path fill="none" stroke="midnightblue" d="M1094.96,-206.85C1110.31,-198.53 1131.12,-184.36 1140.5,-165 1146.51,-152.6 1147.96,-145.59 1140.5,-134 1128.03,-114.63 1106.1,-102.6 1085.01,-95.17"/>
<polygon fill="midnightblue" stroke="midnightblue" points="1086.01,-91.81 1075.41,-92.07 1083.86,-98.48 1086.01,-91.81"/>
</g>
<!-- Node22&#45;&gt;Node12 -->
<g id="edge38" class="edge">
<title>Node22&#45;&gt;Node12</title>
<path fill="none" stroke="midnightblue" d="M1026.36,-206.98C1012.21,-204.79 996.78,-202.6 982.5,-201 755.8,-175.59 690.96,-223.59 470.5,-165 441.33,-157.25 365.85,-118.02 326.38,-96.94"/>
<polygon fill="midnightblue" stroke="midnightblue" points="327.64,-93.65 317.17,-92 324.33,-99.81 327.64,-93.65"/>
</g>
<!-- Node22&#45;&gt;Node13 -->
<g id="edge41" class="edge">
<title>Node22&#45;&gt;Node13</title>
<path fill="none" stroke="midnightblue" d="M1084.12,-206.76C1097.35,-190.5 1121.45,-155.3 1102.5,-134 1075.7,-103.88 792.4,-88.82 700.27,-84.7"/>
<polygon fill="midnightblue" stroke="midnightblue" points="700.16,-81.19 690.01,-84.25 699.85,-88.18 700.16,-81.19"/>
</g>
<!-- Node23 -->
<g id="node23" class="node">
<title>Node23</title>
<g id="a_node23"><a xlink:title=" ">
<polygon fill="none" stroke="#bfbfbf" points="924,-140 924,-159 977,-159 977,-140 924,-140"/>
<text text-anchor="middle" x="950.5" y="-147" font-family="Helvetica,sans-Serif" font-size="10.00">iterator</text>
</a>
</g>
</g>
<!-- Node22&#45;&gt;Node23 -->
<g id="edge42" class="edge">
<title>Node22&#45;&gt;Node23</title>
<path fill="none" stroke="midnightblue" d="M1059.77,-206.87C1038.4,-195.84 1001.2,-176.66 976.22,-163.77"/>
<polygon fill="midnightblue" stroke="midnightblue" points="977.79,-160.64 967.3,-159.17 974.58,-166.86 977.79,-160.64"/>
</g>
<!-- Node24 -->
<g id="node24" class="node">
<title>Node24</title>
<g id="a_node24"><a xlink:title=" ">
<polygon fill="none" stroke="#bfbfbf" points="995,-140 995,-159 1060,-159 1060,-140 995,-140"/>
<text text-anchor="middle" x="1027.5" y="-147" font-family="Helvetica,sans-Serif" font-size="10.00">stdexcept</text>
</a>
</g>
</g>
<!-- Node22&#45;&gt;Node24 -->
<g id="edge43" class="edge">
<title>Node22&#45;&gt;Node24</title>
<path fill="none" stroke="midnightblue" d="M1069.89,-206.73C1062.32,-196.7 1049.75,-180.01 1040.26,-167.42"/>
<polygon fill="midnightblue" stroke="midnightblue" points="1042.82,-165.01 1034,-159.13 1037.23,-169.22 1042.82,-165.01"/>
</g>
<!-- Node25&#45;&gt;Node2 -->
<g id="edge48" class="edge">
<title>Node25&#45;&gt;Node2</title>
<path fill="none" stroke="midnightblue" d="M943.86,-206.94C1016.24,-194.11 1151.6,-170.14 1220.25,-157.98"/>
<polygon fill="midnightblue" stroke="midnightblue" points="1221.04,-161.4 1230.27,-156.21 1219.82,-154.51 1221.04,-161.4"/>
</g>
<!-- Node25&#45;&gt;Node5 -->
<g id="edge49" class="edge">
<title>Node25&#45;&gt;Node5</title>
<path fill="none" stroke="midnightblue" d="M843.99,-206.93C830.81,-204.86 816.64,-202.75 803.5,-201 729.72,-191.2 529.89,-209.86 470.5,-165 450.74,-150.07 442.77,-121.33 439.58,-102.28"/>
<polygon fill="midnightblue" stroke="midnightblue" points="443.02,-101.55 438.18,-92.12 436.08,-102.51 443.02,-101.55"/>
</g>
<!-- Node25&#45;&gt;Node7 -->
<g id="edge53" class="edge">
<title>Node25&#45;&gt;Node7</title>
<path fill="none" stroke="midnightblue" d="M851.1,-206.94C797.89,-196.67 707.62,-179.26 641.39,-166.49"/>
<polygon fill="midnightblue" stroke="midnightblue" points="641.87,-163.02 631.39,-164.56 640.55,-169.89 641.87,-163.02"/>
</g>
<!-- Node25&#45;&gt;Node8 -->
<g id="edge46" class="edge">
<title>Node25&#45;&gt;Node8</title>
<path fill="none" stroke="midnightblue" d="M895.26,-206.79C895.27,-190.57 897.54,-155.44 915.5,-134 931.54,-114.85 956.29,-102.7 978.64,-95.13"/>
<polygon fill="midnightblue" stroke="midnightblue" points="979.88,-98.41 988.36,-92.07 977.77,-91.74 979.88,-98.41"/>
</g>
<!-- Node25&#45;&gt;Node12 -->
<g id="edge47" class="edge">
<title>Node25&#45;&gt;Node12</title>
<path fill="none" stroke="midnightblue" d="M845.45,-206.98C831.87,-204.84 817.14,-202.68 803.5,-201 714.04,-189.98 482.82,-199.38 399.5,-165 381.28,-157.48 340.97,-120.97 318.13,-99.45"/>
<polygon fill="midnightblue" stroke="midnightblue" points="320.24,-96.63 310.58,-92.28 315.42,-101.71 320.24,-96.63"/>
</g>
<!-- Node25&#45;&gt;Node13 -->
<g id="edge50" class="edge">
<title>Node25&#45;&gt;Node13</title>
<path fill="none" stroke="midnightblue" d="M847.85,-206.98C789.11,-196.03 695.63,-177.02 684.5,-165 668.94,-148.2 667.74,-120.61 669.04,-102.25"/>
<polygon fill="midnightblue" stroke="midnightblue" points="672.53,-102.49 670.06,-92.19 665.57,-101.79 672.53,-102.49"/>
</g>
<!-- Node25&#45;&gt;Node23 -->
<g id="edge51" class="edge">
<title>Node25&#45;&gt;Node23</title>
<path fill="none" stroke="midnightblue" d="M902.92,-206.73C911.49,-196.6 925.8,-179.69 936.49,-167.06"/>
<polygon fill="midnightblue" stroke="midnightblue" points="939.41,-169.02 943.2,-159.13 934.07,-164.5 939.41,-169.02"/>
</g>
<!-- Node25&#45;&gt;Node24 -->
<g id="edge52" class="edge">
<title>Node25&#45;&gt;Node24</title>
<path fill="none" stroke="midnightblue" d="M913.03,-206.87C935.51,-195.8 974.73,-176.49 1000.9,-163.6"/>
<polygon fill="midnightblue" stroke="midnightblue" points="1002.47,-166.72 1009.9,-159.17 999.38,-160.44 1002.47,-166.72"/>
</g>
<!-- Node26&#45;&gt;Node4 -->
<g id="edge56" class="edge">
<title>Node26&#45;&gt;Node4</title>
<path fill="none" stroke="midnightblue" d="M728.13,-335.48C698.68,-326.63 651.84,-312.55 614.83,-301.43"/>
<polygon fill="midnightblue" stroke="midnightblue" points="615.75,-298.05 605.16,-298.52 613.73,-304.75 615.75,-298.05"/>
</g>
</g>
</svg>
        <g id="navigator" transform="translate(0 0)" fill="#404254">
                <rect fill="#f2f5e9" fill-opacity="0.5" stroke="#606060" stroke-width=".5" x="0" y="0" width="60" height="60"/>
                <use id="zoomplus" xlink:href="#zoomPlus" x="17" y="9" onmousedown="handleZoom(evt,'in')"/>
                <use id="zoomminus" xlink:href="#zoomMin" x="42" y="9" onmousedown="handleZoom(evt,'out')"/>
                <use id="reset" xlink:href="#resetDef" x="30" y="36" onmousedown="handleReset()"/>
                <g id="arrowUp" xlink:href="#dirArrow" transform="translate(30 24)" onmousedown="handlePan(0,-1)">
                  <use xlink:href="#rim" fill="#404040">
                        <set attributeName="fill" to="#808080" begin="arrowUp.mouseover" end="arrowUp.mouseout"/>
                  </use>
                  <path fill="none" stroke="white" stroke-width="1.5" d="M0,-3.0v7 M-2.5,-0.5L0,-3.0L2.5,-0.5"/>
                </g>
                <g id="arrowRight" xlink:href="#dirArrow" transform="rotate(90) translate(36 -43)" onmousedown="handlePan(1,0)">
                  <use xlink:href="#rim" fill="#404040">
                        <set attributeName="fill" to="#808080" begin="arrowRight.mouseover" end="arrowRight.mouseout"/>
                  </use>
                  <path fill="none" stroke="white" stroke-width="1.5" d="M0,-3.0v7 M-2.5,-0.5L0,-3.0L2.5,-0.5"/>
                </g>
                <g id="arrowDown" xlink:href="#dirArrow" transform="rotate(180) translate(-30 -48)" onmousedown="handlePan(0,1)">
                  <use xlink:href="#rim" fill="#404040">
                        <set attributeName="fill" to="#808080" begin="arrowDown.mouseover" end="arrowDown.mouseout"/>
                  </use>
                  <path fill="none" stroke="white" stroke-width="1.5" d="M0,-3.0v7 M-2.5,-0.5L0,-3.0L2.5,-0.5"/>
                </g>
                <g id="arrowLeft" xlink:href="#dirArrow" transform="rotate(270) translate(-36 17)" onmousedown="handlePan(-1,0)">
                  <use xlink:href="#rim" fill="#404040">
                        <set attributeName="fill" to="#808080" begin="arrowLeft.mouseover" end="arrowLeft.mouseout"/>
                  </use>
                  <path fill="none" stroke="white" stroke-width="1.5" d="M0,-3.0v7 M-2.5,-0.5L0,-3.0L2.5,-0.5"/>
                </g>
        </g>
        <svg viewBox="0 0 15 15" width="100%" height="30px" preserveAspectRatio="xMaxYMin meet">
         <g id="arrow_out" transform="scale(0.3 0.3)">
          <a xlink:href="ReusableArenaAllocator_8hpp__incl_org.svg" target="_base">
           <rect id="button" ry="5" rx="5" y="6" x="6" height="38" width="38"
                fill="#f2f5e9" fill-opacity="0.5" stroke="#606060" stroke-width="1.0"/>
           <path id="arrow"
             d="M 11.500037,31.436501 C 11.940474,20.09759 22.043105,11.32322 32.158766,21.979434 L 37.068811,17.246167 C 37.068811,17.246167 37.088388,32 37.088388,32 L 22.160133,31.978069 C 22.160133,31.978069 26.997745,27.140456 26.997745,27.140456 C 18.528582,18.264221 13.291696,25.230495 11.500037,31.436501 z"
             style="fill:#404040;"/>
          </a>
         </g>
        </svg>
</svg>
