<?xml version="1.0" encoding="UTF-8" standalone="no"?>
<!DOCTYPE svg PUBLIC "-//W3C//DTD SVG 1.1//EN"
 "http://www.w3.org/Graphics/SVG/1.1/DTD/svg11.dtd">
<!-- Generated by graphviz version 2.38.0 (20140413.2041)
 -->
<!-- Title: xalanc/PlatformSupport/ReusableArenaBlock.hpp Pages: 1 -->
<svg width="2489pt" height="441pt"
 viewBox="0.00 0.00 2488.50 441.00" xmlns="http://www.w3.org/2000/svg" xmlns:xlink="http://www.w3.org/1999/xlink">
<g id="graph0" class="graph" transform="scale(1 1) rotate(0) translate(4 437)">
<title>xalanc/PlatformSupport/ReusableArenaBlock.hpp</title>
<!-- Node1 -->
<g id="node1" class="node"><title>Node1</title>
<g id="a_node1"><a xlink:title=" ">
<polygon fill="#bfbfbf" stroke="black" points="1208.5,-402.5 1208.5,-432.5 1337.5,-432.5 1337.5,-402.5 1208.5,-402.5"/>
<text text-anchor="start" x="1216.5" y="-420.5" font-family="Helvetica,sans-Serif" font-size="10.00">xalanc/PlatformSupport</text>
<text text-anchor="middle" x="1273" y="-409.5" font-family="Helvetica,sans-Serif" font-size="10.00">/ReusableArenaBlock.hpp</text>
</a>
</g>
</g>
<!-- Node2 -->
<g id="node2" class="node"><title>Node2</title>
<g id="a_node2"><a xlink:href="ReusableArenaAllocator_8hpp.html" target="_top" xlink:title=" ">
<polygon fill="none" stroke="black" points="1201.5,-335.5 1201.5,-365.5 1344.5,-365.5 1344.5,-335.5 1201.5,-335.5"/>
<text text-anchor="start" x="1209.5" y="-353.5" font-family="Helvetica,sans-Serif" font-size="10.00">xalanc/PlatformSupport</text>
<text text-anchor="middle" x="1273" y="-342.5" font-family="Helvetica,sans-Serif" font-size="10.00">/ReusableArenaAllocator.hpp</text>
</a>
</g>
</g>
<!-- Node1&#45;&gt;Node2 -->
<g id="edge1" class="edge"><title>Node1&#45;&gt;Node2</title>
<path fill="none" stroke="midnightblue" d="M1273,-392.108C1273,-383.154 1273,-373.323 1273,-365.577"/>
<polygon fill="midnightblue" stroke="midnightblue" points="1269.5,-392.396 1273,-402.396 1276.5,-392.396 1269.5,-392.396"/>
</g>
<!-- Node3 -->
<g id="node3" class="node"><title>Node3</title>
<g id="a_node3"><a xlink:href="XalanDOMStringReusableAllocator_8hpp.html" target="_top" xlink:title=" ">
<polygon fill="none" stroke="black" points="80,-268.5 80,-298.5 268,-298.5 268,-268.5 80,-268.5"/>
<text text-anchor="start" x="88" y="-286.5" font-family="Helvetica,sans-Serif" font-size="10.00">xalanc/PlatformSupport</text>
<text text-anchor="middle" x="174" y="-275.5" font-family="Helvetica,sans-Serif" font-size="10.00">/XalanDOMStringReusableAllocator.hpp</text>
</a>
</g>
</g>
<!-- Node2&#45;&gt;Node3 -->
<g id="edge2" class="edge"><title>Node2&#45;&gt;Node3</title>
<path fill="none" stroke="midnightblue" d="M1191.13,-347.82C1020.69,-343.778 615.44,-331.337 277,-299 274.124,-298.725 271.205,-298.428 268.259,-298.113"/>
<polygon fill="midnightblue" stroke="midnightblue" points="1191.2,-351.322 1201.28,-348.057 1191.36,-344.324 1191.2,-351.322"/>
</g>
<!-- Node14 -->
<g id="node14" class="node"><title>Node14</title>
<g id="a_node14"><a xlink:href="XNodeSetAllocator_8hpp.html" target="_top" xlink:title=" ">
<polygon fill="none" stroke="black" points="920,-274 920,-293 1096,-293 1096,-274 920,-274"/>
<text text-anchor="middle" x="1008" y="-281" font-family="Helvetica,sans-Serif" font-size="10.00">xalanc/XPath/XNodeSetAllocator.hpp</text>
</a>
</g>
</g>
<!-- Node2&#45;&gt;Node14 -->
<g id="edge15" class="edge"><title>Node2&#45;&gt;Node14</title>
<path fill="none" stroke="midnightblue" d="M1206.01,-333.069C1154.05,-320.323 1084.11,-303.169 1042.77,-293.029"/>
<polygon fill="midnightblue" stroke="midnightblue" points="1205.28,-336.493 1215.83,-335.476 1206.95,-329.694 1205.28,-336.493"/>
</g>
<!-- Node17 -->
<g id="node17" class="node"><title>Node17</title>
<g id="a_node17"><a xlink:href="XNodeSetNodeProxyAllocator_8hpp.html" target="_top" xlink:title=" ">
<polygon fill="none" stroke="black" points="1114,-268.5 1114,-298.5 1256,-298.5 1256,-268.5 1114,-268.5"/>
<text text-anchor="start" x="1122" y="-286.5" font-family="Helvetica,sans-Serif" font-size="10.00">xalanc/XPath/XNodeSetNode</text>
<text text-anchor="middle" x="1185" y="-275.5" font-family="Helvetica,sans-Serif" font-size="10.00">ProxyAllocator.hpp</text>
</a>
</g>
</g>
<!-- Node2&#45;&gt;Node17 -->
<g id="edge18" class="edge"><title>Node2&#45;&gt;Node17</title>
<path fill="none" stroke="midnightblue" d="M1245.86,-329.451C1232.32,-319.452 1216.27,-307.6 1204.06,-298.577"/>
<polygon fill="midnightblue" stroke="midnightblue" points="1243.78,-332.27 1253.91,-335.396 1247.94,-326.639 1243.78,-332.27"/>
</g>
<!-- Node18 -->
<g id="node18" class="node"><title>Node18</title>
<g id="a_node18"><a xlink:href="XNumberAllocator_8hpp.html" target="_top" xlink:title=" ">
<polygon fill="none" stroke="black" points="1274.5,-274 1274.5,-293 1447.5,-293 1447.5,-274 1274.5,-274"/>
<text text-anchor="middle" x="1361" y="-281" font-family="Helvetica,sans-Serif" font-size="10.00">xalanc/XPath/XNumberAllocator.hpp</text>
</a>
</g>
</g>
<!-- Node2&#45;&gt;Node18 -->
<g id="edge20" class="edge"><title>Node2&#45;&gt;Node18</title>
<path fill="none" stroke="midnightblue" d="M1300.34,-329.306C1316.86,-317.1 1337.07,-302.177 1349.48,-293.007"/>
<polygon fill="midnightblue" stroke="midnightblue" points="1298.06,-326.639 1292.09,-335.396 1302.22,-332.27 1298.06,-326.639"/>
</g>
<!-- Node19 -->
<g id="node19" class="node"><title>Node19</title>
<g id="a_node19"><a xlink:href="XStringAdapterAllocator_8hpp.html" target="_top" xlink:title=" ">
<polygon fill="none" stroke="black" points="1465.5,-268.5 1465.5,-298.5 1606.5,-298.5 1606.5,-268.5 1465.5,-268.5"/>
<text text-anchor="start" x="1473.5" y="-286.5" font-family="Helvetica,sans-Serif" font-size="10.00">xalanc/XPath/XStringAdapter</text>
<text text-anchor="middle" x="1536" y="-275.5" font-family="Helvetica,sans-Serif" font-size="10.00">Allocator.hpp</text>
</a>
</g>
</g>
<!-- Node2&#45;&gt;Node19 -->
<g id="edge22" class="edge"><title>Node2&#45;&gt;Node19</title>
<path fill="none" stroke="midnightblue" d="M1339.55,-333.052C1382.55,-322.425 1437.92,-308.741 1478.91,-298.611"/>
<polygon fill="midnightblue" stroke="midnightblue" points="1338.61,-329.679 1329.74,-335.476 1340.29,-336.474 1338.61,-329.679"/>
</g>
<!-- Node20 -->
<g id="node20" class="node"><title>Node20</title>
<g id="a_node20"><a xlink:href="XStringAllocator_8hpp.html" target="_top" xlink:title=" ">
<polygon fill="none" stroke="black" points="1625,-274 1625,-293 1789,-293 1789,-274 1625,-274"/>
<text text-anchor="middle" x="1707" y="-281" font-family="Helvetica,sans-Serif" font-size="10.00">xalanc/XPath/XStringAllocator.hpp</text>
</a>
</g>
</g>
<!-- Node2&#45;&gt;Node20 -->
<g id="edge24" class="edge"><title>Node2&#45;&gt;Node20</title>
<path fill="none" stroke="midnightblue" d="M1354.66,-337.755C1424.18,-327.689 1526.69,-312.69 1616,-299 1628.33,-297.109 1641.6,-295.025 1654.09,-293.04"/>
<polygon fill="midnightblue" stroke="midnightblue" points="1354.04,-334.308 1344.64,-339.204 1355.04,-341.236 1354.04,-334.308"/>
</g>
<!-- Node21 -->
<g id="node21" class="node"><title>Node21</title>
<g id="a_node21"><a xlink:href="XStringCachedAllocator_8hpp.html" target="_top" xlink:title=" ">
<polygon fill="none" stroke="black" points="1807,-268.5 1807,-298.5 1947,-298.5 1947,-268.5 1807,-268.5"/>
<text text-anchor="start" x="1815" y="-286.5" font-family="Helvetica,sans-Serif" font-size="10.00">xalanc/XPath/XStringCached</text>
<text text-anchor="middle" x="1877" y="-275.5" font-family="Helvetica,sans-Serif" font-size="10.00">Allocator.hpp</text>
</a>
</g>
</g>
<!-- Node2&#45;&gt;Node21 -->
<g id="edge26" class="edge"><title>Node2&#45;&gt;Node21</title>
<path fill="none" stroke="midnightblue" d="M1354.62,-343.826C1458.08,-336.134 1641.78,-320.809 1798,-299 1800.9,-298.595 1803.86,-298.159 1806.84,-297.7"/>
<polygon fill="midnightblue" stroke="midnightblue" points="1354.27,-340.342 1344.56,-344.569 1354.79,-347.323 1354.27,-340.342"/>
</g>
<!-- Node22 -->
<g id="node22" class="node"><title>Node22</title>
<g id="a_node22"><a xlink:href="XStringReferenceAllocator_8hpp.html" target="_top" xlink:title=" ">
<polygon fill="none" stroke="black" points="1965.5,-268.5 1965.5,-298.5 2116.5,-298.5 2116.5,-268.5 1965.5,-268.5"/>
<text text-anchor="start" x="1973.5" y="-286.5" font-family="Helvetica,sans-Serif" font-size="10.00">xalanc/XPath/XStringReference</text>
<text text-anchor="middle" x="2041" y="-275.5" font-family="Helvetica,sans-Serif" font-size="10.00">Allocator.hpp</text>
</a>
</g>
</g>
<!-- Node2&#45;&gt;Node22 -->
<g id="edge28" class="edge"><title>Node2&#45;&gt;Node22</title>
<path fill="none" stroke="midnightblue" d="M1354.65,-345.979C1483,-339.877 1739.68,-325.388 1956,-299 1958.97,-298.637 1962,-298.243 1965.05,-297.824"/>
<polygon fill="midnightblue" stroke="midnightblue" points="1354.33,-342.49 1344.51,-346.456 1354.66,-349.482 1354.33,-342.49"/>
</g>
<!-- Node23 -->
<g id="node23" class="node"><title>Node23</title>
<g id="a_node23"><a xlink:href="XTokenNumberAdapterAllocator_8hpp.html" target="_top" xlink:title=" ">
<polygon fill="none" stroke="black" points="608,-268.5 608,-298.5 750,-298.5 750,-268.5 608,-268.5"/>
<text text-anchor="start" x="616" y="-286.5" font-family="Helvetica,sans-Serif" font-size="10.00">xalanc/XPath/XTokenNumber</text>
<text text-anchor="middle" x="679" y="-275.5" font-family="Helvetica,sans-Serif" font-size="10.00">AdapterAllocator.hpp</text>
</a>
</g>
</g>
<!-- Node2&#45;&gt;Node23 -->
<g id="edge30" class="edge"><title>Node2&#45;&gt;Node23</title>
<path fill="none" stroke="midnightblue" d="M1191.08,-343.519C1089.44,-335.623 910.967,-320.201 759,-299 756.064,-298.59 753.072,-298.15 750.052,-297.688"/>
<polygon fill="midnightblue" stroke="midnightblue" points="1191.03,-347.026 1201.27,-344.306 1191.57,-340.047 1191.03,-347.026"/>
</g>
<!-- Node24 -->
<g id="node24" class="node"><title>Node24</title>
<g id="a_node24"><a xlink:href="XTokenStringAdapterAllocator_8hpp.html" target="_top" xlink:title=" ">
<polygon fill="none" stroke="black" points="768,-268.5 768,-298.5 902,-298.5 902,-268.5 768,-268.5"/>
<text text-anchor="start" x="776" y="-286.5" font-family="Helvetica,sans-Serif" font-size="10.00">xalanc/XPath/XTokenString</text>
<text text-anchor="middle" x="835" y="-275.5" font-family="Helvetica,sans-Serif" font-size="10.00">AdapterAllocator.hpp</text>
</a>
</g>
</g>
<!-- Node2&#45;&gt;Node24 -->
<g id="edge32" class="edge"><title>Node2&#45;&gt;Node24</title>
<path fill="none" stroke="midnightblue" d="M1191.29,-339.285C1117.81,-329.817 1006.97,-314.839 911,-299 908.084,-298.519 905.108,-298.013 902.104,-297.491"/>
<polygon fill="midnightblue" stroke="midnightblue" points="1191.04,-342.782 1201.41,-340.584 1191.93,-335.839 1191.04,-342.782"/>
</g>
<!-- Node25 -->
<g id="node25" class="node"><title>Node25</title>
<g id="a_node25"><a xlink:href="XalanElemEmptyAllocator_8hpp.html" target="_top" xlink:title=" ">
<polygon fill="none" stroke="black" points="442,-268.5 442,-298.5 590,-298.5 590,-268.5 442,-268.5"/>
<text text-anchor="start" x="450" y="-286.5" font-family="Helvetica,sans-Serif" font-size="10.00">xalanc/XSLT/XalanElemEmpty</text>
<text text-anchor="middle" x="516" y="-275.5" font-family="Helvetica,sans-Serif" font-size="10.00">Allocator.hpp</text>
</a>
</g>
</g>
<!-- Node2&#45;&gt;Node25 -->
<g id="edge34" class="edge"><title>Node2&#45;&gt;Node25</title>
<path fill="none" stroke="midnightblue" d="M1191.4,-345.975C1064.39,-339.905 811.857,-325.502 599,-299 596.097,-298.639 593.141,-298.245 590.158,-297.827"/>
<polygon fill="midnightblue" stroke="midnightblue" points="1191.29,-349.473 1201.44,-346.45 1191.62,-342.481 1191.29,-349.473"/>
</g>
<!-- Node27 -->
<g id="node27" class="node"><title>Node27</title>
<g id="a_node27"><a xlink:href="XalanElemTextAllocator_8hpp.html" target="_top" xlink:title=" ">
<polygon fill="none" stroke="black" points="286,-268.5 286,-298.5 424,-298.5 424,-268.5 286,-268.5"/>
<text text-anchor="start" x="294" y="-286.5" font-family="Helvetica,sans-Serif" font-size="10.00">xalanc/XSLT/XalanElemText</text>
<text text-anchor="middle" x="355" y="-275.5" font-family="Helvetica,sans-Serif" font-size="10.00">Allocator.hpp</text>
</a>
</g>
</g>
<!-- Node2&#45;&gt;Node27 -->
<g id="edge36" class="edge"><title>Node2&#45;&gt;Node27</title>
<path fill="none" stroke="midnightblue" d="M1191.29,-347.942C1040.77,-344.329 709.777,-332.914 433,-299 430.129,-298.648 427.204,-298.257 424.254,-297.834"/>
<polygon fill="midnightblue" stroke="midnightblue" points="1191.29,-351.443 1201.37,-348.179 1191.46,-344.445 1191.29,-351.443"/>
</g>
<!-- Node28 -->
<g id="node28" class="node"><title>Node28</title>
<g id="a_node28"><a xlink:href="XalanElemTextLiteralAllocator_8hpp.html" target="_top" xlink:title=" ">
<polygon fill="none" stroke="black" points="0,-201.5 0,-231.5 138,-231.5 138,-201.5 0,-201.5"/>
<text text-anchor="start" x="8" y="-219.5" font-family="Helvetica,sans-Serif" font-size="10.00">xalanc/XSLT/XalanElemText</text>
<text text-anchor="middle" x="69" y="-208.5" font-family="Helvetica,sans-Serif" font-size="10.00">LiteralAllocator.hpp</text>
</a>
</g>
</g>
<!-- Node2&#45;&gt;Node28 -->
<g id="edge38" class="edge"><title>Node2&#45;&gt;Node28</title>
<path fill="none" stroke="midnightblue" d="M1191.15,-349.095C926.734,-347.395 110.231,-338.922 71,-299 53.6394,-281.334 59.0794,-249.736 64.2599,-231.508"/>
<polygon fill="midnightblue" stroke="midnightblue" points="1191.43,-352.597 1201.45,-349.16 1191.47,-345.597 1191.43,-352.597"/>
</g>
<!-- Node29 -->
<g id="node29" class="node"><title>Node29</title>
<g id="a_node29"><a xlink:href="XalanSourceTreeDocumentAllocator_8hpp.html" target="_top" xlink:title=" ">
<polygon fill="none" stroke="black" points="2157,-201.5 2157,-231.5 2303,-231.5 2303,-201.5 2157,-201.5"/>
<text text-anchor="start" x="2165" y="-219.5" font-family="Helvetica,sans-Serif" font-size="10.00">xalanc/XSLT/XalanSourceTree</text>
<text text-anchor="middle" x="2230" y="-208.5" font-family="Helvetica,sans-Serif" font-size="10.00">DocumentAllocator.hpp</text>
</a>
</g>
</g>
<!-- Node2&#45;&gt;Node29 -->
<g id="edge40" class="edge"><title>Node2&#45;&gt;Node29</title>
<path fill="none" stroke="midnightblue" d="M1354.81,-348.441C1560.51,-345.27 2087.95,-333.807 2159,-299 2188.83,-284.387 2211.35,-251.021 2222.41,-231.819"/>
<polygon fill="midnightblue" stroke="midnightblue" points="1354.62,-344.943 1344.67,-348.594 1354.72,-351.943 1354.62,-344.943"/>
</g>
<!-- Node30 -->
<g id="node30" class="node"><title>Node30</title>
<g id="a_node30"><a xlink:href="XalanSourceTreeDocumentFragmentAllocator_8hpp.html" target="_top" xlink:title=" ">
<polygon fill="none" stroke="black" points="2321.5,-201.5 2321.5,-231.5 2480.5,-231.5 2480.5,-201.5 2321.5,-201.5"/>
<text text-anchor="start" x="2329.5" y="-219.5" font-family="Helvetica,sans-Serif" font-size="10.00">xalanc/XSLT/XalanSourceTree</text>
<text text-anchor="middle" x="2401" y="-208.5" font-family="Helvetica,sans-Serif" font-size="10.00">DocumentFragmentAllocator.hpp</text>
</a>
</g>
</g>
<!-- Node2&#45;&gt;Node30 -->
<g id="edge42" class="edge"><title>Node2&#45;&gt;Node30</title>
<path fill="none" stroke="midnightblue" d="M1354.76,-348.291C1548.81,-344.892 2032.74,-333.159 2191,-299 2258.85,-284.354 2333.57,-250.837 2373.01,-231.659"/>
<polygon fill="midnightblue" stroke="midnightblue" points="1354.56,-344.794 1344.62,-348.466 1354.68,-351.793 1354.56,-344.794"/>
</g>
<!-- Node31 -->
<g id="node31" class="node"><title>Node31</title>
<g id="a_node31"><a xlink:href="XResultTreeFragAllocator_8hpp.html" target="_top" xlink:title=" ">
<polygon fill="none" stroke="black" points="2056.5,-134.5 2056.5,-164.5 2201.5,-164.5 2201.5,-134.5 2056.5,-134.5"/>
<text text-anchor="start" x="2064.5" y="-152.5" font-family="Helvetica,sans-Serif" font-size="10.00">xalanc/XSLT/XResultTreeFrag</text>
<text text-anchor="middle" x="2129" y="-141.5" font-family="Helvetica,sans-Serif" font-size="10.00">Allocator.hpp</text>
</a>
</g>
</g>
<!-- Node2&#45;&gt;Node31 -->
<g id="edge44" class="edge"><title>Node2&#45;&gt;Node31</title>
<path fill="none" stroke="midnightblue" d="M1354.81,-347.626C1563.21,-342.458 2099.52,-326.535 2126,-299 2161.21,-262.387 2144.01,-194.185 2134.21,-164.693"/>
<polygon fill="midnightblue" stroke="midnightblue" points="1354.45,-344.133 1344.54,-347.878 1354.62,-351.131 1354.45,-344.133"/>
</g>
<!-- Node4 -->
<g id="node4" class="node"><title>Node4</title>
<g id="a_node4"><a xlink:href="XalanDOMStringCache_8hpp.html" target="_top" xlink:title=" ">
<polygon fill="none" stroke="black" points="190.5,-201.5 190.5,-231.5 327.5,-231.5 327.5,-201.5 190.5,-201.5"/>
<text text-anchor="start" x="198.5" y="-219.5" font-family="Helvetica,sans-Serif" font-size="10.00">xalanc/PlatformSupport</text>
<text text-anchor="middle" x="259" y="-208.5" font-family="Helvetica,sans-Serif" font-size="10.00">/XalanDOMStringCache.hpp</text>
</a>
</g>
</g>
<!-- Node3&#45;&gt;Node4 -->
<g id="edge3" class="edge"><title>Node3&#45;&gt;Node4</title>
<path fill="none" stroke="midnightblue" d="M200.588,-262.168C213.586,-252.228 228.904,-240.514 240.592,-231.577"/>
<polygon fill="midnightblue" stroke="midnightblue" points="198.261,-259.541 192.444,-268.396 202.513,-265.102 198.261,-259.541"/>
</g>
<!-- Node5 -->
<g id="node5" class="node"><title>Node5</title>
<g id="a_node5"><a xlink:href="XPathConstructionContextDefault_8hpp.html" target="_top" xlink:title=" ">
<polygon fill="none" stroke="black" points="272.5,-134.5 272.5,-164.5 429.5,-164.5 429.5,-134.5 272.5,-134.5"/>
<text text-anchor="start" x="280.5" y="-152.5" font-family="Helvetica,sans-Serif" font-size="10.00">xalanc/XPath/XPathConstruction</text>
<text text-anchor="middle" x="351" y="-141.5" font-family="Helvetica,sans-Serif" font-size="10.00">ContextDefault.hpp</text>
</a>
</g>
</g>
<!-- Node4&#45;&gt;Node5 -->
<g id="edge4" class="edge"><title>Node4&#45;&gt;Node5</title>
<path fill="none" stroke="midnightblue" d="M287.377,-195.451C301.53,-185.452 318.305,-173.6 331.076,-164.577"/>
<polygon fill="midnightblue" stroke="midnightblue" points="285.11,-192.767 278.963,-201.396 289.149,-198.484 285.11,-192.767"/>
</g>
<!-- Node8 -->
<g id="node8" class="node"><title>Node8</title>
<g id="a_node8"><a xlink:href="XPathExecutionContextDefault_8hpp.html" target="_top" xlink:title=" ">
<polygon fill="none" stroke="black" points="792,-134.5 792,-164.5 938,-164.5 938,-134.5 792,-134.5"/>
<text text-anchor="start" x="800" y="-152.5" font-family="Helvetica,sans-Serif" font-size="10.00">xalanc/XPath/XPathExecution</text>
<text text-anchor="middle" x="865" y="-141.5" font-family="Helvetica,sans-Serif" font-size="10.00">ContextDefault.hpp</text>
</a>
</g>
</g>
<!-- Node4&#45;&gt;Node8 -->
<g id="edge7" class="edge"><title>Node4&#45;&gt;Node8</title>
<path fill="none" stroke="midnightblue" d="M337.686,-207.06C455.744,-194.397 677.068,-170.658 791.819,-158.349"/>
<polygon fill="midnightblue" stroke="midnightblue" points="337.201,-203.592 327.632,-208.139 337.948,-210.552 337.201,-203.592"/>
</g>
<!-- Node13 -->
<g id="node13" class="node"><title>Node13</title>
<g id="a_node13"><a xlink:href="StylesheetConstructionContextDefault_8hpp.html" target="_top" xlink:title=" ">
<polygon fill="none" stroke="black" points="79.5,-134.5 79.5,-164.5 254.5,-164.5 254.5,-134.5 79.5,-134.5"/>
<text text-anchor="start" x="87.5" y="-152.5" font-family="Helvetica,sans-Serif" font-size="10.00">xalanc/XSLT/StylesheetConstruction</text>
<text text-anchor="middle" x="167" y="-141.5" font-family="Helvetica,sans-Serif" font-size="10.00">ContextDefault.hpp</text>
</a>
</g>
</g>
<!-- Node4&#45;&gt;Node13 -->
<g id="edge13" class="edge"><title>Node4&#45;&gt;Node13</title>
<path fill="none" stroke="midnightblue" d="M230.623,-195.451C216.47,-185.452 199.695,-173.6 186.924,-164.577"/>
<polygon fill="midnightblue" stroke="midnightblue" points="228.851,-198.484 239.037,-201.396 232.89,-192.767 228.851,-198.484"/>
</g>
<!-- Node6 -->
<g id="node6" class="node"><title>Node6</title>
<g id="a_node6"><a xlink:href="XSLTEngineImpl_8hpp.html" target="_top" xlink:title=" ">
<polygon fill="none" stroke="black" points="269.5,-73 269.5,-92 432.5,-92 432.5,-73 269.5,-73"/>
<text text-anchor="middle" x="351" y="-80" font-family="Helvetica,sans-Serif" font-size="10.00">xalanc/XSLT/XSLTEngineImpl.hpp</text>
</a>
</g>
</g>
<!-- Node5&#45;&gt;Node6 -->
<g id="edge5" class="edge"><title>Node5&#45;&gt;Node6</title>
<path fill="none" stroke="midnightblue" d="M351,-124.25C351,-113.017 351,-100.377 351,-92.1945"/>
<polygon fill="midnightblue" stroke="midnightblue" points="347.5,-124.396 351,-134.396 354.5,-124.396 347.5,-124.396"/>
</g>
<!-- Node7 -->
<g id="node7" class="node"><title>Node7</title>
<g id="a_node7"><a xlink:href="XalanCompiledStylesheetDefault_8hpp.html" target="_top" xlink:title=" ">
<polygon fill="none" stroke="black" points="261.5,-0.5 261.5,-30.5 440.5,-30.5 440.5,-0.5 261.5,-0.5"/>
<text text-anchor="start" x="269.5" y="-18.5" font-family="Helvetica,sans-Serif" font-size="10.00">xalanc/XalanTransformer</text>
<text text-anchor="middle" x="351" y="-7.5" font-family="Helvetica,sans-Serif" font-size="10.00">/XalanCompiledStylesheetDefault.hpp</text>
</a>
</g>
</g>
<!-- Node6&#45;&gt;Node7 -->
<g id="edge6" class="edge"><title>Node6&#45;&gt;Node7</title>
<path fill="none" stroke="midnightblue" d="M351,-62.4107C351,-52.222 351,-39.901 351,-30.589"/>
<polygon fill="midnightblue" stroke="midnightblue" points="347.5,-62.7338 351,-72.7338 354.5,-62.7338 347.5,-62.7338"/>
</g>
<!-- Node9 -->
<g id="node9" class="node"><title>Node9</title>
<g id="a_node9"><a xlink:href="StylesheetExecutionContextDefault_8hpp.html" target="_top" xlink:title=" ">
<polygon fill="none" stroke="black" points="2047,-67.5 2047,-97.5 2211,-97.5 2211,-67.5 2047,-67.5"/>
<text text-anchor="start" x="2055" y="-85.5" font-family="Helvetica,sans-Serif" font-size="10.00">xalanc/XSLT/StylesheetExecution</text>
<text text-anchor="middle" x="2129" y="-74.5" font-family="Helvetica,sans-Serif" font-size="10.00">ContextDefault.hpp</text>
</a>
</g>
</g>
<!-- Node8&#45;&gt;Node9 -->
<g id="edge8" class="edge"><title>Node8&#45;&gt;Node9</title>
<path fill="none" stroke="midnightblue" d="M948.737,-144.194C1178.82,-132.362 1818.69,-99.4574 2046.86,-87.7238"/>
<polygon fill="midnightblue" stroke="midnightblue" points="948.228,-140.715 938.421,-144.724 948.588,-147.706 948.228,-140.715"/>
</g>
<!-- Node9&#45;&gt;Node7 -->
<g id="edge12" class="edge"><title>Node9&#45;&gt;Node7</title>
<path fill="none" stroke="midnightblue" d="M2036.6,-78.1221C1729.3,-66.8876 743.894,-30.8634 440.657,-19.7777"/>
<polygon fill="midnightblue" stroke="midnightblue" points="2036.69,-81.6275 2046.81,-78.4953 2036.94,-74.6322 2036.69,-81.6275"/>
</g>
<!-- Node10 -->
<g id="node10" class="node"><title>Node10</title>
<g id="a_node10"><a xlink:href="ICUBridgeCollationCompareFunctorImpl_8hpp.html" target="_top" xlink:title=" ">
<polygon fill="none" stroke="black" points="2214.5,-0.5 2214.5,-30.5 2377.5,-30.5 2377.5,-0.5 2214.5,-0.5"/>
<text text-anchor="start" x="2222.5" y="-18.5" font-family="Helvetica,sans-Serif" font-size="10.00">xalanc/ICUBridge/ICUBridge</text>
<text text-anchor="middle" x="2296" y="-7.5" font-family="Helvetica,sans-Serif" font-size="10.00">CollationCompareFunctorImpl.hpp</text>
</a>
</g>
</g>
<!-- Node9&#45;&gt;Node10 -->
<g id="edge9" class="edge"><title>Node9&#45;&gt;Node10</title>
<path fill="none" stroke="midnightblue" d="M2174.78,-63.6815C2201.56,-53.2568 2234.9,-40.2805 2259.83,-30.5765"/>
<polygon fill="midnightblue" stroke="midnightblue" points="2173.29,-60.5071 2165.24,-67.396 2175.83,-67.0304 2173.29,-60.5071"/>
</g>
<!-- Node11 -->
<g id="node11" class="node"><title>Node11</title>
<g id="a_node11"><a xlink:href="ICUFormatNumberFunctor_8hpp.html" target="_top" xlink:title=" ">
<polygon fill="none" stroke="black" points="1902.5,-0.5 1902.5,-30.5 2043.5,-30.5 2043.5,-0.5 1902.5,-0.5"/>
<text text-anchor="start" x="1910.5" y="-18.5" font-family="Helvetica,sans-Serif" font-size="10.00">xalanc/ICUBridge/ICUFormat</text>
<text text-anchor="middle" x="1973" y="-7.5" font-family="Helvetica,sans-Serif" font-size="10.00">NumberFunctor.hpp</text>
</a>
</g>
</g>
<!-- Node9&#45;&gt;Node11 -->
<g id="edge10" class="edge"><title>Node9&#45;&gt;Node11</title>
<path fill="none" stroke="midnightblue" d="M2085.91,-63.5442C2060.94,-53.143 2029.97,-40.238 2006.78,-30.5765"/>
<polygon fill="midnightblue" stroke="midnightblue" points="2084.57,-66.7805 2095.15,-67.396 2087.27,-60.319 2084.57,-66.7805"/>
</g>
<!-- Node12 -->
<g id="node12" class="node"><title>Node12</title>
<g id="a_node12"><a xlink:href="ICUXalanNumberFormatFactory_8hpp.html" target="_top" xlink:title=" ">
<polygon fill="none" stroke="black" points="2062,-0.5 2062,-30.5 2196,-30.5 2196,-0.5 2062,-0.5"/>
<text text-anchor="start" x="2070" y="-18.5" font-family="Helvetica,sans-Serif" font-size="10.00">xalanc/ICUBridge/ICUXalan</text>
<text text-anchor="middle" x="2129" y="-7.5" font-family="Helvetica,sans-Serif" font-size="10.00">NumberFormatFactory.hpp</text>
</a>
</g>
</g>
<!-- Node9&#45;&gt;Node12 -->
<g id="edge11" class="edge"><title>Node9&#45;&gt;Node12</title>
<path fill="none" stroke="midnightblue" d="M2129,-57.1081C2129,-48.1539 2129,-38.3227 2129,-30.5765"/>
<polygon fill="midnightblue" stroke="midnightblue" points="2125.5,-57.3959 2129,-67.396 2132.5,-57.396 2125.5,-57.3959"/>
</g>
<!-- Node13&#45;&gt;Node7 -->
<g id="edge14" class="edge"><title>Node13&#45;&gt;Node7</title>
<path fill="none" stroke="midnightblue" d="M188.22,-127.553C206.397,-110.202 233.729,-85.4835 260,-67 279.654,-53.1723 303.448,-40.0819 321.776,-30.6949"/>
<polygon fill="midnightblue" stroke="midnightblue" points="185.787,-125.037 181.02,-134.498 190.647,-130.075 185.787,-125.037"/>
</g>
<!-- Node15 -->
<g id="node15" class="node"><title>Node15</title>
<g id="a_node15"><a xlink:href="XObjectFactoryDefault_8hpp.html" target="_top" xlink:title=" ">
<polygon fill="none" stroke="black" points="1289.5,-201.5 1289.5,-231.5 1432.5,-231.5 1432.5,-201.5 1289.5,-201.5"/>
<text text-anchor="start" x="1297.5" y="-219.5" font-family="Helvetica,sans-Serif" font-size="10.00">xalanc/XPath/XObjectFactory</text>
<text text-anchor="middle" x="1361" y="-208.5" font-family="Helvetica,sans-Serif" font-size="10.00">Default.hpp</text>
</a>
</g>
</g>
<!-- Node14&#45;&gt;Node15 -->
<g id="edge16" class="edge"><title>Node14&#45;&gt;Node15</title>
<path fill="none" stroke="midnightblue" d="M1064.35,-272.124C1125.37,-260.888 1222.86,-242.936 1289.3,-230.703"/>
<polygon fill="midnightblue" stroke="midnightblue" points="1063.71,-268.682 1054.51,-273.936 1064.98,-275.567 1063.71,-268.682"/>
</g>
<!-- Node16 -->
<g id="node16" class="node"><title>Node16</title>
<g id="a_node16"><a xlink:href="XalanTransformer_8hpp.html" target="_top" xlink:title=" ">
<polygon fill="none" stroke="black" points="1300,-134.5 1300,-164.5 1422,-164.5 1422,-134.5 1300,-134.5"/>
<text text-anchor="start" x="1308" y="-152.5" font-family="Helvetica,sans-Serif" font-size="10.00">xalanc/XalanTransformer</text>
<text text-anchor="middle" x="1361" y="-141.5" font-family="Helvetica,sans-Serif" font-size="10.00">/XalanTransformer.hpp</text>
</a>
</g>
</g>
<!-- Node15&#45;&gt;Node16 -->
<g id="edge17" class="edge"><title>Node15&#45;&gt;Node16</title>
<path fill="none" stroke="midnightblue" d="M1361,-191.108C1361,-182.154 1361,-172.323 1361,-164.577"/>
<polygon fill="midnightblue" stroke="midnightblue" points="1357.5,-191.396 1361,-201.396 1364.5,-191.396 1357.5,-191.396"/>
</g>
<!-- Node17&#45;&gt;Node15 -->
<g id="edge19" class="edge"><title>Node17&#45;&gt;Node15</title>
<path fill="none" stroke="midnightblue" d="M1232.88,-264.819C1261.17,-254.371 1296.49,-241.323 1322.89,-231.577"/>
<polygon fill="midnightblue" stroke="midnightblue" points="1231.36,-261.648 1223.19,-268.396 1233.78,-268.215 1231.36,-261.648"/>
</g>
<!-- Node18&#45;&gt;Node15 -->
<g id="edge21" class="edge"><title>Node18&#45;&gt;Node15</title>
<path fill="none" stroke="midnightblue" d="M1361,-263.411C1361,-253.222 1361,-240.901 1361,-231.589"/>
<polygon fill="midnightblue" stroke="midnightblue" points="1357.5,-263.734 1361,-273.734 1364.5,-263.734 1357.5,-263.734"/>
</g>
<!-- Node19&#45;&gt;Node15 -->
<g id="edge23" class="edge"><title>Node19&#45;&gt;Node15</title>
<path fill="none" stroke="midnightblue" d="M1488.4,-264.819C1460.27,-254.371 1425.14,-241.323 1398.9,-231.577"/>
<polygon fill="midnightblue" stroke="midnightblue" points="1487.43,-268.195 1498.03,-268.396 1489.87,-261.633 1487.43,-268.195"/>
</g>
<!-- Node20&#45;&gt;Node15 -->
<g id="edge25" class="edge"><title>Node20&#45;&gt;Node15</title>
<path fill="none" stroke="midnightblue" d="M1651.46,-272.066C1592.03,-260.901 1497.54,-243.151 1432.57,-230.946"/>
<polygon fill="midnightblue" stroke="midnightblue" points="1650.94,-275.529 1661.41,-273.936 1652.23,-268.649 1650.94,-275.529"/>
</g>
<!-- Node21&#45;&gt;Node15 -->
<g id="edge27" class="edge"><title>Node21&#45;&gt;Node15</title>
<path fill="none" stroke="midnightblue" d="M1796.77,-267.875C1662.48,-248.071 1517.34,-232.68 1432.72,-224.312"/>
<polygon fill="midnightblue" stroke="midnightblue" points="1796.42,-271.362 1806.83,-269.37 1797.45,-264.438 1796.42,-271.362"/>
</g>
<!-- Node22&#45;&gt;Node15 -->
<g id="edge29" class="edge"><title>Node22&#45;&gt;Node15</title>
<path fill="none" stroke="midnightblue" d="M1954.91,-267.933C1760.21,-243.478 1542.71,-228.392 1432.64,-221.624"/>
<polygon fill="midnightblue" stroke="midnightblue" points="1954.69,-271.432 1965.05,-269.217 1955.57,-264.488 1954.69,-271.432"/>
</g>
<!-- Node23&#45;&gt;Node15 -->
<g id="edge31" class="edge"><title>Node23&#45;&gt;Node15</title>
<path fill="none" stroke="midnightblue" d="M760.015,-267.949C957.287,-242.269 1178.25,-227.653 1289.41,-221.285"/>
<polygon fill="midnightblue" stroke="midnightblue" points="759.503,-264.486 750.045,-269.259 760.415,-271.427 759.503,-264.486"/>
</g>
<!-- Node24&#45;&gt;Node15 -->
<g id="edge33" class="edge"><title>Node24&#45;&gt;Node15</title>
<path fill="none" stroke="midnightblue" d="M912.098,-267.905C1051.41,-247.127 1202.59,-231.875 1289.47,-223.818"/>
<polygon fill="midnightblue" stroke="midnightblue" points="911.457,-264.462 902.089,-269.411 912.498,-271.384 911.457,-264.462"/>
</g>
<!-- Node26 -->
<g id="node26" class="node"><title>Node26</title>
<g id="a_node26"><a xlink:href="StylesheetHandler_8hpp.html" target="_top" xlink:title=" ">
<polygon fill="none" stroke="black" points="413,-207 413,-226 585,-226 585,-207 413,-207"/>
<text text-anchor="middle" x="499" y="-214" font-family="Helvetica,sans-Serif" font-size="10.00">xalanc/XSLT/StylesheetHandler.hpp</text>
</a>
</g>
</g>
<!-- Node25&#45;&gt;Node26 -->
<g id="edge35" class="edge"><title>Node25&#45;&gt;Node26</title>
<path fill="none" stroke="midnightblue" d="M509.748,-258.596C506.788,-247.278 503.436,-234.461 501.274,-226.195"/>
<polygon fill="midnightblue" stroke="midnightblue" points="506.395,-259.607 512.311,-268.396 513.167,-257.836 506.395,-259.607"/>
</g>
<!-- Node27&#45;&gt;Node26 -->
<g id="edge37" class="edge"><title>Node27&#45;&gt;Node26</title>
<path fill="none" stroke="midnightblue" d="M395.693,-264.131C423.41,-251.62 458.813,-235.64 480.154,-226.007"/>
<polygon fill="midnightblue" stroke="midnightblue" points="393.92,-261.092 386.246,-268.396 396.8,-267.472 393.92,-261.092"/>
</g>
<!-- Node28&#45;&gt;Node13 -->
<g id="edge39" class="edge"><title>Node28&#45;&gt;Node13</title>
<path fill="none" stroke="midnightblue" d="M98.8016,-195.734C113.966,-185.676 132.045,-173.685 145.777,-164.577"/>
<polygon fill="midnightblue" stroke="midnightblue" points="96.6635,-192.952 90.2645,-201.396 100.533,-198.785 96.6635,-192.952"/>
</g>
<!-- Node29&#45;&gt;Node9 -->
<g id="edge41" class="edge"><title>Node29&#45;&gt;Node9</title>
<path fill="none" stroke="midnightblue" d="M2229.19,-191.036C2227.52,-173.692 2222.98,-150.637 2211,-134 2199.38,-117.853 2180.84,-105.805 2164.33,-97.5352"/>
<polygon fill="midnightblue" stroke="midnightblue" points="2225.73,-191.753 2229.92,-201.485 2232.72,-191.265 2225.73,-191.753"/>
</g>
<!-- Node30&#45;&gt;Node9 -->
<g id="edge43" class="edge"><title>Node30&#45;&gt;Node9</title>
<path fill="none" stroke="midnightblue" d="M2363.08,-197.099C2308.1,-170.416 2207.42,-121.555 2157.96,-97.5565"/>
<polygon fill="midnightblue" stroke="midnightblue" points="2361.62,-200.281 2372.15,-201.499 2364.68,-193.984 2361.62,-200.281"/>
</g>
<!-- Node31&#45;&gt;Node9 -->
<g id="edge45" class="edge"><title>Node31&#45;&gt;Node9</title>
<path fill="none" stroke="midnightblue" d="M2129,-124.108C2129,-115.154 2129,-105.323 2129,-97.5765"/>
<polygon fill="midnightblue" stroke="midnightblue" points="2125.5,-124.396 2129,-134.396 2132.5,-124.396 2125.5,-124.396"/>
</g>
</g>
</svg>
