<?xml version="1.0" encoding="UTF-8" standalone="no"?>
<!DOCTYPE svg PUBLIC "-//W3C//DTD SVG 1.1//EN"
 "http://www.w3.org/Graphics/SVG/1.1/DTD/svg11.dtd">
<!-- Generated by graphviz version 2.38.0 (20140413.2041)
 -->
<!-- Title: xalanc/Include/STLHelper.hpp Pages: 1 -->
<!--zoomable 341 -->
<svg id="main" version="1.1" xmlns="http://www.w3.org/2000/svg" xmlns:xlink="http://www.w3.org/1999/xlink" xml:space="preserve" onload="init(evt)">
<style type="text/css"><![CDATA[
.edge:hover path { stroke: red; }
.edge:hover polygon { stroke: red; fill: red; }
]]></style>
<script type="text/javascript"><![CDATA[
var edges = document.getElementsByTagName('g');
if (edges && edges.length) {
  for (var i=0;i<edges.length;i++) {
    if (edges[i].id.substr(0,4)=='edge') {
      edges[i].setAttribute('class','edge');
    }
  }
}
]]></script>
        <defs>
                <circle id="rim" cx="0" cy="0" r="7"/>
                <circle id="rim2" cx="0" cy="0" r="3.5"/>
                <g id="zoomPlus">
                        <use xlink:href="#rim" fill="#404040">
                                <set attributeName="fill" to="#808080" begin="zoomplus.mouseover" end="zoomplus.mouseout"/>
                        </use>
                        <path d="M-4,0h8M0,-4v8" fill="none" stroke="white" stroke-width="1.5" pointer-events="none"/>
                </g>
                <g id="zoomMin">
                        <use xlink:href="#rim" fill="#404040">
                                <set attributeName="fill" to="#808080" begin="zoomminus.mouseover" end="zoomminus.mouseout"/>
                        </use>
                        <path d="M-4,0h8" fill="none" stroke="white" stroke-width="1.5" pointer-events="none"/>
                </g>
                <g id="dirArrow">
                        <path fill="none" stroke="white" stroke-width="1.5" d="M0,-3.0v7 M-2.5,-0.5L0,-3.0L2.5,-0.5"/>
                </g>
               <g id="resetDef">
                       <use xlink:href="#rim2" fill="#404040">
                               <set attributeName="fill" to="#808080" begin="reset.mouseover" end="reset.mouseout"/>
                       </use>
               </g>
        </defs>

<script type="text/javascript">
var viewWidth = 854;
var viewHeight = 341;
var sectionId = 'dynsection-0';
</script>
<script xlink:href="svgpan.js"/>
<svg id="graph" class="graph">
<g id="viewport">
<title>xalanc/Include/STLHelper.hpp</title>
<!-- Node1 -->
<g id="node1" class="node"><title>Node1</title>
<g id="a_node1"><a xlink:title=" ">
<polygon fill="#bfbfbf" stroke="black" points="0,-313.5 0,-332.5 146,-332.5 146,-313.5 0,-313.5"/>
<text text-anchor="middle" x="73" y="-320.5" font-family="Helvetica,sans-Serif" font-size="10.00">xalanc/Include/STLHelper.hpp</text>
</a>
</g>
</g>
<!-- Node2 -->
<g id="node2" class="node"><title>Node2</title>
<g id="a_node2"><a xlink:href="PlatformDefinitions_8hpp.html" target="_top" xlink:title=" ">
<polygon fill="none" stroke="black" points="183,-73 183,-92 365,-92 365,-73 183,-73"/>
<text text-anchor="middle" x="274" y="-80" font-family="Helvetica,sans-Serif" font-size="10.00">xalanc/Include/PlatformDefinitions.hpp</text>
</a>
</g>
</g>
<!-- Node1&#45;&gt;Node2 -->
<g id="edge1" class="edge"><title>Node1&#45;&gt;Node2</title>
<path fill="none" stroke="midnightblue" d="M67.8698,-313.407C62.9422,-304.614 55.8396,-290.381 53,-277 49.171,-258.957 49.7389,-211.526 56,-201 92.0314,-140.423 171.312,-109.245 223.675,-94.6557"/>
<polygon fill="midnightblue" stroke="midnightblue" points="224.692,-98.0068 233.445,-92.0381 222.88,-91.2453 224.692,-98.0068"/>
</g>
<!-- Node6 -->
<g id="node6" class="node"><title>Node6</title>
<g id="a_node6"><a xlink:title=" ">
<polygon fill="none" stroke="#bfbfbf" points="190,-140 190,-159 246,-159 246,-140 190,-140"/>
<text text-anchor="middle" x="218" y="-147" font-family="Helvetica,sans-Serif" font-size="10.00">algorithm</text>
</a>
</g>
</g>
<!-- Node1&#45;&gt;Node6 -->
<g id="edge5" class="edge"><title>Node1&#45;&gt;Node6</title>
<path fill="none" stroke="midnightblue" d="M69.4795,-313.364C61.3905,-291.993 44.0165,-235.847 69,-201 93.9513,-166.198 144.226,-155.082 179.448,-151.694"/>
<polygon fill="midnightblue" stroke="midnightblue" points="180.157,-155.149 189.851,-150.873 179.607,-148.171 180.157,-155.149"/>
</g>
<!-- Node7 -->
<g id="node7" class="node"><title>Node7</title>
<g id="a_node7"><a xlink:title=" ">
<polygon fill="none" stroke="#bfbfbf" points="78,-201.5 78,-220.5 136,-220.5 136,-201.5 78,-201.5"/>
<text text-anchor="middle" x="107" y="-208.5" font-family="Helvetica,sans-Serif" font-size="10.00">functional</text>
</a>
</g>
</g>
<!-- Node1&#45;&gt;Node7 -->
<g id="edge6" class="edge"><title>Node1&#45;&gt;Node7</title>
<path fill="none" stroke="midnightblue" d="M75.6679,-313.368C81.1796,-295.537 93.9269,-254.295 101.352,-230.272"/>
<polygon fill="midnightblue" stroke="midnightblue" points="104.735,-231.179 104.344,-220.591 98.0474,-229.112 104.735,-231.179"/>
</g>
<!-- Node8 -->
<g id="node8" class="node"><title>Node8</title>
<g id="a_node8"><a xlink:href="XalanMap_8hpp.html" target="_top" xlink:title=" ">
<polygon fill="none" stroke="black" points="164.5,-257.5 164.5,-276.5 307.5,-276.5 307.5,-257.5 164.5,-257.5"/>
<text text-anchor="middle" x="236" y="-264.5" font-family="Helvetica,sans-Serif" font-size="10.00">xalanc/Include/XalanMap.hpp</text>
</a>
</g>
</g>
<!-- Node1&#45;&gt;Node8 -->
<g id="edge7" class="edge"><title>Node1&#45;&gt;Node8</title>
<path fill="none" stroke="midnightblue" d="M98.8278,-313.444C126.249,-304.359 169.777,-289.939 200.432,-279.783"/>
<polygon fill="midnightblue" stroke="midnightblue" points="201.901,-282.984 210.293,-276.516 199.7,-276.339 201.901,-282.984"/>
</g>
<!-- Node3 -->
<g id="node3" class="node"><title>Node3</title>
<g id="a_node3"><a xlink:title=" ">
<polygon fill="none" stroke="#bfbfbf" points="72,-0.5 72,-30.5 180,-30.5 180,-0.5 72,-0.5"/>
<text text-anchor="start" x="80" y="-18.5" font-family="Helvetica,sans-Serif" font-size="10.00">xercesc/util/Xerces</text>
<text text-anchor="middle" x="126" y="-7.5" font-family="Helvetica,sans-Serif" font-size="10.00">_autoconf_config.hpp</text>
</a>
</g>
</g>
<!-- Node2&#45;&gt;Node3 -->
<g id="edge2" class="edge"><title>Node2&#45;&gt;Node3</title>
<path fill="none" stroke="midnightblue" d="M254.347,-72.8685C232.235,-63.1572 195.695,-47.1092 167.246,-34.6148"/>
<polygon fill="midnightblue" stroke="midnightblue" points="168.504,-31.3447 157.941,-30.5281 165.689,-37.7539 168.504,-31.3447"/>
</g>
<!-- Node4 -->
<g id="node4" class="node"><title>Node4</title>
<g id="a_node4"><a xlink:title=" ">
<polygon fill="none" stroke="#bfbfbf" points="198.5,-6 198.5,-25 349.5,-25 349.5,-6 198.5,-6"/>
<text text-anchor="middle" x="274" y="-13" font-family="Helvetica,sans-Serif" font-size="10.00">xercesc/util/XercesVersion.hpp</text>
</a>
</g>
</g>
<!-- Node2&#45;&gt;Node4 -->
<g id="edge3" class="edge"><title>Node2&#45;&gt;Node4</title>
<path fill="none" stroke="midnightblue" d="M274,-72.7338C274,-63.1826 274,-47.6183 274,-35.2829"/>
<polygon fill="midnightblue" stroke="midnightblue" points="277.5,-35.1273 274,-25.1273 270.5,-35.1273 277.5,-35.1273"/>
</g>
<!-- Node5 -->
<g id="node5" class="node"><title>Node5</title>
<g id="a_node5"><a xlink:href="XalanVersion_8hpp.html" target="_top" xlink:title=" ">
<polygon fill="none" stroke="black" points="368,-6 368,-25 460,-25 460,-6 368,-6"/>
<text text-anchor="middle" x="414" y="-13" font-family="Helvetica,sans-Serif" font-size="10.00">XalanVersion.hpp</text>
</a>
</g>
</g>
<!-- Node2&#45;&gt;Node5 -->
<g id="edge4" class="edge"><title>Node2&#45;&gt;Node5</title>
<path fill="none" stroke="midnightblue" d="M292.591,-72.8685C316.544,-61.7476 358.395,-42.3167 386.154,-29.4286"/>
<polygon fill="midnightblue" stroke="midnightblue" points="387.736,-32.5529 395.332,-25.1672 384.788,-26.2038 387.736,-32.5529"/>
</g>
<!-- Node8&#45;&gt;Node2 -->
<g id="edge8" class="edge"><title>Node8&#45;&gt;Node2</title>
<path fill="none" stroke="midnightblue" d="M220.074,-257.47C207.511,-249.774 190.844,-237.185 183,-221 166.133,-186.195 161.225,-167.24 181,-134 192.009,-115.495 212.43,-103.349 231.337,-95.6181"/>
<polygon fill="midnightblue" stroke="midnightblue" points="232.619,-98.8753 240.738,-92.0686 230.147,-92.3266 232.619,-98.8753"/>
</g>
<!-- Node8&#45;&gt;Node6 -->
<g id="edge10" class="edge"><title>Node8&#45;&gt;Node6</title>
<path fill="none" stroke="midnightblue" d="M238.203,-257.479C241.093,-244.956 245.32,-220.909 241,-201 238.483,-189.401 233.062,-177.27 228.114,-167.805"/>
<polygon fill="midnightblue" stroke="midnightblue" points="231.172,-166.101 223.272,-159.041 225.045,-169.487 231.172,-166.101"/>
</g>
<!-- Node8&#45;&gt;Node7 -->
<g id="edge11" class="edge"><title>Node8&#45;&gt;Node7</title>
<path fill="none" stroke="midnightblue" d="M215.56,-257.444C194.33,-248.557 160.901,-234.563 136.745,-224.451"/>
<polygon fill="midnightblue" stroke="midnightblue" points="137.921,-221.149 127.345,-220.516 135.218,-227.606 137.921,-221.149"/>
</g>
<!-- Node9 -->
<g id="node9" class="node"><title>Node9</title>
<g id="a_node9"><a xlink:title=" ">
<polygon fill="none" stroke="#bfbfbf" points="798,-73 798,-92 846,-92 846,-73 798,-73"/>
<text text-anchor="middle" x="822" y="-80" font-family="Helvetica,sans-Serif" font-size="10.00">cstddef</text>
</a>
</g>
</g>
<!-- Node8&#45;&gt;Node9 -->
<g id="edge9" class="edge"><title>Node8&#45;&gt;Node9</title>
<path fill="none" stroke="midnightblue" d="M307.522,-265.415C452.339,-262.506 771.962,-246.755 836,-165 850.275,-146.775 841.012,-119.174 832.2,-101.239"/>
<polygon fill="midnightblue" stroke="midnightblue" points="835.16,-99.3511 827.375,-92.1656 828.98,-102.638 835.16,-99.3511"/>
</g>
<!-- Node10 -->
<g id="node10" class="node"><title>Node10</title>
<g id="a_node10"><a xlink:title=" ">
<polygon fill="none" stroke="#bfbfbf" points="192,-201.5 192,-220.5 232,-220.5 232,-201.5 192,-201.5"/>
<text text-anchor="middle" x="212" y="-208.5" font-family="Helvetica,sans-Serif" font-size="10.00">utility</text>
</a>
</g>
</g>
<!-- Node8&#45;&gt;Node10 -->
<g id="edge12" class="edge"><title>Node8&#45;&gt;Node10</title>
<path fill="none" stroke="midnightblue" d="M232.037,-257.083C228.787,-249.77 224.081,-239.181 220.046,-230.103"/>
<polygon fill="midnightblue" stroke="midnightblue" points="223.149,-228.468 215.889,-220.751 216.752,-231.311 223.149,-228.468"/>
</g>
<!-- Node11 -->
<g id="node11" class="node"><title>Node11</title>
<g id="a_node11"><a xlink:href="XalanVector_8hpp.html" target="_top" xlink:title=" ">
<polygon fill="none" stroke="black" points="290,-201.5 290,-220.5 442,-220.5 442,-201.5 290,-201.5"/>
<text text-anchor="middle" x="366" y="-208.5" font-family="Helvetica,sans-Serif" font-size="10.00">xalanc/Include/XalanVector.hpp</text>
</a>
</g>
</g>
<!-- Node8&#45;&gt;Node11 -->
<g id="edge13" class="edge"><title>Node8&#45;&gt;Node11</title>
<path fill="none" stroke="midnightblue" d="M256.599,-257.444C277.993,-248.557 311.681,-234.563 336.024,-224.451"/>
<polygon fill="midnightblue" stroke="midnightblue" points="337.605,-227.585 345.497,-220.516 334.92,-221.12 337.605,-227.585"/>
</g>
<!-- Node18 -->
<g id="node18" class="node"><title>Node18</title>
<g id="a_node18"><a xlink:href="XalanList_8hpp.html" target="_top" xlink:title=" ">
<polygon fill="none" stroke="black" points="460,-201.5 460,-220.5 600,-220.5 600,-201.5 460,-201.5"/>
<text text-anchor="middle" x="530" y="-208.5" font-family="Helvetica,sans-Serif" font-size="10.00">xalanc/Include/XalanList.hpp</text>
</a>
</g>
</g>
<!-- Node8&#45;&gt;Node18 -->
<g id="edge27" class="edge"><title>Node8&#45;&gt;Node18</title>
<path fill="none" stroke="midnightblue" d="M282.585,-257.444C334.41,-247.925 418.132,-232.547 473.615,-222.356"/>
<polygon fill="midnightblue" stroke="midnightblue" points="474.43,-225.765 483.633,-220.516 473.165,-218.881 474.43,-225.765"/>
</g>
<!-- Node11&#45;&gt;Node2 -->
<g id="edge14" class="edge"><title>Node11&#45;&gt;Node2</title>
<path fill="none" stroke="midnightblue" d="M345.927,-201.423C330.672,-193.923 310.282,-181.624 298,-165 284.267,-146.412 278.354,-120.049 275.833,-102.39"/>
<polygon fill="midnightblue" stroke="midnightblue" points="279.279,-101.727 274.618,-92.2119 272.328,-102.556 279.279,-101.727"/>
</g>
<!-- Node11&#45;&gt;Node6 -->
<g id="edge16" class="edge"><title>Node11&#45;&gt;Node6</title>
<path fill="none" stroke="midnightblue" d="M344.795,-201.475C319.628,-191.357 277.46,-174.405 248.721,-162.851"/>
<polygon fill="midnightblue" stroke="midnightblue" points="249.749,-159.492 239.165,-159.009 247.138,-165.987 249.749,-159.492"/>
</g>
<!-- Node11&#45;&gt;Node9 -->
<g id="edge15" class="edge"><title>Node11&#45;&gt;Node9</title>
<path fill="none" stroke="midnightblue" d="M442.102,-201.792C545.209,-190.501 718.012,-170.902 731,-165 763.651,-150.163 792.872,-119.366 808.949,-100.168"/>
<polygon fill="midnightblue" stroke="midnightblue" points="811.783,-102.23 815.375,-92.2626 806.351,-97.8145 811.783,-102.23"/>
</g>
<!-- Node12 -->
<g id="node12" class="node"><title>Node12</title>
<g id="a_node12"><a xlink:title=" ">
<polygon fill="none" stroke="#bfbfbf" points="493.5,-73 493.5,-92 542.5,-92 542.5,-73 493.5,-73"/>
<text text-anchor="middle" x="518" y="-80" font-family="Helvetica,sans-Serif" font-size="10.00">cassert</text>
</a>
</g>
</g>
<!-- Node11&#45;&gt;Node12 -->
<g id="edge17" class="edge"><title>Node11&#45;&gt;Node12</title>
<path fill="none" stroke="midnightblue" d="M356.389,-201.351C341.055,-186.506 314.396,-155.682 331,-134 349.381,-109.997 434.193,-94.7989 483.05,-87.8786"/>
<polygon fill="midnightblue" stroke="midnightblue" points="483.752,-91.3152 493.183,-86.4888 482.8,-84.3801 483.752,-91.3152"/>
</g>
<!-- Node13 -->
<g id="node13" class="node"><title>Node13</title>
<g id="a_node13"><a xlink:title=" ">
<polygon fill="none" stroke="#bfbfbf" points="716,-73 716,-92 750,-92 750,-73 716,-73"/>
<text text-anchor="middle" x="733" y="-80" font-family="Helvetica,sans-Serif" font-size="10.00">new</text>
</a>
</g>
</g>
<!-- Node11&#45;&gt;Node13 -->
<g id="edge18" class="edge"><title>Node11&#45;&gt;Node13</title>
<path fill="none" stroke="midnightblue" d="M438.406,-201.459C537.255,-189.66 702.877,-169.332 708,-165 726.335,-149.494 731.471,-120.907 732.774,-102.047"/>
<polygon fill="midnightblue" stroke="midnightblue" points="736.273,-102.133 733.172,-92.0026 729.279,-101.856 736.273,-102.133"/>
</g>
<!-- Node14 -->
<g id="node14" class="node"><title>Node14</title>
<g id="a_node14"><a xlink:title=" ">
<polygon fill="none" stroke="#bfbfbf" points="417.5,-140 417.5,-159 464.5,-159 464.5,-140 417.5,-140"/>
<text text-anchor="middle" x="441" y="-147" font-family="Helvetica,sans-Serif" font-size="10.00">iterator</text>
</a>
</g>
</g>
<!-- Node11&#45;&gt;Node14 -->
<g id="edge19" class="edge"><title>Node11&#45;&gt;Node14</title>
<path fill="none" stroke="midnightblue" d="M376.746,-201.475C388.553,-192.108 407.743,-176.884 422.082,-165.508"/>
<polygon fill="midnightblue" stroke="midnightblue" points="424.615,-167.966 430.274,-159.009 420.265,-162.482 424.615,-167.966"/>
</g>
<!-- Node15 -->
<g id="node15" class="node"><title>Node15</title>
<g id="a_node15"><a xlink:title=" ">
<polygon fill="none" stroke="#bfbfbf" points="340.5,-140 340.5,-159 399.5,-159 399.5,-140 340.5,-140"/>
<text text-anchor="middle" x="370" y="-147" font-family="Helvetica,sans-Serif" font-size="10.00">stdexcept</text>
</a>
</g>
</g>
<!-- Node11&#45;&gt;Node15 -->
<g id="edge20" class="edge"><title>Node11&#45;&gt;Node15</title>
<path fill="none" stroke="midnightblue" d="M366.573,-201.475C367.137,-193.08 368.018,-179.981 368.745,-169.163"/>
<polygon fill="midnightblue" stroke="midnightblue" points="372.249,-169.221 369.428,-159.009 365.265,-168.752 372.249,-169.221"/>
</g>
<!-- Node16 -->
<g id="node16" class="node"><title>Node16</title>
<g id="a_node16"><a xlink:href="XalanMemoryManagement_8hpp.html" target="_top" xlink:title=" ">
<polygon fill="none" stroke="black" points="559,-134.5 559,-164.5 699,-164.5 699,-134.5 559,-134.5"/>
<text text-anchor="start" x="567" y="-152.5" font-family="Helvetica,sans-Serif" font-size="10.00">xalanc/Include/XalanMemory</text>
<text text-anchor="middle" x="629" y="-141.5" font-family="Helvetica,sans-Serif" font-size="10.00">Management.hpp</text>
</a>
</g>
</g>
<!-- Node11&#45;&gt;Node16 -->
<g id="edge21" class="edge"><title>Node11&#45;&gt;Node16</title>
<path fill="none" stroke="midnightblue" d="M403.681,-201.475C443.546,-192.456 507.411,-178.008 556.986,-166.792"/>
<polygon fill="midnightblue" stroke="midnightblue" points="558.035,-170.143 567.016,-164.523 556.49,-163.316 558.035,-170.143"/>
</g>
<!-- Node16&#45;&gt;Node2 -->
<g id="edge22" class="edge"><title>Node16&#45;&gt;Node2</title>
<path fill="none" stroke="midnightblue" d="M558.863,-135.658C491.966,-123.409 392.476,-105.193 330.515,-93.8479"/>
<polygon fill="midnightblue" stroke="midnightblue" points="330.995,-90.3776 320.528,-92.0193 329.734,-97.2632 330.995,-90.3776"/>
</g>
<!-- Node16&#45;&gt;Node9 -->
<g id="edge24" class="edge"><title>Node16&#45;&gt;Node9</title>
<path fill="none" stroke="midnightblue" d="M670.878,-134.396C706.043,-122.553 755.637,-105.85 788.286,-94.8543"/>
<polygon fill="midnightblue" stroke="midnightblue" points="789.48,-98.1455 797.84,-91.6367 787.246,-91.5116 789.48,-98.1455"/>
</g>
<!-- Node16&#45;&gt;Node12 -->
<g id="edge23" class="edge"><title>Node16&#45;&gt;Node12</title>
<path fill="none" stroke="midnightblue" d="M604.915,-134.396C586.042,-123.344 559.942,-108.061 541.279,-97.1319"/>
<polygon fill="midnightblue" stroke="midnightblue" points="542.925,-94.04 532.527,-92.007 539.388,-100.081 542.925,-94.04"/>
</g>
<!-- Node16&#45;&gt;Node13 -->
<g id="edge25" class="edge"><title>Node16&#45;&gt;Node13</title>
<path fill="none" stroke="midnightblue" d="M651.566,-134.396C669.007,-123.496 693.034,-108.479 710.466,-97.5835"/>
<polygon fill="midnightblue" stroke="midnightblue" points="712.764,-100.275 719.389,-92.007 709.054,-94.339 712.764,-100.275"/>
</g>
<!-- Node17 -->
<g id="node17" class="node"><title>Node17</title>
<g id="a_node17"><a xlink:title=" ">
<polygon fill="none" stroke="#bfbfbf" points="560.5,-67.5 560.5,-97.5 697.5,-97.5 697.5,-67.5 560.5,-67.5"/>
<text text-anchor="start" x="568.5" y="-85.5" font-family="Helvetica,sans-Serif" font-size="10.00">xercesc/framework/Memory</text>
<text text-anchor="middle" x="629" y="-74.5" font-family="Helvetica,sans-Serif" font-size="10.00">Manager.hpp</text>
</a>
</g>
</g>
<!-- Node16&#45;&gt;Node17 -->
<g id="edge26" class="edge"><title>Node16&#45;&gt;Node17</title>
<path fill="none" stroke="midnightblue" d="M629,-134.396C629,-126.645 629,-116.812 629,-107.86"/>
<polygon fill="midnightblue" stroke="midnightblue" points="632.5,-107.576 629,-97.5765 625.5,-107.577 632.5,-107.576"/>
</g>
<!-- Node18&#45;&gt;Node2 -->
<g id="edge28" class="edge"><title>Node18&#45;&gt;Node2</title>
<path fill="none" stroke="midnightblue" d="M526.034,-201.418C518.237,-185.532 499.35,-151.563 473,-134 442.226,-113.488 403.708,-101.308 368.778,-94.0748"/>
<polygon fill="midnightblue" stroke="midnightblue" points="369.036,-90.5589 358.55,-92.0742 367.692,-97.4288 369.036,-90.5589"/>
</g>
<!-- Node18&#45;&gt;Node6 -->
<g id="edge30" class="edge"><title>Node18&#45;&gt;Node6</title>
<path fill="none" stroke="midnightblue" d="M485.298,-201.475C423.783,-189.744 314.09,-168.825 256.202,-157.785"/>
<polygon fill="midnightblue" stroke="midnightblue" points="256.836,-154.343 246.357,-155.908 255.524,-161.219 256.836,-154.343"/>
</g>
<!-- Node18&#45;&gt;Node9 -->
<g id="edge29" class="edge"><title>Node18&#45;&gt;Node9</title>
<path fill="none" stroke="midnightblue" d="M600.008,-208.746C675.499,-205.779 788.7,-196.102 817,-165 832.32,-148.163 830.388,-120.381 826.819,-102.01"/>
<polygon fill="midnightblue" stroke="midnightblue" points="830.219,-101.175 824.586,-92.2015 823.393,-102.729 830.219,-101.175"/>
</g>
<!-- Node18&#45;&gt;Node12 -->
<g id="edge31" class="edge"><title>Node18&#45;&gt;Node12</title>
<path fill="none" stroke="midnightblue" d="M529.175,-201.305C527.248,-180.994 522.416,-130.053 519.781,-102.277"/>
<polygon fill="midnightblue" stroke="midnightblue" points="523.259,-101.88 518.831,-92.2557 516.291,-102.542 523.259,-101.88"/>
</g>
<!-- Node18&#45;&gt;Node13 -->
<g id="edge32" class="edge"><title>Node18&#45;&gt;Node13</title>
<path fill="none" stroke="midnightblue" d="M600.024,-204.416C654.387,-198.456 723.388,-186.765 741,-165 755.354,-147.262 748.565,-119.73 741.502,-101.658"/>
<polygon fill="midnightblue" stroke="midnightblue" points="744.628,-100.066 737.47,-92.2557 738.195,-102.826 744.628,-100.066"/>
</g>
<!-- Node18&#45;&gt;Node14 -->
<g id="edge33" class="edge"><title>Node18&#45;&gt;Node14</title>
<path fill="none" stroke="midnightblue" d="M517.248,-201.475C502.973,-191.931 479.603,-176.307 462.492,-164.868"/>
<polygon fill="midnightblue" stroke="midnightblue" points="463.986,-161.657 453.728,-159.009 460.096,-167.477 463.986,-161.657"/>
</g>
<!-- Node18&#45;&gt;Node15 -->
<g id="edge34" class="edge"><title>Node18&#45;&gt;Node15</title>
<path fill="none" stroke="midnightblue" d="M506.583,-201.451C482.001,-192.455 442.241,-177.847 408,-165 406.116,-164.293 404.18,-163.564 402.228,-162.826"/>
<polygon fill="midnightblue" stroke="midnightblue" points="403.08,-159.406 392.489,-159.129 400.596,-165.95 403.08,-159.406"/>
</g>
<!-- Node18&#45;&gt;Node16 -->
<g id="edge35" class="edge"><title>Node18&#45;&gt;Node16</title>
<path fill="none" stroke="midnightblue" d="M544.184,-201.475C557.843,-193.266 578.987,-180.558 596.747,-169.885"/>
<polygon fill="midnightblue" stroke="midnightblue" points="598.9,-172.674 605.668,-164.523 595.294,-166.674 598.9,-172.674"/>
</g>
</g>
</svg>
        <g id="navigator" transform="translate(0 0)" fill="#404254">
                <rect fill="#f2f5e9" fill-opacity="0.5" stroke="#606060" stroke-width=".5" x="0" y="0" width="60" height="60"/>
                <use id="zoomplus" xlink:href="#zoomPlus" x="17" y="9" onmousedown="handleZoom(evt,'in')"/>
                <use id="zoomminus" xlink:href="#zoomMin" x="42" y="9" onmousedown="handleZoom(evt,'out')"/>
                <use id="reset" xlink:href="#resetDef" x="30" y="36" onmousedown="handleReset()"/>
                <g id="arrowUp" xlink:href="#dirArrow" transform="translate(30 24)" onmousedown="handlePan(0,-1)">
                  <use xlink:href="#rim" fill="#404040">
                        <set attributeName="fill" to="#808080" begin="arrowUp.mouseover" end="arrowUp.mouseout"/>
                  </use>
                  <path fill="none" stroke="white" stroke-width="1.5" d="M0,-3.0v7 M-2.5,-0.5L0,-3.0L2.5,-0.5"/>
                </g>
                <g id="arrowRight" xlink:href="#dirArrow" transform="rotate(90) translate(36 -43)" onmousedown="handlePan(1,0)">
                  <use xlink:href="#rim" fill="#404040">
                        <set attributeName="fill" to="#808080" begin="arrowRight.mouseover" end="arrowRight.mouseout"/>
                  </use>
                  <path fill="none" stroke="white" stroke-width="1.5" d="M0,-3.0v7 M-2.5,-0.5L0,-3.0L2.5,-0.5"/>
                </g>
                <g id="arrowDown" xlink:href="#dirArrow" transform="rotate(180) translate(-30 -48)" onmousedown="handlePan(0,1)">
                  <use xlink:href="#rim" fill="#404040">
                        <set attributeName="fill" to="#808080" begin="arrowDown.mouseover" end="arrowDown.mouseout"/>
                  </use>
                  <path fill="none" stroke="white" stroke-width="1.5" d="M0,-3.0v7 M-2.5,-0.5L0,-3.0L2.5,-0.5"/>
                </g>
                <g id="arrowLeft" xlink:href="#dirArrow" transform="rotate(270) translate(-36 17)" onmousedown="handlePan(-1,0)">
                  <use xlink:href="#rim" fill="#404040">
                        <set attributeName="fill" to="#808080" begin="arrowLeft.mouseover" end="arrowLeft.mouseout"/>
                  </use>
                  <path fill="none" stroke="white" stroke-width="1.5" d="M0,-3.0v7 M-2.5,-0.5L0,-3.0L2.5,-0.5"/>
                </g>
        </g>
        <svg viewBox="0 0 15 15" width="100%" height="30px" preserveAspectRatio="xMaxYMin meet">
         <g id="arrow_out" transform="scale(0.3 0.3)">
          <a xlink:href="STLHelper_8hpp__incl_org.svg" target="_base">
           <rect id="button" ry="5" rx="5" y="6" x="6" height="38" width="38"
                fill="#f2f5e9" fill-opacity="0.5" stroke="#606060" stroke-width="1.0"/>
           <path id="arrow"
             d="M 11.500037,31.436501 C 11.940474,20.09759 22.043105,11.32322 32.158766,21.979434 L 37.068811,17.246167 C 37.068811,17.246167 37.088388,32 37.088388,32 L 22.160133,31.978069 C 22.160133,31.978069 26.997745,27.140456 26.997745,27.140456 C 18.528582,18.264221 13.291696,25.230495 11.500037,31.436501 z"
             style="fill:#404040;"/>
          </a>
         </g>
        </svg>
</svg>
