<?xml version="1.0" encoding="UTF-8" standalone="no"?>
<!DOCTYPE svg PUBLIC "-//W3C//DTD SVG 1.1//EN"
 "http://www.w3.org/Graphics/SVG/1.1/DTD/svg11.dtd">
<!-- Generated by graphviz version 2.43.0 (0)
 -->
<!-- Title: xalanc::XercesParserLiaison::DocumentEntry Pages: 1 -->
<svg width="187pt" height="220pt"
 viewBox="0.00 0.00 187.00 220.00" xmlns="http://www.w3.org/2000/svg" xmlns:xlink="http://www.w3.org/1999/xlink">
<g id="graph0" class="graph" transform="scale(1 1) rotate(0) translate(4 216)">
<title>xalanc::XercesParserLiaison::DocumentEntry</title>
<!-- Node1 -->
<g id="node1" class="node">
<title>Node1</title>
<g id="a_node1"><a xlink:title=" ">
<polygon fill="#bfbfbf" stroke="black" points="13.5,-0.5 13.5,-30.5 165.5,-30.5 165.5,-0.5 13.5,-0.5"/>
<text text-anchor="start" x="21.5" y="-18.5" font-family="Helvetica,sans-Serif" font-size="10.00">xalanc::XercesParserLiaison</text>
<text text-anchor="middle" x="89.5" y="-7.5" font-family="Helvetica,sans-Serif" font-size="10.00">::DocumentEntry</text>
</a>
</g>
</g>
<!-- Node2 -->
<g id="node2" class="node">
<title>Node2</title>
<g id="a_node2"><a xlink:href="classxalanc_1_1XercesDocumentWrapper.html" target="_top" xlink:title=" ">
<polygon fill="none" stroke="black" points="0,-78.5 0,-97.5 179,-97.5 179,-78.5 0,-78.5"/>
<text text-anchor="middle" x="89.5" y="-85.5" font-family="Helvetica,sans-Serif" font-size="10.00">xalanc::XercesDocumentWrapper</text>
</a>
</g>
</g>
<!-- Node2&#45;&gt;Node1 -->
<g id="edge1" class="edge">
<title>Node2&#45;&gt;Node1</title>
<path fill="none" stroke="#9a32cd" stroke-dasharray="5,2" d="M89.5,-68.24C89.5,-56.41 89.5,-41.38 89.5,-30.58"/>
<polygon fill="#9a32cd" stroke="#9a32cd" points="86,-68.36 89.5,-78.36 93,-68.36 86,-68.36"/>
<text text-anchor="middle" x="118.5" y="-52" font-family="Helvetica,sans-Serif" font-size="10.00"> m_wrapper</text>
</g>
<!-- Node3 -->
<g id="node3" class="node">
<title>Node3</title>
<g id="a_node3"><a xlink:href="classxalanc_1_1XalanDocument.html" target="_top" xlink:title=" ">
<polygon fill="none" stroke="black" points="23,-135.5 23,-154.5 156,-154.5 156,-135.5 23,-135.5"/>
<text text-anchor="middle" x="89.5" y="-142.5" font-family="Helvetica,sans-Serif" font-size="10.00">xalanc::XalanDocument</text>
</a>
</g>
</g>
<!-- Node3&#45;&gt;Node2 -->
<g id="edge2" class="edge">
<title>Node3&#45;&gt;Node2</title>
<path fill="none" stroke="midnightblue" d="M89.5,-125.12C89.5,-115.82 89.5,-105.06 89.5,-97.71"/>
<polygon fill="midnightblue" stroke="midnightblue" points="86,-125.41 89.5,-135.41 93,-125.41 86,-125.41"/>
</g>
<!-- Node4 -->
<g id="node4" class="node">
<title>Node4</title>
<g id="a_node4"><a xlink:href="classxalanc_1_1XalanNode.html" target="_top" xlink:title=" ">
<polygon fill="none" stroke="black" points="35.5,-192.5 35.5,-211.5 143.5,-211.5 143.5,-192.5 35.5,-192.5"/>
<text text-anchor="middle" x="89.5" y="-199.5" font-family="Helvetica,sans-Serif" font-size="10.00">xalanc::XalanNode</text>
</a>
</g>
</g>
<!-- Node4&#45;&gt;Node3 -->
<g id="edge3" class="edge">
<title>Node4&#45;&gt;Node3</title>
<path fill="none" stroke="midnightblue" d="M89.5,-182.12C89.5,-172.82 89.5,-162.06 89.5,-154.71"/>
<polygon fill="midnightblue" stroke="midnightblue" points="86,-182.41 89.5,-192.41 93,-182.41 86,-182.41"/>
</g>
</g>
</svg>
