<?xml version="1.0" encoding="UTF-8" standalone="no"?>
<!DOCTYPE svg PUBLIC "-//W3C//DTD SVG 1.1//EN"
 "http://www.w3.org/Graphics/SVG/1.1/DTD/svg11.dtd">
<!-- Generated by graphviz version 2.38.0 (20140413.2041)
 -->
<!-- Title: xalanc::Counter Pages: 1 -->
<svg width="812pt" height="212pt"
 viewBox="0.00 0.00 812.00 211.50" xmlns="http://www.w3.org/2000/svg" xmlns:xlink="http://www.w3.org/1999/xlink">
<g id="graph0" class="graph" transform="scale(1 1) rotate(0) translate(4 207.5)">
<title>xalanc::Counter</title>
<!-- Node1 -->
<g id="node1" class="node"><title>Node1</title>
<g id="a_node1"><a xlink:title="&lt;meta name=&quot;usage&quot; content=&quot;internal&quot;&gt; A class that does incremental counting for support of xsl:numb...">
<polygon fill="#bfbfbf" stroke="black" points="719,-146 719,-165 804,-165 804,-146 719,-146"/>
<text text-anchor="middle" x="761.5" y="-153" font-family="Helvetica,sans-Serif" font-size="10.00">xalanc::Counter</text>
</a>
</g>
</g>
<!-- Node2 -->
<g id="node2" class="node"><title>Node2</title>
<g id="a_node2"><a xlink:href="classxalanc_1_1XalanNode.html" target="_top" xlink:title=" ">
<polygon fill="none" stroke="black" points="503,-184 503,-203 600,-203 600,-184 503,-184"/>
<text text-anchor="middle" x="551.5" y="-191" font-family="Helvetica,sans-Serif" font-size="10.00">xalanc::XalanNode</text>
</a>
</g>
</g>
<!-- Node2&#45;&gt;Node1 -->
<g id="edge1" class="edge"><title>Node2&#45;&gt;Node1</title>
<path fill="none" stroke="#9a32cd" stroke-dasharray="5,2" d="M610.437,-185.807C637.98,-181.823 671.301,-176.53 701,-170.5 708.83,-168.91 717.179,-166.965 725.071,-165.008"/>
<polygon fill="#9a32cd" stroke="#9a32cd" points="609.59,-182.392 600.184,-187.268 610.578,-189.322 609.59,-182.392"/>
<text text-anchor="middle" x="665" y="-185.5" font-family="Helvetica,sans-Serif" font-size="10.00"> m_fromNode</text>
</g>
<!-- Node3 -->
<g id="node3" class="node"><title>Node3</title>
<g id="a_node3"><a xlink:href="classxalanc_1_1ElemNumber.html" target="_top" xlink:title=" ">
<polygon fill="none" stroke="black" points="498,-146 498,-165 605,-165 605,-146 498,-146"/>
<text text-anchor="middle" x="551.5" y="-153" font-family="Helvetica,sans-Serif" font-size="10.00">xalanc::ElemNumber</text>
</a>
</g>
</g>
<!-- Node3&#45;&gt;Node1 -->
<g id="edge2" class="edge"><title>Node3&#45;&gt;Node1</title>
<path fill="none" stroke="#9a32cd" stroke-dasharray="5,2" d="M615.431,-155.5C648.982,-155.5 689.328,-155.5 718.945,-155.5"/>
<polygon fill="#9a32cd" stroke="#9a32cd" points="615.256,-152 605.256,-155.5 615.256,-159 615.256,-152"/>
<text text-anchor="middle" x="665" y="-158.5" font-family="Helvetica,sans-Serif" font-size="10.00"> m_numberElem</text>
</g>
<!-- Node4 -->
<g id="node4" class="node"><title>Node4</title>
<g id="a_node4"><a xlink:href="classxalanc_1_1ElemTemplateElement.html" target="_top" xlink:title=" ">
<polygon fill="none" stroke="black" points="225,-99 225,-118 374,-118 374,-99 225,-99"/>
<text text-anchor="middle" x="299.5" y="-106" font-family="Helvetica,sans-Serif" font-size="10.00">xalanc::ElemTemplateElement</text>
</a>
</g>
</g>
<!-- Node4&#45;&gt;Node3 -->
<g id="edge3" class="edge"><title>Node4&#45;&gt;Node3</title>
<path fill="none" stroke="midnightblue" d="M338.373,-121.169C354.716,-126.246 374.144,-131.765 392,-135.5 426.885,-142.798 466.684,-147.809 497.674,-150.989"/>
<polygon fill="midnightblue" stroke="midnightblue" points="339.228,-117.769 328.638,-118.085 337.115,-124.442 339.228,-117.769"/>
</g>
<!-- Node4&#45;&gt;Node4 -->
<g id="edge8" class="edge"><title>Node4&#45;&gt;Node4</title>
<path fill="none" stroke="#9a32cd" stroke-dasharray="5,2" d="M276.063,-127.529C277.341,-132.628 285.154,-136.5 299.5,-136.5 321.895,-136.5 328.368,-127.065 318.92,-118.257"/>
<polygon fill="#9a32cd" stroke="#9a32cd" points="279.316,-128.824 280.08,-118.257 272.893,-126.041 279.316,-128.824"/>
<text text-anchor="middle" x="299.5" y="-139.5" font-family="Helvetica,sans-Serif" font-size="10.00"> m_firstChild</text>
</g>
<!-- Node6 -->
<g id="node6" class="node"><title>Node6</title>
<g id="a_node6"><a xlink:href="classxalanc_1_1ElemTextLiteral.html" target="_top" xlink:title=" ">
<polygon fill="none" stroke="black" points="492,-102 492,-121 611,-121 611,-102 492,-102"/>
<text text-anchor="middle" x="551.5" y="-109" font-family="Helvetica,sans-Serif" font-size="10.00">xalanc::ElemTextLiteral</text>
</a>
</g>
</g>
<!-- Node4&#45;&gt;Node6 -->
<g id="edge6" class="edge"><title>Node4&#45;&gt;Node6</title>
<path fill="none" stroke="midnightblue" d="M375.137,-119.102C380.835,-119.662 386.504,-120.141 392,-120.5 428.367,-122.875 437.618,-122.633 474,-120.5 479.74,-120.163 485.711,-119.686 491.672,-119.125"/>
<polygon fill="midnightblue" stroke="midnightblue" points="375.196,-115.589 364.882,-118.015 374.457,-122.55 375.196,-115.589"/>
</g>
<!-- Node8 -->
<g id="node8" class="node"><title>Node8</title>
<g id="a_node8"><a xlink:href="classxalanc_1_1ElemTemplate.html" target="_top" xlink:title=" ">
<polygon fill="none" stroke="black" points="495,-61 495,-80 608,-80 608,-61 495,-61"/>
<text text-anchor="middle" x="551.5" y="-68" font-family="Helvetica,sans-Serif" font-size="10.00">xalanc::ElemTemplate</text>
</a>
</g>
</g>
<!-- Node4&#45;&gt;Node8 -->
<g id="edge10" class="edge"><title>Node4&#45;&gt;Node8</title>
<path fill="none" stroke="midnightblue" d="M373.452,-97.4113C412.237,-91.516 459.161,-84.3836 494.954,-78.943"/>
<polygon fill="midnightblue" stroke="midnightblue" points="372.623,-93.997 363.263,-98.96 373.675,-100.917 372.623,-93.997"/>
</g>
<!-- Node5 -->
<g id="node5" class="node"><title>Node5</title>
<g id="a_node5"><a xlink:href="classxalanc_1_1PrefixResolver.html" target="_top" xlink:title="This class defines an interface for classes that resolve namespace prefixes to their URIs.">
<polygon fill="none" stroke="black" points="4.5,-118 4.5,-137 117.5,-137 117.5,-118 4.5,-118"/>
<text text-anchor="middle" x="61" y="-125" font-family="Helvetica,sans-Serif" font-size="10.00">xalanc::PrefixResolver</text>
</a>
</g>
</g>
<!-- Node5&#45;&gt;Node4 -->
<g id="edge4" class="edge"><title>Node5&#45;&gt;Node4</title>
<path fill="none" stroke="midnightblue" d="M127.733,-122.219C157.869,-119.798 193.715,-116.918 224.765,-114.424"/>
<polygon fill="midnightblue" stroke="midnightblue" points="127.435,-118.732 117.748,-123.021 127.996,-125.709 127.435,-118.732"/>
</g>
<!-- Node6&#45;&gt;Node4 -->
<g id="edge5" class="edge"><title>Node6&#45;&gt;Node4</title>
<path fill="none" stroke="#9a32cd" stroke-dasharray="5,2" d="M481.614,-109.633C479.044,-109.585 476.499,-109.54 474,-109.5 441.322,-108.979 405.178,-108.72 374.375,-108.594"/>
<polygon fill="#9a32cd" stroke="#9a32cd" points="481.543,-113.133 491.613,-109.84 481.687,-106.134 481.543,-113.133"/>
<text text-anchor="middle" x="433" y="-112.5" font-family="Helvetica,sans-Serif" font-size="10.00"> m_textLiteralChild</text>
</g>
<!-- Node7 -->
<g id="node7" class="node"><title>Node7</title>
<g id="a_node7"><a xlink:href="classxalanc_1_1XalanDOMString.html" target="_top" xlink:title=" ">
<polygon fill="none" stroke="black" points="0,-80 0,-99 122,-99 122,-80 0,-80"/>
<text text-anchor="middle" x="61" y="-87" font-family="Helvetica,sans-Serif" font-size="10.00">xalanc::XalanDOMString</text>
</a>
</g>
</g>
<!-- Node7&#45;&gt;Node4 -->
<g id="edge7" class="edge"><title>Node7&#45;&gt;Node4</title>
<path fill="none" stroke="#9a32cd" stroke-dasharray="5,2" d="M132.388,-95.1548C161.524,-97.4956 195.324,-100.211 224.8,-102.579"/>
<polygon fill="#9a32cd" stroke="#9a32cd" points="132.539,-91.6558 122.291,-94.3437 131.978,-98.6333 132.539,-91.6558"/>
<text text-anchor="middle" x="173.5" y="-104.5" font-family="Helvetica,sans-Serif" font-size="10.00"> s_emptyString</text>
</g>
<!-- Node8&#45;&gt;Node4 -->
<g id="edge9" class="edge"><title>Node8&#45;&gt;Node4</title>
<path fill="none" stroke="#9a32cd" stroke-dasharray="5,2" d="M514.791,-57.891C482.237,-48.288 433.1,-38.5711 392,-50.5 359.307,-59.9889 327.104,-85.0537 311.041,-98.9257"/>
<polygon fill="#9a32cd" stroke="#9a32cd" points="514.159,-61.3592 524.747,-60.9772 516.231,-54.6731 514.159,-61.3592"/>
<text text-anchor="middle" x="433" y="-53.5" font-family="Helvetica,sans-Serif" font-size="10.00"> m_directTemplate</text>
</g>
<!-- Node9 -->
<g id="node9" class="node"><title>Node9</title>
<g id="a_node9"><a xlink:href="classxalanc_1_1XalanVector.html" target="_top" xlink:title=" ">
<polygon fill="none" stroke="black" points="500,-6.5 500,-36.5 603,-36.5 603,-6.5 500,-6.5"/>
<text text-anchor="start" x="508" y="-24.5" font-family="Helvetica,sans-Serif" font-size="10.00">xalanc::XalanVector</text>
<text text-anchor="middle" x="551.5" y="-13.5" font-family="Helvetica,sans-Serif" font-size="10.00">&lt; XalanNode * &gt;</text>
</a>
</g>
</g>
<!-- Node9&#45;&gt;Node1 -->
<g id="edge11" class="edge"><title>Node9&#45;&gt;Node1</title>
<path fill="none" stroke="#9a32cd" stroke-dasharray="5,2" d="M592.815,-41.2739C598.981,-44.5558 605.215,-48.0256 611,-51.5 663.584,-83.0794 722.325,-126.521 747.694,-145.711"/>
<polygon fill="#9a32cd" stroke="#9a32cd" points="594.375,-38.1401 583.89,-36.6212 591.139,-44.3473 594.375,-38.1401"/>
<text text-anchor="middle" x="665" y="-112.5" font-family="Helvetica,sans-Serif" font-size="10.00"> m_countNodes</text>
</g>
<!-- Node10 -->
<g id="node10" class="node"><title>Node10</title>
<g id="a_node10"><a xlink:href="classxalanc_1_1XalanVector.html" target="_top" xlink:title=" ">
<polygon fill="none" stroke="black" points="229.5,-0.5 229.5,-30.5 369.5,-30.5 369.5,-0.5 229.5,-0.5"/>
<text text-anchor="start" x="237.5" y="-18.5" font-family="Helvetica,sans-Serif" font-size="10.00">xalanc::XalanVector</text>
<text text-anchor="middle" x="299.5" y="-7.5" font-family="Helvetica,sans-Serif" font-size="10.00">&lt; Type, ConstructionTraits &gt;</text>
</a>
</g>
</g>
<!-- Node10&#45;&gt;Node9 -->
<g id="edge12" class="edge"><title>Node10&#45;&gt;Node9</title>
<path fill="none" stroke="orange" stroke-dasharray="5,2" d="M380.004,-14.9659C409.53,-15.0289 443.302,-15.4093 474,-16.5 482.38,-16.7977 491.268,-17.2517 499.907,-17.7671"/>
<polygon fill="orange" stroke="orange" points="379.753,-11.4658 369.749,-14.9562 379.746,-18.4658 379.753,-11.4658"/>
<text text-anchor="middle" x="433" y="-19.5" font-family="Helvetica,sans-Serif" font-size="10.00"> &lt; XalanNode * &gt;</text>
</g>
</g>
</svg>
