<?xml version="1.0" encoding="UTF-8" standalone="no"?>
<!DOCTYPE svg PUBLIC "-//W3C//DTD SVG 1.1//EN"
 "http://www.w3.org/Graphics/SVG/1.1/DTD/svg11.dtd">
<!-- Generated by graphviz version 2.43.0 (0)
 -->
<!-- Title: xalanc::XalanMapKeyTraits&lt; Key &gt; Pages: 1 -->
<svg width="489pt" height="186pt"
 viewBox="0.00 0.00 489.00 186.00" xmlns="http://www.w3.org/2000/svg" xmlns:xlink="http://www.w3.org/1999/xlink">
<g id="graph0" class="graph" transform="scale(1 1) rotate(0) translate(4 182)">
<title>xalanc::XalanMapKeyTraits&lt; Key &gt;</title>
<!-- Node1 -->
<g id="node1" class="node">
<title>Node1</title>
<g id="a_node1"><a xlink:title=" ">
<polygon fill="#bfbfbf" stroke="black" points="0,-73.5 0,-103.5 148,-103.5 148,-73.5 0,-73.5"/>
<text text-anchor="start" x="8" y="-91.5" font-family="Helvetica,sans-Serif" font-size="10.00">xalanc::XalanMapKeyTraits</text>
<text text-anchor="middle" x="74" y="-80.5" font-family="Helvetica,sans-Serif" font-size="10.00">&lt; Key &gt;</text>
</a>
</g>
</g>
<!-- Node2 -->
<g id="node2" class="node">
<title>Node2</title>
<g id="a_node2"><a xlink:href="structxalanc_1_1XalanMapKeyTraits.html" target="_top" xlink:title=" ">
<polygon fill="none" stroke="black" points="326,-147.5 326,-177.5 481,-177.5 481,-147.5 326,-147.5"/>
<text text-anchor="start" x="334" y="-165.5" font-family="Helvetica,sans-Serif" font-size="10.00">xalanc::XalanMapKeyTraits</text>
<text text-anchor="middle" x="403.5" y="-154.5" font-family="Helvetica,sans-Serif" font-size="10.00">&lt; const XalanDocument * &gt;</text>
</a>
</g>
</g>
<!-- Node1&#45;&gt;Node2 -->
<g id="edge1" class="edge">
<title>Node1&#45;&gt;Node2</title>
<path fill="none" stroke="orange" stroke-dasharray="5,2" d="M123.23,-107.1C136.92,-111.93 151.92,-116.8 166,-120.5 218.73,-134.36 279.29,-145.01 325.93,-152.13"/>
<polygon fill="orange" stroke="orange" points="124.13,-103.7 113.54,-103.61 121.76,-110.29 124.13,-103.7"/>
<text text-anchor="middle" x="237" y="-151.5" font-family="Helvetica,sans-Serif" font-size="10.00"> &lt; const XalanDocument * &gt;</text>
</g>
<!-- Node3 -->
<g id="node3" class="node">
<title>Node3</title>
<g id="a_node3"><a xlink:href="structxalanc_1_1XalanMapKeyTraits.html" target="_top" xlink:title=" ">
<polygon fill="none" stroke="black" points="329.5,-98.5 329.5,-128.5 477.5,-128.5 477.5,-98.5 329.5,-98.5"/>
<text text-anchor="start" x="337.5" y="-116.5" font-family="Helvetica,sans-Serif" font-size="10.00">xalanc::XalanMapKeyTraits</text>
<text text-anchor="middle" x="403.5" y="-105.5" font-family="Helvetica,sans-Serif" font-size="10.00">&lt; value_type &gt;</text>
</a>
</g>
</g>
<!-- Node1&#45;&gt;Node3 -->
<g id="edge2" class="edge">
<title>Node1&#45;&gt;Node3</title>
<path fill="none" stroke="orange" stroke-dasharray="5,2" d="M158.1,-94.84C210.9,-98.87 278.6,-104.04 329.35,-107.92"/>
<polygon fill="orange" stroke="orange" points="158.33,-91.35 148.09,-94.08 157.79,-98.33 158.33,-91.35"/>
<text text-anchor="middle" x="237" y="-108.5" font-family="Helvetica,sans-Serif" font-size="10.00"> &lt; value_type &gt;</text>
</g>
<!-- Node4 -->
<g id="node4" class="node">
<title>Node4</title>
<g id="a_node4"><a xlink:href="structxalanc_1_1XalanMapKeyTraits.html" target="_top" xlink:title=" ">
<polygon fill="none" stroke="black" points="329,-49.5 329,-79.5 478,-79.5 478,-49.5 329,-49.5"/>
<text text-anchor="start" x="337" y="-67.5" font-family="Helvetica,sans-Serif" font-size="10.00">xalanc::XalanMapKeyTraits</text>
<text text-anchor="middle" x="403.5" y="-56.5" font-family="Helvetica,sans-Serif" font-size="10.00">&lt; const DOMNodeType * &gt;</text>
</a>
</g>
</g>
<!-- Node1&#45;&gt;Node4 -->
<g id="edge3" class="edge">
<title>Node1&#45;&gt;Node4</title>
<path fill="none" stroke="orange" stroke-dasharray="5,2" d="M158.22,-81.12C160.84,-80.9 163.44,-80.7 166,-80.5 220.57,-76.26 282.27,-72.1 328.97,-69.09"/>
<polygon fill="orange" stroke="orange" points="157.68,-77.65 148,-81.95 158.25,-84.62 157.68,-77.65"/>
<text text-anchor="middle" x="237" y="-83.5" font-family="Helvetica,sans-Serif" font-size="10.00"> &lt; const DOMNodeType * &gt;</text>
</g>
<!-- Node5 -->
<g id="node5" class="node">
<title>Node5</title>
<g id="a_node5"><a xlink:href="structxalanc_1_1XalanMapKeyTraits.html" target="_top" xlink:title=" ">
<polygon fill="none" stroke="black" points="329.5,-0.5 329.5,-30.5 477.5,-30.5 477.5,-0.5 329.5,-0.5"/>
<text text-anchor="start" x="337.5" y="-18.5" font-family="Helvetica,sans-Serif" font-size="10.00">xalanc::XalanMapKeyTraits</text>
<text text-anchor="middle" x="403.5" y="-7.5" font-family="Helvetica,sans-Serif" font-size="10.00">&lt; void * &gt;</text>
</a>
</g>
</g>
<!-- Node1&#45;&gt;Node5 -->
<g id="edge4" class="edge">
<title>Node1&#45;&gt;Node5</title>
<path fill="none" stroke="orange" stroke-dasharray="5,2" d="M121.25,-69.9C135.44,-64.69 151.21,-59.4 166,-55.5 219.96,-41.28 282.23,-30.99 329.32,-24.4"/>
<polygon fill="orange" stroke="orange" points="119.85,-66.69 111.71,-73.48 122.3,-73.25 119.85,-66.69"/>
<text text-anchor="middle" x="237" y="-58.5" font-family="Helvetica,sans-Serif" font-size="10.00"> &lt; void * &gt;</text>
</g>
</g>
</svg>
