<?xml version="1.0" encoding="UTF-8" standalone="no"?>
<!DOCTYPE svg PUBLIC "-//W3C//DTD SVG 1.1//EN"
 "http://www.w3.org/Graphics/SVG/1.1/DTD/svg11.dtd">
<!-- Generated by graphviz version 2.38.0 (20140413.2041)
 -->
<!-- Title: xalanc::OutputContextStack::OutputContext Pages: 1 -->
<svg width="562pt" height="173pt"
 viewBox="0.00 0.00 561.50 173.00" xmlns="http://www.w3.org/2000/svg" xmlns:xlink="http://www.w3.org/1999/xlink">
<g id="graph0" class="graph" transform="scale(1 1) rotate(0) translate(4 169)">
<title>xalanc::OutputContextStack::OutputContext</title>
<!-- Node1 -->
<g id="node1" class="node"><title>Node1</title>
<g id="a_node1"><a xlink:title=" ">
<polygon fill="#bfbfbf" stroke="black" points="99,-0.5 99,-30.5 239,-30.5 239,-0.5 99,-0.5"/>
<text text-anchor="start" x="107" y="-18.5" font-family="Helvetica,sans-Serif" font-size="10.00">xalanc::OutputContextStack</text>
<text text-anchor="middle" x="169" y="-7.5" font-family="Helvetica,sans-Serif" font-size="10.00">::OutputContext</text>
</a>
</g>
</g>
<!-- Node2 -->
<g id="node2" class="node"><title>Node2</title>
<g id="a_node2"><a xlink:href="classxalanc_1_1AttributeListImpl.html" target="_top" xlink:title=" ">
<polygon fill="none" stroke="black" points="0,-78.5 0,-97.5 122,-97.5 122,-78.5 0,-78.5"/>
<text text-anchor="middle" x="61" y="-85.5" font-family="Helvetica,sans-Serif" font-size="10.00">xalanc::AttributeListImpl</text>
</a>
</g>
</g>
<!-- Node2&#45;&gt;Node1 -->
<g id="edge1" class="edge"><title>Node2&#45;&gt;Node1</title>
<path fill="none" stroke="#9a32cd" stroke-dasharray="5,2" d="M57.2147,-67.951C56.9481,-61.3655 57.9515,-54.3133 62,-49 71.119,-37.0321 84.5231,-29.3319 98.7821,-24.4121"/>
<polygon fill="#9a32cd" stroke="#9a32cd" points="53.7877,-68.7391 58.5491,-78.2037 60.7291,-67.8356 53.7877,-68.7391"/>
<text text-anchor="middle" x="108.5" y="-52" font-family="Helvetica,sans-Serif" font-size="10.00"> m_pendingAttributes</text>
</g>
<!-- Node3 -->
<g id="node3" class="node"><title>Node3</title>
<g id="a_node3"><a xlink:title=" ">
<polygon fill="none" stroke="#bfbfbf" points="16,-145.5 16,-164.5 106,-164.5 106,-145.5 16,-145.5"/>
<text text-anchor="middle" x="61" y="-152.5" font-family="Helvetica,sans-Serif" font-size="10.00">AttributeListType</text>
</a>
</g>
</g>
<!-- Node3&#45;&gt;Node2 -->
<g id="edge2" class="edge"><title>Node3&#45;&gt;Node2</title>
<path fill="none" stroke="midnightblue" d="M61,-135.037C61,-122.67 61,-107.12 61,-97.6273"/>
<polygon fill="midnightblue" stroke="midnightblue" points="57.5001,-135.234 61,-145.234 64.5001,-135.234 57.5001,-135.234"/>
</g>
<!-- Node4 -->
<g id="node4" class="node"><title>Node4</title>
<g id="a_node4"><a xlink:href="classxalanc_1_1XalanDOMString.html" target="_top" xlink:title=" ">
<polygon fill="none" stroke="black" points="140,-145.5 140,-164.5 262,-164.5 262,-145.5 140,-145.5"/>
<text text-anchor="middle" x="201" y="-152.5" font-family="Helvetica,sans-Serif" font-size="10.00">xalanc::XalanDOMString</text>
</a>
</g>
</g>
<!-- Node4&#45;&gt;Node1 -->
<g id="edge3" class="edge"><title>Node4&#45;&gt;Node1</title>
<path fill="none" stroke="#9a32cd" stroke-dasharray="5,2" d="M192.09,-135.985C187.151,-125.217 181.348,-111.12 178,-98 172.087,-74.8272 170.059,-46.9696 169.363,-30.5557"/>
<polygon fill="#9a32cd" stroke="#9a32cd" points="188.994,-137.624 196.453,-145.148 195.314,-134.615 188.994,-137.624"/>
<text text-anchor="middle" x="234" y="-85.5" font-family="Helvetica,sans-Serif" font-size="10.00"> m_pendingElementName</text>
</g>
<!-- Node5 -->
<g id="node5" class="node"><title>Node5</title>
<g id="a_node5"><a xlink:href="classxalanc_1_1FormatterListener.html" target="_top" xlink:title="A SAX&#45;based formatter interface for the XSL processor.">
<polygon fill="none" stroke="black" points="299,-78.5 299,-97.5 427,-97.5 427,-78.5 299,-78.5"/>
<text text-anchor="middle" x="363" y="-85.5" font-family="Helvetica,sans-Serif" font-size="10.00">xalanc::FormatterListener</text>
</a>
</g>
</g>
<!-- Node4&#45;&gt;Node5 -->
<g id="edge6" class="edge"><title>Node4&#45;&gt;Node5</title>
<path fill="none" stroke="#9a32cd" stroke-dasharray="5,2" d="M228.853,-141.273C245.829,-133.657 268.029,-123.946 288,-116 304.459,-109.451 323.209,-102.701 337.844,-97.5885"/>
<polygon fill="#9a32cd" stroke="#9a32cd" points="227.193,-138.183 219.518,-145.486 230.073,-144.563 227.193,-138.183"/>
<text text-anchor="middle" x="321.5" y="-119" font-family="Helvetica,sans-Serif" font-size="10.00"> s_emptyString</text>
</g>
<!-- Node5&#45;&gt;Node1 -->
<g id="edge4" class="edge"><title>Node5&#45;&gt;Node1</title>
<path fill="none" stroke="#9a32cd" stroke-dasharray="5,2" d="M330.148,-75.0616C296.247,-62.7417 243.396,-43.5356 207.541,-30.5059"/>
<polygon fill="#9a32cd" stroke="#9a32cd" points="329.005,-78.37 339.599,-78.4961 331.396,-71.791 329.005,-78.37"/>
<text text-anchor="middle" x="309.5" y="-52" font-family="Helvetica,sans-Serif" font-size="10.00"> m_flistener</text>
</g>
<!-- Node6 -->
<g id="node6" class="node"><title>Node6</title>
<g id="a_node6"><a xlink:title=" ">
<polygon fill="none" stroke="#bfbfbf" points="288,-145.5 288,-164.5 422,-164.5 422,-145.5 288,-145.5"/>
<text text-anchor="middle" x="355" y="-152.5" font-family="Helvetica,sans-Serif" font-size="10.00">xercesc::DocumentHandler</text>
</a>
</g>
</g>
<!-- Node6&#45;&gt;Node5 -->
<g id="edge5" class="edge"><title>Node6&#45;&gt;Node5</title>
<path fill="none" stroke="midnightblue" d="M357.334,-135.037C358.856,-122.67 360.77,-107.12 361.938,-97.6273"/>
<polygon fill="midnightblue" stroke="midnightblue" points="353.827,-134.881 356.079,-145.234 360.774,-135.736 353.827,-134.881"/>
</g>
<!-- Node7 -->
<g id="node7" class="node"><title>Node7</title>
<g id="a_node7"><a xlink:href="classxalanc_1_1PrefixResolver.html" target="_top" xlink:title="This class defines an interface for classes that resolve namespace prefixes to their URIs.">
<polygon fill="none" stroke="black" points="440.5,-145.5 440.5,-164.5 553.5,-164.5 553.5,-145.5 440.5,-145.5"/>
<text text-anchor="middle" x="497" y="-152.5" font-family="Helvetica,sans-Serif" font-size="10.00">xalanc::PrefixResolver</text>
</a>
</g>
</g>
<!-- Node7&#45;&gt;Node5 -->
<g id="edge7" class="edge"><title>Node7&#45;&gt;Node5</title>
<path fill="none" stroke="#9a32cd" stroke-dasharray="5,2" d="M470.084,-140.944C443.542,-128.069 403.73,-108.757 380.868,-97.6672"/>
<polygon fill="#9a32cd" stroke="#9a32cd" points="468.681,-144.153 479.206,-145.369 471.736,-137.855 468.681,-144.153"/>
<text text-anchor="middle" x="477.5" y="-119" font-family="Helvetica,sans-Serif" font-size="10.00"> m_prefixResolver</text>
</g>
</g>
</svg>
