<?xml version="1.0" encoding="UTF-8" standalone="no"?>
<!DOCTYPE svg PUBLIC "-//W3C//DTD SVG 1.1//EN"
 "http://www.w3.org/Graphics/SVG/1.1/DTD/svg11.dtd">
<!-- Generated by graphviz version 2.43.0 (0)
 -->
<!-- Title: xalanc/XSLT/StylesheetConstructionContext.hpp Pages: 1 -->
<svg width="865pt" height="240pt"
 viewBox="0.00 0.00 865.00 240.00" xmlns="http://www.w3.org/2000/svg" xmlns:xlink="http://www.w3.org/1999/xlink">
<g id="graph0" class="graph" transform="scale(1 1) rotate(0) translate(4 236)">
<title>xalanc/XSLT/StylesheetConstructionContext.hpp</title>
<!-- Node1 -->
<g id="node1" class="node">
<title>Node1</title>
<g id="a_node1"><a xlink:title=" ">
<polygon fill="#bfbfbf" stroke="black" points="540,-201.5 540,-231.5 731,-231.5 731,-201.5 540,-201.5"/>
<text text-anchor="start" x="548" y="-219.5" font-family="Helvetica,sans-Serif" font-size="10.00">xalanc/XSLT/StylesheetConstruction</text>
<text text-anchor="middle" x="635.5" y="-208.5" font-family="Helvetica,sans-Serif" font-size="10.00">Context.hpp</text>
</a>
</g>
</g>
<!-- Node2 -->
<g id="node2" class="node">
<title>Node2</title>
<g id="a_node2"><a xlink:href="Stylesheet_8hpp.html" target="_top" xlink:title=" ">
<polygon fill="none" stroke="black" points="466,-140 466,-159 617,-159 617,-140 466,-140"/>
<text text-anchor="middle" x="541.5" y="-147" font-family="Helvetica,sans-Serif" font-size="10.00">xalanc/XSLT/Stylesheet.hpp</text>
</a>
</g>
</g>
<!-- Node1&#45;&gt;Node2 -->
<g id="edge1" class="edge">
<title>Node1&#45;&gt;Node2</title>
<path fill="none" stroke="midnightblue" d="M606.78,-195.64C589.04,-183.37 567.19,-168.26 553.8,-159.01"/>
<polygon fill="midnightblue" stroke="midnightblue" points="604.89,-198.59 615.1,-201.4 608.87,-192.83 604.89,-198.59"/>
</g>
<!-- Node10 -->
<g id="node10" class="node">
<title>Node10</title>
<g id="a_node10"><a xlink:href="StylesheetConstructionContextDefault_8hpp.html" target="_top" xlink:title=" ">
<polygon fill="none" stroke="black" points="666,-134.5 666,-164.5 857,-164.5 857,-134.5 666,-134.5"/>
<text text-anchor="start" x="674" y="-152.5" font-family="Helvetica,sans-Serif" font-size="10.00">xalanc/XSLT/StylesheetConstruction</text>
<text text-anchor="middle" x="761.5" y="-141.5" font-family="Helvetica,sans-Serif" font-size="10.00">ContextDefault.hpp</text>
</a>
</g>
</g>
<!-- Node1&#45;&gt;Node10 -->
<g id="edge10" class="edge">
<title>Node1&#45;&gt;Node10</title>
<path fill="none" stroke="midnightblue" d="M671.92,-196.71C691.79,-186.46 715.98,-173.98 734.21,-164.58"/>
<polygon fill="midnightblue" stroke="midnightblue" points="670.12,-193.7 662.84,-201.4 673.33,-199.92 670.12,-193.7"/>
</g>
<!-- Node3 -->
<g id="node3" class="node">
<title>Node3</title>
<g id="a_node3"><a xlink:href="StylesheetExecutionContextDefault_8hpp.html" target="_top" xlink:title=" ">
<polygon fill="none" stroke="black" points="190,-67.5 190,-97.5 367,-97.5 367,-67.5 190,-67.5"/>
<text text-anchor="start" x="198" y="-85.5" font-family="Helvetica,sans-Serif" font-size="10.00">xalanc/XSLT/StylesheetExecution</text>
<text text-anchor="middle" x="278.5" y="-74.5" font-family="Helvetica,sans-Serif" font-size="10.00">ContextDefault.hpp</text>
</a>
</g>
</g>
<!-- Node2&#45;&gt;Node3 -->
<g id="edge2" class="edge">
<title>Node2&#45;&gt;Node3</title>
<path fill="none" stroke="midnightblue" d="M496.9,-137.48C452.38,-126.47 383.8,-109.52 335.39,-97.56"/>
<polygon fill="midnightblue" stroke="midnightblue" points="496.3,-140.93 506.85,-139.94 497.98,-134.14 496.3,-140.93"/>
</g>
<!-- Node8 -->
<g id="node8" class="node">
<title>Node8</title>
<g id="a_node8"><a xlink:href="StylesheetHandler_8hpp.html" target="_top" xlink:title=" ">
<polygon fill="none" stroke="black" points="385.5,-73 385.5,-92 573.5,-92 573.5,-73 385.5,-73"/>
<text text-anchor="middle" x="479.5" y="-80" font-family="Helvetica,sans-Serif" font-size="10.00">xalanc/XSLT/StylesheetHandler.hpp</text>
</a>
</g>
</g>
<!-- Node2&#45;&gt;Node8 -->
<g id="edge7" class="edge">
<title>Node2&#45;&gt;Node8</title>
<path fill="none" stroke="midnightblue" d="M526.24,-132.5C514.08,-119.75 497.52,-102.39 487.73,-92.13"/>
<polygon fill="midnightblue" stroke="midnightblue" points="523.7,-134.91 533.14,-139.73 528.77,-130.08 523.7,-134.91"/>
</g>
<!-- Node9 -->
<g id="node9" class="node">
<title>Node9</title>
<g id="a_node9"><a xlink:href="StylesheetRoot_8hpp.html" target="_top" xlink:title=" ">
<polygon fill="none" stroke="black" points="592,-73 592,-92 765,-92 765,-73 592,-73"/>
<text text-anchor="middle" x="678.5" y="-80" font-family="Helvetica,sans-Serif" font-size="10.00">xalanc/XSLT/StylesheetRoot.hpp</text>
</a>
</g>
</g>
<!-- Node2&#45;&gt;Node9 -->
<g id="edge8" class="edge">
<title>Node2&#45;&gt;Node9</title>
<path fill="none" stroke="midnightblue" d="M569.02,-135.44C596.15,-122.57 636.86,-103.26 660.23,-92.17"/>
<polygon fill="midnightblue" stroke="midnightblue" points="567.23,-132.42 559.69,-139.87 570.23,-138.74 567.23,-132.42"/>
</g>
<!-- Node4 -->
<g id="node4" class="node">
<title>Node4</title>
<g id="a_node4"><a xlink:href="ICUBridgeCollationCompareFunctorImpl_8hpp.html" target="_top" xlink:title=" ">
<polygon fill="none" stroke="black" points="0,-0.5 0,-30.5 183,-30.5 183,-0.5 0,-0.5"/>
<text text-anchor="start" x="8" y="-18.5" font-family="Helvetica,sans-Serif" font-size="10.00">xalanc/ICUBridge/ICUBridge</text>
<text text-anchor="middle" x="91.5" y="-7.5" font-family="Helvetica,sans-Serif" font-size="10.00">CollationCompareFunctorImpl.hpp</text>
</a>
</g>
</g>
<!-- Node3&#45;&gt;Node4 -->
<g id="edge3" class="edge">
<title>Node3&#45;&gt;Node4</title>
<path fill="none" stroke="midnightblue" d="M228.42,-64.09C198.23,-53.6 160.28,-40.41 132,-30.58"/>
<polygon fill="midnightblue" stroke="midnightblue" points="227.33,-67.42 237.92,-67.4 229.63,-60.81 227.33,-67.42"/>
</g>
<!-- Node5 -->
<g id="node5" class="node">
<title>Node5</title>
<g id="a_node5"><a xlink:href="ICUFormatNumberFunctor_8hpp.html" target="_top" xlink:title=" ">
<polygon fill="none" stroke="black" points="201,-0.5 201,-30.5 356,-30.5 356,-0.5 201,-0.5"/>
<text text-anchor="start" x="209" y="-18.5" font-family="Helvetica,sans-Serif" font-size="10.00">xalanc/ICUBridge/ICUFormat</text>
<text text-anchor="middle" x="278.5" y="-7.5" font-family="Helvetica,sans-Serif" font-size="10.00">NumberFunctor.hpp</text>
</a>
</g>
</g>
<!-- Node3&#45;&gt;Node5 -->
<g id="edge4" class="edge">
<title>Node3&#45;&gt;Node5</title>
<path fill="none" stroke="midnightblue" d="M278.5,-57.11C278.5,-48.15 278.5,-38.32 278.5,-30.58"/>
<polygon fill="midnightblue" stroke="midnightblue" points="275,-57.4 278.5,-67.4 282,-57.4 275,-57.4"/>
</g>
<!-- Node6 -->
<g id="node6" class="node">
<title>Node6</title>
<g id="a_node6"><a xlink:href="ICUXalanNumberFormatFactory_8hpp.html" target="_top" xlink:title=" ">
<polygon fill="none" stroke="black" points="374,-0.5 374,-30.5 523,-30.5 523,-0.5 374,-0.5"/>
<text text-anchor="start" x="382" y="-18.5" font-family="Helvetica,sans-Serif" font-size="10.00">xalanc/ICUBridge/ICUXalan</text>
<text text-anchor="middle" x="448.5" y="-7.5" font-family="Helvetica,sans-Serif" font-size="10.00">NumberFormatFactory.hpp</text>
</a>
</g>
</g>
<!-- Node3&#45;&gt;Node6 -->
<g id="edge5" class="edge">
<title>Node3&#45;&gt;Node6</title>
<path fill="none" stroke="midnightblue" d="M324.74,-63.82C352.07,-53.37 386.19,-40.32 411.68,-30.58"/>
<polygon fill="midnightblue" stroke="midnightblue" points="323.48,-60.56 315.39,-67.4 325.98,-67.09 323.48,-60.56"/>
</g>
<!-- Node7 -->
<g id="node7" class="node">
<title>Node7</title>
<g id="a_node7"><a xlink:href="XalanCompiledStylesheetDefault_8hpp.html" target="_top" xlink:title=" ">
<polygon fill="none" stroke="black" points="577,-0.5 577,-30.5 780,-30.5 780,-0.5 577,-0.5"/>
<text text-anchor="start" x="585" y="-18.5" font-family="Helvetica,sans-Serif" font-size="10.00">xalanc/XalanTransformer</text>
<text text-anchor="middle" x="678.5" y="-7.5" font-family="Helvetica,sans-Serif" font-size="10.00">/XalanCompiledStylesheetDefault.hpp</text>
</a>
</g>
</g>
<!-- Node3&#45;&gt;Node7 -->
<g id="edge6" class="edge">
<title>Node3&#45;&gt;Node7</title>
<path fill="none" stroke="midnightblue" d="M374.82,-65.85C440.98,-55.1 528.07,-40.95 592.01,-30.55"/>
<polygon fill="midnightblue" stroke="midnightblue" points="374.11,-62.42 364.8,-67.48 375.23,-69.33 374.11,-62.42"/>
</g>
<!-- Node9&#45;&gt;Node7 -->
<g id="edge9" class="edge">
<title>Node9&#45;&gt;Node7</title>
<path fill="none" stroke="midnightblue" d="M678.5,-62.41C678.5,-52.22 678.5,-39.9 678.5,-30.59"/>
<polygon fill="midnightblue" stroke="midnightblue" points="675,-62.73 678.5,-72.73 682,-62.73 675,-62.73"/>
</g>
<!-- Node10&#45;&gt;Node7 -->
<g id="edge11" class="edge">
<title>Node10&#45;&gt;Node7</title>
<path fill="none" stroke="midnightblue" d="M772.62,-125.11C779.06,-107.89 784.03,-84.52 773.5,-67 763.3,-50.03 745.26,-38.45 727.62,-30.72"/>
<polygon fill="midnightblue" stroke="midnightblue" points="769.34,-123.87 768.76,-134.44 775.81,-126.54 769.34,-123.87"/>
</g>
</g>
</svg>
