<?xml version="1.0" encoding="UTF-8" standalone="no"?>
<!DOCTYPE svg PUBLIC "-//W3C//DTD SVG 1.1//EN"
 "http://www.w3.org/Graphics/SVG/1.1/DTD/svg11.dtd">
<!-- Generated by graphviz version 2.43.0 (0)
 -->
<!-- Title: xalanc/XSLT/TopLevelArg.hpp Pages: 1 -->
<!--zoomable 352 -->
<svg id="main" version="1.1" xmlns="http://www.w3.org/2000/svg" xmlns:xlink="http://www.w3.org/1999/xlink" xml:space="preserve" onload="init(evt)">
<style type="text/css"><![CDATA[
.edge:hover path { stroke: red; }
.edge:hover polygon { stroke: red; fill: red; }
]]></style>
<script type="text/javascript"><![CDATA[
var edges = document.getElementsByTagName('g');
if (edges && edges.length) {
  for (var i=0;i<edges.length;i++) {
    if (edges[i].id.substr(0,4)=='edge') {
      edges[i].setAttribute('class','edge');
    }
  }
}
]]></script>
        <defs>
                <circle id="rim" cx="0" cy="0" r="7"/>
                <circle id="rim2" cx="0" cy="0" r="3.5"/>
                <g id="zoomPlus">
                        <use xlink:href="#rim" fill="#404040">
                                <set attributeName="fill" to="#808080" begin="zoomplus.mouseover" end="zoomplus.mouseout"/>
                        </use>
                        <path d="M-4,0h8M0,-4v8" fill="none" stroke="white" stroke-width="1.5" pointer-events="none"/>
                </g>
                <g id="zoomMin">
                        <use xlink:href="#rim" fill="#404040">
                                <set attributeName="fill" to="#808080" begin="zoomminus.mouseover" end="zoomminus.mouseout"/>
                        </use>
                        <path d="M-4,0h8" fill="none" stroke="white" stroke-width="1.5" pointer-events="none"/>
                </g>
                <g id="dirArrow">
                        <path fill="none" stroke="white" stroke-width="1.5" d="M0,-3.0v7 M-2.5,-0.5L0,-3.0L2.5,-0.5"/>
                </g>
               <g id="resetDef">
                       <use xlink:href="#rim2" fill="#404040">
                               <set attributeName="fill" to="#808080" begin="reset.mouseover" end="reset.mouseout"/>
                       </use>
               </g>
        </defs>

<script type="text/javascript">
var viewWidth = 876;
var viewHeight = 352;
var sectionId = 'dynsection-1';
</script>
<script xlink:href="svgpan.js"/>
<svg id="graph" class="graph">
<g id="viewport">
<title>xalanc/XSLT/TopLevelArg.hpp</title>
<!-- Node1 -->
<g id="node1" class="node">
<title>Node1</title>
<g id="a_node1"><a xlink:title=" ">
<polygon fill="#bfbfbf" stroke="black" points="392.5,-324.5 392.5,-343.5 550.5,-343.5 550.5,-324.5 392.5,-324.5"/>
<text text-anchor="middle" x="471.5" y="-331.5" font-family="Helvetica,sans-Serif" font-size="10.00">xalanc/XSLT/TopLevelArg.hpp</text>
</a>
</g>
</g>
<!-- Node2 -->
<g id="node2" class="node">
<title>Node2</title>
<g id="a_node2"><a xlink:href="StylesheetExecutionContext_8hpp.html" target="_top" xlink:title=" ">
<polygon fill="none" stroke="black" points="383,-257.5 383,-287.5 560,-287.5 560,-257.5 383,-257.5"/>
<text text-anchor="start" x="391" y="-275.5" font-family="Helvetica,sans-Serif" font-size="10.00">xalanc/XSLT/StylesheetExecution</text>
<text text-anchor="middle" x="471.5" y="-264.5" font-family="Helvetica,sans-Serif" font-size="10.00">Context.hpp</text>
</a>
</g>
</g>
<!-- Node1&#45;&gt;Node2 -->
<g id="edge1" class="edge">
<title>Node1&#45;&gt;Node2</title>
<path fill="none" stroke="midnightblue" d="M471.5,-314.23C471.5,-305.59 471.5,-295.5 471.5,-287.52"/>
<polygon fill="midnightblue" stroke="midnightblue" points="468,-314.48 471.5,-324.48 475,-314.48 468,-314.48"/>
</g>
<!-- Node3 -->
<g id="node3" class="node">
<title>Node3</title>
<g id="a_node3"><a xlink:href="Stylesheet_8hpp.html" target="_top" xlink:title=" ">
<polygon fill="none" stroke="black" points="481,-140 481,-159 632,-159 632,-140 481,-140"/>
<text text-anchor="middle" x="556.5" y="-147" font-family="Helvetica,sans-Serif" font-size="10.00">xalanc/XSLT/Stylesheet.hpp</text>
</a>
</g>
</g>
<!-- Node2&#45;&gt;Node3 -->
<g id="edge2" class="edge">
<title>Node2&#45;&gt;Node3</title>
<path fill="none" stroke="midnightblue" d="M487.56,-248.63C506.65,-221.46 537.55,-177.48 550.49,-159.05"/>
<polygon fill="midnightblue" stroke="midnightblue" points="484.47,-246.95 481.58,-257.14 490.2,-250.97 484.47,-246.95"/>
</g>
<!-- Node4 -->
<g id="node4" class="node">
<title>Node4</title>
<g id="a_node4"><a xlink:href="StylesheetExecutionContextDefault_8hpp.html" target="_top" xlink:title=" ">
<polygon fill="none" stroke="black" points="275,-67.5 275,-97.5 452,-97.5 452,-67.5 275,-67.5"/>
<text text-anchor="start" x="283" y="-85.5" font-family="Helvetica,sans-Serif" font-size="10.00">xalanc/XSLT/StylesheetExecution</text>
<text text-anchor="middle" x="363.5" y="-74.5" font-family="Helvetica,sans-Serif" font-size="10.00">ContextDefault.hpp</text>
</a>
</g>
</g>
<!-- Node2&#45;&gt;Node4 -->
<g id="edge11" class="edge">
<title>Node2&#45;&gt;Node4</title>
<path fill="none" stroke="midnightblue" d="M468.43,-247.33C463.78,-218.25 452.78,-168.98 428.5,-134 418.15,-119.09 402.07,-106.55 388.5,-97.69"/>
<polygon fill="midnightblue" stroke="midnightblue" points="465,-248.03 469.91,-257.41 471.92,-247.01 465,-248.03"/>
</g>
<!-- Node11 -->
<g id="node11" class="node">
<title>Node11</title>
<g id="a_node11"><a xlink:href="XResultTreeFrag_8hpp.html" target="_top" xlink:title=" ">
<polygon fill="none" stroke="black" points="246.5,-201.5 246.5,-220.5 424.5,-220.5 424.5,-201.5 246.5,-201.5"/>
<text text-anchor="middle" x="335.5" y="-208.5" font-family="Helvetica,sans-Serif" font-size="10.00">xalanc/XSLT/XResultTreeFrag.hpp</text>
</a>
</g>
</g>
<!-- Node2&#45;&gt;Node11 -->
<g id="edge12" class="edge">
<title>Node2&#45;&gt;Node11</title>
<path fill="none" stroke="midnightblue" d="M430.06,-253.37C405.24,-242.51 374.81,-229.2 355.29,-220.66"/>
<polygon fill="midnightblue" stroke="midnightblue" points="428.71,-256.6 439.27,-257.4 431.51,-250.18 428.71,-256.6"/>
</g>
<!-- Node15 -->
<g id="node15" class="node">
<title>Node15</title>
<g id="a_node15"><a xlink:href="XSLTEngineImpl_8hpp.html" target="_top" xlink:title=" ">
<polygon fill="none" stroke="black" points="670,-201.5 670,-220.5 847,-220.5 847,-201.5 670,-201.5"/>
<text text-anchor="middle" x="758.5" y="-208.5" font-family="Helvetica,sans-Serif" font-size="10.00">xalanc/XSLT/XSLTEngineImpl.hpp</text>
</a>
</g>
</g>
<!-- Node2&#45;&gt;Node15 -->
<g id="edge17" class="edge">
<title>Node2&#45;&gt;Node15</title>
<path fill="none" stroke="midnightblue" d="M549.09,-255.41C603.36,-244.16 673.71,-229.58 717.47,-220.51"/>
<polygon fill="midnightblue" stroke="midnightblue" points="548.23,-252.02 539.15,-257.47 549.65,-258.87 548.23,-252.02"/>
</g>
<!-- Node3&#45;&gt;Node4 -->
<g id="edge3" class="edge">
<title>Node3&#45;&gt;Node4</title>
<path fill="none" stroke="midnightblue" d="M521.26,-136.63C488.54,-125.61 439.79,-109.19 405.15,-97.53"/>
<polygon fill="midnightblue" stroke="midnightblue" points="520.28,-139.99 530.87,-139.87 522.51,-133.36 520.28,-139.99"/>
</g>
<!-- Node9 -->
<g id="node9" class="node">
<title>Node9</title>
<g id="a_node9"><a xlink:href="StylesheetHandler_8hpp.html" target="_top" xlink:title=" ">
<polygon fill="none" stroke="black" points="661.5,-73 661.5,-92 849.5,-92 849.5,-73 661.5,-73"/>
<text text-anchor="middle" x="755.5" y="-80" font-family="Helvetica,sans-Serif" font-size="10.00">xalanc/XSLT/StylesheetHandler.hpp</text>
</a>
</g>
</g>
<!-- Node3&#45;&gt;Node9 -->
<g id="edge8" class="edge">
<title>Node3&#45;&gt;Node9</title>
<path fill="none" stroke="midnightblue" d="M592.68,-136.68C632.12,-123.8 694.28,-103.5 729.28,-92.06"/>
<polygon fill="midnightblue" stroke="midnightblue" points="591.34,-133.44 582.93,-139.87 593.52,-140.09 591.34,-133.44"/>
</g>
<!-- Node10 -->
<g id="node10" class="node">
<title>Node10</title>
<g id="a_node10"><a xlink:href="StylesheetRoot_8hpp.html" target="_top" xlink:title=" ">
<polygon fill="none" stroke="black" points="470,-73 470,-92 643,-92 643,-73 470,-73"/>
<text text-anchor="middle" x="556.5" y="-80" font-family="Helvetica,sans-Serif" font-size="10.00">xalanc/XSLT/StylesheetRoot.hpp</text>
</a>
</g>
</g>
<!-- Node3&#45;&gt;Node10 -->
<g id="edge9" class="edge">
<title>Node3&#45;&gt;Node10</title>
<path fill="none" stroke="midnightblue" d="M556.5,-129.54C556.5,-117.17 556.5,-101.62 556.5,-92.13"/>
<polygon fill="midnightblue" stroke="midnightblue" points="553,-129.73 556.5,-139.73 560,-129.73 553,-129.73"/>
</g>
<!-- Node5 -->
<g id="node5" class="node">
<title>Node5</title>
<g id="a_node5"><a xlink:href="ICUBridgeCollationCompareFunctorImpl_8hpp.html" target="_top" xlink:title=" ">
<polygon fill="none" stroke="black" points="0,-0.5 0,-30.5 183,-30.5 183,-0.5 0,-0.5"/>
<text text-anchor="start" x="8" y="-18.5" font-family="Helvetica,sans-Serif" font-size="10.00">xalanc/ICUBridge/ICUBridge</text>
<text text-anchor="middle" x="91.5" y="-7.5" font-family="Helvetica,sans-Serif" font-size="10.00">CollationCompareFunctorImpl.hpp</text>
</a>
</g>
</g>
<!-- Node4&#45;&gt;Node5 -->
<g id="edge4" class="edge">
<title>Node4&#45;&gt;Node5</title>
<path fill="none" stroke="midnightblue" d="M294.95,-65.12C250.44,-54.48 193.03,-40.76 150.55,-30.61"/>
<polygon fill="midnightblue" stroke="midnightblue" points="294.28,-68.56 304.81,-67.48 295.9,-61.75 294.28,-68.56"/>
</g>
<!-- Node6 -->
<g id="node6" class="node">
<title>Node6</title>
<g id="a_node6"><a xlink:href="ICUFormatNumberFunctor_8hpp.html" target="_top" xlink:title=" ">
<polygon fill="none" stroke="black" points="201,-0.5 201,-30.5 356,-30.5 356,-0.5 201,-0.5"/>
<text text-anchor="start" x="209" y="-18.5" font-family="Helvetica,sans-Serif" font-size="10.00">xalanc/ICUBridge/ICUFormat</text>
<text text-anchor="middle" x="278.5" y="-7.5" font-family="Helvetica,sans-Serif" font-size="10.00">NumberFunctor.hpp</text>
</a>
</g>
</g>
<!-- Node4&#45;&gt;Node6 -->
<g id="edge5" class="edge">
<title>Node4&#45;&gt;Node6</title>
<path fill="none" stroke="midnightblue" d="M336.91,-61.17C323.91,-51.23 308.6,-39.51 296.91,-30.58"/>
<polygon fill="midnightblue" stroke="midnightblue" points="334.99,-64.1 345.06,-67.4 339.24,-58.54 334.99,-64.1"/>
</g>
<!-- Node7 -->
<g id="node7" class="node">
<title>Node7</title>
<g id="a_node7"><a xlink:href="ICUXalanNumberFormatFactory_8hpp.html" target="_top" xlink:title=" ">
<polygon fill="none" stroke="black" points="374,-0.5 374,-30.5 523,-30.5 523,-0.5 374,-0.5"/>
<text text-anchor="start" x="382" y="-18.5" font-family="Helvetica,sans-Serif" font-size="10.00">xalanc/ICUBridge/ICUXalan</text>
<text text-anchor="middle" x="448.5" y="-7.5" font-family="Helvetica,sans-Serif" font-size="10.00">NumberFormatFactory.hpp</text>
</a>
</g>
</g>
<!-- Node4&#45;&gt;Node7 -->
<g id="edge6" class="edge">
<title>Node4&#45;&gt;Node7</title>
<path fill="none" stroke="midnightblue" d="M390.09,-61.17C403.09,-51.23 418.4,-39.51 430.09,-30.58"/>
<polygon fill="midnightblue" stroke="midnightblue" points="387.76,-58.54 381.94,-67.4 392.01,-64.1 387.76,-58.54"/>
</g>
<!-- Node8 -->
<g id="node8" class="node">
<title>Node8</title>
<g id="a_node8"><a xlink:href="XalanCompiledStylesheetDefault_8hpp.html" target="_top" xlink:title=" ">
<polygon fill="none" stroke="black" points="541,-0.5 541,-30.5 744,-30.5 744,-0.5 541,-0.5"/>
<text text-anchor="start" x="549" y="-18.5" font-family="Helvetica,sans-Serif" font-size="10.00">xalanc/XalanTransformer</text>
<text text-anchor="middle" x="642.5" y="-7.5" font-family="Helvetica,sans-Serif" font-size="10.00">/XalanCompiledStylesheetDefault.hpp</text>
</a>
</g>
</g>
<!-- Node4&#45;&gt;Node8 -->
<g id="edge7" class="edge">
<title>Node4&#45;&gt;Node8</title>
<path fill="none" stroke="midnightblue" d="M433.53,-65.19C479.22,-54.54 538.27,-40.78 581.93,-30.61"/>
<polygon fill="midnightblue" stroke="midnightblue" points="432.64,-61.8 423.7,-67.48 434.23,-68.62 432.64,-61.8"/>
</g>
<!-- Node10&#45;&gt;Node8 -->
<g id="edge10" class="edge">
<title>Node10&#45;&gt;Node8</title>
<path fill="none" stroke="midnightblue" d="M576.29,-66.54C590.6,-55.73 609.82,-41.2 623.86,-30.59"/>
<polygon fill="midnightblue" stroke="midnightblue" points="573.97,-63.91 568.1,-72.73 578.19,-69.5 573.97,-63.91"/>
</g>
<!-- Node12 -->
<g id="node12" class="node">
<title>Node12</title>
<g id="a_node12"><a xlink:href="FunctionNodeSet_8hpp.html" target="_top" xlink:title=" ">
<polygon fill="none" stroke="black" points="96,-134.5 96,-164.5 229,-164.5 229,-134.5 96,-134.5"/>
<text text-anchor="start" x="104" y="-152.5" font-family="Helvetica,sans-Serif" font-size="10.00">xalanc/XalanExtensions</text>
<text text-anchor="middle" x="162.5" y="-141.5" font-family="Helvetica,sans-Serif" font-size="10.00">/FunctionNodeSet.hpp</text>
</a>
</g>
</g>
<!-- Node11&#45;&gt;Node12 -->
<g id="edge13" class="edge">
<title>Node11&#45;&gt;Node12</title>
<path fill="none" stroke="midnightblue" d="M300.91,-198.1C272.76,-188.42 232.97,-174.74 203.27,-164.52"/>
<polygon fill="midnightblue" stroke="midnightblue" points="300.12,-201.53 310.71,-201.48 302.4,-194.91 300.12,-201.53"/>
</g>
<!-- Node14 -->
<g id="node14" class="node">
<title>Node14</title>
<g id="a_node14"><a xlink:href="XResultTreeFragAllocator_8hpp.html" target="_top" xlink:title=" ">
<polygon fill="none" stroke="black" points="262,-134.5 262,-164.5 419,-164.5 419,-134.5 262,-134.5"/>
<text text-anchor="start" x="270" y="-152.5" font-family="Helvetica,sans-Serif" font-size="10.00">xalanc/XSLT/XResultTreeFrag</text>
<text text-anchor="middle" x="340.5" y="-141.5" font-family="Helvetica,sans-Serif" font-size="10.00">Allocator.hpp</text>
</a>
</g>
</g>
<!-- Node11&#45;&gt;Node14 -->
<g id="edge15" class="edge">
<title>Node11&#45;&gt;Node14</title>
<path fill="none" stroke="midnightblue" d="M337.08,-191.23C337.8,-182.59 338.65,-172.5 339.32,-164.52"/>
<polygon fill="midnightblue" stroke="midnightblue" points="333.57,-191.22 336.22,-201.48 340.54,-191.8 333.57,-191.22"/>
</g>
<!-- Node13 -->
<g id="node13" class="node">
<title>Node13</title>
<g id="a_node13"><a xlink:href="XalanEXSLTCommonImpl_8hpp.html" target="_top" xlink:title=" ">
<polygon fill="none" stroke="black" points="45.5,-67.5 45.5,-97.5 257.5,-97.5 257.5,-67.5 45.5,-67.5"/>
<text text-anchor="start" x="53.5" y="-85.5" font-family="Helvetica,sans-Serif" font-size="10.00">xalanc/XalanEXSLT/XalanEXSLTCommon</text>
<text text-anchor="middle" x="151.5" y="-74.5" font-family="Helvetica,sans-Serif" font-size="10.00">Impl.hpp</text>
</a>
</g>
</g>
<!-- Node12&#45;&gt;Node13 -->
<g id="edge14" class="edge">
<title>Node12&#45;&gt;Node13</title>
<path fill="none" stroke="midnightblue" d="M158.42,-124.4C156.89,-115.37 155.21,-105.41 153.88,-97.58"/>
<polygon fill="midnightblue" stroke="midnightblue" points="154.99,-125.12 160.11,-134.4 161.9,-123.95 154.99,-125.12"/>
</g>
<!-- Node14&#45;&gt;Node4 -->
<g id="edge16" class="edge">
<title>Node14&#45;&gt;Node4</title>
<path fill="none" stroke="midnightblue" d="M348.92,-124.7C352.15,-115.59 355.72,-105.49 358.52,-97.58"/>
<polygon fill="midnightblue" stroke="midnightblue" points="345.53,-123.8 345.49,-134.4 352.13,-126.14 345.53,-123.8"/>
</g>
<!-- Node15&#45;&gt;Node8 -->
<g id="edge18" class="edge">
<title>Node15&#45;&gt;Node8</title>
<path fill="none" stroke="midnightblue" d="M781.7,-195.67C821.32,-169.45 894.4,-112.27 858.5,-67 843.69,-48.33 792.73,-35.91 744.02,-28.06"/>
<polygon fill="midnightblue" stroke="midnightblue" points="779.39,-193 772.89,-201.36 783.19,-198.88 779.39,-193"/>
</g>
</g>
</svg>
        <g id="navigator" transform="translate(0 0)" fill="#404254">
                <rect fill="#f2f5e9" fill-opacity="0.5" stroke="#606060" stroke-width=".5" x="0" y="0" width="60" height="60"/>
                <use id="zoomplus" xlink:href="#zoomPlus" x="17" y="9" onmousedown="handleZoom(evt,'in')"/>
                <use id="zoomminus" xlink:href="#zoomMin" x="42" y="9" onmousedown="handleZoom(evt,'out')"/>
                <use id="reset" xlink:href="#resetDef" x="30" y="36" onmousedown="handleReset()"/>
                <g id="arrowUp" xlink:href="#dirArrow" transform="translate(30 24)" onmousedown="handlePan(0,-1)">
                  <use xlink:href="#rim" fill="#404040">
                        <set attributeName="fill" to="#808080" begin="arrowUp.mouseover" end="arrowUp.mouseout"/>
                  </use>
                  <path fill="none" stroke="white" stroke-width="1.5" d="M0,-3.0v7 M-2.5,-0.5L0,-3.0L2.5,-0.5"/>
                </g>
                <g id="arrowRight" xlink:href="#dirArrow" transform="rotate(90) translate(36 -43)" onmousedown="handlePan(1,0)">
                  <use xlink:href="#rim" fill="#404040">
                        <set attributeName="fill" to="#808080" begin="arrowRight.mouseover" end="arrowRight.mouseout"/>
                  </use>
                  <path fill="none" stroke="white" stroke-width="1.5" d="M0,-3.0v7 M-2.5,-0.5L0,-3.0L2.5,-0.5"/>
                </g>
                <g id="arrowDown" xlink:href="#dirArrow" transform="rotate(180) translate(-30 -48)" onmousedown="handlePan(0,1)">
                  <use xlink:href="#rim" fill="#404040">
                        <set attributeName="fill" to="#808080" begin="arrowDown.mouseover" end="arrowDown.mouseout"/>
                  </use>
                  <path fill="none" stroke="white" stroke-width="1.5" d="M0,-3.0v7 M-2.5,-0.5L0,-3.0L2.5,-0.5"/>
                </g>
                <g id="arrowLeft" xlink:href="#dirArrow" transform="rotate(270) translate(-36 17)" onmousedown="handlePan(-1,0)">
                  <use xlink:href="#rim" fill="#404040">
                        <set attributeName="fill" to="#808080" begin="arrowLeft.mouseover" end="arrowLeft.mouseout"/>
                  </use>
                  <path fill="none" stroke="white" stroke-width="1.5" d="M0,-3.0v7 M-2.5,-0.5L0,-3.0L2.5,-0.5"/>
                </g>
        </g>
        <svg viewBox="0 0 15 15" width="100%" height="30px" preserveAspectRatio="xMaxYMin meet">
         <g id="arrow_out" transform="scale(0.3 0.3)">
          <a xlink:href="TopLevelArg_8hpp__dep__incl_org.svg" target="_base">
           <rect id="button" ry="5" rx="5" y="6" x="6" height="38" width="38"
                fill="#f2f5e9" fill-opacity="0.5" stroke="#606060" stroke-width="1.0"/>
           <path id="arrow"
             d="M 11.500037,31.436501 C 11.940474,20.09759 22.043105,11.32322 32.158766,21.979434 L 37.068811,17.246167 C 37.068811,17.246167 37.088388,32 37.088388,32 L 22.160133,31.978069 C 22.160133,31.978069 26.997745,27.140456 26.997745,27.140456 C 18.528582,18.264221 13.291696,25.230495 11.500037,31.436501 z"
             style="fill:#404040;"/>
          </a>
         </g>
        </svg>
</svg>
