<?xml version="1.0" encoding="UTF-8" standalone="no"?>
<!DOCTYPE svg PUBLIC "-//W3C//DTD SVG 1.1//EN"
 "http://www.w3.org/Graphics/SVG/1.1/DTD/svg11.dtd">
<!-- Generated by graphviz version 2.43.0 (0)
 -->
<!-- Title: xalanc/PlatformSupport/Writer.hpp Pages: 1 -->
<!--zoomable 508 -->
<svg id="main" version="1.1" xmlns="http://www.w3.org/2000/svg" xmlns:xlink="http://www.w3.org/1999/xlink" xml:space="preserve" onload="init(evt)">
<style type="text/css"><![CDATA[
.edge:hover path { stroke: red; }
.edge:hover polygon { stroke: red; fill: red; }
]]></style>
<script type="text/javascript"><![CDATA[
var edges = document.getElementsByTagName('g');
if (edges && edges.length) {
  for (var i=0;i<edges.length;i++) {
    if (edges[i].id.substr(0,4)=='edge') {
      edges[i].setAttribute('class','edge');
    }
  }
}
]]></script>
        <defs>
                <circle id="rim" cx="0" cy="0" r="7"/>
                <circle id="rim2" cx="0" cy="0" r="3.5"/>
                <g id="zoomPlus">
                        <use xlink:href="#rim" fill="#404040">
                                <set attributeName="fill" to="#808080" begin="zoomplus.mouseover" end="zoomplus.mouseout"/>
                        </use>
                        <path d="M-4,0h8M0,-4v8" fill="none" stroke="white" stroke-width="1.5" pointer-events="none"/>
                </g>
                <g id="zoomMin">
                        <use xlink:href="#rim" fill="#404040">
                                <set attributeName="fill" to="#808080" begin="zoomminus.mouseover" end="zoomminus.mouseout"/>
                        </use>
                        <path d="M-4,0h8" fill="none" stroke="white" stroke-width="1.5" pointer-events="none"/>
                </g>
                <g id="dirArrow">
                        <path fill="none" stroke="white" stroke-width="1.5" d="M0,-3.0v7 M-2.5,-0.5L0,-3.0L2.5,-0.5"/>
                </g>
               <g id="resetDef">
                       <use xlink:href="#rim2" fill="#404040">
                               <set attributeName="fill" to="#808080" begin="reset.mouseover" end="reset.mouseout"/>
                       </use>
               </g>
        </defs>

<script type="text/javascript">
var viewWidth = 1735;
var viewHeight = 508;
var sectionId = 'dynsection-1';
</script>
<script xlink:href="svgpan.js"/>
<svg id="graph" class="graph">
<g id="viewport">
<title>xalanc/PlatformSupport/Writer.hpp</title>
<!-- Node1 -->
<g id="node1" class="node">
<title>Node1</title>
<g id="a_node1"><a xlink:title=" ">
<polygon fill="#bfbfbf" stroke="black" points="1298.5,-469.5 1298.5,-499.5 1429.5,-499.5 1429.5,-469.5 1298.5,-469.5"/>
<text text-anchor="start" x="1306.5" y="-487.5" font-family="Helvetica,sans-Serif" font-size="10.00">xalanc/PlatformSupport</text>
<text text-anchor="middle" x="1364" y="-476.5" font-family="Helvetica,sans-Serif" font-size="10.00">/Writer.hpp</text>
</a>
</g>
</g>
<!-- Node2 -->
<g id="node2" class="node">
<title>Node2</title>
<g id="a_node2"><a xlink:href="PrintWriter_8hpp.html" target="_top" xlink:title=" ">
<polygon fill="none" stroke="black" points="827.5,-402.5 827.5,-432.5 958.5,-432.5 958.5,-402.5 827.5,-402.5"/>
<text text-anchor="start" x="835.5" y="-420.5" font-family="Helvetica,sans-Serif" font-size="10.00">xalanc/PlatformSupport</text>
<text text-anchor="middle" x="893" y="-409.5" font-family="Helvetica,sans-Serif" font-size="10.00">/PrintWriter.hpp</text>
</a>
</g>
</g>
<!-- Node1&#45;&gt;Node2 -->
<g id="edge1" class="edge">
<title>Node1&#45;&gt;Node2</title>
<path fill="none" stroke="midnightblue" d="M1288,-473.01C1196.67,-460.41 1044.95,-439.47 958.54,-427.54"/>
<polygon fill="midnightblue" stroke="midnightblue" points="1287.63,-476.49 1298.01,-474.39 1288.59,-469.56 1287.63,-476.49"/>
</g>
<!-- Node24 -->
<g id="node24" class="node">
<title>Node24</title>
<g id="a_node24"><a xlink:href="XalanFormatterWriter_8hpp.html" target="_top" xlink:title=" ">
<polygon fill="none" stroke="black" points="1269.5,-402.5 1269.5,-432.5 1458.5,-432.5 1458.5,-402.5 1269.5,-402.5"/>
<text text-anchor="start" x="1277.5" y="-420.5" font-family="Helvetica,sans-Serif" font-size="10.00">xalanc/XMLSupport/XalanFormatter</text>
<text text-anchor="middle" x="1364" y="-409.5" font-family="Helvetica,sans-Serif" font-size="10.00">Writer.hpp</text>
</a>
</g>
</g>
<!-- Node1&#45;&gt;Node24 -->
<g id="edge30" class="edge">
<title>Node1&#45;&gt;Node24</title>
<path fill="none" stroke="midnightblue" d="M1364,-459.11C1364,-450.15 1364,-440.32 1364,-432.58"/>
<polygon fill="midnightblue" stroke="midnightblue" points="1360.5,-459.4 1364,-469.4 1367.5,-459.4 1360.5,-459.4"/>
</g>
<!-- Node28 -->
<g id="node28" class="node">
<title>Node28</title>
<g id="a_node28"><a xlink:href="XalanIndentWriter_8hpp.html" target="_top" xlink:title=" ">
<polygon fill="none" stroke="black" points="1477,-402.5 1477,-432.5 1649,-432.5 1649,-402.5 1477,-402.5"/>
<text text-anchor="start" x="1485" y="-420.5" font-family="Helvetica,sans-Serif" font-size="10.00">xalanc/XMLSupport/XalanIndent</text>
<text text-anchor="middle" x="1563" y="-409.5" font-family="Helvetica,sans-Serif" font-size="10.00">Writer.hpp</text>
</a>
</g>
</g>
<!-- Node1&#45;&gt;Node28 -->
<g id="edge34" class="edge">
<title>Node1&#45;&gt;Node28</title>
<path fill="none" stroke="midnightblue" d="M1416.88,-466.23C1449.07,-455.71 1489.67,-442.45 1519.9,-432.58"/>
<polygon fill="midnightblue" stroke="midnightblue" points="1415.6,-462.96 1407.18,-469.4 1417.77,-469.62 1415.6,-462.96"/>
</g>
<!-- Node3 -->
<g id="node3" class="node">
<title>Node3</title>
<g id="a_node3"><a xlink:href="DOMStringPrintWriter_8hpp.html" target="_top" xlink:title=" ">
<polygon fill="none" stroke="black" points="839.5,-268.5 839.5,-298.5 984.5,-298.5 984.5,-268.5 839.5,-268.5"/>
<text text-anchor="start" x="847.5" y="-286.5" font-family="Helvetica,sans-Serif" font-size="10.00">xalanc/PlatformSupport</text>
<text text-anchor="middle" x="912" y="-275.5" font-family="Helvetica,sans-Serif" font-size="10.00">/DOMStringPrintWriter.hpp</text>
</a>
</g>
</g>
<!-- Node2&#45;&gt;Node3 -->
<g id="edge2" class="edge">
<title>Node2&#45;&gt;Node3</title>
<path fill="none" stroke="midnightblue" d="M849.3,-397.11C836.92,-389.33 824.94,-379.05 818,-366 811.53,-353.84 810.93,-346.83 818,-335 828.17,-317.99 846.26,-306.37 863.88,-298.62"/>
<polygon fill="midnightblue" stroke="midnightblue" points="847.9,-400.35 858.31,-402.34 851.42,-394.3 847.9,-400.35"/>
</g>
<!-- Node9 -->
<g id="node9" class="node">
<title>Node9</title>
<g id="a_node9"><a xlink:href="NullPrintWriter_8hpp.html" target="_top" xlink:title=" ">
<polygon fill="none" stroke="black" points="827.5,-335.5 827.5,-365.5 958.5,-365.5 958.5,-335.5 827.5,-335.5"/>
<text text-anchor="start" x="835.5" y="-353.5" font-family="Helvetica,sans-Serif" font-size="10.00">xalanc/PlatformSupport</text>
<text text-anchor="middle" x="893" y="-342.5" font-family="Helvetica,sans-Serif" font-size="10.00">/NullPrintWriter.hpp</text>
</a>
</g>
</g>
<!-- Node2&#45;&gt;Node9 -->
<g id="edge8" class="edge">
<title>Node2&#45;&gt;Node9</title>
<path fill="none" stroke="midnightblue" d="M893,-392.11C893,-383.15 893,-373.32 893,-365.58"/>
<polygon fill="midnightblue" stroke="midnightblue" points="889.5,-392.4 893,-402.4 896.5,-392.4 889.5,-392.4"/>
</g>
<!-- Node10 -->
<g id="node10" class="node">
<title>Node10</title>
<g id="a_node10"><a xlink:href="XalanOutputStreamPrintWriter_8hpp.html" target="_top" xlink:title=" ">
<polygon fill="none" stroke="black" points="977,-335.5 977,-365.5 1165,-365.5 1165,-335.5 977,-335.5"/>
<text text-anchor="start" x="985" y="-353.5" font-family="Helvetica,sans-Serif" font-size="10.00">xalanc/PlatformSupport</text>
<text text-anchor="middle" x="1071" y="-342.5" font-family="Helvetica,sans-Serif" font-size="10.00">/XalanOutputStreamPrintWriter.hpp</text>
</a>
</g>
</g>
<!-- Node2&#45;&gt;Node10 -->
<g id="edge9" class="edge">
<title>Node2&#45;&gt;Node10</title>
<path fill="none" stroke="midnightblue" d="M941.05,-398.96C969.72,-388.48 1005.64,-375.37 1032.45,-365.58"/>
<polygon fill="midnightblue" stroke="midnightblue" points="939.82,-395.68 931.62,-402.4 942.22,-402.25 939.82,-395.68"/>
</g>
<!-- Node11 -->
<g id="node11" class="node">
<title>Node11</title>
<g id="a_node11"><a xlink:href="XPathExpression_8hpp.html" target="_top" xlink:title=" ">
<polygon fill="none" stroke="black" points="577.5,-341 577.5,-360 762.5,-360 762.5,-341 577.5,-341"/>
<text text-anchor="middle" x="670" y="-348" font-family="Helvetica,sans-Serif" font-size="10.00">xalanc/XPath/XPathExpression.hpp</text>
</a>
</g>
</g>
<!-- Node2&#45;&gt;Node11 -->
<g id="edge10" class="edge">
<title>Node2&#45;&gt;Node11</title>
<path fill="none" stroke="midnightblue" d="M835.26,-399.67C791.68,-386.97 733.69,-370.06 699.26,-360.03"/>
<polygon fill="midnightblue" stroke="midnightblue" points="834.31,-403.04 844.89,-402.48 836.27,-396.32 834.31,-403.04"/>
</g>
<!-- Node4 -->
<g id="node4" class="node">
<title>Node4</title>
<g id="a_node4"><a xlink:href="StylesheetExecutionContextDefault_8hpp.html" target="_top" xlink:title=" ">
<polygon fill="none" stroke="black" points="950.5,-67.5 950.5,-97.5 1127.5,-97.5 1127.5,-67.5 950.5,-67.5"/>
<text text-anchor="start" x="958.5" y="-85.5" font-family="Helvetica,sans-Serif" font-size="10.00">xalanc/XSLT/StylesheetExecution</text>
<text text-anchor="middle" x="1039" y="-74.5" font-family="Helvetica,sans-Serif" font-size="10.00">ContextDefault.hpp</text>
</a>
</g>
</g>
<!-- Node3&#45;&gt;Node4 -->
<g id="edge3" class="edge">
<title>Node3&#45;&gt;Node4</title>
<path fill="none" stroke="midnightblue" d="M930.5,-260.53C937.51,-251.85 945.4,-241.65 952,-232 984.39,-184.65 1017.13,-124.79 1031.48,-97.82"/>
<polygon fill="midnightblue" stroke="midnightblue" points="927.74,-258.37 924.11,-268.32 933.15,-262.81 927.74,-258.37"/>
</g>
<!-- Node5 -->
<g id="node5" class="node">
<title>Node5</title>
<g id="a_node5"><a xlink:href="ICUBridgeCollationCompareFunctorImpl_8hpp.html" target="_top" xlink:title=" ">
<polygon fill="none" stroke="black" points="1131.5,-0.5 1131.5,-30.5 1314.5,-30.5 1314.5,-0.5 1131.5,-0.5"/>
<text text-anchor="start" x="1139.5" y="-18.5" font-family="Helvetica,sans-Serif" font-size="10.00">xalanc/ICUBridge/ICUBridge</text>
<text text-anchor="middle" x="1223" y="-7.5" font-family="Helvetica,sans-Serif" font-size="10.00">CollationCompareFunctorImpl.hpp</text>
</a>
</g>
</g>
<!-- Node4&#45;&gt;Node5 -->
<g id="edge4" class="edge">
<title>Node4&#45;&gt;Node5</title>
<path fill="none" stroke="midnightblue" d="M1088.67,-63.96C1118.3,-53.48 1155.44,-40.37 1183.15,-30.58"/>
<polygon fill="midnightblue" stroke="midnightblue" points="1087.19,-60.76 1078.93,-67.4 1089.52,-67.37 1087.19,-60.76"/>
</g>
<!-- Node6 -->
<g id="node6" class="node">
<title>Node6</title>
<g id="a_node6"><a xlink:href="ICUFormatNumberFunctor_8hpp.html" target="_top" xlink:title=" ">
<polygon fill="none" stroke="black" points="791.5,-0.5 791.5,-30.5 946.5,-30.5 946.5,-0.5 791.5,-0.5"/>
<text text-anchor="start" x="799.5" y="-18.5" font-family="Helvetica,sans-Serif" font-size="10.00">xalanc/ICUBridge/ICUFormat</text>
<text text-anchor="middle" x="869" y="-7.5" font-family="Helvetica,sans-Serif" font-size="10.00">NumberFunctor.hpp</text>
</a>
</g>
</g>
<!-- Node4&#45;&gt;Node6 -->
<g id="edge5" class="edge">
<title>Node4&#45;&gt;Node6</title>
<path fill="none" stroke="midnightblue" d="M992.76,-63.82C965.43,-53.37 931.31,-40.32 905.82,-30.58"/>
<polygon fill="midnightblue" stroke="midnightblue" points="991.52,-67.09 1002.11,-67.4 994.02,-60.56 991.52,-67.09"/>
</g>
<!-- Node7 -->
<g id="node7" class="node">
<title>Node7</title>
<g id="a_node7"><a xlink:href="ICUXalanNumberFormatFactory_8hpp.html" target="_top" xlink:title=" ">
<polygon fill="none" stroke="black" points="964.5,-0.5 964.5,-30.5 1113.5,-30.5 1113.5,-0.5 964.5,-0.5"/>
<text text-anchor="start" x="972.5" y="-18.5" font-family="Helvetica,sans-Serif" font-size="10.00">xalanc/ICUBridge/ICUXalan</text>
<text text-anchor="middle" x="1039" y="-7.5" font-family="Helvetica,sans-Serif" font-size="10.00">NumberFormatFactory.hpp</text>
</a>
</g>
</g>
<!-- Node4&#45;&gt;Node7 -->
<g id="edge6" class="edge">
<title>Node4&#45;&gt;Node7</title>
<path fill="none" stroke="midnightblue" d="M1039,-57.11C1039,-48.15 1039,-38.32 1039,-30.58"/>
<polygon fill="midnightblue" stroke="midnightblue" points="1035.5,-57.4 1039,-67.4 1042.5,-57.4 1035.5,-57.4"/>
</g>
<!-- Node8 -->
<g id="node8" class="node">
<title>Node8</title>
<g id="a_node8"><a xlink:href="XalanCompiledStylesheetDefault_8hpp.html" target="_top" xlink:title=" ">
<polygon fill="none" stroke="black" points="454.5,-0.5 454.5,-30.5 657.5,-30.5 657.5,-0.5 454.5,-0.5"/>
<text text-anchor="start" x="462.5" y="-18.5" font-family="Helvetica,sans-Serif" font-size="10.00">xalanc/XalanTransformer</text>
<text text-anchor="middle" x="556" y="-7.5" font-family="Helvetica,sans-Serif" font-size="10.00">/XalanCompiledStylesheetDefault.hpp</text>
</a>
</g>
</g>
<!-- Node4&#45;&gt;Node8 -->
<g id="edge7" class="edge">
<title>Node4&#45;&gt;Node8</title>
<path fill="none" stroke="midnightblue" d="M940.14,-66.89C837.99,-52.69 732.94,-39.01 657.79,-29.39"/>
<polygon fill="midnightblue" stroke="midnightblue" points="939.95,-70.4 950.34,-68.31 940.91,-63.47 939.95,-70.4"/>
</g>
<!-- Node12 -->
<g id="node12" class="node">
<title>Node12</title>
<g id="a_node12"><a xlink:href="XPath_8hpp.html" target="_top" xlink:title=" ">
<polygon fill="none" stroke="black" points="586.5,-274 586.5,-293 717.5,-293 717.5,-274 586.5,-274"/>
<text text-anchor="middle" x="652" y="-281" font-family="Helvetica,sans-Serif" font-size="10.00">xalanc/XPath/XPath.hpp</text>
</a>
</g>
</g>
<!-- Node11&#45;&gt;Node12 -->
<g id="edge11" class="edge">
<title>Node11&#45;&gt;Node12</title>
<path fill="none" stroke="midnightblue" d="M664.85,-330.91C661.41,-318.49 657.04,-302.72 654.39,-293.13"/>
<polygon fill="midnightblue" stroke="midnightblue" points="661.53,-332.03 667.57,-340.73 668.28,-330.16 661.53,-332.03"/>
</g>
<!-- Node13 -->
<g id="node13" class="node">
<title>Node13</title>
<g id="a_node13"><a xlink:href="XPathAllocator_8hpp.html" target="_top" xlink:title=" ">
<polygon fill="none" stroke="black" points="0,-207 0,-226 174,-226 174,-207 0,-207"/>
<text text-anchor="middle" x="87" y="-214" font-family="Helvetica,sans-Serif" font-size="10.00">xalanc/XPath/XPathAllocator.hpp</text>
</a>
</g>
</g>
<!-- Node12&#45;&gt;Node13 -->
<g id="edge12" class="edge">
<title>Node12&#45;&gt;Node13</title>
<path fill="none" stroke="midnightblue" d="M576.12,-275.33C483.28,-266.33 321.37,-249.89 183,-232 169.29,-230.23 154.52,-228.1 140.76,-226.03"/>
<polygon fill="midnightblue" stroke="midnightblue" points="575.97,-278.84 586.26,-276.31 576.64,-271.87 575.97,-278.84"/>
</g>
<!-- Node15 -->
<g id="node15" class="node">
<title>Node15</title>
<g id="a_node15"><a xlink:href="XPathProcessorImpl_8hpp.html" target="_top" xlink:title=" ">
<polygon fill="none" stroke="black" points="192,-201.5 192,-231.5 350,-231.5 350,-201.5 192,-201.5"/>
<text text-anchor="start" x="200" y="-219.5" font-family="Helvetica,sans-Serif" font-size="10.00">xalanc/XPath/XPathProcessor</text>
<text text-anchor="middle" x="271" y="-208.5" font-family="Helvetica,sans-Serif" font-size="10.00">Impl.hpp</text>
</a>
</g>
</g>
<!-- Node12&#45;&gt;Node15 -->
<g id="edge15" class="edge">
<title>Node12&#45;&gt;Node15</title>
<path fill="none" stroke="midnightblue" d="M591.67,-272.21C526.38,-261.07 422.01,-243.26 350.17,-231.01"/>
<polygon fill="midnightblue" stroke="midnightblue" points="591.35,-275.7 601.8,-273.94 592.53,-268.8 591.35,-275.7"/>
</g>
<!-- Node16 -->
<g id="node16" class="node">
<title>Node16</title>
<g id="a_node16"><a xlink:href="Stylesheet_8hpp.html" target="_top" xlink:title=" ">
<polygon fill="none" stroke="black" points="770.5,-140 770.5,-159 921.5,-159 921.5,-140 770.5,-140"/>
<text text-anchor="middle" x="846" y="-147" font-family="Helvetica,sans-Serif" font-size="10.00">xalanc/XSLT/Stylesheet.hpp</text>
</a>
</g>
</g>
<!-- Node12&#45;&gt;Node16 -->
<g id="edge16" class="edge">
<title>Node12&#45;&gt;Node16</title>
<path fill="none" stroke="midnightblue" d="M727.55,-274.04C806.79,-264.38 921.71,-247.87 935,-232 943.85,-221.44 941.93,-212.91 935,-201 922.57,-179.66 897.4,-166.61 876.99,-159.13"/>
<polygon fill="midnightblue" stroke="midnightblue" points="727.09,-270.56 717.58,-275.24 727.93,-277.51 727.09,-270.56"/>
</g>
<!-- Node19 -->
<g id="node19" class="node">
<title>Node19</title>
<g id="a_node19"><a xlink:href="StylesheetConstructionContext_8hpp.html" target="_top" xlink:title=" ">
<polygon fill="none" stroke="black" points="556.5,-201.5 556.5,-231.5 747.5,-231.5 747.5,-201.5 556.5,-201.5"/>
<text text-anchor="start" x="564.5" y="-219.5" font-family="Helvetica,sans-Serif" font-size="10.00">xalanc/XSLT/StylesheetConstruction</text>
<text text-anchor="middle" x="652" y="-208.5" font-family="Helvetica,sans-Serif" font-size="10.00">Context.hpp</text>
</a>
</g>
</g>
<!-- Node12&#45;&gt;Node19 -->
<g id="edge21" class="edge">
<title>Node12&#45;&gt;Node19</title>
<path fill="none" stroke="midnightblue" d="M652,-263.41C652,-253.22 652,-240.9 652,-231.59"/>
<polygon fill="midnightblue" stroke="midnightblue" points="648.5,-263.73 652,-273.73 655.5,-263.73 648.5,-263.73"/>
</g>
<!-- Node21 -->
<g id="node21" class="node">
<title>Node21</title>
<g id="a_node21"><a xlink:href="XalanMatchPatternData_8hpp.html" target="_top" xlink:title=" ">
<polygon fill="none" stroke="black" points="368,-201.5 368,-231.5 538,-231.5 538,-201.5 368,-201.5"/>
<text text-anchor="start" x="376" y="-219.5" font-family="Helvetica,sans-Serif" font-size="10.00">xalanc/XSLT/XalanMatchPattern</text>
<text text-anchor="middle" x="453" y="-208.5" font-family="Helvetica,sans-Serif" font-size="10.00">Data.hpp</text>
</a>
</g>
</g>
<!-- Node12&#45;&gt;Node21 -->
<g id="edge25" class="edge">
<title>Node12&#45;&gt;Node21</title>
<path fill="none" stroke="midnightblue" d="M615.67,-270.63C581.93,-259.61 531.66,-243.19 495.95,-231.53"/>
<polygon fill="midnightblue" stroke="midnightblue" points="614.98,-274.09 625.57,-273.87 617.16,-267.44 614.98,-274.09"/>
</g>
<!-- Node23 -->
<g id="node23" class="node">
<title>Node23</title>
<g id="a_node23"><a xlink:href="XalanSpaceNodeTester_8hpp.html" target="_top" xlink:title=" ">
<polygon fill="none" stroke="black" points="765.5,-201.5 765.5,-231.5 926.5,-231.5 926.5,-201.5 765.5,-201.5"/>
<text text-anchor="start" x="773.5" y="-219.5" font-family="Helvetica,sans-Serif" font-size="10.00">xalanc/XSLT/XalanSpaceNode</text>
<text text-anchor="middle" x="846" y="-208.5" font-family="Helvetica,sans-Serif" font-size="10.00">Tester.hpp</text>
</a>
</g>
</g>
<!-- Node12&#45;&gt;Node23 -->
<g id="edge28" class="edge">
<title>Node12&#45;&gt;Node23</title>
<path fill="none" stroke="midnightblue" d="M687.42,-270.63C720.31,-259.61 769.32,-243.19 804.13,-231.53"/>
<polygon fill="midnightblue" stroke="midnightblue" points="686.13,-267.37 677.76,-273.87 688.36,-274.01 686.13,-267.37"/>
</g>
<!-- Node14 -->
<g id="node14" class="node">
<title>Node14</title>
<g id="a_node14"><a xlink:href="XPathFactoryBlock_8hpp.html" target="_top" xlink:title=" ">
<polygon fill="none" stroke="black" points="102,-134.5 102,-164.5 248,-164.5 248,-134.5 102,-134.5"/>
<text text-anchor="start" x="110" y="-152.5" font-family="Helvetica,sans-Serif" font-size="10.00">xalanc/XPath/XPathFactory</text>
<text text-anchor="middle" x="175" y="-141.5" font-family="Helvetica,sans-Serif" font-size="10.00">Block.hpp</text>
</a>
</g>
</g>
<!-- Node13&#45;&gt;Node14 -->
<g id="edge13" class="edge">
<title>Node13&#45;&gt;Node14</title>
<path fill="none" stroke="midnightblue" d="M107.25,-200.54C121.89,-189.73 141.56,-175.2 155.93,-164.59"/>
<polygon fill="midnightblue" stroke="midnightblue" points="104.83,-197.98 98.87,-206.73 108.99,-203.61 104.83,-197.98"/>
</g>
<!-- Node14&#45;&gt;Node8 -->
<g id="edge14" class="edge">
<title>Node14&#45;&gt;Node8</title>
<path fill="none" stroke="midnightblue" d="M206.59,-129.3C237.94,-110.99 287.83,-83.78 334,-67 378.3,-50.9 429.5,-38.84 471.56,-30.55"/>
<polygon fill="midnightblue" stroke="midnightblue" points="204.71,-126.35 197.88,-134.45 208.27,-132.38 204.71,-126.35"/>
</g>
<!-- Node16&#45;&gt;Node4 -->
<g id="edge17" class="edge">
<title>Node16&#45;&gt;Node4</title>
<path fill="none" stroke="midnightblue" d="M881.24,-136.63C913.96,-125.61 962.71,-109.19 997.35,-97.53"/>
<polygon fill="midnightblue" stroke="midnightblue" points="879.99,-133.36 871.63,-139.87 882.22,-139.99 879.99,-133.36"/>
</g>
<!-- Node17 -->
<g id="node17" class="node">
<title>Node17</title>
<g id="a_node17"><a xlink:href="StylesheetHandler_8hpp.html" target="_top" xlink:title=" ">
<polygon fill="none" stroke="black" points="553,-73 553,-92 741,-92 741,-73 553,-73"/>
<text text-anchor="middle" x="647" y="-80" font-family="Helvetica,sans-Serif" font-size="10.00">xalanc/XSLT/StylesheetHandler.hpp</text>
</a>
</g>
</g>
<!-- Node16&#45;&gt;Node17 -->
<g id="edge18" class="edge">
<title>Node16&#45;&gt;Node17</title>
<path fill="none" stroke="midnightblue" d="M809.82,-136.68C770.38,-123.8 708.22,-103.5 673.22,-92.06"/>
<polygon fill="midnightblue" stroke="midnightblue" points="808.98,-140.09 819.57,-139.87 811.16,-133.44 808.98,-140.09"/>
</g>
<!-- Node18 -->
<g id="node18" class="node">
<title>Node18</title>
<g id="a_node18"><a xlink:href="StylesheetRoot_8hpp.html" target="_top" xlink:title=" ">
<polygon fill="none" stroke="black" points="759.5,-73 759.5,-92 932.5,-92 932.5,-73 759.5,-73"/>
<text text-anchor="middle" x="846" y="-80" font-family="Helvetica,sans-Serif" font-size="10.00">xalanc/XSLT/StylesheetRoot.hpp</text>
</a>
</g>
</g>
<!-- Node16&#45;&gt;Node18 -->
<g id="edge19" class="edge">
<title>Node16&#45;&gt;Node18</title>
<path fill="none" stroke="midnightblue" d="M846,-129.54C846,-117.17 846,-101.62 846,-92.13"/>
<polygon fill="midnightblue" stroke="midnightblue" points="842.5,-129.73 846,-139.73 849.5,-129.73 842.5,-129.73"/>
</g>
<!-- Node18&#45;&gt;Node8 -->
<g id="edge20" class="edge">
<title>Node18&#45;&gt;Node8</title>
<path fill="none" stroke="midnightblue" d="M797.75,-70.69C748.69,-59.69 672.45,-42.6 618.73,-30.56"/>
<polygon fill="midnightblue" stroke="midnightblue" points="797.27,-74.16 807.79,-72.94 798.8,-67.33 797.27,-74.16"/>
</g>
<!-- Node19&#45;&gt;Node16 -->
<g id="edge22" class="edge">
<title>Node19&#45;&gt;Node16</title>
<path fill="none" stroke="midnightblue" d="M703.91,-198.11C741.65,-185.46 791.11,-168.89 820.61,-159.01"/>
<polygon fill="midnightblue" stroke="midnightblue" points="702.47,-194.9 694.1,-201.4 704.69,-201.54 702.47,-194.9"/>
</g>
<!-- Node20 -->
<g id="node20" class="node">
<title>Node20</title>
<g id="a_node20"><a xlink:href="StylesheetConstructionContextDefault_8hpp.html" target="_top" xlink:title=" ">
<polygon fill="none" stroke="black" points="343.5,-67.5 343.5,-97.5 534.5,-97.5 534.5,-67.5 343.5,-67.5"/>
<text text-anchor="start" x="351.5" y="-85.5" font-family="Helvetica,sans-Serif" font-size="10.00">xalanc/XSLT/StylesheetConstruction</text>
<text text-anchor="middle" x="439" y="-74.5" font-family="Helvetica,sans-Serif" font-size="10.00">ContextDefault.hpp</text>
</a>
</g>
</g>
<!-- Node19&#45;&gt;Node20 -->
<g id="edge23" class="edge">
<title>Node19&#45;&gt;Node20</title>
<path fill="none" stroke="midnightblue" d="M626.48,-195.05C604.3,-177.75 570.97,-152.83 540,-134 517.55,-120.35 490.93,-107.15 470.66,-97.68"/>
<polygon fill="midnightblue" stroke="midnightblue" points="624.37,-197.85 634.4,-201.28 628.7,-192.35 624.37,-197.85"/>
</g>
<!-- Node20&#45;&gt;Node8 -->
<g id="edge24" class="edge">
<title>Node20&#45;&gt;Node8</title>
<path fill="none" stroke="midnightblue" d="M473.32,-62.44C491.67,-52.24 513.88,-39.9 530.66,-30.58"/>
<polygon fill="midnightblue" stroke="midnightblue" points="471.43,-59.48 464.39,-67.4 474.83,-65.6 471.43,-59.48"/>
</g>
<!-- Node22 -->
<g id="node22" class="node">
<title>Node22</title>
<g id="a_node22"><a xlink:href="XalanMatchPatternDataAllocator_8hpp.html" target="_top" xlink:title=" ">
<polygon fill="none" stroke="black" points="361,-134.5 361,-164.5 531,-164.5 531,-134.5 361,-134.5"/>
<text text-anchor="start" x="369" y="-152.5" font-family="Helvetica,sans-Serif" font-size="10.00">xalanc/XSLT/XalanMatchPattern</text>
<text text-anchor="middle" x="446" y="-141.5" font-family="Helvetica,sans-Serif" font-size="10.00">DataAllocator.hpp</text>
</a>
</g>
</g>
<!-- Node21&#45;&gt;Node22 -->
<g id="edge26" class="edge">
<title>Node21&#45;&gt;Node22</title>
<path fill="none" stroke="midnightblue" d="M450.4,-191.4C449.43,-182.37 448.36,-172.41 447.52,-164.58"/>
<polygon fill="midnightblue" stroke="midnightblue" points="446.93,-191.83 451.48,-201.4 453.89,-191.08 446.93,-191.83"/>
</g>
<!-- Node22&#45;&gt;Node20 -->
<g id="edge27" class="edge">
<title>Node22&#45;&gt;Node20</title>
<path fill="none" stroke="midnightblue" d="M443.4,-124.4C442.43,-115.37 441.36,-105.41 440.52,-97.58"/>
<polygon fill="midnightblue" stroke="midnightblue" points="439.93,-124.83 444.48,-134.4 446.89,-124.08 439.93,-124.83"/>
</g>
<!-- Node23&#45;&gt;Node16 -->
<g id="edge29" class="edge">
<title>Node23&#45;&gt;Node16</title>
<path fill="none" stroke="midnightblue" d="M846,-191.25C846,-180.02 846,-167.38 846,-159.19"/>
<polygon fill="midnightblue" stroke="midnightblue" points="842.5,-191.4 846,-201.4 849.5,-191.4 842.5,-191.4"/>
</g>
<!-- Node25 -->
<g id="node25" class="node">
<title>Node25</title>
<g id="a_node25"><a xlink:href="XalanOtherEncodingWriter_8hpp.html" target="_top" xlink:title=" ">
<polygon fill="none" stroke="black" points="1559,-335.5 1559,-365.5 1727,-365.5 1727,-335.5 1559,-335.5"/>
<text text-anchor="start" x="1567" y="-353.5" font-family="Helvetica,sans-Serif" font-size="10.00">xalanc/XMLSupport/XalanOther</text>
<text text-anchor="middle" x="1643" y="-342.5" font-family="Helvetica,sans-Serif" font-size="10.00">EncodingWriter.hpp</text>
</a>
</g>
</g>
<!-- Node24&#45;&gt;Node25 -->
<g id="edge31" class="edge">
<title>Node24&#45;&gt;Node25</title>
<path fill="none" stroke="midnightblue" d="M1434.03,-400.19C1479.72,-389.54 1538.77,-375.78 1582.43,-365.61"/>
<polygon fill="midnightblue" stroke="midnightblue" points="1433.14,-396.8 1424.2,-402.48 1434.73,-403.62 1433.14,-396.8"/>
</g>
<!-- Node26 -->
<g id="node26" class="node">
<title>Node26</title>
<g id="a_node26"><a xlink:href="XalanUTF16Writer_8hpp.html" target="_top" xlink:title=" ">
<polygon fill="none" stroke="black" points="1183.5,-335.5 1183.5,-365.5 1356.5,-365.5 1356.5,-335.5 1183.5,-335.5"/>
<text text-anchor="start" x="1191.5" y="-353.5" font-family="Helvetica,sans-Serif" font-size="10.00">xalanc/XMLSupport/XalanUTF16</text>
<text text-anchor="middle" x="1270" y="-342.5" font-family="Helvetica,sans-Serif" font-size="10.00">Writer.hpp</text>
</a>
</g>
</g>
<!-- Node24&#45;&gt;Node26 -->
<g id="edge32" class="edge">
<title>Node24&#45;&gt;Node26</title>
<path fill="none" stroke="midnightblue" d="M1335.01,-396.45C1320.55,-386.45 1303.41,-374.6 1290.36,-365.58"/>
<polygon fill="midnightblue" stroke="midnightblue" points="1333.39,-399.59 1343.6,-402.4 1337.37,-393.83 1333.39,-399.59"/>
</g>
<!-- Node27 -->
<g id="node27" class="node">
<title>Node27</title>
<g id="a_node27"><a xlink:href="XalanUTF8Writer_8hpp.html" target="_top" xlink:title=" ">
<polygon fill="none" stroke="black" points="1374.5,-335.5 1374.5,-365.5 1541.5,-365.5 1541.5,-335.5 1374.5,-335.5"/>
<text text-anchor="start" x="1382.5" y="-353.5" font-family="Helvetica,sans-Serif" font-size="10.00">xalanc/XMLSupport/XalanUTF8</text>
<text text-anchor="middle" x="1458" y="-342.5" font-family="Helvetica,sans-Serif" font-size="10.00">Writer.hpp</text>
</a>
</g>
</g>
<!-- Node24&#45;&gt;Node27 -->
<g id="edge33" class="edge">
<title>Node24&#45;&gt;Node27</title>
<path fill="none" stroke="midnightblue" d="M1392.99,-396.45C1407.45,-386.45 1424.59,-374.6 1437.64,-365.58"/>
<polygon fill="midnightblue" stroke="midnightblue" points="1390.63,-393.83 1384.4,-402.4 1394.61,-399.59 1390.63,-393.83"/>
</g>
</g>
</svg>
        <g id="navigator" transform="translate(0 0)" fill="#404254">
                <rect fill="#f2f5e9" fill-opacity="0.5" stroke="#606060" stroke-width=".5" x="0" y="0" width="60" height="60"/>
                <use id="zoomplus" xlink:href="#zoomPlus" x="17" y="9" onmousedown="handleZoom(evt,'in')"/>
                <use id="zoomminus" xlink:href="#zoomMin" x="42" y="9" onmousedown="handleZoom(evt,'out')"/>
                <use id="reset" xlink:href="#resetDef" x="30" y="36" onmousedown="handleReset()"/>
                <g id="arrowUp" xlink:href="#dirArrow" transform="translate(30 24)" onmousedown="handlePan(0,-1)">
                  <use xlink:href="#rim" fill="#404040">
                        <set attributeName="fill" to="#808080" begin="arrowUp.mouseover" end="arrowUp.mouseout"/>
                  </use>
                  <path fill="none" stroke="white" stroke-width="1.5" d="M0,-3.0v7 M-2.5,-0.5L0,-3.0L2.5,-0.5"/>
                </g>
                <g id="arrowRight" xlink:href="#dirArrow" transform="rotate(90) translate(36 -43)" onmousedown="handlePan(1,0)">
                  <use xlink:href="#rim" fill="#404040">
                        <set attributeName="fill" to="#808080" begin="arrowRight.mouseover" end="arrowRight.mouseout"/>
                  </use>
                  <path fill="none" stroke="white" stroke-width="1.5" d="M0,-3.0v7 M-2.5,-0.5L0,-3.0L2.5,-0.5"/>
                </g>
                <g id="arrowDown" xlink:href="#dirArrow" transform="rotate(180) translate(-30 -48)" onmousedown="handlePan(0,1)">
                  <use xlink:href="#rim" fill="#404040">
                        <set attributeName="fill" to="#808080" begin="arrowDown.mouseover" end="arrowDown.mouseout"/>
                  </use>
                  <path fill="none" stroke="white" stroke-width="1.5" d="M0,-3.0v7 M-2.5,-0.5L0,-3.0L2.5,-0.5"/>
                </g>
                <g id="arrowLeft" xlink:href="#dirArrow" transform="rotate(270) translate(-36 17)" onmousedown="handlePan(-1,0)">
                  <use xlink:href="#rim" fill="#404040">
                        <set attributeName="fill" to="#808080" begin="arrowLeft.mouseover" end="arrowLeft.mouseout"/>
                  </use>
                  <path fill="none" stroke="white" stroke-width="1.5" d="M0,-3.0v7 M-2.5,-0.5L0,-3.0L2.5,-0.5"/>
                </g>
        </g>
        <svg viewBox="0 0 15 15" width="100%" height="30px" preserveAspectRatio="xMaxYMin meet">
         <g id="arrow_out" transform="scale(0.3 0.3)">
          <a xlink:href="Writer_8hpp__dep__incl_org.svg" target="_base">
           <rect id="button" ry="5" rx="5" y="6" x="6" height="38" width="38"
                fill="#f2f5e9" fill-opacity="0.5" stroke="#606060" stroke-width="1.0"/>
           <path id="arrow"
             d="M 11.500037,31.436501 C 11.940474,20.09759 22.043105,11.32322 32.158766,21.979434 L 37.068811,17.246167 C 37.068811,17.246167 37.088388,32 37.088388,32 L 22.160133,31.978069 C 22.160133,31.978069 26.997745,27.140456 26.997745,27.140456 C 18.528582,18.264221 13.291696,25.230495 11.500037,31.436501 z"
             style="fill:#404040;"/>
          </a>
         </g>
        </svg>
</svg>
