<?xml version="1.0" encoding="UTF-8" standalone="no"?>
<!DOCTYPE svg PUBLIC "-//W3C//DTD SVG 1.1//EN"
 "http://www.w3.org/Graphics/SVG/1.1/DTD/svg11.dtd">
<!-- Generated by graphviz version 2.43.0 (0)
 -->
<!-- Title: xalanc/XalanDOM/XalanDocumentFragment.hpp Pages: 1 -->
<!--zoomable 519 -->
<svg id="main" version="1.1" xmlns="http://www.w3.org/2000/svg" xmlns:xlink="http://www.w3.org/1999/xlink" xml:space="preserve" onload="init(evt)">
<style type="text/css"><![CDATA[
.edge:hover path { stroke: red; }
.edge:hover polygon { stroke: red; fill: red; }
]]></style>
<script type="text/javascript"><![CDATA[
var edges = document.getElementsByTagName('g');
if (edges && edges.length) {
  for (var i=0;i<edges.length;i++) {
    if (edges[i].id.substr(0,4)=='edge') {
      edges[i].setAttribute('class','edge');
    }
  }
}
]]></script>
        <defs>
                <circle id="rim" cx="0" cy="0" r="7"/>
                <circle id="rim2" cx="0" cy="0" r="3.5"/>
                <g id="zoomPlus">
                        <use xlink:href="#rim" fill="#404040">
                                <set attributeName="fill" to="#808080" begin="zoomplus.mouseover" end="zoomplus.mouseout"/>
                        </use>
                        <path d="M-4,0h8M0,-4v8" fill="none" stroke="white" stroke-width="1.5" pointer-events="none"/>
                </g>
                <g id="zoomMin">
                        <use xlink:href="#rim" fill="#404040">
                                <set attributeName="fill" to="#808080" begin="zoomminus.mouseover" end="zoomminus.mouseout"/>
                        </use>
                        <path d="M-4,0h8" fill="none" stroke="white" stroke-width="1.5" pointer-events="none"/>
                </g>
                <g id="dirArrow">
                        <path fill="none" stroke="white" stroke-width="1.5" d="M0,-3.0v7 M-2.5,-0.5L0,-3.0L2.5,-0.5"/>
                </g>
               <g id="resetDef">
                       <use xlink:href="#rim2" fill="#404040">
                               <set attributeName="fill" to="#808080" begin="reset.mouseover" end="reset.mouseout"/>
                       </use>
               </g>
        </defs>

<script type="text/javascript">
var viewWidth = 2019;
var viewHeight = 519;
var sectionId = 'dynsection-1';
</script>
<script xlink:href="svgpan.js"/>
<svg id="graph" class="graph">
<g id="viewport">
<title>xalanc/XalanDOM/XalanDocumentFragment.hpp</title>
<!-- Node1 -->
<g id="node1" class="node">
<title>Node1</title>
<g id="a_node1"><a xlink:title=" ">
<polygon fill="#bfbfbf" stroke="black" points="712,-480.5 712,-510.5 897,-510.5 897,-480.5 712,-480.5"/>
<text text-anchor="start" x="720" y="-498.5" font-family="Helvetica,sans-Serif" font-size="10.00">xalanc/XalanDOM/XalanDocument</text>
<text text-anchor="middle" x="804.5" y="-487.5" font-family="Helvetica,sans-Serif" font-size="10.00">Fragment.hpp</text>
</a>
</g>
</g>
<!-- Node2 -->
<g id="node2" class="node">
<title>Node2</title>
<g id="a_node2"><a xlink:href="XalanSourceTreeDocumentFragment_8hpp.html" target="_top" xlink:title=" ">
<polygon fill="none" stroke="black" points="455.5,-408 455.5,-438 673.5,-438 673.5,-408 455.5,-408"/>
<text text-anchor="start" x="463.5" y="-426" font-family="Helvetica,sans-Serif" font-size="10.00">xalanc/XalanSourceTree</text>
<text text-anchor="middle" x="564.5" y="-415" font-family="Helvetica,sans-Serif" font-size="10.00">/XalanSourceTreeDocumentFragment.hpp</text>
</a>
</g>
</g>
<!-- Node1&#45;&gt;Node2 -->
<g id="edge1" class="edge">
<title>Node1&#45;&gt;Node2</title>
<path fill="none" stroke="midnightblue" d="M747.19,-477.66C706.09,-465.59 651.34,-449.51 612.52,-438.11"/>
<polygon fill="midnightblue" stroke="midnightblue" points="746.22,-481.03 756.8,-480.49 748.19,-474.31 746.22,-481.03"/>
</g>
<!-- Node9 -->
<g id="node9" class="node">
<title>Node9</title>
<g id="a_node9"><a xlink:href="XercesDocumentFragmentBridge_8hpp.html" target="_top" xlink:title=" ">
<polygon fill="none" stroke="black" points="700,-402.5 700,-443.5 909,-443.5 909,-402.5 700,-402.5"/>
<text text-anchor="start" x="708" y="-431.5" font-family="Helvetica,sans-Serif" font-size="10.00">xalanc/XercesParserLiaison</text>
<text text-anchor="start" x="708" y="-420.5" font-family="Helvetica,sans-Serif" font-size="10.00">/Deprecated/XercesDocumentFragment</text>
<text text-anchor="middle" x="804.5" y="-409.5" font-family="Helvetica,sans-Serif" font-size="10.00">Bridge.hpp</text>
</a>
</g>
</g>
<!-- Node1&#45;&gt;Node9 -->
<g id="edge9" class="edge">
<title>Node1&#45;&gt;Node9</title>
<path fill="none" stroke="midnightblue" d="M804.5,-469.98C804.5,-461.35 804.5,-451.76 804.5,-443.59"/>
<polygon fill="midnightblue" stroke="midnightblue" points="801,-470.23 804.5,-480.23 808,-470.23 801,-470.23"/>
</g>
<!-- Node10 -->
<g id="node10" class="node">
<title>Node10</title>
<g id="a_node10"><a xlink:href="XObjectResultTreeFragProxyBase_8hpp.html" target="_top" xlink:title=" ">
<polygon fill="none" stroke="black" points="931,-408 931,-438 1082,-438 1082,-408 931,-408"/>
<text text-anchor="start" x="939" y="-426" font-family="Helvetica,sans-Serif" font-size="10.00">xalanc/XPath/XObjectResult</text>
<text text-anchor="middle" x="1006.5" y="-415" font-family="Helvetica,sans-Serif" font-size="10.00">TreeFragProxyBase.hpp</text>
</a>
</g>
</g>
<!-- Node1&#45;&gt;Node10 -->
<g id="edge10" class="edge">
<title>Node1&#45;&gt;Node10</title>
<path fill="none" stroke="midnightblue" d="M854.74,-476.96C889.13,-464.96 934.13,-449.26 966.18,-438.07"/>
<polygon fill="midnightblue" stroke="midnightblue" points="853.18,-473.8 844.89,-480.4 855.49,-480.41 853.18,-473.8"/>
</g>
<!-- Node3 -->
<g id="node3" class="node">
<title>Node3</title>
<g id="a_node3"><a xlink:href="StylesheetExecutionContextDefault_8hpp.html" target="_top" xlink:title=" ">
<polygon fill="none" stroke="black" points="360,-268.5 360,-298.5 537,-298.5 537,-268.5 360,-268.5"/>
<text text-anchor="start" x="368" y="-286.5" font-family="Helvetica,sans-Serif" font-size="10.00">xalanc/XSLT/StylesheetExecution</text>
<text text-anchor="middle" x="448.5" y="-275.5" font-family="Helvetica,sans-Serif" font-size="10.00">ContextDefault.hpp</text>
</a>
</g>
</g>
<!-- Node2&#45;&gt;Node3 -->
<g id="edge2" class="edge">
<title>Node2&#45;&gt;Node3</title>
<path fill="none" stroke="midnightblue" d="M514.6,-403.55C496.98,-394.71 478.57,-382.4 466.5,-366 451.73,-345.93 448.68,-316.04 448.27,-298.58"/>
<polygon fill="midnightblue" stroke="midnightblue" points="513.17,-406.74 523.71,-407.86 516.17,-400.42 513.17,-406.74"/>
</g>
<!-- Node8 -->
<g id="node8" class="node">
<title>Node8</title>
<g id="a_node8"><a xlink:href="XalanSourceTreeDocumentFragmentAllocator_8hpp.html" target="_top" xlink:title=" ">
<polygon fill="none" stroke="black" points="476,-335.5 476,-365.5 653,-365.5 653,-335.5 476,-335.5"/>
<text text-anchor="start" x="484" y="-353.5" font-family="Helvetica,sans-Serif" font-size="10.00">xalanc/XSLT/XalanSourceTree</text>
<text text-anchor="middle" x="564.5" y="-342.5" font-family="Helvetica,sans-Serif" font-size="10.00">DocumentFragmentAllocator.hpp</text>
</a>
</g>
</g>
<!-- Node2&#45;&gt;Node8 -->
<g id="edge7" class="edge">
<title>Node2&#45;&gt;Node8</title>
<path fill="none" stroke="midnightblue" d="M564.5,-397.73C564.5,-387.07 564.5,-374.91 564.5,-365.75"/>
<polygon fill="midnightblue" stroke="midnightblue" points="561,-397.73 564.5,-407.73 568,-397.73 561,-397.73"/>
</g>
<!-- Node4 -->
<g id="node4" class="node">
<title>Node4</title>
<g id="a_node4"><a xlink:href="ICUBridgeCollationCompareFunctorImpl_8hpp.html" target="_top" xlink:title=" ">
<polygon fill="none" stroke="black" points="0,-201.5 0,-231.5 183,-231.5 183,-201.5 0,-201.5"/>
<text text-anchor="start" x="8" y="-219.5" font-family="Helvetica,sans-Serif" font-size="10.00">xalanc/ICUBridge/ICUBridge</text>
<text text-anchor="middle" x="91.5" y="-208.5" font-family="Helvetica,sans-Serif" font-size="10.00">CollationCompareFunctorImpl.hpp</text>
</a>
</g>
</g>
<!-- Node3&#45;&gt;Node4 -->
<g id="edge3" class="edge">
<title>Node3&#45;&gt;Node4</title>
<path fill="none" stroke="midnightblue" d="M361.44,-266.65C302.53,-255.92 225.41,-241.88 168.69,-231.55"/>
<polygon fill="midnightblue" stroke="midnightblue" points="361.01,-270.13 371.48,-268.48 362.26,-263.24 361.01,-270.13"/>
</g>
<!-- Node5 -->
<g id="node5" class="node">
<title>Node5</title>
<g id="a_node5"><a xlink:href="ICUFormatNumberFunctor_8hpp.html" target="_top" xlink:title=" ">
<polygon fill="none" stroke="black" points="201,-201.5 201,-231.5 356,-231.5 356,-201.5 201,-201.5"/>
<text text-anchor="start" x="209" y="-219.5" font-family="Helvetica,sans-Serif" font-size="10.00">xalanc/ICUBridge/ICUFormat</text>
<text text-anchor="middle" x="278.5" y="-208.5" font-family="Helvetica,sans-Serif" font-size="10.00">NumberFunctor.hpp</text>
</a>
</g>
</g>
<!-- Node3&#45;&gt;Node5 -->
<g id="edge4" class="edge">
<title>Node3&#45;&gt;Node5</title>
<path fill="none" stroke="midnightblue" d="M402.26,-264.82C374.93,-254.37 340.81,-241.32 315.32,-231.58"/>
<polygon fill="midnightblue" stroke="midnightblue" points="401.02,-268.09 411.61,-268.4 403.52,-261.56 401.02,-268.09"/>
</g>
<!-- Node6 -->
<g id="node6" class="node">
<title>Node6</title>
<g id="a_node6"><a xlink:href="ICUXalanNumberFormatFactory_8hpp.html" target="_top" xlink:title=" ">
<polygon fill="none" stroke="black" points="374,-201.5 374,-231.5 523,-231.5 523,-201.5 374,-201.5"/>
<text text-anchor="start" x="382" y="-219.5" font-family="Helvetica,sans-Serif" font-size="10.00">xalanc/ICUBridge/ICUXalan</text>
<text text-anchor="middle" x="448.5" y="-208.5" font-family="Helvetica,sans-Serif" font-size="10.00">NumberFormatFactory.hpp</text>
</a>
</g>
</g>
<!-- Node3&#45;&gt;Node6 -->
<g id="edge5" class="edge">
<title>Node3&#45;&gt;Node6</title>
<path fill="none" stroke="midnightblue" d="M448.5,-258.11C448.5,-249.15 448.5,-239.32 448.5,-231.58"/>
<polygon fill="midnightblue" stroke="midnightblue" points="445,-258.4 448.5,-268.4 452,-258.4 445,-258.4"/>
</g>
<!-- Node7 -->
<g id="node7" class="node">
<title>Node7</title>
<g id="a_node7"><a xlink:href="XalanCompiledStylesheetDefault_8hpp.html" target="_top" xlink:title=" ">
<polygon fill="none" stroke="black" points="541,-201.5 541,-231.5 744,-231.5 744,-201.5 541,-201.5"/>
<text text-anchor="start" x="549" y="-219.5" font-family="Helvetica,sans-Serif" font-size="10.00">xalanc/XalanTransformer</text>
<text text-anchor="middle" x="642.5" y="-208.5" font-family="Helvetica,sans-Serif" font-size="10.00">/XalanCompiledStylesheetDefault.hpp</text>
</a>
</g>
</g>
<!-- Node3&#45;&gt;Node7 -->
<g id="edge6" class="edge">
<title>Node3&#45;&gt;Node7</title>
<path fill="none" stroke="midnightblue" d="M500.46,-265.09C531.77,-254.6 571.14,-241.41 600.49,-231.58"/>
<polygon fill="midnightblue" stroke="midnightblue" points="498.97,-261.9 490.6,-268.4 501.19,-268.54 498.97,-261.9"/>
</g>
<!-- Node8&#45;&gt;Node3 -->
<g id="edge8" class="edge">
<title>Node8&#45;&gt;Node3</title>
<path fill="none" stroke="midnightblue" d="M530.23,-330.3C512.08,-320.12 490.18,-307.85 473.62,-298.58"/>
<polygon fill="midnightblue" stroke="midnightblue" points="528.9,-333.56 539.33,-335.4 532.32,-327.45 528.9,-333.56"/>
</g>
<!-- Node11 -->
<g id="node11" class="node">
<title>Node11</title>
<g id="a_node11"><a xlink:href="XNodeSetResultTreeFragProxy_8hpp.html" target="_top" xlink:title=" ">
<polygon fill="none" stroke="black" points="926,-335.5 926,-365.5 1087,-365.5 1087,-335.5 926,-335.5"/>
<text text-anchor="start" x="934" y="-353.5" font-family="Helvetica,sans-Serif" font-size="10.00">xalanc/XPath/XNodeSetResult</text>
<text text-anchor="middle" x="1006.5" y="-342.5" font-family="Helvetica,sans-Serif" font-size="10.00">TreeFragProxy.hpp</text>
</a>
</g>
</g>
<!-- Node10&#45;&gt;Node11 -->
<g id="edge11" class="edge">
<title>Node10&#45;&gt;Node11</title>
<path fill="none" stroke="midnightblue" d="M1006.5,-397.73C1006.5,-387.07 1006.5,-374.91 1006.5,-365.75"/>
<polygon fill="midnightblue" stroke="midnightblue" points="1003,-397.73 1006.5,-407.73 1010,-397.73 1003,-397.73"/>
</g>
<!-- Node19 -->
<g id="node19" class="node">
<title>Node19</title>
<g id="a_node19"><a xlink:href="XObjectResultTreeFragProxy_8hpp.html" target="_top" xlink:title=" ">
<polygon fill="none" stroke="black" points="1289,-335.5 1289,-365.5 1440,-365.5 1440,-335.5 1289,-335.5"/>
<text text-anchor="start" x="1297" y="-353.5" font-family="Helvetica,sans-Serif" font-size="10.00">xalanc/XPath/XObjectResult</text>
<text text-anchor="middle" x="1364.5" y="-342.5" font-family="Helvetica,sans-Serif" font-size="10.00">TreeFragProxy.hpp</text>
</a>
</g>
</g>
<!-- Node10&#45;&gt;Node19 -->
<g id="edge20" class="edge">
<title>Node10&#45;&gt;Node19</title>
<path fill="none" stroke="midnightblue" d="M1087.77,-406C1149.62,-393.82 1233.92,-377.21 1293.17,-365.55"/>
<polygon fill="midnightblue" stroke="midnightblue" points="1086.79,-402.62 1077.66,-407.99 1088.15,-409.49 1086.79,-402.62"/>
</g>
<!-- Node12 -->
<g id="node12" class="node">
<title>Node12</title>
<g id="a_node12"><a xlink:href="XNodeSetBase_8hpp.html" target="_top" xlink:title=" ">
<polygon fill="none" stroke="black" points="918.5,-274 918.5,-293 1094.5,-293 1094.5,-274 918.5,-274"/>
<text text-anchor="middle" x="1006.5" y="-281" font-family="Helvetica,sans-Serif" font-size="10.00">xalanc/XPath/XNodeSetBase.hpp</text>
</a>
</g>
</g>
<!-- Node11&#45;&gt;Node12 -->
<g id="edge12" class="edge">
<title>Node11&#45;&gt;Node12</title>
<path fill="none" stroke="midnightblue" d="M1006.5,-325.25C1006.5,-314.02 1006.5,-301.38 1006.5,-293.19"/>
<polygon fill="midnightblue" stroke="midnightblue" points="1003,-325.4 1006.5,-335.4 1010,-325.4 1003,-325.4"/>
</g>
<!-- Node13 -->
<g id="node13" class="node">
<title>Node13</title>
<g id="a_node13"><a xlink:href="XNodeSet_8hpp.html" target="_top" xlink:title=" ">
<polygon fill="none" stroke="black" points="762.5,-207 762.5,-226 914.5,-226 914.5,-207 762.5,-207"/>
<text text-anchor="middle" x="838.5" y="-214" font-family="Helvetica,sans-Serif" font-size="10.00">xalanc/XPath/XNodeSet.hpp</text>
</a>
</g>
</g>
<!-- Node12&#45;&gt;Node13 -->
<g id="edge13" class="edge">
<title>Node12&#45;&gt;Node13</title>
<path fill="none" stroke="midnightblue" d="M974.46,-270.1C941.11,-257.2 889.75,-237.33 860.63,-226.06"/>
<polygon fill="midnightblue" stroke="midnightblue" points="973.6,-273.52 984.19,-273.87 976.13,-267 973.6,-273.52"/>
</g>
<!-- Node17 -->
<g id="node17" class="node">
<title>Node17</title>
<g id="a_node17"><a xlink:href="XNodeSetNodeProxy_8hpp.html" target="_top" xlink:title=" ">
<polygon fill="none" stroke="black" points="932.5,-201.5 932.5,-231.5 1088.5,-231.5 1088.5,-201.5 932.5,-201.5"/>
<text text-anchor="start" x="940.5" y="-219.5" font-family="Helvetica,sans-Serif" font-size="10.00">xalanc/XPath/XNodeSetNode</text>
<text text-anchor="middle" x="1010.5" y="-208.5" font-family="Helvetica,sans-Serif" font-size="10.00">Proxy.hpp</text>
</a>
</g>
</g>
<!-- Node12&#45;&gt;Node17 -->
<g id="edge17" class="edge">
<title>Node12&#45;&gt;Node17</title>
<path fill="none" stroke="midnightblue" d="M1007.65,-263.74C1008.29,-253.49 1009.05,-241 1009.63,-231.59"/>
<polygon fill="midnightblue" stroke="midnightblue" points="1004.16,-263.54 1007.04,-273.73 1011.15,-263.97 1004.16,-263.54"/>
</g>
<!-- Node14 -->
<g id="node14" class="node">
<title>Node14</title>
<g id="a_node14"><a xlink:href="XNodeSetAllocator_8hpp.html" target="_top" xlink:title=" ">
<polygon fill="none" stroke="black" points="720.5,-140 720.5,-159 914.5,-159 914.5,-140 720.5,-140"/>
<text text-anchor="middle" x="817.5" y="-147" font-family="Helvetica,sans-Serif" font-size="10.00">xalanc/XPath/XNodeSetAllocator.hpp</text>
</a>
</g>
</g>
<!-- Node13&#45;&gt;Node14 -->
<g id="edge14" class="edge">
<title>Node13&#45;&gt;Node14</title>
<path fill="none" stroke="midnightblue" d="M832.5,-196.91C828.48,-184.49 823.39,-168.72 820.29,-159.13"/>
<polygon fill="midnightblue" stroke="midnightblue" points="829.26,-198.29 835.67,-206.73 835.92,-196.14 829.26,-198.29"/>
</g>
<!-- Node15 -->
<g id="node15" class="node">
<title>Node15</title>
<g id="a_node15"><a xlink:href="XObjectFactoryDefault_8hpp.html" target="_top" xlink:title=" ">
<polygon fill="none" stroke="black" points="1307,-67.5 1307,-97.5 1462,-97.5 1462,-67.5 1307,-67.5"/>
<text text-anchor="start" x="1315" y="-85.5" font-family="Helvetica,sans-Serif" font-size="10.00">xalanc/XPath/XObjectFactory</text>
<text text-anchor="middle" x="1384.5" y="-74.5" font-family="Helvetica,sans-Serif" font-size="10.00">Default.hpp</text>
</a>
</g>
</g>
<!-- Node14&#45;&gt;Node15 -->
<g id="edge15" class="edge">
<title>Node14&#45;&gt;Node15</title>
<path fill="none" stroke="midnightblue" d="M887.66,-138.63C899.61,-137.03 911.91,-135.43 923.5,-134 1058.15,-117.42 1215.26,-100.79 1306.94,-91.35"/>
<polygon fill="midnightblue" stroke="midnightblue" points="887.17,-135.17 877.72,-139.98 888.1,-142.1 887.17,-135.17"/>
</g>
<!-- Node16 -->
<g id="node16" class="node">
<title>Node16</title>
<g id="a_node16"><a xlink:href="XalanTransformer_8hpp.html" target="_top" xlink:title=" ">
<polygon fill="none" stroke="black" points="1315.5,-0.5 1315.5,-30.5 1453.5,-30.5 1453.5,-0.5 1315.5,-0.5"/>
<text text-anchor="start" x="1323.5" y="-18.5" font-family="Helvetica,sans-Serif" font-size="10.00">xalanc/XalanTransformer</text>
<text text-anchor="middle" x="1384.5" y="-7.5" font-family="Helvetica,sans-Serif" font-size="10.00">/XalanTransformer.hpp</text>
</a>
</g>
</g>
<!-- Node15&#45;&gt;Node16 -->
<g id="edge16" class="edge">
<title>Node15&#45;&gt;Node16</title>
<path fill="none" stroke="midnightblue" d="M1384.5,-57.11C1384.5,-48.15 1384.5,-38.32 1384.5,-30.58"/>
<polygon fill="midnightblue" stroke="midnightblue" points="1381,-57.4 1384.5,-67.4 1388,-57.4 1381,-57.4"/>
</g>
<!-- Node18 -->
<g id="node18" class="node">
<title>Node18</title>
<g id="a_node18"><a xlink:href="XNodeSetNodeProxyAllocator_8hpp.html" target="_top" xlink:title=" ">
<polygon fill="none" stroke="black" points="932.5,-134.5 932.5,-164.5 1088.5,-164.5 1088.5,-134.5 932.5,-134.5"/>
<text text-anchor="start" x="940.5" y="-152.5" font-family="Helvetica,sans-Serif" font-size="10.00">xalanc/XPath/XNodeSetNode</text>
<text text-anchor="middle" x="1010.5" y="-141.5" font-family="Helvetica,sans-Serif" font-size="10.00">ProxyAllocator.hpp</text>
</a>
</g>
</g>
<!-- Node17&#45;&gt;Node18 -->
<g id="edge18" class="edge">
<title>Node17&#45;&gt;Node18</title>
<path fill="none" stroke="midnightblue" d="M1010.5,-191.11C1010.5,-182.15 1010.5,-172.32 1010.5,-164.58"/>
<polygon fill="midnightblue" stroke="midnightblue" points="1007,-191.4 1010.5,-201.4 1014,-191.4 1007,-191.4"/>
</g>
<!-- Node18&#45;&gt;Node15 -->
<g id="edge19" class="edge">
<title>Node18&#45;&gt;Node15</title>
<path fill="none" stroke="midnightblue" d="M1098.85,-133.14C1162.03,-122.17 1246.24,-107.53 1306.84,-97"/>
<polygon fill="midnightblue" stroke="midnightblue" points="1098.16,-129.71 1088.9,-134.87 1099.35,-136.61 1098.16,-129.71"/>
</g>
<!-- Node20 -->
<g id="node20" class="node">
<title>Node20</title>
<g id="a_node20"><a xlink:href="XStringBase_8hpp.html" target="_top" xlink:title=" ">
<polygon fill="none" stroke="black" points="1374,-274 1374,-293 1537,-293 1537,-274 1374,-274"/>
<text text-anchor="middle" x="1455.5" y="-281" font-family="Helvetica,sans-Serif" font-size="10.00">xalanc/XPath/XStringBase.hpp</text>
</a>
</g>
</g>
<!-- Node19&#45;&gt;Node20 -->
<g id="edge21" class="edge">
<title>Node19&#45;&gt;Node20</title>
<path fill="none" stroke="midnightblue" d="M1392.77,-329.31C1409.86,-317.1 1430.75,-302.18 1443.59,-293.01"/>
<polygon fill="midnightblue" stroke="midnightblue" points="1390.35,-326.74 1384.25,-335.4 1394.42,-332.43 1390.35,-326.74"/>
</g>
<!-- Node21 -->
<g id="node21" class="node">
<title>Node21</title>
<g id="a_node21"><a xlink:href="XString_8hpp.html" target="_top" xlink:title=" ">
<polygon fill="none" stroke="black" points="1113,-207 1113,-226 1252,-226 1252,-207 1113,-207"/>
<text text-anchor="middle" x="1182.5" y="-214" font-family="Helvetica,sans-Serif" font-size="10.00">xalanc/XPath/XString.hpp</text>
</a>
</g>
</g>
<!-- Node20&#45;&gt;Node21 -->
<g id="edge22" class="edge">
<title>Node20&#45;&gt;Node21</title>
<path fill="none" stroke="midnightblue" d="M1409.57,-271.56C1355.75,-258.75 1267.7,-237.78 1218.55,-226.08"/>
<polygon fill="midnightblue" stroke="midnightblue" points="1408.99,-275.02 1419.53,-273.94 1410.61,-268.21 1408.99,-275.02"/>
</g>
<!-- Node23 -->
<g id="node23" class="node">
<title>Node23</title>
<g id="a_node23"><a xlink:href="XStringAdapter_8hpp.html" target="_top" xlink:title=" ">
<polygon fill="none" stroke="black" points="1270.5,-207 1270.5,-226 1446.5,-226 1446.5,-207 1270.5,-207"/>
<text text-anchor="middle" x="1358.5" y="-214" font-family="Helvetica,sans-Serif" font-size="10.00">xalanc/XPath/XStringAdapter.hpp</text>
</a>
</g>
</g>
<!-- Node20&#45;&gt;Node23 -->
<g id="edge25" class="edge">
<title>Node20&#45;&gt;Node23</title>
<path fill="none" stroke="midnightblue" d="M1434,-268.09C1414.81,-255.24 1387.35,-236.83 1371.37,-226.13"/>
<polygon fill="midnightblue" stroke="midnightblue" points="1432.16,-271.07 1442.42,-273.73 1436.06,-265.26 1432.16,-271.07"/>
</g>
<!-- Node25 -->
<g id="node25" class="node">
<title>Node25</title>
<g id="a_node25"><a xlink:href="XStringCached_8hpp.html" target="_top" xlink:title=" ">
<polygon fill="none" stroke="black" points="1465,-207 1465,-226 1640,-226 1640,-207 1465,-207"/>
<text text-anchor="middle" x="1552.5" y="-214" font-family="Helvetica,sans-Serif" font-size="10.00">xalanc/XPath/XStringCached.hpp</text>
</a>
</g>
</g>
<!-- Node20&#45;&gt;Node25 -->
<g id="edge28" class="edge">
<title>Node20&#45;&gt;Node25</title>
<path fill="none" stroke="midnightblue" d="M1477,-268.09C1496.19,-255.24 1523.65,-236.83 1539.63,-226.13"/>
<polygon fill="midnightblue" stroke="midnightblue" points="1474.94,-265.26 1468.58,-273.73 1478.84,-271.07 1474.94,-265.26"/>
</g>
<!-- Node27 -->
<g id="node27" class="node">
<title>Node27</title>
<g id="a_node27"><a xlink:href="XStringReference_8hpp.html" target="_top" xlink:title=" ">
<polygon fill="none" stroke="black" points="1658.5,-207 1658.5,-226 1846.5,-226 1846.5,-207 1658.5,-207"/>
<text text-anchor="middle" x="1752.5" y="-214" font-family="Helvetica,sans-Serif" font-size="10.00">xalanc/XPath/XStringReference.hpp</text>
</a>
</g>
</g>
<!-- Node20&#45;&gt;Node27 -->
<g id="edge31" class="edge">
<title>Node20&#45;&gt;Node27</title>
<path fill="none" stroke="midnightblue" d="M1504.74,-271.72C1563.22,-258.92 1659.59,-237.83 1713.28,-226.08"/>
<polygon fill="midnightblue" stroke="midnightblue" points="1503.65,-268.38 1494.63,-273.94 1505.15,-275.22 1503.65,-268.38"/>
</g>
<!-- Node29 -->
<g id="node29" class="node">
<title>Node29</title>
<g id="a_node29"><a xlink:href="XTokenStringAdapter_8hpp.html" target="_top" xlink:title=" ">
<polygon fill="none" stroke="black" points="1864.5,-201.5 1864.5,-231.5 2010.5,-231.5 2010.5,-201.5 1864.5,-201.5"/>
<text text-anchor="start" x="1872.5" y="-219.5" font-family="Helvetica,sans-Serif" font-size="10.00">xalanc/XPath/XTokenString</text>
<text text-anchor="middle" x="1937.5" y="-208.5" font-family="Helvetica,sans-Serif" font-size="10.00">Adapter.hpp</text>
</a>
</g>
</g>
<!-- Node20&#45;&gt;Node29 -->
<g id="edge34" class="edge">
<title>Node20&#45;&gt;Node29</title>
<path fill="none" stroke="midnightblue" d="M1542.13,-272.81C1623.27,-263.45 1747.82,-248.31 1855.5,-232 1858.36,-231.57 1861.27,-231.11 1864.21,-230.64"/>
<polygon fill="midnightblue" stroke="midnightblue" points="1541.5,-269.36 1531.97,-273.98 1542.3,-276.32 1541.5,-269.36"/>
</g>
<!-- Node22 -->
<g id="node22" class="node">
<title>Node22</title>
<g id="a_node22"><a xlink:href="XStringAllocator_8hpp.html" target="_top" xlink:title=" ">
<polygon fill="none" stroke="black" points="1106.5,-140 1106.5,-159 1288.5,-159 1288.5,-140 1106.5,-140"/>
<text text-anchor="middle" x="1197.5" y="-147" font-family="Helvetica,sans-Serif" font-size="10.00">xalanc/XPath/XStringAllocator.hpp</text>
</a>
</g>
</g>
<!-- Node21&#45;&gt;Node22 -->
<g id="edge23" class="edge">
<title>Node21&#45;&gt;Node22</title>
<path fill="none" stroke="midnightblue" d="M1186.79,-196.91C1189.66,-184.49 1193.3,-168.72 1195.51,-159.13"/>
<polygon fill="midnightblue" stroke="midnightblue" points="1183.36,-196.2 1184.52,-206.73 1190.18,-197.78 1183.36,-196.2"/>
</g>
<!-- Node22&#45;&gt;Node15 -->
<g id="edge24" class="edge">
<title>Node22&#45;&gt;Node15</title>
<path fill="none" stroke="midnightblue" d="M1232.05,-136.49C1263.75,-125.47 1310.73,-109.14 1344.14,-97.53"/>
<polygon fill="midnightblue" stroke="midnightblue" points="1230.63,-133.28 1222.33,-139.87 1232.93,-139.89 1230.63,-133.28"/>
</g>
<!-- Node24 -->
<g id="node24" class="node">
<title>Node24</title>
<g id="a_node24"><a xlink:href="XStringAdapterAllocator_8hpp.html" target="_top" xlink:title=" ">
<polygon fill="none" stroke="black" points="1306.5,-134.5 1306.5,-164.5 1462.5,-164.5 1462.5,-134.5 1306.5,-134.5"/>
<text text-anchor="start" x="1314.5" y="-152.5" font-family="Helvetica,sans-Serif" font-size="10.00">xalanc/XPath/XStringAdapter</text>
<text text-anchor="middle" x="1384.5" y="-141.5" font-family="Helvetica,sans-Serif" font-size="10.00">Allocator.hpp</text>
</a>
</g>
</g>
<!-- Node23&#45;&gt;Node24 -->
<g id="edge26" class="edge">
<title>Node23&#45;&gt;Node24</title>
<path fill="none" stroke="midnightblue" d="M1365.74,-197.39C1369.89,-187.02 1375.02,-174.2 1378.86,-164.59"/>
<polygon fill="midnightblue" stroke="midnightblue" points="1362.47,-196.15 1362.01,-206.73 1368.97,-198.75 1362.47,-196.15"/>
</g>
<!-- Node24&#45;&gt;Node15 -->
<g id="edge27" class="edge">
<title>Node24&#45;&gt;Node15</title>
<path fill="none" stroke="midnightblue" d="M1384.5,-124.11C1384.5,-115.15 1384.5,-105.32 1384.5,-97.58"/>
<polygon fill="midnightblue" stroke="midnightblue" points="1381,-124.4 1384.5,-134.4 1388,-124.4 1381,-124.4"/>
</g>
<!-- Node26 -->
<g id="node26" class="node">
<title>Node26</title>
<g id="a_node26"><a xlink:href="XStringCachedAllocator_8hpp.html" target="_top" xlink:title=" ">
<polygon fill="none" stroke="black" points="1480.5,-134.5 1480.5,-164.5 1634.5,-164.5 1634.5,-134.5 1480.5,-134.5"/>
<text text-anchor="start" x="1488.5" y="-152.5" font-family="Helvetica,sans-Serif" font-size="10.00">xalanc/XPath/XStringCached</text>
<text text-anchor="middle" x="1557.5" y="-141.5" font-family="Helvetica,sans-Serif" font-size="10.00">Allocator.hpp</text>
</a>
</g>
</g>
<!-- Node25&#45;&gt;Node26 -->
<g id="edge29" class="edge">
<title>Node25&#45;&gt;Node26</title>
<path fill="none" stroke="midnightblue" d="M1553.94,-196.74C1554.73,-186.49 1555.69,-174 1556.42,-164.59"/>
<polygon fill="midnightblue" stroke="midnightblue" points="1550.45,-196.49 1553.17,-206.73 1557.43,-197.03 1550.45,-196.49"/>
</g>
<!-- Node26&#45;&gt;Node15 -->
<g id="edge30" class="edge">
<title>Node26&#45;&gt;Node15</title>
<path fill="none" stroke="midnightblue" d="M1510.44,-130.82C1482.63,-120.37 1447.91,-107.32 1421.97,-97.58"/>
<polygon fill="midnightblue" stroke="midnightblue" points="1509.37,-134.16 1519.96,-134.4 1511.83,-127.6 1509.37,-134.16"/>
</g>
<!-- Node28 -->
<g id="node28" class="node">
<title>Node28</title>
<g id="a_node28"><a xlink:href="XStringReferenceAllocator_8hpp.html" target="_top" xlink:title=" ">
<polygon fill="none" stroke="black" points="1663,-134.5 1663,-164.5 1830,-164.5 1830,-134.5 1663,-134.5"/>
<text text-anchor="start" x="1671" y="-152.5" font-family="Helvetica,sans-Serif" font-size="10.00">xalanc/XPath/XStringReference</text>
<text text-anchor="middle" x="1746.5" y="-141.5" font-family="Helvetica,sans-Serif" font-size="10.00">Allocator.hpp</text>
</a>
</g>
</g>
<!-- Node27&#45;&gt;Node28 -->
<g id="edge32" class="edge">
<title>Node27&#45;&gt;Node28</title>
<path fill="none" stroke="midnightblue" d="M1750.77,-196.74C1749.82,-186.49 1748.67,-174 1747.8,-164.59"/>
<polygon fill="midnightblue" stroke="midnightblue" points="1747.29,-197.1 1751.69,-206.73 1754.26,-196.45 1747.29,-197.1"/>
</g>
<!-- Node28&#45;&gt;Node15 -->
<g id="edge33" class="edge">
<title>Node28&#45;&gt;Node15</title>
<path fill="none" stroke="midnightblue" d="M1658.19,-132.64C1598.24,-121.88 1519.71,-107.78 1462.15,-97.44"/>
<polygon fill="midnightblue" stroke="midnightblue" points="1657.94,-136.15 1668.4,-134.48 1659.17,-129.26 1657.94,-136.15"/>
</g>
<!-- Node30 -->
<g id="node30" class="node">
<title>Node30</title>
<g id="a_node30"><a xlink:href="XTokenStringAdapterAllocator_8hpp.html" target="_top" xlink:title=" ">
<polygon fill="none" stroke="black" points="1858.5,-134.5 1858.5,-164.5 2004.5,-164.5 2004.5,-134.5 1858.5,-134.5"/>
<text text-anchor="start" x="1866.5" y="-152.5" font-family="Helvetica,sans-Serif" font-size="10.00">xalanc/XPath/XTokenString</text>
<text text-anchor="middle" x="1931.5" y="-141.5" font-family="Helvetica,sans-Serif" font-size="10.00">AdapterAllocator.hpp</text>
</a>
</g>
</g>
<!-- Node29&#45;&gt;Node30 -->
<g id="edge35" class="edge">
<title>Node29&#45;&gt;Node30</title>
<path fill="none" stroke="midnightblue" d="M1935.28,-191.4C1934.44,-182.37 1933.52,-172.41 1932.8,-164.58"/>
<polygon fill="midnightblue" stroke="midnightblue" points="1931.79,-191.76 1936.2,-201.4 1938.76,-191.12 1931.79,-191.76"/>
</g>
<!-- Node30&#45;&gt;Node15 -->
<g id="edge36" class="edge">
<title>Node30&#45;&gt;Node15</title>
<path fill="none" stroke="midnightblue" d="M1848.19,-135.2C1845.26,-134.78 1842.35,-134.38 1839.5,-134 1707.36,-116.26 1553.03,-100.09 1462.32,-91.04"/>
<polygon fill="midnightblue" stroke="midnightblue" points="1847.83,-138.68 1858.23,-136.64 1848.83,-131.75 1847.83,-138.68"/>
</g>
</g>
</svg>
        <g id="navigator" transform="translate(0 0)" fill="#404254">
                <rect fill="#f2f5e9" fill-opacity="0.5" stroke="#606060" stroke-width=".5" x="0" y="0" width="60" height="60"/>
                <use id="zoomplus" xlink:href="#zoomPlus" x="17" y="9" onmousedown="handleZoom(evt,'in')"/>
                <use id="zoomminus" xlink:href="#zoomMin" x="42" y="9" onmousedown="handleZoom(evt,'out')"/>
                <use id="reset" xlink:href="#resetDef" x="30" y="36" onmousedown="handleReset()"/>
                <g id="arrowUp" xlink:href="#dirArrow" transform="translate(30 24)" onmousedown="handlePan(0,-1)">
                  <use xlink:href="#rim" fill="#404040">
                        <set attributeName="fill" to="#808080" begin="arrowUp.mouseover" end="arrowUp.mouseout"/>
                  </use>
                  <path fill="none" stroke="white" stroke-width="1.5" d="M0,-3.0v7 M-2.5,-0.5L0,-3.0L2.5,-0.5"/>
                </g>
                <g id="arrowRight" xlink:href="#dirArrow" transform="rotate(90) translate(36 -43)" onmousedown="handlePan(1,0)">
                  <use xlink:href="#rim" fill="#404040">
                        <set attributeName="fill" to="#808080" begin="arrowRight.mouseover" end="arrowRight.mouseout"/>
                  </use>
                  <path fill="none" stroke="white" stroke-width="1.5" d="M0,-3.0v7 M-2.5,-0.5L0,-3.0L2.5,-0.5"/>
                </g>
                <g id="arrowDown" xlink:href="#dirArrow" transform="rotate(180) translate(-30 -48)" onmousedown="handlePan(0,1)">
                  <use xlink:href="#rim" fill="#404040">
                        <set attributeName="fill" to="#808080" begin="arrowDown.mouseover" end="arrowDown.mouseout"/>
                  </use>
                  <path fill="none" stroke="white" stroke-width="1.5" d="M0,-3.0v7 M-2.5,-0.5L0,-3.0L2.5,-0.5"/>
                </g>
                <g id="arrowLeft" xlink:href="#dirArrow" transform="rotate(270) translate(-36 17)" onmousedown="handlePan(-1,0)">
                  <use xlink:href="#rim" fill="#404040">
                        <set attributeName="fill" to="#808080" begin="arrowLeft.mouseover" end="arrowLeft.mouseout"/>
                  </use>
                  <path fill="none" stroke="white" stroke-width="1.5" d="M0,-3.0v7 M-2.5,-0.5L0,-3.0L2.5,-0.5"/>
                </g>
        </g>
        <svg viewBox="0 0 15 15" width="100%" height="30px" preserveAspectRatio="xMaxYMin meet">
         <g id="arrow_out" transform="scale(0.3 0.3)">
          <a xlink:href="XalanDocumentFragment_8hpp__dep__incl_org.svg" target="_base">
           <rect id="button" ry="5" rx="5" y="6" x="6" height="38" width="38"
                fill="#f2f5e9" fill-opacity="0.5" stroke="#606060" stroke-width="1.0"/>
           <path id="arrow"
             d="M 11.500037,31.436501 C 11.940474,20.09759 22.043105,11.32322 32.158766,21.979434 L 37.068811,17.246167 C 37.068811,17.246167 37.088388,32 37.088388,32 L 22.160133,31.978069 C 22.160133,31.978069 26.997745,27.140456 26.997745,27.140456 C 18.528582,18.264221 13.291696,25.230495 11.500037,31.436501 z"
             style="fill:#404040;"/>
          </a>
         </g>
        </svg>
</svg>
