<?xml version="1.0" encoding="UTF-8" standalone="no"?>
<!DOCTYPE svg PUBLIC "-//W3C//DTD SVG 1.1//EN"
 "http://www.w3.org/Graphics/SVG/1.1/DTD/svg11.dtd">
<!-- Generated by graphviz version 2.38.0 (20140413.2041)
 -->
<!-- Title: xalanc/PlatformSupport/XalanInMemoryMessageLoader.hpp Pages: 1 -->
<!--zoomable 553 -->
<svg id="main" version="1.1" xmlns="http://www.w3.org/2000/svg" xmlns:xlink="http://www.w3.org/1999/xlink" xml:space="preserve" onload="init(evt)">
<style type="text/css"><![CDATA[
.edge:hover path { stroke: red; }
.edge:hover polygon { stroke: red; fill: red; }
]]></style>
<script type="text/javascript"><![CDATA[
var edges = document.getElementsByTagName('g');
if (edges && edges.length) {
  for (var i=0;i<edges.length;i++) {
    if (edges[i].id.substr(0,4)=='edge') {
      edges[i].setAttribute('class','edge');
    }
  }
}
]]></script>
        <defs>
                <circle id="rim" cx="0" cy="0" r="7"/>
                <circle id="rim2" cx="0" cy="0" r="3.5"/>
                <g id="zoomPlus">
                        <use xlink:href="#rim" fill="#404040">
                                <set attributeName="fill" to="#808080" begin="zoomplus.mouseover" end="zoomplus.mouseout"/>
                        </use>
                        <path d="M-4,0h8M0,-4v8" fill="none" stroke="white" stroke-width="1.5" pointer-events="none"/>
                </g>
                <g id="zoomMin">
                        <use xlink:href="#rim" fill="#404040">
                                <set attributeName="fill" to="#808080" begin="zoomminus.mouseover" end="zoomminus.mouseout"/>
                        </use>
                        <path d="M-4,0h8" fill="none" stroke="white" stroke-width="1.5" pointer-events="none"/>
                </g>
                <g id="dirArrow">
                        <path fill="none" stroke="white" stroke-width="1.5" d="M0,-3.0v7 M-2.5,-0.5L0,-3.0L2.5,-0.5"/>
                </g>
               <g id="resetDef">
                       <use xlink:href="#rim2" fill="#404040">
                               <set attributeName="fill" to="#808080" begin="reset.mouseover" end="reset.mouseout"/>
                       </use>
               </g>
        </defs>

<script type="text/javascript">
var viewWidth = 1180;
var viewHeight = 553;
var sectionId = 'dynsection-0';
</script>
<script xlink:href="svgpan.js"/>
<svg id="graph" class="graph">
<g id="viewport">
<title>xalanc/PlatformSupport/XalanInMemoryMessageLoader.hpp</title>
<!-- Node1 -->
<g id="node1" class="node"><title>Node1</title>
<g id="a_node1"><a xlink:title=" ">
<polygon fill="#bfbfbf" stroke="black" points="836.5,-514.5 836.5,-544.5 1009.5,-544.5 1009.5,-514.5 836.5,-514.5"/>
<text text-anchor="start" x="844.5" y="-532.5" font-family="Helvetica,sans-Serif" font-size="10.00">xalanc/PlatformSupport</text>
<text text-anchor="middle" x="923" y="-521.5" font-family="Helvetica,sans-Serif" font-size="10.00">/XalanInMemoryMessageLoader.hpp</text>
</a>
</g>
</g>
<!-- Node2 -->
<g id="node2" class="node"><title>Node2</title>
<g id="a_node2"><a xlink:href="PlatformSupportDefinitions_8hpp.html" target="_top" xlink:title=" ">
<polygon fill="none" stroke="black" points="1015.5,-201.5 1015.5,-231.5 1168.5,-231.5 1168.5,-201.5 1015.5,-201.5"/>
<text text-anchor="start" x="1023.5" y="-219.5" font-family="Helvetica,sans-Serif" font-size="10.00">xalanc/PlatformSupport</text>
<text text-anchor="middle" x="1092" y="-208.5" font-family="Helvetica,sans-Serif" font-size="10.00">/PlatformSupportDefinitions.hpp</text>
</a>
</g>
</g>
<!-- Node1&#45;&gt;Node2 -->
<g id="edge1" class="edge"><title>Node1&#45;&gt;Node2</title>
<path fill="none" stroke="midnightblue" d="M1009.74,-519.88C1081.6,-507.381 1172,-476.793 1172,-402 1172,-402 1172,-402 1172,-344 1172,-301.56 1139.44,-261.784 1115.86,-238.546"/>
<polygon fill="midnightblue" stroke="midnightblue" points="1118.23,-235.967 1108.58,-231.6 1113.4,-241.034 1118.23,-235.967"/>
</g>
<!-- Node7 -->
<g id="node7" class="node"><title>Node7</title>
<g id="a_node7"><a xlink:href="XalanDOMString_8hpp.html" target="_top" xlink:title=" ">
<polygon fill="none" stroke="black" points="552.5,-391.5 552.5,-410.5 739.5,-410.5 739.5,-391.5 552.5,-391.5"/>
<text text-anchor="middle" x="646" y="-398.5" font-family="Helvetica,sans-Serif" font-size="10.00">xalanc/XalanDOM/XalanDOMString.hpp</text>
</a>
</g>
</g>
<!-- Node1&#45;&gt;Node7 -->
<g id="edge6" class="edge"><title>Node1&#45;&gt;Node7</title>
<path fill="none" stroke="midnightblue" d="M874.396,-514.469C845.296,-505.417 807.887,-492.623 776,-478 735.999,-459.656 692.397,-432.577 667.223,-416.181"/>
<polygon fill="midnightblue" stroke="midnightblue" points="669.102,-413.228 658.823,-410.66 665.257,-419.078 669.102,-413.228"/>
</g>
<!-- Node24 -->
<g id="node24" class="node"><title>Node24</title>
<g id="a_node24"><a xlink:title=" ">
<polygon fill="none" stroke="#bfbfbf" points="935,-453 935,-472 1057,-472 1057,-453 935,-453"/>
<text text-anchor="middle" x="996" y="-460" font-family="Helvetica,sans-Serif" font-size="10.00">xercesc/util/XMLUni.hpp</text>
</a>
</g>
</g>
<!-- Node1&#45;&gt;Node24 -->
<g id="edge47" class="edge"><title>Node1&#45;&gt;Node24</title>
<path fill="none" stroke="midnightblue" d="M938.84,-514.396C950.56,-503.96 966.518,-489.751 978.595,-478.998"/>
<polygon fill="midnightblue" stroke="midnightblue" points="981.094,-481.459 986.235,-472.195 976.439,-476.231 981.094,-481.459"/>
</g>
<!-- Node25 -->
<g id="node25" class="node"><title>Node25</title>
<g id="a_node25"><a xlink:href="XalanMessageLoader_8hpp.html" target="_top" xlink:title=" ">
<polygon fill="none" stroke="black" points="785.5,-447.5 785.5,-477.5 916.5,-477.5 916.5,-447.5 785.5,-447.5"/>
<text text-anchor="start" x="793.5" y="-465.5" font-family="Helvetica,sans-Serif" font-size="10.00">xalanc/PlatformSupport</text>
<text text-anchor="middle" x="851" y="-454.5" font-family="Helvetica,sans-Serif" font-size="10.00">/XalanMessageLoader.hpp</text>
</a>
</g>
</g>
<!-- Node1&#45;&gt;Node25 -->
<g id="edge48" class="edge"><title>Node1&#45;&gt;Node25</title>
<path fill="none" stroke="midnightblue" d="M907.377,-514.396C897.659,-505.623 884.987,-494.183 874.119,-484.371"/>
<polygon fill="midnightblue" stroke="midnightblue" points="876.361,-481.68 866.592,-477.577 871.67,-486.876 876.361,-481.68"/>
</g>
<!-- Node3 -->
<g id="node3" class="node"><title>Node3</title>
<g id="a_node3"><a xlink:href="PlatformDefinitions_8hpp.html" target="_top" xlink:title=" ">
<polygon fill="none" stroke="black" points="740,-73 740,-92 922,-92 922,-73 740,-73"/>
<text text-anchor="middle" x="831" y="-80" font-family="Helvetica,sans-Serif" font-size="10.00">xalanc/Include/PlatformDefinitions.hpp</text>
</a>
</g>
</g>
<!-- Node2&#45;&gt;Node3 -->
<g id="edge2" class="edge"><title>Node2&#45;&gt;Node3</title>
<path fill="none" stroke="midnightblue" d="M1068.97,-201.445C1040.88,-184.543 991.731,-155.735 948,-134 919.57,-119.87 886.25,-105.714 862.455,-95.9998"/>
<polygon fill="midnightblue" stroke="midnightblue" points="863.465,-92.6327 852.882,-92.1219 860.836,-99.1205 863.465,-92.6327"/>
</g>
<!-- Node4 -->
<g id="node4" class="node"><title>Node4</title>
<g id="a_node4"><a xlink:title=" ">
<polygon fill="none" stroke="#bfbfbf" points="629,-0.5 629,-30.5 737,-30.5 737,-0.5 629,-0.5"/>
<text text-anchor="start" x="637" y="-18.5" font-family="Helvetica,sans-Serif" font-size="10.00">xercesc/util/Xerces</text>
<text text-anchor="middle" x="683" y="-7.5" font-family="Helvetica,sans-Serif" font-size="10.00">_autoconf_config.hpp</text>
</a>
</g>
</g>
<!-- Node3&#45;&gt;Node4 -->
<g id="edge3" class="edge"><title>Node3&#45;&gt;Node4</title>
<path fill="none" stroke="midnightblue" d="M811.347,-72.8685C789.235,-63.1572 752.695,-47.1092 724.246,-34.6148"/>
<polygon fill="midnightblue" stroke="midnightblue" points="725.504,-31.3447 714.941,-30.5281 722.689,-37.7539 725.504,-31.3447"/>
</g>
<!-- Node5 -->
<g id="node5" class="node"><title>Node5</title>
<g id="a_node5"><a xlink:title=" ">
<polygon fill="none" stroke="#bfbfbf" points="755.5,-6 755.5,-25 906.5,-25 906.5,-6 755.5,-6"/>
<text text-anchor="middle" x="831" y="-13" font-family="Helvetica,sans-Serif" font-size="10.00">xercesc/util/XercesVersion.hpp</text>
</a>
</g>
</g>
<!-- Node3&#45;&gt;Node5 -->
<g id="edge4" class="edge"><title>Node3&#45;&gt;Node5</title>
<path fill="none" stroke="midnightblue" d="M831,-72.7338C831,-63.1826 831,-47.6183 831,-35.2829"/>
<polygon fill="midnightblue" stroke="midnightblue" points="834.5,-35.1273 831,-25.1273 827.5,-35.1273 834.5,-35.1273"/>
</g>
<!-- Node6 -->
<g id="node6" class="node"><title>Node6</title>
<g id="a_node6"><a xlink:href="XalanVersion_8hpp.html" target="_top" xlink:title=" ">
<polygon fill="none" stroke="black" points="925,-6 925,-25 1017,-25 1017,-6 925,-6"/>
<text text-anchor="middle" x="971" y="-13" font-family="Helvetica,sans-Serif" font-size="10.00">XalanVersion.hpp</text>
</a>
</g>
</g>
<!-- Node3&#45;&gt;Node6 -->
<g id="edge5" class="edge"><title>Node3&#45;&gt;Node6</title>
<path fill="none" stroke="midnightblue" d="M849.591,-72.8685C873.544,-61.7476 915.395,-42.3167 943.154,-29.4286"/>
<polygon fill="midnightblue" stroke="midnightblue" points="944.736,-32.5529 952.332,-25.1672 941.788,-26.2038 944.736,-32.5529"/>
</g>
<!-- Node8 -->
<g id="node8" class="node"><title>Node8</title>
<g id="a_node8"><a xlink:href="XalanDOMDefinitions_8hpp.html" target="_top" xlink:title=" ">
<polygon fill="none" stroke="black" points="885,-274 885,-293 1091,-293 1091,-274 885,-274"/>
<text text-anchor="middle" x="988" y="-281" font-family="Helvetica,sans-Serif" font-size="10.00">xalanc/XalanDOM/XalanDOMDefinitions.hpp</text>
</a>
</g>
</g>
<!-- Node7&#45;&gt;Node8 -->
<g id="edge7" class="edge"><title>Node7&#45;&gt;Node8</title>
<path fill="none" stroke="midnightblue" d="M739.641,-394.777C841.511,-388.116 992.314,-375.007 1010,-355 1023.2,-340.064 1012.25,-317.264 1001.62,-301.663"/>
<polygon fill="midnightblue" stroke="midnightblue" points="1004.31,-299.419 995.578,-293.423 998.667,-303.557 1004.31,-299.419"/>
</g>
<!-- Node9 -->
<g id="node9" class="node"><title>Node9</title>
<g id="a_node9"><a xlink:title=" ">
<polygon fill="none" stroke="#bfbfbf" points="125.5,-73 125.5,-92 174.5,-92 174.5,-73 125.5,-73"/>
<text text-anchor="middle" x="150" y="-80" font-family="Helvetica,sans-Serif" font-size="10.00">cassert</text>
</a>
</g>
</g>
<!-- Node7&#45;&gt;Node9 -->
<g id="edge9" class="edge"><title>Node7&#45;&gt;Node9</title>
<path fill="none" stroke="midnightblue" d="M552.411,-392.826C373.379,-377.838 0,-339.935 0,-284.5 0,-284.5 0,-284.5 0,-215.5 0,-173.462 17.2166,-162.628 48,-134 67.4495,-115.913 94.5945,-102.897 115.992,-94.6136"/>
<polygon fill="midnightblue" stroke="midnightblue" points="117.209,-97.8953 125.371,-91.1395 114.777,-91.3312 117.209,-97.8953"/>
</g>
<!-- Node10 -->
<g id="node10" class="node"><title>Node10</title>
<g id="a_node10"><a xlink:href="STLHelper_8hpp.html" target="_top" xlink:title=" ">
<polygon fill="none" stroke="black" points="399,-335.5 399,-354.5 545,-354.5 545,-335.5 399,-335.5"/>
<text text-anchor="middle" x="472" y="-342.5" font-family="Helvetica,sans-Serif" font-size="10.00">xalanc/Include/STLHelper.hpp</text>
</a>
</g>
</g>
<!-- Node7&#45;&gt;Node10 -->
<g id="edge10" class="edge"><title>Node7&#45;&gt;Node10</title>
<path fill="none" stroke="midnightblue" d="M618.429,-391.444C588.903,-382.28 541.882,-367.688 509.117,-357.519"/>
<polygon fill="midnightblue" stroke="midnightblue" points="510.03,-354.138 499.442,-354.516 507.955,-360.823 510.03,-354.138"/>
</g>
<!-- Node16 -->
<g id="node16" class="node"><title>Node16</title>
<g id="a_node16"><a xlink:href="XalanVector_8hpp.html" target="_top" xlink:title=" ">
<polygon fill="none" stroke="black" points="232,-207 232,-226 384,-226 384,-207 232,-207"/>
<text text-anchor="middle" x="308" y="-214" font-family="Helvetica,sans-Serif" font-size="10.00">xalanc/Include/XalanVector.hpp</text>
</a>
</g>
</g>
<!-- Node7&#45;&gt;Node16 -->
<g id="edge44" class="edge"><title>Node7&#45;&gt;Node16</title>
<path fill="none" stroke="midnightblue" d="M552.298,-391.735C490.397,-384.747 416.054,-372.96 390,-355 347.2,-325.496 323.17,-265.711 313.329,-235.638"/>
<polygon fill="midnightblue" stroke="midnightblue" points="316.648,-234.524 310.336,-226.014 309.963,-236.603 316.648,-234.524"/>
</g>
<!-- Node20 -->
<g id="node20" class="node"><title>Node20</title>
<g id="a_node20"><a xlink:href="XalanMemoryManagement_8hpp.html" target="_top" xlink:title=" ">
<polygon fill="none" stroke="black" points="473,-134.5 473,-164.5 613,-164.5 613,-134.5 473,-134.5"/>
<text text-anchor="start" x="481" y="-152.5" font-family="Helvetica,sans-Serif" font-size="10.00">xalanc/Include/XalanMemory</text>
<text text-anchor="middle" x="543" y="-141.5" font-family="Helvetica,sans-Serif" font-size="10.00">Management.hpp</text>
</a>
</g>
</g>
<!-- Node7&#45;&gt;Node20 -->
<g id="edge43" class="edge"><title>Node7&#45;&gt;Node20</title>
<path fill="none" stroke="midnightblue" d="M642.455,-391.412C628.198,-356.877 574.762,-227.438 552.661,-173.902"/>
<polygon fill="midnightblue" stroke="midnightblue" points="555.848,-172.45 548.797,-164.542 549.378,-175.121 555.848,-172.45"/>
</g>
<!-- Node23 -->
<g id="node23" class="node"><title>Node23</title>
<g id="a_node23"><a xlink:href="XalanDOMException_8hpp.html" target="_top" xlink:title=" ">
<polygon fill="none" stroke="black" points="796.5,-335.5 796.5,-354.5 1001.5,-354.5 1001.5,-335.5 796.5,-335.5"/>
<text text-anchor="middle" x="899" y="-342.5" font-family="Helvetica,sans-Serif" font-size="10.00">xalanc/XalanDOM/XalanDOMException.hpp</text>
</a>
</g>
</g>
<!-- Node7&#45;&gt;Node23 -->
<g id="edge45" class="edge"><title>Node7&#45;&gt;Node23</title>
<path fill="none" stroke="midnightblue" d="M686.089,-391.444C730.316,-382.004 801.539,-366.802 849.285,-356.611"/>
<polygon fill="midnightblue" stroke="midnightblue" points="850.05,-360.027 859.099,-354.516 848.589,-353.181 850.05,-360.027"/>
</g>
<!-- Node8&#45;&gt;Node3 -->
<g id="edge8" class="edge"><title>Node8&#45;&gt;Node3</title>
<path fill="none" stroke="midnightblue" d="M982.602,-273.72C967.918,-250.104 925.492,-183.663 883,-134 872.413,-121.626 859.242,-108.858 848.805,-99.2563"/>
<polygon fill="midnightblue" stroke="midnightblue" points="850.885,-96.4182 841.122,-92.3026 846.187,-101.608 850.885,-96.4182"/>
</g>
<!-- Node10&#45;&gt;Node3 -->
<g id="edge11" class="edge"><title>Node10&#45;&gt;Node3</title>
<path fill="none" stroke="midnightblue" d="M545.217,-340.096C646.207,-333.952 818.02,-320.464 837,-299 886.616,-242.891 854.995,-142.819 838.826,-101.802"/>
<polygon fill="midnightblue" stroke="midnightblue" points="841.96,-100.221 834.93,-92.2949 835.483,-102.875 841.96,-100.221"/>
</g>
<!-- Node11 -->
<g id="node11" class="node"><title>Node11</title>
<g id="a_node11"><a xlink:title=" ">
<polygon fill="none" stroke="#bfbfbf" points="66,-140 66,-159 122,-159 122,-140 66,-140"/>
<text text-anchor="middle" x="94" y="-147" font-family="Helvetica,sans-Serif" font-size="10.00">algorithm</text>
</a>
</g>
</g>
<!-- Node10&#45;&gt;Node11 -->
<g id="edge12" class="edge"><title>Node10&#45;&gt;Node11</title>
<path fill="none" stroke="midnightblue" d="M404.569,-335.461C300.62,-320.706 109.195,-286.658 71,-232 57.4286,-212.579 70.0587,-185.312 81.28,-167.774"/>
<polygon fill="midnightblue" stroke="midnightblue" points="84.4287,-169.37 87.1938,-159.143 78.6542,-165.414 84.4287,-169.37"/>
</g>
<!-- Node12 -->
<g id="node12" class="node"><title>Node12</title>
<g id="a_node12"><a xlink:title=" ">
<polygon fill="none" stroke="#bfbfbf" points="80,-207 80,-226 138,-226 138,-207 80,-207"/>
<text text-anchor="middle" x="109" y="-214" font-family="Helvetica,sans-Serif" font-size="10.00">functional</text>
</a>
</g>
</g>
<!-- Node10&#45;&gt;Node12 -->
<g id="edge13" class="edge"><title>Node10&#45;&gt;Node12</title>
<path fill="none" stroke="midnightblue" d="M447.335,-335.405C384.087,-313.364 216.005,-254.789 143.304,-229.454"/>
<polygon fill="midnightblue" stroke="midnightblue" points="144.294,-226.093 133.699,-226.107 141.99,-232.703 144.294,-226.093"/>
</g>
<!-- Node13 -->
<g id="node13" class="node"><title>Node13</title>
<g id="a_node13"><a xlink:href="XalanMap_8hpp.html" target="_top" xlink:title=" ">
<polygon fill="none" stroke="black" points="400.5,-274 400.5,-293 543.5,-293 543.5,-274 400.5,-274"/>
<text text-anchor="middle" x="472" y="-281" font-family="Helvetica,sans-Serif" font-size="10.00">xalanc/Include/XalanMap.hpp</text>
</a>
</g>
</g>
<!-- Node10&#45;&gt;Node13 -->
<g id="edge14" class="edge"><title>Node10&#45;&gt;Node13</title>
<path fill="none" stroke="midnightblue" d="M472,-335.475C472,-327.08 472,-313.981 472,-303.163"/>
<polygon fill="midnightblue" stroke="midnightblue" points="475.5,-303.009 472,-293.009 468.5,-303.009 475.5,-303.009"/>
</g>
<!-- Node13&#45;&gt;Node3 -->
<g id="edge15" class="edge"><title>Node13&#45;&gt;Node3</title>
<path fill="none" stroke="midnightblue" d="M495.499,-273.876C520.059,-264.572 559.473,-248.816 592,-232 675.913,-188.617 769.425,-126.043 810.155,-98.0238"/>
<polygon fill="midnightblue" stroke="midnightblue" points="812.226,-100.847 818.463,-92.2828 808.247,-95.0881 812.226,-100.847"/>
</g>
<!-- Node13&#45;&gt;Node11 -->
<g id="edge17" class="edge"><title>Node13&#45;&gt;Node11</title>
<path fill="none" stroke="midnightblue" d="M400.256,-274.962C349.403,-267.954 280.307,-255.007 223,-232 180.524,-214.947 136.621,-183.788 112.567,-165.332"/>
<polygon fill="midnightblue" stroke="midnightblue" points="114.682,-162.542 104.642,-159.156 110.379,-168.064 114.682,-162.542"/>
</g>
<!-- Node13&#45;&gt;Node12 -->
<g id="edge18" class="edge"><title>Node13&#45;&gt;Node12</title>
<path fill="none" stroke="midnightblue" d="M400.457,-274.717C335.149,-266.786 236.25,-252.696 152,-232 148.607,-231.167 145.1,-230.187 141.619,-229.136"/>
<polygon fill="midnightblue" stroke="midnightblue" points="142.589,-225.772 131.998,-226.052 140.452,-232.438 142.589,-225.772"/>
</g>
<!-- Node14 -->
<g id="node14" class="node"><title>Node14</title>
<g id="a_node14"><a xlink:title=" ">
<polygon fill="none" stroke="#bfbfbf" points="630,-73 630,-92 678,-92 678,-73 630,-73"/>
<text text-anchor="middle" x="654" y="-80" font-family="Helvetica,sans-Serif" font-size="10.00">cstddef</text>
</a>
</g>
</g>
<!-- Node13&#45;&gt;Node14 -->
<g id="edge16" class="edge"><title>Node13&#45;&gt;Node14</title>
<path fill="none" stroke="midnightblue" d="M486.186,-273.911C525.981,-249.685 636.395,-181.499 646,-165 657.207,-145.749 657.693,-119.534 656.383,-102.09"/>
<polygon fill="midnightblue" stroke="midnightblue" points="659.856,-101.648 655.357,-92.0556 652.892,-102.36 659.856,-101.648"/>
</g>
<!-- Node15 -->
<g id="node15" class="node"><title>Node15</title>
<g id="a_node15"><a xlink:title=" ">
<polygon fill="none" stroke="#bfbfbf" points="687,-207 687,-226 727,-226 727,-207 687,-207"/>
<text text-anchor="middle" x="707" y="-214" font-family="Helvetica,sans-Serif" font-size="10.00">utility</text>
</a>
</g>
</g>
<!-- Node13&#45;&gt;Node15 -->
<g id="edge19" class="edge"><title>Node13&#45;&gt;Node15</title>
<path fill="none" stroke="midnightblue" d="M503.206,-273.869C548.612,-261.31 632.333,-238.153 677.031,-225.789"/>
<polygon fill="midnightblue" stroke="midnightblue" points="678.024,-229.146 686.729,-223.107 676.158,-222.4 678.024,-229.146"/>
</g>
<!-- Node13&#45;&gt;Node16 -->
<g id="edge20" class="edge"><title>Node13&#45;&gt;Node16</title>
<path fill="none" stroke="midnightblue" d="M450.222,-273.869C421.717,-262.571 371.572,-242.696 339.08,-229.818"/>
<polygon fill="midnightblue" stroke="midnightblue" points="340.193,-226.495 329.607,-226.064 337.614,-233.002 340.193,-226.495"/>
</g>
<!-- Node22 -->
<g id="node22" class="node"><title>Node22</title>
<g id="a_node22"><a xlink:href="XalanList_8hpp.html" target="_top" xlink:title=" ">
<polygon fill="none" stroke="black" points="402,-207 402,-226 542,-226 542,-207 402,-207"/>
<text text-anchor="middle" x="472" y="-214" font-family="Helvetica,sans-Serif" font-size="10.00">xalanc/Include/XalanList.hpp</text>
</a>
</g>
</g>
<!-- Node13&#45;&gt;Node22 -->
<g id="edge34" class="edge"><title>Node13&#45;&gt;Node22</title>
<path fill="none" stroke="midnightblue" d="M472,-273.734C472,-264.183 472,-248.618 472,-236.283"/>
<polygon fill="midnightblue" stroke="midnightblue" points="475.5,-236.127 472,-226.127 468.5,-236.127 475.5,-236.127"/>
</g>
<!-- Node16&#45;&gt;Node3 -->
<g id="edge21" class="edge"><title>Node16&#45;&gt;Node3</title>
<path fill="none" stroke="midnightblue" d="M357.423,-206.957C369.085,-204.972 381.477,-202.888 393,-201 494.671,-184.337 523.094,-193.848 622,-165 655.055,-155.359 661.04,-146.811 693,-134 727.905,-120.008 768.364,-105.387 796.41,-95.5"/>
<polygon fill="midnightblue" stroke="midnightblue" points="797.872,-98.6963 806.148,-92.0814 795.553,-92.0914 797.872,-98.6963"/>
</g>
<!-- Node16&#45;&gt;Node9 -->
<g id="edge24" class="edge"><title>Node16&#45;&gt;Node9</title>
<path fill="none" stroke="midnightblue" d="M280.166,-206.839C257.491,-198.744 225.634,-184.902 203,-165 182.561,-147.029 166.843,-119.362 158.007,-101.343"/>
<polygon fill="midnightblue" stroke="midnightblue" points="161.141,-99.7824 153.718,-92.2222 154.806,-102.761 161.141,-99.7824"/>
</g>
<!-- Node16&#45;&gt;Node11 -->
<g id="edge23" class="edge"><title>Node16&#45;&gt;Node11</title>
<path fill="none" stroke="midnightblue" d="M277.42,-206.989C242.925,-197.28 185.215,-180.711 136,-165 133.403,-164.171 130.722,-163.294 128.031,-162.399"/>
<polygon fill="midnightblue" stroke="midnightblue" points="128.96,-159.019 118.365,-159.128 126.716,-165.649 128.96,-159.019"/>
</g>
<!-- Node16&#45;&gt;Node14 -->
<g id="edge22" class="edge"><title>Node16&#45;&gt;Node14</title>
<path fill="none" stroke="midnightblue" d="M292.642,-206.815C267.441,-191.517 222.27,-159.016 245,-134 301.297,-72.0396 538.874,-118.664 620,-98 622.361,-97.3986 624.77,-96.6566 627.16,-95.829"/>
<polygon fill="midnightblue" stroke="midnightblue" points="628.679,-98.9931 636.712,-92.0854 626.124,-92.4757 628.679,-98.9931"/>
</g>
<!-- Node17 -->
<g id="node17" class="node"><title>Node17</title>
<g id="a_node17"><a xlink:title=" ">
<polygon fill="none" stroke="#bfbfbf" points="422,-73 422,-92 456,-92 456,-73 422,-73"/>
<text text-anchor="middle" x="439" y="-80" font-family="Helvetica,sans-Serif" font-size="10.00">new</text>
</a>
</g>
</g>
<!-- Node16&#45;&gt;Node17 -->
<g id="edge25" class="edge"><title>Node16&#45;&gt;Node17</title>
<path fill="none" stroke="midnightblue" d="M272.742,-206.905C251.12,-199.616 225.142,-186.763 212,-165 204.878,-153.206 203.38,-144.748 212,-134 236.805,-103.07 357.164,-89.8748 411.856,-85.4074"/>
<polygon fill="midnightblue" stroke="midnightblue" points="412.173,-88.8935 421.871,-84.6277 411.63,-81.9146 412.173,-88.8935"/>
</g>
<!-- Node18 -->
<g id="node18" class="node"><title>Node18</title>
<g id="a_node18"><a xlink:title=" ">
<polygon fill="none" stroke="#bfbfbf" points="254.5,-140 254.5,-159 301.5,-159 301.5,-140 254.5,-140"/>
<text text-anchor="middle" x="278" y="-147" font-family="Helvetica,sans-Serif" font-size="10.00">iterator</text>
</a>
</g>
</g>
<!-- Node16&#45;&gt;Node18 -->
<g id="edge26" class="edge"><title>Node16&#45;&gt;Node18</title>
<path fill="none" stroke="midnightblue" d="M303.954,-206.734C299.456,-196.988 292.068,-180.981 286.322,-168.532"/>
<polygon fill="midnightblue" stroke="midnightblue" points="289.35,-166.74 281.982,-159.127 282.995,-169.674 289.35,-166.74"/>
</g>
<!-- Node19 -->
<g id="node19" class="node"><title>Node19</title>
<g id="a_node19"><a xlink:title=" ">
<polygon fill="none" stroke="#bfbfbf" points="319.5,-140 319.5,-159 378.5,-159 378.5,-140 319.5,-140"/>
<text text-anchor="middle" x="349" y="-147" font-family="Helvetica,sans-Serif" font-size="10.00">stdexcept</text>
</a>
</g>
</g>
<!-- Node16&#45;&gt;Node19 -->
<g id="edge27" class="edge"><title>Node16&#45;&gt;Node19</title>
<path fill="none" stroke="midnightblue" d="M313.529,-206.734C319.8,-196.793 330.179,-180.338 338.095,-167.789"/>
<polygon fill="midnightblue" stroke="midnightblue" points="341.183,-169.453 343.558,-159.127 335.263,-165.718 341.183,-169.453"/>
</g>
<!-- Node16&#45;&gt;Node20 -->
<g id="edge28" class="edge"><title>Node16&#45;&gt;Node20</title>
<path fill="none" stroke="midnightblue" d="M339.206,-206.869C375.614,-196.798 436.656,-179.914 482.462,-167.245"/>
<polygon fill="midnightblue" stroke="midnightblue" points="483.578,-170.567 492.283,-164.528 481.712,-163.821 483.578,-170.567"/>
</g>
<!-- Node20&#45;&gt;Node3 -->
<g id="edge29" class="edge"><title>Node20&#45;&gt;Node3</title>
<path fill="none" stroke="midnightblue" d="M605.137,-134.476C658.552,-122.421 734.47,-105.286 783.236,-94.2802"/>
<polygon fill="midnightblue" stroke="midnightblue" points="784.227,-97.6444 793.211,-92.0287 782.686,-90.8162 784.227,-97.6444"/>
</g>
<!-- Node20&#45;&gt;Node9 -->
<g id="edge30" class="edge"><title>Node20&#45;&gt;Node9</title>
<path fill="none" stroke="midnightblue" d="M472.739,-136.879C388.038,-122.87 249.067,-99.8852 184.711,-89.2411"/>
<polygon fill="midnightblue" stroke="midnightblue" points="185.116,-85.7606 174.679,-87.5818 183.974,-92.6668 185.116,-85.7606"/>
</g>
<!-- Node20&#45;&gt;Node14 -->
<g id="edge31" class="edge"><title>Node20&#45;&gt;Node14</title>
<path fill="none" stroke="midnightblue" d="M567.085,-134.396C585.958,-123.344 612.058,-108.061 630.721,-97.1319"/>
<polygon fill="midnightblue" stroke="midnightblue" points="632.612,-100.081 639.473,-92.007 629.075,-94.04 632.612,-100.081"/>
</g>
<!-- Node20&#45;&gt;Node17 -->
<g id="edge32" class="edge"><title>Node20&#45;&gt;Node17</title>
<path fill="none" stroke="midnightblue" d="M520.434,-134.396C502.993,-123.496 478.966,-108.479 461.534,-97.5835"/>
<polygon fill="midnightblue" stroke="midnightblue" points="462.946,-94.339 452.611,-92.007 459.236,-100.275 462.946,-94.339"/>
</g>
<!-- Node21 -->
<g id="node21" class="node"><title>Node21</title>
<g id="a_node21"><a xlink:title=" ">
<polygon fill="none" stroke="#bfbfbf" points="474.5,-67.5 474.5,-97.5 611.5,-97.5 611.5,-67.5 474.5,-67.5"/>
<text text-anchor="start" x="482.5" y="-85.5" font-family="Helvetica,sans-Serif" font-size="10.00">xercesc/framework/Memory</text>
<text text-anchor="middle" x="543" y="-74.5" font-family="Helvetica,sans-Serif" font-size="10.00">Manager.hpp</text>
</a>
</g>
</g>
<!-- Node20&#45;&gt;Node21 -->
<g id="edge33" class="edge"><title>Node20&#45;&gt;Node21</title>
<path fill="none" stroke="midnightblue" d="M543,-134.396C543,-126.645 543,-116.812 543,-107.86"/>
<polygon fill="midnightblue" stroke="midnightblue" points="546.5,-107.576 543,-97.5765 539.5,-107.577 546.5,-107.576"/>
</g>
<!-- Node22&#45;&gt;Node3 -->
<g id="edge35" class="edge"><title>Node22&#45;&gt;Node3</title>
<path fill="none" stroke="midnightblue" d="M532.129,-206.922C577.444,-199.236 640.532,-185.899 693,-165 737.859,-147.132 785.314,-116.037 811.232,-97.859"/>
<polygon fill="midnightblue" stroke="midnightblue" points="813.338,-100.656 819.462,-92.0107 809.283,-94.9505 813.338,-100.656"/>
</g>
<!-- Node22&#45;&gt;Node9 -->
<g id="edge38" class="edge"><title>Node22&#45;&gt;Node9</title>
<path fill="none" stroke="midnightblue" d="M465.625,-206.741C452.79,-189.797 422.048,-152.567 387,-134 321.16,-99.1217 232.988,-88.3323 184.894,-84.9948"/>
<polygon fill="midnightblue" stroke="midnightblue" points="184.896,-81.4882 174.697,-84.3582 184.46,-88.4746 184.896,-81.4882"/>
</g>
<!-- Node22&#45;&gt;Node11 -->
<g id="edge37" class="edge"><title>Node22&#45;&gt;Node11</title>
<path fill="none" stroke="midnightblue" d="M426.069,-206.956C415.23,-204.971 403.712,-202.888 393,-201 299.288,-184.487 188.852,-166.117 132.025,-156.745"/>
<polygon fill="midnightblue" stroke="midnightblue" points="132.49,-153.274 122.054,-155.102 131.352,-160.181 132.49,-153.274"/>
</g>
<!-- Node22&#45;&gt;Node14 -->
<g id="edge36" class="edge"><title>Node22&#45;&gt;Node14</title>
<path fill="none" stroke="midnightblue" d="M534.547,-206.96C564.237,-200.041 598.315,-187.543 622,-165 639.598,-148.25 647.696,-120.648 651.296,-102.272"/>
<polygon fill="midnightblue" stroke="midnightblue" points="654.782,-102.647 653.001,-92.2033 647.88,-101.478 654.782,-102.647"/>
</g>
<!-- Node22&#45;&gt;Node17 -->
<g id="edge39" class="edge"><title>Node22&#45;&gt;Node17</title>
<path fill="none" stroke="midnightblue" d="M469.835,-206.839C464.543,-185.674 450.862,-130.948 443.633,-102.033"/>
<polygon fill="midnightblue" stroke="midnightblue" points="446.951,-100.874 441.13,-92.0212 440.16,-102.572 446.951,-100.874"/>
</g>
<!-- Node22&#45;&gt;Node18 -->
<g id="edge40" class="edge"><title>Node22&#45;&gt;Node18</title>
<path fill="none" stroke="midnightblue" d="M440.555,-206.943C407.627,-197.694 354.601,-181.983 310,-165 308.393,-164.388 306.752,-163.735 305.104,-163.058"/>
<polygon fill="midnightblue" stroke="midnightblue" points="306.344,-159.781 295.776,-159.023 303.565,-166.205 306.344,-159.781"/>
</g>
<!-- Node22&#45;&gt;Node19 -->
<g id="edge41" class="edge"><title>Node22&#45;&gt;Node19</title>
<path fill="none" stroke="midnightblue" d="M455.667,-206.869C434.898,-195.893 398.814,-176.824 374.43,-163.938"/>
<polygon fill="midnightblue" stroke="midnightblue" points="375.878,-160.745 365.401,-159.167 372.607,-166.934 375.878,-160.745"/>
</g>
<!-- Node22&#45;&gt;Node20 -->
<g id="edge42" class="edge"><title>Node22&#45;&gt;Node20</title>
<path fill="none" stroke="midnightblue" d="M481.575,-206.734C491.355,-197.78 506.907,-183.543 519.915,-171.635"/>
<polygon fill="midnightblue" stroke="midnightblue" points="522.598,-173.923 527.61,-164.589 517.871,-168.76 522.598,-173.923"/>
</g>
<!-- Node23&#45;&gt;Node8 -->
<g id="edge46" class="edge"><title>Node23&#45;&gt;Node8</title>
<path fill="none" stroke="midnightblue" d="M911.752,-335.475C926.027,-325.931 949.397,-310.307 966.508,-298.868"/>
<polygon fill="midnightblue" stroke="midnightblue" points="968.904,-301.477 975.272,-293.009 965.014,-295.657 968.904,-301.477"/>
</g>
<!-- Node25&#45;&gt;Node2 -->
<g id="edge49" class="edge"><title>Node25&#45;&gt;Node2</title>
<path fill="none" stroke="midnightblue" d="M897.831,-447.452C958.235,-426.421 1060.25,-380.266 1100,-299 1108.79,-281.02 1105.5,-258.168 1100.75,-241.24"/>
<polygon fill="midnightblue" stroke="midnightblue" points="1104.04,-240.048 1097.7,-231.562 1097.36,-242.152 1104.04,-240.048"/>
</g>
<!-- Node25&#45;&gt;Node7 -->
<g id="edge56" class="edge"><title>Node25&#45;&gt;Node7</title>
<path fill="none" stroke="midnightblue" d="M802.677,-447.475C766.847,-437.075 718.623,-423.078 685.181,-413.372"/>
<polygon fill="midnightblue" stroke="midnightblue" points="685.887,-409.933 675.308,-410.506 683.936,-416.655 685.887,-409.933"/>
</g>
<!-- Node26 -->
<g id="node26" class="node"><title>Node26</title>
<g id="a_node26"><a xlink:href="XalanMemMgrAutoPtr_8hpp.html" target="_top" xlink:title=" ">
<polygon fill="none" stroke="black" points="685.5,-268.5 685.5,-298.5 828.5,-298.5 828.5,-268.5 685.5,-268.5"/>
<text text-anchor="start" x="693.5" y="-286.5" font-family="Helvetica,sans-Serif" font-size="10.00">xalanc/Include/XalanMemMgr</text>
<text text-anchor="middle" x="757" y="-275.5" font-family="Helvetica,sans-Serif" font-size="10.00">AutoPtr.hpp</text>
</a>
</g>
</g>
<!-- Node25&#45;&gt;Node26 -->
<g id="edge50" class="edge"><title>Node25&#45;&gt;Node26</title>
<path fill="none" stroke="midnightblue" d="M841.656,-447.39C828.574,-427.331 804.448,-389.204 787,-355 779.169,-339.649 771.581,-321.78 765.995,-307.873"/>
<polygon fill="midnightblue" stroke="midnightblue" points="769.237,-306.553 762.307,-298.539 762.727,-309.125 769.237,-306.553"/>
</g>
<!-- Node27 -->
<g id="node27" class="node"><title>Node27</title>
<g id="a_node27"><a xlink:title=" ">
<polygon fill="none" stroke="#bfbfbf" points="1042.5,-391.5 1042.5,-410.5 1143.5,-410.5 1143.5,-391.5 1042.5,-391.5"/>
<text text-anchor="middle" x="1093" y="-398.5" font-family="Helvetica,sans-Serif" font-size="10.00">LocalMsgIndex.hpp</text>
</a>
</g>
</g>
<!-- Node25&#45;&gt;Node27 -->
<g id="edge57" class="edge"><title>Node25&#45;&gt;Node27</title>
<path fill="none" stroke="midnightblue" d="M908.044,-447.475C950.979,-436.918 1008.99,-422.655 1048.52,-412.936"/>
<polygon fill="midnightblue" stroke="midnightblue" points="1049.53,-416.293 1058.4,-410.506 1047.86,-409.495 1049.53,-416.293"/>
</g>
<!-- Node26&#45;&gt;Node2 -->
<g id="edge51" class="edge"><title>Node26&#45;&gt;Node2</title>
<path fill="none" stroke="midnightblue" d="M828.866,-268.556C881.896,-258.267 954.158,-244.245 1009.54,-233.5"/>
<polygon fill="midnightblue" stroke="midnightblue" points="1010.53,-236.874 1019.68,-231.533 1009.19,-230.002 1010.53,-236.874"/>
</g>
<!-- Node26&#45;&gt;Node9 -->
<g id="edge54" class="edge"><title>Node26&#45;&gt;Node9</title>
<path fill="none" stroke="midnightblue" d="M685.402,-276.902C550.179,-266.158 266.805,-242.756 223,-232 187.573,-223.301 180.824,-214.663 147,-201 107.055,-184.864 81.1526,-200.674 57,-165 49.2758,-153.591 49.9558,-145.841 57,-134 69.6504,-112.736 94.7279,-99.8686 115.657,-92.4485"/>
<polygon fill="midnightblue" stroke="midnightblue" points="116.805,-95.7555 125.222,-89.3213 114.63,-89.1021 116.805,-95.7555"/>
</g>
<!-- Node26&#45;&gt;Node14 -->
<g id="edge53" class="edge"><title>Node26&#45;&gt;Node14</title>
<path fill="none" stroke="midnightblue" d="M763.417,-268.417C775.18,-240.287 796.578,-176.23 769,-134 751.239,-106.802 715.207,-94.1576 688.183,-88.3385"/>
<polygon fill="midnightblue" stroke="midnightblue" points="688.807,-84.8943 678.324,-86.4263 687.474,-91.7663 688.807,-84.8943"/>
</g>
<!-- Node26&#45;&gt;Node15 -->
<g id="edge55" class="edge"><title>Node26&#45;&gt;Node15</title>
<path fill="none" stroke="midnightblue" d="M746.151,-268.396C738.432,-258.361 728.029,-244.838 719.887,-234.253"/>
<polygon fill="midnightblue" stroke="midnightblue" points="722.559,-231.987 713.688,-226.195 717.011,-236.255 722.559,-231.987"/>
</g>
<!-- Node26&#45;&gt;Node20 -->
<g id="edge52" class="edge"><title>Node26&#45;&gt;Node20</title>
<path fill="none" stroke="midnightblue" d="M757.44,-268.315C757.197,-250.189 753.944,-219.011 736,-201 706.604,-171.494 662.238,-158.565 623.453,-153.15"/>
<polygon fill="midnightblue" stroke="midnightblue" points="623.56,-149.637 613.204,-151.872 622.694,-156.583 623.56,-149.637"/>
</g>
</g>
</svg>
        <g id="navigator" transform="translate(0 0)" fill="#404254">
                <rect fill="#f2f5e9" fill-opacity="0.5" stroke="#606060" stroke-width=".5" x="0" y="0" width="60" height="60"/>
                <use id="zoomplus" xlink:href="#zoomPlus" x="17" y="9" onmousedown="handleZoom(evt,'in')"/>
                <use id="zoomminus" xlink:href="#zoomMin" x="42" y="9" onmousedown="handleZoom(evt,'out')"/>
                <use id="reset" xlink:href="#resetDef" x="30" y="36" onmousedown="handleReset()"/>
                <g id="arrowUp" xlink:href="#dirArrow" transform="translate(30 24)" onmousedown="handlePan(0,-1)">
                  <use xlink:href="#rim" fill="#404040">
                        <set attributeName="fill" to="#808080" begin="arrowUp.mouseover" end="arrowUp.mouseout"/>
                  </use>
                  <path fill="none" stroke="white" stroke-width="1.5" d="M0,-3.0v7 M-2.5,-0.5L0,-3.0L2.5,-0.5"/>
                </g>
                <g id="arrowRight" xlink:href="#dirArrow" transform="rotate(90) translate(36 -43)" onmousedown="handlePan(1,0)">
                  <use xlink:href="#rim" fill="#404040">
                        <set attributeName="fill" to="#808080" begin="arrowRight.mouseover" end="arrowRight.mouseout"/>
                  </use>
                  <path fill="none" stroke="white" stroke-width="1.5" d="M0,-3.0v7 M-2.5,-0.5L0,-3.0L2.5,-0.5"/>
                </g>
                <g id="arrowDown" xlink:href="#dirArrow" transform="rotate(180) translate(-30 -48)" onmousedown="handlePan(0,1)">
                  <use xlink:href="#rim" fill="#404040">
                        <set attributeName="fill" to="#808080" begin="arrowDown.mouseover" end="arrowDown.mouseout"/>
                  </use>
                  <path fill="none" stroke="white" stroke-width="1.5" d="M0,-3.0v7 M-2.5,-0.5L0,-3.0L2.5,-0.5"/>
                </g>
                <g id="arrowLeft" xlink:href="#dirArrow" transform="rotate(270) translate(-36 17)" onmousedown="handlePan(-1,0)">
                  <use xlink:href="#rim" fill="#404040">
                        <set attributeName="fill" to="#808080" begin="arrowLeft.mouseover" end="arrowLeft.mouseout"/>
                  </use>
                  <path fill="none" stroke="white" stroke-width="1.5" d="M0,-3.0v7 M-2.5,-0.5L0,-3.0L2.5,-0.5"/>
                </g>
        </g>
        <svg viewBox="0 0 15 15" width="100%" height="30px" preserveAspectRatio="xMaxYMin meet">
         <g id="arrow_out" transform="scale(0.3 0.3)">
          <a xlink:href="XalanInMemoryMessageLoader_8hpp__incl_org.svg" target="_base">
           <rect id="button" ry="5" rx="5" y="6" x="6" height="38" width="38"
                fill="#f2f5e9" fill-opacity="0.5" stroke="#606060" stroke-width="1.0"/>
           <path id="arrow"
             d="M 11.500037,31.436501 C 11.940474,20.09759 22.043105,11.32322 32.158766,21.979434 L 37.068811,17.246167 C 37.068811,17.246167 37.088388,32 37.088388,32 L 22.160133,31.978069 C 22.160133,31.978069 26.997745,27.140456 26.997745,27.140456 C 18.528582,18.264221 13.291696,25.230495 11.500037,31.436501 z"
             style="fill:#404040;"/>
          </a>
         </g>
        </svg>
</svg>
