<?xml version="1.0" encoding="UTF-8" standalone="no"?>
<!DOCTYPE svg PUBLIC "-//W3C//DTD SVG 1.1//EN"
 "http://www.w3.org/Graphics/SVG/1.1/DTD/svg11.dtd">
<!-- Generated by graphviz version 2.43.0 (0)
 -->
<!-- Title: xalanc/PlatformSupport/XalanInMemoryMessageLoader.hpp Pages: 1 -->
<!--zoomable 553 -->
<svg id="main" version="1.1" xmlns="http://www.w3.org/2000/svg" xmlns:xlink="http://www.w3.org/1999/xlink" xml:space="preserve" onload="init(evt)">
<style type="text/css"><![CDATA[
.edge:hover path { stroke: red; }
.edge:hover polygon { stroke: red; fill: red; }
]]></style>
<script type="text/javascript"><![CDATA[
var edges = document.getElementsByTagName('g');
if (edges && edges.length) {
  for (var i=0;i<edges.length;i++) {
    if (edges[i].id.substr(0,4)=='edge') {
      edges[i].setAttribute('class','edge');
    }
  }
}
]]></script>
        <defs>
                <circle id="rim" cx="0" cy="0" r="7"/>
                <circle id="rim2" cx="0" cy="0" r="3.5"/>
                <g id="zoomPlus">
                        <use xlink:href="#rim" fill="#404040">
                                <set attributeName="fill" to="#808080" begin="zoomplus.mouseover" end="zoomplus.mouseout"/>
                        </use>
                        <path d="M-4,0h8M0,-4v8" fill="none" stroke="white" stroke-width="1.5" pointer-events="none"/>
                </g>
                <g id="zoomMin">
                        <use xlink:href="#rim" fill="#404040">
                                <set attributeName="fill" to="#808080" begin="zoomminus.mouseover" end="zoomminus.mouseout"/>
                        </use>
                        <path d="M-4,0h8" fill="none" stroke="white" stroke-width="1.5" pointer-events="none"/>
                </g>
                <g id="dirArrow">
                        <path fill="none" stroke="white" stroke-width="1.5" d="M0,-3.0v7 M-2.5,-0.5L0,-3.0L2.5,-0.5"/>
                </g>
               <g id="resetDef">
                       <use xlink:href="#rim2" fill="#404040">
                               <set attributeName="fill" to="#808080" begin="reset.mouseover" end="reset.mouseout"/>
                       </use>
               </g>
        </defs>

<script type="text/javascript">
var viewWidth = 1237;
var viewHeight = 553;
var sectionId = 'dynsection-0';
</script>
<script xlink:href="svgpan.js"/>
<svg id="graph" class="graph">
<g id="viewport">
<title>xalanc/PlatformSupport/XalanInMemoryMessageLoader.hpp</title>
<!-- Node1 -->
<g id="node1" class="node">
<title>Node1</title>
<g id="a_node1"><a xlink:title=" ">
<polygon fill="#bfbfbf" stroke="black" points="904,-514.5 904,-544.5 1098,-544.5 1098,-514.5 904,-514.5"/>
<text text-anchor="start" x="912" y="-532.5" font-family="Helvetica,sans-Serif" font-size="10.00">xalanc/PlatformSupport</text>
<text text-anchor="middle" x="1001" y="-521.5" font-family="Helvetica,sans-Serif" font-size="10.00">/XalanInMemoryMessageLoader.hpp</text>
</a>
</g>
</g>
<!-- Node2 -->
<g id="node2" class="node">
<title>Node2</title>
<g id="a_node2"><a xlink:href="PlatformSupportDefinitions_8hpp.html" target="_top" xlink:title=" ">
<polygon fill="none" stroke="black" points="1039.5,-201.5 1039.5,-231.5 1212.5,-231.5 1212.5,-201.5 1039.5,-201.5"/>
<text text-anchor="start" x="1047.5" y="-219.5" font-family="Helvetica,sans-Serif" font-size="10.00">xalanc/PlatformSupport</text>
<text text-anchor="middle" x="1126" y="-208.5" font-family="Helvetica,sans-Serif" font-size="10.00">/PlatformSupportDefinitions.hpp</text>
</a>
</g>
</g>
<!-- Node1&#45;&gt;Node2 -->
<g id="edge1" class="edge">
<title>Node1&#45;&gt;Node2</title>
<path fill="none" stroke="midnightblue" d="M1093.74,-514.48C1156.86,-499.06 1229,-467.19 1229,-402 1229,-402 1229,-402 1229,-344 1229,-297.92 1187.39,-259.32 1157.07,-237.3"/>
<polygon fill="midnightblue" stroke="midnightblue" points="1159.05,-234.42 1148.86,-231.53 1155.03,-240.14 1159.05,-234.42"/>
</g>
<!-- Node7 -->
<g id="node7" class="node">
<title>Node7</title>
<g id="a_node7"><a xlink:href="XalanDOMString_8hpp.html" target="_top" xlink:title=" ">
<polygon fill="none" stroke="black" points="569,-391.5 569,-410.5 777,-410.5 777,-391.5 569,-391.5"/>
<text text-anchor="middle" x="673" y="-398.5" font-family="Helvetica,sans-Serif" font-size="10.00">xalanc/XalanDOM/XalanDOMString.hpp</text>
</a>
</g>
</g>
<!-- Node1&#45;&gt;Node7 -->
<g id="edge6" class="edge">
<title>Node1&#45;&gt;Node7</title>
<path fill="none" stroke="midnightblue" d="M951.79,-514.46C920.12,-505.04 878.25,-491.86 842,-478 790.8,-458.43 732.9,-431.25 699.89,-415.25"/>
<polygon fill="midnightblue" stroke="midnightblue" points="701,-411.9 690.48,-410.67 697.94,-418.19 701,-411.9"/>
</g>
<!-- Node24 -->
<g id="node24" class="node">
<title>Node24</title>
<g id="a_node24"><a xlink:title=" ">
<polygon fill="none" stroke="#bfbfbf" points="1013,-453 1013,-472 1147,-472 1147,-453 1013,-453"/>
<text text-anchor="middle" x="1080" y="-460" font-family="Helvetica,sans-Serif" font-size="10.00">xercesc/util/XMLUni.hpp</text>
</a>
</g>
</g>
<!-- Node1&#45;&gt;Node24 -->
<g id="edge47" class="edge">
<title>Node1&#45;&gt;Node24</title>
<path fill="none" stroke="midnightblue" d="M1018.14,-514.4C1030.95,-503.86 1048.43,-489.48 1061.54,-478.69"/>
<polygon fill="midnightblue" stroke="midnightblue" points="1063.93,-481.25 1069.43,-472.19 1059.49,-475.85 1063.93,-481.25"/>
</g>
<!-- Node25 -->
<g id="node25" class="node">
<title>Node25</title>
<g id="a_node25"><a xlink:href="XalanMessageLoader_8hpp.html" target="_top" xlink:title=" ">
<polygon fill="none" stroke="black" points="851,-447.5 851,-477.5 995,-477.5 995,-447.5 851,-447.5"/>
<text text-anchor="start" x="859" y="-465.5" font-family="Helvetica,sans-Serif" font-size="10.00">xalanc/PlatformSupport</text>
<text text-anchor="middle" x="923" y="-454.5" font-family="Helvetica,sans-Serif" font-size="10.00">/XalanMessageLoader.hpp</text>
</a>
</g>
</g>
<!-- Node1&#45;&gt;Node25 -->
<g id="edge48" class="edge">
<title>Node1&#45;&gt;Node25</title>
<path fill="none" stroke="midnightblue" d="M984.08,-514.4C973.45,-505.54 959.55,-493.96 947.7,-484.09"/>
<polygon fill="midnightblue" stroke="midnightblue" points="949.81,-481.29 939.89,-477.58 945.33,-486.67 949.81,-481.29"/>
</g>
<!-- Node3 -->
<g id="node3" class="node">
<title>Node3</title>
<g id="a_node3"><a xlink:href="PlatformDefinitions_8hpp.html" target="_top" xlink:title=" ">
<polygon fill="none" stroke="black" points="766,-73 766,-92 972,-92 972,-73 766,-73"/>
<text text-anchor="middle" x="869" y="-80" font-family="Helvetica,sans-Serif" font-size="10.00">xalanc/Include/PlatformDefinitions.hpp</text>
</a>
</g>
</g>
<!-- Node2&#45;&gt;Node3 -->
<g id="edge2" class="edge">
<title>Node2&#45;&gt;Node3</title>
<path fill="none" stroke="midnightblue" d="M1109.04,-201.2C1087.42,-183.52 1048.35,-153.4 1011,-134 978.7,-117.22 939.58,-103.77 910.58,-94.98"/>
<polygon fill="midnightblue" stroke="midnightblue" points="911.36,-91.56 900.78,-92.07 909.37,-98.27 911.36,-91.56"/>
</g>
<!-- Node4 -->
<g id="node4" class="node">
<title>Node4</title>
<g id="a_node4"><a xlink:title=" ">
<polygon fill="none" stroke="#bfbfbf" points="648,-0.5 648,-30.5 768,-30.5 768,-0.5 648,-0.5"/>
<text text-anchor="start" x="656" y="-18.5" font-family="Helvetica,sans-Serif" font-size="10.00">xercesc/util/Xerces</text>
<text text-anchor="middle" x="708" y="-7.5" font-family="Helvetica,sans-Serif" font-size="10.00">_autoconf_config.hpp</text>
</a>
</g>
</g>
<!-- Node3&#45;&gt;Node4 -->
<g id="edge3" class="edge">
<title>Node3&#45;&gt;Node4</title>
<path fill="none" stroke="midnightblue" d="M847.62,-72.87C823.36,-63.07 783.12,-46.83 752.06,-34.29"/>
<polygon fill="midnightblue" stroke="midnightblue" points="753.33,-31.03 742.75,-30.53 750.71,-37.52 753.33,-31.03"/>
</g>
<!-- Node5 -->
<g id="node5" class="node">
<title>Node5</title>
<g id="a_node5"><a xlink:title=" ">
<polygon fill="none" stroke="#bfbfbf" points="786.5,-6 786.5,-25 951.5,-25 951.5,-6 786.5,-6"/>
<text text-anchor="middle" x="869" y="-13" font-family="Helvetica,sans-Serif" font-size="10.00">xercesc/util/XercesVersion.hpp</text>
</a>
</g>
</g>
<!-- Node3&#45;&gt;Node5 -->
<g id="edge4" class="edge">
<title>Node3&#45;&gt;Node5</title>
<path fill="none" stroke="midnightblue" d="M869,-72.73C869,-63.18 869,-47.62 869,-35.28"/>
<polygon fill="midnightblue" stroke="midnightblue" points="872.5,-35.13 869,-25.13 865.5,-35.13 872.5,-35.13"/>
</g>
<!-- Node6 -->
<g id="node6" class="node">
<title>Node6</title>
<g id="a_node6"><a xlink:href="XalanVersion_8hpp.html" target="_top" xlink:title=" ">
<polygon fill="none" stroke="black" points="969.5,-6 969.5,-25 1144.5,-25 1144.5,-6 969.5,-6"/>
<text text-anchor="middle" x="1057" y="-13" font-family="Helvetica,sans-Serif" font-size="10.00">xalanc/Include/XalanVersion.hpp</text>
</a>
</g>
</g>
<!-- Node3&#45;&gt;Node6 -->
<g id="edge5" class="edge">
<title>Node3&#45;&gt;Node6</title>
<path fill="none" stroke="midnightblue" d="M893.96,-72.87C926.92,-61.47 985.12,-41.35 1022.33,-28.49"/>
<polygon fill="midnightblue" stroke="midnightblue" points="1023.92,-31.64 1032.23,-25.06 1021.64,-25.02 1023.92,-31.64"/>
</g>
<!-- Node8 -->
<g id="node8" class="node">
<title>Node8</title>
<g id="a_node8"><a xlink:href="XalanDOMDefinitions_8hpp.html" target="_top" xlink:title=" ">
<polygon fill="none" stroke="black" points="931,-274 931,-293 1163,-293 1163,-274 931,-274"/>
<text text-anchor="middle" x="1047" y="-281" font-family="Helvetica,sans-Serif" font-size="10.00">xalanc/XalanDOM/XalanDOMDefinitions.hpp</text>
</a>
</g>
</g>
<!-- Node7&#45;&gt;Node8 -->
<g id="edge7" class="edge">
<title>Node7&#45;&gt;Node8</title>
<path fill="none" stroke="midnightblue" d="M777.33,-395.22C888.08,-389.06 1049.82,-376.48 1069,-355 1082.28,-340.13 1071.31,-317.32 1060.65,-301.69"/>
<polygon fill="midnightblue" stroke="midnightblue" points="1063.33,-299.43 1054.6,-293.44 1057.69,-303.57 1063.33,-299.43"/>
</g>
<!-- Node9 -->
<g id="node9" class="node">
<title>Node9</title>
<g id="a_node9"><a xlink:title=" ">
<polygon fill="none" stroke="#bfbfbf" points="132,-73 132,-92 184,-92 184,-73 132,-73"/>
<text text-anchor="middle" x="158" y="-80" font-family="Helvetica,sans-Serif" font-size="10.00">cassert</text>
</a>
</g>
</g>
<!-- Node7&#45;&gt;Node9 -->
<g id="edge9" class="edge">
<title>Node7&#45;&gt;Node9</title>
<path fill="none" stroke="midnightblue" d="M568.95,-392.71C380.04,-378.06 0,-341.51 0,-284.5 0,-284.5 0,-284.5 0,-215.5 0,-173.46 16.8,-162.17 48,-134 69.29,-114.78 99.15,-101.7 122.39,-93.67"/>
<polygon fill="midnightblue" stroke="midnightblue" points="123.49,-96.99 131.9,-90.54 121.3,-90.34 123.49,-96.99"/>
</g>
<!-- Node10 -->
<g id="node10" class="node">
<title>Node10</title>
<g id="a_node10"><a xlink:href="STLHelper_8hpp.html" target="_top" xlink:title=" ">
<polygon fill="none" stroke="black" points="420,-335.5 420,-354.5 580,-354.5 580,-335.5 420,-335.5"/>
<text text-anchor="middle" x="500" y="-342.5" font-family="Helvetica,sans-Serif" font-size="10.00">xalanc/Include/STLHelper.hpp</text>
</a>
</g>
</g>
<!-- Node7&#45;&gt;Node10 -->
<g id="edge10" class="edge">
<title>Node7&#45;&gt;Node10</title>
<path fill="none" stroke="midnightblue" d="M645.59,-391.44C616.23,-382.28 569.48,-367.69 536.9,-357.52"/>
<polygon fill="midnightblue" stroke="midnightblue" points="537.87,-354.16 527.28,-354.52 535.79,-360.84 537.87,-354.16"/>
</g>
<!-- Node16 -->
<g id="node16" class="node">
<title>Node16</title>
<g id="a_node16"><a xlink:href="XalanVector_8hpp.html" target="_top" xlink:title=" ">
<polygon fill="none" stroke="black" points="234.5,-207 234.5,-226 403.5,-226 403.5,-207 234.5,-207"/>
<text text-anchor="middle" x="319" y="-214" font-family="Helvetica,sans-Serif" font-size="10.00">xalanc/Include/XalanVector.hpp</text>
</a>
</g>
</g>
<!-- Node7&#45;&gt;Node16 -->
<g id="edge44" class="edge">
<title>Node7&#45;&gt;Node16</title>
<path fill="none" stroke="midnightblue" d="M577.06,-391.49C513.92,-384.4 438.1,-372.59 411,-355 365.94,-325.76 337.61,-265.85 325.62,-235.7"/>
<polygon fill="midnightblue" stroke="midnightblue" points="328.78,-234.14 321.94,-226.04 322.23,-236.63 328.78,-234.14"/>
</g>
<!-- Node20 -->
<g id="node20" class="node">
<title>Node20</title>
<g id="a_node20"><a xlink:href="XalanMemoryManagement_8hpp.html" target="_top" xlink:title=" ">
<polygon fill="none" stroke="black" points="493,-134.5 493,-164.5 651,-164.5 651,-134.5 493,-134.5"/>
<text text-anchor="start" x="501" y="-152.5" font-family="Helvetica,sans-Serif" font-size="10.00">xalanc/Include/XalanMemory</text>
<text text-anchor="middle" x="572" y="-141.5" font-family="Helvetica,sans-Serif" font-size="10.00">Management.hpp</text>
</a>
</g>
</g>
<!-- Node7&#45;&gt;Node20 -->
<g id="edge43" class="edge">
<title>Node7&#45;&gt;Node20</title>
<path fill="none" stroke="midnightblue" d="M669.52,-391.41C655.54,-356.88 603.15,-227.44 581.47,-173.9"/>
<polygon fill="midnightblue" stroke="midnightblue" points="584.68,-172.5 577.68,-164.54 578.19,-175.12 584.68,-172.5"/>
</g>
<!-- Node23 -->
<g id="node23" class="node">
<title>Node23</title>
<g id="a_node23"><a xlink:href="XalanDOMException_8hpp.html" target="_top" xlink:title=" ">
<polygon fill="none" stroke="black" points="833.5,-335.5 833.5,-354.5 1060.5,-354.5 1060.5,-335.5 833.5,-335.5"/>
<text text-anchor="middle" x="947" y="-342.5" font-family="Helvetica,sans-Serif" font-size="10.00">xalanc/XalanDOM/XalanDOMException.hpp</text>
</a>
</g>
</g>
<!-- Node7&#45;&gt;Node23 -->
<g id="edge45" class="edge">
<title>Node7&#45;&gt;Node23</title>
<path fill="none" stroke="midnightblue" d="M716.42,-391.44C764.52,-381.96 842.09,-366.67 893.81,-356.48"/>
<polygon fill="midnightblue" stroke="midnightblue" points="894.65,-359.88 903.79,-354.52 893.3,-353.02 894.65,-359.88"/>
</g>
<!-- Node8&#45;&gt;Node3 -->
<g id="edge8" class="edge">
<title>Node8&#45;&gt;Node3</title>
<path fill="none" stroke="midnightblue" d="M1040.17,-273.88C1021.68,-250.66 968.8,-185.12 921,-134 909.74,-121.96 896.39,-109.02 886.04,-99.25"/>
<polygon fill="midnightblue" stroke="midnightblue" points="888.17,-96.45 878.47,-92.18 883.38,-101.57 888.17,-96.45"/>
</g>
<!-- Node10&#45;&gt;Node3 -->
<g id="edge11" class="edge">
<title>Node10&#45;&gt;Node3</title>
<path fill="none" stroke="midnightblue" d="M580.38,-340.16C686.77,-334.25 863.26,-321.2 883,-299 932.97,-242.82 896.06,-142.41 877.72,-101.55"/>
<polygon fill="midnightblue" stroke="midnightblue" points="880.81,-99.89 873.42,-92.3 874.46,-102.84 880.81,-99.89"/>
</g>
<!-- Node11 -->
<g id="node11" class="node">
<title>Node11</title>
<g id="a_node11"><a xlink:title=" ">
<polygon fill="none" stroke="#bfbfbf" points="66,-140 66,-159 130,-159 130,-140 66,-140"/>
<text text-anchor="middle" x="98" y="-147" font-family="Helvetica,sans-Serif" font-size="10.00">algorithm</text>
</a>
</g>
</g>
<!-- Node10&#45;&gt;Node11 -->
<g id="edge12" class="edge">
<title>Node10&#45;&gt;Node11</title>
<path fill="none" stroke="midnightblue" d="M420.18,-335.46C306.48,-321.41 107.03,-289.11 66,-232 51.44,-211.74 68.71,-183.95 82.97,-166.62"/>
<polygon fill="midnightblue" stroke="midnightblue" points="85.65,-168.87 89.58,-159.03 80.38,-164.28 85.65,-168.87"/>
</g>
<!-- Node12 -->
<g id="node12" class="node">
<title>Node12</title>
<g id="a_node12"><a xlink:title=" ">
<polygon fill="none" stroke="#bfbfbf" points="75.5,-207 75.5,-226 140.5,-226 140.5,-207 75.5,-207"/>
<text text-anchor="middle" x="108" y="-214" font-family="Helvetica,sans-Serif" font-size="10.00">functional</text>
</a>
</g>
</g>
<!-- Node10&#45;&gt;Node12 -->
<g id="edge13" class="edge">
<title>Node10&#45;&gt;Node12</title>
<path fill="none" stroke="midnightblue" d="M473.36,-335.4C404.84,-313.29 222.37,-254.41 144.28,-229.21"/>
<polygon fill="midnightblue" stroke="midnightblue" points="145.01,-225.76 134.41,-226.02 142.86,-232.43 145.01,-225.76"/>
</g>
<!-- Node13 -->
<g id="node13" class="node">
<title>Node13</title>
<g id="a_node13"><a xlink:href="XalanMap_8hpp.html" target="_top" xlink:title=" ">
<polygon fill="none" stroke="black" points="420,-274 420,-293 580,-293 580,-274 420,-274"/>
<text text-anchor="middle" x="500" y="-281" font-family="Helvetica,sans-Serif" font-size="10.00">xalanc/Include/XalanMap.hpp</text>
</a>
</g>
</g>
<!-- Node10&#45;&gt;Node13 -->
<g id="edge14" class="edge">
<title>Node10&#45;&gt;Node13</title>
<path fill="none" stroke="midnightblue" d="M500,-335.48C500,-327.08 500,-313.98 500,-303.16"/>
<polygon fill="midnightblue" stroke="midnightblue" points="503.5,-303.01 500,-293.01 496.5,-303.01 503.5,-303.01"/>
</g>
<!-- Node13&#45;&gt;Node3 -->
<g id="edge15" class="edge">
<title>Node13&#45;&gt;Node3</title>
<path fill="none" stroke="midnightblue" d="M524.69,-274C550.48,-264.79 591.87,-249.12 626,-232 711.46,-189.14 806.47,-126.3 847.83,-98.12"/>
<polygon fill="midnightblue" stroke="midnightblue" points="849.99,-100.88 856.27,-92.34 846.04,-95.1 849.99,-100.88"/>
</g>
<!-- Node13&#45;&gt;Node11 -->
<g id="edge17" class="edge">
<title>Node13&#45;&gt;Node11</title>
<path fill="none" stroke="midnightblue" d="M419.81,-276.06C363.71,-269.59 287.87,-256.83 225,-232 183.08,-215.45 140.15,-184.34 116.5,-165.71"/>
<polygon fill="midnightblue" stroke="midnightblue" points="118.41,-162.76 108.42,-159.24 114.04,-168.22 118.41,-162.76"/>
</g>
<!-- Node13&#45;&gt;Node12 -->
<g id="edge18" class="edge">
<title>Node13&#45;&gt;Node12</title>
<path fill="none" stroke="midnightblue" d="M419.88,-274.31C349.55,-266.29 244.75,-252.29 155,-232 151.08,-231.11 147.02,-230.07 142.99,-228.94"/>
<polygon fill="midnightblue" stroke="midnightblue" points="143.76,-225.52 133.18,-226.05 141.78,-232.23 143.76,-225.52"/>
</g>
<!-- Node14 -->
<g id="node14" class="node">
<title>Node14</title>
<g id="a_node14"><a xlink:title=" ">
<polygon fill="none" stroke="#bfbfbf" points="666.5,-73 666.5,-92 719.5,-92 719.5,-73 666.5,-73"/>
<text text-anchor="middle" x="693" y="-80" font-family="Helvetica,sans-Serif" font-size="10.00">cstddef</text>
</a>
</g>
</g>
<!-- Node13&#45;&gt;Node14 -->
<g id="edge16" class="edge">
<title>Node13&#45;&gt;Node14</title>
<path fill="none" stroke="midnightblue" d="M515.62,-273.92C533.2,-264.15 562.52,-247.53 587,-232 598.06,-224.98 677.29,-176.25 684,-165 695.43,-145.85 696.24,-119.61 695.15,-102.14"/>
<polygon fill="midnightblue" stroke="midnightblue" points="698.63,-101.73 694.25,-92.08 691.65,-102.35 698.63,-101.73"/>
</g>
<!-- Node15 -->
<g id="node15" class="node">
<title>Node15</title>
<g id="a_node15"><a xlink:title=" ">
<polygon fill="none" stroke="#bfbfbf" points="719.5,-207 719.5,-226 764.5,-226 764.5,-207 719.5,-207"/>
<text text-anchor="middle" x="742" y="-214" font-family="Helvetica,sans-Serif" font-size="10.00">utility</text>
</a>
</g>
</g>
<!-- Node13&#45;&gt;Node15 -->
<g id="edge19" class="edge">
<title>Node13&#45;&gt;Node15</title>
<path fill="none" stroke="midnightblue" d="M531.89,-273.94C578.06,-261.53 663.1,-238.69 709.58,-226.21"/>
<polygon fill="midnightblue" stroke="midnightblue" points="710.68,-229.54 719.43,-223.56 708.86,-222.78 710.68,-229.54"/>
</g>
<!-- Node13&#45;&gt;Node16 -->
<g id="edge20" class="edge">
<title>Node13&#45;&gt;Node16</title>
<path fill="none" stroke="midnightblue" d="M475.96,-273.87C444.23,-262.47 388.21,-242.35 352.38,-229.49"/>
<polygon fill="midnightblue" stroke="midnightblue" points="353.44,-226.15 342.85,-226.06 351.08,-232.74 353.44,-226.15"/>
</g>
<!-- Node22 -->
<g id="node22" class="node">
<title>Node22</title>
<g id="a_node22"><a xlink:href="XalanList_8hpp.html" target="_top" xlink:title=" ">
<polygon fill="none" stroke="black" points="422,-207 422,-226 578,-226 578,-207 422,-207"/>
<text text-anchor="middle" x="500" y="-214" font-family="Helvetica,sans-Serif" font-size="10.00">xalanc/Include/XalanList.hpp</text>
</a>
</g>
</g>
<!-- Node13&#45;&gt;Node22 -->
<g id="edge34" class="edge">
<title>Node13&#45;&gt;Node22</title>
<path fill="none" stroke="midnightblue" d="M500,-273.73C500,-264.18 500,-248.62 500,-236.28"/>
<polygon fill="midnightblue" stroke="midnightblue" points="503.5,-236.13 500,-226.13 496.5,-236.13 503.5,-236.13"/>
</g>
<!-- Node16&#45;&gt;Node3 -->
<g id="edge21" class="edge">
<title>Node16&#45;&gt;Node3</title>
<path fill="none" stroke="midnightblue" d="M373.66,-206.99C386.56,-205 400.26,-202.91 413,-201 522.71,-184.54 553.33,-195.47 660,-165 693.11,-155.54 699.04,-146.81 731,-134 765.9,-120.01 806.36,-105.39 834.41,-95.5"/>
<polygon fill="midnightblue" stroke="midnightblue" points="835.87,-98.7 844.15,-92.08 833.55,-92.09 835.87,-98.7"/>
</g>
<!-- Node16&#45;&gt;Node9 -->
<g id="edge24" class="edge">
<title>Node16&#45;&gt;Node9</title>
<path fill="none" stroke="midnightblue" d="M289.58,-206.97C266.04,-199.02 233.24,-185.32 210,-165 189.62,-147.19 174.29,-119.48 165.72,-101.41"/>
<polygon fill="midnightblue" stroke="midnightblue" points="168.89,-99.92 161.58,-92.26 162.52,-102.81 168.89,-99.92"/>
</g>
<!-- Node16&#45;&gt;Node11 -->
<g id="edge23" class="edge">
<title>Node16&#45;&gt;Node11</title>
<path fill="none" stroke="midnightblue" d="M288.58,-206.97C253.62,-197.1 194.56,-180.26 144,-165 140.87,-164.06 137.63,-163.06 134.38,-162.06"/>
<polygon fill="midnightblue" stroke="midnightblue" points="135.31,-158.68 124.72,-159.04 133.23,-165.36 135.31,-158.68"/>
</g>
<!-- Node16&#45;&gt;Node14 -->
<g id="edge22" class="edge">
<title>Node16&#45;&gt;Node14</title>
<path fill="none" stroke="midnightblue" d="M303.03,-206.89C276.82,-191.71 229.77,-159.39 253,-134 313.84,-67.5 569.36,-119.06 657,-98 659.67,-97.36 662.41,-96.55 665.11,-95.65"/>
<polygon fill="midnightblue" stroke="midnightblue" points="666.51,-98.87 674.66,-92.1 664.06,-92.31 666.51,-98.87"/>
</g>
<!-- Node17 -->
<g id="node17" class="node">
<title>Node17</title>
<g id="a_node17"><a xlink:title=" ">
<polygon fill="none" stroke="#bfbfbf" points="440.5,-73 440.5,-92 477.5,-92 477.5,-73 440.5,-73"/>
<text text-anchor="middle" x="459" y="-80" font-family="Helvetica,sans-Serif" font-size="10.00">new</text>
</a>
</g>
</g>
<!-- Node16&#45;&gt;Node17 -->
<g id="edge25" class="edge">
<title>Node16&#45;&gt;Node17</title>
<path fill="none" stroke="midnightblue" d="M292.57,-206.9C255.29,-193.39 194.48,-165.47 220,-134 246.16,-101.74 372.21,-89.28 429.97,-85.21"/>
<polygon fill="midnightblue" stroke="midnightblue" points="430.5,-88.68 440.24,-84.52 430.03,-81.7 430.5,-88.68"/>
</g>
<!-- Node18 -->
<g id="node18" class="node">
<title>Node18</title>
<g id="a_node18"><a xlink:title=" ">
<polygon fill="none" stroke="#bfbfbf" points="262.5,-140 262.5,-159 315.5,-159 315.5,-140 262.5,-140"/>
<text text-anchor="middle" x="289" y="-147" font-family="Helvetica,sans-Serif" font-size="10.00">iterator</text>
</a>
</g>
</g>
<!-- Node16&#45;&gt;Node18 -->
<g id="edge26" class="edge">
<title>Node16&#45;&gt;Node18</title>
<path fill="none" stroke="midnightblue" d="M314.95,-206.73C310.46,-196.99 303.07,-180.98 297.32,-168.53"/>
<polygon fill="midnightblue" stroke="midnightblue" points="300.35,-166.74 292.98,-159.13 293.99,-169.67 300.35,-166.74"/>
</g>
<!-- Node19 -->
<g id="node19" class="node">
<title>Node19</title>
<g id="a_node19"><a xlink:title=" ">
<polygon fill="none" stroke="#bfbfbf" points="333.5,-140 333.5,-159 398.5,-159 398.5,-140 333.5,-140"/>
<text text-anchor="middle" x="366" y="-147" font-family="Helvetica,sans-Serif" font-size="10.00">stdexcept</text>
</a>
</g>
</g>
<!-- Node16&#45;&gt;Node19 -->
<g id="edge27" class="edge">
<title>Node16&#45;&gt;Node19</title>
<path fill="none" stroke="midnightblue" d="M325.34,-206.73C332.6,-196.7 344.66,-180.01 353.76,-167.42"/>
<polygon fill="midnightblue" stroke="midnightblue" points="356.74,-169.28 359.76,-159.13 351.07,-165.18 356.74,-169.28"/>
</g>
<!-- Node16&#45;&gt;Node20 -->
<g id="edge28" class="edge">
<title>Node16&#45;&gt;Node20</title>
<path fill="none" stroke="midnightblue" d="M352.34,-206.94C391.63,-196.84 457.83,-179.83 507.3,-167.12"/>
<polygon fill="midnightblue" stroke="midnightblue" points="508.46,-170.44 517.28,-164.56 506.72,-163.66 508.46,-170.44"/>
</g>
<!-- Node20&#45;&gt;Node3 -->
<g id="edge29" class="edge">
<title>Node20&#45;&gt;Node3</title>
<path fill="none" stroke="midnightblue" d="M636.08,-134.48C691.28,-122.4 769.78,-105.21 820.06,-94.21"/>
<polygon fill="midnightblue" stroke="midnightblue" points="821.01,-97.59 830.03,-92.03 819.51,-90.75 821.01,-97.59"/>
</g>
<!-- Node20&#45;&gt;Node9 -->
<g id="edge30" class="edge">
<title>Node20&#45;&gt;Node9</title>
<path fill="none" stroke="midnightblue" d="M492.67,-136.04C402.85,-121.94 260.43,-99.58 194.14,-89.17"/>
<polygon fill="midnightblue" stroke="midnightblue" points="194.6,-85.7 184.18,-87.61 193.52,-92.62 194.6,-85.7"/>
</g>
<!-- Node20&#45;&gt;Node14 -->
<g id="edge31" class="edge">
<title>Node20&#45;&gt;Node14</title>
<path fill="none" stroke="midnightblue" d="M598.26,-134.4C619.02,-123.24 647.8,-107.78 668.18,-96.83"/>
<polygon fill="midnightblue" stroke="midnightblue" points="670.01,-99.82 677.16,-92.01 666.7,-93.66 670.01,-99.82"/>
</g>
<!-- Node20&#45;&gt;Node17 -->
<g id="edge32" class="edge">
<title>Node20&#45;&gt;Node17</title>
<path fill="none" stroke="midnightblue" d="M547.48,-134.4C528.27,-123.34 501.7,-108.06 482.7,-97.13"/>
<polygon fill="midnightblue" stroke="midnightblue" points="484.2,-93.96 473.79,-92.01 480.71,-100.03 484.2,-93.96"/>
</g>
<!-- Node21 -->
<g id="node21" class="node">
<title>Node21</title>
<g id="a_node21"><a xlink:title=" ">
<polygon fill="none" stroke="#bfbfbf" points="495.5,-67.5 495.5,-97.5 648.5,-97.5 648.5,-67.5 495.5,-67.5"/>
<text text-anchor="start" x="503.5" y="-85.5" font-family="Helvetica,sans-Serif" font-size="10.00">xercesc/framework/Memory</text>
<text text-anchor="middle" x="572" y="-74.5" font-family="Helvetica,sans-Serif" font-size="10.00">Manager.hpp</text>
</a>
</g>
</g>
<!-- Node20&#45;&gt;Node21 -->
<g id="edge33" class="edge">
<title>Node20&#45;&gt;Node21</title>
<path fill="none" stroke="midnightblue" d="M572,-134.4C572,-126.64 572,-116.81 572,-107.86"/>
<polygon fill="midnightblue" stroke="midnightblue" points="575.5,-107.58 572,-97.58 568.5,-107.58 575.5,-107.58"/>
</g>
<!-- Node22&#45;&gt;Node3 -->
<g id="edge35" class="edge">
<title>Node22&#45;&gt;Node3</title>
<path fill="none" stroke="midnightblue" d="M564.85,-206.98C612.06,-199.43 676.94,-186.24 731,-165 775.94,-147.34 823.37,-116.17 849.26,-97.92"/>
<polygon fill="midnightblue" stroke="midnightblue" points="851.38,-100.71 857.48,-92.05 847.31,-95.02 851.38,-100.71"/>
</g>
<!-- Node22&#45;&gt;Node9 -->
<g id="edge38" class="edge">
<title>Node22&#45;&gt;Node9</title>
<path fill="none" stroke="midnightblue" d="M493.07,-206.99C478.84,-190.14 444.51,-152.58 407,-134 336.89,-99.28 244.39,-88.43 194.19,-85.04"/>
<polygon fill="midnightblue" stroke="midnightblue" points="194.34,-81.54 184.14,-84.42 193.91,-88.53 194.34,-81.54"/>
</g>
<!-- Node22&#45;&gt;Node11 -->
<g id="edge37" class="edge">
<title>Node22&#45;&gt;Node11</title>
<path fill="none" stroke="midnightblue" d="M448.35,-206.96C436.42,-204.99 423.77,-202.92 412,-201 314.63,-185.15 200.23,-166.83 140,-157.2"/>
<polygon fill="midnightblue" stroke="midnightblue" points="140.53,-153.74 130.1,-155.62 139.42,-160.65 140.53,-153.74"/>
</g>
<!-- Node22&#45;&gt;Node14 -->
<g id="edge36" class="edge">
<title>Node22&#45;&gt;Node14</title>
<path fill="none" stroke="midnightblue" d="M570.56,-206.92C601.21,-200.01 635.61,-187.53 660,-165 678,-148.36 686.41,-120.53 690.17,-102.09"/>
<polygon fill="midnightblue" stroke="midnightblue" points="693.61,-102.7 691.92,-92.25 686.72,-101.48 693.61,-102.7"/>
</g>
<!-- Node22&#45;&gt;Node17 -->
<g id="edge39" class="edge">
<title>Node22&#45;&gt;Node17</title>
<path fill="none" stroke="midnightblue" d="M497.26,-206.93C494.05,-196.89 488.6,-179.75 484,-165 477.27,-143.42 469.67,-118.57 464.64,-102.05"/>
<polygon fill="midnightblue" stroke="midnightblue" points="467.86,-100.62 461.6,-92.07 461.16,-102.66 467.86,-100.62"/>
</g>
<!-- Node22&#45;&gt;Node18 -->
<g id="edge40" class="edge">
<title>Node22&#45;&gt;Node18</title>
<path fill="none" stroke="midnightblue" d="M465.9,-206.94C430.18,-197.7 372.62,-181.98 324,-165 322.09,-164.33 320.14,-163.62 318.17,-162.87"/>
<polygon fill="midnightblue" stroke="midnightblue" points="319.06,-159.46 308.47,-159.02 316.48,-165.97 319.06,-159.46"/>
</g>
<!-- Node22&#45;&gt;Node19 -->
<g id="edge41" class="edge">
<title>Node22&#45;&gt;Node19</title>
<path fill="none" stroke="midnightblue" d="M482.21,-206.87C459.38,-195.8 419.57,-176.49 393,-163.6"/>
<polygon fill="midnightblue" stroke="midnightblue" points="394.39,-160.38 383.87,-159.17 391.34,-166.68 394.39,-160.38"/>
</g>
<!-- Node22&#45;&gt;Node20 -->
<g id="edge42" class="edge">
<title>Node22&#45;&gt;Node20</title>
<path fill="none" stroke="midnightblue" d="M509.71,-206.73C519.72,-197.7 535.7,-183.27 548.96,-171.3"/>
<polygon fill="midnightblue" stroke="midnightblue" points="551.32,-173.89 556.39,-164.59 546.63,-168.69 551.32,-173.89"/>
</g>
<!-- Node23&#45;&gt;Node8 -->
<g id="edge46" class="edge">
<title>Node23&#45;&gt;Node8</title>
<path fill="none" stroke="midnightblue" d="M961.33,-335.48C977.66,-325.75 1004.6,-309.73 1023.91,-298.24"/>
<polygon fill="midnightblue" stroke="midnightblue" points="1025.89,-301.13 1032.7,-293.01 1022.32,-295.11 1025.89,-301.13"/>
</g>
<!-- Node25&#45;&gt;Node2 -->
<g id="edge49" class="edge">
<title>Node25&#45;&gt;Node2</title>
<path fill="none" stroke="midnightblue" d="M951.37,-447.42C1011.38,-416.96 1147.7,-344.11 1172,-299 1183.16,-278.28 1166.97,-254.93 1150.81,-238.54"/>
<polygon fill="midnightblue" stroke="midnightblue" points="1153.13,-235.92 1143.48,-231.54 1148.29,-240.98 1153.13,-235.92"/>
</g>
<!-- Node25&#45;&gt;Node7 -->
<g id="edge56" class="edge">
<title>Node25&#45;&gt;Node7</title>
<path fill="none" stroke="midnightblue" d="M864.07,-447.47C819.62,-436.9 759.53,-422.59 718.69,-412.87"/>
<polygon fill="midnightblue" stroke="midnightblue" points="719.28,-409.42 708.74,-410.51 717.66,-416.23 719.28,-409.42"/>
</g>
<!-- Node26 -->
<g id="node26" class="node">
<title>Node26</title>
<g id="a_node26"><a xlink:href="XalanMemMgrAutoPtr_8hpp.html" target="_top" xlink:title=" ">
<polygon fill="none" stroke="black" points="713.5,-268.5 713.5,-298.5 874.5,-298.5 874.5,-268.5 713.5,-268.5"/>
<text text-anchor="start" x="721.5" y="-286.5" font-family="Helvetica,sans-Serif" font-size="10.00">xalanc/Include/XalanMemMgr</text>
<text text-anchor="middle" x="794" y="-275.5" font-family="Helvetica,sans-Serif" font-size="10.00">AutoPtr.hpp</text>
</a>
</g>
</g>
<!-- Node25&#45;&gt;Node26 -->
<g id="edge50" class="edge">
<title>Node25&#45;&gt;Node26</title>
<path fill="none" stroke="midnightblue" d="M906.76,-447.39C885.48,-428.22 848.05,-392.06 824,-355 814.56,-340.45 806.96,-322.44 801.76,-308.26"/>
<polygon fill="midnightblue" stroke="midnightblue" points="805.03,-307 798.42,-298.72 798.43,-309.32 805.03,-307"/>
</g>
<!-- Node27 -->
<g id="node27" class="node">
<title>Node27</title>
<g id="a_node27"><a xlink:title=" ">
<polygon fill="none" stroke="#bfbfbf" points="1091,-391.5 1091,-410.5 1201,-410.5 1201,-391.5 1091,-391.5"/>
<text text-anchor="middle" x="1146" y="-398.5" font-family="Helvetica,sans-Serif" font-size="10.00">LocalMsgIndex.hpp</text>
</a>
</g>
</g>
<!-- Node25&#45;&gt;Node27 -->
<g id="edge57" class="edge">
<title>Node25&#45;&gt;Node27</title>
<path fill="none" stroke="midnightblue" d="M975.57,-447.47C1014.88,-436.99 1067.91,-422.84 1104.32,-413.12"/>
<polygon fill="midnightblue" stroke="midnightblue" points="1105.36,-416.47 1114.12,-410.51 1103.55,-409.7 1105.36,-416.47"/>
</g>
<!-- Node26&#45;&gt;Node2 -->
<g id="edge51" class="edge">
<title>Node26&#45;&gt;Node2</title>
<path fill="none" stroke="midnightblue" d="M865.63,-268.48C918.12,-258.2 989.46,-244.23 1044.19,-233.52"/>
<polygon fill="midnightblue" stroke="midnightblue" points="1045.07,-236.91 1054.21,-231.55 1043.73,-230.04 1045.07,-236.91"/>
</g>
<!-- Node26&#45;&gt;Node9 -->
<g id="edge54" class="edge">
<title>Node26&#45;&gt;Node9</title>
<path fill="none" stroke="midnightblue" d="M713.48,-276.69C567.81,-265.99 271.23,-243.21 225,-232 189.55,-223.4 182.88,-214.54 149,-201 108.23,-184.71 81.75,-201.27 57,-165 49.23,-153.62 49.76,-145.72 57,-134 71.1,-111.19 98.96,-98.34 121.85,-91.32"/>
<polygon fill="midnightblue" stroke="midnightblue" points="122.95,-94.64 131.63,-88.57 121.05,-87.91 122.95,-94.64"/>
</g>
<!-- Node26&#45;&gt;Node14 -->
<g id="edge53" class="edge">
<title>Node26&#45;&gt;Node14</title>
<path fill="none" stroke="midnightblue" d="M800.55,-268.43C812.57,-240.32 834.53,-176.3 807,-134 797.98,-120.14 759.15,-104.85 729.28,-94.76"/>
<polygon fill="midnightblue" stroke="midnightblue" points="730.15,-91.36 719.55,-91.55 727.95,-98.01 730.15,-91.36"/>
</g>
<!-- Node26&#45;&gt;Node15 -->
<g id="edge55" class="edge">
<title>Node26&#45;&gt;Node15</title>
<path fill="none" stroke="midnightblue" d="M782.72,-268.4C774.69,-258.36 763.87,-244.84 755.4,-234.25"/>
<polygon fill="midnightblue" stroke="midnightblue" points="757.94,-231.82 748.96,-226.19 752.47,-236.19 757.94,-231.82"/>
</g>
<!-- Node26&#45;&gt;Node20 -->
<g id="edge52" class="edge">
<title>Node26&#45;&gt;Node20</title>
<path fill="none" stroke="midnightblue" d="M794.47,-268.29C794.25,-250.13 791.03,-218.92 773,-201 756.77,-184.87 707.07,-172.31 661.15,-163.74"/>
<polygon fill="midnightblue" stroke="midnightblue" points="661.58,-160.26 651.12,-161.92 660.33,-167.15 661.58,-160.26"/>
</g>
</g>
</svg>
        <g id="navigator" transform="translate(0 0)" fill="#404254">
                <rect fill="#f2f5e9" fill-opacity="0.5" stroke="#606060" stroke-width=".5" x="0" y="0" width="60" height="60"/>
                <use id="zoomplus" xlink:href="#zoomPlus" x="17" y="9" onmousedown="handleZoom(evt,'in')"/>
                <use id="zoomminus" xlink:href="#zoomMin" x="42" y="9" onmousedown="handleZoom(evt,'out')"/>
                <use id="reset" xlink:href="#resetDef" x="30" y="36" onmousedown="handleReset()"/>
                <g id="arrowUp" xlink:href="#dirArrow" transform="translate(30 24)" onmousedown="handlePan(0,-1)">
                  <use xlink:href="#rim" fill="#404040">
                        <set attributeName="fill" to="#808080" begin="arrowUp.mouseover" end="arrowUp.mouseout"/>
                  </use>
                  <path fill="none" stroke="white" stroke-width="1.5" d="M0,-3.0v7 M-2.5,-0.5L0,-3.0L2.5,-0.5"/>
                </g>
                <g id="arrowRight" xlink:href="#dirArrow" transform="rotate(90) translate(36 -43)" onmousedown="handlePan(1,0)">
                  <use xlink:href="#rim" fill="#404040">
                        <set attributeName="fill" to="#808080" begin="arrowRight.mouseover" end="arrowRight.mouseout"/>
                  </use>
                  <path fill="none" stroke="white" stroke-width="1.5" d="M0,-3.0v7 M-2.5,-0.5L0,-3.0L2.5,-0.5"/>
                </g>
                <g id="arrowDown" xlink:href="#dirArrow" transform="rotate(180) translate(-30 -48)" onmousedown="handlePan(0,1)">
                  <use xlink:href="#rim" fill="#404040">
                        <set attributeName="fill" to="#808080" begin="arrowDown.mouseover" end="arrowDown.mouseout"/>
                  </use>
                  <path fill="none" stroke="white" stroke-width="1.5" d="M0,-3.0v7 M-2.5,-0.5L0,-3.0L2.5,-0.5"/>
                </g>
                <g id="arrowLeft" xlink:href="#dirArrow" transform="rotate(270) translate(-36 17)" onmousedown="handlePan(-1,0)">
                  <use xlink:href="#rim" fill="#404040">
                        <set attributeName="fill" to="#808080" begin="arrowLeft.mouseover" end="arrowLeft.mouseout"/>
                  </use>
                  <path fill="none" stroke="white" stroke-width="1.5" d="M0,-3.0v7 M-2.5,-0.5L0,-3.0L2.5,-0.5"/>
                </g>
        </g>
        <svg viewBox="0 0 15 15" width="100%" height="30px" preserveAspectRatio="xMaxYMin meet">
         <g id="arrow_out" transform="scale(0.3 0.3)">
          <a xlink:href="XalanInMemoryMessageLoader_8hpp__incl_org.svg" target="_base">
           <rect id="button" ry="5" rx="5" y="6" x="6" height="38" width="38"
                fill="#f2f5e9" fill-opacity="0.5" stroke="#606060" stroke-width="1.0"/>
           <path id="arrow"
             d="M 11.500037,31.436501 C 11.940474,20.09759 22.043105,11.32322 32.158766,21.979434 L 37.068811,17.246167 C 37.068811,17.246167 37.088388,32 37.088388,32 L 22.160133,31.978069 C 22.160133,31.978069 26.997745,27.140456 26.997745,27.140456 C 18.528582,18.264221 13.291696,25.230495 11.500037,31.436501 z"
             style="fill:#404040;"/>
          </a>
         </g>
        </svg>
</svg>
