<?xml version="1.0" encoding="UTF-8" standalone="no"?>
<!DOCTYPE svg PUBLIC "-//W3C//DTD SVG 1.1//EN"
 "http://www.w3.org/Graphics/SVG/1.1/DTD/svg11.dtd">
<!-- Generated by graphviz version 2.38.0 (20140413.2041)
 -->
<!-- Title: xalanc/PlatformSupport/XalanOutputStream.hpp Pages: 1 -->
<svg width="1327pt" height="743pt"
 viewBox="0.00 0.00 1327.00 743.00" xmlns="http://www.w3.org/2000/svg" xmlns:xlink="http://www.w3.org/1999/xlink">
<g id="graph0" class="graph" transform="scale(1 1) rotate(0) translate(4 739)">
<title>xalanc/PlatformSupport/XalanOutputStream.hpp</title>
<!-- Node1 -->
<g id="node1" class="node"><title>Node1</title>
<g id="a_node1"><a xlink:title=" ">
<polygon fill="#bfbfbf" stroke="black" points="497,-704.5 497,-734.5 619,-734.5 619,-704.5 497,-704.5"/>
<text text-anchor="start" x="505" y="-722.5" font-family="Helvetica,sans-Serif" font-size="10.00">xalanc/PlatformSupport</text>
<text text-anchor="middle" x="558" y="-711.5" font-family="Helvetica,sans-Serif" font-size="10.00">/XalanOutputStream.hpp</text>
</a>
</g>
</g>
<!-- Node2 -->
<g id="node2" class="node"><title>Node2</title>
<g id="a_node2"><a xlink:href="PlatformSupportDefinitions_8hpp.html" target="_top" xlink:title=" ">
<polygon fill="none" stroke="black" points="183.5,-369.5 183.5,-399.5 336.5,-399.5 336.5,-369.5 183.5,-369.5"/>
<text text-anchor="start" x="191.5" y="-387.5" font-family="Helvetica,sans-Serif" font-size="10.00">xalanc/PlatformSupport</text>
<text text-anchor="middle" x="260" y="-376.5" font-family="Helvetica,sans-Serif" font-size="10.00">/PlatformSupportDefinitions.hpp</text>
</a>
</g>
</g>
<!-- Node1&#45;&gt;Node2 -->
<g id="edge1" class="edge"><title>Node1&#45;&gt;Node2</title>
<path fill="none" stroke="midnightblue" d="M496.955,-716.892C352.168,-711.427 0,-687.729 0,-586.5 0,-586.5 0,-586.5 0,-517.5 0,-438.046 97.7312,-406.4 173.356,-393.807"/>
<polygon fill="midnightblue" stroke="midnightblue" points="174.065,-397.239 183.398,-392.224 172.974,-390.324 174.065,-397.239"/>
</g>
<!-- Node7 -->
<g id="node7" class="node"><title>Node7</title>
<g id="a_node7"><a xlink:href="XalanVector_8hpp.html" target="_top" xlink:title=" ">
<polygon fill="none" stroke="black" points="846,-201.5 846,-220.5 998,-220.5 998,-201.5 846,-201.5"/>
<text text-anchor="middle" x="922" y="-208.5" font-family="Helvetica,sans-Serif" font-size="10.00">xalanc/Include/XalanVector.hpp</text>
</a>
</g>
</g>
<!-- Node1&#45;&gt;Node7 -->
<g id="edge6" class="edge"><title>Node1&#45;&gt;Node7</title>
<path fill="none" stroke="midnightblue" d="M619.055,-718.918C724.131,-718.35 945.286,-711.486 1126,-668 1216.53,-646.216 1319,-679.612 1319,-586.5 1319,-586.5 1319,-586.5 1319,-517.5 1319,-341.173 1069.98,-252.52 966.388,-223.268"/>
<polygon fill="midnightblue" stroke="midnightblue" points="967.108,-219.836 956.537,-220.543 965.241,-226.583 967.108,-219.836"/>
</g>
<!-- Node16 -->
<g id="node16" class="node"><title>Node16</title>
<g id="a_node16"><a xlink:href="XalanDOMString_8hpp.html" target="_top" xlink:title=" ">
<polygon fill="none" stroke="black" points="784.5,-375 784.5,-394 971.5,-394 971.5,-375 784.5,-375"/>
<text text-anchor="middle" x="878" y="-382" font-family="Helvetica,sans-Serif" font-size="10.00">xalanc/XalanDOM/XalanDOMString.hpp</text>
</a>
</g>
</g>
<!-- Node1&#45;&gt;Node16 -->
<g id="edge20" class="edge"><title>Node1&#45;&gt;Node16</title>
<path fill="none" stroke="midnightblue" d="M619.019,-713.785C793.325,-699.507 1281,-653.567 1281,-586.5 1281,-586.5 1281,-586.5 1281,-517.5 1281,-450.523 1077.43,-412.073 959.656,-395.433"/>
<polygon fill="midnightblue" stroke="midnightblue" points="959.971,-391.943 949.584,-394.033 959.007,-398.876 959.971,-391.943"/>
</g>
<!-- Node24 -->
<g id="node24" class="node"><title>Node24</title>
<g id="a_node24"><a xlink:href="XalanTranscodingServices_8hpp.html" target="_top" xlink:title=" ">
<polygon fill="none" stroke="black" points="482.5,-637.5 482.5,-667.5 633.5,-667.5 633.5,-637.5 482.5,-637.5"/>
<text text-anchor="start" x="490.5" y="-655.5" font-family="Helvetica,sans-Serif" font-size="10.00">xalanc/PlatformSupport</text>
<text text-anchor="middle" x="558" y="-644.5" font-family="Helvetica,sans-Serif" font-size="10.00">/XalanTranscodingServices.hpp</text>
</a>
</g>
</g>
<!-- Node1&#45;&gt;Node24 -->
<g id="edge48" class="edge"><title>Node1&#45;&gt;Node24</title>
<path fill="none" stroke="midnightblue" d="M558,-704.396C558,-696.645 558,-686.812 558,-677.86"/>
<polygon fill="midnightblue" stroke="midnightblue" points="561.5,-677.576 558,-667.577 554.5,-677.577 561.5,-677.576"/>
</g>
<!-- Node31 -->
<g id="node31" class="node"><title>Node31</title>
<g id="a_node31"><a xlink:href="XSLException_8hpp.html" target="_top" xlink:title=" ">
<polygon fill="none" stroke="black" points="110,-570.5 110,-600.5 228,-600.5 228,-570.5 110,-570.5"/>
<text text-anchor="start" x="118" y="-588.5" font-family="Helvetica,sans-Serif" font-size="10.00">xalanc/PlatformSupport</text>
<text text-anchor="middle" x="169" y="-577.5" font-family="Helvetica,sans-Serif" font-size="10.00">/XSLException.hpp</text>
</a>
</g>
</g>
<!-- Node1&#45;&gt;Node31 -->
<g id="edge76" class="edge"><title>Node1&#45;&gt;Node31</title>
<path fill="none" stroke="midnightblue" d="M516.738,-704.499C445.108,-680.192 297.962,-630.261 220.032,-603.817"/>
<polygon fill="midnightblue" stroke="midnightblue" points="221.018,-600.455 210.424,-600.556 218.769,-607.084 221.018,-600.455"/>
</g>
<!-- Node3 -->
<g id="node3" class="node"><title>Node3</title>
<g id="a_node3"><a xlink:href="PlatformDefinitions_8hpp.html" target="_top" xlink:title=" ">
<polygon fill="none" stroke="black" points="359,-73 359,-92 541,-92 541,-73 359,-73"/>
<text text-anchor="middle" x="450" y="-80" font-family="Helvetica,sans-Serif" font-size="10.00">xalanc/Include/PlatformDefinitions.hpp</text>
</a>
</g>
</g>
<!-- Node2&#45;&gt;Node3 -->
<g id="edge2" class="edge"><title>Node2&#45;&gt;Node3</title>
<path fill="none" stroke="midnightblue" d="M260,-369.275C260,-347.476 260,-304.495 260,-268 260,-268 260,-268 260,-210 260,-143.644 341.288,-109.973 397.525,-94.6179"/>
<polygon fill="midnightblue" stroke="midnightblue" points="398.57,-97.9622 407.36,-92.0471 396.8,-91.1897 398.57,-97.9622"/>
</g>
<!-- Node4 -->
<g id="node4" class="node"><title>Node4</title>
<g id="a_node4"><a xlink:title=" ">
<polygon fill="none" stroke="#bfbfbf" points="248,-0.5 248,-30.5 356,-30.5 356,-0.5 248,-0.5"/>
<text text-anchor="start" x="256" y="-18.5" font-family="Helvetica,sans-Serif" font-size="10.00">xercesc/util/Xerces</text>
<text text-anchor="middle" x="302" y="-7.5" font-family="Helvetica,sans-Serif" font-size="10.00">_autoconf_config.hpp</text>
</a>
</g>
</g>
<!-- Node3&#45;&gt;Node4 -->
<g id="edge3" class="edge"><title>Node3&#45;&gt;Node4</title>
<path fill="none" stroke="midnightblue" d="M430.347,-72.8685C408.235,-63.1572 371.695,-47.1092 343.246,-34.6148"/>
<polygon fill="midnightblue" stroke="midnightblue" points="344.504,-31.3447 333.941,-30.5281 341.689,-37.7539 344.504,-31.3447"/>
</g>
<!-- Node5 -->
<g id="node5" class="node"><title>Node5</title>
<g id="a_node5"><a xlink:title=" ">
<polygon fill="none" stroke="#bfbfbf" points="374.5,-6 374.5,-25 525.5,-25 525.5,-6 374.5,-6"/>
<text text-anchor="middle" x="450" y="-13" font-family="Helvetica,sans-Serif" font-size="10.00">xercesc/util/XercesVersion.hpp</text>
</a>
</g>
</g>
<!-- Node3&#45;&gt;Node5 -->
<g id="edge4" class="edge"><title>Node3&#45;&gt;Node5</title>
<path fill="none" stroke="midnightblue" d="M450,-72.7338C450,-63.1826 450,-47.6183 450,-35.2829"/>
<polygon fill="midnightblue" stroke="midnightblue" points="453.5,-35.1273 450,-25.1273 446.5,-35.1273 453.5,-35.1273"/>
</g>
<!-- Node6 -->
<g id="node6" class="node"><title>Node6</title>
<g id="a_node6"><a xlink:href="XalanVersion_8hpp.html" target="_top" xlink:title=" ">
<polygon fill="none" stroke="black" points="544,-6 544,-25 636,-25 636,-6 544,-6"/>
<text text-anchor="middle" x="590" y="-13" font-family="Helvetica,sans-Serif" font-size="10.00">XalanVersion.hpp</text>
</a>
</g>
</g>
<!-- Node3&#45;&gt;Node6 -->
<g id="edge5" class="edge"><title>Node3&#45;&gt;Node6</title>
<path fill="none" stroke="midnightblue" d="M468.591,-72.8685C492.544,-61.7476 534.395,-42.3167 562.154,-29.4286"/>
<polygon fill="midnightblue" stroke="midnightblue" points="563.736,-32.5529 571.332,-25.1672 560.788,-26.2038 563.736,-32.5529"/>
</g>
<!-- Node7&#45;&gt;Node3 -->
<g id="edge7" class="edge"><title>Node7&#45;&gt;Node3</title>
<path fill="none" stroke="midnightblue" d="M912.181,-201.42C901.881,-192.4 885.24,-177.773 871,-165 855.777,-151.346 855.549,-142.609 837,-134 787.805,-111.169 648.805,-97.1443 551.552,-89.8401"/>
<polygon fill="midnightblue" stroke="midnightblue" points="551.62,-86.3357 541.389,-89.0898 551.104,-93.3167 551.62,-86.3357"/>
</g>
<!-- Node8 -->
<g id="node8" class="node"><title>Node8</title>
<g id="a_node8"><a xlink:title=" ">
<polygon fill="none" stroke="#bfbfbf" points="730,-73 730,-92 778,-92 778,-73 730,-73"/>
<text text-anchor="middle" x="754" y="-80" font-family="Helvetica,sans-Serif" font-size="10.00">cstddef</text>
</a>
</g>
</g>
<!-- Node7&#45;&gt;Node8 -->
<g id="edge8" class="edge"><title>Node7&#45;&gt;Node8</title>
<path fill="none" stroke="midnightblue" d="M918.207,-201.299C911.063,-185.816 894.215,-153.302 871,-134 846.628,-113.737 812.893,-100.338 787.907,-92.466"/>
<polygon fill="midnightblue" stroke="midnightblue" points="788.71,-89.0525 778.125,-89.5237 786.693,-95.7558 788.71,-89.0525"/>
</g>
<!-- Node9 -->
<g id="node9" class="node"><title>Node9</title>
<g id="a_node9"><a xlink:title=" ">
<polygon fill="none" stroke="#bfbfbf" points="516,-140 516,-159 572,-159 572,-140 516,-140"/>
<text text-anchor="middle" x="544" y="-147" font-family="Helvetica,sans-Serif" font-size="10.00">algorithm</text>
</a>
</g>
</g>
<!-- Node7&#45;&gt;Node9 -->
<g id="edge9" class="edge"><title>Node7&#45;&gt;Node9</title>
<path fill="none" stroke="midnightblue" d="M867.842,-201.475C790.526,-189.305 650.391,-167.247 582.682,-156.589"/>
<polygon fill="midnightblue" stroke="midnightblue" points="582.88,-153.077 572.457,-154.979 581.792,-159.992 582.88,-153.077"/>
</g>
<!-- Node10 -->
<g id="node10" class="node"><title>Node10</title>
<g id="a_node10"><a xlink:title=" ">
<polygon fill="none" stroke="#bfbfbf" points="1161.5,-73 1161.5,-92 1210.5,-92 1210.5,-73 1161.5,-73"/>
<text text-anchor="middle" x="1186" y="-80" font-family="Helvetica,sans-Serif" font-size="10.00">cassert</text>
</a>
</g>
</g>
<!-- Node7&#45;&gt;Node10 -->
<g id="edge10" class="edge"><title>Node7&#45;&gt;Node10</title>
<path fill="none" stroke="midnightblue" d="M998.086,-201.519C1052.63,-194.157 1120.32,-181.994 1143,-165 1163.76,-149.442 1175.47,-120.889 1181.27,-102.049"/>
<polygon fill="midnightblue" stroke="midnightblue" points="1184.69,-102.825 1184.03,-92.2507 1177.95,-100.931 1184.69,-102.825"/>
</g>
<!-- Node11 -->
<g id="node11" class="node"><title>Node11</title>
<g id="a_node11"><a xlink:title=" ">
<polygon fill="none" stroke="#bfbfbf" points="913,-73 913,-92 947,-92 947,-73 913,-73"/>
<text text-anchor="middle" x="930" y="-80" font-family="Helvetica,sans-Serif" font-size="10.00">new</text>
</a>
</g>
</g>
<!-- Node7&#45;&gt;Node11 -->
<g id="edge11" class="edge"><title>Node7&#45;&gt;Node11</title>
<path fill="none" stroke="midnightblue" d="M922.55,-201.305C923.834,-180.994 927.056,-130.053 928.813,-102.277"/>
<polygon fill="midnightblue" stroke="midnightblue" points="932.308,-102.457 929.446,-92.2557 925.322,-102.015 932.308,-102.457"/>
</g>
<!-- Node12 -->
<g id="node12" class="node"><title>Node12</title>
<g id="a_node12"><a xlink:title=" ">
<polygon fill="none" stroke="#bfbfbf" points="781.5,-140 781.5,-159 828.5,-159 828.5,-140 781.5,-140"/>
<text text-anchor="middle" x="805" y="-147" font-family="Helvetica,sans-Serif" font-size="10.00">iterator</text>
</a>
</g>
</g>
<!-- Node7&#45;&gt;Node12 -->
<g id="edge12" class="edge"><title>Node7&#45;&gt;Node12</title>
<path fill="none" stroke="midnightblue" d="M905.237,-201.475C885.775,-191.578 853.455,-175.142 830.789,-163.615"/>
<polygon fill="midnightblue" stroke="midnightblue" points="832.232,-160.422 821.732,-159.009 829.059,-166.662 832.232,-160.422"/>
</g>
<!-- Node13 -->
<g id="node13" class="node"><title>Node13</title>
<g id="a_node13"><a xlink:title=" ">
<polygon fill="none" stroke="#bfbfbf" points="704.5,-140 704.5,-159 763.5,-159 763.5,-140 704.5,-140"/>
<text text-anchor="middle" x="734" y="-147" font-family="Helvetica,sans-Serif" font-size="10.00">stdexcept</text>
</a>
</g>
</g>
<!-- Node7&#45;&gt;Node13 -->
<g id="edge13" class="edge"><title>Node7&#45;&gt;Node13</title>
<path fill="none" stroke="midnightblue" d="M891.052,-201.431C860.575,-192.824 812.796,-178.882 772,-165 769.744,-164.232 767.422,-163.415 765.091,-162.574"/>
<polygon fill="midnightblue" stroke="midnightblue" points="766.197,-159.251 755.603,-159.057 763.763,-165.815 766.197,-159.251"/>
</g>
<!-- Node14 -->
<g id="node14" class="node"><title>Node14</title>
<g id="a_node14"><a xlink:href="XalanMemoryManagement_8hpp.html" target="_top" xlink:title=" ">
<polygon fill="none" stroke="black" points="961,-134.5 961,-164.5 1101,-164.5 1101,-134.5 961,-134.5"/>
<text text-anchor="start" x="969" y="-152.5" font-family="Helvetica,sans-Serif" font-size="10.00">xalanc/Include/XalanMemory</text>
<text text-anchor="middle" x="1031" y="-141.5" font-family="Helvetica,sans-Serif" font-size="10.00">Management.hpp</text>
</a>
</g>
</g>
<!-- Node7&#45;&gt;Node14 -->
<g id="edge14" class="edge"><title>Node7&#45;&gt;Node14</title>
<path fill="none" stroke="midnightblue" d="M937.617,-201.475C952.862,-193.153 976.578,-180.207 996.294,-169.445"/>
<polygon fill="midnightblue" stroke="midnightblue" points="998.21,-172.386 1005.31,-164.523 994.856,-166.242 998.21,-172.386"/>
</g>
<!-- Node14&#45;&gt;Node3 -->
<g id="edge15" class="edge"><title>Node14&#45;&gt;Node3</title>
<path fill="none" stroke="midnightblue" d="M960.918,-140.659C854.423,-128.745 652.055,-106.105 536.538,-93.1815"/>
<polygon fill="midnightblue" stroke="midnightblue" points="536.648,-89.6721 526.321,-92.0385 535.869,-96.6287 536.648,-89.6721"/>
</g>
<!-- Node14&#45;&gt;Node8 -->
<g id="edge17" class="edge"><title>Node14&#45;&gt;Node8</title>
<path fill="none" stroke="midnightblue" d="M971.236,-134.476C915.315,-121.354 833.749,-102.214 788.134,-91.5098"/>
<polygon fill="midnightblue" stroke="midnightblue" points="788.693,-88.046 778.158,-89.1689 787.094,-94.8609 788.693,-88.046"/>
</g>
<!-- Node14&#45;&gt;Node10 -->
<g id="edge16" class="edge"><title>Node14&#45;&gt;Node10</title>
<path fill="none" stroke="midnightblue" d="M1064.63,-134.396C1091.95,-122.941 1130.11,-106.938 1156.31,-95.9521"/>
<polygon fill="midnightblue" stroke="midnightblue" points="1157.85,-99.102 1165.71,-92.007 1155.14,-92.6466 1157.85,-99.102"/>
</g>
<!-- Node14&#45;&gt;Node11 -->
<g id="edge18" class="edge"><title>Node14&#45;&gt;Node11</title>
<path fill="none" stroke="midnightblue" d="M1009.08,-134.396C992.147,-123.496 968.813,-108.479 951.884,-97.5835"/>
<polygon fill="midnightblue" stroke="midnightblue" points="953.522,-94.4756 943.219,-92.007 949.734,-100.362 953.522,-94.4756"/>
</g>
<!-- Node15 -->
<g id="node15" class="node"><title>Node15</title>
<g id="a_node15"><a xlink:title=" ">
<polygon fill="none" stroke="#bfbfbf" points="965.5,-67.5 965.5,-97.5 1102.5,-97.5 1102.5,-67.5 965.5,-67.5"/>
<text text-anchor="start" x="973.5" y="-85.5" font-family="Helvetica,sans-Serif" font-size="10.00">xercesc/framework/Memory</text>
<text text-anchor="middle" x="1034" y="-74.5" font-family="Helvetica,sans-Serif" font-size="10.00">Manager.hpp</text>
</a>
</g>
</g>
<!-- Node14&#45;&gt;Node15 -->
<g id="edge19" class="edge"><title>Node14&#45;&gt;Node15</title>
<path fill="none" stroke="midnightblue" d="M1031.65,-134.396C1032.01,-126.645 1032.46,-116.812 1032.88,-107.86"/>
<polygon fill="midnightblue" stroke="midnightblue" points="1036.39,-107.727 1033.35,-97.5765 1029.39,-107.404 1036.39,-107.727"/>
</g>
<!-- Node16&#45;&gt;Node7 -->
<g id="edge45" class="edge"><title>Node16&#45;&gt;Node7</title>
<path fill="none" stroke="midnightblue" d="M880.242,-374.76C887.099,-348.036 907.885,-267.017 917.289,-230.362"/>
<polygon fill="midnightblue" stroke="midnightblue" points="920.719,-231.075 919.814,-220.519 913.939,-229.336 920.719,-231.075"/>
</g>
<!-- Node16&#45;&gt;Node10 -->
<g id="edge23" class="edge"><title>Node16&#45;&gt;Node10</title>
<path fill="none" stroke="midnightblue" d="M897.975,-374.942C951.784,-350.77 1100.39,-276.423 1170,-165 1181.97,-145.84 1185.28,-119.604 1186.05,-102.131"/>
<polygon fill="midnightblue" stroke="midnightblue" points="1189.55,-102.145 1186.25,-92.0769 1182.55,-102.004 1189.55,-102.145"/>
</g>
<!-- Node16&#45;&gt;Node14 -->
<g id="edge44" class="edge"><title>Node16&#45;&gt;Node14</title>
<path fill="none" stroke="midnightblue" d="M886.773,-374.779C909.585,-351.666 971.455,-286.135 1007,-221 1015,-206.349 1021.03,-188.546 1025.05,-174.497"/>
<polygon fill="midnightblue" stroke="midnightblue" points="1028.49,-175.166 1027.73,-164.599 1021.74,-173.337 1028.49,-175.166"/>
</g>
<!-- Node17 -->
<g id="node17" class="node"><title>Node17</title>
<g id="a_node17"><a xlink:href="XalanDOMDefinitions_8hpp.html" target="_top" xlink:title=" ">
<polygon fill="none" stroke="black" points="402,-257.5 402,-276.5 608,-276.5 608,-257.5 402,-257.5"/>
<text text-anchor="middle" x="505" y="-264.5" font-family="Helvetica,sans-Serif" font-size="10.00">xalanc/XalanDOM/XalanDOMDefinitions.hpp</text>
</a>
</g>
</g>
<!-- Node16&#45;&gt;Node17 -->
<g id="edge21" class="edge"><title>Node16&#45;&gt;Node17</title>
<path fill="none" stroke="midnightblue" d="M816.349,-374.972C768.185,-367.192 700.076,-353.71 643,-333 625.059,-326.49 622.155,-321.364 605,-313 581.471,-301.527 554.368,-289.397 534.319,-280.625"/>
<polygon fill="midnightblue" stroke="midnightblue" points="535.656,-277.39 525.09,-276.606 532.861,-283.808 535.656,-277.39"/>
</g>
<!-- Node18 -->
<g id="node18" class="node"><title>Node18</title>
<g id="a_node18"><a xlink:href="STLHelper_8hpp.html" target="_top" xlink:title=" ">
<polygon fill="none" stroke="black" points="450,-313.5 450,-332.5 596,-332.5 596,-313.5 450,-313.5"/>
<text text-anchor="middle" x="523" y="-320.5" font-family="Helvetica,sans-Serif" font-size="10.00">xalanc/Include/STLHelper.hpp</text>
</a>
</g>
</g>
<!-- Node16&#45;&gt;Node18 -->
<g id="edge24" class="edge"><title>Node16&#45;&gt;Node18</title>
<path fill="none" stroke="midnightblue" d="M827.137,-374.975C762.947,-364.216 652.652,-345.73 584,-334.224"/>
<polygon fill="midnightblue" stroke="midnightblue" points="584.21,-330.71 573.768,-332.509 583.052,-337.614 584.21,-330.71"/>
</g>
<!-- Node23 -->
<g id="node23" class="node"><title>Node23</title>
<g id="a_node23"><a xlink:href="XalanDOMException_8hpp.html" target="_top" xlink:title=" ">
<polygon fill="none" stroke="black" points="652.5,-313.5 652.5,-332.5 857.5,-332.5 857.5,-313.5 652.5,-313.5"/>
<text text-anchor="middle" x="755" y="-320.5" font-family="Helvetica,sans-Serif" font-size="10.00">xalanc/XalanDOM/XalanDOMException.hpp</text>
</a>
</g>
</g>
<!-- Node16&#45;&gt;Node23 -->
<g id="edge46" class="edge"><title>Node16&#45;&gt;Node23</title>
<path fill="none" stroke="midnightblue" d="M860.377,-374.975C839.826,-365.034 805.636,-348.495 781.793,-336.961"/>
<polygon fill="midnightblue" stroke="midnightblue" points="783.116,-333.713 772.59,-332.509 780.068,-340.015 783.116,-333.713"/>
</g>
<!-- Node17&#45;&gt;Node3 -->
<g id="edge22" class="edge"><title>Node17&#45;&gt;Node3</title>
<path fill="none" stroke="midnightblue" d="M481.212,-257.499C465.279,-250.413 445.537,-238.605 436,-221 415.215,-182.631 431.026,-129.386 441.927,-101.764"/>
<polygon fill="midnightblue" stroke="midnightblue" points="445.292,-102.79 445.912,-92.2128 438.832,-100.094 445.292,-102.79"/>
</g>
<!-- Node18&#45;&gt;Node3 -->
<g id="edge25" class="edge"><title>Node18&#45;&gt;Node3</title>
<path fill="none" stroke="midnightblue" d="M450.74,-313.424C428.582,-307.016 406.507,-295.969 393,-277 352.738,-220.457 408.988,-135.478 436.439,-99.9893"/>
<polygon fill="midnightblue" stroke="midnightblue" points="439.242,-102.088 442.721,-92.0803 433.761,-97.7337 439.242,-102.088"/>
</g>
<!-- Node18&#45;&gt;Node9 -->
<g id="edge26" class="edge"><title>Node18&#45;&gt;Node9</title>
<path fill="none" stroke="midnightblue" d="M596.161,-313.896C667.291,-305.263 766.298,-290.948 778,-277 783.713,-270.19 783.395,-264.064 778,-257 741.089,-208.674 701.133,-246.654 646,-221 614.038,-206.127 581.227,-181.433 561.734,-165.568"/>
<polygon fill="midnightblue" stroke="midnightblue" points="563.935,-162.847 554,-159.166 559.471,-168.239 563.935,-162.847"/>
</g>
<!-- Node19 -->
<g id="node19" class="node"><title>Node19</title>
<g id="a_node19"><a xlink:title=" ">
<polygon fill="none" stroke="#bfbfbf" points="288,-201.5 288,-220.5 346,-220.5 346,-201.5 288,-201.5"/>
<text text-anchor="middle" x="317" y="-208.5" font-family="Helvetica,sans-Serif" font-size="10.00">functional</text>
</a>
</g>
</g>
<!-- Node18&#45;&gt;Node19 -->
<g id="edge27" class="edge"><title>Node18&#45;&gt;Node19</title>
<path fill="none" stroke="midnightblue" d="M450.741,-313.467C420.519,-307.144 386.372,-296.142 360,-277 343.452,-264.989 331.456,-244.507 324.405,-229.741"/>
<polygon fill="midnightblue" stroke="midnightblue" points="327.597,-228.305 320.318,-220.606 321.207,-231.164 327.597,-228.305"/>
</g>
<!-- Node20 -->
<g id="node20" class="node"><title>Node20</title>
<g id="a_node20"><a xlink:href="XalanMap_8hpp.html" target="_top" xlink:title=" ">
<polygon fill="none" stroke="black" points="626.5,-257.5 626.5,-276.5 769.5,-276.5 769.5,-257.5 626.5,-257.5"/>
<text text-anchor="middle" x="698" y="-264.5" font-family="Helvetica,sans-Serif" font-size="10.00">xalanc/Include/XalanMap.hpp</text>
</a>
</g>
</g>
<!-- Node18&#45;&gt;Node20 -->
<g id="edge28" class="edge"><title>Node18&#45;&gt;Node20</title>
<path fill="none" stroke="midnightblue" d="M550.729,-313.444C580.426,-304.28 627.716,-289.688 660.669,-279.519"/>
<polygon fill="midnightblue" stroke="midnightblue" points="661.877,-282.809 670.4,-276.516 659.813,-276.121 661.877,-282.809"/>
</g>
<!-- Node20&#45;&gt;Node3 -->
<g id="edge29" class="edge"><title>Node20&#45;&gt;Node3</title>
<path fill="none" stroke="midnightblue" d="M635.243,-257.463C571.459,-248.193 480.426,-233.093 469,-221 438.464,-188.681 442.075,-131.523 446.473,-102.12"/>
<polygon fill="midnightblue" stroke="midnightblue" points="449.968,-102.445 448.188,-92.0003 443.066,-101.275 449.968,-102.445"/>
</g>
<!-- Node20&#45;&gt;Node7 -->
<g id="edge34" class="edge"><title>Node20&#45;&gt;Node7</title>
<path fill="none" stroke="midnightblue" d="M733.493,-257.444C772.324,-248.083 834.656,-233.056 876.918,-222.868"/>
<polygon fill="midnightblue" stroke="midnightblue" points="877.771,-226.263 886.673,-220.516 876.131,-219.458 877.771,-226.263"/>
</g>
<!-- Node20&#45;&gt;Node8 -->
<g id="edge30" class="edge"><title>Node20&#45;&gt;Node8</title>
<path fill="none" stroke="midnightblue" d="M652.044,-257.41C604.898,-245.755 534.66,-219.738 507,-165 500.786,-152.703 498.288,-144.674 507,-134 533.435,-101.613 657.956,-89.4411 719.456,-85.3489"/>
<polygon fill="midnightblue" stroke="midnightblue" points="720.057,-88.8181 729.818,-84.6966 719.618,-81.8319 720.057,-88.8181"/>
</g>
<!-- Node20&#45;&gt;Node9 -->
<g id="edge31" class="edge"><title>Node20&#45;&gt;Node9</title>
<path fill="none" stroke="midnightblue" d="M675.228,-257.386C656.192,-249.559 628.882,-236.83 608,-221 587.518,-205.472 568.307,-182.8 556.379,-167.39"/>
<polygon fill="midnightblue" stroke="midnightblue" points="559.062,-165.135 550.243,-159.264 553.476,-169.354 559.062,-165.135"/>
</g>
<!-- Node20&#45;&gt;Node19 -->
<g id="edge32" class="edge"><title>Node20&#45;&gt;Node19</title>
<path fill="none" stroke="midnightblue" d="M637.629,-257.444C558.757,-246.265 422.878,-227.006 356.208,-217.557"/>
<polygon fill="midnightblue" stroke="midnightblue" points="356.514,-214.065 346.121,-216.127 355.531,-220.996 356.514,-214.065"/>
</g>
<!-- Node21 -->
<g id="node21" class="node"><title>Node21</title>
<g id="a_node21"><a xlink:title=" ">
<polygon fill="none" stroke="#bfbfbf" points="478,-201.5 478,-220.5 518,-220.5 518,-201.5 478,-201.5"/>
<text text-anchor="middle" x="498" y="-208.5" font-family="Helvetica,sans-Serif" font-size="10.00">utility</text>
</a>
</g>
</g>
<!-- Node20&#45;&gt;Node21 -->
<g id="edge33" class="edge"><title>Node20&#45;&gt;Node21</title>
<path fill="none" stroke="midnightblue" d="M666.309,-257.444C628.353,-247.195 565.246,-230.156 528.038,-220.11"/>
<polygon fill="midnightblue" stroke="midnightblue" points="528.839,-216.701 518.273,-217.474 527.015,-223.459 528.839,-216.701"/>
</g>
<!-- Node22 -->
<g id="node22" class="node"><title>Node22</title>
<g id="a_node22"><a xlink:href="XalanList_8hpp.html" target="_top" xlink:title=" ">
<polygon fill="none" stroke="black" points="688,-201.5 688,-220.5 828,-220.5 828,-201.5 688,-201.5"/>
<text text-anchor="middle" x="758" y="-208.5" font-family="Helvetica,sans-Serif" font-size="10.00">xalanc/Include/XalanList.hpp</text>
</a>
</g>
</g>
<!-- Node20&#45;&gt;Node22 -->
<g id="edge35" class="edge"><title>Node20&#45;&gt;Node22</title>
<path fill="none" stroke="midnightblue" d="M707.64,-257.324C716.51,-249.341 729.875,-237.313 740.608,-227.653"/>
<polygon fill="midnightblue" stroke="midnightblue" points="743.093,-230.125 748.185,-220.834 738.41,-224.922 743.093,-230.125"/>
</g>
<!-- Node22&#45;&gt;Node3 -->
<g id="edge36" class="edge"><title>Node22&#45;&gt;Node3</title>
<path fill="none" stroke="midnightblue" d="M737.867,-201.383C716.727,-192.333 682.521,-177.681 653,-165 620.988,-151.249 613.26,-147.157 581,-134 547.779,-120.451 509.452,-105.787 482.873,-95.7701"/>
<polygon fill="midnightblue" stroke="midnightblue" points="483.889,-92.413 473.297,-92.1705 481.426,-98.9653 483.889,-92.413"/>
</g>
<!-- Node22&#45;&gt;Node8 -->
<g id="edge37" class="edge"><title>Node22&#45;&gt;Node8</title>
<path fill="none" stroke="midnightblue" d="M716.529,-201.497C696.414,-195.06 674.047,-183.952 662,-165 654.609,-153.373 654.983,-145.857 662,-134 674.521,-112.844 699.398,-99.961 720.13,-92.5067"/>
<polygon fill="midnightblue" stroke="midnightblue" points="721.509,-95.737 729.902,-89.271 719.309,-89.0919 721.509,-95.737"/>
</g>
<!-- Node22&#45;&gt;Node9 -->
<g id="edge38" class="edge"><title>Node22&#45;&gt;Node9</title>
<path fill="none" stroke="midnightblue" d="M722.2,-201.482C687.253,-192.967 632.674,-179.14 586,-165 583.232,-164.161 580.373,-163.257 577.51,-162.325"/>
<polygon fill="midnightblue" stroke="midnightblue" points="578.478,-158.958 567.884,-159.1 576.254,-165.595 578.478,-158.958"/>
</g>
<!-- Node22&#45;&gt;Node10 -->
<g id="edge39" class="edge"><title>Node22&#45;&gt;Node10</title>
<path fill="none" stroke="midnightblue" d="M828.085,-201.645C928.964,-189.534 1103.77,-168.193 1110,-165 1117.71,-161.048 1151.84,-122.728 1171.64,-100.068"/>
<polygon fill="midnightblue" stroke="midnightblue" points="1174.52,-102.094 1178.44,-92.2541 1169.24,-97.4976 1174.52,-102.094"/>
</g>
<!-- Node22&#45;&gt;Node11 -->
<g id="edge40" class="edge"><title>Node22&#45;&gt;Node11</title>
<path fill="none" stroke="midnightblue" d="M737.153,-201.427C722.422,-194.129 703.795,-182.091 695,-165 688.696,-152.749 686.341,-144.717 695,-134 720.877,-101.971 846.506,-89.3134 902.717,-85.1943"/>
<polygon fill="midnightblue" stroke="midnightblue" points="903.251,-88.6658 912.984,-84.4811 902.766,-81.6826 903.251,-88.6658"/>
</g>
<!-- Node22&#45;&gt;Node12 -->
<g id="edge41" class="edge"><title>Node22&#45;&gt;Node12</title>
<path fill="none" stroke="midnightblue" d="M764.734,-201.475C771.784,-192.55 783.035,-178.307 791.854,-167.143"/>
<polygon fill="midnightblue" stroke="midnightblue" points="794.826,-169.026 798.279,-159.009 789.333,-164.687 794.826,-169.026"/>
</g>
<!-- Node22&#45;&gt;Node13 -->
<g id="edge42" class="edge"><title>Node22&#45;&gt;Node13</title>
<path fill="none" stroke="midnightblue" d="M754.561,-201.475C751.104,-192.904 745.668,-179.427 741.254,-168.483"/>
<polygon fill="midnightblue" stroke="midnightblue" points="744.419,-166.974 737.432,-159.009 737.927,-169.592 744.419,-166.974"/>
</g>
<!-- Node22&#45;&gt;Node14 -->
<g id="edge43" class="edge"><title>Node22&#45;&gt;Node14</title>
<path fill="none" stroke="midnightblue" d="M797.114,-201.475C838.58,-192.438 905.065,-177.947 956.57,-166.722"/>
<polygon fill="midnightblue" stroke="midnightblue" points="957.634,-170.072 966.659,-164.523 956.143,-163.233 957.634,-170.072"/>
</g>
<!-- Node23&#45;&gt;Node17 -->
<g id="edge47" class="edge"><title>Node23&#45;&gt;Node17</title>
<path fill="none" stroke="midnightblue" d="M715.387,-313.444C671.775,-304.023 601.6,-288.866 554.422,-278.675"/>
<polygon fill="midnightblue" stroke="midnightblue" points="554.941,-275.207 544.428,-276.516 553.464,-282.049 554.941,-275.207"/>
</g>
<!-- Node24&#45;&gt;Node2 -->
<g id="edge49" class="edge"><title>Node24&#45;&gt;Node2</title>
<path fill="none" stroke="midnightblue" d="M518.141,-637.44C455.5,-613.142 334.983,-557.065 275,-467 263.813,-450.203 260.382,-427.344 259.566,-410.109"/>
<polygon fill="midnightblue" stroke="midnightblue" points="263.058,-409.642 259.353,-399.716 256.059,-409.786 263.058,-409.642"/>
</g>
<!-- Node24&#45;&gt;Node10 -->
<g id="edge50" class="edge"><title>Node24&#45;&gt;Node10</title>
<path fill="none" stroke="midnightblue" d="M633.667,-651.293C819.07,-646.415 1281,-605.969 1281,-324 1281,-324 1281,-324 1281,-210 1281,-161.425 1235.66,-119.59 1207.62,-98.367"/>
<polygon fill="midnightblue" stroke="midnightblue" points="1209.35,-95.2923 1199.21,-92.2181 1205.22,-100.944 1209.35,-95.2923"/>
</g>
<!-- Node25 -->
<g id="node25" class="node"><title>Node25</title>
<g id="a_node25"><a xlink:href="DOMStringHelper_8hpp.html" target="_top" xlink:title=" ">
<polygon fill="none" stroke="black" points="670,-503.5 670,-533.5 788,-533.5 788,-503.5 670,-503.5"/>
<text text-anchor="start" x="678" y="-521.5" font-family="Helvetica,sans-Serif" font-size="10.00">xalanc/PlatformSupport</text>
<text text-anchor="middle" x="729" y="-510.5" font-family="Helvetica,sans-Serif" font-size="10.00">/DOMStringHelper.hpp</text>
</a>
</g>
</g>
<!-- Node24&#45;&gt;Node25 -->
<g id="edge51" class="edge"><title>Node24&#45;&gt;Node25</title>
<path fill="none" stroke="midnightblue" d="M576.3,-637.374C606.641,-613.952 667.484,-566.986 702.516,-539.944"/>
<polygon fill="midnightblue" stroke="midnightblue" points="705.054,-542.406 710.832,-533.525 700.777,-536.865 705.054,-542.406"/>
</g>
<!-- Node24&#45;&gt;Node31 -->
<g id="edge70" class="edge"><title>Node24&#45;&gt;Node31</title>
<path fill="none" stroke="midnightblue" d="M482.204,-640.206C418.106,-630.459 323.893,-615.672 242,-601 240.748,-600.776 239.484,-600.547 238.212,-600.315"/>
<polygon fill="midnightblue" stroke="midnightblue" points="238.798,-596.864 228.327,-598.478 237.519,-603.746 238.798,-596.864"/>
</g>
<!-- Node25&#45;&gt;Node2 -->
<g id="edge52" class="edge"><title>Node25&#45;&gt;Node2</title>
<path fill="none" stroke="midnightblue" d="M669.869,-515.406C611.363,-511.402 520.456,-499.89 449,-467 429.201,-457.887 430.091,-446.517 411,-436 385.124,-421.745 354.535,-410.591 327.679,-402.433"/>
<polygon fill="midnightblue" stroke="midnightblue" points="328.551,-399.041 317.969,-399.563 326.567,-405.754 328.551,-399.041"/>
</g>
<!-- Node25&#45;&gt;Node7 -->
<g id="edge57" class="edge"><title>Node25&#45;&gt;Node7</title>
<path fill="none" stroke="midnightblue" d="M788.021,-517.069C871.78,-515.061 1018.69,-505.918 1052,-467 1096.5,-414.999 1082.09,-374.477 1052,-313 1031.22,-270.543 983.03,-240.789 951.52,-225.045"/>
<polygon fill="midnightblue" stroke="midnightblue" points="952.852,-221.802 942.325,-220.61 949.811,-228.107 952.852,-221.802"/>
</g>
<!-- Node25&#45;&gt;Node9 -->
<g id="edge53" class="edge"><title>Node25&#45;&gt;Node9</title>
<path fill="none" stroke="midnightblue" d="M788.217,-510.45C848.202,-502.317 935.895,-487.399 963,-467 1000.08,-439.098 1015.1,-412.519 999,-369 987.627,-338.256 977.992,-331.601 951,-313 845.92,-240.584 796.038,-271.873 679,-221 662.569,-213.858 659.779,-209.485 644,-201 619.564,-187.859 591.309,-173.682 571.079,-163.704"/>
<polygon fill="midnightblue" stroke="midnightblue" points="572.364,-160.436 561.845,-159.166 569.276,-166.718 572.364,-160.436"/>
</g>
<!-- Node25&#45;&gt;Node10 -->
<g id="edge54" class="edge"><title>Node25&#45;&gt;Node10</title>
<path fill="none" stroke="midnightblue" d="M788.204,-515.057C883.612,-510.273 1066.41,-497.359 1123,-467 1196.11,-427.779 1243,-406.968 1243,-324 1243,-324 1243,-324 1243,-210 1243,-167.469 1215.89,-123.431 1199.06,-100.196"/>
<polygon fill="midnightblue" stroke="midnightblue" points="1201.79,-97.9995 1192.99,-92.0954 1196.18,-102.197 1201.79,-97.9995"/>
</g>
<!-- Node25&#45;&gt;Node14 -->
<g id="edge59" class="edge"><title>Node25&#45;&gt;Node14</title>
<path fill="none" stroke="midnightblue" d="M788.048,-513.046C873.295,-505.92 1026.09,-490.34 1076,-467 1125.18,-444 1167,-439.794 1167,-385.5 1167,-385.5 1167,-385.5 1167,-266 1167,-218.682 1118.58,-186.709 1079.52,-168.617"/>
<polygon fill="midnightblue" stroke="midnightblue" points="1080.9,-165.398 1070.34,-164.532 1078.05,-171.794 1080.9,-165.398"/>
</g>
<!-- Node25&#45;&gt;Node16 -->
<g id="edge61" class="edge"><title>Node25&#45;&gt;Node16</title>
<path fill="none" stroke="midnightblue" d="M788.257,-507.272C813.396,-500.035 840.99,-487.757 859,-467 874.068,-449.634 877.767,-422.595 878.396,-404.478"/>
<polygon fill="midnightblue" stroke="midnightblue" points="881.897,-404.305 878.459,-394.284 874.897,-404.262 881.897,-404.305"/>
</g>
<!-- Node25&#45;&gt;Node18 -->
<g id="edge60" class="edge"><title>Node25&#45;&gt;Node18</title>
<path fill="none" stroke="midnightblue" d="M708.946,-503.443C695.18,-493.592 676.642,-479.928 661,-467 627.055,-438.945 618.59,-431.68 588,-400 569.073,-380.399 548.924,-356.268 536.164,-340.528"/>
<polygon fill="midnightblue" stroke="midnightblue" points="538.886,-338.327 529.891,-332.729 533.431,-342.714 538.886,-338.327"/>
</g>
<!-- Node25&#45;&gt;Node19 -->
<g id="edge55" class="edge"><title>Node25&#45;&gt;Node19</title>
<path fill="none" stroke="midnightblue" d="M692.685,-503.463C671.091,-494.409 643.594,-481.614 621,-467 603.271,-455.532 601.929,-448.618 585,-436 480.021,-357.755 416.195,-381.264 337,-277 326.744,-263.498 321.701,-244.689 319.25,-230.777"/>
<polygon fill="midnightblue" stroke="midnightblue" points="322.709,-230.247 317.789,-220.864 315.784,-231.268 322.709,-230.247"/>
</g>
<!-- Node25&#45;&gt;Node20 -->
<g id="edge58" class="edge"><title>Node25&#45;&gt;Node20</title>
<path fill="none" stroke="midnightblue" d="M788.36,-507.774C877.217,-490.424 1029.39,-448.291 980,-369 938.351,-302.139 847.26,-279.04 779.817,-271.324"/>
<polygon fill="midnightblue" stroke="midnightblue" points="779.939,-267.818 769.628,-270.253 779.207,-274.779 779.939,-267.818"/>
</g>
<!-- Node26 -->
<g id="node26" class="node"><title>Node26</title>
<g id="a_node26"><a xlink:title=" ">
<polygon fill="none" stroke="#bfbfbf" points="806,-442 806,-461 850,-461 850,-442 806,-442"/>
<text text-anchor="middle" x="828" y="-449" font-family="Helvetica,sans-Serif" font-size="10.00">iosfwd</text>
</a>
</g>
</g>
<!-- Node25&#45;&gt;Node26 -->
<g id="edge56" class="edge"><title>Node25&#45;&gt;Node26</title>
<path fill="none" stroke="midnightblue" d="M750.482,-503.396C767.084,-492.496 789.956,-477.479 806.55,-466.584"/>
<polygon fill="midnightblue" stroke="midnightblue" points="808.605,-469.421 815.043,-461.007 804.763,-463.57 808.605,-469.421"/>
</g>
<!-- Node27 -->
<g id="node27" class="node"><title>Node27</title>
<g id="a_node27"><a xlink:href="FormatterListener_8hpp.html" target="_top" xlink:title=" ">
<polygon fill="none" stroke="black" points="670,-436.5 670,-466.5 788,-466.5 788,-436.5 670,-436.5"/>
<text text-anchor="start" x="678" y="-454.5" font-family="Helvetica,sans-Serif" font-size="10.00">xalanc/PlatformSupport</text>
<text text-anchor="middle" x="729" y="-443.5" font-family="Helvetica,sans-Serif" font-size="10.00">/FormatterListener.hpp</text>
</a>
</g>
</g>
<!-- Node25&#45;&gt;Node27 -->
<g id="edge62" class="edge"><title>Node25&#45;&gt;Node27</title>
<path fill="none" stroke="midnightblue" d="M729,-503.396C729,-495.645 729,-485.812 729,-476.86"/>
<polygon fill="midnightblue" stroke="midnightblue" points="732.5,-476.576 729,-466.577 725.5,-476.577 732.5,-476.576"/>
</g>
<!-- Node29 -->
<g id="node29" class="node"><title>Node29</title>
<g id="a_node29"><a xlink:href="XalanUnicode_8hpp.html" target="_top" xlink:title=" ">
<polygon fill="none" stroke="black" points="458,-436.5 458,-466.5 576,-466.5 576,-436.5 458,-436.5"/>
<text text-anchor="start" x="466" y="-454.5" font-family="Helvetica,sans-Serif" font-size="10.00">xalanc/PlatformSupport</text>
<text text-anchor="middle" x="517" y="-443.5" font-family="Helvetica,sans-Serif" font-size="10.00">/XalanUnicode.hpp</text>
</a>
</g>
</g>
<!-- Node25&#45;&gt;Node29 -->
<g id="edge66" class="edge"><title>Node25&#45;&gt;Node29</title>
<path fill="none" stroke="midnightblue" d="M683.26,-503.476C650.91,-493.557 607.348,-480.201 572.929,-469.648"/>
<polygon fill="midnightblue" stroke="midnightblue" points="573.61,-466.196 563.023,-466.611 571.558,-472.889 573.61,-466.196"/>
</g>
<!-- Node30 -->
<g id="node30" class="node"><title>Node30</title>
<g id="a_node30"><a xlink:href="XalanXMLChar_8hpp.html" target="_top" xlink:title=" ">
<polygon fill="none" stroke="black" points="284,-436.5 284,-466.5 402,-466.5 402,-436.5 284,-436.5"/>
<text text-anchor="start" x="292" y="-454.5" font-family="Helvetica,sans-Serif" font-size="10.00">xalanc/PlatformSupport</text>
<text text-anchor="middle" x="343" y="-443.5" font-family="Helvetica,sans-Serif" font-size="10.00">/XalanXMLChar.hpp</text>
</a>
</g>
</g>
<!-- Node25&#45;&gt;Node30 -->
<g id="edge68" class="edge"><title>Node25&#45;&gt;Node30</title>
<path fill="none" stroke="midnightblue" d="M669.76,-508.594C606.735,-498.967 504.167,-482.863 416,-467 414.748,-466.775 413.485,-466.545 412.212,-466.313"/>
<polygon fill="midnightblue" stroke="midnightblue" points="412.8,-462.862 402.328,-464.471 411.518,-469.744 412.8,-462.862"/>
</g>
<!-- Node27&#45;&gt;Node2 -->
<g id="edge63" class="edge"><title>Node27&#45;&gt;Node2</title>
<path fill="none" stroke="midnightblue" d="M669.601,-442.268C588.028,-430.962 440.779,-410.555 346.836,-397.535"/>
<polygon fill="midnightblue" stroke="midnightblue" points="347.171,-394.048 336.785,-396.142 346.21,-400.982 347.171,-394.048"/>
</g>
<!-- Node27&#45;&gt;Node16 -->
<g id="edge65" class="edge"><title>Node27&#45;&gt;Node16</title>
<path fill="none" stroke="midnightblue" d="M761.331,-436.396C787.475,-424.991 823.949,-409.079 849.122,-398.098"/>
<polygon fill="midnightblue" stroke="midnightblue" points="850.733,-401.214 858.499,-394.007 847.934,-394.798 850.733,-401.214"/>
</g>
<!-- Node28 -->
<g id="node28" class="node"><title>Node28</title>
<g id="a_node28"><a xlink:title=" ">
<polygon fill="none" stroke="#bfbfbf" points="597.5,-375 597.5,-394 766.5,-394 766.5,-375 597.5,-375"/>
<text text-anchor="middle" x="682" y="-382" font-family="Helvetica,sans-Serif" font-size="10.00">xercesc/sax/DocumentHandler.hpp</text>
</a>
</g>
</g>
<!-- Node27&#45;&gt;Node28 -->
<g id="edge64" class="edge"><title>Node27&#45;&gt;Node28</title>
<path fill="none" stroke="midnightblue" d="M718.802,-436.396C711.618,-426.462 701.963,-413.108 694.344,-402.572"/>
<polygon fill="midnightblue" stroke="midnightblue" points="696.983,-400.247 688.287,-394.195 691.31,-404.349 696.983,-400.247"/>
</g>
<!-- Node29&#45;&gt;Node2 -->
<g id="edge67" class="edge"><title>Node29&#45;&gt;Node2</title>
<path fill="none" stroke="midnightblue" d="M461.551,-436.476C421.661,-426.387 367.708,-412.741 325.662,-402.107"/>
<polygon fill="midnightblue" stroke="midnightblue" points="326.345,-398.67 315.792,-399.611 324.629,-405.456 326.345,-398.67"/>
</g>
<!-- Node30&#45;&gt;Node2 -->
<g id="edge69" class="edge"><title>Node30&#45;&gt;Node2</title>
<path fill="none" stroke="midnightblue" d="M324.99,-436.396C313.57,-427.452 298.611,-415.737 285.924,-405.802"/>
<polygon fill="midnightblue" stroke="midnightblue" points="288.006,-402.987 277.975,-399.577 283.69,-408.498 288.006,-402.987"/>
</g>
<!-- Node31&#45;&gt;Node2 -->
<g id="edge71" class="edge"><title>Node31&#45;&gt;Node2</title>
<path fill="none" stroke="midnightblue" d="M139.486,-570.496C124.739,-561.987 107.96,-549.715 98,-534 74.5097,-496.936 59.6482,-471.087 86,-436 97.2277,-421.05 135.548,-409.095 173.378,-400.577"/>
<polygon fill="midnightblue" stroke="midnightblue" points="174.462,-403.924 183.489,-398.377 172.973,-397.084 174.462,-403.924"/>
</g>
<!-- Node31&#45;&gt;Node25 -->
<g id="edge72" class="edge"><title>Node31&#45;&gt;Node25</title>
<path fill="none" stroke="midnightblue" d="M228.135,-577.636C332.421,-565.532 548.477,-540.454 659.626,-527.552"/>
<polygon fill="midnightblue" stroke="midnightblue" points="660.192,-531.01 669.722,-526.38 659.385,-524.057 660.192,-531.01"/>
</g>
<!-- Node32 -->
<g id="node32" class="node"><title>Node32</title>
<g id="a_node32"><a xlink:href="XalanLocator_8hpp.html" target="_top" xlink:title=" ">
<polygon fill="none" stroke="black" points="107,-503.5 107,-533.5 225,-533.5 225,-503.5 107,-503.5"/>
<text text-anchor="start" x="115" y="-521.5" font-family="Helvetica,sans-Serif" font-size="10.00">xalanc/PlatformSupport</text>
<text text-anchor="middle" x="166" y="-510.5" font-family="Helvetica,sans-Serif" font-size="10.00">/XalanLocator.hpp</text>
</a>
</g>
</g>
<!-- Node31&#45;&gt;Node32 -->
<g id="edge73" class="edge"><title>Node31&#45;&gt;Node32</title>
<path fill="none" stroke="midnightblue" d="M168.349,-570.396C167.991,-562.645 167.537,-552.812 167.124,-543.86"/>
<polygon fill="midnightblue" stroke="midnightblue" points="170.607,-543.404 166.65,-533.577 163.615,-543.727 170.607,-543.404"/>
</g>
<!-- Node32&#45;&gt;Node2 -->
<g id="edge74" class="edge"><title>Node32&#45;&gt;Node2</title>
<path fill="none" stroke="midnightblue" d="M133.853,-503.336C119.175,-495.034 103.253,-482.997 95,-467 88.6833,-454.756 86.8063,-447.077 95,-436 113.327,-411.224 143.569,-398.206 173.19,-391.496"/>
<polygon fill="midnightblue" stroke="midnightblue" points="174.095,-394.884 183.193,-389.455 172.695,-388.025 174.095,-394.884"/>
</g>
<!-- Node33 -->
<g id="node33" class="node"><title>Node33</title>
<g id="a_node33"><a xlink:title=" ">
<polygon fill="none" stroke="#bfbfbf" points="104,-442 104,-461 228,-461 228,-442 104,-442"/>
<text text-anchor="middle" x="166" y="-449" font-family="Helvetica,sans-Serif" font-size="10.00">xercesc/sax/Locator.hpp</text>
</a>
</g>
</g>
<!-- Node32&#45;&gt;Node33 -->
<g id="edge75" class="edge"><title>Node32&#45;&gt;Node33</title>
<path fill="none" stroke="midnightblue" d="M166,-503.396C166,-494.064 166,-481.714 166,-471.517"/>
<polygon fill="midnightblue" stroke="midnightblue" points="169.5,-471.195 166,-461.195 162.5,-471.195 169.5,-471.195"/>
</g>
</g>
</svg>
