<?xml version="1.0" encoding="UTF-8" standalone="no"?>
<!DOCTYPE svg PUBLIC "-//W3C//DTD SVG 1.1//EN"
 "http://www.w3.org/Graphics/SVG/1.1/DTD/svg11.dtd">
<!-- Generated by graphviz version 2.38.0 (20140413.2041)
 -->
<!-- Title: xalanc/XMLSupport/XalanXMLSerializerFactory.hpp Pages: 1 -->
<svg width="444pt" height="229pt"
 viewBox="0.00 0.00 443.50 229.00" xmlns="http://www.w3.org/2000/svg" xmlns:xlink="http://www.w3.org/1999/xlink">
<g id="graph0" class="graph" transform="scale(1 1) rotate(0) translate(4 225)">
<title>xalanc/XMLSupport/XalanXMLSerializerFactory.hpp</title>
<!-- Node1 -->
<g id="node1" class="node"><title>Node1</title>
<g id="a_node1"><a xlink:title=" ">
<polygon fill="#bfbfbf" stroke="black" points="191,-190.5 191,-220.5 377,-220.5 377,-190.5 191,-190.5"/>
<text text-anchor="start" x="199" y="-208.5" font-family="Helvetica,sans-Serif" font-size="10.00">xalanc/XMLSupport/XalanXMLSerializer</text>
<text text-anchor="middle" x="284" y="-197.5" font-family="Helvetica,sans-Serif" font-size="10.00">Factory.hpp</text>
</a>
</g>
</g>
<!-- Node2 -->
<g id="node2" class="node"><title>Node2</title>
<g id="a_node2"><a xlink:href="XMLSupportDefinitions_8hpp.html" target="_top" xlink:title=" ">
<polygon fill="none" stroke="black" points="124,-123.5 124,-153.5 280,-153.5 280,-123.5 124,-123.5"/>
<text text-anchor="start" x="132" y="-141.5" font-family="Helvetica,sans-Serif" font-size="10.00">xalanc/XMLSupport/XMLSupport</text>
<text text-anchor="middle" x="202" y="-130.5" font-family="Helvetica,sans-Serif" font-size="10.00">Definitions.hpp</text>
</a>
</g>
</g>
<!-- Node1&#45;&gt;Node2 -->
<g id="edge1" class="edge"><title>Node1&#45;&gt;Node2</title>
<path fill="none" stroke="midnightblue" d="M266.207,-190.396C254.925,-181.452 240.146,-169.737 227.611,-159.802"/>
<polygon fill="midnightblue" stroke="midnightblue" points="229.769,-157.046 219.758,-153.577 225.42,-162.531 229.769,-157.046"/>
</g>
<!-- Node7 -->
<g id="node7" class="node"><title>Node7</title>
<g id="a_node7"><a xlink:title=" ">
<polygon fill="none" stroke="#bfbfbf" points="298.5,-123.5 298.5,-153.5 435.5,-153.5 435.5,-123.5 298.5,-123.5"/>
<text text-anchor="start" x="306.5" y="-141.5" font-family="Helvetica,sans-Serif" font-size="10.00">xercesc/framework/Memory</text>
<text text-anchor="middle" x="367" y="-130.5" font-family="Helvetica,sans-Serif" font-size="10.00">Manager.hpp</text>
</a>
</g>
</g>
<!-- Node1&#45;&gt;Node7 -->
<g id="edge6" class="edge"><title>Node1&#45;&gt;Node7</title>
<path fill="none" stroke="midnightblue" d="M302.01,-190.396C313.43,-181.452 328.389,-169.737 341.076,-159.802"/>
<polygon fill="midnightblue" stroke="midnightblue" points="343.31,-162.498 349.025,-153.577 338.994,-156.987 343.31,-162.498"/>
</g>
<!-- Node3 -->
<g id="node3" class="node"><title>Node3</title>
<g id="a_node3"><a xlink:href="PlatformDefinitions_8hpp.html" target="_top" xlink:title=" ">
<polygon fill="none" stroke="black" points="111,-67.5 111,-86.5 293,-86.5 293,-67.5 111,-67.5"/>
<text text-anchor="middle" x="202" y="-74.5" font-family="Helvetica,sans-Serif" font-size="10.00">xalanc/Include/PlatformDefinitions.hpp</text>
</a>
</g>
</g>
<!-- Node2&#45;&gt;Node3 -->
<g id="edge2" class="edge"><title>Node2&#45;&gt;Node3</title>
<path fill="none" stroke="midnightblue" d="M202,-123.399C202,-115.466 202,-105.458 202,-96.8583"/>
<polygon fill="midnightblue" stroke="midnightblue" points="205.5,-96.6577 202,-86.6578 198.5,-96.6578 205.5,-96.6577"/>
</g>
<!-- Node4 -->
<g id="node4" class="node"><title>Node4</title>
<g id="a_node4"><a xlink:title=" ">
<polygon fill="none" stroke="#bfbfbf" points="0,-0.5 0,-30.5 108,-30.5 108,-0.5 0,-0.5"/>
<text text-anchor="start" x="8" y="-18.5" font-family="Helvetica,sans-Serif" font-size="10.00">xercesc/util/Xerces</text>
<text text-anchor="middle" x="54" y="-7.5" font-family="Helvetica,sans-Serif" font-size="10.00">_autoconf_config.hpp</text>
</a>
</g>
</g>
<!-- Node3&#45;&gt;Node4 -->
<g id="edge3" class="edge"><title>Node3&#45;&gt;Node4</title>
<path fill="none" stroke="midnightblue" d="M180.795,-67.4751C159.346,-58.8518 125.548,-45.2641 98.2387,-34.2852"/>
<polygon fill="midnightblue" stroke="midnightblue" points="99.4645,-31.0058 88.8807,-30.523 96.8534,-37.5005 99.4645,-31.0058"/>
</g>
<!-- Node5 -->
<g id="node5" class="node"><title>Node5</title>
<g id="a_node5"><a xlink:title=" ">
<polygon fill="none" stroke="#bfbfbf" points="126.5,-6 126.5,-25 277.5,-25 277.5,-6 126.5,-6"/>
<text text-anchor="middle" x="202" y="-13" font-family="Helvetica,sans-Serif" font-size="10.00">xercesc/util/XercesVersion.hpp</text>
</a>
</g>
</g>
<!-- Node3&#45;&gt;Node5 -->
<g id="edge4" class="edge"><title>Node3&#45;&gt;Node5</title>
<path fill="none" stroke="midnightblue" d="M202,-67.4751C202,-59.0803 202,-45.9806 202,-35.1631"/>
<polygon fill="midnightblue" stroke="midnightblue" points="205.5,-35.0091 202,-25.0091 198.5,-35.0091 205.5,-35.0091"/>
</g>
<!-- Node6 -->
<g id="node6" class="node"><title>Node6</title>
<g id="a_node6"><a xlink:href="XalanVersion_8hpp.html" target="_top" xlink:title=" ">
<polygon fill="none" stroke="black" points="296,-6 296,-25 388,-25 388,-6 296,-6"/>
<text text-anchor="middle" x="342" y="-13" font-family="Helvetica,sans-Serif" font-size="10.00">XalanVersion.hpp</text>
</a>
</g>
</g>
<!-- Node3&#45;&gt;Node6 -->
<g id="edge5" class="edge"><title>Node3&#45;&gt;Node6</title>
<path fill="none" stroke="midnightblue" d="M222.059,-67.4751C245.762,-57.4013 285.406,-40.5525 312.583,-29.0023"/>
<polygon fill="midnightblue" stroke="midnightblue" points="314.144,-32.1417 321.979,-25.0091 311.406,-25.6994 314.144,-32.1417"/>
</g>
</g>
</svg>
