<?xml version="1.0" encoding="UTF-8" standalone="no"?>
<!DOCTYPE svg PUBLIC "-//W3C//DTD SVG 1.1//EN"
 "http://www.w3.org/Graphics/SVG/1.1/DTD/svg11.dtd">
<!-- Generated by graphviz version 2.43.0 (0)
 -->
<!-- Title: xalanc/XSLT/XalanAVTPartSimpleAllocator.hpp Pages: 1 -->
<svg width="1472pt" height="542pt"
 viewBox="0.00 0.00 1472.00 542.00" xmlns="http://www.w3.org/2000/svg" xmlns:xlink="http://www.w3.org/1999/xlink">
<g id="graph0" class="graph" transform="scale(1 1) rotate(0) translate(4 538)">
<title>xalanc/XSLT/XalanAVTPartSimpleAllocator.hpp</title>
<!-- Node1 -->
<g id="node1" class="node">
<title>Node1</title>
<g id="a_node1"><a xlink:title=" ">
<polygon fill="#bfbfbf" stroke="black" points="195,-503.5 195,-533.5 338,-533.5 338,-503.5 195,-503.5"/>
<text text-anchor="start" x="203" y="-521.5" font-family="Helvetica,sans-Serif" font-size="10.00">xalanc/XSLT/XalanAVTPart</text>
<text text-anchor="middle" x="266.5" y="-510.5" font-family="Helvetica,sans-Serif" font-size="10.00">SimpleAllocator.hpp</text>
</a>
</g>
</g>
<!-- Node2 -->
<g id="node2" class="node">
<title>Node2</title>
<g id="a_node2"><a xlink:href="XSLTDefinitions_8hpp.html" target="_top" xlink:title=" ">
<polygon fill="none" stroke="black" points="0,-324.5 0,-343.5 175,-343.5 175,-324.5 0,-324.5"/>
<text text-anchor="middle" x="87.5" y="-331.5" font-family="Helvetica,sans-Serif" font-size="10.00">xalanc/XSLT/XSLTDefinitions.hpp</text>
</a>
</g>
</g>
<!-- Node1&#45;&gt;Node2 -->
<g id="edge1" class="edge">
<title>Node1&#45;&gt;Node2</title>
<path fill="none" stroke="midnightblue" d="M264.25,-503.47C261.57,-488.86 256.29,-465.56 247.5,-447 231.82,-413.9 228.31,-402.62 199.5,-380 179.85,-364.57 154.2,-353.75 132.41,-346.6"/>
<polygon fill="midnightblue" stroke="midnightblue" points="133.3,-343.21 122.71,-343.56 131.21,-349.89 133.3,-343.21"/>
</g>
<!-- Node7 -->
<g id="node7" class="node">
<title>Node7</title>
<g id="a_node7"><a xlink:href="AVTPartSimple_8hpp.html" target="_top" xlink:title=" ">
<polygon fill="none" stroke="black" points="68.5,-447.5 68.5,-466.5 238.5,-466.5 238.5,-447.5 68.5,-447.5"/>
<text text-anchor="middle" x="153.5" y="-454.5" font-family="Helvetica,sans-Serif" font-size="10.00">xalanc/XSLT/AVTPartSimple.hpp</text>
</a>
</g>
</g>
<!-- Node1&#45;&gt;Node7 -->
<g id="edge6" class="edge">
<title>Node1&#45;&gt;Node7</title>
<path fill="none" stroke="midnightblue" d="M239.72,-503.4C221.44,-493.77 197.35,-481.09 179.29,-471.58"/>
<polygon fill="midnightblue" stroke="midnightblue" points="180.42,-468.22 169.94,-466.66 177.16,-474.41 180.42,-468.22"/>
</g>
<!-- Node26 -->
<g id="node26" class="node">
<title>Node26</title>
<g id="a_node26"><a xlink:href="ArenaAllocator_8hpp.html" target="_top" xlink:title=" ">
<polygon fill="none" stroke="black" points="882,-380.5 882,-410.5 1013,-410.5 1013,-380.5 882,-380.5"/>
<text text-anchor="start" x="890" y="-398.5" font-family="Helvetica,sans-Serif" font-size="10.00">xalanc/PlatformSupport</text>
<text text-anchor="middle" x="947.5" y="-387.5" font-family="Helvetica,sans-Serif" font-size="10.00">/ArenaAllocator.hpp</text>
</a>
</g>
</g>
<!-- Node1&#45;&gt;Node26 -->
<g id="edge51" class="edge">
<title>Node1&#45;&gt;Node26</title>
<path fill="none" stroke="midnightblue" d="M338.09,-504.78C467.56,-481.78 739.43,-433.47 871.83,-409.95"/>
<polygon fill="midnightblue" stroke="midnightblue" points="872.65,-413.35 881.89,-408.16 871.43,-406.46 872.65,-413.35"/>
</g>
<!-- Node3 -->
<g id="node3" class="node">
<title>Node3</title>
<g id="a_node3"><a xlink:href="PlatformDefinitions_8hpp.html" target="_top" xlink:title=" ">
<polygon fill="none" stroke="black" points="365.5,-73 365.5,-92 571.5,-92 571.5,-73 365.5,-73"/>
<text text-anchor="middle" x="468.5" y="-80" font-family="Helvetica,sans-Serif" font-size="10.00">xalanc/Include/PlatformDefinitions.hpp</text>
</a>
</g>
</g>
<!-- Node2&#45;&gt;Node3 -->
<g id="edge2" class="edge">
<title>Node2&#45;&gt;Node3</title>
<path fill="none" stroke="midnightblue" d="M98.88,-324.34C136.81,-295.64 262.77,-201.62 373.5,-134 396,-120.26 422.57,-106.32 441.88,-96.58"/>
<polygon fill="midnightblue" stroke="midnightblue" points="443.61,-99.62 450.99,-92.02 440.48,-93.36 443.61,-99.62"/>
</g>
<!-- Node4 -->
<g id="node4" class="node">
<title>Node4</title>
<g id="a_node4"><a xlink:title=" ">
<polygon fill="none" stroke="#bfbfbf" points="247.5,-0.5 247.5,-30.5 367.5,-30.5 367.5,-0.5 247.5,-0.5"/>
<text text-anchor="start" x="255.5" y="-18.5" font-family="Helvetica,sans-Serif" font-size="10.00">xercesc/util/Xerces</text>
<text text-anchor="middle" x="307.5" y="-7.5" font-family="Helvetica,sans-Serif" font-size="10.00">_autoconf_config.hpp</text>
</a>
</g>
</g>
<!-- Node3&#45;&gt;Node4 -->
<g id="edge3" class="edge">
<title>Node3&#45;&gt;Node4</title>
<path fill="none" stroke="midnightblue" d="M447.12,-72.87C422.86,-63.07 382.62,-46.83 351.56,-34.29"/>
<polygon fill="midnightblue" stroke="midnightblue" points="352.83,-31.03 342.25,-30.53 350.21,-37.52 352.83,-31.03"/>
</g>
<!-- Node5 -->
<g id="node5" class="node">
<title>Node5</title>
<g id="a_node5"><a xlink:title=" ">
<polygon fill="none" stroke="#bfbfbf" points="386,-6 386,-25 551,-25 551,-6 386,-6"/>
<text text-anchor="middle" x="468.5" y="-13" font-family="Helvetica,sans-Serif" font-size="10.00">xercesc/util/XercesVersion.hpp</text>
</a>
</g>
</g>
<!-- Node3&#45;&gt;Node5 -->
<g id="edge4" class="edge">
<title>Node3&#45;&gt;Node5</title>
<path fill="none" stroke="midnightblue" d="M468.5,-72.73C468.5,-63.18 468.5,-47.62 468.5,-35.28"/>
<polygon fill="midnightblue" stroke="midnightblue" points="472,-35.13 468.5,-25.13 465,-35.13 472,-35.13"/>
</g>
<!-- Node6 -->
<g id="node6" class="node">
<title>Node6</title>
<g id="a_node6"><a xlink:href="XalanVersion_8hpp.html" target="_top" xlink:title=" ">
<polygon fill="none" stroke="black" points="569,-6 569,-25 744,-25 744,-6 569,-6"/>
<text text-anchor="middle" x="656.5" y="-13" font-family="Helvetica,sans-Serif" font-size="10.00">xalanc/Include/XalanVersion.hpp</text>
</a>
</g>
</g>
<!-- Node3&#45;&gt;Node6 -->
<g id="edge5" class="edge">
<title>Node3&#45;&gt;Node6</title>
<path fill="none" stroke="midnightblue" d="M493.46,-72.87C526.42,-61.47 584.62,-41.35 621.83,-28.49"/>
<polygon fill="midnightblue" stroke="midnightblue" points="623.42,-31.64 631.73,-25.06 621.14,-25.02 623.42,-31.64"/>
</g>
<!-- Node7&#45;&gt;Node2 -->
<g id="edge7" class="edge">
<title>Node7&#45;&gt;Node2</title>
<path fill="none" stroke="midnightblue" d="M141.22,-447.43C130.47,-439.27 115.24,-426.04 106.5,-411 96.17,-393.21 91.41,-369.9 89.25,-353.81"/>
<polygon fill="midnightblue" stroke="midnightblue" points="92.69,-353.1 88.09,-343.56 85.74,-353.89 92.69,-353.1"/>
</g>
<!-- Node8 -->
<g id="node8" class="node">
<title>Node8</title>
<g id="a_node8"><a xlink:href="XalanDOMString_8hpp.html" target="_top" xlink:title=" ">
<polygon fill="none" stroke="black" points="382.5,-386 382.5,-405 590.5,-405 590.5,-386 382.5,-386"/>
<text text-anchor="middle" x="486.5" y="-393" font-family="Helvetica,sans-Serif" font-size="10.00">xalanc/XalanDOM/XalanDOMString.hpp</text>
</a>
</g>
</g>
<!-- Node7&#45;&gt;Node8 -->
<g id="edge8" class="edge">
<title>Node7&#45;&gt;Node8</title>
<path fill="none" stroke="midnightblue" d="M201.21,-447.48C261.3,-436.74 364.46,-418.31 428.88,-406.79"/>
<polygon fill="midnightblue" stroke="midnightblue" points="429.65,-410.21 438.88,-405.01 428.42,-403.32 429.65,-410.21"/>
</g>
<!-- Node25 -->
<g id="node25" class="node">
<title>Node25</title>
<g id="a_node25"><a xlink:href="AVTPart_8hpp.html" target="_top" xlink:title=" ">
<polygon fill="none" stroke="black" points="116,-386 116,-405 191,-405 191,-386 116,-386"/>
<text text-anchor="middle" x="153.5" y="-393" font-family="Helvetica,sans-Serif" font-size="10.00">AVTPart.hpp</text>
</a>
</g>
</g>
<!-- Node7&#45;&gt;Node25 -->
<g id="edge49" class="edge">
<title>Node7&#45;&gt;Node25</title>
<path fill="none" stroke="midnightblue" d="M153.5,-447.48C153.5,-439.08 153.5,-425.98 153.5,-415.16"/>
<polygon fill="midnightblue" stroke="midnightblue" points="157,-415.01 153.5,-405.01 150,-415.01 157,-415.01"/>
</g>
<!-- Node9 -->
<g id="node9" class="node">
<title>Node9</title>
<g id="a_node9"><a xlink:href="XalanDOMDefinitions_8hpp.html" target="_top" xlink:title=" ">
<polygon fill="none" stroke="black" points="226.5,-263 226.5,-282 458.5,-282 458.5,-263 226.5,-263"/>
<text text-anchor="middle" x="342.5" y="-270" font-family="Helvetica,sans-Serif" font-size="10.00">xalanc/XalanDOM/XalanDOMDefinitions.hpp</text>
</a>
</g>
</g>
<!-- Node8&#45;&gt;Node9 -->
<g id="edge9" class="edge">
<title>Node8&#45;&gt;Node9</title>
<path fill="none" stroke="midnightblue" d="M481.03,-385.84C471.75,-371.63 451.73,-343.05 429.5,-324 411.82,-308.85 388.96,-295.79 371.11,-286.74"/>
<polygon fill="midnightblue" stroke="midnightblue" points="372.29,-283.42 361.77,-282.14 369.2,-289.7 372.29,-283.42"/>
</g>
<!-- Node10 -->
<g id="node10" class="node">
<title>Node10</title>
<g id="a_node10"><a xlink:title=" ">
<polygon fill="none" stroke="#bfbfbf" points="816.5,-73 816.5,-92 868.5,-92 868.5,-73 816.5,-73"/>
<text text-anchor="middle" x="842.5" y="-80" font-family="Helvetica,sans-Serif" font-size="10.00">cassert</text>
</a>
</g>
</g>
<!-- Node8&#45;&gt;Node10 -->
<g id="edge11" class="edge">
<title>Node8&#45;&gt;Node10</title>
<path fill="none" stroke="midnightblue" d="M486.57,-385.87C487.39,-348.43 496.09,-199.03 581.5,-134 662.42,-72.38 709.62,-125.65 807.5,-98 809.94,-97.31 812.43,-96.5 814.91,-95.62"/>
<polygon fill="midnightblue" stroke="midnightblue" points="816.2,-98.88 824.26,-92 813.67,-92.35 816.2,-98.88"/>
</g>
<!-- Node11 -->
<g id="node11" class="node">
<title>Node11</title>
<g id="a_node11"><a xlink:href="STLHelper_8hpp.html" target="_top" xlink:title=" ">
<polygon fill="none" stroke="black" points="867.5,-324.5 867.5,-343.5 1027.5,-343.5 1027.5,-324.5 867.5,-324.5"/>
<text text-anchor="middle" x="947.5" y="-331.5" font-family="Helvetica,sans-Serif" font-size="10.00">xalanc/Include/STLHelper.hpp</text>
</a>
</g>
</g>
<!-- Node8&#45;&gt;Node11 -->
<g id="edge12" class="edge">
<title>Node8&#45;&gt;Node11</title>
<path fill="none" stroke="midnightblue" d="M552.55,-385.98C636.93,-375.08 782.67,-356.27 871.56,-344.8"/>
<polygon fill="midnightblue" stroke="midnightblue" points="872.1,-348.26 881.57,-343.51 871.21,-341.32 872.1,-348.26"/>
</g>
<!-- Node17 -->
<g id="node17" class="node">
<title>Node17</title>
<g id="a_node17"><a xlink:href="XalanVector_8hpp.html" target="_top" xlink:title=" ">
<polygon fill="none" stroke="black" points="697,-201.5 697,-220.5 866,-220.5 866,-201.5 697,-201.5"/>
<text text-anchor="middle" x="781.5" y="-208.5" font-family="Helvetica,sans-Serif" font-size="10.00">xalanc/Include/XalanVector.hpp</text>
</a>
</g>
</g>
<!-- Node8&#45;&gt;Node17 -->
<g id="edge46" class="edge">
<title>Node8&#45;&gt;Node17</title>
<path fill="none" stroke="midnightblue" d="M500.33,-385.94C547.27,-356.9 700.77,-261.94 758.91,-225.98"/>
<polygon fill="midnightblue" stroke="midnightblue" points="761.03,-228.78 767.7,-220.54 757.35,-222.82 761.03,-228.78"/>
</g>
<!-- Node21 -->
<g id="node21" class="node">
<title>Node21</title>
<g id="a_node21"><a xlink:href="XalanMemoryManagement_8hpp.html" target="_top" xlink:title=" ">
<polygon fill="none" stroke="black" points="590.5,-134.5 590.5,-164.5 748.5,-164.5 748.5,-134.5 590.5,-134.5"/>
<text text-anchor="start" x="598.5" y="-152.5" font-family="Helvetica,sans-Serif" font-size="10.00">xalanc/Include/XalanMemory</text>
<text text-anchor="middle" x="669.5" y="-141.5" font-family="Helvetica,sans-Serif" font-size="10.00">Management.hpp</text>
</a>
</g>
</g>
<!-- Node8&#45;&gt;Node21 -->
<g id="edge45" class="edge">
<title>Node8&#45;&gt;Node21</title>
<path fill="none" stroke="midnightblue" d="M489.17,-385.79C498.47,-356.58 531.97,-260.62 587.5,-201 599.3,-188.34 614.96,-177.66 629.44,-169.43"/>
<polygon fill="midnightblue" stroke="midnightblue" points="631.14,-172.48 638.25,-164.62 627.79,-166.34 631.14,-172.48"/>
</g>
<!-- Node24 -->
<g id="node24" class="node">
<title>Node24</title>
<g id="a_node24"><a xlink:href="XalanDOMException_8hpp.html" target="_top" xlink:title=" ">
<polygon fill="none" stroke="black" points="193,-324.5 193,-343.5 420,-343.5 420,-324.5 193,-324.5"/>
<text text-anchor="middle" x="306.5" y="-331.5" font-family="Helvetica,sans-Serif" font-size="10.00">xalanc/XalanDOM/XalanDOMException.hpp</text>
</a>
</g>
</g>
<!-- Node8&#45;&gt;Node24 -->
<g id="edge47" class="edge">
<title>Node8&#45;&gt;Node24</title>
<path fill="none" stroke="midnightblue" d="M460.71,-385.98C429.57,-375.68 377.02,-358.31 342.05,-346.75"/>
<polygon fill="midnightblue" stroke="midnightblue" points="342.84,-343.32 332.24,-343.51 340.64,-349.97 342.84,-343.32"/>
</g>
<!-- Node9&#45;&gt;Node3 -->
<g id="edge10" class="edge">
<title>Node9&#45;&gt;Node3</title>
<path fill="none" stroke="midnightblue" d="M344.07,-262.9C348.63,-239.87 363.67,-175.72 396.5,-134 408.7,-118.5 426.92,-105.78 441.98,-96.99"/>
<polygon fill="midnightblue" stroke="midnightblue" points="443.84,-99.96 450.87,-92.03 440.43,-93.85 443.84,-99.96"/>
</g>
<!-- Node11&#45;&gt;Node3 -->
<g id="edge13" class="edge">
<title>Node11&#45;&gt;Node3</title>
<path fill="none" stroke="midnightblue" d="M875.27,-324.48C790.05,-311.97 646.36,-283.03 538.5,-221 507.71,-203.29 497.78,-196.56 481.5,-165 471.36,-145.34 468.72,-119.76 468.23,-102.54"/>
<polygon fill="midnightblue" stroke="midnightblue" points="471.72,-102.11 468.16,-92.13 464.72,-102.16 471.72,-102.11"/>
</g>
<!-- Node12 -->
<g id="node12" class="node">
<title>Node12</title>
<g id="a_node12"><a xlink:title=" ">
<polygon fill="none" stroke="#bfbfbf" points="1149.5,-140 1149.5,-159 1213.5,-159 1213.5,-140 1149.5,-140"/>
<text text-anchor="middle" x="1181.5" y="-147" font-family="Helvetica,sans-Serif" font-size="10.00">algorithm</text>
</a>
</g>
</g>
<!-- Node11&#45;&gt;Node12 -->
<g id="edge14" class="edge">
<title>Node11&#45;&gt;Node12</title>
<path fill="none" stroke="midnightblue" d="M978.62,-324.44C1004.35,-316.72 1041.42,-304.12 1071.5,-288 1091.95,-277.04 1093.11,-268.07 1113.5,-257 1153.55,-235.26 1183.54,-258.45 1209.5,-221 1221.04,-204.35 1208.6,-182.26 1196.84,-167.27"/>
<polygon fill="midnightblue" stroke="midnightblue" points="1199.29,-164.76 1190.17,-159.37 1193.94,-169.27 1199.29,-164.76"/>
</g>
<!-- Node13 -->
<g id="node13" class="node">
<title>Node13</title>
<g id="a_node13"><a xlink:title=" ">
<polygon fill="none" stroke="#bfbfbf" points="1135,-201.5 1135,-220.5 1200,-220.5 1200,-201.5 1135,-201.5"/>
<text text-anchor="middle" x="1167.5" y="-208.5" font-family="Helvetica,sans-Serif" font-size="10.00">functional</text>
</a>
</g>
</g>
<!-- Node11&#45;&gt;Node13 -->
<g id="edge15" class="edge">
<title>Node11&#45;&gt;Node13</title>
<path fill="none" stroke="midnightblue" d="M966.72,-324.35C985.06,-315.85 1013.27,-302.12 1036.5,-288 1056.63,-275.76 1059.4,-269.29 1079.5,-257 1099.02,-245.07 1122.07,-233.36 1139.69,-224.88"/>
<polygon fill="midnightblue" stroke="midnightblue" points="1141.33,-227.97 1148.86,-220.52 1138.32,-221.65 1141.33,-227.97"/>
</g>
<!-- Node14 -->
<g id="node14" class="node">
<title>Node14</title>
<g id="a_node14"><a xlink:href="XalanMap_8hpp.html" target="_top" xlink:title=" ">
<polygon fill="none" stroke="black" points="867.5,-263 867.5,-282 1027.5,-282 1027.5,-263 867.5,-263"/>
<text text-anchor="middle" x="947.5" y="-270" font-family="Helvetica,sans-Serif" font-size="10.00">xalanc/Include/XalanMap.hpp</text>
</a>
</g>
</g>
<!-- Node11&#45;&gt;Node14 -->
<g id="edge16" class="edge">
<title>Node11&#45;&gt;Node14</title>
<path fill="none" stroke="midnightblue" d="M947.5,-324.48C947.5,-316.08 947.5,-302.98 947.5,-292.16"/>
<polygon fill="midnightblue" stroke="midnightblue" points="951,-292.01 947.5,-282.01 944,-292.01 951,-292.01"/>
</g>
<!-- Node14&#45;&gt;Node3 -->
<g id="edge17" class="edge">
<title>Node14&#45;&gt;Node3</title>
<path fill="none" stroke="midnightblue" d="M867.34,-270.54C792.63,-267.28 679.27,-256.22 587.5,-221 545.95,-205.06 533.05,-199.13 504.5,-165 488.8,-146.23 478.76,-119.54 473.38,-101.89"/>
<polygon fill="midnightblue" stroke="midnightblue" points="476.73,-100.87 470.62,-92.21 469.99,-102.79 476.73,-100.87"/>
</g>
<!-- Node14&#45;&gt;Node12 -->
<g id="edge19" class="edge">
<title>Node14&#45;&gt;Node12</title>
<path fill="none" stroke="midnightblue" d="M965.27,-262.91C985.69,-252.99 1020.16,-236.1 1049.5,-221 1087.15,-201.63 1130.37,-178.35 1156.8,-163.99"/>
<polygon fill="midnightblue" stroke="midnightblue" points="1158.62,-166.98 1165.73,-159.12 1155.28,-160.83 1158.62,-166.98"/>
</g>
<!-- Node14&#45;&gt;Node13 -->
<g id="edge20" class="edge">
<title>Node14&#45;&gt;Node13</title>
<path fill="none" stroke="midnightblue" d="M979.02,-262.98C1017.74,-252.5 1083.52,-234.71 1126.24,-223.16"/>
<polygon fill="midnightblue" stroke="midnightblue" points="1127.3,-226.5 1136.04,-220.51 1125.47,-219.74 1127.3,-226.5"/>
</g>
<!-- Node15 -->
<g id="node15" class="node">
<title>Node15</title>
<g id="a_node15"><a xlink:title=" ">
<polygon fill="none" stroke="#bfbfbf" points="1095,-73 1095,-92 1148,-92 1148,-73 1095,-73"/>
<text text-anchor="middle" x="1121.5" y="-80" font-family="Helvetica,sans-Serif" font-size="10.00">cstddef</text>
</a>
</g>
</g>
<!-- Node14&#45;&gt;Node15 -->
<g id="edge18" class="edge">
<title>Node14&#45;&gt;Node15</title>
<path fill="none" stroke="midnightblue" d="M971.38,-262.97C998.31,-253.25 1043.32,-236.66 1081.5,-221 1101.75,-212.69 1106.24,-209.29 1126.5,-201 1168.67,-183.74 1196.54,-202.45 1222.5,-165 1230.35,-153.68 1229.74,-145.72 1222.5,-134 1208.49,-111.34 1180.9,-98.51 1158.09,-91.45"/>
<polygon fill="midnightblue" stroke="midnightblue" points="1158.91,-88.05 1148.33,-88.69 1157,-94.78 1158.91,-88.05"/>
</g>
<!-- Node16 -->
<g id="node16" class="node">
<title>Node16</title>
<g id="a_node16"><a xlink:title=" ">
<polygon fill="none" stroke="#bfbfbf" points="596,-201.5 596,-220.5 641,-220.5 641,-201.5 596,-201.5"/>
<text text-anchor="middle" x="618.5" y="-208.5" font-family="Helvetica,sans-Serif" font-size="10.00">utility</text>
</a>
</g>
</g>
<!-- Node14&#45;&gt;Node16 -->
<g id="edge21" class="edge">
<title>Node14&#45;&gt;Node16</title>
<path fill="none" stroke="midnightblue" d="M891.58,-262.98C832.65,-253.73 737.23,-237.99 655.5,-221 654.04,-220.7 652.56,-220.38 651.06,-220.05"/>
<polygon fill="midnightblue" stroke="midnightblue" points="651.67,-216.6 641.14,-217.76 650.1,-223.42 651.67,-216.6"/>
</g>
<!-- Node14&#45;&gt;Node17 -->
<g id="edge22" class="edge">
<title>Node14&#45;&gt;Node17</title>
<path fill="none" stroke="midnightblue" d="M923.72,-262.98C895.12,-252.72 846.95,-235.46 814.7,-223.9"/>
<polygon fill="midnightblue" stroke="midnightblue" points="815.83,-220.59 805.24,-220.51 813.47,-227.18 815.83,-220.59"/>
</g>
<!-- Node23 -->
<g id="node23" class="node">
<title>Node23</title>
<g id="a_node23"><a xlink:href="XalanList_8hpp.html" target="_top" xlink:title=" ">
<polygon fill="none" stroke="black" points="884.5,-201.5 884.5,-220.5 1040.5,-220.5 1040.5,-201.5 884.5,-201.5"/>
<text text-anchor="middle" x="962.5" y="-208.5" font-family="Helvetica,sans-Serif" font-size="10.00">xalanc/Include/XalanList.hpp</text>
</a>
</g>
</g>
<!-- Node14&#45;&gt;Node23 -->
<g id="edge36" class="edge">
<title>Node14&#45;&gt;Node23</title>
<path fill="none" stroke="midnightblue" d="M949.65,-262.98C951.79,-254.49 955.14,-241.2 957.88,-230.32"/>
<polygon fill="midnightblue" stroke="midnightblue" points="961.3,-231.06 960.35,-220.51 954.52,-229.35 961.3,-231.06"/>
</g>
<!-- Node17&#45;&gt;Node3 -->
<g id="edge23" class="edge">
<title>Node17&#45;&gt;Node3</title>
<path fill="none" stroke="midnightblue" d="M696.82,-205.88C650.71,-200.71 593.96,-189.41 548.5,-165 519.23,-149.28 494,-119.22 480.06,-100.33"/>
<polygon fill="midnightblue" stroke="midnightblue" points="482.82,-98.17 474.16,-92.06 477.12,-102.23 482.82,-98.17"/>
</g>
<!-- Node17&#45;&gt;Node10 -->
<g id="edge26" class="edge">
<title>Node17&#45;&gt;Node10</title>
<path fill="none" stroke="midnightblue" d="M785.69,-201.31C795.57,-180.81 820.49,-129.15 833.8,-101.54"/>
<polygon fill="midnightblue" stroke="midnightblue" points="837.09,-102.78 838.28,-92.26 830.78,-99.74 837.09,-102.78"/>
</g>
<!-- Node17&#45;&gt;Node12 -->
<g id="edge25" class="edge">
<title>Node17&#45;&gt;Node12</title>
<path fill="none" stroke="midnightblue" d="M838.81,-201.48C920.14,-189.38 1067.15,-167.51 1139.28,-156.78"/>
<polygon fill="midnightblue" stroke="midnightblue" points="1139.98,-160.21 1149.36,-155.28 1138.95,-153.29 1139.98,-160.21"/>
</g>
<!-- Node17&#45;&gt;Node15 -->
<g id="edge24" class="edge">
<title>Node17&#45;&gt;Node15</title>
<path fill="none" stroke="midnightblue" d="M789.04,-201.33C803.5,-185.31 836.88,-151.12 872.5,-134 942.65,-100.29 1034.39,-89.06 1084.63,-85.33"/>
<polygon fill="midnightblue" stroke="midnightblue" points="1084.96,-88.82 1094.7,-84.65 1084.49,-81.84 1084.96,-88.82"/>
</g>
<!-- Node18 -->
<g id="node18" class="node">
<title>Node18</title>
<g id="a_node18"><a xlink:title=" ">
<polygon fill="none" stroke="#bfbfbf" points="761,-73 761,-92 798,-92 798,-73 761,-73"/>
<text text-anchor="middle" x="779.5" y="-80" font-family="Helvetica,sans-Serif" font-size="10.00">new</text>
</a>
</g>
</g>
<!-- Node17&#45;&gt;Node18 -->
<g id="edge27" class="edge">
<title>Node17&#45;&gt;Node18</title>
<path fill="none" stroke="midnightblue" d="M781.36,-201.31C781.04,-180.99 780.24,-130.05 779.8,-102.28"/>
<polygon fill="midnightblue" stroke="midnightblue" points="783.3,-102.2 779.64,-92.26 776.3,-102.31 783.3,-102.2"/>
</g>
<!-- Node19 -->
<g id="node19" class="node">
<title>Node19</title>
<g id="a_node19"><a xlink:title=" ">
<polygon fill="none" stroke="#bfbfbf" points="881,-140 881,-159 934,-159 934,-140 881,-140"/>
<text text-anchor="middle" x="907.5" y="-147" font-family="Helvetica,sans-Serif" font-size="10.00">iterator</text>
</a>
</g>
</g>
<!-- Node17&#45;&gt;Node19 -->
<g id="edge28" class="edge">
<title>Node17&#45;&gt;Node19</title>
<path fill="none" stroke="midnightblue" d="M799.55,-201.48C820.7,-191.49 855.94,-174.85 880.38,-163.31"/>
<polygon fill="midnightblue" stroke="midnightblue" points="881.93,-166.44 889.48,-159.01 878.94,-160.11 881.93,-166.44"/>
</g>
<!-- Node20 -->
<g id="node20" class="node">
<title>Node20</title>
<g id="a_node20"><a xlink:title=" ">
<polygon fill="none" stroke="#bfbfbf" points="952,-140 952,-159 1017,-159 1017,-140 952,-140"/>
<text text-anchor="middle" x="984.5" y="-147" font-family="Helvetica,sans-Serif" font-size="10.00">stdexcept</text>
</a>
</g>
</g>
<!-- Node17&#45;&gt;Node20 -->
<g id="edge29" class="edge">
<title>Node17&#45;&gt;Node20</title>
<path fill="none" stroke="midnightblue" d="M814.9,-201.44C847.79,-192.85 899.38,-178.91 943.5,-165 946.11,-164.18 948.8,-163.3 951.5,-162.39"/>
<polygon fill="midnightblue" stroke="midnightblue" points="952.86,-165.63 961.18,-159.06 950.58,-159.01 952.86,-165.63"/>
</g>
<!-- Node17&#45;&gt;Node21 -->
<g id="edge30" class="edge">
<title>Node17&#45;&gt;Node21</title>
<path fill="none" stroke="midnightblue" d="M765.45,-201.48C749.72,-193.12 725.2,-180.09 704.89,-169.3"/>
<polygon fill="midnightblue" stroke="midnightblue" points="706.37,-166.12 695.9,-164.52 703.09,-172.31 706.37,-166.12"/>
</g>
<!-- Node21&#45;&gt;Node3 -->
<g id="edge31" class="edge">
<title>Node21&#45;&gt;Node3</title>
<path fill="none" stroke="midnightblue" d="M625.89,-134.4C589.53,-122.64 538.35,-106.09 504.34,-95.09"/>
<polygon fill="midnightblue" stroke="midnightblue" points="505.4,-91.75 494.81,-92.01 503.24,-98.41 505.4,-91.75"/>
</g>
<!-- Node21&#45;&gt;Node10 -->
<g id="edge32" class="edge">
<title>Node21&#45;&gt;Node10</title>
<path fill="none" stroke="midnightblue" d="M709.22,-134.46C736.89,-124.56 774.58,-110.84 807.5,-98 809.14,-97.36 810.83,-96.69 812.52,-96.02"/>
<polygon fill="midnightblue" stroke="midnightblue" points="814.26,-99.09 822.2,-92.08 811.62,-92.6 814.26,-99.09"/>
</g>
<!-- Node21&#45;&gt;Node15 -->
<g id="edge33" class="edge">
<title>Node21&#45;&gt;Node15</title>
<path fill="none" stroke="midnightblue" d="M748.75,-137.1C847.45,-122.91 1011.94,-99.26 1084.82,-88.78"/>
<polygon fill="midnightblue" stroke="midnightblue" points="1085.49,-92.22 1094.89,-87.33 1084.49,-85.29 1085.49,-92.22"/>
</g>
<!-- Node21&#45;&gt;Node18 -->
<g id="edge34" class="edge">
<title>Node21&#45;&gt;Node18</title>
<path fill="none" stroke="midnightblue" d="M693.37,-134.4C712.07,-123.34 737.94,-108.06 756.43,-97.13"/>
<polygon fill="midnightblue" stroke="midnightblue" points="758.27,-100.11 765.1,-92.01 754.71,-94.08 758.27,-100.11"/>
</g>
<!-- Node22 -->
<g id="node22" class="node">
<title>Node22</title>
<g id="a_node22"><a xlink:title=" ">
<polygon fill="none" stroke="#bfbfbf" points="590,-67.5 590,-97.5 743,-97.5 743,-67.5 590,-67.5"/>
<text text-anchor="start" x="598" y="-85.5" font-family="Helvetica,sans-Serif" font-size="10.00">xercesc/framework/Memory</text>
<text text-anchor="middle" x="666.5" y="-74.5" font-family="Helvetica,sans-Serif" font-size="10.00">Manager.hpp</text>
</a>
</g>
</g>
<!-- Node21&#45;&gt;Node22 -->
<g id="edge35" class="edge">
<title>Node21&#45;&gt;Node22</title>
<path fill="none" stroke="midnightblue" d="M668.85,-134.4C668.49,-126.64 668.04,-116.81 667.62,-107.86"/>
<polygon fill="midnightblue" stroke="midnightblue" points="671.11,-107.4 667.15,-97.58 664.11,-107.73 671.11,-107.4"/>
</g>
<!-- Node23&#45;&gt;Node3 -->
<g id="edge37" class="edge">
<title>Node23&#45;&gt;Node3</title>
<path fill="none" stroke="midnightblue" d="M884.46,-201.89C777.06,-190.56 595.3,-170.75 581.5,-165 561.06,-156.49 560.32,-147.14 542.5,-134 525.29,-121.31 505.22,-107.69 490.33,-97.79"/>
<polygon fill="midnightblue" stroke="midnightblue" points="492.07,-94.75 481.8,-92.16 488.21,-100.59 492.07,-94.75"/>
</g>
<!-- Node23&#45;&gt;Node10 -->
<g id="edge40" class="edge">
<title>Node23&#45;&gt;Node10</title>
<path fill="none" stroke="midnightblue" d="M1004.89,-201.45C1025.08,-195.02 1047.41,-183.93 1059.5,-165 1066.91,-153.39 1068.07,-144.79 1059.5,-134 1037.36,-106.11 934.8,-92.22 878.97,-86.61"/>
<polygon fill="midnightblue" stroke="midnightblue" points="879.08,-83.11 868.79,-85.63 878.41,-90.07 879.08,-83.11"/>
</g>
<!-- Node23&#45;&gt;Node12 -->
<g id="edge39" class="edge">
<title>Node23&#45;&gt;Node12</title>
<path fill="none" stroke="midnightblue" d="M997.43,-201.47C1032.48,-192.78 1087.93,-178.68 1135.5,-165 1138.82,-164.05 1142.26,-163.02 1145.71,-161.98"/>
<polygon fill="midnightblue" stroke="midnightblue" points="1146.78,-165.31 1155.3,-159.01 1144.71,-158.62 1146.78,-165.31"/>
</g>
<!-- Node23&#45;&gt;Node15 -->
<g id="edge38" class="edge">
<title>Node23&#45;&gt;Node15</title>
<path fill="none" stroke="midnightblue" d="M1002.52,-201.45C1026.2,-194.76 1055.57,-183.4 1076.5,-165 1095.98,-147.87 1108.72,-120.19 1115.52,-101.91"/>
<polygon fill="midnightblue" stroke="midnightblue" points="1118.85,-102.99 1118.84,-92.39 1112.24,-100.68 1118.85,-102.99"/>
</g>
<!-- Node23&#45;&gt;Node18 -->
<g id="edge41" class="edge">
<title>Node23&#45;&gt;Node18</title>
<path fill="none" stroke="midnightblue" d="M983.98,-201.36C998.89,-194.09 1017.61,-182.12 1026.5,-165 1032.85,-152.77 1035.42,-144.5 1026.5,-134 994.58,-96.4 854.31,-113.53 807.5,-98 806.07,-97.53 804.63,-96.99 803.19,-96.4"/>
<polygon fill="midnightblue" stroke="midnightblue" points="804.48,-93.14 793.94,-92.08 801.52,-99.48 804.48,-93.14"/>
</g>
<!-- Node23&#45;&gt;Node19 -->
<g id="edge42" class="edge">
<title>Node23&#45;&gt;Node19</title>
<path fill="none" stroke="midnightblue" d="M954.62,-201.48C946.21,-192.37 932.68,-177.74 922.27,-166.48"/>
<polygon fill="midnightblue" stroke="midnightblue" points="924.72,-163.98 915.37,-159.01 919.58,-168.73 924.72,-163.98"/>
</g>
<!-- Node23&#45;&gt;Node20 -->
<g id="edge43" class="edge">
<title>Node23&#45;&gt;Node20</title>
<path fill="none" stroke="midnightblue" d="M965.65,-201.48C968.82,-192.9 973.8,-179.43 977.85,-168.48"/>
<polygon fill="midnightblue" stroke="midnightblue" points="981.17,-169.6 981.35,-159.01 974.6,-167.17 981.17,-169.6"/>
</g>
<!-- Node23&#45;&gt;Node21 -->
<g id="edge44" class="edge">
<title>Node23&#45;&gt;Node21</title>
<path fill="none" stroke="midnightblue" d="M920.52,-201.48C875.83,-192.4 804.07,-177.83 748.69,-166.58"/>
<polygon fill="midnightblue" stroke="midnightblue" points="749.05,-163.08 738.55,-164.52 747.66,-169.94 749.05,-163.08"/>
</g>
<!-- Node24&#45;&gt;Node9 -->
<g id="edge48" class="edge">
<title>Node24&#45;&gt;Node9</title>
<path fill="none" stroke="midnightblue" d="M311.66,-324.48C316.95,-315.73 325.34,-301.87 332.03,-290.81"/>
<polygon fill="midnightblue" stroke="midnightblue" points="335.17,-292.38 337.35,-282.01 329.18,-288.75 335.17,-292.38"/>
</g>
<!-- Node25&#45;&gt;Node2 -->
<g id="edge50" class="edge">
<title>Node25&#45;&gt;Node2</title>
<path fill="none" stroke="midnightblue" d="M144.04,-385.98C133.75,-376.7 117.08,-361.67 104.51,-350.33"/>
<polygon fill="midnightblue" stroke="midnightblue" points="106.71,-347.61 96.94,-343.51 102.02,-352.8 106.71,-347.61"/>
</g>
<!-- Node26&#45;&gt;Node11 -->
<g id="edge53" class="edge">
<title>Node26&#45;&gt;Node11</title>
<path fill="none" stroke="midnightblue" d="M947.5,-380.4C947.5,-372.47 947.5,-362.46 947.5,-353.86"/>
<polygon fill="midnightblue" stroke="midnightblue" points="951,-353.66 947.5,-343.66 944,-353.66 951,-353.66"/>
</g>
<!-- Node26&#45;&gt;Node12 -->
<g id="edge52" class="edge">
<title>Node26&#45;&gt;Node12</title>
<path fill="none" stroke="midnightblue" d="M1013.02,-390.2C1064.97,-384.72 1138.27,-372.26 1196.5,-344 1231.11,-327.2 1246.34,-322.91 1262.5,-288 1284.1,-241.35 1231.83,-190.09 1201.43,-165.41"/>
<polygon fill="midnightblue" stroke="midnightblue" points="1203.54,-162.61 1193.52,-159.18 1199.21,-168.11 1203.54,-162.61"/>
</g>
<!-- Node26&#45;&gt;Node23 -->
<g id="edge54" class="edge">
<title>Node26&#45;&gt;Node23</title>
<path fill="none" stroke="midnightblue" d="M903.27,-380.44C886.15,-372.59 868.33,-360.89 858.5,-344 839.04,-310.59 837.27,-289.32 858.5,-257 869.07,-240.91 886.76,-230.54 904.58,-223.88"/>
<polygon fill="midnightblue" stroke="midnightblue" points="906.1,-227.06 914.45,-220.54 903.86,-220.43 906.1,-227.06"/>
</g>
<!-- Node27 -->
<g id="node27" class="node">
<title>Node27</title>
<g id="a_node27"><a xlink:href="ArenaBlock_8hpp.html" target="_top" xlink:title=" ">
<polygon fill="none" stroke="black" points="1094,-324.5 1094,-343.5 1187,-343.5 1187,-324.5 1094,-324.5"/>
<text text-anchor="middle" x="1140.5" y="-331.5" font-family="Helvetica,sans-Serif" font-size="10.00">ArenaBlock.hpp</text>
</a>
</g>
</g>
<!-- Node26&#45;&gt;Node27 -->
<g id="edge55" class="edge">
<title>Node26&#45;&gt;Node27</title>
<path fill="none" stroke="midnightblue" d="M993.24,-380.4C1026.73,-370.07 1071.63,-356.23 1103.02,-346.56"/>
<polygon fill="midnightblue" stroke="midnightblue" points="1104.17,-349.86 1112.7,-343.57 1102.11,-343.17 1104.17,-349.86"/>
</g>
<!-- Node28 -->
<g id="node28" class="node">
<title>Node28</title>
<g id="a_node28"><a xlink:href="ArenaBlockBase_8hpp.html" target="_top" xlink:title=" ">
<polygon fill="none" stroke="black" points="1122,-257.5 1122,-287.5 1253,-287.5 1253,-257.5 1122,-257.5"/>
<text text-anchor="start" x="1130" y="-275.5" font-family="Helvetica,sans-Serif" font-size="10.00">xalanc/PlatformSupport</text>
<text text-anchor="middle" x="1187.5" y="-264.5" font-family="Helvetica,sans-Serif" font-size="10.00">/ArenaBlockBase.hpp</text>
</a>
</g>
</g>
<!-- Node27&#45;&gt;Node28 -->
<g id="edge56" class="edge">
<title>Node27&#45;&gt;Node28</title>
<path fill="none" stroke="midnightblue" d="M1147.23,-324.48C1153.18,-316.94 1162.12,-305.63 1170.07,-295.57"/>
<polygon fill="midnightblue" stroke="midnightblue" points="1172.97,-297.54 1176.42,-287.52 1167.48,-293.2 1172.97,-297.54"/>
</g>
<!-- Node28&#45;&gt;Node10 -->
<g id="edge57" class="edge">
<title>Node28&#45;&gt;Node10</title>
<path fill="none" stroke="midnightblue" d="M1202.38,-257.1C1210.95,-247.73 1220.91,-234.74 1225.5,-221 1232.51,-200.03 1241.6,-154.85 1222.5,-134 1199.44,-108.84 969.36,-91.58 878.82,-85.71"/>
<polygon fill="midnightblue" stroke="midnightblue" points="878.95,-82.21 868.75,-85.07 878.5,-89.2 878.95,-82.21"/>
</g>
<!-- Node28&#45;&gt;Node13 -->
<g id="edge58" class="edge">
<title>Node28&#45;&gt;Node13</title>
<path fill="none" stroke="midnightblue" d="M1182.76,-257.4C1180.03,-249.29 1176.58,-239.01 1173.64,-230.28"/>
<polygon fill="midnightblue" stroke="midnightblue" points="1176.91,-229.02 1170.41,-220.66 1170.28,-231.25 1176.91,-229.02"/>
</g>
<!-- Node28&#45;&gt;Node21 -->
<g id="edge59" class="edge">
<title>Node28&#45;&gt;Node21</title>
<path fill="none" stroke="midnightblue" d="M1121.81,-265.09C986.81,-251.89 690.55,-222.74 688.5,-221 675.23,-209.73 670.73,-190.27 669.41,-174.64"/>
<polygon fill="midnightblue" stroke="midnightblue" points="672.9,-174.41 668.93,-164.59 665.91,-174.74 672.9,-174.41"/>
</g>
<!-- Node29 -->
<g id="node29" class="node">
<title>Node29</title>
<g id="a_node29"><a xlink:href="XalanAllocator_8hpp.html" target="_top" xlink:title=" ">
<polygon fill="none" stroke="black" points="1333,-134.5 1333,-164.5 1464,-164.5 1464,-134.5 1333,-134.5"/>
<text text-anchor="start" x="1341" y="-152.5" font-family="Helvetica,sans-Serif" font-size="10.00">xalanc/PlatformSupport</text>
<text text-anchor="middle" x="1398.5" y="-141.5" font-family="Helvetica,sans-Serif" font-size="10.00">/XalanAllocator.hpp</text>
</a>
</g>
</g>
<!-- Node28&#45;&gt;Node29 -->
<g id="edge60" class="edge">
<title>Node28&#45;&gt;Node29</title>
<path fill="none" stroke="midnightblue" d="M1235.77,-257.46C1261.37,-248.91 1292.76,-236.61 1318.5,-221 1340.88,-207.43 1362.93,-187.35 1378.2,-172.09"/>
<polygon fill="midnightblue" stroke="midnightblue" points="1381.03,-174.2 1385.53,-164.61 1376.03,-169.3 1381.03,-174.2"/>
</g>
<!-- Node29&#45;&gt;Node15 -->
<g id="edge61" class="edge">
<title>Node29&#45;&gt;Node15</title>
<path fill="none" stroke="midnightblue" d="M1338.74,-134.48C1283.73,-121.57 1203.92,-102.84 1157.91,-92.04"/>
<polygon fill="midnightblue" stroke="midnightblue" points="1158.61,-88.61 1148.07,-89.74 1157.01,-95.43 1158.61,-88.61"/>
</g>
</g>
</svg>
