<?xml version="1.0" encoding="UTF-8" standalone="no"?>
<!DOCTYPE svg PUBLIC "-//W3C//DTD SVG 1.1//EN"
 "http://www.w3.org/Graphics/SVG/1.1/DTD/svg11.dtd">
<!-- Generated by graphviz version 2.38.0 (20140413.2041)
 -->
<!-- Title: xalanc/PlatformSupport/XalanDOMStringAllocator.hpp Pages: 1 -->
<!--zoomable 486 -->
<svg id="main" version="1.1" xmlns="http://www.w3.org/2000/svg" xmlns:xlink="http://www.w3.org/1999/xlink" xml:space="preserve" onload="init(evt)">
<style type="text/css"><![CDATA[
.edge:hover path { stroke: red; }
.edge:hover polygon { stroke: red; fill: red; }
]]></style>
<script type="text/javascript"><![CDATA[
var edges = document.getElementsByTagName('g');
if (edges && edges.length) {
  for (var i=0;i<edges.length;i++) {
    if (edges[i].id.substr(0,4)=='edge') {
      edges[i].setAttribute('class','edge');
    }
  }
}
]]></script>
        <defs>
                <circle id="rim" cx="0" cy="0" r="7"/>
                <circle id="rim2" cx="0" cy="0" r="3.5"/>
                <g id="zoomPlus">
                        <use xlink:href="#rim" fill="#404040">
                                <set attributeName="fill" to="#808080" begin="zoomplus.mouseover" end="zoomplus.mouseout"/>
                        </use>
                        <path d="M-4,0h8M0,-4v8" fill="none" stroke="white" stroke-width="1.5" pointer-events="none"/>
                </g>
                <g id="zoomMin">
                        <use xlink:href="#rim" fill="#404040">
                                <set attributeName="fill" to="#808080" begin="zoomminus.mouseover" end="zoomminus.mouseout"/>
                        </use>
                        <path d="M-4,0h8" fill="none" stroke="white" stroke-width="1.5" pointer-events="none"/>
                </g>
                <g id="dirArrow">
                        <path fill="none" stroke="white" stroke-width="1.5" d="M0,-3.0v7 M-2.5,-0.5L0,-3.0L2.5,-0.5"/>
                </g>
               <g id="resetDef">
                       <use xlink:href="#rim2" fill="#404040">
                               <set attributeName="fill" to="#808080" begin="reset.mouseover" end="reset.mouseout"/>
                       </use>
               </g>
        </defs>

<script type="text/javascript">
var viewWidth = 1132;
var viewHeight = 486;
var sectionId = 'dynsection-0';
</script>
<script xlink:href="svgpan.js"/>
<svg id="graph" class="graph">
<g id="viewport">
<title>xalanc/PlatformSupport/XalanDOMStringAllocator.hpp</title>
<!-- Node1 -->
<g id="node1" class="node"><title>Node1</title>
<g id="a_node1"><a xlink:title=" ">
<polygon fill="#bfbfbf" stroke="black" points="700,-447.5 700,-477.5 848,-477.5 848,-447.5 700,-447.5"/>
<text text-anchor="start" x="708" y="-465.5" font-family="Helvetica,sans-Serif" font-size="10.00">xalanc/PlatformSupport</text>
<text text-anchor="middle" x="774" y="-454.5" font-family="Helvetica,sans-Serif" font-size="10.00">/XalanDOMStringAllocator.hpp</text>
</a>
</g>
</g>
<!-- Node2 -->
<g id="node2" class="node"><title>Node2</title>
<g id="a_node2"><a xlink:href="PlatformSupportDefinitions_8hpp.html" target="_top" xlink:title=" ">
<polygon fill="none" stroke="black" points="970.5,-380.5 970.5,-410.5 1123.5,-410.5 1123.5,-380.5 970.5,-380.5"/>
<text text-anchor="start" x="978.5" y="-398.5" font-family="Helvetica,sans-Serif" font-size="10.00">xalanc/PlatformSupport</text>
<text text-anchor="middle" x="1047" y="-387.5" font-family="Helvetica,sans-Serif" font-size="10.00">/PlatformSupportDefinitions.hpp</text>
</a>
</g>
</g>
<!-- Node1&#45;&gt;Node2 -->
<g id="edge1" class="edge"><title>Node1&#45;&gt;Node2</title>
<path fill="none" stroke="midnightblue" d="M832.901,-447.476C875.453,-437.345 933.07,-423.626 977.815,-412.973"/>
<polygon fill="midnightblue" stroke="midnightblue" points="978.817,-416.332 987.734,-410.611 977.195,-409.522 978.817,-416.332"/>
</g>
<!-- Node7 -->
<g id="node7" class="node"><title>Node7</title>
<g id="a_node7"><a xlink:href="ArenaAllocator_8hpp.html" target="_top" xlink:title=" ">
<polygon fill="none" stroke="black" points="715,-380.5 715,-410.5 833,-410.5 833,-380.5 715,-380.5"/>
<text text-anchor="start" x="723" y="-398.5" font-family="Helvetica,sans-Serif" font-size="10.00">xalanc/PlatformSupport</text>
<text text-anchor="middle" x="774" y="-387.5" font-family="Helvetica,sans-Serif" font-size="10.00">/ArenaAllocator.hpp</text>
</a>
</g>
</g>
<!-- Node1&#45;&gt;Node7 -->
<g id="edge6" class="edge"><title>Node1&#45;&gt;Node7</title>
<path fill="none" stroke="midnightblue" d="M774,-447.396C774,-439.645 774,-429.812 774,-420.86"/>
<polygon fill="midnightblue" stroke="midnightblue" points="777.5,-420.576 774,-410.577 770.5,-420.577 777.5,-420.576"/>
</g>
<!-- Node25 -->
<g id="node25" class="node"><title>Node25</title>
<g id="a_node25"><a xlink:href="XalanDOMString_8hpp.html" target="_top" xlink:title=" ">
<polygon fill="none" stroke="black" points="387.5,-386 387.5,-405 574.5,-405 574.5,-386 387.5,-386"/>
<text text-anchor="middle" x="481" y="-393" font-family="Helvetica,sans-Serif" font-size="10.00">xalanc/XalanDOM/XalanDOMString.hpp</text>
</a>
</g>
</g>
<!-- Node1&#45;&gt;Node25 -->
<g id="edge49" class="edge"><title>Node1&#45;&gt;Node25</title>
<path fill="none" stroke="midnightblue" d="M710.784,-447.476C656.328,-435.395 578.882,-418.215 529.283,-407.211"/>
<polygon fill="midnightblue" stroke="midnightblue" points="529.965,-403.778 519.445,-405.029 528.449,-410.611 529.965,-403.778"/>
</g>
<!-- Node3 -->
<g id="node3" class="node"><title>Node3</title>
<g id="a_node3"><a xlink:href="PlatformDefinitions_8hpp.html" target="_top" xlink:title=" ">
<polygon fill="none" stroke="black" points="838,-73 838,-92 1020,-92 1020,-73 838,-73"/>
<text text-anchor="middle" x="929" y="-80" font-family="Helvetica,sans-Serif" font-size="10.00">xalanc/Include/PlatformDefinitions.hpp</text>
</a>
</g>
</g>
<!-- Node2&#45;&gt;Node3 -->
<g id="edge2" class="edge"><title>Node2&#45;&gt;Node3</title>
<path fill="none" stroke="midnightblue" d="M1060.57,-380.149C1079.36,-358.719 1111,-316.276 1111,-273.5 1111,-273.5 1111,-273.5 1111,-210 1111,-144.795 1031.26,-110.486 977.34,-94.7409"/>
<polygon fill="midnightblue" stroke="midnightblue" points="978.171,-91.3391 967.598,-92.0137 976.284,-98.08 978.171,-91.3391"/>
</g>
<!-- Node4 -->
<g id="node4" class="node"><title>Node4</title>
<g id="a_node4"><a xlink:title=" ">
<polygon fill="none" stroke="#bfbfbf" points="727,-0.5 727,-30.5 835,-30.5 835,-0.5 727,-0.5"/>
<text text-anchor="start" x="735" y="-18.5" font-family="Helvetica,sans-Serif" font-size="10.00">xercesc/util/Xerces</text>
<text text-anchor="middle" x="781" y="-7.5" font-family="Helvetica,sans-Serif" font-size="10.00">_autoconf_config.hpp</text>
</a>
</g>
</g>
<!-- Node3&#45;&gt;Node4 -->
<g id="edge3" class="edge"><title>Node3&#45;&gt;Node4</title>
<path fill="none" stroke="midnightblue" d="M909.347,-72.8685C887.235,-63.1572 850.695,-47.1092 822.246,-34.6148"/>
<polygon fill="midnightblue" stroke="midnightblue" points="823.504,-31.3447 812.941,-30.5281 820.689,-37.7539 823.504,-31.3447"/>
</g>
<!-- Node5 -->
<g id="node5" class="node"><title>Node5</title>
<g id="a_node5"><a xlink:title=" ">
<polygon fill="none" stroke="#bfbfbf" points="853.5,-6 853.5,-25 1004.5,-25 1004.5,-6 853.5,-6"/>
<text text-anchor="middle" x="929" y="-13" font-family="Helvetica,sans-Serif" font-size="10.00">xercesc/util/XercesVersion.hpp</text>
</a>
</g>
</g>
<!-- Node3&#45;&gt;Node5 -->
<g id="edge4" class="edge"><title>Node3&#45;&gt;Node5</title>
<path fill="none" stroke="midnightblue" d="M929,-72.7338C929,-63.1826 929,-47.6183 929,-35.2829"/>
<polygon fill="midnightblue" stroke="midnightblue" points="932.5,-35.1273 929,-25.1273 925.5,-35.1273 932.5,-35.1273"/>
</g>
<!-- Node6 -->
<g id="node6" class="node"><title>Node6</title>
<g id="a_node6"><a xlink:href="XalanVersion_8hpp.html" target="_top" xlink:title=" ">
<polygon fill="none" stroke="black" points="1023,-6 1023,-25 1115,-25 1115,-6 1023,-6"/>
<text text-anchor="middle" x="1069" y="-13" font-family="Helvetica,sans-Serif" font-size="10.00">XalanVersion.hpp</text>
</a>
</g>
</g>
<!-- Node3&#45;&gt;Node6 -->
<g id="edge5" class="edge"><title>Node3&#45;&gt;Node6</title>
<path fill="none" stroke="midnightblue" d="M947.591,-72.8685C971.544,-61.7476 1013.39,-42.3167 1041.15,-29.4286"/>
<polygon fill="midnightblue" stroke="midnightblue" points="1042.74,-32.5529 1050.33,-25.1672 1039.79,-26.2038 1042.74,-32.5529"/>
</g>
<!-- Node8 -->
<g id="node8" class="node"><title>Node8</title>
<g id="a_node8"><a xlink:title=" ">
<polygon fill="none" stroke="#bfbfbf" points="845,-140 845,-159 901,-159 901,-140 845,-140"/>
<text text-anchor="middle" x="873" y="-147" font-family="Helvetica,sans-Serif" font-size="10.00">algorithm</text>
</a>
</g>
</g>
<!-- Node7&#45;&gt;Node8 -->
<g id="edge7" class="edge"><title>Node7&#45;&gt;Node8</title>
<path fill="none" stroke="midnightblue" d="M833.135,-390.228C895.902,-384.318 989.032,-371.142 1011,-344 1063.28,-279.403 947.881,-196.678 896.284,-164.333"/>
<polygon fill="midnightblue" stroke="midnightblue" points="898.08,-161.329 887.73,-159.067 894.41,-167.29 898.08,-161.329"/>
</g>
<!-- Node9 -->
<g id="node9" class="node"><title>Node9</title>
<g id="a_node9"><a xlink:href="STLHelper_8hpp.html" target="_top" xlink:title=" ">
<polygon fill="none" stroke="black" points="856,-324.5 856,-343.5 1002,-343.5 1002,-324.5 856,-324.5"/>
<text text-anchor="middle" x="929" y="-331.5" font-family="Helvetica,sans-Serif" font-size="10.00">xalanc/Include/STLHelper.hpp</text>
</a>
</g>
</g>
<!-- Node7&#45;&gt;Node9 -->
<g id="edge8" class="edge"><title>Node7&#45;&gt;Node9</title>
<path fill="none" stroke="midnightblue" d="M810.733,-380.399C836.971,-370.327 871.925,-356.909 897.018,-347.277"/>
<polygon fill="midnightblue" stroke="midnightblue" points="898.365,-350.509 906.446,-343.658 895.856,-343.974 898.365,-350.509"/>
</g>
<!-- Node21 -->
<g id="node21" class="node"><title>Node21</title>
<g id="a_node21"><a xlink:href="XalanList_8hpp.html" target="_top" xlink:title=" ">
<polygon fill="none" stroke="black" points="448,-201.5 448,-220.5 588,-220.5 588,-201.5 448,-201.5"/>
<text text-anchor="middle" x="518" y="-208.5" font-family="Helvetica,sans-Serif" font-size="10.00">xalanc/Include/XalanList.hpp</text>
</a>
</g>
</g>
<!-- Node7&#45;&gt;Node21 -->
<g id="edge41" class="edge"><title>Node7&#45;&gt;Node21</title>
<path fill="none" stroke="midnightblue" d="M742.683,-380.45C706.868,-364.836 646.175,-339.751 592,-324 513.241,-301.101 463.034,-351.402 411,-288 402.259,-277.35 403.376,-268.476 411,-257 421.775,-240.779 439.662,-230.392 457.755,-223.746"/>
<polygon fill="midnightblue" stroke="midnightblue" points="459.104,-226.986 467.491,-220.513 456.898,-220.343 459.104,-226.986"/>
</g>
<!-- Node22 -->
<g id="node22" class="node"><title>Node22</title>
<g id="a_node22"><a xlink:href="ArenaBlock_8hpp.html" target="_top" xlink:title=" ">
<polygon fill="none" stroke="black" points="671,-324.5 671,-343.5 757,-343.5 757,-324.5 671,-324.5"/>
<text text-anchor="middle" x="714" y="-331.5" font-family="Helvetica,sans-Serif" font-size="10.00">ArenaBlock.hpp</text>
</a>
</g>
</g>
<!-- Node7&#45;&gt;Node22 -->
<g id="edge42" class="edge"><title>Node7&#45;&gt;Node22</title>
<path fill="none" stroke="midnightblue" d="M759.781,-380.399C750.792,-371.486 739.162,-359.952 729.873,-350.741"/>
<polygon fill="midnightblue" stroke="midnightblue" points="732.296,-348.214 722.731,-343.658 727.367,-353.184 732.296,-348.214"/>
</g>
<!-- Node9&#45;&gt;Node3 -->
<g id="edge9" class="edge"><title>Node9&#45;&gt;Node3</title>
<path fill="none" stroke="midnightblue" d="M939.714,-324.305C948.938,-316.069 961.591,-302.789 967,-288 976.565,-261.847 995.191,-233.626 963,-134 959.01,-121.653 951.028,-109.535 943.8,-100.265"/>
<polygon fill="midnightblue" stroke="midnightblue" points="946.321,-97.8207 937.256,-92.336 940.922,-102.276 946.321,-97.8207"/>
</g>
<!-- Node9&#45;&gt;Node8 -->
<g id="edge10" class="edge"><title>Node9&#45;&gt;Node8</title>
<path fill="none" stroke="midnightblue" d="M935.106,-324.047C944.054,-309.774 958.856,-281.023 951,-257 938.916,-220.05 908.6,-185.308 889.519,-166.07"/>
<polygon fill="midnightblue" stroke="midnightblue" points="891.938,-163.541 882.349,-159.037 887.036,-168.538 891.938,-163.541"/>
</g>
<!-- Node10 -->
<g id="node10" class="node"><title>Node10</title>
<g id="a_node10"><a xlink:title=" ">
<polygon fill="none" stroke="#bfbfbf" points="792,-201.5 792,-220.5 850,-220.5 850,-201.5 792,-201.5"/>
<text text-anchor="middle" x="821" y="-208.5" font-family="Helvetica,sans-Serif" font-size="10.00">functional</text>
</a>
</g>
</g>
<!-- Node9&#45;&gt;Node10 -->
<g id="edge11" class="edge"><title>Node9&#45;&gt;Node10</title>
<path fill="none" stroke="midnightblue" d="M932.641,-324.118C938.233,-308.92 946.91,-277.58 933,-257 916.807,-233.043 885.531,-221.839 860.135,-216.599"/>
<polygon fill="midnightblue" stroke="midnightblue" points="860.494,-213.107 850.029,-214.755 859.238,-219.993 860.494,-213.107"/>
</g>
<!-- Node11 -->
<g id="node11" class="node"><title>Node11</title>
<g id="a_node11"><a xlink:href="XalanMap_8hpp.html" target="_top" xlink:title=" ">
<polygon fill="none" stroke="black" points="556.5,-263 556.5,-282 699.5,-282 699.5,-263 556.5,-263"/>
<text text-anchor="middle" x="628" y="-270" font-family="Helvetica,sans-Serif" font-size="10.00">xalanc/Include/XalanMap.hpp</text>
</a>
</g>
</g>
<!-- Node9&#45;&gt;Node11 -->
<g id="edge12" class="edge"><title>Node9&#45;&gt;Node11</title>
<path fill="none" stroke="midnightblue" d="M885.874,-324.475C831.895,-313.805 739.464,-295.534 681.163,-284.009"/>
<polygon fill="midnightblue" stroke="midnightblue" points="681.535,-280.515 671.046,-282.009 680.177,-287.382 681.535,-280.515"/>
</g>
<!-- Node11&#45;&gt;Node3 -->
<g id="edge13" class="edge"><title>Node11&#45;&gt;Node3</title>
<path fill="none" stroke="midnightblue" d="M675.588,-262.988C746.059,-250.231 870.795,-227.006 879,-221 917.167,-193.062 926.264,-133.018 928.388,-102.356"/>
<polygon fill="midnightblue" stroke="midnightblue" points="931.893,-102.336 928.906,-92.1713 924.902,-101.98 931.893,-102.336"/>
</g>
<!-- Node11&#45;&gt;Node8 -->
<g id="edge15" class="edge"><title>Node11&#45;&gt;Node8</title>
<path fill="none" stroke="midnightblue" d="M673.107,-262.952C738.464,-250.379 852.46,-227.667 859,-221 872.22,-207.524 874.704,-185.355 874.525,-169.474"/>
<polygon fill="midnightblue" stroke="midnightblue" points="878.009,-169.058 874.039,-159.235 871.017,-169.39 878.009,-169.058"/>
</g>
<!-- Node11&#45;&gt;Node10 -->
<g id="edge16" class="edge"><title>Node11&#45;&gt;Node10</title>
<path fill="none" stroke="midnightblue" d="M655.652,-262.975C689.188,-252.636 745.873,-235.161 783.368,-223.602"/>
<polygon fill="midnightblue" stroke="midnightblue" points="784.874,-226.8 793.399,-220.509 782.812,-220.111 784.874,-226.8"/>
</g>
<!-- Node12 -->
<g id="node12" class="node"><title>Node12</title>
<g id="a_node12"><a xlink:title=" ">
<polygon fill="none" stroke="#bfbfbf" points="581,-73 581,-92 629,-92 629,-73 581,-73"/>
<text text-anchor="middle" x="605" y="-80" font-family="Helvetica,sans-Serif" font-size="10.00">cstddef</text>
</a>
</g>
</g>
<!-- Node11&#45;&gt;Node12 -->
<g id="edge14" class="edge"><title>Node11&#45;&gt;Node12</title>
<path fill="none" stroke="midnightblue" d="M657.367,-262.969C697.516,-249.539 767.977,-219.237 798,-165 804.673,-152.946 806.419,-144.906 798,-134 778.734,-109.045 689.267,-94.0441 639.187,-87.4601"/>
<polygon fill="midnightblue" stroke="midnightblue" points="639.499,-83.9717 629.137,-86.1823 638.616,-90.9158 639.499,-83.9717"/>
</g>
<!-- Node13 -->
<g id="node13" class="node"><title>Node13</title>
<g id="a_node13"><a xlink:title=" ">
<polygon fill="none" stroke="#bfbfbf" points="644,-201.5 644,-220.5 684,-220.5 684,-201.5 644,-201.5"/>
<text text-anchor="middle" x="664" y="-208.5" font-family="Helvetica,sans-Serif" font-size="10.00">utility</text>
</a>
</g>
</g>
<!-- Node11&#45;&gt;Node13 -->
<g id="edge17" class="edge"><title>Node11&#45;&gt;Node13</title>
<path fill="none" stroke="midnightblue" d="M633.158,-262.975C638.451,-254.227 646.835,-240.369 653.527,-229.309"/>
<polygon fill="midnightblue" stroke="midnightblue" points="656.67,-230.877 658.852,-220.509 650.68,-227.253 656.67,-230.877"/>
</g>
<!-- Node14 -->
<g id="node14" class="node"><title>Node14</title>
<g id="a_node14"><a xlink:href="XalanVector_8hpp.html" target="_top" xlink:title=" ">
<polygon fill="none" stroke="black" points="278,-201.5 278,-220.5 430,-220.5 430,-201.5 278,-201.5"/>
<text text-anchor="middle" x="354" y="-208.5" font-family="Helvetica,sans-Serif" font-size="10.00">xalanc/Include/XalanVector.hpp</text>
</a>
</g>
</g>
<!-- Node11&#45;&gt;Node14 -->
<g id="edge18" class="edge"><title>Node11&#45;&gt;Node14</title>
<path fill="none" stroke="midnightblue" d="M588.742,-262.975C539.809,-252.349 456.162,-234.185 403.055,-222.652"/>
<polygon fill="midnightblue" stroke="midnightblue" points="403.7,-219.211 393.185,-220.509 402.214,-226.052 403.7,-219.211"/>
</g>
<!-- Node11&#45;&gt;Node21 -->
<g id="edge32" class="edge"><title>Node11&#45;&gt;Node21</title>
<path fill="none" stroke="midnightblue" d="M612.24,-262.975C594.024,-253.122 563.827,-236.788 542.532,-225.27"/>
<polygon fill="midnightblue" stroke="midnightblue" points="544.192,-222.188 533.731,-220.509 540.862,-228.345 544.192,-222.188"/>
</g>
<!-- Node14&#45;&gt;Node3 -->
<g id="edge19" class="edge"><title>Node14&#45;&gt;Node3</title>
<path fill="none" stroke="midnightblue" d="M357.056,-201.056C363.212,-184.566 378.8,-149.631 405,-134 440.377,-112.894 685.839,-96.4681 827.917,-88.5993"/>
<polygon fill="midnightblue" stroke="midnightblue" points="828.17,-92.0907 837.963,-88.0476 827.786,-85.1012 828.17,-92.0907"/>
</g>
<!-- Node14&#45;&gt;Node8 -->
<g id="edge21" class="edge"><title>Node14&#45;&gt;Node8</title>
<path fill="none" stroke="midnightblue" d="M430.454,-201.885C433.339,-201.585 436.195,-201.289 439,-201 598.511,-184.558 639.338,-188.243 798,-165 810.077,-163.231 823.165,-160.859 834.975,-158.548"/>
<polygon fill="midnightblue" stroke="midnightblue" points="835.849,-161.942 844.968,-156.548 834.475,-155.078 835.849,-161.942"/>
</g>
<!-- Node14&#45;&gt;Node12 -->
<g id="edge20" class="edge"><title>Node14&#45;&gt;Node12</title>
<path fill="none" stroke="midnightblue" d="M353.316,-201.297C352.592,-185.516 353.513,-152.137 372,-134 399.815,-106.712 512.75,-92.2467 570.553,-86.5032"/>
<polygon fill="midnightblue" stroke="midnightblue" points="571.052,-89.9715 580.671,-85.5312 570.382,-83.0036 571.052,-89.9715"/>
</g>
<!-- Node15 -->
<g id="node15" class="node"><title>Node15</title>
<g id="a_node15"><a xlink:title=" ">
<polygon fill="none" stroke="#bfbfbf" points="51.5,-73 51.5,-92 100.5,-92 100.5,-73 51.5,-73"/>
<text text-anchor="middle" x="76" y="-80" font-family="Helvetica,sans-Serif" font-size="10.00">cassert</text>
</a>
</g>
</g>
<!-- Node14&#45;&gt;Node15 -->
<g id="edge22" class="edge"><title>Node14&#45;&gt;Node15</title>
<path fill="none" stroke="midnightblue" d="M277.719,-205.239C212.677,-199.645 125.741,-188.03 100,-165 82.3398,-149.199 77.3933,-121.133 76.1585,-102.419"/>
<polygon fill="midnightblue" stroke="midnightblue" points="79.647,-102.036 75.7887,-92.1682 72.6516,-102.288 79.647,-102.036"/>
</g>
<!-- Node16 -->
<g id="node16" class="node"><title>Node16</title>
<g id="a_node16"><a xlink:title=" ">
<polygon fill="none" stroke="#bfbfbf" points="296,-73 296,-92 330,-92 330,-73 296,-73"/>
<text text-anchor="middle" x="313" y="-80" font-family="Helvetica,sans-Serif" font-size="10.00">new</text>
</a>
</g>
</g>
<!-- Node14&#45;&gt;Node16 -->
<g id="edge23" class="edge"><title>Node14&#45;&gt;Node16</title>
<path fill="none" stroke="midnightblue" d="M349.57,-201.211C345.187,-192.266 338.5,-177.918 334,-165 326.658,-143.923 320.601,-118.982 316.91,-102.293"/>
<polygon fill="midnightblue" stroke="midnightblue" points="320.265,-101.249 314.745,-92.2054 313.421,-102.717 320.265,-101.249"/>
</g>
<!-- Node17 -->
<g id="node17" class="node"><title>Node17</title>
<g id="a_node17"><a xlink:title=" ">
<polygon fill="none" stroke="#bfbfbf" points="414.5,-140 414.5,-159 461.5,-159 461.5,-140 414.5,-140"/>
<text text-anchor="middle" x="438" y="-147" font-family="Helvetica,sans-Serif" font-size="10.00">iterator</text>
</a>
</g>
</g>
<!-- Node14&#45;&gt;Node17 -->
<g id="edge24" class="edge"><title>Node14&#45;&gt;Node17</title>
<path fill="none" stroke="midnightblue" d="M366.035,-201.475C379.508,-191.931 401.566,-176.307 417.715,-164.868"/>
<polygon fill="midnightblue" stroke="midnightblue" points="419.85,-167.645 425.987,-159.009 415.804,-161.933 419.85,-167.645"/>
</g>
<!-- Node18 -->
<g id="node18" class="node"><title>Node18</title>
<g id="a_node18"><a xlink:title=" ">
<polygon fill="none" stroke="#bfbfbf" points="479.5,-140 479.5,-159 538.5,-159 538.5,-140 479.5,-140"/>
<text text-anchor="middle" x="509" y="-147" font-family="Helvetica,sans-Serif" font-size="10.00">stdexcept</text>
</a>
</g>
</g>
<!-- Node14&#45;&gt;Node18 -->
<g id="edge25" class="edge"><title>Node14&#45;&gt;Node18</title>
<path fill="none" stroke="midnightblue" d="M376.208,-201.475C402.681,-191.313 447.114,-174.256 477.22,-162.7"/>
<polygon fill="midnightblue" stroke="midnightblue" points="478.752,-165.86 486.833,-159.009 476.243,-159.325 478.752,-165.86"/>
</g>
<!-- Node19 -->
<g id="node19" class="node"><title>Node19</title>
<g id="a_node19"><a xlink:href="XalanMemoryManagement_8hpp.html" target="_top" xlink:title=" ">
<polygon fill="none" stroke="black" points="142,-134.5 142,-164.5 282,-164.5 282,-134.5 142,-134.5"/>
<text text-anchor="start" x="150" y="-152.5" font-family="Helvetica,sans-Serif" font-size="10.00">xalanc/Include/XalanMemory</text>
<text text-anchor="middle" x="212" y="-141.5" font-family="Helvetica,sans-Serif" font-size="10.00">Management.hpp</text>
</a>
</g>
</g>
<!-- Node14&#45;&gt;Node19 -->
<g id="edge26" class="edge"><title>Node14&#45;&gt;Node19</title>
<path fill="none" stroke="midnightblue" d="M333.655,-201.475C313.165,-192.889 280.93,-179.383 254.789,-168.429"/>
<polygon fill="midnightblue" stroke="midnightblue" points="256.042,-165.16 245.467,-164.523 253.337,-171.616 256.042,-165.16"/>
</g>
<!-- Node19&#45;&gt;Node3 -->
<g id="edge27" class="edge"><title>Node19&#45;&gt;Node3</title>
<path fill="none" stroke="midnightblue" d="M282.054,-142.149C409.677,-130.58 680.467,-106.031 828.016,-92.6548"/>
<polygon fill="midnightblue" stroke="midnightblue" points="828.345,-96.1394 837.988,-91.7507 827.713,-89.168 828.345,-96.1394"/>
</g>
<!-- Node19&#45;&gt;Node12 -->
<g id="edge29" class="edge"><title>Node19&#45;&gt;Node12</title>
<path fill="none" stroke="midnightblue" d="M282.261,-136.879C367.171,-122.836 506.619,-99.7716 570.764,-89.1624"/>
<polygon fill="midnightblue" stroke="midnightblue" points="571.459,-92.5951 580.754,-87.5101 570.317,-85.6889 571.459,-92.5951"/>
</g>
<!-- Node19&#45;&gt;Node15 -->
<g id="edge28" class="edge"><title>Node19&#45;&gt;Node15</title>
<path fill="none" stroke="midnightblue" d="M182.49,-134.396C158.838,-123.092 125.924,-107.361 102.97,-96.3903"/>
<polygon fill="midnightblue" stroke="midnightblue" points="104.331,-93.1614 93.7993,-92.007 101.312,-99.4771 104.331,-93.1614"/>
</g>
<!-- Node19&#45;&gt;Node16 -->
<g id="edge30" class="edge"><title>Node19&#45;&gt;Node16</title>
<path fill="none" stroke="midnightblue" d="M233.915,-134.396C250.853,-123.496 274.187,-108.479 291.116,-97.5835"/>
<polygon fill="midnightblue" stroke="midnightblue" points="293.266,-100.362 299.781,-92.007 289.478,-94.4756 293.266,-100.362"/>
</g>
<!-- Node20 -->
<g id="node20" class="node"><title>Node20</title>
<g id="a_node20"><a xlink:title=" ">
<polygon fill="none" stroke="#bfbfbf" points="140.5,-67.5 140.5,-97.5 277.5,-97.5 277.5,-67.5 140.5,-67.5"/>
<text text-anchor="start" x="148.5" y="-85.5" font-family="Helvetica,sans-Serif" font-size="10.00">xercesc/framework/Memory</text>
<text text-anchor="middle" x="209" y="-74.5" font-family="Helvetica,sans-Serif" font-size="10.00">Manager.hpp</text>
</a>
</g>
</g>
<!-- Node19&#45;&gt;Node20 -->
<g id="edge31" class="edge"><title>Node19&#45;&gt;Node20</title>
<path fill="none" stroke="midnightblue" d="M211.349,-134.396C210.991,-126.645 210.537,-116.812 210.124,-107.86"/>
<polygon fill="midnightblue" stroke="midnightblue" points="213.607,-107.404 209.65,-97.5765 206.615,-107.727 213.607,-107.404"/>
</g>
<!-- Node21&#45;&gt;Node3 -->
<g id="edge33" class="edge"><title>Node21&#45;&gt;Node3</title>
<path fill="none" stroke="midnightblue" d="M534.128,-201.468C571.545,-181.677 661.156,-134.295 662,-134 719.945,-113.745 787.961,-101.034 840.842,-93.4311"/>
<polygon fill="midnightblue" stroke="midnightblue" points="841.454,-96.8796 850.871,-92.024 840.482,-89.9475 841.454,-96.8796"/>
</g>
<!-- Node21&#45;&gt;Node8 -->
<g id="edge35" class="edge"><title>Node21&#45;&gt;Node8</title>
<path fill="none" stroke="midnightblue" d="M574.4,-201.472C631.009,-192.786 720.672,-178.685 798,-165 810.019,-162.873 823.091,-160.401 834.904,-158.107"/>
<polygon fill="midnightblue" stroke="midnightblue" points="835.762,-161.506 844.903,-156.15 834.417,-154.636 835.762,-161.506"/>
</g>
<!-- Node21&#45;&gt;Node12 -->
<g id="edge34" class="edge"><title>Node21&#45;&gt;Node12</title>
<path fill="none" stroke="midnightblue" d="M536.019,-201.385C550.212,-193.716 569.466,-181.208 581,-165 594.399,-146.17 600.387,-119.861 603.016,-102.281"/>
<polygon fill="midnightblue" stroke="midnightblue" points="606.514,-102.516 604.303,-92.1549 599.57,-101.634 606.514,-102.516"/>
</g>
<!-- Node21&#45;&gt;Node15 -->
<g id="edge36" class="edge"><title>Node21&#45;&gt;Node15</title>
<path fill="none" stroke="midnightblue" d="M447.762,-201.971C337.157,-189.304 134.679,-166.003 133,-165 108.611,-150.433 92.0267,-120.925 83.2895,-101.699"/>
<polygon fill="midnightblue" stroke="midnightblue" points="86.3929,-100.055 79.243,-92.2361 79.9566,-102.807 86.3929,-100.055"/>
</g>
<!-- Node21&#45;&gt;Node16 -->
<g id="edge37" class="edge"><title>Node21&#45;&gt;Node16</title>
<path fill="none" stroke="midnightblue" d="M526.581,-201.135C540.219,-185.963 563.676,-154.659 547,-134 521.303,-102.166 396.736,-89.4285 340.568,-85.2428"/>
<polygon fill="midnightblue" stroke="midnightblue" points="340.518,-81.7306 330.296,-84.5165 340.024,-88.7131 340.518,-81.7306"/>
</g>
<!-- Node21&#45;&gt;Node17 -->
<g id="edge38" class="edge"><title>Node21&#45;&gt;Node17</title>
<path fill="none" stroke="midnightblue" d="M506.538,-201.475C493.825,-192.02 473.087,-176.596 457.747,-165.187"/>
<polygon fill="midnightblue" stroke="midnightblue" points="459.554,-162.169 449.441,-159.009 455.376,-167.785 459.554,-162.169"/>
</g>
<!-- Node21&#45;&gt;Node18 -->
<g id="edge39" class="edge"><title>Node21&#45;&gt;Node18</title>
<path fill="none" stroke="midnightblue" d="M516.711,-201.475C515.441,-193.08 513.459,-179.981 511.823,-169.163"/>
<polygon fill="midnightblue" stroke="midnightblue" points="515.243,-168.373 510.287,-159.009 508.322,-169.42 515.243,-168.373"/>
</g>
<!-- Node21&#45;&gt;Node19 -->
<g id="edge40" class="edge"><title>Node21&#45;&gt;Node19</title>
<path fill="none" stroke="midnightblue" d="M474.158,-201.475C426.745,-192.256 350.151,-177.363 291.967,-166.049"/>
<polygon fill="midnightblue" stroke="midnightblue" points="292.547,-162.597 282.063,-164.123 291.211,-169.468 292.547,-162.597"/>
</g>
<!-- Node23 -->
<g id="node23" class="node"><title>Node23</title>
<g id="a_node23"><a xlink:href="ArenaBlockBase_8hpp.html" target="_top" xlink:title=" ">
<polygon fill="none" stroke="black" points="420,-257.5 420,-287.5 538,-287.5 538,-257.5 420,-257.5"/>
<text text-anchor="start" x="428" y="-275.5" font-family="Helvetica,sans-Serif" font-size="10.00">xalanc/PlatformSupport</text>
<text text-anchor="middle" x="479" y="-264.5" font-family="Helvetica,sans-Serif" font-size="10.00">/ArenaBlockBase.hpp</text>
</a>
</g>
</g>
<!-- Node22&#45;&gt;Node23 -->
<g id="edge43" class="edge"><title>Node22&#45;&gt;Node23</title>
<path fill="none" stroke="midnightblue" d="M680.33,-324.475C644.933,-315.513 588.358,-301.188 544.181,-290.003"/>
<polygon fill="midnightblue" stroke="midnightblue" points="544.938,-286.585 534.385,-287.523 543.22,-293.37 544.938,-286.585"/>
</g>
<!-- Node23&#45;&gt;Node10 -->
<g id="edge45" class="edge"><title>Node23&#45;&gt;Node10</title>
<path fill="none" stroke="midnightblue" d="M538.305,-258.681C541.242,-258.101 544.153,-257.537 547,-257 630.27,-241.293 728.372,-225.94 781.677,-217.86"/>
<polygon fill="midnightblue" stroke="midnightblue" points="782.358,-221.297 791.723,-216.343 781.313,-214.375 782.358,-221.297"/>
</g>
<!-- Node23&#45;&gt;Node15 -->
<g id="edge44" class="edge"><title>Node23&#45;&gt;Node15</title>
<path fill="none" stroke="midnightblue" d="M419.665,-264.754C318.205,-251.838 118.38,-219.911 78,-165 64.6679,-146.87 67.1253,-119.822 70.9016,-101.927"/>
<polygon fill="midnightblue" stroke="midnightblue" points="74.3218,-102.674 73.2939,-92.1295 67.5216,-101.014 74.3218,-102.674"/>
</g>
<!-- Node23&#45;&gt;Node19 -->
<g id="edge46" class="edge"><title>Node23&#45;&gt;Node19</title>
<path fill="none" stroke="midnightblue" d="M419.798,-267.52C375.389,-262.213 314.65,-249.84 269,-221 250.313,-209.194 234.975,-189.125 224.935,-173.411"/>
<polygon fill="midnightblue" stroke="midnightblue" points="227.85,-171.468 219.651,-164.758 221.875,-175.117 227.85,-171.468"/>
</g>
<!-- Node24 -->
<g id="node24" class="node"><title>Node24</title>
<g id="a_node24"><a xlink:href="XalanAllocator_8hpp.html" target="_top" xlink:title=" ">
<polygon fill="none" stroke="black" points="671,-134.5 671,-164.5 789,-164.5 789,-134.5 671,-134.5"/>
<text text-anchor="start" x="679" y="-152.5" font-family="Helvetica,sans-Serif" font-size="10.00">xalanc/PlatformSupport</text>
<text text-anchor="middle" x="730" y="-141.5" font-family="Helvetica,sans-Serif" font-size="10.00">/XalanAllocator.hpp</text>
</a>
</g>
</g>
<!-- Node23&#45;&gt;Node24 -->
<g id="edge47" class="edge"><title>Node23&#45;&gt;Node24</title>
<path fill="none" stroke="midnightblue" d="M513.933,-257.443C537.599,-247.703 569.457,-234.166 597,-221 599.476,-219.816 656,-189.814 694.555,-169.334"/>
<polygon fill="midnightblue" stroke="midnightblue" points="696.255,-172.394 703.444,-164.612 692.971,-166.213 696.255,-172.394"/>
</g>
<!-- Node24&#45;&gt;Node12 -->
<g id="edge48" class="edge"><title>Node24&#45;&gt;Node12</title>
<path fill="none" stroke="midnightblue" d="M702.877,-134.396C681.332,-123.193 651.425,-107.641 630.356,-96.6853"/>
<polygon fill="midnightblue" stroke="midnightblue" points="631.847,-93.5153 621.36,-92.007 628.617,-99.7258 631.847,-93.5153"/>
</g>
<!-- Node25&#45;&gt;Node9 -->
<g id="edge53" class="edge"><title>Node25&#45;&gt;Node9</title>
<path fill="none" stroke="midnightblue" d="M545.187,-385.975C627.109,-375.095 768.534,-356.312 854.935,-344.837"/>
<polygon fill="midnightblue" stroke="midnightblue" points="855.479,-348.295 864.932,-343.509 854.558,-341.356 855.479,-348.295"/>
</g>
<!-- Node25&#45;&gt;Node14 -->
<g id="edge55" class="edge"><title>Node25&#45;&gt;Node14</title>
<path fill="none" stroke="midnightblue" d="M437.628,-385.959C413.527,-378.88 385.214,-366.23 369,-344 344.392,-310.262 347.089,-258.22 350.777,-230.641"/>
<polygon fill="midnightblue" stroke="midnightblue" points="354.238,-231.16 352.289,-220.746 347.318,-230.103 354.238,-231.16"/>
</g>
<!-- Node25&#45;&gt;Node15 -->
<g id="edge52" class="edge"><title>Node25&#45;&gt;Node15</title>
<path fill="none" stroke="midnightblue" d="M387.402,-389.912C247.474,-380.456 0,-352.559 0,-273.5 0,-273.5 0,-273.5 0,-210 0,-164.622 36.3794,-121.482 58.7989,-99.205"/>
<polygon fill="midnightblue" stroke="midnightblue" points="61.2772,-101.678 66.0643,-92.2259 56.4279,-96.6293 61.2772,-101.678"/>
</g>
<!-- Node25&#45;&gt;Node19 -->
<g id="edge54" class="edge"><title>Node25&#45;&gt;Node19</title>
<path fill="none" stroke="midnightblue" d="M448.752,-385.981C422.054,-377.936 383.945,-364.087 355,-344 294.26,-301.847 283.298,-282.987 243,-221 233.5,-206.387 225.637,-188.375 220.207,-174.216"/>
<polygon fill="midnightblue" stroke="midnightblue" points="223.438,-172.862 216.694,-164.69 216.87,-175.283 223.438,-172.862"/>
</g>
<!-- Node26 -->
<g id="node26" class="node"><title>Node26</title>
<g id="a_node26"><a xlink:href="XalanDOMDefinitions_8hpp.html" target="_top" xlink:title=" ">
<polygon fill="none" stroke="black" points="718,-263 718,-282 924,-282 924,-263 718,-263"/>
<text text-anchor="middle" x="821" y="-270" font-family="Helvetica,sans-Serif" font-size="10.00">xalanc/XalanDOM/XalanDOMDefinitions.hpp</text>
</a>
</g>
</g>
<!-- Node25&#45;&gt;Node26 -->
<g id="edge50" class="edge"><title>Node25&#45;&gt;Node26</title>
<path fill="none" stroke="midnightblue" d="M568.043,-385.979C639.252,-377.759 733.334,-363.662 766,-344 786.927,-331.404 802.906,-307.659 812.115,-291.229"/>
<polygon fill="midnightblue" stroke="midnightblue" points="815.359,-292.582 816.957,-282.109 809.176,-289.3 815.359,-292.582"/>
</g>
<!-- Node27 -->
<g id="node27" class="node"><title>Node27</title>
<g id="a_node27"><a xlink:href="XalanDOMException_8hpp.html" target="_top" xlink:title=" ">
<polygon fill="none" stroke="black" points="378.5,-324.5 378.5,-343.5 583.5,-343.5 583.5,-324.5 378.5,-324.5"/>
<text text-anchor="middle" x="481" y="-331.5" font-family="Helvetica,sans-Serif" font-size="10.00">xalanc/XalanDOM/XalanDOMException.hpp</text>
</a>
</g>
</g>
<!-- Node25&#45;&gt;Node27 -->
<g id="edge56" class="edge"><title>Node25&#45;&gt;Node27</title>
<path fill="none" stroke="midnightblue" d="M481,-385.975C481,-377.58 481,-364.481 481,-353.663"/>
<polygon fill="midnightblue" stroke="midnightblue" points="484.5,-353.509 481,-343.509 477.5,-353.509 484.5,-353.509"/>
</g>
<!-- Node26&#45;&gt;Node3 -->
<g id="edge51" class="edge"><title>Node26&#45;&gt;Node3</title>
<path fill="none" stroke="midnightblue" d="M864.89,-262.986C889.333,-255.915 918.149,-243.266 935,-221 961.595,-185.859 946.754,-129.983 936.379,-101.489"/>
<polygon fill="midnightblue" stroke="midnightblue" points="939.586,-100.076 932.717,-92.0095 933.056,-102.599 939.586,-100.076"/>
</g>
<!-- Node27&#45;&gt;Node26 -->
<g id="edge57" class="edge"><title>Node27&#45;&gt;Node26</title>
<path fill="none" stroke="midnightblue" d="M529.714,-324.475C591.065,-313.739 696.393,-295.306 762.172,-283.795"/>
<polygon fill="midnightblue" stroke="midnightblue" points="763.13,-287.181 772.377,-282.009 761.923,-280.285 763.13,-287.181"/>
</g>
</g>
</svg>
        <g id="navigator" transform="translate(0 0)" fill="#404254">
                <rect fill="#f2f5e9" fill-opacity="0.5" stroke="#606060" stroke-width=".5" x="0" y="0" width="60" height="60"/>
                <use id="zoomplus" xlink:href="#zoomPlus" x="17" y="9" onmousedown="handleZoom(evt,'in')"/>
                <use id="zoomminus" xlink:href="#zoomMin" x="42" y="9" onmousedown="handleZoom(evt,'out')"/>
                <use id="reset" xlink:href="#resetDef" x="30" y="36" onmousedown="handleReset()"/>
                <g id="arrowUp" xlink:href="#dirArrow" transform="translate(30 24)" onmousedown="handlePan(0,-1)">
                  <use xlink:href="#rim" fill="#404040">
                        <set attributeName="fill" to="#808080" begin="arrowUp.mouseover" end="arrowUp.mouseout"/>
                  </use>
                  <path fill="none" stroke="white" stroke-width="1.5" d="M0,-3.0v7 M-2.5,-0.5L0,-3.0L2.5,-0.5"/>
                </g>
                <g id="arrowRight" xlink:href="#dirArrow" transform="rotate(90) translate(36 -43)" onmousedown="handlePan(1,0)">
                  <use xlink:href="#rim" fill="#404040">
                        <set attributeName="fill" to="#808080" begin="arrowRight.mouseover" end="arrowRight.mouseout"/>
                  </use>
                  <path fill="none" stroke="white" stroke-width="1.5" d="M0,-3.0v7 M-2.5,-0.5L0,-3.0L2.5,-0.5"/>
                </g>
                <g id="arrowDown" xlink:href="#dirArrow" transform="rotate(180) translate(-30 -48)" onmousedown="handlePan(0,1)">
                  <use xlink:href="#rim" fill="#404040">
                        <set attributeName="fill" to="#808080" begin="arrowDown.mouseover" end="arrowDown.mouseout"/>
                  </use>
                  <path fill="none" stroke="white" stroke-width="1.5" d="M0,-3.0v7 M-2.5,-0.5L0,-3.0L2.5,-0.5"/>
                </g>
                <g id="arrowLeft" xlink:href="#dirArrow" transform="rotate(270) translate(-36 17)" onmousedown="handlePan(-1,0)">
                  <use xlink:href="#rim" fill="#404040">
                        <set attributeName="fill" to="#808080" begin="arrowLeft.mouseover" end="arrowLeft.mouseout"/>
                  </use>
                  <path fill="none" stroke="white" stroke-width="1.5" d="M0,-3.0v7 M-2.5,-0.5L0,-3.0L2.5,-0.5"/>
                </g>
        </g>
        <svg viewBox="0 0 15 15" width="100%" height="30px" preserveAspectRatio="xMaxYMin meet">
         <g id="arrow_out" transform="scale(0.3 0.3)">
          <a xlink:href="XalanDOMStringAllocator_8hpp__incl_org.svg" target="_base">
           <rect id="button" ry="5" rx="5" y="6" x="6" height="38" width="38"
                fill="#f2f5e9" fill-opacity="0.5" stroke="#606060" stroke-width="1.0"/>
           <path id="arrow"
             d="M 11.500037,31.436501 C 11.940474,20.09759 22.043105,11.32322 32.158766,21.979434 L 37.068811,17.246167 C 37.068811,17.246167 37.088388,32 37.088388,32 L 22.160133,31.978069 C 22.160133,31.978069 26.997745,27.140456 26.997745,27.140456 C 18.528582,18.264221 13.291696,25.230495 11.500037,31.436501 z"
             style="fill:#404040;"/>
          </a>
         </g>
        </svg>
</svg>
