<?xml version="1.0" encoding="UTF-8" standalone="no"?>
<!DOCTYPE svg PUBLIC "-//W3C//DTD SVG 1.1//EN"
 "http://www.w3.org/Graphics/SVG/1.1/DTD/svg11.dtd">
<!-- Generated by graphviz version 2.38.0 (20140413.2041)
 -->
<!-- Title: xalanc/Include/XalanMap.hpp Pages: 1 -->
<svg width="776pt" height="285pt"
 viewBox="0.00 0.00 775.50 285.00" xmlns="http://www.w3.org/2000/svg" xmlns:xlink="http://www.w3.org/1999/xlink">
<g id="graph0" class="graph" transform="scale(1 1) rotate(0) translate(4 281)">
<title>xalanc/Include/XalanMap.hpp</title>
<!-- Node1 -->
<g id="node1" class="node"><title>Node1</title>
<g id="a_node1"><a xlink:title=" ">
<polygon fill="#bfbfbf" stroke="black" points="68.5,-257.5 68.5,-276.5 211.5,-276.5 211.5,-257.5 68.5,-257.5"/>
<text text-anchor="middle" x="140" y="-264.5" font-family="Helvetica,sans-Serif" font-size="10.00">xalanc/Include/XalanMap.hpp</text>
</a>
</g>
</g>
<!-- Node2 -->
<g id="node2" class="node"><title>Node2</title>
<g id="a_node2"><a xlink:href="PlatformDefinitions_8hpp.html" target="_top" xlink:title=" ">
<polygon fill="none" stroke="black" points="111,-73 111,-92 293,-92 293,-73 111,-73"/>
<text text-anchor="middle" x="202" y="-80" font-family="Helvetica,sans-Serif" font-size="10.00">xalanc/Include/PlatformDefinitions.hpp</text>
</a>
</g>
</g>
<!-- Node1&#45;&gt;Node2 -->
<g id="edge1" class="edge"><title>Node1&#45;&gt;Node2</title>
<path fill="none" stroke="midnightblue" d="M87.7214,-257.478C66.4079,-251.151 43.8071,-240.143 31,-221 9.49915,-188.862 7.85208,-164.972 31,-134 44.238,-116.287 95.9604,-102.616 139.089,-93.9925"/>
<polygon fill="midnightblue" stroke="midnightblue" points="139.839,-97.4122 148.988,-92.0696 138.504,-90.5406 139.839,-97.4122"/>
</g>
<!-- Node6 -->
<g id="node6" class="node"><title>Node6</title>
<g id="a_node6"><a xlink:title=" ">
<polygon fill="none" stroke="#bfbfbf" points="400,-73 400,-92 448,-92 448,-73 400,-73"/>
<text text-anchor="middle" x="424" y="-80" font-family="Helvetica,sans-Serif" font-size="10.00">cstddef</text>
</a>
</g>
</g>
<!-- Node1&#45;&gt;Node6 -->
<g id="edge5" class="edge"><title>Node1&#45;&gt;Node6</title>
<path fill="none" stroke="midnightblue" d="M127.918,-257.242C98.5627,-234.944 28.4301,-174.908 64,-134 69.3535,-127.843 301.073,-98.6678 389.867,-87.6901"/>
<polygon fill="midnightblue" stroke="midnightblue" points="390.466,-91.1428 399.962,-86.4443 389.609,-84.1955 390.466,-91.1428"/>
</g>
<!-- Node7 -->
<g id="node7" class="node"><title>Node7</title>
<g id="a_node7"><a xlink:title=" ">
<polygon fill="none" stroke="#bfbfbf" points="73,-140 73,-159 129,-159 129,-140 73,-140"/>
<text text-anchor="middle" x="101" y="-147" font-family="Helvetica,sans-Serif" font-size="10.00">algorithm</text>
</a>
</g>
</g>
<!-- Node1&#45;&gt;Node7 -->
<g id="edge6" class="edge"><title>Node1&#45;&gt;Node7</title>
<path fill="none" stroke="midnightblue" d="M129.335,-257.286C120.145,-249.039 107.514,-235.75 102,-221 95.7772,-204.353 96.2912,-183.912 97.902,-169.335"/>
<polygon fill="midnightblue" stroke="midnightblue" points="101.416,-169.472 99.3214,-159.087 94.4826,-168.512 101.416,-169.472"/>
</g>
<!-- Node8 -->
<g id="node8" class="node"><title>Node8</title>
<g id="a_node8"><a xlink:title=" ">
<polygon fill="none" stroke="#bfbfbf" points="111,-201.5 111,-220.5 169,-220.5 169,-201.5 111,-201.5"/>
<text text-anchor="middle" x="140" y="-208.5" font-family="Helvetica,sans-Serif" font-size="10.00">functional</text>
</a>
</g>
</g>
<!-- Node1&#45;&gt;Node8 -->
<g id="edge7" class="edge"><title>Node1&#45;&gt;Node8</title>
<path fill="none" stroke="midnightblue" d="M140,-257.083C140,-250.006 140,-239.861 140,-230.986"/>
<polygon fill="midnightblue" stroke="midnightblue" points="143.5,-230.751 140,-220.751 136.5,-230.751 143.5,-230.751"/>
</g>
<!-- Node9 -->
<g id="node9" class="node"><title>Node9</title>
<g id="a_node9"><a xlink:title=" ">
<polygon fill="none" stroke="#bfbfbf" points="187,-201.5 187,-220.5 227,-220.5 227,-201.5 187,-201.5"/>
<text text-anchor="middle" x="207" y="-208.5" font-family="Helvetica,sans-Serif" font-size="10.00">utility</text>
</a>
</g>
</g>
<!-- Node1&#45;&gt;Node9 -->
<g id="edge8" class="edge"><title>Node1&#45;&gt;Node9</title>
<path fill="none" stroke="midnightblue" d="M150.765,-257.324C160.766,-249.263 175.887,-237.077 187.93,-227.369"/>
<polygon fill="midnightblue" stroke="midnightblue" points="190.45,-229.834 196.039,-220.834 186.057,-224.384 190.45,-229.834"/>
</g>
<!-- Node10 -->
<g id="node10" class="node"><title>Node10</title>
<g id="a_node10"><a xlink:href="XalanVector_8hpp.html" target="_top" xlink:title=" ">
<polygon fill="none" stroke="black" points="245,-201.5 245,-220.5 397,-220.5 397,-201.5 245,-201.5"/>
<text text-anchor="middle" x="321" y="-208.5" font-family="Helvetica,sans-Serif" font-size="10.00">xalanc/Include/XalanVector.hpp</text>
</a>
</g>
</g>
<!-- Node1&#45;&gt;Node10 -->
<g id="edge9" class="edge"><title>Node1&#45;&gt;Node10</title>
<path fill="none" stroke="midnightblue" d="M168.68,-257.444C199.527,-248.241 248.728,-233.562 282.829,-223.388"/>
<polygon fill="midnightblue" stroke="midnightblue" points="283.872,-226.729 292.454,-220.516 281.871,-220.021 283.872,-226.729"/>
</g>
<!-- Node17 -->
<g id="node17" class="node"><title>Node17</title>
<g id="a_node17"><a xlink:href="XalanList_8hpp.html" target="_top" xlink:title=" ">
<polygon fill="none" stroke="black" points="415,-201.5 415,-220.5 555,-220.5 555,-201.5 415,-201.5"/>
<text text-anchor="middle" x="485" y="-208.5" font-family="Helvetica,sans-Serif" font-size="10.00">xalanc/Include/XalanList.hpp</text>
</a>
</g>
</g>
<!-- Node1&#45;&gt;Node17 -->
<g id="edge23" class="edge"><title>Node1&#45;&gt;Node17</title>
<path fill="none" stroke="midnightblue" d="M194.666,-257.444C255.986,-247.846 355.359,-232.292 420.449,-222.104"/>
<polygon fill="midnightblue" stroke="midnightblue" points="421.251,-225.521 430.589,-220.516 420.169,-218.605 421.251,-225.521"/>
</g>
<!-- Node3 -->
<g id="node3" class="node"><title>Node3</title>
<g id="a_node3"><a xlink:title=" ">
<polygon fill="none" stroke="#bfbfbf" points="0,-0.5 0,-30.5 108,-30.5 108,-0.5 0,-0.5"/>
<text text-anchor="start" x="8" y="-18.5" font-family="Helvetica,sans-Serif" font-size="10.00">xercesc/util/Xerces</text>
<text text-anchor="middle" x="54" y="-7.5" font-family="Helvetica,sans-Serif" font-size="10.00">_autoconf_config.hpp</text>
</a>
</g>
</g>
<!-- Node2&#45;&gt;Node3 -->
<g id="edge2" class="edge"><title>Node2&#45;&gt;Node3</title>
<path fill="none" stroke="midnightblue" d="M182.347,-72.8685C160.235,-63.1572 123.695,-47.1092 95.246,-34.6148"/>
<polygon fill="midnightblue" stroke="midnightblue" points="96.5042,-31.3447 85.9408,-30.5281 93.6893,-37.7539 96.5042,-31.3447"/>
</g>
<!-- Node4 -->
<g id="node4" class="node"><title>Node4</title>
<g id="a_node4"><a xlink:title=" ">
<polygon fill="none" stroke="#bfbfbf" points="126.5,-6 126.5,-25 277.5,-25 277.5,-6 126.5,-6"/>
<text text-anchor="middle" x="202" y="-13" font-family="Helvetica,sans-Serif" font-size="10.00">xercesc/util/XercesVersion.hpp</text>
</a>
</g>
</g>
<!-- Node2&#45;&gt;Node4 -->
<g id="edge3" class="edge"><title>Node2&#45;&gt;Node4</title>
<path fill="none" stroke="midnightblue" d="M202,-72.7338C202,-63.1826 202,-47.6183 202,-35.2829"/>
<polygon fill="midnightblue" stroke="midnightblue" points="205.5,-35.1273 202,-25.1273 198.5,-35.1273 205.5,-35.1273"/>
</g>
<!-- Node5 -->
<g id="node5" class="node"><title>Node5</title>
<g id="a_node5"><a xlink:href="XalanVersion_8hpp.html" target="_top" xlink:title=" ">
<polygon fill="none" stroke="black" points="296,-6 296,-25 388,-25 388,-6 296,-6"/>
<text text-anchor="middle" x="342" y="-13" font-family="Helvetica,sans-Serif" font-size="10.00">XalanVersion.hpp</text>
</a>
</g>
</g>
<!-- Node2&#45;&gt;Node5 -->
<g id="edge4" class="edge"><title>Node2&#45;&gt;Node5</title>
<path fill="none" stroke="midnightblue" d="M220.591,-72.8685C244.544,-61.7476 286.395,-42.3167 314.154,-29.4286"/>
<polygon fill="midnightblue" stroke="midnightblue" points="315.736,-32.5529 323.332,-25.1672 312.788,-26.2038 315.736,-32.5529"/>
</g>
<!-- Node10&#45;&gt;Node2 -->
<g id="edge10" class="edge"><title>Node10&#45;&gt;Node2</title>
<path fill="none" stroke="midnightblue" d="M268.679,-201.463C246.769,-195.128 223.151,-184.117 209,-165 195.629,-146.937 196.114,-120.062 198.434,-102.173"/>
<polygon fill="midnightblue" stroke="midnightblue" points="201.917,-102.554 200.052,-92.1252 195.007,-101.441 201.917,-102.554"/>
</g>
<!-- Node10&#45;&gt;Node6 -->
<g id="edge11" class="edge"><title>Node10&#45;&gt;Node6</title>
<path fill="none" stroke="midnightblue" d="M274.643,-201.467C253.925,-195.095 231.419,-184.052 219,-165 211.477,-153.458 210.502,-144.845 219,-134 239.833,-107.412 336.921,-92.933 389.67,-86.9081"/>
<polygon fill="midnightblue" stroke="midnightblue" points="390.344,-90.3552 399.901,-85.7821 389.578,-83.3972 390.344,-90.3552"/>
</g>
<!-- Node10&#45;&gt;Node7 -->
<g id="edge12" class="edge"><title>Node10&#45;&gt;Node7</title>
<path fill="none" stroke="midnightblue" d="M283.243,-201.436C247.038,-192.994 190.954,-179.311 143,-165 140.228,-164.173 137.367,-163.277 134.502,-162.35"/>
<polygon fill="midnightblue" stroke="midnightblue" points="135.467,-158.982 124.874,-159.135 133.25,-165.622 135.467,-158.982"/>
</g>
<!-- Node11 -->
<g id="node11" class="node"><title>Node11</title>
<g id="a_node11"><a xlink:title=" ">
<polygon fill="none" stroke="#bfbfbf" points="563.5,-73 563.5,-92 612.5,-92 612.5,-73 563.5,-73"/>
<text text-anchor="middle" x="588" y="-80" font-family="Helvetica,sans-Serif" font-size="10.00">cassert</text>
</a>
</g>
</g>
<!-- Node10&#45;&gt;Node11 -->
<g id="edge13" class="edge"><title>Node10&#45;&gt;Node11</title>
<path fill="none" stroke="midnightblue" d="M311.871,-201.034C297.359,-185.709 272.383,-154.182 290,-134 328.936,-89.3936 496.925,-113.754 554,-98 556.296,-97.3661 558.642,-96.6111 560.974,-95.7835"/>
<polygon fill="midnightblue" stroke="midnightblue" points="562.305,-99.021 570.324,-92.0965 559.737,-92.5091 562.305,-99.021"/>
</g>
<!-- Node12 -->
<g id="node12" class="node"><title>Node12</title>
<g id="a_node12"><a xlink:title=" ">
<polygon fill="none" stroke="#bfbfbf" points="511,-73 511,-92 545,-92 545,-73 511,-73"/>
<text text-anchor="middle" x="528" y="-80" font-family="Helvetica,sans-Serif" font-size="10.00">new</text>
</a>
</g>
</g>
<!-- Node10&#45;&gt;Node12 -->
<g id="edge14" class="edge"><title>Node10&#45;&gt;Node12</title>
<path fill="none" stroke="midnightblue" d="M299.517,-201.36C284.608,-194.09 265.889,-182.117 257,-165 250.65,-152.773 248.163,-144.57 257,-134 285.966,-99.3548 412.652,-106.519 457,-98 471.526,-95.2098 487.685,-91.9241 500.913,-89.1866"/>
<polygon fill="midnightblue" stroke="midnightblue" points="501.728,-92.5919 510.806,-87.1286 500.303,-85.7386 501.728,-92.5919"/>
</g>
<!-- Node13 -->
<g id="node13" class="node"><title>Node13</title>
<g id="a_node13"><a xlink:title=" ">
<polygon fill="none" stroke="#bfbfbf" points="299.5,-140 299.5,-159 346.5,-159 346.5,-140 299.5,-140"/>
<text text-anchor="middle" x="323" y="-147" font-family="Helvetica,sans-Serif" font-size="10.00">iterator</text>
</a>
</g>
</g>
<!-- Node10&#45;&gt;Node13 -->
<g id="edge15" class="edge"><title>Node10&#45;&gt;Node13</title>
<path fill="none" stroke="midnightblue" d="M321.287,-201.475C321.569,-193.08 322.009,-179.981 322.373,-169.163"/>
<polygon fill="midnightblue" stroke="midnightblue" points="325.876,-169.121 322.714,-159.009 318.88,-168.886 325.876,-169.121"/>
</g>
<!-- Node14 -->
<g id="node14" class="node"><title>Node14</title>
<g id="a_node14"><a xlink:title=" ">
<polygon fill="none" stroke="#bfbfbf" points="364.5,-140 364.5,-159 423.5,-159 423.5,-140 364.5,-140"/>
<text text-anchor="middle" x="394" y="-147" font-family="Helvetica,sans-Serif" font-size="10.00">stdexcept</text>
</a>
</g>
</g>
<!-- Node10&#45;&gt;Node14 -->
<g id="edge16" class="edge"><title>Node10&#45;&gt;Node14</title>
<path fill="none" stroke="midnightblue" d="M331.459,-201.475C342.951,-192.108 361.63,-176.884 375.587,-165.508"/>
<polygon fill="midnightblue" stroke="midnightblue" points="378.02,-168.04 383.56,-159.009 373.598,-162.614 378.02,-168.04"/>
</g>
<!-- Node15 -->
<g id="node15" class="node"><title>Node15</title>
<g id="a_node15"><a xlink:href="XalanMemoryManagement_8hpp.html" target="_top" xlink:title=" ">
<polygon fill="none" stroke="black" points="518,-134.5 518,-164.5 658,-164.5 658,-134.5 518,-134.5"/>
<text text-anchor="start" x="526" y="-152.5" font-family="Helvetica,sans-Serif" font-size="10.00">xalanc/Include/XalanMemory</text>
<text text-anchor="middle" x="588" y="-141.5" font-family="Helvetica,sans-Serif" font-size="10.00">Management.hpp</text>
</a>
</g>
</g>
<!-- Node10&#45;&gt;Node15 -->
<g id="edge17" class="edge"><title>Node10&#45;&gt;Node15</title>
<path fill="none" stroke="midnightblue" d="M359.255,-201.475C399.809,-192.438 464.833,-177.947 515.206,-166.722"/>
<polygon fill="midnightblue" stroke="midnightblue" points="516.074,-170.114 525.073,-164.523 514.551,-163.282 516.074,-170.114"/>
</g>
<!-- Node15&#45;&gt;Node2 -->
<g id="edge18" class="edge"><title>Node15&#45;&gt;Node2</title>
<path fill="none" stroke="midnightblue" d="M517.65,-136.654C444.592,-124.351 331.495,-105.306 262.367,-93.6654"/>
<polygon fill="midnightblue" stroke="midnightblue" points="262.939,-90.2125 252.496,-92.0033 261.776,-97.1153 262.939,-90.2125"/>
</g>
<!-- Node15&#45;&gt;Node6 -->
<g id="edge20" class="edge"><title>Node15&#45;&gt;Node6</title>
<path fill="none" stroke="midnightblue" d="M552.414,-134.396C523.384,-122.89 482.781,-106.797 455.052,-95.8072"/>
<polygon fill="midnightblue" stroke="midnightblue" points="456.05,-92.4379 445.464,-92.007 453.471,-98.9454 456.05,-92.4379"/>
</g>
<!-- Node15&#45;&gt;Node11 -->
<g id="edge19" class="edge"><title>Node15&#45;&gt;Node11</title>
<path fill="none" stroke="midnightblue" d="M588,-134.396C588,-125.064 588,-112.714 588,-102.517"/>
<polygon fill="midnightblue" stroke="midnightblue" points="591.5,-102.195 588,-92.1945 584.5,-102.195 591.5,-102.195"/>
</g>
<!-- Node15&#45;&gt;Node12 -->
<g id="edge21" class="edge"><title>Node15&#45;&gt;Node12</title>
<path fill="none" stroke="midnightblue" d="M574.981,-134.396C565.533,-124.161 552.735,-110.296 542.882,-99.622"/>
<polygon fill="midnightblue" stroke="midnightblue" points="545.38,-97.1686 536.026,-92.1945 540.237,-101.917 545.38,-97.1686"/>
</g>
<!-- Node16 -->
<g id="node16" class="node"><title>Node16</title>
<g id="a_node16"><a xlink:title=" ">
<polygon fill="none" stroke="#bfbfbf" points="630.5,-67.5 630.5,-97.5 767.5,-97.5 767.5,-67.5 630.5,-67.5"/>
<text text-anchor="start" x="638.5" y="-85.5" font-family="Helvetica,sans-Serif" font-size="10.00">xercesc/framework/Memory</text>
<text text-anchor="middle" x="699" y="-74.5" font-family="Helvetica,sans-Serif" font-size="10.00">Manager.hpp</text>
</a>
</g>
</g>
<!-- Node15&#45;&gt;Node16 -->
<g id="edge22" class="edge"><title>Node15&#45;&gt;Node16</title>
<path fill="none" stroke="midnightblue" d="M612.085,-134.396C627.94,-125.112 648.895,-112.841 666.256,-102.674"/>
<polygon fill="midnightblue" stroke="midnightblue" points="668.101,-105.65 674.962,-97.5765 664.564,-99.6095 668.101,-105.65"/>
</g>
<!-- Node17&#45;&gt;Node2 -->
<g id="edge24" class="edge"><title>Node17&#45;&gt;Node2</title>
<path fill="none" stroke="midnightblue" d="M481.534,-201.342C474.653,-185.329 457.681,-151.157 432,-134 394.236,-108.77 345.934,-95.9274 303.352,-89.4722"/>
<polygon fill="midnightblue" stroke="midnightblue" points="303.621,-85.9755 293.229,-88.0398 302.64,-92.9065 303.621,-85.9755"/>
</g>
<!-- Node17&#45;&gt;Node6 -->
<g id="edge25" class="edge"><title>Node17&#45;&gt;Node6</title>
<path fill="none" stroke="midnightblue" d="M484.082,-201.121C482.288,-186.458 477.442,-156.561 466,-134 459.537,-121.257 449.34,-108.891 440.611,-99.5847"/>
<polygon fill="midnightblue" stroke="midnightblue" points="442.944,-96.9643 433.45,-92.2621 437.939,-101.859 442.944,-96.9643"/>
</g>
<!-- Node17&#45;&gt;Node7 -->
<g id="edge26" class="edge"><title>Node17&#45;&gt;Node7</title>
<path fill="none" stroke="midnightblue" d="M429.982,-201.475C351.08,-189.249 207.778,-167.045 139.358,-156.443"/>
<polygon fill="midnightblue" stroke="midnightblue" points="139.849,-152.978 129.431,-154.905 138.778,-159.895 139.849,-152.978"/>
</g>
<!-- Node17&#45;&gt;Node11 -->
<g id="edge27" class="edge"><title>Node17&#45;&gt;Node11</title>
<path fill="none" stroke="midnightblue" d="M555.23,-203.337C605.829,-196.915 667.913,-185.131 684,-165 692.601,-154.237 691.122,-145.794 684,-134 680.077,-127.503 643.028,-109.164 616.128,-96.4731"/>
<polygon fill="midnightblue" stroke="midnightblue" points="617.298,-93.156 606.757,-92.0853 614.329,-99.4955 617.298,-93.156"/>
</g>
<!-- Node17&#45;&gt;Node12 -->
<g id="edge28" class="edge"><title>Node17&#45;&gt;Node12</title>
<path fill="none" stroke="midnightblue" d="M555.075,-201.63C600.22,-194.633 653.005,-182.876 667,-165 675.493,-154.151 675.116,-145.134 667,-134 636.2,-91.7484 603.119,-118.453 555,-98 553.996,-97.5733 552.98,-97.122 551.96,-96.6527"/>
<polygon fill="midnightblue" stroke="midnightblue" points="553.409,-93.4642 542.899,-92.1246 550.28,-99.7258 553.409,-93.4642"/>
</g>
<!-- Node17&#45;&gt;Node13 -->
<g id="edge29" class="edge"><title>Node17&#45;&gt;Node13</title>
<path fill="none" stroke="midnightblue" d="M458.095,-201.49C431.619,-192.928 390.164,-179.018 355,-165 353.584,-164.435 352.139,-163.843 350.684,-163.233"/>
<polygon fill="midnightblue" stroke="midnightblue" points="351.716,-159.865 341.151,-159.075 348.918,-166.281 351.716,-159.865"/>
</g>
<!-- Node17&#45;&gt;Node14 -->
<g id="edge30" class="edge"><title>Node17&#45;&gt;Node14</title>
<path fill="none" stroke="midnightblue" d="M471.962,-201.475C457.231,-191.843 433.027,-176.017 415.491,-164.552"/>
<polygon fill="midnightblue" stroke="midnightblue" points="417.299,-161.552 407.014,-159.009 413.468,-167.411 417.299,-161.552"/>
</g>
<!-- Node17&#45;&gt;Node15 -->
<g id="edge31" class="edge"><title>Node17&#45;&gt;Node15</title>
<path fill="none" stroke="midnightblue" d="M499.757,-201.475C514.098,-193.191 536.371,-180.325 554.951,-169.591"/>
<polygon fill="midnightblue" stroke="midnightblue" points="556.817,-172.556 563.725,-164.523 553.315,-166.494 556.817,-172.556"/>
</g>
</g>
</svg>
