<?xml version="1.0" encoding="UTF-8" standalone="no"?>
<!DOCTYPE svg PUBLIC "-//W3C//DTD SVG 1.1//EN"
 "http://www.w3.org/Graphics/SVG/1.1/DTD/svg11.dtd">
<!-- Generated by graphviz version 2.38.0 (20140413.2041)
 -->
<!-- Title: xalanc/XalanSourceTree/XalanSourceTreeAttributeAllocator.hpp Pages: 1 -->
<!--zoomable 553 -->
<svg id="main" version="1.1" xmlns="http://www.w3.org/2000/svg" xmlns:xlink="http://www.w3.org/1999/xlink" xml:space="preserve" onload="init(evt)">
<style type="text/css"><![CDATA[
.edge:hover path { stroke: red; }
.edge:hover polygon { stroke: red; fill: red; }
]]></style>
<script type="text/javascript"><![CDATA[
var edges = document.getElementsByTagName('g');
if (edges && edges.length) {
  for (var i=0;i<edges.length;i++) {
    if (edges[i].id.substr(0,4)=='edge') {
      edges[i].setAttribute('class','edge');
    }
  }
}
]]></script>
        <defs>
                <circle id="rim" cx="0" cy="0" r="7"/>
                <circle id="rim2" cx="0" cy="0" r="3.5"/>
                <g id="zoomPlus">
                        <use xlink:href="#rim" fill="#404040">
                                <set attributeName="fill" to="#808080" begin="zoomplus.mouseover" end="zoomplus.mouseout"/>
                        </use>
                        <path d="M-4,0h8M0,-4v8" fill="none" stroke="white" stroke-width="1.5" pointer-events="none"/>
                </g>
                <g id="zoomMin">
                        <use xlink:href="#rim" fill="#404040">
                                <set attributeName="fill" to="#808080" begin="zoomminus.mouseover" end="zoomminus.mouseout"/>
                        </use>
                        <path d="M-4,0h8" fill="none" stroke="white" stroke-width="1.5" pointer-events="none"/>
                </g>
                <g id="dirArrow">
                        <path fill="none" stroke="white" stroke-width="1.5" d="M0,-3.0v7 M-2.5,-0.5L0,-3.0L2.5,-0.5"/>
                </g>
               <g id="resetDef">
                       <use xlink:href="#rim2" fill="#404040">
                               <set attributeName="fill" to="#808080" begin="reset.mouseover" end="reset.mouseout"/>
                       </use>
               </g>
        </defs>

<script type="text/javascript">
var viewWidth = 1331;
var viewHeight = 553;
var sectionId = 'dynsection-0';
</script>
<script xlink:href="svgpan.js"/>
<svg id="graph" class="graph">
<g id="viewport">
<title>xalanc/XalanSourceTree/XalanSourceTreeAttributeAllocator.hpp</title>
<!-- Node1 -->
<g id="node1" class="node"><title>Node1</title>
<g id="a_node1"><a xlink:title=" ">
<polygon fill="#bfbfbf" stroke="black" points="159,-514.5 159,-544.5 345,-544.5 345,-514.5 159,-514.5"/>
<text text-anchor="start" x="167" y="-532.5" font-family="Helvetica,sans-Serif" font-size="10.00">xalanc/XalanSourceTree</text>
<text text-anchor="middle" x="252" y="-521.5" font-family="Helvetica,sans-Serif" font-size="10.00">/XalanSourceTreeAttributeAllocator.hpp</text>
</a>
</g>
</g>
<!-- Node2 -->
<g id="node2" class="node"><title>Node2</title>
<g id="a_node2"><a xlink:href="XalanSourceTreeDefinitions_8hpp.html" target="_top" xlink:title=" ">
<polygon fill="none" stroke="black" points="0,-380.5 0,-410.5 156,-410.5 156,-380.5 0,-380.5"/>
<text text-anchor="start" x="8" y="-398.5" font-family="Helvetica,sans-Serif" font-size="10.00">xalanc/XalanSourceTree</text>
<text text-anchor="middle" x="78" y="-387.5" font-family="Helvetica,sans-Serif" font-size="10.00">/XalanSourceTreeDefinitions.hpp</text>
</a>
</g>
</g>
<!-- Node1&#45;&gt;Node2 -->
<g id="edge1" class="edge"><title>Node1&#45;&gt;Node2</title>
<path fill="none" stroke="midnightblue" d="M230.624,-514.321C215.914,-504.415 196.032,-490.736 179,-478 152.356,-458.077 122.847,-434.023 102.642,-417.232"/>
<polygon fill="midnightblue" stroke="midnightblue" points="104.774,-414.452 94.8523,-410.734 100.29,-419.827 104.774,-414.452"/>
</g>
<!-- Node7 -->
<g id="node7" class="node"><title>Node7</title>
<g id="a_node7"><a xlink:href="ArenaAllocator_8hpp.html" target="_top" xlink:title=" ">
<polygon fill="none" stroke="black" points="754,-380.5 754,-410.5 872,-410.5 872,-380.5 754,-380.5"/>
<text text-anchor="start" x="762" y="-398.5" font-family="Helvetica,sans-Serif" font-size="10.00">xalanc/PlatformSupport</text>
<text text-anchor="middle" x="813" y="-387.5" font-family="Helvetica,sans-Serif" font-size="10.00">/ArenaAllocator.hpp</text>
</a>
</g>
</g>
<!-- Node1&#45;&gt;Node7 -->
<g id="edge6" class="edge"><title>Node1&#45;&gt;Node7</title>
<path fill="none" stroke="midnightblue" d="M311.506,-514.499C416.208,-489.863 632.785,-438.904 743.915,-412.755"/>
<polygon fill="midnightblue" stroke="midnightblue" points="744.751,-416.154 753.683,-410.457 743.147,-409.34 744.751,-416.154"/>
</g>
<!-- Node25 -->
<g id="node25" class="node"><title>Node25</title>
<g id="a_node25"><a xlink:href="XalanSourceTreeAttr_8hpp.html" target="_top" xlink:title=" ">
<polygon fill="none" stroke="black" points="188.5,-447.5 188.5,-477.5 315.5,-477.5 315.5,-447.5 188.5,-447.5"/>
<text text-anchor="start" x="196.5" y="-465.5" font-family="Helvetica,sans-Serif" font-size="10.00">xalanc/XalanSourceTree</text>
<text text-anchor="middle" x="252" y="-454.5" font-family="Helvetica,sans-Serif" font-size="10.00">/XalanSourceTreeAttr.hpp</text>
</a>
</g>
</g>
<!-- Node1&#45;&gt;Node25 -->
<g id="edge49" class="edge"><title>Node1&#45;&gt;Node25</title>
<path fill="none" stroke="midnightblue" d="M252,-514.396C252,-506.645 252,-496.812 252,-487.86"/>
<polygon fill="midnightblue" stroke="midnightblue" points="255.5,-487.576 252,-477.577 248.5,-487.577 255.5,-487.576"/>
</g>
<!-- Node3 -->
<g id="node3" class="node"><title>Node3</title>
<g id="a_node3"><a xlink:href="PlatformDefinitions_8hpp.html" target="_top" xlink:title=" ">
<polygon fill="none" stroke="black" points="306,-73 306,-92 488,-92 488,-73 306,-73"/>
<text text-anchor="middle" x="397" y="-80" font-family="Helvetica,sans-Serif" font-size="10.00">xalanc/Include/PlatformDefinitions.hpp</text>
</a>
</g>
</g>
<!-- Node2&#45;&gt;Node3 -->
<g id="edge2" class="edge"><title>Node2&#45;&gt;Node3</title>
<path fill="none" stroke="midnightblue" d="M78,-380.342C78,-357.751 78,-312.153 78,-273.5 78,-273.5 78,-273.5 78,-210 78,-154.37 247.757,-112.585 339.6,-94.0498"/>
<polygon fill="midnightblue" stroke="midnightblue" points="340.462,-97.447 349.587,-92.0638 339.096,-90.5814 340.462,-97.447"/>
</g>
<!-- Node4 -->
<g id="node4" class="node"><title>Node4</title>
<g id="a_node4"><a xlink:title=" ">
<polygon fill="none" stroke="#bfbfbf" points="195,-0.5 195,-30.5 303,-30.5 303,-0.5 195,-0.5"/>
<text text-anchor="start" x="203" y="-18.5" font-family="Helvetica,sans-Serif" font-size="10.00">xercesc/util/Xerces</text>
<text text-anchor="middle" x="249" y="-7.5" font-family="Helvetica,sans-Serif" font-size="10.00">_autoconf_config.hpp</text>
</a>
</g>
</g>
<!-- Node3&#45;&gt;Node4 -->
<g id="edge3" class="edge"><title>Node3&#45;&gt;Node4</title>
<path fill="none" stroke="midnightblue" d="M377.347,-72.8685C355.235,-63.1572 318.695,-47.1092 290.246,-34.6148"/>
<polygon fill="midnightblue" stroke="midnightblue" points="291.504,-31.3447 280.941,-30.5281 288.689,-37.7539 291.504,-31.3447"/>
</g>
<!-- Node5 -->
<g id="node5" class="node"><title>Node5</title>
<g id="a_node5"><a xlink:title=" ">
<polygon fill="none" stroke="#bfbfbf" points="321.5,-6 321.5,-25 472.5,-25 472.5,-6 321.5,-6"/>
<text text-anchor="middle" x="397" y="-13" font-family="Helvetica,sans-Serif" font-size="10.00">xercesc/util/XercesVersion.hpp</text>
</a>
</g>
</g>
<!-- Node3&#45;&gt;Node5 -->
<g id="edge4" class="edge"><title>Node3&#45;&gt;Node5</title>
<path fill="none" stroke="midnightblue" d="M397,-72.7338C397,-63.1826 397,-47.6183 397,-35.2829"/>
<polygon fill="midnightblue" stroke="midnightblue" points="400.5,-35.1273 397,-25.1273 393.5,-35.1273 400.5,-35.1273"/>
</g>
<!-- Node6 -->
<g id="node6" class="node"><title>Node6</title>
<g id="a_node6"><a xlink:href="XalanVersion_8hpp.html" target="_top" xlink:title=" ">
<polygon fill="none" stroke="black" points="491,-6 491,-25 583,-25 583,-6 491,-6"/>
<text text-anchor="middle" x="537" y="-13" font-family="Helvetica,sans-Serif" font-size="10.00">XalanVersion.hpp</text>
</a>
</g>
</g>
<!-- Node3&#45;&gt;Node6 -->
<g id="edge5" class="edge"><title>Node3&#45;&gt;Node6</title>
<path fill="none" stroke="midnightblue" d="M415.591,-72.8685C439.544,-61.7476 481.395,-42.3167 509.154,-29.4286"/>
<polygon fill="midnightblue" stroke="midnightblue" points="510.736,-32.5529 518.332,-25.1672 507.788,-26.2038 510.736,-32.5529"/>
</g>
<!-- Node8 -->
<g id="node8" class="node"><title>Node8</title>
<g id="a_node8"><a xlink:title=" ">
<polygon fill="none" stroke="#bfbfbf" points="463,-140 463,-159 519,-159 519,-140 463,-140"/>
<text text-anchor="middle" x="491" y="-147" font-family="Helvetica,sans-Serif" font-size="10.00">algorithm</text>
</a>
</g>
</g>
<!-- Node7&#45;&gt;Node8 -->
<g id="edge7" class="edge"><title>Node7&#45;&gt;Node8</title>
<path fill="none" stroke="midnightblue" d="M806.384,-380.482C788.708,-344.617 736.731,-248.979 664,-201 610.371,-165.623 584.72,-185.991 524,-165 522.137,-164.356 520.233,-163.651 518.326,-162.909"/>
<polygon fill="midnightblue" stroke="midnightblue" points="519.522,-159.617 508.945,-159.015 516.839,-166.082 519.522,-159.617"/>
</g>
<!-- Node9 -->
<g id="node9" class="node"><title>Node9</title>
<g id="a_node9"><a xlink:href="STLHelper_8hpp.html" target="_top" xlink:title=" ">
<polygon fill="none" stroke="black" points="585,-324.5 585,-343.5 731,-343.5 731,-324.5 585,-324.5"/>
<text text-anchor="middle" x="658" y="-331.5" font-family="Helvetica,sans-Serif" font-size="10.00">xalanc/Include/STLHelper.hpp</text>
</a>
</g>
</g>
<!-- Node7&#45;&gt;Node9 -->
<g id="edge8" class="edge"><title>Node7&#45;&gt;Node9</title>
<path fill="none" stroke="midnightblue" d="M776.267,-380.399C750.029,-370.327 715.075,-356.909 689.982,-347.277"/>
<polygon fill="midnightblue" stroke="midnightblue" points="691.144,-343.974 680.554,-343.658 688.635,-350.509 691.144,-343.974"/>
</g>
<!-- Node21 -->
<g id="node21" class="node"><title>Node21</title>
<g id="a_node21"><a xlink:href="XalanList_8hpp.html" target="_top" xlink:title=" ">
<polygon fill="none" stroke="black" points="919,-201.5 919,-220.5 1059,-220.5 1059,-201.5 919,-201.5"/>
<text text-anchor="middle" x="989" y="-208.5" font-family="Helvetica,sans-Serif" font-size="10.00">xalanc/Include/XalanList.hpp</text>
</a>
</g>
</g>
<!-- Node7&#45;&gt;Node21 -->
<g id="edge41" class="edge"><title>Node7&#45;&gt;Node21</title>
<path fill="none" stroke="midnightblue" d="M826.518,-380.483C858.561,-347.256 939.001,-263.846 973.208,-228.375"/>
<polygon fill="midnightblue" stroke="midnightblue" points="976.073,-230.446 980.495,-220.819 971.034,-225.587 976.073,-230.446"/>
</g>
<!-- Node22 -->
<g id="node22" class="node"><title>Node22</title>
<g id="a_node22"><a xlink:href="ArenaBlock_8hpp.html" target="_top" xlink:title=" ">
<polygon fill="none" stroke="black" points="1192,-324.5 1192,-343.5 1278,-343.5 1278,-324.5 1192,-324.5"/>
<text text-anchor="middle" x="1235" y="-331.5" font-family="Helvetica,sans-Serif" font-size="10.00">ArenaBlock.hpp</text>
</a>
</g>
</g>
<!-- Node7&#45;&gt;Node22 -->
<g id="edge42" class="edge"><title>Node7&#45;&gt;Node22</title>
<path fill="none" stroke="midnightblue" d="M872.307,-386.57C944.387,-376.864 1069.69,-359.768 1177,-344 1178.51,-343.778 1180.05,-343.551 1181.59,-343.32"/>
<polygon fill="midnightblue" stroke="midnightblue" points="1182.57,-346.713 1191.94,-341.761 1181.53,-339.791 1182.57,-346.713"/>
</g>
<!-- Node9&#45;&gt;Node3 -->
<g id="edge9" class="edge"><title>Node9&#45;&gt;Node3</title>
<path fill="none" stroke="midnightblue" d="M602.594,-324.427C556.319,-316.367 494.825,-303.278 475,-288 415.025,-241.782 401.158,-143.612 397.958,-102.37"/>
<polygon fill="midnightblue" stroke="midnightblue" points="401.447,-102.091 397.309,-92.3377 394.462,-102.543 401.447,-102.091"/>
</g>
<!-- Node9&#45;&gt;Node8 -->
<g id="edge10" class="edge"><title>Node9&#45;&gt;Node8</title>
<path fill="none" stroke="midnightblue" d="M598.018,-324.474C556.008,-317.138 505.125,-305.028 492,-288 465.239,-253.281 476.354,-197.626 484.778,-168.931"/>
<polygon fill="midnightblue" stroke="midnightblue" points="488.227,-169.631 487.895,-159.041 481.551,-167.527 488.227,-169.631"/>
</g>
<!-- Node10 -->
<g id="node10" class="node"><title>Node10</title>
<g id="a_node10"><a xlink:title=" ">
<polygon fill="none" stroke="#bfbfbf" points="597,-201.5 597,-220.5 655,-220.5 655,-201.5 597,-201.5"/>
<text text-anchor="middle" x="626" y="-208.5" font-family="Helvetica,sans-Serif" font-size="10.00">functional</text>
</a>
</g>
</g>
<!-- Node9&#45;&gt;Node10 -->
<g id="edge11" class="edge"><title>Node9&#45;&gt;Node10</title>
<path fill="none" stroke="midnightblue" d="M658.729,-324.326C659.654,-309.957 660.34,-280.474 653,-257 649.879,-247.018 644.127,-236.939 638.732,-228.858"/>
<polygon fill="midnightblue" stroke="midnightblue" points="641.587,-226.833 632.952,-220.694 635.874,-230.878 641.587,-226.833"/>
</g>
<!-- Node11 -->
<g id="node11" class="node"><title>Node11</title>
<g id="a_node11"><a xlink:href="XalanMap_8hpp.html" target="_top" xlink:title=" ">
<polygon fill="none" stroke="black" points="501.5,-263 501.5,-282 644.5,-282 644.5,-263 501.5,-263"/>
<text text-anchor="middle" x="573" y="-270" font-family="Helvetica,sans-Serif" font-size="10.00">xalanc/Include/XalanMap.hpp</text>
</a>
</g>
</g>
<!-- Node9&#45;&gt;Node11 -->
<g id="edge12" class="edge"><title>Node9&#45;&gt;Node11</title>
<path fill="none" stroke="midnightblue" d="M645.822,-324.475C632.188,-314.931 609.868,-299.307 593.526,-287.868"/>
<polygon fill="midnightblue" stroke="midnightblue" points="595.355,-284.876 585.156,-282.009 591.341,-290.611 595.355,-284.876"/>
</g>
<!-- Node11&#45;&gt;Node3 -->
<g id="edge13" class="edge"><title>Node11&#45;&gt;Node3</title>
<path fill="none" stroke="midnightblue" d="M539.308,-262.93C515.223,-255.332 483.413,-242.102 462,-221 427.466,-186.967 409.031,-131.014 401.368,-102.096"/>
<polygon fill="midnightblue" stroke="midnightblue" points="404.695,-100.975 398.873,-92.1234 397.905,-102.674 404.695,-100.975"/>
</g>
<!-- Node11&#45;&gt;Node8 -->
<g id="edge15" class="edge"><title>Node11&#45;&gt;Node8</title>
<path fill="none" stroke="midnightblue" d="M564.826,-262.992C555.728,-253.286 540.877,-236.719 530,-221 518.215,-203.97 507.016,-183.056 499.668,-168.448"/>
<polygon fill="midnightblue" stroke="midnightblue" points="502.606,-166.492 495.044,-159.071 496.328,-169.588 502.606,-166.492"/>
</g>
<!-- Node11&#45;&gt;Node10 -->
<g id="edge16" class="edge"><title>Node11&#45;&gt;Node10</title>
<path fill="none" stroke="midnightblue" d="M580.594,-262.975C588.701,-253.873 601.735,-239.241 611.763,-227.983"/>
<polygon fill="midnightblue" stroke="midnightblue" points="614.383,-230.304 618.42,-220.509 609.156,-225.648 614.383,-230.304"/>
</g>
<!-- Node12 -->
<g id="node12" class="node"><title>Node12</title>
<g id="a_node12"><a xlink:title=" ">
<polygon fill="none" stroke="#bfbfbf" points="697,-73 697,-92 745,-92 745,-73 697,-73"/>
<text text-anchor="middle" x="721" y="-80" font-family="Helvetica,sans-Serif" font-size="10.00">cstddef</text>
</a>
</g>
</g>
<!-- Node11&#45;&gt;Node12 -->
<g id="edge14" class="edge"><title>Node11&#45;&gt;Node12</title>
<path fill="none" stroke="midnightblue" d="M555.179,-262.923C512.873,-241.46 412.909,-183.591 454,-134 483.154,-98.8152 621.07,-87.963 686.454,-84.7651"/>
<polygon fill="midnightblue" stroke="midnightblue" points="686.837,-88.2513 696.668,-84.2993 686.518,-81.2586 686.837,-88.2513"/>
</g>
<!-- Node13 -->
<g id="node13" class="node"><title>Node13</title>
<g id="a_node13"><a xlink:title=" ">
<polygon fill="none" stroke="#bfbfbf" points="539,-201.5 539,-220.5 579,-220.5 579,-201.5 539,-201.5"/>
<text text-anchor="middle" x="559" y="-208.5" font-family="Helvetica,sans-Serif" font-size="10.00">utility</text>
</a>
</g>
</g>
<!-- Node11&#45;&gt;Node13 -->
<g id="edge17" class="edge"><title>Node11&#45;&gt;Node13</title>
<path fill="none" stroke="midnightblue" d="M570.994,-262.975C568.998,-254.492 565.872,-241.204 563.311,-230.322"/>
<polygon fill="midnightblue" stroke="midnightblue" points="566.7,-229.442 561.002,-220.509 559.886,-231.045 566.7,-229.442"/>
</g>
<!-- Node14 -->
<g id="node14" class="node"><title>Node14</title>
<g id="a_node14"><a xlink:href="XalanVector_8hpp.html" target="_top" xlink:title=" ">
<polygon fill="none" stroke="black" points="749,-201.5 749,-220.5 901,-220.5 901,-201.5 749,-201.5"/>
<text text-anchor="middle" x="825" y="-208.5" font-family="Helvetica,sans-Serif" font-size="10.00">xalanc/Include/XalanVector.hpp</text>
</a>
</g>
</g>
<!-- Node11&#45;&gt;Node14 -->
<g id="edge18" class="edge"><title>Node11&#45;&gt;Node14</title>
<path fill="none" stroke="midnightblue" d="M609.105,-262.975C653.829,-252.415 730.083,-234.411 778.967,-222.869"/>
<polygon fill="midnightblue" stroke="midnightblue" points="780.033,-226.213 788.962,-220.509 778.425,-219.401 780.033,-226.213"/>
</g>
<!-- Node11&#45;&gt;Node21 -->
<g id="edge32" class="edge"><title>Node11&#45;&gt;Node21</title>
<path fill="none" stroke="midnightblue" d="M632.603,-262.975C708.441,-252.128 839.197,-233.426 919.491,-221.942"/>
<polygon fill="midnightblue" stroke="midnightblue" points="920.104,-225.39 929.508,-220.509 919.113,-218.46 920.104,-225.39"/>
</g>
<!-- Node14&#45;&gt;Node3 -->
<g id="edge19" class="edge"><title>Node14&#45;&gt;Node3</title>
<path fill="none" stroke="midnightblue" d="M748.89,-206.947C695.623,-202.422 623.919,-191.434 566,-165 546.172,-155.95 546.848,-144.945 528,-134 499.03,-117.177 463.407,-103.861 436.626,-95.1366"/>
<polygon fill="midnightblue" stroke="midnightblue" points="437.417,-91.7156 426.827,-92.0197 435.295,-98.3863 437.417,-91.7156"/>
</g>
<!-- Node14&#45;&gt;Node8 -->
<g id="edge21" class="edge"><title>Node14&#45;&gt;Node8</title>
<path fill="none" stroke="midnightblue" d="M748.941,-202.073C689.575,-194.976 605.32,-182.902 533,-165 529.78,-164.203 526.457,-163.265 523.156,-162.255"/>
<polygon fill="midnightblue" stroke="midnightblue" points="524.038,-158.861 513.446,-159.081 521.864,-165.515 524.038,-158.861"/>
</g>
<!-- Node14&#45;&gt;Node12 -->
<g id="edge20" class="edge"><title>Node14&#45;&gt;Node12</title>
<path fill="none" stroke="midnightblue" d="M799.168,-201.406C781.519,-194.275 758.896,-182.453 745,-165 730.461,-146.739 724.726,-119.911 722.466,-102.086"/>
<polygon fill="midnightblue" stroke="midnightblue" points="725.942,-101.672 721.443,-92.0802 718.978,-102.384 725.942,-101.672"/>
</g>
<!-- Node15 -->
<g id="node15" class="node"><title>Node15</title>
<g id="a_node15"><a xlink:title=" ">
<polygon fill="none" stroke="#bfbfbf" points="1238.5,-73 1238.5,-92 1287.5,-92 1287.5,-73 1238.5,-73"/>
<text text-anchor="middle" x="1263" y="-80" font-family="Helvetica,sans-Serif" font-size="10.00">cassert</text>
</a>
</g>
</g>
<!-- Node14&#45;&gt;Node15 -->
<g id="edge22" class="edge"><title>Node14&#45;&gt;Node15</title>
<path fill="none" stroke="midnightblue" d="M820.238,-201.407C812.302,-185.806 798.852,-152.708 816,-134 878.25,-66.0877 1139.63,-120.349 1229,-98 1231.36,-97.4089 1233.77,-96.6742 1236.17,-95.8515"/>
<polygon fill="midnightblue" stroke="midnightblue" points="1237.68,-99.0173 1245.72,-92.1164 1235.13,-92.4978 1237.68,-99.0173"/>
</g>
<!-- Node16 -->
<g id="node16" class="node"><title>Node16</title>
<g id="a_node16"><a xlink:title=" ">
<polygon fill="none" stroke="#bfbfbf" points="1031,-73 1031,-92 1065,-92 1065,-73 1031,-73"/>
<text text-anchor="middle" x="1048" y="-80" font-family="Helvetica,sans-Serif" font-size="10.00">new</text>
</a>
</g>
</g>
<!-- Node14&#45;&gt;Node16 -->
<g id="edge23" class="edge"><title>Node14&#45;&gt;Node16</title>
<path fill="none" stroke="midnightblue" d="M813.86,-201.384C796.053,-186.588 764.932,-155.836 783,-134 812.997,-97.7471 959.164,-87.2925 1020.66,-84.4724"/>
<polygon fill="midnightblue" stroke="midnightblue" points="1020.93,-87.964 1030.77,-84.043 1020.63,-80.9703 1020.93,-87.964"/>
</g>
<!-- Node17 -->
<g id="node17" class="node"><title>Node17</title>
<g id="a_node17"><a xlink:title=" ">
<polygon fill="none" stroke="#bfbfbf" points="902.5,-140 902.5,-159 949.5,-159 949.5,-140 902.5,-140"/>
<text text-anchor="middle" x="926" y="-147" font-family="Helvetica,sans-Serif" font-size="10.00">iterator</text>
</a>
</g>
</g>
<!-- Node14&#45;&gt;Node17 -->
<g id="edge24" class="edge"><title>Node14&#45;&gt;Node17</title>
<path fill="none" stroke="midnightblue" d="M839.471,-201.475C855.971,-191.755 883.178,-175.727 902.681,-164.237"/>
<polygon fill="midnightblue" stroke="midnightblue" points="904.716,-167.101 911.556,-159.009 901.163,-161.069 904.716,-167.101"/>
</g>
<!-- Node18 -->
<g id="node18" class="node"><title>Node18</title>
<g id="a_node18"><a xlink:title=" ">
<polygon fill="none" stroke="#bfbfbf" points="825.5,-140 825.5,-159 884.5,-159 884.5,-140 825.5,-140"/>
<text text-anchor="middle" x="855" y="-147" font-family="Helvetica,sans-Serif" font-size="10.00">stdexcept</text>
</a>
</g>
</g>
<!-- Node14&#45;&gt;Node18 -->
<g id="edge25" class="edge"><title>Node14&#45;&gt;Node18</title>
<path fill="none" stroke="midnightblue" d="M829.298,-201.475C833.665,-192.815 840.555,-179.149 846.103,-168.145"/>
<polygon fill="midnightblue" stroke="midnightblue" points="849.333,-169.514 850.71,-159.009 843.082,-166.363 849.333,-169.514"/>
</g>
<!-- Node19 -->
<g id="node19" class="node"><title>Node19</title>
<g id="a_node19"><a xlink:href="XalanMemoryManagement_8hpp.html" target="_top" xlink:title=" ">
<polygon fill="none" stroke="black" points="1082,-134.5 1082,-164.5 1222,-164.5 1222,-134.5 1082,-134.5"/>
<text text-anchor="start" x="1090" y="-152.5" font-family="Helvetica,sans-Serif" font-size="10.00">xalanc/Include/XalanMemory</text>
<text text-anchor="middle" x="1152" y="-141.5" font-family="Helvetica,sans-Serif" font-size="10.00">Management.hpp</text>
</a>
</g>
</g>
<!-- Node14&#45;&gt;Node19 -->
<g id="edge26" class="edge"><title>Node14&#45;&gt;Node19</title>
<path fill="none" stroke="midnightblue" d="M871.851,-201.475C923.984,-191.989 1009.13,-176.496 1071.89,-165.076"/>
<polygon fill="midnightblue" stroke="midnightblue" points="1072.55,-168.513 1081.77,-163.28 1071.3,-161.626 1072.55,-168.513"/>
</g>
<!-- Node19&#45;&gt;Node3 -->
<g id="edge27" class="edge"><title>Node19&#45;&gt;Node3</title>
<path fill="none" stroke="midnightblue" d="M1081.91,-142.061C1053.95,-139.515 1021.45,-136.584 992,-134 818.648,-118.789 616.817,-101.814 498.383,-91.9276"/>
<polygon fill="midnightblue" stroke="midnightblue" points="498.5,-88.4252 488.243,-91.0815 497.918,-95.401 498.5,-88.4252"/>
</g>
<!-- Node19&#45;&gt;Node12 -->
<g id="edge29" class="edge"><title>Node19&#45;&gt;Node12</title>
<path fill="none" stroke="midnightblue" d="M1081.79,-137.912C988.089,-123.78 825.784,-99.3026 755.307,-88.674"/>
<polygon fill="midnightblue" stroke="midnightblue" points="755.612,-85.1804 745.202,-87.1499 754.568,-92.1021 755.612,-85.1804"/>
</g>
<!-- Node19&#45;&gt;Node15 -->
<g id="edge28" class="edge"><title>Node19&#45;&gt;Node15</title>
<path fill="none" stroke="midnightblue" d="M1176.09,-134.396C1194.96,-123.344 1221.06,-108.061 1239.72,-97.1319"/>
<polygon fill="midnightblue" stroke="midnightblue" points="1241.61,-100.081 1248.47,-92.007 1238.07,-94.04 1241.61,-100.081"/>
</g>
<!-- Node19&#45;&gt;Node16 -->
<g id="edge30" class="edge"><title>Node19&#45;&gt;Node16</title>
<path fill="none" stroke="midnightblue" d="M1129.43,-134.396C1111.99,-123.496 1087.97,-108.479 1070.53,-97.5835"/>
<polygon fill="midnightblue" stroke="midnightblue" points="1071.95,-94.339 1061.61,-92.007 1068.24,-100.275 1071.95,-94.339"/>
</g>
<!-- Node20 -->
<g id="node20" class="node"><title>Node20</title>
<g id="a_node20"><a xlink:title=" ">
<polygon fill="none" stroke="#bfbfbf" points="1083.5,-67.5 1083.5,-97.5 1220.5,-97.5 1220.5,-67.5 1083.5,-67.5"/>
<text text-anchor="start" x="1091.5" y="-85.5" font-family="Helvetica,sans-Serif" font-size="10.00">xercesc/framework/Memory</text>
<text text-anchor="middle" x="1152" y="-74.5" font-family="Helvetica,sans-Serif" font-size="10.00">Manager.hpp</text>
</a>
</g>
</g>
<!-- Node19&#45;&gt;Node20 -->
<g id="edge31" class="edge"><title>Node19&#45;&gt;Node20</title>
<path fill="none" stroke="midnightblue" d="M1152,-134.396C1152,-126.645 1152,-116.812 1152,-107.86"/>
<polygon fill="midnightblue" stroke="midnightblue" points="1155.5,-107.576 1152,-97.5765 1148.5,-107.577 1155.5,-107.576"/>
</g>
<!-- Node21&#45;&gt;Node3 -->
<g id="edge33" class="edge"><title>Node21&#45;&gt;Node3</title>
<path fill="none" stroke="midnightblue" d="M988.281,-201.175C986.437,-184.883 980,-150.265 958,-134 939.81,-120.552 654.751,-100.157 498.167,-89.8861"/>
<polygon fill="midnightblue" stroke="midnightblue" points="498.25,-86.3841 488.043,-89.2244 497.793,-93.3692 498.25,-86.3841"/>
</g>
<!-- Node21&#45;&gt;Node8 -->
<g id="edge35" class="edge"><title>Node21&#45;&gt;Node8</title>
<path fill="none" stroke="midnightblue" d="M918.792,-201.968C915.822,-201.639 912.882,-201.315 910,-201 757.186,-184.3 718.052,-187.611 566,-165 553.927,-163.205 540.84,-160.826 529.03,-158.515"/>
<polygon fill="midnightblue" stroke="midnightblue" points="529.529,-155.046 519.037,-156.519 528.157,-161.91 529.529,-155.046"/>
</g>
<!-- Node21&#45;&gt;Node12 -->
<g id="edge34" class="edge"><title>Node21&#45;&gt;Node12</title>
<path fill="none" stroke="midnightblue" d="M992.692,-201.298C998.615,-185.814 1008.03,-153.297 992,-134 962.304,-98.2589 821.726,-87.683 755.573,-84.6596"/>
<polygon fill="midnightblue" stroke="midnightblue" points="755.388,-81.1487 745.248,-84.2218 755.091,-88.1424 755.388,-81.1487"/>
</g>
<!-- Node21&#45;&gt;Node15 -->
<g id="edge36" class="edge"><title>Node21&#45;&gt;Node15</title>
<path fill="none" stroke="midnightblue" d="M1059.16,-204.481C1121.06,-198.291 1205.3,-186.224 1231,-165 1249.92,-149.377 1257.7,-121.054 1260.87,-102.258"/>
<polygon fill="midnightblue" stroke="midnightblue" points="1264.36,-102.611 1262.28,-92.2215 1257.42,-101.638 1264.36,-102.611"/>
</g>
<!-- Node21&#45;&gt;Node16 -->
<g id="edge37" class="edge"><title>Node21&#45;&gt;Node16</title>
<path fill="none" stroke="midnightblue" d="M999.408,-201.466C1008.85,-193.146 1022.41,-179.638 1030,-165 1040.29,-145.139 1044.72,-119.595 1046.61,-102.444"/>
<polygon fill="midnightblue" stroke="midnightblue" points="1050.13,-102.361 1047.55,-92.0839 1043.16,-101.724 1050.13,-102.361"/>
</g>
<!-- Node21&#45;&gt;Node17 -->
<g id="edge38" class="edge"><title>Node21&#45;&gt;Node17</title>
<path fill="none" stroke="midnightblue" d="M979.974,-201.475C970.243,-192.285 954.542,-177.456 942.577,-166.156"/>
<polygon fill="midnightblue" stroke="midnightblue" points="944.683,-163.331 935.01,-159.009 939.877,-168.42 944.683,-163.331"/>
</g>
<!-- Node21&#45;&gt;Node18 -->
<g id="edge39" class="edge"><title>Node21&#45;&gt;Node18</title>
<path fill="none" stroke="midnightblue" d="M969.801,-201.475C947.213,-191.445 909.501,-174.7 883.499,-163.155"/>
<polygon fill="midnightblue" stroke="midnightblue" points="884.723,-159.869 874.163,-159.009 881.882,-166.266 884.723,-159.869"/>
</g>
<!-- Node21&#45;&gt;Node19 -->
<g id="edge40" class="edge"><title>Node21&#45;&gt;Node19</title>
<path fill="none" stroke="midnightblue" d="M1012.35,-201.475C1036.18,-192.776 1073.85,-179.026 1104.06,-167.998"/>
<polygon fill="midnightblue" stroke="midnightblue" points="1105.39,-171.24 1113.58,-164.523 1102.99,-164.664 1105.39,-171.24"/>
</g>
<!-- Node23 -->
<g id="node23" class="node"><title>Node23</title>
<g id="a_node23"><a xlink:href="ArenaBlockBase_8hpp.html" target="_top" xlink:title=" ">
<polygon fill="none" stroke="black" points="1177,-257.5 1177,-287.5 1295,-287.5 1295,-257.5 1177,-257.5"/>
<text text-anchor="start" x="1185" y="-275.5" font-family="Helvetica,sans-Serif" font-size="10.00">xalanc/PlatformSupport</text>
<text text-anchor="middle" x="1236" y="-264.5" font-family="Helvetica,sans-Serif" font-size="10.00">/ArenaBlockBase.hpp</text>
</a>
</g>
</g>
<!-- Node22&#45;&gt;Node23 -->
<g id="edge43" class="edge"><title>Node22&#45;&gt;Node23</title>
<path fill="none" stroke="midnightblue" d="M1235.14,-324.475C1235.26,-317.471 1235.43,-307.192 1235.59,-297.696"/>
<polygon fill="midnightblue" stroke="midnightblue" points="1239.1,-297.58 1235.76,-287.523 1232.1,-297.463 1239.1,-297.58"/>
</g>
<!-- Node23&#45;&gt;Node10 -->
<g id="edge45" class="edge"><title>Node23&#45;&gt;Node10</title>
<path fill="none" stroke="midnightblue" d="M1176.87,-266.156C1079.06,-257.249 877.462,-238.605 707,-221 693.451,-219.601 678.639,-217.981 665.428,-216.505"/>
<polygon fill="midnightblue" stroke="midnightblue" points="665.561,-212.998 655.232,-215.359 664.778,-219.954 665.561,-212.998"/>
</g>
<!-- Node23&#45;&gt;Node15 -->
<g id="edge44" class="edge"><title>Node23&#45;&gt;Node15</title>
<path fill="none" stroke="midnightblue" d="M1239.1,-257.447C1243.48,-237.14 1251.45,-198.366 1256,-165 1258.93,-143.507 1260.86,-118.646 1261.93,-102.089"/>
<polygon fill="midnightblue" stroke="midnightblue" points="1265.43,-102.292 1262.54,-92.0968 1258.44,-101.865 1265.43,-102.292"/>
</g>
<!-- Node23&#45;&gt;Node19 -->
<g id="edge46" class="edge"><title>Node23&#45;&gt;Node19</title>
<path fill="none" stroke="midnightblue" d="M1226.03,-257.145C1211.64,-236.404 1184.87,-197.85 1167.77,-173.222"/>
<polygon fill="midnightblue" stroke="midnightblue" points="1170.53,-171.055 1161.95,-164.837 1164.78,-175.047 1170.53,-171.055"/>
</g>
<!-- Node24 -->
<g id="node24" class="node"><title>Node24</title>
<g id="a_node24"><a xlink:href="XalanAllocator_8hpp.html" target="_top" xlink:title=" ">
<polygon fill="none" stroke="black" points="575,-134.5 575,-164.5 693,-164.5 693,-134.5 575,-134.5"/>
<text text-anchor="start" x="583" y="-152.5" font-family="Helvetica,sans-Serif" font-size="10.00">xalanc/PlatformSupport</text>
<text text-anchor="middle" x="634" y="-141.5" font-family="Helvetica,sans-Serif" font-size="10.00">/XalanAllocator.hpp</text>
</a>
</g>
</g>
<!-- Node23&#45;&gt;Node24 -->
<g id="edge47" class="edge"><title>Node23&#45;&gt;Node24</title>
<path fill="none" stroke="midnightblue" d="M1176.72,-269.034C1063.13,-263.724 819.035,-249.331 740,-221 708.914,-209.857 678.006,-187.706 657.658,-171.192"/>
<polygon fill="midnightblue" stroke="midnightblue" points="659.805,-168.426 649.876,-164.731 655.334,-173.811 659.805,-168.426"/>
</g>
<!-- Node24&#45;&gt;Node12 -->
<g id="edge48" class="edge"><title>Node24&#45;&gt;Node12</title>
<path fill="none" stroke="midnightblue" d="M652.878,-134.396C667.114,-123.759 686.598,-109.203 701.082,-98.3813"/>
<polygon fill="midnightblue" stroke="midnightblue" points="703.446,-100.984 709.363,-92.1945 699.257,-95.376 703.446,-100.984"/>
</g>
<!-- Node25&#45;&gt;Node2 -->
<g id="edge50" class="edge"><title>Node25&#45;&gt;Node2</title>
<path fill="none" stroke="midnightblue" d="M214.245,-447.396C188.137,-437.643 153.208,-424.595 125.253,-414.152"/>
<polygon fill="midnightblue" stroke="midnightblue" points="126.274,-410.797 115.682,-410.577 123.825,-417.355 126.274,-410.797"/>
</g>
<!-- Node26 -->
<g id="node26" class="node"><title>Node26</title>
<g id="a_node26"><a xlink:href="XalanAttr_8hpp.html" target="_top" xlink:title=" ">
<polygon fill="none" stroke="black" points="174.5,-386 174.5,-405 329.5,-405 329.5,-386 174.5,-386"/>
<text text-anchor="middle" x="252" y="-393" font-family="Helvetica,sans-Serif" font-size="10.00">xalanc/XalanDOM/XalanAttr.hpp</text>
</a>
</g>
</g>
<!-- Node25&#45;&gt;Node26 -->
<g id="edge51" class="edge"><title>Node25&#45;&gt;Node26</title>
<path fill="none" stroke="midnightblue" d="M252,-447.396C252,-438.064 252,-425.714 252,-415.517"/>
<polygon fill="midnightblue" stroke="midnightblue" points="255.5,-415.195 252,-405.195 248.5,-415.195 255.5,-415.195"/>
</g>
<!-- Node29 -->
<g id="node29" class="node"><title>Node29</title>
<g id="a_node29"><a xlink:href="XalanDOMString_8hpp.html" target="_top" xlink:title=" ">
<polygon fill="none" stroke="black" points="548.5,-386 548.5,-405 735.5,-405 735.5,-386 548.5,-386"/>
<text text-anchor="middle" x="642" y="-393" font-family="Helvetica,sans-Serif" font-size="10.00">xalanc/XalanDOM/XalanDOMString.hpp</text>
</a>
</g>
</g>
<!-- Node25&#45;&gt;Node29 -->
<g id="edge56" class="edge"><title>Node25&#45;&gt;Node29</title>
<path fill="none" stroke="midnightblue" d="M315.528,-450.912C388.916,-438.681 508.807,-418.699 581.074,-406.654"/>
<polygon fill="midnightblue" stroke="midnightblue" points="581.657,-410.106 590.945,-405.009 580.506,-403.201 581.657,-410.106"/>
</g>
<!-- Node27 -->
<g id="node27" class="node"><title>Node27</title>
<g id="a_node27"><a xlink:href="XalanDOMDefinitions_8hpp.html" target="_top" xlink:title=" ">
<polygon fill="none" stroke="black" points="125,-263 125,-282 331,-282 331,-263 125,-263"/>
<text text-anchor="middle" x="228" y="-270" font-family="Helvetica,sans-Serif" font-size="10.00">xalanc/XalanDOM/XalanDOMDefinitions.hpp</text>
</a>
</g>
</g>
<!-- Node26&#45;&gt;Node27 -->
<g id="edge52" class="edge"><title>Node26&#45;&gt;Node27</title>
<path fill="none" stroke="midnightblue" d="M201.278,-385.928C176.873,-378.976 149.769,-366.46 135,-344 117.75,-317.766 155.463,-297.459 187.918,-285.516"/>
<polygon fill="midnightblue" stroke="midnightblue" points="189.468,-288.683 197.755,-282.081 187.16,-282.074 189.468,-288.683"/>
</g>
<!-- Node28 -->
<g id="node28" class="node"><title>Node28</title>
<g id="a_node28"><a xlink:href="XalanNode_8hpp.html" target="_top" xlink:title=" ">
<polygon fill="none" stroke="black" points="144.5,-324.5 144.5,-343.5 305.5,-343.5 305.5,-324.5 144.5,-324.5"/>
<text text-anchor="middle" x="225" y="-331.5" font-family="Helvetica,sans-Serif" font-size="10.00">xalanc/XalanDOM/XalanNode.hpp</text>
</a>
</g>
</g>
<!-- Node26&#45;&gt;Node28 -->
<g id="edge54" class="edge"><title>Node26&#45;&gt;Node28</title>
<path fill="none" stroke="midnightblue" d="M248.132,-385.975C244.202,-377.315 238,-363.649 233.007,-352.645"/>
<polygon fill="midnightblue" stroke="midnightblue" points="236.181,-351.169 228.861,-343.509 229.806,-354.062 236.181,-351.169"/>
</g>
<!-- Node27&#45;&gt;Node3 -->
<g id="edge53" class="edge"><title>Node27&#45;&gt;Node3</title>
<path fill="none" stroke="midnightblue" d="M234.851,-262.888C252.475,-240.86 301.082,-180.904 345,-134 356.266,-121.968 369.617,-109.028 379.969,-99.2587"/>
<polygon fill="midnightblue" stroke="midnightblue" points="382.622,-101.57 387.532,-92.182 377.839,-96.4589 382.622,-101.57"/>
</g>
<!-- Node28&#45;&gt;Node27 -->
<g id="edge55" class="edge"><title>Node28&#45;&gt;Node27</title>
<path fill="none" stroke="midnightblue" d="M225.43,-324.475C225.853,-316.08 226.514,-302.981 227.059,-292.163"/>
<polygon fill="midnightblue" stroke="midnightblue" points="230.563,-292.173 227.571,-282.009 223.572,-291.82 230.563,-292.173"/>
</g>
<!-- Node29&#45;&gt;Node9 -->
<g id="edge59" class="edge"><title>Node29&#45;&gt;Node9</title>
<path fill="none" stroke="midnightblue" d="M644.292,-385.975C646.574,-377.492 650.147,-364.204 653.073,-353.322"/>
<polygon fill="midnightblue" stroke="midnightblue" points="656.495,-354.075 655.712,-343.509 649.735,-352.257 656.495,-354.075"/>
</g>
<!-- Node29&#45;&gt;Node14 -->
<g id="edge61" class="edge"><title>Node29&#45;&gt;Node14</title>
<path fill="none" stroke="midnightblue" d="M666.716,-385.952C687.952,-377.694 718.462,-363.558 740,-344 776.859,-310.529 804.394,-257.619 817.145,-230.051"/>
<polygon fill="midnightblue" stroke="midnightblue" points="820.387,-231.375 821.296,-220.819 814.003,-228.504 820.387,-231.375"/>
</g>
<!-- Node29&#45;&gt;Node15 -->
<g id="edge58" class="edge"><title>Node29&#45;&gt;Node15</title>
<path fill="none" stroke="midnightblue" d="M701.477,-385.97C862.26,-362.778 1294.17,-299.533 1304,-288 1350.98,-232.861 1299.5,-139.022 1274.75,-100.635"/>
<polygon fill="midnightblue" stroke="midnightblue" points="1277.56,-98.5291 1269.11,-92.128 1271.72,-102.397 1277.56,-98.5291"/>
</g>
<!-- Node29&#45;&gt;Node19 -->
<g id="edge60" class="edge"><title>Node29&#45;&gt;Node19</title>
<path fill="none" stroke="midnightblue" d="M671.629,-385.953C743.105,-364.603 929.337,-304.591 1068,-221 1091.12,-207.062 1114.4,-186.935 1130.57,-171.751"/>
<polygon fill="midnightblue" stroke="midnightblue" points="1133.09,-174.182 1137.9,-164.743 1128.25,-169.121 1133.09,-174.182"/>
</g>
<!-- Node29&#45;&gt;Node27 -->
<g id="edge57" class="edge"><title>Node29&#45;&gt;Node27</title>
<path fill="none" stroke="midnightblue" d="M632.397,-385.918C614.842,-370.746 575.794,-339.344 537,-324 515.264,-315.403 383.237,-295.56 298.942,-283.465"/>
<polygon fill="midnightblue" stroke="midnightblue" points="299.304,-279.981 288.909,-282.03 298.313,-286.911 299.304,-279.981"/>
</g>
<!-- Node30 -->
<g id="node30" class="node"><title>Node30</title>
<g id="a_node30"><a xlink:href="XalanDOMException_8hpp.html" target="_top" xlink:title=" ">
<polygon fill="none" stroke="black" points="323.5,-324.5 323.5,-343.5 528.5,-343.5 528.5,-324.5 323.5,-324.5"/>
<text text-anchor="middle" x="426" y="-331.5" font-family="Helvetica,sans-Serif" font-size="10.00">xalanc/XalanDOM/XalanDOMException.hpp</text>
</a>
</g>
</g>
<!-- Node29&#45;&gt;Node30 -->
<g id="edge62" class="edge"><title>Node29&#45;&gt;Node30</title>
<path fill="none" stroke="midnightblue" d="M611.052,-385.975C573.119,-375.526 508.722,-357.787 466.78,-346.233"/>
<polygon fill="midnightblue" stroke="midnightblue" points="467.461,-342.791 456.89,-343.509 465.602,-349.539 467.461,-342.791"/>
</g>
<!-- Node30&#45;&gt;Node27 -->
<g id="edge63" class="edge"><title>Node30&#45;&gt;Node27</title>
<path fill="none" stroke="midnightblue" d="M397.631,-324.475C363.079,-314.092 304.576,-296.512 266.115,-284.954"/>
<polygon fill="midnightblue" stroke="midnightblue" points="266.9,-281.535 256.316,-282.009 264.886,-288.239 266.9,-281.535"/>
</g>
</g>
</svg>
        <g id="navigator" transform="translate(0 0)" fill="#404254">
                <rect fill="#f2f5e9" fill-opacity="0.5" stroke="#606060" stroke-width=".5" x="0" y="0" width="60" height="60"/>
                <use id="zoomplus" xlink:href="#zoomPlus" x="17" y="9" onmousedown="handleZoom(evt,'in')"/>
                <use id="zoomminus" xlink:href="#zoomMin" x="42" y="9" onmousedown="handleZoom(evt,'out')"/>
                <use id="reset" xlink:href="#resetDef" x="30" y="36" onmousedown="handleReset()"/>
                <g id="arrowUp" xlink:href="#dirArrow" transform="translate(30 24)" onmousedown="handlePan(0,-1)">
                  <use xlink:href="#rim" fill="#404040">
                        <set attributeName="fill" to="#808080" begin="arrowUp.mouseover" end="arrowUp.mouseout"/>
                  </use>
                  <path fill="none" stroke="white" stroke-width="1.5" d="M0,-3.0v7 M-2.5,-0.5L0,-3.0L2.5,-0.5"/>
                </g>
                <g id="arrowRight" xlink:href="#dirArrow" transform="rotate(90) translate(36 -43)" onmousedown="handlePan(1,0)">
                  <use xlink:href="#rim" fill="#404040">
                        <set attributeName="fill" to="#808080" begin="arrowRight.mouseover" end="arrowRight.mouseout"/>
                  </use>
                  <path fill="none" stroke="white" stroke-width="1.5" d="M0,-3.0v7 M-2.5,-0.5L0,-3.0L2.5,-0.5"/>
                </g>
                <g id="arrowDown" xlink:href="#dirArrow" transform="rotate(180) translate(-30 -48)" onmousedown="handlePan(0,1)">
                  <use xlink:href="#rim" fill="#404040">
                        <set attributeName="fill" to="#808080" begin="arrowDown.mouseover" end="arrowDown.mouseout"/>
                  </use>
                  <path fill="none" stroke="white" stroke-width="1.5" d="M0,-3.0v7 M-2.5,-0.5L0,-3.0L2.5,-0.5"/>
                </g>
                <g id="arrowLeft" xlink:href="#dirArrow" transform="rotate(270) translate(-36 17)" onmousedown="handlePan(-1,0)">
                  <use xlink:href="#rim" fill="#404040">
                        <set attributeName="fill" to="#808080" begin="arrowLeft.mouseover" end="arrowLeft.mouseout"/>
                  </use>
                  <path fill="none" stroke="white" stroke-width="1.5" d="M0,-3.0v7 M-2.5,-0.5L0,-3.0L2.5,-0.5"/>
                </g>
        </g>
        <svg viewBox="0 0 15 15" width="100%" height="30px" preserveAspectRatio="xMaxYMin meet">
         <g id="arrow_out" transform="scale(0.3 0.3)">
          <a xlink:href="XalanSourceTreeAttributeAllocator_8hpp__incl_org.svg" target="_base">
           <rect id="button" ry="5" rx="5" y="6" x="6" height="38" width="38"
                fill="#f2f5e9" fill-opacity="0.5" stroke="#606060" stroke-width="1.0"/>
           <path id="arrow"
             d="M 11.500037,31.436501 C 11.940474,20.09759 22.043105,11.32322 32.158766,21.979434 L 37.068811,17.246167 C 37.068811,17.246167 37.088388,32 37.088388,32 L 22.160133,31.978069 C 22.160133,31.978069 26.997745,27.140456 26.997745,27.140456 C 18.528582,18.264221 13.291696,25.230495 11.500037,31.436501 z"
             style="fill:#404040;"/>
          </a>
         </g>
        </svg>
</svg>
