<?xml version="1.0" encoding="UTF-8" standalone="no"?>
<!DOCTYPE svg PUBLIC "-//W3C//DTD SVG 1.1//EN"
 "http://www.w3.org/Graphics/SVG/1.1/DTD/svg11.dtd">
<!-- Generated by graphviz version 2.43.0 (0)
 -->
<!-- Title: xalanc/PlatformSupport/XalanParsedURI.hpp Pages: 1 -->
<!--zoomable 475 -->
<svg id="main" version="1.1" xmlns="http://www.w3.org/2000/svg" xmlns:xlink="http://www.w3.org/1999/xlink" xml:space="preserve" onload="init(evt)">
<style type="text/css"><![CDATA[
.edge:hover path { stroke: red; }
.edge:hover polygon { stroke: red; fill: red; }
]]></style>
<script type="text/javascript"><![CDATA[
var edges = document.getElementsByTagName('g');
if (edges && edges.length) {
  for (var i=0;i<edges.length;i++) {
    if (edges[i].id.substr(0,4)=='edge') {
      edges[i].setAttribute('class','edge');
    }
  }
}
]]></script>
        <defs>
                <circle id="rim" cx="0" cy="0" r="7"/>
                <circle id="rim2" cx="0" cy="0" r="3.5"/>
                <g id="zoomPlus">
                        <use xlink:href="#rim" fill="#404040">
                                <set attributeName="fill" to="#808080" begin="zoomplus.mouseover" end="zoomplus.mouseout"/>
                        </use>
                        <path d="M-4,0h8M0,-4v8" fill="none" stroke="white" stroke-width="1.5" pointer-events="none"/>
                </g>
                <g id="zoomMin">
                        <use xlink:href="#rim" fill="#404040">
                                <set attributeName="fill" to="#808080" begin="zoomminus.mouseover" end="zoomminus.mouseout"/>
                        </use>
                        <path d="M-4,0h8" fill="none" stroke="white" stroke-width="1.5" pointer-events="none"/>
                </g>
                <g id="dirArrow">
                        <path fill="none" stroke="white" stroke-width="1.5" d="M0,-3.0v7 M-2.5,-0.5L0,-3.0L2.5,-0.5"/>
                </g>
               <g id="resetDef">
                       <use xlink:href="#rim2" fill="#404040">
                               <set attributeName="fill" to="#808080" begin="reset.mouseover" end="reset.mouseout"/>
                       </use>
               </g>
        </defs>

<script type="text/javascript">
var viewWidth = 1081;
var viewHeight = 475;
var sectionId = 'dynsection-0';
</script>
<script xlink:href="svgpan.js"/>
<svg id="graph" class="graph">
<g id="viewport">
<title>xalanc/PlatformSupport/XalanParsedURI.hpp</title>
<!-- Node1 -->
<g id="node1" class="node">
<title>Node1</title>
<g id="a_node1"><a xlink:title=" ">
<polygon fill="#bfbfbf" stroke="black" points="125,-436.5 125,-466.5 256,-466.5 256,-436.5 125,-436.5"/>
<text text-anchor="start" x="133" y="-454.5" font-family="Helvetica,sans-Serif" font-size="10.00">xalanc/PlatformSupport</text>
<text text-anchor="middle" x="190.5" y="-443.5" font-family="Helvetica,sans-Serif" font-size="10.00">/XalanParsedURI.hpp</text>
</a>
</g>
</g>
<!-- Node2 -->
<g id="node2" class="node">
<title>Node2</title>
<g id="a_node2"><a xlink:href="PlatformSupportDefinitions_8hpp.html" target="_top" xlink:title=" ">
<polygon fill="none" stroke="black" points="0,-369.5 0,-399.5 173,-399.5 173,-369.5 0,-369.5"/>
<text text-anchor="start" x="8" y="-387.5" font-family="Helvetica,sans-Serif" font-size="10.00">xalanc/PlatformSupport</text>
<text text-anchor="middle" x="86.5" y="-376.5" font-family="Helvetica,sans-Serif" font-size="10.00">/PlatformSupportDefinitions.hpp</text>
</a>
</g>
</g>
<!-- Node1&#45;&gt;Node2 -->
<g id="edge1" class="edge">
<title>Node1&#45;&gt;Node2</title>
<path fill="none" stroke="midnightblue" d="M167.93,-436.4C153.21,-427.2 133.81,-415.07 117.63,-404.95"/>
<polygon fill="midnightblue" stroke="midnightblue" points="119.36,-401.91 109.02,-399.58 115.65,-407.84 119.36,-401.91"/>
</g>
<!-- Node7 -->
<g id="node7" class="node">
<title>Node7</title>
<g id="a_node7"><a xlink:href="XalanDOMString_8hpp.html" target="_top" xlink:title=" ">
<polygon fill="none" stroke="black" points="247.5,-375 247.5,-394 455.5,-394 455.5,-375 247.5,-375"/>
<text text-anchor="middle" x="351.5" y="-382" font-family="Helvetica,sans-Serif" font-size="10.00">xalanc/XalanDOM/XalanDOMString.hpp</text>
</a>
</g>
</g>
<!-- Node1&#45;&gt;Node7 -->
<g id="edge6" class="edge">
<title>Node1&#45;&gt;Node7</title>
<path fill="none" stroke="midnightblue" d="M225.43,-436.4C253.93,-424.89 293.79,-408.8 321.02,-397.81"/>
<polygon fill="midnightblue" stroke="midnightblue" points="322.47,-401 330.43,-394.01 319.85,-394.51 322.47,-401"/>
</g>
<!-- Node3 -->
<g id="node3" class="node">
<title>Node3</title>
<g id="a_node3"><a xlink:href="PlatformDefinitions_8hpp.html" target="_top" xlink:title=" ">
<polygon fill="none" stroke="black" points="160.5,-73 160.5,-92 366.5,-92 366.5,-73 160.5,-73"/>
<text text-anchor="middle" x="263.5" y="-80" font-family="Helvetica,sans-Serif" font-size="10.00">xalanc/Include/PlatformDefinitions.hpp</text>
</a>
</g>
</g>
<!-- Node2&#45;&gt;Node3 -->
<g id="edge2" class="edge">
<title>Node2&#45;&gt;Node3</title>
<path fill="none" stroke="midnightblue" d="M74.13,-369.3C57.37,-348.55 29.5,-308.03 29.5,-268 29.5,-268 29.5,-268 29.5,-210 29.5,-139.17 113.49,-107.8 180.84,-94.04"/>
<polygon fill="midnightblue" stroke="midnightblue" points="181.91,-97.4 191.06,-92.06 180.58,-90.52 181.91,-97.4"/>
</g>
<!-- Node4 -->
<g id="node4" class="node">
<title>Node4</title>
<g id="a_node4"><a xlink:title=" ">
<polygon fill="none" stroke="#bfbfbf" points="42.5,-0.5 42.5,-30.5 162.5,-30.5 162.5,-0.5 42.5,-0.5"/>
<text text-anchor="start" x="50.5" y="-18.5" font-family="Helvetica,sans-Serif" font-size="10.00">xercesc/util/Xerces</text>
<text text-anchor="middle" x="102.5" y="-7.5" font-family="Helvetica,sans-Serif" font-size="10.00">_autoconf_config.hpp</text>
</a>
</g>
</g>
<!-- Node3&#45;&gt;Node4 -->
<g id="edge3" class="edge">
<title>Node3&#45;&gt;Node4</title>
<path fill="none" stroke="midnightblue" d="M242.12,-72.87C217.86,-63.07 177.62,-46.83 146.56,-34.29"/>
<polygon fill="midnightblue" stroke="midnightblue" points="147.83,-31.03 137.25,-30.53 145.21,-37.52 147.83,-31.03"/>
</g>
<!-- Node5 -->
<g id="node5" class="node">
<title>Node5</title>
<g id="a_node5"><a xlink:title=" ">
<polygon fill="none" stroke="#bfbfbf" points="181,-6 181,-25 346,-25 346,-6 181,-6"/>
<text text-anchor="middle" x="263.5" y="-13" font-family="Helvetica,sans-Serif" font-size="10.00">xercesc/util/XercesVersion.hpp</text>
</a>
</g>
</g>
<!-- Node3&#45;&gt;Node5 -->
<g id="edge4" class="edge">
<title>Node3&#45;&gt;Node5</title>
<path fill="none" stroke="midnightblue" d="M263.5,-72.73C263.5,-63.18 263.5,-47.62 263.5,-35.28"/>
<polygon fill="midnightblue" stroke="midnightblue" points="267,-35.13 263.5,-25.13 260,-35.13 267,-35.13"/>
</g>
<!-- Node6 -->
<g id="node6" class="node">
<title>Node6</title>
<g id="a_node6"><a xlink:href="XalanVersion_8hpp.html" target="_top" xlink:title=" ">
<polygon fill="none" stroke="black" points="364,-6 364,-25 539,-25 539,-6 364,-6"/>
<text text-anchor="middle" x="451.5" y="-13" font-family="Helvetica,sans-Serif" font-size="10.00">xalanc/Include/XalanVersion.hpp</text>
</a>
</g>
</g>
<!-- Node3&#45;&gt;Node6 -->
<g id="edge5" class="edge">
<title>Node3&#45;&gt;Node6</title>
<path fill="none" stroke="midnightblue" d="M288.46,-72.87C321.42,-61.47 379.62,-41.35 416.83,-28.49"/>
<polygon fill="midnightblue" stroke="midnightblue" points="418.42,-31.64 426.73,-25.06 416.14,-25.02 418.42,-31.64"/>
</g>
<!-- Node8 -->
<g id="node8" class="node">
<title>Node8</title>
<g id="a_node8"><a xlink:href="XalanDOMDefinitions_8hpp.html" target="_top" xlink:title=" ">
<polygon fill="none" stroke="black" points="74.5,-257.5 74.5,-276.5 306.5,-276.5 306.5,-257.5 74.5,-257.5"/>
<text text-anchor="middle" x="190.5" y="-264.5" font-family="Helvetica,sans-Serif" font-size="10.00">xalanc/XalanDOM/XalanDOMDefinitions.hpp</text>
</a>
</g>
</g>
<!-- Node7&#45;&gt;Node8 -->
<g id="edge7" class="edge">
<title>Node7&#45;&gt;Node8</title>
<path fill="none" stroke="midnightblue" d="M247.27,-377.04C182.22,-370.58 107.06,-357.85 86.5,-333 66.03,-308.26 105.78,-290.11 141.89,-279.37"/>
<polygon fill="midnightblue" stroke="midnightblue" points="143.25,-282.62 151.93,-276.54 141.35,-275.89 143.25,-282.62"/>
</g>
<!-- Node9 -->
<g id="node9" class="node">
<title>Node9</title>
<g id="a_node9"><a xlink:title=" ">
<polygon fill="none" stroke="#bfbfbf" points="863.5,-73 863.5,-92 915.5,-92 915.5,-73 863.5,-73"/>
<text text-anchor="middle" x="889.5" y="-80" font-family="Helvetica,sans-Serif" font-size="10.00">cassert</text>
</a>
</g>
</g>
<!-- Node7&#45;&gt;Node9 -->
<g id="edge9" class="edge">
<title>Node7&#45;&gt;Node9</title>
<path fill="none" stroke="midnightblue" d="M455.81,-377.39C655.35,-364.29 1071.5,-329.6 1071.5,-268 1071.5,-268 1071.5,-268 1071.5,-210 1071.5,-175.18 1076.43,-159.29 1052.5,-134 1019.52,-99.13 963,-88.17 925.94,-84.82"/>
<polygon fill="midnightblue" stroke="midnightblue" points="925.82,-81.3 915.58,-84.04 925.29,-88.28 925.82,-81.3"/>
</g>
<!-- Node10 -->
<g id="node10" class="node">
<title>Node10</title>
<g id="a_node10"><a xlink:href="STLHelper_8hpp.html" target="_top" xlink:title=" ">
<polygon fill="none" stroke="black" points="438.5,-313.5 438.5,-332.5 598.5,-332.5 598.5,-313.5 438.5,-313.5"/>
<text text-anchor="middle" x="518.5" y="-320.5" font-family="Helvetica,sans-Serif" font-size="10.00">xalanc/Include/STLHelper.hpp</text>
</a>
</g>
</g>
<!-- Node7&#45;&gt;Node10 -->
<g id="edge10" class="edge">
<title>Node7&#45;&gt;Node10</title>
<path fill="none" stroke="midnightblue" d="M375.43,-374.98C404.2,-364.72 452.66,-347.46 485.1,-335.9"/>
<polygon fill="midnightblue" stroke="midnightblue" points="486.37,-339.16 494.62,-332.51 484.02,-332.57 486.37,-339.16"/>
</g>
<!-- Node16 -->
<g id="node16" class="node">
<title>Node16</title>
<g id="a_node16"><a xlink:href="XalanVector_8hpp.html" target="_top" xlink:title=" ">
<polygon fill="none" stroke="black" points="522,-201.5 522,-220.5 691,-220.5 691,-201.5 522,-201.5"/>
<text text-anchor="middle" x="606.5" y="-208.5" font-family="Helvetica,sans-Serif" font-size="10.00">xalanc/Include/XalanVector.hpp</text>
</a>
</g>
</g>
<!-- Node7&#45;&gt;Node16 -->
<g id="edge44" class="edge">
<title>Node7&#45;&gt;Node16</title>
<path fill="none" stroke="midnightblue" d="M360.08,-374.58C373.9,-360.5 402.3,-332.7 429.5,-313 479.53,-276.77 543.64,-242.98 579.36,-225.16"/>
<polygon fill="midnightblue" stroke="midnightblue" points="581.24,-228.13 588.65,-220.56 578.13,-221.86 581.24,-228.13"/>
</g>
<!-- Node20 -->
<g id="node20" class="node">
<title>Node20</title>
<g id="a_node20"><a xlink:href="XalanMemoryManagement_8hpp.html" target="_top" xlink:title=" ">
<polygon fill="none" stroke="black" points="382.5,-134.5 382.5,-164.5 540.5,-164.5 540.5,-134.5 382.5,-134.5"/>
<text text-anchor="start" x="390.5" y="-152.5" font-family="Helvetica,sans-Serif" font-size="10.00">xalanc/Include/XalanMemory</text>
<text text-anchor="middle" x="461.5" y="-141.5" font-family="Helvetica,sans-Serif" font-size="10.00">Management.hpp</text>
</a>
</g>
</g>
<!-- Node7&#45;&gt;Node20 -->
<g id="edge43" class="edge">
<title>Node7&#45;&gt;Node20</title>
<path fill="none" stroke="midnightblue" d="M351.3,-374.67C351.07,-346.74 353.59,-258.76 391.5,-201 399.7,-188.5 412.15,-178.07 424.28,-170"/>
<polygon fill="midnightblue" stroke="midnightblue" points="426.37,-172.82 432.99,-164.54 422.66,-166.88 426.37,-172.82"/>
</g>
<!-- Node23 -->
<g id="node23" class="node">
<title>Node23</title>
<g id="a_node23"><a xlink:href="XalanDOMException_8hpp.html" target="_top" xlink:title=" ">
<polygon fill="none" stroke="black" points="96,-313.5 96,-332.5 323,-332.5 323,-313.5 96,-313.5"/>
<text text-anchor="middle" x="209.5" y="-320.5" font-family="Helvetica,sans-Serif" font-size="10.00">xalanc/XalanDOM/XalanDOMException.hpp</text>
</a>
</g>
</g>
<!-- Node7&#45;&gt;Node23 -->
<g id="edge45" class="edge">
<title>Node7&#45;&gt;Node23</title>
<path fill="none" stroke="midnightblue" d="M331.15,-374.98C307.11,-364.9 266.9,-348.05 239.34,-336.5"/>
<polygon fill="midnightblue" stroke="midnightblue" points="240.38,-333.15 229.81,-332.51 237.68,-339.6 240.38,-333.15"/>
</g>
<!-- Node8&#45;&gt;Node3 -->
<g id="edge8" class="edge">
<title>Node8&#45;&gt;Node3</title>
<path fill="none" stroke="midnightblue" d="M191.75,-257.28C195.09,-235.55 205.45,-177.65 226.5,-134 232.43,-121.71 241.44,-109.32 249.09,-99.9"/>
<polygon fill="midnightblue" stroke="midnightblue" points="251.84,-102.06 255.6,-92.16 246.48,-97.56 251.84,-102.06"/>
</g>
<!-- Node10&#45;&gt;Node3 -->
<g id="edge11" class="edge">
<title>Node10&#45;&gt;Node3</title>
<path fill="none" stroke="midnightblue" d="M491.53,-313.43C439.48,-295.34 325.68,-247.96 273.5,-165 261.61,-146.09 260.53,-119.8 261.48,-102.25"/>
<polygon fill="midnightblue" stroke="midnightblue" points="264.98,-102.39 262.3,-92.14 258,-101.82 264.98,-102.39"/>
</g>
<!-- Node11 -->
<g id="node11" class="node">
<title>Node11</title>
<g id="a_node11"><a xlink:title=" ">
<polygon fill="none" stroke="#bfbfbf" points="979.5,-140 979.5,-159 1043.5,-159 1043.5,-140 979.5,-140"/>
<text text-anchor="middle" x="1011.5" y="-147" font-family="Helvetica,sans-Serif" font-size="10.00">algorithm</text>
</a>
</g>
</g>
<!-- Node10&#45;&gt;Node11 -->
<g id="edge12" class="edge">
<title>Node10&#45;&gt;Node11</title>
<path fill="none" stroke="midnightblue" d="M598.72,-315.94C720.75,-305.01 944.54,-277.66 998.5,-221 1011.49,-207.37 1013.66,-185.23 1013.27,-169.39"/>
<polygon fill="midnightblue" stroke="midnightblue" points="1016.75,-168.96 1012.65,-159.19 1009.77,-169.39 1016.75,-168.96"/>
</g>
<!-- Node12 -->
<g id="node12" class="node">
<title>Node12</title>
<g id="a_node12"><a xlink:title=" ">
<polygon fill="none" stroke="#bfbfbf" points="401,-201.5 401,-220.5 466,-220.5 466,-201.5 401,-201.5"/>
<text text-anchor="middle" x="433.5" y="-208.5" font-family="Helvetica,sans-Serif" font-size="10.00">functional</text>
</a>
</g>
</g>
<!-- Node10&#45;&gt;Node12 -->
<g id="edge13" class="edge">
<title>Node10&#45;&gt;Node12</title>
<path fill="none" stroke="midnightblue" d="M511.83,-313.37C497.74,-295.14 464.74,-252.43 446.39,-228.68"/>
<polygon fill="midnightblue" stroke="midnightblue" points="449.02,-226.36 440.14,-220.59 443.48,-230.64 449.02,-226.36"/>
</g>
<!-- Node13 -->
<g id="node13" class="node">
<title>Node13</title>
<g id="a_node13"><a xlink:href="XalanMap_8hpp.html" target="_top" xlink:title=" ">
<polygon fill="none" stroke="black" points="591.5,-257.5 591.5,-276.5 751.5,-276.5 751.5,-257.5 591.5,-257.5"/>
<text text-anchor="middle" x="671.5" y="-264.5" font-family="Helvetica,sans-Serif" font-size="10.00">xalanc/Include/XalanMap.hpp</text>
</a>
</g>
</g>
<!-- Node10&#45;&gt;Node13 -->
<g id="edge14" class="edge">
<title>Node10&#45;&gt;Node13</title>
<path fill="none" stroke="midnightblue" d="M542.74,-313.44C568.37,-304.4 608.99,-290.06 637.74,-279.92"/>
<polygon fill="midnightblue" stroke="midnightblue" points="639.11,-283.15 647.37,-276.52 636.78,-276.54 639.11,-283.15"/>
</g>
<!-- Node13&#45;&gt;Node3 -->
<g id="edge15" class="edge">
<title>Node13&#45;&gt;Node3</title>
<path fill="none" stroke="midnightblue" d="M633.09,-257.43C600.63,-249.62 553.21,-236.91 513.5,-221 495.78,-213.9 493.48,-207.41 475.5,-201 399.89,-174.03 360.77,-215.66 298.5,-165 279.22,-149.31 270.34,-121.01 266.41,-102.23"/>
<polygon fill="midnightblue" stroke="midnightblue" points="269.82,-101.42 264.59,-92.21 262.93,-102.67 269.82,-101.42"/>
</g>
<!-- Node13&#45;&gt;Node11 -->
<g id="edge17" class="edge">
<title>Node13&#45;&gt;Node11</title>
<path fill="none" stroke="midnightblue" d="M751.57,-262.49C829.65,-257.63 941.59,-246.36 976.5,-221 993.57,-208.6 1002.78,-185.52 1007.4,-169.15"/>
<polygon fill="midnightblue" stroke="midnightblue" points="1010.88,-169.65 1009.91,-159.1 1004.09,-167.95 1010.88,-169.65"/>
</g>
<!-- Node13&#45;&gt;Node12 -->
<g id="edge18" class="edge">
<title>Node13&#45;&gt;Node12</title>
<path fill="none" stroke="midnightblue" d="M633.79,-257.44C590.86,-247.7 520.91,-231.83 476.06,-221.66"/>
<polygon fill="midnightblue" stroke="midnightblue" points="476.59,-218.19 466.06,-219.39 475.04,-225.01 476.59,-218.19"/>
</g>
<!-- Node14 -->
<g id="node14" class="node">
<title>Node14</title>
<g id="a_node14"><a xlink:title=" ">
<polygon fill="none" stroke="#bfbfbf" points="730,-73 730,-92 783,-92 783,-73 730,-73"/>
<text text-anchor="middle" x="756.5" y="-80" font-family="Helvetica,sans-Serif" font-size="10.00">cstddef</text>
</a>
</g>
</g>
<!-- Node13&#45;&gt;Node14 -->
<g id="edge16" class="edge">
<title>Node13&#45;&gt;Node14</title>
<path fill="none" stroke="midnightblue" d="M751.74,-258.44C801.56,-251.9 858.97,-240.35 874.5,-221 886.53,-206.02 897.75,-176.02 867.5,-134 850.11,-109.84 818.33,-96.98 793.22,-90.3"/>
<polygon fill="midnightblue" stroke="midnightblue" points="793.82,-86.85 783.27,-87.88 792.16,-93.65 793.82,-86.85"/>
</g>
<!-- Node15 -->
<g id="node15" class="node">
<title>Node15</title>
<g id="a_node15"><a xlink:title=" ">
<polygon fill="none" stroke="#bfbfbf" points="922,-201.5 922,-220.5 967,-220.5 967,-201.5 922,-201.5"/>
<text text-anchor="middle" x="944.5" y="-208.5" font-family="Helvetica,sans-Serif" font-size="10.00">utility</text>
</a>
</g>
</g>
<!-- Node13&#45;&gt;Node15 -->
<g id="edge19" class="edge">
<title>Node13&#45;&gt;Node15</title>
<path fill="none" stroke="midnightblue" d="M720.01,-257.49C767.82,-248.92 842.89,-235.01 907.5,-221 908.95,-220.68 910.44,-220.36 911.94,-220.02"/>
<polygon fill="midnightblue" stroke="midnightblue" points="912.9,-223.39 921.84,-217.7 911.31,-216.57 912.9,-223.39"/>
</g>
<!-- Node13&#45;&gt;Node16 -->
<g id="edge20" class="edge">
<title>Node13&#45;&gt;Node16</title>
<path fill="none" stroke="midnightblue" d="M661.06,-257.32C651.35,-249.26 636.68,-237.08 625,-227.37"/>
<polygon fill="midnightblue" stroke="midnightblue" points="627.06,-224.53 617.13,-220.83 622.59,-229.92 627.06,-224.53"/>
</g>
<!-- Node22 -->
<g id="node22" class="node">
<title>Node22</title>
<g id="a_node22"><a xlink:href="XalanList_8hpp.html" target="_top" xlink:title=" ">
<polygon fill="none" stroke="black" points="709.5,-201.5 709.5,-220.5 865.5,-220.5 865.5,-201.5 709.5,-201.5"/>
<text text-anchor="middle" x="787.5" y="-208.5" font-family="Helvetica,sans-Serif" font-size="10.00">xalanc/Include/XalanList.hpp</text>
</a>
</g>
</g>
<!-- Node13&#45;&gt;Node22 -->
<g id="edge34" class="edge">
<title>Node13&#45;&gt;Node22</title>
<path fill="none" stroke="midnightblue" d="M689.88,-257.44C708.72,-248.68 738.23,-234.94 759.88,-224.86"/>
<polygon fill="midnightblue" stroke="midnightblue" points="761.62,-227.91 769.21,-220.52 758.66,-221.56 761.62,-227.91"/>
</g>
<!-- Node16&#45;&gt;Node3 -->
<g id="edge21" class="edge">
<title>Node16&#45;&gt;Node3</title>
<path fill="none" stroke="midnightblue" d="M521.74,-201.57C456.05,-193.95 371.22,-181.42 340.5,-165 311.73,-149.63 287.63,-119.46 274.42,-100.45"/>
<polygon fill="midnightblue" stroke="midnightblue" points="277.31,-98.48 268.83,-92.13 271.5,-102.38 277.31,-98.48"/>
</g>
<!-- Node16&#45;&gt;Node9 -->
<g id="edge24" class="edge">
<title>Node16&#45;&gt;Node9</title>
<path fill="none" stroke="midnightblue" d="M610.53,-201.35C618.46,-185.35 637.67,-151.19 664.5,-134 695.45,-114.17 797.8,-96.8 853.17,-88.57"/>
<polygon fill="midnightblue" stroke="midnightblue" points="853.87,-92 863.26,-87.09 852.86,-85.08 853.87,-92"/>
</g>
<!-- Node16&#45;&gt;Node11 -->
<g id="edge23" class="edge">
<title>Node16&#45;&gt;Node11</title>
<path fill="none" stroke="midnightblue" d="M664.53,-201.48C747.08,-189.35 896.48,-167.4 969.3,-156.7"/>
<polygon fill="midnightblue" stroke="midnightblue" points="970.09,-160.12 979.48,-155.2 969.07,-153.2 970.09,-160.12"/>
</g>
<!-- Node16&#45;&gt;Node14 -->
<g id="edge22" class="edge">
<title>Node16&#45;&gt;Node14</title>
<path fill="none" stroke="midnightblue" d="M606.9,-201.29C608.06,-185.8 612.62,-153.28 630.5,-134 653.98,-108.68 691.85,-95.8 719.95,-89.42"/>
<polygon fill="midnightblue" stroke="midnightblue" points="720.75,-92.83 729.82,-87.35 719.31,-85.98 720.75,-92.83"/>
</g>
<!-- Node17 -->
<g id="node17" class="node">
<title>Node17</title>
<g id="a_node17"><a xlink:title=" ">
<polygon fill="none" stroke="#bfbfbf" points="556,-73 556,-92 593,-92 593,-73 556,-73"/>
<text text-anchor="middle" x="574.5" y="-80" font-family="Helvetica,sans-Serif" font-size="10.00">new</text>
</a>
</g>
</g>
<!-- Node16&#45;&gt;Node17 -->
<g id="edge25" class="edge">
<title>Node16&#45;&gt;Node17</title>
<path fill="none" stroke="midnightblue" d="M603.6,-201.44C600.6,-192.43 595.9,-177.81 592.5,-165 586.82,-143.61 581.51,-118.73 578.15,-102.14"/>
<polygon fill="midnightblue" stroke="midnightblue" points="581.54,-101.25 576.16,-92.12 574.68,-102.61 581.54,-101.25"/>
</g>
<!-- Node18 -->
<g id="node18" class="node">
<title>Node18</title>
<g id="a_node18"><a xlink:title=" ">
<polygon fill="none" stroke="#bfbfbf" points="756,-140 756,-159 809,-159 809,-140 756,-140"/>
<text text-anchor="middle" x="782.5" y="-147" font-family="Helvetica,sans-Serif" font-size="10.00">iterator</text>
</a>
</g>
</g>
<!-- Node16&#45;&gt;Node18 -->
<g id="edge26" class="edge">
<title>Node16&#45;&gt;Node18</title>
<path fill="none" stroke="midnightblue" d="M635.64,-201.48C664.32,-192.91 709.25,-179 747.5,-165 749.35,-164.32 751.25,-163.6 753.16,-162.86"/>
<polygon fill="midnightblue" stroke="midnightblue" points="754.64,-166.04 762.62,-159.07 752.04,-159.54 754.64,-166.04"/>
</g>
<!-- Node19 -->
<g id="node19" class="node">
<title>Node19</title>
<g id="a_node19"><a xlink:title=" ">
<polygon fill="none" stroke="#bfbfbf" points="673,-140 673,-159 738,-159 738,-140 673,-140"/>
<text text-anchor="middle" x="705.5" y="-147" font-family="Helvetica,sans-Serif" font-size="10.00">stdexcept</text>
</a>
</g>
</g>
<!-- Node16&#45;&gt;Node19 -->
<g id="edge27" class="edge">
<title>Node16&#45;&gt;Node19</title>
<path fill="none" stroke="midnightblue" d="M620.68,-201.48C636.86,-191.75 663.53,-175.73 682.64,-164.24"/>
<polygon fill="midnightblue" stroke="midnightblue" points="684.57,-167.16 691.34,-159.01 680.97,-161.16 684.57,-167.16"/>
</g>
<!-- Node16&#45;&gt;Node20 -->
<g id="edge28" class="edge">
<title>Node16&#45;&gt;Node20</title>
<path fill="none" stroke="midnightblue" d="M585.73,-201.48C564.8,-192.89 531.89,-179.38 505.19,-168.43"/>
<polygon fill="midnightblue" stroke="midnightblue" points="506.25,-165.08 495.67,-164.52 503.6,-171.56 506.25,-165.08"/>
</g>
<!-- Node20&#45;&gt;Node3 -->
<g id="edge29" class="edge">
<title>Node20&#45;&gt;Node3</title>
<path fill="none" stroke="midnightblue" d="M418.54,-134.4C382.87,-122.69 332.74,-106.23 299.24,-95.23"/>
<polygon fill="midnightblue" stroke="midnightblue" points="300.01,-91.8 289.41,-92.01 297.82,-98.45 300.01,-91.8"/>
</g>
<!-- Node20&#45;&gt;Node9 -->
<g id="edge30" class="edge">
<title>Node20&#45;&gt;Node9</title>
<path fill="none" stroke="midnightblue" d="M540.5,-136.5C633.78,-122.34 784.89,-99.39 853.53,-88.96"/>
<polygon fill="midnightblue" stroke="midnightblue" points="854.07,-92.42 863.43,-87.46 853.02,-85.5 854.07,-92.42"/>
</g>
<!-- Node20&#45;&gt;Node14 -->
<g id="edge31" class="edge">
<title>Node20&#45;&gt;Node14</title>
<path fill="none" stroke="midnightblue" d="M525.15,-134.48C584.6,-121.38 671.28,-102.28 719.91,-91.56"/>
<polygon fill="midnightblue" stroke="midnightblue" points="720.67,-94.98 729.68,-89.41 719.16,-88.14 720.67,-94.98"/>
</g>
<!-- Node20&#45;&gt;Node17 -->
<g id="edge32" class="edge">
<title>Node20&#45;&gt;Node17</title>
<path fill="none" stroke="midnightblue" d="M486.02,-134.4C505.23,-123.34 531.8,-108.06 550.8,-97.13"/>
<polygon fill="midnightblue" stroke="midnightblue" points="552.79,-100.03 559.71,-92.01 549.3,-93.96 552.79,-100.03"/>
</g>
<!-- Node21 -->
<g id="node21" class="node">
<title>Node21</title>
<g id="a_node21"><a xlink:title=" ">
<polygon fill="none" stroke="#bfbfbf" points="385,-67.5 385,-97.5 538,-97.5 538,-67.5 385,-67.5"/>
<text text-anchor="start" x="393" y="-85.5" font-family="Helvetica,sans-Serif" font-size="10.00">xercesc/framework/Memory</text>
<text text-anchor="middle" x="461.5" y="-74.5" font-family="Helvetica,sans-Serif" font-size="10.00">Manager.hpp</text>
</a>
</g>
</g>
<!-- Node20&#45;&gt;Node21 -->
<g id="edge33" class="edge">
<title>Node20&#45;&gt;Node21</title>
<path fill="none" stroke="midnightblue" d="M461.5,-134.4C461.5,-126.64 461.5,-116.81 461.5,-107.86"/>
<polygon fill="midnightblue" stroke="midnightblue" points="465,-107.58 461.5,-97.58 458,-107.58 465,-107.58"/>
</g>
<!-- Node22&#45;&gt;Node3 -->
<g id="edge35" class="edge">
<title>Node22&#45;&gt;Node3</title>
<path fill="none" stroke="midnightblue" d="M709.07,-201.76C590.11,-189.21 377.34,-166.61 373.5,-165 353.39,-156.59 352.88,-147.16 335.5,-134 318.77,-121.33 299.24,-107.71 284.75,-97.81"/>
<polygon fill="midnightblue" stroke="midnightblue" points="286.69,-94.89 276.45,-92.16 282.75,-100.68 286.69,-94.89"/>
</g>
<!-- Node22&#45;&gt;Node9 -->
<g id="edge38" class="edge">
<title>Node22&#45;&gt;Node9</title>
<path fill="none" stroke="midnightblue" d="M813.84,-201.35C831.48,-194.25 853.9,-182.48 867.5,-165 881.74,-146.69 886.78,-119.88 888.55,-102.07"/>
<polygon fill="midnightblue" stroke="midnightblue" points="892.05,-102.3 889.3,-92.07 885.07,-101.78 892.05,-102.3"/>
</g>
<!-- Node22&#45;&gt;Node11 -->
<g id="edge37" class="edge">
<title>Node22&#45;&gt;Node11</title>
<path fill="none" stroke="midnightblue" d="M823.8,-201.47C859.89,-192.84 916.74,-178.83 965.5,-165 968.82,-164.06 972.27,-163.04 975.71,-162"/>
<polygon fill="midnightblue" stroke="midnightblue" points="976.78,-165.33 985.31,-159.04 974.72,-158.65 976.78,-165.33"/>
</g>
<!-- Node22&#45;&gt;Node14 -->
<g id="edge36" class="edge">
<title>Node22&#45;&gt;Node14</title>
<path fill="none" stroke="midnightblue" d="M808.98,-201.36C823.89,-194.09 842.61,-182.12 851.5,-165 857.85,-152.77 858.6,-145.81 851.5,-134 838.79,-112.85 813.91,-100.08 792.8,-92.68"/>
<polygon fill="midnightblue" stroke="midnightblue" points="793.7,-89.29 783.11,-89.55 791.55,-95.95 793.7,-89.29"/>
</g>
<!-- Node22&#45;&gt;Node17 -->
<g id="edge39" class="edge">
<title>Node22&#45;&gt;Node17</title>
<path fill="none" stroke="midnightblue" d="M796.48,-201.16C810.77,-186.02 835.42,-154.77 818.5,-134 791.63,-101 661.93,-88.89 603.34,-85.06"/>
<polygon fill="midnightblue" stroke="midnightblue" points="603.46,-81.56 593.27,-84.44 603.03,-88.55 603.46,-81.56"/>
</g>
<!-- Node22&#45;&gt;Node18 -->
<g id="edge40" class="edge">
<title>Node22&#45;&gt;Node18</title>
<path fill="none" stroke="midnightblue" d="M786.78,-201.48C786.08,-193.08 784.98,-179.98 784.07,-169.16"/>
<polygon fill="midnightblue" stroke="midnightblue" points="787.54,-168.68 783.22,-159.01 780.56,-169.27 787.54,-168.68"/>
</g>
<!-- Node22&#45;&gt;Node19 -->
<g id="edge41" class="edge">
<title>Node22&#45;&gt;Node19</title>
<path fill="none" stroke="midnightblue" d="M775.75,-201.48C762.72,-192.02 741.46,-176.6 725.74,-165.19"/>
<polygon fill="midnightblue" stroke="midnightblue" points="727.38,-162.05 717.23,-159.01 723.27,-167.71 727.38,-162.05"/>
</g>
<!-- Node22&#45;&gt;Node20 -->
<g id="edge42" class="edge">
<title>Node22&#45;&gt;Node20</title>
<path fill="none" stroke="midnightblue" d="M740.79,-201.48C690.76,-192.34 610.23,-177.64 548.46,-166.37"/>
<polygon fill="midnightblue" stroke="midnightblue" points="548.8,-162.88 538.33,-164.52 547.54,-169.76 548.8,-162.88"/>
</g>
<!-- Node23&#45;&gt;Node8 -->
<g id="edge46" class="edge">
<title>Node23&#45;&gt;Node8</title>
<path fill="none" stroke="midnightblue" d="M206.36,-313.08C203.82,-305.85 200.14,-295.41 196.97,-286.4"/>
<polygon fill="midnightblue" stroke="midnightblue" points="200.2,-285.02 193.58,-276.75 193.6,-287.35 200.2,-285.02"/>
</g>
</g>
</svg>
        <g id="navigator" transform="translate(0 0)" fill="#404254">
                <rect fill="#f2f5e9" fill-opacity="0.5" stroke="#606060" stroke-width=".5" x="0" y="0" width="60" height="60"/>
                <use id="zoomplus" xlink:href="#zoomPlus" x="17" y="9" onmousedown="handleZoom(evt,'in')"/>
                <use id="zoomminus" xlink:href="#zoomMin" x="42" y="9" onmousedown="handleZoom(evt,'out')"/>
                <use id="reset" xlink:href="#resetDef" x="30" y="36" onmousedown="handleReset()"/>
                <g id="arrowUp" xlink:href="#dirArrow" transform="translate(30 24)" onmousedown="handlePan(0,-1)">
                  <use xlink:href="#rim" fill="#404040">
                        <set attributeName="fill" to="#808080" begin="arrowUp.mouseover" end="arrowUp.mouseout"/>
                  </use>
                  <path fill="none" stroke="white" stroke-width="1.5" d="M0,-3.0v7 M-2.5,-0.5L0,-3.0L2.5,-0.5"/>
                </g>
                <g id="arrowRight" xlink:href="#dirArrow" transform="rotate(90) translate(36 -43)" onmousedown="handlePan(1,0)">
                  <use xlink:href="#rim" fill="#404040">
                        <set attributeName="fill" to="#808080" begin="arrowRight.mouseover" end="arrowRight.mouseout"/>
                  </use>
                  <path fill="none" stroke="white" stroke-width="1.5" d="M0,-3.0v7 M-2.5,-0.5L0,-3.0L2.5,-0.5"/>
                </g>
                <g id="arrowDown" xlink:href="#dirArrow" transform="rotate(180) translate(-30 -48)" onmousedown="handlePan(0,1)">
                  <use xlink:href="#rim" fill="#404040">
                        <set attributeName="fill" to="#808080" begin="arrowDown.mouseover" end="arrowDown.mouseout"/>
                  </use>
                  <path fill="none" stroke="white" stroke-width="1.5" d="M0,-3.0v7 M-2.5,-0.5L0,-3.0L2.5,-0.5"/>
                </g>
                <g id="arrowLeft" xlink:href="#dirArrow" transform="rotate(270) translate(-36 17)" onmousedown="handlePan(-1,0)">
                  <use xlink:href="#rim" fill="#404040">
                        <set attributeName="fill" to="#808080" begin="arrowLeft.mouseover" end="arrowLeft.mouseout"/>
                  </use>
                  <path fill="none" stroke="white" stroke-width="1.5" d="M0,-3.0v7 M-2.5,-0.5L0,-3.0L2.5,-0.5"/>
                </g>
        </g>
        <svg viewBox="0 0 15 15" width="100%" height="30px" preserveAspectRatio="xMaxYMin meet">
         <g id="arrow_out" transform="scale(0.3 0.3)">
          <a xlink:href="XalanParsedURI_8hpp__incl_org.svg" target="_base">
           <rect id="button" ry="5" rx="5" y="6" x="6" height="38" width="38"
                fill="#f2f5e9" fill-opacity="0.5" stroke="#606060" stroke-width="1.0"/>
           <path id="arrow"
             d="M 11.500037,31.436501 C 11.940474,20.09759 22.043105,11.32322 32.158766,21.979434 L 37.068811,17.246167 C 37.068811,17.246167 37.088388,32 37.088388,32 L 22.160133,31.978069 C 22.160133,31.978069 26.997745,27.140456 26.997745,27.140456 C 18.528582,18.264221 13.291696,25.230495 11.500037,31.436501 z"
             style="fill:#404040;"/>
          </a>
         </g>
        </svg>
</svg>
