<?xml version="1.0" encoding="UTF-8" standalone="no"?>
<!DOCTYPE svg PUBLIC "-//W3C//DTD SVG 1.1//EN"
 "http://www.w3.org/Graphics/SVG/1.1/DTD/svg11.dtd">
<!-- Generated by graphviz version 2.38.0 (20140413.2041)
 -->
<!-- Title: xalanc/XalanDOM/XalanNamedNodeMap.hpp Pages: 1 -->
<!--zoomable 653 -->
<svg id="main" version="1.1" xmlns="http://www.w3.org/2000/svg" xmlns:xlink="http://www.w3.org/1999/xlink" xml:space="preserve" onload="init(evt)">
<style type="text/css"><![CDATA[
.edge:hover path { stroke: red; }
.edge:hover polygon { stroke: red; fill: red; }
]]></style>
<script type="text/javascript"><![CDATA[
var edges = document.getElementsByTagName('g');
if (edges && edges.length) {
  for (var i=0;i<edges.length;i++) {
    if (edges[i].id.substr(0,4)=='edge') {
      edges[i].setAttribute('class','edge');
    }
  }
}
]]></script>
        <defs>
                <circle id="rim" cx="0" cy="0" r="7"/>
                <circle id="rim2" cx="0" cy="0" r="3.5"/>
                <g id="zoomPlus">
                        <use xlink:href="#rim" fill="#404040">
                                <set attributeName="fill" to="#808080" begin="zoomplus.mouseover" end="zoomplus.mouseout"/>
                        </use>
                        <path d="M-4,0h8M0,-4v8" fill="none" stroke="white" stroke-width="1.5" pointer-events="none"/>
                </g>
                <g id="zoomMin">
                        <use xlink:href="#rim" fill="#404040">
                                <set attributeName="fill" to="#808080" begin="zoomminus.mouseover" end="zoomminus.mouseout"/>
                        </use>
                        <path d="M-4,0h8" fill="none" stroke="white" stroke-width="1.5" pointer-events="none"/>
                </g>
                <g id="dirArrow">
                        <path fill="none" stroke="white" stroke-width="1.5" d="M0,-3.0v7 M-2.5,-0.5L0,-3.0L2.5,-0.5"/>
                </g>
               <g id="resetDef">
                       <use xlink:href="#rim2" fill="#404040">
                               <set attributeName="fill" to="#808080" begin="reset.mouseover" end="reset.mouseout"/>
                       </use>
               </g>
        </defs>

<script type="text/javascript">
var viewWidth = 1355;
var viewHeight = 653;
var sectionId = 'dynsection-1';
</script>
<script xlink:href="svgpan.js"/>
<svg id="graph" class="graph">
<g id="viewport">
<title>xalanc/XalanDOM/XalanNamedNodeMap.hpp</title>
<!-- Node1 -->
<g id="node1" class="node"><title>Node1</title>
<g id="a_node1"><a xlink:title=" ">
<polygon fill="#bfbfbf" stroke="black" points="462,-614.5 462,-644.5 613,-644.5 613,-614.5 462,-614.5"/>
<text text-anchor="start" x="470" y="-632.5" font-family="Helvetica,sans-Serif" font-size="10.00">xalanc/XalanDOM/XalanNamed</text>
<text text-anchor="middle" x="537.5" y="-621.5" font-family="Helvetica,sans-Serif" font-size="10.00">NodeMap.hpp</text>
</a>
</g>
</g>
<!-- Node2 -->
<g id="node2" class="node"><title>Node2</title>
<g id="a_node2"><a xlink:href="XalanEmptyNamedNodeMap_8hpp.html" target="_top" xlink:title=" ">
<polygon fill="none" stroke="black" points="195,-547.5 195,-577.5 344,-577.5 344,-547.5 195,-547.5"/>
<text text-anchor="start" x="203" y="-565.5" font-family="Helvetica,sans-Serif" font-size="10.00">xalanc/XalanDOM/XalanEmpty</text>
<text text-anchor="middle" x="269.5" y="-554.5" font-family="Helvetica,sans-Serif" font-size="10.00">NamedNodeMap.hpp</text>
</a>
</g>
</g>
<!-- Node1&#45;&gt;Node2 -->
<g id="edge1" class="edge"><title>Node1&#45;&gt;Node2</title>
<path fill="none" stroke="midnightblue" d="M469.958,-612.119C426.105,-601.483 369.537,-587.763 327.68,-577.611"/>
<polygon fill="midnightblue" stroke="midnightblue" points="469.135,-615.52 479.678,-614.476 470.785,-608.717 469.135,-615.52"/>
</g>
<!-- Node17 -->
<g id="node17" class="node"><title>Node17</title>
<g id="a_node17"><a xlink:href="XalanSourceTreeElement_8hpp.html" target="_top" xlink:title=" ">
<polygon fill="none" stroke="black" points="362,-547.5 362,-577.5 509,-577.5 509,-547.5 362,-547.5"/>
<text text-anchor="start" x="370" y="-565.5" font-family="Helvetica,sans-Serif" font-size="10.00">xalanc/XalanSourceTree</text>
<text text-anchor="middle" x="435.5" y="-554.5" font-family="Helvetica,sans-Serif" font-size="10.00">/XalanSourceTreeElement.hpp</text>
</a>
</g>
</g>
<!-- Node1&#45;&gt;Node17 -->
<g id="edge19" class="edge"><title>Node1&#45;&gt;Node17</title>
<path fill="none" stroke="midnightblue" d="M506.924,-609.015C491.051,-598.9 472.016,-586.77 457.589,-577.577"/>
<polygon fill="midnightblue" stroke="midnightblue" points="505.053,-611.973 515.368,-614.396 508.815,-606.07 505.053,-611.973"/>
</g>
<!-- Node18 -->
<g id="node18" class="node"><title>Node18</title>
<g id="a_node18"><a xlink:href="XalanSourceTreeElementA_8hpp.html" target="_top" xlink:title=" ">
<polygon fill="none" stroke="black" points="393.5,-480.5 393.5,-510.5 547.5,-510.5 547.5,-480.5 393.5,-480.5"/>
<text text-anchor="start" x="401.5" y="-498.5" font-family="Helvetica,sans-Serif" font-size="10.00">xalanc/XalanSourceTree</text>
<text text-anchor="middle" x="470.5" y="-487.5" font-family="Helvetica,sans-Serif" font-size="10.00">/XalanSourceTreeElementA.hpp</text>
</a>
</g>
</g>
<!-- Node1&#45;&gt;Node18 -->
<g id="edge27" class="edge"><title>Node1&#45;&gt;Node18</title>
<path fill="none" stroke="midnightblue" d="M534.841,-604.321C532.224,-587.462 527.153,-564.878 517.5,-547 509.989,-533.089 497.728,-520.097 487.612,-510.775"/>
<polygon fill="midnightblue" stroke="midnightblue" points="531.405,-605.032 536.229,-614.465 538.341,-604.083 531.405,-605.032"/>
</g>
<!-- Node22 -->
<g id="node22" class="node"><title>Node22</title>
<g id="a_node22"><a xlink:href="XercesNamedNodeMapBridge_8hpp.html" target="_top" xlink:title=" ">
<polygon fill="none" stroke="black" points="565.5,-547.5 565.5,-577.5 785.5,-577.5 785.5,-547.5 565.5,-547.5"/>
<text text-anchor="start" x="573.5" y="-565.5" font-family="Helvetica,sans-Serif" font-size="10.00">xalanc/XercesParserLiaison</text>
<text text-anchor="middle" x="675.5" y="-554.5" font-family="Helvetica,sans-Serif" font-size="10.00">/Deprecated/XercesNamedNodeMapBridge.hpp</text>
</a>
</g>
</g>
<!-- Node1&#45;&gt;Node22 -->
<g id="edge28" class="edge"><title>Node1&#45;&gt;Node22</title>
<path fill="none" stroke="midnightblue" d="M576.5,-610.131C598.427,-599.802 625.374,-587.11 645.614,-577.577"/>
<polygon fill="midnightblue" stroke="midnightblue" points="574.999,-606.968 567.444,-614.396 577.982,-613.301 574.999,-606.968"/>
</g>
<!-- Node27 -->
<g id="node27" class="node"><title>Node27</title>
<g id="a_node27"><a xlink:href="XercesNamedNodeMapWrapper_8hpp.html" target="_top" xlink:title=" ">
<polygon fill="none" stroke="black" points="996.5,-547.5 996.5,-577.5 1172.5,-577.5 1172.5,-547.5 996.5,-547.5"/>
<text text-anchor="start" x="1004.5" y="-565.5" font-family="Helvetica,sans-Serif" font-size="10.00">xalanc/XercesParserLiaison</text>
<text text-anchor="middle" x="1084.5" y="-554.5" font-family="Helvetica,sans-Serif" font-size="10.00">/XercesNamedNodeMapWrapper.hpp</text>
</a>
</g>
</g>
<!-- Node1&#45;&gt;Node27 -->
<g id="edge33" class="edge"><title>Node1&#45;&gt;Node27</title>
<path fill="none" stroke="midnightblue" d="M623.202,-618.316C724.892,-606.232 893.562,-586.189 996.324,-573.978"/>
<polygon fill="midnightblue" stroke="midnightblue" points="622.788,-614.841 613.271,-619.496 623.614,-621.792 622.788,-614.841"/>
</g>
<!-- Node3 -->
<g id="node3" class="node"><title>Node3</title>
<g id="a_node3"><a xlink:href="XalanSourceTreeElementNA_8hpp.html" target="_top" xlink:title=" ">
<polygon fill="none" stroke="black" points="189,-480.5 189,-510.5 350,-510.5 350,-480.5 189,-480.5"/>
<text text-anchor="start" x="197" y="-498.5" font-family="Helvetica,sans-Serif" font-size="10.00">xalanc/XalanSourceTree</text>
<text text-anchor="middle" x="269.5" y="-487.5" font-family="Helvetica,sans-Serif" font-size="10.00">/XalanSourceTreeElementNA.hpp</text>
</a>
</g>
</g>
<!-- Node2&#45;&gt;Node3 -->
<g id="edge2" class="edge"><title>Node2&#45;&gt;Node3</title>
<path fill="none" stroke="midnightblue" d="M269.5,-537.108C269.5,-528.154 269.5,-518.323 269.5,-510.577"/>
<polygon fill="midnightblue" stroke="midnightblue" points="266,-537.396 269.5,-547.396 273,-537.396 266,-537.396"/>
</g>
<!-- Node4 -->
<g id="node4" class="node"><title>Node4</title>
<g id="a_node4"><a xlink:href="XalanSourceTreeElementNAAllocator_8hpp.html" target="_top" xlink:title=" ">
<polygon fill="none" stroke="black" points="24,-335.5 24,-365.5 223,-365.5 223,-335.5 24,-335.5"/>
<text text-anchor="start" x="32" y="-353.5" font-family="Helvetica,sans-Serif" font-size="10.00">xalanc/XalanSourceTree</text>
<text text-anchor="middle" x="123.5" y="-342.5" font-family="Helvetica,sans-Serif" font-size="10.00">/XalanSourceTreeElementNAAllocator.hpp</text>
</a>
</g>
</g>
<!-- Node3&#45;&gt;Node4 -->
<g id="edge3" class="edge"><title>Node3&#45;&gt;Node4</title>
<path fill="none" stroke="midnightblue" d="M221.073,-475.922C204.579,-467.909 186.933,-457.282 173.5,-444 150.394,-421.153 135.247,-385.358 128.162,-365.666"/>
<polygon fill="midnightblue" stroke="midnightblue" points="220.066,-479.313 230.612,-480.339 223.008,-472.961 220.066,-479.313"/>
</g>
<!-- Node15 -->
<g id="node15" class="node"><title>Node15</title>
<g id="a_node15"><a xlink:href="XalanSourceTreeElementNANS_8hpp.html" target="_top" xlink:title=" ">
<polygon fill="none" stroke="black" points="182.5,-408 182.5,-438 356.5,-438 356.5,-408 182.5,-408"/>
<text text-anchor="start" x="190.5" y="-426" font-family="Helvetica,sans-Serif" font-size="10.00">xalanc/XalanSourceTree</text>
<text text-anchor="middle" x="269.5" y="-415" font-family="Helvetica,sans-Serif" font-size="10.00">/XalanSourceTreeElementNANS.hpp</text>
</a>
</g>
</g>
<!-- Node3&#45;&gt;Node15 -->
<g id="edge16" class="edge"><title>Node3&#45;&gt;Node15</title>
<path fill="none" stroke="midnightblue" d="M269.5,-470.232C269.5,-459.568 269.5,-447.414 269.5,-438.246"/>
<polygon fill="midnightblue" stroke="midnightblue" points="266,-470.233 269.5,-480.233 273,-470.233 266,-470.233"/>
</g>
<!-- Node5 -->
<g id="node5" class="node"><title>Node5</title>
<g id="a_node5"><a xlink:href="XalanSourceTreeDocument_8hpp.html" target="_top" xlink:title=" ">
<polygon fill="none" stroke="black" points="337,-268.5 337,-298.5 492,-298.5 492,-268.5 337,-268.5"/>
<text text-anchor="start" x="345" y="-286.5" font-family="Helvetica,sans-Serif" font-size="10.00">xalanc/XalanSourceTree</text>
<text text-anchor="middle" x="414.5" y="-275.5" font-family="Helvetica,sans-Serif" font-size="10.00">/XalanSourceTreeDocument.hpp</text>
</a>
</g>
</g>
<!-- Node4&#45;&gt;Node5 -->
<g id="edge4" class="edge"><title>Node4&#45;&gt;Node5</title>
<path fill="none" stroke="midnightblue" d="M196.256,-333.249C244.041,-322.575 305.919,-308.754 351.577,-298.555"/>
<polygon fill="midnightblue" stroke="midnightblue" points="195.281,-329.88 186.284,-335.476 196.807,-336.712 195.281,-329.88"/>
</g>
<!-- Node6 -->
<g id="node6" class="node"><title>Node6</title>
<g id="a_node6"><a xlink:href="XalanSourceTreeDocumentFragment_8hpp.html" target="_top" xlink:title=" ">
<polygon fill="none" stroke="black" points="123,-201.5 123,-231.5 320,-231.5 320,-201.5 123,-201.5"/>
<text text-anchor="start" x="131" y="-219.5" font-family="Helvetica,sans-Serif" font-size="10.00">xalanc/XalanSourceTree</text>
<text text-anchor="middle" x="221.5" y="-208.5" font-family="Helvetica,sans-Serif" font-size="10.00">/XalanSourceTreeDocumentFragment.hpp</text>
</a>
</g>
</g>
<!-- Node5&#45;&gt;Node6 -->
<g id="edge5" class="edge"><title>Node5&#45;&gt;Node6</title>
<path fill="none" stroke="midnightblue" d="M362.811,-265.092C331.655,-254.599 292.489,-241.408 263.296,-231.577"/>
<polygon fill="midnightblue" stroke="midnightblue" points="362.028,-268.521 372.622,-268.396 364.262,-261.887 362.028,-268.521"/>
</g>
<!-- Node13 -->
<g id="node13" class="node"><title>Node13</title>
<g id="a_node13"><a xlink:href="XalanDefaultParsedSource_8hpp.html" target="_top" xlink:title=" ">
<polygon fill="none" stroke="black" points="338,-201.5 338,-231.5 491,-231.5 491,-201.5 338,-201.5"/>
<text text-anchor="start" x="346" y="-219.5" font-family="Helvetica,sans-Serif" font-size="10.00">xalanc/XalanTransformer</text>
<text text-anchor="middle" x="414.5" y="-208.5" font-family="Helvetica,sans-Serif" font-size="10.00">/XalanDefaultParsedSource.hpp</text>
</a>
</g>
</g>
<!-- Node5&#45;&gt;Node13 -->
<g id="edge13" class="edge"><title>Node5&#45;&gt;Node13</title>
<path fill="none" stroke="midnightblue" d="M414.5,-258.108C414.5,-249.154 414.5,-239.323 414.5,-231.577"/>
<polygon fill="midnightblue" stroke="midnightblue" points="411,-258.396 414.5,-268.396 418,-258.396 411,-258.396"/>
</g>
<!-- Node14 -->
<g id="node14" class="node"><title>Node14</title>
<g id="a_node14"><a xlink:href="XalanSourceTreeDocumentAllocator_8hpp.html" target="_top" xlink:title=" ">
<polygon fill="none" stroke="black" points="436.5,-134.5 436.5,-164.5 582.5,-164.5 582.5,-134.5 436.5,-134.5"/>
<text text-anchor="start" x="444.5" y="-152.5" font-family="Helvetica,sans-Serif" font-size="10.00">xalanc/XSLT/XalanSourceTree</text>
<text text-anchor="middle" x="509.5" y="-141.5" font-family="Helvetica,sans-Serif" font-size="10.00">DocumentAllocator.hpp</text>
</a>
</g>
</g>
<!-- Node5&#45;&gt;Node14 -->
<g id="edge14" class="edge"><title>Node5&#45;&gt;Node14</title>
<path fill="none" stroke="midnightblue" d="M462.789,-263.74C476.777,-255.982 490.648,-245.559 499.5,-232 512.826,-211.588 512.811,-182.082 511.332,-164.737"/>
<polygon fill="midnightblue" stroke="midnightblue" points="460.917,-260.767 453.631,-268.459 464.124,-266.989 460.917,-260.767"/>
</g>
<!-- Node7 -->
<g id="node7" class="node"><title>Node7</title>
<g id="a_node7"><a xlink:href="StylesheetExecutionContextDefault_8hpp.html" target="_top" xlink:title=" ">
<polygon fill="none" stroke="black" points="247.5,-67.5 247.5,-97.5 411.5,-97.5 411.5,-67.5 247.5,-67.5"/>
<text text-anchor="start" x="255.5" y="-85.5" font-family="Helvetica,sans-Serif" font-size="10.00">xalanc/XSLT/StylesheetExecution</text>
<text text-anchor="middle" x="329.5" y="-74.5" font-family="Helvetica,sans-Serif" font-size="10.00">ContextDefault.hpp</text>
</a>
</g>
</g>
<!-- Node6&#45;&gt;Node7 -->
<g id="edge6" class="edge"><title>Node6&#45;&gt;Node7</title>
<path fill="none" stroke="midnightblue" d="M222.085,-191.401C223.626,-173.937 228.111,-150.576 240.5,-134 252.731,-117.636 271.934,-105.783 289.375,-97.6906"/>
<polygon fill="midnightblue" stroke="midnightblue" points="218.591,-191.201 221.462,-201.399 225.578,-191.636 218.591,-191.201"/>
</g>
<!-- Node12 -->
<g id="node12" class="node"><title>Node12</title>
<g id="a_node12"><a xlink:href="XalanSourceTreeDocumentFragmentAllocator_8hpp.html" target="_top" xlink:title=" ">
<polygon fill="none" stroke="black" points="250,-134.5 250,-164.5 409,-164.5 409,-134.5 250,-134.5"/>
<text text-anchor="start" x="258" y="-152.5" font-family="Helvetica,sans-Serif" font-size="10.00">xalanc/XSLT/XalanSourceTree</text>
<text text-anchor="middle" x="329.5" y="-141.5" font-family="Helvetica,sans-Serif" font-size="10.00">DocumentFragmentAllocator.hpp</text>
</a>
</g>
</g>
<!-- Node6&#45;&gt;Node12 -->
<g id="edge11" class="edge"><title>Node6&#45;&gt;Node12</title>
<path fill="none" stroke="midnightblue" d="M253.875,-196.015C270.682,-185.9 290.836,-173.77 306.111,-164.577"/>
<polygon fill="midnightblue" stroke="midnightblue" points="251.697,-193.241 244.934,-201.396 255.307,-199.238 251.697,-193.241"/>
</g>
<!-- Node8 -->
<g id="node8" class="node"><title>Node8</title>
<g id="a_node8"><a xlink:href="ICUBridgeCollationCompareFunctorImpl_8hpp.html" target="_top" xlink:title=" ">
<polygon fill="none" stroke="black" points="0,-0.5 0,-30.5 163,-30.5 163,-0.5 0,-0.5"/>
<text text-anchor="start" x="8" y="-18.5" font-family="Helvetica,sans-Serif" font-size="10.00">xalanc/ICUBridge/ICUBridge</text>
<text text-anchor="middle" x="81.5" y="-7.5" font-family="Helvetica,sans-Serif" font-size="10.00">CollationCompareFunctorImpl.hpp</text>
</a>
</g>
</g>
<!-- Node7&#45;&gt;Node8 -->
<g id="edge7" class="edge"><title>Node7&#45;&gt;Node8</title>
<path fill="none" stroke="midnightblue" d="M266.23,-64.9171C225.759,-54.3099 173.828,-40.6988 135.339,-30.6109"/>
<polygon fill="midnightblue" stroke="midnightblue" points="265.432,-68.3262 275.993,-67.476 267.207,-61.5549 265.432,-68.3262"/>
</g>
<!-- Node9 -->
<g id="node9" class="node"><title>Node9</title>
<g id="a_node9"><a xlink:href="ICUFormatNumberFunctor_8hpp.html" target="_top" xlink:title=" ">
<polygon fill="none" stroke="black" points="181,-0.5 181,-30.5 322,-30.5 322,-0.5 181,-0.5"/>
<text text-anchor="start" x="189" y="-18.5" font-family="Helvetica,sans-Serif" font-size="10.00">xalanc/ICUBridge/ICUFormat</text>
<text text-anchor="middle" x="251.5" y="-7.5" font-family="Helvetica,sans-Serif" font-size="10.00">NumberFunctor.hpp</text>
</a>
</g>
</g>
<!-- Node7&#45;&gt;Node9 -->
<g id="edge8" class="edge"><title>Node7&#45;&gt;Node9</title>
<path fill="none" stroke="midnightblue" d="M304.76,-60.8832C292.907,-51.0054 279.015,-39.4293 268.392,-30.5765"/>
<polygon fill="midnightblue" stroke="midnightblue" points="302.652,-63.6829 312.575,-67.396 307.134,-58.3053 302.652,-63.6829"/>
</g>
<!-- Node10 -->
<g id="node10" class="node"><title>Node10</title>
<g id="a_node10"><a xlink:href="ICUXalanNumberFormatFactory_8hpp.html" target="_top" xlink:title=" ">
<polygon fill="none" stroke="black" points="340.5,-0.5 340.5,-30.5 474.5,-30.5 474.5,-0.5 340.5,-0.5"/>
<text text-anchor="start" x="348.5" y="-18.5" font-family="Helvetica,sans-Serif" font-size="10.00">xalanc/ICUBridge/ICUXalan</text>
<text text-anchor="middle" x="407.5" y="-7.5" font-family="Helvetica,sans-Serif" font-size="10.00">NumberFormatFactory.hpp</text>
</a>
</g>
</g>
<!-- Node7&#45;&gt;Node10 -->
<g id="edge9" class="edge"><title>Node7&#45;&gt;Node10</title>
<path fill="none" stroke="midnightblue" d="M354.24,-60.8832C366.093,-51.0054 379.985,-39.4293 390.608,-30.5765"/>
<polygon fill="midnightblue" stroke="midnightblue" points="351.866,-58.3053 346.425,-67.396 356.348,-63.6829 351.866,-58.3053"/>
</g>
<!-- Node11 -->
<g id="node11" class="node"><title>Node11</title>
<g id="a_node11"><a xlink:href="XalanCompiledStylesheetDefault_8hpp.html" target="_top" xlink:title=" ">
<polygon fill="none" stroke="black" points="493,-0.5 493,-30.5 672,-30.5 672,-0.5 493,-0.5"/>
<text text-anchor="start" x="501" y="-18.5" font-family="Helvetica,sans-Serif" font-size="10.00">xalanc/XalanTransformer</text>
<text text-anchor="middle" x="582.5" y="-7.5" font-family="Helvetica,sans-Serif" font-size="10.00">/XalanCompiledStylesheetDefault.hpp</text>
</a>
</g>
</g>
<!-- Node7&#45;&gt;Node11 -->
<g id="edge10" class="edge"><title>Node7&#45;&gt;Node11</title>
<path fill="none" stroke="midnightblue" d="M393.784,-64.9844C435.108,-54.3674 488.228,-40.7201 527.576,-30.6109"/>
<polygon fill="midnightblue" stroke="midnightblue" points="392.9,-61.5976 384.086,-67.476 394.642,-68.3775 392.9,-61.5976"/>
</g>
<!-- Node12&#45;&gt;Node7 -->
<g id="edge12" class="edge"><title>Node12&#45;&gt;Node7</title>
<path fill="none" stroke="midnightblue" d="M329.5,-124.108C329.5,-115.154 329.5,-105.323 329.5,-97.5765"/>
<polygon fill="midnightblue" stroke="midnightblue" points="326,-124.396 329.5,-134.396 333,-124.396 326,-124.396"/>
</g>
<!-- Node14&#45;&gt;Node7 -->
<g id="edge15" class="edge"><title>Node14&#45;&gt;Node7</title>
<path fill="none" stroke="midnightblue" d="M460.915,-130.955C431.919,-120.485 395.589,-107.366 368.481,-97.5765"/>
<polygon fill="midnightblue" stroke="midnightblue" points="459.848,-134.291 470.443,-134.396 462.226,-127.708 459.848,-134.291"/>
</g>
<!-- Node16 -->
<g id="node16" class="node"><title>Node16</title>
<g id="a_node16"><a xlink:href="XalanSourceTreeElementNANSAllocator_8hpp.html" target="_top" xlink:title=" ">
<polygon fill="none" stroke="black" points="241.5,-335.5 241.5,-365.5 453.5,-365.5 453.5,-335.5 241.5,-335.5"/>
<text text-anchor="start" x="249.5" y="-353.5" font-family="Helvetica,sans-Serif" font-size="10.00">xalanc/XalanSourceTree</text>
<text text-anchor="middle" x="347.5" y="-342.5" font-family="Helvetica,sans-Serif" font-size="10.00">/XalanSourceTreeElementNANSAllocator.hpp</text>
</a>
</g>
</g>
<!-- Node15&#45;&gt;Node16 -->
<g id="edge17" class="edge"><title>Node15&#45;&gt;Node16</title>
<path fill="none" stroke="midnightblue" d="M292.774,-400.964C305.453,-389.504 320.795,-375.637 332.005,-365.505"/>
<polygon fill="midnightblue" stroke="midnightblue" points="290.356,-398.431 285.284,-407.733 295.05,-403.624 290.356,-398.431"/>
</g>
<!-- Node16&#45;&gt;Node5 -->
<g id="edge18" class="edge"><title>Node16&#45;&gt;Node5</title>
<path fill="none" stroke="midnightblue" d="M369.34,-328.311C379.391,-318.561 391.041,-307.259 399.99,-298.577"/>
<polygon fill="midnightblue" stroke="midnightblue" points="366.778,-325.921 362.038,-335.396 371.653,-330.945 366.778,-325.921"/>
</g>
<!-- Node17&#45;&gt;Node3 -->
<g id="edge26" class="edge"><title>Node17&#45;&gt;Node3</title>
<path fill="none" stroke="midnightblue" d="M389.994,-543.682C363.371,-533.257 330.232,-520.281 305.449,-510.577"/>
<polygon fill="midnightblue" stroke="midnightblue" points="388.893,-547.009 399.48,-547.396 391.445,-540.491 388.893,-547.009"/>
</g>
<!-- Node17&#45;&gt;Node18 -->
<g id="edge20" class="edge"><title>Node17&#45;&gt;Node18</title>
<path fill="none" stroke="midnightblue" d="M447.844,-538.576C452.87,-529.241 458.52,-518.748 462.92,-510.577"/>
<polygon fill="midnightblue" stroke="midnightblue" points="444.754,-536.932 443.094,-547.396 450.917,-540.251 444.754,-536.932"/>
</g>
<!-- Node19 -->
<g id="node19" class="node"><title>Node19</title>
<g id="a_node19"><a xlink:href="XalanSourceTreeElementAAllocator_8hpp.html" target="_top" xlink:title=" ">
<polygon fill="none" stroke="black" points="374.5,-408 374.5,-438 566.5,-438 566.5,-408 374.5,-408"/>
<text text-anchor="start" x="382.5" y="-426" font-family="Helvetica,sans-Serif" font-size="10.00">xalanc/XalanSourceTree</text>
<text text-anchor="middle" x="470.5" y="-415" font-family="Helvetica,sans-Serif" font-size="10.00">/XalanSourceTreeElementAAllocator.hpp</text>
</a>
</g>
</g>
<!-- Node18&#45;&gt;Node19 -->
<g id="edge21" class="edge"><title>Node18&#45;&gt;Node19</title>
<path fill="none" stroke="midnightblue" d="M470.5,-470.232C470.5,-459.568 470.5,-447.414 470.5,-438.246"/>
<polygon fill="midnightblue" stroke="midnightblue" points="467,-470.233 470.5,-480.233 474,-470.233 467,-470.233"/>
</g>
<!-- Node20 -->
<g id="node20" class="node"><title>Node20</title>
<g id="a_node20"><a xlink:href="XalanSourceTreeElementANS_8hpp.html" target="_top" xlink:title=" ">
<polygon fill="none" stroke="black" points="585,-408 585,-438 752,-438 752,-408 585,-408"/>
<text text-anchor="start" x="593" y="-426" font-family="Helvetica,sans-Serif" font-size="10.00">xalanc/XalanSourceTree</text>
<text text-anchor="middle" x="668.5" y="-415" font-family="Helvetica,sans-Serif" font-size="10.00">/XalanSourceTreeElementANS.hpp</text>
</a>
</g>
</g>
<!-- Node18&#45;&gt;Node20 -->
<g id="edge23" class="edge"><title>Node18&#45;&gt;Node20</title>
<path fill="none" stroke="midnightblue" d="M519.749,-476.965C553.457,-464.962 597.564,-449.258 628.976,-438.073"/>
<polygon fill="midnightblue" stroke="midnightblue" points="518.339,-473.751 510.092,-480.403 520.687,-480.346 518.339,-473.751"/>
</g>
<!-- Node19&#45;&gt;Node5 -->
<g id="edge22" class="edge"><title>Node19&#45;&gt;Node5</title>
<path fill="none" stroke="midnightblue" d="M472.436,-397.699C472.909,-379.622 471.467,-354.768 462.5,-335 456.004,-320.68 443.728,-307.881 433.217,-298.751"/>
<polygon fill="midnightblue" stroke="midnightblue" points="468.939,-397.566 471.962,-407.72 475.931,-397.897 468.939,-397.566"/>
</g>
<!-- Node21 -->
<g id="node21" class="node"><title>Node21</title>
<g id="a_node21"><a xlink:href="XalanSourceTreeElementANSAllocator_8hpp.html" target="_top" xlink:title=" ">
<polygon fill="none" stroke="black" points="542.5,-335.5 542.5,-365.5 748.5,-365.5 748.5,-335.5 542.5,-335.5"/>
<text text-anchor="start" x="550.5" y="-353.5" font-family="Helvetica,sans-Serif" font-size="10.00">xalanc/XalanSourceTree</text>
<text text-anchor="middle" x="645.5" y="-342.5" font-family="Helvetica,sans-Serif" font-size="10.00">/XalanSourceTreeElementANSAllocator.hpp</text>
</a>
</g>
</g>
<!-- Node20&#45;&gt;Node21 -->
<g id="edge24" class="edge"><title>Node20&#45;&gt;Node21</title>
<path fill="none" stroke="midnightblue" d="M660.691,-398.064C657.186,-387.321 653.17,-375.01 650.147,-365.746"/>
<polygon fill="midnightblue" stroke="midnightblue" points="657.417,-399.312 663.846,-407.733 664.071,-397.141 657.417,-399.312"/>
</g>
<!-- Node21&#45;&gt;Node5 -->
<g id="edge25" class="edge"><title>Node21&#45;&gt;Node5</title>
<path fill="none" stroke="midnightblue" d="M585.848,-332.715C548.257,-322.137 500.271,-308.635 464.648,-298.611"/>
<polygon fill="midnightblue" stroke="midnightblue" points="585.087,-336.136 595.661,-335.476 586.983,-329.398 585.087,-336.136"/>
</g>
<!-- Node23 -->
<g id="node23" class="node"><title>Node23</title>
<g id="a_node23"><a xlink:href="XercesDocumentTypeBridge_8hpp.html" target="_top" xlink:title=" ">
<polygon fill="none" stroke="black" points="566,-480.5 566,-510.5 779,-510.5 779,-480.5 566,-480.5"/>
<text text-anchor="start" x="574" y="-498.5" font-family="Helvetica,sans-Serif" font-size="10.00">xalanc/XercesParserLiaison</text>
<text text-anchor="middle" x="672.5" y="-487.5" font-family="Helvetica,sans-Serif" font-size="10.00">/Deprecated/XercesDocumentTypeBridge.hpp</text>
</a>
</g>
</g>
<!-- Node22&#45;&gt;Node23 -->
<g id="edge29" class="edge"><title>Node22&#45;&gt;Node23</title>
<path fill="none" stroke="midnightblue" d="M674.388,-537.403C673.971,-528.37 673.511,-518.408 673.15,-510.577"/>
<polygon fill="midnightblue" stroke="midnightblue" points="670.892,-537.568 674.849,-547.396 677.884,-537.245 670.892,-537.568"/>
</g>
<!-- Node24 -->
<g id="node24" class="node"><title>Node24</title>
<g id="a_node24"><a xlink:href="XercesElementBridge_8hpp.html" target="_top" xlink:title=" ">
<polygon fill="none" stroke="black" points="797.5,-480.5 797.5,-510.5 981.5,-510.5 981.5,-480.5 797.5,-480.5"/>
<text text-anchor="start" x="805.5" y="-498.5" font-family="Helvetica,sans-Serif" font-size="10.00">xalanc/XercesParserLiaison</text>
<text text-anchor="middle" x="889.5" y="-487.5" font-family="Helvetica,sans-Serif" font-size="10.00">/Deprecated/XercesElementBridge.hpp</text>
</a>
</g>
</g>
<!-- Node22&#45;&gt;Node24 -->
<g id="edge30" class="edge"><title>Node22&#45;&gt;Node24</title>
<path fill="none" stroke="midnightblue" d="M731.653,-544.444C766.342,-533.908 810.322,-520.549 843.043,-510.611"/>
<polygon fill="midnightblue" stroke="midnightblue" points="730.222,-541.221 721.671,-547.476 732.257,-547.919 730.222,-541.221"/>
</g>
<!-- Node25 -->
<g id="node25" class="node"><title>Node25</title>
<g id="a_node25"><a xlink:href="XercesElementBridgeAllocator_8hpp.html" target="_top" xlink:title=" ">
<polygon fill="none" stroke="black" points="807,-402.5 807,-443.5 972,-443.5 972,-402.5 807,-402.5"/>
<text text-anchor="start" x="815" y="-431.5" font-family="Helvetica,sans-Serif" font-size="10.00">xalanc/XercesParserLiaison</text>
<text text-anchor="start" x="815" y="-420.5" font-family="Helvetica,sans-Serif" font-size="10.00">/Deprecated/XercesElementBridge</text>
<text text-anchor="middle" x="889.5" y="-409.5" font-family="Helvetica,sans-Serif" font-size="10.00">Allocator.hpp</text>
</a>
</g>
</g>
<!-- Node24&#45;&gt;Node25 -->
<g id="edge31" class="edge"><title>Node24&#45;&gt;Node25</title>
<path fill="none" stroke="midnightblue" d="M889.5,-469.982C889.5,-461.347 889.5,-451.762 889.5,-443.588"/>
<polygon fill="midnightblue" stroke="midnightblue" points="886,-470.233 889.5,-480.233 893,-470.233 886,-470.233"/>
</g>
<!-- Node26 -->
<g id="node26" class="node"><title>Node26</title>
<g id="a_node26"><a xlink:href="XercesDocumentBridge_8hpp.html" target="_top" xlink:title=" ">
<polygon fill="none" stroke="black" points="793.5,-335.5 793.5,-365.5 985.5,-365.5 985.5,-335.5 793.5,-335.5"/>
<text text-anchor="start" x="801.5" y="-353.5" font-family="Helvetica,sans-Serif" font-size="10.00">xalanc/XercesParserLiaison</text>
<text text-anchor="middle" x="889.5" y="-342.5" font-family="Helvetica,sans-Serif" font-size="10.00">/Deprecated/XercesDocumentBridge.hpp</text>
</a>
</g>
</g>
<!-- Node25&#45;&gt;Node26 -->
<g id="edge32" class="edge"><title>Node25&#45;&gt;Node26</title>
<path fill="none" stroke="midnightblue" d="M889.5,-392.08C889.5,-383.006 889.5,-373.45 889.5,-365.892"/>
<polygon fill="midnightblue" stroke="midnightblue" points="886,-392.362 889.5,-402.362 893,-392.362 886,-392.362"/>
</g>
<!-- Node28 -->
<g id="node28" class="node"><title>Node28</title>
<g id="a_node28"><a xlink:href="XercesDocumentTypeWrapper_8hpp.html" target="_top" xlink:title=" ">
<polygon fill="none" stroke="black" points="999.5,-480.5 999.5,-510.5 1169.5,-510.5 1169.5,-480.5 999.5,-480.5"/>
<text text-anchor="start" x="1007.5" y="-498.5" font-family="Helvetica,sans-Serif" font-size="10.00">xalanc/XercesParserLiaison</text>
<text text-anchor="middle" x="1084.5" y="-487.5" font-family="Helvetica,sans-Serif" font-size="10.00">/XercesDocumentTypeWrapper.hpp</text>
</a>
</g>
</g>
<!-- Node27&#45;&gt;Node28 -->
<g id="edge34" class="edge"><title>Node27&#45;&gt;Node28</title>
<path fill="none" stroke="midnightblue" d="M1084.5,-537.108C1084.5,-528.154 1084.5,-518.323 1084.5,-510.577"/>
<polygon fill="midnightblue" stroke="midnightblue" points="1081,-537.396 1084.5,-547.396 1088,-537.396 1081,-537.396"/>
</g>
<!-- Node29 -->
<g id="node29" class="node"><title>Node29</title>
<g id="a_node29"><a xlink:href="XercesElementWrapper_8hpp.html" target="_top" xlink:title=" ">
<polygon fill="none" stroke="black" points="1187.5,-480.5 1187.5,-510.5 1327.5,-510.5 1327.5,-480.5 1187.5,-480.5"/>
<text text-anchor="start" x="1195.5" y="-498.5" font-family="Helvetica,sans-Serif" font-size="10.00">xalanc/XercesParserLiaison</text>
<text text-anchor="middle" x="1257.5" y="-487.5" font-family="Helvetica,sans-Serif" font-size="10.00">/XercesElementWrapper.hpp</text>
</a>
</g>
</g>
<!-- Node27&#45;&gt;Node29 -->
<g id="edge35" class="edge"><title>Node27&#45;&gt;Node29</title>
<path fill="none" stroke="midnightblue" d="M1131.56,-543.819C1159.37,-533.371 1194.09,-520.323 1220.03,-510.577"/>
<polygon fill="midnightblue" stroke="midnightblue" points="1130.17,-540.602 1122.04,-547.396 1132.63,-547.155 1130.17,-540.602"/>
</g>
<!-- Node30 -->
<g id="node30" class="node"><title>Node30</title>
<g id="a_node30"><a xlink:href="XercesElementWrapperAllocator_8hpp.html" target="_top" xlink:title=" ">
<polygon fill="none" stroke="black" points="1168,-408 1168,-438 1347,-438 1347,-408 1168,-408"/>
<text text-anchor="start" x="1176" y="-426" font-family="Helvetica,sans-Serif" font-size="10.00">xalanc/XercesParserLiaison</text>
<text text-anchor="middle" x="1257.5" y="-415" font-family="Helvetica,sans-Serif" font-size="10.00">/XercesElementWrapperAllocator.hpp</text>
</a>
</g>
</g>
<!-- Node29&#45;&gt;Node30 -->
<g id="edge36" class="edge"><title>Node29&#45;&gt;Node30</title>
<path fill="none" stroke="midnightblue" d="M1257.5,-470.232C1257.5,-459.568 1257.5,-447.414 1257.5,-438.246"/>
<polygon fill="midnightblue" stroke="midnightblue" points="1254,-470.233 1257.5,-480.233 1261,-470.233 1254,-470.233"/>
</g>
<!-- Node31 -->
<g id="node31" class="node"><title>Node31</title>
<g id="a_node31"><a xlink:href="XercesDocumentWrapper_8hpp.html" target="_top" xlink:title=" ">
<polygon fill="none" stroke="black" points="1183,-335.5 1183,-365.5 1332,-365.5 1332,-335.5 1183,-335.5"/>
<text text-anchor="start" x="1191" y="-353.5" font-family="Helvetica,sans-Serif" font-size="10.00">xalanc/XercesParserLiaison</text>
<text text-anchor="middle" x="1257.5" y="-342.5" font-family="Helvetica,sans-Serif" font-size="10.00">/XercesDocumentWrapper.hpp</text>
</a>
</g>
</g>
<!-- Node30&#45;&gt;Node31 -->
<g id="edge37" class="edge"><title>Node30&#45;&gt;Node31</title>
<path fill="none" stroke="midnightblue" d="M1257.5,-397.732C1257.5,-387.068 1257.5,-374.914 1257.5,-365.746"/>
<polygon fill="midnightblue" stroke="midnightblue" points="1254,-397.733 1257.5,-407.733 1261,-397.733 1254,-397.733"/>
</g>
</g>
</svg>
        <g id="navigator" transform="translate(0 0)" fill="#404254">
                <rect fill="#f2f5e9" fill-opacity="0.5" stroke="#606060" stroke-width=".5" x="0" y="0" width="60" height="60"/>
                <use id="zoomplus" xlink:href="#zoomPlus" x="17" y="9" onmousedown="handleZoom(evt,'in')"/>
                <use id="zoomminus" xlink:href="#zoomMin" x="42" y="9" onmousedown="handleZoom(evt,'out')"/>
                <use id="reset" xlink:href="#resetDef" x="30" y="36" onmousedown="handleReset()"/>
                <g id="arrowUp" xlink:href="#dirArrow" transform="translate(30 24)" onmousedown="handlePan(0,-1)">
                  <use xlink:href="#rim" fill="#404040">
                        <set attributeName="fill" to="#808080" begin="arrowUp.mouseover" end="arrowUp.mouseout"/>
                  </use>
                  <path fill="none" stroke="white" stroke-width="1.5" d="M0,-3.0v7 M-2.5,-0.5L0,-3.0L2.5,-0.5"/>
                </g>
                <g id="arrowRight" xlink:href="#dirArrow" transform="rotate(90) translate(36 -43)" onmousedown="handlePan(1,0)">
                  <use xlink:href="#rim" fill="#404040">
                        <set attributeName="fill" to="#808080" begin="arrowRight.mouseover" end="arrowRight.mouseout"/>
                  </use>
                  <path fill="none" stroke="white" stroke-width="1.5" d="M0,-3.0v7 M-2.5,-0.5L0,-3.0L2.5,-0.5"/>
                </g>
                <g id="arrowDown" xlink:href="#dirArrow" transform="rotate(180) translate(-30 -48)" onmousedown="handlePan(0,1)">
                  <use xlink:href="#rim" fill="#404040">
                        <set attributeName="fill" to="#808080" begin="arrowDown.mouseover" end="arrowDown.mouseout"/>
                  </use>
                  <path fill="none" stroke="white" stroke-width="1.5" d="M0,-3.0v7 M-2.5,-0.5L0,-3.0L2.5,-0.5"/>
                </g>
                <g id="arrowLeft" xlink:href="#dirArrow" transform="rotate(270) translate(-36 17)" onmousedown="handlePan(-1,0)">
                  <use xlink:href="#rim" fill="#404040">
                        <set attributeName="fill" to="#808080" begin="arrowLeft.mouseover" end="arrowLeft.mouseout"/>
                  </use>
                  <path fill="none" stroke="white" stroke-width="1.5" d="M0,-3.0v7 M-2.5,-0.5L0,-3.0L2.5,-0.5"/>
                </g>
        </g>
        <svg viewBox="0 0 15 15" width="100%" height="30px" preserveAspectRatio="xMaxYMin meet">
         <g id="arrow_out" transform="scale(0.3 0.3)">
          <a xlink:href="XalanNamedNodeMap_8hpp__dep__incl_org.svg" target="_base">
           <rect id="button" ry="5" rx="5" y="6" x="6" height="38" width="38"
                fill="#f2f5e9" fill-opacity="0.5" stroke="#606060" stroke-width="1.0"/>
           <path id="arrow"
             d="M 11.500037,31.436501 C 11.940474,20.09759 22.043105,11.32322 32.158766,21.979434 L 37.068811,17.246167 C 37.068811,17.246167 37.088388,32 37.088388,32 L 22.160133,31.978069 C 22.160133,31.978069 26.997745,27.140456 26.997745,27.140456 C 18.528582,18.264221 13.291696,25.230495 11.500037,31.436501 z"
             style="fill:#404040;"/>
          </a>
         </g>
        </svg>
</svg>
