<?xml version="1.0" encoding="UTF-8" standalone="no"?>
<!DOCTYPE svg PUBLIC "-//W3C//DTD SVG 1.1//EN"
 "http://www.w3.org/Graphics/SVG/1.1/DTD/svg11.dtd">
<!-- Generated by graphviz version 2.43.0 (0)
 -->
<!-- Title: xalanc/XalanDOM/XalanNamedNodeMap.hpp Pages: 1 -->
<svg width="1491pt" height="653pt"
 viewBox="0.00 0.00 1490.50 653.00" xmlns="http://www.w3.org/2000/svg" xmlns:xlink="http://www.w3.org/1999/xlink">
<g id="graph0" class="graph" transform="scale(1 1) rotate(0) translate(4 649)">
<title>xalanc/XalanDOM/XalanNamedNodeMap.hpp</title>
<!-- Node1 -->
<g id="node1" class="node">
<title>Node1</title>
<g id="a_node1"><a xlink:title=" ">
<polygon fill="#bfbfbf" stroke="black" points="507.5,-614.5 507.5,-644.5 677.5,-644.5 677.5,-614.5 507.5,-614.5"/>
<text text-anchor="start" x="515.5" y="-632.5" font-family="Helvetica,sans-Serif" font-size="10.00">xalanc/XalanDOM/XalanNamed</text>
<text text-anchor="middle" x="592.5" y="-621.5" font-family="Helvetica,sans-Serif" font-size="10.00">NodeMap.hpp</text>
</a>
</g>
</g>
<!-- Node2 -->
<g id="node2" class="node">
<title>Node2</title>
<g id="a_node2"><a xlink:href="XalanEmptyNamedNodeMap_8hpp.html" target="_top" xlink:title=" ">
<polygon fill="none" stroke="black" points="218.5,-547.5 218.5,-577.5 384.5,-577.5 384.5,-547.5 218.5,-547.5"/>
<text text-anchor="start" x="226.5" y="-565.5" font-family="Helvetica,sans-Serif" font-size="10.00">xalanc/XalanDOM/XalanEmpty</text>
<text text-anchor="middle" x="301.5" y="-554.5" font-family="Helvetica,sans-Serif" font-size="10.00">NamedNodeMap.hpp</text>
</a>
</g>
</g>
<!-- Node1&#45;&gt;Node2 -->
<g id="edge1" class="edge">
<title>Node1&#45;&gt;Node2</title>
<path fill="none" stroke="midnightblue" d="M519.74,-612.25C471.96,-601.58 410.08,-587.75 364.42,-577.55"/>
<polygon fill="midnightblue" stroke="midnightblue" points="519.19,-615.71 529.72,-614.48 520.72,-608.88 519.19,-615.71"/>
</g>
<!-- Node17 -->
<g id="node17" class="node">
<title>Node17</title>
<g id="a_node17"><a xlink:href="XalanSourceTreeElement_8hpp.html" target="_top" xlink:title=" ">
<polygon fill="none" stroke="black" points="402.5,-547.5 402.5,-577.5 564.5,-577.5 564.5,-547.5 402.5,-547.5"/>
<text text-anchor="start" x="410.5" y="-565.5" font-family="Helvetica,sans-Serif" font-size="10.00">xalanc/XalanSourceTree</text>
<text text-anchor="middle" x="483.5" y="-554.5" font-family="Helvetica,sans-Serif" font-size="10.00">/XalanSourceTreeElement.hpp</text>
</a>
</g>
</g>
<!-- Node1&#45;&gt;Node17 -->
<g id="edge19" class="edge">
<title>Node1&#45;&gt;Node17</title>
<path fill="none" stroke="midnightblue" d="M559.83,-609.02C542.86,-598.9 522.52,-586.77 507.11,-577.58"/>
<polygon fill="midnightblue" stroke="midnightblue" points="558.47,-612.28 568.85,-614.4 562.05,-606.27 558.47,-612.28"/>
</g>
<!-- Node18 -->
<g id="node18" class="node">
<title>Node18</title>
<g id="a_node18"><a xlink:href="XalanSourceTreeElementA_8hpp.html" target="_top" xlink:title=" ">
<polygon fill="none" stroke="black" points="436,-480.5 436,-510.5 605,-510.5 605,-480.5 436,-480.5"/>
<text text-anchor="start" x="444" y="-498.5" font-family="Helvetica,sans-Serif" font-size="10.00">xalanc/XalanSourceTree</text>
<text text-anchor="middle" x="520.5" y="-487.5" font-family="Helvetica,sans-Serif" font-size="10.00">/XalanSourceTreeElementA.hpp</text>
</a>
</g>
</g>
<!-- Node1&#45;&gt;Node18 -->
<g id="edge27" class="edge">
<title>Node1&#45;&gt;Node18</title>
<path fill="none" stroke="midnightblue" d="M590.52,-604.14C588.29,-587.2 583.55,-564.59 573.5,-547 565.24,-532.55 551.55,-519.66 540.16,-510.52"/>
<polygon fill="midnightblue" stroke="midnightblue" points="587.07,-604.79 591.66,-614.35 594.03,-604.02 587.07,-604.79"/>
</g>
<!-- Node22 -->
<g id="node22" class="node">
<title>Node22</title>
<g id="a_node22"><a xlink:href="XercesNamedNodeMapBridge_8hpp.html" target="_top" xlink:title=" ">
<polygon fill="none" stroke="black" points="620.5,-547.5 620.5,-577.5 866.5,-577.5 866.5,-547.5 620.5,-547.5"/>
<text text-anchor="start" x="628.5" y="-565.5" font-family="Helvetica,sans-Serif" font-size="10.00">xalanc/XercesParserLiaison</text>
<text text-anchor="middle" x="743.5" y="-554.5" font-family="Helvetica,sans-Serif" font-size="10.00">/Deprecated/XercesNamedNodeMapBridge.hpp</text>
</a>
</g>
</g>
<!-- Node1&#45;&gt;Node22 -->
<g id="edge28" class="edge">
<title>Node1&#45;&gt;Node22</title>
<path fill="none" stroke="midnightblue" d="M634.53,-610.41C658.64,-600.03 688.45,-587.2 710.8,-577.58"/>
<polygon fill="midnightblue" stroke="midnightblue" points="633.07,-607.23 625.26,-614.4 635.83,-613.66 633.07,-607.23"/>
</g>
<!-- Node27 -->
<g id="node27" class="node">
<title>Node27</title>
<g id="a_node27"><a xlink:href="XercesNamedNodeMapWrapper_8hpp.html" target="_top" xlink:title=" ">
<polygon fill="none" stroke="black" points="1096.5,-547.5 1096.5,-577.5 1292.5,-577.5 1292.5,-547.5 1096.5,-547.5"/>
<text text-anchor="start" x="1104.5" y="-565.5" font-family="Helvetica,sans-Serif" font-size="10.00">xalanc/XercesParserLiaison</text>
<text text-anchor="middle" x="1194.5" y="-554.5" font-family="Helvetica,sans-Serif" font-size="10.00">/XercesNamedNodeMapWrapper.hpp</text>
</a>
</g>
</g>
<!-- Node1&#45;&gt;Node27 -->
<g id="edge33" class="edge">
<title>Node1&#45;&gt;Node27</title>
<path fill="none" stroke="midnightblue" d="M688.04,-618.18C799.7,-606.13 983.55,-586.28 1096.34,-574.1"/>
<polygon fill="midnightblue" stroke="midnightblue" points="687.36,-614.74 677.79,-619.29 688.11,-621.7 687.36,-614.74"/>
</g>
<!-- Node3 -->
<g id="node3" class="node">
<title>Node3</title>
<g id="a_node3"><a xlink:href="XalanSourceTreeElementNA_8hpp.html" target="_top" xlink:title=" ">
<polygon fill="none" stroke="black" points="213.5,-480.5 213.5,-510.5 389.5,-510.5 389.5,-480.5 213.5,-480.5"/>
<text text-anchor="start" x="221.5" y="-498.5" font-family="Helvetica,sans-Serif" font-size="10.00">xalanc/XalanSourceTree</text>
<text text-anchor="middle" x="301.5" y="-487.5" font-family="Helvetica,sans-Serif" font-size="10.00">/XalanSourceTreeElementNA.hpp</text>
</a>
</g>
</g>
<!-- Node2&#45;&gt;Node3 -->
<g id="edge2" class="edge">
<title>Node2&#45;&gt;Node3</title>
<path fill="none" stroke="midnightblue" d="M301.5,-537.11C301.5,-528.15 301.5,-518.32 301.5,-510.58"/>
<polygon fill="midnightblue" stroke="midnightblue" points="298,-537.4 301.5,-547.4 305,-537.4 298,-537.4"/>
</g>
<!-- Node4 -->
<g id="node4" class="node">
<title>Node4</title>
<g id="a_node4"><a xlink:href="XalanSourceTreeElementNAAllocator_8hpp.html" target="_top" xlink:title=" ">
<polygon fill="none" stroke="black" points="34,-335.5 34,-365.5 253,-365.5 253,-335.5 34,-335.5"/>
<text text-anchor="start" x="42" y="-353.5" font-family="Helvetica,sans-Serif" font-size="10.00">xalanc/XalanSourceTree</text>
<text text-anchor="middle" x="143.5" y="-342.5" font-family="Helvetica,sans-Serif" font-size="10.00">/XalanSourceTreeElementNAAllocator.hpp</text>
</a>
</g>
</g>
<!-- Node3&#45;&gt;Node4 -->
<g id="edge3" class="edge">
<title>Node3&#45;&gt;Node4</title>
<path fill="none" stroke="midnightblue" d="M249.6,-476.51C231.66,-468.52 212.36,-457.76 197.5,-444 173.22,-421.51 156.6,-385.57 148.72,-365.76"/>
<polygon fill="midnightblue" stroke="midnightblue" points="248.25,-479.74 258.82,-480.43 250.99,-473.3 248.25,-479.74"/>
</g>
<!-- Node15 -->
<g id="node15" class="node">
<title>Node15</title>
<g id="a_node15"><a xlink:href="XalanSourceTreeElementNANS_8hpp.html" target="_top" xlink:title=" ">
<polygon fill="none" stroke="black" points="206.5,-408 206.5,-438 396.5,-438 396.5,-408 206.5,-408"/>
<text text-anchor="start" x="214.5" y="-426" font-family="Helvetica,sans-Serif" font-size="10.00">xalanc/XalanSourceTree</text>
<text text-anchor="middle" x="301.5" y="-415" font-family="Helvetica,sans-Serif" font-size="10.00">/XalanSourceTreeElementNANS.hpp</text>
</a>
</g>
</g>
<!-- Node3&#45;&gt;Node15 -->
<g id="edge16" class="edge">
<title>Node3&#45;&gt;Node15</title>
<path fill="none" stroke="midnightblue" d="M301.5,-470.23C301.5,-459.57 301.5,-447.41 301.5,-438.25"/>
<polygon fill="midnightblue" stroke="midnightblue" points="298,-470.23 301.5,-480.23 305,-470.23 298,-470.23"/>
</g>
<!-- Node5 -->
<g id="node5" class="node">
<title>Node5</title>
<g id="a_node5"><a xlink:href="XalanSourceTreeDocument_8hpp.html" target="_top" xlink:title=" ">
<polygon fill="none" stroke="black" points="373.5,-268.5 373.5,-298.5 545.5,-298.5 545.5,-268.5 373.5,-268.5"/>
<text text-anchor="start" x="381.5" y="-286.5" font-family="Helvetica,sans-Serif" font-size="10.00">xalanc/XalanSourceTree</text>
<text text-anchor="middle" x="459.5" y="-275.5" font-family="Helvetica,sans-Serif" font-size="10.00">/XalanSourceTreeDocument.hpp</text>
</a>
</g>
</g>
<!-- Node4&#45;&gt;Node5 -->
<g id="edge4" class="edge">
<title>Node4&#45;&gt;Node5</title>
<path fill="none" stroke="midnightblue" d="M221.53,-333.45C273.55,-322.75 341.28,-308.82 391.17,-298.55"/>
<polygon fill="midnightblue" stroke="midnightblue" points="220.77,-330.03 211.68,-335.48 222.18,-336.89 220.77,-330.03"/>
</g>
<!-- Node6 -->
<g id="node6" class="node">
<title>Node6</title>
<g id="a_node6"><a xlink:href="XalanSourceTreeDocumentFragment_8hpp.html" target="_top" xlink:title=" ">
<polygon fill="none" stroke="black" points="138.5,-201.5 138.5,-231.5 356.5,-231.5 356.5,-201.5 138.5,-201.5"/>
<text text-anchor="start" x="146.5" y="-219.5" font-family="Helvetica,sans-Serif" font-size="10.00">xalanc/XalanSourceTree</text>
<text text-anchor="middle" x="247.5" y="-208.5" font-family="Helvetica,sans-Serif" font-size="10.00">/XalanSourceTreeDocumentFragment.hpp</text>
</a>
</g>
</g>
<!-- Node5&#45;&gt;Node6 -->
<g id="edge5" class="edge">
<title>Node5&#45;&gt;Node6</title>
<path fill="none" stroke="midnightblue" d="M403.87,-265.44C369.51,-254.91 325.94,-241.55 293.52,-231.61"/>
<polygon fill="midnightblue" stroke="midnightblue" points="403.17,-268.89 413.76,-268.48 405.23,-262.2 403.17,-268.89"/>
</g>
<!-- Node13 -->
<g id="node13" class="node">
<title>Node13</title>
<g id="a_node13"><a xlink:href="XalanDefaultParsedSource_8hpp.html" target="_top" xlink:title=" ">
<polygon fill="none" stroke="black" points="374.5,-201.5 374.5,-231.5 544.5,-231.5 544.5,-201.5 374.5,-201.5"/>
<text text-anchor="start" x="382.5" y="-219.5" font-family="Helvetica,sans-Serif" font-size="10.00">xalanc/XalanTransformer</text>
<text text-anchor="middle" x="459.5" y="-208.5" font-family="Helvetica,sans-Serif" font-size="10.00">/XalanDefaultParsedSource.hpp</text>
</a>
</g>
</g>
<!-- Node5&#45;&gt;Node13 -->
<g id="edge13" class="edge">
<title>Node5&#45;&gt;Node13</title>
<path fill="none" stroke="midnightblue" d="M459.5,-258.11C459.5,-249.15 459.5,-239.32 459.5,-231.58"/>
<polygon fill="midnightblue" stroke="midnightblue" points="456,-258.4 459.5,-268.4 463,-258.4 456,-258.4"/>
</g>
<!-- Node14 -->
<g id="node14" class="node">
<title>Node14</title>
<g id="a_node14"><a xlink:href="XalanSourceTreeDocumentAllocator_8hpp.html" target="_top" xlink:title=" ">
<polygon fill="none" stroke="black" points="481,-134.5 481,-164.5 640,-164.5 640,-134.5 481,-134.5"/>
<text text-anchor="start" x="489" y="-152.5" font-family="Helvetica,sans-Serif" font-size="10.00">xalanc/XSLT/XalanSourceTree</text>
<text text-anchor="middle" x="560.5" y="-141.5" font-family="Helvetica,sans-Serif" font-size="10.00">DocumentAllocator.hpp</text>
</a>
</g>
</g>
<!-- Node5&#45;&gt;Node14 -->
<g id="edge14" class="edge">
<title>Node5&#45;&gt;Node14</title>
<path fill="none" stroke="midnightblue" d="M515.13,-263.98C529.92,-256.37 544.31,-245.97 553.5,-232 566.84,-211.71 565.48,-182.16 563.11,-164.78"/>
<polygon fill="midnightblue" stroke="midnightblue" points="513.44,-260.9 505.91,-268.36 516.45,-267.22 513.44,-260.9"/>
</g>
<!-- Node7 -->
<g id="node7" class="node">
<title>Node7</title>
<g id="a_node7"><a xlink:href="StylesheetExecutionContextDefault_8hpp.html" target="_top" xlink:title=" ">
<polygon fill="none" stroke="black" points="275,-67.5 275,-97.5 452,-97.5 452,-67.5 275,-67.5"/>
<text text-anchor="start" x="283" y="-85.5" font-family="Helvetica,sans-Serif" font-size="10.00">xalanc/XSLT/StylesheetExecution</text>
<text text-anchor="middle" x="363.5" y="-74.5" font-family="Helvetica,sans-Serif" font-size="10.00">ContextDefault.hpp</text>
</a>
</g>
</g>
<!-- Node6&#45;&gt;Node7 -->
<g id="edge6" class="edge">
<title>Node6&#45;&gt;Node7</title>
<path fill="none" stroke="midnightblue" d="M247.55,-191.27C248.76,-173.74 252.91,-150.35 265.5,-134 278.46,-117.17 298.61,-105.44 317.27,-97.55"/>
<polygon fill="midnightblue" stroke="midnightblue" points="244.05,-191.18 247.13,-201.31 251.04,-191.47 244.05,-191.18"/>
</g>
<!-- Node12 -->
<g id="node12" class="node">
<title>Node12</title>
<g id="a_node12"><a xlink:href="XalanSourceTreeDocumentFragmentAllocator_8hpp.html" target="_top" xlink:title=" ">
<polygon fill="none" stroke="black" points="275,-134.5 275,-164.5 452,-164.5 452,-134.5 275,-134.5"/>
<text text-anchor="start" x="283" y="-152.5" font-family="Helvetica,sans-Serif" font-size="10.00">xalanc/XSLT/XalanSourceTree</text>
<text text-anchor="middle" x="363.5" y="-141.5" font-family="Helvetica,sans-Serif" font-size="10.00">DocumentFragmentAllocator.hpp</text>
</a>
</g>
</g>
<!-- Node6&#45;&gt;Node12 -->
<g id="edge11" class="edge">
<title>Node6&#45;&gt;Node12</title>
<path fill="none" stroke="midnightblue" d="M281.77,-196.3C299.92,-186.12 321.82,-173.85 338.38,-164.58"/>
<polygon fill="midnightblue" stroke="midnightblue" points="279.68,-193.45 272.67,-201.4 283.1,-199.56 279.68,-193.45"/>
</g>
<!-- Node8 -->
<g id="node8" class="node">
<title>Node8</title>
<g id="a_node8"><a xlink:href="ICUBridgeCollationCompareFunctorImpl_8hpp.html" target="_top" xlink:title=" ">
<polygon fill="none" stroke="black" points="0,-0.5 0,-30.5 183,-30.5 183,-0.5 0,-0.5"/>
<text text-anchor="start" x="8" y="-18.5" font-family="Helvetica,sans-Serif" font-size="10.00">xalanc/ICUBridge/ICUBridge</text>
<text text-anchor="middle" x="91.5" y="-7.5" font-family="Helvetica,sans-Serif" font-size="10.00">CollationCompareFunctorImpl.hpp</text>
</a>
</g>
</g>
<!-- Node7&#45;&gt;Node8 -->
<g id="edge7" class="edge">
<title>Node7&#45;&gt;Node8</title>
<path fill="none" stroke="midnightblue" d="M294.95,-65.12C250.44,-54.48 193.03,-40.76 150.55,-30.61"/>
<polygon fill="midnightblue" stroke="midnightblue" points="294.28,-68.56 304.81,-67.48 295.9,-61.75 294.28,-68.56"/>
</g>
<!-- Node9 -->
<g id="node9" class="node">
<title>Node9</title>
<g id="a_node9"><a xlink:href="ICUFormatNumberFunctor_8hpp.html" target="_top" xlink:title=" ">
<polygon fill="none" stroke="black" points="201,-0.5 201,-30.5 356,-30.5 356,-0.5 201,-0.5"/>
<text text-anchor="start" x="209" y="-18.5" font-family="Helvetica,sans-Serif" font-size="10.00">xalanc/ICUBridge/ICUFormat</text>
<text text-anchor="middle" x="278.5" y="-7.5" font-family="Helvetica,sans-Serif" font-size="10.00">NumberFunctor.hpp</text>
</a>
</g>
</g>
<!-- Node7&#45;&gt;Node9 -->
<g id="edge8" class="edge">
<title>Node7&#45;&gt;Node9</title>
<path fill="none" stroke="midnightblue" d="M336.91,-61.17C323.91,-51.23 308.6,-39.51 296.91,-30.58"/>
<polygon fill="midnightblue" stroke="midnightblue" points="334.99,-64.1 345.06,-67.4 339.24,-58.54 334.99,-64.1"/>
</g>
<!-- Node10 -->
<g id="node10" class="node">
<title>Node10</title>
<g id="a_node10"><a xlink:href="ICUXalanNumberFormatFactory_8hpp.html" target="_top" xlink:title=" ">
<polygon fill="none" stroke="black" points="374,-0.5 374,-30.5 523,-30.5 523,-0.5 374,-0.5"/>
<text text-anchor="start" x="382" y="-18.5" font-family="Helvetica,sans-Serif" font-size="10.00">xalanc/ICUBridge/ICUXalan</text>
<text text-anchor="middle" x="448.5" y="-7.5" font-family="Helvetica,sans-Serif" font-size="10.00">NumberFormatFactory.hpp</text>
</a>
</g>
</g>
<!-- Node7&#45;&gt;Node10 -->
<g id="edge9" class="edge">
<title>Node7&#45;&gt;Node10</title>
<path fill="none" stroke="midnightblue" d="M390.09,-61.17C403.09,-51.23 418.4,-39.51 430.09,-30.58"/>
<polygon fill="midnightblue" stroke="midnightblue" points="387.76,-58.54 381.94,-67.4 392.01,-64.1 387.76,-58.54"/>
</g>
<!-- Node11 -->
<g id="node11" class="node">
<title>Node11</title>
<g id="a_node11"><a xlink:href="XalanCompiledStylesheetDefault_8hpp.html" target="_top" xlink:title=" ">
<polygon fill="none" stroke="black" points="541,-0.5 541,-30.5 744,-30.5 744,-0.5 541,-0.5"/>
<text text-anchor="start" x="549" y="-18.5" font-family="Helvetica,sans-Serif" font-size="10.00">xalanc/XalanTransformer</text>
<text text-anchor="middle" x="642.5" y="-7.5" font-family="Helvetica,sans-Serif" font-size="10.00">/XalanCompiledStylesheetDefault.hpp</text>
</a>
</g>
</g>
<!-- Node7&#45;&gt;Node11 -->
<g id="edge10" class="edge">
<title>Node7&#45;&gt;Node11</title>
<path fill="none" stroke="midnightblue" d="M433.53,-65.19C479.22,-54.54 538.27,-40.78 581.93,-30.61"/>
<polygon fill="midnightblue" stroke="midnightblue" points="432.64,-61.8 423.7,-67.48 434.23,-68.62 432.64,-61.8"/>
</g>
<!-- Node12&#45;&gt;Node7 -->
<g id="edge12" class="edge">
<title>Node12&#45;&gt;Node7</title>
<path fill="none" stroke="midnightblue" d="M363.5,-124.11C363.5,-115.15 363.5,-105.32 363.5,-97.58"/>
<polygon fill="midnightblue" stroke="midnightblue" points="360,-124.4 363.5,-134.4 367,-124.4 360,-124.4"/>
</g>
<!-- Node14&#45;&gt;Node7 -->
<g id="edge15" class="edge">
<title>Node14&#45;&gt;Node7</title>
<path fill="none" stroke="midnightblue" d="M508.15,-131.23C476.28,-120.71 436.09,-107.45 406.16,-97.58"/>
<polygon fill="midnightblue" stroke="midnightblue" points="507.16,-134.59 517.75,-134.4 509.35,-127.94 507.16,-134.59"/>
</g>
<!-- Node16 -->
<g id="node16" class="node">
<title>Node16</title>
<g id="a_node16"><a xlink:href="XalanSourceTreeElementNANSAllocator_8hpp.html" target="_top" xlink:title=" ">
<polygon fill="none" stroke="black" points="271,-335.5 271,-365.5 504,-365.5 504,-335.5 271,-335.5"/>
<text text-anchor="start" x="279" y="-353.5" font-family="Helvetica,sans-Serif" font-size="10.00">xalanc/XalanSourceTree</text>
<text text-anchor="middle" x="387.5" y="-342.5" font-family="Helvetica,sans-Serif" font-size="10.00">/XalanSourceTreeElementNANSAllocator.hpp</text>
</a>
</g>
</g>
<!-- Node15&#45;&gt;Node16 -->
<g id="edge17" class="edge">
<title>Node15&#45;&gt;Node16</title>
<path fill="none" stroke="midnightblue" d="M326.77,-401.29C340.82,-389.77 357.94,-375.73 370.42,-365.5"/>
<polygon fill="midnightblue" stroke="midnightblue" points="324.42,-398.69 318.9,-407.73 328.86,-404.1 324.42,-398.69"/>
</g>
<!-- Node16&#45;&gt;Node5 -->
<g id="edge18" class="edge">
<title>Node16&#45;&gt;Node5</title>
<path fill="none" stroke="midnightblue" d="M410.65,-328.6C421.52,-318.78 434.2,-307.34 443.91,-298.58"/>
<polygon fill="midnightblue" stroke="midnightblue" points="408.2,-326.1 403.12,-335.4 412.89,-331.29 408.2,-326.1"/>
</g>
<!-- Node17&#45;&gt;Node3 -->
<g id="edge26" class="edge">
<title>Node17&#45;&gt;Node3</title>
<path fill="none" stroke="midnightblue" d="M434.37,-543.96C405.06,-533.48 368.32,-520.37 340.91,-510.58"/>
<polygon fill="midnightblue" stroke="midnightblue" points="433.41,-547.33 444.01,-547.4 435.77,-540.74 433.41,-547.33"/>
</g>
<!-- Node17&#45;&gt;Node18 -->
<g id="edge20" class="edge">
<title>Node17&#45;&gt;Node18</title>
<path fill="none" stroke="midnightblue" d="M496.55,-538.58C501.86,-529.24 507.84,-518.75 512.49,-510.58"/>
<polygon fill="midnightblue" stroke="midnightblue" points="493.43,-536.97 491.53,-547.4 499.52,-540.44 493.43,-536.97"/>
</g>
<!-- Node19 -->
<g id="node19" class="node">
<title>Node19</title>
<g id="a_node19"><a xlink:href="XalanSourceTreeElementAAllocator_8hpp.html" target="_top" xlink:title=" ">
<polygon fill="none" stroke="black" points="414.5,-408 414.5,-438 626.5,-438 626.5,-408 414.5,-408"/>
<text text-anchor="start" x="422.5" y="-426" font-family="Helvetica,sans-Serif" font-size="10.00">xalanc/XalanSourceTree</text>
<text text-anchor="middle" x="520.5" y="-415" font-family="Helvetica,sans-Serif" font-size="10.00">/XalanSourceTreeElementAAllocator.hpp</text>
</a>
</g>
</g>
<!-- Node18&#45;&gt;Node19 -->
<g id="edge21" class="edge">
<title>Node18&#45;&gt;Node19</title>
<path fill="none" stroke="midnightblue" d="M520.5,-470.23C520.5,-459.57 520.5,-447.41 520.5,-438.25"/>
<polygon fill="midnightblue" stroke="midnightblue" points="517,-470.23 520.5,-480.23 524,-470.23 517,-470.23"/>
</g>
<!-- Node20 -->
<g id="node20" class="node">
<title>Node20</title>
<g id="a_node20"><a xlink:href="XalanSourceTreeElementANS_8hpp.html" target="_top" xlink:title=" ">
<polygon fill="none" stroke="black" points="644.5,-408 644.5,-438 826.5,-438 826.5,-408 644.5,-408"/>
<text text-anchor="start" x="652.5" y="-426" font-family="Helvetica,sans-Serif" font-size="10.00">xalanc/XalanSourceTree</text>
<text text-anchor="middle" x="735.5" y="-415" font-family="Helvetica,sans-Serif" font-size="10.00">/XalanSourceTreeElementANS.hpp</text>
</a>
</g>
</g>
<!-- Node18&#45;&gt;Node20 -->
<g id="edge23" class="edge">
<title>Node18&#45;&gt;Node20</title>
<path fill="none" stroke="midnightblue" d="M572.78,-477.36C609.49,-465.32 658,-449.41 692.48,-438.11"/>
<polygon fill="midnightblue" stroke="midnightblue" points="571.65,-474.05 563.23,-480.49 573.83,-480.7 571.65,-474.05"/>
</g>
<!-- Node19&#45;&gt;Node5 -->
<g id="edge22" class="edge">
<title>Node19&#45;&gt;Node5</title>
<path fill="none" stroke="midnightblue" d="M522.71,-397.88C523.35,-379.71 522.01,-354.65 512.5,-335 505.36,-320.24 491.96,-307.53 480.42,-298.56"/>
<polygon fill="midnightblue" stroke="midnightblue" points="519.21,-397.76 522.13,-407.94 526.2,-398.16 519.21,-397.76"/>
</g>
<!-- Node21 -->
<g id="node21" class="node">
<title>Node21</title>
<g id="a_node21"><a xlink:href="XalanSourceTreeElementANSAllocator_8hpp.html" target="_top" xlink:title=" ">
<polygon fill="none" stroke="black" points="591.5,-335.5 591.5,-365.5 817.5,-365.5 817.5,-335.5 591.5,-335.5"/>
<text text-anchor="start" x="599.5" y="-353.5" font-family="Helvetica,sans-Serif" font-size="10.00">xalanc/XalanSourceTree</text>
<text text-anchor="middle" x="704.5" y="-342.5" font-family="Helvetica,sans-Serif" font-size="10.00">/XalanSourceTreeElementANSAllocator.hpp</text>
</a>
</g>
</g>
<!-- Node20&#45;&gt;Node21 -->
<g id="edge24" class="edge">
<title>Node20&#45;&gt;Node21</title>
<path fill="none" stroke="midnightblue" d="M725.12,-398.4C720.36,-387.58 714.88,-375.11 710.76,-365.75"/>
<polygon fill="midnightblue" stroke="midnightblue" points="722,-399.99 729.23,-407.73 728.41,-397.17 722,-399.99"/>
</g>
<!-- Node21&#45;&gt;Node5 -->
<g id="edge25" class="edge">
<title>Node21&#45;&gt;Node5</title>
<path fill="none" stroke="midnightblue" d="M641.74,-332.85C601.8,-322.25 550.63,-308.68 512.69,-298.61"/>
<polygon fill="midnightblue" stroke="midnightblue" points="641.08,-336.29 651.64,-335.48 642.87,-329.53 641.08,-336.29"/>
</g>
<!-- Node23 -->
<g id="node23" class="node">
<title>Node23</title>
<g id="a_node23"><a xlink:href="XercesDocumentTypeBridge_8hpp.html" target="_top" xlink:title=" ">
<polygon fill="none" stroke="black" points="623,-480.5 623,-510.5 860,-510.5 860,-480.5 623,-480.5"/>
<text text-anchor="start" x="631" y="-498.5" font-family="Helvetica,sans-Serif" font-size="10.00">xalanc/XercesParserLiaison</text>
<text text-anchor="middle" x="741.5" y="-487.5" font-family="Helvetica,sans-Serif" font-size="10.00">/Deprecated/XercesDocumentTypeBridge.hpp</text>
</a>
</g>
</g>
<!-- Node22&#45;&gt;Node23 -->
<g id="edge29" class="edge">
<title>Node22&#45;&gt;Node23</title>
<path fill="none" stroke="midnightblue" d="M742.75,-537.11C742.47,-528.15 742.17,-518.32 741.93,-510.58"/>
<polygon fill="midnightblue" stroke="midnightblue" points="739.26,-537.51 743.07,-547.4 746.26,-537.29 739.26,-537.51"/>
</g>
<!-- Node24 -->
<g id="node24" class="node">
<title>Node24</title>
<g id="a_node24"><a xlink:href="XercesElementBridge_8hpp.html" target="_top" xlink:title=" ">
<polygon fill="none" stroke="black" points="878,-480.5 878,-510.5 1083,-510.5 1083,-480.5 878,-480.5"/>
<text text-anchor="start" x="886" y="-498.5" font-family="Helvetica,sans-Serif" font-size="10.00">xalanc/XercesParserLiaison</text>
<text text-anchor="middle" x="980.5" y="-487.5" font-family="Helvetica,sans-Serif" font-size="10.00">/Deprecated/XercesElementBridge.hpp</text>
</a>
</g>
</g>
<!-- Node22&#45;&gt;Node24 -->
<g id="edge30" class="edge">
<title>Node22&#45;&gt;Node24</title>
<path fill="none" stroke="midnightblue" d="M804.7,-544.71C843.27,-534.14 892.5,-520.63 929.05,-510.61"/>
<polygon fill="midnightblue" stroke="midnightblue" points="803.35,-541.46 794.63,-547.48 805.2,-548.21 803.35,-541.46"/>
</g>
<!-- Node25 -->
<g id="node25" class="node">
<title>Node25</title>
<g id="a_node25"><a xlink:href="XercesElementBridgeAllocator_8hpp.html" target="_top" xlink:title=" ">
<polygon fill="none" stroke="black" points="888.5,-402.5 888.5,-443.5 1072.5,-443.5 1072.5,-402.5 888.5,-402.5"/>
<text text-anchor="start" x="896.5" y="-431.5" font-family="Helvetica,sans-Serif" font-size="10.00">xalanc/XercesParserLiaison</text>
<text text-anchor="start" x="896.5" y="-420.5" font-family="Helvetica,sans-Serif" font-size="10.00">/Deprecated/XercesElementBridge</text>
<text text-anchor="middle" x="980.5" y="-409.5" font-family="Helvetica,sans-Serif" font-size="10.00">Allocator.hpp</text>
</a>
</g>
</g>
<!-- Node24&#45;&gt;Node25 -->
<g id="edge31" class="edge">
<title>Node24&#45;&gt;Node25</title>
<path fill="none" stroke="midnightblue" d="M980.5,-469.98C980.5,-461.35 980.5,-451.76 980.5,-443.59"/>
<polygon fill="midnightblue" stroke="midnightblue" points="977,-470.23 980.5,-480.23 984,-470.23 977,-470.23"/>
</g>
<!-- Node26 -->
<g id="node26" class="node">
<title>Node26</title>
<g id="a_node26"><a xlink:href="XercesDocumentBridge_8hpp.html" target="_top" xlink:title=" ">
<polygon fill="none" stroke="black" points="873,-335.5 873,-365.5 1088,-365.5 1088,-335.5 873,-335.5"/>
<text text-anchor="start" x="881" y="-353.5" font-family="Helvetica,sans-Serif" font-size="10.00">xalanc/XercesParserLiaison</text>
<text text-anchor="middle" x="980.5" y="-342.5" font-family="Helvetica,sans-Serif" font-size="10.00">/Deprecated/XercesDocumentBridge.hpp</text>
</a>
</g>
</g>
<!-- Node25&#45;&gt;Node26 -->
<g id="edge32" class="edge">
<title>Node25&#45;&gt;Node26</title>
<path fill="none" stroke="midnightblue" d="M980.5,-392.08C980.5,-383.01 980.5,-373.45 980.5,-365.89"/>
<polygon fill="midnightblue" stroke="midnightblue" points="977,-392.36 980.5,-402.36 984,-392.36 977,-392.36"/>
</g>
<!-- Node28 -->
<g id="node28" class="node">
<title>Node28</title>
<g id="a_node28"><a xlink:href="XercesDocumentTypeWrapper_8hpp.html" target="_top" xlink:title=" ">
<polygon fill="none" stroke="black" points="1101,-480.5 1101,-510.5 1288,-510.5 1288,-480.5 1101,-480.5"/>
<text text-anchor="start" x="1109" y="-498.5" font-family="Helvetica,sans-Serif" font-size="10.00">xalanc/XercesParserLiaison</text>
<text text-anchor="middle" x="1194.5" y="-487.5" font-family="Helvetica,sans-Serif" font-size="10.00">/XercesDocumentTypeWrapper.hpp</text>
</a>
</g>
</g>
<!-- Node27&#45;&gt;Node28 -->
<g id="edge34" class="edge">
<title>Node27&#45;&gt;Node28</title>
<path fill="none" stroke="midnightblue" d="M1194.5,-537.11C1194.5,-528.15 1194.5,-518.32 1194.5,-510.58"/>
<polygon fill="midnightblue" stroke="midnightblue" points="1191,-537.4 1194.5,-547.4 1198,-537.4 1191,-537.4"/>
</g>
<!-- Node29 -->
<g id="node29" class="node">
<title>Node29</title>
<g id="a_node29"><a xlink:href="XercesElementWrapper_8hpp.html" target="_top" xlink:title=" ">
<polygon fill="none" stroke="black" points="1306,-480.5 1306,-510.5 1461,-510.5 1461,-480.5 1306,-480.5"/>
<text text-anchor="start" x="1314" y="-498.5" font-family="Helvetica,sans-Serif" font-size="10.00">xalanc/XercesParserLiaison</text>
<text text-anchor="middle" x="1383.5" y="-487.5" font-family="Helvetica,sans-Serif" font-size="10.00">/XercesElementWrapper.hpp</text>
</a>
</g>
</g>
<!-- Node27&#45;&gt;Node29 -->
<g id="edge35" class="edge">
<title>Node27&#45;&gt;Node29</title>
<path fill="none" stroke="midnightblue" d="M1245.12,-544.09C1275.63,-533.6 1313.98,-520.41 1342.57,-510.58"/>
<polygon fill="midnightblue" stroke="midnightblue" points="1243.83,-540.83 1235.51,-547.4 1246.1,-547.45 1243.83,-540.83"/>
</g>
<!-- Node30 -->
<g id="node30" class="node">
<title>Node30</title>
<g id="a_node30"><a xlink:href="XercesElementWrapperAllocator_8hpp.html" target="_top" xlink:title=" ">
<polygon fill="none" stroke="black" points="1284.5,-408 1284.5,-438 1482.5,-438 1482.5,-408 1284.5,-408"/>
<text text-anchor="start" x="1292.5" y="-426" font-family="Helvetica,sans-Serif" font-size="10.00">xalanc/XercesParserLiaison</text>
<text text-anchor="middle" x="1383.5" y="-415" font-family="Helvetica,sans-Serif" font-size="10.00">/XercesElementWrapperAllocator.hpp</text>
</a>
</g>
</g>
<!-- Node29&#45;&gt;Node30 -->
<g id="edge36" class="edge">
<title>Node29&#45;&gt;Node30</title>
<path fill="none" stroke="midnightblue" d="M1383.5,-470.23C1383.5,-459.57 1383.5,-447.41 1383.5,-438.25"/>
<polygon fill="midnightblue" stroke="midnightblue" points="1380,-470.23 1383.5,-480.23 1387,-470.23 1380,-470.23"/>
</g>
<!-- Node31 -->
<g id="node31" class="node">
<title>Node31</title>
<g id="a_node31"><a xlink:href="XercesDocumentWrapper_8hpp.html" target="_top" xlink:title=" ">
<polygon fill="none" stroke="black" points="1301.5,-335.5 1301.5,-365.5 1465.5,-365.5 1465.5,-335.5 1301.5,-335.5"/>
<text text-anchor="start" x="1309.5" y="-353.5" font-family="Helvetica,sans-Serif" font-size="10.00">xalanc/XercesParserLiaison</text>
<text text-anchor="middle" x="1383.5" y="-342.5" font-family="Helvetica,sans-Serif" font-size="10.00">/XercesDocumentWrapper.hpp</text>
</a>
</g>
</g>
<!-- Node30&#45;&gt;Node31 -->
<g id="edge37" class="edge">
<title>Node30&#45;&gt;Node31</title>
<path fill="none" stroke="midnightblue" d="M1383.5,-397.73C1383.5,-387.07 1383.5,-374.91 1383.5,-365.75"/>
<polygon fill="midnightblue" stroke="midnightblue" points="1380,-397.73 1383.5,-407.73 1387,-397.73 1380,-397.73"/>
</g>
</g>
</svg>
