<?xml version="1.0" encoding="UTF-8" standalone="no"?>
<!DOCTYPE svg PUBLIC "-//W3C//DTD SVG 1.1//EN"
 "http://www.w3.org/Graphics/SVG/1.1/DTD/svg11.dtd">
<!-- Generated by graphviz version 2.43.0 (0)
 -->
<!-- Title: xalanc/XSLT/XalanParamHolder.hpp Pages: 1 -->
<svg width="355pt" height="162pt"
 viewBox="0.00 0.00 354.50 162.00" xmlns="http://www.w3.org/2000/svg" xmlns:xlink="http://www.w3.org/1999/xlink">
<g id="graph0" class="graph" transform="scale(1 1) rotate(0) translate(4 158)">
<title>xalanc/XSLT/XalanParamHolder.hpp</title>
<!-- Node1 -->
<g id="node1" class="node">
<title>Node1</title>
<g id="a_node1"><a xlink:title=" ">
<polygon fill="#bfbfbf" stroke="black" points="62.5,-134.5 62.5,-153.5 251.5,-153.5 251.5,-134.5 62.5,-134.5"/>
<text text-anchor="middle" x="157" y="-141.5" font-family="Helvetica,sans-Serif" font-size="10.00">xalanc/XSLT/XalanParamHolder.hpp</text>
</a>
</g>
</g>
<!-- Node2 -->
<g id="node2" class="node">
<title>Node2</title>
<g id="a_node2"><a xlink:href="XalanTransformer_8hpp.html" target="_top" xlink:title=" ">
<polygon fill="none" stroke="black" points="0,-67.5 0,-97.5 138,-97.5 138,-67.5 0,-67.5"/>
<text text-anchor="start" x="8" y="-85.5" font-family="Helvetica,sans-Serif" font-size="10.00">xalanc/XalanTransformer</text>
<text text-anchor="middle" x="69" y="-74.5" font-family="Helvetica,sans-Serif" font-size="10.00">/XalanTransformer.hpp</text>
</a>
</g>
</g>
<!-- Node1&#45;&gt;Node2 -->
<g id="edge1" class="edge">
<title>Node1&#45;&gt;Node2</title>
<path fill="none" stroke="midnightblue" d="M135.91,-128.74C121.92,-119.28 103.65,-106.93 89.74,-97.52"/>
<polygon fill="midnightblue" stroke="midnightblue" points="134.15,-131.77 144.39,-134.48 138.07,-125.97 134.15,-131.77"/>
</g>
<!-- Node3 -->
<g id="node3" class="node">
<title>Node3</title>
<g id="a_node3"><a xlink:href="XSLTEngineImpl_8hpp.html" target="_top" xlink:title=" ">
<polygon fill="none" stroke="black" points="156.5,-73 156.5,-92 333.5,-92 333.5,-73 156.5,-73"/>
<text text-anchor="middle" x="245" y="-80" font-family="Helvetica,sans-Serif" font-size="10.00">xalanc/XSLT/XSLTEngineImpl.hpp</text>
</a>
</g>
</g>
<!-- Node1&#45;&gt;Node3 -->
<g id="edge2" class="edge">
<title>Node1&#45;&gt;Node3</title>
<path fill="none" stroke="midnightblue" d="M178.28,-128.61C195.2,-117.17 218.31,-101.55 232.42,-92.01"/>
<polygon fill="midnightblue" stroke="midnightblue" points="175.93,-125.97 169.61,-134.48 179.85,-131.77 175.93,-125.97"/>
</g>
<!-- Node4 -->
<g id="node4" class="node">
<title>Node4</title>
<g id="a_node4"><a xlink:href="XalanCompiledStylesheetDefault_8hpp.html" target="_top" xlink:title=" ">
<polygon fill="none" stroke="black" points="143.5,-0.5 143.5,-30.5 346.5,-30.5 346.5,-0.5 143.5,-0.5"/>
<text text-anchor="start" x="151.5" y="-18.5" font-family="Helvetica,sans-Serif" font-size="10.00">xalanc/XalanTransformer</text>
<text text-anchor="middle" x="245" y="-7.5" font-family="Helvetica,sans-Serif" font-size="10.00">/XalanCompiledStylesheetDefault.hpp</text>
</a>
</g>
</g>
<!-- Node3&#45;&gt;Node4 -->
<g id="edge3" class="edge">
<title>Node3&#45;&gt;Node4</title>
<path fill="none" stroke="midnightblue" d="M245,-62.41C245,-52.22 245,-39.9 245,-30.59"/>
<polygon fill="midnightblue" stroke="midnightblue" points="241.5,-62.73 245,-72.73 248.5,-62.73 241.5,-62.73"/>
</g>
</g>
</svg>
