<?xml version="1.0" encoding="UTF-8" standalone="no"?>
<!DOCTYPE svg PUBLIC "-//W3C//DTD SVG 1.1//EN"
 "http://www.w3.org/Graphics/SVG/1.1/DTD/svg11.dtd">
<!-- Generated by graphviz version 2.43.0 (0)
 -->
<!-- Title: xalanc/XalanSourceTree/XalanSourceTreeHelper.hpp Pages: 1 -->
<!--zoomable 475 -->
<svg id="main" version="1.1" xmlns="http://www.w3.org/2000/svg" xmlns:xlink="http://www.w3.org/1999/xlink" xml:space="preserve" onload="init(evt)">
<style type="text/css"><![CDATA[
.edge:hover path { stroke: red; }
.edge:hover polygon { stroke: red; fill: red; }
]]></style>
<script type="text/javascript"><![CDATA[
var edges = document.getElementsByTagName('g');
if (edges && edges.length) {
  for (var i=0;i<edges.length;i++) {
    if (edges[i].id.substr(0,4)=='edge') {
      edges[i].setAttribute('class','edge');
    }
  }
}
]]></script>
        <defs>
                <circle id="rim" cx="0" cy="0" r="7"/>
                <circle id="rim2" cx="0" cy="0" r="3.5"/>
                <g id="zoomPlus">
                        <use xlink:href="#rim" fill="#404040">
                                <set attributeName="fill" to="#808080" begin="zoomplus.mouseover" end="zoomplus.mouseout"/>
                        </use>
                        <path d="M-4,0h8M0,-4v8" fill="none" stroke="white" stroke-width="1.5" pointer-events="none"/>
                </g>
                <g id="zoomMin">
                        <use xlink:href="#rim" fill="#404040">
                                <set attributeName="fill" to="#808080" begin="zoomminus.mouseover" end="zoomminus.mouseout"/>
                        </use>
                        <path d="M-4,0h8" fill="none" stroke="white" stroke-width="1.5" pointer-events="none"/>
                </g>
                <g id="dirArrow">
                        <path fill="none" stroke="white" stroke-width="1.5" d="M0,-3.0v7 M-2.5,-0.5L0,-3.0L2.5,-0.5"/>
                </g>
               <g id="resetDef">
                       <use xlink:href="#rim2" fill="#404040">
                               <set attributeName="fill" to="#808080" begin="reset.mouseover" end="reset.mouseout"/>
                       </use>
               </g>
        </defs>

<script type="text/javascript">
var viewWidth = 1081;
var viewHeight = 475;
var sectionId = 'dynsection-0';
</script>
<script xlink:href="svgpan.js"/>
<svg id="graph" class="graph">
<g id="viewport">
<title>xalanc/XalanSourceTree/XalanSourceTreeHelper.hpp</title>
<!-- Node1 -->
<g id="node1" class="node">
<title>Node1</title>
<g id="a_node1"><a xlink:title=" ">
<polygon fill="#bfbfbf" stroke="black" points="114.5,-436.5 114.5,-466.5 267.5,-466.5 267.5,-436.5 114.5,-436.5"/>
<text text-anchor="start" x="122.5" y="-454.5" font-family="Helvetica,sans-Serif" font-size="10.00">xalanc/XalanSourceTree</text>
<text text-anchor="middle" x="191" y="-443.5" font-family="Helvetica,sans-Serif" font-size="10.00">/XalanSourceTreeHelper.hpp</text>
</a>
</g>
</g>
<!-- Node2 -->
<g id="node2" class="node">
<title>Node2</title>
<g id="a_node2"><a xlink:href="XalanSourceTreeDefinitions_8hpp.html" target="_top" xlink:title=" ">
<polygon fill="none" stroke="black" points="0,-369.5 0,-399.5 174,-399.5 174,-369.5 0,-369.5"/>
<text text-anchor="start" x="8" y="-387.5" font-family="Helvetica,sans-Serif" font-size="10.00">xalanc/XalanSourceTree</text>
<text text-anchor="middle" x="87" y="-376.5" font-family="Helvetica,sans-Serif" font-size="10.00">/XalanSourceTreeDefinitions.hpp</text>
</a>
</g>
</g>
<!-- Node1&#45;&gt;Node2 -->
<g id="edge1" class="edge">
<title>Node1&#45;&gt;Node2</title>
<path fill="none" stroke="midnightblue" d="M168.43,-436.4C153.71,-427.2 134.31,-415.07 118.13,-404.95"/>
<polygon fill="midnightblue" stroke="midnightblue" points="119.86,-401.91 109.52,-399.58 116.15,-407.84 119.86,-401.91"/>
</g>
<!-- Node7 -->
<g id="node7" class="node">
<title>Node7</title>
<g id="a_node7"><a xlink:href="XalanDOMString_8hpp.html" target="_top" xlink:title=" ">
<polygon fill="none" stroke="black" points="248,-375 248,-394 456,-394 456,-375 248,-375"/>
<text text-anchor="middle" x="352" y="-382" font-family="Helvetica,sans-Serif" font-size="10.00">xalanc/XalanDOM/XalanDOMString.hpp</text>
</a>
</g>
</g>
<!-- Node1&#45;&gt;Node7 -->
<g id="edge6" class="edge">
<title>Node1&#45;&gt;Node7</title>
<path fill="none" stroke="midnightblue" d="M225.93,-436.4C254.43,-424.89 294.29,-408.8 321.52,-397.81"/>
<polygon fill="midnightblue" stroke="midnightblue" points="322.97,-401 330.93,-394.01 320.35,-394.51 322.97,-401"/>
</g>
<!-- Node3 -->
<g id="node3" class="node">
<title>Node3</title>
<g id="a_node3"><a xlink:href="PlatformDefinitions_8hpp.html" target="_top" xlink:title=" ">
<polygon fill="none" stroke="black" points="161,-73 161,-92 367,-92 367,-73 161,-73"/>
<text text-anchor="middle" x="264" y="-80" font-family="Helvetica,sans-Serif" font-size="10.00">xalanc/Include/PlatformDefinitions.hpp</text>
</a>
</g>
</g>
<!-- Node2&#45;&gt;Node3 -->
<g id="edge2" class="edge">
<title>Node2&#45;&gt;Node3</title>
<path fill="none" stroke="midnightblue" d="M74.63,-369.3C57.87,-348.55 30,-308.03 30,-268 30,-268 30,-268 30,-210 30,-139.17 113.99,-107.8 181.34,-94.04"/>
<polygon fill="midnightblue" stroke="midnightblue" points="182.41,-97.4 191.56,-92.06 181.08,-90.52 182.41,-97.4"/>
</g>
<!-- Node4 -->
<g id="node4" class="node">
<title>Node4</title>
<g id="a_node4"><a xlink:title=" ">
<polygon fill="none" stroke="#bfbfbf" points="43,-0.5 43,-30.5 163,-30.5 163,-0.5 43,-0.5"/>
<text text-anchor="start" x="51" y="-18.5" font-family="Helvetica,sans-Serif" font-size="10.00">xercesc/util/Xerces</text>
<text text-anchor="middle" x="103" y="-7.5" font-family="Helvetica,sans-Serif" font-size="10.00">_autoconf_config.hpp</text>
</a>
</g>
</g>
<!-- Node3&#45;&gt;Node4 -->
<g id="edge3" class="edge">
<title>Node3&#45;&gt;Node4</title>
<path fill="none" stroke="midnightblue" d="M242.62,-72.87C218.36,-63.07 178.12,-46.83 147.06,-34.29"/>
<polygon fill="midnightblue" stroke="midnightblue" points="148.33,-31.03 137.75,-30.53 145.71,-37.52 148.33,-31.03"/>
</g>
<!-- Node5 -->
<g id="node5" class="node">
<title>Node5</title>
<g id="a_node5"><a xlink:title=" ">
<polygon fill="none" stroke="#bfbfbf" points="181.5,-6 181.5,-25 346.5,-25 346.5,-6 181.5,-6"/>
<text text-anchor="middle" x="264" y="-13" font-family="Helvetica,sans-Serif" font-size="10.00">xercesc/util/XercesVersion.hpp</text>
</a>
</g>
</g>
<!-- Node3&#45;&gt;Node5 -->
<g id="edge4" class="edge">
<title>Node3&#45;&gt;Node5</title>
<path fill="none" stroke="midnightblue" d="M264,-72.73C264,-63.18 264,-47.62 264,-35.28"/>
<polygon fill="midnightblue" stroke="midnightblue" points="267.5,-35.13 264,-25.13 260.5,-35.13 267.5,-35.13"/>
</g>
<!-- Node6 -->
<g id="node6" class="node">
<title>Node6</title>
<g id="a_node6"><a xlink:href="XalanVersion_8hpp.html" target="_top" xlink:title=" ">
<polygon fill="none" stroke="black" points="364.5,-6 364.5,-25 539.5,-25 539.5,-6 364.5,-6"/>
<text text-anchor="middle" x="452" y="-13" font-family="Helvetica,sans-Serif" font-size="10.00">xalanc/Include/XalanVersion.hpp</text>
</a>
</g>
</g>
<!-- Node3&#45;&gt;Node6 -->
<g id="edge5" class="edge">
<title>Node3&#45;&gt;Node6</title>
<path fill="none" stroke="midnightblue" d="M288.96,-72.87C321.92,-61.47 380.12,-41.35 417.33,-28.49"/>
<polygon fill="midnightblue" stroke="midnightblue" points="418.92,-31.64 427.23,-25.06 416.64,-25.02 418.92,-31.64"/>
</g>
<!-- Node8 -->
<g id="node8" class="node">
<title>Node8</title>
<g id="a_node8"><a xlink:href="XalanDOMDefinitions_8hpp.html" target="_top" xlink:title=" ">
<polygon fill="none" stroke="black" points="75,-257.5 75,-276.5 307,-276.5 307,-257.5 75,-257.5"/>
<text text-anchor="middle" x="191" y="-264.5" font-family="Helvetica,sans-Serif" font-size="10.00">xalanc/XalanDOM/XalanDOMDefinitions.hpp</text>
</a>
</g>
</g>
<!-- Node7&#45;&gt;Node8 -->
<g id="edge7" class="edge">
<title>Node7&#45;&gt;Node8</title>
<path fill="none" stroke="midnightblue" d="M247.77,-377.04C182.72,-370.58 107.56,-357.85 87,-333 66.53,-308.26 106.28,-290.11 142.39,-279.37"/>
<polygon fill="midnightblue" stroke="midnightblue" points="143.75,-282.62 152.43,-276.54 141.85,-275.89 143.75,-282.62"/>
</g>
<!-- Node9 -->
<g id="node9" class="node">
<title>Node9</title>
<g id="a_node9"><a xlink:title=" ">
<polygon fill="none" stroke="#bfbfbf" points="864,-73 864,-92 916,-92 916,-73 864,-73"/>
<text text-anchor="middle" x="890" y="-80" font-family="Helvetica,sans-Serif" font-size="10.00">cassert</text>
</a>
</g>
</g>
<!-- Node7&#45;&gt;Node9 -->
<g id="edge9" class="edge">
<title>Node7&#45;&gt;Node9</title>
<path fill="none" stroke="midnightblue" d="M456.31,-377.39C655.85,-364.29 1072,-329.6 1072,-268 1072,-268 1072,-268 1072,-210 1072,-175.18 1076.93,-159.29 1053,-134 1020.02,-99.13 963.5,-88.17 926.44,-84.82"/>
<polygon fill="midnightblue" stroke="midnightblue" points="926.32,-81.3 916.08,-84.04 925.79,-88.28 926.32,-81.3"/>
</g>
<!-- Node10 -->
<g id="node10" class="node">
<title>Node10</title>
<g id="a_node10"><a xlink:href="STLHelper_8hpp.html" target="_top" xlink:title=" ">
<polygon fill="none" stroke="black" points="439,-313.5 439,-332.5 599,-332.5 599,-313.5 439,-313.5"/>
<text text-anchor="middle" x="519" y="-320.5" font-family="Helvetica,sans-Serif" font-size="10.00">xalanc/Include/STLHelper.hpp</text>
</a>
</g>
</g>
<!-- Node7&#45;&gt;Node10 -->
<g id="edge10" class="edge">
<title>Node7&#45;&gt;Node10</title>
<path fill="none" stroke="midnightblue" d="M375.93,-374.98C404.7,-364.72 453.16,-347.46 485.6,-335.9"/>
<polygon fill="midnightblue" stroke="midnightblue" points="486.87,-339.16 495.12,-332.51 484.52,-332.57 486.87,-339.16"/>
</g>
<!-- Node16 -->
<g id="node16" class="node">
<title>Node16</title>
<g id="a_node16"><a xlink:href="XalanVector_8hpp.html" target="_top" xlink:title=" ">
<polygon fill="none" stroke="black" points="522.5,-201.5 522.5,-220.5 691.5,-220.5 691.5,-201.5 522.5,-201.5"/>
<text text-anchor="middle" x="607" y="-208.5" font-family="Helvetica,sans-Serif" font-size="10.00">xalanc/Include/XalanVector.hpp</text>
</a>
</g>
</g>
<!-- Node7&#45;&gt;Node16 -->
<g id="edge44" class="edge">
<title>Node7&#45;&gt;Node16</title>
<path fill="none" stroke="midnightblue" d="M360.58,-374.58C374.4,-360.5 402.8,-332.7 430,-313 480.03,-276.77 544.14,-242.98 579.86,-225.16"/>
<polygon fill="midnightblue" stroke="midnightblue" points="581.74,-228.13 589.15,-220.56 578.63,-221.86 581.74,-228.13"/>
</g>
<!-- Node20 -->
<g id="node20" class="node">
<title>Node20</title>
<g id="a_node20"><a xlink:href="XalanMemoryManagement_8hpp.html" target="_top" xlink:title=" ">
<polygon fill="none" stroke="black" points="383,-134.5 383,-164.5 541,-164.5 541,-134.5 383,-134.5"/>
<text text-anchor="start" x="391" y="-152.5" font-family="Helvetica,sans-Serif" font-size="10.00">xalanc/Include/XalanMemory</text>
<text text-anchor="middle" x="462" y="-141.5" font-family="Helvetica,sans-Serif" font-size="10.00">Management.hpp</text>
</a>
</g>
</g>
<!-- Node7&#45;&gt;Node20 -->
<g id="edge43" class="edge">
<title>Node7&#45;&gt;Node20</title>
<path fill="none" stroke="midnightblue" d="M351.8,-374.67C351.57,-346.74 354.09,-258.76 392,-201 400.2,-188.5 412.65,-178.07 424.78,-170"/>
<polygon fill="midnightblue" stroke="midnightblue" points="426.87,-172.82 433.49,-164.54 423.16,-166.88 426.87,-172.82"/>
</g>
<!-- Node23 -->
<g id="node23" class="node">
<title>Node23</title>
<g id="a_node23"><a xlink:href="XalanDOMException_8hpp.html" target="_top" xlink:title=" ">
<polygon fill="none" stroke="black" points="96.5,-313.5 96.5,-332.5 323.5,-332.5 323.5,-313.5 96.5,-313.5"/>
<text text-anchor="middle" x="210" y="-320.5" font-family="Helvetica,sans-Serif" font-size="10.00">xalanc/XalanDOM/XalanDOMException.hpp</text>
</a>
</g>
</g>
<!-- Node7&#45;&gt;Node23 -->
<g id="edge45" class="edge">
<title>Node7&#45;&gt;Node23</title>
<path fill="none" stroke="midnightblue" d="M331.65,-374.98C307.61,-364.9 267.4,-348.05 239.84,-336.5"/>
<polygon fill="midnightblue" stroke="midnightblue" points="240.88,-333.15 230.31,-332.51 238.18,-339.6 240.88,-333.15"/>
</g>
<!-- Node8&#45;&gt;Node3 -->
<g id="edge8" class="edge">
<title>Node8&#45;&gt;Node3</title>
<path fill="none" stroke="midnightblue" d="M192.25,-257.28C195.59,-235.55 205.95,-177.65 227,-134 232.93,-121.71 241.94,-109.32 249.59,-99.9"/>
<polygon fill="midnightblue" stroke="midnightblue" points="252.34,-102.06 256.1,-92.16 246.98,-97.56 252.34,-102.06"/>
</g>
<!-- Node10&#45;&gt;Node3 -->
<g id="edge11" class="edge">
<title>Node10&#45;&gt;Node3</title>
<path fill="none" stroke="midnightblue" d="M492.03,-313.43C439.98,-295.34 326.18,-247.96 274,-165 262.11,-146.09 261.03,-119.8 261.98,-102.25"/>
<polygon fill="midnightblue" stroke="midnightblue" points="265.48,-102.39 262.8,-92.14 258.5,-101.82 265.48,-102.39"/>
</g>
<!-- Node11 -->
<g id="node11" class="node">
<title>Node11</title>
<g id="a_node11"><a xlink:title=" ">
<polygon fill="none" stroke="#bfbfbf" points="980,-140 980,-159 1044,-159 1044,-140 980,-140"/>
<text text-anchor="middle" x="1012" y="-147" font-family="Helvetica,sans-Serif" font-size="10.00">algorithm</text>
</a>
</g>
</g>
<!-- Node10&#45;&gt;Node11 -->
<g id="edge12" class="edge">
<title>Node10&#45;&gt;Node11</title>
<path fill="none" stroke="midnightblue" d="M599.22,-315.94C721.25,-305.01 945.04,-277.66 999,-221 1011.99,-207.37 1014.16,-185.23 1013.77,-169.39"/>
<polygon fill="midnightblue" stroke="midnightblue" points="1017.25,-168.96 1013.15,-159.19 1010.27,-169.39 1017.25,-168.96"/>
</g>
<!-- Node12 -->
<g id="node12" class="node">
<title>Node12</title>
<g id="a_node12"><a xlink:title=" ">
<polygon fill="none" stroke="#bfbfbf" points="401.5,-201.5 401.5,-220.5 466.5,-220.5 466.5,-201.5 401.5,-201.5"/>
<text text-anchor="middle" x="434" y="-208.5" font-family="Helvetica,sans-Serif" font-size="10.00">functional</text>
</a>
</g>
</g>
<!-- Node10&#45;&gt;Node12 -->
<g id="edge13" class="edge">
<title>Node10&#45;&gt;Node12</title>
<path fill="none" stroke="midnightblue" d="M512.33,-313.37C498.24,-295.14 465.24,-252.43 446.89,-228.68"/>
<polygon fill="midnightblue" stroke="midnightblue" points="449.52,-226.36 440.64,-220.59 443.98,-230.64 449.52,-226.36"/>
</g>
<!-- Node13 -->
<g id="node13" class="node">
<title>Node13</title>
<g id="a_node13"><a xlink:href="XalanMap_8hpp.html" target="_top" xlink:title=" ">
<polygon fill="none" stroke="black" points="592,-257.5 592,-276.5 752,-276.5 752,-257.5 592,-257.5"/>
<text text-anchor="middle" x="672" y="-264.5" font-family="Helvetica,sans-Serif" font-size="10.00">xalanc/Include/XalanMap.hpp</text>
</a>
</g>
</g>
<!-- Node10&#45;&gt;Node13 -->
<g id="edge14" class="edge">
<title>Node10&#45;&gt;Node13</title>
<path fill="none" stroke="midnightblue" d="M543.24,-313.44C568.87,-304.4 609.49,-290.06 638.24,-279.92"/>
<polygon fill="midnightblue" stroke="midnightblue" points="639.61,-283.15 647.87,-276.52 637.28,-276.54 639.61,-283.15"/>
</g>
<!-- Node13&#45;&gt;Node3 -->
<g id="edge15" class="edge">
<title>Node13&#45;&gt;Node3</title>
<path fill="none" stroke="midnightblue" d="M633.59,-257.43C601.13,-249.62 553.71,-236.91 514,-221 496.28,-213.9 493.98,-207.41 476,-201 400.39,-174.03 361.27,-215.66 299,-165 279.72,-149.31 270.84,-121.01 266.91,-102.23"/>
<polygon fill="midnightblue" stroke="midnightblue" points="270.32,-101.42 265.09,-92.21 263.43,-102.67 270.32,-101.42"/>
</g>
<!-- Node13&#45;&gt;Node11 -->
<g id="edge17" class="edge">
<title>Node13&#45;&gt;Node11</title>
<path fill="none" stroke="midnightblue" d="M752.07,-262.49C830.15,-257.63 942.09,-246.36 977,-221 994.07,-208.6 1003.28,-185.52 1007.9,-169.15"/>
<polygon fill="midnightblue" stroke="midnightblue" points="1011.38,-169.65 1010.41,-159.1 1004.59,-167.95 1011.38,-169.65"/>
</g>
<!-- Node13&#45;&gt;Node12 -->
<g id="edge18" class="edge">
<title>Node13&#45;&gt;Node12</title>
<path fill="none" stroke="midnightblue" d="M634.29,-257.44C591.36,-247.7 521.41,-231.83 476.56,-221.66"/>
<polygon fill="midnightblue" stroke="midnightblue" points="477.09,-218.19 466.56,-219.39 475.54,-225.01 477.09,-218.19"/>
</g>
<!-- Node14 -->
<g id="node14" class="node">
<title>Node14</title>
<g id="a_node14"><a xlink:title=" ">
<polygon fill="none" stroke="#bfbfbf" points="730.5,-73 730.5,-92 783.5,-92 783.5,-73 730.5,-73"/>
<text text-anchor="middle" x="757" y="-80" font-family="Helvetica,sans-Serif" font-size="10.00">cstddef</text>
</a>
</g>
</g>
<!-- Node13&#45;&gt;Node14 -->
<g id="edge16" class="edge">
<title>Node13&#45;&gt;Node14</title>
<path fill="none" stroke="midnightblue" d="M752.24,-258.44C802.06,-251.9 859.47,-240.35 875,-221 887.03,-206.02 898.25,-176.02 868,-134 850.61,-109.84 818.83,-96.98 793.72,-90.3"/>
<polygon fill="midnightblue" stroke="midnightblue" points="794.32,-86.85 783.77,-87.88 792.66,-93.65 794.32,-86.85"/>
</g>
<!-- Node15 -->
<g id="node15" class="node">
<title>Node15</title>
<g id="a_node15"><a xlink:title=" ">
<polygon fill="none" stroke="#bfbfbf" points="922.5,-201.5 922.5,-220.5 967.5,-220.5 967.5,-201.5 922.5,-201.5"/>
<text text-anchor="middle" x="945" y="-208.5" font-family="Helvetica,sans-Serif" font-size="10.00">utility</text>
</a>
</g>
</g>
<!-- Node13&#45;&gt;Node15 -->
<g id="edge19" class="edge">
<title>Node13&#45;&gt;Node15</title>
<path fill="none" stroke="midnightblue" d="M720.51,-257.49C768.32,-248.92 843.39,-235.01 908,-221 909.45,-220.68 910.94,-220.36 912.44,-220.02"/>
<polygon fill="midnightblue" stroke="midnightblue" points="913.4,-223.39 922.34,-217.7 911.81,-216.57 913.4,-223.39"/>
</g>
<!-- Node13&#45;&gt;Node16 -->
<g id="edge20" class="edge">
<title>Node13&#45;&gt;Node16</title>
<path fill="none" stroke="midnightblue" d="M661.56,-257.32C651.85,-249.26 637.18,-237.08 625.5,-227.37"/>
<polygon fill="midnightblue" stroke="midnightblue" points="627.56,-224.53 617.63,-220.83 623.09,-229.92 627.56,-224.53"/>
</g>
<!-- Node22 -->
<g id="node22" class="node">
<title>Node22</title>
<g id="a_node22"><a xlink:href="XalanList_8hpp.html" target="_top" xlink:title=" ">
<polygon fill="none" stroke="black" points="710,-201.5 710,-220.5 866,-220.5 866,-201.5 710,-201.5"/>
<text text-anchor="middle" x="788" y="-208.5" font-family="Helvetica,sans-Serif" font-size="10.00">xalanc/Include/XalanList.hpp</text>
</a>
</g>
</g>
<!-- Node13&#45;&gt;Node22 -->
<g id="edge34" class="edge">
<title>Node13&#45;&gt;Node22</title>
<path fill="none" stroke="midnightblue" d="M690.38,-257.44C709.22,-248.68 738.73,-234.94 760.38,-224.86"/>
<polygon fill="midnightblue" stroke="midnightblue" points="762.12,-227.91 769.71,-220.52 759.16,-221.56 762.12,-227.91"/>
</g>
<!-- Node16&#45;&gt;Node3 -->
<g id="edge21" class="edge">
<title>Node16&#45;&gt;Node3</title>
<path fill="none" stroke="midnightblue" d="M522.24,-201.57C456.55,-193.95 371.72,-181.42 341,-165 312.23,-149.63 288.13,-119.46 274.92,-100.45"/>
<polygon fill="midnightblue" stroke="midnightblue" points="277.81,-98.48 269.33,-92.13 272,-102.38 277.81,-98.48"/>
</g>
<!-- Node16&#45;&gt;Node9 -->
<g id="edge24" class="edge">
<title>Node16&#45;&gt;Node9</title>
<path fill="none" stroke="midnightblue" d="M611.03,-201.35C618.96,-185.35 638.17,-151.19 665,-134 695.95,-114.17 798.3,-96.8 853.67,-88.57"/>
<polygon fill="midnightblue" stroke="midnightblue" points="854.37,-92 863.76,-87.09 853.36,-85.08 854.37,-92"/>
</g>
<!-- Node16&#45;&gt;Node11 -->
<g id="edge23" class="edge">
<title>Node16&#45;&gt;Node11</title>
<path fill="none" stroke="midnightblue" d="M665.03,-201.48C747.58,-189.35 896.98,-167.4 969.8,-156.7"/>
<polygon fill="midnightblue" stroke="midnightblue" points="970.59,-160.12 979.98,-155.2 969.57,-153.2 970.59,-160.12"/>
</g>
<!-- Node16&#45;&gt;Node14 -->
<g id="edge22" class="edge">
<title>Node16&#45;&gt;Node14</title>
<path fill="none" stroke="midnightblue" d="M607.4,-201.29C608.56,-185.8 613.12,-153.28 631,-134 654.48,-108.68 692.35,-95.8 720.45,-89.42"/>
<polygon fill="midnightblue" stroke="midnightblue" points="721.25,-92.83 730.32,-87.35 719.81,-85.98 721.25,-92.83"/>
</g>
<!-- Node17 -->
<g id="node17" class="node">
<title>Node17</title>
<g id="a_node17"><a xlink:title=" ">
<polygon fill="none" stroke="#bfbfbf" points="556.5,-73 556.5,-92 593.5,-92 593.5,-73 556.5,-73"/>
<text text-anchor="middle" x="575" y="-80" font-family="Helvetica,sans-Serif" font-size="10.00">new</text>
</a>
</g>
</g>
<!-- Node16&#45;&gt;Node17 -->
<g id="edge25" class="edge">
<title>Node16&#45;&gt;Node17</title>
<path fill="none" stroke="midnightblue" d="M604.1,-201.44C601.1,-192.43 596.4,-177.81 593,-165 587.32,-143.61 582.01,-118.73 578.65,-102.14"/>
<polygon fill="midnightblue" stroke="midnightblue" points="582.04,-101.25 576.66,-92.12 575.18,-102.61 582.04,-101.25"/>
</g>
<!-- Node18 -->
<g id="node18" class="node">
<title>Node18</title>
<g id="a_node18"><a xlink:title=" ">
<polygon fill="none" stroke="#bfbfbf" points="756.5,-140 756.5,-159 809.5,-159 809.5,-140 756.5,-140"/>
<text text-anchor="middle" x="783" y="-147" font-family="Helvetica,sans-Serif" font-size="10.00">iterator</text>
</a>
</g>
</g>
<!-- Node16&#45;&gt;Node18 -->
<g id="edge26" class="edge">
<title>Node16&#45;&gt;Node18</title>
<path fill="none" stroke="midnightblue" d="M636.14,-201.48C664.82,-192.91 709.75,-179 748,-165 749.85,-164.32 751.75,-163.6 753.66,-162.86"/>
<polygon fill="midnightblue" stroke="midnightblue" points="755.14,-166.04 763.12,-159.07 752.54,-159.54 755.14,-166.04"/>
</g>
<!-- Node19 -->
<g id="node19" class="node">
<title>Node19</title>
<g id="a_node19"><a xlink:title=" ">
<polygon fill="none" stroke="#bfbfbf" points="673.5,-140 673.5,-159 738.5,-159 738.5,-140 673.5,-140"/>
<text text-anchor="middle" x="706" y="-147" font-family="Helvetica,sans-Serif" font-size="10.00">stdexcept</text>
</a>
</g>
</g>
<!-- Node16&#45;&gt;Node19 -->
<g id="edge27" class="edge">
<title>Node16&#45;&gt;Node19</title>
<path fill="none" stroke="midnightblue" d="M621.18,-201.48C637.36,-191.75 664.03,-175.73 683.14,-164.24"/>
<polygon fill="midnightblue" stroke="midnightblue" points="685.07,-167.16 691.84,-159.01 681.47,-161.16 685.07,-167.16"/>
</g>
<!-- Node16&#45;&gt;Node20 -->
<g id="edge28" class="edge">
<title>Node16&#45;&gt;Node20</title>
<path fill="none" stroke="midnightblue" d="M586.23,-201.48C565.3,-192.89 532.39,-179.38 505.69,-168.43"/>
<polygon fill="midnightblue" stroke="midnightblue" points="506.75,-165.08 496.17,-164.52 504.1,-171.56 506.75,-165.08"/>
</g>
<!-- Node20&#45;&gt;Node3 -->
<g id="edge29" class="edge">
<title>Node20&#45;&gt;Node3</title>
<path fill="none" stroke="midnightblue" d="M419.04,-134.4C383.37,-122.69 333.24,-106.23 299.74,-95.23"/>
<polygon fill="midnightblue" stroke="midnightblue" points="300.51,-91.8 289.91,-92.01 298.32,-98.45 300.51,-91.8"/>
</g>
<!-- Node20&#45;&gt;Node9 -->
<g id="edge30" class="edge">
<title>Node20&#45;&gt;Node9</title>
<path fill="none" stroke="midnightblue" d="M541,-136.5C634.28,-122.34 785.39,-99.39 854.03,-88.96"/>
<polygon fill="midnightblue" stroke="midnightblue" points="854.57,-92.42 863.93,-87.46 853.52,-85.5 854.57,-92.42"/>
</g>
<!-- Node20&#45;&gt;Node14 -->
<g id="edge31" class="edge">
<title>Node20&#45;&gt;Node14</title>
<path fill="none" stroke="midnightblue" d="M525.65,-134.48C585.1,-121.38 671.78,-102.28 720.41,-91.56"/>
<polygon fill="midnightblue" stroke="midnightblue" points="721.17,-94.98 730.18,-89.41 719.66,-88.14 721.17,-94.98"/>
</g>
<!-- Node20&#45;&gt;Node17 -->
<g id="edge32" class="edge">
<title>Node20&#45;&gt;Node17</title>
<path fill="none" stroke="midnightblue" d="M486.52,-134.4C505.73,-123.34 532.3,-108.06 551.3,-97.13"/>
<polygon fill="midnightblue" stroke="midnightblue" points="553.29,-100.03 560.21,-92.01 549.8,-93.96 553.29,-100.03"/>
</g>
<!-- Node21 -->
<g id="node21" class="node">
<title>Node21</title>
<g id="a_node21"><a xlink:title=" ">
<polygon fill="none" stroke="#bfbfbf" points="385.5,-67.5 385.5,-97.5 538.5,-97.5 538.5,-67.5 385.5,-67.5"/>
<text text-anchor="start" x="393.5" y="-85.5" font-family="Helvetica,sans-Serif" font-size="10.00">xercesc/framework/Memory</text>
<text text-anchor="middle" x="462" y="-74.5" font-family="Helvetica,sans-Serif" font-size="10.00">Manager.hpp</text>
</a>
</g>
</g>
<!-- Node20&#45;&gt;Node21 -->
<g id="edge33" class="edge">
<title>Node20&#45;&gt;Node21</title>
<path fill="none" stroke="midnightblue" d="M462,-134.4C462,-126.64 462,-116.81 462,-107.86"/>
<polygon fill="midnightblue" stroke="midnightblue" points="465.5,-107.58 462,-97.58 458.5,-107.58 465.5,-107.58"/>
</g>
<!-- Node22&#45;&gt;Node3 -->
<g id="edge35" class="edge">
<title>Node22&#45;&gt;Node3</title>
<path fill="none" stroke="midnightblue" d="M709.57,-201.76C590.61,-189.21 377.84,-166.61 374,-165 353.89,-156.59 353.38,-147.16 336,-134 319.27,-121.33 299.74,-107.71 285.25,-97.81"/>
<polygon fill="midnightblue" stroke="midnightblue" points="287.19,-94.89 276.95,-92.16 283.25,-100.68 287.19,-94.89"/>
</g>
<!-- Node22&#45;&gt;Node9 -->
<g id="edge38" class="edge">
<title>Node22&#45;&gt;Node9</title>
<path fill="none" stroke="midnightblue" d="M814.34,-201.35C831.98,-194.25 854.4,-182.48 868,-165 882.24,-146.69 887.28,-119.88 889.05,-102.07"/>
<polygon fill="midnightblue" stroke="midnightblue" points="892.55,-102.3 889.8,-92.07 885.57,-101.78 892.55,-102.3"/>
</g>
<!-- Node22&#45;&gt;Node11 -->
<g id="edge37" class="edge">
<title>Node22&#45;&gt;Node11</title>
<path fill="none" stroke="midnightblue" d="M824.3,-201.47C860.39,-192.84 917.24,-178.83 966,-165 969.32,-164.06 972.77,-163.04 976.21,-162"/>
<polygon fill="midnightblue" stroke="midnightblue" points="977.28,-165.33 985.81,-159.04 975.22,-158.65 977.28,-165.33"/>
</g>
<!-- Node22&#45;&gt;Node14 -->
<g id="edge36" class="edge">
<title>Node22&#45;&gt;Node14</title>
<path fill="none" stroke="midnightblue" d="M809.48,-201.36C824.39,-194.09 843.11,-182.12 852,-165 858.35,-152.77 859.1,-145.81 852,-134 839.29,-112.85 814.41,-100.08 793.3,-92.68"/>
<polygon fill="midnightblue" stroke="midnightblue" points="794.2,-89.29 783.61,-89.55 792.05,-95.95 794.2,-89.29"/>
</g>
<!-- Node22&#45;&gt;Node17 -->
<g id="edge39" class="edge">
<title>Node22&#45;&gt;Node17</title>
<path fill="none" stroke="midnightblue" d="M796.98,-201.16C811.27,-186.02 835.92,-154.77 819,-134 792.13,-101 662.43,-88.89 603.84,-85.06"/>
<polygon fill="midnightblue" stroke="midnightblue" points="603.96,-81.56 593.77,-84.44 603.53,-88.55 603.96,-81.56"/>
</g>
<!-- Node22&#45;&gt;Node18 -->
<g id="edge40" class="edge">
<title>Node22&#45;&gt;Node18</title>
<path fill="none" stroke="midnightblue" d="M787.28,-201.48C786.58,-193.08 785.48,-179.98 784.57,-169.16"/>
<polygon fill="midnightblue" stroke="midnightblue" points="788.04,-168.68 783.72,-159.01 781.06,-169.27 788.04,-168.68"/>
</g>
<!-- Node22&#45;&gt;Node19 -->
<g id="edge41" class="edge">
<title>Node22&#45;&gt;Node19</title>
<path fill="none" stroke="midnightblue" d="M776.25,-201.48C763.22,-192.02 741.96,-176.6 726.24,-165.19"/>
<polygon fill="midnightblue" stroke="midnightblue" points="727.88,-162.05 717.73,-159.01 723.77,-167.71 727.88,-162.05"/>
</g>
<!-- Node22&#45;&gt;Node20 -->
<g id="edge42" class="edge">
<title>Node22&#45;&gt;Node20</title>
<path fill="none" stroke="midnightblue" d="M741.29,-201.48C691.26,-192.34 610.73,-177.64 548.96,-166.37"/>
<polygon fill="midnightblue" stroke="midnightblue" points="549.3,-162.88 538.83,-164.52 548.04,-169.76 549.3,-162.88"/>
</g>
<!-- Node23&#45;&gt;Node8 -->
<g id="edge46" class="edge">
<title>Node23&#45;&gt;Node8</title>
<path fill="none" stroke="midnightblue" d="M206.86,-313.08C204.32,-305.85 200.64,-295.41 197.47,-286.4"/>
<polygon fill="midnightblue" stroke="midnightblue" points="200.7,-285.02 194.08,-276.75 194.1,-287.35 200.7,-285.02"/>
</g>
</g>
</svg>
        <g id="navigator" transform="translate(0 0)" fill="#404254">
                <rect fill="#f2f5e9" fill-opacity="0.5" stroke="#606060" stroke-width=".5" x="0" y="0" width="60" height="60"/>
                <use id="zoomplus" xlink:href="#zoomPlus" x="17" y="9" onmousedown="handleZoom(evt,'in')"/>
                <use id="zoomminus" xlink:href="#zoomMin" x="42" y="9" onmousedown="handleZoom(evt,'out')"/>
                <use id="reset" xlink:href="#resetDef" x="30" y="36" onmousedown="handleReset()"/>
                <g id="arrowUp" xlink:href="#dirArrow" transform="translate(30 24)" onmousedown="handlePan(0,-1)">
                  <use xlink:href="#rim" fill="#404040">
                        <set attributeName="fill" to="#808080" begin="arrowUp.mouseover" end="arrowUp.mouseout"/>
                  </use>
                  <path fill="none" stroke="white" stroke-width="1.5" d="M0,-3.0v7 M-2.5,-0.5L0,-3.0L2.5,-0.5"/>
                </g>
                <g id="arrowRight" xlink:href="#dirArrow" transform="rotate(90) translate(36 -43)" onmousedown="handlePan(1,0)">
                  <use xlink:href="#rim" fill="#404040">
                        <set attributeName="fill" to="#808080" begin="arrowRight.mouseover" end="arrowRight.mouseout"/>
                  </use>
                  <path fill="none" stroke="white" stroke-width="1.5" d="M0,-3.0v7 M-2.5,-0.5L0,-3.0L2.5,-0.5"/>
                </g>
                <g id="arrowDown" xlink:href="#dirArrow" transform="rotate(180) translate(-30 -48)" onmousedown="handlePan(0,1)">
                  <use xlink:href="#rim" fill="#404040">
                        <set attributeName="fill" to="#808080" begin="arrowDown.mouseover" end="arrowDown.mouseout"/>
                  </use>
                  <path fill="none" stroke="white" stroke-width="1.5" d="M0,-3.0v7 M-2.5,-0.5L0,-3.0L2.5,-0.5"/>
                </g>
                <g id="arrowLeft" xlink:href="#dirArrow" transform="rotate(270) translate(-36 17)" onmousedown="handlePan(-1,0)">
                  <use xlink:href="#rim" fill="#404040">
                        <set attributeName="fill" to="#808080" begin="arrowLeft.mouseover" end="arrowLeft.mouseout"/>
                  </use>
                  <path fill="none" stroke="white" stroke-width="1.5" d="M0,-3.0v7 M-2.5,-0.5L0,-3.0L2.5,-0.5"/>
                </g>
        </g>
        <svg viewBox="0 0 15 15" width="100%" height="30px" preserveAspectRatio="xMaxYMin meet">
         <g id="arrow_out" transform="scale(0.3 0.3)">
          <a xlink:href="XalanSourceTreeHelper_8hpp__incl_org.svg" target="_base">
           <rect id="button" ry="5" rx="5" y="6" x="6" height="38" width="38"
                fill="#f2f5e9" fill-opacity="0.5" stroke="#606060" stroke-width="1.0"/>
           <path id="arrow"
             d="M 11.500037,31.436501 C 11.940474,20.09759 22.043105,11.32322 32.158766,21.979434 L 37.068811,17.246167 C 37.068811,17.246167 37.088388,32 37.088388,32 L 22.160133,31.978069 C 22.160133,31.978069 26.997745,27.140456 26.997745,27.140456 C 18.528582,18.264221 13.291696,25.230495 11.500037,31.436501 z"
             style="fill:#404040;"/>
          </a>
         </g>
        </svg>
</svg>
