<?xml version="1.0" encoding="UTF-8" standalone="no"?>
<!DOCTYPE svg PUBLIC "-//W3C//DTD SVG 1.1//EN"
 "http://www.w3.org/Graphics/SVG/1.1/DTD/svg11.dtd">
<!-- Generated by graphviz version 2.43.0 (0)
 -->
<!-- Title: xalanc/XalanTransformer/XalanParsedSource.hpp Pages: 1 -->
<svg width="944pt" height="184pt"
 viewBox="0.00 0.00 944.00 184.00" xmlns="http://www.w3.org/2000/svg" xmlns:xlink="http://www.w3.org/1999/xlink">
<g id="graph0" class="graph" transform="scale(1 1) rotate(0) translate(4 180)">
<title>xalanc/XalanTransformer/XalanParsedSource.hpp</title>
<!-- Node1 -->
<g id="node1" class="node">
<title>Node1</title>
<g id="a_node1"><a xlink:title=" ">
<polygon fill="#bfbfbf" stroke="black" points="376,-145.5 376,-175.5 514,-175.5 514,-145.5 376,-145.5"/>
<text text-anchor="start" x="384" y="-163.5" font-family="Helvetica,sans-Serif" font-size="10.00">xalanc/XalanTransformer</text>
<text text-anchor="middle" x="445" y="-152.5" font-family="Helvetica,sans-Serif" font-size="10.00">/XalanParsedSource.hpp</text>
</a>
</g>
</g>
<!-- Node2 -->
<g id="node2" class="node">
<title>Node2</title>
<g id="a_node2"><a xlink:href="XalanDefaultParsedSource_8hpp.html" target="_top" xlink:title=" ">
<polygon fill="none" stroke="black" points="0,-73 0,-103 170,-103 170,-73 0,-73"/>
<text text-anchor="start" x="8" y="-91" font-family="Helvetica,sans-Serif" font-size="10.00">xalanc/XalanTransformer</text>
<text text-anchor="middle" x="85" y="-80" font-family="Helvetica,sans-Serif" font-size="10.00">/XalanDefaultParsedSource.hpp</text>
</a>
</g>
</g>
<!-- Node1&#45;&gt;Node2 -->
<g id="edge1" class="edge">
<title>Node1&#45;&gt;Node2</title>
<path fill="none" stroke="midnightblue" d="M365.75,-144.93C312.81,-135.08 241.66,-121.61 179,-109 169.59,-107.11 159.67,-105.06 149.94,-103.01"/>
<polygon fill="midnightblue" stroke="midnightblue" points="365.28,-148.4 375.75,-146.78 366.56,-141.52 365.28,-148.4"/>
</g>
<!-- Node3 -->
<g id="node3" class="node">
<title>Node3</title>
<g id="a_node3"><a xlink:href="XalanDocumentBuilder_8hpp.html" target="_top" xlink:title=" ">
<polygon fill="none" stroke="black" points="188,-73 188,-103 340,-103 340,-73 188,-73"/>
<text text-anchor="start" x="196" y="-91" font-family="Helvetica,sans-Serif" font-size="10.00">xalanc/XalanTransformer</text>
<text text-anchor="middle" x="264" y="-80" font-family="Helvetica,sans-Serif" font-size="10.00">/XalanDocumentBuilder.hpp</text>
</a>
</g>
</g>
<!-- Node1&#45;&gt;Node3 -->
<g id="edge2" class="edge">
<title>Node1&#45;&gt;Node3</title>
<path fill="none" stroke="midnightblue" d="M399.18,-141.65C368.47,-129.69 328.6,-114.16 300.13,-103.07"/>
<polygon fill="midnightblue" stroke="midnightblue" points="398.22,-145.03 408.81,-145.4 400.76,-138.51 398.22,-145.03"/>
</g>
<!-- Node5 -->
<g id="node5" class="node">
<title>Node5</title>
<g id="a_node5"><a xlink:href="XalanSourceTreeWrapperParsedSource_8hpp.html" target="_top" xlink:title=" ">
<polygon fill="none" stroke="black" points="358,-67.5 358,-108.5 532,-108.5 532,-67.5 358,-67.5"/>
<text text-anchor="start" x="366" y="-96.5" font-family="Helvetica,sans-Serif" font-size="10.00">xalanc/XalanTransformer</text>
<text text-anchor="start" x="366" y="-85.5" font-family="Helvetica,sans-Serif" font-size="10.00">/XalanSourceTreeWrapperParsed</text>
<text text-anchor="middle" x="445" y="-74.5" font-family="Helvetica,sans-Serif" font-size="10.00">Source.hpp</text>
</a>
</g>
</g>
<!-- Node1&#45;&gt;Node5 -->
<g id="edge4" class="edge">
<title>Node1&#45;&gt;Node5</title>
<path fill="none" stroke="midnightblue" d="M445,-134.98C445,-126.35 445,-116.76 445,-108.59"/>
<polygon fill="midnightblue" stroke="midnightblue" points="441.5,-135.23 445,-145.23 448.5,-135.23 441.5,-135.23"/>
</g>
<!-- Node6 -->
<g id="node6" class="node">
<title>Node6</title>
<g id="a_node6"><a xlink:href="XercesDOMParsedSource_8hpp.html" target="_top" xlink:title=" ">
<polygon fill="none" stroke="black" points="550.5,-73 550.5,-103 713.5,-103 713.5,-73 550.5,-73"/>
<text text-anchor="start" x="558.5" y="-91" font-family="Helvetica,sans-Serif" font-size="10.00">xalanc/XalanTransformer</text>
<text text-anchor="middle" x="632" y="-80" font-family="Helvetica,sans-Serif" font-size="10.00">/XercesDOMParsedSource.hpp</text>
</a>
</g>
</g>
<!-- Node1&#45;&gt;Node6 -->
<g id="edge5" class="edge">
<title>Node1&#45;&gt;Node6</title>
<path fill="none" stroke="midnightblue" d="M491.92,-141.81C523.71,-129.83 565.13,-114.21 594.67,-103.07"/>
<polygon fill="midnightblue" stroke="midnightblue" points="490.52,-138.6 482.39,-145.4 492.98,-145.15 490.52,-138.6"/>
</g>
<!-- Node7 -->
<g id="node7" class="node">
<title>Node7</title>
<g id="a_node7"><a xlink:href="XercesDOMWrapperParsedSource_8hpp.html" target="_top" xlink:title=" ">
<polygon fill="none" stroke="black" points="732,-73 732,-103 936,-103 936,-73 732,-73"/>
<text text-anchor="start" x="740" y="-91" font-family="Helvetica,sans-Serif" font-size="10.00">xalanc/XalanTransformer</text>
<text text-anchor="middle" x="834" y="-80" font-family="Helvetica,sans-Serif" font-size="10.00">/XercesDOMWrapperParsedSource.hpp</text>
</a>
</g>
</g>
<!-- Node1&#45;&gt;Node7 -->
<g id="edge6" class="edge">
<title>Node1&#45;&gt;Node7</title>
<path fill="none" stroke="midnightblue" d="M524.31,-145.13C592.15,-132.83 689.23,-115.24 756.54,-103.04"/>
<polygon fill="midnightblue" stroke="midnightblue" points="523.31,-141.75 514.1,-146.98 524.56,-148.64 523.31,-141.75"/>
</g>
<!-- Node4 -->
<g id="node4" class="node">
<title>Node4</title>
<g id="a_node4"><a xlink:href="XalanDefaultDocumentBuilder_8hpp.html" target="_top" xlink:title=" ">
<polygon fill="none" stroke="black" points="170,-0.5 170,-30.5 358,-30.5 358,-0.5 170,-0.5"/>
<text text-anchor="start" x="178" y="-18.5" font-family="Helvetica,sans-Serif" font-size="10.00">xalanc/XalanTransformer</text>
<text text-anchor="middle" x="264" y="-7.5" font-family="Helvetica,sans-Serif" font-size="10.00">/XalanDefaultDocumentBuilder.hpp</text>
</a>
</g>
</g>
<!-- Node3&#45;&gt;Node4 -->
<g id="edge3" class="edge">
<title>Node3&#45;&gt;Node4</title>
<path fill="none" stroke="midnightblue" d="M264,-62.73C264,-52.07 264,-39.91 264,-30.75"/>
<polygon fill="midnightblue" stroke="midnightblue" points="260.5,-62.73 264,-72.73 267.5,-62.73 260.5,-62.73"/>
</g>
</g>
</svg>
