<?xml version="1.0" encoding="UTF-8" standalone="no"?>
<!DOCTYPE svg PUBLIC "-//W3C//DTD SVG 1.1//EN"
 "http://www.w3.org/Graphics/SVG/1.1/DTD/svg11.dtd">
<!-- Generated by graphviz version 2.38.0 (20140413.2041)
 -->
<!-- Title: xalanc/PlatformSupport/XalanCollationServices.hpp Pages: 1 -->
<svg width="978pt" height="363pt"
 viewBox="0.00 0.00 977.97 363.00" xmlns="http://www.w3.org/2000/svg" xmlns:xlink="http://www.w3.org/1999/xlink">
<g id="graph0" class="graph" transform="scale(1 1) rotate(0) translate(4 359)">
<title>xalanc/PlatformSupport/XalanCollationServices.hpp</title>
<!-- Node1 -->
<g id="node1" class="node"><title>Node1</title>
<g id="a_node1"><a xlink:title=" ">
<polygon fill="#bfbfbf" stroke="black" points="170.5,-324.5 170.5,-354.5 306.5,-354.5 306.5,-324.5 170.5,-324.5"/>
<text text-anchor="start" x="178.5" y="-342.5" font-family="Helvetica,sans-Serif" font-size="10.00">xalanc/PlatformSupport</text>
<text text-anchor="middle" x="238.5" y="-331.5" font-family="Helvetica,sans-Serif" font-size="10.00">/XalanCollationServices.hpp</text>
</a>
</g>
</g>
<!-- Node2 -->
<g id="node2" class="node"><title>Node2</title>
<g id="a_node2"><a xlink:href="ICUBridgeCollationCompareFunctor_8hpp.html" target="_top" xlink:title=" ">
<polygon fill="none" stroke="black" points="0,-257.5 0,-287.5 145,-287.5 145,-257.5 0,-257.5"/>
<text text-anchor="start" x="8" y="-275.5" font-family="Helvetica,sans-Serif" font-size="10.00">xalanc/ICUBridge/ICUBridge</text>
<text text-anchor="middle" x="72.5" y="-264.5" font-family="Helvetica,sans-Serif" font-size="10.00">CollationCompareFunctor.hpp</text>
</a>
</g>
</g>
<!-- Node1&#45;&gt;Node2 -->
<g id="edge1" class="edge"><title>Node1&#45;&gt;Node2</title>
<path fill="none" stroke="midnightblue" d="M192.994,-320.682C166.371,-310.257 133.232,-297.281 108.449,-287.577"/>
<polygon fill="midnightblue" stroke="midnightblue" points="191.893,-324.009 202.48,-324.396 194.445,-317.491 191.893,-324.009"/>
</g>
<!-- Node3 -->
<g id="node3" class="node"><title>Node3</title>
<g id="a_node3"><a xlink:href="NodeSortKey_8hpp.html" target="_top" xlink:title=" ">
<polygon fill="none" stroke="black" points="163.5,-263 163.5,-282 313.5,-282 313.5,-263 163.5,-263"/>
<text text-anchor="middle" x="238.5" y="-270" font-family="Helvetica,sans-Serif" font-size="10.00">xalanc/XSLT/NodeSortKey.hpp</text>
</a>
</g>
</g>
<!-- Node1&#45;&gt;Node3 -->
<g id="edge2" class="edge"><title>Node1&#45;&gt;Node3</title>
<path fill="none" stroke="midnightblue" d="M238.5,-314.25C238.5,-303.017 238.5,-290.377 238.5,-282.195"/>
<polygon fill="midnightblue" stroke="midnightblue" points="235,-314.396 238.5,-324.396 242,-314.396 235,-314.396"/>
</g>
<!-- Node10 -->
<g id="node10" class="node"><title>Node10</title>
<g id="a_node10"><a xlink:href="StylesheetExecutionContext_8hpp.html" target="_top" xlink:title=" ">
<polygon fill="none" stroke="black" points="383.5,-257.5 383.5,-287.5 547.5,-287.5 547.5,-257.5 383.5,-257.5"/>
<text text-anchor="start" x="391.5" y="-275.5" font-family="Helvetica,sans-Serif" font-size="10.00">xalanc/XSLT/StylesheetExecution</text>
<text text-anchor="middle" x="465.5" y="-264.5" font-family="Helvetica,sans-Serif" font-size="10.00">Context.hpp</text>
</a>
</g>
</g>
<!-- Node1&#45;&gt;Node10 -->
<g id="edge9" class="edge"><title>Node1&#45;&gt;Node10</title>
<path fill="none" stroke="midnightblue" d="M297.119,-321.715C334.059,-311.137 381.214,-297.635 416.22,-287.611"/>
<polygon fill="midnightblue" stroke="midnightblue" points="296.126,-318.358 287.476,-324.476 298.053,-325.088 296.126,-318.358"/>
</g>
<!-- Node4 -->
<g id="node4" class="node"><title>Node4</title>
<g id="a_node4"><a xlink:href="NodeSorter_8hpp.html" target="_top" xlink:title=" ">
<polygon fill="none" stroke="black" points="115,-201.5 115,-220.5 256,-220.5 256,-201.5 115,-201.5"/>
<text text-anchor="middle" x="185.5" y="-208.5" font-family="Helvetica,sans-Serif" font-size="10.00">xalanc/XSLT/NodeSorter.hpp</text>
</a>
</g>
</g>
<!-- Node3&#45;&gt;Node4 -->
<g id="edge3" class="edge"><title>Node3&#45;&gt;Node4</title>
<path fill="none" stroke="midnightblue" d="M224.246,-255.497C214.214,-244.236 201.181,-229.604 193.08,-220.509"/>
<polygon fill="midnightblue" stroke="midnightblue" points="221.641,-257.836 230.906,-262.975 226.868,-253.18 221.641,-257.836"/>
</g>
<!-- Node5 -->
<g id="node5" class="node"><title>Node5</title>
<g id="a_node5"><a xlink:href="StylesheetExecutionContextDefault_8hpp.html" target="_top" xlink:title=" ">
<polygon fill="none" stroke="black" points="205.5,-67.5 205.5,-97.5 369.5,-97.5 369.5,-67.5 205.5,-67.5"/>
<text text-anchor="start" x="213.5" y="-85.5" font-family="Helvetica,sans-Serif" font-size="10.00">xalanc/XSLT/StylesheetExecution</text>
<text text-anchor="middle" x="287.5" y="-74.5" font-family="Helvetica,sans-Serif" font-size="10.00">ContextDefault.hpp</text>
</a>
</g>
</g>
<!-- Node4&#45;&gt;Node5 -->
<g id="edge4" class="edge"><title>Node4&#45;&gt;Node5</title>
<path fill="none" stroke="midnightblue" d="M198.838,-193.459C218.981,-168.477 256.832,-121.534 275.899,-97.888"/>
<polygon fill="midnightblue" stroke="midnightblue" points="196.063,-191.324 192.511,-201.305 201.512,-195.717 196.063,-191.324"/>
</g>
<!-- Node6 -->
<g id="node6" class="node"><title>Node6</title>
<g id="a_node6"><a xlink:href="ICUBridgeCollationCompareFunctorImpl_8hpp.html" target="_top" xlink:title=" ">
<polygon fill="none" stroke="black" points="206,-0.5 206,-30.5 369,-30.5 369,-0.5 206,-0.5"/>
<text text-anchor="start" x="214" y="-18.5" font-family="Helvetica,sans-Serif" font-size="10.00">xalanc/ICUBridge/ICUBridge</text>
<text text-anchor="middle" x="287.5" y="-7.5" font-family="Helvetica,sans-Serif" font-size="10.00">CollationCompareFunctorImpl.hpp</text>
</a>
</g>
</g>
<!-- Node5&#45;&gt;Node6 -->
<g id="edge5" class="edge"><title>Node5&#45;&gt;Node6</title>
<path fill="none" stroke="midnightblue" d="M287.5,-57.1081C287.5,-48.1539 287.5,-38.3227 287.5,-30.5765"/>
<polygon fill="midnightblue" stroke="midnightblue" points="284,-57.3959 287.5,-67.396 291,-57.396 284,-57.3959"/>
</g>
<!-- Node7 -->
<g id="node7" class="node"><title>Node7</title>
<g id="a_node7"><a xlink:href="ICUFormatNumberFunctor_8hpp.html" target="_top" xlink:title=" ">
<polygon fill="none" stroke="black" points="387,-0.5 387,-30.5 528,-30.5 528,-0.5 387,-0.5"/>
<text text-anchor="start" x="395" y="-18.5" font-family="Helvetica,sans-Serif" font-size="10.00">xalanc/ICUBridge/ICUFormat</text>
<text text-anchor="middle" x="457.5" y="-7.5" font-family="Helvetica,sans-Serif" font-size="10.00">NumberFunctor.hpp</text>
</a>
</g>
</g>
<!-- Node5&#45;&gt;Node7 -->
<g id="edge6" class="edge"><title>Node5&#45;&gt;Node7</title>
<path fill="none" stroke="midnightblue" d="M333.744,-63.8185C361.069,-53.3707 395.193,-40.3231 420.685,-30.5765"/>
<polygon fill="midnightblue" stroke="midnightblue" points="332.478,-60.5553 324.387,-67.396 334.978,-67.0937 332.478,-60.5553"/>
</g>
<!-- Node8 -->
<g id="node8" class="node"><title>Node8</title>
<g id="a_node8"><a xlink:href="ICUXalanNumberFormatFactory_8hpp.html" target="_top" xlink:title=" ">
<polygon fill="none" stroke="black" points="53.5,-0.5 53.5,-30.5 187.5,-30.5 187.5,-0.5 53.5,-0.5"/>
<text text-anchor="start" x="61.5" y="-18.5" font-family="Helvetica,sans-Serif" font-size="10.00">xalanc/ICUBridge/ICUXalan</text>
<text text-anchor="middle" x="120.5" y="-7.5" font-family="Helvetica,sans-Serif" font-size="10.00">NumberFormatFactory.hpp</text>
</a>
</g>
</g>
<!-- Node5&#45;&gt;Node8 -->
<g id="edge7" class="edge"><title>Node5&#45;&gt;Node8</title>
<path fill="none" stroke="midnightblue" d="M241.72,-63.6815C214.937,-53.2568 181.598,-40.2805 156.666,-30.5765"/>
<polygon fill="midnightblue" stroke="midnightblue" points="240.675,-67.0304 251.263,-67.396 243.214,-60.5071 240.675,-67.0304"/>
</g>
<!-- Node9 -->
<g id="node9" class="node"><title>Node9</title>
<g id="a_node9"><a xlink:href="XalanCompiledStylesheetDefault_8hpp.html" target="_top" xlink:title=" ">
<polygon fill="none" stroke="black" points="591,-0.5 591,-30.5 770,-30.5 770,-0.5 591,-0.5"/>
<text text-anchor="start" x="599" y="-18.5" font-family="Helvetica,sans-Serif" font-size="10.00">xalanc/XalanTransformer</text>
<text text-anchor="middle" x="680.5" y="-7.5" font-family="Helvetica,sans-Serif" font-size="10.00">/XalanCompiledStylesheetDefault.hpp</text>
</a>
</g>
</g>
<!-- Node5&#45;&gt;Node9 -->
<g id="edge8" class="edge"><title>Node5&#45;&gt;Node9</title>
<path fill="none" stroke="midnightblue" d="M379.779,-66.2376C445.172,-55.422 532.235,-41.0222 595.849,-30.5007"/>
<polygon fill="midnightblue" stroke="midnightblue" points="379.18,-62.7889 369.886,-67.8739 380.323,-69.6951 379.18,-62.7889"/>
</g>
<!-- Node10&#45;&gt;Node5 -->
<g id="edge15" class="edge"><title>Node10&#45;&gt;Node5</title>
<path fill="none" stroke="midnightblue" d="M417.894,-253.339C380.499,-236.42 330.535,-207.383 304.5,-165 291.563,-143.94 288.324,-114.651 287.599,-97.523"/>
<polygon fill="midnightblue" stroke="midnightblue" points="416.545,-256.569 427.109,-257.38 419.356,-250.159 416.545,-256.569"/>
</g>
<!-- Node11 -->
<g id="node11" class="node"><title>Node11</title>
<g id="a_node11"><a xlink:href="Stylesheet_8hpp.html" target="_top" xlink:title=" ">
<polygon fill="none" stroke="black" points="615,-140 615,-159 754,-159 754,-140 615,-140"/>
<text text-anchor="middle" x="684.5" y="-147" font-family="Helvetica,sans-Serif" font-size="10.00">xalanc/XSLT/Stylesheet.hpp</text>
</a>
</g>
</g>
<!-- Node10&#45;&gt;Node11 -->
<g id="edge10" class="edge"><title>Node10&#45;&gt;Node11</title>
<path fill="none" stroke="midnightblue" d="M499.887,-252.501C548.129,-225.846 633.917,-178.448 668.949,-159.092"/>
<polygon fill="midnightblue" stroke="midnightblue" points="498.111,-249.483 491.051,-257.383 501.496,-255.61 498.111,-249.483"/>
</g>
<!-- Node14 -->
<g id="node14" class="node"><title>Node14</title>
<g id="a_node14"><a xlink:href="XResultTreeFrag_8hpp.html" target="_top" xlink:title=" ">
<polygon fill="none" stroke="black" points="383.5,-201.5 383.5,-220.5 547.5,-220.5 547.5,-201.5 383.5,-201.5"/>
<text text-anchor="middle" x="465.5" y="-208.5" font-family="Helvetica,sans-Serif" font-size="10.00">xalanc/XSLT/XResultTreeFrag.hpp</text>
</a>
</g>
</g>
<!-- Node10&#45;&gt;Node14 -->
<g id="edge16" class="edge"><title>Node10&#45;&gt;Node14</title>
<path fill="none" stroke="midnightblue" d="M465.5,-247.289C465.5,-237.857 465.5,-227.655 465.5,-220.658"/>
<polygon fill="midnightblue" stroke="midnightblue" points="462,-247.399 465.5,-257.399 469,-247.399 462,-247.399"/>
</g>
<!-- Node18 -->
<g id="node18" class="node"><title>Node18</title>
<g id="a_node18"><a xlink:href="XSLTEngineImpl_8hpp.html" target="_top" xlink:title=" ">
<polygon fill="none" stroke="black" points="776,-201.5 776,-220.5 939,-220.5 939,-201.5 776,-201.5"/>
<text text-anchor="middle" x="857.5" y="-208.5" font-family="Helvetica,sans-Serif" font-size="10.00">xalanc/XSLT/XSLTEngineImpl.hpp</text>
</a>
</g>
</g>
<!-- Node10&#45;&gt;Node18 -->
<g id="edge21" class="edge"><title>Node10&#45;&gt;Node18</title>
<path fill="none" stroke="midnightblue" d="M557.675,-257.509C633.253,-246.038 737.785,-230.171 801.354,-220.522"/>
<polygon fill="midnightblue" stroke="midnightblue" points="557.038,-254.066 547.676,-259.027 558.088,-260.986 557.038,-254.066"/>
</g>
<!-- Node11&#45;&gt;Node5 -->
<g id="edge11" class="edge"><title>Node11&#45;&gt;Node5</title>
<path fill="none" stroke="midnightblue" d="M629.087,-138.155C621.176,-136.729 613.135,-135.307 605.5,-134 593.912,-132.017 460.197,-110.827 369.89,-96.5336"/>
<polygon fill="midnightblue" stroke="midnightblue" points="628.534,-141.612 638.998,-139.955 629.785,-134.725 628.534,-141.612"/>
</g>
<!-- Node12 -->
<g id="node12" class="node"><title>Node12</title>
<g id="a_node12"><a xlink:href="StylesheetHandler_8hpp.html" target="_top" xlink:title=" ">
<polygon fill="none" stroke="black" points="778.5,-73 778.5,-92 950.5,-92 950.5,-73 778.5,-73"/>
<text text-anchor="middle" x="864.5" y="-80" font-family="Helvetica,sans-Serif" font-size="10.00">xalanc/XSLT/StylesheetHandler.hpp</text>
</a>
</g>
</g>
<!-- Node11&#45;&gt;Node12 -->
<g id="edge12" class="edge"><title>Node11&#45;&gt;Node12</title>
<path fill="none" stroke="midnightblue" d="M717.907,-136.436C753.615,-123.542 809.325,-103.424 840.785,-92.0637"/>
<polygon fill="midnightblue" stroke="midnightblue" points="716.619,-133.18 708.403,-139.869 718.997,-139.764 716.619,-133.18"/>
</g>
<!-- Node13 -->
<g id="node13" class="node"><title>Node13</title>
<g id="a_node13"><a xlink:href="StylesheetRoot_8hpp.html" target="_top" xlink:title=" ">
<polygon fill="none" stroke="black" points="601,-73 601,-92 760,-92 760,-73 601,-73"/>
<text text-anchor="middle" x="680.5" y="-80" font-family="Helvetica,sans-Serif" font-size="10.00">xalanc/XSLT/StylesheetRoot.hpp</text>
</a>
</g>
</g>
<!-- Node11&#45;&gt;Node13 -->
<g id="edge13" class="edge"><title>Node11&#45;&gt;Node13</title>
<path fill="none" stroke="midnightblue" d="M683.333,-129.537C682.572,-117.17 681.615,-101.62 681.031,-92.1273"/>
<polygon fill="midnightblue" stroke="midnightblue" points="679.853,-129.968 683.961,-139.734 686.84,-129.538 679.853,-129.968"/>
</g>
<!-- Node13&#45;&gt;Node9 -->
<g id="edge14" class="edge"><title>Node13&#45;&gt;Node9</title>
<path fill="none" stroke="midnightblue" d="M680.5,-62.4107C680.5,-52.222 680.5,-39.901 680.5,-30.589"/>
<polygon fill="midnightblue" stroke="midnightblue" points="677,-62.7338 680.5,-72.7338 684,-62.7338 677,-62.7338"/>
</g>
<!-- Node15 -->
<g id="node15" class="node"><title>Node15</title>
<g id="a_node15"><a xlink:href="FunctionNodeSet_8hpp.html" target="_top" xlink:title=" ">
<polygon fill="none" stroke="black" points="476.5,-134.5 476.5,-164.5 596.5,-164.5 596.5,-134.5 476.5,-134.5"/>
<text text-anchor="start" x="484.5" y="-152.5" font-family="Helvetica,sans-Serif" font-size="10.00">xalanc/XalanExtensions</text>
<text text-anchor="middle" x="536.5" y="-141.5" font-family="Helvetica,sans-Serif" font-size="10.00">/FunctionNodeSet.hpp</text>
</a>
</g>
</g>
<!-- Node14&#45;&gt;Node15 -->
<g id="edge17" class="edge"><title>Node14&#45;&gt;Node15</title>
<path fill="none" stroke="midnightblue" d="M483.493,-194.921C494.641,-185.579 508.862,-173.662 519.767,-164.523"/>
<polygon fill="midnightblue" stroke="midnightblue" points="481.089,-192.369 475.673,-201.475 485.585,-197.735 481.089,-192.369"/>
</g>
<!-- Node17 -->
<g id="node17" class="node"><title>Node17</title>
<g id="a_node17"><a xlink:href="XResultTreeFragAllocator_8hpp.html" target="_top" xlink:title=" ">
<polygon fill="none" stroke="black" points="313,-134.5 313,-164.5 458,-164.5 458,-134.5 313,-134.5"/>
<text text-anchor="start" x="321" y="-152.5" font-family="Helvetica,sans-Serif" font-size="10.00">xalanc/XSLT/XResultTreeFrag</text>
<text text-anchor="middle" x="385.5" y="-141.5" font-family="Helvetica,sans-Serif" font-size="10.00">Allocator.hpp</text>
</a>
</g>
</g>
<!-- Node14&#45;&gt;Node17 -->
<g id="edge19" class="edge"><title>Node14&#45;&gt;Node17</title>
<path fill="none" stroke="midnightblue" d="M445.961,-195.468C433.295,-186.047 416.883,-173.841 404.354,-164.523"/>
<polygon fill="midnightblue" stroke="midnightblue" points="443.925,-198.316 454.038,-201.475 448.103,-192.699 443.925,-198.316"/>
</g>
<!-- Node16 -->
<g id="node16" class="node"><title>Node16</title>
<g id="a_node16"><a xlink:href="XalanEXSLTCommonImpl_8hpp.html" target="_top" xlink:title=" ">
<polygon fill="none" stroke="black" points="388,-67.5 388,-97.5 583,-97.5 583,-67.5 388,-67.5"/>
<text text-anchor="start" x="396" y="-85.5" font-family="Helvetica,sans-Serif" font-size="10.00">xalanc/XalanEXSLT/XalanEXSLTCommon</text>
<text text-anchor="middle" x="485.5" y="-74.5" font-family="Helvetica,sans-Serif" font-size="10.00">Impl.hpp</text>
</a>
</g>
</g>
<!-- Node15&#45;&gt;Node16 -->
<g id="edge18" class="edge"><title>Node15&#45;&gt;Node16</title>
<path fill="none" stroke="midnightblue" d="M519.197,-126.447C511.705,-116.899 503.157,-106.004 496.545,-97.5765"/>
<polygon fill="midnightblue" stroke="midnightblue" points="516.507,-128.689 525.434,-134.396 522.014,-124.368 516.507,-128.689"/>
</g>
<!-- Node17&#45;&gt;Node5 -->
<g id="edge20" class="edge"><title>Node17&#45;&gt;Node5</title>
<path fill="none" stroke="midnightblue" d="M355.698,-128.734C340.534,-118.676 322.455,-106.685 308.723,-97.5765"/>
<polygon fill="midnightblue" stroke="midnightblue" points="353.967,-131.785 364.235,-134.396 357.836,-125.952 353.967,-131.785"/>
</g>
<!-- Node18&#45;&gt;Node9 -->
<g id="edge22" class="edge"><title>Node18&#45;&gt;Node9</title>
<path fill="none" stroke="midnightblue" d="M880.487,-196.074C920.907,-169.894 997.03,-111.933 959.5,-67 935.597,-38.3818 842.273,-25.9496 770.066,-20.5686"/>
<polygon fill="midnightblue" stroke="midnightblue" points="878.572,-193.144 871.994,-201.449 882.315,-199.059 878.572,-193.144"/>
</g>
</g>
</svg>
