<?xml version="1.0" encoding="UTF-8" standalone="no"?>
<!DOCTYPE svg PUBLIC "-//W3C//DTD SVG 1.1//EN"
 "http://www.w3.org/Graphics/SVG/1.1/DTD/svg11.dtd">
<!-- Generated by graphviz version 2.38.0 (20140413.2041)
 -->
<!-- Title: xalanc/Include/XalanObjectCache.hpp Pages: 1 -->
<!--zoomable 408 -->
<svg id="main" version="1.1" xmlns="http://www.w3.org/2000/svg" xmlns:xlink="http://www.w3.org/1999/xlink" xml:space="preserve" onload="init(evt)">
<style type="text/css"><![CDATA[
.edge:hover path { stroke: red; }
.edge:hover polygon { stroke: red; fill: red; }
]]></style>
<script type="text/javascript"><![CDATA[
var edges = document.getElementsByTagName('g');
if (edges && edges.length) {
  for (var i=0;i<edges.length;i++) {
    if (edges[i].id.substr(0,4)=='edge') {
      edges[i].setAttribute('class','edge');
    }
  }
}
]]></script>
        <defs>
                <circle id="rim" cx="0" cy="0" r="7"/>
                <circle id="rim2" cx="0" cy="0" r="3.5"/>
                <g id="zoomPlus">
                        <use xlink:href="#rim" fill="#404040">
                                <set attributeName="fill" to="#808080" begin="zoomplus.mouseover" end="zoomplus.mouseout"/>
                        </use>
                        <path d="M-4,0h8M0,-4v8" fill="none" stroke="white" stroke-width="1.5" pointer-events="none"/>
                </g>
                <g id="zoomMin">
                        <use xlink:href="#rim" fill="#404040">
                                <set attributeName="fill" to="#808080" begin="zoomminus.mouseover" end="zoomminus.mouseout"/>
                        </use>
                        <path d="M-4,0h8" fill="none" stroke="white" stroke-width="1.5" pointer-events="none"/>
                </g>
                <g id="dirArrow">
                        <path fill="none" stroke="white" stroke-width="1.5" d="M0,-3.0v7 M-2.5,-0.5L0,-3.0L2.5,-0.5"/>
                </g>
               <g id="resetDef">
                       <use xlink:href="#rim2" fill="#404040">
                               <set attributeName="fill" to="#808080" begin="reset.mouseover" end="reset.mouseout"/>
                       </use>
               </g>
        </defs>

<script type="text/javascript">
var viewWidth = 917;
var viewHeight = 408;
var sectionId = 'dynsection-0';
</script>
<script xlink:href="svgpan.js"/>
<svg id="graph" class="graph">
<g id="viewport">
<title>xalanc/Include/XalanObjectCache.hpp</title>
<!-- Node1 -->
<g id="node1" class="node"><title>Node1</title>
<g id="a_node1"><a xlink:title=" ">
<polygon fill="#bfbfbf" stroke="black" points="0,-369.5 0,-399.5 134,-399.5 134,-369.5 0,-369.5"/>
<text text-anchor="start" x="8" y="-387.5" font-family="Helvetica,sans-Serif" font-size="10.00">xalanc/Include/XalanObject</text>
<text text-anchor="middle" x="67" y="-376.5" font-family="Helvetica,sans-Serif" font-size="10.00">Cache.hpp</text>
</a>
</g>
</g>
<!-- Node2 -->
<g id="node2" class="node"><title>Node2</title>
<g id="a_node2"><a xlink:title=" ">
<polygon fill="none" stroke="#bfbfbf" points="53,-140 53,-159 109,-159 109,-140 53,-140"/>
<text text-anchor="middle" x="81" y="-147" font-family="Helvetica,sans-Serif" font-size="10.00">algorithm</text>
</a>
</g>
</g>
<!-- Node1&#45;&gt;Node2 -->
<g id="edge1" class="edge"><title>Node1&#45;&gt;Node2</title>
<path fill="none" stroke="midnightblue" d="M67.8547,-369.276C70.2686,-329.101 77.1389,-214.759 79.8651,-169.387"/>
<polygon fill="midnightblue" stroke="midnightblue" points="83.371,-169.393 80.4772,-159.201 76.3836,-168.973 83.371,-169.393"/>
</g>
<!-- Node3 -->
<g id="node3" class="node"><title>Node3</title>
<g id="a_node3"><a xlink:href="XalanVector_8hpp.html" target="_top" xlink:title=" ">
<polygon fill="none" stroke="black" points="171,-201.5 171,-220.5 323,-220.5 323,-201.5 171,-201.5"/>
<text text-anchor="middle" x="247" y="-208.5" font-family="Helvetica,sans-Serif" font-size="10.00">xalanc/Include/XalanVector.hpp</text>
</a>
</g>
</g>
<!-- Node1&#45;&gt;Node3 -->
<g id="edge2" class="edge"><title>Node1&#45;&gt;Node3</title>
<path fill="none" stroke="midnightblue" d="M81.7302,-369.465C114.999,-337.767 195.757,-260.823 230.576,-227.649"/>
<polygon fill="midnightblue" stroke="midnightblue" points="233.19,-229.992 238.016,-220.56 228.362,-224.924 233.19,-229.992"/>
</g>
<!-- Node15 -->
<g id="node15" class="node"><title>Node15</title>
<g id="a_node15"><a xlink:href="STLHelper_8hpp.html" target="_top" xlink:title=" ">
<polygon fill="none" stroke="black" points="338,-313.5 338,-332.5 484,-332.5 484,-313.5 338,-313.5"/>
<text text-anchor="middle" x="411" y="-320.5" font-family="Helvetica,sans-Serif" font-size="10.00">xalanc/Include/STLHelper.hpp</text>
</a>
</g>
</g>
<!-- Node1&#45;&gt;Node15 -->
<g id="edge19" class="edge"><title>Node1&#45;&gt;Node15</title>
<path fill="none" stroke="midnightblue" d="M134.143,-371.887C197.357,-360.953 291.126,-344.734 351.659,-334.264"/>
<polygon fill="midnightblue" stroke="midnightblue" points="352.562,-337.66 361.819,-332.507 351.369,-330.762 352.562,-337.66"/>
</g>
<!-- Node3&#45;&gt;Node2 -->
<g id="edge8" class="edge"><title>Node3&#45;&gt;Node2</title>
<path fill="none" stroke="midnightblue" d="M223.216,-201.475C194.618,-191.225 146.449,-173.959 114.198,-162.399"/>
<polygon fill="midnightblue" stroke="midnightblue" points="115.334,-159.089 104.74,-159.009 112.972,-165.678 115.334,-159.089"/>
</g>
<!-- Node4 -->
<g id="node4" class="node"><title>Node4</title>
<g id="a_node4"><a xlink:href="PlatformDefinitions_8hpp.html" target="_top" xlink:title=" ">
<polygon fill="none" stroke="black" points="632,-73 632,-92 814,-92 814,-73 632,-73"/>
<text text-anchor="middle" x="723" y="-80" font-family="Helvetica,sans-Serif" font-size="10.00">xalanc/Include/PlatformDefinitions.hpp</text>
</a>
</g>
</g>
<!-- Node3&#45;&gt;Node4 -->
<g id="edge3" class="edge"><title>Node3&#45;&gt;Node4</title>
<path fill="none" stroke="midnightblue" d="M323.356,-201.728C425.737,-190.459 596.227,-170.997 609,-165 627.216,-156.449 626.052,-146.271 642,-134 659.896,-120.23 681.688,-106.812 698.16,-97.2722"/>
<polygon fill="midnightblue" stroke="midnightblue" points="700.222,-100.125 707.173,-92.13 696.753,-94.0453 700.222,-100.125"/>
</g>
<!-- Node8 -->
<g id="node8" class="node"><title>Node8</title>
<g id="a_node8"><a xlink:title=" ">
<polygon fill="none" stroke="#bfbfbf" points="202,-73 202,-92 250,-92 250,-73 202,-73"/>
<text text-anchor="middle" x="226" y="-80" font-family="Helvetica,sans-Serif" font-size="10.00">cstddef</text>
</a>
</g>
</g>
<!-- Node3&#45;&gt;Node8 -->
<g id="edge7" class="edge"><title>Node3&#45;&gt;Node8</title>
<path fill="none" stroke="midnightblue" d="M212.816,-201.493C194.007,-194.877 172.257,-183.596 161,-165 153.865,-153.214 154.943,-146.375 161,-134 168.833,-117.996 184.455,-105.602 198.421,-97.0975"/>
<polygon fill="midnightblue" stroke="midnightblue" points="200.298,-100.057 207.261,-92.072 196.838,-93.9715 200.298,-100.057"/>
</g>
<!-- Node9 -->
<g id="node9" class="node"><title>Node9</title>
<g id="a_node9"><a xlink:title=" ">
<polygon fill="none" stroke="#bfbfbf" points="564.5,-73 564.5,-92 613.5,-92 613.5,-73 564.5,-73"/>
<text text-anchor="middle" x="589" y="-80" font-family="Helvetica,sans-Serif" font-size="10.00">cassert</text>
</a>
</g>
</g>
<!-- Node3&#45;&gt;Node9 -->
<g id="edge9" class="edge"><title>Node3&#45;&gt;Node9</title>
<path fill="none" stroke="midnightblue" d="M241.126,-201.247C231.477,-185.683 214.961,-153.043 232,-134 280.157,-80.177 485.151,-116.361 555,-98 557.356,-97.3806 559.762,-96.6259 562.15,-95.7897"/>
<polygon fill="midnightblue" stroke="midnightblue" points="563.675,-98.951 571.698,-92.0315 561.111,-92.4374 563.675,-98.951"/>
</g>
<!-- Node10 -->
<g id="node10" class="node"><title>Node10</title>
<g id="a_node10"><a xlink:title=" ">
<polygon fill="none" stroke="#bfbfbf" points="357,-73 357,-92 391,-92 391,-73 357,-73"/>
<text text-anchor="middle" x="374" y="-80" font-family="Helvetica,sans-Serif" font-size="10.00">new</text>
</a>
</g>
</g>
<!-- Node3&#45;&gt;Node10 -->
<g id="edge10" class="edge"><title>Node3&#45;&gt;Node10</title>
<path fill="none" stroke="midnightblue" d="M232.63,-201.33C221.12,-193.469 205.811,-180.722 199,-165 193.523,-152.358 190.718,-145.01 199,-134 216.781,-110.363 302.027,-94.3043 346.641,-87.3706"/>
<polygon fill="midnightblue" stroke="midnightblue" points="347.42,-90.7928 356.787,-85.8424 346.377,-83.8709 347.42,-90.7928"/>
</g>
<!-- Node11 -->
<g id="node11" class="node"><title>Node11</title>
<g id="a_node11"><a xlink:title=" ">
<polygon fill="none" stroke="#bfbfbf" points="241.5,-140 241.5,-159 288.5,-159 288.5,-140 241.5,-140"/>
<text text-anchor="middle" x="265" y="-147" font-family="Helvetica,sans-Serif" font-size="10.00">iterator</text>
</a>
</g>
</g>
<!-- Node3&#45;&gt;Node11 -->
<g id="edge11" class="edge"><title>Node3&#45;&gt;Node11</title>
<path fill="none" stroke="midnightblue" d="M249.579,-201.475C252.145,-192.992 256.165,-179.704 259.457,-168.822"/>
<polygon fill="midnightblue" stroke="midnightblue" points="262.88,-169.594 262.426,-159.009 256.18,-167.567 262.88,-169.594"/>
</g>
<!-- Node12 -->
<g id="node12" class="node"><title>Node12</title>
<g id="a_node12"><a xlink:title=" ">
<polygon fill="none" stroke="#bfbfbf" points="306.5,-140 306.5,-159 365.5,-159 365.5,-140 306.5,-140"/>
<text text-anchor="middle" x="336" y="-147" font-family="Helvetica,sans-Serif" font-size="10.00">stdexcept</text>
</a>
</g>
</g>
<!-- Node3&#45;&gt;Node12 -->
<g id="edge12" class="edge"><title>Node3&#45;&gt;Node12</title>
<path fill="none" stroke="midnightblue" d="M259.752,-201.475C274.027,-191.931 297.397,-176.307 314.508,-164.868"/>
<polygon fill="midnightblue" stroke="midnightblue" points="316.904,-167.477 323.272,-159.009 313.014,-161.657 316.904,-167.477"/>
</g>
<!-- Node13 -->
<g id="node13" class="node"><title>Node13</title>
<g id="a_node13"><a xlink:href="XalanMemoryManagement_8hpp.html" target="_top" xlink:title=" ">
<polygon fill="none" stroke="black" points="460,-134.5 460,-164.5 600,-164.5 600,-134.5 460,-134.5"/>
<text text-anchor="start" x="468" y="-152.5" font-family="Helvetica,sans-Serif" font-size="10.00">xalanc/Include/XalanMemory</text>
<text text-anchor="middle" x="530" y="-141.5" font-family="Helvetica,sans-Serif" font-size="10.00">Management.hpp</text>
</a>
</g>
</g>
<!-- Node3&#45;&gt;Node13 -->
<g id="edge13" class="edge"><title>Node3&#45;&gt;Node13</title>
<path fill="none" stroke="midnightblue" d="M287.547,-201.475C330.711,-192.4 400.027,-177.826 453.51,-166.582"/>
<polygon fill="midnightblue" stroke="midnightblue" points="454.237,-170.006 463.302,-164.523 452.796,-163.155 454.237,-170.006"/>
</g>
<!-- Node5 -->
<g id="node5" class="node"><title>Node5</title>
<g id="a_node5"><a xlink:title=" ">
<polygon fill="none" stroke="#bfbfbf" points="521,-0.5 521,-30.5 629,-30.5 629,-0.5 521,-0.5"/>
<text text-anchor="start" x="529" y="-18.5" font-family="Helvetica,sans-Serif" font-size="10.00">xercesc/util/Xerces</text>
<text text-anchor="middle" x="575" y="-7.5" font-family="Helvetica,sans-Serif" font-size="10.00">_autoconf_config.hpp</text>
</a>
</g>
</g>
<!-- Node4&#45;&gt;Node5 -->
<g id="edge4" class="edge"><title>Node4&#45;&gt;Node5</title>
<path fill="none" stroke="midnightblue" d="M703.347,-72.8685C681.235,-63.1572 644.695,-47.1092 616.246,-34.6148"/>
<polygon fill="midnightblue" stroke="midnightblue" points="617.504,-31.3447 606.941,-30.5281 614.689,-37.7539 617.504,-31.3447"/>
</g>
<!-- Node6 -->
<g id="node6" class="node"><title>Node6</title>
<g id="a_node6"><a xlink:title=" ">
<polygon fill="none" stroke="#bfbfbf" points="647.5,-6 647.5,-25 798.5,-25 798.5,-6 647.5,-6"/>
<text text-anchor="middle" x="723" y="-13" font-family="Helvetica,sans-Serif" font-size="10.00">xercesc/util/XercesVersion.hpp</text>
</a>
</g>
</g>
<!-- Node4&#45;&gt;Node6 -->
<g id="edge5" class="edge"><title>Node4&#45;&gt;Node6</title>
<path fill="none" stroke="midnightblue" d="M723,-72.7338C723,-63.1826 723,-47.6183 723,-35.2829"/>
<polygon fill="midnightblue" stroke="midnightblue" points="726.5,-35.1273 723,-25.1273 719.5,-35.1273 726.5,-35.1273"/>
</g>
<!-- Node7 -->
<g id="node7" class="node"><title>Node7</title>
<g id="a_node7"><a xlink:href="XalanVersion_8hpp.html" target="_top" xlink:title=" ">
<polygon fill="none" stroke="black" points="817,-6 817,-25 909,-25 909,-6 817,-6"/>
<text text-anchor="middle" x="863" y="-13" font-family="Helvetica,sans-Serif" font-size="10.00">XalanVersion.hpp</text>
</a>
</g>
</g>
<!-- Node4&#45;&gt;Node7 -->
<g id="edge6" class="edge"><title>Node4&#45;&gt;Node7</title>
<path fill="none" stroke="midnightblue" d="M741.591,-72.8685C765.544,-61.7476 807.395,-42.3167 835.154,-29.4286"/>
<polygon fill="midnightblue" stroke="midnightblue" points="836.736,-32.5529 844.332,-25.1672 833.788,-26.2038 836.736,-32.5529"/>
</g>
<!-- Node13&#45;&gt;Node4 -->
<g id="edge14" class="edge"><title>Node13&#45;&gt;Node4</title>
<path fill="none" stroke="midnightblue" d="M571.878,-134.396C606.641,-122.688 655.505,-106.231 688.16,-95.2336"/>
<polygon fill="midnightblue" stroke="midnightblue" points="689.381,-98.5157 697.741,-92.007 687.147,-91.8819 689.381,-98.5157"/>
</g>
<!-- Node13&#45;&gt;Node8 -->
<g id="edge16" class="edge"><title>Node13&#45;&gt;Node8</title>
<path fill="none" stroke="midnightblue" d="M464.411,-134.476C401.673,-121.062 309.525,-101.359 260.179,-90.8081"/>
<polygon fill="midnightblue" stroke="midnightblue" points="260.836,-87.3695 250.325,-88.7011 259.372,-94.2147 260.836,-87.3695"/>
</g>
<!-- Node13&#45;&gt;Node9 -->
<g id="edge15" class="edge"><title>Node13&#45;&gt;Node9</title>
<path fill="none" stroke="midnightblue" d="M542.802,-134.396C552.093,-124.161 564.678,-110.296 574.366,-99.622"/>
<polygon fill="midnightblue" stroke="midnightblue" points="576.979,-101.951 581.108,-92.1945 571.795,-97.2467 576.979,-101.951"/>
</g>
<!-- Node13&#45;&gt;Node10 -->
<g id="edge17" class="edge"><title>Node13&#45;&gt;Node10</title>
<path fill="none" stroke="midnightblue" d="M489.571,-134.432C463.602,-124.998 429.36,-111.809 400,-98 399.182,-97.6151 398.353,-97.215 397.521,-96.8037"/>
<polygon fill="midnightblue" stroke="midnightblue" points="399.144,-93.7025 388.664,-92.1417 395.883,-99.8968 399.144,-93.7025"/>
</g>
<!-- Node14 -->
<g id="node14" class="node"><title>Node14</title>
<g id="a_node14"><a xlink:title=" ">
<polygon fill="none" stroke="#bfbfbf" points="409.5,-67.5 409.5,-97.5 546.5,-97.5 546.5,-67.5 409.5,-67.5"/>
<text text-anchor="start" x="417.5" y="-85.5" font-family="Helvetica,sans-Serif" font-size="10.00">xercesc/framework/Memory</text>
<text text-anchor="middle" x="478" y="-74.5" font-family="Helvetica,sans-Serif" font-size="10.00">Manager.hpp</text>
</a>
</g>
</g>
<!-- Node13&#45;&gt;Node14 -->
<g id="edge18" class="edge"><title>Node13&#45;&gt;Node14</title>
<path fill="none" stroke="midnightblue" d="M518.717,-134.396C511.971,-125.963 503.254,-115.067 495.617,-105.522"/>
<polygon fill="midnightblue" stroke="midnightblue" points="498.241,-103.199 489.261,-97.5765 492.775,-107.572 498.241,-103.199"/>
</g>
<!-- Node15&#45;&gt;Node2 -->
<g id="edge21" class="edge"><title>Node15&#45;&gt;Node2</title>
<path fill="none" stroke="midnightblue" d="M358.977,-313.46C298.548,-301.411 198.306,-274.62 129,-221 110.939,-207.027 97.219,-184.304 89.1643,-168.444"/>
<polygon fill="midnightblue" stroke="midnightblue" points="92.1925,-166.666 84.7006,-159.175 85.8856,-169.703 92.1925,-166.666"/>
</g>
<!-- Node15&#45;&gt;Node4 -->
<g id="edge20" class="edge"><title>Node15&#45;&gt;Node4</title>
<path fill="none" stroke="midnightblue" d="M471.408,-313.472C562.135,-299.275 726.647,-267.665 761,-221 788.306,-183.907 755.883,-128.141 736.103,-100.409"/>
<polygon fill="midnightblue" stroke="midnightblue" points="738.748,-98.0998 729.984,-92.1464 733.123,-102.266 738.748,-98.0998"/>
</g>
<!-- Node16 -->
<g id="node16" class="node"><title>Node16</title>
<g id="a_node16"><a xlink:title=" ">
<polygon fill="none" stroke="#bfbfbf" points="694,-201.5 694,-220.5 752,-220.5 752,-201.5 694,-201.5"/>
<text text-anchor="middle" x="723" y="-208.5" font-family="Helvetica,sans-Serif" font-size="10.00">functional</text>
</a>
</g>
</g>
<!-- Node15&#45;&gt;Node16 -->
<g id="edge22" class="edge"><title>Node15&#45;&gt;Node16</title>
<path fill="none" stroke="midnightblue" d="M435.222,-313.46C490.4,-294.006 625.556,-246.355 689.029,-223.977"/>
<polygon fill="midnightblue" stroke="midnightblue" points="690.311,-227.236 698.578,-220.61 687.983,-220.635 690.311,-227.236"/>
</g>
<!-- Node17 -->
<g id="node17" class="node"><title>Node17</title>
<g id="a_node17"><a xlink:href="XalanMap_8hpp.html" target="_top" xlink:title=" ">
<polygon fill="none" stroke="black" points="339.5,-257.5 339.5,-276.5 482.5,-276.5 482.5,-257.5 339.5,-257.5"/>
<text text-anchor="middle" x="411" y="-264.5" font-family="Helvetica,sans-Serif" font-size="10.00">xalanc/Include/XalanMap.hpp</text>
</a>
</g>
</g>
<!-- Node15&#45;&gt;Node17 -->
<g id="edge23" class="edge"><title>Node15&#45;&gt;Node17</title>
<path fill="none" stroke="midnightblue" d="M411,-313.083C411,-306.006 411,-295.861 411,-286.986"/>
<polygon fill="midnightblue" stroke="midnightblue" points="414.5,-286.751 411,-276.751 407.5,-286.751 414.5,-286.751"/>
</g>
<!-- Node17&#45;&gt;Node2 -->
<g id="edge26" class="edge"><title>Node17&#45;&gt;Node2</title>
<path fill="none" stroke="midnightblue" d="M339.481,-263.165C287.954,-258.77 217.94,-247.85 162,-221 134.806,-207.948 109.631,-183.233 94.7856,-166.811"/>
<polygon fill="midnightblue" stroke="midnightblue" points="97.2337,-164.294 88.0078,-159.085 91.9715,-168.911 97.2337,-164.294"/>
</g>
<!-- Node17&#45;&gt;Node3 -->
<g id="edge29" class="edge"><title>Node17&#45;&gt;Node3</title>
<path fill="none" stroke="midnightblue" d="M385.014,-257.444C357.304,-248.32 313.248,-233.813 282.384,-223.651"/>
<polygon fill="midnightblue" stroke="midnightblue" points="283.458,-220.32 272.865,-220.516 281.268,-226.968 283.458,-220.32"/>
</g>
<!-- Node17&#45;&gt;Node4 -->
<g id="edge24" class="edge"><title>Node17&#45;&gt;Node4</title>
<path fill="none" stroke="midnightblue" d="M454.224,-257.488C508.318,-245.02 601.443,-217.368 664,-165 685.698,-146.836 703.561,-119.024 713.754,-101.048"/>
<polygon fill="midnightblue" stroke="midnightblue" points="716.868,-102.65 718.603,-92.1978 710.729,-99.2861 716.868,-102.65"/>
</g>
<!-- Node17&#45;&gt;Node8 -->
<g id="edge25" class="edge"><title>Node17&#45;&gt;Node8</title>
<path fill="none" stroke="midnightblue" d="M339.299,-262.912C280.964,-258.451 197.399,-247.561 129,-221 86.8284,-204.624 65.4552,-204.828 44,-165 12.4796,-106.487 130.58,-89.9005 191.626,-85.2637"/>
<polygon fill="midnightblue" stroke="midnightblue" points="192.225,-88.7308 201.961,-84.5512 191.744,-81.7474 192.225,-88.7308"/>
</g>
<!-- Node17&#45;&gt;Node16 -->
<g id="edge27" class="edge"><title>Node17&#45;&gt;Node16</title>
<path fill="none" stroke="midnightblue" d="M465.984,-257.471C520.432,-248.868 606.128,-234.904 680,-221 681.265,-220.762 682.55,-220.516 683.847,-220.265"/>
<polygon fill="midnightblue" stroke="midnightblue" points="684.766,-223.65 693.888,-218.26 683.396,-216.786 684.766,-223.65"/>
</g>
<!-- Node18 -->
<g id="node18" class="node"><title>Node18</title>
<g id="a_node18"><a xlink:title=" ">
<polygon fill="none" stroke="#bfbfbf" points="499,-201.5 499,-220.5 539,-220.5 539,-201.5 499,-201.5"/>
<text text-anchor="middle" x="519" y="-208.5" font-family="Helvetica,sans-Serif" font-size="10.00">utility</text>
</a>
</g>
</g>
<!-- Node17&#45;&gt;Node18 -->
<g id="edge28" class="edge"><title>Node17&#45;&gt;Node18</title>
<path fill="none" stroke="midnightblue" d="M428.352,-257.324C445.672,-248.664 472.515,-235.242 492.502,-225.249"/>
<polygon fill="midnightblue" stroke="midnightblue" points="494.312,-228.257 501.691,-220.655 491.181,-221.996 494.312,-228.257"/>
</g>
<!-- Node19 -->
<g id="node19" class="node"><title>Node19</title>
<g id="a_node19"><a xlink:href="XalanList_8hpp.html" target="_top" xlink:title=" ">
<polygon fill="none" stroke="black" points="341,-201.5 341,-220.5 481,-220.5 481,-201.5 341,-201.5"/>
<text text-anchor="middle" x="411" y="-208.5" font-family="Helvetica,sans-Serif" font-size="10.00">xalanc/Include/XalanList.hpp</text>
</a>
</g>
</g>
<!-- Node17&#45;&gt;Node19 -->
<g id="edge30" class="edge"><title>Node17&#45;&gt;Node19</title>
<path fill="none" stroke="midnightblue" d="M411,-257.083C411,-250.006 411,-239.861 411,-230.986"/>
<polygon fill="midnightblue" stroke="midnightblue" points="414.5,-230.751 411,-220.751 407.5,-230.751 414.5,-230.751"/>
</g>
<!-- Node19&#45;&gt;Node2 -->
<g id="edge33" class="edge"><title>Node19&#45;&gt;Node2</title>
<path fill="none" stroke="midnightblue" d="M363.719,-201.475C297.846,-189.598 179.742,-168.304 119.149,-157.378"/>
<polygon fill="midnightblue" stroke="midnightblue" points="119.694,-153.92 109.231,-155.59 118.452,-160.809 119.694,-153.92"/>
</g>
<!-- Node19&#45;&gt;Node4 -->
<g id="edge31" class="edge"><title>Node19&#45;&gt;Node4</title>
<path fill="none" stroke="midnightblue" d="M467.475,-201.48C521.734,-192.715 599.426,-178.478 627,-165 660.193,-148.775 691.397,-118.456 708.773,-99.7213"/>
<polygon fill="midnightblue" stroke="midnightblue" points="711.422,-102.01 715.54,-92.2482 706.233,-97.3113 711.422,-102.01"/>
</g>
<!-- Node19&#45;&gt;Node8 -->
<g id="edge32" class="edge"><title>Node19&#45;&gt;Node8</title>
<path fill="none" stroke="midnightblue" d="M409.119,-201.377C405.266,-185.726 395.012,-152.551 374,-134 341.77,-105.545 292.781,-92.9698 260.1,-87.5168"/>
<polygon fill="midnightblue" stroke="midnightblue" points="260.519,-84.0402 250.104,-85.9855 259.459,-90.9595 260.519,-84.0402"/>
</g>
<!-- Node19&#45;&gt;Node9 -->
<g id="edge34" class="edge"><title>Node19&#45;&gt;Node9</title>
<path fill="none" stroke="midnightblue" d="M463.825,-201.465C519.33,-191.96 599.873,-176.434 609,-165 623.724,-146.554 611.804,-118.817 601.065,-100.935"/>
<polygon fill="midnightblue" stroke="midnightblue" points="603.755,-98.6468 595.397,-92.1353 597.87,-102.438 603.755,-98.6468"/>
</g>
<!-- Node19&#45;&gt;Node10 -->
<g id="edge35" class="edge"><title>Node19&#45;&gt;Node10</title>
<path fill="none" stroke="midnightblue" d="M412.162,-201.297C413.758,-186.886 415.633,-157.345 408,-134 403.968,-121.667 395.984,-109.549 388.765,-100.276"/>
<polygon fill="midnightblue" stroke="midnightblue" points="391.292,-97.8385 382.234,-92.3434 385.888,-102.288 391.292,-97.8385"/>
</g>
<!-- Node19&#45;&gt;Node11 -->
<g id="edge36" class="edge"><title>Node19&#45;&gt;Node11</title>
<path fill="none" stroke="midnightblue" d="M388.154,-201.364C365.042,-192.538 328.348,-178.28 297,-165 295.631,-164.42 294.233,-163.819 292.823,-163.206"/>
<polygon fill="midnightblue" stroke="midnightblue" points="294.105,-159.946 283.545,-159.09 291.266,-166.345 294.105,-159.946"/>
</g>
<!-- Node19&#45;&gt;Node12 -->
<g id="edge37" class="edge"><title>Node19&#45;&gt;Node12</title>
<path fill="none" stroke="midnightblue" d="M400.254,-201.475C388.447,-192.108 369.257,-176.884 354.918,-165.508"/>
<polygon fill="midnightblue" stroke="midnightblue" points="356.735,-162.482 346.726,-159.009 352.385,-167.966 356.735,-162.482"/>
</g>
<!-- Node19&#45;&gt;Node13 -->
<g id="edge38" class="edge"><title>Node19&#45;&gt;Node13</title>
<path fill="none" stroke="midnightblue" d="M428.05,-201.475C444.92,-193.04 471.29,-179.855 492.984,-169.008"/>
<polygon fill="midnightblue" stroke="midnightblue" points="494.575,-172.126 501.954,-164.523 491.445,-165.865 494.575,-172.126"/>
</g>
</g>
</svg>
        <g id="navigator" transform="translate(0 0)" fill="#404254">
                <rect fill="#f2f5e9" fill-opacity="0.5" stroke="#606060" stroke-width=".5" x="0" y="0" width="60" height="60"/>
                <use id="zoomplus" xlink:href="#zoomPlus" x="17" y="9" onmousedown="handleZoom(evt,'in')"/>
                <use id="zoomminus" xlink:href="#zoomMin" x="42" y="9" onmousedown="handleZoom(evt,'out')"/>
                <use id="reset" xlink:href="#resetDef" x="30" y="36" onmousedown="handleReset()"/>
                <g id="arrowUp" xlink:href="#dirArrow" transform="translate(30 24)" onmousedown="handlePan(0,-1)">
                  <use xlink:href="#rim" fill="#404040">
                        <set attributeName="fill" to="#808080" begin="arrowUp.mouseover" end="arrowUp.mouseout"/>
                  </use>
                  <path fill="none" stroke="white" stroke-width="1.5" d="M0,-3.0v7 M-2.5,-0.5L0,-3.0L2.5,-0.5"/>
                </g>
                <g id="arrowRight" xlink:href="#dirArrow" transform="rotate(90) translate(36 -43)" onmousedown="handlePan(1,0)">
                  <use xlink:href="#rim" fill="#404040">
                        <set attributeName="fill" to="#808080" begin="arrowRight.mouseover" end="arrowRight.mouseout"/>
                  </use>
                  <path fill="none" stroke="white" stroke-width="1.5" d="M0,-3.0v7 M-2.5,-0.5L0,-3.0L2.5,-0.5"/>
                </g>
                <g id="arrowDown" xlink:href="#dirArrow" transform="rotate(180) translate(-30 -48)" onmousedown="handlePan(0,1)">
                  <use xlink:href="#rim" fill="#404040">
                        <set attributeName="fill" to="#808080" begin="arrowDown.mouseover" end="arrowDown.mouseout"/>
                  </use>
                  <path fill="none" stroke="white" stroke-width="1.5" d="M0,-3.0v7 M-2.5,-0.5L0,-3.0L2.5,-0.5"/>
                </g>
                <g id="arrowLeft" xlink:href="#dirArrow" transform="rotate(270) translate(-36 17)" onmousedown="handlePan(-1,0)">
                  <use xlink:href="#rim" fill="#404040">
                        <set attributeName="fill" to="#808080" begin="arrowLeft.mouseover" end="arrowLeft.mouseout"/>
                  </use>
                  <path fill="none" stroke="white" stroke-width="1.5" d="M0,-3.0v7 M-2.5,-0.5L0,-3.0L2.5,-0.5"/>
                </g>
        </g>
        <svg viewBox="0 0 15 15" width="100%" height="30px" preserveAspectRatio="xMaxYMin meet">
         <g id="arrow_out" transform="scale(0.3 0.3)">
          <a xlink:href="XalanObjectCache_8hpp__incl_org.svg" target="_base">
           <rect id="button" ry="5" rx="5" y="6" x="6" height="38" width="38"
                fill="#f2f5e9" fill-opacity="0.5" stroke="#606060" stroke-width="1.0"/>
           <path id="arrow"
             d="M 11.500037,31.436501 C 11.940474,20.09759 22.043105,11.32322 32.158766,21.979434 L 37.068811,17.246167 C 37.068811,17.246167 37.088388,32 37.088388,32 L 22.160133,31.978069 C 22.160133,31.978069 26.997745,27.140456 26.997745,27.140456 C 18.528582,18.264221 13.291696,25.230495 11.500037,31.436501 z"
             style="fill:#404040;"/>
          </a>
         </g>
        </svg>
</svg>
