<?xml version="1.0" encoding="UTF-8" standalone="no"?>
<!DOCTYPE svg PUBLIC "-//W3C//DTD SVG 1.1//EN"
 "http://www.w3.org/Graphics/SVG/1.1/DTD/svg11.dtd">
<!-- Generated by graphviz version 2.43.0 (0)
 -->
<!-- Title: xalanc/PlatformSupport/XalanFStreamOutputStream.hpp Pages: 1 -->
<!--zoomable 810 -->
<svg id="main" version="1.1" xmlns="http://www.w3.org/2000/svg" xmlns:xlink="http://www.w3.org/1999/xlink" xml:space="preserve" onload="init(evt)">
<style type="text/css"><![CDATA[
.edge:hover path { stroke: red; }
.edge:hover polygon { stroke: red; fill: red; }
]]></style>
<script type="text/javascript"><![CDATA[
var edges = document.getElementsByTagName('g');
if (edges && edges.length) {
  for (var i=0;i<edges.length;i++) {
    if (edges[i].id.substr(0,4)=='edge') {
      edges[i].setAttribute('class','edge');
    }
  }
}
]]></script>
        <defs>
                <circle id="rim" cx="0" cy="0" r="7"/>
                <circle id="rim2" cx="0" cy="0" r="3.5"/>
                <g id="zoomPlus">
                        <use xlink:href="#rim" fill="#404040">
                                <set attributeName="fill" to="#808080" begin="zoomplus.mouseover" end="zoomplus.mouseout"/>
                        </use>
                        <path d="M-4,0h8M0,-4v8" fill="none" stroke="white" stroke-width="1.5" pointer-events="none"/>
                </g>
                <g id="zoomMin">
                        <use xlink:href="#rim" fill="#404040">
                                <set attributeName="fill" to="#808080" begin="zoomminus.mouseover" end="zoomminus.mouseout"/>
                        </use>
                        <path d="M-4,0h8" fill="none" stroke="white" stroke-width="1.5" pointer-events="none"/>
                </g>
                <g id="dirArrow">
                        <path fill="none" stroke="white" stroke-width="1.5" d="M0,-3.0v7 M-2.5,-0.5L0,-3.0L2.5,-0.5"/>
                </g>
               <g id="resetDef">
                       <use xlink:href="#rim2" fill="#404040">
                               <set attributeName="fill" to="#808080" begin="reset.mouseover" end="reset.mouseout"/>
                       </use>
               </g>
        </defs>

<script type="text/javascript">
var viewWidth = 1790;
var viewHeight = 810;
var sectionId = 'dynsection-0';
</script>
<script xlink:href="svgpan.js"/>
<svg id="graph" class="graph">
<g id="viewport">
<title>xalanc/PlatformSupport/XalanFStreamOutputStream.hpp</title>
<!-- Node1 -->
<g id="node1" class="node">
<title>Node1</title>
<g id="a_node1"><a xlink:title=" ">
<polygon fill="#bfbfbf" stroke="black" points="1604.5,-771.5 1604.5,-801.5 1781.5,-801.5 1781.5,-771.5 1604.5,-771.5"/>
<text text-anchor="start" x="1612.5" y="-789.5" font-family="Helvetica,sans-Serif" font-size="10.00">xalanc/PlatformSupport</text>
<text text-anchor="middle" x="1693" y="-778.5" font-family="Helvetica,sans-Serif" font-size="10.00">/XalanFStreamOutputStream.hpp</text>
</a>
</g>
</g>
<!-- Node2 -->
<g id="node2" class="node">
<title>Node2</title>
<g id="a_node2"><a xlink:href="PlatformSupportDefinitions_8hpp.html" target="_top" xlink:title=" ">
<polygon fill="none" stroke="black" points="1255.5,-369.5 1255.5,-399.5 1428.5,-399.5 1428.5,-369.5 1255.5,-369.5"/>
<text text-anchor="start" x="1263.5" y="-387.5" font-family="Helvetica,sans-Serif" font-size="10.00">xalanc/PlatformSupport</text>
<text text-anchor="middle" x="1342" y="-376.5" font-family="Helvetica,sans-Serif" font-size="10.00">/PlatformSupportDefinitions.hpp</text>
</a>
</g>
</g>
<!-- Node1&#45;&gt;Node2 -->
<g id="edge1" class="edge">
<title>Node1&#45;&gt;Node2</title>
<path fill="none" stroke="midnightblue" d="M1693,-771.24C1693,-747.03 1693,-696.35 1693,-653.5 1693,-653.5 1693,-653.5 1693,-517.5 1693,-477.53 1686.88,-460.1 1655,-436 1621.68,-410.82 1517.87,-397.74 1438.85,-391.27"/>
<polygon fill="midnightblue" stroke="midnightblue" points="1439.1,-387.78 1428.86,-390.48 1438.55,-394.76 1439.1,-387.78"/>
</g>
<!-- Node7 -->
<g id="node7" class="node">
<title>Node7</title>
<g id="a_node7"><a xlink:title=" ">
<polygon fill="none" stroke="#bfbfbf" points="1721,-710 1721,-729 1767,-729 1767,-710 1721,-710"/>
<text text-anchor="middle" x="1744" y="-717" font-family="Helvetica,sans-Serif" font-size="10.00">cstdio</text>
</a>
</g>
</g>
<!-- Node1&#45;&gt;Node7 -->
<g id="edge6" class="edge">
<title>Node1&#45;&gt;Node7</title>
<path fill="none" stroke="midnightblue" d="M1704.07,-771.4C1711.94,-761.36 1722.55,-747.84 1730.85,-737.25"/>
<polygon fill="midnightblue" stroke="midnightblue" points="1733.76,-739.22 1737.18,-729.19 1728.25,-734.9 1733.76,-739.22"/>
</g>
<!-- Node8 -->
<g id="node8" class="node">
<title>Node8</title>
<g id="a_node8"><a xlink:href="XalanOutputStream_8hpp.html" target="_top" xlink:title=" ">
<polygon fill="none" stroke="black" points="1303.5,-704.5 1303.5,-734.5 1440.5,-734.5 1440.5,-704.5 1303.5,-704.5"/>
<text text-anchor="start" x="1311.5" y="-722.5" font-family="Helvetica,sans-Serif" font-size="10.00">xalanc/PlatformSupport</text>
<text text-anchor="middle" x="1372" y="-711.5" font-family="Helvetica,sans-Serif" font-size="10.00">/XalanOutputStream.hpp</text>
</a>
</g>
</g>
<!-- Node1&#45;&gt;Node8 -->
<g id="edge7" class="edge">
<title>Node1&#45;&gt;Node8</title>
<path fill="none" stroke="midnightblue" d="M1623.74,-771.48C1572.84,-761.17 1503.59,-747.15 1450.61,-736.42"/>
<polygon fill="midnightblue" stroke="midnightblue" points="1451.08,-732.94 1440.58,-734.39 1449.69,-739.8 1451.08,-732.94"/>
</g>
<!-- Node3 -->
<g id="node3" class="node">
<title>Node3</title>
<g id="a_node3"><a xlink:href="PlatformDefinitions_8hpp.html" target="_top" xlink:title=" ">
<polygon fill="none" stroke="black" points="804,-73 804,-92 1010,-92 1010,-73 804,-73"/>
<text text-anchor="middle" x="907" y="-80" font-family="Helvetica,sans-Serif" font-size="10.00">xalanc/Include/PlatformDefinitions.hpp</text>
</a>
</g>
</g>
<!-- Node2&#45;&gt;Node3 -->
<g id="edge2" class="edge">
<title>Node2&#45;&gt;Node3</title>
<path fill="none" stroke="midnightblue" d="M1314.72,-369.38C1283.02,-350.78 1235,-314.88 1235,-268 1235,-268 1235,-268 1235,-210 1235,-153.17 1061.45,-112.09 966.83,-93.91"/>
<polygon fill="midnightblue" stroke="midnightblue" points="967.29,-90.43 956.82,-92.01 965.99,-97.31 967.29,-90.43"/>
</g>
<!-- Node4 -->
<g id="node4" class="node">
<title>Node4</title>
<g id="a_node4"><a xlink:title=" ">
<polygon fill="none" stroke="#bfbfbf" points="686,-0.5 686,-30.5 806,-30.5 806,-0.5 686,-0.5"/>
<text text-anchor="start" x="694" y="-18.5" font-family="Helvetica,sans-Serif" font-size="10.00">xercesc/util/Xerces</text>
<text text-anchor="middle" x="746" y="-7.5" font-family="Helvetica,sans-Serif" font-size="10.00">_autoconf_config.hpp</text>
</a>
</g>
</g>
<!-- Node3&#45;&gt;Node4 -->
<g id="edge3" class="edge">
<title>Node3&#45;&gt;Node4</title>
<path fill="none" stroke="midnightblue" d="M885.62,-72.87C861.36,-63.07 821.12,-46.83 790.06,-34.29"/>
<polygon fill="midnightblue" stroke="midnightblue" points="791.33,-31.03 780.75,-30.53 788.71,-37.52 791.33,-31.03"/>
</g>
<!-- Node5 -->
<g id="node5" class="node">
<title>Node5</title>
<g id="a_node5"><a xlink:title=" ">
<polygon fill="none" stroke="#bfbfbf" points="824.5,-6 824.5,-25 989.5,-25 989.5,-6 824.5,-6"/>
<text text-anchor="middle" x="907" y="-13" font-family="Helvetica,sans-Serif" font-size="10.00">xercesc/util/XercesVersion.hpp</text>
</a>
</g>
</g>
<!-- Node3&#45;&gt;Node5 -->
<g id="edge4" class="edge">
<title>Node3&#45;&gt;Node5</title>
<path fill="none" stroke="midnightblue" d="M907,-72.73C907,-63.18 907,-47.62 907,-35.28"/>
<polygon fill="midnightblue" stroke="midnightblue" points="910.5,-35.13 907,-25.13 903.5,-35.13 910.5,-35.13"/>
</g>
<!-- Node6 -->
<g id="node6" class="node">
<title>Node6</title>
<g id="a_node6"><a xlink:href="XalanVersion_8hpp.html" target="_top" xlink:title=" ">
<polygon fill="none" stroke="black" points="1007.5,-6 1007.5,-25 1182.5,-25 1182.5,-6 1007.5,-6"/>
<text text-anchor="middle" x="1095" y="-13" font-family="Helvetica,sans-Serif" font-size="10.00">xalanc/Include/XalanVersion.hpp</text>
</a>
</g>
</g>
<!-- Node3&#45;&gt;Node6 -->
<g id="edge5" class="edge">
<title>Node3&#45;&gt;Node6</title>
<path fill="none" stroke="midnightblue" d="M931.96,-72.87C964.92,-61.47 1023.12,-41.35 1060.33,-28.49"/>
<polygon fill="midnightblue" stroke="midnightblue" points="1061.92,-31.64 1070.23,-25.06 1059.64,-25.02 1061.92,-31.64"/>
</g>
<!-- Node8&#45;&gt;Node2 -->
<g id="edge8" class="edge">
<title>Node8&#45;&gt;Node2</title>
<path fill="none" stroke="midnightblue" d="M1384.75,-704.49C1392.85,-694.88 1402.91,-681.47 1409,-668 1424.29,-634.2 1427,-623.6 1427,-586.5 1427,-586.5 1427,-586.5 1427,-517.5 1427,-472.54 1391.72,-430.72 1366.61,-406.66"/>
<polygon fill="midnightblue" stroke="midnightblue" points="1368.91,-404.02 1359.2,-399.78 1364.15,-409.15 1368.91,-404.02"/>
</g>
<!-- Node9 -->
<g id="node9" class="node">
<title>Node9</title>
<g id="a_node9"><a xlink:href="XalanVector_8hpp.html" target="_top" xlink:title=" ">
<polygon fill="none" stroke="black" points="314.5,-201.5 314.5,-220.5 483.5,-220.5 483.5,-201.5 314.5,-201.5"/>
<text text-anchor="middle" x="399" y="-208.5" font-family="Helvetica,sans-Serif" font-size="10.00">xalanc/Include/XalanVector.hpp</text>
</a>
</g>
</g>
<!-- Node8&#45;&gt;Node9 -->
<g id="edge9" class="edge">
<title>Node8&#45;&gt;Node9</title>
<path fill="none" stroke="midnightblue" d="M1303.49,-719.18C1025.96,-721.03 0,-718.93 0,-586.5 0,-586.5 0,-586.5 0,-322 0,-259.16 186.24,-230.84 304.24,-219.2"/>
<polygon fill="midnightblue" stroke="midnightblue" points="304.76,-222.67 314.38,-218.23 304.09,-215.7 304.76,-222.67"/>
</g>
<!-- Node18 -->
<g id="node18" class="node">
<title>Node18</title>
<g id="a_node18"><a xlink:href="XalanDOMString_8hpp.html" target="_top" xlink:title=" ">
<polygon fill="none" stroke="black" points="485,-375 485,-394 693,-394 693,-375 485,-375"/>
<text text-anchor="middle" x="589" y="-382" font-family="Helvetica,sans-Serif" font-size="10.00">xalanc/XalanDOM/XalanDOMString.hpp</text>
</a>
</g>
</g>
<!-- Node8&#45;&gt;Node18 -->
<g id="edge23" class="edge">
<title>Node8&#45;&gt;Node18</title>
<path fill="none" stroke="midnightblue" d="M1303.31,-717.39C1064.8,-712.66 287,-689.32 287,-586.5 287,-586.5 287,-586.5 287,-517.5 287,-432.32 389.11,-401.57 474.58,-390.75"/>
<polygon fill="midnightblue" stroke="midnightblue" points="475.13,-394.21 484.65,-389.56 474.3,-387.26 475.13,-394.21"/>
</g>
<!-- Node26 -->
<g id="node26" class="node">
<title>Node26</title>
<g id="a_node26"><a xlink:href="XalanTranscodingServices_8hpp.html" target="_top" xlink:title=" ">
<polygon fill="none" stroke="black" points="1232.5,-637.5 1232.5,-667.5 1399.5,-667.5 1399.5,-637.5 1232.5,-637.5"/>
<text text-anchor="start" x="1240.5" y="-655.5" font-family="Helvetica,sans-Serif" font-size="10.00">xalanc/PlatformSupport</text>
<text text-anchor="middle" x="1316" y="-644.5" font-family="Helvetica,sans-Serif" font-size="10.00">/XalanTranscodingServices.hpp</text>
</a>
</g>
</g>
<!-- Node8&#45;&gt;Node26 -->
<g id="edge51" class="edge">
<title>Node8&#45;&gt;Node26</title>
<path fill="none" stroke="midnightblue" d="M1359.85,-704.4C1352.51,-695.88 1343.01,-684.85 1334.72,-675.23"/>
<polygon fill="midnightblue" stroke="midnightblue" points="1337.31,-672.87 1328.13,-667.58 1332,-677.44 1337.31,-672.87"/>
</g>
<!-- Node33 -->
<g id="node33" class="node">
<title>Node33</title>
<g id="a_node33"><a xlink:href="XSLException_8hpp.html" target="_top" xlink:title=" ">
<polygon fill="none" stroke="black" points="1455.5,-570.5 1455.5,-600.5 1586.5,-600.5 1586.5,-570.5 1455.5,-570.5"/>
<text text-anchor="start" x="1463.5" y="-588.5" font-family="Helvetica,sans-Serif" font-size="10.00">xalanc/PlatformSupport</text>
<text text-anchor="middle" x="1521" y="-577.5" font-family="Helvetica,sans-Serif" font-size="10.00">/XSLException.hpp</text>
</a>
</g>
</g>
<!-- Node8&#45;&gt;Node33 -->
<g id="edge79" class="edge">
<title>Node8&#45;&gt;Node33</title>
<path fill="none" stroke="midnightblue" d="M1393.21,-704.32C1407.21,-694.64 1425.73,-681.21 1441,-668 1462.78,-649.16 1485.59,-625.47 1501.26,-608.49"/>
<polygon fill="midnightblue" stroke="midnightblue" points="1504.18,-610.49 1508.34,-600.74 1499.01,-605.76 1504.18,-610.49"/>
</g>
<!-- Node9&#45;&gt;Node3 -->
<g id="edge10" class="edge">
<title>Node9&#45;&gt;Node3</title>
<path fill="none" stroke="midnightblue" d="M411.98,-201.35C425.07,-192.51 445.77,-178.24 463,-165 480.01,-151.93 480.33,-142.56 500,-134 551.1,-111.76 691.89,-97.84 793.57,-90.38"/>
<polygon fill="midnightblue" stroke="midnightblue" points="793.87,-93.86 803.59,-89.65 793.37,-86.88 793.87,-93.86"/>
</g>
<!-- Node10 -->
<g id="node10" class="node">
<title>Node10</title>
<g id="a_node10"><a xlink:title=" ">
<polygon fill="none" stroke="#bfbfbf" points="564.5,-73 564.5,-92 617.5,-92 617.5,-73 564.5,-73"/>
<text text-anchor="middle" x="591" y="-80" font-family="Helvetica,sans-Serif" font-size="10.00">cstddef</text>
</a>
</g>
</g>
<!-- Node9&#45;&gt;Node10 -->
<g id="edge11" class="edge">
<title>Node9&#45;&gt;Node10</title>
<path fill="none" stroke="midnightblue" d="M404.62,-201.3C415.03,-185.82 438.72,-153.31 466,-134 492.98,-114.9 528.24,-101.5 554.43,-93.33"/>
<polygon fill="midnightblue" stroke="midnightblue" points="555.77,-96.58 564.34,-90.35 553.76,-89.88 555.77,-96.58"/>
</g>
<!-- Node11 -->
<g id="node11" class="node">
<title>Node11</title>
<g id="a_node11"><a xlink:title=" ">
<polygon fill="none" stroke="#bfbfbf" points="815,-140 815,-159 879,-159 879,-140 815,-140"/>
<text text-anchor="middle" x="847" y="-147" font-family="Helvetica,sans-Serif" font-size="10.00">algorithm</text>
</a>
</g>
</g>
<!-- Node9&#45;&gt;Node11 -->
<g id="edge12" class="edge">
<title>Node9&#45;&gt;Node11</title>
<path fill="none" stroke="midnightblue" d="M463.19,-201.48C556.27,-189.11 726.18,-166.55 804.9,-156.09"/>
<polygon fill="midnightblue" stroke="midnightblue" points="805.48,-159.55 814.93,-154.76 804.56,-152.61 805.48,-159.55"/>
</g>
<!-- Node12 -->
<g id="node12" class="node">
<title>Node12</title>
<g id="a_node12"><a xlink:title=" ">
<polygon fill="none" stroke="#bfbfbf" points="107,-73 107,-92 159,-92 159,-73 107,-73"/>
<text text-anchor="middle" x="133" y="-80" font-family="Helvetica,sans-Serif" font-size="10.00">cassert</text>
</a>
</g>
</g>
<!-- Node9&#45;&gt;Node12 -->
<g id="edge13" class="edge">
<title>Node9&#45;&gt;Node12</title>
<path fill="none" stroke="midnightblue" d="M321.37,-201.48C266.48,-194.14 198.77,-182.03 176,-165 155.22,-149.46 143.52,-120.9 137.72,-102.06"/>
<polygon fill="midnightblue" stroke="midnightblue" points="141.04,-100.94 134.97,-92.25 134.3,-102.83 141.04,-100.94"/>
</g>
<!-- Node13 -->
<g id="node13" class="node">
<title>Node13</title>
<g id="a_node13"><a xlink:title=" ">
<polygon fill="none" stroke="#bfbfbf" points="388.5,-73 388.5,-92 425.5,-92 425.5,-73 388.5,-73"/>
<text text-anchor="middle" x="407" y="-80" font-family="Helvetica,sans-Serif" font-size="10.00">new</text>
</a>
</g>
</g>
<!-- Node9&#45;&gt;Node13 -->
<g id="edge14" class="edge">
<title>Node9&#45;&gt;Node13</title>
<path fill="none" stroke="midnightblue" d="M399.55,-201.31C400.83,-180.99 404.06,-130.05 405.81,-102.28"/>
<polygon fill="midnightblue" stroke="midnightblue" points="409.31,-102.46 406.45,-92.26 402.32,-102.01 409.31,-102.46"/>
</g>
<!-- Node14 -->
<g id="node14" class="node">
<title>Node14</title>
<g id="a_node14"><a xlink:title=" ">
<polygon fill="none" stroke="#bfbfbf" points="591.5,-140 591.5,-159 644.5,-159 644.5,-140 591.5,-140"/>
<text text-anchor="middle" x="618" y="-147" font-family="Helvetica,sans-Serif" font-size="10.00">iterator</text>
</a>
</g>
</g>
<!-- Node9&#45;&gt;Node14 -->
<g id="edge15" class="edge">
<title>Node9&#45;&gt;Node14</title>
<path fill="none" stroke="midnightblue" d="M441.91,-201.45C479.53,-193.5 535.49,-180.55 583,-165 585.13,-164.3 587.32,-163.53 589.51,-162.72"/>
<polygon fill="midnightblue" stroke="midnightblue" points="590.92,-165.93 598.94,-159.01 588.36,-159.41 590.92,-165.93"/>
</g>
<!-- Node15 -->
<g id="node15" class="node">
<title>Node15</title>
<g id="a_node15"><a xlink:title=" ">
<polygon fill="none" stroke="#bfbfbf" points="508.5,-140 508.5,-159 573.5,-159 573.5,-140 508.5,-140"/>
<text text-anchor="middle" x="541" y="-147" font-family="Helvetica,sans-Serif" font-size="10.00">stdexcept</text>
</a>
</g>
</g>
<!-- Node9&#45;&gt;Node15 -->
<g id="edge16" class="edge">
<title>Node9&#45;&gt;Node15</title>
<path fill="none" stroke="midnightblue" d="M419.35,-201.48C443.39,-191.4 483.6,-174.55 511.16,-163"/>
<polygon fill="midnightblue" stroke="midnightblue" points="512.82,-166.1 520.69,-159.01 510.12,-159.65 512.82,-166.1"/>
</g>
<!-- Node16 -->
<g id="node16" class="node">
<title>Node16</title>
<g id="a_node16"><a xlink:href="XalanMemoryManagement_8hpp.html" target="_top" xlink:title=" ">
<polygon fill="none" stroke="black" points="218,-134.5 218,-164.5 376,-164.5 376,-134.5 218,-134.5"/>
<text text-anchor="start" x="226" y="-152.5" font-family="Helvetica,sans-Serif" font-size="10.00">xalanc/Include/XalanMemory</text>
<text text-anchor="middle" x="297" y="-141.5" font-family="Helvetica,sans-Serif" font-size="10.00">Management.hpp</text>
</a>
</g>
</g>
<!-- Node9&#45;&gt;Node16 -->
<g id="edge17" class="edge">
<title>Node9&#45;&gt;Node16</title>
<path fill="none" stroke="midnightblue" d="M384.39,-201.48C370.18,-193.19 348.13,-180.32 329.73,-169.59"/>
<polygon fill="midnightblue" stroke="midnightblue" points="331.44,-166.54 321.04,-164.52 327.91,-172.58 331.44,-166.54"/>
</g>
<!-- Node16&#45;&gt;Node3 -->
<g id="edge18" class="edge">
<title>Node16&#45;&gt;Node3</title>
<path fill="none" stroke="midnightblue" d="M376.12,-140.07C489.51,-127.99 697.67,-105.81 816.86,-93.11"/>
<polygon fill="midnightblue" stroke="midnightblue" points="817.48,-96.56 827.05,-92.02 816.74,-89.6 817.48,-96.56"/>
</g>
<!-- Node16&#45;&gt;Node10 -->
<g id="edge20" class="edge">
<title>Node16&#45;&gt;Node10</title>
<path fill="none" stroke="midnightblue" d="M360.43,-134.48C419.56,-121.4 505.71,-102.36 554.23,-91.63"/>
<polygon fill="midnightblue" stroke="midnightblue" points="555.26,-94.99 564.27,-89.41 553.75,-88.15 555.26,-94.99"/>
</g>
<!-- Node16&#45;&gt;Node12 -->
<g id="edge19" class="edge">
<title>Node16&#45;&gt;Node12</title>
<path fill="none" stroke="midnightblue" d="M261.41,-134.4C232.38,-122.89 191.78,-106.8 164.05,-95.81"/>
<polygon fill="midnightblue" stroke="midnightblue" points="165.05,-92.44 154.46,-92.01 162.47,-98.95 165.05,-92.44"/>
</g>
<!-- Node16&#45;&gt;Node13 -->
<g id="edge21" class="edge">
<title>Node16&#45;&gt;Node13</title>
<path fill="none" stroke="midnightblue" d="M320.87,-134.4C339.57,-123.34 365.44,-108.06 383.93,-97.13"/>
<polygon fill="midnightblue" stroke="midnightblue" points="385.77,-100.11 392.6,-92.01 382.21,-94.08 385.77,-100.11"/>
</g>
<!-- Node17 -->
<g id="node17" class="node">
<title>Node17</title>
<g id="a_node17"><a xlink:title=" ">
<polygon fill="none" stroke="#bfbfbf" points="217.5,-67.5 217.5,-97.5 370.5,-97.5 370.5,-67.5 217.5,-67.5"/>
<text text-anchor="start" x="225.5" y="-85.5" font-family="Helvetica,sans-Serif" font-size="10.00">xercesc/framework/Memory</text>
<text text-anchor="middle" x="294" y="-74.5" font-family="Helvetica,sans-Serif" font-size="10.00">Manager.hpp</text>
</a>
</g>
</g>
<!-- Node16&#45;&gt;Node17 -->
<g id="edge22" class="edge">
<title>Node16&#45;&gt;Node17</title>
<path fill="none" stroke="midnightblue" d="M296.35,-134.4C295.99,-126.64 295.54,-116.81 295.12,-107.86"/>
<polygon fill="midnightblue" stroke="midnightblue" points="298.61,-107.4 294.65,-97.58 291.61,-107.73 298.61,-107.4"/>
</g>
<!-- Node18&#45;&gt;Node9 -->
<g id="edge48" class="edge">
<title>Node18&#45;&gt;Node9</title>
<path fill="none" stroke="midnightblue" d="M575.76,-374.99C560.88,-365.29 536.18,-348.73 516,-333 486.19,-309.77 478.26,-304.19 452,-277 437.21,-261.68 422.02,-242.65 411.71,-229.15"/>
<polygon fill="midnightblue" stroke="midnightblue" points="414.24,-226.68 405.43,-220.8 408.65,-230.89 414.24,-226.68"/>
</g>
<!-- Node18&#45;&gt;Node12 -->
<g id="edge26" class="edge">
<title>Node18&#45;&gt;Node12</title>
<path fill="none" stroke="midnightblue" d="M484.76,-378.98C344.94,-370.01 114,-343.74 114,-268 114,-268 114,-268 114,-210 114,-171.27 122.82,-126.61 128.44,-102.07"/>
<polygon fill="midnightblue" stroke="midnightblue" points="131.92,-102.56 130.82,-92.02 125.11,-100.94 131.92,-102.56"/>
</g>
<!-- Node18&#45;&gt;Node16 -->
<g id="edge47" class="edge">
<title>Node18&#45;&gt;Node16</title>
<path fill="none" stroke="midnightblue" d="M554.35,-374.87C492.54,-357.46 364.3,-311.83 306,-221 297.29,-207.43 295.13,-189.34 295.1,-174.88"/>
<polygon fill="midnightblue" stroke="midnightblue" points="298.6,-174.78 295.42,-164.67 291.61,-174.56 298.6,-174.78"/>
</g>
<!-- Node19 -->
<g id="node19" class="node">
<title>Node19</title>
<g id="a_node19"><a xlink:href="XalanDOMDefinitions_8hpp.html" target="_top" xlink:title=" ">
<polygon fill="none" stroke="black" points="753,-257.5 753,-276.5 985,-276.5 985,-257.5 753,-257.5"/>
<text text-anchor="middle" x="869" y="-264.5" font-family="Helvetica,sans-Serif" font-size="10.00">xalanc/XalanDOM/XalanDOMDefinitions.hpp</text>
</a>
</g>
</g>
<!-- Node18&#45;&gt;Node19 -->
<g id="edge24" class="edge">
<title>Node18&#45;&gt;Node19</title>
<path fill="none" stroke="midnightblue" d="M666.1,-374.98C766.7,-363.49 931.08,-343.29 940,-333 957.15,-313.2 926.68,-293.28 900.48,-280.81"/>
<polygon fill="midnightblue" stroke="midnightblue" points="901.66,-277.5 891.11,-276.56 898.77,-283.88 901.66,-277.5"/>
</g>
<!-- Node20 -->
<g id="node20" class="node">
<title>Node20</title>
<g id="a_node20"><a xlink:href="STLHelper_8hpp.html" target="_top" xlink:title=" ">
<polygon fill="none" stroke="black" points="525,-313.5 525,-332.5 685,-332.5 685,-313.5 525,-313.5"/>
<text text-anchor="middle" x="605" y="-320.5" font-family="Helvetica,sans-Serif" font-size="10.00">xalanc/Include/STLHelper.hpp</text>
</a>
</g>
</g>
<!-- Node18&#45;&gt;Node20 -->
<g id="edge27" class="edge">
<title>Node18&#45;&gt;Node20</title>
<path fill="none" stroke="midnightblue" d="M591.29,-374.98C593.57,-366.49 597.15,-353.2 600.07,-342.32"/>
<polygon fill="midnightblue" stroke="midnightblue" points="603.49,-343.07 602.71,-332.51 596.74,-341.26 603.49,-343.07"/>
</g>
<!-- Node25 -->
<g id="node25" class="node">
<title>Node25</title>
<g id="a_node25"><a xlink:href="XalanDOMException_8hpp.html" target="_top" xlink:title=" ">
<polygon fill="none" stroke="black" points="703.5,-313.5 703.5,-332.5 930.5,-332.5 930.5,-313.5 703.5,-313.5"/>
<text text-anchor="middle" x="817" y="-320.5" font-family="Helvetica,sans-Serif" font-size="10.00">xalanc/XalanDOM/XalanDOMException.hpp</text>
</a>
</g>
</g>
<!-- Node18&#45;&gt;Node25 -->
<g id="edge49" class="edge">
<title>Node18&#45;&gt;Node25</title>
<path fill="none" stroke="midnightblue" d="M621.67,-374.98C661.88,-364.48 730.26,-346.64 774.52,-335.09"/>
<polygon fill="midnightblue" stroke="midnightblue" points="775.6,-338.42 784.39,-332.51 773.83,-331.65 775.6,-338.42"/>
</g>
<!-- Node19&#45;&gt;Node3 -->
<g id="edge25" class="edge">
<title>Node19&#45;&gt;Node3</title>
<path fill="none" stroke="midnightblue" d="M941.26,-257.42C963.42,-251.02 985.49,-239.97 999,-221 1021.43,-189.5 1018.69,-167.28 999,-134 988.04,-115.49 967.63,-103.31 948.81,-95.56"/>
<polygon fill="midnightblue" stroke="midnightblue" points="950.05,-92.29 939.46,-92 947.56,-98.83 950.05,-92.29"/>
</g>
<!-- Node20&#45;&gt;Node3 -->
<g id="edge28" class="edge">
<title>Node20&#45;&gt;Node3</title>
<path fill="none" stroke="midnightblue" d="M624.68,-313.5C644.95,-304.66 677.38,-290.29 705,-277 722.55,-268.56 725.49,-263.08 744,-257 791.48,-241.41 933.61,-259.06 966,-221 997.72,-183.73 950.79,-126.84 923.8,-99.4"/>
<polygon fill="midnightblue" stroke="midnightblue" points="926.06,-96.72 916.49,-92.18 921.15,-101.7 926.06,-96.72"/>
</g>
<!-- Node20&#45;&gt;Node11 -->
<g id="edge29" class="edge">
<title>Node20&#45;&gt;Node11</title>
<path fill="none" stroke="midnightblue" d="M610.81,-313.45C620.7,-299.53 642.19,-272.03 667,-257 716.45,-227.04 744.1,-253.37 792,-221 812.02,-207.47 828.03,-184.32 837.51,-168.26"/>
<polygon fill="midnightblue" stroke="midnightblue" points="840.68,-169.75 842.54,-159.32 834.58,-166.32 840.68,-169.75"/>
</g>
<!-- Node21 -->
<g id="node21" class="node">
<title>Node21</title>
<g id="a_node21"><a xlink:title=" ">
<polygon fill="none" stroke="#bfbfbf" points="891.5,-201.5 891.5,-220.5 956.5,-220.5 956.5,-201.5 891.5,-201.5"/>
<text text-anchor="middle" x="924" y="-208.5" font-family="Helvetica,sans-Serif" font-size="10.00">functional</text>
</a>
</g>
</g>
<!-- Node20&#45;&gt;Node21 -->
<g id="edge30" class="edge">
<title>Node20&#45;&gt;Node21</title>
<path fill="none" stroke="midnightblue" d="M616.08,-313.41C634.64,-299.44 673.7,-271.86 711,-257 726.65,-250.76 823.82,-231.39 881.37,-220.2"/>
<polygon fill="midnightblue" stroke="midnightblue" points="882.13,-223.62 891.28,-218.28 880.79,-216.74 882.13,-223.62"/>
</g>
<!-- Node22 -->
<g id="node22" class="node">
<title>Node22</title>
<g id="a_node22"><a xlink:href="XalanMap_8hpp.html" target="_top" xlink:title=" ">
<polygon fill="none" stroke="black" points="461,-257.5 461,-276.5 621,-276.5 621,-257.5 461,-257.5"/>
<text text-anchor="middle" x="541" y="-264.5" font-family="Helvetica,sans-Serif" font-size="10.00">xalanc/Include/XalanMap.hpp</text>
</a>
</g>
</g>
<!-- Node20&#45;&gt;Node22 -->
<g id="edge31" class="edge">
<title>Node20&#45;&gt;Node22</title>
<path fill="none" stroke="midnightblue" d="M594.72,-313.32C585.16,-305.26 570.72,-293.08 559.22,-283.37"/>
<polygon fill="midnightblue" stroke="midnightblue" points="561.37,-280.61 551.47,-276.83 556.86,-285.96 561.37,-280.61"/>
</g>
<!-- Node22&#45;&gt;Node3 -->
<g id="edge32" class="edge">
<title>Node22&#45;&gt;Node3</title>
<path fill="none" stroke="midnightblue" d="M621.17,-258.87C671.4,-252.65 736.85,-241.3 792,-221 838.35,-203.94 858.66,-204.74 888,-165 901.59,-146.59 905.65,-119.98 906.76,-102.24"/>
<polygon fill="midnightblue" stroke="midnightblue" points="910.27,-102.15 907.14,-92.03 903.27,-101.89 910.27,-102.15"/>
</g>
<!-- Node22&#45;&gt;Node9 -->
<g id="edge37" class="edge">
<title>Node22&#45;&gt;Node9</title>
<path fill="none" stroke="midnightblue" d="M518.5,-257.44C494.92,-248.48 457.68,-234.31 431.04,-224.18"/>
<polygon fill="midnightblue" stroke="midnightblue" points="431.99,-220.8 421.4,-220.52 429.5,-227.34 431.99,-220.8"/>
</g>
<!-- Node22&#45;&gt;Node10 -->
<g id="edge33" class="edge">
<title>Node22&#45;&gt;Node10</title>
<path fill="none" stroke="midnightblue" d="M617.28,-257.47C663.33,-250.57 715.78,-239 730,-221 748.68,-197.36 731.13,-163.29 703,-134 682.7,-112.87 651.94,-99.87 627.79,-92.37"/>
<polygon fill="midnightblue" stroke="midnightblue" points="628.47,-88.92 617.89,-89.48 626.51,-95.64 628.47,-88.92"/>
</g>
<!-- Node22&#45;&gt;Node11 -->
<g id="edge34" class="edge">
<title>Node22&#45;&gt;Node11</title>
<path fill="none" stroke="midnightblue" d="M599.55,-257.48C655.27,-248.78 734.7,-234.64 763,-221 790.75,-207.63 816.98,-183 832.52,-166.68"/>
<polygon fill="midnightblue" stroke="midnightblue" points="835.4,-168.72 839.63,-159.01 830.26,-163.97 835.4,-168.72"/>
</g>
<!-- Node22&#45;&gt;Node21 -->
<g id="edge35" class="edge">
<title>Node22&#45;&gt;Node21</title>
<path fill="none" stroke="midnightblue" d="M601.69,-257.44C679.73,-246.44 813.3,-227.61 881.39,-218.01"/>
<polygon fill="midnightblue" stroke="midnightblue" points="881.93,-221.47 891.34,-216.6 880.95,-214.54 881.93,-221.47"/>
</g>
<!-- Node23 -->
<g id="node23" class="node">
<title>Node23</title>
<g id="a_node23"><a xlink:title=" ">
<polygon fill="none" stroke="#bfbfbf" points="501.5,-201.5 501.5,-220.5 546.5,-220.5 546.5,-201.5 501.5,-201.5"/>
<text text-anchor="middle" x="524" y="-208.5" font-family="Helvetica,sans-Serif" font-size="10.00">utility</text>
</a>
</g>
</g>
<!-- Node22&#45;&gt;Node23 -->
<g id="edge36" class="edge">
<title>Node22&#45;&gt;Node23</title>
<path fill="none" stroke="midnightblue" d="M538.19,-257.08C535.92,-249.85 532.63,-239.41 529.79,-230.4"/>
<polygon fill="midnightblue" stroke="midnightblue" points="533.1,-229.24 526.75,-220.75 526.42,-231.34 533.1,-229.24"/>
</g>
<!-- Node24 -->
<g id="node24" class="node">
<title>Node24</title>
<g id="a_node24"><a xlink:href="XalanList_8hpp.html" target="_top" xlink:title=" ">
<polygon fill="none" stroke="black" points="565,-201.5 565,-220.5 721,-220.5 721,-201.5 565,-201.5"/>
<text text-anchor="middle" x="643" y="-208.5" font-family="Helvetica,sans-Serif" font-size="10.00">xalanc/Include/XalanList.hpp</text>
</a>
</g>
</g>
<!-- Node22&#45;&gt;Node24 -->
<g id="edge38" class="edge">
<title>Node22&#45;&gt;Node24</title>
<path fill="none" stroke="midnightblue" d="M557.39,-257.32C573.67,-248.7 598.87,-235.36 617.72,-225.39"/>
<polygon fill="midnightblue" stroke="midnightblue" points="619.45,-228.43 626.65,-220.65 616.18,-222.24 619.45,-228.43"/>
</g>
<!-- Node24&#45;&gt;Node3 -->
<g id="edge39" class="edge">
<title>Node24&#45;&gt;Node3</title>
<path fill="none" stroke="midnightblue" d="M661.15,-201.31C706.66,-179.5 825.86,-122.38 879.8,-96.53"/>
<polygon fill="midnightblue" stroke="midnightblue" points="881.57,-99.57 889.08,-92.09 878.55,-93.25 881.57,-99.57"/>
</g>
<!-- Node24&#45;&gt;Node10 -->
<g id="edge40" class="edge">
<title>Node24&#45;&gt;Node10</title>
<path fill="none" stroke="midnightblue" d="M655.78,-201.37C666.39,-193.36 680.73,-180.38 687,-165 692.2,-152.24 694.12,-145.79 687,-134 674.14,-112.71 649,-99.94 627.67,-92.58"/>
<polygon fill="midnightblue" stroke="midnightblue" points="628.47,-89.16 617.88,-89.47 626.35,-95.83 628.47,-89.16"/>
</g>
<!-- Node24&#45;&gt;Node11 -->
<g id="edge41" class="edge">
<title>Node24&#45;&gt;Node11</title>
<path fill="none" stroke="midnightblue" d="M673.96,-201.46C705.86,-192.59 757.02,-178.19 801,-165 804.13,-164.06 807.37,-163.07 810.62,-162.07"/>
<polygon fill="midnightblue" stroke="midnightblue" points="811.78,-165.38 820.28,-159.06 809.69,-158.69 811.78,-165.38"/>
</g>
<!-- Node24&#45;&gt;Node12 -->
<g id="edge42" class="edge">
<title>Node24&#45;&gt;Node12</title>
<path fill="none" stroke="midnightblue" d="M564.96,-201.93C440.09,-189.01 209.25,-165.12 209,-165 201.24,-161.14 167.14,-122.78 147.35,-100.09"/>
<polygon fill="midnightblue" stroke="midnightblue" points="149.75,-97.52 140.55,-92.27 144.47,-102.11 149.75,-97.52"/>
</g>
<!-- Node24&#45;&gt;Node13 -->
<g id="edge43" class="edge">
<title>Node24&#45;&gt;Node13</title>
<path fill="none" stroke="midnightblue" d="M648.01,-201.36C656.2,-185.98 670.02,-153.62 654,-134 626.71,-100.56 494.87,-88.67 435.77,-84.98"/>
<polygon fill="midnightblue" stroke="midnightblue" points="435.81,-81.47 425.62,-84.38 435.39,-88.46 435.81,-81.47"/>
</g>
<!-- Node24&#45;&gt;Node14 -->
<g id="edge44" class="edge">
<title>Node24&#45;&gt;Node14</title>
<path fill="none" stroke="midnightblue" d="M639.42,-201.48C635.82,-192.9 630.15,-179.43 625.56,-168.48"/>
<polygon fill="midnightblue" stroke="midnightblue" points="628.68,-166.87 621.58,-159.01 622.22,-169.58 628.68,-166.87"/>
</g>
<!-- Node24&#45;&gt;Node15 -->
<g id="edge45" class="edge">
<title>Node24&#45;&gt;Node15</title>
<path fill="none" stroke="midnightblue" d="M628.39,-201.48C611.65,-191.71 584,-175.58 564.28,-164.08"/>
<polygon fill="midnightblue" stroke="midnightblue" points="565.99,-161.02 555.59,-159.01 562.46,-167.07 565.99,-161.02"/>
</g>
<!-- Node24&#45;&gt;Node16 -->
<g id="edge46" class="edge">
<title>Node24&#45;&gt;Node16</title>
<path fill="none" stroke="midnightblue" d="M593.43,-201.48C539.48,-192.2 452.14,-177.18 386.2,-165.84"/>
<polygon fill="midnightblue" stroke="midnightblue" points="386.67,-162.37 376.22,-164.12 385.48,-169.27 386.67,-162.37"/>
</g>
<!-- Node25&#45;&gt;Node19 -->
<g id="edge50" class="edge">
<title>Node25&#45;&gt;Node19</title>
<path fill="none" stroke="midnightblue" d="M825.59,-313.08C833.16,-305.22 844.38,-293.57 853.51,-284.08"/>
<polygon fill="midnightblue" stroke="midnightblue" points="856.16,-286.38 860.57,-276.75 851.12,-281.53 856.16,-286.38"/>
</g>
<!-- Node26&#45;&gt;Node2 -->
<g id="edge52" class="edge">
<title>Node26&#45;&gt;Node2</title>
<path fill="none" stroke="midnightblue" d="M1321.62,-637.45C1333.45,-607.01 1360.62,-532.41 1370,-467 1371.95,-453.36 1373.45,-449.34 1370,-436 1367.52,-426.41 1362.78,-416.7 1357.9,-408.39"/>
<polygon fill="midnightblue" stroke="midnightblue" points="1360.72,-406.3 1352.44,-399.69 1354.79,-410.02 1360.72,-406.3"/>
</g>
<!-- Node26&#45;&gt;Node12 -->
<g id="edge53" class="edge">
<title>Node26&#45;&gt;Node12</title>
<path fill="none" stroke="midnightblue" d="M1232.15,-651.97C947.83,-651.36 38,-630.26 38,-385.5 38,-385.5 38,-385.5 38,-210 38,-161.43 83.34,-119.59 111.38,-98.37"/>
<polygon fill="midnightblue" stroke="midnightblue" points="113.78,-100.94 119.79,-92.22 109.65,-95.29 113.78,-100.94"/>
</g>
<!-- Node27 -->
<g id="node27" class="node">
<title>Node27</title>
<g id="a_node27"><a xlink:href="DOMStringHelper_8hpp.html" target="_top" xlink:title=" ">
<polygon fill="none" stroke="black" points="787.5,-503.5 787.5,-533.5 918.5,-533.5 918.5,-503.5 787.5,-503.5"/>
<text text-anchor="start" x="795.5" y="-521.5" font-family="Helvetica,sans-Serif" font-size="10.00">xalanc/PlatformSupport</text>
<text text-anchor="middle" x="853" y="-510.5" font-family="Helvetica,sans-Serif" font-size="10.00">/DOMStringHelper.hpp</text>
</a>
</g>
</g>
<!-- Node26&#45;&gt;Node27 -->
<g id="edge54" class="edge">
<title>Node26&#45;&gt;Node27</title>
<path fill="none" stroke="midnightblue" d="M1266.89,-637.5C1181.11,-613.04 1004.35,-562.65 912.05,-536.33"/>
<polygon fill="midnightblue" stroke="midnightblue" points="912.88,-532.93 902.3,-533.56 910.96,-539.66 912.88,-532.93"/>
</g>
<!-- Node26&#45;&gt;Node33 -->
<g id="edge73" class="edge">
<title>Node26&#45;&gt;Node33</title>
<path fill="none" stroke="midnightblue" d="M1360.23,-637.48C1391.51,-627.56 1433.64,-614.2 1466.92,-603.65"/>
<polygon fill="midnightblue" stroke="midnightblue" points="1468.02,-606.97 1476.5,-600.61 1465.91,-600.3 1468.02,-606.97"/>
</g>
<!-- Node27&#45;&gt;Node2 -->
<g id="edge55" class="edge">
<title>Node27&#45;&gt;Node2</title>
<path fill="none" stroke="midnightblue" d="M918.8,-517.24C987.25,-514.75 1096.22,-504.48 1182,-467 1202.29,-458.13 1201.93,-447.26 1221,-436 1242.94,-423.04 1268.83,-411.76 1291.01,-403.17"/>
<polygon fill="midnightblue" stroke="midnightblue" points="1292.49,-406.35 1300.6,-399.53 1290.01,-399.81 1292.49,-406.35"/>
</g>
<!-- Node27&#45;&gt;Node9 -->
<g id="edge60" class="edge">
<title>Node27&#45;&gt;Node9</title>
<path fill="none" stroke="midnightblue" d="M787.37,-512.89C657.68,-501.96 381,-468.89 381,-385.5 381,-385.5 381,-385.5 381,-322 381,-289.54 388.73,-252.38 394.06,-230.63"/>
<polygon fill="midnightblue" stroke="midnightblue" points="397.49,-231.32 396.57,-220.76 390.71,-229.59 397.49,-231.32"/>
</g>
<!-- Node27&#45;&gt;Node11 -->
<g id="edge56" class="edge">
<title>Node27&#45;&gt;Node11</title>
<path fill="none" stroke="midnightblue" d="M819.25,-503.39C804.09,-495.16 787.69,-483.16 779,-467 758.37,-428.64 750.42,-402.71 778,-369 829.1,-306.53 888.8,-377.71 956,-333 981.04,-316.34 985.17,-305.75 994,-277 1004.57,-242.59 992.23,-225.65 966,-201 944.58,-180.88 913.93,-168.12 889.11,-160.47"/>
<polygon fill="midnightblue" stroke="midnightblue" points="889.8,-157.03 879.22,-157.59 887.84,-163.75 889.8,-157.03"/>
</g>
<!-- Node27&#45;&gt;Node12 -->
<g id="edge57" class="edge">
<title>Node27&#45;&gt;Node12</title>
<path fill="none" stroke="midnightblue" d="M787.13,-517.55C680.6,-516.31 464.51,-508.34 287,-467 189.09,-444.2 76,-486.03 76,-385.5 76,-385.5 76,-385.5 76,-210 76,-167.47 103.11,-123.43 119.94,-100.2"/>
<polygon fill="midnightblue" stroke="midnightblue" points="122.82,-102.2 126.01,-92.1 117.21,-98 122.82,-102.2"/>
</g>
<!-- Node27&#45;&gt;Node16 -->
<g id="edge62" class="edge">
<title>Node27&#45;&gt;Node16</title>
<path fill="none" stroke="midnightblue" d="M787.5,-516.91C631.14,-513.73 249,-494.78 249,-385.5 249,-385.5 249,-385.5 249,-266 249,-231.65 267.33,-195.64 281.34,-173.15"/>
<polygon fill="midnightblue" stroke="midnightblue" points="284.33,-174.96 286.82,-164.66 278.45,-171.16 284.33,-174.96"/>
</g>
<!-- Node27&#45;&gt;Node18 -->
<g id="edge64" class="edge">
<title>Node27&#45;&gt;Node18</title>
<path fill="none" stroke="midnightblue" d="M801.61,-503.47C772.99,-494.74 737.15,-482.27 707,-467 669.35,-447.94 629.83,-418.39 607.42,-400.6"/>
<polygon fill="midnightblue" stroke="midnightblue" points="609.43,-397.72 599.44,-394.19 605.04,-403.18 609.43,-397.72"/>
</g>
<!-- Node27&#45;&gt;Node20 -->
<g id="edge63" class="edge">
<title>Node27&#45;&gt;Node20</title>
<path fill="none" stroke="midnightblue" d="M804.85,-503.5C784.3,-495.54 761.34,-483.74 745,-467 711.77,-432.97 735.28,-402.98 702,-369 686.96,-353.64 665.67,-342.97 646.87,-335.89"/>
<polygon fill="midnightblue" stroke="midnightblue" points="647.91,-332.54 637.31,-332.5 645.57,-339.14 647.91,-332.54"/>
</g>
<!-- Node27&#45;&gt;Node21 -->
<g id="edge58" class="edge">
<title>Node27&#45;&gt;Node21</title>
<path fill="none" stroke="midnightblue" d="M918.62,-508.08C945.48,-501.01 974.71,-488.64 994,-467 1018.75,-439.23 1013,-422.69 1013,-385.5 1013,-385.5 1013,-385.5 1013,-322 1013,-291.9 1012.02,-281.11 994,-257 983.81,-243.37 968.17,-232.75 954.26,-225.26"/>
<polygon fill="midnightblue" stroke="midnightblue" points="955.5,-221.97 944.99,-220.58 952.34,-228.21 955.5,-221.97"/>
</g>
<!-- Node27&#45;&gt;Node22 -->
<g id="edge61" class="edge">
<title>Node27&#45;&gt;Node22</title>
<path fill="none" stroke="midnightblue" d="M787.2,-506.88C688.95,-489.5 511.6,-451.65 476,-400 449.08,-360.95 495.4,-309.11 522.88,-283.57"/>
<polygon fill="midnightblue" stroke="midnightblue" points="525.3,-286.11 530.38,-276.82 520.61,-280.91 525.3,-286.11"/>
</g>
<!-- Node28 -->
<g id="node28" class="node">
<title>Node28</title>
<g id="a_node28"><a xlink:title=" ">
<polygon fill="none" stroke="#bfbfbf" points="937,-442 937,-461 985,-461 985,-442 937,-442"/>
<text text-anchor="middle" x="961" y="-449" font-family="Helvetica,sans-Serif" font-size="10.00">iosfwd</text>
</a>
</g>
</g>
<!-- Node27&#45;&gt;Node28 -->
<g id="edge59" class="edge">
<title>Node27&#45;&gt;Node28</title>
<path fill="none" stroke="midnightblue" d="M876.43,-503.4C894.71,-492.39 919.96,-477.2 938.1,-466.28"/>
<polygon fill="midnightblue" stroke="midnightblue" points="940.1,-469.16 946.87,-461.01 936.49,-463.16 940.1,-469.16"/>
</g>
<!-- Node29 -->
<g id="node29" class="node">
<title>Node29</title>
<g id="a_node29"><a xlink:href="FormatterListener_8hpp.html" target="_top" xlink:title=" ">
<polygon fill="none" stroke="black" points="787.5,-436.5 787.5,-466.5 918.5,-466.5 918.5,-436.5 787.5,-436.5"/>
<text text-anchor="start" x="795.5" y="-454.5" font-family="Helvetica,sans-Serif" font-size="10.00">xalanc/PlatformSupport</text>
<text text-anchor="middle" x="853" y="-443.5" font-family="Helvetica,sans-Serif" font-size="10.00">/FormatterListener.hpp</text>
</a>
</g>
</g>
<!-- Node27&#45;&gt;Node29 -->
<g id="edge65" class="edge">
<title>Node27&#45;&gt;Node29</title>
<path fill="none" stroke="midnightblue" d="M853,-503.4C853,-495.64 853,-485.81 853,-476.86"/>
<polygon fill="midnightblue" stroke="midnightblue" points="856.5,-476.58 853,-466.58 849.5,-476.58 856.5,-476.58"/>
</g>
<!-- Node31 -->
<g id="node31" class="node">
<title>Node31</title>
<g id="a_node31"><a xlink:href="XalanUnicode_8hpp.html" target="_top" xlink:title=" ">
<polygon fill="none" stroke="black" points="1229.5,-436.5 1229.5,-466.5 1360.5,-466.5 1360.5,-436.5 1229.5,-436.5"/>
<text text-anchor="start" x="1237.5" y="-454.5" font-family="Helvetica,sans-Serif" font-size="10.00">xalanc/PlatformSupport</text>
<text text-anchor="middle" x="1295" y="-443.5" font-family="Helvetica,sans-Serif" font-size="10.00">/XalanUnicode.hpp</text>
</a>
</g>
</g>
<!-- Node27&#45;&gt;Node31 -->
<g id="edge69" class="edge">
<title>Node27&#45;&gt;Node31</title>
<path fill="none" stroke="midnightblue" d="M918.52,-509.18C991.12,-499.76 1111.62,-483.57 1215,-467 1216.29,-466.79 1217.6,-466.58 1218.91,-466.37"/>
<polygon fill="midnightblue" stroke="midnightblue" points="1219.83,-469.76 1229.12,-464.66 1218.67,-462.86 1219.83,-469.76"/>
</g>
<!-- Node32 -->
<g id="node32" class="node">
<title>Node32</title>
<g id="a_node32"><a xlink:href="XalanXMLChar_8hpp.html" target="_top" xlink:title=" ">
<polygon fill="none" stroke="black" points="1041.5,-436.5 1041.5,-466.5 1172.5,-466.5 1172.5,-436.5 1041.5,-436.5"/>
<text text-anchor="start" x="1049.5" y="-454.5" font-family="Helvetica,sans-Serif" font-size="10.00">xalanc/PlatformSupport</text>
<text text-anchor="middle" x="1107" y="-443.5" font-family="Helvetica,sans-Serif" font-size="10.00">/XalanXMLChar.hpp</text>
</a>
</g>
</g>
<!-- Node27&#45;&gt;Node32 -->
<g id="edge71" class="edge">
<title>Node27&#45;&gt;Node32</title>
<path fill="none" stroke="midnightblue" d="M907.8,-503.48C947.23,-493.39 1000.55,-479.74 1042.1,-469.11"/>
<polygon fill="midnightblue" stroke="midnightblue" points="1043.04,-472.48 1051.86,-466.61 1041.3,-465.7 1043.04,-472.48"/>
</g>
<!-- Node29&#45;&gt;Node2 -->
<g id="edge66" class="edge">
<title>Node29&#45;&gt;Node2</title>
<path fill="none" stroke="midnightblue" d="M918.8,-437.51C921.91,-436.98 924.99,-436.47 928,-436 1036.25,-418.95 1161.21,-404.41 1245.28,-395.37"/>
<polygon fill="midnightblue" stroke="midnightblue" points="1245.76,-398.84 1255.33,-394.3 1245.01,-391.88 1245.76,-398.84"/>
</g>
<!-- Node29&#45;&gt;Node18 -->
<g id="edge68" class="edge">
<title>Node29&#45;&gt;Node18</title>
<path fill="none" stroke="midnightblue" d="M796.04,-436.48C747.38,-424.5 678.36,-407.5 633.63,-396.49"/>
<polygon fill="midnightblue" stroke="midnightblue" points="634.19,-393.02 623.64,-394.03 632.51,-399.82 634.19,-393.02"/>
</g>
<!-- Node30 -->
<g id="node30" class="node">
<title>Node30</title>
<g id="a_node30"><a xlink:title=" ">
<polygon fill="none" stroke="#bfbfbf" points="786.5,-375 786.5,-394 971.5,-394 971.5,-375 786.5,-375"/>
<text text-anchor="middle" x="879" y="-382" font-family="Helvetica,sans-Serif" font-size="10.00">xercesc/sax/DocumentHandler.hpp</text>
</a>
</g>
</g>
<!-- Node29&#45;&gt;Node30 -->
<g id="edge67" class="edge">
<title>Node29&#45;&gt;Node30</title>
<path fill="none" stroke="midnightblue" d="M858.64,-436.4C862.49,-426.76 867.63,-413.91 871.79,-403.54"/>
<polygon fill="midnightblue" stroke="midnightblue" points="875.06,-404.78 875.52,-394.19 868.56,-402.18 875.06,-404.78"/>
</g>
<!-- Node31&#45;&gt;Node2 -->
<g id="edge70" class="edge">
<title>Node31&#45;&gt;Node2</title>
<path fill="none" stroke="midnightblue" d="M1305.2,-436.4C1311.23,-428.05 1319.02,-417.29 1325.87,-407.81"/>
<polygon fill="midnightblue" stroke="midnightblue" points="1328.8,-409.73 1331.82,-399.58 1323.13,-405.63 1328.8,-409.73"/>
</g>
<!-- Node32&#45;&gt;Node2 -->
<g id="edge72" class="edge">
<title>Node32&#45;&gt;Node2</title>
<path fill="none" stroke="midnightblue" d="M1157.7,-436.48C1193.87,-426.47 1242.68,-412.97 1280.98,-402.38"/>
<polygon fill="midnightblue" stroke="midnightblue" points="1282.28,-405.65 1290.98,-399.61 1280.41,-398.9 1282.28,-405.65"/>
</g>
<!-- Node33&#45;&gt;Node2 -->
<g id="edge74" class="edge">
<title>Node33&#45;&gt;Node2</title>
<path fill="none" stroke="midnightblue" d="M1546.18,-570.48C1591.04,-543.78 1676.45,-484 1636,-436 1610.96,-406.3 1514.31,-394.07 1438.58,-389.03"/>
<polygon fill="midnightblue" stroke="midnightblue" points="1438.71,-385.53 1428.51,-388.39 1438.27,-392.51 1438.71,-385.53"/>
</g>
<!-- Node33&#45;&gt;Node27 -->
<g id="edge75" class="edge">
<title>Node33&#45;&gt;Node27</title>
<path fill="none" stroke="midnightblue" d="M1455.43,-578.12C1330.96,-566.01 1061.12,-539.75 928.99,-526.89"/>
<polygon fill="midnightblue" stroke="midnightblue" points="929.24,-523.4 918.95,-525.92 928.57,-530.37 929.24,-523.4"/>
</g>
<!-- Node34 -->
<g id="node34" class="node">
<title>Node34</title>
<g id="a_node34"><a xlink:href="XalanLocator_8hpp.html" target="_top" xlink:title=" ">
<polygon fill="none" stroke="black" points="1455.5,-503.5 1455.5,-533.5 1586.5,-533.5 1586.5,-503.5 1455.5,-503.5"/>
<text text-anchor="start" x="1463.5" y="-521.5" font-family="Helvetica,sans-Serif" font-size="10.00">xalanc/PlatformSupport</text>
<text text-anchor="middle" x="1521" y="-510.5" font-family="Helvetica,sans-Serif" font-size="10.00">/XalanLocator.hpp</text>
</a>
</g>
</g>
<!-- Node33&#45;&gt;Node34 -->
<g id="edge76" class="edge">
<title>Node33&#45;&gt;Node34</title>
<path fill="none" stroke="midnightblue" d="M1521,-570.4C1521,-562.64 1521,-552.81 1521,-543.86"/>
<polygon fill="midnightblue" stroke="midnightblue" points="1524.5,-543.58 1521,-533.58 1517.5,-543.58 1524.5,-543.58"/>
</g>
<!-- Node34&#45;&gt;Node2 -->
<g id="edge77" class="edge">
<title>Node34&#45;&gt;Node2</title>
<path fill="none" stroke="midnightblue" d="M1509.69,-503.45C1495.15,-486.03 1468.49,-456.18 1441,-436 1423.91,-423.46 1403.26,-412.38 1385.25,-403.82"/>
<polygon fill="midnightblue" stroke="midnightblue" points="1386.65,-400.61 1376.11,-399.58 1383.7,-406.96 1386.65,-400.61"/>
</g>
<!-- Node35 -->
<g id="node35" class="node">
<title>Node35</title>
<g id="a_node35"><a xlink:title=" ">
<polygon fill="none" stroke="#bfbfbf" points="1493.5,-442 1493.5,-461 1626.5,-461 1626.5,-442 1493.5,-442"/>
<text text-anchor="middle" x="1560" y="-449" font-family="Helvetica,sans-Serif" font-size="10.00">xercesc/sax/Locator.hpp</text>
</a>
</g>
</g>
<!-- Node34&#45;&gt;Node35 -->
<g id="edge78" class="edge">
<title>Node34&#45;&gt;Node35</title>
<path fill="none" stroke="midnightblue" d="M1529.46,-503.4C1535.36,-493.56 1543.27,-480.38 1549.56,-469.89"/>
<polygon fill="midnightblue" stroke="midnightblue" points="1552.64,-471.57 1554.78,-461.19 1546.64,-467.97 1552.64,-471.57"/>
</g>
</g>
</svg>
        <g id="navigator" transform="translate(0 0)" fill="#404254">
                <rect fill="#f2f5e9" fill-opacity="0.5" stroke="#606060" stroke-width=".5" x="0" y="0" width="60" height="60"/>
                <use id="zoomplus" xlink:href="#zoomPlus" x="17" y="9" onmousedown="handleZoom(evt,'in')"/>
                <use id="zoomminus" xlink:href="#zoomMin" x="42" y="9" onmousedown="handleZoom(evt,'out')"/>
                <use id="reset" xlink:href="#resetDef" x="30" y="36" onmousedown="handleReset()"/>
                <g id="arrowUp" xlink:href="#dirArrow" transform="translate(30 24)" onmousedown="handlePan(0,-1)">
                  <use xlink:href="#rim" fill="#404040">
                        <set attributeName="fill" to="#808080" begin="arrowUp.mouseover" end="arrowUp.mouseout"/>
                  </use>
                  <path fill="none" stroke="white" stroke-width="1.5" d="M0,-3.0v7 M-2.5,-0.5L0,-3.0L2.5,-0.5"/>
                </g>
                <g id="arrowRight" xlink:href="#dirArrow" transform="rotate(90) translate(36 -43)" onmousedown="handlePan(1,0)">
                  <use xlink:href="#rim" fill="#404040">
                        <set attributeName="fill" to="#808080" begin="arrowRight.mouseover" end="arrowRight.mouseout"/>
                  </use>
                  <path fill="none" stroke="white" stroke-width="1.5" d="M0,-3.0v7 M-2.5,-0.5L0,-3.0L2.5,-0.5"/>
                </g>
                <g id="arrowDown" xlink:href="#dirArrow" transform="rotate(180) translate(-30 -48)" onmousedown="handlePan(0,1)">
                  <use xlink:href="#rim" fill="#404040">
                        <set attributeName="fill" to="#808080" begin="arrowDown.mouseover" end="arrowDown.mouseout"/>
                  </use>
                  <path fill="none" stroke="white" stroke-width="1.5" d="M0,-3.0v7 M-2.5,-0.5L0,-3.0L2.5,-0.5"/>
                </g>
                <g id="arrowLeft" xlink:href="#dirArrow" transform="rotate(270) translate(-36 17)" onmousedown="handlePan(-1,0)">
                  <use xlink:href="#rim" fill="#404040">
                        <set attributeName="fill" to="#808080" begin="arrowLeft.mouseover" end="arrowLeft.mouseout"/>
                  </use>
                  <path fill="none" stroke="white" stroke-width="1.5" d="M0,-3.0v7 M-2.5,-0.5L0,-3.0L2.5,-0.5"/>
                </g>
        </g>
        <svg viewBox="0 0 15 15" width="100%" height="30px" preserveAspectRatio="xMaxYMin meet">
         <g id="arrow_out" transform="scale(0.3 0.3)">
          <a xlink:href="XalanFStreamOutputStream_8hpp__incl_org.svg" target="_base">
           <rect id="button" ry="5" rx="5" y="6" x="6" height="38" width="38"
                fill="#f2f5e9" fill-opacity="0.5" stroke="#606060" stroke-width="1.0"/>
           <path id="arrow"
             d="M 11.500037,31.436501 C 11.940474,20.09759 22.043105,11.32322 32.158766,21.979434 L 37.068811,17.246167 C 37.068811,17.246167 37.088388,32 37.088388,32 L 22.160133,31.978069 C 22.160133,31.978069 26.997745,27.140456 26.997745,27.140456 C 18.528582,18.264221 13.291696,25.230495 11.500037,31.436501 z"
             style="fill:#404040;"/>
          </a>
         </g>
        </svg>
</svg>
