<?xml version="1.0" encoding="UTF-8" standalone="no"?>
<!DOCTYPE svg PUBLIC "-//W3C//DTD SVG 1.1//EN"
 "http://www.w3.org/Graphics/SVG/1.1/DTD/svg11.dtd">
<!-- Generated by graphviz version 2.43.0 (0)
 -->
<!-- Title: xalanc/Include/XalanAutoPtr.hpp Pages: 1 -->
<svg width="834pt" height="374pt"
 viewBox="0.00 0.00 834.00 374.00" xmlns="http://www.w3.org/2000/svg" xmlns:xlink="http://www.w3.org/1999/xlink">
<g id="graph0" class="graph" transform="scale(1 1) rotate(0) translate(4 370)">
<title>xalanc/Include/XalanAutoPtr.hpp</title>
<!-- Node1 -->
<g id="node1" class="node">
<title>Node1</title>
<g id="a_node1"><a xlink:title=" ">
<polygon fill="#bfbfbf" stroke="black" points="314.5,-335.5 314.5,-365.5 454.5,-365.5 454.5,-335.5 314.5,-335.5"/>
<text text-anchor="start" x="322.5" y="-353.5" font-family="Helvetica,sans-Serif" font-size="10.00">xalanc/Include/XalanAuto</text>
<text text-anchor="middle" x="384.5" y="-342.5" font-family="Helvetica,sans-Serif" font-size="10.00">Ptr.hpp</text>
</a>
</g>
</g>
<!-- Node2 -->
<g id="node2" class="node">
<title>Node2</title>
<g id="a_node2"><a xlink:href="XalanXMLFileReporter_8hpp.html" target="_top" xlink:title=" ">
<polygon fill="none" stroke="black" points="148,-268.5 148,-298.5 309,-298.5 309,-268.5 148,-268.5"/>
<text text-anchor="start" x="156" y="-286.5" font-family="Helvetica,sans-Serif" font-size="10.00">xalanc/Harness/XalanXMLFile</text>
<text text-anchor="middle" x="228.5" y="-275.5" font-family="Helvetica,sans-Serif" font-size="10.00">Reporter.hpp</text>
</a>
</g>
</g>
<!-- Node1&#45;&gt;Node2 -->
<g id="edge1" class="edge">
<title>Node1&#45;&gt;Node2</title>
<path fill="none" stroke="midnightblue" d="M341.41,-331.54C316.44,-321.14 285.47,-308.24 262.28,-298.58"/>
<polygon fill="midnightblue" stroke="midnightblue" points="340.07,-334.78 350.65,-335.4 342.77,-328.32 340.07,-334.78"/>
</g>
<!-- Node3 -->
<g id="node3" class="node">
<title>Node3</title>
<g id="a_node3"><a xlink:href="XalanObjectStackCache_8hpp.html" target="_top" xlink:title=" ">
<polygon fill="none" stroke="black" points="214,-201.5 214,-231.5 363,-231.5 363,-201.5 214,-201.5"/>
<text text-anchor="start" x="222" y="-219.5" font-family="Helvetica,sans-Serif" font-size="10.00">xalanc/Include/XalanObject</text>
<text text-anchor="middle" x="288.5" y="-208.5" font-family="Helvetica,sans-Serif" font-size="10.00">StackCache.hpp</text>
</a>
</g>
</g>
<!-- Node1&#45;&gt;Node3 -->
<g id="edge2" class="edge">
<title>Node1&#45;&gt;Node3</title>
<path fill="none" stroke="midnightblue" d="M368.27,-327.19C348.4,-299.86 315.32,-254.38 298.7,-231.52"/>
<polygon fill="midnightblue" stroke="midnightblue" points="365.51,-329.34 374.23,-335.37 371.18,-325.23 365.51,-329.34"/>
</g>
<!-- Node9 -->
<g id="node9" class="node">
<title>Node9</title>
<g id="a_node9"><a xlink:href="URISupport_8hpp.html" target="_top" xlink:title=" ">
<polygon fill="none" stroke="black" points="366,-268.5 366,-298.5 497,-298.5 497,-268.5 366,-268.5"/>
<text text-anchor="start" x="374" y="-286.5" font-family="Helvetica,sans-Serif" font-size="10.00">xalanc/PlatformSupport</text>
<text text-anchor="middle" x="431.5" y="-275.5" font-family="Helvetica,sans-Serif" font-size="10.00">/URISupport.hpp</text>
</a>
</g>
</g>
<!-- Node1&#45;&gt;Node9 -->
<g id="edge8" class="edge">
<title>Node1&#45;&gt;Node9</title>
<path fill="none" stroke="midnightblue" d="M400.66,-327.16C407.51,-317.68 415.29,-306.92 421.32,-298.58"/>
<polygon fill="midnightblue" stroke="midnightblue" points="397.72,-325.24 394.7,-335.4 403.39,-329.34 397.72,-325.24"/>
</g>
<!-- Node15 -->
<g id="node15" class="node">
<title>Node15</title>
<g id="a_node15"><a xlink:href="XercesDocumentBridge_8hpp.html" target="_top" xlink:title=" ">
<polygon fill="none" stroke="black" points="515,-268.5 515,-298.5 730,-298.5 730,-268.5 515,-268.5"/>
<text text-anchor="start" x="523" y="-286.5" font-family="Helvetica,sans-Serif" font-size="10.00">xalanc/XercesParserLiaison</text>
<text text-anchor="middle" x="622.5" y="-275.5" font-family="Helvetica,sans-Serif" font-size="10.00">/Deprecated/XercesDocumentBridge.hpp</text>
</a>
</g>
</g>
<!-- Node1&#45;&gt;Node15 -->
<g id="edge17" class="edge">
<title>Node1&#45;&gt;Node15</title>
<path fill="none" stroke="midnightblue" d="M445.96,-332.71C484.69,-322.14 534.13,-308.63 570.83,-298.61"/>
<polygon fill="midnightblue" stroke="midnightblue" points="444.57,-329.46 435.85,-335.48 446.42,-336.22 444.57,-329.46"/>
</g>
<!-- Node4 -->
<g id="node4" class="node">
<title>Node4</title>
<g id="a_node4"><a xlink:href="StylesheetExecutionContextDefault_8hpp.html" target="_top" xlink:title=" ">
<polygon fill="none" stroke="black" points="190,-67.5 190,-97.5 367,-97.5 367,-67.5 190,-67.5"/>
<text text-anchor="start" x="198" y="-85.5" font-family="Helvetica,sans-Serif" font-size="10.00">xalanc/XSLT/StylesheetExecution</text>
<text text-anchor="middle" x="278.5" y="-74.5" font-family="Helvetica,sans-Serif" font-size="10.00">ContextDefault.hpp</text>
</a>
</g>
</g>
<!-- Node3&#45;&gt;Node4 -->
<g id="edge3" class="edge">
<title>Node3&#45;&gt;Node4</title>
<path fill="none" stroke="midnightblue" d="M286.67,-191.39C284.59,-163.9 281.26,-119.89 279.56,-97.52"/>
<polygon fill="midnightblue" stroke="midnightblue" points="283.18,-191.67 287.43,-201.37 290.16,-191.14 283.18,-191.67"/>
</g>
<!-- Node5 -->
<g id="node5" class="node">
<title>Node5</title>
<g id="a_node5"><a xlink:href="ICUBridgeCollationCompareFunctorImpl_8hpp.html" target="_top" xlink:title=" ">
<polygon fill="none" stroke="black" points="0,-0.5 0,-30.5 183,-30.5 183,-0.5 0,-0.5"/>
<text text-anchor="start" x="8" y="-18.5" font-family="Helvetica,sans-Serif" font-size="10.00">xalanc/ICUBridge/ICUBridge</text>
<text text-anchor="middle" x="91.5" y="-7.5" font-family="Helvetica,sans-Serif" font-size="10.00">CollationCompareFunctorImpl.hpp</text>
</a>
</g>
</g>
<!-- Node4&#45;&gt;Node5 -->
<g id="edge4" class="edge">
<title>Node4&#45;&gt;Node5</title>
<path fill="none" stroke="midnightblue" d="M228.42,-64.09C198.23,-53.6 160.28,-40.41 132,-30.58"/>
<polygon fill="midnightblue" stroke="midnightblue" points="227.33,-67.42 237.92,-67.4 229.63,-60.81 227.33,-67.42"/>
</g>
<!-- Node6 -->
<g id="node6" class="node">
<title>Node6</title>
<g id="a_node6"><a xlink:href="ICUFormatNumberFunctor_8hpp.html" target="_top" xlink:title=" ">
<polygon fill="none" stroke="black" points="201,-0.5 201,-30.5 356,-30.5 356,-0.5 201,-0.5"/>
<text text-anchor="start" x="209" y="-18.5" font-family="Helvetica,sans-Serif" font-size="10.00">xalanc/ICUBridge/ICUFormat</text>
<text text-anchor="middle" x="278.5" y="-7.5" font-family="Helvetica,sans-Serif" font-size="10.00">NumberFunctor.hpp</text>
</a>
</g>
</g>
<!-- Node4&#45;&gt;Node6 -->
<g id="edge5" class="edge">
<title>Node4&#45;&gt;Node6</title>
<path fill="none" stroke="midnightblue" d="M278.5,-57.11C278.5,-48.15 278.5,-38.32 278.5,-30.58"/>
<polygon fill="midnightblue" stroke="midnightblue" points="275,-57.4 278.5,-67.4 282,-57.4 275,-57.4"/>
</g>
<!-- Node7 -->
<g id="node7" class="node">
<title>Node7</title>
<g id="a_node7"><a xlink:href="ICUXalanNumberFormatFactory_8hpp.html" target="_top" xlink:title=" ">
<polygon fill="none" stroke="black" points="374,-0.5 374,-30.5 523,-30.5 523,-0.5 374,-0.5"/>
<text text-anchor="start" x="382" y="-18.5" font-family="Helvetica,sans-Serif" font-size="10.00">xalanc/ICUBridge/ICUXalan</text>
<text text-anchor="middle" x="448.5" y="-7.5" font-family="Helvetica,sans-Serif" font-size="10.00">NumberFormatFactory.hpp</text>
</a>
</g>
</g>
<!-- Node4&#45;&gt;Node7 -->
<g id="edge6" class="edge">
<title>Node4&#45;&gt;Node7</title>
<path fill="none" stroke="midnightblue" d="M324.74,-63.82C352.07,-53.37 386.19,-40.32 411.68,-30.58"/>
<polygon fill="midnightblue" stroke="midnightblue" points="323.48,-60.56 315.39,-67.4 325.98,-67.09 323.48,-60.56"/>
</g>
<!-- Node8 -->
<g id="node8" class="node">
<title>Node8</title>
<g id="a_node8"><a xlink:href="XalanCompiledStylesheetDefault_8hpp.html" target="_top" xlink:title=" ">
<polygon fill="none" stroke="black" points="577,-0.5 577,-30.5 780,-30.5 780,-0.5 577,-0.5"/>
<text text-anchor="start" x="585" y="-18.5" font-family="Helvetica,sans-Serif" font-size="10.00">xalanc/XalanTransformer</text>
<text text-anchor="middle" x="678.5" y="-7.5" font-family="Helvetica,sans-Serif" font-size="10.00">/XalanCompiledStylesheetDefault.hpp</text>
</a>
</g>
</g>
<!-- Node4&#45;&gt;Node8 -->
<g id="edge7" class="edge">
<title>Node4&#45;&gt;Node8</title>
<path fill="none" stroke="midnightblue" d="M374.82,-65.85C440.98,-55.1 528.07,-40.95 592.01,-30.55"/>
<polygon fill="midnightblue" stroke="midnightblue" points="374.11,-62.42 364.8,-67.48 375.23,-69.33 374.11,-62.42"/>
</g>
<!-- Node10 -->
<g id="node10" class="node">
<title>Node10</title>
<g id="a_node10"><a xlink:href="StylesheetConstructionContext_8hpp.html" target="_top" xlink:title=" ">
<polygon fill="none" stroke="black" points="384,-201.5 384,-231.5 575,-231.5 575,-201.5 384,-201.5"/>
<text text-anchor="start" x="392" y="-219.5" font-family="Helvetica,sans-Serif" font-size="10.00">xalanc/XSLT/StylesheetConstruction</text>
<text text-anchor="middle" x="479.5" y="-208.5" font-family="Helvetica,sans-Serif" font-size="10.00">Context.hpp</text>
</a>
</g>
</g>
<!-- Node9&#45;&gt;Node10 -->
<g id="edge9" class="edge">
<title>Node9&#45;&gt;Node10</title>
<path fill="none" stroke="midnightblue" d="M448,-260.16C455,-250.68 462.94,-239.92 469.11,-231.58"/>
<polygon fill="midnightblue" stroke="midnightblue" points="445.04,-258.27 441.92,-268.4 450.67,-262.43 445.04,-258.27"/>
</g>
<!-- Node11 -->
<g id="node11" class="node">
<title>Node11</title>
<g id="a_node11"><a xlink:href="Stylesheet_8hpp.html" target="_top" xlink:title=" ">
<polygon fill="none" stroke="black" points="404,-140 404,-159 555,-159 555,-140 404,-140"/>
<text text-anchor="middle" x="479.5" y="-147" font-family="Helvetica,sans-Serif" font-size="10.00">xalanc/XSLT/Stylesheet.hpp</text>
</a>
</g>
</g>
<!-- Node10&#45;&gt;Node11 -->
<g id="edge10" class="edge">
<title>Node10&#45;&gt;Node11</title>
<path fill="none" stroke="midnightblue" d="M479.5,-191.25C479.5,-180.02 479.5,-167.38 479.5,-159.19"/>
<polygon fill="midnightblue" stroke="midnightblue" points="476,-191.4 479.5,-201.4 483,-191.4 476,-191.4"/>
</g>
<!-- Node14 -->
<g id="node14" class="node">
<title>Node14</title>
<g id="a_node14"><a xlink:href="StylesheetConstructionContextDefault_8hpp.html" target="_top" xlink:title=" ">
<polygon fill="none" stroke="black" points="635,-134.5 635,-164.5 826,-164.5 826,-134.5 635,-134.5"/>
<text text-anchor="start" x="643" y="-152.5" font-family="Helvetica,sans-Serif" font-size="10.00">xalanc/XSLT/StylesheetConstruction</text>
<text text-anchor="middle" x="730.5" y="-141.5" font-family="Helvetica,sans-Serif" font-size="10.00">ContextDefault.hpp</text>
</a>
</g>
</g>
<!-- Node10&#45;&gt;Node14 -->
<g id="edge15" class="edge">
<title>Node10&#45;&gt;Node14</title>
<path fill="none" stroke="midnightblue" d="M543.54,-198.92C584.5,-188.31 637.06,-174.7 676.01,-164.61"/>
<polygon fill="midnightblue" stroke="midnightblue" points="542.46,-195.58 533.65,-201.48 544.21,-202.36 542.46,-195.58"/>
</g>
<!-- Node11&#45;&gt;Node4 -->
<g id="edge11" class="edge">
<title>Node11&#45;&gt;Node4</title>
<path fill="none" stroke="midnightblue" d="M443.24,-136.77C409.16,-125.75 358.11,-109.24 321.88,-97.53"/>
<polygon fill="midnightblue" stroke="midnightblue" points="442.22,-140.12 452.81,-139.87 444.37,-133.46 442.22,-140.12"/>
</g>
<!-- Node12 -->
<g id="node12" class="node">
<title>Node12</title>
<g id="a_node12"><a xlink:href="StylesheetHandler_8hpp.html" target="_top" xlink:title=" ">
<polygon fill="none" stroke="black" points="385.5,-73 385.5,-92 573.5,-92 573.5,-73 385.5,-73"/>
<text text-anchor="middle" x="479.5" y="-80" font-family="Helvetica,sans-Serif" font-size="10.00">xalanc/XSLT/StylesheetHandler.hpp</text>
</a>
</g>
</g>
<!-- Node11&#45;&gt;Node12 -->
<g id="edge12" class="edge">
<title>Node11&#45;&gt;Node12</title>
<path fill="none" stroke="midnightblue" d="M479.5,-129.54C479.5,-117.17 479.5,-101.62 479.5,-92.13"/>
<polygon fill="midnightblue" stroke="midnightblue" points="476,-129.73 479.5,-139.73 483,-129.73 476,-129.73"/>
</g>
<!-- Node13 -->
<g id="node13" class="node">
<title>Node13</title>
<g id="a_node13"><a xlink:href="StylesheetRoot_8hpp.html" target="_top" xlink:title=" ">
<polygon fill="none" stroke="black" points="592,-73 592,-92 765,-92 765,-73 592,-73"/>
<text text-anchor="middle" x="678.5" y="-80" font-family="Helvetica,sans-Serif" font-size="10.00">xalanc/XSLT/StylesheetRoot.hpp</text>
</a>
</g>
</g>
<!-- Node11&#45;&gt;Node13 -->
<g id="edge13" class="edge">
<title>Node11&#45;&gt;Node13</title>
<path fill="none" stroke="midnightblue" d="M515.68,-136.68C555.12,-123.8 617.28,-103.5 652.28,-92.06"/>
<polygon fill="midnightblue" stroke="midnightblue" points="514.34,-133.44 505.93,-139.87 516.52,-140.09 514.34,-133.44"/>
</g>
<!-- Node13&#45;&gt;Node8 -->
<g id="edge14" class="edge">
<title>Node13&#45;&gt;Node8</title>
<path fill="none" stroke="midnightblue" d="M678.5,-62.41C678.5,-52.22 678.5,-39.9 678.5,-30.59"/>
<polygon fill="midnightblue" stroke="midnightblue" points="675,-62.73 678.5,-72.73 682,-62.73 675,-62.73"/>
</g>
<!-- Node14&#45;&gt;Node8 -->
<g id="edge16" class="edge">
<title>Node14&#45;&gt;Node8</title>
<path fill="none" stroke="midnightblue" d="M754.71,-127.31C770.69,-110.68 786.61,-87.05 774.5,-67 764.18,-49.91 745.95,-38.32 728.12,-30.6"/>
<polygon fill="midnightblue" stroke="midnightblue" points="752.15,-124.92 747.47,-134.43 757.06,-129.92 752.15,-124.92"/>
</g>
</g>
</svg>
