<?xml version="1.0" encoding="UTF-8" standalone="no"?>
<!DOCTYPE svg PUBLIC "-//W3C//DTD SVG 1.1//EN"
 "http://www.w3.org/Graphics/SVG/1.1/DTD/svg11.dtd">
<!-- Generated by graphviz version 2.43.0 (0)
 -->
<!-- Title: xalanc/PlatformSupport/XalanEncodingPropertyCache.hpp Pages: 1 -->
<!--zoomable 486 -->
<svg id="main" version="1.1" xmlns="http://www.w3.org/2000/svg" xmlns:xlink="http://www.w3.org/1999/xlink" xml:space="preserve" onload="init(evt)">
<style type="text/css"><![CDATA[
.edge:hover path { stroke: red; }
.edge:hover polygon { stroke: red; fill: red; }
]]></style>
<script type="text/javascript"><![CDATA[
var edges = document.getElementsByTagName('g');
if (edges && edges.length) {
  for (var i=0;i<edges.length;i++) {
    if (edges[i].id.substr(0,4)=='edge') {
      edges[i].setAttribute('class','edge');
    }
  }
}
]]></script>
        <defs>
                <circle id="rim" cx="0" cy="0" r="7"/>
                <circle id="rim2" cx="0" cy="0" r="3.5"/>
                <g id="zoomPlus">
                        <use xlink:href="#rim" fill="#404040">
                                <set attributeName="fill" to="#808080" begin="zoomplus.mouseover" end="zoomplus.mouseout"/>
                        </use>
                        <path d="M-4,0h8M0,-4v8" fill="none" stroke="white" stroke-width="1.5" pointer-events="none"/>
                </g>
                <g id="zoomMin">
                        <use xlink:href="#rim" fill="#404040">
                                <set attributeName="fill" to="#808080" begin="zoomminus.mouseover" end="zoomminus.mouseout"/>
                        </use>
                        <path d="M-4,0h8" fill="none" stroke="white" stroke-width="1.5" pointer-events="none"/>
                </g>
                <g id="dirArrow">
                        <path fill="none" stroke="white" stroke-width="1.5" d="M0,-3.0v7 M-2.5,-0.5L0,-3.0L2.5,-0.5"/>
                </g>
               <g id="resetDef">
                       <use xlink:href="#rim2" fill="#404040">
                               <set attributeName="fill" to="#808080" begin="reset.mouseover" end="reset.mouseout"/>
                       </use>
               </g>
        </defs>

<script type="text/javascript">
var viewWidth = 1167;
var viewHeight = 486;
var sectionId = 'dynsection-0';
</script>
<script xlink:href="svgpan.js"/>
<svg id="graph" class="graph">
<g id="viewport">
<title>xalanc/PlatformSupport/XalanEncodingPropertyCache.hpp</title>
<!-- Node1 -->
<g id="node1" class="node">
<title>Node1</title>
<g id="a_node1"><a xlink:title=" ">
<polygon fill="#bfbfbf" stroke="black" points="792,-447.5 792,-477.5 976,-477.5 976,-447.5 792,-447.5"/>
<text text-anchor="start" x="800" y="-465.5" font-family="Helvetica,sans-Serif" font-size="10.00">xalanc/PlatformSupport</text>
<text text-anchor="middle" x="884" y="-454.5" font-family="Helvetica,sans-Serif" font-size="10.00">/XalanEncodingPropertyCache.hpp</text>
</a>
</g>
</g>
<!-- Node2 -->
<g id="node2" class="node">
<title>Node2</title>
<g id="a_node2"><a xlink:href="PlatformSupportDefinitions_8hpp.html" target="_top" xlink:title=" ">
<polygon fill="none" stroke="black" points="985.5,-313.5 985.5,-343.5 1158.5,-343.5 1158.5,-313.5 985.5,-313.5"/>
<text text-anchor="start" x="993.5" y="-331.5" font-family="Helvetica,sans-Serif" font-size="10.00">xalanc/PlatformSupport</text>
<text text-anchor="middle" x="1072" y="-320.5" font-family="Helvetica,sans-Serif" font-size="10.00">/PlatformSupportDefinitions.hpp</text>
</a>
</g>
</g>
<!-- Node1&#45;&gt;Node2 -->
<g id="edge1" class="edge">
<title>Node1&#45;&gt;Node2</title>
<path fill="none" stroke="midnightblue" d="M905.46,-447.32C920.53,-437.29 941.1,-423.48 959,-411 988.56,-390.4 1021.98,-366.17 1044.76,-349.52"/>
<polygon fill="midnightblue" stroke="midnightblue" points="1046.94,-352.26 1052.94,-343.53 1042.8,-346.62 1046.94,-352.26"/>
</g>
<!-- Node7 -->
<g id="node7" class="node">
<title>Node7</title>
<g id="a_node7"><a xlink:href="XalanDOMString_8hpp.html" target="_top" xlink:title=" ">
<polygon fill="none" stroke="black" points="499,-386 499,-405 707,-405 707,-386 499,-386"/>
<text text-anchor="middle" x="603" y="-393" font-family="Helvetica,sans-Serif" font-size="10.00">xalanc/XalanDOM/XalanDOMString.hpp</text>
</a>
</g>
</g>
<!-- Node1&#45;&gt;Node7 -->
<g id="edge6" class="edge">
<title>Node1&#45;&gt;Node7</title>
<path fill="none" stroke="midnightblue" d="M823.37,-447.48C771.37,-435.45 697.49,-418.36 649.9,-407.35"/>
<polygon fill="midnightblue" stroke="midnightblue" points="650.4,-403.87 639.87,-405.03 648.82,-410.69 650.4,-403.87"/>
</g>
<!-- Node24 -->
<g id="node24" class="node">
<title>Node24</title>
<g id="a_node24"><a xlink:href="XalanBitmap_8hpp.html" target="_top" xlink:title=" ">
<polygon fill="none" stroke="black" points="818.5,-380.5 818.5,-410.5 949.5,-410.5 949.5,-380.5 818.5,-380.5"/>
<text text-anchor="start" x="826.5" y="-398.5" font-family="Helvetica,sans-Serif" font-size="10.00">xalanc/PlatformSupport</text>
<text text-anchor="middle" x="884" y="-387.5" font-family="Helvetica,sans-Serif" font-size="10.00">/XalanBitmap.hpp</text>
</a>
</g>
</g>
<!-- Node1&#45;&gt;Node24 -->
<g id="edge47" class="edge">
<title>Node1&#45;&gt;Node24</title>
<path fill="none" stroke="midnightblue" d="M884,-447.4C884,-439.64 884,-429.81 884,-420.86"/>
<polygon fill="midnightblue" stroke="midnightblue" points="887.5,-420.58 884,-410.58 880.5,-420.58 887.5,-420.58"/>
</g>
<!-- Node3 -->
<g id="node3" class="node">
<title>Node3</title>
<g id="a_node3"><a xlink:href="PlatformDefinitions_8hpp.html" target="_top" xlink:title=" ">
<polygon fill="none" stroke="black" points="710,-73 710,-92 916,-92 916,-73 710,-73"/>
<text text-anchor="middle" x="813" y="-80" font-family="Helvetica,sans-Serif" font-size="10.00">xalanc/Include/PlatformDefinitions.hpp</text>
</a>
</g>
</g>
<!-- Node2&#45;&gt;Node3 -->
<g id="edge2" class="edge">
<title>Node2&#45;&gt;Node3</title>
<path fill="none" stroke="midnightblue" d="M1078.82,-313.35C1084.95,-298.44 1091.64,-274.69 1082,-257 1032.75,-166.63 913.99,-116.22 852.05,-95.24"/>
<polygon fill="midnightblue" stroke="midnightblue" points="852.85,-91.82 842.26,-92.01 850.66,-98.46 852.85,-91.82"/>
</g>
<!-- Node4 -->
<g id="node4" class="node">
<title>Node4</title>
<g id="a_node4"><a xlink:title=" ">
<polygon fill="none" stroke="#bfbfbf" points="592,-0.5 592,-30.5 712,-30.5 712,-0.5 592,-0.5"/>
<text text-anchor="start" x="600" y="-18.5" font-family="Helvetica,sans-Serif" font-size="10.00">xercesc/util/Xerces</text>
<text text-anchor="middle" x="652" y="-7.5" font-family="Helvetica,sans-Serif" font-size="10.00">_autoconf_config.hpp</text>
</a>
</g>
</g>
<!-- Node3&#45;&gt;Node4 -->
<g id="edge3" class="edge">
<title>Node3&#45;&gt;Node4</title>
<path fill="none" stroke="midnightblue" d="M791.62,-72.87C767.36,-63.07 727.12,-46.83 696.06,-34.29"/>
<polygon fill="midnightblue" stroke="midnightblue" points="697.33,-31.03 686.75,-30.53 694.71,-37.52 697.33,-31.03"/>
</g>
<!-- Node5 -->
<g id="node5" class="node">
<title>Node5</title>
<g id="a_node5"><a xlink:title=" ">
<polygon fill="none" stroke="#bfbfbf" points="730.5,-6 730.5,-25 895.5,-25 895.5,-6 730.5,-6"/>
<text text-anchor="middle" x="813" y="-13" font-family="Helvetica,sans-Serif" font-size="10.00">xercesc/util/XercesVersion.hpp</text>
</a>
</g>
</g>
<!-- Node3&#45;&gt;Node5 -->
<g id="edge4" class="edge">
<title>Node3&#45;&gt;Node5</title>
<path fill="none" stroke="midnightblue" d="M813,-72.73C813,-63.18 813,-47.62 813,-35.28"/>
<polygon fill="midnightblue" stroke="midnightblue" points="816.5,-35.13 813,-25.13 809.5,-35.13 816.5,-35.13"/>
</g>
<!-- Node6 -->
<g id="node6" class="node">
<title>Node6</title>
<g id="a_node6"><a xlink:href="XalanVersion_8hpp.html" target="_top" xlink:title=" ">
<polygon fill="none" stroke="black" points="913.5,-6 913.5,-25 1088.5,-25 1088.5,-6 913.5,-6"/>
<text text-anchor="middle" x="1001" y="-13" font-family="Helvetica,sans-Serif" font-size="10.00">xalanc/Include/XalanVersion.hpp</text>
</a>
</g>
</g>
<!-- Node3&#45;&gt;Node6 -->
<g id="edge5" class="edge">
<title>Node3&#45;&gt;Node6</title>
<path fill="none" stroke="midnightblue" d="M837.96,-72.87C870.92,-61.47 929.12,-41.35 966.33,-28.49"/>
<polygon fill="midnightblue" stroke="midnightblue" points="967.92,-31.64 976.23,-25.06 965.64,-25.02 967.92,-31.64"/>
</g>
<!-- Node8 -->
<g id="node8" class="node">
<title>Node8</title>
<g id="a_node8"><a xlink:href="XalanDOMDefinitions_8hpp.html" target="_top" xlink:title=" ">
<polygon fill="none" stroke="black" points="841,-257.5 841,-276.5 1073,-276.5 1073,-257.5 841,-257.5"/>
<text text-anchor="middle" x="957" y="-264.5" font-family="Helvetica,sans-Serif" font-size="10.00">xalanc/XalanDOM/XalanDOMDefinitions.hpp</text>
</a>
</g>
</g>
<!-- Node7&#45;&gt;Node8 -->
<g id="edge7" class="edge">
<title>Node7&#45;&gt;Node8</title>
<path fill="none" stroke="midnightblue" d="M693.94,-385.99C786.88,-376.48 920.1,-360.27 938,-344 953.85,-329.59 957.39,-304.15 957.77,-286.7"/>
<polygon fill="midnightblue" stroke="midnightblue" points="961.26,-286.54 957.65,-276.58 954.27,-286.62 961.26,-286.54"/>
</g>
<!-- Node9 -->
<g id="node9" class="node">
<title>Node9</title>
<g id="a_node9"><a xlink:title=" ">
<polygon fill="none" stroke="#bfbfbf" points="34,-73 34,-92 86,-92 86,-73 34,-73"/>
<text text-anchor="middle" x="60" y="-80" font-family="Helvetica,sans-Serif" font-size="10.00">cassert</text>
</a>
</g>
</g>
<!-- Node7&#45;&gt;Node9 -->
<g id="edge9" class="edge">
<title>Node7&#45;&gt;Node9</title>
<path fill="none" stroke="midnightblue" d="M499,-393.77C326.5,-389.72 0,-368.75 0,-268 0,-268 0,-268 0,-210 0,-167.08 28.54,-123.19 46.25,-100.08"/>
<polygon fill="midnightblue" stroke="midnightblue" points="49.17,-102.04 52.64,-92.03 43.69,-97.69 49.17,-102.04"/>
</g>
<!-- Node10 -->
<g id="node10" class="node">
<title>Node10</title>
<g id="a_node10"><a xlink:href="STLHelper_8hpp.html" target="_top" xlink:title=" ">
<polygon fill="none" stroke="black" points="523,-319 523,-338 683,-338 683,-319 523,-319"/>
<text text-anchor="middle" x="603" y="-326" font-family="Helvetica,sans-Serif" font-size="10.00">xalanc/Include/STLHelper.hpp</text>
</a>
</g>
</g>
<!-- Node7&#45;&gt;Node10 -->
<g id="edge10" class="edge">
<title>Node7&#45;&gt;Node10</title>
<path fill="none" stroke="midnightblue" d="M603,-385.73C603,-376.18 603,-360.62 603,-348.28"/>
<polygon fill="midnightblue" stroke="midnightblue" points="606.5,-348.13 603,-338.13 599.5,-348.13 606.5,-348.13"/>
</g>
<!-- Node16 -->
<g id="node16" class="node">
<title>Node16</title>
<g id="a_node16"><a xlink:href="XalanVector_8hpp.html" target="_top" xlink:title=" ">
<polygon fill="none" stroke="black" points="180.5,-201.5 180.5,-220.5 349.5,-220.5 349.5,-201.5 180.5,-201.5"/>
<text text-anchor="middle" x="265" y="-208.5" font-family="Helvetica,sans-Serif" font-size="10.00">xalanc/Include/XalanVector.hpp</text>
</a>
</g>
</g>
<!-- Node7&#45;&gt;Node16 -->
<g id="edge44" class="edge">
<title>Node7&#45;&gt;Node16</title>
<path fill="none" stroke="midnightblue" d="M513.18,-385.97C446.66,-378.13 362.93,-364.56 335,-344 296.48,-315.63 277.13,-259.62 269.32,-230.53"/>
<polygon fill="midnightblue" stroke="midnightblue" points="272.71,-229.65 266.88,-220.81 265.92,-231.36 272.71,-229.65"/>
</g>
<!-- Node20 -->
<g id="node20" class="node">
<title>Node20</title>
<g id="a_node20"><a xlink:href="XalanMemoryManagement_8hpp.html" target="_top" xlink:title=" ">
<polygon fill="none" stroke="black" points="142,-134.5 142,-164.5 300,-164.5 300,-134.5 142,-134.5"/>
<text text-anchor="start" x="150" y="-152.5" font-family="Helvetica,sans-Serif" font-size="10.00">xalanc/Include/XalanMemory</text>
<text text-anchor="middle" x="221" y="-141.5" font-family="Helvetica,sans-Serif" font-size="10.00">Management.hpp</text>
</a>
</g>
</g>
<!-- Node7&#45;&gt;Node20 -->
<g id="edge43" class="edge">
<title>Node7&#45;&gt;Node20</title>
<path fill="none" stroke="midnightblue" d="M498.86,-391.54C439.23,-386.35 364.48,-373.72 304,-344 231.74,-308.48 203.26,-294.77 171,-221 163.01,-202.74 176.78,-184.44 191.87,-171.07"/>
<polygon fill="midnightblue" stroke="midnightblue" points="194.29,-173.61 199.78,-164.55 189.84,-168.21 194.29,-173.61"/>
</g>
<!-- Node23 -->
<g id="node23" class="node">
<title>Node23</title>
<g id="a_node23"><a xlink:href="XalanDOMException_8hpp.html" target="_top" xlink:title=" ">
<polygon fill="none" stroke="black" points="701.5,-319 701.5,-338 928.5,-338 928.5,-319 701.5,-319"/>
<text text-anchor="middle" x="815" y="-326" font-family="Helvetica,sans-Serif" font-size="10.00">xalanc/XalanDOM/XalanDOMException.hpp</text>
</a>
</g>
</g>
<!-- Node7&#45;&gt;Node23 -->
<g id="edge45" class="edge">
<title>Node7&#45;&gt;Node23</title>
<path fill="none" stroke="midnightblue" d="M631.15,-385.87C668.79,-374.33 735.63,-353.84 777.51,-341"/>
<polygon fill="midnightblue" stroke="midnightblue" points="778.53,-344.34 787.07,-338.06 776.48,-337.65 778.53,-344.34"/>
</g>
<!-- Node8&#45;&gt;Node3 -->
<g id="edge8" class="edge">
<title>Node8&#45;&gt;Node3</title>
<path fill="none" stroke="midnightblue" d="M951.72,-257.25C938.41,-235.46 901.9,-177.42 865,-134 854.45,-121.59 841.28,-108.82 830.84,-99.23"/>
<polygon fill="midnightblue" stroke="midnightblue" points="832.91,-96.39 823.14,-92.29 828.22,-101.58 832.91,-96.39"/>
</g>
<!-- Node10&#45;&gt;Node3 -->
<g id="edge11" class="edge">
<title>Node10&#45;&gt;Node3</title>
<path fill="none" stroke="midnightblue" d="M641.23,-318.96C668.27,-311.43 704.17,-298.27 730,-277 775.68,-239.38 781.56,-220.53 802,-165 809.53,-144.53 811.99,-119.47 812.75,-102.59"/>
<polygon fill="midnightblue" stroke="midnightblue" points="816.26,-102.46 813.05,-92.36 809.26,-102.26 816.26,-102.46"/>
</g>
<!-- Node11 -->
<g id="node11" class="node">
<title>Node11</title>
<g id="a_node11"><a xlink:title=" ">
<polygon fill="none" stroke="#bfbfbf" points="704,-140 704,-159 768,-159 768,-140 704,-140"/>
<text text-anchor="middle" x="736" y="-147" font-family="Helvetica,sans-Serif" font-size="10.00">algorithm</text>
</a>
</g>
</g>
<!-- Node10&#45;&gt;Node11 -->
<g id="edge12" class="edge">
<title>Node10&#45;&gt;Node11</title>
<path fill="none" stroke="midnightblue" d="M632.76,-318.94C655.64,-311.1 686.81,-297.57 708,-277 728.11,-257.48 730.37,-248.23 737,-221 739.1,-212.36 737.09,-209.89 737,-201 736.9,-190.53 736.67,-178.83 736.46,-169.34"/>
<polygon fill="midnightblue" stroke="midnightblue" points="739.95,-168.99 736.22,-159.08 732.96,-169.16 739.95,-168.99"/>
</g>
<!-- Node12 -->
<g id="node12" class="node">
<title>Node12</title>
<g id="a_node12"><a xlink:title=" ">
<polygon fill="none" stroke="#bfbfbf" points="367.5,-201.5 367.5,-220.5 432.5,-220.5 432.5,-201.5 367.5,-201.5"/>
<text text-anchor="middle" x="400" y="-208.5" font-family="Helvetica,sans-Serif" font-size="10.00">functional</text>
</a>
</g>
</g>
<!-- Node10&#45;&gt;Node12 -->
<g id="edge13" class="edge">
<title>Node10&#45;&gt;Node12</title>
<path fill="none" stroke="midnightblue" d="M587.74,-318.82C552.68,-298.87 466.15,-249.64 423.93,-225.62"/>
<polygon fill="midnightblue" stroke="midnightblue" points="425.58,-222.53 415.16,-220.62 422.12,-228.61 425.58,-222.53"/>
</g>
<!-- Node13 -->
<g id="node13" class="node">
<title>Node13</title>
<g id="a_node13"><a xlink:href="XalanMap_8hpp.html" target="_top" xlink:title=" ">
<polygon fill="none" stroke="black" points="539,-257.5 539,-276.5 699,-276.5 699,-257.5 539,-257.5"/>
<text text-anchor="middle" x="619" y="-264.5" font-family="Helvetica,sans-Serif" font-size="10.00">xalanc/Include/XalanMap.hpp</text>
</a>
</g>
</g>
<!-- Node10&#45;&gt;Node13 -->
<g id="edge14" class="edge">
<title>Node10&#45;&gt;Node13</title>
<path fill="none" stroke="midnightblue" d="M605.29,-318.98C607.57,-310.49 611.15,-297.2 614.07,-286.32"/>
<polygon fill="midnightblue" stroke="midnightblue" points="617.49,-287.07 616.71,-276.51 610.74,-285.26 617.49,-287.07"/>
</g>
<!-- Node13&#45;&gt;Node3 -->
<g id="edge15" class="edge">
<title>Node13&#45;&gt;Node3</title>
<path fill="none" stroke="midnightblue" d="M657.46,-257.47C682.04,-250.61 713.57,-239.09 737,-221 777.01,-190.11 798.92,-131.89 807.97,-102.09"/>
<polygon fill="midnightblue" stroke="midnightblue" points="811.42,-102.76 810.82,-92.18 804.69,-100.82 811.42,-102.76"/>
</g>
<!-- Node13&#45;&gt;Node11 -->
<g id="edge17" class="edge">
<title>Node13&#45;&gt;Node11</title>
<path fill="none" stroke="midnightblue" d="M656.86,-257.4C677.74,-250.78 702.49,-239.53 718,-221 730.14,-206.5 734.24,-184.86 735.55,-169.38"/>
<polygon fill="midnightblue" stroke="midnightblue" points="739.04,-169.56 736.08,-159.39 732.05,-169.19 739.04,-169.56"/>
</g>
<!-- Node13&#45;&gt;Node12 -->
<g id="edge18" class="edge">
<title>Node13&#45;&gt;Node12</title>
<path fill="none" stroke="midnightblue" d="M584.3,-257.44C545.86,-247.96 483.86,-232.68 442.53,-222.49"/>
<polygon fill="midnightblue" stroke="midnightblue" points="443.3,-219.07 432.75,-220.08 441.62,-225.87 443.3,-219.07"/>
</g>
<!-- Node14 -->
<g id="node14" class="node">
<title>Node14</title>
<g id="a_node14"><a xlink:title=" ">
<polygon fill="none" stroke="#bfbfbf" points="453.5,-73 453.5,-92 506.5,-92 506.5,-73 453.5,-73"/>
<text text-anchor="middle" x="480" y="-80" font-family="Helvetica,sans-Serif" font-size="10.00">cstddef</text>
</a>
</g>
</g>
<!-- Node13&#45;&gt;Node14 -->
<g id="edge16" class="edge">
<title>Node13&#45;&gt;Node14</title>
<path fill="none" stroke="midnightblue" d="M619.81,-257.22C621.44,-233.8 622.51,-169.26 589,-134 569.39,-113.37 539.7,-100.38 516.26,-92.75"/>
<polygon fill="midnightblue" stroke="midnightblue" points="517.23,-89.39 506.64,-89.8 515.18,-96.08 517.23,-89.39"/>
</g>
<!-- Node15 -->
<g id="node15" class="node">
<title>Node15</title>
<g id="a_node15"><a xlink:title=" ">
<polygon fill="none" stroke="#bfbfbf" points="663.5,-201.5 663.5,-220.5 708.5,-220.5 708.5,-201.5 663.5,-201.5"/>
<text text-anchor="middle" x="686" y="-208.5" font-family="Helvetica,sans-Serif" font-size="10.00">utility</text>
</a>
</g>
</g>
<!-- Node13&#45;&gt;Node15 -->
<g id="edge19" class="edge">
<title>Node13&#45;&gt;Node15</title>
<path fill="none" stroke="midnightblue" d="M629.76,-257.32C639.77,-249.26 654.89,-237.08 666.93,-227.37"/>
<polygon fill="midnightblue" stroke="midnightblue" points="669.45,-229.83 675.04,-220.83 665.06,-224.38 669.45,-229.83"/>
</g>
<!-- Node13&#45;&gt;Node16 -->
<g id="edge20" class="edge">
<title>Node13&#45;&gt;Node16</title>
<path fill="none" stroke="midnightblue" d="M562.91,-257.44C499.86,-247.83 397.6,-232.23 330.82,-222.04"/>
<polygon fill="midnightblue" stroke="midnightblue" points="331.24,-218.56 320.83,-220.52 330.19,-225.48 331.24,-218.56"/>
</g>
<!-- Node22 -->
<g id="node22" class="node">
<title>Node22</title>
<g id="a_node22"><a xlink:href="XalanList_8hpp.html" target="_top" xlink:title=" ">
<polygon fill="none" stroke="black" points="451,-201.5 451,-220.5 607,-220.5 607,-201.5 451,-201.5"/>
<text text-anchor="middle" x="529" y="-208.5" font-family="Helvetica,sans-Serif" font-size="10.00">xalanc/Include/XalanList.hpp</text>
</a>
</g>
</g>
<!-- Node13&#45;&gt;Node22 -->
<g id="edge34" class="edge">
<title>Node13&#45;&gt;Node22</title>
<path fill="none" stroke="midnightblue" d="M604.54,-257.32C590.5,-248.9 568.95,-235.97 552.46,-226.07"/>
<polygon fill="midnightblue" stroke="midnightblue" points="553.8,-222.8 543.42,-220.65 550.2,-228.8 553.8,-222.8"/>
</g>
<!-- Node16&#45;&gt;Node3 -->
<g id="edge21" class="edge">
<title>Node16&#45;&gt;Node3</title>
<path fill="none" stroke="midnightblue" d="M282.23,-201.48C298.97,-192.96 324.87,-179.13 346,-165 364.41,-152.69 364.56,-142.51 385,-134 440.04,-111.08 592.4,-97.13 699.6,-89.86"/>
<polygon fill="midnightblue" stroke="midnightblue" points="700.08,-93.34 709.83,-89.18 699.62,-86.35 700.08,-93.34"/>
</g>
<!-- Node16&#45;&gt;Node9 -->
<g id="edge24" class="edge">
<title>Node16&#45;&gt;Node9</title>
<path fill="none" stroke="midnightblue" d="M180.28,-201.69C131.65,-195 77.28,-183.57 62,-165 47.63,-147.54 50.42,-120.14 54.54,-102"/>
<polygon fill="midnightblue" stroke="midnightblue" points="57.93,-102.86 57.07,-92.3 51.16,-101.09 57.93,-102.86"/>
</g>
<!-- Node16&#45;&gt;Node11 -->
<g id="edge23" class="edge">
<title>Node16&#45;&gt;Node11</title>
<path fill="none" stroke="midnightblue" d="M332.48,-201.48C431.28,-188.99 612.38,-166.12 694.07,-155.8"/>
<polygon fill="midnightblue" stroke="midnightblue" points="694.51,-159.27 703.99,-154.54 693.63,-152.32 694.51,-159.27"/>
</g>
<!-- Node16&#45;&gt;Node14 -->
<g id="edge22" class="edge">
<title>Node16&#45;&gt;Node14</title>
<path fill="none" stroke="midnightblue" d="M272.88,-201.4C287.29,-186.08 319.45,-153.82 352,-134 380.95,-116.37 417.12,-102.77 443.63,-94.15"/>
<polygon fill="midnightblue" stroke="midnightblue" points="444.8,-97.45 453.27,-91.09 442.68,-90.78 444.8,-97.45"/>
</g>
<!-- Node17 -->
<g id="node17" class="node">
<title>Node17</title>
<g id="a_node17"><a xlink:title=" ">
<polygon fill="none" stroke="#bfbfbf" points="110.5,-73 110.5,-92 147.5,-92 147.5,-73 110.5,-73"/>
<text text-anchor="middle" x="129" y="-80" font-family="Helvetica,sans-Serif" font-size="10.00">new</text>
</a>
</g>
</g>
<!-- Node16&#45;&gt;Node17 -->
<g id="edge25" class="edge">
<title>Node16&#45;&gt;Node17</title>
<path fill="none" stroke="midnightblue" d="M192.88,-201.49C170.2,-195.1 147.35,-184.05 133,-165 119.45,-147.01 121.19,-119.93 124.45,-101.99"/>
<polygon fill="midnightblue" stroke="midnightblue" points="127.88,-102.67 126.56,-92.16 121.04,-101.21 127.88,-102.67"/>
</g>
<!-- Node18 -->
<g id="node18" class="node">
<title>Node18</title>
<g id="a_node18"><a xlink:title=" ">
<polygon fill="none" stroke="#bfbfbf" points="477.5,-140 477.5,-159 530.5,-159 530.5,-140 477.5,-140"/>
<text text-anchor="middle" x="504" y="-147" font-family="Helvetica,sans-Serif" font-size="10.00">iterator</text>
</a>
</g>
</g>
<!-- Node16&#45;&gt;Node18 -->
<g id="edge26" class="edge">
<title>Node16&#45;&gt;Node18</title>
<path fill="none" stroke="midnightblue" d="M313.99,-201.49C355.47,-193.72 416.28,-181.03 468,-165 470.28,-164.29 472.62,-163.5 474.96,-162.67"/>
<polygon fill="midnightblue" stroke="midnightblue" points="476.31,-165.9 484.41,-159.07 473.81,-159.36 476.31,-165.9"/>
</g>
<!-- Node19 -->
<g id="node19" class="node">
<title>Node19</title>
<g id="a_node19"><a xlink:title=" ">
<polygon fill="none" stroke="#bfbfbf" points="394.5,-140 394.5,-159 459.5,-159 459.5,-140 394.5,-140"/>
<text text-anchor="middle" x="427" y="-147" font-family="Helvetica,sans-Serif" font-size="10.00">stdexcept</text>
</a>
</g>
</g>
<!-- Node16&#45;&gt;Node19 -->
<g id="edge27" class="edge">
<title>Node16&#45;&gt;Node19</title>
<path fill="none" stroke="midnightblue" d="M288.21,-201.48C316,-191.27 362.72,-174.11 394.19,-162.55"/>
<polygon fill="midnightblue" stroke="midnightblue" points="395.65,-165.74 403.83,-159.01 393.24,-159.17 395.65,-165.74"/>
</g>
<!-- Node16&#45;&gt;Node20 -->
<g id="edge28" class="edge">
<title>Node16&#45;&gt;Node20</title>
<path fill="none" stroke="midnightblue" d="M258.7,-201.48C253.13,-193.94 244.76,-182.63 237.32,-172.57"/>
<polygon fill="midnightblue" stroke="midnightblue" points="240.13,-170.48 231.37,-164.52 234.5,-174.64 240.13,-170.48"/>
</g>
<!-- Node20&#45;&gt;Node3 -->
<g id="edge29" class="edge">
<title>Node20&#45;&gt;Node3</title>
<path fill="none" stroke="midnightblue" d="M300.32,-139.71C317.37,-137.82 335.28,-135.84 352,-134 481.78,-119.71 632.14,-103.26 724.91,-93.12"/>
<polygon fill="midnightblue" stroke="midnightblue" points="725.54,-96.57 735.1,-92.01 724.78,-89.61 725.54,-96.57"/>
</g>
<!-- Node20&#45;&gt;Node9 -->
<g id="edge30" class="edge">
<title>Node20&#45;&gt;Node9</title>
<path fill="none" stroke="midnightblue" d="M186.07,-134.4C157.57,-122.89 117.71,-106.8 90.48,-95.81"/>
<polygon fill="midnightblue" stroke="midnightblue" points="91.65,-92.51 81.07,-92.01 89.03,-99 91.65,-92.51"/>
</g>
<!-- Node20&#45;&gt;Node14 -->
<g id="edge31" class="edge">
<title>Node20&#45;&gt;Node14</title>
<path fill="none" stroke="midnightblue" d="M276.88,-134.48C327.41,-121.8 400.32,-103.5 443.66,-92.62"/>
<polygon fill="midnightblue" stroke="midnightblue" points="444.64,-95.98 453.49,-90.15 442.93,-89.19 444.64,-95.98"/>
</g>
<!-- Node20&#45;&gt;Node17 -->
<g id="edge32" class="edge">
<title>Node20&#45;&gt;Node17</title>
<path fill="none" stroke="midnightblue" d="M201.04,-134.4C185.75,-123.6 164.75,-108.76 149.36,-97.89"/>
<polygon fill="midnightblue" stroke="midnightblue" points="151.23,-94.92 141.04,-92.01 147.19,-100.64 151.23,-94.92"/>
</g>
<!-- Node21 -->
<g id="node21" class="node">
<title>Node21</title>
<g id="a_node21"><a xlink:title=" ">
<polygon fill="none" stroke="#bfbfbf" points="165.5,-67.5 165.5,-97.5 318.5,-97.5 318.5,-67.5 165.5,-67.5"/>
<text text-anchor="start" x="173.5" y="-85.5" font-family="Helvetica,sans-Serif" font-size="10.00">xercesc/framework/Memory</text>
<text text-anchor="middle" x="242" y="-74.5" font-family="Helvetica,sans-Serif" font-size="10.00">Manager.hpp</text>
</a>
</g>
</g>
<!-- Node20&#45;&gt;Node21 -->
<g id="edge33" class="edge">
<title>Node20&#45;&gt;Node21</title>
<path fill="none" stroke="midnightblue" d="M225.56,-134.4C228.12,-126.47 231.38,-116.38 234.32,-107.27"/>
<polygon fill="midnightblue" stroke="midnightblue" points="237.71,-108.17 237.45,-97.58 231.05,-106.02 237.71,-108.17"/>
</g>
<!-- Node22&#45;&gt;Node3 -->
<g id="edge35" class="edge">
<title>Node22&#45;&gt;Node3</title>
<path fill="none" stroke="midnightblue" d="M547.36,-201.41C577.89,-187.17 641.09,-157.87 695,-134 724.91,-120.76 759.31,-106.1 783.22,-96"/>
<polygon fill="midnightblue" stroke="midnightblue" points="784.61,-99.21 792.47,-92.1 781.89,-92.76 784.61,-99.21"/>
</g>
<!-- Node22&#45;&gt;Node9 -->
<g id="edge38" class="edge">
<title>Node22&#45;&gt;Node9</title>
<path fill="none" stroke="midnightblue" d="M450.62,-201.8C337.19,-189.83 139.99,-168.61 133,-165 104.7,-150.38 82.16,-119.95 69.97,-100.69"/>
<polygon fill="midnightblue" stroke="midnightblue" points="72.88,-98.75 64.7,-92.02 66.9,-102.38 72.88,-98.75"/>
</g>
<!-- Node22&#45;&gt;Node11 -->
<g id="edge37" class="edge">
<title>Node22&#45;&gt;Node11</title>
<path fill="none" stroke="midnightblue" d="M559.82,-201.45C591.89,-192.51 643.53,-178.01 688,-165 691.36,-164.02 694.85,-162.99 698.34,-161.94"/>
<polygon fill="midnightblue" stroke="midnightblue" points="699.53,-165.24 708.1,-159.02 697.52,-158.54 699.53,-165.24"/>
</g>
<!-- Node22&#45;&gt;Node14 -->
<g id="edge36" class="edge">
<title>Node22&#45;&gt;Node14</title>
<path fill="none" stroke="midnightblue" d="M541.78,-201.37C552.39,-193.36 566.73,-180.38 573,-165 578.2,-152.24 580.04,-145.84 573,-134 560.73,-113.37 536.77,-100.65 516.24,-93.13"/>
<polygon fill="midnightblue" stroke="midnightblue" points="517.1,-89.73 506.51,-89.85 514.86,-96.36 517.1,-89.73"/>
</g>
<!-- Node22&#45;&gt;Node17 -->
<g id="edge39" class="edge">
<title>Node22&#45;&gt;Node17</title>
<path fill="none" stroke="midnightblue" d="M534.08,-201.43C542.58,-185.87 557.14,-152.83 540,-134 482.29,-70.63 238.05,-122.77 156,-98 154.57,-97.57 153.12,-97.06 151.69,-96.49"/>
<polygon fill="midnightblue" stroke="midnightblue" points="153.09,-93.27 142.55,-92.14 150.08,-99.6 153.09,-93.27"/>
</g>
<!-- Node22&#45;&gt;Node18 -->
<g id="edge40" class="edge">
<title>Node22&#45;&gt;Node18</title>
<path fill="none" stroke="midnightblue" d="M525.42,-201.48C521.82,-192.9 516.15,-179.43 511.56,-168.48"/>
<polygon fill="midnightblue" stroke="midnightblue" points="514.68,-166.87 507.58,-159.01 508.22,-169.58 514.68,-166.87"/>
</g>
<!-- Node22&#45;&gt;Node19 -->
<g id="edge41" class="edge">
<title>Node22&#45;&gt;Node19</title>
<path fill="none" stroke="midnightblue" d="M514.39,-201.48C497.65,-191.71 470,-175.58 450.28,-164.08"/>
<polygon fill="midnightblue" stroke="midnightblue" points="451.99,-161.02 441.59,-159.01 448.46,-167.07 451.99,-161.02"/>
</g>
<!-- Node22&#45;&gt;Node20 -->
<g id="edge42" class="edge">
<title>Node22&#45;&gt;Node20</title>
<path fill="none" stroke="midnightblue" d="M484.87,-201.48C437.7,-192.36 361.83,-177.71 303.52,-166.44"/>
<polygon fill="midnightblue" stroke="midnightblue" points="304.07,-162.98 293.59,-164.52 302.74,-169.86 304.07,-162.98"/>
</g>
<!-- Node23&#45;&gt;Node8 -->
<g id="edge46" class="edge">
<title>Node23&#45;&gt;Node8</title>
<path fill="none" stroke="midnightblue" d="M835.35,-318.98C859.39,-308.9 899.6,-292.05 927.16,-280.5"/>
<polygon fill="midnightblue" stroke="midnightblue" points="928.82,-283.6 936.69,-276.51 926.12,-277.15 928.82,-283.6"/>
</g>
<!-- Node24&#45;&gt;Node2 -->
<g id="edge48" class="edge">
<title>Node24&#45;&gt;Node2</title>
<path fill="none" stroke="midnightblue" d="M924.79,-380.4C953.25,-370.56 991.4,-357.37 1021.73,-346.88"/>
<polygon fill="midnightblue" stroke="midnightblue" points="1022.98,-350.15 1031.29,-343.58 1020.69,-343.54 1022.98,-350.15"/>
</g>
<!-- Node24&#45;&gt;Node16 -->
<g id="edge49" class="edge">
<title>Node24&#45;&gt;Node16</title>
<path fill="none" stroke="midnightblue" d="M818.33,-388.33C727.68,-379.34 569.15,-361.76 514,-344 423.51,-314.86 326.94,-253.91 285.65,-226.23"/>
<polygon fill="midnightblue" stroke="midnightblue" points="287.5,-223.25 277.25,-220.54 283.57,-229.05 287.5,-223.25"/>
</g>
</g>
</svg>
        <g id="navigator" transform="translate(0 0)" fill="#404254">
                <rect fill="#f2f5e9" fill-opacity="0.5" stroke="#606060" stroke-width=".5" x="0" y="0" width="60" height="60"/>
                <use id="zoomplus" xlink:href="#zoomPlus" x="17" y="9" onmousedown="handleZoom(evt,'in')"/>
                <use id="zoomminus" xlink:href="#zoomMin" x="42" y="9" onmousedown="handleZoom(evt,'out')"/>
                <use id="reset" xlink:href="#resetDef" x="30" y="36" onmousedown="handleReset()"/>
                <g id="arrowUp" xlink:href="#dirArrow" transform="translate(30 24)" onmousedown="handlePan(0,-1)">
                  <use xlink:href="#rim" fill="#404040">
                        <set attributeName="fill" to="#808080" begin="arrowUp.mouseover" end="arrowUp.mouseout"/>
                  </use>
                  <path fill="none" stroke="white" stroke-width="1.5" d="M0,-3.0v7 M-2.5,-0.5L0,-3.0L2.5,-0.5"/>
                </g>
                <g id="arrowRight" xlink:href="#dirArrow" transform="rotate(90) translate(36 -43)" onmousedown="handlePan(1,0)">
                  <use xlink:href="#rim" fill="#404040">
                        <set attributeName="fill" to="#808080" begin="arrowRight.mouseover" end="arrowRight.mouseout"/>
                  </use>
                  <path fill="none" stroke="white" stroke-width="1.5" d="M0,-3.0v7 M-2.5,-0.5L0,-3.0L2.5,-0.5"/>
                </g>
                <g id="arrowDown" xlink:href="#dirArrow" transform="rotate(180) translate(-30 -48)" onmousedown="handlePan(0,1)">
                  <use xlink:href="#rim" fill="#404040">
                        <set attributeName="fill" to="#808080" begin="arrowDown.mouseover" end="arrowDown.mouseout"/>
                  </use>
                  <path fill="none" stroke="white" stroke-width="1.5" d="M0,-3.0v7 M-2.5,-0.5L0,-3.0L2.5,-0.5"/>
                </g>
                <g id="arrowLeft" xlink:href="#dirArrow" transform="rotate(270) translate(-36 17)" onmousedown="handlePan(-1,0)">
                  <use xlink:href="#rim" fill="#404040">
                        <set attributeName="fill" to="#808080" begin="arrowLeft.mouseover" end="arrowLeft.mouseout"/>
                  </use>
                  <path fill="none" stroke="white" stroke-width="1.5" d="M0,-3.0v7 M-2.5,-0.5L0,-3.0L2.5,-0.5"/>
                </g>
        </g>
        <svg viewBox="0 0 15 15" width="100%" height="30px" preserveAspectRatio="xMaxYMin meet">
         <g id="arrow_out" transform="scale(0.3 0.3)">
          <a xlink:href="XalanEncodingPropertyCache_8hpp__incl_org.svg" target="_base">
           <rect id="button" ry="5" rx="5" y="6" x="6" height="38" width="38"
                fill="#f2f5e9" fill-opacity="0.5" stroke="#606060" stroke-width="1.0"/>
           <path id="arrow"
             d="M 11.500037,31.436501 C 11.940474,20.09759 22.043105,11.32322 32.158766,21.979434 L 37.068811,17.246167 C 37.068811,17.246167 37.088388,32 37.088388,32 L 22.160133,31.978069 C 22.160133,31.978069 26.997745,27.140456 26.997745,27.140456 C 18.528582,18.264221 13.291696,25.230495 11.500037,31.436501 z"
             style="fill:#404040;"/>
          </a>
         </g>
        </svg>
</svg>
