<?xml version="1.0" encoding="UTF-8" standalone="no"?>
<!DOCTYPE svg PUBLIC "-//W3C//DTD SVG 1.1//EN"
 "http://www.w3.org/Graphics/SVG/1.1/DTD/svg11.dtd">
<!-- Generated by graphviz version 2.43.0 (0)
 -->
<!-- Title: xalanc/XalanDOM/XalanDOMString.hpp Pages: 1 -->
<!--zoomable 397 -->
<svg id="main" version="1.1" xmlns="http://www.w3.org/2000/svg" xmlns:xlink="http://www.w3.org/1999/xlink" xml:space="preserve" onload="init(evt)">
<style type="text/css"><![CDATA[
.edge:hover path { stroke: red; }
.edge:hover polygon { stroke: red; fill: red; }
]]></style>
<script type="text/javascript"><![CDATA[
var edges = document.getElementsByTagName('g');
if (edges && edges.length) {
  for (var i=0;i<edges.length;i++) {
    if (edges[i].id.substr(0,4)=='edge') {
      edges[i].setAttribute('class','edge');
    }
  }
}
]]></script>
        <defs>
                <circle id="rim" cx="0" cy="0" r="7"/>
                <circle id="rim2" cx="0" cy="0" r="3.5"/>
                <g id="zoomPlus">
                        <use xlink:href="#rim" fill="#404040">
                                <set attributeName="fill" to="#808080" begin="zoomplus.mouseover" end="zoomplus.mouseout"/>
                        </use>
                        <path d="M-4,0h8M0,-4v8" fill="none" stroke="white" stroke-width="1.5" pointer-events="none"/>
                </g>
                <g id="zoomMin">
                        <use xlink:href="#rim" fill="#404040">
                                <set attributeName="fill" to="#808080" begin="zoomminus.mouseover" end="zoomminus.mouseout"/>
                        </use>
                        <path d="M-4,0h8" fill="none" stroke="white" stroke-width="1.5" pointer-events="none"/>
                </g>
                <g id="dirArrow">
                        <path fill="none" stroke="white" stroke-width="1.5" d="M0,-3.0v7 M-2.5,-0.5L0,-3.0L2.5,-0.5"/>
                </g>
               <g id="resetDef">
                       <use xlink:href="#rim2" fill="#404040">
                               <set attributeName="fill" to="#808080" begin="reset.mouseover" end="reset.mouseout"/>
                       </use>
               </g>
        </defs>

<script type="text/javascript">
var viewWidth = 1234;
var viewHeight = 397;
var sectionId = 'dynsection-0';
</script>
<script xlink:href="svgpan.js"/>
<svg id="graph" class="graph">
<g id="viewport">
<title>xalanc/XalanDOM/XalanDOMString.hpp</title>
<!-- Node1 -->
<g id="node1" class="node">
<title>Node1</title>
<g id="a_node1"><a xlink:title=" ">
<polygon fill="#bfbfbf" stroke="black" points="408,-369.5 408,-388.5 616,-388.5 616,-369.5 408,-369.5"/>
<text text-anchor="middle" x="512" y="-376.5" font-family="Helvetica,sans-Serif" font-size="10.00">xalanc/XalanDOM/XalanDOMString.hpp</text>
</a>
</g>
</g>
<!-- Node2 -->
<g id="node2" class="node">
<title>Node2</title>
<g id="a_node2"><a xlink:href="XalanDOMDefinitions_8hpp.html" target="_top" xlink:title=" ">
<polygon fill="none" stroke="black" points="0,-257.5 0,-276.5 232,-276.5 232,-257.5 0,-257.5"/>
<text text-anchor="middle" x="116" y="-264.5" font-family="Helvetica,sans-Serif" font-size="10.00">xalanc/XalanDOM/XalanDOMDefinitions.hpp</text>
</a>
</g>
</g>
<!-- Node1&#45;&gt;Node2 -->
<g id="edge1" class="edge">
<title>Node1&#45;&gt;Node2</title>
<path fill="none" stroke="midnightblue" d="M480.91,-369.48C448.28,-360.5 395.49,-345.91 350,-333 319.28,-324.28 311.74,-321.65 281,-313 239.17,-301.23 191.23,-288.21 157.85,-279.22"/>
<polygon fill="midnightblue" stroke="midnightblue" points="158.55,-275.78 147.98,-276.56 156.73,-282.54 158.55,-275.78"/>
</g>
<!-- Node7 -->
<g id="node7" class="node">
<title>Node7</title>
<g id="a_node7"><a xlink:title=" ">
<polygon fill="none" stroke="#bfbfbf" points="1153,-73 1153,-92 1205,-92 1205,-73 1153,-73"/>
<text text-anchor="middle" x="1179" y="-80" font-family="Helvetica,sans-Serif" font-size="10.00">cassert</text>
</a>
</g>
</g>
<!-- Node1&#45;&gt;Node7 -->
<g id="edge6" class="edge">
<title>Node1&#45;&gt;Node7</title>
<path fill="none" stroke="midnightblue" d="M616.2,-372.54C814.38,-360.76 1226,-328.95 1226,-268 1226,-268 1226,-268 1226,-210 1226,-168.82 1203.84,-124.55 1189.95,-100.85"/>
<polygon fill="midnightblue" stroke="midnightblue" points="1192.94,-99.02 1184.76,-92.28 1186.95,-102.65 1192.94,-99.02"/>
</g>
<!-- Node8 -->
<g id="node8" class="node">
<title>Node8</title>
<g id="a_node8"><a xlink:href="STLHelper_8hpp.html" target="_top" xlink:title=" ">
<polygon fill="none" stroke="black" points="359,-313.5 359,-332.5 519,-332.5 519,-313.5 359,-313.5"/>
<text text-anchor="middle" x="439" y="-320.5" font-family="Helvetica,sans-Serif" font-size="10.00">xalanc/Include/STLHelper.hpp</text>
</a>
</g>
</g>
<!-- Node1&#45;&gt;Node8 -->
<g id="edge7" class="edge">
<title>Node1&#45;&gt;Node8</title>
<path fill="none" stroke="midnightblue" d="M500.27,-369.32C489.16,-361.11 472.26,-348.6 459.02,-338.81"/>
<polygon fill="midnightblue" stroke="midnightblue" points="461.06,-335.97 450.94,-332.83 456.9,-341.59 461.06,-335.97"/>
</g>
<!-- Node14 -->
<g id="node14" class="node">
<title>Node14</title>
<g id="a_node14"><a xlink:href="XalanVector_8hpp.html" target="_top" xlink:title=" ">
<polygon fill="none" stroke="black" points="769.5,-201.5 769.5,-220.5 938.5,-220.5 938.5,-201.5 769.5,-201.5"/>
<text text-anchor="middle" x="854" y="-208.5" font-family="Helvetica,sans-Serif" font-size="10.00">xalanc/Include/XalanVector.hpp</text>
</a>
</g>
</g>
<!-- Node1&#45;&gt;Node14 -->
<g id="edge41" class="edge">
<title>Node1&#45;&gt;Node14</title>
<path fill="none" stroke="midnightblue" d="M529.91,-369.31C586.23,-341.97 760.05,-257.6 827.17,-225.02"/>
<polygon fill="midnightblue" stroke="midnightblue" points="828.8,-228.12 836.27,-220.61 825.75,-221.82 828.8,-228.12"/>
</g>
<!-- Node18 -->
<g id="node18" class="node">
<title>Node18</title>
<g id="a_node18"><a xlink:href="XalanMemoryManagement_8hpp.html" target="_top" xlink:title=" ">
<polygon fill="none" stroke="black" points="964,-134.5 964,-164.5 1122,-164.5 1122,-134.5 964,-134.5"/>
<text text-anchor="start" x="972" y="-152.5" font-family="Helvetica,sans-Serif" font-size="10.00">xalanc/Include/XalanMemory</text>
<text text-anchor="middle" x="1043" y="-141.5" font-family="Helvetica,sans-Serif" font-size="10.00">Management.hpp</text>
</a>
</g>
</g>
<!-- Node1&#45;&gt;Node18 -->
<g id="edge40" class="edge">
<title>Node1&#45;&gt;Node18</title>
<path fill="none" stroke="midnightblue" d="M545.95,-369.44C621.24,-349.68 806.71,-296.73 948,-221 974.06,-207.03 1000.85,-186.48 1019.31,-171.17"/>
<polygon fill="midnightblue" stroke="midnightblue" points="1021.78,-173.66 1027.17,-164.54 1017.27,-168.31 1021.78,-173.66"/>
</g>
<!-- Node21 -->
<g id="node21" class="node">
<title>Node21</title>
<g id="a_node21"><a xlink:href="XalanDOMException_8hpp.html" target="_top" xlink:title=" ">
<polygon fill="none" stroke="black" points="45.5,-313.5 45.5,-332.5 272.5,-332.5 272.5,-313.5 45.5,-313.5"/>
<text text-anchor="middle" x="159" y="-320.5" font-family="Helvetica,sans-Serif" font-size="10.00">xalanc/XalanDOM/XalanDOMException.hpp</text>
</a>
</g>
</g>
<!-- Node1&#45;&gt;Node21 -->
<g id="edge42" class="edge">
<title>Node1&#45;&gt;Node21</title>
<path fill="none" stroke="midnightblue" d="M456.07,-369.44C393.2,-359.83 291.23,-344.23 224.64,-334.04"/>
<polygon fill="midnightblue" stroke="midnightblue" points="225.09,-330.57 214.67,-332.52 224.03,-337.49 225.09,-330.57"/>
</g>
<!-- Node3 -->
<g id="node3" class="node">
<title>Node3</title>
<g id="a_node3"><a xlink:href="PlatformDefinitions_8hpp.html" target="_top" xlink:title=" ">
<polygon fill="none" stroke="black" points="421,-73 421,-92 627,-92 627,-73 421,-73"/>
<text text-anchor="middle" x="524" y="-80" font-family="Helvetica,sans-Serif" font-size="10.00">xalanc/Include/PlatformDefinitions.hpp</text>
</a>
</g>
</g>
<!-- Node2&#45;&gt;Node3 -->
<g id="edge2" class="edge">
<title>Node2&#45;&gt;Node3</title>
<path fill="none" stroke="midnightblue" d="M120.79,-257.44C134.73,-233.43 177.83,-165.19 234,-134 266.91,-115.73 357.98,-101.76 429.37,-93.2"/>
<polygon fill="midnightblue" stroke="midnightblue" points="429.79,-96.67 439.31,-92.02 428.97,-89.72 429.79,-96.67"/>
</g>
<!-- Node4 -->
<g id="node4" class="node">
<title>Node4</title>
<g id="a_node4"><a xlink:title=" ">
<polygon fill="none" stroke="#bfbfbf" points="303,-0.5 303,-30.5 423,-30.5 423,-0.5 303,-0.5"/>
<text text-anchor="start" x="311" y="-18.5" font-family="Helvetica,sans-Serif" font-size="10.00">xercesc/util/Xerces</text>
<text text-anchor="middle" x="363" y="-7.5" font-family="Helvetica,sans-Serif" font-size="10.00">_autoconf_config.hpp</text>
</a>
</g>
</g>
<!-- Node3&#45;&gt;Node4 -->
<g id="edge3" class="edge">
<title>Node3&#45;&gt;Node4</title>
<path fill="none" stroke="midnightblue" d="M502.62,-72.87C478.36,-63.07 438.12,-46.83 407.06,-34.29"/>
<polygon fill="midnightblue" stroke="midnightblue" points="408.33,-31.03 397.75,-30.53 405.71,-37.52 408.33,-31.03"/>
</g>
<!-- Node5 -->
<g id="node5" class="node">
<title>Node5</title>
<g id="a_node5"><a xlink:title=" ">
<polygon fill="none" stroke="#bfbfbf" points="441.5,-6 441.5,-25 606.5,-25 606.5,-6 441.5,-6"/>
<text text-anchor="middle" x="524" y="-13" font-family="Helvetica,sans-Serif" font-size="10.00">xercesc/util/XercesVersion.hpp</text>
</a>
</g>
</g>
<!-- Node3&#45;&gt;Node5 -->
<g id="edge4" class="edge">
<title>Node3&#45;&gt;Node5</title>
<path fill="none" stroke="midnightblue" d="M524,-72.73C524,-63.18 524,-47.62 524,-35.28"/>
<polygon fill="midnightblue" stroke="midnightblue" points="527.5,-35.13 524,-25.13 520.5,-35.13 527.5,-35.13"/>
</g>
<!-- Node6 -->
<g id="node6" class="node">
<title>Node6</title>
<g id="a_node6"><a xlink:href="XalanVersion_8hpp.html" target="_top" xlink:title=" ">
<polygon fill="none" stroke="black" points="624.5,-6 624.5,-25 799.5,-25 799.5,-6 624.5,-6"/>
<text text-anchor="middle" x="712" y="-13" font-family="Helvetica,sans-Serif" font-size="10.00">xalanc/Include/XalanVersion.hpp</text>
</a>
</g>
</g>
<!-- Node3&#45;&gt;Node6 -->
<g id="edge5" class="edge">
<title>Node3&#45;&gt;Node6</title>
<path fill="none" stroke="midnightblue" d="M548.96,-72.87C581.92,-61.47 640.12,-41.35 677.33,-28.49"/>
<polygon fill="midnightblue" stroke="midnightblue" points="678.92,-31.64 687.23,-25.06 676.64,-25.02 678.92,-31.64"/>
</g>
<!-- Node8&#45;&gt;Node3 -->
<g id="edge8" class="edge">
<title>Node8&#45;&gt;Node3</title>
<path fill="none" stroke="midnightblue" d="M402.16,-313.4C341.23,-297.34 229.71,-259.06 267,-201 308.07,-137.07 393.51,-107.49 454.6,-94.09"/>
<polygon fill="midnightblue" stroke="midnightblue" points="455.5,-97.48 464.57,-92 454.06,-90.63 455.5,-97.48"/>
</g>
<!-- Node9 -->
<g id="node9" class="node">
<title>Node9</title>
<g id="a_node9"><a xlink:title=" ">
<polygon fill="none" stroke="#bfbfbf" points="499,-140 499,-159 563,-159 563,-140 499,-140"/>
<text text-anchor="middle" x="531" y="-147" font-family="Helvetica,sans-Serif" font-size="10.00">algorithm</text>
</a>
</g>
</g>
<!-- Node8&#45;&gt;Node9 -->
<g id="edge9" class="edge">
<title>Node8&#45;&gt;Node9</title>
<path fill="none" stroke="midnightblue" d="M475.08,-313.4C494.27,-306.81 516.26,-295.59 528,-277 549.04,-243.68 542.07,-194.95 536.01,-168.76"/>
<polygon fill="midnightblue" stroke="midnightblue" points="539.39,-167.87 533.55,-159.03 532.61,-169.58 539.39,-167.87"/>
</g>
<!-- Node10 -->
<g id="node10" class="node">
<title>Node10</title>
<g id="a_node10"><a xlink:title=" ">
<polygon fill="none" stroke="#bfbfbf" points="276.5,-201.5 276.5,-220.5 341.5,-220.5 341.5,-201.5 276.5,-201.5"/>
<text text-anchor="middle" x="309" y="-208.5" font-family="Helvetica,sans-Serif" font-size="10.00">functional</text>
</a>
</g>
</g>
<!-- Node8&#45;&gt;Node10 -->
<g id="edge10" class="edge">
<title>Node8&#45;&gt;Node10</title>
<path fill="none" stroke="midnightblue" d="M413.79,-313.48C394.66,-306.09 368.57,-293.89 350,-277 335.39,-263.71 323.96,-244.05 316.93,-229.83"/>
<polygon fill="midnightblue" stroke="midnightblue" points="320.01,-228.18 312.6,-220.61 313.68,-231.15 320.01,-228.18"/>
</g>
<!-- Node11 -->
<g id="node11" class="node">
<title>Node11</title>
<g id="a_node11"><a xlink:href="XalanMap_8hpp.html" target="_top" xlink:title=" ">
<polygon fill="none" stroke="black" points="359,-257.5 359,-276.5 519,-276.5 519,-257.5 359,-257.5"/>
<text text-anchor="middle" x="439" y="-264.5" font-family="Helvetica,sans-Serif" font-size="10.00">xalanc/Include/XalanMap.hpp</text>
</a>
</g>
</g>
<!-- Node8&#45;&gt;Node11 -->
<g id="edge11" class="edge">
<title>Node8&#45;&gt;Node11</title>
<path fill="none" stroke="midnightblue" d="M439,-313.08C439,-306.01 439,-295.86 439,-286.99"/>
<polygon fill="midnightblue" stroke="midnightblue" points="442.5,-286.75 439,-276.75 435.5,-286.75 442.5,-286.75"/>
</g>
<!-- Node11&#45;&gt;Node3 -->
<g id="edge12" class="edge">
<title>Node11&#45;&gt;Node3</title>
<path fill="none" stroke="midnightblue" d="M438,-257.24C435.9,-234.94 433.02,-174.9 457,-134 466.25,-118.23 482.53,-105.78 496.73,-97.19"/>
<polygon fill="midnightblue" stroke="midnightblue" points="498.7,-100.1 505.66,-92.11 495.24,-94.01 498.7,-100.1"/>
</g>
<!-- Node11&#45;&gt;Node9 -->
<g id="edge14" class="edge">
<title>Node11&#45;&gt;Node9</title>
<path fill="none" stroke="midnightblue" d="M449.14,-257.26C458.9,-248.59 473.8,-234.64 485,-221 498.86,-204.11 512.22,-182.9 520.94,-168.18"/>
<polygon fill="midnightblue" stroke="midnightblue" points="524.18,-169.57 526.18,-159.16 518.13,-166.05 524.18,-169.57"/>
</g>
<!-- Node11&#45;&gt;Node10 -->
<g id="edge15" class="edge">
<title>Node11&#45;&gt;Node10</title>
<path fill="none" stroke="midnightblue" d="M418.4,-257.44C397.01,-248.56 363.32,-234.56 338.98,-224.45"/>
<polygon fill="midnightblue" stroke="midnightblue" points="340.08,-221.12 329.5,-220.52 337.39,-227.58 340.08,-221.12"/>
</g>
<!-- Node12 -->
<g id="node12" class="node">
<title>Node12</title>
<g id="a_node12"><a xlink:title=" ">
<polygon fill="none" stroke="#bfbfbf" points="669.5,-73 669.5,-92 722.5,-92 722.5,-73 669.5,-73"/>
<text text-anchor="middle" x="696" y="-80" font-family="Helvetica,sans-Serif" font-size="10.00">cstddef</text>
</a>
</g>
</g>
<!-- Node11&#45;&gt;Node12 -->
<g id="edge13" class="edge">
<title>Node11&#45;&gt;Node12</title>
<path fill="none" stroke="midnightblue" d="M441.87,-257.21C451.12,-229.09 480.13,-142.68 490,-134 490.81,-133.29 600.1,-106.73 659.14,-92.42"/>
<polygon fill="midnightblue" stroke="midnightblue" points="660.31,-95.74 669.2,-89.99 658.66,-88.94 660.31,-95.74"/>
</g>
<!-- Node13 -->
<g id="node13" class="node">
<title>Node13</title>
<g id="a_node13"><a xlink:title=" ">
<polygon fill="none" stroke="#bfbfbf" points="359.5,-201.5 359.5,-220.5 404.5,-220.5 404.5,-201.5 359.5,-201.5"/>
<text text-anchor="middle" x="382" y="-208.5" font-family="Helvetica,sans-Serif" font-size="10.00">utility</text>
</a>
</g>
</g>
<!-- Node11&#45;&gt;Node13 -->
<g id="edge16" class="edge">
<title>Node11&#45;&gt;Node13</title>
<path fill="none" stroke="midnightblue" d="M429.84,-257.32C421.5,-249.42 408.97,-237.55 398.82,-227.94"/>
<polygon fill="midnightblue" stroke="midnightblue" points="400.99,-225.17 391.32,-220.83 396.18,-230.25 400.99,-225.17"/>
</g>
<!-- Node11&#45;&gt;Node14 -->
<g id="edge17" class="edge">
<title>Node11&#45;&gt;Node14</title>
<path fill="none" stroke="midnightblue" d="M504.76,-257.44C579.13,-247.77 700.03,-232.04 778.28,-221.85"/>
<polygon fill="midnightblue" stroke="midnightblue" points="779.08,-225.28 788.55,-220.52 778.18,-218.34 779.08,-225.28"/>
</g>
<!-- Node20 -->
<g id="node20" class="node">
<title>Node20</title>
<g id="a_node20"><a xlink:href="XalanList_8hpp.html" target="_top" xlink:title=" ">
<polygon fill="none" stroke="black" points="589,-201.5 589,-220.5 745,-220.5 745,-201.5 589,-201.5"/>
<text text-anchor="middle" x="667" y="-208.5" font-family="Helvetica,sans-Serif" font-size="10.00">xalanc/Include/XalanList.hpp</text>
</a>
</g>
</g>
<!-- Node11&#45;&gt;Node20 -->
<g id="edge31" class="edge">
<title>Node11&#45;&gt;Node20</title>
<path fill="none" stroke="midnightblue" d="M475.13,-257.44C514.65,-248.08 578.1,-233.06 621.11,-222.87"/>
<polygon fill="midnightblue" stroke="midnightblue" points="622.12,-226.23 631.04,-220.52 620.5,-219.42 622.12,-226.23"/>
</g>
<!-- Node14&#45;&gt;Node3 -->
<g id="edge18" class="edge">
<title>Node14&#45;&gt;Node3</title>
<path fill="none" stroke="midnightblue" d="M855.43,-201.27C857.47,-185.43 859.18,-151.98 841,-134 832.44,-125.54 691.05,-105.5 600.02,-93.36"/>
<polygon fill="midnightblue" stroke="midnightblue" points="600.37,-89.88 590,-92.03 599.45,-96.81 600.37,-89.88"/>
</g>
<!-- Node14&#45;&gt;Node7 -->
<g id="edge21" class="edge">
<title>Node14&#45;&gt;Node7</title>
<path fill="none" stroke="midnightblue" d="M938.86,-208.49C1019.4,-205.21 1132.66,-195.18 1164,-165 1180.65,-148.97 1182.31,-120.96 1181.24,-102.32"/>
<polygon fill="midnightblue" stroke="midnightblue" points="1184.7,-101.77 1180.32,-92.12 1177.73,-102.39 1184.7,-101.77"/>
</g>
<!-- Node14&#45;&gt;Node9 -->
<g id="edge20" class="edge">
<title>Node14&#45;&gt;Node9</title>
<path fill="none" stroke="midnightblue" d="M807.72,-201.48C744.9,-189.9 633.53,-169.39 573,-158.24"/>
<polygon fill="midnightblue" stroke="midnightblue" points="573.49,-154.77 563.02,-156.4 572.22,-161.65 573.49,-154.77"/>
</g>
<!-- Node14&#45;&gt;Node12 -->
<g id="edge19" class="edge">
<title>Node14&#45;&gt;Node12</title>
<path fill="none" stroke="midnightblue" d="M860.76,-201.09C871.43,-185.86 889.47,-154.46 874,-134 857.03,-111.54 779.88,-96.17 732.9,-88.7"/>
<polygon fill="midnightblue" stroke="midnightblue" points="733.21,-85.21 722.79,-87.14 732.14,-92.13 733.21,-85.21"/>
</g>
<!-- Node15 -->
<g id="node15" class="node">
<title>Node15</title>
<g id="a_node15"><a xlink:title=" ">
<polygon fill="none" stroke="#bfbfbf" points="914.5,-73 914.5,-92 951.5,-92 951.5,-73 914.5,-73"/>
<text text-anchor="middle" x="933" y="-80" font-family="Helvetica,sans-Serif" font-size="10.00">new</text>
</a>
</g>
</g>
<!-- Node14&#45;&gt;Node15 -->
<g id="edge22" class="edge">
<title>Node14&#45;&gt;Node15</title>
<path fill="none" stroke="midnightblue" d="M870.2,-201.46C883.39,-193.68 901.5,-180.97 912,-165 924.58,-145.87 929.62,-119.63 931.65,-102.15"/>
<polygon fill="midnightblue" stroke="midnightblue" points="935.14,-102.37 932.59,-92.08 928.17,-101.71 935.14,-102.37"/>
</g>
<!-- Node16 -->
<g id="node16" class="node">
<title>Node16</title>
<g id="a_node16"><a xlink:title=" ">
<polygon fill="none" stroke="#bfbfbf" points="695.5,-140 695.5,-159 748.5,-159 748.5,-140 695.5,-140"/>
<text text-anchor="middle" x="722" y="-147" font-family="Helvetica,sans-Serif" font-size="10.00">iterator</text>
</a>
</g>
</g>
<!-- Node14&#45;&gt;Node16 -->
<g id="edge23" class="edge">
<title>Node14&#45;&gt;Node16</title>
<path fill="none" stroke="midnightblue" d="M835.09,-201.48C812.84,-191.45 775.69,-174.7 750.07,-163.15"/>
<polygon fill="midnightblue" stroke="midnightblue" points="751.43,-159.93 740.88,-159.01 748.56,-166.31 751.43,-159.93"/>
</g>
<!-- Node17 -->
<g id="node17" class="node">
<title>Node17</title>
<g id="a_node17"><a xlink:title=" ">
<polygon fill="none" stroke="#bfbfbf" points="766.5,-140 766.5,-159 831.5,-159 831.5,-140 766.5,-140"/>
<text text-anchor="middle" x="799" y="-147" font-family="Helvetica,sans-Serif" font-size="10.00">stdexcept</text>
</a>
</g>
</g>
<!-- Node14&#45;&gt;Node17 -->
<g id="edge24" class="edge">
<title>Node14&#45;&gt;Node17</title>
<path fill="none" stroke="midnightblue" d="M846.12,-201.48C837.71,-192.37 824.18,-177.74 813.77,-166.48"/>
<polygon fill="midnightblue" stroke="midnightblue" points="816.22,-163.98 806.87,-159.01 811.08,-168.73 816.22,-163.98"/>
</g>
<!-- Node14&#45;&gt;Node18 -->
<g id="edge25" class="edge">
<title>Node14&#45;&gt;Node18</title>
<path fill="none" stroke="midnightblue" d="M881.08,-201.48C909.07,-192.66 953.52,-178.67 988.78,-167.57"/>
<polygon fill="midnightblue" stroke="midnightblue" points="989.97,-170.86 998.46,-164.52 987.87,-164.19 989.97,-170.86"/>
</g>
<!-- Node18&#45;&gt;Node3 -->
<g id="edge26" class="edge">
<title>Node18&#45;&gt;Node3</title>
<path fill="none" stroke="midnightblue" d="M963.89,-138.59C865.78,-126.3 699.56,-105.49 601.98,-93.27"/>
<polygon fill="midnightblue" stroke="midnightblue" points="602.24,-89.77 591.88,-92 601.37,-96.72 602.24,-89.77"/>
</g>
<!-- Node18&#45;&gt;Node7 -->
<g id="edge27" class="edge">
<title>Node18&#45;&gt;Node7</title>
<path fill="none" stroke="midnightblue" d="M1072.51,-134.4C1096.16,-123.09 1129.08,-107.36 1152.03,-96.39"/>
<polygon fill="midnightblue" stroke="midnightblue" points="1153.69,-99.48 1161.2,-92.01 1150.67,-93.16 1153.69,-99.48"/>
</g>
<!-- Node18&#45;&gt;Node12 -->
<g id="edge28" class="edge">
<title>Node18&#45;&gt;Node12</title>
<path fill="none" stroke="midnightblue" d="M968.13,-134.48C895.51,-120.87 788.36,-100.8 732.66,-90.37"/>
<polygon fill="midnightblue" stroke="midnightblue" points="733.03,-86.87 722.55,-88.47 731.74,-93.76 733.03,-86.87"/>
</g>
<!-- Node18&#45;&gt;Node15 -->
<g id="edge29" class="edge">
<title>Node18&#45;&gt;Node15</title>
<path fill="none" stroke="midnightblue" d="M1019.13,-134.4C1000.43,-123.34 974.56,-108.06 956.07,-97.13"/>
<polygon fill="midnightblue" stroke="midnightblue" points="957.79,-94.08 947.4,-92.01 954.23,-100.11 957.79,-94.08"/>
</g>
<!-- Node19 -->
<g id="node19" class="node">
<title>Node19</title>
<g id="a_node19"><a xlink:title=" ">
<polygon fill="none" stroke="#bfbfbf" points="969.5,-67.5 969.5,-97.5 1122.5,-97.5 1122.5,-67.5 969.5,-67.5"/>
<text text-anchor="start" x="977.5" y="-85.5" font-family="Helvetica,sans-Serif" font-size="10.00">xercesc/framework/Memory</text>
<text text-anchor="middle" x="1046" y="-74.5" font-family="Helvetica,sans-Serif" font-size="10.00">Manager.hpp</text>
</a>
</g>
</g>
<!-- Node18&#45;&gt;Node19 -->
<g id="edge30" class="edge">
<title>Node18&#45;&gt;Node19</title>
<path fill="none" stroke="midnightblue" d="M1043.65,-134.4C1044.01,-126.64 1044.46,-116.81 1044.88,-107.86"/>
<polygon fill="midnightblue" stroke="midnightblue" points="1048.39,-107.73 1045.35,-97.58 1041.39,-107.4 1048.39,-107.73"/>
</g>
<!-- Node20&#45;&gt;Node3 -->
<g id="edge32" class="edge">
<title>Node20&#45;&gt;Node3</title>
<path fill="none" stroke="midnightblue" d="M657.17,-201.31C633.29,-180.18 571.96,-125.93 541.59,-99.06"/>
<polygon fill="midnightblue" stroke="midnightblue" points="543.71,-96.26 533.9,-92.26 539.07,-101.5 543.71,-96.26"/>
</g>
<!-- Node20&#45;&gt;Node7 -->
<g id="edge35" class="edge">
<title>Node20&#45;&gt;Node7</title>
<path fill="none" stroke="midnightblue" d="M745.08,-202.48C877.16,-189.76 1130.5,-165.32 1131,-165 1153.68,-150.54 1166.98,-121.23 1173.63,-101.98"/>
<polygon fill="midnightblue" stroke="midnightblue" points="1177.03,-102.84 1176.72,-92.24 1170.36,-100.72 1177.03,-102.84"/>
</g>
<!-- Node20&#45;&gt;Node9 -->
<g id="edge34" class="edge">
<title>Node20&#45;&gt;Node9</title>
<path fill="none" stroke="midnightblue" d="M647.51,-201.48C624.59,-191.45 586.31,-174.7 559.92,-163.15"/>
<polygon fill="midnightblue" stroke="midnightblue" points="561.01,-159.81 550.45,-159.01 558.21,-166.22 561.01,-159.81"/>
</g>
<!-- Node20&#45;&gt;Node12 -->
<g id="edge33" class="edge">
<title>Node20&#45;&gt;Node12</title>
<path fill="none" stroke="midnightblue" d="M662.5,-201.31C655.68,-186.93 644.38,-157.42 653,-134 657.97,-120.49 668.34,-108.14 677.65,-99.03"/>
<polygon fill="midnightblue" stroke="midnightblue" points="680.09,-101.53 685.08,-92.18 675.35,-96.38 680.09,-101.53"/>
</g>
<!-- Node20&#45;&gt;Node15 -->
<g id="edge36" class="edge">
<title>Node20&#45;&gt;Node15</title>
<path fill="none" stroke="midnightblue" d="M666.55,-201.25C666.26,-185.4 668.07,-151.91 687,-134 718.07,-104.58 846.12,-90.59 904.16,-85.66"/>
<polygon fill="midnightblue" stroke="midnightblue" points="904.46,-89.15 914.14,-84.84 903.89,-82.17 904.46,-89.15"/>
</g>
<!-- Node20&#45;&gt;Node16 -->
<g id="edge37" class="edge">
<title>Node20&#45;&gt;Node16</title>
<path fill="none" stroke="midnightblue" d="M674.88,-201.48C683.29,-192.37 696.82,-177.74 707.23,-166.48"/>
<polygon fill="midnightblue" stroke="midnightblue" points="709.92,-168.73 714.13,-159.01 704.78,-163.98 709.92,-168.73"/>
</g>
<!-- Node20&#45;&gt;Node17 -->
<g id="edge38" class="edge">
<title>Node20&#45;&gt;Node17</title>
<path fill="none" stroke="midnightblue" d="M685.91,-201.48C708.16,-191.45 745.31,-174.7 770.93,-163.15"/>
<polygon fill="midnightblue" stroke="midnightblue" points="772.44,-166.31 780.12,-159.01 769.57,-159.93 772.44,-166.31"/>
</g>
<!-- Node20&#45;&gt;Node18 -->
<g id="edge39" class="edge">
<title>Node20&#45;&gt;Node18</title>
<path fill="none" stroke="midnightblue" d="M720.87,-201.48C781.67,-191.85 881.52,-176.05 953.96,-164.59"/>
<polygon fill="midnightblue" stroke="midnightblue" points="954.66,-168.02 963.99,-163 953.57,-161.11 954.66,-168.02"/>
</g>
<!-- Node21&#45;&gt;Node2 -->
<g id="edge43" class="edge">
<title>Node21&#45;&gt;Node2</title>
<path fill="none" stroke="midnightblue" d="M151.9,-313.08C145.76,-305.38 136.73,-294.03 129.26,-284.65"/>
<polygon fill="midnightblue" stroke="midnightblue" points="131.94,-282.39 122.97,-276.75 126.46,-286.75 131.94,-282.39"/>
</g>
</g>
</svg>
        <g id="navigator" transform="translate(0 0)" fill="#404254">
                <rect fill="#f2f5e9" fill-opacity="0.5" stroke="#606060" stroke-width=".5" x="0" y="0" width="60" height="60"/>
                <use id="zoomplus" xlink:href="#zoomPlus" x="17" y="9" onmousedown="handleZoom(evt,'in')"/>
                <use id="zoomminus" xlink:href="#zoomMin" x="42" y="9" onmousedown="handleZoom(evt,'out')"/>
                <use id="reset" xlink:href="#resetDef" x="30" y="36" onmousedown="handleReset()"/>
                <g id="arrowUp" xlink:href="#dirArrow" transform="translate(30 24)" onmousedown="handlePan(0,-1)">
                  <use xlink:href="#rim" fill="#404040">
                        <set attributeName="fill" to="#808080" begin="arrowUp.mouseover" end="arrowUp.mouseout"/>
                  </use>
                  <path fill="none" stroke="white" stroke-width="1.5" d="M0,-3.0v7 M-2.5,-0.5L0,-3.0L2.5,-0.5"/>
                </g>
                <g id="arrowRight" xlink:href="#dirArrow" transform="rotate(90) translate(36 -43)" onmousedown="handlePan(1,0)">
                  <use xlink:href="#rim" fill="#404040">
                        <set attributeName="fill" to="#808080" begin="arrowRight.mouseover" end="arrowRight.mouseout"/>
                  </use>
                  <path fill="none" stroke="white" stroke-width="1.5" d="M0,-3.0v7 M-2.5,-0.5L0,-3.0L2.5,-0.5"/>
                </g>
                <g id="arrowDown" xlink:href="#dirArrow" transform="rotate(180) translate(-30 -48)" onmousedown="handlePan(0,1)">
                  <use xlink:href="#rim" fill="#404040">
                        <set attributeName="fill" to="#808080" begin="arrowDown.mouseover" end="arrowDown.mouseout"/>
                  </use>
                  <path fill="none" stroke="white" stroke-width="1.5" d="M0,-3.0v7 M-2.5,-0.5L0,-3.0L2.5,-0.5"/>
                </g>
                <g id="arrowLeft" xlink:href="#dirArrow" transform="rotate(270) translate(-36 17)" onmousedown="handlePan(-1,0)">
                  <use xlink:href="#rim" fill="#404040">
                        <set attributeName="fill" to="#808080" begin="arrowLeft.mouseover" end="arrowLeft.mouseout"/>
                  </use>
                  <path fill="none" stroke="white" stroke-width="1.5" d="M0,-3.0v7 M-2.5,-0.5L0,-3.0L2.5,-0.5"/>
                </g>
        </g>
        <svg viewBox="0 0 15 15" width="100%" height="30px" preserveAspectRatio="xMaxYMin meet">
         <g id="arrow_out" transform="scale(0.3 0.3)">
          <a xlink:href="XalanDOMString_8hpp__incl_org.svg" target="_base">
           <rect id="button" ry="5" rx="5" y="6" x="6" height="38" width="38"
                fill="#f2f5e9" fill-opacity="0.5" stroke="#606060" stroke-width="1.0"/>
           <path id="arrow"
             d="M 11.500037,31.436501 C 11.940474,20.09759 22.043105,11.32322 32.158766,21.979434 L 37.068811,17.246167 C 37.068811,17.246167 37.088388,32 37.088388,32 L 22.160133,31.978069 C 22.160133,31.978069 26.997745,27.140456 26.997745,27.140456 C 18.528582,18.264221 13.291696,25.230495 11.500037,31.436501 z"
             style="fill:#404040;"/>
          </a>
         </g>
        </svg>
</svg>
