<?xml version="1.0" encoding="UTF-8" standalone="no"?>
<!DOCTYPE svg PUBLIC "-//W3C//DTD SVG 1.1//EN"
 "http://www.w3.org/Graphics/SVG/1.1/DTD/svg11.dtd">
<!-- Generated by graphviz version 2.38.0 (20140413.2041)
 -->
<!-- Title: xalanc/XalanSourceTree/XalanSourceTreeTextIWSAllocator.hpp Pages: 1 -->
<!--zoomable 631 -->
<svg id="main" version="1.1" xmlns="http://www.w3.org/2000/svg" xmlns:xlink="http://www.w3.org/1999/xlink" xml:space="preserve" onload="init(evt)">
<style type="text/css"><![CDATA[
.edge:hover path { stroke: red; }
.edge:hover polygon { stroke: red; fill: red; }
]]></style>
<script type="text/javascript"><![CDATA[
var edges = document.getElementsByTagName('g');
if (edges && edges.length) {
  for (var i=0;i<edges.length;i++) {
    if (edges[i].id.substr(0,4)=='edge') {
      edges[i].setAttribute('class','edge');
    }
  }
}
]]></script>
        <defs>
                <circle id="rim" cx="0" cy="0" r="7"/>
                <circle id="rim2" cx="0" cy="0" r="3.5"/>
                <g id="zoomPlus">
                        <use xlink:href="#rim" fill="#404040">
                                <set attributeName="fill" to="#808080" begin="zoomplus.mouseover" end="zoomplus.mouseout"/>
                        </use>
                        <path d="M-4,0h8M0,-4v8" fill="none" stroke="white" stroke-width="1.5" pointer-events="none"/>
                </g>
                <g id="zoomMin">
                        <use xlink:href="#rim" fill="#404040">
                                <set attributeName="fill" to="#808080" begin="zoomminus.mouseover" end="zoomminus.mouseout"/>
                        </use>
                        <path d="M-4,0h8" fill="none" stroke="white" stroke-width="1.5" pointer-events="none"/>
                </g>
                <g id="dirArrow">
                        <path fill="none" stroke="white" stroke-width="1.5" d="M0,-3.0v7 M-2.5,-0.5L0,-3.0L2.5,-0.5"/>
                </g>
               <g id="resetDef">
                       <use xlink:href="#rim2" fill="#404040">
                               <set attributeName="fill" to="#808080" begin="reset.mouseover" end="reset.mouseout"/>
                       </use>
               </g>
        </defs>

<script type="text/javascript">
var viewWidth = 1427;
var viewHeight = 631;
var sectionId = 'dynsection-0';
</script>
<script xlink:href="svgpan.js"/>
<svg id="graph" class="graph">
<g id="viewport">
<title>xalanc/XalanSourceTree/XalanSourceTreeTextIWSAllocator.hpp</title>
<!-- Node1 -->
<g id="node1" class="node"><title>Node1</title>
<g id="a_node1"><a xlink:title=" ">
<polygon fill="#bfbfbf" stroke="black" points="104.5,-592.5 104.5,-622.5 291.5,-622.5 291.5,-592.5 104.5,-592.5"/>
<text text-anchor="start" x="112.5" y="-610.5" font-family="Helvetica,sans-Serif" font-size="10.00">xalanc/XalanSourceTree</text>
<text text-anchor="middle" x="198" y="-599.5" font-family="Helvetica,sans-Serif" font-size="10.00">/XalanSourceTreeTextIWSAllocator.hpp</text>
</a>
</g>
</g>
<!-- Node2 -->
<g id="node2" class="node"><title>Node2</title>
<g id="a_node2"><a xlink:href="XalanSourceTreeDefinitions_8hpp.html" target="_top" xlink:title=" ">
<polygon fill="none" stroke="black" points="3,-391.5 3,-421.5 159,-421.5 159,-391.5 3,-391.5"/>
<text text-anchor="start" x="11" y="-409.5" font-family="Helvetica,sans-Serif" font-size="10.00">xalanc/XalanSourceTree</text>
<text text-anchor="middle" x="81" y="-398.5" font-family="Helvetica,sans-Serif" font-size="10.00">/XalanSourceTreeDefinitions.hpp</text>
</a>
</g>
</g>
<!-- Node1&#45;&gt;Node2 -->
<g id="edge1" class="edge"><title>Node1&#45;&gt;Node2</title>
<path fill="none" stroke="midnightblue" d="M160.889,-592.292C144.179,-584.092 125.634,-572.156 114,-556 87.0798,-518.616 81.5242,-463.232 80.7168,-431.734"/>
<polygon fill="midnightblue" stroke="midnightblue" points="84.2158,-431.617 80.602,-421.658 77.2163,-431.697 84.2158,-431.617"/>
</g>
<!-- Node7 -->
<g id="node7" class="node"><title>Node7</title>
<g id="a_node7"><a xlink:href="ArenaAllocator_8hpp.html" target="_top" xlink:title=" ">
<polygon fill="none" stroke="black" points="1026,-391.5 1026,-421.5 1144,-421.5 1144,-391.5 1026,-391.5"/>
<text text-anchor="start" x="1034" y="-409.5" font-family="Helvetica,sans-Serif" font-size="10.00">xalanc/PlatformSupport</text>
<text text-anchor="middle" x="1085" y="-398.5" font-family="Helvetica,sans-Serif" font-size="10.00">/ArenaAllocator.hpp</text>
</a>
</g>
</g>
<!-- Node1&#45;&gt;Node7 -->
<g id="edge6" class="edge"><title>Node1&#45;&gt;Node7</title>
<path fill="none" stroke="midnightblue" d="M260.726,-592.427C421.685,-556.316 848.428,-460.575 1016.03,-422.973"/>
<polygon fill="midnightblue" stroke="midnightblue" points="1016.99,-426.346 1025.98,-420.742 1015.45,-419.516 1016.99,-426.346"/>
</g>
<!-- Node25 -->
<g id="node25" class="node"><title>Node25</title>
<g id="a_node25"><a xlink:href="XalanSourceTreeTextIWS_8hpp.html" target="_top" xlink:title=" ">
<polygon fill="none" stroke="black" points="123.5,-525.5 123.5,-555.5 272.5,-555.5 272.5,-525.5 123.5,-525.5"/>
<text text-anchor="start" x="131.5" y="-543.5" font-family="Helvetica,sans-Serif" font-size="10.00">xalanc/XalanSourceTree</text>
<text text-anchor="middle" x="198" y="-532.5" font-family="Helvetica,sans-Serif" font-size="10.00">/XalanSourceTreeTextIWS.hpp</text>
</a>
</g>
</g>
<!-- Node1&#45;&gt;Node25 -->
<g id="edge49" class="edge"><title>Node1&#45;&gt;Node25</title>
<path fill="none" stroke="midnightblue" d="M198,-592.396C198,-584.645 198,-574.812 198,-565.86"/>
<polygon fill="midnightblue" stroke="midnightblue" points="201.5,-565.576 198,-555.577 194.5,-565.577 201.5,-565.576"/>
</g>
<!-- Node3 -->
<g id="node3" class="node"><title>Node3</title>
<g id="a_node3"><a xlink:href="PlatformDefinitions_8hpp.html" target="_top" xlink:title=" ">
<polygon fill="none" stroke="black" points="389,-73 389,-92 571,-92 571,-73 389,-73"/>
<text text-anchor="middle" x="480" y="-80" font-family="Helvetica,sans-Serif" font-size="10.00">xalanc/Include/PlatformDefinitions.hpp</text>
</a>
</g>
</g>
<!-- Node2&#45;&gt;Node3 -->
<g id="edge2" class="edge"><title>Node2&#45;&gt;Node3</title>
<path fill="none" stroke="midnightblue" d="M64.997,-391.424C41.3911,-369.014 0,-322.704 0,-273.5 0,-273.5 0,-273.5 0,-210 0,-132.389 237.615,-101.368 378.48,-89.7973"/>
<polygon fill="midnightblue" stroke="midnightblue" points="379.18,-93.2525 388.869,-88.9647 378.621,-86.2749 379.18,-93.2525"/>
</g>
<!-- Node4 -->
<g id="node4" class="node"><title>Node4</title>
<g id="a_node4"><a xlink:title=" ">
<polygon fill="none" stroke="#bfbfbf" points="278,-0.5 278,-30.5 386,-30.5 386,-0.5 278,-0.5"/>
<text text-anchor="start" x="286" y="-18.5" font-family="Helvetica,sans-Serif" font-size="10.00">xercesc/util/Xerces</text>
<text text-anchor="middle" x="332" y="-7.5" font-family="Helvetica,sans-Serif" font-size="10.00">_autoconf_config.hpp</text>
</a>
</g>
</g>
<!-- Node3&#45;&gt;Node4 -->
<g id="edge3" class="edge"><title>Node3&#45;&gt;Node4</title>
<path fill="none" stroke="midnightblue" d="M460.347,-72.8685C438.235,-63.1572 401.695,-47.1092 373.246,-34.6148"/>
<polygon fill="midnightblue" stroke="midnightblue" points="374.504,-31.3447 363.941,-30.5281 371.689,-37.7539 374.504,-31.3447"/>
</g>
<!-- Node5 -->
<g id="node5" class="node"><title>Node5</title>
<g id="a_node5"><a xlink:title=" ">
<polygon fill="none" stroke="#bfbfbf" points="404.5,-6 404.5,-25 555.5,-25 555.5,-6 404.5,-6"/>
<text text-anchor="middle" x="480" y="-13" font-family="Helvetica,sans-Serif" font-size="10.00">xercesc/util/XercesVersion.hpp</text>
</a>
</g>
</g>
<!-- Node3&#45;&gt;Node5 -->
<g id="edge4" class="edge"><title>Node3&#45;&gt;Node5</title>
<path fill="none" stroke="midnightblue" d="M480,-72.7338C480,-63.1826 480,-47.6183 480,-35.2829"/>
<polygon fill="midnightblue" stroke="midnightblue" points="483.5,-35.1273 480,-25.1273 476.5,-35.1273 483.5,-35.1273"/>
</g>
<!-- Node6 -->
<g id="node6" class="node"><title>Node6</title>
<g id="a_node6"><a xlink:href="XalanVersion_8hpp.html" target="_top" xlink:title=" ">
<polygon fill="none" stroke="black" points="574,-6 574,-25 666,-25 666,-6 574,-6"/>
<text text-anchor="middle" x="620" y="-13" font-family="Helvetica,sans-Serif" font-size="10.00">XalanVersion.hpp</text>
</a>
</g>
</g>
<!-- Node3&#45;&gt;Node6 -->
<g id="edge5" class="edge"><title>Node3&#45;&gt;Node6</title>
<path fill="none" stroke="midnightblue" d="M498.591,-72.8685C522.544,-61.7476 564.395,-42.3167 592.154,-29.4286"/>
<polygon fill="midnightblue" stroke="midnightblue" points="593.736,-32.5529 601.332,-25.1672 590.788,-26.2038 593.736,-32.5529"/>
</g>
<!-- Node8 -->
<g id="node8" class="node"><title>Node8</title>
<g id="a_node8"><a xlink:title=" ">
<polygon fill="none" stroke="#bfbfbf" points="1189,-140 1189,-159 1245,-159 1245,-140 1189,-140"/>
<text text-anchor="middle" x="1217" y="-147" font-family="Helvetica,sans-Serif" font-size="10.00">algorithm</text>
</a>
</g>
</g>
<!-- Node7&#45;&gt;Node8 -->
<g id="edge7" class="edge"><title>Node7&#45;&gt;Node8</title>
<path fill="none" stroke="midnightblue" d="M1144.05,-399.78C1208.43,-389.797 1306.5,-362.491 1338,-288 1360.97,-233.679 1287.14,-185.895 1244.72,-163.689"/>
<polygon fill="midnightblue" stroke="midnightblue" points="1246.19,-160.51 1235.69,-159.098 1243.02,-166.75 1246.19,-160.51"/>
</g>
<!-- Node9 -->
<g id="node9" class="node"><title>Node9</title>
<g id="a_node9"><a xlink:href="STLHelper_8hpp.html" target="_top" xlink:title=" ">
<polygon fill="none" stroke="black" points="893,-330 893,-349 1039,-349 1039,-330 893,-330"/>
<text text-anchor="middle" x="966" y="-337" font-family="Helvetica,sans-Serif" font-size="10.00">xalanc/Include/STLHelper.hpp</text>
</a>
</g>
</g>
<!-- Node7&#45;&gt;Node9 -->
<g id="edge8" class="edge"><title>Node7&#45;&gt;Node9</title>
<path fill="none" stroke="midnightblue" d="M1059.18,-391.396C1038.76,-380.243 1010.45,-364.781 990.411,-353.834"/>
<polygon fill="midnightblue" stroke="midnightblue" points="992.028,-350.729 981.574,-349.007 988.673,-356.872 992.028,-350.729"/>
</g>
<!-- Node21 -->
<g id="node21" class="node"><title>Node21</title>
<g id="a_node21"><a xlink:href="XalanList_8hpp.html" target="_top" xlink:title=" ">
<polygon fill="none" stroke="black" points="877,-201.5 877,-220.5 1017,-220.5 1017,-201.5 877,-201.5"/>
<text text-anchor="middle" x="947" y="-208.5" font-family="Helvetica,sans-Serif" font-size="10.00">xalanc/Include/XalanList.hpp</text>
</a>
</g>
</g>
<!-- Node7&#45;&gt;Node21 -->
<g id="edge41" class="edge"><title>Node7&#45;&gt;Node21</title>
<path fill="none" stroke="midnightblue" d="M1082.72,-391.163C1077.52,-362.577 1062.4,-297.74 1027,-257 1014.62,-242.755 996.577,-232.06 980.757,-224.679"/>
<polygon fill="midnightblue" stroke="midnightblue" points="981.828,-221.326 971.264,-220.509 979.012,-227.735 981.828,-221.326"/>
</g>
<!-- Node22 -->
<g id="node22" class="node"><title>Node22</title>
<g id="a_node22"><a xlink:href="ArenaBlock_8hpp.html" target="_top" xlink:title=" ">
<polygon fill="none" stroke="black" points="1174,-330 1174,-349 1260,-349 1260,-330 1174,-330"/>
<text text-anchor="middle" x="1217" y="-337" font-family="Helvetica,sans-Serif" font-size="10.00">ArenaBlock.hpp</text>
</a>
</g>
</g>
<!-- Node7&#45;&gt;Node22 -->
<g id="edge42" class="edge"><title>Node7&#45;&gt;Node22</title>
<path fill="none" stroke="midnightblue" d="M1113.64,-391.396C1136.5,-380.142 1168.26,-364.501 1190.52,-353.538"/>
<polygon fill="midnightblue" stroke="midnightblue" points="1192.3,-356.565 1199.72,-349.007 1189.21,-350.285 1192.3,-356.565"/>
</g>
<!-- Node9&#45;&gt;Node3 -->
<g id="edge9" class="edge"><title>Node9&#45;&gt;Node3</title>
<path fill="none" stroke="midnightblue" d="M899.489,-329.949C815.302,-316.828 668.12,-286.073 559,-221 529.038,-203.132 521.677,-195.075 504,-165 492.351,-145.181 485.99,-119.285 482.796,-102.058"/>
<polygon fill="midnightblue" stroke="midnightblue" points="486.239,-101.423 481.131,-92.1404 479.336,-102.582 486.239,-101.423"/>
</g>
<!-- Node9&#45;&gt;Node8 -->
<g id="edge10" class="edge"><title>Node9&#45;&gt;Node8</title>
<path fill="none" stroke="midnightblue" d="M992.081,-329.919C1035.64,-314.431 1123.76,-278.016 1178,-221 1192.57,-205.684 1203.53,-183.882 1210.06,-168.59"/>
<polygon fill="midnightblue" stroke="midnightblue" points="1213.35,-169.785 1213.87,-159.203 1206.87,-167.154 1213.35,-169.785"/>
</g>
<!-- Node10 -->
<g id="node10" class="node"><title>Node10</title>
<g id="a_node10"><a xlink:title=" ">
<polygon fill="none" stroke="#bfbfbf" points="1111,-201.5 1111,-220.5 1169,-220.5 1169,-201.5 1111,-201.5"/>
<text text-anchor="middle" x="1140" y="-208.5" font-family="Helvetica,sans-Serif" font-size="10.00">functional</text>
</a>
</g>
</g>
<!-- Node9&#45;&gt;Node10 -->
<g id="edge11" class="edge"><title>Node9&#45;&gt;Node10</title>
<path fill="none" stroke="midnightblue" d="M977.96,-329.805C1007.26,-308.501 1082.92,-253.499 1119.54,-226.875"/>
<polygon fill="midnightblue" stroke="midnightblue" points="1121.93,-229.467 1127.96,-220.756 1117.81,-223.805 1121.93,-229.467"/>
</g>
<!-- Node11 -->
<g id="node11" class="node"><title>Node11</title>
<g id="a_node11"><a xlink:href="XalanMap_8hpp.html" target="_top" xlink:title=" ">
<polygon fill="none" stroke="black" points="875.5,-263 875.5,-282 1018.5,-282 1018.5,-263 875.5,-263"/>
<text text-anchor="middle" x="947" y="-270" font-family="Helvetica,sans-Serif" font-size="10.00">xalanc/Include/XalanMap.hpp</text>
</a>
</g>
</g>
<!-- Node9&#45;&gt;Node11 -->
<g id="edge12" class="edge"><title>Node9&#45;&gt;Node11</title>
<path fill="none" stroke="midnightblue" d="M963.438,-329.734C960.617,-320.085 956.003,-304.3 952.38,-291.906"/>
<polygon fill="midnightblue" stroke="midnightblue" points="955.687,-290.744 949.522,-282.127 948.968,-292.708 955.687,-290.744"/>
</g>
<!-- Node11&#45;&gt;Node3 -->
<g id="edge13" class="edge"><title>Node11&#45;&gt;Node3</title>
<path fill="none" stroke="midnightblue" d="M875.141,-267.579C785.231,-261.613 637.307,-247.979 590,-221 539.897,-192.427 503.897,-131.285 488.427,-101.1"/>
<polygon fill="midnightblue" stroke="midnightblue" points="491.561,-99.5412 483.977,-92.1426 485.291,-102.656 491.561,-99.5412"/>
</g>
<!-- Node11&#45;&gt;Node8 -->
<g id="edge15" class="edge"><title>Node11&#45;&gt;Node8</title>
<path fill="none" stroke="midnightblue" d="M966.055,-262.99C988.367,-253.007 1026.42,-235.921 1059,-221 1078.16,-212.224 1082.79,-209.682 1102,-201 1131.03,-187.875 1164.39,-173.28 1187.68,-163.169"/>
<polygon fill="midnightblue" stroke="midnightblue" points="1189.22,-166.317 1197,-159.128 1186.43,-159.895 1189.22,-166.317"/>
</g>
<!-- Node11&#45;&gt;Node10 -->
<g id="edge16" class="edge"><title>Node11&#45;&gt;Node10</title>
<path fill="none" stroke="midnightblue" d="M974.652,-262.975C1008.19,-252.636 1064.87,-235.161 1102.37,-223.602"/>
<polygon fill="midnightblue" stroke="midnightblue" points="1103.87,-226.8 1112.4,-220.509 1101.81,-220.111 1103.87,-226.8"/>
</g>
<!-- Node12 -->
<g id="node12" class="node"><title>Node12</title>
<g id="a_node12"><a xlink:title=" ">
<polygon fill="none" stroke="#bfbfbf" points="1118,-73 1118,-92 1166,-92 1166,-73 1118,-73"/>
<text text-anchor="middle" x="1142" y="-80" font-family="Helvetica,sans-Serif" font-size="10.00">cstddef</text>
</a>
</g>
</g>
<!-- Node11&#45;&gt;Node12 -->
<g id="edge14" class="edge"><title>Node11&#45;&gt;Node12</title>
<path fill="none" stroke="midnightblue" d="M960.519,-262.935C999.446,-238.254 1109.2,-168.507 1112,-165 1126.8,-146.442 1134.74,-119.888 1138.66,-102.191"/>
<polygon fill="midnightblue" stroke="midnightblue" points="1142.12,-102.732 1140.65,-92.2397 1135.26,-101.36 1142.12,-102.732"/>
</g>
<!-- Node13 -->
<g id="node13" class="node"><title>Node13</title>
<g id="a_node13"><a xlink:title=" ">
<polygon fill="none" stroke="#bfbfbf" points="819,-201.5 819,-220.5 859,-220.5 859,-201.5 819,-201.5"/>
<text text-anchor="middle" x="839" y="-208.5" font-family="Helvetica,sans-Serif" font-size="10.00">utility</text>
</a>
</g>
</g>
<!-- Node11&#45;&gt;Node13 -->
<g id="edge17" class="edge"><title>Node11&#45;&gt;Node13</title>
<path fill="none" stroke="midnightblue" d="M931.526,-262.975C913.722,-253.166 884.259,-236.935 863.368,-225.425"/>
<polygon fill="midnightblue" stroke="midnightblue" points="864.893,-222.269 854.445,-220.509 861.515,-228.4 864.893,-222.269"/>
</g>
<!-- Node14 -->
<g id="node14" class="node"><title>Node14</title>
<g id="a_node14"><a xlink:href="XalanVector_8hpp.html" target="_top" xlink:title=" ">
<polygon fill="none" stroke="black" points="599,-201.5 599,-220.5 751,-220.5 751,-201.5 599,-201.5"/>
<text text-anchor="middle" x="675" y="-208.5" font-family="Helvetica,sans-Serif" font-size="10.00">xalanc/Include/XalanVector.hpp</text>
</a>
</g>
</g>
<!-- Node11&#45;&gt;Node14 -->
<g id="edge18" class="edge"><title>Node11&#45;&gt;Node14</title>
<path fill="none" stroke="midnightblue" d="M908.029,-262.975C859.453,-252.349 776.416,-234.185 723.697,-222.652"/>
<polygon fill="midnightblue" stroke="midnightblue" points="724.416,-219.227 713.899,-220.509 722.92,-226.065 724.416,-219.227"/>
</g>
<!-- Node11&#45;&gt;Node21 -->
<g id="edge32" class="edge"><title>Node11&#45;&gt;Node21</title>
<path fill="none" stroke="midnightblue" d="M947,-262.975C947,-254.58 947,-241.481 947,-230.663"/>
<polygon fill="midnightblue" stroke="midnightblue" points="950.5,-230.509 947,-220.509 943.5,-230.509 950.5,-230.509"/>
</g>
<!-- Node14&#45;&gt;Node3 -->
<g id="edge19" class="edge"><title>Node14&#45;&gt;Node3</title>
<path fill="none" stroke="midnightblue" d="M661.597,-201.305C628.468,-179.814 542.477,-124.03 501.859,-97.6801"/>
<polygon fill="midnightblue" stroke="midnightblue" points="503.533,-94.5945 493.239,-92.0884 499.724,-100.467 503.533,-94.5945"/>
</g>
<!-- Node14&#45;&gt;Node8 -->
<g id="edge21" class="edge"><title>Node14&#45;&gt;Node8</title>
<path fill="none" stroke="midnightblue" d="M751.219,-201.633C868.756,-188.73 1089.94,-164.448 1178.71,-154.704"/>
<polygon fill="midnightblue" stroke="midnightblue" points="1179.3,-158.159 1188.86,-153.589 1178.54,-151.201 1179.3,-158.159"/>
</g>
<!-- Node14&#45;&gt;Node12 -->
<g id="edge20" class="edge"><title>Node14&#45;&gt;Node12</title>
<path fill="none" stroke="midnightblue" d="M673.612,-201.372C671.589,-185.408 669.928,-151.315 689,-134 758.191,-71.1807 1017.32,-120.615 1108,-98 1110.36,-97.4104 1112.77,-96.6767 1115.17,-95.8547"/>
<polygon fill="midnightblue" stroke="midnightblue" points="1116.68,-99.0207 1124.72,-92.1207 1114.13,-92.5009 1116.68,-99.0207"/>
</g>
<!-- Node15 -->
<g id="node15" class="node"><title>Node15</title>
<g id="a_node15"><a xlink:title=" ">
<polygon fill="none" stroke="#bfbfbf" points="895.5,-73 895.5,-92 944.5,-92 944.5,-73 895.5,-73"/>
<text text-anchor="middle" x="920" y="-80" font-family="Helvetica,sans-Serif" font-size="10.00">cassert</text>
</a>
</g>
</g>
<!-- Node14&#45;&gt;Node15 -->
<g id="edge22" class="edge"><title>Node14&#45;&gt;Node15</title>
<path fill="none" stroke="midnightblue" d="M668.513,-201.365C657.803,-185.988 639.2,-153.634 656,-134 689.634,-94.6922 836.27,-112.256 886,-98 888.29,-97.3435 890.631,-96.5724 892.96,-95.7339"/>
<polygon fill="midnightblue" stroke="midnightblue" points="894.299,-98.9679 902.304,-92.0272 891.718,-92.4612 894.299,-98.9679"/>
</g>
<!-- Node16 -->
<g id="node16" class="node"><title>Node16</title>
<g id="a_node16"><a xlink:title=" ">
<polygon fill="none" stroke="#bfbfbf" points="843,-73 843,-92 877,-92 877,-73 843,-73"/>
<text text-anchor="middle" x="860" y="-80" font-family="Helvetica,sans-Serif" font-size="10.00">new</text>
</a>
</g>
</g>
<!-- Node14&#45;&gt;Node16 -->
<g id="edge23" class="edge"><title>Node14&#45;&gt;Node16</title>
<path fill="none" stroke="midnightblue" d="M656.918,-201.39C643.438,-193.872 626.028,-181.565 618,-165 611.992,-152.601 609.309,-144.691 618,-134 644.831,-100.992 775.205,-88.823 832.686,-85.0117"/>
<polygon fill="midnightblue" stroke="midnightblue" points="833.082,-88.4939 842.844,-84.3756 832.644,-81.5076 833.082,-88.4939"/>
</g>
<!-- Node17 -->
<g id="node17" class="node"><title>Node17</title>
<g id="a_node17"><a xlink:title=" ">
<polygon fill="none" stroke="#bfbfbf" points="775.5,-140 775.5,-159 822.5,-159 822.5,-140 775.5,-140"/>
<text text-anchor="middle" x="799" y="-147" font-family="Helvetica,sans-Serif" font-size="10.00">iterator</text>
</a>
</g>
</g>
<!-- Node14&#45;&gt;Node17 -->
<g id="edge24" class="edge"><title>Node14&#45;&gt;Node17</title>
<path fill="none" stroke="midnightblue" d="M692.766,-201.475C713.484,-191.534 747.952,-174.995 771.989,-163.461"/>
<polygon fill="midnightblue" stroke="midnightblue" points="773.765,-166.491 781.267,-159.009 770.737,-160.18 773.765,-166.491"/>
</g>
<!-- Node18 -->
<g id="node18" class="node"><title>Node18</title>
<g id="a_node18"><a xlink:title=" ">
<polygon fill="none" stroke="#bfbfbf" points="698.5,-140 698.5,-159 757.5,-159 757.5,-140 698.5,-140"/>
<text text-anchor="middle" x="728" y="-147" font-family="Helvetica,sans-Serif" font-size="10.00">stdexcept</text>
</a>
</g>
</g>
<!-- Node14&#45;&gt;Node18 -->
<g id="edge25" class="edge"><title>Node14&#45;&gt;Node18</title>
<path fill="none" stroke="midnightblue" d="M682.594,-201.475C690.701,-192.373 703.735,-177.741 713.763,-166.483"/>
<polygon fill="midnightblue" stroke="midnightblue" points="716.383,-168.804 720.42,-159.009 711.156,-164.148 716.383,-168.804"/>
</g>
<!-- Node19 -->
<g id="node19" class="node"><title>Node19</title>
<g id="a_node19"><a xlink:href="XalanMemoryManagement_8hpp.html" target="_top" xlink:title=" ">
<polygon fill="none" stroke="black" points="917,-134.5 917,-164.5 1057,-164.5 1057,-134.5 917,-134.5"/>
<text text-anchor="start" x="925" y="-152.5" font-family="Helvetica,sans-Serif" font-size="10.00">xalanc/Include/XalanMemory</text>
<text text-anchor="middle" x="987" y="-141.5" font-family="Helvetica,sans-Serif" font-size="10.00">Management.hpp</text>
</a>
</g>
</g>
<!-- Node14&#45;&gt;Node19 -->
<g id="edge26" class="edge"><title>Node14&#45;&gt;Node19</title>
<path fill="none" stroke="midnightblue" d="M719.702,-201.475C768.363,-192.195 847.171,-177.166 906.635,-165.826"/>
<polygon fill="midnightblue" stroke="midnightblue" points="907.584,-169.208 916.752,-163.897 906.273,-162.332 907.584,-169.208"/>
</g>
<!-- Node19&#45;&gt;Node3 -->
<g id="edge27" class="edge"><title>Node19&#45;&gt;Node3</title>
<path fill="none" stroke="midnightblue" d="M916.77,-139.496C822.111,-127.36 654.212,-105.835 556.459,-93.3024"/>
<polygon fill="midnightblue" stroke="midnightblue" points="556.714,-89.8066 546.35,-92.0064 555.824,-96.7498 556.714,-89.8066"/>
</g>
<!-- Node19&#45;&gt;Node12 -->
<g id="edge29" class="edge"><title>Node19&#45;&gt;Node12</title>
<path fill="none" stroke="midnightblue" d="M1020.93,-134.421C1045.2,-124.33 1078.64,-110.388 1108,-98 1109.4,-97.4076 1110.84,-96.8002 1112.29,-96.1859"/>
<polygon fill="midnightblue" stroke="midnightblue" points="1114.04,-99.2454 1121.88,-92.1131 1111.3,-92.803 1114.04,-99.2454"/>
</g>
<!-- Node19&#45;&gt;Node15 -->
<g id="edge28" class="edge"><title>Node19&#45;&gt;Node15</title>
<path fill="none" stroke="midnightblue" d="M972.462,-134.396C961.808,-124.06 947.34,-110.024 936.295,-99.309"/>
<polygon fill="midnightblue" stroke="midnightblue" points="938.577,-96.6456 928.962,-92.1945 933.702,-101.67 938.577,-96.6456"/>
</g>
<!-- Node19&#45;&gt;Node16 -->
<g id="edge30" class="edge"><title>Node19&#45;&gt;Node16</title>
<path fill="none" stroke="midnightblue" d="M958.091,-134.476C937.798,-124.527 910.092,-110.733 886,-98 885.332,-97.6468 884.655,-97.2866 883.973,-96.9215"/>
<polygon fill="midnightblue" stroke="midnightblue" points="885.514,-93.7751 875.06,-92.0499 882.156,-99.9174 885.514,-93.7751"/>
</g>
<!-- Node20 -->
<g id="node20" class="node"><title>Node20</title>
<g id="a_node20"><a xlink:title=" ">
<polygon fill="none" stroke="#bfbfbf" points="962.5,-67.5 962.5,-97.5 1099.5,-97.5 1099.5,-67.5 962.5,-67.5"/>
<text text-anchor="start" x="970.5" y="-85.5" font-family="Helvetica,sans-Serif" font-size="10.00">xercesc/framework/Memory</text>
<text text-anchor="middle" x="1031" y="-74.5" font-family="Helvetica,sans-Serif" font-size="10.00">Manager.hpp</text>
</a>
</g>
</g>
<!-- Node19&#45;&gt;Node20 -->
<g id="edge31" class="edge"><title>Node19&#45;&gt;Node20</title>
<path fill="none" stroke="midnightblue" d="M996.547,-134.396C1002.14,-126.134 1009.33,-115.507 1015.7,-106.102"/>
<polygon fill="midnightblue" stroke="midnightblue" points="1018.76,-107.82 1021.47,-97.5765 1012.97,-103.896 1018.76,-107.82"/>
</g>
<!-- Node21&#45;&gt;Node3 -->
<g id="edge33" class="edge"><title>Node21&#45;&gt;Node3</title>
<path fill="none" stroke="midnightblue" d="M935.268,-201.362C910.494,-183.283 853.295,-142.429 831,-134 750.452,-103.548 653.142,-91.2972 581.43,-86.4485"/>
<polygon fill="midnightblue" stroke="midnightblue" points="581.244,-82.9296 571.041,-85.7856 580.798,-89.9154 581.244,-82.9296"/>
</g>
<!-- Node21&#45;&gt;Node8 -->
<g id="edge35" class="edge"><title>Node21&#45;&gt;Node8</title>
<path fill="none" stroke="midnightblue" d="M985.684,-201.475C1037.11,-190.142 1127.46,-170.233 1178.69,-158.942"/>
<polygon fill="midnightblue" stroke="midnightblue" points="1179.69,-162.306 1188.7,-156.736 1178.18,-155.47 1179.69,-162.306"/>
</g>
<!-- Node21&#45;&gt;Node12 -->
<g id="edge34" class="edge"><title>Node21&#45;&gt;Node12</title>
<path fill="none" stroke="midnightblue" d="M996.382,-201.448C1023.84,-194.876 1057.51,-183.656 1083,-165 1106.07,-148.112 1123.76,-119.5 1133.52,-101.062"/>
<polygon fill="midnightblue" stroke="midnightblue" points="1136.71,-102.506 1138.11,-92.0035 1130.46,-99.3427 1136.71,-102.506"/>
</g>
<!-- Node21&#45;&gt;Node15 -->
<g id="edge36" class="edge"><title>Node21&#45;&gt;Node15</title>
<path fill="none" stroke="midnightblue" d="M1008.6,-201.416C1030.43,-195.079 1052.82,-184.08 1066,-165 1073.83,-153.665 1074.13,-145.123 1066,-134 1034.9,-91.4464 1002.31,-116.628 953,-98 951.39,-97.3918 949.745,-96.747 948.092,-96.0804"/>
<polygon fill="midnightblue" stroke="midnightblue" points="949.28,-92.7832 938.706,-92.1282 946.564,-99.2346 949.28,-92.7832"/>
</g>
<!-- Node21&#45;&gt;Node16 -->
<g id="edge37" class="edge"><title>Node21&#45;&gt;Node16</title>
<path fill="none" stroke="midnightblue" d="M938.733,-201.428C930.475,-192.652 917.654,-178.432 908,-165 893.08,-144.24 878.554,-118.588 869.462,-101.672"/>
<polygon fill="midnightblue" stroke="midnightblue" points="872.32,-99.59 864.547,-92.39 866.133,-102.865 872.32,-99.59"/>
</g>
<!-- Node21&#45;&gt;Node17 -->
<g id="edge38" class="edge"><title>Node21&#45;&gt;Node17</title>
<path fill="none" stroke="midnightblue" d="M925.795,-201.475C900.628,-191.357 858.46,-174.405 829.721,-162.851"/>
<polygon fill="midnightblue" stroke="midnightblue" points="830.749,-159.492 820.165,-159.009 828.138,-165.987 830.749,-159.492"/>
</g>
<!-- Node21&#45;&gt;Node18 -->
<g id="edge39" class="edge"><title>Node21&#45;&gt;Node18</title>
<path fill="none" stroke="midnightblue" d="M906.713,-201.452C869.776,-193.269 813.732,-179.98 766,-165 763.583,-164.241 761.097,-163.411 758.609,-162.543"/>
<polygon fill="midnightblue" stroke="midnightblue" points="759.739,-159.229 749.145,-159.087 757.338,-165.805 759.739,-159.229"/>
</g>
<!-- Node21&#45;&gt;Node19 -->
<g id="edge40" class="edge"><title>Node21&#45;&gt;Node19</title>
<path fill="none" stroke="midnightblue" d="M952.731,-201.475C957.743,-194.019 965.251,-182.852 971.962,-172.869"/>
<polygon fill="midnightblue" stroke="midnightblue" points="974.898,-174.775 977.573,-164.523 969.089,-170.869 974.898,-174.775"/>
</g>
<!-- Node23 -->
<g id="node23" class="node"><title>Node23</title>
<g id="a_node23"><a xlink:href="ArenaBlockBase_8hpp.html" target="_top" xlink:title=" ">
<polygon fill="none" stroke="black" points="1211,-257.5 1211,-287.5 1329,-287.5 1329,-257.5 1211,-257.5"/>
<text text-anchor="start" x="1219" y="-275.5" font-family="Helvetica,sans-Serif" font-size="10.00">xalanc/PlatformSupport</text>
<text text-anchor="middle" x="1270" y="-264.5" font-family="Helvetica,sans-Serif" font-size="10.00">/ArenaBlockBase.hpp</text>
</a>
</g>
</g>
<!-- Node22&#45;&gt;Node23 -->
<g id="edge43" class="edge"><title>Node22&#45;&gt;Node23</title>
<path fill="none" stroke="midnightblue" d="M1224.15,-329.734C1231.24,-321.034 1242.4,-307.345 1251.94,-295.651"/>
<polygon fill="midnightblue" stroke="midnightblue" points="1254.91,-297.551 1258.51,-287.589 1249.48,-293.127 1254.91,-297.551"/>
</g>
<!-- Node23&#45;&gt;Node10 -->
<g id="edge45" class="edge"><title>Node23&#45;&gt;Node10</title>
<path fill="none" stroke="midnightblue" d="M1239.19,-257.399C1217.67,-247.55 1189.16,-234.501 1168.23,-224.922"/>
<polygon fill="midnightblue" stroke="midnightblue" points="1169.47,-221.637 1158.92,-220.658 1166.55,-228.002 1169.47,-221.637"/>
</g>
<!-- Node23&#45;&gt;Node15 -->
<g id="edge44" class="edge"><title>Node23&#45;&gt;Node15</title>
<path fill="none" stroke="midnightblue" d="M1273.34,-257.453C1279.05,-229.597 1287.08,-167.19 1254,-134 1206.44,-86.2893 1017.99,-115.742 953,-98 950.708,-97.3742 948.37,-96.6151 946.05,-95.776"/>
<polygon fill="midnightblue" stroke="midnightblue" points="947.36,-92.5307 936.778,-92.0126 944.728,-99.0168 947.36,-92.5307"/>
</g>
<!-- Node23&#45;&gt;Node19 -->
<g id="edge46" class="edge"><title>Node23&#45;&gt;Node19</title>
<path fill="none" stroke="midnightblue" d="M1255.31,-257.229C1238.13,-241.294 1208.17,-215.803 1178,-201 1143.53,-184.085 1102.68,-172.307 1067.62,-164.407"/>
<polygon fill="midnightblue" stroke="midnightblue" points="1067.94,-160.894 1057.42,-162.18 1066.45,-167.733 1067.94,-160.894"/>
</g>
<!-- Node24 -->
<g id="node24" class="node"><title>Node24</title>
<g id="a_node24"><a xlink:href="XalanAllocator_8hpp.html" target="_top" xlink:title=" ">
<polygon fill="none" stroke="black" points="1301,-134.5 1301,-164.5 1419,-164.5 1419,-134.5 1301,-134.5"/>
<text text-anchor="start" x="1309" y="-152.5" font-family="Helvetica,sans-Serif" font-size="10.00">xalanc/PlatformSupport</text>
<text text-anchor="middle" x="1360" y="-141.5" font-family="Helvetica,sans-Serif" font-size="10.00">/XalanAllocator.hpp</text>
</a>
</g>
</g>
<!-- Node23&#45;&gt;Node24 -->
<g id="edge47" class="edge"><title>Node23&#45;&gt;Node24</title>
<path fill="none" stroke="midnightblue" d="M1280.68,-257.145C1296.17,-236.313 1325.03,-197.512 1343.34,-172.898"/>
<polygon fill="midnightblue" stroke="midnightblue" points="1346.18,-174.949 1349.34,-164.837 1340.56,-170.772 1346.18,-174.949"/>
</g>
<!-- Node24&#45;&gt;Node12 -->
<g id="edge48" class="edge"><title>Node24&#45;&gt;Node12</title>
<path fill="none" stroke="midnightblue" d="M1312.97,-134.476C1271.66,-122.161 1212.59,-104.546 1175.8,-93.5781"/>
<polygon fill="midnightblue" stroke="midnightblue" points="1176.63,-90.174 1166.05,-90.6707 1174.63,-96.8822 1176.63,-90.174"/>
</g>
<!-- Node25&#45;&gt;Node2 -->
<g id="edge50" class="edge"><title>Node25&#45;&gt;Node2</title>
<path fill="none" stroke="midnightblue" d="M185.479,-525.374C165.071,-502.349 124.495,-456.572 100.355,-429.336"/>
<polygon fill="midnightblue" stroke="midnightblue" points="102.683,-426.687 93.431,-421.525 97.4449,-431.33 102.683,-426.687"/>
</g>
<!-- Node26 -->
<g id="node26" class="node"><title>Node26</title>
<g id="a_node26"><a xlink:href="XalanSourceTreeText_8hpp.html" target="_top" xlink:title=" ">
<polygon fill="none" stroke="black" points="185,-458.5 185,-488.5 315,-488.5 315,-458.5 185,-458.5"/>
<text text-anchor="start" x="193" y="-476.5" font-family="Helvetica,sans-Serif" font-size="10.00">xalanc/XalanSourceTree</text>
<text text-anchor="middle" x="250" y="-465.5" font-family="Helvetica,sans-Serif" font-size="10.00">/XalanSourceTreeText.hpp</text>
</a>
</g>
</g>
<!-- Node25&#45;&gt;Node26 -->
<g id="edge51" class="edge"><title>Node25&#45;&gt;Node26</title>
<path fill="none" stroke="midnightblue" d="M209.283,-525.396C216.029,-516.963 224.746,-506.067 232.383,-496.522"/>
<polygon fill="midnightblue" stroke="midnightblue" points="235.225,-498.572 238.739,-488.577 229.759,-494.199 235.225,-498.572"/>
</g>
<!-- Node26&#45;&gt;Node2 -->
<g id="edge52" class="edge"><title>Node26&#45;&gt;Node2</title>
<path fill="none" stroke="midnightblue" d="M213.33,-458.396C188.083,-448.686 154.343,-435.709 127.251,-425.289"/>
<polygon fill="midnightblue" stroke="midnightblue" points="128.189,-421.9 117.599,-421.577 125.676,-428.433 128.189,-421.9"/>
</g>
<!-- Node27 -->
<g id="node27" class="node"><title>Node27</title>
<g id="a_node27"><a xlink:href="XalanText_8hpp.html" target="_top" xlink:title=" ">
<polygon fill="none" stroke="black" points="177,-397 177,-416 335,-416 335,-397 177,-397"/>
<text text-anchor="middle" x="256" y="-404" font-family="Helvetica,sans-Serif" font-size="10.00">xalanc/XalanDOM/XalanText.hpp</text>
</a>
</g>
</g>
<!-- Node26&#45;&gt;Node27 -->
<g id="edge53" class="edge"><title>Node26&#45;&gt;Node27</title>
<path fill="none" stroke="midnightblue" d="M251.302,-458.396C252.173,-448.963 253.328,-436.448 254.275,-426.189"/>
<polygon fill="midnightblue" stroke="midnightblue" points="257.763,-426.474 255.197,-416.195 250.793,-425.83 257.763,-426.474"/>
</g>
<!-- Node31 -->
<g id="node31" class="node"><title>Node31</title>
<g id="a_node31"><a xlink:href="XalanDOMString_8hpp.html" target="_top" xlink:title=" ">
<polygon fill="none" stroke="black" points="462.5,-397 462.5,-416 649.5,-416 649.5,-397 462.5,-397"/>
<text text-anchor="middle" x="556" y="-404" font-family="Helvetica,sans-Serif" font-size="10.00">xalanc/XalanDOM/XalanDOMString.hpp</text>
</a>
</g>
</g>
<!-- Node26&#45;&gt;Node31 -->
<g id="edge60" class="edge"><title>Node26&#45;&gt;Node31</title>
<path fill="none" stroke="midnightblue" d="M315.269,-458.636C372.205,-446.541 453.623,-429.247 505.648,-418.196"/>
<polygon fill="midnightblue" stroke="midnightblue" points="506.591,-421.574 515.645,-416.072 505.136,-414.726 506.591,-421.574"/>
</g>
<!-- Node28 -->
<g id="node28" class="node"><title>Node28</title>
<g id="a_node28"><a xlink:href="XalanDOMDefinitions_8hpp.html" target="_top" xlink:title=" ">
<polygon fill="none" stroke="black" points="181,-201.5 181,-220.5 387,-220.5 387,-201.5 181,-201.5"/>
<text text-anchor="middle" x="284" y="-208.5" font-family="Helvetica,sans-Serif" font-size="10.00">xalanc/XalanDOM/XalanDOMDefinitions.hpp</text>
</a>
</g>
</g>
<!-- Node27&#45;&gt;Node28 -->
<g id="edge54" class="edge"><title>Node27&#45;&gt;Node28</title>
<path fill="none" stroke="midnightblue" d="M256.901,-396.765C259.317,-373.797 266.347,-309.838 275,-257 276.434,-248.243 278.324,-238.588 280.001,-230.474"/>
<polygon fill="midnightblue" stroke="midnightblue" points="283.446,-231.102 282.095,-220.594 276.598,-229.652 283.446,-231.102"/>
</g>
<!-- Node29 -->
<g id="node29" class="node"><title>Node29</title>
<g id="a_node29"><a xlink:href="XalanCharacterData_8hpp.html" target="_top" xlink:title=" ">
<polygon fill="none" stroke="black" points="66,-324.5 66,-354.5 228,-354.5 228,-324.5 66,-324.5"/>
<text text-anchor="start" x="74" y="-342.5" font-family="Helvetica,sans-Serif" font-size="10.00">xalanc/XalanDOM/XalanCharacter</text>
<text text-anchor="middle" x="147" y="-331.5" font-family="Helvetica,sans-Serif" font-size="10.00">Data.hpp</text>
</a>
</g>
</g>
<!-- Node27&#45;&gt;Node29 -->
<g id="edge56" class="edge"><title>Node27&#45;&gt;Node29</title>
<path fill="none" stroke="midnightblue" d="M241.3,-396.734C225.507,-387.316 199.909,-372.051 179.366,-359.801"/>
<polygon fill="midnightblue" stroke="midnightblue" points="181.008,-356.705 170.626,-354.589 177.422,-362.717 181.008,-356.705"/>
</g>
<!-- Node28&#45;&gt;Node3 -->
<g id="edge55" class="edge"><title>Node28&#45;&gt;Node3</title>
<path fill="none" stroke="midnightblue" d="M297.472,-201.305C330.841,-179.769 417.567,-123.795 458.287,-97.514"/>
<polygon fill="midnightblue" stroke="midnightblue" points="460.189,-100.452 466.693,-92.0884 456.393,-94.5705 460.189,-100.452"/>
</g>
<!-- Node29&#45;&gt;Node28 -->
<g id="edge57" class="edge"><title>Node29&#45;&gt;Node28</title>
<path fill="none" stroke="midnightblue" d="M101.815,-324.339C84.649,-316.509 66.8681,-304.853 57,-288 50.0381,-276.111 48.256,-267.648 57,-257 72.0879,-238.627 121.739,-227.625 170.772,-221.104"/>
<polygon fill="midnightblue" stroke="midnightblue" points="171.406,-224.552 180.886,-219.82 170.524,-217.608 171.406,-224.552"/>
</g>
<!-- Node30 -->
<g id="node30" class="node"><title>Node30</title>
<g id="a_node30"><a xlink:href="XalanNode_8hpp.html" target="_top" xlink:title=" ">
<polygon fill="none" stroke="black" points="66.5,-263 66.5,-282 227.5,-282 227.5,-263 66.5,-263"/>
<text text-anchor="middle" x="147" y="-270" font-family="Helvetica,sans-Serif" font-size="10.00">xalanc/XalanDOM/XalanNode.hpp</text>
</a>
</g>
</g>
<!-- Node29&#45;&gt;Node30 -->
<g id="edge58" class="edge"><title>Node29&#45;&gt;Node30</title>
<path fill="none" stroke="midnightblue" d="M147,-324.396C147,-315.064 147,-302.714 147,-292.517"/>
<polygon fill="midnightblue" stroke="midnightblue" points="150.5,-292.195 147,-282.195 143.5,-292.195 150.5,-292.195"/>
</g>
<!-- Node30&#45;&gt;Node28 -->
<g id="edge59" class="edge"><title>Node30&#45;&gt;Node28</title>
<path fill="none" stroke="midnightblue" d="M166.629,-262.975C189.824,-252.901 228.619,-236.053 255.213,-224.502"/>
<polygon fill="midnightblue" stroke="midnightblue" points="256.63,-227.703 264.408,-220.509 253.841,-221.282 256.63,-227.703"/>
</g>
<!-- Node31&#45;&gt;Node9 -->
<g id="edge63" class="edge"><title>Node31&#45;&gt;Node9</title>
<path fill="none" stroke="midnightblue" d="M610.022,-396.936C685.405,-384.985 821.906,-363.344 902.2,-350.615"/>
<polygon fill="midnightblue" stroke="midnightblue" points="902.856,-354.054 912.184,-349.032 901.76,-347.141 902.856,-354.054"/>
</g>
<!-- Node31&#45;&gt;Node14 -->
<g id="edge65" class="edge"><title>Node31&#45;&gt;Node14</title>
<path fill="none" stroke="midnightblue" d="M561.267,-396.936C579.385,-367.476 639.385,-269.912 664.157,-229.632"/>
<polygon fill="midnightblue" stroke="midnightblue" points="667.265,-231.258 669.522,-220.907 661.303,-227.591 667.265,-231.258"/>
</g>
<!-- Node31&#45;&gt;Node15 -->
<g id="edge62" class="edge"><title>Node31&#45;&gt;Node15</title>
<path fill="none" stroke="midnightblue" d="M556,-396.851C556,-375.764 556,-320.021 556,-273.5 556,-273.5 556,-273.5 556,-210 556,-157.646 598.305,-155.59 646,-134 744.261,-89.5197 782.222,-127.393 886,-98 888.292,-97.3508 890.635,-96.5849 892.964,-95.7499"/>
<polygon fill="midnightblue" stroke="midnightblue" points="894.301,-98.9851 902.311,-92.0496 891.724,-92.4766 894.301,-98.9851"/>
</g>
<!-- Node31&#45;&gt;Node19 -->
<g id="edge64" class="edge"><title>Node31&#45;&gt;Node19</title>
<path fill="none" stroke="midnightblue" d="M565.562,-396.93C604.842,-361.867 754.325,-229.836 810,-201 840.085,-185.418 875.611,-174.081 906.91,-166.145"/>
<polygon fill="midnightblue" stroke="midnightblue" points="908.036,-169.472 916.911,-163.687 906.365,-162.675 908.036,-169.472"/>
</g>
<!-- Node31&#45;&gt;Node28 -->
<g id="edge61" class="edge"><title>Node31&#45;&gt;Node28</title>
<path fill="none" stroke="midnightblue" d="M553.76,-396.773C546.181,-367.903 520.702,-276.233 498,-257 478.786,-240.723 422.022,-229.231 371.783,-221.937"/>
<polygon fill="midnightblue" stroke="midnightblue" points="372.226,-218.465 361.835,-220.534 371.249,-225.396 372.226,-218.465"/>
</g>
<!-- Node32 -->
<g id="node32" class="node"><title>Node32</title>
<g id="a_node32"><a xlink:href="XalanDOMException_8hpp.html" target="_top" xlink:title=" ">
<polygon fill="none" stroke="black" points="284.5,-263 284.5,-282 489.5,-282 489.5,-263 284.5,-263"/>
<text text-anchor="middle" x="387" y="-270" font-family="Helvetica,sans-Serif" font-size="10.00">xalanc/XalanDOM/XalanDOMException.hpp</text>
</a>
</g>
</g>
<!-- Node31&#45;&gt;Node32 -->
<g id="edge66" class="edge"><title>Node31&#45;&gt;Node32</title>
<path fill="none" stroke="midnightblue" d="M544.911,-396.839C516.614,-374.737 441.463,-316.04 406.014,-288.351"/>
<polygon fill="midnightblue" stroke="midnightblue" points="407.945,-285.418 397.91,-282.021 403.636,-290.935 407.945,-285.418"/>
</g>
<!-- Node32&#45;&gt;Node28 -->
<g id="edge67" class="edge"><title>Node32&#45;&gt;Node28</title>
<path fill="none" stroke="midnightblue" d="M372.243,-262.975C355.339,-253.211 327.417,-237.081 307.51,-225.581"/>
<polygon fill="midnightblue" stroke="midnightblue" points="309.14,-222.481 298.73,-220.509 305.638,-228.542 309.14,-222.481"/>
</g>
</g>
</svg>
        <g id="navigator" transform="translate(0 0)" fill="#404254">
                <rect fill="#f2f5e9" fill-opacity="0.5" stroke="#606060" stroke-width=".5" x="0" y="0" width="60" height="60"/>
                <use id="zoomplus" xlink:href="#zoomPlus" x="17" y="9" onmousedown="handleZoom(evt,'in')"/>
                <use id="zoomminus" xlink:href="#zoomMin" x="42" y="9" onmousedown="handleZoom(evt,'out')"/>
                <use id="reset" xlink:href="#resetDef" x="30" y="36" onmousedown="handleReset()"/>
                <g id="arrowUp" xlink:href="#dirArrow" transform="translate(30 24)" onmousedown="handlePan(0,-1)">
                  <use xlink:href="#rim" fill="#404040">
                        <set attributeName="fill" to="#808080" begin="arrowUp.mouseover" end="arrowUp.mouseout"/>
                  </use>
                  <path fill="none" stroke="white" stroke-width="1.5" d="M0,-3.0v7 M-2.5,-0.5L0,-3.0L2.5,-0.5"/>
                </g>
                <g id="arrowRight" xlink:href="#dirArrow" transform="rotate(90) translate(36 -43)" onmousedown="handlePan(1,0)">
                  <use xlink:href="#rim" fill="#404040">
                        <set attributeName="fill" to="#808080" begin="arrowRight.mouseover" end="arrowRight.mouseout"/>
                  </use>
                  <path fill="none" stroke="white" stroke-width="1.5" d="M0,-3.0v7 M-2.5,-0.5L0,-3.0L2.5,-0.5"/>
                </g>
                <g id="arrowDown" xlink:href="#dirArrow" transform="rotate(180) translate(-30 -48)" onmousedown="handlePan(0,1)">
                  <use xlink:href="#rim" fill="#404040">
                        <set attributeName="fill" to="#808080" begin="arrowDown.mouseover" end="arrowDown.mouseout"/>
                  </use>
                  <path fill="none" stroke="white" stroke-width="1.5" d="M0,-3.0v7 M-2.5,-0.5L0,-3.0L2.5,-0.5"/>
                </g>
                <g id="arrowLeft" xlink:href="#dirArrow" transform="rotate(270) translate(-36 17)" onmousedown="handlePan(-1,0)">
                  <use xlink:href="#rim" fill="#404040">
                        <set attributeName="fill" to="#808080" begin="arrowLeft.mouseover" end="arrowLeft.mouseout"/>
                  </use>
                  <path fill="none" stroke="white" stroke-width="1.5" d="M0,-3.0v7 M-2.5,-0.5L0,-3.0L2.5,-0.5"/>
                </g>
        </g>
        <svg viewBox="0 0 15 15" width="100%" height="30px" preserveAspectRatio="xMaxYMin meet">
         <g id="arrow_out" transform="scale(0.3 0.3)">
          <a xlink:href="XalanSourceTreeTextIWSAllocator_8hpp__incl_org.svg" target="_base">
           <rect id="button" ry="5" rx="5" y="6" x="6" height="38" width="38"
                fill="#f2f5e9" fill-opacity="0.5" stroke="#606060" stroke-width="1.0"/>
           <path id="arrow"
             d="M 11.500037,31.436501 C 11.940474,20.09759 22.043105,11.32322 32.158766,21.979434 L 37.068811,17.246167 C 37.068811,17.246167 37.088388,32 37.088388,32 L 22.160133,31.978069 C 22.160133,31.978069 26.997745,27.140456 26.997745,27.140456 C 18.528582,18.264221 13.291696,25.230495 11.500037,31.436501 z"
             style="fill:#404040;"/>
          </a>
         </g>
        </svg>
</svg>
