<?xml version="1.0" encoding="UTF-8" standalone="no"?>
<!DOCTYPE svg PUBLIC "-//W3C//DTD SVG 1.1//EN"
 "http://www.w3.org/Graphics/SVG/1.1/DTD/svg11.dtd">
<!-- Generated by graphviz version 2.38.0 (20140413.2041)
 -->
<!-- Title: xalanc/PlatformSupport/XalanTranscodingServices.hpp Pages: 1 -->
<svg width="1376pt" height="676pt"
 viewBox="0.00 0.00 1376.39 676.00" xmlns="http://www.w3.org/2000/svg" xmlns:xlink="http://www.w3.org/1999/xlink">
<g id="graph0" class="graph" transform="scale(1 1) rotate(0) translate(4 672)">
<title>xalanc/PlatformSupport/XalanTranscodingServices.hpp</title>
<!-- Node1 -->
<g id="node1" class="node"><title>Node1</title>
<g id="a_node1"><a xlink:title=" ">
<polygon fill="#bfbfbf" stroke="black" points="871.5,-637.5 871.5,-667.5 1022.5,-667.5 1022.5,-637.5 871.5,-637.5"/>
<text text-anchor="start" x="879.5" y="-655.5" font-family="Helvetica,sans-Serif" font-size="10.00">xalanc/PlatformSupport</text>
<text text-anchor="middle" x="947" y="-644.5" font-family="Helvetica,sans-Serif" font-size="10.00">/XalanTranscodingServices.hpp</text>
</a>
</g>
</g>
<!-- Node2 -->
<g id="node2" class="node"><title>Node2</title>
<g id="a_node2"><a xlink:href="PlatformSupportDefinitions_8hpp.html" target="_top" xlink:title=" ">
<polygon fill="none" stroke="black" points="1044.5,-369.5 1044.5,-399.5 1197.5,-399.5 1197.5,-369.5 1044.5,-369.5"/>
<text text-anchor="start" x="1052.5" y="-387.5" font-family="Helvetica,sans-Serif" font-size="10.00">xalanc/PlatformSupport</text>
<text text-anchor="middle" x="1121" y="-376.5" font-family="Helvetica,sans-Serif" font-size="10.00">/PlatformSupportDefinitions.hpp</text>
</a>
</g>
</g>
<!-- Node1&#45;&gt;Node2 -->
<g id="edge1" class="edge"><title>Node1&#45;&gt;Node2</title>
<path fill="none" stroke="midnightblue" d="M1022.55,-650.946C1111.68,-645.981 1257.95,-623.549 1339,-534 1368.48,-501.424 1379.55,-470.225 1352,-436 1333.85,-413.451 1265.59,-400.42 1207.94,-393.264"/>
<polygon fill="midnightblue" stroke="midnightblue" points="1208.03,-389.749 1197.68,-392.037 1207.2,-396.7 1208.03,-389.749"/>
</g>
<!-- Node7 -->
<g id="node7" class="node"><title>Node7</title>
<g id="a_node7"><a xlink:title=" ">
<polygon fill="none" stroke="#bfbfbf" points="70.5,-73 70.5,-92 119.5,-92 119.5,-73 70.5,-73"/>
<text text-anchor="middle" x="95" y="-80" font-family="Helvetica,sans-Serif" font-size="10.00">cassert</text>
</a>
</g>
</g>
<!-- Node1&#45;&gt;Node7 -->
<g id="edge6" class="edge"><title>Node1&#45;&gt;Node7</title>
<path fill="none" stroke="midnightblue" d="M871.104,-648.877C646.384,-640.112 0,-607.272 0,-519.5 0,-519.5 0,-519.5 0,-210 0,-161.425 45.3419,-119.59 73.3762,-98.367"/>
<polygon fill="midnightblue" stroke="midnightblue" points="75.7817,-100.944 81.7907,-92.2181 71.6516,-95.2923 75.7817,-100.944"/>
</g>
<!-- Node8 -->
<g id="node8" class="node"><title>Node8</title>
<g id="a_node8"><a xlink:href="DOMStringHelper_8hpp.html" target="_top" xlink:title=" ">
<polygon fill="none" stroke="black" points="690,-503.5 690,-533.5 808,-533.5 808,-503.5 690,-503.5"/>
<text text-anchor="start" x="698" y="-521.5" font-family="Helvetica,sans-Serif" font-size="10.00">xalanc/PlatformSupport</text>
<text text-anchor="middle" x="749" y="-510.5" font-family="Helvetica,sans-Serif" font-size="10.00">/DOMStringHelper.hpp</text>
</a>
</g>
</g>
<!-- Node1&#45;&gt;Node8 -->
<g id="edge7" class="edge"><title>Node1&#45;&gt;Node8</title>
<path fill="none" stroke="midnightblue" d="M925.811,-637.374C890.306,-613.704 818.733,-565.989 778.387,-539.092"/>
<polygon fill="midnightblue" stroke="midnightblue" points="780.299,-536.16 770.037,-533.525 776.416,-541.984 780.299,-536.16"/>
</g>
<!-- Node30 -->
<g id="node30" class="node"><title>Node30</title>
<g id="a_node30"><a xlink:href="XSLException_8hpp.html" target="_top" xlink:title=" ">
<polygon fill="none" stroke="black" points="984,-570.5 984,-600.5 1102,-600.5 1102,-570.5 984,-570.5"/>
<text text-anchor="start" x="992" y="-588.5" font-family="Helvetica,sans-Serif" font-size="10.00">xalanc/PlatformSupport</text>
<text text-anchor="middle" x="1043" y="-577.5" font-family="Helvetica,sans-Serif" font-size="10.00">/XSLException.hpp</text>
</a>
</g>
</g>
<!-- Node1&#45;&gt;Node30 -->
<g id="edge66" class="edge"><title>Node1&#45;&gt;Node30</title>
<path fill="none" stroke="midnightblue" d="M967.831,-637.396C981.291,-628.282 999.002,-616.29 1013.85,-606.236"/>
<polygon fill="midnightblue" stroke="midnightblue" points="1015.89,-609.081 1022.21,-600.577 1011.97,-603.285 1015.89,-609.081"/>
</g>
<!-- Node3 -->
<g id="node3" class="node"><title>Node3</title>
<g id="a_node3"><a xlink:href="PlatformDefinitions_8hpp.html" target="_top" xlink:title=" ">
<polygon fill="none" stroke="black" points="760,-73 760,-92 942,-92 942,-73 760,-73"/>
<text text-anchor="middle" x="851" y="-80" font-family="Helvetica,sans-Serif" font-size="10.00">xalanc/Include/PlatformDefinitions.hpp</text>
</a>
</g>
</g>
<!-- Node2&#45;&gt;Node3 -->
<g id="edge2" class="edge"><title>Node2&#45;&gt;Node3</title>
<path fill="none" stroke="midnightblue" d="M1113.13,-369.407C1102,-348.125 1083,-306.208 1083,-268 1083,-268 1083,-268 1083,-210 1083,-139.2 998.687,-107.79 931.716,-94.0083"/>
<polygon fill="midnightblue" stroke="midnightblue" points="932.038,-90.5052 921.553,-92.0223 930.696,-97.3753 932.038,-90.5052"/>
</g>
<!-- Node4 -->
<g id="node4" class="node"><title>Node4</title>
<g id="a_node4"><a xlink:title=" ">
<polygon fill="none" stroke="#bfbfbf" points="649,-0.5 649,-30.5 757,-30.5 757,-0.5 649,-0.5"/>
<text text-anchor="start" x="657" y="-18.5" font-family="Helvetica,sans-Serif" font-size="10.00">xercesc/util/Xerces</text>
<text text-anchor="middle" x="703" y="-7.5" font-family="Helvetica,sans-Serif" font-size="10.00">_autoconf_config.hpp</text>
</a>
</g>
</g>
<!-- Node3&#45;&gt;Node4 -->
<g id="edge3" class="edge"><title>Node3&#45;&gt;Node4</title>
<path fill="none" stroke="midnightblue" d="M831.347,-72.8685C809.235,-63.1572 772.695,-47.1092 744.246,-34.6148"/>
<polygon fill="midnightblue" stroke="midnightblue" points="745.504,-31.3447 734.941,-30.5281 742.689,-37.7539 745.504,-31.3447"/>
</g>
<!-- Node5 -->
<g id="node5" class="node"><title>Node5</title>
<g id="a_node5"><a xlink:title=" ">
<polygon fill="none" stroke="#bfbfbf" points="775.5,-6 775.5,-25 926.5,-25 926.5,-6 775.5,-6"/>
<text text-anchor="middle" x="851" y="-13" font-family="Helvetica,sans-Serif" font-size="10.00">xercesc/util/XercesVersion.hpp</text>
</a>
</g>
</g>
<!-- Node3&#45;&gt;Node5 -->
<g id="edge4" class="edge"><title>Node3&#45;&gt;Node5</title>
<path fill="none" stroke="midnightblue" d="M851,-72.7338C851,-63.1826 851,-47.6183 851,-35.2829"/>
<polygon fill="midnightblue" stroke="midnightblue" points="854.5,-35.1273 851,-25.1273 847.5,-35.1273 854.5,-35.1273"/>
</g>
<!-- Node6 -->
<g id="node6" class="node"><title>Node6</title>
<g id="a_node6"><a xlink:href="XalanVersion_8hpp.html" target="_top" xlink:title=" ">
<polygon fill="none" stroke="black" points="945,-6 945,-25 1037,-25 1037,-6 945,-6"/>
<text text-anchor="middle" x="991" y="-13" font-family="Helvetica,sans-Serif" font-size="10.00">XalanVersion.hpp</text>
</a>
</g>
</g>
<!-- Node3&#45;&gt;Node6 -->
<g id="edge5" class="edge"><title>Node3&#45;&gt;Node6</title>
<path fill="none" stroke="midnightblue" d="M869.591,-72.8685C893.544,-61.7476 935.395,-42.3167 963.154,-29.4286"/>
<polygon fill="midnightblue" stroke="midnightblue" points="964.736,-32.5529 972.332,-25.1672 961.788,-26.2038 964.736,-32.5529"/>
</g>
<!-- Node8&#45;&gt;Node2 -->
<g id="edge8" class="edge"><title>Node8&#45;&gt;Node2</title>
<path fill="none" stroke="midnightblue" d="M808.055,-514.108C911.931,-507.534 1118.45,-491.514 1140,-467 1154.13,-450.925 1145.71,-426.361 1136.01,-408.403"/>
<polygon fill="midnightblue" stroke="midnightblue" points="1138.99,-406.57 1130.93,-399.693 1132.94,-410.095 1138.99,-406.57"/>
</g>
<!-- Node8&#45;&gt;Node7 -->
<g id="edge10" class="edge"><title>Node8&#45;&gt;Node7</title>
<path fill="none" stroke="midnightblue" d="M689.917,-516.787C557.836,-514.518 242.537,-505.148 144,-467 88.5816,-445.545 38,-444.926 38,-385.5 38,-385.5 38,-385.5 38,-210 38,-167.469 65.1139,-123.431 81.9409,-100.196"/>
<polygon fill="midnightblue" stroke="midnightblue" points="84.8154,-102.197 88.0107,-92.0954 79.2134,-97.9995 84.8154,-102.197"/>
</g>
<!-- Node9 -->
<g id="node9" class="node"><title>Node9</title>
<g id="a_node9"><a xlink:title=" ">
<polygon fill="none" stroke="#bfbfbf" points="709,-140 709,-159 765,-159 765,-140 709,-140"/>
<text text-anchor="middle" x="737" y="-147" font-family="Helvetica,sans-Serif" font-size="10.00">algorithm</text>
</a>
</g>
</g>
<!-- Node8&#45;&gt;Node9 -->
<g id="edge9" class="edge"><title>Node8&#45;&gt;Node9</title>
<path fill="none" stroke="midnightblue" d="M689.676,-510.702C577.183,-496.151 344,-457.327 344,-385.5 344,-385.5 344,-385.5 344,-322 344,-190.543 500.197,-270.447 622,-221 641.007,-213.284 687.859,-183.111 715.542,-164.831"/>
<polygon fill="midnightblue" stroke="midnightblue" points="717.727,-167.582 724.127,-159.138 713.859,-161.748 717.727,-167.582"/>
</g>
<!-- Node10 -->
<g id="node10" class="node"><title>Node10</title>
<g id="a_node10"><a xlink:title=" ">
<polygon fill="none" stroke="#bfbfbf" points="917,-201.5 917,-220.5 975,-220.5 975,-201.5 917,-201.5"/>
<text text-anchor="middle" x="946" y="-208.5" font-family="Helvetica,sans-Serif" font-size="10.00">functional</text>
</a>
</g>
</g>
<!-- Node8&#45;&gt;Node10 -->
<g id="edge11" class="edge"><title>Node8&#45;&gt;Node10</title>
<path fill="none" stroke="midnightblue" d="M756.822,-503.465C766.8,-486.324 785.268,-457.022 806,-436 860.999,-380.232 913.297,-402.715 949,-333 965.862,-300.075 958.115,-255.215 951.63,-230.403"/>
<polygon fill="midnightblue" stroke="midnightblue" points="954.926,-229.196 948.833,-220.529 948.191,-231.105 954.926,-229.196"/>
</g>
<!-- Node11 -->
<g id="node11" class="node"><title>Node11</title>
<g id="a_node11"><a xlink:title=" ">
<polygon fill="none" stroke="#bfbfbf" points="951,-442 951,-461 995,-461 995,-442 951,-442"/>
<text text-anchor="middle" x="973" y="-449" font-family="Helvetica,sans-Serif" font-size="10.00">iosfwd</text>
</a>
</g>
</g>
<!-- Node8&#45;&gt;Node11 -->
<g id="edge12" class="edge"><title>Node8&#45;&gt;Node11</title>
<path fill="none" stroke="midnightblue" d="M808.119,-504.968C846.758,-496.063 898.025,-482.889 942,-467 943.614,-466.417 945.257,-465.781 946.904,-465.112"/>
<polygon fill="midnightblue" stroke="midnightblue" points="948.427,-468.266 956.179,-461.044 945.616,-461.855 948.427,-468.266"/>
</g>
<!-- Node12 -->
<g id="node12" class="node"><title>Node12</title>
<g id="a_node12"><a xlink:href="XalanVector_8hpp.html" target="_top" xlink:title=" ">
<polygon fill="none" stroke="black" points="303,-201.5 303,-220.5 455,-220.5 455,-201.5 303,-201.5"/>
<text text-anchor="middle" x="379" y="-208.5" font-family="Helvetica,sans-Serif" font-size="10.00">xalanc/Include/XalanVector.hpp</text>
</a>
</g>
</g>
<!-- Node8&#45;&gt;Node12 -->
<g id="edge13" class="edge"><title>Node8&#45;&gt;Node12</title>
<path fill="none" stroke="midnightblue" d="M689.598,-518.124C587.125,-517.967 383,-511.839 330,-467 301.173,-442.611 306,-423.26 306,-385.5 306,-385.5 306,-385.5 306,-322 306,-291.205 312.846,-282.575 330,-257 337.663,-245.575 348.803,-235.04 358.525,-227.04"/>
<polygon fill="midnightblue" stroke="midnightblue" points="360.885,-229.637 366.581,-220.704 356.557,-224.135 360.885,-229.637"/>
</g>
<!-- Node17 -->
<g id="node17" class="node"><title>Node17</title>
<g id="a_node17"><a xlink:href="XalanMemoryManagement_8hpp.html" target="_top" xlink:title=" ">
<polygon fill="none" stroke="black" points="180,-134.5 180,-164.5 320,-164.5 320,-134.5 180,-134.5"/>
<text text-anchor="start" x="188" y="-152.5" font-family="Helvetica,sans-Serif" font-size="10.00">xalanc/Include/XalanMemory</text>
<text text-anchor="middle" x="250" y="-141.5" font-family="Helvetica,sans-Serif" font-size="10.00">Management.hpp</text>
</a>
</g>
</g>
<!-- Node8&#45;&gt;Node17 -->
<g id="edge43" class="edge"><title>Node8&#45;&gt;Node17</title>
<path fill="none" stroke="midnightblue" d="M689.831,-517.665C532.192,-516.521 114,-502.463 114,-385.5 114,-385.5 114,-385.5 114,-266 114,-218.682 162.422,-186.709 201.48,-168.617"/>
<polygon fill="midnightblue" stroke="midnightblue" points="202.949,-171.794 210.663,-164.532 200.104,-165.398 202.949,-171.794"/>
</g>
<!-- Node19 -->
<g id="node19" class="node"><title>Node19</title>
<g id="a_node19"><a xlink:href="XalanMap_8hpp.html" target="_top" xlink:title=" ">
<polygon fill="none" stroke="black" points="471.5,-257.5 471.5,-276.5 614.5,-276.5 614.5,-257.5 471.5,-257.5"/>
<text text-anchor="middle" x="543" y="-264.5" font-family="Helvetica,sans-Serif" font-size="10.00">xalanc/Include/XalanMap.hpp</text>
</a>
</g>
</g>
<!-- Node8&#45;&gt;Node19 -->
<g id="edge27" class="edge"><title>Node8&#45;&gt;Node19</title>
<path fill="none" stroke="midnightblue" d="M689.79,-515.505C615.164,-509.33 490.436,-485.929 439,-400 411.047,-353.302 479.055,-304.57 518.015,-281.565"/>
<polygon fill="midnightblue" stroke="midnightblue" points="519.832,-284.557 526.761,-276.542 516.346,-278.487 519.832,-284.557"/>
</g>
<!-- Node22 -->
<g id="node22" class="node"><title>Node22</title>
<g id="a_node22"><a xlink:href="STLHelper_8hpp.html" target="_top" xlink:title=" ">
<polygon fill="none" stroke="black" points="794,-313.5 794,-332.5 940,-332.5 940,-313.5 794,-313.5"/>
<text text-anchor="middle" x="867" y="-320.5" font-family="Helvetica,sans-Serif" font-size="10.00">xalanc/Include/STLHelper.hpp</text>
</a>
</g>
</g>
<!-- Node8&#45;&gt;Node22 -->
<g id="edge44" class="edge"><title>Node8&#45;&gt;Node22</title>
<path fill="none" stroke="midnightblue" d="M750.092,-503.453C752.079,-486.036 757.629,-456.184 773,-436 791.381,-411.863 810.794,-422.632 831,-400 845.996,-383.204 855.989,-359.064 861.564,-342.523"/>
<polygon fill="midnightblue" stroke="midnightblue" points="864.928,-343.494 864.599,-332.904 858.252,-341.388 864.928,-343.494"/>
</g>
<!-- Node23 -->
<g id="node23" class="node"><title>Node23</title>
<g id="a_node23"><a xlink:href="XalanDOMString_8hpp.html" target="_top" xlink:title=" ">
<polygon fill="none" stroke="black" points="448.5,-375 448.5,-394 635.5,-394 635.5,-375 448.5,-375"/>
<text text-anchor="middle" x="542" y="-382" font-family="Helvetica,sans-Serif" font-size="10.00">xalanc/XalanDOM/XalanDOMString.hpp</text>
</a>
</g>
</g>
<!-- Node8&#45;&gt;Node23 -->
<g id="edge49" class="edge"><title>Node8&#45;&gt;Node23</title>
<path fill="none" stroke="midnightblue" d="M689.624,-508.118C658.681,-500.906 621.636,-488.4 594,-467 572.379,-450.257 557.216,-421.813 549.048,-403.345"/>
<polygon fill="midnightblue" stroke="midnightblue" points="552.233,-401.89 545.143,-394.018 545.777,-404.593 552.233,-401.89"/>
</g>
<!-- Node26 -->
<g id="node26" class="node"><title>Node26</title>
<g id="a_node26"><a xlink:href="FormatterListener_8hpp.html" target="_top" xlink:title=" ">
<polygon fill="none" stroke="black" points="603,-436.5 603,-466.5 721,-466.5 721,-436.5 603,-436.5"/>
<text text-anchor="start" x="611" y="-454.5" font-family="Helvetica,sans-Serif" font-size="10.00">xalanc/PlatformSupport</text>
<text text-anchor="middle" x="662" y="-443.5" font-family="Helvetica,sans-Serif" font-size="10.00">/FormatterListener.hpp</text>
</a>
</g>
</g>
<!-- Node8&#45;&gt;Node26 -->
<g id="edge58" class="edge"><title>Node8&#45;&gt;Node26</title>
<path fill="none" stroke="midnightblue" d="M730.122,-503.396C718.152,-494.452 702.472,-482.737 689.173,-472.802"/>
<polygon fill="midnightblue" stroke="midnightblue" points="690.947,-469.758 680.841,-466.577 686.757,-475.366 690.947,-469.758"/>
</g>
<!-- Node28 -->
<g id="node28" class="node"><title>Node28</title>
<g id="a_node28"><a xlink:href="XalanUnicode_8hpp.html" target="_top" xlink:title=" ">
<polygon fill="none" stroke="black" points="1013,-436.5 1013,-466.5 1131,-466.5 1131,-436.5 1013,-436.5"/>
<text text-anchor="start" x="1021" y="-454.5" font-family="Helvetica,sans-Serif" font-size="10.00">xalanc/PlatformSupport</text>
<text text-anchor="middle" x="1072" y="-443.5" font-family="Helvetica,sans-Serif" font-size="10.00">/XalanUnicode.hpp</text>
</a>
</g>
</g>
<!-- Node8&#45;&gt;Node28 -->
<g id="edge62" class="edge"><title>Node8&#45;&gt;Node28</title>
<path fill="none" stroke="midnightblue" d="M808.048,-506.059C857.44,-496.432 930.037,-482.148 1002.46,-467.302"/>
<polygon fill="midnightblue" stroke="midnightblue" points="1003.58,-470.644 1012.67,-465.204 1002.17,-463.787 1003.58,-470.644"/>
</g>
<!-- Node29 -->
<g id="node29" class="node"><title>Node29</title>
<g id="a_node29"><a xlink:href="XalanXMLChar_8hpp.html" target="_top" xlink:title=" ">
<polygon fill="none" stroke="black" points="815,-436.5 815,-466.5 933,-466.5 933,-436.5 815,-436.5"/>
<text text-anchor="start" x="823" y="-454.5" font-family="Helvetica,sans-Serif" font-size="10.00">xalanc/PlatformSupport</text>
<text text-anchor="middle" x="874" y="-443.5" font-family="Helvetica,sans-Serif" font-size="10.00">/XalanXMLChar.hpp</text>
</a>
</g>
</g>
<!-- Node8&#45;&gt;Node29 -->
<g id="edge64" class="edge"><title>Node8&#45;&gt;Node29</title>
<path fill="none" stroke="midnightblue" d="M776.123,-503.396C794.223,-493.984 818.226,-481.503 837.931,-471.256"/>
<polygon fill="midnightblue" stroke="midnightblue" points="839.672,-474.295 846.93,-466.577 836.443,-468.085 839.672,-474.295"/>
</g>
<!-- Node12&#45;&gt;Node3 -->
<g id="edge14" class="edge"><title>Node12&#45;&gt;Node3</title>
<path fill="none" stroke="midnightblue" d="M385.055,-201.318C397.913,-183.153 427.989,-142.143 443,-134 494.229,-106.211 646.137,-93.3255 749.423,-87.6377"/>
<polygon fill="midnightblue" stroke="midnightblue" points="749.775,-91.124 759.573,-87.0932 749.4,-84.134 749.775,-91.124"/>
</g>
<!-- Node12&#45;&gt;Node7 -->
<g id="edge17" class="edge"><title>Node12&#45;&gt;Node7</title>
<path fill="none" stroke="midnightblue" d="M302.782,-203.017C242.286,-196.17 163.744,-183.966 138,-165 117.005,-149.532 105.313,-120.718 99.5885,-101.826"/>
<polygon fill="midnightblue" stroke="midnightblue" points="102.918,-100.733 96.8828,-92.0252 96.1702,-102.596 102.918,-100.733"/>
</g>
<!-- Node12&#45;&gt;Node9 -->
<g id="edge16" class="edge"><title>Node12&#45;&gt;Node9</title>
<path fill="none" stroke="midnightblue" d="M430.293,-201.475C502.818,-189.421 633.705,-167.668 698.507,-156.898"/>
<polygon fill="midnightblue" stroke="midnightblue" points="699.403,-160.297 708.693,-155.205 698.255,-153.392 699.403,-160.297"/>
</g>
<!-- Node13 -->
<g id="node13" class="node"><title>Node13</title>
<g id="a_node13"><a xlink:title=" ">
<polygon fill="none" stroke="#bfbfbf" points="501,-73 501,-92 549,-92 549,-73 501,-73"/>
<text text-anchor="middle" x="525" y="-80" font-family="Helvetica,sans-Serif" font-size="10.00">cstddef</text>
</a>
</g>
</g>
<!-- Node12&#45;&gt;Node13 -->
<g id="edge15" class="edge"><title>Node12&#45;&gt;Node13</title>
<path fill="none" stroke="midnightblue" d="M380.352,-201.318C383.184,-185.865 391.11,-153.397 410,-134 431.929,-111.483 465.621,-98.3125 490.879,-91.102"/>
<polygon fill="midnightblue" stroke="midnightblue" points="492.029,-94.4174 500.785,-88.4522 490.22,-87.6551 492.029,-94.4174"/>
</g>
<!-- Node14 -->
<g id="node14" class="node"><title>Node14</title>
<g id="a_node14"><a xlink:title=" ">
<polygon fill="none" stroke="#bfbfbf" points="334,-73 334,-92 368,-92 368,-73 334,-73"/>
<text text-anchor="middle" x="351" y="-80" font-family="Helvetica,sans-Serif" font-size="10.00">new</text>
</a>
</g>
</g>
<!-- Node12&#45;&gt;Node14 -->
<g id="edge18" class="edge"><title>Node12&#45;&gt;Node14</title>
<path fill="none" stroke="midnightblue" d="M377.075,-201.305C372.58,-180.994 361.304,-130.053 355.156,-102.277"/>
<polygon fill="midnightblue" stroke="midnightblue" points="358.517,-101.263 352.938,-92.2557 351.682,-102.776 358.517,-101.263"/>
</g>
<!-- Node15 -->
<g id="node15" class="node"><title>Node15</title>
<g id="a_node15"><a xlink:title=" ">
<polygon fill="none" stroke="#bfbfbf" points="452.5,-140 452.5,-159 499.5,-159 499.5,-140 452.5,-140"/>
<text text-anchor="middle" x="476" y="-147" font-family="Helvetica,sans-Serif" font-size="10.00">iterator</text>
</a>
</g>
</g>
<!-- Node12&#45;&gt;Node15 -->
<g id="edge19" class="edge"><title>Node12&#45;&gt;Node15</title>
<path fill="none" stroke="midnightblue" d="M392.898,-201.475C408.672,-191.799 434.637,-175.872 453.349,-164.394"/>
<polygon fill="midnightblue" stroke="midnightblue" points="455.434,-167.221 462.128,-159.009 451.774,-161.254 455.434,-167.221"/>
</g>
<!-- Node16 -->
<g id="node16" class="node"><title>Node16</title>
<g id="a_node16"><a xlink:title=" ">
<polygon fill="none" stroke="#bfbfbf" points="517.5,-140 517.5,-159 576.5,-159 576.5,-140 517.5,-140"/>
<text text-anchor="middle" x="547" y="-147" font-family="Helvetica,sans-Serif" font-size="10.00">stdexcept</text>
</a>
</g>
</g>
<!-- Node12&#45;&gt;Node16 -->
<g id="edge20" class="edge"><title>Node12&#45;&gt;Node16</title>
<path fill="none" stroke="midnightblue" d="M404.266,-201.356C430.312,-192.405 472.072,-177.944 508,-165 510.236,-164.194 512.542,-163.356 514.863,-162.507"/>
<polygon fill="midnightblue" stroke="midnightblue" points="516.172,-165.755 524.344,-159.012 513.75,-159.187 516.172,-165.755"/>
</g>
<!-- Node12&#45;&gt;Node17 -->
<g id="edge21" class="edge"><title>Node12&#45;&gt;Node17</title>
<path fill="none" stroke="midnightblue" d="M360.517,-201.475C342.066,-192.965 313.133,-179.619 289.498,-168.718"/>
<polygon fill="midnightblue" stroke="midnightblue" points="290.949,-165.533 280.403,-164.523 288.017,-171.89 290.949,-165.533"/>
</g>
<!-- Node17&#45;&gt;Node3 -->
<g id="edge22" class="edge"><title>Node17&#45;&gt;Node3</title>
<path fill="none" stroke="midnightblue" d="M320.119,-140.916C429.787,-129.055 641.767,-106.129 762.031,-93.1223"/>
<polygon fill="midnightblue" stroke="midnightblue" points="762.742,-96.5658 772.308,-92.0108 761.99,-89.6064 762.742,-96.5658"/>
</g>
<!-- Node17&#45;&gt;Node7 -->
<g id="edge23" class="edge"><title>Node17&#45;&gt;Node7</title>
<path fill="none" stroke="midnightblue" d="M216.367,-134.396C189.05,-122.941 150.892,-106.938 124.694,-95.9521"/>
<polygon fill="midnightblue" stroke="midnightblue" points="125.861,-92.6466 115.286,-92.007 123.154,-99.102 125.861,-92.6466"/>
</g>
<!-- Node17&#45;&gt;Node13 -->
<g id="edge24" class="edge"><title>Node17&#45;&gt;Node13</title>
<path fill="none" stroke="midnightblue" d="M309.332,-134.476C364.704,-121.388 445.4,-102.315 490.753,-91.5947"/>
<polygon fill="midnightblue" stroke="midnightblue" points="491.753,-94.955 500.679,-89.2485 490.143,-88.1427 491.753,-94.955"/>
</g>
<!-- Node17&#45;&gt;Node14 -->
<g id="edge25" class="edge"><title>Node17&#45;&gt;Node14</title>
<path fill="none" stroke="midnightblue" d="M271.915,-134.396C288.853,-123.496 312.187,-108.479 329.116,-97.5835"/>
<polygon fill="midnightblue" stroke="midnightblue" points="331.266,-100.362 337.781,-92.007 327.478,-94.4756 331.266,-100.362"/>
</g>
<!-- Node18 -->
<g id="node18" class="node"><title>Node18</title>
<g id="a_node18"><a xlink:title=" ">
<polygon fill="none" stroke="#bfbfbf" points="178.5,-67.5 178.5,-97.5 315.5,-97.5 315.5,-67.5 178.5,-67.5"/>
<text text-anchor="start" x="186.5" y="-85.5" font-family="Helvetica,sans-Serif" font-size="10.00">xercesc/framework/Memory</text>
<text text-anchor="middle" x="247" y="-74.5" font-family="Helvetica,sans-Serif" font-size="10.00">Manager.hpp</text>
</a>
</g>
</g>
<!-- Node17&#45;&gt;Node18 -->
<g id="edge26" class="edge"><title>Node17&#45;&gt;Node18</title>
<path fill="none" stroke="midnightblue" d="M249.349,-134.396C248.991,-126.645 248.537,-116.812 248.124,-107.86"/>
<polygon fill="midnightblue" stroke="midnightblue" points="251.607,-107.404 247.65,-97.5765 244.615,-107.727 251.607,-107.404"/>
</g>
<!-- Node19&#45;&gt;Node3 -->
<g id="edge28" class="edge"><title>Node19&#45;&gt;Node3</title>
<path fill="none" stroke="midnightblue" d="M614.65,-257.798C670.269,-250.297 741.851,-237.811 766,-221 808.874,-191.154 834.339,-132.016 845.044,-101.962"/>
<polygon fill="midnightblue" stroke="midnightblue" points="848.419,-102.908 848.325,-92.3136 841.791,-100.654 848.419,-102.908"/>
</g>
<!-- Node19&#45;&gt;Node9 -->
<g id="edge30" class="edge"><title>Node19&#45;&gt;Node9</title>
<path fill="none" stroke="midnightblue" d="M601.344,-257.444C645.58,-249.81 701.491,-237.32 718,-221 731.638,-207.519 735.793,-185.351 736.909,-169.471"/>
<polygon fill="midnightblue" stroke="midnightblue" points="740.416,-169.353 737.278,-159.234 733.42,-169.102 740.416,-169.353"/>
</g>
<!-- Node19&#45;&gt;Node10 -->
<g id="edge31" class="edge"><title>Node19&#45;&gt;Node10</title>
<path fill="none" stroke="midnightblue" d="M606.857,-257.444C691.088,-246.157 836.788,-226.634 906.549,-217.286"/>
<polygon fill="midnightblue" stroke="midnightblue" points="907.227,-220.727 916.674,-215.93 906.297,-213.789 907.227,-220.727"/>
</g>
<!-- Node19&#45;&gt;Node12 -->
<g id="edge33" class="edge"><title>Node19&#45;&gt;Node12</title>
<path fill="none" stroke="midnightblue" d="M517.014,-257.444C489.304,-248.32 445.248,-233.813 414.384,-223.651"/>
<polygon fill="midnightblue" stroke="midnightblue" points="415.458,-220.32 404.865,-220.516 413.268,-226.968 415.458,-220.32"/>
</g>
<!-- Node19&#45;&gt;Node13 -->
<g id="edge29" class="edge"><title>Node19&#45;&gt;Node13</title>
<path fill="none" stroke="midnightblue" d="M602.574,-257.455C651.914,-249.457 717.317,-236.445 739,-221 772.947,-196.819 800.38,-166.267 774,-134 747.278,-101.315 621.293,-89.2741 559.436,-85.2795"/>
<polygon fill="midnightblue" stroke="midnightblue" points="559.571,-81.7813 549.376,-84.6645 559.144,-88.7682 559.571,-81.7813"/>
</g>
<!-- Node20 -->
<g id="node20" class="node"><title>Node20</title>
<g id="a_node20"><a xlink:title=" ">
<polygon fill="none" stroke="#bfbfbf" points="669,-201.5 669,-220.5 709,-220.5 709,-201.5 669,-201.5"/>
<text text-anchor="middle" x="689" y="-208.5" font-family="Helvetica,sans-Serif" font-size="10.00">utility</text>
</a>
</g>
</g>
<!-- Node19&#45;&gt;Node20 -->
<g id="edge32" class="edge"><title>Node19&#45;&gt;Node20</title>
<path fill="none" stroke="midnightblue" d="M566.134,-257.444C591.342,-248.12 631.744,-233.177 659.283,-222.991"/>
<polygon fill="midnightblue" stroke="midnightblue" points="660.63,-226.225 668.795,-219.473 658.202,-219.659 660.63,-226.225"/>
</g>
<!-- Node21 -->
<g id="node21" class="node"><title>Node21</title>
<g id="a_node21"><a xlink:href="XalanList_8hpp.html" target="_top" xlink:title=" ">
<polygon fill="none" stroke="black" points="473,-201.5 473,-220.5 613,-220.5 613,-201.5 473,-201.5"/>
<text text-anchor="middle" x="543" y="-208.5" font-family="Helvetica,sans-Serif" font-size="10.00">xalanc/Include/XalanList.hpp</text>
</a>
</g>
</g>
<!-- Node19&#45;&gt;Node21 -->
<g id="edge34" class="edge"><title>Node19&#45;&gt;Node21</title>
<path fill="none" stroke="midnightblue" d="M543,-257.083C543,-250.006 543,-239.861 543,-230.986"/>
<polygon fill="midnightblue" stroke="midnightblue" points="546.5,-230.751 543,-220.751 539.5,-230.751 546.5,-230.751"/>
</g>
<!-- Node21&#45;&gt;Node3 -->
<g id="edge35" class="edge"><title>Node21&#45;&gt;Node3</title>
<path fill="none" stroke="midnightblue" d="M560.83,-201.375C579.551,-192.319 609.846,-177.662 636,-165 664.447,-151.228 670.731,-145.926 700,-134 737.374,-118.772 781.23,-104.489 812.02,-95.0249"/>
<polygon fill="midnightblue" stroke="midnightblue" points="813.386,-98.2677 821.933,-92.0059 811.347,-91.5713 813.386,-98.2677"/>
</g>
<!-- Node21&#45;&gt;Node7 -->
<g id="edge38" class="edge"><title>Node21&#45;&gt;Node7</title>
<path fill="none" stroke="midnightblue" d="M472.936,-201.828C366.089,-189.323 174.343,-166.7 171,-165 163.277,-161.074 129.156,-122.744 109.357,-100.075"/>
<polygon fill="midnightblue" stroke="midnightblue" points="111.76,-97.5045 102.556,-92.2581 106.48,-102.099 111.76,-97.5045"/>
</g>
<!-- Node21&#45;&gt;Node9 -->
<g id="edge37" class="edge"><title>Node21&#45;&gt;Node9</title>
<path fill="none" stroke="midnightblue" d="M573.403,-201.431C604.175,-192.657 653.067,-178.438 695,-165 697.596,-164.168 700.276,-163.289 702.967,-162.393"/>
<polygon fill="midnightblue" stroke="midnightblue" points="704.283,-165.642 712.632,-159.119 702.037,-159.012 704.283,-165.642"/>
</g>
<!-- Node21&#45;&gt;Node13 -->
<g id="edge36" class="edge"><title>Node21&#45;&gt;Node13</title>
<path fill="none" stroke="midnightblue" d="M571.015,-201.397C588.174,-194.515 608.748,-182.984 619,-165 625.823,-153.03 626.071,-145.825 619,-134 606.032,-112.313 580.198,-99.3997 558.89,-92.0675"/>
<polygon fill="midnightblue" stroke="midnightblue" points="559.765,-88.6736 549.175,-88.9912 557.652,-95.347 559.765,-88.6736"/>
</g>
<!-- Node21&#45;&gt;Node14 -->
<g id="edge39" class="edge"><title>Node21&#45;&gt;Node14</title>
<path fill="none" stroke="midnightblue" d="M554.084,-201.43C571.806,-186.703 602.802,-156.053 585,-134 559.303,-102.166 434.736,-89.4285 378.568,-85.2428"/>
<polygon fill="midnightblue" stroke="midnightblue" points="378.518,-81.7306 368.296,-84.5165 378.024,-88.7131 378.518,-81.7306"/>
</g>
<!-- Node21&#45;&gt;Node15 -->
<g id="edge40" class="edge"><title>Node21&#45;&gt;Node15</title>
<path fill="none" stroke="midnightblue" d="M533.401,-201.475C522.952,-192.197 506.032,-177.171 493.264,-165.831"/>
<polygon fill="midnightblue" stroke="midnightblue" points="495.383,-163.032 485.582,-159.009 490.735,-168.266 495.383,-163.032"/>
</g>
<!-- Node21&#45;&gt;Node16 -->
<g id="edge41" class="edge"><title>Node21&#45;&gt;Node16</title>
<path fill="none" stroke="midnightblue" d="M543.573,-201.475C544.137,-193.08 545.018,-179.981 545.745,-169.163"/>
<polygon fill="midnightblue" stroke="midnightblue" points="549.249,-169.221 546.428,-159.009 542.265,-168.752 549.249,-169.221"/>
</g>
<!-- Node21&#45;&gt;Node17 -->
<g id="edge42" class="edge"><title>Node21&#45;&gt;Node17</title>
<path fill="none" stroke="midnightblue" d="M501.02,-201.475C456.331,-192.4 384.566,-177.826 329.193,-166.582"/>
<polygon fill="midnightblue" stroke="midnightblue" points="329.551,-163.083 319.054,-164.523 328.158,-169.943 329.551,-163.083"/>
</g>
<!-- Node22&#45;&gt;Node3 -->
<g id="edge45" class="edge"><title>Node22&#45;&gt;Node3</title>
<path fill="none" stroke="midnightblue" d="M888.058,-313.376C927.687,-295.741 1007.36,-252.812 984,-201 961.984,-152.173 908.539,-115.477 876.501,-96.9518"/>
<polygon fill="midnightblue" stroke="midnightblue" points="878.123,-93.8485 867.69,-92.0028 874.695,-99.9517 878.123,-93.8485"/>
</g>
<!-- Node22&#45;&gt;Node9 -->
<g id="edge46" class="edge"><title>Node22&#45;&gt;Node9</title>
<path fill="none" stroke="midnightblue" d="M865.937,-313.432C864.019,-300.43 859.097,-275.295 848,-257 824.336,-217.987 782.816,-183.611 757.815,-165.059"/>
<polygon fill="midnightblue" stroke="midnightblue" points="759.865,-162.222 749.718,-159.176 755.751,-167.886 759.865,-162.222"/>
</g>
<!-- Node22&#45;&gt;Node10 -->
<g id="edge47" class="edge"><title>Node22&#45;&gt;Node10</title>
<path fill="none" stroke="midnightblue" d="M873.199,-313.368C886.236,-295.215 916.697,-252.802 933.798,-228.99"/>
<polygon fill="midnightblue" stroke="midnightblue" points="936.839,-230.755 939.83,-220.591 931.154,-226.672 936.839,-230.755"/>
</g>
<!-- Node22&#45;&gt;Node19 -->
<g id="edge48" class="edge"><title>Node22&#45;&gt;Node19</title>
<path fill="none" stroke="midnightblue" d="M815.661,-313.444C758.192,-303.865 665.133,-288.356 604,-278.167"/>
<polygon fill="midnightblue" stroke="midnightblue" points="604.538,-274.708 594.099,-276.516 603.387,-281.613 604.538,-274.708"/>
</g>
<!-- Node23&#45;&gt;Node7 -->
<g id="edge52" class="edge"><title>Node23&#45;&gt;Node7</title>
<path fill="none" stroke="midnightblue" d="M495.77,-374.948C404.922,-355.502 203.736,-298.851 109,-165 95.937,-146.544 93.6485,-119.948 93.8212,-102.215"/>
<polygon fill="midnightblue" stroke="midnightblue" points="97.3264,-102.139 94.2017,-92.0157 90.3312,-101.878 97.3264,-102.139"/>
</g>
<!-- Node23&#45;&gt;Node12 -->
<g id="edge55" class="edge"><title>Node23&#45;&gt;Node12</title>
<path fill="none" stroke="midnightblue" d="M533.693,-374.76C507.747,-347.46 427.948,-263.5 394.259,-228.055"/>
<polygon fill="midnightblue" stroke="midnightblue" points="396.523,-225.357 387.097,-220.519 391.449,-230.179 396.523,-225.357"/>
</g>
<!-- Node23&#45;&gt;Node17 -->
<g id="edge54" class="edge"><title>Node23&#45;&gt;Node17</title>
<path fill="none" stroke="midnightblue" d="M523.583,-374.938C479.64,-353.823 366.888,-295.516 294,-221 280.428,-207.124 268.969,-188.363 261.151,-173.683"/>
<polygon fill="midnightblue" stroke="midnightblue" points="264.231,-172.018 256.553,-164.717 258.002,-175.213 264.231,-172.018"/>
</g>
<!-- Node23&#45;&gt;Node22 -->
<g id="edge53" class="edge"><title>Node23&#45;&gt;Node22</title>
<path fill="none" stroke="midnightblue" d="M588.565,-374.975C647.089,-364.261 747.476,-345.882 810.379,-334.366"/>
<polygon fill="midnightblue" stroke="midnightblue" points="811.316,-337.753 820.522,-332.509 810.055,-330.867 811.316,-337.753"/>
</g>
<!-- Node24 -->
<g id="node24" class="node"><title>Node24</title>
<g id="a_node24"><a xlink:href="XalanDOMDefinitions_8hpp.html" target="_top" xlink:title=" ">
<polygon fill="none" stroke="black" points="633,-257.5 633,-276.5 839,-276.5 839,-257.5 633,-257.5"/>
<text text-anchor="middle" x="736" y="-264.5" font-family="Helvetica,sans-Serif" font-size="10.00">xalanc/XalanDOM/XalanDOMDefinitions.hpp</text>
</a>
</g>
</g>
<!-- Node23&#45;&gt;Node24 -->
<g id="edge50" class="edge"><title>Node23&#45;&gt;Node24</title>
<path fill="none" stroke="midnightblue" d="M541.722,-374.766C541.749,-359.922 544.052,-329.754 561,-313 577.886,-296.308 600.084,-285.553 622.977,-278.683"/>
<polygon fill="midnightblue" stroke="midnightblue" points="624.107,-282.002 632.818,-275.97 622.247,-275.254 624.107,-282.002"/>
</g>
<!-- Node25 -->
<g id="node25" class="node"><title>Node25</title>
<g id="a_node25"><a xlink:href="XalanDOMException_8hpp.html" target="_top" xlink:title=" ">
<polygon fill="none" stroke="black" points="570.5,-313.5 570.5,-332.5 775.5,-332.5 775.5,-313.5 570.5,-313.5"/>
<text text-anchor="middle" x="673" y="-320.5" font-family="Helvetica,sans-Serif" font-size="10.00">xalanc/XalanDOM/XalanDOMException.hpp</text>
</a>
</g>
</g>
<!-- Node23&#45;&gt;Node25 -->
<g id="edge56" class="edge"><title>Node23&#45;&gt;Node25</title>
<path fill="none" stroke="midnightblue" d="M560.769,-374.975C582.851,-364.945 619.719,-348.2 645.139,-336.655"/>
<polygon fill="midnightblue" stroke="midnightblue" points="646.608,-339.831 654.266,-332.509 643.713,-333.458 646.608,-339.831"/>
</g>
<!-- Node24&#45;&gt;Node3 -->
<g id="edge51" class="edge"><title>Node24&#45;&gt;Node3</title>
<path fill="none" stroke="midnightblue" d="M807.04,-257.489C829.255,-251.1 851.471,-240.048 865,-221 890.504,-185.093 872.238,-129.99 859.857,-101.677"/>
<polygon fill="midnightblue" stroke="midnightblue" points="862.869,-99.8495 855.504,-92.2333 856.512,-102.78 862.869,-99.8495"/>
</g>
<!-- Node25&#45;&gt;Node24 -->
<g id="edge57" class="edge"><title>Node25&#45;&gt;Node24</title>
<path fill="none" stroke="midnightblue" d="M683.122,-313.324C692.526,-305.263 706.744,-293.077 718.069,-283.369"/>
<polygon fill="midnightblue" stroke="midnightblue" points="720.379,-285.999 725.694,-276.834 715.823,-280.684 720.379,-285.999"/>
</g>
<!-- Node26&#45;&gt;Node2 -->
<g id="edge59" class="edge"><title>Node26&#45;&gt;Node2</title>
<path fill="none" stroke="midnightblue" d="M721.067,-442.135C800.532,-430.882 942.451,-410.785 1034.11,-397.805"/>
<polygon fill="midnightblue" stroke="midnightblue" points="1034.78,-401.244 1044.19,-396.377 1033.8,-394.313 1034.78,-401.244"/>
</g>
<!-- Node26&#45;&gt;Node23 -->
<g id="edge61" class="edge"><title>Node26&#45;&gt;Node23</title>
<path fill="none" stroke="midnightblue" d="M635.962,-436.396C615.372,-425.243 586.827,-409.781 566.616,-398.834"/>
<polygon fill="midnightblue" stroke="midnightblue" points="568.165,-395.692 557.705,-394.007 564.831,-401.847 568.165,-395.692"/>
</g>
<!-- Node27 -->
<g id="node27" class="node"><title>Node27</title>
<g id="a_node27"><a xlink:title=" ">
<polygon fill="none" stroke="#bfbfbf" points="653.5,-375 653.5,-394 822.5,-394 822.5,-375 653.5,-375"/>
<text text-anchor="middle" x="738" y="-382" font-family="Helvetica,sans-Serif" font-size="10.00">xercesc/sax/DocumentHandler.hpp</text>
</a>
</g>
</g>
<!-- Node26&#45;&gt;Node27 -->
<g id="edge60" class="edge"><title>Node26&#45;&gt;Node27</title>
<path fill="none" stroke="midnightblue" d="M678.491,-436.396C690.693,-425.96 707.307,-411.751 719.879,-400.998"/>
<polygon fill="midnightblue" stroke="midnightblue" points="722.509,-403.354 727.834,-394.195 717.96,-398.034 722.509,-403.354"/>
</g>
<!-- Node28&#45;&gt;Node2 -->
<g id="edge63" class="edge"><title>Node28&#45;&gt;Node2</title>
<path fill="none" stroke="midnightblue" d="M1082.63,-436.396C1088.92,-428.049 1097.04,-417.287 1104.18,-407.811"/>
<polygon fill="midnightblue" stroke="midnightblue" points="1107.16,-409.669 1110.39,-399.577 1101.57,-405.455 1107.16,-409.669"/>
</g>
<!-- Node29&#45;&gt;Node2 -->
<g id="edge65" class="edge"><title>Node29&#45;&gt;Node2</title>
<path fill="none" stroke="midnightblue" d="M927.291,-436.476C965.548,-426.408 1017.26,-412.799 1057.64,-402.174"/>
<polygon fill="midnightblue" stroke="midnightblue" points="1058.6,-405.541 1067.38,-399.611 1056.82,-398.771 1058.6,-405.541"/>
</g>
<!-- Node30&#45;&gt;Node2 -->
<g id="edge67" class="edge"><title>Node30&#45;&gt;Node2</title>
<path fill="none" stroke="midnightblue" d="M1102.2,-580.8C1173.12,-575.171 1286.23,-561.999 1317,-534 1339.89,-513.167 1331.74,-497.657 1336,-467 1337.9,-453.354 1344.56,-446.799 1336,-436 1319.81,-415.567 1260.15,-402.592 1207.78,-394.918"/>
<polygon fill="midnightblue" stroke="midnightblue" points="1208.15,-391.435 1197.76,-393.499 1207.17,-398.366 1208.15,-391.435"/>
</g>
<!-- Node30&#45;&gt;Node8 -->
<g id="edge68" class="edge"><title>Node30&#45;&gt;Node8</title>
<path fill="none" stroke="midnightblue" d="M983.858,-571.424C935.912,-560.824 868.269,-545.869 817.883,-534.729"/>
<polygon fill="midnightblue" stroke="midnightblue" points="818.567,-531.296 808.047,-532.555 817.056,-538.131 818.567,-531.296"/>
</g>
<!-- Node31 -->
<g id="node31" class="node"><title>Node31</title>
<g id="a_node31"><a xlink:href="XalanLocator_8hpp.html" target="_top" xlink:title=" ">
<polygon fill="none" stroke="black" points="1190,-503.5 1190,-533.5 1308,-533.5 1308,-503.5 1190,-503.5"/>
<text text-anchor="start" x="1198" y="-521.5" font-family="Helvetica,sans-Serif" font-size="10.00">xalanc/PlatformSupport</text>
<text text-anchor="middle" x="1249" y="-510.5" font-family="Helvetica,sans-Serif" font-size="10.00">/XalanLocator.hpp</text>
</a>
</g>
</g>
<!-- Node30&#45;&gt;Node31 -->
<g id="edge69" class="edge"><title>Node30&#45;&gt;Node31</title>
<path fill="none" stroke="midnightblue" d="M1087.45,-570.476C1118.88,-560.557 1161.21,-547.201 1194.65,-536.648"/>
<polygon fill="midnightblue" stroke="midnightblue" points="1195.8,-539.958 1204.28,-533.611 1193.69,-533.282 1195.8,-539.958"/>
</g>
<!-- Node31&#45;&gt;Node2 -->
<g id="edge70" class="edge"><title>Node31&#45;&gt;Node2</title>
<path fill="none" stroke="midnightblue" d="M1276.25,-503.48C1303.6,-487.556 1339.13,-460.587 1320,-436 1305.75,-417.68 1254.49,-404.93 1207.57,-396.824"/>
<polygon fill="midnightblue" stroke="midnightblue" points="1208.08,-393.361 1197.64,-395.165 1206.93,-400.265 1208.08,-393.361"/>
</g>
<!-- Node32 -->
<g id="node32" class="node"><title>Node32</title>
<g id="a_node32"><a xlink:title=" ">
<polygon fill="none" stroke="#bfbfbf" points="1187,-442 1187,-461 1311,-461 1311,-442 1187,-442"/>
<text text-anchor="middle" x="1249" y="-449" font-family="Helvetica,sans-Serif" font-size="10.00">xercesc/sax/Locator.hpp</text>
</a>
</g>
</g>
<!-- Node31&#45;&gt;Node32 -->
<g id="edge71" class="edge"><title>Node31&#45;&gt;Node32</title>
<path fill="none" stroke="midnightblue" d="M1249,-503.396C1249,-494.064 1249,-481.714 1249,-471.517"/>
<polygon fill="midnightblue" stroke="midnightblue" points="1252.5,-471.195 1249,-461.195 1245.5,-471.195 1252.5,-471.195"/>
</g>
</g>
</svg>
