<?xml version="1.0" encoding="UTF-8" standalone="no"?>
<!DOCTYPE svg PUBLIC "-//W3C//DTD SVG 1.1//EN"
 "http://www.w3.org/Graphics/SVG/1.1/DTD/svg11.dtd">
<!-- Generated by graphviz version 2.43.0 (0)
 -->
<!-- Title: xalanc/Harness/XalanDiagnosticMemoryManager.hpp Pages: 1 -->
<svg width="1065pt" height="363pt"
 viewBox="0.00 0.00 1065.24 363.00" xmlns="http://www.w3.org/2000/svg" xmlns:xlink="http://www.w3.org/1999/xlink">
<g id="graph0" class="graph" transform="scale(1 1) rotate(0) translate(4 359)">
<title>xalanc/Harness/XalanDiagnosticMemoryManager.hpp</title>
<!-- Node1 -->
<g id="node1" class="node">
<title>Node1</title>
<g id="a_node1"><a xlink:title=" ">
<polygon fill="#bfbfbf" stroke="black" points="558.74,-324.5 558.74,-354.5 732.74,-354.5 732.74,-324.5 558.74,-324.5"/>
<text text-anchor="start" x="566.74" y="-342.5" font-family="Helvetica,sans-Serif" font-size="10.00">xalanc/Harness/XalanDiagnostic</text>
<text text-anchor="middle" x="645.74" y="-331.5" font-family="Helvetica,sans-Serif" font-size="10.00">MemoryManager.hpp</text>
</a>
</g>
</g>
<!-- Node2 -->
<g id="node2" class="node">
<title>Node2</title>
<g id="a_node2"><a xlink:href="XalanHarnessDefinitions_8hpp.html" target="_top" xlink:title=" ">
<polygon fill="none" stroke="black" points="619.74,-257.5 619.74,-287.5 781.74,-287.5 781.74,-257.5 619.74,-257.5"/>
<text text-anchor="start" x="627.74" y="-275.5" font-family="Helvetica,sans-Serif" font-size="10.00">xalanc/Harness/XalanHarness</text>
<text text-anchor="middle" x="700.74" y="-264.5" font-family="Helvetica,sans-Serif" font-size="10.00">Definitions.hpp</text>
</a>
</g>
</g>
<!-- Node1&#45;&gt;Node2 -->
<g id="edge1" class="edge">
<title>Node1&#45;&gt;Node2</title>
<path fill="none" stroke="midnightblue" d="M657.67,-324.4C664.88,-315.88 674.22,-304.85 682.35,-295.23"/>
<polygon fill="midnightblue" stroke="midnightblue" points="685.04,-297.47 688.83,-287.58 679.7,-292.95 685.04,-297.47"/>
</g>
<!-- Node7 -->
<g id="node7" class="node">
<title>Node7</title>
<g id="a_node7"><a xlink:title=" ">
<polygon fill="none" stroke="#bfbfbf" points="30.24,-73 30.24,-92 83.24,-92 83.24,-73 30.24,-73"/>
<text text-anchor="middle" x="56.74" y="-80" font-family="Helvetica,sans-Serif" font-size="10.00">cstddef</text>
</a>
</g>
</g>
<!-- Node1&#45;&gt;Node7 -->
<g id="edge6" class="edge">
<title>Node1&#45;&gt;Node7</title>
<path fill="none" stroke="midnightblue" d="M558.61,-336.13C401.06,-329.73 79.1,-306.27 14.74,-221 -8.55,-190.13 0.38,-170.29 13.74,-134 18.71,-120.49 29.08,-108.14 38.39,-99.03"/>
<polygon fill="midnightblue" stroke="midnightblue" points="40.83,-101.53 45.82,-92.18 36.09,-96.38 40.83,-101.53"/>
</g>
<!-- Node8 -->
<g id="node8" class="node">
<title>Node8</title>
<g id="a_node8"><a xlink:title=" ">
<polygon fill="none" stroke="#bfbfbf" points="799.74,-263 799.74,-282 847.74,-282 847.74,-263 799.74,-263"/>
<text text-anchor="middle" x="823.74" y="-270" font-family="Helvetica,sans-Serif" font-size="10.00">iosfwd</text>
</a>
</g>
</g>
<!-- Node1&#45;&gt;Node8 -->
<g id="edge7" class="edge">
<title>Node1&#45;&gt;Node8</title>
<path fill="none" stroke="midnightblue" d="M688.89,-324.46C717.9,-314.79 756.88,-301.31 790.74,-288 792.34,-287.37 793.98,-286.71 795.63,-286.03"/>
<polygon fill="midnightblue" stroke="midnightblue" points="797.17,-289.18 805,-282.04 794.43,-282.74 797.17,-289.18"/>
</g>
<!-- Node9 -->
<g id="node9" class="node">
<title>Node9</title>
<g id="a_node9"><a xlink:title=" ">
<polygon fill="none" stroke="#bfbfbf" points="866.24,-263 866.24,-282 897.24,-282 897.24,-263 866.24,-263"/>
<text text-anchor="middle" x="881.74" y="-270" font-family="Helvetica,sans-Serif" font-size="10.00">ios</text>
</a>
</g>
</g>
<!-- Node1&#45;&gt;Node9 -->
<g id="edge8" class="edge">
<title>Node1&#45;&gt;Node9</title>
<path fill="none" stroke="midnightblue" d="M728.61,-324.47C768.23,-316.31 815.82,-304.36 856.74,-288 857.62,-287.65 858.5,-287.27 859.38,-286.87"/>
<polygon fill="midnightblue" stroke="midnightblue" points="861.36,-289.79 868.61,-282.07 858.12,-283.58 861.36,-289.79"/>
</g>
<!-- Node10 -->
<g id="node10" class="node">
<title>Node10</title>
<g id="a_node10"><a xlink:href="XalanMap_8hpp.html" target="_top" xlink:title=" ">
<polygon fill="none" stroke="black" points="243.74,-263 243.74,-282 403.74,-282 403.74,-263 243.74,-263"/>
<text text-anchor="middle" x="323.74" y="-270" font-family="Helvetica,sans-Serif" font-size="10.00">xalanc/Include/XalanMap.hpp</text>
</a>
</g>
</g>
<!-- Node1&#45;&gt;Node10 -->
<g id="edge9" class="edge">
<title>Node1&#45;&gt;Node10</title>
<path fill="none" stroke="midnightblue" d="M576.27,-324.48C516.17,-312.34 430.6,-295.07 376.12,-284.07"/>
<polygon fill="midnightblue" stroke="midnightblue" points="376.48,-280.58 365.99,-282.03 375.1,-287.44 376.48,-280.58"/>
</g>
<!-- Node19 -->
<g id="node19" class="node">
<title>Node19</title>
<g id="a_node19"><a xlink:href="XalanMemoryManagement_8hpp.html" target="_top" xlink:title=" ">
<polygon fill="none" stroke="black" points="512.74,-134.5 512.74,-164.5 670.74,-164.5 670.74,-134.5 512.74,-134.5"/>
<text text-anchor="start" x="520.74" y="-152.5" font-family="Helvetica,sans-Serif" font-size="10.00">xalanc/Include/XalanMemory</text>
<text text-anchor="middle" x="591.74" y="-141.5" font-family="Helvetica,sans-Serif" font-size="10.00">Management.hpp</text>
</a>
</g>
</g>
<!-- Node1&#45;&gt;Node19 -->
<g id="edge38" class="edge">
<title>Node1&#45;&gt;Node19</title>
<path fill="none" stroke="midnightblue" d="M633.01,-324.1C625.28,-314.53 615.93,-301.32 610.74,-288 596.06,-250.34 592.46,-203 591.72,-174.83"/>
<polygon fill="midnightblue" stroke="midnightblue" points="595.22,-174.64 591.56,-164.7 588.22,-174.75 595.22,-174.64"/>
</g>
<!-- Node3 -->
<g id="node3" class="node">
<title>Node3</title>
<g id="a_node3"><a xlink:href="PlatformDefinitions_8hpp.html" target="_top" xlink:title=" ">
<polygon fill="none" stroke="black" points="678.74,-73 678.74,-92 884.74,-92 884.74,-73 678.74,-73"/>
<text text-anchor="middle" x="781.74" y="-80" font-family="Helvetica,sans-Serif" font-size="10.00">xalanc/Include/PlatformDefinitions.hpp</text>
</a>
</g>
</g>
<!-- Node2&#45;&gt;Node3 -->
<g id="edge2" class="edge">
<title>Node2&#45;&gt;Node3</title>
<path fill="none" stroke="midnightblue" d="M744.49,-257.32C761.42,-249.45 779.03,-237.77 788.74,-221 810.52,-183.38 797.83,-129.82 788.64,-101.95"/>
<polygon fill="midnightblue" stroke="midnightblue" points="791.87,-100.59 785.26,-92.31 785.27,-102.91 791.87,-100.59"/>
</g>
<!-- Node4 -->
<g id="node4" class="node">
<title>Node4</title>
<g id="a_node4"><a xlink:title=" ">
<polygon fill="none" stroke="#bfbfbf" points="560.74,-0.5 560.74,-30.5 680.74,-30.5 680.74,-0.5 560.74,-0.5"/>
<text text-anchor="start" x="568.74" y="-18.5" font-family="Helvetica,sans-Serif" font-size="10.00">xercesc/util/Xerces</text>
<text text-anchor="middle" x="620.74" y="-7.5" font-family="Helvetica,sans-Serif" font-size="10.00">_autoconf_config.hpp</text>
</a>
</g>
</g>
<!-- Node3&#45;&gt;Node4 -->
<g id="edge3" class="edge">
<title>Node3&#45;&gt;Node4</title>
<path fill="none" stroke="midnightblue" d="M760.36,-72.87C736.1,-63.07 695.86,-46.83 664.8,-34.29"/>
<polygon fill="midnightblue" stroke="midnightblue" points="666.07,-31.03 655.49,-30.53 663.45,-37.52 666.07,-31.03"/>
</g>
<!-- Node5 -->
<g id="node5" class="node">
<title>Node5</title>
<g id="a_node5"><a xlink:title=" ">
<polygon fill="none" stroke="#bfbfbf" points="699.24,-6 699.24,-25 864.24,-25 864.24,-6 699.24,-6"/>
<text text-anchor="middle" x="781.74" y="-13" font-family="Helvetica,sans-Serif" font-size="10.00">xercesc/util/XercesVersion.hpp</text>
</a>
</g>
</g>
<!-- Node3&#45;&gt;Node5 -->
<g id="edge4" class="edge">
<title>Node3&#45;&gt;Node5</title>
<path fill="none" stroke="midnightblue" d="M781.74,-72.73C781.74,-63.18 781.74,-47.62 781.74,-35.28"/>
<polygon fill="midnightblue" stroke="midnightblue" points="785.24,-35.13 781.74,-25.13 778.24,-35.13 785.24,-35.13"/>
</g>
<!-- Node6 -->
<g id="node6" class="node">
<title>Node6</title>
<g id="a_node6"><a xlink:href="XalanVersion_8hpp.html" target="_top" xlink:title=" ">
<polygon fill="none" stroke="black" points="882.24,-6 882.24,-25 1057.24,-25 1057.24,-6 882.24,-6"/>
<text text-anchor="middle" x="969.74" y="-13" font-family="Helvetica,sans-Serif" font-size="10.00">xalanc/Include/XalanVersion.hpp</text>
</a>
</g>
</g>
<!-- Node3&#45;&gt;Node6 -->
<g id="edge5" class="edge">
<title>Node3&#45;&gt;Node6</title>
<path fill="none" stroke="midnightblue" d="M806.71,-72.87C839.66,-61.47 897.86,-41.35 935.07,-28.49"/>
<polygon fill="midnightblue" stroke="midnightblue" points="936.66,-31.64 944.97,-25.06 934.38,-25.02 936.66,-31.64"/>
</g>
<!-- Node10&#45;&gt;Node3 -->
<g id="edge10" class="edge">
<title>Node10&#45;&gt;Node3</title>
<path fill="none" stroke="midnightblue" d="M403.91,-270.04C493.66,-264.39 638.9,-242.74 733.74,-165 754.23,-148.21 767.96,-120.21 775.31,-101.8"/>
<polygon fill="midnightblue" stroke="midnightblue" points="778.67,-102.82 778.9,-92.23 772.11,-100.36 778.67,-102.82"/>
</g>
<!-- Node10&#45;&gt;Node7 -->
<g id="edge11" class="edge">
<title>Node10&#45;&gt;Node7</title>
<path fill="none" stroke="midnightblue" d="M243.61,-269.09C165.59,-264.85 54.89,-253.17 27.74,-221 -1.66,-186.16 27.32,-128.91 45.11,-100.54"/>
<polygon fill="midnightblue" stroke="midnightblue" points="48.08,-102.39 50.61,-92.1 42.22,-98.56 48.08,-102.39"/>
</g>
<!-- Node11 -->
<g id="node11" class="node">
<title>Node11</title>
<g id="a_node11"><a xlink:title=" ">
<polygon fill="none" stroke="#bfbfbf" points="282.74,-140 282.74,-159 346.74,-159 346.74,-140 282.74,-140"/>
<text text-anchor="middle" x="314.74" y="-147" font-family="Helvetica,sans-Serif" font-size="10.00">algorithm</text>
</a>
</g>
</g>
<!-- Node10&#45;&gt;Node11 -->
<g id="edge12" class="edge">
<title>Node10&#45;&gt;Node11</title>
<path fill="none" stroke="midnightblue" d="M333.96,-262.68C347.78,-249.63 369.72,-224.2 360.74,-201 355.33,-187.04 344.07,-174.56 334.05,-165.51"/>
<polygon fill="midnightblue" stroke="midnightblue" points="336.29,-162.82 326.4,-159.01 331.76,-168.16 336.29,-162.82"/>
</g>
<!-- Node12 -->
<g id="node12" class="node">
<title>Node12</title>
<g id="a_node12"><a xlink:title=" ">
<polygon fill="none" stroke="#bfbfbf" points="37.24,-201.5 37.24,-220.5 102.24,-220.5 102.24,-201.5 37.24,-201.5"/>
<text text-anchor="middle" x="69.74" y="-208.5" font-family="Helvetica,sans-Serif" font-size="10.00">functional</text>
</a>
</g>
</g>
<!-- Node10&#45;&gt;Node12 -->
<g id="edge13" class="edge">
<title>Node10&#45;&gt;Node12</title>
<path fill="none" stroke="midnightblue" d="M287.35,-262.98C241.12,-252.15 161.46,-233.49 112.41,-222"/>
<polygon fill="midnightblue" stroke="midnightblue" points="112.97,-218.53 102.44,-219.66 111.37,-225.35 112.97,-218.53"/>
</g>
<!-- Node13 -->
<g id="node13" class="node">
<title>Node13</title>
<g id="a_node13"><a xlink:title=" ">
<polygon fill="none" stroke="#bfbfbf" points="120.24,-201.5 120.24,-220.5 165.24,-220.5 165.24,-201.5 120.24,-201.5"/>
<text text-anchor="middle" x="142.74" y="-208.5" font-family="Helvetica,sans-Serif" font-size="10.00">utility</text>
</a>
</g>
</g>
<!-- Node10&#45;&gt;Node13 -->
<g id="edge14" class="edge">
<title>Node10&#45;&gt;Node13</title>
<path fill="none" stroke="midnightblue" d="M297.81,-262.98C265.51,-252.36 210.33,-234.22 175.24,-222.68"/>
<polygon fill="midnightblue" stroke="midnightblue" points="176.07,-219.27 165.48,-219.47 173.89,-225.92 176.07,-219.27"/>
</g>
<!-- Node14 -->
<g id="node14" class="node">
<title>Node14</title>
<g id="a_node14"><a xlink:href="XalanVector_8hpp.html" target="_top" xlink:title=" ">
<polygon fill="none" stroke="black" points="183.24,-201.5 183.24,-220.5 352.24,-220.5 352.24,-201.5 183.24,-201.5"/>
<text text-anchor="middle" x="267.74" y="-208.5" font-family="Helvetica,sans-Serif" font-size="10.00">xalanc/Include/XalanVector.hpp</text>
</a>
</g>
</g>
<!-- Node10&#45;&gt;Node14 -->
<g id="edge15" class="edge">
<title>Node10&#45;&gt;Node14</title>
<path fill="none" stroke="midnightblue" d="M315.72,-262.98C307.15,-253.87 293.38,-239.24 282.78,-227.98"/>
<polygon fill="midnightblue" stroke="midnightblue" points="285.15,-225.39 275.75,-220.51 280.05,-230.19 285.15,-225.39"/>
</g>
<!-- Node21 -->
<g id="node21" class="node">
<title>Node21</title>
<g id="a_node21"><a xlink:href="XalanList_8hpp.html" target="_top" xlink:title=" ">
<polygon fill="none" stroke="black" points="407.74,-201.5 407.74,-220.5 563.74,-220.5 563.74,-201.5 407.74,-201.5"/>
<text text-anchor="middle" x="485.74" y="-208.5" font-family="Helvetica,sans-Serif" font-size="10.00">xalanc/Include/XalanList.hpp</text>
</a>
</g>
</g>
<!-- Node10&#45;&gt;Node21 -->
<g id="edge29" class="edge">
<title>Node10&#45;&gt;Node21</title>
<path fill="none" stroke="midnightblue" d="M346.95,-262.98C374.74,-252.77 421.46,-235.61 452.93,-224.05"/>
<polygon fill="midnightblue" stroke="midnightblue" points="454.39,-227.24 462.57,-220.51 451.98,-220.67 454.39,-227.24"/>
</g>
<!-- Node14&#45;&gt;Node3 -->
<g id="edge16" class="edge">
<title>Node14&#45;&gt;Node3</title>
<path fill="none" stroke="midnightblue" d="M238.62,-201.44C221.1,-194.62 200.22,-183.14 189.74,-165 182.85,-153.07 180.37,-144.1 189.74,-134 226.04,-94.87 615.64,-103.4 668.74,-98 681.99,-96.65 696.09,-95.01 709.67,-93.32"/>
<polygon fill="midnightblue" stroke="midnightblue" points="710.45,-96.75 719.93,-92.03 709.57,-89.81 710.45,-96.75"/>
</g>
<!-- Node14&#45;&gt;Node7 -->
<g id="edge17" class="edge">
<title>Node14&#45;&gt;Node7</title>
<path fill="none" stroke="midnightblue" d="M196.17,-201.44C166.56,-195.11 133.26,-184.12 107.74,-165 85.97,-148.7 71.26,-120.13 63.43,-101.52"/>
<polygon fill="midnightblue" stroke="midnightblue" points="66.64,-100.12 59.71,-92.11 60.13,-102.7 66.64,-100.12"/>
</g>
<!-- Node14&#45;&gt;Node11 -->
<g id="edge18" class="edge">
<title>Node14&#45;&gt;Node11</title>
<path fill="none" stroke="midnightblue" d="M274.47,-201.48C281.52,-192.55 292.78,-178.31 301.59,-167.14"/>
<polygon fill="midnightblue" stroke="midnightblue" points="304.57,-169.03 308.02,-159.01 299.07,-164.69 304.57,-169.03"/>
</g>
<!-- Node15 -->
<g id="node15" class="node">
<title>Node15</title>
<g id="a_node15"><a xlink:title=" ">
<polygon fill="none" stroke="#bfbfbf" points="381.74,-73 381.74,-92 433.74,-92 433.74,-73 381.74,-73"/>
<text text-anchor="middle" x="407.74" y="-80" font-family="Helvetica,sans-Serif" font-size="10.00">cassert</text>
</a>
</g>
</g>
<!-- Node14&#45;&gt;Node15 -->
<g id="edge19" class="edge">
<title>Node14&#45;&gt;Node15</title>
<path fill="none" stroke="midnightblue" d="M210.48,-201.45C156.6,-191.01 88.38,-170.12 118.74,-134 150.61,-96.08 300.9,-86.63 371.25,-84.28"/>
<polygon fill="midnightblue" stroke="midnightblue" points="371.54,-87.77 381.43,-83.97 371.33,-80.77 371.54,-87.77"/>
</g>
<!-- Node16 -->
<g id="node16" class="node">
<title>Node16</title>
<g id="a_node16"><a xlink:title=" ">
<polygon fill="none" stroke="#bfbfbf" points="452.24,-73 452.24,-92 489.24,-92 489.24,-73 452.24,-73"/>
<text text-anchor="middle" x="470.74" y="-80" font-family="Helvetica,sans-Serif" font-size="10.00">new</text>
</a>
</g>
</g>
<!-- Node14&#45;&gt;Node16 -->
<g id="edge20" class="edge">
<title>Node14&#45;&gt;Node16</title>
<path fill="none" stroke="midnightblue" d="M213.66,-201.47C192.22,-195.15 169.64,-184.14 156.74,-165 149.04,-153.57 147.63,-144.33 156.74,-134 199.11,-85.96 381.57,-117.02 442.74,-98 444.21,-97.54 445.7,-97.01 447.17,-96.43"/>
<polygon fill="midnightblue" stroke="midnightblue" points="449.03,-99.42 456.62,-92.04 446.08,-93.08 449.03,-99.42"/>
</g>
<!-- Node17 -->
<g id="node17" class="node">
<title>Node17</title>
<g id="a_node17"><a xlink:title=" ">
<polygon fill="none" stroke="#bfbfbf" points="365.24,-140 365.24,-159 418.24,-159 418.24,-140 365.24,-140"/>
<text text-anchor="middle" x="391.74" y="-147" font-family="Helvetica,sans-Serif" font-size="10.00">iterator</text>
</a>
</g>
</g>
<!-- Node14&#45;&gt;Node17 -->
<g id="edge21" class="edge">
<title>Node14&#45;&gt;Node17</title>
<path fill="none" stroke="midnightblue" d="M285.51,-201.48C306.22,-191.53 340.69,-174.99 364.73,-163.46"/>
<polygon fill="midnightblue" stroke="midnightblue" points="366.51,-166.49 374.01,-159.01 363.48,-160.18 366.51,-166.49"/>
</g>
<!-- Node18 -->
<g id="node18" class="node">
<title>Node18</title>
<g id="a_node18"><a xlink:title=" ">
<polygon fill="none" stroke="#bfbfbf" points="199.24,-140 199.24,-159 264.24,-159 264.24,-140 199.24,-140"/>
<text text-anchor="middle" x="231.74" y="-147" font-family="Helvetica,sans-Serif" font-size="10.00">stdexcept</text>
</a>
</g>
</g>
<!-- Node14&#45;&gt;Node18 -->
<g id="edge22" class="edge">
<title>Node14&#45;&gt;Node18</title>
<path fill="none" stroke="midnightblue" d="M262.58,-201.48C257.29,-192.73 248.9,-178.87 242.21,-167.81"/>
<polygon fill="midnightblue" stroke="midnightblue" points="245.06,-165.75 236.89,-159.01 239.07,-169.38 245.06,-165.75"/>
</g>
<!-- Node14&#45;&gt;Node19 -->
<g id="edge23" class="edge">
<title>Node14&#45;&gt;Node19</title>
<path fill="none" stroke="midnightblue" d="M314.16,-201.48C363.89,-192.34 443.93,-177.64 505.31,-166.37"/>
<polygon fill="midnightblue" stroke="midnightblue" points="506.18,-169.77 515.38,-164.52 504.91,-162.89 506.18,-169.77"/>
</g>
<!-- Node19&#45;&gt;Node3 -->
<g id="edge24" class="edge">
<title>Node19&#45;&gt;Node3</title>
<path fill="none" stroke="midnightblue" d="M632.97,-134.4C667.04,-122.74 714.88,-106.37 747.03,-95.38"/>
<polygon fill="midnightblue" stroke="midnightblue" points="748.55,-98.56 756.87,-92.01 746.28,-91.93 748.55,-98.56"/>
</g>
<!-- Node19&#45;&gt;Node7 -->
<g id="edge26" class="edge">
<title>Node19&#45;&gt;Node7</title>
<path fill="none" stroke="midnightblue" d="M512.51,-138.87C395.1,-124.61 179.52,-98.42 93.55,-87.97"/>
<polygon fill="midnightblue" stroke="midnightblue" points="93.84,-84.48 83.49,-86.75 92.99,-91.43 93.84,-84.48"/>
</g>
<!-- Node19&#45;&gt;Node15 -->
<g id="edge25" class="edge">
<title>Node19&#45;&gt;Node15</title>
<path fill="none" stroke="midnightblue" d="M547.79,-134.45C517.97,-124.71 477.76,-111.17 442.74,-98 440.89,-97.31 439,-96.57 437.09,-95.83"/>
<polygon fill="midnightblue" stroke="midnightblue" points="438.22,-92.51 427.64,-92.01 435.6,-99 438.22,-92.51"/>
</g>
<!-- Node19&#45;&gt;Node16 -->
<g id="edge27" class="edge">
<title>Node19&#45;&gt;Node16</title>
<path fill="none" stroke="midnightblue" d="M565.49,-134.4C544.72,-123.24 515.94,-107.78 495.56,-96.83"/>
<polygon fill="midnightblue" stroke="midnightblue" points="497.04,-93.66 486.58,-92.01 493.73,-99.82 497.04,-93.66"/>
</g>
<!-- Node20 -->
<g id="node20" class="node">
<title>Node20</title>
<g id="a_node20"><a xlink:title=" ">
<polygon fill="none" stroke="#bfbfbf" points="507.24,-67.5 507.24,-97.5 660.24,-97.5 660.24,-67.5 507.24,-67.5"/>
<text text-anchor="start" x="515.24" y="-85.5" font-family="Helvetica,sans-Serif" font-size="10.00">xercesc/framework/Memory</text>
<text text-anchor="middle" x="583.74" y="-74.5" font-family="Helvetica,sans-Serif" font-size="10.00">Manager.hpp</text>
</a>
</g>
</g>
<!-- Node19&#45;&gt;Node20 -->
<g id="edge28" class="edge">
<title>Node19&#45;&gt;Node20</title>
<path fill="none" stroke="midnightblue" d="M590,-134.4C589.04,-126.56 587.81,-116.6 586.7,-107.57"/>
<polygon fill="midnightblue" stroke="midnightblue" points="590.17,-107.07 585.47,-97.58 583.22,-107.93 590.17,-107.07"/>
</g>
<!-- Node21&#45;&gt;Node3 -->
<g id="edge30" class="edge">
<title>Node21&#45;&gt;Node3</title>
<path fill="none" stroke="midnightblue" d="M563.78,-204.18C605.76,-198.49 657.27,-187.24 698.74,-165 728.57,-149.01 754.91,-119.03 769.55,-100.23"/>
<polygon fill="midnightblue" stroke="midnightblue" points="772.52,-102.1 775.76,-92.01 766.94,-97.88 772.52,-102.1"/>
</g>
<!-- Node21&#45;&gt;Node7 -->
<g id="edge31" class="edge">
<title>Node21&#45;&gt;Node7</title>
<path fill="none" stroke="midnightblue" d="M481.73,-201.13C473.82,-184.76 454.52,-150.02 426.74,-134 370.45,-101.53 175.44,-88.95 93.48,-85.02"/>
<polygon fill="midnightblue" stroke="midnightblue" points="93.52,-81.51 83.37,-84.55 93.2,-88.51 93.52,-81.51"/>
</g>
<!-- Node21&#45;&gt;Node11 -->
<g id="edge32" class="edge">
<title>Node21&#45;&gt;Node11</title>
<path fill="none" stroke="midnightblue" d="M460.8,-201.42C434.62,-192.4 392.26,-177.78 355.74,-165 353.37,-164.17 350.93,-163.31 348.46,-162.45"/>
<polygon fill="midnightblue" stroke="midnightblue" points="349.61,-159.14 339.01,-159.11 347.28,-165.74 349.61,-159.14"/>
</g>
<!-- Node21&#45;&gt;Node15 -->
<g id="edge33" class="edge">
<title>Node21&#45;&gt;Node15</title>
<path fill="none" stroke="midnightblue" d="M484.34,-201.43C481.64,-186.71 474.69,-156.07 460.74,-134 452.08,-120.3 438.9,-107.72 427.85,-98.54"/>
<polygon fill="midnightblue" stroke="midnightblue" points="429.93,-95.72 419.93,-92.23 425.56,-101.2 429.93,-95.72"/>
</g>
<!-- Node21&#45;&gt;Node16 -->
<g id="edge34" class="edge">
<title>Node21&#45;&gt;Node16</title>
<path fill="none" stroke="midnightblue" d="M563.92,-204.68C632.57,-196.99 716.25,-178.44 679.74,-134 627.4,-70.29 575.36,-125.81 497.74,-98 496.53,-97.57 495.31,-97.08 494.08,-96.57"/>
<polygon fill="midnightblue" stroke="midnightblue" points="495.47,-93.35 484.95,-92.15 492.43,-99.65 495.47,-93.35"/>
</g>
<!-- Node21&#45;&gt;Node17 -->
<g id="edge35" class="edge">
<title>Node21&#45;&gt;Node17</title>
<path fill="none" stroke="midnightblue" d="M472.27,-201.48C457.06,-191.84 432.05,-176.02 413.94,-164.55"/>
<polygon fill="midnightblue" stroke="midnightblue" points="415.5,-161.4 405.18,-159.01 411.76,-167.31 415.5,-161.4"/>
</g>
<!-- Node21&#45;&gt;Node18 -->
<g id="edge36" class="edge">
<title>Node21&#45;&gt;Node18</title>
<path fill="none" stroke="midnightblue" d="M437.34,-201.49C394.1,-193.47 329.21,-180.4 273.74,-165 270.79,-164.18 267.74,-163.27 264.7,-162.31"/>
<polygon fill="midnightblue" stroke="midnightblue" points="265.72,-158.96 255.13,-159.14 263.52,-165.6 265.72,-158.96"/>
</g>
<!-- Node21&#45;&gt;Node19 -->
<g id="edge37" class="edge">
<title>Node21&#45;&gt;Node19</title>
<path fill="none" stroke="midnightblue" d="M500.93,-201.48C515.75,-193.15 538.82,-180.21 557.99,-169.45"/>
<polygon fill="midnightblue" stroke="midnightblue" points="559.75,-172.47 566.76,-164.52 556.32,-166.37 559.75,-172.47"/>
</g>
</g>
</svg>
