<?xml version="1.0" encoding="UTF-8" standalone="no"?>
<!DOCTYPE svg PUBLIC "-//W3C//DTD SVG 1.1//EN"
 "http://www.w3.org/Graphics/SVG/1.1/DTD/svg11.dtd">
<!-- Generated by graphviz version 2.43.0 (0)
 -->
<!-- Title: xalanc/XalanSourceTree/XalanSourceTreeElementNAAllocator.hpp Pages: 1 -->
<!--zoomable 620 -->
<svg id="main" version="1.1" xmlns="http://www.w3.org/2000/svg" xmlns:xlink="http://www.w3.org/1999/xlink" xml:space="preserve" onload="init(evt)">
<style type="text/css"><![CDATA[
.edge:hover path { stroke: red; }
.edge:hover polygon { stroke: red; fill: red; }
]]></style>
<script type="text/javascript"><![CDATA[
var edges = document.getElementsByTagName('g');
if (edges && edges.length) {
  for (var i=0;i<edges.length;i++) {
    if (edges[i].id.substr(0,4)=='edge') {
      edges[i].setAttribute('class','edge');
    }
  }
}
]]></script>
        <defs>
                <circle id="rim" cx="0" cy="0" r="7"/>
                <circle id="rim2" cx="0" cy="0" r="3.5"/>
                <g id="zoomPlus">
                        <use xlink:href="#rim" fill="#404040">
                                <set attributeName="fill" to="#808080" begin="zoomplus.mouseover" end="zoomplus.mouseout"/>
                        </use>
                        <path d="M-4,0h8M0,-4v8" fill="none" stroke="white" stroke-width="1.5" pointer-events="none"/>
                </g>
                <g id="zoomMin">
                        <use xlink:href="#rim" fill="#404040">
                                <set attributeName="fill" to="#808080" begin="zoomminus.mouseover" end="zoomminus.mouseout"/>
                        </use>
                        <path d="M-4,0h8" fill="none" stroke="white" stroke-width="1.5" pointer-events="none"/>
                </g>
                <g id="dirArrow">
                        <path fill="none" stroke="white" stroke-width="1.5" d="M0,-3.0v7 M-2.5,-0.5L0,-3.0L2.5,-0.5"/>
                </g>
               <g id="resetDef">
                       <use xlink:href="#rim2" fill="#404040">
                               <set attributeName="fill" to="#808080" begin="reset.mouseover" end="reset.mouseout"/>
                       </use>
               </g>
        </defs>

<script type="text/javascript">
var viewWidth = 1718;
var viewHeight = 620;
var sectionId = 'dynsection-0';
</script>
<script xlink:href="svgpan.js"/>
<svg id="graph" class="graph">
<g id="viewport">
<title>xalanc/XalanSourceTree/XalanSourceTreeElementNAAllocator.hpp</title>
<!-- Node1 -->
<g id="node1" class="node">
<title>Node1</title>
<g id="a_node1"><a xlink:title=" ">
<polygon fill="#bfbfbf" stroke="black" points="1328,-581.5 1328,-611.5 1547,-611.5 1547,-581.5 1328,-581.5"/>
<text text-anchor="start" x="1336" y="-599.5" font-family="Helvetica,sans-Serif" font-size="10.00">xalanc/XalanSourceTree</text>
<text text-anchor="middle" x="1437.5" y="-588.5" font-family="Helvetica,sans-Serif" font-size="10.00">/XalanSourceTreeElementNAAllocator.hpp</text>
</a>
</g>
</g>
<!-- Node2 -->
<g id="node2" class="node">
<title>Node2</title>
<g id="a_node2"><a xlink:href="XalanSourceTreeDefinitions_8hpp.html" target="_top" xlink:title=" ">
<polygon fill="none" stroke="black" points="1535.5,-380.5 1535.5,-410.5 1709.5,-410.5 1709.5,-380.5 1535.5,-380.5"/>
<text text-anchor="start" x="1543.5" y="-398.5" font-family="Helvetica,sans-Serif" font-size="10.00">xalanc/XalanSourceTree</text>
<text text-anchor="middle" x="1622.5" y="-387.5" font-family="Helvetica,sans-Serif" font-size="10.00">/XalanSourceTreeDefinitions.hpp</text>
</a>
</g>
</g>
<!-- Node1&#45;&gt;Node2 -->
<g id="edge1" class="edge">
<title>Node1&#45;&gt;Node2</title>
<path fill="none" stroke="midnightblue" d="M1476.06,-581.36C1495.23,-572.94 1517.82,-560.79 1534.5,-545 1572.8,-508.75 1600.02,-452.18 1613.3,-420.34"/>
<polygon fill="midnightblue" stroke="midnightblue" points="1616.6,-421.52 1617.12,-410.93 1610.12,-418.88 1616.6,-421.52"/>
</g>
<!-- Node7 -->
<g id="node7" class="node">
<title>Node7</title>
<g id="a_node7"><a xlink:href="ArenaAllocator_8hpp.html" target="_top" xlink:title=" ">
<polygon fill="none" stroke="black" points="641,-380.5 641,-410.5 772,-410.5 772,-380.5 641,-380.5"/>
<text text-anchor="start" x="649" y="-398.5" font-family="Helvetica,sans-Serif" font-size="10.00">xalanc/PlatformSupport</text>
<text text-anchor="middle" x="706.5" y="-387.5" font-family="Helvetica,sans-Serif" font-size="10.00">/ArenaAllocator.hpp</text>
</a>
</g>
</g>
<!-- Node1&#45;&gt;Node7 -->
<g id="edge6" class="edge">
<title>Node1&#45;&gt;Node7</title>
<path fill="none" stroke="midnightblue" d="M1385.81,-581.43C1254.65,-545.72 909.37,-451.73 768.09,-413.27"/>
<polygon fill="midnightblue" stroke="midnightblue" points="768.85,-409.84 758.28,-410.6 767.01,-416.6 768.85,-409.84"/>
</g>
<!-- Node25 -->
<g id="node25" class="node">
<title>Node25</title>
<g id="a_node25"><a xlink:href="XalanSourceTreeElementNA_8hpp.html" target="_top" xlink:title=" ">
<polygon fill="none" stroke="black" points="1349.5,-514.5 1349.5,-544.5 1525.5,-544.5 1525.5,-514.5 1349.5,-514.5"/>
<text text-anchor="start" x="1357.5" y="-532.5" font-family="Helvetica,sans-Serif" font-size="10.00">xalanc/XalanSourceTree</text>
<text text-anchor="middle" x="1437.5" y="-521.5" font-family="Helvetica,sans-Serif" font-size="10.00">/XalanSourceTreeElementNA.hpp</text>
</a>
</g>
</g>
<!-- Node1&#45;&gt;Node25 -->
<g id="edge49" class="edge">
<title>Node1&#45;&gt;Node25</title>
<path fill="none" stroke="midnightblue" d="M1437.5,-581.4C1437.5,-573.64 1437.5,-563.81 1437.5,-554.86"/>
<polygon fill="midnightblue" stroke="midnightblue" points="1441,-554.58 1437.5,-544.58 1434,-554.58 1441,-554.58"/>
</g>
<!-- Node3 -->
<g id="node3" class="node">
<title>Node3</title>
<g id="a_node3"><a xlink:href="PlatformDefinitions_8hpp.html" target="_top" xlink:title=" ">
<polygon fill="none" stroke="black" points="895.5,-73 895.5,-92 1101.5,-92 1101.5,-73 895.5,-73"/>
<text text-anchor="middle" x="998.5" y="-80" font-family="Helvetica,sans-Serif" font-size="10.00">xalanc/Include/PlatformDefinitions.hpp</text>
</a>
</g>
</g>
<!-- Node2&#45;&gt;Node3 -->
<g id="edge2" class="edge">
<title>Node2&#45;&gt;Node3</title>
<path fill="none" stroke="midnightblue" d="M1616.18,-380.29C1606.85,-358.01 1590.5,-313.26 1590.5,-273.5 1590.5,-273.5 1590.5,-273.5 1590.5,-210 1590.5,-113.14 1283.58,-90.18 1111.72,-84.92"/>
<polygon fill="midnightblue" stroke="midnightblue" points="1111.72,-81.42 1101.62,-84.62 1111.51,-88.41 1111.72,-81.42"/>
</g>
<!-- Node4 -->
<g id="node4" class="node">
<title>Node4</title>
<g id="a_node4"><a xlink:title=" ">
<polygon fill="none" stroke="#bfbfbf" points="777.5,-0.5 777.5,-30.5 897.5,-30.5 897.5,-0.5 777.5,-0.5"/>
<text text-anchor="start" x="785.5" y="-18.5" font-family="Helvetica,sans-Serif" font-size="10.00">xercesc/util/Xerces</text>
<text text-anchor="middle" x="837.5" y="-7.5" font-family="Helvetica,sans-Serif" font-size="10.00">_autoconf_config.hpp</text>
</a>
</g>
</g>
<!-- Node3&#45;&gt;Node4 -->
<g id="edge3" class="edge">
<title>Node3&#45;&gt;Node4</title>
<path fill="none" stroke="midnightblue" d="M977.12,-72.87C952.86,-63.07 912.62,-46.83 881.56,-34.29"/>
<polygon fill="midnightblue" stroke="midnightblue" points="882.83,-31.03 872.25,-30.53 880.21,-37.52 882.83,-31.03"/>
</g>
<!-- Node5 -->
<g id="node5" class="node">
<title>Node5</title>
<g id="a_node5"><a xlink:title=" ">
<polygon fill="none" stroke="#bfbfbf" points="916,-6 916,-25 1081,-25 1081,-6 916,-6"/>
<text text-anchor="middle" x="998.5" y="-13" font-family="Helvetica,sans-Serif" font-size="10.00">xercesc/util/XercesVersion.hpp</text>
</a>
</g>
</g>
<!-- Node3&#45;&gt;Node5 -->
<g id="edge4" class="edge">
<title>Node3&#45;&gt;Node5</title>
<path fill="none" stroke="midnightblue" d="M998.5,-72.73C998.5,-63.18 998.5,-47.62 998.5,-35.28"/>
<polygon fill="midnightblue" stroke="midnightblue" points="1002,-35.13 998.5,-25.13 995,-35.13 1002,-35.13"/>
</g>
<!-- Node6 -->
<g id="node6" class="node">
<title>Node6</title>
<g id="a_node6"><a xlink:href="XalanVersion_8hpp.html" target="_top" xlink:title=" ">
<polygon fill="none" stroke="black" points="1099,-6 1099,-25 1274,-25 1274,-6 1099,-6"/>
<text text-anchor="middle" x="1186.5" y="-13" font-family="Helvetica,sans-Serif" font-size="10.00">xalanc/Include/XalanVersion.hpp</text>
</a>
</g>
</g>
<!-- Node3&#45;&gt;Node6 -->
<g id="edge5" class="edge">
<title>Node3&#45;&gt;Node6</title>
<path fill="none" stroke="midnightblue" d="M1023.46,-72.87C1056.42,-61.47 1114.62,-41.35 1151.83,-28.49"/>
<polygon fill="midnightblue" stroke="midnightblue" points="1153.42,-31.64 1161.73,-25.06 1151.14,-25.02 1153.42,-31.64"/>
</g>
<!-- Node8 -->
<g id="node8" class="node">
<title>Node8</title>
<g id="a_node8"><a xlink:title=" ">
<polygon fill="none" stroke="#bfbfbf" points="860.5,-140 860.5,-159 924.5,-159 924.5,-140 860.5,-140"/>
<text text-anchor="middle" x="892.5" y="-147" font-family="Helvetica,sans-Serif" font-size="10.00">algorithm</text>
</a>
</g>
</g>
<!-- Node7&#45;&gt;Node8 -->
<g id="edge7" class="edge">
<title>Node7&#45;&gt;Node8</title>
<path fill="none" stroke="midnightblue" d="M717.68,-380.31C729.04,-365.96 747.24,-343.23 763.5,-324 802.93,-277.35 819.56,-271.1 854.5,-221 866.28,-204.11 877.14,-183.18 884.21,-168.52"/>
<polygon fill="midnightblue" stroke="midnightblue" points="887.55,-169.65 888.65,-159.11 881.22,-166.67 887.55,-169.65"/>
</g>
<!-- Node9 -->
<g id="node9" class="node">
<title>Node9</title>
<g id="a_node9"><a xlink:href="STLHelper_8hpp.html" target="_top" xlink:title=" ">
<polygon fill="none" stroke="black" points="772.5,-324.5 772.5,-343.5 932.5,-343.5 932.5,-324.5 772.5,-324.5"/>
<text text-anchor="middle" x="852.5" y="-331.5" font-family="Helvetica,sans-Serif" font-size="10.00">xalanc/Include/STLHelper.hpp</text>
</a>
</g>
</g>
<!-- Node7&#45;&gt;Node9 -->
<g id="edge8" class="edge">
<title>Node7&#45;&gt;Node9</title>
<path fill="none" stroke="midnightblue" d="M741.1,-380.4C765.6,-370.42 798.16,-357.15 821.75,-347.53"/>
<polygon fill="midnightblue" stroke="midnightblue" points="823.32,-350.67 831.26,-343.66 820.67,-344.19 823.32,-350.67"/>
</g>
<!-- Node21 -->
<g id="node21" class="node">
<title>Node21</title>
<g id="a_node21"><a xlink:href="XalanList_8hpp.html" target="_top" xlink:title=" ">
<polygon fill="none" stroke="black" points="662.5,-201.5 662.5,-220.5 818.5,-220.5 818.5,-201.5 662.5,-201.5"/>
<text text-anchor="middle" x="740.5" y="-208.5" font-family="Helvetica,sans-Serif" font-size="10.00">xalanc/Include/XalanList.hpp</text>
</a>
</g>
</g>
<!-- Node7&#45;&gt;Node21 -->
<g id="edge41" class="edge">
<title>Node7&#45;&gt;Node21</title>
<path fill="none" stroke="midnightblue" d="M699.63,-380.25C693.63,-365.87 686.71,-343.11 692.5,-324 698.07,-305.6 708.19,-305.34 716.5,-288 725.45,-269.32 732.14,-246.51 736.15,-230.78"/>
<polygon fill="midnightblue" stroke="midnightblue" points="739.63,-231.28 738.59,-220.73 732.83,-229.62 739.63,-231.28"/>
</g>
<!-- Node22 -->
<g id="node22" class="node">
<title>Node22</title>
<g id="a_node22"><a xlink:href="ArenaBlock_8hpp.html" target="_top" xlink:title=" ">
<polygon fill="none" stroke="black" points="344,-324.5 344,-343.5 437,-343.5 437,-324.5 344,-324.5"/>
<text text-anchor="middle" x="390.5" y="-331.5" font-family="Helvetica,sans-Serif" font-size="10.00">ArenaBlock.hpp</text>
</a>
</g>
</g>
<!-- Node7&#45;&gt;Node22 -->
<g id="edge42" class="edge">
<title>Node7&#45;&gt;Node22</title>
<path fill="none" stroke="midnightblue" d="M640.64,-382.1C583.04,-371.25 500.31,-355.68 446.01,-345.45"/>
<polygon fill="midnightblue" stroke="midnightblue" points="446.35,-341.95 435.87,-343.54 445.05,-348.83 446.35,-341.95"/>
</g>
<!-- Node9&#45;&gt;Node3 -->
<g id="edge9" class="edge">
<title>Node9&#45;&gt;Node3</title>
<path fill="none" stroke="midnightblue" d="M862.43,-324.4C871.95,-315.82 886.33,-301.95 896.5,-288 942.25,-225.27 977.66,-138.95 991.8,-101.76"/>
<polygon fill="midnightblue" stroke="midnightblue" points="995.13,-102.85 995.36,-92.25 988.58,-100.39 995.13,-102.85"/>
</g>
<!-- Node9&#45;&gt;Node8 -->
<g id="edge10" class="edge">
<title>Node9&#45;&gt;Node8</title>
<path fill="none" stroke="midnightblue" d="M857.43,-324.37C867.56,-306.05 890.48,-261.63 898.5,-221 901.92,-203.69 899.61,-183.62 896.93,-169.33"/>
<polygon fill="midnightblue" stroke="midnightblue" points="900.29,-168.33 894.8,-159.27 893.45,-169.78 900.29,-168.33"/>
</g>
<!-- Node10 -->
<g id="node10" class="node">
<title>Node10</title>
<g id="a_node10"><a xlink:title=" ">
<polygon fill="none" stroke="#bfbfbf" points="291,-201.5 291,-220.5 356,-220.5 356,-201.5 291,-201.5"/>
<text text-anchor="middle" x="323.5" y="-208.5" font-family="Helvetica,sans-Serif" font-size="10.00">functional</text>
</a>
</g>
</g>
<!-- Node9&#45;&gt;Node10 -->
<g id="edge11" class="edge">
<title>Node9&#45;&gt;Node10</title>
<path fill="none" stroke="midnightblue" d="M772.3,-325.92C708.35,-319.21 616.85,-307.26 538.5,-288 470.49,-271.28 393.8,-241.37 352.91,-224.49"/>
<polygon fill="midnightblue" stroke="midnightblue" points="354.12,-221.21 343.55,-220.6 351.43,-227.67 354.12,-221.21"/>
</g>
<!-- Node11 -->
<g id="node11" class="node">
<title>Node11</title>
<g id="a_node11"><a xlink:href="XalanMap_8hpp.html" target="_top" xlink:title=" ">
<polygon fill="none" stroke="black" points="547.5,-263 547.5,-282 707.5,-282 707.5,-263 547.5,-263"/>
<text text-anchor="middle" x="627.5" y="-270" font-family="Helvetica,sans-Serif" font-size="10.00">xalanc/Include/XalanMap.hpp</text>
</a>
</g>
</g>
<!-- Node9&#45;&gt;Node11 -->
<g id="edge12" class="edge">
<title>Node9&#45;&gt;Node11</title>
<path fill="none" stroke="midnightblue" d="M820.26,-324.48C780.58,-313.98 713.1,-296.14 669.43,-284.59"/>
<polygon fill="midnightblue" stroke="midnightblue" points="670.24,-281.18 659.68,-282.01 668.45,-287.95 670.24,-281.18"/>
</g>
<!-- Node11&#45;&gt;Node3 -->
<g id="edge13" class="edge">
<title>Node11&#45;&gt;Node3</title>
<path fill="none" stroke="midnightblue" d="M699.34,-262.98C745.18,-255.76 805.05,-242.95 854.5,-221 893.84,-203.54 902.22,-194.56 933.5,-165 954.7,-144.97 974.97,-117.86 987.07,-100.52"/>
<polygon fill="midnightblue" stroke="midnightblue" points="990.15,-102.23 992.92,-92 984.37,-98.27 990.15,-102.23"/>
</g>
<!-- Node11&#45;&gt;Node8 -->
<g id="edge15" class="edge">
<title>Node11&#45;&gt;Node8</title>
<path fill="none" stroke="midnightblue" d="M703.18,-262.92C742.38,-255.96 789.8,-243.43 827.5,-221 849.99,-207.62 869.36,-184.1 880.97,-167.93"/>
<polygon fill="midnightblue" stroke="midnightblue" points="884.06,-169.61 886.87,-159.39 878.31,-165.63 884.06,-169.61"/>
</g>
<!-- Node11&#45;&gt;Node10 -->
<g id="edge16" class="edge">
<title>Node11&#45;&gt;Node10</title>
<path fill="none" stroke="midnightblue" d="M583.94,-262.98C525.86,-251.61 423.71,-231.61 366.11,-220.34"/>
<polygon fill="midnightblue" stroke="midnightblue" points="366.72,-216.89 356.24,-218.41 365.38,-223.76 366.72,-216.89"/>
</g>
<!-- Node12 -->
<g id="node12" class="node">
<title>Node12</title>
<g id="a_node12"><a xlink:title=" ">
<polygon fill="none" stroke="#bfbfbf" points="171,-73 171,-92 224,-92 224,-73 171,-73"/>
<text text-anchor="middle" x="197.5" y="-80" font-family="Helvetica,sans-Serif" font-size="10.00">cstddef</text>
</a>
</g>
</g>
<!-- Node11&#45;&gt;Node12 -->
<g id="edge14" class="edge">
<title>Node11&#45;&gt;Node12</title>
<path fill="none" stroke="midnightblue" d="M570.37,-262.97C524.17,-255.05 457.92,-241.39 402.5,-221 384.59,-214.41 382.43,-207.54 364.5,-201 293.98,-175.29 247.29,-222.88 199.5,-165 185.1,-147.57 187.9,-120.15 192.03,-102.01"/>
<polygon fill="midnightblue" stroke="midnightblue" points="195.42,-102.87 194.57,-92.31 188.65,-101.09 195.42,-102.87"/>
</g>
<!-- Node13 -->
<g id="node13" class="node">
<title>Node13</title>
<g id="a_node13"><a xlink:title=" ">
<polygon fill="none" stroke="#bfbfbf" points="599,-201.5 599,-220.5 644,-220.5 644,-201.5 599,-201.5"/>
<text text-anchor="middle" x="621.5" y="-208.5" font-family="Helvetica,sans-Serif" font-size="10.00">utility</text>
</a>
</g>
</g>
<!-- Node11&#45;&gt;Node13 -->
<g id="edge17" class="edge">
<title>Node11&#45;&gt;Node13</title>
<path fill="none" stroke="midnightblue" d="M626.64,-262.98C625.79,-254.58 624.47,-241.48 623.38,-230.66"/>
<polygon fill="midnightblue" stroke="midnightblue" points="626.84,-230.11 622.36,-220.51 619.88,-230.81 626.84,-230.11"/>
</g>
<!-- Node14 -->
<g id="node14" class="node">
<title>Node14</title>
<g id="a_node14"><a xlink:href="XalanVector_8hpp.html" target="_top" xlink:title=" ">
<polygon fill="none" stroke="black" points="412,-201.5 412,-220.5 581,-220.5 581,-201.5 412,-201.5"/>
<text text-anchor="middle" x="496.5" y="-208.5" font-family="Helvetica,sans-Serif" font-size="10.00">xalanc/Include/XalanVector.hpp</text>
</a>
</g>
</g>
<!-- Node11&#45;&gt;Node14 -->
<g id="edge18" class="edge">
<title>Node11&#45;&gt;Node14</title>
<path fill="none" stroke="midnightblue" d="M608.73,-262.98C586.65,-252.95 549.78,-236.2 524.36,-224.65"/>
<polygon fill="midnightblue" stroke="midnightblue" points="525.79,-221.46 515.23,-220.51 522.89,-227.83 525.79,-221.46"/>
</g>
<!-- Node11&#45;&gt;Node21 -->
<g id="edge32" class="edge">
<title>Node11&#45;&gt;Node21</title>
<path fill="none" stroke="midnightblue" d="M643.69,-262.98C662.4,-253.12 693.42,-236.79 715.3,-225.27"/>
<polygon fill="midnightblue" stroke="midnightblue" points="717.12,-228.27 724.34,-220.51 713.86,-222.07 717.12,-228.27"/>
</g>
<!-- Node14&#45;&gt;Node3 -->
<g id="edge19" class="edge">
<title>Node14&#45;&gt;Node3</title>
<path fill="none" stroke="midnightblue" d="M504.97,-201.31C522.9,-183.13 564.51,-142.08 582.5,-134 634.84,-110.48 780.63,-96.77 884.83,-89.71"/>
<polygon fill="midnightblue" stroke="midnightblue" points="885.35,-93.19 895.1,-89.03 884.89,-86.2 885.35,-93.19"/>
</g>
<!-- Node14&#45;&gt;Node8 -->
<g id="edge21" class="edge">
<title>Node14&#45;&gt;Node8</title>
<path fill="none" stroke="midnightblue" d="M553.24,-201.48C633.65,-189.39 778.93,-167.56 850.43,-156.82"/>
<polygon fill="midnightblue" stroke="midnightblue" points="851.06,-160.27 860.43,-155.32 850.02,-153.34 851.06,-160.27"/>
</g>
<!-- Node14&#45;&gt;Node12 -->
<g id="edge20" class="edge">
<title>Node14&#45;&gt;Node12</title>
<path fill="none" stroke="midnightblue" d="M418.44,-201.5C342.41,-192.54 236.19,-177.97 221.5,-165 203.65,-149.24 198.77,-120.95 197.6,-102.2"/>
<polygon fill="midnightblue" stroke="midnightblue" points="201.1,-102.07 197.27,-92.19 194.1,-102.3 201.1,-102.07"/>
</g>
<!-- Node15 -->
<g id="node15" class="node">
<title>Node15</title>
<g id="a_node15"><a xlink:title=" ">
<polygon fill="none" stroke="#bfbfbf" points="461.5,-73 461.5,-92 513.5,-92 513.5,-73 461.5,-73"/>
<text text-anchor="middle" x="487.5" y="-80" font-family="Helvetica,sans-Serif" font-size="10.00">cassert</text>
</a>
</g>
</g>
<!-- Node14&#45;&gt;Node15 -->
<g id="edge22" class="edge">
<title>Node14&#45;&gt;Node15</title>
<path fill="none" stroke="midnightblue" d="M495.88,-201.31C494.44,-180.99 490.81,-130.05 488.84,-102.28"/>
<polygon fill="midnightblue" stroke="midnightblue" points="492.32,-101.98 488.12,-92.26 485.34,-102.48 492.32,-101.98"/>
</g>
<!-- Node16 -->
<g id="node16" class="node">
<title>Node16</title>
<g id="a_node16"><a xlink:title=" ">
<polygon fill="none" stroke="#bfbfbf" points="532,-73 532,-92 569,-92 569,-73 532,-73"/>
<text text-anchor="middle" x="550.5" y="-80" font-family="Helvetica,sans-Serif" font-size="10.00">new</text>
</a>
</g>
</g>
<!-- Node14&#45;&gt;Node16 -->
<g id="edge23" class="edge">
<title>Node14&#45;&gt;Node16</title>
<path fill="none" stroke="midnightblue" d="M500.21,-201.31C508.96,-180.81 531.02,-129.15 542.8,-101.54"/>
<polygon fill="midnightblue" stroke="midnightblue" points="546.06,-102.83 546.76,-92.26 539.62,-100.08 546.06,-102.83"/>
</g>
<!-- Node17 -->
<g id="node17" class="node">
<title>Node17</title>
<g id="a_node17"><a xlink:title=" ">
<polygon fill="none" stroke="#bfbfbf" points="592,-140 592,-159 645,-159 645,-140 592,-140"/>
<text text-anchor="middle" x="618.5" y="-147" font-family="Helvetica,sans-Serif" font-size="10.00">iterator</text>
</a>
</g>
</g>
<!-- Node14&#45;&gt;Node17 -->
<g id="edge24" class="edge">
<title>Node14&#45;&gt;Node17</title>
<path fill="none" stroke="midnightblue" d="M513.98,-201.48C534.36,-191.53 568.28,-174.99 591.92,-163.46"/>
<polygon fill="midnightblue" stroke="midnightblue" points="593.6,-166.54 601.05,-159.01 590.53,-160.25 593.6,-166.54"/>
</g>
<!-- Node18 -->
<g id="node18" class="node">
<title>Node18</title>
<g id="a_node18"><a xlink:title=" ">
<polygon fill="none" stroke="#bfbfbf" points="663,-140 663,-159 728,-159 728,-140 663,-140"/>
<text text-anchor="middle" x="695.5" y="-147" font-family="Helvetica,sans-Serif" font-size="10.00">stdexcept</text>
</a>
</g>
</g>
<!-- Node14&#45;&gt;Node18 -->
<g id="edge25" class="edge">
<title>Node14&#45;&gt;Node18</title>
<path fill="none" stroke="midnightblue" d="M528.22,-201.44C560.04,-192.73 610.37,-178.61 653.5,-165 656.26,-164.13 659.11,-163.2 661.97,-162.25"/>
<polygon fill="midnightblue" stroke="midnightblue" points="663.23,-165.52 671.59,-159 660.99,-158.89 663.23,-165.52"/>
</g>
<!-- Node19 -->
<g id="node19" class="node">
<title>Node19</title>
<g id="a_node19"><a xlink:href="XalanMemoryManagement_8hpp.html" target="_top" xlink:title=" ">
<polygon fill="none" stroke="black" points="301.5,-134.5 301.5,-164.5 459.5,-164.5 459.5,-134.5 301.5,-134.5"/>
<text text-anchor="start" x="309.5" y="-152.5" font-family="Helvetica,sans-Serif" font-size="10.00">xalanc/Include/XalanMemory</text>
<text text-anchor="middle" x="380.5" y="-141.5" font-family="Helvetica,sans-Serif" font-size="10.00">Management.hpp</text>
</a>
</g>
</g>
<!-- Node14&#45;&gt;Node19 -->
<g id="edge26" class="edge">
<title>Node14&#45;&gt;Node19</title>
<path fill="none" stroke="midnightblue" d="M479.88,-201.48C463.51,-193.08 437.96,-179.97 416.87,-169.15"/>
<polygon fill="midnightblue" stroke="midnightblue" points="418.33,-165.97 407.84,-164.52 415.14,-172.2 418.33,-165.97"/>
</g>
<!-- Node19&#45;&gt;Node3 -->
<g id="edge27" class="edge">
<title>Node19&#45;&gt;Node3</title>
<path fill="none" stroke="midnightblue" d="M459.71,-140.17C574.39,-128.11 786.15,-105.83 907.23,-93.1"/>
<polygon fill="midnightblue" stroke="midnightblue" points="907.64,-96.58 917.22,-92.05 906.91,-89.61 907.64,-96.58"/>
</g>
<!-- Node19&#45;&gt;Node12 -->
<g id="edge29" class="edge">
<title>Node19&#45;&gt;Node12</title>
<path fill="none" stroke="midnightblue" d="M340.79,-134.4C307.97,-122.74 261.9,-106.37 230.94,-95.38"/>
<polygon fill="midnightblue" stroke="midnightblue" points="232.05,-92.06 221.45,-92.01 229.7,-98.65 232.05,-92.06"/>
</g>
<!-- Node19&#45;&gt;Node15 -->
<g id="edge28" class="edge">
<title>Node19&#45;&gt;Node15</title>
<path fill="none" stroke="midnightblue" d="M403.72,-134.4C421.83,-123.39 446.84,-108.2 464.81,-97.28"/>
<polygon fill="midnightblue" stroke="midnightblue" points="466.77,-100.19 473.5,-92.01 463.13,-94.21 466.77,-100.19"/>
</g>
<!-- Node19&#45;&gt;Node16 -->
<g id="edge30" class="edge">
<title>Node19&#45;&gt;Node16</title>
<path fill="none" stroke="midnightblue" d="M424.92,-134.44C453.22,-125.05 490.46,-111.92 522.5,-98 523.53,-97.55 524.57,-97.08 525.62,-96.6"/>
<polygon fill="midnightblue" stroke="midnightblue" points="527.55,-99.56 534.98,-92.01 524.46,-93.27 527.55,-99.56"/>
</g>
<!-- Node20 -->
<g id="node20" class="node">
<title>Node20</title>
<g id="a_node20"><a xlink:title=" ">
<polygon fill="none" stroke="#bfbfbf" points="290,-67.5 290,-97.5 443,-97.5 443,-67.5 290,-67.5"/>
<text text-anchor="start" x="298" y="-85.5" font-family="Helvetica,sans-Serif" font-size="10.00">xercesc/framework/Memory</text>
<text text-anchor="middle" x="366.5" y="-74.5" font-family="Helvetica,sans-Serif" font-size="10.00">Manager.hpp</text>
</a>
</g>
</g>
<!-- Node19&#45;&gt;Node20 -->
<g id="edge31" class="edge">
<title>Node19&#45;&gt;Node20</title>
<path fill="none" stroke="midnightblue" d="M377.46,-134.4C375.77,-126.56 373.63,-116.6 371.68,-107.57"/>
<polygon fill="midnightblue" stroke="midnightblue" points="375.06,-106.62 369.53,-97.58 368.22,-108.09 375.06,-106.62"/>
</g>
<!-- Node21&#45;&gt;Node3 -->
<g id="edge33" class="edge">
<title>Node21&#45;&gt;Node3</title>
<path fill="none" stroke="midnightblue" d="M750.92,-201.42C769.91,-186.14 811.85,-153.92 851.5,-134 885.19,-117.07 925.88,-103.58 955.91,-94.82"/>
<polygon fill="midnightblue" stroke="midnightblue" points="957.01,-98.14 965.66,-92.03 955.08,-91.41 957.01,-98.14"/>
</g>
<!-- Node21&#45;&gt;Node8 -->
<g id="edge35" class="edge">
<title>Node21&#45;&gt;Node8</title>
<path fill="none" stroke="midnightblue" d="M762.28,-201.48C788.24,-191.31 831.81,-174.26 861.33,-162.7"/>
<polygon fill="midnightblue" stroke="midnightblue" points="862.73,-165.91 870.76,-159.01 860.17,-159.4 862.73,-165.91"/>
</g>
<!-- Node21&#45;&gt;Node12 -->
<g id="edge34" class="edge">
<title>Node21&#45;&gt;Node12</title>
<path fill="none" stroke="midnightblue" d="M662.29,-201.99C658.98,-201.66 655.71,-201.32 652.5,-201 492.52,-184.82 440.33,-228.26 292.5,-165 258.39,-150.4 227.52,-119.03 210.74,-99.74"/>
<polygon fill="midnightblue" stroke="midnightblue" points="213.39,-97.45 204.26,-92.07 208.04,-101.97 213.39,-97.45"/>
</g>
<!-- Node21&#45;&gt;Node15 -->
<g id="edge36" class="edge">
<title>Node21&#45;&gt;Node15</title>
<path fill="none" stroke="midnightblue" d="M743.11,-201.43C747.26,-185.87 753.3,-152.83 736.5,-134 704.4,-98.01 568.85,-111.31 522.5,-98 520.21,-97.34 517.86,-96.58 515.52,-95.75"/>
<polygon fill="midnightblue" stroke="midnightblue" points="516.7,-92.46 506.11,-92.12 514.18,-98.99 516.7,-92.46"/>
</g>
<!-- Node21&#45;&gt;Node16 -->
<g id="edge37" class="edge">
<title>Node21&#45;&gt;Node16</title>
<path fill="none" stroke="midnightblue" d="M749.24,-201.18C763.15,-186.07 787.11,-154.86 770.5,-134 746.87,-104.33 633.17,-90.65 579.13,-85.75"/>
<polygon fill="midnightblue" stroke="midnightblue" points="579.43,-82.26 569.17,-84.88 578.83,-89.24 579.43,-82.26"/>
</g>
<!-- Node21&#45;&gt;Node17 -->
<g id="edge38" class="edge">
<title>Node21&#45;&gt;Node17</title>
<path fill="none" stroke="midnightblue" d="M723.02,-201.48C702.64,-191.53 668.72,-174.99 645.08,-163.46"/>
<polygon fill="midnightblue" stroke="midnightblue" points="646.47,-160.25 635.95,-159.01 643.4,-166.54 646.47,-160.25"/>
</g>
<!-- Node21&#45;&gt;Node18 -->
<g id="edge39" class="edge">
<title>Node21&#45;&gt;Node18</title>
<path fill="none" stroke="midnightblue" d="M734.05,-201.48C727.3,-192.55 716.53,-178.31 708.09,-167.14"/>
<polygon fill="midnightblue" stroke="midnightblue" points="710.76,-164.87 701.94,-159.01 705.18,-169.1 710.76,-164.87"/>
</g>
<!-- Node21&#45;&gt;Node19 -->
<g id="edge40" class="edge">
<title>Node21&#45;&gt;Node19</title>
<path fill="none" stroke="midnightblue" d="M688.92,-201.48C631.75,-192.03 538.53,-176.62 469.51,-165.21"/>
<polygon fill="midnightblue" stroke="midnightblue" points="469.95,-161.74 459.51,-163.56 468.81,-168.64 469.95,-161.74"/>
</g>
<!-- Node23 -->
<g id="node23" class="node">
<title>Node23</title>
<g id="a_node23"><a xlink:href="ArenaBlockBase_8hpp.html" target="_top" xlink:title=" ">
<polygon fill="none" stroke="black" points="159,-257.5 159,-287.5 290,-287.5 290,-257.5 159,-257.5"/>
<text text-anchor="start" x="167" y="-275.5" font-family="Helvetica,sans-Serif" font-size="10.00">xalanc/PlatformSupport</text>
<text text-anchor="middle" x="224.5" y="-264.5" font-family="Helvetica,sans-Serif" font-size="10.00">/ArenaBlockBase.hpp</text>
</a>
</g>
</g>
<!-- Node22&#45;&gt;Node23 -->
<g id="edge43" class="edge">
<title>Node22&#45;&gt;Node23</title>
<path fill="none" stroke="midnightblue" d="M366.72,-324.48C342.45,-315.78 304.09,-302.03 273.32,-291"/>
<polygon fill="midnightblue" stroke="midnightblue" points="274.22,-287.6 263.62,-287.52 271.86,-294.19 274.22,-287.6"/>
</g>
<!-- Node23&#45;&gt;Node10 -->
<g id="edge45" class="edge">
<title>Node23&#45;&gt;Node10</title>
<path fill="none" stroke="midnightblue" d="M247.96,-257.4C263.83,-247.86 284.69,-235.32 300.47,-225.84"/>
<polygon fill="midnightblue" stroke="midnightblue" points="302.33,-228.81 309.09,-220.66 298.72,-222.81 302.33,-228.81"/>
</g>
<!-- Node23&#45;&gt;Node15 -->
<g id="edge44" class="edge">
<title>Node23&#45;&gt;Node15</title>
<path fill="none" stroke="midnightblue" d="M223.64,-257.33C223.3,-242.6 224.33,-219.21 232.5,-201 248.86,-164.53 258.04,-154.26 292.5,-134 354.96,-97.27 382.34,-119.6 451.5,-98 453.78,-97.29 456.12,-96.5 458.45,-95.66"/>
<polygon fill="midnightblue" stroke="midnightblue" points="459.8,-98.89 467.9,-92.06 457.31,-92.35 459.8,-98.89"/>
</g>
<!-- Node23&#45;&gt;Node19 -->
<g id="edge46" class="edge">
<title>Node23&#45;&gt;Node19</title>
<path fill="none" stroke="midnightblue" d="M225.79,-257.22C227.94,-241.51 233.61,-216.46 248.5,-201 262.91,-186.04 282.22,-175.46 301.62,-167.98"/>
<polygon fill="midnightblue" stroke="midnightblue" points="302.91,-171.24 311.13,-164.56 300.53,-164.65 302.91,-171.24"/>
</g>
<!-- Node24 -->
<g id="node24" class="node">
<title>Node24</title>
<g id="a_node24"><a xlink:href="XalanAllocator_8hpp.html" target="_top" xlink:title=" ">
<polygon fill="none" stroke="black" points="0,-134.5 0,-164.5 131,-164.5 131,-134.5 0,-134.5"/>
<text text-anchor="start" x="8" y="-152.5" font-family="Helvetica,sans-Serif" font-size="10.00">xalanc/PlatformSupport</text>
<text text-anchor="middle" x="65.5" y="-141.5" font-family="Helvetica,sans-Serif" font-size="10.00">/XalanAllocator.hpp</text>
</a>
</g>
</g>
<!-- Node23&#45;&gt;Node24 -->
<g id="edge47" class="edge">
<title>Node23&#45;&gt;Node24</title>
<path fill="none" stroke="midnightblue" d="M205.95,-257.38C177.83,-235.98 124.27,-195.22 92.03,-170.69"/>
<polygon fill="midnightblue" stroke="midnightblue" points="94.01,-167.8 83.93,-164.53 89.77,-173.37 94.01,-167.8"/>
</g>
<!-- Node24&#45;&gt;Node12 -->
<g id="edge48" class="edge">
<title>Node24&#45;&gt;Node12</title>
<path fill="none" stroke="midnightblue" d="M94.14,-134.4C117,-123.14 148.76,-107.5 171.02,-96.54"/>
<polygon fill="midnightblue" stroke="midnightblue" points="172.8,-99.56 180.22,-92.01 169.71,-93.28 172.8,-99.56"/>
</g>
<!-- Node25&#45;&gt;Node2 -->
<g id="edge50" class="edge">
<title>Node25&#45;&gt;Node2</title>
<path fill="none" stroke="midnightblue" d="M1467.06,-514.35C1485.59,-504.99 1509.65,-491.9 1529.5,-478 1555.81,-459.58 1583.14,-434.85 1601.3,-417.48"/>
<polygon fill="midnightblue" stroke="midnightblue" points="1603.74,-419.99 1608.5,-410.52 1598.87,-414.96 1603.74,-419.99"/>
</g>
<!-- Node26 -->
<g id="node26" class="node">
<title>Node26</title>
<g id="a_node26"><a xlink:href="XalanEmptyNamedNodeMap_8hpp.html" target="_top" xlink:title=" ">
<polygon fill="none" stroke="black" points="1354.5,-447.5 1354.5,-477.5 1520.5,-477.5 1520.5,-447.5 1354.5,-447.5"/>
<text text-anchor="start" x="1362.5" y="-465.5" font-family="Helvetica,sans-Serif" font-size="10.00">xalanc/XalanDOM/XalanEmpty</text>
<text text-anchor="middle" x="1437.5" y="-454.5" font-family="Helvetica,sans-Serif" font-size="10.00">NamedNodeMap.hpp</text>
</a>
</g>
</g>
<!-- Node25&#45;&gt;Node26 -->
<g id="edge51" class="edge">
<title>Node25&#45;&gt;Node26</title>
<path fill="none" stroke="midnightblue" d="M1437.5,-514.4C1437.5,-506.64 1437.5,-496.81 1437.5,-487.86"/>
<polygon fill="midnightblue" stroke="midnightblue" points="1441,-487.58 1437.5,-477.58 1434,-487.58 1441,-487.58"/>
</g>
<!-- Node29 -->
<g id="node29" class="node">
<title>Node29</title>
<g id="a_node29"><a xlink:href="XalanSourceTreeElement_8hpp.html" target="_top" xlink:title=" ">
<polygon fill="none" stroke="black" points="1174.5,-447.5 1174.5,-477.5 1336.5,-477.5 1336.5,-447.5 1174.5,-447.5"/>
<text text-anchor="start" x="1182.5" y="-465.5" font-family="Helvetica,sans-Serif" font-size="10.00">xalanc/XalanSourceTree</text>
<text text-anchor="middle" x="1255.5" y="-454.5" font-family="Helvetica,sans-Serif" font-size="10.00">/XalanSourceTreeElement.hpp</text>
</a>
</g>
</g>
<!-- Node25&#45;&gt;Node29 -->
<g id="edge55" class="edge">
<title>Node25&#45;&gt;Node29</title>
<path fill="none" stroke="midnightblue" d="M1398.01,-514.4C1370.58,-504.6 1333.85,-491.48 1304.54,-481.02"/>
<polygon fill="midnightblue" stroke="midnightblue" points="1305.51,-477.64 1294.91,-477.58 1303.15,-484.24 1305.51,-477.64"/>
</g>
<!-- Node27 -->
<g id="node27" class="node">
<title>Node27</title>
<g id="a_node27"><a xlink:href="XalanNamedNodeMap_8hpp.html" target="_top" xlink:title=" ">
<polygon fill="none" stroke="black" points="1347.5,-380.5 1347.5,-410.5 1517.5,-410.5 1517.5,-380.5 1347.5,-380.5"/>
<text text-anchor="start" x="1355.5" y="-398.5" font-family="Helvetica,sans-Serif" font-size="10.00">xalanc/XalanDOM/XalanNamed</text>
<text text-anchor="middle" x="1432.5" y="-387.5" font-family="Helvetica,sans-Serif" font-size="10.00">NodeMap.hpp</text>
</a>
</g>
</g>
<!-- Node26&#45;&gt;Node27 -->
<g id="edge52" class="edge">
<title>Node26&#45;&gt;Node27</title>
<path fill="none" stroke="midnightblue" d="M1436.42,-447.4C1435.81,-439.56 1435.05,-429.6 1434.35,-420.57"/>
<polygon fill="midnightblue" stroke="midnightblue" points="1437.84,-420.28 1433.58,-410.58 1430.86,-420.82 1437.84,-420.28"/>
</g>
<!-- Node28 -->
<g id="node28" class="node">
<title>Node28</title>
<g id="a_node28"><a xlink:href="XalanDOMDefinitions_8hpp.html" target="_top" xlink:title=" ">
<polygon fill="none" stroke="black" points="1147.5,-263 1147.5,-282 1379.5,-282 1379.5,-263 1147.5,-263"/>
<text text-anchor="middle" x="1263.5" y="-270" font-family="Helvetica,sans-Serif" font-size="10.00">xalanc/XalanDOM/XalanDOMDefinitions.hpp</text>
</a>
</g>
</g>
<!-- Node27&#45;&gt;Node28 -->
<g id="edge53" class="edge">
<title>Node27&#45;&gt;Node28</title>
<path fill="none" stroke="midnightblue" d="M1463.07,-380.4C1488.64,-366.68 1518.42,-344.89 1501.5,-324 1484.76,-303.34 1426.91,-290.78 1372.44,-283.36"/>
<polygon fill="midnightblue" stroke="midnightblue" points="1372.69,-279.86 1362.32,-282.03 1371.78,-286.8 1372.69,-279.86"/>
</g>
<!-- Node28&#45;&gt;Node3 -->
<g id="edge54" class="edge">
<title>Node28&#45;&gt;Node3</title>
<path fill="none" stroke="midnightblue" d="M1251.42,-262.93C1209.69,-233.33 1071.25,-135.11 1018.84,-97.93"/>
<polygon fill="midnightblue" stroke="midnightblue" points="1020.83,-95.05 1010.65,-92.12 1016.78,-100.76 1020.83,-95.05"/>
</g>
<!-- Node29&#45;&gt;Node2 -->
<g id="edge56" class="edge">
<title>Node29&#45;&gt;Node2</title>
<path fill="none" stroke="midnightblue" d="M1334.68,-447.48C1393.07,-437.14 1472.55,-423.06 1533.2,-412.32"/>
<polygon fill="midnightblue" stroke="midnightblue" points="1533.91,-415.75 1543.14,-410.55 1532.69,-408.85 1533.91,-415.75"/>
</g>
<!-- Node29&#45;&gt;Node27 -->
<g id="edge69" class="edge">
<title>Node29&#45;&gt;Node27</title>
<path fill="none" stroke="midnightblue" d="M1293.91,-447.4C1320.46,-437.64 1356,-424.59 1384.43,-414.15"/>
<polygon fill="midnightblue" stroke="midnightblue" points="1385.99,-417.31 1394.17,-410.58 1383.57,-410.74 1385.99,-417.31"/>
</g>
<!-- Node30 -->
<g id="node30" class="node">
<title>Node30</title>
<g id="a_node30"><a xlink:href="XalanDOMString_8hpp.html" target="_top" xlink:title=" ">
<polygon fill="none" stroke="black" points="856.5,-386 856.5,-405 1064.5,-405 1064.5,-386 856.5,-386"/>
<text text-anchor="middle" x="960.5" y="-393" font-family="Helvetica,sans-Serif" font-size="10.00">xalanc/XalanDOM/XalanDOMString.hpp</text>
</a>
</g>
</g>
<!-- Node29&#45;&gt;Node30 -->
<g id="edge57" class="edge">
<title>Node29&#45;&gt;Node30</title>
<path fill="none" stroke="midnightblue" d="M1191.85,-447.48C1137.02,-435.4 1059.05,-418.21 1009.11,-407.21"/>
<polygon fill="midnightblue" stroke="midnightblue" points="1009.73,-403.76 999.21,-405.03 1008.22,-410.6 1009.73,-403.76"/>
</g>
<!-- Node32 -->
<g id="node32" class="node">
<title>Node32</title>
<g id="a_node32"><a xlink:href="XalanElement_8hpp.html" target="_top" xlink:title=" ">
<polygon fill="none" stroke="black" points="1133.5,-386 1133.5,-405 1329.5,-405 1329.5,-386 1133.5,-386"/>
<text text-anchor="middle" x="1231.5" y="-393" font-family="Helvetica,sans-Serif" font-size="10.00">xalanc/XalanDOM/XalanElement.hpp</text>
</a>
</g>
</g>
<!-- Node29&#45;&gt;Node32 -->
<g id="edge65" class="edge">
<title>Node29&#45;&gt;Node32</title>
<path fill="none" stroke="midnightblue" d="M1250.29,-447.4C1246.77,-437.86 1242.09,-425.18 1238.28,-414.86"/>
<polygon fill="midnightblue" stroke="midnightblue" points="1241.46,-413.36 1234.71,-405.19 1234.89,-415.79 1241.46,-413.36"/>
</g>
<!-- Node30&#45;&gt;Node9 -->
<g id="edge60" class="edge">
<title>Node30&#45;&gt;Node9</title>
<path fill="none" stroke="midnightblue" d="M945.03,-385.98C927.22,-376.17 897.76,-359.93 876.87,-348.42"/>
<polygon fill="midnightblue" stroke="midnightblue" points="878.39,-345.27 867.95,-343.51 875.01,-351.4 878.39,-345.27"/>
</g>
<!-- Node30&#45;&gt;Node14 -->
<g id="edge62" class="edge">
<title>Node30&#45;&gt;Node14</title>
<path fill="none" stroke="midnightblue" d="M927.13,-386C874.95,-372.71 770.86,-346.25 682.5,-324 618.53,-307.89 590.8,-328.21 538.5,-288 519.5,-273.39 507.9,-247.61 501.84,-230.17"/>
<polygon fill="midnightblue" stroke="midnightblue" points="505.14,-229.02 498.76,-220.57 498.48,-231.16 505.14,-229.02"/>
</g>
<!-- Node30&#45;&gt;Node15 -->
<g id="edge59" class="edge">
<title>Node30&#45;&gt;Node15</title>
<path fill="none" stroke="midnightblue" d="M960.5,-385.99C960.5,-366.24 960.5,-315.72 960.5,-273.5 960.5,-273.5 960.5,-273.5 960.5,-210 960.5,-174.15 961.85,-155.93 933.5,-134 860.98,-77.9 611.55,-119.8 522.5,-98 519.98,-97.38 517.41,-96.61 514.87,-95.75"/>
<polygon fill="midnightblue" stroke="midnightblue" points="515.9,-92.4 505.31,-92.11 513.41,-98.94 515.9,-92.4"/>
</g>
<!-- Node30&#45;&gt;Node19 -->
<g id="edge61" class="edge">
<title>Node30&#45;&gt;Node19</title>
<path fill="none" stroke="midnightblue" d="M869.48,-385.97C699.79,-367.86 346.36,-318.96 281.5,-221 266.31,-198.06 292.28,-180.2 321.41,-168.2"/>
<polygon fill="midnightblue" stroke="midnightblue" points="322.88,-171.38 330.94,-164.5 320.35,-164.85 322.88,-171.38"/>
</g>
<!-- Node30&#45;&gt;Node28 -->
<g id="edge58" class="edge">
<title>Node30&#45;&gt;Node28</title>
<path fill="none" stroke="midnightblue" d="M1047.94,-385.98C1113.91,-378.07 1197.64,-364.42 1225.5,-344 1242.81,-331.31 1253.06,-308.29 1258.47,-292.01"/>
<polygon fill="midnightblue" stroke="midnightblue" points="1261.95,-292.61 1261.47,-282.03 1255.24,-290.6 1261.95,-292.61"/>
</g>
<!-- Node31 -->
<g id="node31" class="node">
<title>Node31</title>
<g id="a_node31"><a xlink:href="XalanDOMException_8hpp.html" target="_top" xlink:title=" ">
<polygon fill="none" stroke="black" points="989,-324.5 989,-343.5 1216,-343.5 1216,-324.5 989,-324.5"/>
<text text-anchor="middle" x="1102.5" y="-331.5" font-family="Helvetica,sans-Serif" font-size="10.00">xalanc/XalanDOM/XalanDOMException.hpp</text>
</a>
</g>
</g>
<!-- Node30&#45;&gt;Node31 -->
<g id="edge63" class="edge">
<title>Node30&#45;&gt;Node31</title>
<path fill="none" stroke="midnightblue" d="M980.85,-385.98C1004.89,-375.9 1045.1,-359.05 1072.66,-347.5"/>
<polygon fill="midnightblue" stroke="midnightblue" points="1074.32,-350.6 1082.19,-343.51 1071.62,-344.15 1074.32,-350.6"/>
</g>
<!-- Node31&#45;&gt;Node28 -->
<g id="edge64" class="edge">
<title>Node31&#45;&gt;Node28</title>
<path fill="none" stroke="midnightblue" d="M1125.57,-324.48C1153.18,-314.27 1199.62,-297.11 1230.9,-285.55"/>
<polygon fill="midnightblue" stroke="midnightblue" points="1232.31,-288.76 1240.48,-282.01 1229.88,-282.19 1232.31,-288.76"/>
</g>
<!-- Node32&#45;&gt;Node28 -->
<g id="edge66" class="edge">
<title>Node32&#45;&gt;Node28</title>
<path fill="none" stroke="midnightblue" d="M1237.7,-385.69C1244.17,-375.98 1253.98,-359.67 1258.5,-344 1263.38,-327.07 1264.36,-306.95 1264.28,-292.54"/>
<polygon fill="midnightblue" stroke="midnightblue" points="1267.78,-292.3 1264.04,-282.39 1260.78,-292.47 1267.78,-292.3"/>
</g>
<!-- Node33 -->
<g id="node33" class="node">
<title>Node33</title>
<g id="a_node33"><a xlink:href="XalanNode_8hpp.html" target="_top" xlink:title=" ">
<polygon fill="none" stroke="black" points="1311,-324.5 1311,-343.5 1492,-343.5 1492,-324.5 1311,-324.5"/>
<text text-anchor="middle" x="1401.5" y="-331.5" font-family="Helvetica,sans-Serif" font-size="10.00">xalanc/XalanDOM/XalanNode.hpp</text>
</a>
</g>
</g>
<!-- Node32&#45;&gt;Node33 -->
<g id="edge67" class="edge">
<title>Node32&#45;&gt;Node33</title>
<path fill="none" stroke="midnightblue" d="M1255.86,-385.98C1285.14,-375.72 1334.47,-358.46 1367.5,-346.9"/>
<polygon fill="midnightblue" stroke="midnightblue" points="1368.91,-350.12 1377.19,-343.51 1366.59,-343.51 1368.91,-350.12"/>
</g>
<!-- Node33&#45;&gt;Node28 -->
<g id="edge68" class="edge">
<title>Node33&#45;&gt;Node28</title>
<path fill="none" stroke="midnightblue" d="M1381.73,-324.48C1358.36,-314.4 1319.29,-297.55 1292.5,-286"/>
<polygon fill="midnightblue" stroke="midnightblue" points="1293.8,-282.75 1283.24,-282.01 1291.03,-289.18 1293.8,-282.75"/>
</g>
</g>
</svg>
        <g id="navigator" transform="translate(0 0)" fill="#404254">
                <rect fill="#f2f5e9" fill-opacity="0.5" stroke="#606060" stroke-width=".5" x="0" y="0" width="60" height="60"/>
                <use id="zoomplus" xlink:href="#zoomPlus" x="17" y="9" onmousedown="handleZoom(evt,'in')"/>
                <use id="zoomminus" xlink:href="#zoomMin" x="42" y="9" onmousedown="handleZoom(evt,'out')"/>
                <use id="reset" xlink:href="#resetDef" x="30" y="36" onmousedown="handleReset()"/>
                <g id="arrowUp" xlink:href="#dirArrow" transform="translate(30 24)" onmousedown="handlePan(0,-1)">
                  <use xlink:href="#rim" fill="#404040">
                        <set attributeName="fill" to="#808080" begin="arrowUp.mouseover" end="arrowUp.mouseout"/>
                  </use>
                  <path fill="none" stroke="white" stroke-width="1.5" d="M0,-3.0v7 M-2.5,-0.5L0,-3.0L2.5,-0.5"/>
                </g>
                <g id="arrowRight" xlink:href="#dirArrow" transform="rotate(90) translate(36 -43)" onmousedown="handlePan(1,0)">
                  <use xlink:href="#rim" fill="#404040">
                        <set attributeName="fill" to="#808080" begin="arrowRight.mouseover" end="arrowRight.mouseout"/>
                  </use>
                  <path fill="none" stroke="white" stroke-width="1.5" d="M0,-3.0v7 M-2.5,-0.5L0,-3.0L2.5,-0.5"/>
                </g>
                <g id="arrowDown" xlink:href="#dirArrow" transform="rotate(180) translate(-30 -48)" onmousedown="handlePan(0,1)">
                  <use xlink:href="#rim" fill="#404040">
                        <set attributeName="fill" to="#808080" begin="arrowDown.mouseover" end="arrowDown.mouseout"/>
                  </use>
                  <path fill="none" stroke="white" stroke-width="1.5" d="M0,-3.0v7 M-2.5,-0.5L0,-3.0L2.5,-0.5"/>
                </g>
                <g id="arrowLeft" xlink:href="#dirArrow" transform="rotate(270) translate(-36 17)" onmousedown="handlePan(-1,0)">
                  <use xlink:href="#rim" fill="#404040">
                        <set attributeName="fill" to="#808080" begin="arrowLeft.mouseover" end="arrowLeft.mouseout"/>
                  </use>
                  <path fill="none" stroke="white" stroke-width="1.5" d="M0,-3.0v7 M-2.5,-0.5L0,-3.0L2.5,-0.5"/>
                </g>
        </g>
        <svg viewBox="0 0 15 15" width="100%" height="30px" preserveAspectRatio="xMaxYMin meet">
         <g id="arrow_out" transform="scale(0.3 0.3)">
          <a xlink:href="XalanSourceTreeElementNAAllocator_8hpp__incl_org.svg" target="_base">
           <rect id="button" ry="5" rx="5" y="6" x="6" height="38" width="38"
                fill="#f2f5e9" fill-opacity="0.5" stroke="#606060" stroke-width="1.0"/>
           <path id="arrow"
             d="M 11.500037,31.436501 C 11.940474,20.09759 22.043105,11.32322 32.158766,21.979434 L 37.068811,17.246167 C 37.068811,17.246167 37.088388,32 37.088388,32 L 22.160133,31.978069 C 22.160133,31.978069 26.997745,27.140456 26.997745,27.140456 C 18.528582,18.264221 13.291696,25.230495 11.500037,31.436501 z"
             style="fill:#404040;"/>
          </a>
         </g>
        </svg>
</svg>
