<?xml version="1.0" encoding="UTF-8" standalone="no"?>
<!DOCTYPE svg PUBLIC "-//W3C//DTD SVG 1.1//EN"
 "http://www.w3.org/Graphics/SVG/1.1/DTD/svg11.dtd">
<!-- Generated by graphviz version 2.43.0 (0)
 -->
<!-- Title: xalanc/PlatformSupport/XalanStdOutputStream.hpp Pages: 1 -->
<svg width="1504pt" height="810pt"
 viewBox="0.00 0.00 1504.00 810.00" xmlns="http://www.w3.org/2000/svg" xmlns:xlink="http://www.w3.org/1999/xlink">
<g id="graph0" class="graph" transform="scale(1 1) rotate(0) translate(4 806)">
<title>xalanc/PlatformSupport/XalanStdOutputStream.hpp</title>
<!-- Node1 -->
<g id="node1" class="node">
<title>Node1</title>
<g id="a_node1"><a xlink:title=" ">
<polygon fill="#bfbfbf" stroke="black" points="24,-771.5 24,-801.5 176,-801.5 176,-771.5 24,-771.5"/>
<text text-anchor="start" x="32" y="-789.5" font-family="Helvetica,sans-Serif" font-size="10.00">xalanc/PlatformSupport</text>
<text text-anchor="middle" x="100" y="-778.5" font-family="Helvetica,sans-Serif" font-size="10.00">/XalanStdOutputStream.hpp</text>
</a>
</g>
</g>
<!-- Node2 -->
<g id="node2" class="node">
<title>Node2</title>
<g id="a_node2"><a xlink:href="PlatformSupportDefinitions_8hpp.html" target="_top" xlink:title=" ">
<polygon fill="none" stroke="black" points="211.5,-369.5 211.5,-399.5 384.5,-399.5 384.5,-369.5 211.5,-369.5"/>
<text text-anchor="start" x="219.5" y="-387.5" font-family="Helvetica,sans-Serif" font-size="10.00">xalanc/PlatformSupport</text>
<text text-anchor="middle" x="298" y="-376.5" font-family="Helvetica,sans-Serif" font-size="10.00">/PlatformSupportDefinitions.hpp</text>
</a>
</g>
</g>
<!-- Node1&#45;&gt;Node2 -->
<g id="edge1" class="edge">
<title>Node1&#45;&gt;Node2</title>
<path fill="none" stroke="midnightblue" d="M78.79,-771.19C49.44,-749.49 0,-705.25 0,-653.5 0,-653.5 0,-653.5 0,-517.5 0,-427.83 114.2,-398.59 201.21,-389.33"/>
<polygon fill="midnightblue" stroke="midnightblue" points="201.8,-392.79 211.41,-388.32 201.11,-385.83 201.8,-392.79"/>
</g>
<!-- Node7 -->
<g id="node7" class="node">
<title>Node7</title>
<g id="a_node7"><a xlink:title=" ">
<polygon fill="none" stroke="#bfbfbf" points="332,-442 332,-461 380,-461 380,-442 332,-442"/>
<text text-anchor="middle" x="356" y="-449" font-family="Helvetica,sans-Serif" font-size="10.00">iosfwd</text>
</a>
</g>
</g>
<!-- Node1&#45;&gt;Node7 -->
<g id="edge6" class="edge">
<title>Node1&#45;&gt;Node7</title>
<path fill="none" stroke="midnightblue" d="M97.24,-771.38C90.6,-732.77 78.21,-624.69 135,-570 183.76,-523.04 224.92,-568.77 283,-534 310.05,-517.81 332.71,-488.36 345.3,-469.64"/>
<polygon fill="midnightblue" stroke="midnightblue" points="348.28,-471.49 350.79,-461.19 342.41,-467.67 348.28,-471.49"/>
</g>
<!-- Node8 -->
<g id="node8" class="node">
<title>Node8</title>
<g id="a_node8"><a xlink:title=" ">
<polygon fill="none" stroke="#bfbfbf" points="106.5,-710 106.5,-729 137.5,-729 137.5,-710 106.5,-710"/>
<text text-anchor="middle" x="122" y="-717" font-family="Helvetica,sans-Serif" font-size="10.00">ios</text>
</a>
</g>
</g>
<!-- Node1&#45;&gt;Node8 -->
<g id="edge7" class="edge">
<title>Node1&#45;&gt;Node8</title>
<path fill="none" stroke="midnightblue" d="M104.77,-771.4C108,-761.86 112.29,-749.18 115.79,-738.86"/>
<polygon fill="midnightblue" stroke="midnightblue" points="119.17,-739.79 119.06,-729.19 112.54,-737.54 119.17,-739.79"/>
</g>
<!-- Node9 -->
<g id="node9" class="node">
<title>Node9</title>
<g id="a_node9"><a xlink:href="XalanOutputStream_8hpp.html" target="_top" xlink:title=" ">
<polygon fill="none" stroke="black" points="203.5,-704.5 203.5,-734.5 340.5,-734.5 340.5,-704.5 203.5,-704.5"/>
<text text-anchor="start" x="211.5" y="-722.5" font-family="Helvetica,sans-Serif" font-size="10.00">xalanc/PlatformSupport</text>
<text text-anchor="middle" x="272" y="-711.5" font-family="Helvetica,sans-Serif" font-size="10.00">/XalanOutputStream.hpp</text>
</a>
</g>
</g>
<!-- Node1&#45;&gt;Node9 -->
<g id="edge8" class="edge">
<title>Node1&#45;&gt;Node9</title>
<path fill="none" stroke="midnightblue" d="M137.32,-771.4C163.13,-761.64 197.66,-748.59 225.29,-738.15"/>
<polygon fill="midnightblue" stroke="midnightblue" points="226.63,-741.39 234.75,-734.58 224.16,-734.84 226.63,-741.39"/>
</g>
<!-- Node3 -->
<g id="node3" class="node">
<title>Node3</title>
<g id="a_node3"><a xlink:href="PlatformDefinitions_8hpp.html" target="_top" xlink:title=" ">
<polygon fill="none" stroke="black" points="520,-73 520,-92 726,-92 726,-73 520,-73"/>
<text text-anchor="middle" x="623" y="-80" font-family="Helvetica,sans-Serif" font-size="10.00">xalanc/Include/PlatformDefinitions.hpp</text>
</a>
</g>
</g>
<!-- Node2&#45;&gt;Node3 -->
<g id="edge2" class="edge">
<title>Node2&#45;&gt;Node3</title>
<path fill="none" stroke="midnightblue" d="M277.38,-369.32C251.66,-349.77 211,-311.93 211,-268 211,-268 211,-268 211,-210 211,-143.77 408.01,-108.65 529.56,-93.28"/>
<polygon fill="midnightblue" stroke="midnightblue" points="530.13,-96.74 539.63,-92.03 529.27,-89.79 530.13,-96.74"/>
</g>
<!-- Node4 -->
<g id="node4" class="node">
<title>Node4</title>
<g id="a_node4"><a xlink:title=" ">
<polygon fill="none" stroke="#bfbfbf" points="402,-0.5 402,-30.5 522,-30.5 522,-0.5 402,-0.5"/>
<text text-anchor="start" x="410" y="-18.5" font-family="Helvetica,sans-Serif" font-size="10.00">xercesc/util/Xerces</text>
<text text-anchor="middle" x="462" y="-7.5" font-family="Helvetica,sans-Serif" font-size="10.00">_autoconf_config.hpp</text>
</a>
</g>
</g>
<!-- Node3&#45;&gt;Node4 -->
<g id="edge3" class="edge">
<title>Node3&#45;&gt;Node4</title>
<path fill="none" stroke="midnightblue" d="M601.62,-72.87C577.36,-63.07 537.12,-46.83 506.06,-34.29"/>
<polygon fill="midnightblue" stroke="midnightblue" points="507.33,-31.03 496.75,-30.53 504.71,-37.52 507.33,-31.03"/>
</g>
<!-- Node5 -->
<g id="node5" class="node">
<title>Node5</title>
<g id="a_node5"><a xlink:title=" ">
<polygon fill="none" stroke="#bfbfbf" points="540.5,-6 540.5,-25 705.5,-25 705.5,-6 540.5,-6"/>
<text text-anchor="middle" x="623" y="-13" font-family="Helvetica,sans-Serif" font-size="10.00">xercesc/util/XercesVersion.hpp</text>
</a>
</g>
</g>
<!-- Node3&#45;&gt;Node5 -->
<g id="edge4" class="edge">
<title>Node3&#45;&gt;Node5</title>
<path fill="none" stroke="midnightblue" d="M623,-72.73C623,-63.18 623,-47.62 623,-35.28"/>
<polygon fill="midnightblue" stroke="midnightblue" points="626.5,-35.13 623,-25.13 619.5,-35.13 626.5,-35.13"/>
</g>
<!-- Node6 -->
<g id="node6" class="node">
<title>Node6</title>
<g id="a_node6"><a xlink:href="XalanVersion_8hpp.html" target="_top" xlink:title=" ">
<polygon fill="none" stroke="black" points="723.5,-6 723.5,-25 898.5,-25 898.5,-6 723.5,-6"/>
<text text-anchor="middle" x="811" y="-13" font-family="Helvetica,sans-Serif" font-size="10.00">xalanc/Include/XalanVersion.hpp</text>
</a>
</g>
</g>
<!-- Node3&#45;&gt;Node6 -->
<g id="edge5" class="edge">
<title>Node3&#45;&gt;Node6</title>
<path fill="none" stroke="midnightblue" d="M647.96,-72.87C680.92,-61.47 739.12,-41.35 776.33,-28.49"/>
<polygon fill="midnightblue" stroke="midnightblue" points="777.92,-31.64 786.23,-25.06 775.64,-25.02 777.92,-31.64"/>
</g>
<!-- Node9&#45;&gt;Node2 -->
<g id="edge9" class="edge">
<title>Node9&#45;&gt;Node2</title>
<path fill="none" stroke="midnightblue" d="M248.69,-704.34C218.31,-684.75 165.49,-646.58 135,-601 93.6,-539.11 60.54,-494.97 106,-436 118.4,-419.92 160.04,-407.95 201.39,-399.7"/>
<polygon fill="midnightblue" stroke="midnightblue" points="202.16,-403.12 211.32,-397.79 200.84,-396.25 202.16,-403.12"/>
</g>
<!-- Node10 -->
<g id="node10" class="node">
<title>Node10</title>
<g id="a_node10"><a xlink:href="XalanVector_8hpp.html" target="_top" xlink:title=" ">
<polygon fill="none" stroke="black" points="1039.5,-201.5 1039.5,-220.5 1208.5,-220.5 1208.5,-201.5 1039.5,-201.5"/>
<text text-anchor="middle" x="1124" y="-208.5" font-family="Helvetica,sans-Serif" font-size="10.00">xalanc/Include/XalanVector.hpp</text>
</a>
</g>
</g>
<!-- Node9&#45;&gt;Node10 -->
<g id="edge10" class="edge">
<title>Node9&#45;&gt;Node10</title>
<path fill="none" stroke="midnightblue" d="M340.85,-718.77C544.68,-719 1142.6,-715.51 1331,-668 1410.31,-648 1496,-668.29 1496,-586.5 1496,-586.5 1496,-586.5 1496,-517.5 1496,-346.99 1259.71,-254.22 1163.77,-223.58"/>
<polygon fill="midnightblue" stroke="midnightblue" points="1164.72,-220.21 1154.13,-220.56 1162.62,-226.89 1164.72,-220.21"/>
</g>
<!-- Node19 -->
<g id="node19" class="node">
<title>Node19</title>
<g id="a_node19"><a xlink:href="XalanDOMString_8hpp.html" target="_top" xlink:title=" ">
<polygon fill="none" stroke="black" points="918,-375 918,-394 1126,-394 1126,-375 918,-375"/>
<text text-anchor="middle" x="1022" y="-382" font-family="Helvetica,sans-Serif" font-size="10.00">xalanc/XalanDOM/XalanDOMString.hpp</text>
</a>
</g>
</g>
<!-- Node9&#45;&gt;Node19 -->
<g id="edge24" class="edge">
<title>Node9&#45;&gt;Node19</title>
<path fill="none" stroke="midnightblue" d="M340.89,-718.12C594.01,-715.82 1458,-699.67 1458,-586.5 1458,-586.5 1458,-586.5 1458,-517.5 1458,-447.19 1247.66,-410.87 1119.17,-395.24"/>
<polygon fill="midnightblue" stroke="midnightblue" points="1119.27,-391.73 1108.92,-394.02 1118.44,-398.68 1119.27,-391.73"/>
</g>
<!-- Node27 -->
<g id="node27" class="node">
<title>Node27</title>
<g id="a_node27"><a xlink:href="XalanTranscodingServices_8hpp.html" target="_top" xlink:title=" ">
<polygon fill="none" stroke="black" points="237.5,-637.5 237.5,-667.5 404.5,-667.5 404.5,-637.5 237.5,-637.5"/>
<text text-anchor="start" x="245.5" y="-655.5" font-family="Helvetica,sans-Serif" font-size="10.00">xalanc/PlatformSupport</text>
<text text-anchor="middle" x="321" y="-644.5" font-family="Helvetica,sans-Serif" font-size="10.00">/XalanTranscodingServices.hpp</text>
</a>
</g>
</g>
<!-- Node9&#45;&gt;Node27 -->
<g id="edge52" class="edge">
<title>Node9&#45;&gt;Node27</title>
<path fill="none" stroke="midnightblue" d="M282.63,-704.4C288.92,-696.05 297.04,-685.29 304.18,-675.81"/>
<polygon fill="midnightblue" stroke="midnightblue" points="307.16,-677.67 310.39,-667.58 301.57,-673.45 307.16,-677.67"/>
</g>
<!-- Node33 -->
<g id="node33" class="node">
<title>Node33</title>
<g id="a_node33"><a xlink:href="XSLException_8hpp.html" target="_top" xlink:title=" ">
<polygon fill="none" stroke="black" points="144.5,-570.5 144.5,-600.5 275.5,-600.5 275.5,-570.5 144.5,-570.5"/>
<text text-anchor="start" x="152.5" y="-588.5" font-family="Helvetica,sans-Serif" font-size="10.00">xalanc/PlatformSupport</text>
<text text-anchor="middle" x="210" y="-577.5" font-family="Helvetica,sans-Serif" font-size="10.00">/XSLException.hpp</text>
</a>
</g>
</g>
<!-- Node9&#45;&gt;Node33 -->
<g id="edge80" class="edge">
<title>Node9&#45;&gt;Node33</title>
<path fill="none" stroke="midnightblue" d="M255.9,-704.08C246.39,-694.7 234.91,-681.71 228,-668 218.96,-650.06 214.43,-627.65 212.18,-610.87"/>
<polygon fill="midnightblue" stroke="midnightblue" points="215.63,-610.29 211,-600.76 208.68,-611.1 215.63,-610.29"/>
</g>
<!-- Node10&#45;&gt;Node3 -->
<g id="edge11" class="edge">
<title>Node10&#45;&gt;Node3</title>
<path fill="none" stroke="midnightblue" d="M1111.79,-201.37C1099.47,-192.54 1080.05,-178.28 1064,-165 1048.25,-151.96 1048.58,-142.55 1030,-134 979.3,-110.66 838.05,-96.97 736.18,-89.86"/>
<polygon fill="midnightblue" stroke="midnightblue" points="736.35,-86.36 726.13,-89.17 735.87,-93.35 736.35,-86.36"/>
</g>
<!-- Node11 -->
<g id="node11" class="node">
<title>Node11</title>
<g id="a_node11"><a xlink:title=" ">
<polygon fill="none" stroke="#bfbfbf" points="912.5,-73 912.5,-92 965.5,-92 965.5,-73 912.5,-73"/>
<text text-anchor="middle" x="939" y="-80" font-family="Helvetica,sans-Serif" font-size="10.00">cstddef</text>
</a>
</g>
</g>
<!-- Node10&#45;&gt;Node11 -->
<g id="edge12" class="edge">
<title>Node10&#45;&gt;Node11</title>
<path fill="none" stroke="midnightblue" d="M1119.19,-201.27C1110.23,-185.74 1089.56,-153.16 1064,-134 1037.43,-114.08 1001.92,-100.73 975.54,-92.79"/>
<polygon fill="midnightblue" stroke="midnightblue" points="976.49,-89.42 965.91,-90 974.54,-96.14 976.49,-89.42"/>
</g>
<!-- Node12 -->
<g id="node12" class="node">
<title>Node12</title>
<g id="a_node12"><a xlink:title=" ">
<polygon fill="none" stroke="#bfbfbf" points="689,-140 689,-159 753,-159 753,-140 689,-140"/>
<text text-anchor="middle" x="721" y="-147" font-family="Helvetica,sans-Serif" font-size="10.00">algorithm</text>
</a>
</g>
</g>
<!-- Node10&#45;&gt;Node12 -->
<g id="edge13" class="edge">
<title>Node10&#45;&gt;Node12</title>
<path fill="none" stroke="midnightblue" d="M1066.26,-201.48C984.22,-189.36 835.83,-167.45 763.26,-156.74"/>
<polygon fill="midnightblue" stroke="midnightblue" points="763.53,-153.24 753.12,-155.24 762.5,-160.17 763.53,-153.24"/>
</g>
<!-- Node13 -->
<g id="node13" class="node">
<title>Node13</title>
<g id="a_node13"><a xlink:title=" ">
<polygon fill="none" stroke="#bfbfbf" points="1371,-73 1371,-92 1423,-92 1423,-73 1371,-73"/>
<text text-anchor="middle" x="1397" y="-80" font-family="Helvetica,sans-Serif" font-size="10.00">cassert</text>
</a>
</g>
</g>
<!-- Node10&#45;&gt;Node13 -->
<g id="edge14" class="edge">
<title>Node10&#45;&gt;Node13</title>
<path fill="none" stroke="midnightblue" d="M1206.12,-201.47C1262.35,-194.24 1330.78,-182.27 1354,-165 1374.93,-149.44 1386.64,-120.65 1392.39,-101.79"/>
<polygon fill="midnightblue" stroke="midnightblue" points="1395.8,-102.58 1395.1,-92.01 1389.05,-100.7 1395.8,-102.58"/>
</g>
<!-- Node14 -->
<g id="node14" class="node">
<title>Node14</title>
<g id="a_node14"><a xlink:title=" ">
<polygon fill="none" stroke="#bfbfbf" points="1104.5,-73 1104.5,-92 1141.5,-92 1141.5,-73 1104.5,-73"/>
<text text-anchor="middle" x="1123" y="-80" font-family="Helvetica,sans-Serif" font-size="10.00">new</text>
</a>
</g>
</g>
<!-- Node10&#45;&gt;Node14 -->
<g id="edge15" class="edge">
<title>Node10&#45;&gt;Node14</title>
<path fill="none" stroke="midnightblue" d="M1123.93,-201.31C1123.77,-180.99 1123.37,-130.05 1123.15,-102.28"/>
<polygon fill="midnightblue" stroke="midnightblue" points="1126.65,-102.23 1123.07,-92.26 1119.65,-102.28 1126.65,-102.23"/>
</g>
<!-- Node15 -->
<g id="node15" class="node">
<title>Node15</title>
<g id="a_node15"><a xlink:title=" ">
<polygon fill="none" stroke="#bfbfbf" points="885.5,-140 885.5,-159 938.5,-159 938.5,-140 885.5,-140"/>
<text text-anchor="middle" x="912" y="-147" font-family="Helvetica,sans-Serif" font-size="10.00">iterator</text>
</a>
</g>
</g>
<!-- Node10&#45;&gt;Node15 -->
<g id="edge16" class="edge">
<title>Node10&#45;&gt;Node15</title>
<path fill="none" stroke="midnightblue" d="M1083.45,-201.44C1047.27,-193.39 993.04,-180.3 947,-165 945.08,-164.36 943.12,-163.67 941.15,-162.94"/>
<polygon fill="midnightblue" stroke="midnightblue" points="942.02,-159.52 931.43,-159.13 939.47,-166.04 942.02,-159.52"/>
</g>
<!-- Node16 -->
<g id="node16" class="node">
<title>Node16</title>
<g id="a_node16"><a xlink:title=" ">
<polygon fill="none" stroke="#bfbfbf" points="956.5,-140 956.5,-159 1021.5,-159 1021.5,-140 956.5,-140"/>
<text text-anchor="middle" x="989" y="-147" font-family="Helvetica,sans-Serif" font-size="10.00">stdexcept</text>
</a>
</g>
</g>
<!-- Node10&#45;&gt;Node16 -->
<g id="edge17" class="edge">
<title>Node10&#45;&gt;Node16</title>
<path fill="none" stroke="midnightblue" d="M1104.66,-201.48C1081.9,-191.45 1043.91,-174.7 1017.71,-163.15"/>
<polygon fill="midnightblue" stroke="midnightblue" points="1018.87,-159.84 1008.31,-159.01 1016.05,-166.24 1018.87,-159.84"/>
</g>
<!-- Node17 -->
<g id="node17" class="node">
<title>Node17</title>
<g id="a_node17"><a xlink:href="XalanMemoryManagement_8hpp.html" target="_top" xlink:title=" ">
<polygon fill="none" stroke="black" points="1154,-134.5 1154,-164.5 1312,-164.5 1312,-134.5 1154,-134.5"/>
<text text-anchor="start" x="1162" y="-152.5" font-family="Helvetica,sans-Serif" font-size="10.00">xalanc/Include/XalanMemory</text>
<text text-anchor="middle" x="1233" y="-141.5" font-family="Helvetica,sans-Serif" font-size="10.00">Management.hpp</text>
</a>
</g>
</g>
<!-- Node10&#45;&gt;Node17 -->
<g id="edge18" class="edge">
<title>Node10&#45;&gt;Node17</title>
<path fill="none" stroke="midnightblue" d="M1139.62,-201.48C1154.86,-193.15 1178.58,-180.21 1198.29,-169.45"/>
<polygon fill="midnightblue" stroke="midnightblue" points="1200.21,-172.39 1207.31,-164.52 1196.86,-166.24 1200.21,-172.39"/>
</g>
<!-- Node17&#45;&gt;Node3 -->
<g id="edge19" class="edge">
<title>Node17&#45;&gt;Node3</title>
<path fill="none" stroke="midnightblue" d="M1153.88,-140.07C1040.49,-127.99 832.33,-105.81 713.14,-93.11"/>
<polygon fill="midnightblue" stroke="midnightblue" points="713.26,-89.6 702.95,-92.02 712.52,-96.56 713.26,-89.6"/>
</g>
<!-- Node17&#45;&gt;Node11 -->
<g id="edge21" class="edge">
<title>Node17&#45;&gt;Node11</title>
<path fill="none" stroke="midnightblue" d="M1169.57,-134.48C1110.44,-121.4 1024.29,-102.36 975.77,-91.63"/>
<polygon fill="midnightblue" stroke="midnightblue" points="976.25,-88.15 965.73,-89.41 974.74,-94.99 976.25,-88.15"/>
</g>
<!-- Node17&#45;&gt;Node13 -->
<g id="edge20" class="edge">
<title>Node17&#45;&gt;Node13</title>
<path fill="none" stroke="midnightblue" d="M1268.59,-134.4C1297.62,-122.89 1338.22,-106.8 1365.95,-95.81"/>
<polygon fill="midnightblue" stroke="midnightblue" points="1367.53,-98.95 1375.54,-92.01 1364.95,-92.44 1367.53,-98.95"/>
</g>
<!-- Node17&#45;&gt;Node14 -->
<g id="edge22" class="edge">
<title>Node17&#45;&gt;Node14</title>
<path fill="none" stroke="midnightblue" d="M1209.13,-134.4C1190.43,-123.34 1164.56,-108.06 1146.07,-97.13"/>
<polygon fill="midnightblue" stroke="midnightblue" points="1147.79,-94.08 1137.4,-92.01 1144.23,-100.11 1147.79,-94.08"/>
</g>
<!-- Node18 -->
<g id="node18" class="node">
<title>Node18</title>
<g id="a_node18"><a xlink:title=" ">
<polygon fill="none" stroke="#bfbfbf" points="1159.5,-67.5 1159.5,-97.5 1312.5,-97.5 1312.5,-67.5 1159.5,-67.5"/>
<text text-anchor="start" x="1167.5" y="-85.5" font-family="Helvetica,sans-Serif" font-size="10.00">xercesc/framework/Memory</text>
<text text-anchor="middle" x="1236" y="-74.5" font-family="Helvetica,sans-Serif" font-size="10.00">Manager.hpp</text>
</a>
</g>
</g>
<!-- Node17&#45;&gt;Node18 -->
<g id="edge23" class="edge">
<title>Node17&#45;&gt;Node18</title>
<path fill="none" stroke="midnightblue" d="M1233.65,-134.4C1234.01,-126.64 1234.46,-116.81 1234.88,-107.86"/>
<polygon fill="midnightblue" stroke="midnightblue" points="1238.39,-107.73 1235.35,-97.58 1231.39,-107.4 1238.39,-107.73"/>
</g>
<!-- Node19&#45;&gt;Node10 -->
<g id="edge49" class="edge">
<title>Node19&#45;&gt;Node10</title>
<path fill="none" stroke="midnightblue" d="M1027.2,-374.76C1043.23,-347.81 1092.11,-265.62 1113.64,-229.42"/>
<polygon fill="midnightblue" stroke="midnightblue" points="1116.83,-230.9 1118.93,-220.52 1110.81,-227.33 1116.83,-230.9"/>
</g>
<!-- Node19&#45;&gt;Node13 -->
<g id="edge27" class="edge">
<title>Node19&#45;&gt;Node13</title>
<path fill="none" stroke="midnightblue" d="M1050.22,-374.98C1118.75,-352.74 1294.6,-286.09 1380,-165 1393.05,-146.49 1396.5,-120.11 1397.2,-102.43"/>
<polygon fill="midnightblue" stroke="midnightblue" points="1400.7,-102.28 1397.35,-92.23 1393.71,-102.18 1400.7,-102.28"/>
</g>
<!-- Node19&#45;&gt;Node17 -->
<g id="edge48" class="edge">
<title>Node19&#45;&gt;Node17</title>
<path fill="none" stroke="midnightblue" d="M1031.72,-374.66C1046.65,-361.16 1076.2,-334.67 1102,-313 1152.12,-270.91 1182.25,-276.47 1217,-221 1225.71,-207.1 1229.69,-189.02 1231.51,-174.65"/>
<polygon fill="midnightblue" stroke="midnightblue" points="1235.01,-174.81 1232.52,-164.51 1228.05,-174.12 1235.01,-174.81"/>
</g>
<!-- Node20 -->
<g id="node20" class="node">
<title>Node20</title>
<g id="a_node20"><a xlink:href="XalanDOMDefinitions_8hpp.html" target="_top" xlink:title=" ">
<polygon fill="none" stroke="black" points="239,-257.5 239,-276.5 471,-276.5 471,-257.5 239,-257.5"/>
<text text-anchor="middle" x="355" y="-264.5" font-family="Helvetica,sans-Serif" font-size="10.00">xalanc/XalanDOM/XalanDOMDefinitions.hpp</text>
</a>
</g>
</g>
<!-- Node19&#45;&gt;Node20 -->
<g id="edge25" class="edge">
<title>Node19&#45;&gt;Node20</title>
<path fill="none" stroke="midnightblue" d="M935.28,-374.99C811.42,-362.68 594.8,-340.58 559,-333 542.27,-329.46 444.16,-297.41 390.32,-279.68"/>
<polygon fill="midnightblue" stroke="midnightblue" points="391.41,-276.35 380.82,-276.54 389.22,-283 391.41,-276.35"/>
</g>
<!-- Node21 -->
<g id="node21" class="node">
<title>Node21</title>
<g id="a_node21"><a xlink:href="STLHelper_8hpp.html" target="_top" xlink:title=" ">
<polygon fill="none" stroke="black" points="568,-313.5 568,-332.5 728,-332.5 728,-313.5 568,-313.5"/>
<text text-anchor="middle" x="648" y="-320.5" font-family="Helvetica,sans-Serif" font-size="10.00">xalanc/Include/STLHelper.hpp</text>
</a>
</g>
</g>
<!-- Node19&#45;&gt;Node21 -->
<g id="edge28" class="edge">
<title>Node19&#45;&gt;Node21</title>
<path fill="none" stroke="midnightblue" d="M968.41,-374.98C900.51,-364.17 783.64,-345.58 711.38,-334.08"/>
<polygon fill="midnightblue" stroke="midnightblue" points="711.91,-330.62 701.49,-332.51 710.81,-337.54 711.91,-330.62"/>
</g>
<!-- Node26 -->
<g id="node26" class="node">
<title>Node26</title>
<g id="a_node26"><a xlink:href="XalanDOMException_8hpp.html" target="_top" xlink:title=" ">
<polygon fill="none" stroke="black" points="255.5,-313.5 255.5,-332.5 482.5,-332.5 482.5,-313.5 255.5,-313.5"/>
<text text-anchor="middle" x="369" y="-320.5" font-family="Helvetica,sans-Serif" font-size="10.00">xalanc/XalanDOM/XalanDOMException.hpp</text>
</a>
</g>
</g>
<!-- Node19&#45;&gt;Node26 -->
<g id="edge50" class="edge">
<title>Node19&#45;&gt;Node26</title>
<path fill="none" stroke="midnightblue" d="M934.18,-374.97C913.46,-372.99 891.45,-370.9 871,-369 734.82,-356.36 577.81,-342.38 476.16,-333.41"/>
<polygon fill="midnightblue" stroke="midnightblue" points="476.46,-329.92 466.19,-332.53 475.84,-336.89 476.46,-329.92"/>
</g>
<!-- Node20&#45;&gt;Node3 -->
<g id="edge26" class="edge">
<title>Node20&#45;&gt;Node3</title>
<path fill="none" stroke="midnightblue" d="M361.31,-257.3C378.57,-234.1 429.01,-170.04 485,-134 513.18,-115.86 548.78,-103.04 576.76,-94.86"/>
<polygon fill="midnightblue" stroke="midnightblue" points="578.03,-98.14 586.7,-92.05 576.12,-91.4 578.03,-98.14"/>
</g>
<!-- Node21&#45;&gt;Node3 -->
<g id="edge29" class="edge">
<title>Node21&#45;&gt;Node3</title>
<path fill="none" stroke="midnightblue" d="M617.37,-313.42C598.24,-306.54 574.56,-295.01 560,-277 543.8,-256.96 548.36,-246.55 545,-221 538.5,-171.65 580.36,-123.21 605.32,-99.16"/>
<polygon fill="midnightblue" stroke="midnightblue" points="607.82,-101.62 612.75,-92.24 603.05,-96.5 607.82,-101.62"/>
</g>
<!-- Node21&#45;&gt;Node12 -->
<g id="edge30" class="edge">
<title>Node21&#45;&gt;Node12</title>
<path fill="none" stroke="midnightblue" d="M632.21,-313.25C598.42,-293.42 524.61,-243.43 556,-201 584.05,-163.08 640,-152.7 678.93,-150.33"/>
<polygon fill="midnightblue" stroke="midnightblue" points="679.09,-153.83 688.92,-149.87 678.77,-146.83 679.09,-153.83"/>
</g>
<!-- Node22 -->
<g id="node22" class="node">
<title>Node22</title>
<g id="a_node22"><a xlink:title=" ">
<polygon fill="none" stroke="#bfbfbf" points="565.5,-201.5 565.5,-220.5 630.5,-220.5 630.5,-201.5 565.5,-201.5"/>
<text text-anchor="middle" x="598" y="-208.5" font-family="Helvetica,sans-Serif" font-size="10.00">functional</text>
</a>
</g>
</g>
<!-- Node21&#45;&gt;Node22 -->
<g id="edge31" class="edge">
<title>Node21&#45;&gt;Node22</title>
<path fill="none" stroke="midnightblue" d="M644.08,-313.37C635.93,-295.46 617.06,-253.92 606.16,-229.95"/>
<polygon fill="midnightblue" stroke="midnightblue" points="609.23,-228.25 601.91,-220.59 602.86,-231.14 609.23,-228.25"/>
</g>
<!-- Node23 -->
<g id="node23" class="node">
<title>Node23</title>
<g id="a_node23"><a xlink:href="XalanMap_8hpp.html" target="_top" xlink:title=" ">
<polygon fill="none" stroke="black" points="802,-257.5 802,-276.5 962,-276.5 962,-257.5 802,-257.5"/>
<text text-anchor="middle" x="882" y="-264.5" font-family="Helvetica,sans-Serif" font-size="10.00">xalanc/Include/XalanMap.hpp</text>
</a>
</g>
</g>
<!-- Node21&#45;&gt;Node23 -->
<g id="edge32" class="edge">
<title>Node21&#45;&gt;Node23</title>
<path fill="none" stroke="midnightblue" d="M685.08,-313.44C725.73,-304.06 791.03,-288.99 835.18,-278.8"/>
<polygon fill="midnightblue" stroke="midnightblue" points="836.14,-282.18 845.1,-276.52 834.56,-275.35 836.14,-282.18"/>
</g>
<!-- Node23&#45;&gt;Node3 -->
<g id="edge33" class="edge">
<title>Node23&#45;&gt;Node3</title>
<path fill="none" stroke="midnightblue" d="M820,-257.47C771.51,-249.74 709.06,-237.09 689,-221 650.72,-190.29 633.28,-131.98 626.56,-102.13"/>
<polygon fill="midnightblue" stroke="midnightblue" points="629.96,-101.28 624.49,-92.2 623.11,-102.7 629.96,-101.28"/>
</g>
<!-- Node23&#45;&gt;Node10 -->
<g id="edge38" class="edge">
<title>Node23&#45;&gt;Node10</title>
<path fill="none" stroke="midnightblue" d="M920.35,-257.44C962.47,-248.04 1030.21,-232.93 1075.87,-222.74"/>
<polygon fill="midnightblue" stroke="midnightblue" points="1076.84,-226.11 1085.83,-220.52 1075.31,-219.28 1076.84,-226.11"/>
</g>
<!-- Node23&#45;&gt;Node11 -->
<g id="edge34" class="edge">
<title>Node23&#45;&gt;Node11</title>
<path fill="none" stroke="midnightblue" d="M806.21,-257.46C775.94,-251.14 742.14,-240.14 716,-221 682.24,-196.28 653.39,-166.3 680,-134 707.73,-100.34 837.48,-88.81 902.16,-85.12"/>
<polygon fill="midnightblue" stroke="midnightblue" points="902.53,-88.6 912.33,-84.57 902.15,-81.61 902.53,-88.6"/>
</g>
<!-- Node23&#45;&gt;Node12 -->
<g id="edge35" class="edge">
<title>Node23&#45;&gt;Node12</title>
<path fill="none" stroke="midnightblue" d="M869.9,-257.32C842.51,-237.67 775.52,-189.61 741.51,-165.22"/>
<polygon fill="midnightblue" stroke="midnightblue" points="743.41,-162.27 733.24,-159.28 739.33,-167.96 743.41,-162.27"/>
</g>
<!-- Node23&#45;&gt;Node22 -->
<g id="edge36" class="edge">
<title>Node23&#45;&gt;Node22</title>
<path fill="none" stroke="midnightblue" d="M837,-257.48C789.33,-248.44 711.85,-233.75 645,-221 643.55,-220.72 642.07,-220.44 640.57,-220.16"/>
<polygon fill="midnightblue" stroke="midnightblue" points="641.09,-216.69 630.61,-218.25 639.78,-223.57 641.09,-216.69"/>
</g>
<!-- Node24 -->
<g id="node24" class="node">
<title>Node24</title>
<g id="a_node24"><a xlink:title=" ">
<polygon fill="none" stroke="#bfbfbf" points="725.5,-201.5 725.5,-220.5 770.5,-220.5 770.5,-201.5 725.5,-201.5"/>
<text text-anchor="middle" x="748" y="-208.5" font-family="Helvetica,sans-Serif" font-size="10.00">utility</text>
</a>
</g>
</g>
<!-- Node23&#45;&gt;Node24 -->
<g id="edge37" class="edge">
<title>Node23&#45;&gt;Node24</title>
<path fill="none" stroke="midnightblue" d="M860.77,-257.44C838.62,-248.52 803.68,-234.44 778.56,-224.32"/>
<polygon fill="midnightblue" stroke="midnightblue" points="779.72,-221.01 769.13,-220.52 777.1,-227.5 779.72,-221.01"/>
</g>
<!-- Node25 -->
<g id="node25" class="node">
<title>Node25</title>
<g id="a_node25"><a xlink:href="XalanList_8hpp.html" target="_top" xlink:title=" ">
<polygon fill="none" stroke="black" points="865,-201.5 865,-220.5 1021,-220.5 1021,-201.5 865,-201.5"/>
<text text-anchor="middle" x="943" y="-208.5" font-family="Helvetica,sans-Serif" font-size="10.00">xalanc/Include/XalanList.hpp</text>
</a>
</g>
</g>
<!-- Node23&#45;&gt;Node25 -->
<g id="edge39" class="edge">
<title>Node23&#45;&gt;Node25</title>
<path fill="none" stroke="midnightblue" d="M891.8,-257.32C900.82,-249.34 914.41,-237.31 925.32,-227.65"/>
<polygon fill="midnightblue" stroke="midnightblue" points="927.85,-230.08 933.02,-220.83 923.21,-224.84 927.85,-230.08"/>
</g>
<!-- Node25&#45;&gt;Node3 -->
<g id="edge40" class="edge">
<title>Node25&#45;&gt;Node3</title>
<path fill="none" stroke="midnightblue" d="M922.07,-201.47C900.09,-192.48 864.56,-177.89 834,-165 801.9,-151.46 794.39,-146.84 762,-134 726.71,-120.01 685.82,-105.33 657.57,-95.43"/>
<polygon fill="midnightblue" stroke="midnightblue" points="658.36,-92 647.77,-92.01 656.06,-98.61 658.36,-92"/>
</g>
<!-- Node25&#45;&gt;Node11 -->
<g id="edge41" class="edge">
<title>Node25&#45;&gt;Node11</title>
<path fill="none" stroke="midnightblue" d="M898.3,-201.48C877.77,-195.09 855.3,-184.02 843,-165 835.52,-153.43 835.88,-145.79 843,-134 855.86,-112.71 881,-99.94 902.33,-92.58"/>
<polygon fill="midnightblue" stroke="midnightblue" points="903.65,-95.83 912.12,-89.47 901.53,-89.16 903.65,-95.83"/>
</g>
<!-- Node25&#45;&gt;Node12 -->
<g id="edge42" class="edge">
<title>Node25&#45;&gt;Node12</title>
<path fill="none" stroke="midnightblue" d="M907.11,-201.44C871.44,-192.78 815.22,-178.75 767,-165 763.68,-164.05 760.23,-163.03 756.79,-161.99"/>
<polygon fill="midnightblue" stroke="midnightblue" points="757.78,-158.64 747.2,-159.03 755.72,-165.32 757.78,-158.64"/>
</g>
<!-- Node25&#45;&gt;Node13 -->
<g id="edge43" class="edge">
<title>Node25&#45;&gt;Node13</title>
<path fill="none" stroke="midnightblue" d="M1020.06,-201.5C1128.65,-189.42 1314.34,-168.38 1321,-165 1328.73,-161.08 1362.85,-122.75 1382.64,-100.08"/>
<polygon fill="midnightblue" stroke="midnightblue" points="1385.52,-102.1 1389.44,-92.26 1380.24,-97.51 1385.52,-102.1"/>
</g>
<!-- Node25&#45;&gt;Node14 -->
<g id="edge44" class="edge">
<title>Node25&#45;&gt;Node14</title>
<path fill="none" stroke="midnightblue" d="M920.21,-201.47C904.67,-194.32 885.29,-182.44 876,-165 869.52,-152.84 867.29,-144.67 876,-134 903.29,-100.56 1035.13,-88.67 1094.23,-84.98"/>
<polygon fill="midnightblue" stroke="midnightblue" points="1094.61,-88.46 1104.38,-84.38 1094.19,-81.47 1094.61,-88.46"/>
</g>
<!-- Node25&#45;&gt;Node15 -->
<g id="edge45" class="edge">
<title>Node25&#45;&gt;Node15</title>
<path fill="none" stroke="midnightblue" d="M938.56,-201.48C934.05,-192.82 926.93,-179.15 921.19,-168.15"/>
<polygon fill="midnightblue" stroke="midnightblue" points="924.16,-166.26 916.43,-159.01 917.95,-169.49 924.16,-166.26"/>
</g>
<!-- Node25&#45;&gt;Node16 -->
<g id="edge46" class="edge">
<title>Node25&#45;&gt;Node16</title>
<path fill="none" stroke="midnightblue" d="M949.59,-201.48C956.49,-192.55 967.5,-178.31 976.13,-167.14"/>
<polygon fill="midnightblue" stroke="midnightblue" points="979.07,-169.06 982.42,-159.01 973.54,-164.78 979.07,-169.06"/>
</g>
<!-- Node25&#45;&gt;Node17 -->
<g id="edge47" class="edge">
<title>Node25&#45;&gt;Node17</title>
<path fill="none" stroke="midnightblue" d="M984.55,-201.48C1028.78,-192.4 1099.81,-177.83 1154.62,-166.58"/>
<polygon fill="midnightblue" stroke="midnightblue" points="1155.56,-169.96 1164.65,-164.52 1154.15,-163.1 1155.56,-169.96"/>
</g>
<!-- Node26&#45;&gt;Node20 -->
<g id="edge51" class="edge">
<title>Node26&#45;&gt;Node20</title>
<path fill="none" stroke="midnightblue" d="M366.69,-313.08C364.83,-305.93 362.16,-295.64 359.85,-286.69"/>
<polygon fill="midnightblue" stroke="midnightblue" points="363.17,-285.55 357.27,-276.75 356.39,-287.31 363.17,-285.55"/>
</g>
<!-- Node27&#45;&gt;Node2 -->
<g id="edge53" class="edge">
<title>Node27&#45;&gt;Node2</title>
<path fill="none" stroke="midnightblue" d="M319.76,-637.2C316.02,-593.89 304.77,-463.82 300.09,-409.62"/>
<polygon fill="midnightblue" stroke="midnightblue" points="303.56,-409.21 299.21,-399.55 296.59,-409.81 303.56,-409.21"/>
</g>
<!-- Node27&#45;&gt;Node13 -->
<g id="edge54" class="edge">
<title>Node27&#45;&gt;Node13</title>
<path fill="none" stroke="midnightblue" d="M404.57,-648.52C582.44,-639.6 1008.78,-604.39 1334,-467 1381.26,-447.04 1399.63,-442.75 1428,-400 1444.87,-374.57 1439.38,-363.3 1443,-333 1453.53,-244.93 1459.57,-216.89 1428,-134 1423.5,-122.17 1416.16,-110.06 1409.76,-100.65"/>
<polygon fill="midnightblue" stroke="midnightblue" points="1412.45,-98.4 1403.81,-92.27 1406.74,-102.45 1412.45,-98.4"/>
</g>
<!-- Node28 -->
<g id="node28" class="node">
<title>Node28</title>
<g id="a_node28"><a xlink:href="DOMStringHelper_8hpp.html" target="_top" xlink:title=" ">
<polygon fill="none" stroke="black" points="774.5,-503.5 774.5,-533.5 905.5,-533.5 905.5,-503.5 774.5,-503.5"/>
<text text-anchor="start" x="782.5" y="-521.5" font-family="Helvetica,sans-Serif" font-size="10.00">xalanc/PlatformSupport</text>
<text text-anchor="middle" x="840" y="-510.5" font-family="Helvetica,sans-Serif" font-size="10.00">/DOMStringHelper.hpp</text>
</a>
</g>
</g>
<!-- Node27&#45;&gt;Node28 -->
<g id="edge55" class="edge">
<title>Node27&#45;&gt;Node28</title>
<path fill="none" stroke="midnightblue" d="M376.05,-637.5C472.5,-612.97 671.55,-562.34 774.75,-536.1"/>
<polygon fill="midnightblue" stroke="midnightblue" points="775.9,-539.41 784.73,-533.56 774.18,-532.63 775.9,-539.41"/>
</g>
<!-- Node27&#45;&gt;Node33 -->
<g id="edge74" class="edge">
<title>Node27&#45;&gt;Node33</title>
<path fill="none" stroke="midnightblue" d="M296.91,-637.4C281.06,-628.11 260.11,-615.84 242.74,-605.67"/>
<polygon fill="midnightblue" stroke="midnightblue" points="244.44,-602.61 234.04,-600.58 240.9,-608.65 244.44,-602.61"/>
</g>
<!-- Node28&#45;&gt;Node2 -->
<g id="edge56" class="edge">
<title>Node28&#45;&gt;Node2</title>
<path fill="none" stroke="midnightblue" d="M774.39,-513.64C719.51,-508.41 640.27,-496.07 577,-467 556.88,-457.76 558.04,-445.42 538,-436 493.31,-414.99 439.85,-402.65 394.75,-395.44"/>
<polygon fill="midnightblue" stroke="midnightblue" points="395.08,-391.95 384.66,-393.89 394.02,-398.87 395.08,-391.95"/>
</g>
<!-- Node28&#45;&gt;Node7 -->
<g id="edge60" class="edge">
<title>Node28&#45;&gt;Node7</title>
<path fill="none" stroke="midnightblue" d="M774.25,-516.33C685.4,-513.35 522.72,-502.97 389,-467 386.71,-466.38 384.37,-465.63 382.04,-464.79"/>
<polygon fill="midnightblue" stroke="midnightblue" points="383.35,-461.55 372.77,-461.04 380.73,-468.04 383.35,-461.55"/>
</g>
<!-- Node28&#45;&gt;Node10 -->
<g id="edge61" class="edge">
<title>Node28&#45;&gt;Node10</title>
<path fill="none" stroke="midnightblue" d="M905.66,-516.76C998.62,-514.36 1162.19,-504.72 1206,-467 1234.62,-442.36 1230,-423.26 1230,-385.5 1230,-385.5 1230,-385.5 1230,-322 1230,-276.81 1183.05,-243.05 1151.64,-225.52"/>
<polygon fill="midnightblue" stroke="midnightblue" points="1152.93,-222.24 1142.46,-220.61 1149.63,-228.41 1152.93,-222.24"/>
</g>
<!-- Node28&#45;&gt;Node12 -->
<g id="edge57" class="edge">
<title>Node28&#45;&gt;Node12</title>
<path fill="none" stroke="midnightblue" d="M905.59,-512.45C977.67,-505.75 1087.69,-491.77 1121,-467 1157.99,-439.49 1172.05,-411.83 1155,-369 1142.32,-337.16 1130.12,-332.59 1102,-313 1006.22,-246.28 963.79,-265.8 856,-221 838.38,-213.67 834.91,-209.85 818,-201 793.72,-188.29 765.97,-173.85 746.39,-163.68"/>
<polygon fill="midnightblue" stroke="midnightblue" points="747.98,-160.56 737.49,-159.06 744.75,-166.77 747.98,-160.56"/>
</g>
<!-- Node28&#45;&gt;Node13 -->
<g id="edge58" class="edge">
<title>Node28&#45;&gt;Node13</title>
<path fill="none" stroke="midnightblue" d="M905.5,-515.22C1012.84,-510.64 1220.87,-497.97 1287,-467 1368.4,-428.88 1430,-413.88 1430,-324 1430,-324 1430,-324 1430,-266 1430,-205.23 1412.06,-134.86 1402.64,-102.09"/>
<polygon fill="midnightblue" stroke="midnightblue" points="1405.89,-100.74 1399.7,-92.14 1399.17,-102.72 1405.89,-100.74"/>
</g>
<!-- Node28&#45;&gt;Node17 -->
<g id="edge63" class="edge">
<title>Node28&#45;&gt;Node17</title>
<path fill="none" stroke="midnightblue" d="M905.61,-512.89C1000.88,-505.54 1172.42,-489.65 1230,-467 1287.96,-444.2 1344,-447.78 1344,-385.5 1344,-385.5 1344,-385.5 1344,-266 1344,-222.53 1302.62,-189.09 1270.39,-169.63"/>
<polygon fill="midnightblue" stroke="midnightblue" points="1271.99,-166.51 1261.59,-164.52 1268.48,-172.56 1271.99,-166.51"/>
</g>
<!-- Node28&#45;&gt;Node19 -->
<g id="edge65" class="edge">
<title>Node28&#45;&gt;Node19</title>
<path fill="none" stroke="midnightblue" d="M879.54,-503.43C900.94,-494.76 927.18,-482.36 948,-467 973.15,-448.45 996.36,-420.35 1009.85,-402.47"/>
<polygon fill="midnightblue" stroke="midnightblue" points="1012.86,-404.28 1015.97,-394.15 1007.23,-400.13 1012.86,-404.28"/>
</g>
<!-- Node28&#45;&gt;Node21 -->
<g id="edge64" class="edge">
<title>Node28&#45;&gt;Node21</title>
<path fill="none" stroke="midnightblue" d="M818.03,-503.36C802.91,-493.47 782.48,-479.8 765,-467 747.14,-453.92 744.1,-448.75 726,-436 701.19,-418.53 686.03,-424.4 668,-400 655.62,-383.24 650.89,-359.42 649.09,-342.94"/>
<polygon fill="midnightblue" stroke="midnightblue" points="652.57,-342.55 648.26,-332.87 645.6,-343.13 652.57,-342.55"/>
</g>
<!-- Node28&#45;&gt;Node22 -->
<g id="edge59" class="edge">
<title>Node28&#45;&gt;Node22</title>
<path fill="none" stroke="midnightblue" d="M905.69,-509.68C1011.25,-494.43 1200.49,-454.44 1135,-369 1039.24,-244.08 943.73,-322.35 793,-277 736.07,-259.87 670.64,-237.5 631.9,-223.97"/>
<polygon fill="midnightblue" stroke="midnightblue" points="632.77,-220.57 622.17,-220.57 630.45,-227.18 632.77,-220.57"/>
</g>
<!-- Node28&#45;&gt;Node23 -->
<g id="edge62" class="edge">
<title>Node28&#45;&gt;Node23</title>
<path fill="none" stroke="midnightblue" d="M873.85,-503.44C889.04,-495.23 905.43,-483.23 914,-467 920.44,-454.82 915.29,-449.72 914,-436 911.27,-407.07 894,-324.15 886.03,-286.73"/>
<polygon fill="midnightblue" stroke="midnightblue" points="889.39,-285.73 883.88,-276.68 882.55,-287.2 889.39,-285.73"/>
</g>
<!-- Node29 -->
<g id="node29" class="node">
<title>Node29</title>
<g id="a_node29"><a xlink:href="FormatterListener_8hpp.html" target="_top" xlink:title=" ">
<polygon fill="none" stroke="black" points="774.5,-436.5 774.5,-466.5 905.5,-466.5 905.5,-436.5 774.5,-436.5"/>
<text text-anchor="start" x="782.5" y="-454.5" font-family="Helvetica,sans-Serif" font-size="10.00">xalanc/PlatformSupport</text>
<text text-anchor="middle" x="840" y="-443.5" font-family="Helvetica,sans-Serif" font-size="10.00">/FormatterListener.hpp</text>
</a>
</g>
</g>
<!-- Node28&#45;&gt;Node29 -->
<g id="edge66" class="edge">
<title>Node28&#45;&gt;Node29</title>
<path fill="none" stroke="midnightblue" d="M840,-503.4C840,-495.64 840,-485.81 840,-476.86"/>
<polygon fill="midnightblue" stroke="midnightblue" points="843.5,-476.58 840,-466.58 836.5,-476.58 843.5,-476.58"/>
</g>
<!-- Node31 -->
<g id="node31" class="node">
<title>Node31</title>
<g id="a_node31"><a xlink:href="XalanUnicode_8hpp.html" target="_top" xlink:title=" ">
<polygon fill="none" stroke="black" points="586.5,-436.5 586.5,-466.5 717.5,-466.5 717.5,-436.5 586.5,-436.5"/>
<text text-anchor="start" x="594.5" y="-454.5" font-family="Helvetica,sans-Serif" font-size="10.00">xalanc/PlatformSupport</text>
<text text-anchor="middle" x="652" y="-443.5" font-family="Helvetica,sans-Serif" font-size="10.00">/XalanUnicode.hpp</text>
</a>
</g>
</g>
<!-- Node28&#45;&gt;Node31 -->
<g id="edge70" class="edge">
<title>Node28&#45;&gt;Node31</title>
<path fill="none" stroke="midnightblue" d="M799.21,-503.4C770.75,-493.56 732.6,-480.37 702.27,-469.88"/>
<polygon fill="midnightblue" stroke="midnightblue" points="703.31,-466.54 692.71,-466.58 701.02,-473.15 703.31,-466.54"/>
</g>
<!-- Node32 -->
<g id="node32" class="node">
<title>Node32</title>
<g id="a_node32"><a xlink:href="XalanXMLChar_8hpp.html" target="_top" xlink:title=" ">
<polygon fill="none" stroke="black" points="398.5,-436.5 398.5,-466.5 529.5,-466.5 529.5,-436.5 398.5,-436.5"/>
<text text-anchor="start" x="406.5" y="-454.5" font-family="Helvetica,sans-Serif" font-size="10.00">xalanc/PlatformSupport</text>
<text text-anchor="middle" x="464" y="-443.5" font-family="Helvetica,sans-Serif" font-size="10.00">/XalanXMLChar.hpp</text>
</a>
</g>
</g>
<!-- Node28&#45;&gt;Node32 -->
<g id="edge72" class="edge">
<title>Node28&#45;&gt;Node32</title>
<path fill="none" stroke="midnightblue" d="M774.42,-506.51C714.42,-496.41 623.2,-480.93 544,-467 542.71,-466.77 541.41,-466.54 540.1,-466.31"/>
<polygon fill="midnightblue" stroke="midnightblue" points="540.37,-462.81 529.91,-464.5 539.15,-469.7 540.37,-462.81"/>
</g>
<!-- Node29&#45;&gt;Node2 -->
<g id="edge67" class="edge">
<title>Node29&#45;&gt;Node2</title>
<path fill="none" stroke="midnightblue" d="M774.3,-442.04C758.49,-440.03 741.64,-437.92 726,-436 612.24,-422.05 481.37,-406.72 394.61,-396.65"/>
<polygon fill="midnightblue" stroke="midnightblue" points="394.85,-393.15 384.51,-395.47 394.04,-400.1 394.85,-393.15"/>
</g>
<!-- Node29&#45;&gt;Node19 -->
<g id="edge69" class="edge">
<title>Node29&#45;&gt;Node19</title>
<path fill="none" stroke="midnightblue" d="M879.49,-436.4C912.13,-424.74 957.96,-408.37 988.75,-397.38"/>
<polygon fill="midnightblue" stroke="midnightblue" points="989.94,-400.67 998.18,-394.01 987.59,-394.07 989.94,-400.67"/>
</g>
<!-- Node30 -->
<g id="node30" class="node">
<title>Node30</title>
<g id="a_node30"><a xlink:title=" ">
<polygon fill="none" stroke="#bfbfbf" points="677.5,-375 677.5,-394 862.5,-394 862.5,-375 677.5,-375"/>
<text text-anchor="middle" x="770" y="-382" font-family="Helvetica,sans-Serif" font-size="10.00">xercesc/sax/DocumentHandler.hpp</text>
</a>
</g>
</g>
<!-- Node29&#45;&gt;Node30 -->
<g id="edge68" class="edge">
<title>Node29&#45;&gt;Node30</title>
<path fill="none" stroke="midnightblue" d="M824.81,-436.4C813.68,-426.06 798.56,-412.02 787.03,-401.31"/>
<polygon fill="midnightblue" stroke="midnightblue" points="789.07,-398.43 779.36,-394.19 784.31,-403.56 789.07,-398.43"/>
</g>
<!-- Node31&#45;&gt;Node2 -->
<g id="edge71" class="edge">
<title>Node31&#45;&gt;Node2</title>
<path fill="none" stroke="midnightblue" d="M586.24,-438.43C529.42,-427.99 446.88,-412.84 384.67,-401.41"/>
<polygon fill="midnightblue" stroke="midnightblue" points="384.95,-397.91 374.48,-399.54 383.68,-404.79 384.95,-397.91"/>
</g>
<!-- Node32&#45;&gt;Node2 -->
<g id="edge73" class="edge">
<title>Node32&#45;&gt;Node2</title>
<path fill="none" stroke="midnightblue" d="M427.98,-436.4C403.18,-426.69 370.04,-413.71 343.43,-403.29"/>
<polygon fill="midnightblue" stroke="midnightblue" points="344.54,-399.96 333.95,-399.58 341.98,-406.48 344.54,-399.96"/>
</g>
<!-- Node33&#45;&gt;Node2 -->
<g id="edge75" class="edge">
<title>Node33&#45;&gt;Node2</title>
<path fill="none" stroke="midnightblue" d="M177.08,-570.47C161.53,-562.14 144.2,-550.04 134,-534 110.51,-497.05 97.71,-471.01 124,-436 134.66,-421.8 169.75,-410.31 205.66,-401.89"/>
<polygon fill="midnightblue" stroke="midnightblue" points="206.81,-405.22 215.79,-399.6 205.26,-398.39 206.81,-405.22"/>
</g>
<!-- Node33&#45;&gt;Node28 -->
<g id="edge76" class="edge">
<title>Node33&#45;&gt;Node28</title>
<path fill="none" stroke="midnightblue" d="M275.64,-577.73C393.19,-565.6 639.01,-540.24 763.8,-527.36"/>
<polygon fill="midnightblue" stroke="midnightblue" points="764.45,-530.81 774.04,-526.31 763.73,-523.85 764.45,-530.81"/>
</g>
<!-- Node34 -->
<g id="node34" class="node">
<title>Node34</title>
<g id="a_node34"><a xlink:href="XalanLocator_8hpp.html" target="_top" xlink:title=" ">
<polygon fill="none" stroke="black" points="143.5,-503.5 143.5,-533.5 274.5,-533.5 274.5,-503.5 143.5,-503.5"/>
<text text-anchor="start" x="151.5" y="-521.5" font-family="Helvetica,sans-Serif" font-size="10.00">xalanc/PlatformSupport</text>
<text text-anchor="middle" x="209" y="-510.5" font-family="Helvetica,sans-Serif" font-size="10.00">/XalanLocator.hpp</text>
</a>
</g>
</g>
<!-- Node33&#45;&gt;Node34 -->
<g id="edge77" class="edge">
<title>Node33&#45;&gt;Node34</title>
<path fill="none" stroke="midnightblue" d="M209.78,-570.4C209.66,-562.64 209.51,-552.81 209.37,-543.86"/>
<polygon fill="midnightblue" stroke="midnightblue" points="212.87,-543.52 209.22,-533.58 205.87,-543.63 212.87,-543.52"/>
</g>
<!-- Node34&#45;&gt;Node2 -->
<g id="edge78" class="edge">
<title>Node34&#45;&gt;Node2</title>
<path fill="none" stroke="midnightblue" d="M173.86,-503.45C158.39,-495.29 141.76,-483.34 133,-467 126.49,-454.86 124.81,-447.08 133,-436 149.34,-413.91 175.16,-401.16 201.56,-393.9"/>
<polygon fill="midnightblue" stroke="midnightblue" points="202.45,-397.29 211.3,-391.47 200.75,-390.5 202.45,-397.29"/>
</g>
<!-- Node35 -->
<g id="node35" class="node">
<title>Node35</title>
<g id="a_node35"><a xlink:title=" ">
<polygon fill="none" stroke="#bfbfbf" points="142.5,-442 142.5,-461 275.5,-461 275.5,-442 142.5,-442"/>
<text text-anchor="middle" x="209" y="-449" font-family="Helvetica,sans-Serif" font-size="10.00">xercesc/sax/Locator.hpp</text>
</a>
</g>
</g>
<!-- Node34&#45;&gt;Node35 -->
<g id="edge79" class="edge">
<title>Node34&#45;&gt;Node35</title>
<path fill="none" stroke="midnightblue" d="M209,-503.4C209,-494.06 209,-481.71 209,-471.52"/>
<polygon fill="midnightblue" stroke="midnightblue" points="212.5,-471.19 209,-461.19 205.5,-471.19 212.5,-471.19"/>
</g>
</g>
</svg>
