<?xml version="1.0" encoding="UTF-8" standalone="no"?>
<!DOCTYPE svg PUBLIC "-//W3C//DTD SVG 1.1//EN"
 "http://www.w3.org/Graphics/SVG/1.1/DTD/svg11.dtd">
<!-- Generated by graphviz version 2.38.0 (20140413.2041)
 -->
<!-- Title: xalanc/XalanTransformer/XalanTransformerProblemListener.hpp Pages: 1 -->
<!--zoomable 486 -->
<svg id="main" version="1.1" xmlns="http://www.w3.org/2000/svg" xmlns:xlink="http://www.w3.org/1999/xlink" xml:space="preserve" onload="init(evt)">
<style type="text/css"><![CDATA[
.edge:hover path { stroke: red; }
.edge:hover polygon { stroke: red; fill: red; }
]]></style>
<script type="text/javascript"><![CDATA[
var edges = document.getElementsByTagName('g');
if (edges && edges.length) {
  for (var i=0;i<edges.length;i++) {
    if (edges[i].id.substr(0,4)=='edge') {
      edges[i].setAttribute('class','edge');
    }
  }
}
]]></script>
        <defs>
                <circle id="rim" cx="0" cy="0" r="7"/>
                <circle id="rim2" cx="0" cy="0" r="3.5"/>
                <g id="zoomPlus">
                        <use xlink:href="#rim" fill="#404040">
                                <set attributeName="fill" to="#808080" begin="zoomplus.mouseover" end="zoomplus.mouseout"/>
                        </use>
                        <path d="M-4,0h8M0,-4v8" fill="none" stroke="white" stroke-width="1.5" pointer-events="none"/>
                </g>
                <g id="zoomMin">
                        <use xlink:href="#rim" fill="#404040">
                                <set attributeName="fill" to="#808080" begin="zoomminus.mouseover" end="zoomminus.mouseout"/>
                        </use>
                        <path d="M-4,0h8" fill="none" stroke="white" stroke-width="1.5" pointer-events="none"/>
                </g>
                <g id="dirArrow">
                        <path fill="none" stroke="white" stroke-width="1.5" d="M0,-3.0v7 M-2.5,-0.5L0,-3.0L2.5,-0.5"/>
                </g>
               <g id="resetDef">
                       <use xlink:href="#rim2" fill="#404040">
                               <set attributeName="fill" to="#808080" begin="reset.mouseover" end="reset.mouseout"/>
                       </use>
               </g>
        </defs>

<script type="text/javascript">
var viewWidth = 1513;
var viewHeight = 486;
var sectionId = 'dynsection-0';
</script>
<script xlink:href="svgpan.js"/>
<svg id="graph" class="graph">
<g id="viewport">
<title>xalanc/XalanTransformer/XalanTransformerProblemListener.hpp</title>
<!-- Node1 -->
<g id="node1" class="node"><title>Node1</title>
<g id="a_node1"><a xlink:title=" ">
<polygon fill="#bfbfbf" stroke="black" points="1031.5,-447.5 1031.5,-477.5 1214.5,-477.5 1214.5,-447.5 1031.5,-447.5"/>
<text text-anchor="start" x="1039.5" y="-465.5" font-family="Helvetica,sans-Serif" font-size="10.00">xalanc/XalanTransformer</text>
<text text-anchor="middle" x="1123" y="-454.5" font-family="Helvetica,sans-Serif" font-size="10.00">/XalanTransformerProblemListener.hpp</text>
</a>
</g>
</g>
<!-- Node2 -->
<g id="node2" class="node"><title>Node2</title>
<g id="a_node2"><a xlink:href="XalanTransformerDefinitions_8hpp.html" target="_top" xlink:title=" ">
<polygon fill="none" stroke="black" points="1104.5,-391.5 1104.5,-410.5 1259.5,-410.5 1259.5,-391.5 1104.5,-391.5"/>
<text text-anchor="middle" x="1182" y="-398.5" font-family="Helvetica,sans-Serif" font-size="10.00">XalanTransformerDefinitions.hpp</text>
</a>
</g>
</g>
<!-- Node1&#45;&gt;Node2 -->
<g id="edge1" class="edge"><title>Node1&#45;&gt;Node2</title>
<path fill="none" stroke="midnightblue" d="M1136.98,-447.399C1145.73,-438.575 1157.03,-427.183 1166.12,-418.018"/>
<polygon fill="midnightblue" stroke="midnightblue" points="1168.86,-420.223 1173.41,-410.658 1163.89,-415.294 1168.86,-420.223"/>
</g>
<!-- Node8 -->
<g id="node8" class="node"><title>Node8</title>
<g id="a_node8"><a xlink:title=" ">
<polygon fill="none" stroke="#bfbfbf" points="1042,-391.5 1042,-410.5 1086,-410.5 1086,-391.5 1042,-391.5"/>
<text text-anchor="middle" x="1064" y="-398.5" font-family="Helvetica,sans-Serif" font-size="10.00">iosfwd</text>
</a>
</g>
</g>
<!-- Node1&#45;&gt;Node8 -->
<g id="edge7" class="edge"><title>Node1&#45;&gt;Node8</title>
<path fill="none" stroke="midnightblue" d="M1109.02,-447.399C1100.27,-438.575 1088.97,-427.183 1079.88,-418.018"/>
<polygon fill="midnightblue" stroke="midnightblue" points="1082.11,-415.294 1072.59,-410.658 1077.14,-420.223 1082.11,-415.294"/>
</g>
<!-- Node9 -->
<g id="node9" class="node"><title>Node9</title>
<g id="a_node9"><a xlink:href="XalanDOMString_8hpp.html" target="_top" xlink:title=" ">
<polygon fill="none" stroke="black" points="663.5,-391.5 663.5,-410.5 850.5,-410.5 850.5,-391.5 663.5,-391.5"/>
<text text-anchor="middle" x="757" y="-398.5" font-family="Helvetica,sans-Serif" font-size="10.00">xalanc/XalanDOM/XalanDOMString.hpp</text>
</a>
</g>
</g>
<!-- Node1&#45;&gt;Node9 -->
<g id="edge8" class="edge"><title>Node1&#45;&gt;Node9</title>
<path fill="none" stroke="midnightblue" d="M1036.73,-447.475C970,-436.627 879.195,-421.865 819.384,-412.142"/>
<polygon fill="midnightblue" stroke="midnightblue" points="819.757,-408.656 809.325,-410.506 818.634,-415.566 819.757,-408.656"/>
</g>
<!-- Node26 -->
<g id="node26" class="node"><title>Node26</title>
<g id="a_node26"><a xlink:href="ProblemListenerDefault_8hpp.html" target="_top" xlink:title=" ">
<polygon fill="none" stroke="black" points="1264,-324.5 1264,-354.5 1408,-354.5 1408,-324.5 1264,-324.5"/>
<text text-anchor="start" x="1272" y="-342.5" font-family="Helvetica,sans-Serif" font-size="10.00">xalanc/XSLT/ProblemListener</text>
<text text-anchor="middle" x="1336" y="-331.5" font-family="Helvetica,sans-Serif" font-size="10.00">Default.hpp</text>
</a>
</g>
</g>
<!-- Node1&#45;&gt;Node26 -->
<g id="edge49" class="edge"><title>Node1&#45;&gt;Node26</title>
<path fill="none" stroke="midnightblue" d="M1183.01,-447.455C1210.3,-439.393 1242.18,-427.524 1268,-411 1288.18,-398.084 1306.75,-378.028 1319.36,-362.605"/>
<polygon fill="midnightblue" stroke="midnightblue" points="1322.25,-364.595 1325.73,-354.588 1316.77,-360.241 1322.25,-364.595"/>
</g>
<!-- Node3 -->
<g id="node3" class="node"><title>Node3</title>
<g id="a_node3"><a xlink:href="PlatformDefinitions_8hpp.html" target="_top" xlink:title=" ">
<polygon fill="none" stroke="black" points="813,-73 813,-92 995,-92 995,-73 813,-73"/>
<text text-anchor="middle" x="904" y="-80" font-family="Helvetica,sans-Serif" font-size="10.00">xalanc/Include/PlatformDefinitions.hpp</text>
</a>
</g>
</g>
<!-- Node2&#45;&gt;Node3 -->
<g id="edge2" class="edge"><title>Node2&#45;&gt;Node3</title>
<path fill="none" stroke="midnightblue" d="M1180.04,-391.247C1175.77,-371.394 1166,-321.38 1166,-279 1166,-279 1166,-279 1166,-215.5 1166,-139.824 1077.75,-107.527 1003.68,-93.7467"/>
<polygon fill="midnightblue" stroke="midnightblue" points="1004.26,-90.2943 993.799,-92.0004 1003.04,-97.1874 1004.26,-90.2943"/>
</g>
<!-- Node7 -->
<g id="node7" class="node"><title>Node7</title>
<g id="a_node7"><a xlink:title=" ">
<polygon fill="none" stroke="#bfbfbf" points="1194.5,-330 1194.5,-349 1245.5,-349 1245.5,-330 1194.5,-330"/>
<text text-anchor="middle" x="1220" y="-337" font-family="Helvetica,sans-Serif" font-size="10.00">stddef.h</text>
</a>
</g>
</g>
<!-- Node2&#45;&gt;Node7 -->
<g id="edge6" class="edge"><title>Node2&#45;&gt;Node7</title>
<path fill="none" stroke="midnightblue" d="M1187.44,-391.475C1193.09,-382.638 1202.06,-368.589 1209.16,-357.475"/>
<polygon fill="midnightblue" stroke="midnightblue" points="1212.13,-359.321 1214.57,-349.009 1206.23,-355.553 1212.13,-359.321"/>
</g>
<!-- Node4 -->
<g id="node4" class="node"><title>Node4</title>
<g id="a_node4"><a xlink:title=" ">
<polygon fill="none" stroke="#bfbfbf" points="702,-0.5 702,-30.5 810,-30.5 810,-0.5 702,-0.5"/>
<text text-anchor="start" x="710" y="-18.5" font-family="Helvetica,sans-Serif" font-size="10.00">xercesc/util/Xerces</text>
<text text-anchor="middle" x="756" y="-7.5" font-family="Helvetica,sans-Serif" font-size="10.00">_autoconf_config.hpp</text>
</a>
</g>
</g>
<!-- Node3&#45;&gt;Node4 -->
<g id="edge3" class="edge"><title>Node3&#45;&gt;Node4</title>
<path fill="none" stroke="midnightblue" d="M884.347,-72.8685C862.235,-63.1572 825.695,-47.1092 797.246,-34.6148"/>
<polygon fill="midnightblue" stroke="midnightblue" points="798.504,-31.3447 787.941,-30.5281 795.689,-37.7539 798.504,-31.3447"/>
</g>
<!-- Node5 -->
<g id="node5" class="node"><title>Node5</title>
<g id="a_node5"><a xlink:title=" ">
<polygon fill="none" stroke="#bfbfbf" points="828.5,-6 828.5,-25 979.5,-25 979.5,-6 828.5,-6"/>
<text text-anchor="middle" x="904" y="-13" font-family="Helvetica,sans-Serif" font-size="10.00">xercesc/util/XercesVersion.hpp</text>
</a>
</g>
</g>
<!-- Node3&#45;&gt;Node5 -->
<g id="edge4" class="edge"><title>Node3&#45;&gt;Node5</title>
<path fill="none" stroke="midnightblue" d="M904,-72.7338C904,-63.1826 904,-47.6183 904,-35.2829"/>
<polygon fill="midnightblue" stroke="midnightblue" points="907.5,-35.1273 904,-25.1273 900.5,-35.1273 907.5,-35.1273"/>
</g>
<!-- Node6 -->
<g id="node6" class="node"><title>Node6</title>
<g id="a_node6"><a xlink:href="XalanVersion_8hpp.html" target="_top" xlink:title=" ">
<polygon fill="none" stroke="black" points="998,-6 998,-25 1090,-25 1090,-6 998,-6"/>
<text text-anchor="middle" x="1044" y="-13" font-family="Helvetica,sans-Serif" font-size="10.00">XalanVersion.hpp</text>
</a>
</g>
</g>
<!-- Node3&#45;&gt;Node6 -->
<g id="edge5" class="edge"><title>Node3&#45;&gt;Node6</title>
<path fill="none" stroke="midnightblue" d="M922.591,-72.8685C946.544,-61.7476 988.395,-42.3167 1016.15,-29.4286"/>
<polygon fill="midnightblue" stroke="midnightblue" points="1017.74,-32.5529 1025.33,-25.1672 1014.79,-26.2038 1017.74,-32.5529"/>
</g>
<!-- Node10 -->
<g id="node10" class="node"><title>Node10</title>
<g id="a_node10"><a xlink:href="XalanDOMDefinitions_8hpp.html" target="_top" xlink:title=" ">
<polygon fill="none" stroke="black" points="932,-268.5 932,-287.5 1138,-287.5 1138,-268.5 932,-268.5"/>
<text text-anchor="middle" x="1035" y="-275.5" font-family="Helvetica,sans-Serif" font-size="10.00">xalanc/XalanDOM/XalanDOMDefinitions.hpp</text>
</a>
</g>
</g>
<!-- Node9&#45;&gt;Node10 -->
<g id="edge9" class="edge"><title>Node9&#45;&gt;Node10</title>
<path fill="none" stroke="midnightblue" d="M850.848,-399.119C930.166,-396.145 1035.07,-386.197 1062,-355 1076.8,-337.851 1062.11,-312.021 1049.29,-295.333"/>
<polygon fill="midnightblue" stroke="midnightblue" points="1051.96,-293.068 1042.93,-287.534 1046.54,-297.494 1051.96,-293.068"/>
</g>
<!-- Node11 -->
<g id="node11" class="node"><title>Node11</title>
<g id="a_node11"><a xlink:title=" ">
<polygon fill="none" stroke="#bfbfbf" points="36.5,-73 36.5,-92 85.5,-92 85.5,-73 36.5,-73"/>
<text text-anchor="middle" x="61" y="-80" font-family="Helvetica,sans-Serif" font-size="10.00">cassert</text>
</a>
</g>
</g>
<!-- Node9&#45;&gt;Node11 -->
<g id="edge11" class="edge"><title>Node9&#45;&gt;Node11</title>
<path fill="none" stroke="midnightblue" d="M663.418,-394.668C460.882,-381.875 0,-345.463 0,-279 0,-279 0,-279 0,-215.5 0,-170.505 29.5674,-124.18 47.5319,-100.187"/>
<polygon fill="midnightblue" stroke="midnightblue" points="50.4114,-102.185 53.763,-92.1339 44.8752,-97.9009 50.4114,-102.185"/>
</g>
<!-- Node12 -->
<g id="node12" class="node"><title>Node12</title>
<g id="a_node12"><a xlink:href="STLHelper_8hpp.html" target="_top" xlink:title=" ">
<polygon fill="none" stroke="black" points="684,-330 684,-349 830,-349 830,-330 684,-330"/>
<text text-anchor="middle" x="757" y="-337" font-family="Helvetica,sans-Serif" font-size="10.00">xalanc/Include/STLHelper.hpp</text>
</a>
</g>
</g>
<!-- Node9&#45;&gt;Node12 -->
<g id="edge12" class="edge"><title>Node9&#45;&gt;Node12</title>
<path fill="none" stroke="midnightblue" d="M757,-391.475C757,-383.08 757,-369.981 757,-359.163"/>
<polygon fill="midnightblue" stroke="midnightblue" points="760.5,-359.009 757,-349.009 753.5,-359.009 760.5,-359.009"/>
</g>
<!-- Node18 -->
<g id="node18" class="node"><title>Node18</title>
<g id="a_node18"><a xlink:href="XalanVector_8hpp.html" target="_top" xlink:title=" ">
<polygon fill="none" stroke="black" points="275,-207 275,-226 427,-226 427,-207 275,-207"/>
<text text-anchor="middle" x="351" y="-214" font-family="Helvetica,sans-Serif" font-size="10.00">xalanc/Include/XalanVector.hpp</text>
</a>
</g>
</g>
<!-- Node9&#45;&gt;Node18 -->
<g id="edge46" class="edge"><title>Node9&#45;&gt;Node18</title>
<path fill="none" stroke="midnightblue" d="M737.962,-391.442C672.563,-362.045 456.854,-265.082 379.182,-230.168"/>
<polygon fill="midnightblue" stroke="midnightblue" points="380.552,-226.947 369.996,-226.039 377.682,-233.331 380.552,-226.947"/>
</g>
<!-- Node22 -->
<g id="node22" class="node"><title>Node22</title>
<g id="a_node22"><a xlink:href="XalanMemoryManagement_8hpp.html" target="_top" xlink:title=" ">
<polygon fill="none" stroke="black" points="142,-134.5 142,-164.5 282,-164.5 282,-134.5 142,-134.5"/>
<text text-anchor="start" x="150" y="-152.5" font-family="Helvetica,sans-Serif" font-size="10.00">xalanc/Include/XalanMemory</text>
<text text-anchor="middle" x="212" y="-141.5" font-family="Helvetica,sans-Serif" font-size="10.00">Management.hpp</text>
</a>
</g>
</g>
<!-- Node9&#45;&gt;Node22 -->
<g id="edge45" class="edge"><title>Node9&#45;&gt;Node22</title>
<path fill="none" stroke="midnightblue" d="M687.998,-391.489C585.935,-375.827 393.125,-334.135 266,-232 246.574,-216.393 231.669,-191.882 222.489,-173.813"/>
<polygon fill="midnightblue" stroke="midnightblue" points="225.501,-172.003 217.985,-164.535 219.203,-175.06 225.501,-172.003"/>
</g>
<!-- Node25 -->
<g id="node25" class="node"><title>Node25</title>
<g id="a_node25"><a xlink:href="XalanDOMException_8hpp.html" target="_top" xlink:title=" ">
<polygon fill="none" stroke="black" points="848.5,-330 848.5,-349 1053.5,-349 1053.5,-330 848.5,-330"/>
<text text-anchor="middle" x="951" y="-337" font-family="Helvetica,sans-Serif" font-size="10.00">xalanc/XalanDOM/XalanDOMException.hpp</text>
</a>
</g>
</g>
<!-- Node9&#45;&gt;Node25 -->
<g id="edge47" class="edge"><title>Node9&#45;&gt;Node25</title>
<path fill="none" stroke="midnightblue" d="M784.795,-391.475C818.65,-381.092 875.971,-363.512 913.655,-351.954"/>
<polygon fill="midnightblue" stroke="midnightblue" points="914.722,-355.288 923.256,-349.009 912.669,-348.595 914.722,-355.288"/>
</g>
<!-- Node10&#45;&gt;Node3 -->
<g id="edge10" class="edge"><title>Node10&#45;&gt;Node3</title>
<path fill="none" stroke="midnightblue" d="M1029.2,-268.436C1009.22,-238.913 942.927,-141 915.764,-100.877"/>
<polygon fill="midnightblue" stroke="midnightblue" points="918.534,-98.7255 910.03,-92.4068 912.738,-102.65 918.534,-98.7255"/>
</g>
<!-- Node12&#45;&gt;Node3 -->
<g id="edge13" class="edge"><title>Node12&#45;&gt;Node3</title>
<path fill="none" stroke="midnightblue" d="M781.363,-329.891C800.983,-321.827 828.006,-308.001 845,-288 892.052,-232.622 901.631,-141.647 903.544,-102.445"/>
<polygon fill="midnightblue" stroke="midnightblue" points="907.056,-102.159 903.924,-92.0378 900.061,-101.903 907.056,-102.159"/>
</g>
<!-- Node13 -->
<g id="node13" class="node"><title>Node13</title>
<g id="a_node13"><a xlink:title=" ">
<polygon fill="none" stroke="#bfbfbf" points="633,-140 633,-159 689,-159 689,-140 633,-140"/>
<text text-anchor="middle" x="661" y="-147" font-family="Helvetica,sans-Serif" font-size="10.00">algorithm</text>
</a>
</g>
</g>
<!-- Node12&#45;&gt;Node13 -->
<g id="edge14" class="edge"><title>Node12&#45;&gt;Node13</title>
<path fill="none" stroke="midnightblue" d="M770.523,-329.835C803.443,-307.683 882.528,-247.46 847,-201 829.163,-177.674 748.353,-162.595 699.305,-155.419"/>
<polygon fill="midnightblue" stroke="midnightblue" points="699.747,-151.947 689.355,-154.008 698.764,-158.878 699.747,-151.947"/>
</g>
<!-- Node14 -->
<g id="node14" class="node"><title>Node14</title>
<g id="a_node14"><a xlink:title=" ">
<polygon fill="none" stroke="#bfbfbf" points="780,-207 780,-226 838,-226 838,-207 780,-207"/>
<text text-anchor="middle" x="809" y="-214" font-family="Helvetica,sans-Serif" font-size="10.00">functional</text>
</a>
</g>
</g>
<!-- Node12&#45;&gt;Node14 -->
<g id="edge15" class="edge"><title>Node12&#45;&gt;Node14</title>
<path fill="none" stroke="midnightblue" d="M760.74,-329.798C769.21,-310.089 790,-261.711 801.332,-235.342"/>
<polygon fill="midnightblue" stroke="midnightblue" points="804.561,-236.693 805.294,-226.123 798.13,-233.929 804.561,-236.693"/>
</g>
<!-- Node15 -->
<g id="node15" class="node"><title>Node15</title>
<g id="a_node15"><a xlink:href="XalanMap_8hpp.html" target="_top" xlink:title=" ">
<polygon fill="none" stroke="black" points="597.5,-268.5 597.5,-287.5 740.5,-287.5 740.5,-268.5 597.5,-268.5"/>
<text text-anchor="middle" x="669" y="-275.5" font-family="Helvetica,sans-Serif" font-size="10.00">xalanc/Include/XalanMap.hpp</text>
</a>
</g>
</g>
<!-- Node12&#45;&gt;Node15 -->
<g id="edge16" class="edge"><title>Node12&#45;&gt;Node15</title>
<path fill="none" stroke="midnightblue" d="M744.392,-329.975C730.277,-320.431 707.169,-304.807 690.251,-293.368"/>
<polygon fill="midnightblue" stroke="midnightblue" points="691.829,-290.211 681.585,-287.509 687.909,-296.01 691.829,-290.211"/>
</g>
<!-- Node15&#45;&gt;Node3 -->
<g id="edge17" class="edge"><title>Node15&#45;&gt;Node3</title>
<path fill="none" stroke="midnightblue" d="M682.029,-268.412C695.163,-259.622 715.884,-245.392 733,-232 763.804,-207.897 850.009,-131.567 886.899,-98.7452"/>
<polygon fill="midnightblue" stroke="midnightblue" points="889.237,-101.35 894.378,-92.0862 884.582,-96.1223 889.237,-101.35"/>
</g>
<!-- Node15&#45;&gt;Node13 -->
<g id="edge19" class="edge"><title>Node15&#45;&gt;Node13</title>
<path fill="none" stroke="midnightblue" d="M661.849,-268.364C655.227,-259.763 645.843,-245.873 642,-232 635.962,-210.201 644.295,-184.774 651.753,-168.193"/>
<polygon fill="midnightblue" stroke="midnightblue" points="654.936,-169.65 656.147,-159.124 648.637,-166.598 654.936,-169.65"/>
</g>
<!-- Node15&#45;&gt;Node14 -->
<g id="edge20" class="edge"><title>Node15&#45;&gt;Node14</title>
<path fill="none" stroke="midnightblue" d="M689.059,-268.475C712.762,-258.401 752.406,-241.553 779.583,-230.002"/>
<polygon fill="midnightblue" stroke="midnightblue" points="781.144,-233.142 788.979,-226.009 778.406,-226.699 781.144,-233.142"/>
</g>
<!-- Node16 -->
<g id="node16" class="node"><title>Node16</title>
<g id="a_node16"><a xlink:title=" ">
<polygon fill="none" stroke="#bfbfbf" points="424,-73 424,-92 472,-92 472,-73 424,-73"/>
<text text-anchor="middle" x="448" y="-80" font-family="Helvetica,sans-Serif" font-size="10.00">cstddef</text>
</a>
</g>
</g>
<!-- Node15&#45;&gt;Node16 -->
<g id="edge18" class="edge"><title>Node15&#45;&gt;Node16</title>
<path fill="none" stroke="midnightblue" d="M668.344,-268.296C667.551,-253.884 667.171,-224.34 675,-201 685.013,-171.151 717.937,-158.367 698,-134 671.096,-101.118 544.05,-89.1568 482.114,-85.2282"/>
<polygon fill="midnightblue" stroke="midnightblue" points="482.242,-81.7297 472.05,-84.6246 481.822,-88.7172 482.242,-81.7297"/>
</g>
<!-- Node17 -->
<g id="node17" class="node"><title>Node17</title>
<g id="a_node17"><a xlink:title=" ">
<polygon fill="none" stroke="#bfbfbf" points="684,-207 684,-226 724,-226 724,-207 684,-207"/>
<text text-anchor="middle" x="704" y="-214" font-family="Helvetica,sans-Serif" font-size="10.00">utility</text>
</a>
</g>
</g>
<!-- Node15&#45;&gt;Node17 -->
<g id="edge21" class="edge"><title>Node15&#45;&gt;Node17</title>
<path fill="none" stroke="midnightblue" d="M674.015,-268.475C679.161,-259.727 687.312,-245.869 693.818,-234.809"/>
<polygon fill="midnightblue" stroke="midnightblue" points="696.941,-236.403 698.995,-226.009 690.908,-232.854 696.941,-236.403"/>
</g>
<!-- Node15&#45;&gt;Node18 -->
<g id="edge22" class="edge"><title>Node15&#45;&gt;Node18</title>
<path fill="none" stroke="midnightblue" d="M623.438,-268.475C566.174,-257.761 467.95,-239.382 406.402,-227.866"/>
<polygon fill="midnightblue" stroke="midnightblue" points="406.95,-224.408 396.477,-226.009 405.663,-231.289 406.95,-224.408"/>
</g>
<!-- Node24 -->
<g id="node24" class="node"><title>Node24</title>
<g id="a_node24"><a xlink:href="XalanList_8hpp.html" target="_top" xlink:title=" ">
<polygon fill="none" stroke="black" points="450,-207 450,-226 590,-226 590,-207 450,-207"/>
<text text-anchor="middle" x="520" y="-214" font-family="Helvetica,sans-Serif" font-size="10.00">xalanc/Include/XalanList.hpp</text>
</a>
</g>
</g>
<!-- Node15&#45;&gt;Node24 -->
<g id="edge36" class="edge"><title>Node15&#45;&gt;Node24</title>
<path fill="none" stroke="midnightblue" d="M647.652,-268.475C622.314,-258.357 579.862,-241.405 550.929,-229.851"/>
<polygon fill="midnightblue" stroke="midnightblue" points="551.893,-226.467 541.308,-226.009 549.297,-232.968 551.893,-226.467"/>
</g>
<!-- Node18&#45;&gt;Node3 -->
<g id="edge23" class="edge"><title>Node18&#45;&gt;Node3</title>
<path fill="none" stroke="midnightblue" d="M349.71,-206.777C347.763,-189.894 346.255,-152.766 367,-134 398.534,-105.474 655.666,-92.0047 802.381,-86.5867"/>
<polygon fill="midnightblue" stroke="midnightblue" points="802.882,-90.0709 812.749,-86.2104 802.629,-83.0755 802.882,-90.0709"/>
</g>
<!-- Node18&#45;&gt;Node11 -->
<g id="edge26" class="edge"><title>Node18&#45;&gt;Node11</title>
<path fill="none" stroke="midnightblue" d="M274.941,-212.865C198.709,-208.443 88.9017,-196.614 62,-165 47.3504,-147.784 50.5948,-120.318 55.1053,-102.098"/>
<polygon fill="midnightblue" stroke="midnightblue" points="58.5073,-102.929 57.8549,-92.3547 51.7705,-101.028 58.5073,-102.929"/>
</g>
<!-- Node18&#45;&gt;Node13 -->
<g id="edge25" class="edge"><title>Node18&#45;&gt;Node13</title>
<path fill="none" stroke="midnightblue" d="M391.846,-206.936C452.179,-194.285 564.293,-170.777 622.968,-158.475"/>
<polygon fill="midnightblue" stroke="midnightblue" points="623.867,-161.862 632.936,-156.384 622.43,-155.011 623.867,-161.862"/>
</g>
<!-- Node18&#45;&gt;Node16 -->
<g id="edge24" class="edge"><title>Node18&#45;&gt;Node16</title>
<path fill="none" stroke="midnightblue" d="M345.356,-206.881C335.817,-191.118 318.943,-157.139 334,-134 351.511,-107.091 386.995,-94.4115 413.75,-88.5055"/>
<polygon fill="midnightblue" stroke="midnightblue" points="414.753,-91.8746 423.88,-86.4941 413.39,-85.0086 414.753,-91.8746"/>
</g>
<!-- Node19 -->
<g id="node19" class="node"><title>Node19</title>
<g id="a_node19"><a xlink:title=" ">
<polygon fill="none" stroke="#bfbfbf" points="112,-73 112,-92 146,-92 146,-73 112,-73"/>
<text text-anchor="middle" x="129" y="-80" font-family="Helvetica,sans-Serif" font-size="10.00">new</text>
</a>
</g>
</g>
<!-- Node18&#45;&gt;Node19 -->
<g id="edge27" class="edge"><title>Node18&#45;&gt;Node19</title>
<path fill="none" stroke="midnightblue" d="M274.913,-207.595C219.534,-200.127 151.185,-186.762 133,-165 118.557,-147.716 120.512,-120.463 124.067,-102.291"/>
<polygon fill="midnightblue" stroke="midnightblue" points="127.529,-102.851 126.355,-92.321 120.707,-101.285 127.529,-102.851"/>
</g>
<!-- Node20 -->
<g id="node20" class="node"><title>Node20</title>
<g id="a_node20"><a xlink:title=" ">
<polygon fill="none" stroke="#bfbfbf" points="376.5,-140 376.5,-159 423.5,-159 423.5,-140 376.5,-140"/>
<text text-anchor="middle" x="400" y="-147" font-family="Helvetica,sans-Serif" font-size="10.00">iterator</text>
</a>
</g>
</g>
<!-- Node18&#45;&gt;Node20 -->
<g id="edge28" class="edge"><title>Node18&#45;&gt;Node20</title>
<path fill="none" stroke="midnightblue" d="M357.608,-206.734C365.176,-196.695 377.751,-180.014 387.244,-167.421"/>
<polygon fill="midnightblue" stroke="midnightblue" points="390.272,-169.219 393.496,-159.127 384.682,-165.006 390.272,-169.219"/>
</g>
<!-- Node21 -->
<g id="node21" class="node"><title>Node21</title>
<g id="a_node21"><a xlink:title=" ">
<polygon fill="none" stroke="#bfbfbf" points="441.5,-140 441.5,-159 500.5,-159 500.5,-140 441.5,-140"/>
<text text-anchor="middle" x="471" y="-147" font-family="Helvetica,sans-Serif" font-size="10.00">stdexcept</text>
</a>
</g>
</g>
<!-- Node18&#45;&gt;Node21 -->
<g id="edge29" class="edge"><title>Node18&#45;&gt;Node21</title>
<path fill="none" stroke="midnightblue" d="M367.184,-206.734C387.426,-195.769 422.297,-176.881 445.986,-164.049"/>
<polygon fill="midnightblue" stroke="midnightblue" points="447.947,-166.968 455.073,-159.127 444.613,-160.813 447.947,-166.968"/>
</g>
<!-- Node18&#45;&gt;Node22 -->
<g id="edge30" class="edge"><title>Node18&#45;&gt;Node22</title>
<path fill="none" stroke="midnightblue" d="M332.542,-206.869C311.865,-197.199 277.755,-181.249 251.087,-168.778"/>
<polygon fill="midnightblue" stroke="midnightblue" points="252.54,-165.594 241.998,-164.528 249.574,-171.935 252.54,-165.594"/>
</g>
<!-- Node22&#45;&gt;Node3 -->
<g id="edge31" class="edge"><title>Node22&#45;&gt;Node3</title>
<path fill="none" stroke="midnightblue" d="M282.28,-139.783C299.205,-137.784 317.239,-135.738 334,-134 497.785,-117.015 688.425,-100.855 802.487,-91.5712"/>
<polygon fill="midnightblue" stroke="midnightblue" points="802.919,-95.0478 812.603,-90.7496 802.352,-88.0708 802.919,-95.0478"/>
</g>
<!-- Node22&#45;&gt;Node11 -->
<g id="edge32" class="edge"><title>Node22&#45;&gt;Node11</title>
<path fill="none" stroke="midnightblue" d="M179.235,-134.396C152.741,-122.991 115.777,-107.079 90.2652,-96.0976"/>
<polygon fill="midnightblue" stroke="midnightblue" points="91.3314,-92.7461 80.7624,-92.007 88.5637,-99.1757 91.3314,-92.7461"/>
</g>
<!-- Node22&#45;&gt;Node16 -->
<g id="edge33" class="edge"><title>Node22&#45;&gt;Node16</title>
<path fill="none" stroke="midnightblue" d="M262.918,-134.476C308.665,-121.876 374.556,-103.728 414.134,-92.8276"/>
<polygon fill="midnightblue" stroke="midnightblue" points="415.129,-96.1839 423.84,-90.1541 413.27,-89.4352 415.129,-96.1839"/>
</g>
<!-- Node22&#45;&gt;Node19 -->
<g id="edge34" class="edge"><title>Node22&#45;&gt;Node19</title>
<path fill="none" stroke="midnightblue" d="M193.99,-134.396C180.408,-123.759 161.821,-109.203 148.002,-98.3813"/>
<polygon fill="midnightblue" stroke="midnightblue" points="150.133,-95.6046 140.102,-92.1945 145.817,-101.116 150.133,-95.6046"/>
</g>
<!-- Node23 -->
<g id="node23" class="node"><title>Node23</title>
<g id="a_node23"><a xlink:title=" ">
<polygon fill="none" stroke="#bfbfbf" points="164.5,-67.5 164.5,-97.5 301.5,-97.5 301.5,-67.5 164.5,-67.5"/>
<text text-anchor="start" x="172.5" y="-85.5" font-family="Helvetica,sans-Serif" font-size="10.00">xercesc/framework/Memory</text>
<text text-anchor="middle" x="233" y="-74.5" font-family="Helvetica,sans-Serif" font-size="10.00">Manager.hpp</text>
</a>
</g>
</g>
<!-- Node22&#45;&gt;Node23 -->
<g id="edge35" class="edge"><title>Node22&#45;&gt;Node23</title>
<path fill="none" stroke="midnightblue" d="M216.557,-134.396C219.116,-126.474 222.378,-116.379 225.32,-107.271"/>
<polygon fill="midnightblue" stroke="midnightblue" points="228.708,-108.168 228.452,-97.5765 222.047,-106.016 228.708,-108.168"/>
</g>
<!-- Node24&#45;&gt;Node3 -->
<g id="edge37" class="edge"><title>Node24&#45;&gt;Node3</title>
<path fill="none" stroke="midnightblue" d="M527.948,-206.941C544.207,-190.01 583.185,-152.304 624,-134 680.114,-108.836 747.873,-96.2036 802.678,-89.8659"/>
<polygon fill="midnightblue" stroke="midnightblue" points="803.199,-93.3298 812.755,-88.7542 802.432,-86.372 803.199,-93.3298"/>
</g>
<!-- Node24&#45;&gt;Node11 -->
<g id="edge40" class="edge"><title>Node24&#45;&gt;Node11</title>
<path fill="none" stroke="midnightblue" d="M472.977,-206.933C460.943,-204.865 448.009,-202.749 436,-201 301.801,-181.459 253.117,-227.952 133,-165 104.961,-150.305 82.7645,-119.897 70.7855,-100.664"/>
<polygon fill="midnightblue" stroke="midnightblue" points="73.7436,-98.7907 65.6099,-92.0014 67.7345,-102.381 73.7436,-98.7907"/>
</g>
<!-- Node24&#45;&gt;Node13 -->
<g id="edge39" class="edge"><title>Node24&#45;&gt;Node13</title>
<path fill="none" stroke="midnightblue" d="M538.724,-206.869C562.848,-195.748 604.998,-176.317 632.955,-163.429"/>
<polygon fill="midnightblue" stroke="midnightblue" points="634.583,-166.532 642.199,-159.167 631.652,-160.175 634.583,-166.532"/>
</g>
<!-- Node24&#45;&gt;Node16 -->
<g id="edge38" class="edge"><title>Node24&#45;&gt;Node16</title>
<path fill="none" stroke="midnightblue" d="M526.667,-206.816C537.75,-191.239 557.388,-157.943 543,-134 529.877,-112.162 503.769,-99.2592 482.239,-91.969"/>
<polygon fill="midnightblue" stroke="midnightblue" points="483.012,-88.5441 472.424,-88.9145 480.932,-95.228 483.012,-88.5441"/>
</g>
<!-- Node24&#45;&gt;Node19 -->
<g id="edge41" class="edge"><title>Node24&#45;&gt;Node19</title>
<path fill="none" stroke="midnightblue" d="M521.879,-206.864C524.958,-190.134 528.905,-153.262 509,-134 452.178,-79.0122 230.422,-121.748 155,-98 153.752,-97.6071 152.497,-97.1501 151.248,-96.6456"/>
<polygon fill="midnightblue" stroke="midnightblue" points="152.542,-93.3821 142.022,-92.1215 149.46,-99.667 152.542,-93.3821"/>
</g>
<!-- Node24&#45;&gt;Node20 -->
<g id="edge42" class="edge"><title>Node24&#45;&gt;Node20</title>
<path fill="none" stroke="midnightblue" d="M503.816,-206.734C483.574,-195.769 448.703,-176.881 425.014,-164.049"/>
<polygon fill="midnightblue" stroke="midnightblue" points="426.387,-160.813 415.927,-159.127 423.053,-166.968 426.387,-160.813"/>
</g>
<!-- Node24&#45;&gt;Node21 -->
<g id="edge43" class="edge"><title>Node24&#45;&gt;Node21</title>
<path fill="none" stroke="midnightblue" d="M513.392,-206.734C505.824,-196.695 493.249,-180.014 483.756,-167.421"/>
<polygon fill="midnightblue" stroke="midnightblue" points="486.318,-165.006 477.504,-159.127 480.728,-169.219 486.318,-165.006"/>
</g>
<!-- Node24&#45;&gt;Node22 -->
<g id="edge44" class="edge"><title>Node24&#45;&gt;Node22</title>
<path fill="none" stroke="midnightblue" d="M479.418,-206.936C430.985,-196.714 348.969,-179.406 288.507,-166.646"/>
<polygon fill="midnightblue" stroke="midnightblue" points="289.126,-163.2 278.619,-164.559 287.681,-170.049 289.126,-163.2"/>
</g>
<!-- Node25&#45;&gt;Node10 -->
<g id="edge48" class="edge"><title>Node25&#45;&gt;Node10</title>
<path fill="none" stroke="midnightblue" d="M963.035,-329.975C976.508,-320.431 998.566,-304.807 1014.72,-293.368"/>
<polygon fill="midnightblue" stroke="midnightblue" points="1016.85,-296.145 1022.99,-287.509 1012.8,-290.433 1016.85,-296.145"/>
</g>
<!-- Node27 -->
<g id="node27" class="node"><title>Node27</title>
<g id="a_node27"><a xlink:href="XSLTDefinitions_8hpp.html" target="_top" xlink:title=" ">
<polygon fill="none" stroke="black" points="1194.5,-207 1194.5,-226 1297.5,-226 1297.5,-207 1194.5,-207"/>
<text text-anchor="middle" x="1246" y="-214" font-family="Helvetica,sans-Serif" font-size="10.00">XSLTDefinitions.hpp</text>
</a>
</g>
</g>
<!-- Node26&#45;&gt;Node27 -->
<g id="edge50" class="edge"><title>Node26&#45;&gt;Node27</title>
<path fill="none" stroke="midnightblue" d="M1307.38,-324.347C1292.71,-315.726 1275.71,-303.396 1265,-288 1254.27,-272.577 1249.59,-251.381 1247.56,-236.266"/>
<polygon fill="midnightblue" stroke="midnightblue" points="1251.02,-235.657 1246.46,-226.09 1244.06,-236.407 1251.02,-235.657"/>
</g>
<!-- Node28 -->
<g id="node28" class="node"><title>Node28</title>
<g id="a_node28"><a xlink:href="ProblemListener_8hpp.html" target="_top" xlink:title=" ">
<polygon fill="none" stroke="black" points="1274.5,-268.5 1274.5,-287.5 1437.5,-287.5 1437.5,-268.5 1274.5,-268.5"/>
<text text-anchor="middle" x="1356" y="-275.5" font-family="Helvetica,sans-Serif" font-size="10.00">xalanc/XSLT/ProblemListener.hpp</text>
</a>
</g>
</g>
<!-- Node26&#45;&gt;Node28 -->
<g id="edge52" class="edge"><title>Node26&#45;&gt;Node28</title>
<path fill="none" stroke="midnightblue" d="M1340.74,-324.399C1343.47,-316.288 1346.92,-306.007 1349.86,-297.281"/>
<polygon fill="midnightblue" stroke="midnightblue" points="1353.22,-298.252 1353.09,-287.658 1346.59,-296.021 1353.22,-298.252"/>
</g>
<!-- Node27&#45;&gt;Node3 -->
<g id="edge51" class="edge"><title>Node27&#45;&gt;Node3</title>
<path fill="none" stroke="midnightblue" d="M1241.74,-206.909C1232.85,-189.922 1210.53,-152.118 1180,-134 1149.27,-115.765 1063.11,-101.844 995.144,-93.2817"/>
<polygon fill="midnightblue" stroke="midnightblue" points="995.186,-89.7603 984.832,-92.0056 994.326,-96.7073 995.186,-89.7603"/>
</g>
<!-- Node28&#45;&gt;Node27 -->
<g id="edge53" class="edge"><title>Node28&#45;&gt;Node27</title>
<path fill="none" stroke="midnightblue" d="M1340.24,-268.475C1322.02,-258.622 1291.83,-242.288 1270.53,-230.77"/>
<polygon fill="midnightblue" stroke="midnightblue" points="1272.19,-227.688 1261.73,-226.009 1268.86,-233.845 1272.19,-227.688"/>
</g>
<!-- Node29 -->
<g id="node29" class="node"><title>Node29</title>
<g id="a_node29"><a xlink:href="ProblemListenerBase_8hpp.html" target="_top" xlink:title=" ">
<polygon fill="none" stroke="black" points="1315.5,-201.5 1315.5,-231.5 1446.5,-231.5 1446.5,-201.5 1315.5,-201.5"/>
<text text-anchor="start" x="1323.5" y="-219.5" font-family="Helvetica,sans-Serif" font-size="10.00">xalanc/PlatformSupport</text>
<text text-anchor="middle" x="1381" y="-208.5" font-family="Helvetica,sans-Serif" font-size="10.00">/ProblemListenerBase.hpp</text>
</a>
</g>
</g>
<!-- Node28&#45;&gt;Node29 -->
<g id="edge54" class="edge"><title>Node28&#45;&gt;Node29</title>
<path fill="none" stroke="midnightblue" d="M1359.58,-268.475C1362.62,-261.245 1367.12,-250.525 1371.22,-240.779"/>
<polygon fill="midnightblue" stroke="midnightblue" points="1374.46,-242.098 1375.11,-231.523 1368.01,-239.386 1374.46,-242.098"/>
</g>
<!-- Node30 -->
<g id="node30" class="node"><title>Node30</title>
<g id="a_node30"><a xlink:href="PlatformSupportDefinitions_8hpp.html" target="_top" xlink:title=" ">
<polygon fill="none" stroke="black" points="1232.5,-134.5 1232.5,-164.5 1385.5,-164.5 1385.5,-134.5 1232.5,-134.5"/>
<text text-anchor="start" x="1240.5" y="-152.5" font-family="Helvetica,sans-Serif" font-size="10.00">xalanc/PlatformSupport</text>
<text text-anchor="middle" x="1309" y="-141.5" font-family="Helvetica,sans-Serif" font-size="10.00">/PlatformSupportDefinitions.hpp</text>
</a>
</g>
</g>
<!-- Node29&#45;&gt;Node30 -->
<g id="edge55" class="edge"><title>Node29&#45;&gt;Node30</title>
<path fill="none" stroke="midnightblue" d="M1365.38,-201.396C1355.66,-192.623 1342.99,-181.183 1332.12,-171.371"/>
<polygon fill="midnightblue" stroke="midnightblue" points="1334.36,-168.68 1324.59,-164.577 1329.67,-173.876 1334.36,-168.68"/>
</g>
<!-- Node31 -->
<g id="node31" class="node"><title>Node31</title>
<g id="a_node31"><a xlink:title=" ">
<polygon fill="none" stroke="#bfbfbf" points="1403.5,-140 1403.5,-159 1504.5,-159 1504.5,-140 1403.5,-140"/>
<text text-anchor="middle" x="1454" y="-147" font-family="Helvetica,sans-Serif" font-size="10.00">LocalMsgIndex.hpp</text>
</a>
</g>
</g>
<!-- Node29&#45;&gt;Node31 -->
<g id="edge57" class="edge"><title>Node29&#45;&gt;Node31</title>
<path fill="none" stroke="midnightblue" d="M1396.84,-201.396C1408.56,-190.96 1424.52,-176.751 1436.59,-165.998"/>
<polygon fill="midnightblue" stroke="midnightblue" points="1439.09,-168.459 1444.24,-159.195 1434.44,-163.231 1439.09,-168.459"/>
</g>
<!-- Node30&#45;&gt;Node3 -->
<g id="edge56" class="edge"><title>Node30&#45;&gt;Node3</title>
<path fill="none" stroke="midnightblue" d="M1232.35,-136.198C1155.63,-123.885 1038.98,-105.163 967.338,-93.6654"/>
<polygon fill="midnightblue" stroke="midnightblue" points="967.533,-90.152 957.105,-92.023 966.424,-97.0636 967.533,-90.152"/>
</g>
</g>
</svg>
        <g id="navigator" transform="translate(0 0)" fill="#404254">
                <rect fill="#f2f5e9" fill-opacity="0.5" stroke="#606060" stroke-width=".5" x="0" y="0" width="60" height="60"/>
                <use id="zoomplus" xlink:href="#zoomPlus" x="17" y="9" onmousedown="handleZoom(evt,'in')"/>
                <use id="zoomminus" xlink:href="#zoomMin" x="42" y="9" onmousedown="handleZoom(evt,'out')"/>
                <use id="reset" xlink:href="#resetDef" x="30" y="36" onmousedown="handleReset()"/>
                <g id="arrowUp" xlink:href="#dirArrow" transform="translate(30 24)" onmousedown="handlePan(0,-1)">
                  <use xlink:href="#rim" fill="#404040">
                        <set attributeName="fill" to="#808080" begin="arrowUp.mouseover" end="arrowUp.mouseout"/>
                  </use>
                  <path fill="none" stroke="white" stroke-width="1.5" d="M0,-3.0v7 M-2.5,-0.5L0,-3.0L2.5,-0.5"/>
                </g>
                <g id="arrowRight" xlink:href="#dirArrow" transform="rotate(90) translate(36 -43)" onmousedown="handlePan(1,0)">
                  <use xlink:href="#rim" fill="#404040">
                        <set attributeName="fill" to="#808080" begin="arrowRight.mouseover" end="arrowRight.mouseout"/>
                  </use>
                  <path fill="none" stroke="white" stroke-width="1.5" d="M0,-3.0v7 M-2.5,-0.5L0,-3.0L2.5,-0.5"/>
                </g>
                <g id="arrowDown" xlink:href="#dirArrow" transform="rotate(180) translate(-30 -48)" onmousedown="handlePan(0,1)">
                  <use xlink:href="#rim" fill="#404040">
                        <set attributeName="fill" to="#808080" begin="arrowDown.mouseover" end="arrowDown.mouseout"/>
                  </use>
                  <path fill="none" stroke="white" stroke-width="1.5" d="M0,-3.0v7 M-2.5,-0.5L0,-3.0L2.5,-0.5"/>
                </g>
                <g id="arrowLeft" xlink:href="#dirArrow" transform="rotate(270) translate(-36 17)" onmousedown="handlePan(-1,0)">
                  <use xlink:href="#rim" fill="#404040">
                        <set attributeName="fill" to="#808080" begin="arrowLeft.mouseover" end="arrowLeft.mouseout"/>
                  </use>
                  <path fill="none" stroke="white" stroke-width="1.5" d="M0,-3.0v7 M-2.5,-0.5L0,-3.0L2.5,-0.5"/>
                </g>
        </g>
        <svg viewBox="0 0 15 15" width="100%" height="30px" preserveAspectRatio="xMaxYMin meet">
         <g id="arrow_out" transform="scale(0.3 0.3)">
          <a xlink:href="XalanTransformerProblemListener_8hpp__incl_org.svg" target="_base">
           <rect id="button" ry="5" rx="5" y="6" x="6" height="38" width="38"
                fill="#f2f5e9" fill-opacity="0.5" stroke="#606060" stroke-width="1.0"/>
           <path id="arrow"
             d="M 11.500037,31.436501 C 11.940474,20.09759 22.043105,11.32322 32.158766,21.979434 L 37.068811,17.246167 C 37.068811,17.246167 37.088388,32 37.088388,32 L 22.160133,31.978069 C 22.160133,31.978069 26.997745,27.140456 26.997745,27.140456 C 18.528582,18.264221 13.291696,25.230495 11.500037,31.436501 z"
             style="fill:#404040;"/>
          </a>
         </g>
        </svg>
</svg>
