<?xml version="1.0" encoding="UTF-8" standalone="no"?>
<!DOCTYPE svg PUBLIC "-//W3C//DTD SVG 1.1//EN"
 "http://www.w3.org/Graphics/SVG/1.1/DTD/svg11.dtd">
<!-- Generated by graphviz version 2.38.0 (20140413.2041)
 -->
<!-- Title: xalanc/Include/XalanAutoPtr.hpp Pages: 1 -->
<svg width="766pt" height="374pt"
 viewBox="0.00 0.00 766.00 374.00" xmlns="http://www.w3.org/2000/svg" xmlns:xlink="http://www.w3.org/1999/xlink">
<g id="graph0" class="graph" transform="scale(1 1) rotate(0) translate(4 370)">
<title>xalanc/Include/XalanAutoPtr.hpp</title>
<!-- Node1 -->
<g id="node1" class="node"><title>Node1</title>
<g id="a_node1"><a xlink:title=" ">
<polygon fill="#bfbfbf" stroke="black" points="282,-335.5 282,-365.5 407,-365.5 407,-335.5 282,-335.5"/>
<text text-anchor="start" x="290" y="-353.5" font-family="Helvetica,sans-Serif" font-size="10.00">xalanc/Include/XalanAuto</text>
<text text-anchor="middle" x="344.5" y="-342.5" font-family="Helvetica,sans-Serif" font-size="10.00">Ptr.hpp</text>
</a>
</g>
</g>
<!-- Node2 -->
<g id="node2" class="node"><title>Node2</title>
<g id="a_node2"><a xlink:href="XalanXMLFileReporter_8hpp.html" target="_top" xlink:title=" ">
<polygon fill="none" stroke="black" points="128,-268.5 128,-298.5 273,-298.5 273,-268.5 128,-268.5"/>
<text text-anchor="start" x="136" y="-286.5" font-family="Helvetica,sans-Serif" font-size="10.00">xalanc/Harness/XalanXMLFile</text>
<text text-anchor="middle" x="200.5" y="-275.5" font-family="Helvetica,sans-Serif" font-size="10.00">Reporter.hpp</text>
</a>
</g>
</g>
<!-- Node1&#45;&gt;Node2 -->
<g id="edge1" class="edge"><title>Node1&#45;&gt;Node2</title>
<path fill="none" stroke="midnightblue" d="M304.111,-331.269C281.175,-320.916 252.9,-308.153 231.685,-298.577"/>
<polygon fill="midnightblue" stroke="midnightblue" points="302.7,-334.472 313.254,-335.396 305.58,-328.092 302.7,-334.472"/>
</g>
<!-- Node3 -->
<g id="node3" class="node"><title>Node3</title>
<g id="a_node3"><a xlink:href="XalanObjectStackCache_8hpp.html" target="_top" xlink:title=" ">
<polygon fill="none" stroke="black" points="193.5,-201.5 193.5,-231.5 327.5,-231.5 327.5,-201.5 193.5,-201.5"/>
<text text-anchor="start" x="201.5" y="-219.5" font-family="Helvetica,sans-Serif" font-size="10.00">xalanc/Include/XalanObject</text>
<text text-anchor="middle" x="260.5" y="-208.5" font-family="Helvetica,sans-Serif" font-size="10.00">StackCache.hpp</text>
</a>
</g>
</g>
<!-- Node1&#45;&gt;Node3 -->
<g id="edge2" class="edge"><title>Node1&#45;&gt;Node3</title>
<path fill="none" stroke="midnightblue" d="M330.076,-326.834C312.66,-299.466 283.908,-254.284 269.425,-231.525"/>
<polygon fill="midnightblue" stroke="midnightblue" points="327.189,-328.816 335.511,-335.374 333.095,-325.058 327.189,-328.816"/>
</g>
<!-- Node9 -->
<g id="node9" class="node"><title>Node9</title>
<g id="a_node9"><a xlink:href="URISupport_8hpp.html" target="_top" xlink:title=" ">
<polygon fill="none" stroke="black" points="329.5,-268.5 329.5,-298.5 447.5,-298.5 447.5,-268.5 329.5,-268.5"/>
<text text-anchor="start" x="337.5" y="-286.5" font-family="Helvetica,sans-Serif" font-size="10.00">xalanc/PlatformSupport</text>
<text text-anchor="middle" x="388.5" y="-275.5" font-family="Helvetica,sans-Serif" font-size="10.00">/URISupport.hpp</text>
</a>
</g>
</g>
<!-- Node1&#45;&gt;Node9 -->
<g id="edge8" class="edge"><title>Node1&#45;&gt;Node9</title>
<path fill="none" stroke="midnightblue" d="M359.821,-326.867C366.189,-317.459 373.382,-306.833 378.971,-298.577"/>
<polygon fill="midnightblue" stroke="midnightblue" points="356.755,-325.153 354.047,-335.396 362.551,-329.077 356.755,-325.153"/>
</g>
<!-- Node15 -->
<g id="node15" class="node"><title>Node15</title>
<g id="a_node15"><a xlink:href="XercesDocumentBridge_8hpp.html" target="_top" xlink:title=" ">
<polygon fill="none" stroke="black" points="465.5,-268.5 465.5,-298.5 657.5,-298.5 657.5,-268.5 465.5,-268.5"/>
<text text-anchor="start" x="473.5" y="-286.5" font-family="Helvetica,sans-Serif" font-size="10.00">xalanc/XercesParserLiaison</text>
<text text-anchor="middle" x="561.5" y="-275.5" font-family="Helvetica,sans-Serif" font-size="10.00">/Deprecated/XercesDocumentBridge.hpp</text>
</a>
</g>
</g>
<!-- Node1&#45;&gt;Node15 -->
<g id="edge17" class="edge"><title>Node1&#45;&gt;Node15</title>
<path fill="none" stroke="midnightblue" d="M400.988,-332.58C436.233,-322.022 481.069,-308.592 514.391,-298.611"/>
<polygon fill="midnightblue" stroke="midnightblue" points="399.894,-329.254 391.319,-335.476 401.902,-335.959 399.894,-329.254"/>
</g>
<!-- Node4 -->
<g id="node4" class="node"><title>Node4</title>
<g id="a_node4"><a xlink:href="StylesheetExecutionContextDefault_8hpp.html" target="_top" xlink:title=" ">
<polygon fill="none" stroke="black" points="169.5,-67.5 169.5,-97.5 333.5,-97.5 333.5,-67.5 169.5,-67.5"/>
<text text-anchor="start" x="177.5" y="-85.5" font-family="Helvetica,sans-Serif" font-size="10.00">xalanc/XSLT/StylesheetExecution</text>
<text text-anchor="middle" x="251.5" y="-74.5" font-family="Helvetica,sans-Serif" font-size="10.00">ContextDefault.hpp</text>
</a>
</g>
</g>
<!-- Node3&#45;&gt;Node4 -->
<g id="edge3" class="edge"><title>Node3&#45;&gt;Node4</title>
<path fill="none" stroke="midnightblue" d="M258.856,-191.39C256.982,-163.901 253.981,-119.888 252.456,-97.5247"/>
<polygon fill="midnightblue" stroke="midnightblue" points="255.365,-191.635 259.537,-201.374 262.348,-191.159 255.365,-191.635"/>
</g>
<!-- Node5 -->
<g id="node5" class="node"><title>Node5</title>
<g id="a_node5"><a xlink:href="ICUBridgeCollationCompareFunctorImpl_8hpp.html" target="_top" xlink:title=" ">
<polygon fill="none" stroke="black" points="0,-0.5 0,-30.5 163,-30.5 163,-0.5 0,-0.5"/>
<text text-anchor="start" x="8" y="-18.5" font-family="Helvetica,sans-Serif" font-size="10.00">xalanc/ICUBridge/ICUBridge</text>
<text text-anchor="middle" x="81.5" y="-7.5" font-family="Helvetica,sans-Serif" font-size="10.00">CollationCompareFunctorImpl.hpp</text>
</a>
</g>
</g>
<!-- Node4&#45;&gt;Node5 -->
<g id="edge4" class="edge"><title>Node4&#45;&gt;Node5</title>
<path fill="none" stroke="midnightblue" d="M205.256,-63.8185C177.931,-53.3707 143.807,-40.3231 118.315,-30.5765"/>
<polygon fill="midnightblue" stroke="midnightblue" points="204.022,-67.0937 214.613,-67.396 206.522,-60.5553 204.022,-67.0937"/>
</g>
<!-- Node6 -->
<g id="node6" class="node"><title>Node6</title>
<g id="a_node6"><a xlink:href="ICUFormatNumberFunctor_8hpp.html" target="_top" xlink:title=" ">
<polygon fill="none" stroke="black" points="181,-0.5 181,-30.5 322,-30.5 322,-0.5 181,-0.5"/>
<text text-anchor="start" x="189" y="-18.5" font-family="Helvetica,sans-Serif" font-size="10.00">xalanc/ICUBridge/ICUFormat</text>
<text text-anchor="middle" x="251.5" y="-7.5" font-family="Helvetica,sans-Serif" font-size="10.00">NumberFunctor.hpp</text>
</a>
</g>
</g>
<!-- Node4&#45;&gt;Node6 -->
<g id="edge5" class="edge"><title>Node4&#45;&gt;Node6</title>
<path fill="none" stroke="midnightblue" d="M251.5,-57.1081C251.5,-48.1539 251.5,-38.3227 251.5,-30.5765"/>
<polygon fill="midnightblue" stroke="midnightblue" points="248,-57.3959 251.5,-67.396 255,-57.396 248,-57.3959"/>
</g>
<!-- Node7 -->
<g id="node7" class="node"><title>Node7</title>
<g id="a_node7"><a xlink:href="ICUXalanNumberFormatFactory_8hpp.html" target="_top" xlink:title=" ">
<polygon fill="none" stroke="black" points="340.5,-0.5 340.5,-30.5 474.5,-30.5 474.5,-0.5 340.5,-0.5"/>
<text text-anchor="start" x="348.5" y="-18.5" font-family="Helvetica,sans-Serif" font-size="10.00">xalanc/ICUBridge/ICUXalan</text>
<text text-anchor="middle" x="407.5" y="-7.5" font-family="Helvetica,sans-Serif" font-size="10.00">NumberFormatFactory.hpp</text>
</a>
</g>
</g>
<!-- Node4&#45;&gt;Node7 -->
<g id="edge6" class="edge"><title>Node4&#45;&gt;Node7</title>
<path fill="none" stroke="midnightblue" d="M294.594,-63.5442C319.557,-53.143 350.529,-40.238 373.716,-30.5765"/>
<polygon fill="midnightblue" stroke="midnightblue" points="293.234,-60.319 285.35,-67.396 295.927,-66.7805 293.234,-60.319"/>
</g>
<!-- Node8 -->
<g id="node8" class="node"><title>Node8</title>
<g id="a_node8"><a xlink:href="XalanCompiledStylesheetDefault_8hpp.html" target="_top" xlink:title=" ">
<polygon fill="none" stroke="black" points="532,-0.5 532,-30.5 711,-30.5 711,-0.5 532,-0.5"/>
<text text-anchor="start" x="540" y="-18.5" font-family="Helvetica,sans-Serif" font-size="10.00">xalanc/XalanTransformer</text>
<text text-anchor="middle" x="621.5" y="-7.5" font-family="Helvetica,sans-Serif" font-size="10.00">/XalanCompiledStylesheetDefault.hpp</text>
</a>
</g>
</g>
<!-- Node4&#45;&gt;Node8 -->
<g id="edge7" class="edge"><title>Node4&#45;&gt;Node8</title>
<path fill="none" stroke="midnightblue" d="M341.35,-65.7155C402.456,-54.9807 482.591,-40.9029 541.495,-30.5549"/>
<polygon fill="midnightblue" stroke="midnightblue" points="340.573,-62.2984 331.329,-67.476 341.784,-69.1929 340.573,-62.2984"/>
</g>
<!-- Node10 -->
<g id="node10" class="node"><title>Node10</title>
<g id="a_node10"><a xlink:href="StylesheetConstructionContext_8hpp.html" target="_top" xlink:title=" ">
<polygon fill="none" stroke="black" points="350,-201.5 350,-231.5 525,-231.5 525,-201.5 350,-201.5"/>
<text text-anchor="start" x="358" y="-219.5" font-family="Helvetica,sans-Serif" font-size="10.00">xalanc/XSLT/StylesheetConstruction</text>
<text text-anchor="middle" x="437.5" y="-208.5" font-family="Helvetica,sans-Serif" font-size="10.00">Context.hpp</text>
</a>
</g>
</g>
<!-- Node9&#45;&gt;Node10 -->
<g id="edge9" class="edge"><title>Node9&#45;&gt;Node10</title>
<path fill="none" stroke="midnightblue" d="M405.343,-260.157C412.488,-250.679 420.6,-239.919 426.888,-231.577"/>
<polygon fill="midnightblue" stroke="midnightblue" points="402.357,-258.304 399.132,-268.396 407.947,-262.518 402.357,-258.304"/>
</g>
<!-- Node11 -->
<g id="node11" class="node"><title>Node11</title>
<g id="a_node11"><a xlink:href="Stylesheet_8hpp.html" target="_top" xlink:title=" ">
<polygon fill="none" stroke="black" points="368,-140 368,-159 507,-159 507,-140 368,-140"/>
<text text-anchor="middle" x="437.5" y="-147" font-family="Helvetica,sans-Serif" font-size="10.00">xalanc/XSLT/Stylesheet.hpp</text>
</a>
</g>
</g>
<!-- Node10&#45;&gt;Node11 -->
<g id="edge10" class="edge"><title>Node10&#45;&gt;Node11</title>
<path fill="none" stroke="midnightblue" d="M437.5,-191.25C437.5,-180.017 437.5,-167.377 437.5,-159.195"/>
<polygon fill="midnightblue" stroke="midnightblue" points="434,-191.396 437.5,-201.396 441,-191.396 434,-191.396"/>
</g>
<!-- Node14 -->
<g id="node14" class="node"><title>Node14</title>
<g id="a_node14"><a xlink:href="StylesheetConstructionContextDefault_8hpp.html" target="_top" xlink:title=" ">
<polygon fill="none" stroke="black" points="583,-134.5 583,-164.5 758,-164.5 758,-134.5 583,-134.5"/>
<text text-anchor="start" x="591" y="-152.5" font-family="Helvetica,sans-Serif" font-size="10.00">xalanc/XSLT/StylesheetConstruction</text>
<text text-anchor="middle" x="670.5" y="-141.5" font-family="Helvetica,sans-Serif" font-size="10.00">ContextDefault.hpp</text>
</a>
</g>
</g>
<!-- Node10&#45;&gt;Node14 -->
<g id="edge15" class="edge"><title>Node10&#45;&gt;Node14</title>
<path fill="none" stroke="midnightblue" d="M497.668,-198.715C535.585,-188.137 583.986,-174.635 619.918,-164.611"/>
<polygon fill="midnightblue" stroke="midnightblue" points="496.462,-195.418 487.771,-201.476 498.343,-202.16 496.462,-195.418"/>
</g>
<!-- Node11&#45;&gt;Node4 -->
<g id="edge11" class="edge"><title>Node11&#45;&gt;Node4</title>
<path fill="none" stroke="midnightblue" d="M403.133,-136.49C371.599,-125.47 324.878,-109.143 291.642,-97.5281"/>
<polygon fill="midnightblue" stroke="midnightblue" points="402.206,-139.874 412.801,-139.869 404.515,-133.265 402.206,-139.874"/>
</g>
<!-- Node12 -->
<g id="node12" class="node"><title>Node12</title>
<g id="a_node12"><a xlink:href="StylesheetHandler_8hpp.html" target="_top" xlink:title=" ">
<polygon fill="none" stroke="black" points="351.5,-73 351.5,-92 523.5,-92 523.5,-73 351.5,-73"/>
<text text-anchor="middle" x="437.5" y="-80" font-family="Helvetica,sans-Serif" font-size="10.00">xalanc/XSLT/StylesheetHandler.hpp</text>
</a>
</g>
</g>
<!-- Node11&#45;&gt;Node12 -->
<g id="edge12" class="edge"><title>Node11&#45;&gt;Node12</title>
<path fill="none" stroke="midnightblue" d="M437.5,-129.537C437.5,-117.17 437.5,-101.62 437.5,-92.1273"/>
<polygon fill="midnightblue" stroke="midnightblue" points="434,-129.734 437.5,-139.734 441,-129.734 434,-129.734"/>
</g>
<!-- Node13 -->
<g id="node13" class="node"><title>Node13</title>
<g id="a_node13"><a xlink:href="StylesheetRoot_8hpp.html" target="_top" xlink:title=" ">
<polygon fill="none" stroke="black" points="542,-73 542,-92 701,-92 701,-73 542,-73"/>
<text text-anchor="middle" x="621.5" y="-80" font-family="Helvetica,sans-Serif" font-size="10.00">xalanc/XSLT/StylesheetRoot.hpp</text>
</a>
</g>
</g>
<!-- Node11&#45;&gt;Node13 -->
<g id="edge13" class="edge"><title>Node11&#45;&gt;Node13</title>
<path fill="none" stroke="midnightblue" d="M471.649,-136.436C508.151,-123.542 565.099,-103.424 597.258,-92.0637"/>
<polygon fill="midnightblue" stroke="midnightblue" points="470.197,-133.237 461.934,-139.869 472.529,-139.838 470.197,-133.237"/>
</g>
<!-- Node13&#45;&gt;Node8 -->
<g id="edge14" class="edge"><title>Node13&#45;&gt;Node8</title>
<path fill="none" stroke="midnightblue" d="M621.5,-62.4107C621.5,-52.222 621.5,-39.901 621.5,-30.589"/>
<polygon fill="midnightblue" stroke="midnightblue" points="618,-62.7338 621.5,-72.7338 625,-62.7338 618,-62.7338"/>
</g>
<!-- Node14&#45;&gt;Node8 -->
<g id="edge16" class="edge"><title>Node14&#45;&gt;Node8</title>
<path fill="none" stroke="midnightblue" d="M693.215,-126.743C707.764,-110.07 721.952,-86.6644 710.5,-67 700.666,-50.1128 682.851,-38.4141 665.729,-30.563"/>
<polygon fill="midnightblue" stroke="midnightblue" points="690.397,-124.633 686.154,-134.341 695.525,-129.399 690.397,-124.633"/>
</g>
</g>
</svg>
