<?xml version="1.0" encoding="UTF-8" standalone="no"?>
<!DOCTYPE svg PUBLIC "-//W3C//DTD SVG 1.1//EN"
 "http://www.w3.org/Graphics/SVG/1.1/DTD/svg11.dtd">
<!-- Generated by graphviz version 2.38.0 (20140413.2041)
 -->
<!-- Title: xalanc/XalanEXSLT/XalanEXSLTDefinitions.hpp Pages: 1 -->
<!--zoomable 95 -->
<svg id="main" version="1.1" xmlns="http://www.w3.org/2000/svg" xmlns:xlink="http://www.w3.org/1999/xlink" xml:space="preserve" onload="init(evt)">
<style type="text/css"><![CDATA[
.edge:hover path { stroke: red; }
.edge:hover polygon { stroke: red; fill: red; }
]]></style>
<script type="text/javascript"><![CDATA[
var edges = document.getElementsByTagName('g');
if (edges && edges.length) {
  for (var i=0;i<edges.length;i++) {
    if (edges[i].id.substr(0,4)=='edge') {
      edges[i].setAttribute('class','edge');
    }
  }
}
]]></script>
        <defs>
                <circle id="rim" cx="0" cy="0" r="7"/>
                <circle id="rim2" cx="0" cy="0" r="3.5"/>
                <g id="zoomPlus">
                        <use xlink:href="#rim" fill="#404040">
                                <set attributeName="fill" to="#808080" begin="zoomplus.mouseover" end="zoomplus.mouseout"/>
                        </use>
                        <path d="M-4,0h8M0,-4v8" fill="none" stroke="white" stroke-width="1.5" pointer-events="none"/>
                </g>
                <g id="zoomMin">
                        <use xlink:href="#rim" fill="#404040">
                                <set attributeName="fill" to="#808080" begin="zoomminus.mouseover" end="zoomminus.mouseout"/>
                        </use>
                        <path d="M-4,0h8" fill="none" stroke="white" stroke-width="1.5" pointer-events="none"/>
                </g>
                <g id="dirArrow">
                        <path fill="none" stroke="white" stroke-width="1.5" d="M0,-3.0v7 M-2.5,-0.5L0,-3.0L2.5,-0.5"/>
                </g>
               <g id="resetDef">
                       <use xlink:href="#rim2" fill="#404040">
                               <set attributeName="fill" to="#808080" begin="reset.mouseover" end="reset.mouseout"/>
                       </use>
               </g>
        </defs>

<script type="text/javascript">
var viewWidth = 2496;
var viewHeight = 95;
var sectionId = 'dynsection-1';
</script>
<script xlink:href="svgpan.js"/>
<svg id="graph" class="graph">
<g id="viewport">
<title>xalanc/XalanEXSLT/XalanEXSLTDefinitions.hpp</title>
<!-- Node1 -->
<g id="node1" class="node"><title>Node1</title>
<g id="a_node1"><a xlink:title=" ">
<polygon fill="#bfbfbf" stroke="black" points="1160,-67.5 1160,-86.5 1380,-86.5 1380,-67.5 1160,-67.5"/>
<text text-anchor="middle" x="1270" y="-74.5" font-family="Helvetica,sans-Serif" font-size="10.00">xalanc/XalanEXSLT/XalanEXSLTDefinitions.hpp</text>
</a>
</g>
</g>
<!-- Node2 -->
<g id="node2" class="node"><title>Node2</title>
<g id="a_node2"><a xlink:href="XalanEXSLTCommon_8hpp.html" target="_top" xlink:title=" ">
<polygon fill="none" stroke="black" points="0,-6 0,-25 214,-25 214,-6 0,-6"/>
<text text-anchor="middle" x="107" y="-13" font-family="Helvetica,sans-Serif" font-size="10.00">xalanc/XalanEXSLT/XalanEXSLTCommon.hpp</text>
</a>
</g>
</g>
<!-- Node1&#45;&gt;Node2 -->
<g id="edge1" class="edge"><title>Node1&#45;&gt;Node2</title>
<path fill="none" stroke="midnightblue" d="M1149.5,-74.0063C954.516,-70.0643 557.857,-59.0777 223,-31 205,-29.4907 185.495,-27.2783 167.708,-25.0341"/>
<polygon fill="midnightblue" stroke="midnightblue" points="1149.71,-77.5109 1159.77,-74.2112 1149.85,-70.5123 1149.71,-77.5109"/>
</g>
<!-- Node3 -->
<g id="node3" class="node"><title>Node3</title>
<g id="a_node3"><a xlink:href="XalanEXSLTCommonImpl_8hpp.html" target="_top" xlink:title=" ">
<polygon fill="none" stroke="black" points="232.5,-0.5 232.5,-30.5 427.5,-30.5 427.5,-0.5 232.5,-0.5"/>
<text text-anchor="start" x="240.5" y="-18.5" font-family="Helvetica,sans-Serif" font-size="10.00">xalanc/XalanEXSLT/XalanEXSLTCommon</text>
<text text-anchor="middle" x="330" y="-7.5" font-family="Helvetica,sans-Serif" font-size="10.00">Impl.hpp</text>
</a>
</g>
</g>
<!-- Node1&#45;&gt;Node3 -->
<g id="edge2" class="edge"><title>Node1&#45;&gt;Node3</title>
<path fill="none" stroke="midnightblue" d="M1149.97,-72.5582C987.881,-67.2159 690.151,-54.9512 437,-31 433.921,-30.7087 430.794,-30.3946 427.638,-30.0621"/>
<polygon fill="midnightblue" stroke="midnightblue" points="1149.86,-76.0564 1159.97,-72.8847 1150.09,-69.0602 1149.86,-76.0564"/>
</g>
<!-- Node4 -->
<g id="node4" class="node"><title>Node4</title>
<g id="a_node4"><a xlink:href="XalanEXSLTDateTime_8hpp.html" target="_top" xlink:title=" ">
<polygon fill="none" stroke="black" points="446,-0.5 446,-30.5 622,-30.5 622,-0.5 446,-0.5"/>
<text text-anchor="start" x="454" y="-18.5" font-family="Helvetica,sans-Serif" font-size="10.00">xalanc/XalanEXSLT/XalanEXSLTDate</text>
<text text-anchor="middle" x="534" y="-7.5" font-family="Helvetica,sans-Serif" font-size="10.00">Time.hpp</text>
</a>
</g>
</g>
<!-- Node1&#45;&gt;Node4 -->
<g id="edge3" class="edge"><title>Node1&#45;&gt;Node4</title>
<path fill="none" stroke="midnightblue" d="M1149.53,-70.326C1020.88,-63.6106 811.151,-50.7777 631,-31 628.123,-30.6841 625.2,-30.3462 622.25,-29.9907"/>
<polygon fill="midnightblue" stroke="midnightblue" points="1149.63,-73.836 1159.8,-70.8582 1150,-66.8454 1149.63,-73.836"/>
</g>
<!-- Node5 -->
<g id="node5" class="node"><title>Node5</title>
<g id="a_node5"><a xlink:href="XalanEXSLTDateTimeImpl_8hpp.html" target="_top" xlink:title=" ">
<polygon fill="none" stroke="black" points="640,-0.5 640,-30.5 816,-30.5 816,-0.5 640,-0.5"/>
<text text-anchor="start" x="648" y="-18.5" font-family="Helvetica,sans-Serif" font-size="10.00">xalanc/XalanEXSLT/XalanEXSLTDate</text>
<text text-anchor="middle" x="728" y="-7.5" font-family="Helvetica,sans-Serif" font-size="10.00">TimeImpl.hpp</text>
</a>
</g>
</g>
<!-- Node1&#45;&gt;Node5 -->
<g id="edge4" class="edge"><title>Node1&#45;&gt;Node5</title>
<path fill="none" stroke="midnightblue" d="M1162.66,-66.5887C1072.42,-58.3316 940.111,-45.4156 825,-31 822.043,-30.6297 819.038,-30.2423 816.003,-29.8418"/>
<polygon fill="midnightblue" stroke="midnightblue" points="1162.35,-70.0749 1172.62,-67.4975 1162.98,-63.1038 1162.35,-70.0749"/>
</g>
<!-- Node6 -->
<g id="node6" class="node"><title>Node6</title>
<g id="a_node6"><a xlink:href="XalanEXSLTDynamic_8hpp.html" target="_top" xlink:title=" ">
<polygon fill="none" stroke="black" points="834.5,-6 834.5,-25 1047.5,-25 1047.5,-6 834.5,-6"/>
<text text-anchor="middle" x="941" y="-13" font-family="Helvetica,sans-Serif" font-size="10.00">xalanc/XalanEXSLT/XalanEXSLTDynamic.hpp</text>
</a>
</g>
</g>
<!-- Node1&#45;&gt;Node6 -->
<g id="edge5" class="edge"><title>Node1&#45;&gt;Node6</title>
<path fill="none" stroke="midnightblue" d="M1212.98,-65.6881C1149.29,-54.17 1047.38,-35.7381 988.05,-25.0091"/>
<polygon fill="midnightblue" stroke="midnightblue" points="1212.4,-69.1395 1222.86,-67.4751 1213.64,-62.2512 1212.4,-69.1395"/>
</g>
<!-- Node7 -->
<g id="node7" class="node"><title>Node7</title>
<g id="a_node7"><a xlink:href="XalanEXSLTDynamicImpl_8hpp.html" target="_top" xlink:title=" ">
<polygon fill="none" stroke="black" points="1066,-0.5 1066,-30.5 1260,-30.5 1260,-0.5 1066,-0.5"/>
<text text-anchor="start" x="1074" y="-18.5" font-family="Helvetica,sans-Serif" font-size="10.00">xalanc/XalanEXSLT/XalanEXSLTDynamic</text>
<text text-anchor="middle" x="1163" y="-7.5" font-family="Helvetica,sans-Serif" font-size="10.00">Impl.hpp</text>
</a>
</g>
</g>
<!-- Node1&#45;&gt;Node7 -->
<g id="edge6" class="edge"><title>Node1&#45;&gt;Node7</title>
<path fill="none" stroke="midnightblue" d="M1245.8,-62.5423C1228.62,-52.9907 1205.62,-40.1992 1188.22,-30.523"/>
<polygon fill="midnightblue" stroke="midnightblue" points="1244.23,-65.674 1254.67,-67.4751 1247.63,-59.5563 1244.23,-65.674"/>
</g>
<!-- Node8 -->
<g id="node8" class="node"><title>Node8</title>
<g id="a_node8"><a xlink:href="XalanEXSLTMath_8hpp.html" target="_top" xlink:title=" ">
<polygon fill="none" stroke="black" points="1278.5,-6 1278.5,-25 1475.5,-25 1475.5,-6 1278.5,-6"/>
<text text-anchor="middle" x="1377" y="-13" font-family="Helvetica,sans-Serif" font-size="10.00">xalanc/XalanEXSLT/XalanEXSLTMath.hpp</text>
</a>
</g>
</g>
<!-- Node1&#45;&gt;Node8 -->
<g id="edge7" class="edge"><title>Node1&#45;&gt;Node8</title>
<path fill="none" stroke="midnightblue" d="M1294.18,-62.5565C1314.88,-51.0417 1344.07,-34.8109 1361.7,-25.0091"/>
<polygon fill="midnightblue" stroke="midnightblue" points="1292.37,-59.5563 1285.33,-67.4751 1295.77,-65.674 1292.37,-59.5563"/>
</g>
<!-- Node9 -->
<g id="node9" class="node"><title>Node9</title>
<g id="a_node9"><a xlink:href="XalanEXSLTMathImpl_8hpp.html" target="_top" xlink:title=" ">
<polygon fill="none" stroke="black" points="1494,-0.5 1494,-30.5 1672,-30.5 1672,-0.5 1494,-0.5"/>
<text text-anchor="start" x="1502" y="-18.5" font-family="Helvetica,sans-Serif" font-size="10.00">xalanc/XalanEXSLT/XalanEXSLTMath</text>
<text text-anchor="middle" x="1583" y="-7.5" font-family="Helvetica,sans-Serif" font-size="10.00">Impl.hpp</text>
</a>
</g>
</g>
<!-- Node1&#45;&gt;Node9 -->
<g id="edge8" class="edge"><title>Node1&#45;&gt;Node9</title>
<path fill="none" stroke="midnightblue" d="M1324.72,-65.5975C1375.89,-55.8717 1452.67,-41.2743 1509.23,-30.523"/>
<polygon fill="midnightblue" stroke="midnightblue" points="1324.02,-62.1691 1314.85,-67.4751 1325.32,-69.0459 1324.02,-62.1691"/>
</g>
<!-- Node10 -->
<g id="node10" class="node"><title>Node10</title>
<g id="a_node10"><a xlink:href="XalanEXSLTSet_8hpp.html" target="_top" xlink:title=" ">
<polygon fill="none" stroke="black" points="1690,-6 1690,-25 1880,-25 1880,-6 1690,-6"/>
<text text-anchor="middle" x="1785" y="-13" font-family="Helvetica,sans-Serif" font-size="10.00">xalanc/XalanEXSLT/XalanEXSLTSet.hpp</text>
</a>
</g>
</g>
<!-- Node1&#45;&gt;Node10 -->
<g id="edge9" class="edge"><title>Node1&#45;&gt;Node10</title>
<path fill="none" stroke="midnightblue" d="M1364.66,-66.4358C1448.02,-57.8223 1572.68,-44.4781 1681,-31 1695.65,-29.1767 1711.45,-27.0556 1726.19,-25.0076"/>
<polygon fill="midnightblue" stroke="midnightblue" points="1364.29,-62.9553 1354.7,-67.4625 1365.01,-69.9184 1364.29,-62.9553"/>
</g>
<!-- Node11 -->
<g id="node11" class="node"><title>Node11</title>
<g id="a_node11"><a xlink:href="XalanEXSLTSetImpl_8hpp.html" target="_top" xlink:title=" ">
<polygon fill="none" stroke="black" points="1898.5,-0.5 1898.5,-30.5 2069.5,-30.5 2069.5,-0.5 1898.5,-0.5"/>
<text text-anchor="start" x="1906.5" y="-18.5" font-family="Helvetica,sans-Serif" font-size="10.00">xalanc/XalanEXSLT/XalanEXSLTSet</text>
<text text-anchor="middle" x="1984" y="-7.5" font-family="Helvetica,sans-Serif" font-size="10.00">Impl.hpp</text>
</a>
</g>
</g>
<!-- Node1&#45;&gt;Node11 -->
<g id="edge10" class="edge"><title>Node1&#45;&gt;Node11</title>
<path fill="none" stroke="midnightblue" d="M1390.45,-70.0627C1515.38,-63.2446 1716.25,-50.4324 1889,-31 1892.07,-30.655 1895.19,-30.2841 1898.34,-29.8929"/>
<polygon fill="midnightblue" stroke="midnightblue" points="1389.9,-66.5877 1380.1,-70.6236 1390.27,-73.5775 1389.9,-66.5877"/>
</g>
<!-- Node12 -->
<g id="node12" class="node"><title>Node12</title>
<g id="a_node12"><a xlink:href="XalanEXSLTString_8hpp.html" target="_top" xlink:title=" ">
<polygon fill="none" stroke="black" points="2088,-6 2088,-25 2288,-25 2288,-6 2088,-6"/>
<text text-anchor="middle" x="2188" y="-13" font-family="Helvetica,sans-Serif" font-size="10.00">xalanc/XalanEXSLT/XalanEXSLTString.hpp</text>
</a>
</g>
</g>
<!-- Node1&#45;&gt;Node12 -->
<g id="edge11" class="edge"><title>Node1&#45;&gt;Node12</title>
<path fill="none" stroke="midnightblue" d="M1390.35,-72.1885C1548.57,-66.5176 1835.07,-53.9749 2079,-31 2095.73,-29.4247 2113.83,-27.219 2130.39,-25.0025"/>
<polygon fill="midnightblue" stroke="midnightblue" points="1389.99,-68.6992 1380.12,-72.5521 1390.23,-75.6947 1389.99,-68.6992"/>
</g>
<!-- Node13 -->
<g id="node13" class="node"><title>Node13</title>
<g id="a_node13"><a xlink:href="XalanEXSLTStringImpl_8hpp.html" target="_top" xlink:title=" ">
<polygon fill="none" stroke="black" points="2306,-0.5 2306,-30.5 2488,-30.5 2488,-0.5 2306,-0.5"/>
<text text-anchor="start" x="2314" y="-18.5" font-family="Helvetica,sans-Serif" font-size="10.00">xalanc/XalanEXSLT/XalanEXSLTString</text>
<text text-anchor="middle" x="2397" y="-7.5" font-family="Helvetica,sans-Serif" font-size="10.00">Impl.hpp</text>
</a>
</g>
</g>
<!-- Node1&#45;&gt;Node13 -->
<g id="edge12" class="edge"><title>Node1&#45;&gt;Node13</title>
<path fill="none" stroke="midnightblue" d="M1390.18,-74.6336C1582.21,-71.5737 1969.92,-61.8012 2297,-31 2299.88,-30.7286 2302.81,-30.432 2305.76,-30.1145"/>
<polygon fill="midnightblue" stroke="midnightblue" points="1390,-71.1358 1380.06,-74.7915 1390.11,-78.135 1390,-71.1358"/>
</g>
</g>
</svg>
        <g id="navigator" transform="translate(0 0)" fill="#404254">
                <rect fill="#f2f5e9" fill-opacity="0.5" stroke="#606060" stroke-width=".5" x="0" y="0" width="60" height="60"/>
                <use id="zoomplus" xlink:href="#zoomPlus" x="17" y="9" onmousedown="handleZoom(evt,'in')"/>
                <use id="zoomminus" xlink:href="#zoomMin" x="42" y="9" onmousedown="handleZoom(evt,'out')"/>
                <use id="reset" xlink:href="#resetDef" x="30" y="36" onmousedown="handleReset()"/>
                <g id="arrowUp" xlink:href="#dirArrow" transform="translate(30 24)" onmousedown="handlePan(0,-1)">
                  <use xlink:href="#rim" fill="#404040">
                        <set attributeName="fill" to="#808080" begin="arrowUp.mouseover" end="arrowUp.mouseout"/>
                  </use>
                  <path fill="none" stroke="white" stroke-width="1.5" d="M0,-3.0v7 M-2.5,-0.5L0,-3.0L2.5,-0.5"/>
                </g>
                <g id="arrowRight" xlink:href="#dirArrow" transform="rotate(90) translate(36 -43)" onmousedown="handlePan(1,0)">
                  <use xlink:href="#rim" fill="#404040">
                        <set attributeName="fill" to="#808080" begin="arrowRight.mouseover" end="arrowRight.mouseout"/>
                  </use>
                  <path fill="none" stroke="white" stroke-width="1.5" d="M0,-3.0v7 M-2.5,-0.5L0,-3.0L2.5,-0.5"/>
                </g>
                <g id="arrowDown" xlink:href="#dirArrow" transform="rotate(180) translate(-30 -48)" onmousedown="handlePan(0,1)">
                  <use xlink:href="#rim" fill="#404040">
                        <set attributeName="fill" to="#808080" begin="arrowDown.mouseover" end="arrowDown.mouseout"/>
                  </use>
                  <path fill="none" stroke="white" stroke-width="1.5" d="M0,-3.0v7 M-2.5,-0.5L0,-3.0L2.5,-0.5"/>
                </g>
                <g id="arrowLeft" xlink:href="#dirArrow" transform="rotate(270) translate(-36 17)" onmousedown="handlePan(-1,0)">
                  <use xlink:href="#rim" fill="#404040">
                        <set attributeName="fill" to="#808080" begin="arrowLeft.mouseover" end="arrowLeft.mouseout"/>
                  </use>
                  <path fill="none" stroke="white" stroke-width="1.5" d="M0,-3.0v7 M-2.5,-0.5L0,-3.0L2.5,-0.5"/>
                </g>
        </g>
        <svg viewBox="0 0 15 15" width="100%" height="30px" preserveAspectRatio="xMaxYMin meet">
         <g id="arrow_out" transform="scale(0.3 0.3)">
          <a xlink:href="XalanEXSLTDefinitions_8hpp__dep__incl_org.svg" target="_base">
           <rect id="button" ry="5" rx="5" y="6" x="6" height="38" width="38"
                fill="#f2f5e9" fill-opacity="0.5" stroke="#606060" stroke-width="1.0"/>
           <path id="arrow"
             d="M 11.500037,31.436501 C 11.940474,20.09759 22.043105,11.32322 32.158766,21.979434 L 37.068811,17.246167 C 37.068811,17.246167 37.088388,32 37.088388,32 L 22.160133,31.978069 C 22.160133,31.978069 26.997745,27.140456 26.997745,27.140456 C 18.528582,18.264221 13.291696,25.230495 11.500037,31.436501 z"
             style="fill:#404040;"/>
          </a>
         </g>
        </svg>
</svg>
