<?xml version="1.0" encoding="UTF-8" standalone="no"?>
<!DOCTYPE svg PUBLIC "-//W3C//DTD SVG 1.1//EN"
 "http://www.w3.org/Graphics/SVG/1.1/DTD/svg11.dtd">
<!-- Generated by graphviz version 2.38.0 (20140413.2041)
 -->
<!-- Title: xalanc/XalanDOM/XalanDOMImplementation.hpp Pages: 1 -->
<svg width="410pt" height="106pt"
 viewBox="0.00 0.00 409.50 106.00" xmlns="http://www.w3.org/2000/svg" xmlns:xlink="http://www.w3.org/1999/xlink">
<g id="graph0" class="graph" transform="scale(1 1) rotate(0) translate(4 102)">
<title>xalanc/XalanDOM/XalanDOMImplementation.hpp</title>
<!-- Node1 -->
<g id="node1" class="node"><title>Node1</title>
<g id="a_node1"><a xlink:title=" ">
<polygon fill="#bfbfbf" stroke="black" points="86.5,-78.5 86.5,-97.5 313.5,-97.5 313.5,-78.5 86.5,-78.5"/>
<text text-anchor="middle" x="200" y="-85.5" font-family="Helvetica,sans-Serif" font-size="10.00">xalanc/XalanDOM/XalanDOMImplementation.hpp</text>
</a>
</g>
</g>
<!-- Node2 -->
<g id="node2" class="node"><title>Node2</title>
<g id="a_node2"><a xlink:href="XercesDOMImplementationBridge_8hpp.html" target="_top" xlink:title=" ">
<polygon fill="none" stroke="black" points="0,-0.5 0,-41.5 190,-41.5 190,-0.5 0,-0.5"/>
<text text-anchor="start" x="8" y="-29.5" font-family="Helvetica,sans-Serif" font-size="10.00">xalanc/XercesParserLiaison</text>
<text text-anchor="start" x="8" y="-18.5" font-family="Helvetica,sans-Serif" font-size="10.00">/Deprecated/XercesDOMImplementation</text>
<text text-anchor="middle" x="95" y="-7.5" font-family="Helvetica,sans-Serif" font-size="10.00">Bridge.hpp</text>
</a>
</g>
</g>
<!-- Node1&#45;&gt;Node2 -->
<g id="edge1" class="edge"><title>Node1&#45;&gt;Node2</title>
<path fill="none" stroke="midnightblue" d="M177.291,-72.9422C162.465,-63.764 142.9,-51.6527 126.568,-41.5421"/>
<polygon fill="midnightblue" stroke="midnightblue" points="175.494,-75.9462 185.839,-78.2338 179.179,-69.9943 175.494,-75.9462"/>
</g>
<!-- Node3 -->
<g id="node3" class="node"><title>Node3</title>
<g id="a_node3"><a xlink:href="XercesDOMImplementationWrapper_8hpp.html" target="_top" xlink:title=" ">
<polygon fill="none" stroke="black" points="208.5,-6 208.5,-36 401.5,-36 401.5,-6 208.5,-6"/>
<text text-anchor="start" x="216.5" y="-24" font-family="Helvetica,sans-Serif" font-size="10.00">xalanc/XercesParserLiaison</text>
<text text-anchor="middle" x="305" y="-13" font-family="Helvetica,sans-Serif" font-size="10.00">/XercesDOMImplementationWrapper.hpp</text>
</a>
</g>
</g>
<!-- Node1&#45;&gt;Node3 -->
<g id="edge2" class="edge"><title>Node1&#45;&gt;Node3</title>
<path fill="none" stroke="midnightblue" d="M222.69,-72.9538C240.303,-62.0506 264.611,-47.003 282.241,-36.089"/>
<polygon fill="midnightblue" stroke="midnightblue" points="220.821,-69.9943 214.161,-78.2338 224.506,-75.9462 220.821,-69.9943"/>
</g>
</g>
</svg>
