<?xml version="1.0" encoding="UTF-8" standalone="no"?>
<!DOCTYPE svg PUBLIC "-//W3C//DTD SVG 1.1//EN"
 "http://www.w3.org/Graphics/SVG/1.1/DTD/svg11.dtd">
<!-- Generated by graphviz version 2.38.0 (20140413.2041)
 -->
<!-- Title: xalanc/XalanSourceTree/XalanSourceTreeDocumentFragment.hpp Pages: 1 -->
<svg width="680pt" height="240pt"
 viewBox="0.00 0.00 680.00 240.00" xmlns="http://www.w3.org/2000/svg" xmlns:xlink="http://www.w3.org/1999/xlink">
<g id="graph0" class="graph" transform="scale(1 1) rotate(0) translate(4 236)">
<title>xalanc/XalanSourceTree/XalanSourceTreeDocumentFragment.hpp</title>
<!-- Node1 -->
<g id="node1" class="node"><title>Node1</title>
<g id="a_node1"><a xlink:title=" ">
<polygon fill="#bfbfbf" stroke="black" points="231,-201.5 231,-231.5 428,-231.5 428,-201.5 231,-201.5"/>
<text text-anchor="start" x="239" y="-219.5" font-family="Helvetica,sans-Serif" font-size="10.00">xalanc/XalanSourceTree</text>
<text text-anchor="middle" x="329.5" y="-208.5" font-family="Helvetica,sans-Serif" font-size="10.00">/XalanSourceTreeDocumentFragment.hpp</text>
</a>
</g>
</g>
<!-- Node2 -->
<g id="node2" class="node"><title>Node2</title>
<g id="a_node2"><a xlink:href="StylesheetExecutionContextDefault_8hpp.html" target="_top" xlink:title=" ">
<polygon fill="none" stroke="black" points="247.5,-67.5 247.5,-97.5 411.5,-97.5 411.5,-67.5 247.5,-67.5"/>
<text text-anchor="start" x="255.5" y="-85.5" font-family="Helvetica,sans-Serif" font-size="10.00">xalanc/XSLT/StylesheetExecution</text>
<text text-anchor="middle" x="329.5" y="-74.5" font-family="Helvetica,sans-Serif" font-size="10.00">ContextDefault.hpp</text>
</a>
</g>
</g>
<!-- Node1&#45;&gt;Node2 -->
<g id="edge1" class="edge"><title>Node1&#45;&gt;Node2</title>
<path fill="none" stroke="midnightblue" d="M309.794,-193.302C303.654,-185.005 297.666,-175.125 294.5,-165 290.389,-151.85 290.389,-147.15 294.5,-134 298.766,-120.357 308.155,-107.16 316.136,-97.6806"/>
<polygon fill="midnightblue" stroke="midnightblue" points="307.187,-195.648 316.136,-201.319 312.677,-191.305 307.187,-195.648"/>
</g>
<!-- Node7 -->
<g id="node7" class="node"><title>Node7</title>
<g id="a_node7"><a xlink:href="XalanSourceTreeDocumentFragmentAllocator_8hpp.html" target="_top" xlink:title=" ">
<polygon fill="none" stroke="black" points="304,-134.5 304,-164.5 463,-164.5 463,-134.5 304,-134.5"/>
<text text-anchor="start" x="312" y="-152.5" font-family="Helvetica,sans-Serif" font-size="10.00">xalanc/XSLT/XalanSourceTree</text>
<text text-anchor="middle" x="383.5" y="-141.5" font-family="Helvetica,sans-Serif" font-size="10.00">DocumentFragmentAllocator.hpp</text>
</a>
</g>
</g>
<!-- Node1&#45;&gt;Node7 -->
<g id="edge6" class="edge"><title>Node1&#45;&gt;Node7</title>
<path fill="none" stroke="midnightblue" d="M347.821,-193.447C355.753,-183.899 364.805,-173.004 371.806,-164.577"/>
<polygon fill="midnightblue" stroke="midnightblue" points="344.915,-191.467 341.217,-201.396 350.3,-195.941 344.915,-191.467"/>
</g>
<!-- Node3 -->
<g id="node3" class="node"><title>Node3</title>
<g id="a_node3"><a xlink:href="ICUBridgeCollationCompareFunctorImpl_8hpp.html" target="_top" xlink:title=" ">
<polygon fill="none" stroke="black" points="0,-0.5 0,-30.5 163,-30.5 163,-0.5 0,-0.5"/>
<text text-anchor="start" x="8" y="-18.5" font-family="Helvetica,sans-Serif" font-size="10.00">xalanc/ICUBridge/ICUBridge</text>
<text text-anchor="middle" x="81.5" y="-7.5" font-family="Helvetica,sans-Serif" font-size="10.00">CollationCompareFunctorImpl.hpp</text>
</a>
</g>
</g>
<!-- Node2&#45;&gt;Node3 -->
<g id="edge2" class="edge"><title>Node2&#45;&gt;Node3</title>
<path fill="none" stroke="midnightblue" d="M266.23,-64.9171C225.759,-54.3099 173.828,-40.6988 135.339,-30.6109"/>
<polygon fill="midnightblue" stroke="midnightblue" points="265.432,-68.3262 275.993,-67.476 267.207,-61.5549 265.432,-68.3262"/>
</g>
<!-- Node4 -->
<g id="node4" class="node"><title>Node4</title>
<g id="a_node4"><a xlink:href="ICUFormatNumberFunctor_8hpp.html" target="_top" xlink:title=" ">
<polygon fill="none" stroke="black" points="181,-0.5 181,-30.5 322,-30.5 322,-0.5 181,-0.5"/>
<text text-anchor="start" x="189" y="-18.5" font-family="Helvetica,sans-Serif" font-size="10.00">xalanc/ICUBridge/ICUFormat</text>
<text text-anchor="middle" x="251.5" y="-7.5" font-family="Helvetica,sans-Serif" font-size="10.00">NumberFunctor.hpp</text>
</a>
</g>
</g>
<!-- Node2&#45;&gt;Node4 -->
<g id="edge3" class="edge"><title>Node2&#45;&gt;Node4</title>
<path fill="none" stroke="midnightblue" d="M304.76,-60.8832C292.907,-51.0054 279.015,-39.4293 268.392,-30.5765"/>
<polygon fill="midnightblue" stroke="midnightblue" points="302.652,-63.6829 312.575,-67.396 307.134,-58.3053 302.652,-63.6829"/>
</g>
<!-- Node5 -->
<g id="node5" class="node"><title>Node5</title>
<g id="a_node5"><a xlink:href="ICUXalanNumberFormatFactory_8hpp.html" target="_top" xlink:title=" ">
<polygon fill="none" stroke="black" points="340.5,-0.5 340.5,-30.5 474.5,-30.5 474.5,-0.5 340.5,-0.5"/>
<text text-anchor="start" x="348.5" y="-18.5" font-family="Helvetica,sans-Serif" font-size="10.00">xalanc/ICUBridge/ICUXalan</text>
<text text-anchor="middle" x="407.5" y="-7.5" font-family="Helvetica,sans-Serif" font-size="10.00">NumberFormatFactory.hpp</text>
</a>
</g>
</g>
<!-- Node2&#45;&gt;Node5 -->
<g id="edge4" class="edge"><title>Node2&#45;&gt;Node5</title>
<path fill="none" stroke="midnightblue" d="M354.24,-60.8832C366.093,-51.0054 379.985,-39.4293 390.608,-30.5765"/>
<polygon fill="midnightblue" stroke="midnightblue" points="351.866,-58.3053 346.425,-67.396 356.348,-63.6829 351.866,-58.3053"/>
</g>
<!-- Node6 -->
<g id="node6" class="node"><title>Node6</title>
<g id="a_node6"><a xlink:href="XalanCompiledStylesheetDefault_8hpp.html" target="_top" xlink:title=" ">
<polygon fill="none" stroke="black" points="493,-0.5 493,-30.5 672,-30.5 672,-0.5 493,-0.5"/>
<text text-anchor="start" x="501" y="-18.5" font-family="Helvetica,sans-Serif" font-size="10.00">xalanc/XalanTransformer</text>
<text text-anchor="middle" x="582.5" y="-7.5" font-family="Helvetica,sans-Serif" font-size="10.00">/XalanCompiledStylesheetDefault.hpp</text>
</a>
</g>
</g>
<!-- Node2&#45;&gt;Node6 -->
<g id="edge5" class="edge"><title>Node2&#45;&gt;Node6</title>
<path fill="none" stroke="midnightblue" d="M393.784,-64.9844C435.108,-54.3674 488.228,-40.7201 527.576,-30.6109"/>
<polygon fill="midnightblue" stroke="midnightblue" points="392.9,-61.5976 384.086,-67.476 394.642,-68.3775 392.9,-61.5976"/>
</g>
<!-- Node7&#45;&gt;Node2 -->
<g id="edge7" class="edge"><title>Node7&#45;&gt;Node2</title>
<path fill="none" stroke="midnightblue" d="M365.179,-126.447C357.247,-116.899 348.195,-106.004 341.194,-97.5765"/>
<polygon fill="midnightblue" stroke="midnightblue" points="362.7,-128.941 371.783,-134.396 368.085,-124.467 362.7,-128.941"/>
</g>
</g>
</svg>
