<?xml version="1.0" encoding="UTF-8" standalone="no"?>
<!DOCTYPE svg PUBLIC "-//W3C//DTD SVG 1.1//EN"
 "http://www.w3.org/Graphics/SVG/1.1/DTD/svg11.dtd">
<!-- Generated by graphviz version 2.43.0 (0)
 -->
<!-- Title: xalanc/PlatformSupport/XalanDOMStringAllocator.hpp Pages: 1 -->
<svg width="934pt" height="441pt"
 viewBox="0.00 0.00 934.00 441.00" xmlns="http://www.w3.org/2000/svg" xmlns:xlink="http://www.w3.org/1999/xlink">
<g id="graph0" class="graph" transform="scale(1 1) rotate(0) translate(4 437)">
<title>xalanc/PlatformSupport/XalanDOMStringAllocator.hpp</title>
<!-- Node1 -->
<g id="node1" class="node">
<title>Node1</title>
<g id="a_node1"><a xlink:title=" ">
<polygon fill="#bfbfbf" stroke="black" points="320.5,-402.5 320.5,-432.5 484.5,-432.5 484.5,-402.5 320.5,-402.5"/>
<text text-anchor="start" x="328.5" y="-420.5" font-family="Helvetica,sans-Serif" font-size="10.00">xalanc/PlatformSupport</text>
<text text-anchor="middle" x="402.5" y="-409.5" font-family="Helvetica,sans-Serif" font-size="10.00">/XalanDOMStringAllocator.hpp</text>
</a>
</g>
</g>
<!-- Node2 -->
<g id="node2" class="node">
<title>Node2</title>
<g id="a_node2"><a xlink:href="XalanDOMStringPool_8hpp.html" target="_top" xlink:title=" ">
<polygon fill="none" stroke="black" points="436.5,-335.5 436.5,-365.5 578.5,-365.5 578.5,-335.5 436.5,-335.5"/>
<text text-anchor="start" x="444.5" y="-353.5" font-family="Helvetica,sans-Serif" font-size="10.00">xalanc/PlatformSupport</text>
<text text-anchor="middle" x="507.5" y="-342.5" font-family="Helvetica,sans-Serif" font-size="10.00">/XalanDOMStringPool.hpp</text>
</a>
</g>
</g>
<!-- Node1&#45;&gt;Node2 -->
<g id="edge1" class="edge">
<title>Node1&#45;&gt;Node2</title>
<path fill="none" stroke="midnightblue" d="M433.98,-397.02C450.32,-386.9 469.91,-374.77 484.76,-365.58"/>
<polygon fill="midnightblue" stroke="midnightblue" points="431.94,-394.16 425.28,-402.4 435.63,-400.11 431.94,-394.16"/>
</g>
<!-- Node3 -->
<g id="node3" class="node">
<title>Node3</title>
<g id="a_node3"><a xlink:href="XalanSourceTreeDocument_8hpp.html" target="_top" xlink:title=" ">
<polygon fill="none" stroke="black" points="212.5,-268.5 212.5,-298.5 384.5,-298.5 384.5,-268.5 212.5,-268.5"/>
<text text-anchor="start" x="220.5" y="-286.5" font-family="Helvetica,sans-Serif" font-size="10.00">xalanc/XalanSourceTree</text>
<text text-anchor="middle" x="298.5" y="-275.5" font-family="Helvetica,sans-Serif" font-size="10.00">/XalanSourceTreeDocument.hpp</text>
</a>
</g>
</g>
<!-- Node1&#45;&gt;Node3 -->
<g id="edge20" class="edge">
<title>Node1&#45;&gt;Node3</title>
<path fill="none" stroke="midnightblue" d="M384.92,-394.19C363.39,-366.86 327.56,-321.38 309.55,-298.52"/>
<polygon fill="midnightblue" stroke="midnightblue" points="382.43,-396.68 391.37,-402.37 387.93,-392.35 382.43,-396.68"/>
</g>
<!-- Node2&#45;&gt;Node3 -->
<g id="edge2" class="edge">
<title>Node2&#45;&gt;Node3</title>
<path fill="none" stroke="midnightblue" d="M452.66,-332.44C418.78,-321.91 375.83,-308.55 343.87,-298.61"/>
<polygon fill="midnightblue" stroke="midnightblue" points="451.82,-335.85 462.41,-335.48 453.9,-329.16 451.82,-335.85"/>
</g>
<!-- Node13 -->
<g id="node13" class="node">
<title>Node13</title>
<g id="a_node13"><a xlink:href="XercesLiaisonXalanDOMStringPool_8hpp.html" target="_top" xlink:title=" ">
<polygon fill="none" stroke="black" points="403,-268.5 403,-298.5 612,-298.5 612,-268.5 403,-268.5"/>
<text text-anchor="start" x="411" y="-286.5" font-family="Helvetica,sans-Serif" font-size="10.00">xalanc/XercesParserLiaison</text>
<text text-anchor="middle" x="507.5" y="-275.5" font-family="Helvetica,sans-Serif" font-size="10.00">/XercesLiaisonXalanDOMStringPool.hpp</text>
</a>
</g>
</g>
<!-- Node2&#45;&gt;Node13 -->
<g id="edge14" class="edge">
<title>Node2&#45;&gt;Node13</title>
<path fill="none" stroke="midnightblue" d="M507.5,-325.11C507.5,-316.15 507.5,-306.32 507.5,-298.58"/>
<polygon fill="midnightblue" stroke="midnightblue" points="504,-325.4 507.5,-335.4 511,-325.4 504,-325.4"/>
</g>
<!-- Node14 -->
<g id="node14" class="node">
<title>Node14</title>
<g id="a_node14"><a xlink:href="XPathConstructionContextDefault_8hpp.html" target="_top" xlink:title=" ">
<polygon fill="none" stroke="black" points="630.5,-268.5 630.5,-298.5 802.5,-298.5 802.5,-268.5 630.5,-268.5"/>
<text text-anchor="start" x="638.5" y="-286.5" font-family="Helvetica,sans-Serif" font-size="10.00">xalanc/XPath/XPathConstruction</text>
<text text-anchor="middle" x="716.5" y="-275.5" font-family="Helvetica,sans-Serif" font-size="10.00">ContextDefault.hpp</text>
</a>
</g>
</g>
<!-- Node2&#45;&gt;Node14 -->
<g id="edge15" class="edge">
<title>Node2&#45;&gt;Node14</title>
<path fill="none" stroke="midnightblue" d="M562.34,-332.44C596.22,-321.91 639.17,-308.55 671.13,-298.61"/>
<polygon fill="midnightblue" stroke="midnightblue" points="561.1,-329.16 552.59,-335.48 563.18,-335.85 561.1,-329.16"/>
</g>
<!-- Node16 -->
<g id="node16" class="node">
<title>Node16</title>
<g id="a_node16"><a xlink:href="StylesheetConstructionContextDefault_8hpp.html" target="_top" xlink:title=" ">
<polygon fill="none" stroke="black" points="735,-134.5 735,-164.5 926,-164.5 926,-134.5 735,-134.5"/>
<text text-anchor="start" x="743" y="-152.5" font-family="Helvetica,sans-Serif" font-size="10.00">xalanc/XSLT/StylesheetConstruction</text>
<text text-anchor="middle" x="830.5" y="-141.5" font-family="Helvetica,sans-Serif" font-size="10.00">ContextDefault.hpp</text>
</a>
</g>
</g>
<!-- Node2&#45;&gt;Node16 -->
<g id="edge18" class="edge">
<title>Node2&#45;&gt;Node16</title>
<path fill="none" stroke="midnightblue" d="M588.81,-346.66C668.26,-342.08 781.51,-330.13 811.5,-299 847.02,-262.12 839.13,-194.06 833.6,-164.65"/>
<polygon fill="midnightblue" stroke="midnightblue" points="588.6,-343.17 578.81,-347.21 588.98,-350.16 588.6,-343.17"/>
</g>
<!-- Node4 -->
<g id="node4" class="node">
<title>Node4</title>
<g id="a_node4"><a xlink:href="XalanSourceTreeDocumentFragment_8hpp.html" target="_top" xlink:title=" ">
<polygon fill="none" stroke="black" points="4.5,-201.5 4.5,-231.5 222.5,-231.5 222.5,-201.5 4.5,-201.5"/>
<text text-anchor="start" x="12.5" y="-219.5" font-family="Helvetica,sans-Serif" font-size="10.00">xalanc/XalanSourceTree</text>
<text text-anchor="middle" x="113.5" y="-208.5" font-family="Helvetica,sans-Serif" font-size="10.00">/XalanSourceTreeDocumentFragment.hpp</text>
</a>
</g>
</g>
<!-- Node3&#45;&gt;Node4 -->
<g id="edge3" class="edge">
<title>Node3&#45;&gt;Node4</title>
<path fill="none" stroke="midnightblue" d="M248.56,-264.96C218.76,-254.48 181.43,-241.37 153.56,-231.58"/>
<polygon fill="midnightblue" stroke="midnightblue" points="247.76,-268.38 258.36,-268.4 250.08,-261.78 247.76,-268.38"/>
</g>
<!-- Node11 -->
<g id="node11" class="node">
<title>Node11</title>
<g id="a_node11"><a xlink:href="XalanDefaultParsedSource_8hpp.html" target="_top" xlink:title=" ">
<polygon fill="none" stroke="black" points="240.5,-201.5 240.5,-231.5 410.5,-231.5 410.5,-201.5 240.5,-201.5"/>
<text text-anchor="start" x="248.5" y="-219.5" font-family="Helvetica,sans-Serif" font-size="10.00">xalanc/XalanTransformer</text>
<text text-anchor="middle" x="325.5" y="-208.5" font-family="Helvetica,sans-Serif" font-size="10.00">/XalanDefaultParsedSource.hpp</text>
</a>
</g>
</g>
<!-- Node3&#45;&gt;Node11 -->
<g id="edge11" class="edge">
<title>Node3&#45;&gt;Node11</title>
<path fill="none" stroke="midnightblue" d="M308.27,-258.99C312.08,-249.8 316.33,-239.58 319.65,-231.58"/>
<polygon fill="midnightblue" stroke="midnightblue" points="304.96,-257.82 304.36,-268.4 311.43,-260.5 304.96,-257.82"/>
</g>
<!-- Node12 -->
<g id="node12" class="node">
<title>Node12</title>
<g id="a_node12"><a xlink:href="XalanSourceTreeDocumentAllocator_8hpp.html" target="_top" xlink:title=" ">
<polygon fill="none" stroke="black" points="356,-134.5 356,-164.5 515,-164.5 515,-134.5 356,-134.5"/>
<text text-anchor="start" x="364" y="-152.5" font-family="Helvetica,sans-Serif" font-size="10.00">xalanc/XSLT/XalanSourceTree</text>
<text text-anchor="middle" x="435.5" y="-141.5" font-family="Helvetica,sans-Serif" font-size="10.00">DocumentAllocator.hpp</text>
</a>
</g>
</g>
<!-- Node3&#45;&gt;Node12 -->
<g id="edge12" class="edge">
<title>Node3&#45;&gt;Node12</title>
<path fill="none" stroke="midnightblue" d="M373.15,-264.56C390.59,-257.12 407.54,-246.66 419.5,-232 435.28,-212.68 437.04,-182.25 436.52,-164.55"/>
<polygon fill="midnightblue" stroke="midnightblue" points="371.46,-261.47 363.44,-268.4 374.03,-267.98 371.46,-261.47"/>
</g>
<!-- Node5 -->
<g id="node5" class="node">
<title>Node5</title>
<g id="a_node5"><a xlink:href="StylesheetExecutionContextDefault_8hpp.html" target="_top" xlink:title=" ">
<polygon fill="none" stroke="black" points="190,-67.5 190,-97.5 367,-97.5 367,-67.5 190,-67.5"/>
<text text-anchor="start" x="198" y="-85.5" font-family="Helvetica,sans-Serif" font-size="10.00">xalanc/XSLT/StylesheetExecution</text>
<text text-anchor="middle" x="278.5" y="-74.5" font-family="Helvetica,sans-Serif" font-size="10.00">ContextDefault.hpp</text>
</a>
</g>
</g>
<!-- Node4&#45;&gt;Node5 -->
<g id="edge4" class="edge">
<title>Node4&#45;&gt;Node5</title>
<path fill="none" stroke="midnightblue" d="M118.43,-191.74C123.28,-173.75 132.39,-149.56 148.5,-134 166.35,-116.76 190.75,-105.23 213.59,-97.6"/>
<polygon fill="midnightblue" stroke="midnightblue" points="115.02,-190.95 116.04,-201.5 121.82,-192.62 115.02,-190.95"/>
</g>
<!-- Node10 -->
<g id="node10" class="node">
<title>Node10</title>
<g id="a_node10"><a xlink:href="XalanSourceTreeDocumentFragmentAllocator_8hpp.html" target="_top" xlink:title=" ">
<polygon fill="none" stroke="black" points="158,-134.5 158,-164.5 335,-164.5 335,-134.5 158,-134.5"/>
<text text-anchor="start" x="166" y="-152.5" font-family="Helvetica,sans-Serif" font-size="10.00">xalanc/XSLT/XalanSourceTree</text>
<text text-anchor="middle" x="246.5" y="-141.5" font-family="Helvetica,sans-Serif" font-size="10.00">DocumentFragmentAllocator.hpp</text>
</a>
</g>
</g>
<!-- Node4&#45;&gt;Node10 -->
<g id="edge9" class="edge">
<title>Node4&#45;&gt;Node10</title>
<path fill="none" stroke="midnightblue" d="M151.37,-196.99C172.45,-186.69 198.28,-174.07 217.7,-164.58"/>
<polygon fill="midnightblue" stroke="midnightblue" points="149.81,-193.86 142.36,-201.4 152.88,-200.15 149.81,-193.86"/>
</g>
<!-- Node6 -->
<g id="node6" class="node">
<title>Node6</title>
<g id="a_node6"><a xlink:href="ICUBridgeCollationCompareFunctorImpl_8hpp.html" target="_top" xlink:title=" ">
<polygon fill="none" stroke="black" points="0,-0.5 0,-30.5 183,-30.5 183,-0.5 0,-0.5"/>
<text text-anchor="start" x="8" y="-18.5" font-family="Helvetica,sans-Serif" font-size="10.00">xalanc/ICUBridge/ICUBridge</text>
<text text-anchor="middle" x="91.5" y="-7.5" font-family="Helvetica,sans-Serif" font-size="10.00">CollationCompareFunctorImpl.hpp</text>
</a>
</g>
</g>
<!-- Node5&#45;&gt;Node6 -->
<g id="edge5" class="edge">
<title>Node5&#45;&gt;Node6</title>
<path fill="none" stroke="midnightblue" d="M228.42,-64.09C198.23,-53.6 160.28,-40.41 132,-30.58"/>
<polygon fill="midnightblue" stroke="midnightblue" points="227.33,-67.42 237.92,-67.4 229.63,-60.81 227.33,-67.42"/>
</g>
<!-- Node7 -->
<g id="node7" class="node">
<title>Node7</title>
<g id="a_node7"><a xlink:href="ICUFormatNumberFunctor_8hpp.html" target="_top" xlink:title=" ">
<polygon fill="none" stroke="black" points="201,-0.5 201,-30.5 356,-30.5 356,-0.5 201,-0.5"/>
<text text-anchor="start" x="209" y="-18.5" font-family="Helvetica,sans-Serif" font-size="10.00">xalanc/ICUBridge/ICUFormat</text>
<text text-anchor="middle" x="278.5" y="-7.5" font-family="Helvetica,sans-Serif" font-size="10.00">NumberFunctor.hpp</text>
</a>
</g>
</g>
<!-- Node5&#45;&gt;Node7 -->
<g id="edge6" class="edge">
<title>Node5&#45;&gt;Node7</title>
<path fill="none" stroke="midnightblue" d="M278.5,-57.11C278.5,-48.15 278.5,-38.32 278.5,-30.58"/>
<polygon fill="midnightblue" stroke="midnightblue" points="275,-57.4 278.5,-67.4 282,-57.4 275,-57.4"/>
</g>
<!-- Node8 -->
<g id="node8" class="node">
<title>Node8</title>
<g id="a_node8"><a xlink:href="ICUXalanNumberFormatFactory_8hpp.html" target="_top" xlink:title=" ">
<polygon fill="none" stroke="black" points="374,-0.5 374,-30.5 523,-30.5 523,-0.5 374,-0.5"/>
<text text-anchor="start" x="382" y="-18.5" font-family="Helvetica,sans-Serif" font-size="10.00">xalanc/ICUBridge/ICUXalan</text>
<text text-anchor="middle" x="448.5" y="-7.5" font-family="Helvetica,sans-Serif" font-size="10.00">NumberFormatFactory.hpp</text>
</a>
</g>
</g>
<!-- Node5&#45;&gt;Node8 -->
<g id="edge7" class="edge">
<title>Node5&#45;&gt;Node8</title>
<path fill="none" stroke="midnightblue" d="M324.74,-63.82C352.07,-53.37 386.19,-40.32 411.68,-30.58"/>
<polygon fill="midnightblue" stroke="midnightblue" points="323.48,-60.56 315.39,-67.4 325.98,-67.09 323.48,-60.56"/>
</g>
<!-- Node9 -->
<g id="node9" class="node">
<title>Node9</title>
<g id="a_node9"><a xlink:href="XalanCompiledStylesheetDefault_8hpp.html" target="_top" xlink:title=" ">
<polygon fill="none" stroke="black" points="605,-0.5 605,-30.5 808,-30.5 808,-0.5 605,-0.5"/>
<text text-anchor="start" x="613" y="-18.5" font-family="Helvetica,sans-Serif" font-size="10.00">xalanc/XalanTransformer</text>
<text text-anchor="middle" x="706.5" y="-7.5" font-family="Helvetica,sans-Serif" font-size="10.00">/XalanCompiledStylesheetDefault.hpp</text>
</a>
</g>
</g>
<!-- Node5&#45;&gt;Node9 -->
<g id="edge8" class="edge">
<title>Node5&#45;&gt;Node9</title>
<path fill="none" stroke="midnightblue" d="M377.09,-66.53C448.49,-55.68 544.34,-41.13 614.24,-30.51"/>
<polygon fill="midnightblue" stroke="midnightblue" points="376.54,-63.07 367.18,-68.03 377.59,-69.99 376.54,-63.07"/>
</g>
<!-- Node10&#45;&gt;Node5 -->
<g id="edge10" class="edge">
<title>Node10&#45;&gt;Node5</title>
<path fill="none" stroke="midnightblue" d="M257.93,-125.28C262.49,-116.02 267.59,-105.66 271.57,-97.58"/>
<polygon fill="midnightblue" stroke="midnightblue" points="254.72,-123.88 253.44,-134.4 261,-126.97 254.72,-123.88"/>
</g>
<!-- Node12&#45;&gt;Node5 -->
<g id="edge13" class="edge">
<title>Node12&#45;&gt;Node5</title>
<path fill="none" stroke="midnightblue" d="M392.13,-130.54C367.01,-120.14 335.84,-107.24 312.5,-97.58"/>
<polygon fill="midnightblue" stroke="midnightblue" points="390.86,-133.8 401.43,-134.4 393.53,-127.34 390.86,-133.8"/>
</g>
<!-- Node15 -->
<g id="node15" class="node">
<title>Node15</title>
<g id="a_node15"><a xlink:href="XSLTEngineImpl_8hpp.html" target="_top" xlink:title=" ">
<polygon fill="none" stroke="black" points="618,-73 618,-92 795,-92 795,-73 618,-73"/>
<text text-anchor="middle" x="706.5" y="-80" font-family="Helvetica,sans-Serif" font-size="10.00">xalanc/XSLT/XSLTEngineImpl.hpp</text>
</a>
</g>
</g>
<!-- Node14&#45;&gt;Node15 -->
<g id="edge16" class="edge">
<title>Node14&#45;&gt;Node15</title>
<path fill="none" stroke="midnightblue" d="M715.27,-257.96C713.03,-213.43 708.4,-121.25 706.95,-92.36"/>
<polygon fill="midnightblue" stroke="midnightblue" points="711.78,-258.38 715.78,-268.19 718.77,-258.03 711.78,-258.38"/>
</g>
<!-- Node15&#45;&gt;Node9 -->
<g id="edge17" class="edge">
<title>Node15&#45;&gt;Node9</title>
<path fill="none" stroke="midnightblue" d="M706.5,-62.41C706.5,-52.22 706.5,-39.9 706.5,-30.59"/>
<polygon fill="midnightblue" stroke="midnightblue" points="703,-62.73 706.5,-72.73 710,-62.73 703,-62.73"/>
</g>
<!-- Node16&#45;&gt;Node9 -->
<g id="edge19" class="edge">
<title>Node16&#45;&gt;Node9</title>
<path fill="none" stroke="midnightblue" d="M827.75,-124.15C824.67,-106.56 818.16,-83.15 804.5,-67 790.54,-50.48 769.8,-38.71 751,-30.71"/>
<polygon fill="midnightblue" stroke="midnightblue" points="824.32,-124.86 829.27,-134.23 831.24,-123.83 824.32,-124.86"/>
</g>
</g>
</svg>
