<?xml version="1.0" encoding="UTF-8" standalone="no"?>
<!DOCTYPE svg PUBLIC "-//W3C//DTD SVG 1.1//EN"
 "http://www.w3.org/Graphics/SVG/1.1/DTD/svg11.dtd">
<!-- Generated by graphviz version 2.38.0 (20140413.2041)
 -->
<!-- Title: xalanc/PlatformSupport/XalanDOMStringCache.hpp Pages: 1 -->
<!--zoomable 620 -->
<svg id="main" version="1.1" xmlns="http://www.w3.org/2000/svg" xmlns:xlink="http://www.w3.org/1999/xlink" xml:space="preserve" onload="init(evt)">
<style type="text/css"><![CDATA[
.edge:hover path { stroke: red; }
.edge:hover polygon { stroke: red; fill: red; }
]]></style>
<script type="text/javascript"><![CDATA[
var edges = document.getElementsByTagName('g');
if (edges && edges.length) {
  for (var i=0;i<edges.length;i++) {
    if (edges[i].id.substr(0,4)=='edge') {
      edges[i].setAttribute('class','edge');
    }
  }
}
]]></script>
        <defs>
                <circle id="rim" cx="0" cy="0" r="7"/>
                <circle id="rim2" cx="0" cy="0" r="3.5"/>
                <g id="zoomPlus">
                        <use xlink:href="#rim" fill="#404040">
                                <set attributeName="fill" to="#808080" begin="zoomplus.mouseover" end="zoomplus.mouseout"/>
                        </use>
                        <path d="M-4,0h8M0,-4v8" fill="none" stroke="white" stroke-width="1.5" pointer-events="none"/>
                </g>
                <g id="zoomMin">
                        <use xlink:href="#rim" fill="#404040">
                                <set attributeName="fill" to="#808080" begin="zoomminus.mouseover" end="zoomminus.mouseout"/>
                        </use>
                        <path d="M-4,0h8" fill="none" stroke="white" stroke-width="1.5" pointer-events="none"/>
                </g>
                <g id="dirArrow">
                        <path fill="none" stroke="white" stroke-width="1.5" d="M0,-3.0v7 M-2.5,-0.5L0,-3.0L2.5,-0.5"/>
                </g>
               <g id="resetDef">
                       <use xlink:href="#rim2" fill="#404040">
                               <set attributeName="fill" to="#808080" begin="reset.mouseover" end="reset.mouseout"/>
                       </use>
               </g>
        </defs>

<script type="text/javascript">
var viewWidth = 1325;
var viewHeight = 620;
var sectionId = 'dynsection-0';
</script>
<script xlink:href="svgpan.js"/>
<svg id="graph" class="graph">
<g id="viewport">
<title>xalanc/PlatformSupport/XalanDOMStringCache.hpp</title>
<!-- Node1 -->
<g id="node1" class="node"><title>Node1</title>
<g id="a_node1"><a xlink:title=" ">
<polygon fill="#bfbfbf" stroke="black" points="837.5,-581.5 837.5,-611.5 974.5,-611.5 974.5,-581.5 837.5,-581.5"/>
<text text-anchor="start" x="845.5" y="-599.5" font-family="Helvetica,sans-Serif" font-size="10.00">xalanc/PlatformSupport</text>
<text text-anchor="middle" x="906" y="-588.5" font-family="Helvetica,sans-Serif" font-size="10.00">/XalanDOMStringCache.hpp</text>
</a>
</g>
</g>
<!-- Node2 -->
<g id="node2" class="node"><title>Node2</title>
<g id="a_node2"><a xlink:href="PlatformSupportDefinitions_8hpp.html" target="_top" xlink:title=" ">
<polygon fill="none" stroke="black" points="1163.5,-201.5 1163.5,-231.5 1316.5,-231.5 1316.5,-201.5 1163.5,-201.5"/>
<text text-anchor="start" x="1171.5" y="-219.5" font-family="Helvetica,sans-Serif" font-size="10.00">xalanc/PlatformSupport</text>
<text text-anchor="middle" x="1240" y="-208.5" font-family="Helvetica,sans-Serif" font-size="10.00">/PlatformSupportDefinitions.hpp</text>
</a>
</g>
</g>
<!-- Node1&#45;&gt;Node2 -->
<g id="edge1" class="edge"><title>Node1&#45;&gt;Node2</title>
<path fill="none" stroke="midnightblue" d="M974.742,-586.433C1085.95,-569.819 1293,-529.963 1293,-463.5 1293,-463.5 1293,-463.5 1293,-344 1293,-305.361 1271.71,-264.88 1256.11,-240.417"/>
<polygon fill="midnightblue" stroke="midnightblue" points="1258.9,-238.284 1250.47,-231.863 1253.05,-242.138 1258.9,-238.284"/>
</g>
<!-- Node7 -->
<g id="node7" class="node"><title>Node7</title>
<g id="a_node7"><a xlink:href="XalanVector_8hpp.html" target="_top" xlink:title=" ">
<polygon fill="none" stroke="black" points="503,-207 503,-226 655,-226 655,-207 503,-207"/>
<text text-anchor="middle" x="579" y="-214" font-family="Helvetica,sans-Serif" font-size="10.00">xalanc/Include/XalanVector.hpp</text>
</a>
</g>
</g>
<!-- Node1&#45;&gt;Node7 -->
<g id="edge6" class="edge"><title>Node1&#45;&gt;Node7</title>
<path fill="none" stroke="midnightblue" d="M837.066,-587.216C722.414,-571.496 505,-532.579 505,-463.5 505,-463.5 505,-463.5 505,-344 505,-309.183 506.204,-297.926 524,-268 532.342,-253.972 545.783,-241.527 557.288,-232.501"/>
<polygon fill="midnightblue" stroke="midnightblue" points="559.677,-235.085 565.593,-226.296 555.488,-229.478 559.677,-235.085"/>
</g>
<!-- Node16 -->
<g id="node16" class="node"><title>Node16</title>
<g id="a_node16"><a xlink:href="XalanDOMString_8hpp.html" target="_top" xlink:title=" ">
<polygon fill="none" stroke="black" points="842.5,-391.5 842.5,-410.5 1029.5,-410.5 1029.5,-391.5 842.5,-391.5"/>
<text text-anchor="middle" x="936" y="-398.5" font-family="Helvetica,sans-Serif" font-size="10.00">xalanc/XalanDOM/XalanDOMString.hpp</text>
</a>
</g>
</g>
<!-- Node1&#45;&gt;Node16 -->
<g id="edge20" class="edge"><title>Node1&#45;&gt;Node16</title>
<path fill="none" stroke="midnightblue" d="M922.414,-581.397C931.876,-572.14 942.883,-559.156 948,-545 963.403,-502.391 950.866,-448.155 942.312,-420.314"/>
<polygon fill="midnightblue" stroke="midnightblue" points="945.611,-419.139 939.191,-410.711 938.954,-421.303 945.611,-419.139"/>
</g>
<!-- Node24 -->
<g id="node24" class="node"><title>Node24</title>
<g id="a_node24"><a xlink:href="XalanDOMStringReusableAllocator_8hpp.html" target="_top" xlink:title=" ">
<polygon fill="none" stroke="black" points="751,-514.5 751,-544.5 939,-544.5 939,-514.5 751,-514.5"/>
<text text-anchor="start" x="759" y="-532.5" font-family="Helvetica,sans-Serif" font-size="10.00">xalanc/PlatformSupport</text>
<text text-anchor="middle" x="845" y="-521.5" font-family="Helvetica,sans-Serif" font-size="10.00">/XalanDOMStringReusableAllocator.hpp</text>
</a>
</g>
</g>
<!-- Node1&#45;&gt;Node24 -->
<g id="edge48" class="edge"><title>Node1&#45;&gt;Node24</title>
<path fill="none" stroke="midnightblue" d="M892.764,-581.396C884.69,-572.793 874.211,-561.626 865.125,-551.945"/>
<polygon fill="midnightblue" stroke="midnightblue" points="867.606,-549.473 858.21,-544.577 862.501,-554.264 867.606,-549.473"/>
</g>
<!-- Node3 -->
<g id="node3" class="node"><title>Node3</title>
<g id="a_node3"><a xlink:href="PlatformDefinitions_8hpp.html" target="_top" xlink:title=" ">
<polygon fill="none" stroke="black" points="954,-73 954,-92 1136,-92 1136,-73 954,-73"/>
<text text-anchor="middle" x="1045" y="-80" font-family="Helvetica,sans-Serif" font-size="10.00">xalanc/Include/PlatformDefinitions.hpp</text>
</a>
</g>
</g>
<!-- Node2&#45;&gt;Node3 -->
<g id="edge2" class="edge"><title>Node2&#45;&gt;Node3</title>
<path fill="none" stroke="midnightblue" d="M1223.48,-201.429C1203.27,-184.509 1167.69,-155.685 1135,-134 1114.15,-120.169 1089.26,-106.399 1070.95,-96.7402"/>
<polygon fill="midnightblue" stroke="midnightblue" points="1072.51,-93.6083 1062.03,-92.0854 1069.28,-99.8143 1072.51,-93.6083"/>
</g>
<!-- Node4 -->
<g id="node4" class="node"><title>Node4</title>
<g id="a_node4"><a xlink:title=" ">
<polygon fill="none" stroke="#bfbfbf" points="843,-0.5 843,-30.5 951,-30.5 951,-0.5 843,-0.5"/>
<text text-anchor="start" x="851" y="-18.5" font-family="Helvetica,sans-Serif" font-size="10.00">xercesc/util/Xerces</text>
<text text-anchor="middle" x="897" y="-7.5" font-family="Helvetica,sans-Serif" font-size="10.00">_autoconf_config.hpp</text>
</a>
</g>
</g>
<!-- Node3&#45;&gt;Node4 -->
<g id="edge3" class="edge"><title>Node3&#45;&gt;Node4</title>
<path fill="none" stroke="midnightblue" d="M1025.35,-72.8685C1003.23,-63.1572 966.695,-47.1092 938.246,-34.6148"/>
<polygon fill="midnightblue" stroke="midnightblue" points="939.504,-31.3447 928.941,-30.5281 936.689,-37.7539 939.504,-31.3447"/>
</g>
<!-- Node5 -->
<g id="node5" class="node"><title>Node5</title>
<g id="a_node5"><a xlink:title=" ">
<polygon fill="none" stroke="#bfbfbf" points="969.5,-6 969.5,-25 1120.5,-25 1120.5,-6 969.5,-6"/>
<text text-anchor="middle" x="1045" y="-13" font-family="Helvetica,sans-Serif" font-size="10.00">xercesc/util/XercesVersion.hpp</text>
</a>
</g>
</g>
<!-- Node3&#45;&gt;Node5 -->
<g id="edge4" class="edge"><title>Node3&#45;&gt;Node5</title>
<path fill="none" stroke="midnightblue" d="M1045,-72.7338C1045,-63.1826 1045,-47.6183 1045,-35.2829"/>
<polygon fill="midnightblue" stroke="midnightblue" points="1048.5,-35.1273 1045,-25.1273 1041.5,-35.1273 1048.5,-35.1273"/>
</g>
<!-- Node6 -->
<g id="node6" class="node"><title>Node6</title>
<g id="a_node6"><a xlink:href="XalanVersion_8hpp.html" target="_top" xlink:title=" ">
<polygon fill="none" stroke="black" points="1139,-6 1139,-25 1231,-25 1231,-6 1139,-6"/>
<text text-anchor="middle" x="1185" y="-13" font-family="Helvetica,sans-Serif" font-size="10.00">XalanVersion.hpp</text>
</a>
</g>
</g>
<!-- Node3&#45;&gt;Node6 -->
<g id="edge5" class="edge"><title>Node3&#45;&gt;Node6</title>
<path fill="none" stroke="midnightblue" d="M1063.59,-72.8685C1087.54,-61.7476 1129.39,-42.3167 1157.15,-29.4286"/>
<polygon fill="midnightblue" stroke="midnightblue" points="1158.74,-32.5529 1166.33,-25.1672 1155.79,-26.2038 1158.74,-32.5529"/>
</g>
<!-- Node7&#45;&gt;Node3 -->
<g id="edge7" class="edge"><title>Node7&#45;&gt;Node3</title>
<path fill="none" stroke="midnightblue" d="M640.643,-206.983C713.912,-196.505 831.591,-178.452 874,-165 929.113,-147.519 989.179,-115.609 1021.4,-97.3341"/>
<polygon fill="midnightblue" stroke="midnightblue" points="1023.54,-100.143 1030.47,-92.1313 1020.05,-94.0713 1023.54,-100.143"/>
</g>
<!-- Node8 -->
<g id="node8" class="node"><title>Node8</title>
<g id="a_node8"><a xlink:title=" ">
<polygon fill="none" stroke="#bfbfbf" points="283,-73 283,-92 331,-92 331,-73 283,-73"/>
<text text-anchor="middle" x="307" y="-80" font-family="Helvetica,sans-Serif" font-size="10.00">cstddef</text>
</a>
</g>
</g>
<!-- Node7&#45;&gt;Node8 -->
<g id="edge8" class="edge"><title>Node7&#45;&gt;Node8</title>
<path fill="none" stroke="midnightblue" d="M580.118,-206.957C581.765,-190.389 582.771,-153.789 563,-134 532.279,-103.251 403.767,-90.2249 341.336,-85.6294"/>
<polygon fill="midnightblue" stroke="midnightblue" points="341.417,-82.1266 331.196,-84.9147 340.925,-89.1092 341.417,-82.1266"/>
</g>
<!-- Node9 -->
<g id="node9" class="node"><title>Node9</title>
<g id="a_node9"><a xlink:title=" ">
<polygon fill="none" stroke="#bfbfbf" points="30,-140 30,-159 86,-159 86,-140 30,-140"/>
<text text-anchor="middle" x="58" y="-147" font-family="Helvetica,sans-Serif" font-size="10.00">algorithm</text>
</a>
</g>
</g>
<!-- Node7&#45;&gt;Node9 -->
<g id="edge9" class="edge"><title>Node7&#45;&gt;Node9</title>
<path fill="none" stroke="midnightblue" d="M524.373,-206.985C510.261,-204.904 495.079,-202.769 481,-201 326.721,-181.616 286.814,-187.78 133,-165 120.926,-163.212 107.839,-160.835 96.0283,-158.524"/>
<polygon fill="midnightblue" stroke="midnightblue" points="96.5276,-155.055 86.0356,-156.527 95.1556,-161.919 96.5276,-155.055"/>
</g>
<!-- Node10 -->
<g id="node10" class="node"><title>Node10</title>
<g id="a_node10"><a xlink:title=" ">
<polygon fill="none" stroke="#bfbfbf" points="868.5,-73 868.5,-92 917.5,-92 917.5,-73 868.5,-73"/>
<text text-anchor="middle" x="893" y="-80" font-family="Helvetica,sans-Serif" font-size="10.00">cassert</text>
</a>
</g>
</g>
<!-- Node7&#45;&gt;Node10 -->
<g id="edge10" class="edge"><title>Node7&#45;&gt;Node10</title>
<path fill="none" stroke="midnightblue" d="M590.838,-206.826C613.834,-190.357 666.631,-154.388 716,-134 776.576,-108.984 796.89,-118.919 859,-98 860.916,-97.3548 862.875,-96.6488 864.837,-95.9068"/>
<polygon fill="midnightblue" stroke="midnightblue" points="866.533,-98.9972 874.498,-92.011 863.914,-92.5052 866.533,-98.9972"/>
</g>
<!-- Node11 -->
<g id="node11" class="node"><title>Node11</title>
<g id="a_node11"><a xlink:title=" ">
<polygon fill="none" stroke="#bfbfbf" points="604,-73 604,-92 638,-92 638,-73 604,-73"/>
<text text-anchor="middle" x="621" y="-80" font-family="Helvetica,sans-Serif" font-size="10.00">new</text>
</a>
</g>
</g>
<!-- Node7&#45;&gt;Node11 -->
<g id="edge11" class="edge"><title>Node7&#45;&gt;Node11</title>
<path fill="none" stroke="midnightblue" d="M582.204,-206.972C585.924,-196.972 592.165,-179.87 597,-165 603.967,-143.574 611.165,-118.7 615.837,-102.122"/>
<polygon fill="midnightblue" stroke="midnightblue" points="619.313,-102.687 618.635,-92.1143 612.572,-100.803 619.313,-102.687"/>
</g>
<!-- Node12 -->
<g id="node12" class="node"><title>Node12</title>
<g id="a_node12"><a xlink:title=" ">
<polygon fill="none" stroke="#bfbfbf" points="430.5,-140 430.5,-159 477.5,-159 477.5,-140 430.5,-140"/>
<text text-anchor="middle" x="454" y="-147" font-family="Helvetica,sans-Serif" font-size="10.00">iterator</text>
</a>
</g>
</g>
<!-- Node7&#45;&gt;Node12 -->
<g id="edge12" class="edge"><title>Node7&#45;&gt;Node12</title>
<path fill="none" stroke="midnightblue" d="M562.401,-206.869C541.295,-195.893 504.624,-176.824 479.843,-163.938"/>
<polygon fill="midnightblue" stroke="midnightblue" points="481.155,-160.676 470.668,-159.167 477.925,-166.886 481.155,-160.676"/>
</g>
<!-- Node13 -->
<g id="node13" class="node"><title>Node13</title>
<g id="a_node13"><a xlink:title=" ">
<polygon fill="none" stroke="#bfbfbf" points="495.5,-140 495.5,-159 554.5,-159 554.5,-140 495.5,-140"/>
<text text-anchor="middle" x="525" y="-147" font-family="Helvetica,sans-Serif" font-size="10.00">stdexcept</text>
</a>
</g>
</g>
<!-- Node7&#45;&gt;Node13 -->
<g id="edge13" class="edge"><title>Node7&#45;&gt;Node13</title>
<path fill="none" stroke="midnightblue" d="M571.717,-206.734C563.297,-196.598 549.25,-179.69 538.754,-167.056"/>
<polygon fill="midnightblue" stroke="midnightblue" points="541.25,-164.583 532.167,-159.127 535.865,-169.056 541.25,-164.583"/>
</g>
<!-- Node14 -->
<g id="node14" class="node"><title>Node14</title>
<g id="a_node14"><a xlink:href="XalanMemoryManagement_8hpp.html" target="_top" xlink:title=" ">
<polygon fill="none" stroke="black" points="725,-134.5 725,-164.5 865,-164.5 865,-134.5 725,-134.5"/>
<text text-anchor="start" x="733" y="-152.5" font-family="Helvetica,sans-Serif" font-size="10.00">xalanc/Include/XalanMemory</text>
<text text-anchor="middle" x="795" y="-141.5" font-family="Helvetica,sans-Serif" font-size="10.00">Management.hpp</text>
</a>
</g>
</g>
<!-- Node7&#45;&gt;Node14 -->
<g id="edge14" class="edge"><title>Node7&#45;&gt;Node14</title>
<path fill="none" stroke="midnightblue" d="M607.683,-206.869C640.937,-196.862 696.549,-180.127 738.56,-167.484"/>
<polygon fill="midnightblue" stroke="midnightblue" points="739.816,-170.761 748.384,-164.528 737.799,-164.058 739.816,-170.761"/>
</g>
<!-- Node14&#45;&gt;Node3 -->
<g id="edge15" class="edge"><title>Node14&#45;&gt;Node3</title>
<path fill="none" stroke="midnightblue" d="M848.938,-134.476C894.918,-122.521 960.105,-105.573 1002.47,-94.5578"/>
<polygon fill="midnightblue" stroke="midnightblue" points="1003.4,-97.9325 1012.2,-92.0287 1001.64,-91.1577 1003.4,-97.9325"/>
</g>
<!-- Node14&#45;&gt;Node8 -->
<g id="edge17" class="edge"><title>Node14&#45;&gt;Node8</title>
<path fill="none" stroke="midnightblue" d="M724.822,-139.152C618.428,-124.981 420.326,-98.5946 341.066,-88.0374"/>
<polygon fill="midnightblue" stroke="midnightblue" points="341.502,-84.5648 331.128,-86.7137 340.578,-91.5035 341.502,-84.5648"/>
</g>
<!-- Node14&#45;&gt;Node10 -->
<g id="edge16" class="edge"><title>Node14&#45;&gt;Node10</title>
<path fill="none" stroke="midnightblue" d="M816.265,-134.396C832.699,-123.496 855.34,-108.479 871.766,-97.5835"/>
<polygon fill="midnightblue" stroke="midnightblue" points="873.775,-100.451 880.174,-92.007 869.906,-94.6177 873.775,-100.451"/>
</g>
<!-- Node14&#45;&gt;Node11 -->
<g id="edge18" class="edge"><title>Node14&#45;&gt;Node11</title>
<path fill="none" stroke="midnightblue" d="M757.245,-134.396C724.163,-122.038 676.918,-104.389 647.645,-93.4535"/>
<polygon fill="midnightblue" stroke="midnightblue" points="648.685,-90.106 638.093,-89.8852 646.236,-96.6634 648.685,-90.106"/>
</g>
<!-- Node15 -->
<g id="node15" class="node"><title>Node15</title>
<g id="a_node15"><a xlink:title=" ">
<polygon fill="none" stroke="#bfbfbf" points="713.5,-67.5 713.5,-97.5 850.5,-97.5 850.5,-67.5 713.5,-67.5"/>
<text text-anchor="start" x="721.5" y="-85.5" font-family="Helvetica,sans-Serif" font-size="10.00">xercesc/framework/Memory</text>
<text text-anchor="middle" x="782" y="-74.5" font-family="Helvetica,sans-Serif" font-size="10.00">Manager.hpp</text>
</a>
</g>
</g>
<!-- Node14&#45;&gt;Node15 -->
<g id="edge19" class="edge"><title>Node14&#45;&gt;Node15</title>
<path fill="none" stroke="midnightblue" d="M792.179,-134.396C790.612,-126.56 788.619,-116.596 786.813,-107.565"/>
<polygon fill="midnightblue" stroke="midnightblue" points="790.209,-106.696 784.815,-97.5765 783.345,-108.069 790.209,-106.696"/>
</g>
<!-- Node16&#45;&gt;Node7 -->
<g id="edge45" class="edge"><title>Node16&#45;&gt;Node7</title>
<path fill="none" stroke="midnightblue" d="M909.114,-391.393C863.736,-376.264 769.872,-342.358 698,-299 679.337,-287.741 677.728,-280.68 660,-268 641.409,-254.703 619.337,-241.074 602.933,-231.332"/>
<polygon fill="midnightblue" stroke="midnightblue" points="604.392,-228.13 593.998,-226.077 600.843,-234.163 604.392,-228.13"/>
</g>
<!-- Node16&#45;&gt;Node10 -->
<g id="edge23" class="edge"><title>Node16&#45;&gt;Node10</title>
<path fill="none" stroke="midnightblue" d="M936.955,-391.488C940.437,-357.892 950.793,-231.579 922,-134 918.481,-122.073 911.649,-109.949 905.499,-100.571"/>
<polygon fill="midnightblue" stroke="midnightblue" points="908.291,-98.4537 899.726,-92.217 902.532,-102.433 908.291,-98.4537"/>
</g>
<!-- Node16&#45;&gt;Node14 -->
<g id="edge44" class="edge"><title>Node16&#45;&gt;Node14</title>
<path fill="none" stroke="midnightblue" d="M931.146,-391.412C911.59,-356.806 838.175,-226.899 808.037,-173.569"/>
<polygon fill="midnightblue" stroke="midnightblue" points="810.903,-171.526 802.936,-164.542 804.809,-174.97 810.903,-171.526"/>
</g>
<!-- Node17 -->
<g id="node17" class="node"><title>Node17</title>
<g id="a_node17"><a xlink:href="XalanDOMDefinitions_8hpp.html" target="_top" xlink:title=" ">
<polygon fill="none" stroke="black" points="1018,-274 1018,-293 1224,-293 1224,-274 1018,-274"/>
<text text-anchor="middle" x="1121" y="-281" font-family="Helvetica,sans-Serif" font-size="10.00">xalanc/XalanDOM/XalanDOMDefinitions.hpp</text>
</a>
</g>
</g>
<!-- Node16&#45;&gt;Node17 -->
<g id="edge21" class="edge"><title>Node16&#45;&gt;Node17</title>
<path fill="none" stroke="midnightblue" d="M1029.57,-396.261C1095.48,-391.432 1175.63,-380.364 1197,-355 1215.65,-332.864 1180.87,-310.717 1152.44,-297.31"/>
<polygon fill="midnightblue" stroke="midnightblue" points="1153.68,-294.03 1143.12,-293.11 1150.8,-300.411 1153.68,-294.03"/>
</g>
<!-- Node18 -->
<g id="node18" class="node"><title>Node18</title>
<g id="a_node18"><a xlink:href="STLHelper_8hpp.html" target="_top" xlink:title=" ">
<polygon fill="none" stroke="black" points="227,-335.5 227,-354.5 373,-354.5 373,-335.5 227,-335.5"/>
<text text-anchor="middle" x="300" y="-342.5" font-family="Helvetica,sans-Serif" font-size="10.00">xalanc/Include/STLHelper.hpp</text>
</a>
</g>
</g>
<!-- Node16&#45;&gt;Node18 -->
<g id="edge24" class="edge"><title>Node16&#45;&gt;Node18</title>
<path fill="none" stroke="midnightblue" d="M842.317,-393.202C734.251,-385.176 550.954,-370.998 383.306,-355.102"/>
<polygon fill="midnightblue" stroke="midnightblue" points="383.594,-351.613 373.307,-354.15 382.93,-358.582 383.594,-351.613"/>
</g>
<!-- Node23 -->
<g id="node23" class="node"><title>Node23</title>
<g id="a_node23"><a xlink:href="XalanDOMException_8hpp.html" target="_top" xlink:title=" ">
<polygon fill="none" stroke="black" points="983.5,-335.5 983.5,-354.5 1188.5,-354.5 1188.5,-335.5 983.5,-335.5"/>
<text text-anchor="middle" x="1086" y="-342.5" font-family="Helvetica,sans-Serif" font-size="10.00">xalanc/XalanDOM/XalanDOMException.hpp</text>
</a>
</g>
</g>
<!-- Node16&#45;&gt;Node23 -->
<g id="edge46" class="edge"><title>Node16&#45;&gt;Node23</title>
<path fill="none" stroke="midnightblue" d="M959.768,-391.444C984.893,-382.399 1024.71,-368.064 1052.9,-357.916"/>
<polygon fill="midnightblue" stroke="midnightblue" points="1054.12,-361.197 1062.34,-354.516 1051.75,-354.611 1054.12,-361.197"/>
</g>
<!-- Node17&#45;&gt;Node3 -->
<g id="edge22" class="edge"><title>Node17&#45;&gt;Node3</title>
<path fill="none" stroke="midnightblue" d="M1121.43,-273.877C1122.25,-250.1 1122.09,-182.179 1097,-134 1089.68,-119.947 1076.98,-107.502 1065.97,-98.482"/>
<polygon fill="midnightblue" stroke="midnightblue" points="1068.03,-95.6543 1057.99,-92.2825 1063.74,-101.182 1068.03,-95.6543"/>
</g>
<!-- Node18&#45;&gt;Node3 -->
<g id="edge25" class="edge"><title>Node18&#45;&gt;Node3</title>
<path fill="none" stroke="midnightblue" d="M373.305,-335.829C376.241,-335.542 379.148,-335.264 382,-335 487.849,-325.2 764.083,-346.861 859,-299 948.878,-253.68 1013.48,-144.068 1036.13,-101.15"/>
<polygon fill="midnightblue" stroke="midnightblue" points="1039.28,-102.673 1040.76,-92.182 1033.06,-99.4616 1039.28,-102.673"/>
</g>
<!-- Node18&#45;&gt;Node9 -->
<g id="edge26" class="edge"><title>Node18&#45;&gt;Node9</title>
<path fill="none" stroke="midnightblue" d="M270.94,-335.483C226.891,-321.147 143.252,-288.123 95,-232 78.9766,-213.362 68.6288,-186.643 63.0602,-168.944"/>
<polygon fill="midnightblue" stroke="midnightblue" points="66.3854,-167.845 60.2025,-159.242 59.6706,-169.823 66.3854,-167.845"/>
</g>
<!-- Node19 -->
<g id="node19" class="node"><title>Node19</title>
<g id="a_node19"><a xlink:title=" ">
<polygon fill="none" stroke="#bfbfbf" points="104,-207 104,-226 162,-226 162,-207 104,-207"/>
<text text-anchor="middle" x="133" y="-214" font-family="Helvetica,sans-Serif" font-size="10.00">functional</text>
</a>
</g>
</g>
<!-- Node18&#45;&gt;Node19 -->
<g id="edge27" class="edge"><title>Node18&#45;&gt;Node19</title>
<path fill="none" stroke="midnightblue" d="M288.521,-335.305C260.397,-314.001 187.785,-258.999 152.638,-232.375"/>
<polygon fill="midnightblue" stroke="midnightblue" points="154.644,-229.504 144.559,-226.256 150.417,-235.084 154.644,-229.504"/>
</g>
<!-- Node20 -->
<g id="node20" class="node"><title>Node20</title>
<g id="a_node20"><a xlink:href="XalanMap_8hpp.html" target="_top" xlink:title=" ">
<polygon fill="none" stroke="black" points="313.5,-274 313.5,-293 456.5,-293 456.5,-274 313.5,-274"/>
<text text-anchor="middle" x="385" y="-281" font-family="Helvetica,sans-Serif" font-size="10.00">xalanc/Include/XalanMap.hpp</text>
</a>
</g>
</g>
<!-- Node18&#45;&gt;Node20 -->
<g id="edge28" class="edge"><title>Node18&#45;&gt;Node20</title>
<path fill="none" stroke="midnightblue" d="M312.178,-335.475C325.812,-325.931 348.132,-310.307 364.474,-298.868"/>
<polygon fill="midnightblue" stroke="midnightblue" points="366.659,-301.611 372.844,-293.009 362.645,-295.876 366.659,-301.611"/>
</g>
<!-- Node20&#45;&gt;Node3 -->
<g id="edge29" class="edge"><title>Node20&#45;&gt;Node3</title>
<path fill="none" stroke="midnightblue" d="M456.781,-274.975C549.147,-264.921 704.338,-246.67 760,-232 837.332,-211.618 856.55,-202.848 927,-165 963.982,-145.132 1003.44,-116.079 1026.07,-98.5601"/>
<polygon fill="midnightblue" stroke="midnightblue" points="1028.42,-101.16 1034.14,-92.2417 1024.11,-95.6469 1028.42,-101.16"/>
</g>
<!-- Node20&#45;&gt;Node7 -->
<g id="edge34" class="edge"><title>Node20&#45;&gt;Node7</title>
<path fill="none" stroke="midnightblue" d="M410.762,-273.869C444.918,-262.424 505.338,-242.181 543.715,-229.322"/>
<polygon fill="midnightblue" stroke="midnightblue" points="545.071,-232.559 553.441,-226.064 542.847,-225.922 545.071,-232.559"/>
</g>
<!-- Node20&#45;&gt;Node8 -->
<g id="edge30" class="edge"><title>Node20&#45;&gt;Node8</title>
<path fill="none" stroke="midnightblue" d="M350.78,-273.921C321.281,-265.685 278.173,-251.596 244,-232 225.389,-221.328 225.003,-212.669 207,-201 176.309,-181.107 152.397,-196.007 133,-165 99.2044,-110.976 212.735,-92.197 272.537,-86.1447"/>
<polygon fill="midnightblue" stroke="midnightblue" points="273.057,-89.6113 282.684,-85.1873 272.4,-82.6422 273.057,-89.6113"/>
</g>
<!-- Node20&#45;&gt;Node9 -->
<g id="edge31" class="edge"><title>Node20&#45;&gt;Node9</title>
<path fill="none" stroke="midnightblue" d="M341.698,-273.97C306.203,-265.99 255.273,-252.238 214,-232 192.846,-221.627 191.417,-212.757 171,-201 144.767,-185.894 113.187,-172.121 90.0883,-162.788"/>
<polygon fill="midnightblue" stroke="midnightblue" points="91.334,-159.517 80.7486,-159.07 88.7444,-166.021 91.334,-159.517"/>
</g>
<!-- Node20&#45;&gt;Node19 -->
<g id="edge32" class="edge"><title>Node20&#45;&gt;Node19</title>
<path fill="none" stroke="midnightblue" d="M345.048,-273.947C302.782,-264.642 234.278,-248.831 176,-232 172.994,-231.132 169.885,-230.184 166.779,-229.202"/>
<polygon fill="midnightblue" stroke="midnightblue" points="167.582,-225.782 156.989,-226.006 165.409,-232.437 167.582,-225.782"/>
</g>
<!-- Node21 -->
<g id="node21" class="node"><title>Node21</title>
<g id="a_node21"><a xlink:title=" ">
<polygon fill="none" stroke="#bfbfbf" points="711,-207 711,-226 751,-226 751,-207 711,-207"/>
<text text-anchor="middle" x="731" y="-214" font-family="Helvetica,sans-Serif" font-size="10.00">utility</text>
</a>
</g>
</g>
<!-- Node20&#45;&gt;Node21 -->
<g id="edge33" class="edge"><title>Node20&#45;&gt;Node21</title>
<path fill="none" stroke="midnightblue" d="M434.992,-273.98C490.899,-264.329 584.095,-247.873 664,-232 676.065,-229.603 689.31,-226.778 700.814,-224.261"/>
<polygon fill="midnightblue" stroke="midnightblue" points="701.795,-227.629 710.807,-222.058 700.288,-220.793 701.795,-227.629"/>
</g>
<!-- Node22 -->
<g id="node22" class="node"><title>Node22</title>
<g id="a_node22"><a xlink:href="XalanList_8hpp.html" target="_top" xlink:title=" ">
<polygon fill="none" stroke="black" points="332,-207 332,-226 472,-226 472,-207 332,-207"/>
<text text-anchor="middle" x="402" y="-214" font-family="Helvetica,sans-Serif" font-size="10.00">xalanc/Include/XalanList.hpp</text>
</a>
</g>
</g>
<!-- Node20&#45;&gt;Node22 -->
<g id="edge35" class="edge"><title>Node20&#45;&gt;Node22</title>
<path fill="none" stroke="midnightblue" d="M387.293,-273.734C389.816,-264.085 393.945,-248.3 397.186,-235.906"/>
<polygon fill="midnightblue" stroke="midnightblue" points="400.599,-236.688 399.744,-226.127 393.827,-234.916 400.599,-236.688"/>
</g>
<!-- Node22&#45;&gt;Node3 -->
<g id="edge36" class="edge"><title>Node22&#45;&gt;Node3</title>
<path fill="none" stroke="midnightblue" d="M430.774,-206.981C485.775,-190.933 609.813,-155.871 716,-134 800.791,-116.536 899.01,-102.218 965.905,-93.3441"/>
<polygon fill="midnightblue" stroke="midnightblue" points="966.495,-96.7966 975.953,-92.0209 965.581,-89.8565 966.495,-96.7966"/>
</g>
<!-- Node22&#45;&gt;Node8 -->
<g id="edge37" class="edge"><title>Node22&#45;&gt;Node8</title>
<path fill="none" stroke="midnightblue" d="M391.058,-206.674C379.798,-197.207 362.22,-181.318 350,-165 334.912,-144.851 322.127,-118.683 314.514,-101.506"/>
<polygon fill="midnightblue" stroke="midnightblue" points="317.637,-99.9076 310.468,-92.1066 311.207,-102.676 317.637,-99.9076"/>
</g>
<!-- Node22&#45;&gt;Node9 -->
<g id="edge38" class="edge"><title>Node22&#45;&gt;Node9</title>
<path fill="none" stroke="midnightblue" d="M356.293,-206.997C302.761,-197.021 211.418,-179.941 133,-165 121.01,-162.715 107.946,-160.199 96.1317,-157.913"/>
<polygon fill="midnightblue" stroke="midnightblue" points="96.6121,-154.442 86.1289,-155.976 95.2806,-161.314 96.6121,-154.442"/>
</g>
<!-- Node22&#45;&gt;Node10 -->
<g id="edge39" class="edge"><title>Node22&#45;&gt;Node10</title>
<path fill="none" stroke="midnightblue" d="M401.069,-206.975C399.753,-190.108 399.55,-152.508 421,-134 494.943,-70.2016 764.197,-121.457 859,-98 861.365,-97.4148 863.777,-96.6842 866.169,-95.8642"/>
<polygon fill="midnightblue" stroke="midnightblue" points="867.682,-99.0309 875.724,-92.1338 865.136,-92.5102 867.682,-99.0309"/>
</g>
<!-- Node22&#45;&gt;Node11 -->
<g id="edge40" class="edge"><title>Node22&#45;&gt;Node11</title>
<path fill="none" stroke="midnightblue" d="M396.568,-206.789C387.223,-190.572 370.696,-155.456 388,-134 413.578,-102.285 537.617,-89.4833 593.548,-85.2618"/>
<polygon fill="midnightblue" stroke="midnightblue" points="594.053,-88.7347 603.777,-84.5288 593.553,-81.7526 594.053,-88.7347"/>
</g>
<!-- Node22&#45;&gt;Node12 -->
<g id="edge41" class="edge"><title>Node22&#45;&gt;Node12</title>
<path fill="none" stroke="midnightblue" d="M409.013,-206.734C417.122,-196.598 430.648,-179.69 440.755,-167.056"/>
<polygon fill="midnightblue" stroke="midnightblue" points="443.584,-169.122 447.098,-159.127 438.118,-164.75 443.584,-169.122"/>
</g>
<!-- Node22&#45;&gt;Node13 -->
<g id="edge42" class="edge"><title>Node22&#45;&gt;Node13</title>
<path fill="none" stroke="midnightblue" d="M418.333,-206.869C439.102,-195.893 475.186,-176.824 499.57,-163.938"/>
<polygon fill="midnightblue" stroke="midnightblue" points="501.393,-166.934 508.599,-159.167 498.122,-160.745 501.393,-166.934"/>
</g>
<!-- Node22&#45;&gt;Node14 -->
<g id="edge43" class="edge"><title>Node22&#45;&gt;Node14</title>
<path fill="none" stroke="midnightblue" d="M455.061,-206.976C516.634,-197.05 621.21,-180.087 711,-165 712.272,-164.786 713.556,-164.57 714.847,-164.352"/>
<polygon fill="midnightblue" stroke="midnightblue" points="715.607,-167.774 724.882,-162.652 714.437,-160.872 715.607,-167.774"/>
</g>
<!-- Node23&#45;&gt;Node17 -->
<g id="edge47" class="edge"><title>Node23&#45;&gt;Node17</title>
<path fill="none" stroke="midnightblue" d="M1091.01,-335.475C1096.16,-326.727 1104.31,-312.869 1110.82,-301.809"/>
<polygon fill="midnightblue" stroke="midnightblue" points="1113.94,-303.403 1115.99,-293.009 1107.91,-299.854 1113.94,-303.403"/>
</g>
<!-- Node24&#45;&gt;Node2 -->
<g id="edge49" class="edge"><title>Node24&#45;&gt;Node2</title>
<path fill="none" stroke="midnightblue" d="M939.062,-518.498C1060.11,-502.961 1255,-467.739 1255,-402 1255,-402 1255,-402 1255,-344 1255,-308.2 1249,-267.096 1244.59,-241.709"/>
<polygon fill="midnightblue" stroke="midnightblue" points="1248.03,-241.076 1242.82,-231.852 1241.14,-242.314 1248.03,-241.076"/>
</g>
<!-- Node24&#45;&gt;Node16 -->
<g id="edge71" class="edge"><title>Node24&#45;&gt;Node16</title>
<path fill="none" stroke="midnightblue" d="M855.086,-514.479C871.902,-491.104 905.605,-444.253 923.755,-419.022"/>
<polygon fill="midnightblue" stroke="midnightblue" points="926.679,-420.95 929.678,-410.789 920.997,-416.862 926.679,-420.95"/>
</g>
<!-- Node25 -->
<g id="node25" class="node"><title>Node25</title>
<g id="a_node25"><a xlink:href="ReusableArenaAllocator_8hpp.html" target="_top" xlink:title=" ">
<polygon fill="none" stroke="black" points="533.5,-447.5 533.5,-477.5 676.5,-477.5 676.5,-447.5 533.5,-447.5"/>
<text text-anchor="start" x="541.5" y="-465.5" font-family="Helvetica,sans-Serif" font-size="10.00">xalanc/PlatformSupport</text>
<text text-anchor="middle" x="605" y="-454.5" font-family="Helvetica,sans-Serif" font-size="10.00">/ReusableArenaAllocator.hpp</text>
</a>
</g>
</g>
<!-- Node24&#45;&gt;Node25 -->
<g id="edge50" class="edge"><title>Node24&#45;&gt;Node25</title>
<path fill="none" stroke="midnightblue" d="M793.219,-514.476C756.125,-504.43 706.008,-490.856 666.816,-480.242"/>
<polygon fill="midnightblue" stroke="midnightblue" points="667.669,-476.847 657.102,-477.611 665.839,-483.603 667.669,-476.847"/>
</g>
<!-- Node25&#45;&gt;Node9 -->
<g id="edge51" class="edge"><title>Node25&#45;&gt;Node9</title>
<path fill="none" stroke="midnightblue" d="M533.223,-455.238C372.965,-440.291 0,-399.733 0,-346 0,-346 0,-346 0,-282.5 0,-237.887 28.1133,-191.412 45.1942,-167.292"/>
<polygon fill="midnightblue" stroke="midnightblue" points="48.0395,-169.331 51.1189,-159.193 42.3898,-165.198 48.0395,-169.331"/>
</g>
<!-- Node26 -->
<g id="node26" class="node"><title>Node26</title>
<g id="a_node26"><a xlink:href="ReusableArenaBlock_8hpp.html" target="_top" xlink:title=" ">
<polygon fill="none" stroke="black" points="533,-335.5 533,-354.5 659,-354.5 659,-335.5 533,-335.5"/>
<text text-anchor="middle" x="596" y="-342.5" font-family="Helvetica,sans-Serif" font-size="10.00">ReusableArenaBlock.hpp</text>
</a>
</g>
</g>
<!-- Node25&#45;&gt;Node26 -->
<g id="edge52" class="edge"><title>Node25&#45;&gt;Node26</title>
<path fill="none" stroke="midnightblue" d="M603.896,-447.337C602.282,-426.622 599.274,-388.016 597.473,-364.899"/>
<polygon fill="midnightblue" stroke="midnightblue" points="600.942,-364.367 596.676,-354.669 593.963,-364.911 600.942,-364.367"/>
</g>
<!-- Node30 -->
<g id="node30" class="node"><title>Node30</title>
<g id="a_node30"><a xlink:href="ArenaAllocator_8hpp.html" target="_top" xlink:title=" ">
<polygon fill="none" stroke="black" points="250.5,-391.5 250.5,-410.5 349.5,-410.5 349.5,-391.5 250.5,-391.5"/>
<text text-anchor="middle" x="300" y="-398.5" font-family="Helvetica,sans-Serif" font-size="10.00">ArenaAllocator.hpp</text>
</a>
</g>
</g>
<!-- Node25&#45;&gt;Node30 -->
<g id="edge65" class="edge"><title>Node25&#45;&gt;Node30</title>
<path fill="none" stroke="midnightblue" d="M533.491,-447.55C478.473,-436.817 403.643,-422.219 353.676,-412.471"/>
<polygon fill="midnightblue" stroke="midnightblue" points="354.202,-409.008 343.717,-410.528 352.862,-415.878 354.202,-409.008"/>
</g>
<!-- Node27 -->
<g id="node27" class="node"><title>Node27</title>
<g id="a_node27"><a xlink:href="ArenaBlockBase_8hpp.html" target="_top" xlink:title=" ">
<polygon fill="none" stroke="black" points="533,-268.5 533,-298.5 651,-298.5 651,-268.5 533,-268.5"/>
<text text-anchor="start" x="541" y="-286.5" font-family="Helvetica,sans-Serif" font-size="10.00">xalanc/PlatformSupport</text>
<text text-anchor="middle" x="592" y="-275.5" font-family="Helvetica,sans-Serif" font-size="10.00">/ArenaBlockBase.hpp</text>
</a>
</g>
</g>
<!-- Node26&#45;&gt;Node27 -->
<g id="edge53" class="edge"><title>Node26&#45;&gt;Node27</title>
<path fill="none" stroke="midnightblue" d="M595.427,-335.475C594.956,-328.471 594.265,-318.192 593.627,-308.696"/>
<polygon fill="midnightblue" stroke="midnightblue" points="597.106,-308.266 592.943,-298.523 590.121,-308.735 597.106,-308.266"/>
</g>
<!-- Node29 -->
<g id="node29" class="node"><title>Node29</title>
<g id="a_node29"><a xlink:href="XalanMemMgrAutoPtr_8hpp.html" target="_top" xlink:title=" ">
<polygon fill="none" stroke="black" points="707.5,-268.5 707.5,-298.5 850.5,-298.5 850.5,-268.5 707.5,-268.5"/>
<text text-anchor="start" x="715.5" y="-286.5" font-family="Helvetica,sans-Serif" font-size="10.00">xalanc/Include/XalanMemMgr</text>
<text text-anchor="middle" x="779" y="-275.5" font-family="Helvetica,sans-Serif" font-size="10.00">AutoPtr.hpp</text>
</a>
</g>
</g>
<!-- Node26&#45;&gt;Node29 -->
<g id="edge59" class="edge"><title>Node26&#45;&gt;Node29</title>
<path fill="none" stroke="midnightblue" d="M622.219,-335.475C649.205,-326.701 691.997,-312.788 726.061,-301.712"/>
<polygon fill="midnightblue" stroke="midnightblue" points="727.443,-304.944 735.871,-298.523 725.278,-298.287 727.443,-304.944"/>
</g>
<!-- Node27&#45;&gt;Node10 -->
<g id="edge54" class="edge"><title>Node27&#45;&gt;Node10</title>
<path fill="none" stroke="midnightblue" d="M651.225,-275.689C717.188,-264.696 821.435,-236.455 874,-165 887.56,-146.568 891.626,-119.967 892.748,-102.226"/>
<polygon fill="midnightblue" stroke="midnightblue" points="896.254,-102.145 893.131,-92.0212 889.259,-101.883 896.254,-102.145"/>
</g>
<!-- Node27&#45;&gt;Node14 -->
<g id="edge56" class="edge"><title>Node27&#45;&gt;Node14</title>
<path fill="none" stroke="midnightblue" d="M613.082,-268.309C627.591,-258.399 647.201,-244.717 664,-232 681.378,-218.845 683.9,-213.142 702,-201 719.251,-189.428 739.404,-178.227 756.531,-169.327"/>
<polygon fill="midnightblue" stroke="midnightblue" points="758.393,-172.306 765.697,-164.631 755.201,-166.076 758.393,-172.306"/>
</g>
<!-- Node27&#45;&gt;Node19 -->
<g id="edge55" class="edge"><title>Node27&#45;&gt;Node19</title>
<path fill="none" stroke="midnightblue" d="M532.933,-274.135C437.811,-260.665 253.2,-234.522 172.435,-223.084"/>
<polygon fill="midnightblue" stroke="midnightblue" points="172.594,-219.572 162.202,-221.635 171.612,-226.503 172.594,-219.572"/>
</g>
<!-- Node28 -->
<g id="node28" class="node"><title>Node28</title>
<g id="a_node28"><a xlink:href="XalanAllocator_8hpp.html" target="_top" xlink:title=" ">
<polygon fill="none" stroke="black" points="142,-134.5 142,-164.5 260,-164.5 260,-134.5 142,-134.5"/>
<text text-anchor="start" x="150" y="-152.5" font-family="Helvetica,sans-Serif" font-size="10.00">xalanc/PlatformSupport</text>
<text text-anchor="middle" x="201" y="-141.5" font-family="Helvetica,sans-Serif" font-size="10.00">/XalanAllocator.hpp</text>
</a>
</g>
</g>
<!-- Node27&#45;&gt;Node28 -->
<g id="edge57" class="edge"><title>Node27&#45;&gt;Node28</title>
<path fill="none" stroke="midnightblue" d="M532.958,-274.467C451.291,-263.075 311.443,-242.453 290,-232 261.127,-217.926 234.917,-191.479 218.535,-172.526"/>
<polygon fill="midnightblue" stroke="midnightblue" points="221.045,-170.073 211.931,-164.669 215.686,-174.576 221.045,-170.073"/>
</g>
<!-- Node28&#45;&gt;Node8 -->
<g id="edge58" class="edge"><title>Node28&#45;&gt;Node8</title>
<path fill="none" stroke="midnightblue" d="M224,-134.396C241.941,-123.395 266.72,-108.2 284.525,-97.2819"/>
<polygon fill="midnightblue" stroke="midnightblue" points="286.432,-100.218 293.127,-92.007 282.773,-94.2509 286.432,-100.218"/>
</g>
<!-- Node29&#45;&gt;Node2 -->
<g id="edge60" class="edge"><title>Node29&#45;&gt;Node2</title>
<path fill="none" stroke="midnightblue" d="M850.525,-272.415C932.226,-260.896 1065.88,-242.051 1153.4,-229.71"/>
<polygon fill="midnightblue" stroke="midnightblue" points="1153.9,-233.175 1163.31,-228.313 1152.92,-226.244 1153.9,-233.175"/>
</g>
<!-- Node29&#45;&gt;Node8 -->
<g id="edge62" class="edge"><title>Node29&#45;&gt;Node8</title>
<path fill="none" stroke="midnightblue" d="M707.283,-273.587C691.7,-271.699 675.302,-269.749 660,-268 585.172,-259.445 376.28,-285.232 323,-232 288.528,-197.559 296.044,-133.662 302.479,-102.113"/>
<polygon fill="midnightblue" stroke="midnightblue" points="305.959,-102.59 304.721,-92.0677 299.127,-101.065 305.959,-102.59"/>
</g>
<!-- Node29&#45;&gt;Node10 -->
<g id="edge63" class="edge"><title>Node29&#45;&gt;Node10</title>
<path fill="none" stroke="midnightblue" d="M813.988,-268.36C831.995,-259.812 853.381,-247.547 869,-232 902.108,-199.043 913.298,-180.289 907,-134 905.521,-123.127 902.328,-111.29 899.364,-101.811"/>
<polygon fill="midnightblue" stroke="midnightblue" points="902.679,-100.686 896.219,-92.2874 896.032,-102.881 902.679,-100.686"/>
</g>
<!-- Node29&#45;&gt;Node14 -->
<g id="edge61" class="edge"><title>Node29&#45;&gt;Node14</title>
<path fill="none" stroke="midnightblue" d="M780.712,-268.374C783.431,-245.945 788.767,-201.924 792.093,-174.486"/>
<polygon fill="midnightblue" stroke="midnightblue" points="795.571,-174.873 793.3,-164.525 788.622,-174.031 795.571,-174.873"/>
</g>
<!-- Node29&#45;&gt;Node21 -->
<g id="edge64" class="edge"><title>Node29&#45;&gt;Node21</title>
<path fill="none" stroke="midnightblue" d="M768.585,-268.396C761.175,-258.361 751.188,-244.838 743.372,-234.253"/>
<polygon fill="midnightblue" stroke="midnightblue" points="746.177,-232.16 737.421,-226.195 740.546,-236.318 746.177,-232.16"/>
</g>
<!-- Node30&#45;&gt;Node9 -->
<g id="edge66" class="edge"><title>Node30&#45;&gt;Node9</title>
<path fill="none" stroke="midnightblue" d="M276.286,-391.415C226.849,-372.03 113.893,-319.606 72,-232 62.4387,-212.006 59.3179,-186.489 58.3468,-169.381"/>
<polygon fill="midnightblue" stroke="midnightblue" points="61.8321,-168.915 57.9653,-159.051 54.8369,-169.173 61.8321,-168.915"/>
</g>
<!-- Node30&#45;&gt;Node18 -->
<g id="edge67" class="edge"><title>Node30&#45;&gt;Node18</title>
<path fill="none" stroke="midnightblue" d="M300,-391.083C300,-384.006 300,-373.861 300,-364.986"/>
<polygon fill="midnightblue" stroke="midnightblue" points="303.5,-364.751 300,-354.751 296.5,-364.751 303.5,-364.751"/>
</g>
<!-- Node30&#45;&gt;Node22 -->
<g id="edge68" class="edge"><title>Node30&#45;&gt;Node22</title>
<path fill="none" stroke="midnightblue" d="M271.294,-391.408C242.71,-381.149 204.842,-361.932 218,-335 245.98,-277.733 316.595,-245.001 361.76,-229.281"/>
<polygon fill="midnightblue" stroke="midnightblue" points="362.897,-232.591 371.264,-226.092 360.67,-225.955 362.897,-232.591"/>
</g>
<!-- Node31 -->
<g id="node31" class="node"><title>Node31</title>
<g id="a_node31"><a xlink:href="ArenaBlock_8hpp.html" target="_top" xlink:title=" ">
<polygon fill="none" stroke="black" points="391,-335.5 391,-354.5 477,-354.5 477,-335.5 391,-335.5"/>
<text text-anchor="middle" x="434" y="-342.5" font-family="Helvetica,sans-Serif" font-size="10.00">ArenaBlock.hpp</text>
</a>
</g>
</g>
<!-- Node30&#45;&gt;Node31 -->
<g id="edge69" class="edge"><title>Node30&#45;&gt;Node31</title>
<path fill="none" stroke="midnightblue" d="M321.233,-391.444C343.384,-382.517 378.319,-368.439 403.436,-358.317"/>
<polygon fill="midnightblue" stroke="midnightblue" points="404.9,-361.501 412.867,-354.516 402.283,-355.008 404.9,-361.501"/>
</g>
<!-- Node31&#45;&gt;Node27 -->
<g id="edge70" class="edge"><title>Node31&#45;&gt;Node27</title>
<path fill="none" stroke="midnightblue" d="M456.638,-335.475C479.636,-326.814 515.933,-313.145 545.154,-302.141"/>
<polygon fill="midnightblue" stroke="midnightblue" points="546.638,-305.323 554.763,-298.523 544.171,-298.772 546.638,-305.323"/>
</g>
</g>
</svg>
        <g id="navigator" transform="translate(0 0)" fill="#404254">
                <rect fill="#f2f5e9" fill-opacity="0.5" stroke="#606060" stroke-width=".5" x="0" y="0" width="60" height="60"/>
                <use id="zoomplus" xlink:href="#zoomPlus" x="17" y="9" onmousedown="handleZoom(evt,'in')"/>
                <use id="zoomminus" xlink:href="#zoomMin" x="42" y="9" onmousedown="handleZoom(evt,'out')"/>
                <use id="reset" xlink:href="#resetDef" x="30" y="36" onmousedown="handleReset()"/>
                <g id="arrowUp" xlink:href="#dirArrow" transform="translate(30 24)" onmousedown="handlePan(0,-1)">
                  <use xlink:href="#rim" fill="#404040">
                        <set attributeName="fill" to="#808080" begin="arrowUp.mouseover" end="arrowUp.mouseout"/>
                  </use>
                  <path fill="none" stroke="white" stroke-width="1.5" d="M0,-3.0v7 M-2.5,-0.5L0,-3.0L2.5,-0.5"/>
                </g>
                <g id="arrowRight" xlink:href="#dirArrow" transform="rotate(90) translate(36 -43)" onmousedown="handlePan(1,0)">
                  <use xlink:href="#rim" fill="#404040">
                        <set attributeName="fill" to="#808080" begin="arrowRight.mouseover" end="arrowRight.mouseout"/>
                  </use>
                  <path fill="none" stroke="white" stroke-width="1.5" d="M0,-3.0v7 M-2.5,-0.5L0,-3.0L2.5,-0.5"/>
                </g>
                <g id="arrowDown" xlink:href="#dirArrow" transform="rotate(180) translate(-30 -48)" onmousedown="handlePan(0,1)">
                  <use xlink:href="#rim" fill="#404040">
                        <set attributeName="fill" to="#808080" begin="arrowDown.mouseover" end="arrowDown.mouseout"/>
                  </use>
                  <path fill="none" stroke="white" stroke-width="1.5" d="M0,-3.0v7 M-2.5,-0.5L0,-3.0L2.5,-0.5"/>
                </g>
                <g id="arrowLeft" xlink:href="#dirArrow" transform="rotate(270) translate(-36 17)" onmousedown="handlePan(-1,0)">
                  <use xlink:href="#rim" fill="#404040">
                        <set attributeName="fill" to="#808080" begin="arrowLeft.mouseover" end="arrowLeft.mouseout"/>
                  </use>
                  <path fill="none" stroke="white" stroke-width="1.5" d="M0,-3.0v7 M-2.5,-0.5L0,-3.0L2.5,-0.5"/>
                </g>
        </g>
        <svg viewBox="0 0 15 15" width="100%" height="30px" preserveAspectRatio="xMaxYMin meet">
         <g id="arrow_out" transform="scale(0.3 0.3)">
          <a xlink:href="XalanDOMStringCache_8hpp__incl_org.svg" target="_base">
           <rect id="button" ry="5" rx="5" y="6" x="6" height="38" width="38"
                fill="#f2f5e9" fill-opacity="0.5" stroke="#606060" stroke-width="1.0"/>
           <path id="arrow"
             d="M 11.500037,31.436501 C 11.940474,20.09759 22.043105,11.32322 32.158766,21.979434 L 37.068811,17.246167 C 37.068811,17.246167 37.088388,32 37.088388,32 L 22.160133,31.978069 C 22.160133,31.978069 26.997745,27.140456 26.997745,27.140456 C 18.528582,18.264221 13.291696,25.230495 11.500037,31.436501 z"
             style="fill:#404040;"/>
          </a>
         </g>
        </svg>
</svg>
