<?xml version="1.0" encoding="UTF-8" standalone="no"?>
<!DOCTYPE svg PUBLIC "-//W3C//DTD SVG 1.1//EN"
 "http://www.w3.org/Graphics/SVG/1.1/DTD/svg11.dtd">
<!-- Generated by graphviz version 2.43.0 (0)
 -->
<!-- Title: xalanc/XPath/XalanQNameByValue.hpp Pages: 1 -->
<!--zoomable 430 -->
<svg id="main" version="1.1" xmlns="http://www.w3.org/2000/svg" xmlns:xlink="http://www.w3.org/1999/xlink" xml:space="preserve" onload="init(evt)">
<style type="text/css"><![CDATA[
.edge:hover path { stroke: red; }
.edge:hover polygon { stroke: red; fill: red; }
]]></style>
<script type="text/javascript"><![CDATA[
var edges = document.getElementsByTagName('g');
if (edges && edges.length) {
  for (var i=0;i<edges.length;i++) {
    if (edges[i].id.substr(0,4)=='edge') {
      edges[i].setAttribute('class','edge');
    }
  }
}
]]></script>
        <defs>
                <circle id="rim" cx="0" cy="0" r="7"/>
                <circle id="rim2" cx="0" cy="0" r="3.5"/>
                <g id="zoomPlus">
                        <use xlink:href="#rim" fill="#404040">
                                <set attributeName="fill" to="#808080" begin="zoomplus.mouseover" end="zoomplus.mouseout"/>
                        </use>
                        <path d="M-4,0h8M0,-4v8" fill="none" stroke="white" stroke-width="1.5" pointer-events="none"/>
                </g>
                <g id="zoomMin">
                        <use xlink:href="#rim" fill="#404040">
                                <set attributeName="fill" to="#808080" begin="zoomminus.mouseover" end="zoomminus.mouseout"/>
                        </use>
                        <path d="M-4,0h8" fill="none" stroke="white" stroke-width="1.5" pointer-events="none"/>
                </g>
                <g id="dirArrow">
                        <path fill="none" stroke="white" stroke-width="1.5" d="M0,-3.0v7 M-2.5,-0.5L0,-3.0L2.5,-0.5"/>
                </g>
               <g id="resetDef">
                       <use xlink:href="#rim2" fill="#404040">
                               <set attributeName="fill" to="#808080" begin="reset.mouseover" end="reset.mouseout"/>
                       </use>
               </g>
        </defs>

<script type="text/javascript">
var viewWidth = 993;
var viewHeight = 430;
var sectionId = 'dynsection-1';
</script>
<script xlink:href="svgpan.js"/>
<svg id="graph" class="graph">
<g id="viewport">
<title>xalanc/XPath/XalanQNameByValue.hpp</title>
<!-- Node1 -->
<g id="node1" class="node">
<title>Node1</title>
<g id="a_node1"><a xlink:title=" ">
<polygon fill="#bfbfbf" stroke="black" points="408.75,-391.5 408.75,-421.5 568.75,-421.5 568.75,-391.5 408.75,-391.5"/>
<text text-anchor="start" x="416.75" y="-409.5" font-family="Helvetica,sans-Serif" font-size="10.00">xalanc/XPath/XalanQNameBy</text>
<text text-anchor="middle" x="488.75" y="-398.5" font-family="Helvetica,sans-Serif" font-size="10.00">Value.hpp</text>
</a>
</g>
</g>
<!-- Node2 -->
<g id="node2" class="node">
<title>Node2</title>
<g id="a_node2"><a xlink:href="XalanTransformer_8hpp.html" target="_top" xlink:title=" ">
<polygon fill="none" stroke="black" points="126.75,-324.5 126.75,-354.5 264.75,-354.5 264.75,-324.5 126.75,-324.5"/>
<text text-anchor="start" x="134.75" y="-342.5" font-family="Helvetica,sans-Serif" font-size="10.00">xalanc/XalanTransformer</text>
<text text-anchor="middle" x="195.75" y="-331.5" font-family="Helvetica,sans-Serif" font-size="10.00">/XalanTransformer.hpp</text>
</a>
</g>
</g>
<!-- Node1&#45;&gt;Node2 -->
<g id="edge1" class="edge">
<title>Node1&#45;&gt;Node2</title>
<path fill="none" stroke="midnightblue" d="M415.5,-389.25C367.38,-378.58 305.08,-364.75 259.11,-354.55"/>
<polygon fill="midnightblue" stroke="midnightblue" points="415.02,-392.73 425.54,-391.48 416.53,-385.89 415.02,-392.73"/>
</g>
<!-- Node3 -->
<g id="node3" class="node">
<title>Node3</title>
<g id="a_node3"><a xlink:href="XalanQNameByValueAllocator_8hpp.html" target="_top" xlink:title=" ">
<polygon fill="none" stroke="black" points="320.75,-324.5 320.75,-354.5 480.75,-354.5 480.75,-324.5 320.75,-324.5"/>
<text text-anchor="start" x="328.75" y="-342.5" font-family="Helvetica,sans-Serif" font-size="10.00">xalanc/XPath/XalanQNameBy</text>
<text text-anchor="middle" x="400.75" y="-331.5" font-family="Helvetica,sans-Serif" font-size="10.00">ValueAllocator.hpp</text>
</a>
</g>
</g>
<!-- Node1&#45;&gt;Node3 -->
<g id="edge2" class="edge">
<title>Node1&#45;&gt;Node3</title>
<path fill="none" stroke="midnightblue" d="M461.61,-385.45C448.07,-375.45 432.03,-363.6 419.81,-354.58"/>
<polygon fill="midnightblue" stroke="midnightblue" points="459.54,-388.27 469.66,-391.4 463.69,-382.64 459.54,-388.27"/>
</g>
<!-- Node4 -->
<g id="node4" class="node">
<title>Node4</title>
<g id="a_node4"><a xlink:href="StylesheetConstructionContextDefault_8hpp.html" target="_top" xlink:title=" ">
<polygon fill="none" stroke="black" points="197.25,-257.5 197.25,-287.5 388.25,-287.5 388.25,-257.5 197.25,-257.5"/>
<text text-anchor="start" x="205.25" y="-275.5" font-family="Helvetica,sans-Serif" font-size="10.00">xalanc/XSLT/StylesheetConstruction</text>
<text text-anchor="middle" x="292.75" y="-264.5" font-family="Helvetica,sans-Serif" font-size="10.00">ContextDefault.hpp</text>
</a>
</g>
</g>
<!-- Node1&#45;&gt;Node4 -->
<g id="edge11" class="edge">
<title>Node1&#45;&gt;Node4</title>
<path fill="none" stroke="midnightblue" d="M398.44,-398.37C367.16,-391.52 334.32,-378.7 311.75,-355 294.32,-336.69 291.81,-305.62 291.99,-287.59"/>
<polygon fill="midnightblue" stroke="midnightblue" points="398.04,-401.86 408.53,-400.39 399.41,-395 398.04,-401.86"/>
</g>
<!-- Node6 -->
<g id="node6" class="node">
<title>Node6</title>
<g id="a_node6"><a xlink:href="XPathExecutionContextDefault_8hpp.html" target="_top" xlink:title=" ">
<polygon fill="none" stroke="black" points="777.75,-257.5 777.75,-287.5 935.75,-287.5 935.75,-257.5 777.75,-257.5"/>
<text text-anchor="start" x="785.75" y="-275.5" font-family="Helvetica,sans-Serif" font-size="10.00">xalanc/XPath/XPathExecution</text>
<text text-anchor="middle" x="856.75" y="-264.5" font-family="Helvetica,sans-Serif" font-size="10.00">ContextDefault.hpp</text>
</a>
</g>
</g>
<!-- Node1&#45;&gt;Node6 -->
<g id="edge5" class="edge">
<title>Node1&#45;&gt;Node6</title>
<path fill="none" stroke="midnightblue" d="M579,-399.9C632.93,-393.83 701.64,-381.22 757.75,-355 793.25,-338.41 826.73,-306.11 844.19,-287.54"/>
<polygon fill="midnightblue" stroke="midnightblue" points="578.33,-396.45 568.76,-400.99 579.08,-403.41 578.33,-396.45"/>
</g>
<!-- Node11 -->
<g id="node11" class="node">
<title>Node11</title>
<g id="a_node11"><a xlink:href="StylesheetHandler_8hpp.html" target="_top" xlink:title=" ">
<polygon fill="none" stroke="black" points="646.75,-140 646.75,-159 834.75,-159 834.75,-140 646.75,-140"/>
<text text-anchor="middle" x="740.75" y="-147" font-family="Helvetica,sans-Serif" font-size="10.00">xalanc/XSLT/StylesheetHandler.hpp</text>
</a>
</g>
</g>
<!-- Node1&#45;&gt;Node11 -->
<g id="edge12" class="edge">
<title>Node1&#45;&gt;Node11</title>
<path fill="none" stroke="midnightblue" d="M578.85,-395.52C609.29,-388.34 641.63,-376.03 665.75,-355 727.9,-300.83 738.59,-190.62 740.39,-159.1"/>
<polygon fill="midnightblue" stroke="midnightblue" points="578.06,-392.11 569.05,-397.68 579.57,-398.95 578.06,-392.11"/>
</g>
<!-- Node12 -->
<g id="node12" class="node">
<title>Node12</title>
<g id="a_node12"><a xlink:href="TopLevelArg_8hpp.html" target="_top" xlink:title=" ">
<polygon fill="none" stroke="black" points="498.75,-330 498.75,-349 656.75,-349 656.75,-330 498.75,-330"/>
<text text-anchor="middle" x="577.75" y="-337" font-family="Helvetica,sans-Serif" font-size="10.00">xalanc/XSLT/TopLevelArg.hpp</text>
</a>
</g>
</g>
<!-- Node1&#45;&gt;Node12 -->
<g id="edge13" class="edge">
<title>Node1&#45;&gt;Node12</title>
<path fill="none" stroke="midnightblue" d="M516.4,-385.31C533.12,-373.1 553.55,-358.18 566.11,-349.01"/>
<polygon fill="midnightblue" stroke="midnightblue" points="514.08,-382.67 508.07,-391.4 518.21,-388.32 514.08,-382.67"/>
</g>
<!-- Node3&#45;&gt;Node4 -->
<g id="edge3" class="edge">
<title>Node3&#45;&gt;Node4</title>
<path fill="none" stroke="midnightblue" d="M368.38,-319.02C351.57,-308.9 331.42,-296.77 316.14,-287.58"/>
<polygon fill="midnightblue" stroke="midnightblue" points="366.95,-322.24 377.32,-324.4 370.56,-316.24 366.95,-322.24"/>
</g>
<!-- Node5 -->
<g id="node5" class="node">
<title>Node5</title>
<g id="a_node5"><a xlink:href="XalanCompiledStylesheetDefault_8hpp.html" target="_top" xlink:title=" ">
<polygon fill="none" stroke="black" points="122.25,-0.5 122.25,-30.5 325.25,-30.5 325.25,-0.5 122.25,-0.5"/>
<text text-anchor="start" x="130.25" y="-18.5" font-family="Helvetica,sans-Serif" font-size="10.00">xalanc/XalanTransformer</text>
<text text-anchor="middle" x="223.75" y="-7.5" font-family="Helvetica,sans-Serif" font-size="10.00">/XalanCompiledStylesheetDefault.hpp</text>
</a>
</g>
</g>
<!-- Node4&#45;&gt;Node5 -->
<g id="edge4" class="edge">
<title>Node4&#45;&gt;Node5</title>
<path fill="none" stroke="midnightblue" d="M231.56,-254.22C162.81,-231.16 54.61,-183.01 6.75,-98 -22.07,-46.8 52.56,-27.49 122.02,-20.35"/>
<polygon fill="midnightblue" stroke="midnightblue" points="230.81,-257.66 241.4,-257.45 232.98,-251.01 230.81,-257.66"/>
</g>
<!-- Node7 -->
<g id="node7" class="node">
<title>Node7</title>
<g id="a_node7"><a xlink:href="StylesheetExecutionContextDefault_8hpp.html" target="_top" xlink:title=" ">
<polygon fill="none" stroke="black" points="632.25,-67.5 632.25,-97.5 809.25,-97.5 809.25,-67.5 632.25,-67.5"/>
<text text-anchor="start" x="640.25" y="-85.5" font-family="Helvetica,sans-Serif" font-size="10.00">xalanc/XSLT/StylesheetExecution</text>
<text text-anchor="middle" x="720.75" y="-74.5" font-family="Helvetica,sans-Serif" font-size="10.00">ContextDefault.hpp</text>
</a>
</g>
</g>
<!-- Node6&#45;&gt;Node7 -->
<g id="edge6" class="edge">
<title>Node6&#45;&gt;Node7</title>
<path fill="none" stroke="midnightblue" d="M861.41,-247.45C865.74,-217.75 868.29,-167.11 843.75,-134 830.77,-116.47 810.61,-105.01 790.34,-97.51"/>
<polygon fill="midnightblue" stroke="midnightblue" points="857.95,-246.94 859.79,-257.37 864.86,-248.07 857.95,-246.94"/>
</g>
<!-- Node7&#45;&gt;Node5 -->
<g id="edge10" class="edge">
<title>Node7&#45;&gt;Node5</title>
<path fill="none" stroke="midnightblue" d="M622.22,-66.81C515.35,-52.15 403.81,-38.23 325.35,-28.68"/>
<polygon fill="midnightblue" stroke="midnightblue" points="621.83,-70.28 632.22,-68.18 622.79,-63.35 621.83,-70.28"/>
</g>
<!-- Node8 -->
<g id="node8" class="node">
<title>Node8</title>
<g id="a_node8"><a xlink:href="ICUBridgeCollationCompareFunctorImpl_8hpp.html" target="_top" xlink:title=" ">
<polygon fill="none" stroke="black" points="629.25,-0.5 629.25,-30.5 812.25,-30.5 812.25,-0.5 629.25,-0.5"/>
<text text-anchor="start" x="637.25" y="-18.5" font-family="Helvetica,sans-Serif" font-size="10.00">xalanc/ICUBridge/ICUBridge</text>
<text text-anchor="middle" x="720.75" y="-7.5" font-family="Helvetica,sans-Serif" font-size="10.00">CollationCompareFunctorImpl.hpp</text>
</a>
</g>
</g>
<!-- Node7&#45;&gt;Node8 -->
<g id="edge7" class="edge">
<title>Node7&#45;&gt;Node8</title>
<path fill="none" stroke="midnightblue" d="M720.75,-57.11C720.75,-48.15 720.75,-38.32 720.75,-30.58"/>
<polygon fill="midnightblue" stroke="midnightblue" points="717.25,-57.4 720.75,-67.4 724.25,-57.4 717.25,-57.4"/>
</g>
<!-- Node9 -->
<g id="node9" class="node">
<title>Node9</title>
<g id="a_node9"><a xlink:href="ICUFormatNumberFunctor_8hpp.html" target="_top" xlink:title=" ">
<polygon fill="none" stroke="black" points="830.25,-0.5 830.25,-30.5 985.25,-30.5 985.25,-0.5 830.25,-0.5"/>
<text text-anchor="start" x="838.25" y="-18.5" font-family="Helvetica,sans-Serif" font-size="10.00">xalanc/ICUBridge/ICUFormat</text>
<text text-anchor="middle" x="907.75" y="-7.5" font-family="Helvetica,sans-Serif" font-size="10.00">NumberFunctor.hpp</text>
</a>
</g>
</g>
<!-- Node7&#45;&gt;Node9 -->
<g id="edge8" class="edge">
<title>Node7&#45;&gt;Node9</title>
<path fill="none" stroke="midnightblue" d="M770.84,-64.09C801.02,-53.6 838.97,-40.41 867.26,-30.58"/>
<polygon fill="midnightblue" stroke="midnightblue" points="769.63,-60.81 761.33,-67.4 771.92,-67.42 769.63,-60.81"/>
</g>
<!-- Node10 -->
<g id="node10" class="node">
<title>Node10</title>
<g id="a_node10"><a xlink:href="ICUXalanNumberFormatFactory_8hpp.html" target="_top" xlink:title=" ">
<polygon fill="none" stroke="black" points="462.25,-0.5 462.25,-30.5 611.25,-30.5 611.25,-0.5 462.25,-0.5"/>
<text text-anchor="start" x="470.25" y="-18.5" font-family="Helvetica,sans-Serif" font-size="10.00">xalanc/ICUBridge/ICUXalan</text>
<text text-anchor="middle" x="536.75" y="-7.5" font-family="Helvetica,sans-Serif" font-size="10.00">NumberFormatFactory.hpp</text>
</a>
</g>
</g>
<!-- Node7&#45;&gt;Node10 -->
<g id="edge9" class="edge">
<title>Node7&#45;&gt;Node10</title>
<path fill="none" stroke="midnightblue" d="M671.09,-63.96C641.45,-53.48 604.31,-40.37 576.6,-30.58"/>
<polygon fill="midnightblue" stroke="midnightblue" points="670.23,-67.37 680.83,-67.4 672.57,-60.76 670.23,-67.37"/>
</g>
<!-- Node13 -->
<g id="node13" class="node">
<title>Node13</title>
<g id="a_node13"><a xlink:href="StylesheetExecutionContext_8hpp.html" target="_top" xlink:title=" ">
<polygon fill="none" stroke="black" points="447.25,-257.5 447.25,-287.5 624.25,-287.5 624.25,-257.5 447.25,-257.5"/>
<text text-anchor="start" x="455.25" y="-275.5" font-family="Helvetica,sans-Serif" font-size="10.00">xalanc/XSLT/StylesheetExecution</text>
<text text-anchor="middle" x="535.75" y="-264.5" font-family="Helvetica,sans-Serif" font-size="10.00">Context.hpp</text>
</a>
</g>
</g>
<!-- Node12&#45;&gt;Node13 -->
<g id="edge14" class="edge">
<title>Node12&#45;&gt;Node13</title>
<path fill="none" stroke="midnightblue" d="M566.47,-321.03C559.7,-310.56 551.2,-297.4 544.86,-287.59"/>
<polygon fill="midnightblue" stroke="midnightblue" points="563.72,-323.23 572.09,-329.73 569.6,-319.44 563.72,-323.23"/>
</g>
<!-- Node13&#45;&gt;Node7 -->
<g id="edge20" class="edge">
<title>Node13&#45;&gt;Node7</title>
<path fill="none" stroke="midnightblue" d="M539.29,-247.32C542.16,-233.07 547.18,-215.13 555.75,-201 586.49,-150.34 648.25,-115.46 686.88,-97.54"/>
<polygon fill="midnightblue" stroke="midnightblue" points="535.81,-246.91 537.5,-257.37 542.7,-248.14 535.81,-246.91"/>
</g>
<!-- Node14 -->
<g id="node14" class="node">
<title>Node14</title>
<g id="a_node14"><a xlink:href="Stylesheet_8hpp.html" target="_top" xlink:title=" ">
<polygon fill="none" stroke="black" points="564.25,-201.5 564.25,-220.5 715.25,-220.5 715.25,-201.5 564.25,-201.5"/>
<text text-anchor="middle" x="639.75" y="-208.5" font-family="Helvetica,sans-Serif" font-size="10.00">xalanc/XSLT/Stylesheet.hpp</text>
</a>
</g>
</g>
<!-- Node13&#45;&gt;Node14 -->
<g id="edge15" class="edge">
<title>Node13&#45;&gt;Node14</title>
<path fill="none" stroke="midnightblue" d="M569.21,-252.36C587.85,-241.69 610.15,-228.93 624.62,-220.66"/>
<polygon fill="midnightblue" stroke="midnightblue" points="567.34,-249.4 560.4,-257.4 570.82,-255.47 567.34,-249.4"/>
</g>
<!-- Node16 -->
<g id="node16" class="node">
<title>Node16</title>
<g id="a_node16"><a xlink:href="XResultTreeFrag_8hpp.html" target="_top" xlink:title=" ">
<polygon fill="none" stroke="black" points="329.75,-201.5 329.75,-220.5 507.75,-220.5 507.75,-201.5 329.75,-201.5"/>
<text text-anchor="middle" x="418.75" y="-208.5" font-family="Helvetica,sans-Serif" font-size="10.00">xalanc/XSLT/XResultTreeFrag.hpp</text>
</a>
</g>
</g>
<!-- Node13&#45;&gt;Node16 -->
<g id="edge21" class="edge">
<title>Node13&#45;&gt;Node16</title>
<path fill="none" stroke="midnightblue" d="M498.97,-252.8C477.83,-242.04 452.27,-229.05 435.78,-220.66"/>
<polygon fill="midnightblue" stroke="midnightblue" points="497.53,-255.99 508.03,-257.4 500.7,-249.75 497.53,-255.99"/>
</g>
<!-- Node20 -->
<g id="node20" class="node">
<title>Node20</title>
<g id="a_node20"><a xlink:href="XSLTEngineImpl_8hpp.html" target="_top" xlink:title=" ">
<polygon fill="none" stroke="black" points="16.25,-73 16.25,-92 193.25,-92 193.25,-73 16.25,-73"/>
<text text-anchor="middle" x="104.75" y="-80" font-family="Helvetica,sans-Serif" font-size="10.00">xalanc/XSLT/XSLTEngineImpl.hpp</text>
</a>
</g>
</g>
<!-- Node13&#45;&gt;Node20 -->
<g id="edge26" class="edge">
<title>Node13&#45;&gt;Node20</title>
<path fill="none" stroke="midnightblue" d="M436.88,-256.55C363.93,-242 264.74,-214.58 189.75,-165 157.01,-143.35 125.57,-108.33 111.9,-92.18"/>
<polygon fill="midnightblue" stroke="midnightblue" points="436.51,-260.04 447,-258.52 437.85,-253.17 436.51,-260.04"/>
</g>
<!-- Node14&#45;&gt;Node7 -->
<g id="edge16" class="edge">
<title>Node14&#45;&gt;Node7</title>
<path fill="none" stroke="midnightblue" d="M634.22,-191.46C630.5,-175.23 627.87,-151.58 637.75,-134 647.09,-117.38 664.36,-105.6 680.73,-97.62"/>
<polygon fill="midnightblue" stroke="midnightblue" points="630.89,-192.57 636.83,-201.34 637.66,-190.78 630.89,-192.57"/>
</g>
<!-- Node14&#45;&gt;Node11 -->
<g id="edge17" class="edge">
<title>Node14&#45;&gt;Node11</title>
<path fill="none" stroke="midnightblue" d="M663.1,-196.24C682.62,-184.75 709.82,-168.72 726.31,-159.01"/>
<polygon fill="midnightblue" stroke="midnightblue" points="661.06,-193.38 654.22,-201.48 664.62,-199.41 661.06,-193.38"/>
</g>
<!-- Node15 -->
<g id="node15" class="node">
<title>Node15</title>
<g id="a_node15"><a xlink:href="StylesheetRoot_8hpp.html" target="_top" xlink:title=" ">
<polygon fill="none" stroke="black" points="441.25,-73 441.25,-92 614.25,-92 614.25,-73 441.25,-73"/>
<text text-anchor="middle" x="527.75" y="-80" font-family="Helvetica,sans-Serif" font-size="10.00">xalanc/XSLT/StylesheetRoot.hpp</text>
</a>
</g>
</g>
<!-- Node14&#45;&gt;Node15 -->
<g id="edge18" class="edge">
<title>Node14&#45;&gt;Node15</title>
<path fill="none" stroke="midnightblue" d="M625.12,-193.47C601.08,-166.32 554.02,-113.17 535.51,-92.26"/>
<polygon fill="midnightblue" stroke="midnightblue" points="622.81,-196.14 632.06,-201.31 628.05,-191.5 622.81,-196.14"/>
</g>
<!-- Node15&#45;&gt;Node5 -->
<g id="edge19" class="edge">
<title>Node15&#45;&gt;Node5</title>
<path fill="none" stroke="midnightblue" d="M477.82,-70.82C426.41,-59.83 346.06,-42.65 289.51,-30.56"/>
<polygon fill="midnightblue" stroke="midnightblue" points="477.19,-74.27 487.7,-72.94 478.65,-67.42 477.19,-74.27"/>
</g>
<!-- Node17 -->
<g id="node17" class="node">
<title>Node17</title>
<g id="a_node17"><a xlink:href="FunctionNodeSet_8hpp.html" target="_top" xlink:title=" ">
<polygon fill="none" stroke="black" points="199.25,-134.5 199.25,-164.5 332.25,-164.5 332.25,-134.5 199.25,-134.5"/>
<text text-anchor="start" x="207.25" y="-152.5" font-family="Helvetica,sans-Serif" font-size="10.00">xalanc/XalanExtensions</text>
<text text-anchor="middle" x="265.75" y="-141.5" font-family="Helvetica,sans-Serif" font-size="10.00">/FunctionNodeSet.hpp</text>
</a>
</g>
</g>
<!-- Node16&#45;&gt;Node17 -->
<g id="edge22" class="edge">
<title>Node16&#45;&gt;Node17</title>
<path fill="none" stroke="midnightblue" d="M387.5,-197.85C362.65,-188.18 327.85,-174.65 301.81,-164.52"/>
<polygon fill="midnightblue" stroke="midnightblue" points="386.24,-201.11 396.83,-201.48 388.78,-194.59 386.24,-201.11"/>
</g>
<!-- Node19 -->
<g id="node19" class="node">
<title>Node19</title>
<g id="a_node19"><a xlink:href="XResultTreeFragAllocator_8hpp.html" target="_top" xlink:title=" ">
<polygon fill="none" stroke="black" points="350.25,-134.5 350.25,-164.5 507.25,-164.5 507.25,-134.5 350.25,-134.5"/>
<text text-anchor="start" x="358.25" y="-152.5" font-family="Helvetica,sans-Serif" font-size="10.00">xalanc/XSLT/XResultTreeFrag</text>
<text text-anchor="middle" x="428.75" y="-141.5" font-family="Helvetica,sans-Serif" font-size="10.00">Allocator.hpp</text>
</a>
</g>
</g>
<!-- Node16&#45;&gt;Node19 -->
<g id="edge24" class="edge">
<title>Node16&#45;&gt;Node19</title>
<path fill="none" stroke="midnightblue" d="M421.86,-191.53C423.32,-182.81 425.04,-172.59 426.4,-164.52"/>
<polygon fill="midnightblue" stroke="midnightblue" points="418.39,-191.03 420.19,-201.48 425.3,-192.19 418.39,-191.03"/>
</g>
<!-- Node18 -->
<g id="node18" class="node">
<title>Node18</title>
<g id="a_node18"><a xlink:href="XalanEXSLTCommonImpl_8hpp.html" target="_top" xlink:title=" ">
<polygon fill="none" stroke="black" points="210.75,-67.5 210.75,-97.5 422.75,-97.5 422.75,-67.5 210.75,-67.5"/>
<text text-anchor="start" x="218.75" y="-85.5" font-family="Helvetica,sans-Serif" font-size="10.00">xalanc/XalanEXSLT/XalanEXSLTCommon</text>
<text text-anchor="middle" x="316.75" y="-74.5" font-family="Helvetica,sans-Serif" font-size="10.00">Impl.hpp</text>
</a>
</g>
</g>
<!-- Node17&#45;&gt;Node18 -->
<g id="edge23" class="edge">
<title>Node17&#45;&gt;Node18</title>
<path fill="none" stroke="midnightblue" d="M283.06,-126.45C290.55,-116.9 299.1,-106 305.71,-97.58"/>
<polygon fill="midnightblue" stroke="midnightblue" points="280.24,-124.37 276.82,-134.4 285.75,-128.69 280.24,-124.37"/>
</g>
<!-- Node19&#45;&gt;Node7 -->
<g id="edge25" class="edge">
<title>Node19&#45;&gt;Node7</title>
<path fill="none" stroke="midnightblue" d="M501.76,-132.25C549.71,-121.58 611.8,-107.75 657.61,-97.55"/>
<polygon fill="midnightblue" stroke="midnightblue" points="500.75,-128.89 491.75,-134.48 502.28,-135.72 500.75,-128.89"/>
</g>
<!-- Node20&#45;&gt;Node5 -->
<g id="edge27" class="edge">
<title>Node20&#45;&gt;Node5</title>
<path fill="none" stroke="midnightblue" d="M129.65,-67.9C149.67,-56.97 177.7,-41.65 197.96,-30.59"/>
<polygon fill="midnightblue" stroke="midnightblue" points="127.9,-64.87 120.8,-72.73 131.26,-71.01 127.9,-64.87"/>
</g>
</g>
</svg>
        <g id="navigator" transform="translate(0 0)" fill="#404254">
                <rect fill="#f2f5e9" fill-opacity="0.5" stroke="#606060" stroke-width=".5" x="0" y="0" width="60" height="60"/>
                <use id="zoomplus" xlink:href="#zoomPlus" x="17" y="9" onmousedown="handleZoom(evt,'in')"/>
                <use id="zoomminus" xlink:href="#zoomMin" x="42" y="9" onmousedown="handleZoom(evt,'out')"/>
                <use id="reset" xlink:href="#resetDef" x="30" y="36" onmousedown="handleReset()"/>
                <g id="arrowUp" xlink:href="#dirArrow" transform="translate(30 24)" onmousedown="handlePan(0,-1)">
                  <use xlink:href="#rim" fill="#404040">
                        <set attributeName="fill" to="#808080" begin="arrowUp.mouseover" end="arrowUp.mouseout"/>
                  </use>
                  <path fill="none" stroke="white" stroke-width="1.5" d="M0,-3.0v7 M-2.5,-0.5L0,-3.0L2.5,-0.5"/>
                </g>
                <g id="arrowRight" xlink:href="#dirArrow" transform="rotate(90) translate(36 -43)" onmousedown="handlePan(1,0)">
                  <use xlink:href="#rim" fill="#404040">
                        <set attributeName="fill" to="#808080" begin="arrowRight.mouseover" end="arrowRight.mouseout"/>
                  </use>
                  <path fill="none" stroke="white" stroke-width="1.5" d="M0,-3.0v7 M-2.5,-0.5L0,-3.0L2.5,-0.5"/>
                </g>
                <g id="arrowDown" xlink:href="#dirArrow" transform="rotate(180) translate(-30 -48)" onmousedown="handlePan(0,1)">
                  <use xlink:href="#rim" fill="#404040">
                        <set attributeName="fill" to="#808080" begin="arrowDown.mouseover" end="arrowDown.mouseout"/>
                  </use>
                  <path fill="none" stroke="white" stroke-width="1.5" d="M0,-3.0v7 M-2.5,-0.5L0,-3.0L2.5,-0.5"/>
                </g>
                <g id="arrowLeft" xlink:href="#dirArrow" transform="rotate(270) translate(-36 17)" onmousedown="handlePan(-1,0)">
                  <use xlink:href="#rim" fill="#404040">
                        <set attributeName="fill" to="#808080" begin="arrowLeft.mouseover" end="arrowLeft.mouseout"/>
                  </use>
                  <path fill="none" stroke="white" stroke-width="1.5" d="M0,-3.0v7 M-2.5,-0.5L0,-3.0L2.5,-0.5"/>
                </g>
        </g>
        <svg viewBox="0 0 15 15" width="100%" height="30px" preserveAspectRatio="xMaxYMin meet">
         <g id="arrow_out" transform="scale(0.3 0.3)">
          <a xlink:href="XalanQNameByValue_8hpp__dep__incl_org.svg" target="_base">
           <rect id="button" ry="5" rx="5" y="6" x="6" height="38" width="38"
                fill="#f2f5e9" fill-opacity="0.5" stroke="#606060" stroke-width="1.0"/>
           <path id="arrow"
             d="M 11.500037,31.436501 C 11.940474,20.09759 22.043105,11.32322 32.158766,21.979434 L 37.068811,17.246167 C 37.068811,17.246167 37.088388,32 37.088388,32 L 22.160133,31.978069 C 22.160133,31.978069 26.997745,27.140456 26.997745,27.140456 C 18.528582,18.264221 13.291696,25.230495 11.500037,31.436501 z"
             style="fill:#404040;"/>
          </a>
         </g>
        </svg>
</svg>
