<?xml version="1.0" encoding="UTF-8" standalone="no"?>
<!DOCTYPE svg PUBLIC "-//W3C//DTD SVG 1.1//EN"
 "http://www.w3.org/Graphics/SVG/1.1/DTD/svg11.dtd">
<!-- Generated by graphviz version 2.43.0 (0)
 -->
<!-- Title: xalanc/XalanDOM/XalanDOMImplementation.hpp Pages: 1 -->
<svg width="456pt" height="106pt"
 viewBox="0.00 0.00 456.00 106.00" xmlns="http://www.w3.org/2000/svg" xmlns:xlink="http://www.w3.org/1999/xlink">
<g id="graph0" class="graph" transform="scale(1 1) rotate(0) translate(4 102)">
<title>xalanc/XalanDOM/XalanDOMImplementation.hpp</title>
<!-- Node1 -->
<g id="node1" class="node">
<title>Node1</title>
<g id="a_node1"><a xlink:title=" ">
<polygon fill="#bfbfbf" stroke="black" points="94.5,-78.5 94.5,-97.5 351.5,-97.5 351.5,-78.5 94.5,-78.5"/>
<text text-anchor="middle" x="223" y="-85.5" font-family="Helvetica,sans-Serif" font-size="10.00">xalanc/XalanDOM/XalanDOMImplementation.hpp</text>
</a>
</g>
</g>
<!-- Node2 -->
<g id="node2" class="node">
<title>Node2</title>
<g id="a_node2"><a xlink:href="XercesDOMImplementationBridge_8hpp.html" target="_top" xlink:title=" ">
<polygon fill="none" stroke="black" points="0,-0.5 0,-41.5 214,-41.5 214,-0.5 0,-0.5"/>
<text text-anchor="start" x="8" y="-29.5" font-family="Helvetica,sans-Serif" font-size="10.00">xalanc/XercesParserLiaison</text>
<text text-anchor="start" x="8" y="-18.5" font-family="Helvetica,sans-Serif" font-size="10.00">/Deprecated/XercesDOMImplementation</text>
<text text-anchor="middle" x="107" y="-7.5" font-family="Helvetica,sans-Serif" font-size="10.00">Bridge.hpp</text>
</a>
</g>
</g>
<!-- Node1&#45;&gt;Node2 -->
<g id="edge1" class="edge">
<title>Node1&#45;&gt;Node2</title>
<path fill="none" stroke="midnightblue" d="M198.37,-73.2C181.94,-63.99 160.09,-51.75 141.88,-41.54"/>
<polygon fill="midnightblue" stroke="midnightblue" points="196.92,-76.4 207.36,-78.23 200.34,-70.29 196.92,-76.4"/>
</g>
<!-- Node3 -->
<g id="node3" class="node">
<title>Node3</title>
<g id="a_node3"><a xlink:href="XercesDOMImplementationWrapper_8hpp.html" target="_top" xlink:title=" ">
<polygon fill="none" stroke="black" points="232,-6 232,-36 448,-36 448,-6 232,-6"/>
<text text-anchor="start" x="240" y="-24" font-family="Helvetica,sans-Serif" font-size="10.00">xalanc/XercesParserLiaison</text>
<text text-anchor="middle" x="340" y="-13" font-family="Helvetica,sans-Serif" font-size="10.00">/XercesDOMImplementationWrapper.hpp</text>
</a>
</g>
</g>
<!-- Node1&#45;&gt;Node3 -->
<g id="edge2" class="edge">
<title>Node1&#45;&gt;Node3</title>
<path fill="none" stroke="midnightblue" d="M247.74,-73.25C267.41,-62.33 294.81,-47.1 314.64,-36.09"/>
<polygon fill="midnightblue" stroke="midnightblue" points="245.82,-70.32 238.78,-78.23 249.22,-76.44 245.82,-70.32"/>
</g>
</g>
</svg>
