<?xml version="1.0" encoding="UTF-8" standalone="no"?>
<!DOCTYPE svg PUBLIC "-//W3C//DTD SVG 1.1//EN"
 "http://www.w3.org/Graphics/SVG/1.1/DTD/svg11.dtd">
<!-- Generated by graphviz version 2.43.0 (0)
 -->
<!-- Title: xalanc/XalanSourceTree/XalanSourceTreeElement.hpp Pages: 1 -->
<!--zoomable 575 -->
<svg id="main" version="1.1" xmlns="http://www.w3.org/2000/svg" xmlns:xlink="http://www.w3.org/1999/xlink" xml:space="preserve" onload="init(evt)">
<style type="text/css"><![CDATA[
.edge:hover path { stroke: red; }
.edge:hover polygon { stroke: red; fill: red; }
]]></style>
<script type="text/javascript"><![CDATA[
var edges = document.getElementsByTagName('g');
if (edges && edges.length) {
  for (var i=0;i<edges.length;i++) {
    if (edges[i].id.substr(0,4)=='edge') {
      edges[i].setAttribute('class','edge');
    }
  }
}
]]></script>
        <defs>
                <circle id="rim" cx="0" cy="0" r="7"/>
                <circle id="rim2" cx="0" cy="0" r="3.5"/>
                <g id="zoomPlus">
                        <use xlink:href="#rim" fill="#404040">
                                <set attributeName="fill" to="#808080" begin="zoomplus.mouseover" end="zoomplus.mouseout"/>
                        </use>
                        <path d="M-4,0h8M0,-4v8" fill="none" stroke="white" stroke-width="1.5" pointer-events="none"/>
                </g>
                <g id="zoomMin">
                        <use xlink:href="#rim" fill="#404040">
                                <set attributeName="fill" to="#808080" begin="zoomminus.mouseover" end="zoomminus.mouseout"/>
                        </use>
                        <path d="M-4,0h8" fill="none" stroke="white" stroke-width="1.5" pointer-events="none"/>
                </g>
                <g id="dirArrow">
                        <path fill="none" stroke="white" stroke-width="1.5" d="M0,-3.0v7 M-2.5,-0.5L0,-3.0L2.5,-0.5"/>
                </g>
               <g id="resetDef">
                       <use xlink:href="#rim2" fill="#404040">
                               <set attributeName="fill" to="#808080" begin="reset.mouseover" end="reset.mouseout"/>
                       </use>
               </g>
        </defs>

<script type="text/javascript">
var viewWidth = 847;
var viewHeight = 575;
var sectionId = 'dynsection-1';
</script>
<script xlink:href="svgpan.js"/>
<svg id="graph" class="graph">
<g id="viewport">
<title>xalanc/XalanSourceTree/XalanSourceTreeElement.hpp</title>
<!-- Node1 -->
<g id="node1" class="node">
<title>Node1</title>
<g id="a_node1"><a xlink:title=" ">
<polygon fill="#bfbfbf" stroke="black" points="329.5,-536.5 329.5,-566.5 491.5,-566.5 491.5,-536.5 329.5,-536.5"/>
<text text-anchor="start" x="337.5" y="-554.5" font-family="Helvetica,sans-Serif" font-size="10.00">xalanc/XalanSourceTree</text>
<text text-anchor="middle" x="410.5" y="-543.5" font-family="Helvetica,sans-Serif" font-size="10.00">/XalanSourceTreeElement.hpp</text>
</a>
</g>
</g>
<!-- Node2 -->
<g id="node2" class="node">
<title>Node2</title>
<g id="a_node2"><a xlink:href="XalanSourceTreeElementA_8hpp.html" target="_top" xlink:title=" ">
<polygon fill="none" stroke="black" points="217,-469.5 217,-499.5 386,-499.5 386,-469.5 217,-469.5"/>
<text text-anchor="start" x="225" y="-487.5" font-family="Helvetica,sans-Serif" font-size="10.00">xalanc/XalanSourceTree</text>
<text text-anchor="middle" x="301.5" y="-476.5" font-family="Helvetica,sans-Serif" font-size="10.00">/XalanSourceTreeElementA.hpp</text>
</a>
</g>
</g>
<!-- Node1&#45;&gt;Node2 -->
<g id="edge1" class="edge">
<title>Node1&#45;&gt;Node2</title>
<path fill="none" stroke="midnightblue" d="M377.83,-531.02C360.86,-520.9 340.52,-508.77 325.11,-499.58"/>
<polygon fill="midnightblue" stroke="midnightblue" points="376.47,-534.28 386.85,-536.4 380.05,-528.27 376.47,-534.28"/>
</g>
<!-- Node16 -->
<g id="node16" class="node">
<title>Node16</title>
<g id="a_node16"><a xlink:href="XalanSourceTreeElementNA_8hpp.html" target="_top" xlink:title=" ">
<polygon fill="none" stroke="black" points="432.5,-469.5 432.5,-499.5 608.5,-499.5 608.5,-469.5 432.5,-469.5"/>
<text text-anchor="start" x="440.5" y="-487.5" font-family="Helvetica,sans-Serif" font-size="10.00">xalanc/XalanSourceTree</text>
<text text-anchor="middle" x="520.5" y="-476.5" font-family="Helvetica,sans-Serif" font-size="10.00">/XalanSourceTreeElementNA.hpp</text>
</a>
</g>
</g>
<!-- Node1&#45;&gt;Node16 -->
<g id="edge18" class="edge">
<title>Node1&#45;&gt;Node16</title>
<path fill="none" stroke="midnightblue" d="M443,-531.3C460.21,-521.12 480.98,-508.85 496.68,-499.58"/>
<polygon fill="midnightblue" stroke="midnightblue" points="441.2,-528.3 434.37,-536.4 444.76,-534.32 441.2,-528.3"/>
</g>
<!-- Node3 -->
<g id="node3" class="node">
<title>Node3</title>
<g id="a_node3"><a xlink:href="XalanSourceTreeElementAAllocator_8hpp.html" target="_top" xlink:title=" ">
<polygon fill="none" stroke="black" points="46.5,-335.5 46.5,-365.5 258.5,-365.5 258.5,-335.5 46.5,-335.5"/>
<text text-anchor="start" x="54.5" y="-353.5" font-family="Helvetica,sans-Serif" font-size="10.00">xalanc/XalanSourceTree</text>
<text text-anchor="middle" x="152.5" y="-342.5" font-family="Helvetica,sans-Serif" font-size="10.00">/XalanSourceTreeElementAAllocator.hpp</text>
</a>
</g>
</g>
<!-- Node2&#45;&gt;Node3 -->
<g id="edge2" class="edge">
<title>Node2&#45;&gt;Node3</title>
<path fill="none" stroke="midnightblue" d="M251.87,-465.14C234.59,-457.1 215.93,-446.4 201.5,-433 180.57,-413.56 165.55,-383.18 158.01,-365.52"/>
<polygon fill="midnightblue" stroke="midnightblue" points="250.74,-468.47 261.3,-469.33 253.58,-462.07 250.74,-468.47"/>
</g>
<!-- Node14 -->
<g id="node14" class="node">
<title>Node14</title>
<g id="a_node14"><a xlink:href="XalanSourceTreeElementANS_8hpp.html" target="_top" xlink:title=" ">
<polygon fill="none" stroke="black" points="210.5,-402.5 210.5,-432.5 392.5,-432.5 392.5,-402.5 210.5,-402.5"/>
<text text-anchor="start" x="218.5" y="-420.5" font-family="Helvetica,sans-Serif" font-size="10.00">xalanc/XalanSourceTree</text>
<text text-anchor="middle" x="301.5" y="-409.5" font-family="Helvetica,sans-Serif" font-size="10.00">/XalanSourceTreeElementANS.hpp</text>
</a>
</g>
</g>
<!-- Node2&#45;&gt;Node14 -->
<g id="edge15" class="edge">
<title>Node2&#45;&gt;Node14</title>
<path fill="none" stroke="midnightblue" d="M301.5,-459.11C301.5,-450.15 301.5,-440.32 301.5,-432.58"/>
<polygon fill="midnightblue" stroke="midnightblue" points="298,-459.4 301.5,-469.4 305,-459.4 298,-459.4"/>
</g>
<!-- Node4 -->
<g id="node4" class="node">
<title>Node4</title>
<g id="a_node4"><a xlink:href="XalanSourceTreeDocument_8hpp.html" target="_top" xlink:title=" ">
<polygon fill="none" stroke="black" points="373.5,-268.5 373.5,-298.5 545.5,-298.5 545.5,-268.5 373.5,-268.5"/>
<text text-anchor="start" x="381.5" y="-286.5" font-family="Helvetica,sans-Serif" font-size="10.00">xalanc/XalanSourceTree</text>
<text text-anchor="middle" x="459.5" y="-275.5" font-family="Helvetica,sans-Serif" font-size="10.00">/XalanSourceTreeDocument.hpp</text>
</a>
</g>
</g>
<!-- Node3&#45;&gt;Node4 -->
<g id="edge3" class="edge">
<title>Node3&#45;&gt;Node4</title>
<path fill="none" stroke="midnightblue" d="M228.62,-333.38C279.12,-322.69 344.75,-308.8 393.12,-298.55"/>
<polygon fill="midnightblue" stroke="midnightblue" points="227.79,-329.98 218.74,-335.48 229.24,-336.83 227.79,-329.98"/>
</g>
<!-- Node5 -->
<g id="node5" class="node">
<title>Node5</title>
<g id="a_node5"><a xlink:href="XalanSourceTreeDocumentFragment_8hpp.html" target="_top" xlink:title=" ">
<polygon fill="none" stroke="black" points="138.5,-201.5 138.5,-231.5 356.5,-231.5 356.5,-201.5 138.5,-201.5"/>
<text text-anchor="start" x="146.5" y="-219.5" font-family="Helvetica,sans-Serif" font-size="10.00">xalanc/XalanSourceTree</text>
<text text-anchor="middle" x="247.5" y="-208.5" font-family="Helvetica,sans-Serif" font-size="10.00">/XalanSourceTreeDocumentFragment.hpp</text>
</a>
</g>
</g>
<!-- Node4&#45;&gt;Node5 -->
<g id="edge4" class="edge">
<title>Node4&#45;&gt;Node5</title>
<path fill="none" stroke="midnightblue" d="M403.87,-265.44C369.51,-254.91 325.94,-241.55 293.52,-231.61"/>
<polygon fill="midnightblue" stroke="midnightblue" points="403.17,-268.89 413.76,-268.48 405.23,-262.2 403.17,-268.89"/>
</g>
<!-- Node12 -->
<g id="node12" class="node">
<title>Node12</title>
<g id="a_node12"><a xlink:href="XalanDefaultParsedSource_8hpp.html" target="_top" xlink:title=" ">
<polygon fill="none" stroke="black" points="374.5,-201.5 374.5,-231.5 544.5,-231.5 544.5,-201.5 374.5,-201.5"/>
<text text-anchor="start" x="382.5" y="-219.5" font-family="Helvetica,sans-Serif" font-size="10.00">xalanc/XalanTransformer</text>
<text text-anchor="middle" x="459.5" y="-208.5" font-family="Helvetica,sans-Serif" font-size="10.00">/XalanDefaultParsedSource.hpp</text>
</a>
</g>
</g>
<!-- Node4&#45;&gt;Node12 -->
<g id="edge12" class="edge">
<title>Node4&#45;&gt;Node12</title>
<path fill="none" stroke="midnightblue" d="M459.5,-258.11C459.5,-249.15 459.5,-239.32 459.5,-231.58"/>
<polygon fill="midnightblue" stroke="midnightblue" points="456,-258.4 459.5,-268.4 463,-258.4 456,-258.4"/>
</g>
<!-- Node13 -->
<g id="node13" class="node">
<title>Node13</title>
<g id="a_node13"><a xlink:href="XalanSourceTreeDocumentAllocator_8hpp.html" target="_top" xlink:title=" ">
<polygon fill="none" stroke="black" points="481,-134.5 481,-164.5 640,-164.5 640,-134.5 481,-134.5"/>
<text text-anchor="start" x="489" y="-152.5" font-family="Helvetica,sans-Serif" font-size="10.00">xalanc/XSLT/XalanSourceTree</text>
<text text-anchor="middle" x="560.5" y="-141.5" font-family="Helvetica,sans-Serif" font-size="10.00">DocumentAllocator.hpp</text>
</a>
</g>
</g>
<!-- Node4&#45;&gt;Node13 -->
<g id="edge13" class="edge">
<title>Node4&#45;&gt;Node13</title>
<path fill="none" stroke="midnightblue" d="M515.13,-263.98C529.92,-256.37 544.31,-245.97 553.5,-232 566.84,-211.71 565.48,-182.16 563.11,-164.78"/>
<polygon fill="midnightblue" stroke="midnightblue" points="513.44,-260.9 505.91,-268.36 516.45,-267.22 513.44,-260.9"/>
</g>
<!-- Node6 -->
<g id="node6" class="node">
<title>Node6</title>
<g id="a_node6"><a xlink:href="StylesheetExecutionContextDefault_8hpp.html" target="_top" xlink:title=" ">
<polygon fill="none" stroke="black" points="275,-67.5 275,-97.5 452,-97.5 452,-67.5 275,-67.5"/>
<text text-anchor="start" x="283" y="-85.5" font-family="Helvetica,sans-Serif" font-size="10.00">xalanc/XSLT/StylesheetExecution</text>
<text text-anchor="middle" x="363.5" y="-74.5" font-family="Helvetica,sans-Serif" font-size="10.00">ContextDefault.hpp</text>
</a>
</g>
</g>
<!-- Node5&#45;&gt;Node6 -->
<g id="edge5" class="edge">
<title>Node5&#45;&gt;Node6</title>
<path fill="none" stroke="midnightblue" d="M247.55,-191.27C248.76,-173.74 252.91,-150.35 265.5,-134 278.46,-117.17 298.61,-105.44 317.27,-97.55"/>
<polygon fill="midnightblue" stroke="midnightblue" points="244.05,-191.18 247.13,-201.31 251.04,-191.47 244.05,-191.18"/>
</g>
<!-- Node11 -->
<g id="node11" class="node">
<title>Node11</title>
<g id="a_node11"><a xlink:href="XalanSourceTreeDocumentFragmentAllocator_8hpp.html" target="_top" xlink:title=" ">
<polygon fill="none" stroke="black" points="275,-134.5 275,-164.5 452,-164.5 452,-134.5 275,-134.5"/>
<text text-anchor="start" x="283" y="-152.5" font-family="Helvetica,sans-Serif" font-size="10.00">xalanc/XSLT/XalanSourceTree</text>
<text text-anchor="middle" x="363.5" y="-141.5" font-family="Helvetica,sans-Serif" font-size="10.00">DocumentFragmentAllocator.hpp</text>
</a>
</g>
</g>
<!-- Node5&#45;&gt;Node11 -->
<g id="edge10" class="edge">
<title>Node5&#45;&gt;Node11</title>
<path fill="none" stroke="midnightblue" d="M281.77,-196.3C299.92,-186.12 321.82,-173.85 338.38,-164.58"/>
<polygon fill="midnightblue" stroke="midnightblue" points="279.68,-193.45 272.67,-201.4 283.1,-199.56 279.68,-193.45"/>
</g>
<!-- Node7 -->
<g id="node7" class="node">
<title>Node7</title>
<g id="a_node7"><a xlink:href="ICUBridgeCollationCompareFunctorImpl_8hpp.html" target="_top" xlink:title=" ">
<polygon fill="none" stroke="black" points="0,-0.5 0,-30.5 183,-30.5 183,-0.5 0,-0.5"/>
<text text-anchor="start" x="8" y="-18.5" font-family="Helvetica,sans-Serif" font-size="10.00">xalanc/ICUBridge/ICUBridge</text>
<text text-anchor="middle" x="91.5" y="-7.5" font-family="Helvetica,sans-Serif" font-size="10.00">CollationCompareFunctorImpl.hpp</text>
</a>
</g>
</g>
<!-- Node6&#45;&gt;Node7 -->
<g id="edge6" class="edge">
<title>Node6&#45;&gt;Node7</title>
<path fill="none" stroke="midnightblue" d="M294.95,-65.12C250.44,-54.48 193.03,-40.76 150.55,-30.61"/>
<polygon fill="midnightblue" stroke="midnightblue" points="294.28,-68.56 304.81,-67.48 295.9,-61.75 294.28,-68.56"/>
</g>
<!-- Node8 -->
<g id="node8" class="node">
<title>Node8</title>
<g id="a_node8"><a xlink:href="ICUFormatNumberFunctor_8hpp.html" target="_top" xlink:title=" ">
<polygon fill="none" stroke="black" points="201,-0.5 201,-30.5 356,-30.5 356,-0.5 201,-0.5"/>
<text text-anchor="start" x="209" y="-18.5" font-family="Helvetica,sans-Serif" font-size="10.00">xalanc/ICUBridge/ICUFormat</text>
<text text-anchor="middle" x="278.5" y="-7.5" font-family="Helvetica,sans-Serif" font-size="10.00">NumberFunctor.hpp</text>
</a>
</g>
</g>
<!-- Node6&#45;&gt;Node8 -->
<g id="edge7" class="edge">
<title>Node6&#45;&gt;Node8</title>
<path fill="none" stroke="midnightblue" d="M336.91,-61.17C323.91,-51.23 308.6,-39.51 296.91,-30.58"/>
<polygon fill="midnightblue" stroke="midnightblue" points="334.99,-64.1 345.06,-67.4 339.24,-58.54 334.99,-64.1"/>
</g>
<!-- Node9 -->
<g id="node9" class="node">
<title>Node9</title>
<g id="a_node9"><a xlink:href="ICUXalanNumberFormatFactory_8hpp.html" target="_top" xlink:title=" ">
<polygon fill="none" stroke="black" points="374,-0.5 374,-30.5 523,-30.5 523,-0.5 374,-0.5"/>
<text text-anchor="start" x="382" y="-18.5" font-family="Helvetica,sans-Serif" font-size="10.00">xalanc/ICUBridge/ICUXalan</text>
<text text-anchor="middle" x="448.5" y="-7.5" font-family="Helvetica,sans-Serif" font-size="10.00">NumberFormatFactory.hpp</text>
</a>
</g>
</g>
<!-- Node6&#45;&gt;Node9 -->
<g id="edge8" class="edge">
<title>Node6&#45;&gt;Node9</title>
<path fill="none" stroke="midnightblue" d="M390.09,-61.17C403.09,-51.23 418.4,-39.51 430.09,-30.58"/>
<polygon fill="midnightblue" stroke="midnightblue" points="387.76,-58.54 381.94,-67.4 392.01,-64.1 387.76,-58.54"/>
</g>
<!-- Node10 -->
<g id="node10" class="node">
<title>Node10</title>
<g id="a_node10"><a xlink:href="XalanCompiledStylesheetDefault_8hpp.html" target="_top" xlink:title=" ">
<polygon fill="none" stroke="black" points="541,-0.5 541,-30.5 744,-30.5 744,-0.5 541,-0.5"/>
<text text-anchor="start" x="549" y="-18.5" font-family="Helvetica,sans-Serif" font-size="10.00">xalanc/XalanTransformer</text>
<text text-anchor="middle" x="642.5" y="-7.5" font-family="Helvetica,sans-Serif" font-size="10.00">/XalanCompiledStylesheetDefault.hpp</text>
</a>
</g>
</g>
<!-- Node6&#45;&gt;Node10 -->
<g id="edge9" class="edge">
<title>Node6&#45;&gt;Node10</title>
<path fill="none" stroke="midnightblue" d="M433.53,-65.19C479.22,-54.54 538.27,-40.78 581.93,-30.61"/>
<polygon fill="midnightblue" stroke="midnightblue" points="432.64,-61.8 423.7,-67.48 434.23,-68.62 432.64,-61.8"/>
</g>
<!-- Node11&#45;&gt;Node6 -->
<g id="edge11" class="edge">
<title>Node11&#45;&gt;Node6</title>
<path fill="none" stroke="midnightblue" d="M363.5,-124.11C363.5,-115.15 363.5,-105.32 363.5,-97.58"/>
<polygon fill="midnightblue" stroke="midnightblue" points="360,-124.4 363.5,-134.4 367,-124.4 360,-124.4"/>
</g>
<!-- Node13&#45;&gt;Node6 -->
<g id="edge14" class="edge">
<title>Node13&#45;&gt;Node6</title>
<path fill="none" stroke="midnightblue" d="M508.15,-131.23C476.28,-120.71 436.09,-107.45 406.16,-97.58"/>
<polygon fill="midnightblue" stroke="midnightblue" points="507.16,-134.59 517.75,-134.4 509.35,-127.94 507.16,-134.59"/>
</g>
<!-- Node15 -->
<g id="node15" class="node">
<title>Node15</title>
<g id="a_node15"><a xlink:href="XalanSourceTreeElementANSAllocator_8hpp.html" target="_top" xlink:title=" ">
<polygon fill="none" stroke="black" points="276.5,-335.5 276.5,-365.5 502.5,-365.5 502.5,-335.5 276.5,-335.5"/>
<text text-anchor="start" x="284.5" y="-353.5" font-family="Helvetica,sans-Serif" font-size="10.00">xalanc/XalanSourceTree</text>
<text text-anchor="middle" x="389.5" y="-342.5" font-family="Helvetica,sans-Serif" font-size="10.00">/XalanSourceTreeElementANSAllocator.hpp</text>
</a>
</g>
</g>
<!-- Node14&#45;&gt;Node15 -->
<g id="edge16" class="edge">
<title>Node14&#45;&gt;Node15</title>
<path fill="none" stroke="midnightblue" d="M328.64,-396.45C342.18,-386.45 358.23,-374.6 370.44,-365.58"/>
<polygon fill="midnightblue" stroke="midnightblue" points="326.56,-393.64 320.59,-402.4 330.72,-399.27 326.56,-393.64"/>
</g>
<!-- Node15&#45;&gt;Node4 -->
<g id="edge17" class="edge">
<title>Node15&#45;&gt;Node4</title>
<path fill="none" stroke="midnightblue" d="M412.32,-328.31C422.82,-318.56 434.99,-307.26 444.34,-298.58"/>
<polygon fill="midnightblue" stroke="midnightblue" points="409.64,-326.03 404.69,-335.4 414.4,-331.16 409.64,-326.03"/>
</g>
<!-- Node17 -->
<g id="node17" class="node">
<title>Node17</title>
<g id="a_node17"><a xlink:href="XalanSourceTreeElementNAAllocator_8hpp.html" target="_top" xlink:title=" ">
<polygon fill="none" stroke="black" points="411,-402.5 411,-432.5 630,-432.5 630,-402.5 411,-402.5"/>
<text text-anchor="start" x="419" y="-420.5" font-family="Helvetica,sans-Serif" font-size="10.00">xalanc/XalanSourceTree</text>
<text text-anchor="middle" x="520.5" y="-409.5" font-family="Helvetica,sans-Serif" font-size="10.00">/XalanSourceTreeElementNAAllocator.hpp</text>
</a>
</g>
</g>
<!-- Node16&#45;&gt;Node17 -->
<g id="edge19" class="edge">
<title>Node16&#45;&gt;Node17</title>
<path fill="none" stroke="midnightblue" d="M520.5,-459.11C520.5,-450.15 520.5,-440.32 520.5,-432.58"/>
<polygon fill="midnightblue" stroke="midnightblue" points="517,-459.4 520.5,-469.4 524,-459.4 517,-459.4"/>
</g>
<!-- Node18 -->
<g id="node18" class="node">
<title>Node18</title>
<g id="a_node18"><a xlink:href="XalanSourceTreeElementNANS_8hpp.html" target="_top" xlink:title=" ">
<polygon fill="none" stroke="black" points="648.5,-402.5 648.5,-432.5 838.5,-432.5 838.5,-402.5 648.5,-402.5"/>
<text text-anchor="start" x="656.5" y="-420.5" font-family="Helvetica,sans-Serif" font-size="10.00">xalanc/XalanSourceTree</text>
<text text-anchor="middle" x="743.5" y="-409.5" font-family="Helvetica,sans-Serif" font-size="10.00">/XalanSourceTreeElementNANS.hpp</text>
</a>
</g>
</g>
<!-- Node16&#45;&gt;Node18 -->
<g id="edge21" class="edge">
<title>Node16&#45;&gt;Node18</title>
<path fill="none" stroke="midnightblue" d="M578.55,-466.58C614.77,-456.02 660.85,-442.59 695.09,-432.61"/>
<polygon fill="midnightblue" stroke="midnightblue" points="577.23,-463.32 568.61,-469.48 579.19,-470.04 577.23,-463.32"/>
</g>
<!-- Node17&#45;&gt;Node4 -->
<g id="edge20" class="edge">
<title>Node17&#45;&gt;Node4</title>
<path fill="none" stroke="midnightblue" d="M522.03,-392.29C522.11,-375.42 520.22,-352.83 511.5,-335 504.37,-320.42 491.22,-307.71 479.93,-298.69"/>
<polygon fill="midnightblue" stroke="midnightblue" points="518.52,-392.35 521.74,-402.45 525.52,-392.55 518.52,-392.35"/>
</g>
<!-- Node19 -->
<g id="node19" class="node">
<title>Node19</title>
<g id="a_node19"><a xlink:href="XalanSourceTreeElementNANSAllocator_8hpp.html" target="_top" xlink:title=" ">
<polygon fill="none" stroke="black" points="593,-335.5 593,-365.5 826,-365.5 826,-335.5 593,-335.5"/>
<text text-anchor="start" x="601" y="-353.5" font-family="Helvetica,sans-Serif" font-size="10.00">xalanc/XalanSourceTree</text>
<text text-anchor="middle" x="709.5" y="-342.5" font-family="Helvetica,sans-Serif" font-size="10.00">/XalanSourceTreeElementNANSAllocator.hpp</text>
</a>
</g>
</g>
<!-- Node18&#45;&gt;Node19 -->
<g id="edge22" class="edge">
<title>Node18&#45;&gt;Node19</title>
<path fill="none" stroke="midnightblue" d="M731.36,-393.28C726.51,-384.02 721.09,-373.66 716.86,-365.58"/>
<polygon fill="midnightblue" stroke="midnightblue" points="728.39,-395.16 736.12,-402.4 734.59,-391.91 728.39,-395.16"/>
</g>
<!-- Node19&#45;&gt;Node4 -->
<g id="edge23" class="edge">
<title>Node19&#45;&gt;Node4</title>
<path fill="none" stroke="midnightblue" d="M645.72,-332.92C604.92,-322.31 552.57,-308.7 513.77,-298.61"/>
<polygon fill="midnightblue" stroke="midnightblue" points="645,-336.35 655.56,-335.48 646.76,-329.57 645,-336.35"/>
</g>
</g>
</svg>
        <g id="navigator" transform="translate(0 0)" fill="#404254">
                <rect fill="#f2f5e9" fill-opacity="0.5" stroke="#606060" stroke-width=".5" x="0" y="0" width="60" height="60"/>
                <use id="zoomplus" xlink:href="#zoomPlus" x="17" y="9" onmousedown="handleZoom(evt,'in')"/>
                <use id="zoomminus" xlink:href="#zoomMin" x="42" y="9" onmousedown="handleZoom(evt,'out')"/>
                <use id="reset" xlink:href="#resetDef" x="30" y="36" onmousedown="handleReset()"/>
                <g id="arrowUp" xlink:href="#dirArrow" transform="translate(30 24)" onmousedown="handlePan(0,-1)">
                  <use xlink:href="#rim" fill="#404040">
                        <set attributeName="fill" to="#808080" begin="arrowUp.mouseover" end="arrowUp.mouseout"/>
                  </use>
                  <path fill="none" stroke="white" stroke-width="1.5" d="M0,-3.0v7 M-2.5,-0.5L0,-3.0L2.5,-0.5"/>
                </g>
                <g id="arrowRight" xlink:href="#dirArrow" transform="rotate(90) translate(36 -43)" onmousedown="handlePan(1,0)">
                  <use xlink:href="#rim" fill="#404040">
                        <set attributeName="fill" to="#808080" begin="arrowRight.mouseover" end="arrowRight.mouseout"/>
                  </use>
                  <path fill="none" stroke="white" stroke-width="1.5" d="M0,-3.0v7 M-2.5,-0.5L0,-3.0L2.5,-0.5"/>
                </g>
                <g id="arrowDown" xlink:href="#dirArrow" transform="rotate(180) translate(-30 -48)" onmousedown="handlePan(0,1)">
                  <use xlink:href="#rim" fill="#404040">
                        <set attributeName="fill" to="#808080" begin="arrowDown.mouseover" end="arrowDown.mouseout"/>
                  </use>
                  <path fill="none" stroke="white" stroke-width="1.5" d="M0,-3.0v7 M-2.5,-0.5L0,-3.0L2.5,-0.5"/>
                </g>
                <g id="arrowLeft" xlink:href="#dirArrow" transform="rotate(270) translate(-36 17)" onmousedown="handlePan(-1,0)">
                  <use xlink:href="#rim" fill="#404040">
                        <set attributeName="fill" to="#808080" begin="arrowLeft.mouseover" end="arrowLeft.mouseout"/>
                  </use>
                  <path fill="none" stroke="white" stroke-width="1.5" d="M0,-3.0v7 M-2.5,-0.5L0,-3.0L2.5,-0.5"/>
                </g>
        </g>
        <svg viewBox="0 0 15 15" width="100%" height="30px" preserveAspectRatio="xMaxYMin meet">
         <g id="arrow_out" transform="scale(0.3 0.3)">
          <a xlink:href="XalanSourceTreeElement_8hpp__dep__incl_org.svg" target="_base">
           <rect id="button" ry="5" rx="5" y="6" x="6" height="38" width="38"
                fill="#f2f5e9" fill-opacity="0.5" stroke="#606060" stroke-width="1.0"/>
           <path id="arrow"
             d="M 11.500037,31.436501 C 11.940474,20.09759 22.043105,11.32322 32.158766,21.979434 L 37.068811,17.246167 C 37.068811,17.246167 37.088388,32 37.088388,32 L 22.160133,31.978069 C 22.160133,31.978069 26.997745,27.140456 26.997745,27.140456 C 18.528582,18.264221 13.291696,25.230495 11.500037,31.436501 z"
             style="fill:#404040;"/>
          </a>
         </g>
        </svg>
</svg>
