<?xml version="1.0" encoding="UTF-8" standalone="no"?>
<!DOCTYPE svg PUBLIC "-//W3C//DTD SVG 1.1//EN"
 "http://www.w3.org/Graphics/SVG/1.1/DTD/svg11.dtd">
<!-- Generated by graphviz version 2.38.0 (20140413.2041)
 -->
<!-- Title: xalanc/Harness/XalanFileUtility.hpp Pages: 1 -->
<svg width="1146pt" height="475pt"
 viewBox="0.00 0.00 1146.00 475.00" xmlns="http://www.w3.org/2000/svg" xmlns:xlink="http://www.w3.org/1999/xlink">
<g id="graph0" class="graph" transform="scale(1 1) rotate(0) translate(4 471)">
<title>xalanc/Harness/XalanFileUtility.hpp</title>
<!-- Node1 -->
<g id="node1" class="node"><title>Node1</title>
<g id="a_node1"><a xlink:title=" ">
<polygon fill="#bfbfbf" stroke="black" points="849,-436.5 849,-466.5 975,-466.5 975,-436.5 849,-436.5"/>
<text text-anchor="start" x="857" y="-454.5" font-family="Helvetica,sans-Serif" font-size="10.00">xalanc/Harness/XalanFile</text>
<text text-anchor="middle" x="912" y="-443.5" font-family="Helvetica,sans-Serif" font-size="10.00">Utility.hpp</text>
</a>
</g>
</g>
<!-- Node2 -->
<g id="node2" class="node"><title>Node2</title>
<g id="a_node2"><a xlink:href="XalanHarnessDefinitions_8hpp.html" target="_top" xlink:title=" ">
<polygon fill="none" stroke="black" points="0,-313.5 0,-343.5 146,-343.5 146,-313.5 0,-313.5"/>
<text text-anchor="start" x="8" y="-331.5" font-family="Helvetica,sans-Serif" font-size="10.00">xalanc/Harness/XalanHarness</text>
<text text-anchor="middle" x="73" y="-320.5" font-family="Helvetica,sans-Serif" font-size="10.00">Definitions.hpp</text>
</a>
</g>
</g>
<!-- Node1&#45;&gt;Node2 -->
<g id="edge1" class="edge"><title>Node1&#45;&gt;Node2</title>
<path fill="none" stroke="midnightblue" d="M848.939,-441.405C699.554,-419.861 324.087,-365.712 156.283,-341.511"/>
<polygon fill="midnightblue" stroke="midnightblue" points="156.66,-338.029 146.262,-340.066 155.66,-344.958 156.66,-338.029"/>
</g>
<!-- Node7 -->
<g id="node7" class="node"><title>Node7</title>
<g id="a_node7"><a xlink:href="XalanVector_8hpp.html" target="_top" xlink:title=" ">
<polygon fill="none" stroke="black" points="746,-201.5 746,-220.5 898,-220.5 898,-201.5 746,-201.5"/>
<text text-anchor="middle" x="822" y="-208.5" font-family="Helvetica,sans-Serif" font-size="10.00">xalanc/Include/XalanVector.hpp</text>
</a>
</g>
</g>
<!-- Node1&#45;&gt;Node7 -->
<g id="edge6" class="edge"><title>Node1&#45;&gt;Node7</title>
<path fill="none" stroke="midnightblue" d="M918.055,-436.264C923.327,-421.887 929.353,-399.13 924,-380 906.752,-318.358 860.011,-256.845 836.262,-228.372"/>
<polygon fill="midnightblue" stroke="midnightblue" points="838.83,-225.988 829.688,-220.633 833.495,-230.52 838.83,-225.988"/>
</g>
<!-- Node16 -->
<g id="node16" class="node"><title>Node16</title>
<g id="a_node16"><a xlink:title=" ">
<polygon fill="none" stroke="#bfbfbf" points="1080,-380.5 1080,-399.5 1138,-399.5 1138,-380.5 1080,-380.5"/>
<text text-anchor="middle" x="1109" y="-387.5" font-family="Helvetica,sans-Serif" font-size="10.00">strstream</text>
</a>
</g>
</g>
<!-- Node1&#45;&gt;Node16 -->
<g id="edge20" class="edge"><title>Node1&#45;&gt;Node16</title>
<path fill="none" stroke="midnightblue" d="M958.686,-436.399C992.875,-426.073 1038.71,-412.231 1070.74,-402.556"/>
<polygon fill="midnightblue" stroke="midnightblue" points="1072.06,-405.813 1080.62,-399.571 1070.04,-399.112 1072.06,-405.813"/>
</g>
<!-- Node17 -->
<g id="node17" class="node"><title>Node17</title>
<g id="a_node17"><a xlink:href="XalanDOMString_8hpp.html" target="_top" xlink:title=" ">
<polygon fill="none" stroke="black" points="728.5,-380.5 728.5,-399.5 915.5,-399.5 915.5,-380.5 728.5,-380.5"/>
<text text-anchor="middle" x="822" y="-387.5" font-family="Helvetica,sans-Serif" font-size="10.00">xalanc/XalanDOM/XalanDOMString.hpp</text>
</a>
</g>
</g>
<!-- Node1&#45;&gt;Node17 -->
<g id="edge21" class="edge"><title>Node1&#45;&gt;Node17</title>
<path fill="none" stroke="midnightblue" d="M890.671,-436.399C876.515,-427.04 857.989,-414.792 843.747,-405.377"/>
<polygon fill="midnightblue" stroke="midnightblue" points="845.368,-402.253 835.096,-399.658 841.507,-408.092 845.368,-402.253"/>
</g>
<!-- Node3 -->
<g id="node3" class="node"><title>Node3</title>
<g id="a_node3"><a xlink:href="PlatformDefinitions_8hpp.html" target="_top" xlink:title=" ">
<polygon fill="none" stroke="black" points="294,-73 294,-92 476,-92 476,-73 294,-73"/>
<text text-anchor="middle" x="385" y="-80" font-family="Helvetica,sans-Serif" font-size="10.00">xalanc/Include/PlatformDefinitions.hpp</text>
</a>
</g>
</g>
<!-- Node2&#45;&gt;Node3 -->
<g id="edge2" class="edge"><title>Node2&#45;&gt;Node3</title>
<path fill="none" stroke="midnightblue" d="M70.6033,-313.394C68.7778,-298.513 67.9153,-274.798 77,-257 116.352,-179.904 151.93,-175.299 228,-134 261.718,-115.694 303.153,-102.716 334.988,-94.5037"/>
<polygon fill="midnightblue" stroke="midnightblue" points="336.115,-97.8295 344.964,-92.0041 334.414,-91.0394 336.115,-97.8295"/>
</g>
<!-- Node4 -->
<g id="node4" class="node"><title>Node4</title>
<g id="a_node4"><a xlink:title=" ">
<polygon fill="none" stroke="#bfbfbf" points="183,-0.5 183,-30.5 291,-30.5 291,-0.5 183,-0.5"/>
<text text-anchor="start" x="191" y="-18.5" font-family="Helvetica,sans-Serif" font-size="10.00">xercesc/util/Xerces</text>
<text text-anchor="middle" x="237" y="-7.5" font-family="Helvetica,sans-Serif" font-size="10.00">_autoconf_config.hpp</text>
</a>
</g>
</g>
<!-- Node3&#45;&gt;Node4 -->
<g id="edge3" class="edge"><title>Node3&#45;&gt;Node4</title>
<path fill="none" stroke="midnightblue" d="M365.347,-72.8685C343.235,-63.1572 306.695,-47.1092 278.246,-34.6148"/>
<polygon fill="midnightblue" stroke="midnightblue" points="279.504,-31.3447 268.941,-30.5281 276.689,-37.7539 279.504,-31.3447"/>
</g>
<!-- Node5 -->
<g id="node5" class="node"><title>Node5</title>
<g id="a_node5"><a xlink:title=" ">
<polygon fill="none" stroke="#bfbfbf" points="309.5,-6 309.5,-25 460.5,-25 460.5,-6 309.5,-6"/>
<text text-anchor="middle" x="385" y="-13" font-family="Helvetica,sans-Serif" font-size="10.00">xercesc/util/XercesVersion.hpp</text>
</a>
</g>
</g>
<!-- Node3&#45;&gt;Node5 -->
<g id="edge4" class="edge"><title>Node3&#45;&gt;Node5</title>
<path fill="none" stroke="midnightblue" d="M385,-72.7338C385,-63.1826 385,-47.6183 385,-35.2829"/>
<polygon fill="midnightblue" stroke="midnightblue" points="388.5,-35.1273 385,-25.1273 381.5,-35.1273 388.5,-35.1273"/>
</g>
<!-- Node6 -->
<g id="node6" class="node"><title>Node6</title>
<g id="a_node6"><a xlink:href="XalanVersion_8hpp.html" target="_top" xlink:title=" ">
<polygon fill="none" stroke="black" points="479,-6 479,-25 571,-25 571,-6 479,-6"/>
<text text-anchor="middle" x="525" y="-13" font-family="Helvetica,sans-Serif" font-size="10.00">XalanVersion.hpp</text>
</a>
</g>
</g>
<!-- Node3&#45;&gt;Node6 -->
<g id="edge5" class="edge"><title>Node3&#45;&gt;Node6</title>
<path fill="none" stroke="midnightblue" d="M403.591,-72.8685C427.544,-61.7476 469.395,-42.3167 497.154,-29.4286"/>
<polygon fill="midnightblue" stroke="midnightblue" points="498.736,-32.5529 506.332,-25.1672 495.788,-26.2038 498.736,-32.5529"/>
</g>
<!-- Node7&#45;&gt;Node3 -->
<g id="edge7" class="edge"><title>Node7&#45;&gt;Node3</title>
<path fill="none" stroke="midnightblue" d="M819.007,-201.142C812.977,-184.795 797.703,-150.09 772,-134 725.822,-105.092 584.954,-92.5754 486.578,-87.2637"/>
<polygon fill="midnightblue" stroke="midnightblue" points="486.468,-83.7533 476.299,-86.7264 486.103,-90.7437 486.468,-83.7533"/>
</g>
<!-- Node8 -->
<g id="node8" class="node"><title>Node8</title>
<g id="a_node8"><a xlink:title=" ">
<polygon fill="none" stroke="#bfbfbf" points="642,-73 642,-92 690,-92 690,-73 642,-73"/>
<text text-anchor="middle" x="666" y="-80" font-family="Helvetica,sans-Serif" font-size="10.00">cstddef</text>
</a>
</g>
</g>
<!-- Node7&#45;&gt;Node8 -->
<g id="edge8" class="edge"><title>Node7&#45;&gt;Node8</title>
<path fill="none" stroke="midnightblue" d="M822.711,-201.304C823.485,-185.83 822.817,-153.327 806,-134 779.333,-103.352 732.614,-91.3017 700.532,-86.5649"/>
<polygon fill="midnightblue" stroke="midnightblue" points="700.633,-83.0484 690.264,-85.2226 699.726,-89.9893 700.633,-83.0484"/>
</g>
<!-- Node9 -->
<g id="node9" class="node"><title>Node9</title>
<g id="a_node9"><a xlink:title=" ">
<polygon fill="none" stroke="#bfbfbf" points="451,-140 451,-159 507,-159 507,-140 451,-140"/>
<text text-anchor="middle" x="479" y="-147" font-family="Helvetica,sans-Serif" font-size="10.00">algorithm</text>
</a>
</g>
</g>
<!-- Node7&#45;&gt;Node9 -->
<g id="edge9" class="edge"><title>Node7&#45;&gt;Node9</title>
<path fill="none" stroke="midnightblue" d="M772.856,-201.475C703.863,-189.507 579.745,-167.976 517.213,-157.129"/>
<polygon fill="midnightblue" stroke="midnightblue" points="517.452,-153.618 507.001,-155.357 516.256,-160.515 517.452,-153.618"/>
</g>
<!-- Node10 -->
<g id="node10" class="node"><title>Node10</title>
<g id="a_node10"><a xlink:title=" ">
<polygon fill="none" stroke="#bfbfbf" points="1058.5,-73 1058.5,-92 1107.5,-92 1107.5,-73 1058.5,-73"/>
<text text-anchor="middle" x="1083" y="-80" font-family="Helvetica,sans-Serif" font-size="10.00">cassert</text>
</a>
</g>
</g>
<!-- Node7&#45;&gt;Node10 -->
<g id="edge10" class="edge"><title>Node7&#45;&gt;Node10</title>
<path fill="none" stroke="midnightblue" d="M898.257,-206.76C964.907,-202.184 1054.59,-191.209 1078,-165 1093.09,-148.11 1091.29,-120.563 1087.81,-102.237"/>
<polygon fill="midnightblue" stroke="midnightblue" points="1091.21,-101.425 1085.62,-92.4282 1084.38,-102.951 1091.21,-101.425"/>
</g>
<!-- Node11 -->
<g id="node11" class="node"><title>Node11</title>
<g id="a_node11"><a xlink:title=" ">
<polygon fill="none" stroke="#bfbfbf" points="958,-73 958,-92 992,-92 992,-73 958,-73"/>
<text text-anchor="middle" x="975" y="-80" font-family="Helvetica,sans-Serif" font-size="10.00">new</text>
</a>
</g>
</g>
<!-- Node7&#45;&gt;Node11 -->
<g id="edge11" class="edge"><title>Node7&#45;&gt;Node11</title>
<path fill="none" stroke="midnightblue" d="M895.195,-201.485C940.63,-194.523 992.958,-182.867 1007,-165 1022.42,-145.383 1004.91,-117.417 990.359,-99.8725"/>
<polygon fill="midnightblue" stroke="midnightblue" points="992.837,-97.3893 983.611,-92.1794 987.574,-102.005 992.837,-97.3893"/>
</g>
<!-- Node12 -->
<g id="node12" class="node"><title>Node12</title>
<g id="a_node12"><a xlink:title=" ">
<polygon fill="none" stroke="#bfbfbf" points="716.5,-140 716.5,-159 763.5,-159 763.5,-140 716.5,-140"/>
<text text-anchor="middle" x="740" y="-147" font-family="Helvetica,sans-Serif" font-size="10.00">iterator</text>
</a>
</g>
</g>
<!-- Node7&#45;&gt;Node12 -->
<g id="edge12" class="edge"><title>Node7&#45;&gt;Node12</title>
<path fill="none" stroke="midnightblue" d="M810.251,-201.475C797.221,-192.02 775.964,-176.596 760.241,-165.187"/>
<polygon fill="midnightblue" stroke="midnightblue" points="761.876,-162.049 751.727,-159.009 757.765,-167.715 761.876,-162.049"/>
</g>
<!-- Node13 -->
<g id="node13" class="node"><title>Node13</title>
<g id="a_node13"><a xlink:title=" ">
<polygon fill="none" stroke="#bfbfbf" points="639.5,-140 639.5,-159 698.5,-159 698.5,-140 639.5,-140"/>
<text text-anchor="middle" x="669" y="-147" font-family="Helvetica,sans-Serif" font-size="10.00">stdexcept</text>
</a>
</g>
</g>
<!-- Node7&#45;&gt;Node13 -->
<g id="edge13" class="edge"><title>Node7&#45;&gt;Node13</title>
<path fill="none" stroke="midnightblue" d="M800.079,-201.475C773.948,-191.313 730.088,-174.256 700.37,-162.7"/>
<polygon fill="midnightblue" stroke="midnightblue" points="701.469,-159.372 690.881,-159.009 698.932,-165.896 701.469,-159.372"/>
</g>
<!-- Node14 -->
<g id="node14" class="node"><title>Node14</title>
<g id="a_node14"><a xlink:href="XalanMemoryManagement_8hpp.html" target="_top" xlink:title=" ">
<polygon fill="none" stroke="black" points="858,-134.5 858,-164.5 998,-164.5 998,-134.5 858,-134.5"/>
<text text-anchor="start" x="866" y="-152.5" font-family="Helvetica,sans-Serif" font-size="10.00">xalanc/Include/XalanMemory</text>
<text text-anchor="middle" x="928" y="-141.5" font-family="Helvetica,sans-Serif" font-size="10.00">Management.hpp</text>
</a>
</g>
</g>
<!-- Node7&#45;&gt;Node14 -->
<g id="edge14" class="edge"><title>Node7&#45;&gt;Node14</title>
<path fill="none" stroke="midnightblue" d="M837.187,-201.475C852.013,-193.153 875.076,-180.207 894.249,-169.445"/>
<polygon fill="midnightblue" stroke="midnightblue" points="896.011,-172.47 903.018,-164.523 892.585,-166.366 896.011,-172.47"/>
</g>
<!-- Node14&#45;&gt;Node3 -->
<g id="edge15" class="edge"><title>Node14&#45;&gt;Node3</title>
<path fill="none" stroke="midnightblue" d="M857.847,-140.102C757.305,-128.067 572.662,-105.964 466.294,-93.2314"/>
<polygon fill="midnightblue" stroke="midnightblue" points="466.596,-89.7425 456.25,-92.0291 465.763,-96.6929 466.596,-89.7425"/>
</g>
<!-- Node14&#45;&gt;Node8 -->
<g id="edge17" class="edge"><title>Node14&#45;&gt;Node8</title>
<path fill="none" stroke="midnightblue" d="M871.472,-134.476C819.248,-121.519 743.376,-102.696 699.938,-91.9196"/>
<polygon fill="midnightblue" stroke="midnightblue" points="700.693,-88.501 690.144,-89.49 699.007,-95.2951 700.693,-88.501"/>
</g>
<!-- Node14&#45;&gt;Node10 -->
<g id="edge16" class="edge"><title>Node14&#45;&gt;Node10</title>
<path fill="none" stroke="midnightblue" d="M961.633,-134.396C988.95,-122.941 1027.11,-106.938 1053.31,-95.9521"/>
<polygon fill="midnightblue" stroke="midnightblue" points="1054.85,-99.102 1062.71,-92.007 1052.14,-92.6466 1054.85,-99.102"/>
</g>
<!-- Node14&#45;&gt;Node11 -->
<g id="edge18" class="edge"><title>Node14&#45;&gt;Node11</title>
<path fill="none" stroke="midnightblue" d="M938.198,-134.396C945.382,-124.462 955.037,-111.108 962.656,-100.572"/>
<polygon fill="midnightblue" stroke="midnightblue" points="965.69,-102.349 968.713,-92.1945 960.017,-98.2472 965.69,-102.349"/>
</g>
<!-- Node15 -->
<g id="node15" class="node"><title>Node15</title>
<g id="a_node15"><a xlink:title=" ">
<polygon fill="none" stroke="#bfbfbf" points="802.5,-67.5 802.5,-97.5 939.5,-97.5 939.5,-67.5 802.5,-67.5"/>
<text text-anchor="start" x="810.5" y="-85.5" font-family="Helvetica,sans-Serif" font-size="10.00">xercesc/framework/Memory</text>
<text text-anchor="middle" x="871" y="-74.5" font-family="Helvetica,sans-Serif" font-size="10.00">Manager.hpp</text>
</a>
</g>
</g>
<!-- Node14&#45;&gt;Node15 -->
<g id="edge19" class="edge"><title>Node14&#45;&gt;Node15</title>
<path fill="none" stroke="midnightblue" d="M915.632,-134.396C908.162,-125.878 898.489,-114.847 890.058,-105.233"/>
<polygon fill="midnightblue" stroke="midnightblue" points="892.569,-102.787 883.344,-97.5765 887.306,-107.403 892.569,-102.787"/>
</g>
<!-- Node17&#45;&gt;Node7 -->
<g id="edge46" class="edge"><title>Node17&#45;&gt;Node7</title>
<path fill="none" stroke="midnightblue" d="M822,-380.463C822,-353.428 822,-269.239 822,-231.109"/>
<polygon fill="midnightblue" stroke="midnightblue" points="825.5,-230.868 822,-220.868 818.5,-230.868 825.5,-230.868"/>
</g>
<!-- Node17&#45;&gt;Node10 -->
<g id="edge24" class="edge"><title>Node17&#45;&gt;Node10</title>
<path fill="none" stroke="midnightblue" d="M842.036,-380.375C895.807,-355.97 1042.94,-280.608 1098,-165 1107.73,-144.563 1099.84,-118.46 1092.3,-101.377"/>
<polygon fill="midnightblue" stroke="midnightblue" points="1095.3,-99.5383 1087.82,-92.0371 1088.99,-102.567 1095.3,-99.5383"/>
</g>
<!-- Node17&#45;&gt;Node14 -->
<g id="edge45" class="edge"><title>Node17&#45;&gt;Node14</title>
<path fill="none" stroke="midnightblue" d="M827.191,-380.158C841.455,-355.594 881.847,-284.166 907,-221 913.062,-205.778 918.322,-188.106 922.062,-174.263"/>
<polygon fill="midnightblue" stroke="midnightblue" points="925.463,-175.089 924.613,-164.528 918.692,-173.314 925.463,-175.089"/>
</g>
<!-- Node18 -->
<g id="node18" class="node"><title>Node18</title>
<g id="a_node18"><a xlink:href="XalanDOMDefinitions_8hpp.html" target="_top" xlink:title=" ">
<polygon fill="none" stroke="black" points="86,-257.5 86,-276.5 292,-276.5 292,-257.5 86,-257.5"/>
<text text-anchor="middle" x="189" y="-264.5" font-family="Helvetica,sans-Serif" font-size="10.00">xalanc/XalanDOM/XalanDOMDefinitions.hpp</text>
</a>
</g>
</g>
<!-- Node17&#45;&gt;Node18 -->
<g id="edge22" class="edge"><title>Node17&#45;&gt;Node18</title>
<path fill="none" stroke="midnightblue" d="M728.357,-388.087C566.248,-385.642 246.847,-376.687 208,-344 191.609,-330.209 188.195,-304.62 187.994,-286.971"/>
<polygon fill="midnightblue" stroke="midnightblue" points="191.499,-286.798 188.222,-276.723 184.501,-286.642 191.499,-286.798"/>
</g>
<!-- Node19 -->
<g id="node19" class="node"><title>Node19</title>
<g id="a_node19"><a xlink:href="STLHelper_8hpp.html" target="_top" xlink:title=" ">
<polygon fill="none" stroke="black" points="441,-319 441,-338 587,-338 587,-319 441,-319"/>
<text text-anchor="middle" x="514" y="-326" font-family="Helvetica,sans-Serif" font-size="10.00">xalanc/Include/STLHelper.hpp</text>
</a>
</g>
</g>
<!-- Node17&#45;&gt;Node19 -->
<g id="edge25" class="edge"><title>Node17&#45;&gt;Node19</title>
<path fill="none" stroke="midnightblue" d="M777.871,-380.475C722.522,-369.783 627.664,-351.458 568.029,-339.937"/>
<polygon fill="midnightblue" stroke="midnightblue" points="568.529,-336.469 558.047,-338.009 567.202,-343.342 568.529,-336.469"/>
</g>
<!-- Node24 -->
<g id="node24" class="node"><title>Node24</title>
<g id="a_node24"><a xlink:href="XalanDOMException_8hpp.html" target="_top" xlink:title=" ">
<polygon fill="none" stroke="black" points="217.5,-319 217.5,-338 422.5,-338 422.5,-319 217.5,-319"/>
<text text-anchor="middle" x="320" y="-326" font-family="Helvetica,sans-Serif" font-size="10.00">xalanc/XalanDOM/XalanDOMException.hpp</text>
</a>
</g>
</g>
<!-- Node17&#45;&gt;Node24 -->
<g id="edge47" class="edge"><title>Node17&#45;&gt;Node24</title>
<path fill="none" stroke="midnightblue" d="M745.371,-380.476C666.702,-371.65 540.751,-357.313 432,-344 419.869,-342.515 407.004,-340.893 394.484,-339.29"/>
<polygon fill="midnightblue" stroke="midnightblue" points="394.901,-335.815 384.536,-338.011 394.008,-342.758 394.901,-335.815"/>
</g>
<!-- Node18&#45;&gt;Node3 -->
<g id="edge23" class="edge"><title>Node18&#45;&gt;Node3</title>
<path fill="none" stroke="midnightblue" d="M191.171,-257.278C197.392,-234.01 217.43,-169.801 257,-134 278.269,-114.757 307.742,-102.456 333.046,-94.8179"/>
<polygon fill="midnightblue" stroke="midnightblue" points="334.215,-98.124 342.873,-92.0174 332.297,-91.392 334.215,-98.124"/>
</g>
<!-- Node19&#45;&gt;Node3 -->
<g id="edge26" class="edge"><title>Node19&#45;&gt;Node3</title>
<path fill="none" stroke="midnightblue" d="M470.608,-318.927C437.256,-311.154 390.814,-297.703 354,-277 321.056,-258.474 305.618,-255.418 290,-221 267.768,-172.006 327.586,-121.847 362.254,-97.9163"/>
<polygon fill="midnightblue" stroke="midnightblue" points="364.507,-100.62 370.869,-92.1486 360.613,-94.8034 364.507,-100.62"/>
</g>
<!-- Node19&#45;&gt;Node9 -->
<g id="edge27" class="edge"><title>Node19&#45;&gt;Node9</title>
<path fill="none" stroke="midnightblue" d="M520.171,-318.984C528.9,-305.895 543.242,-279.94 538,-257 530.079,-222.333 507.089,-187.236 492.256,-167.246"/>
<polygon fill="midnightblue" stroke="midnightblue" points="494.948,-165.005 486.098,-159.18 489.384,-169.252 494.948,-165.005"/>
</g>
<!-- Node20 -->
<g id="node20" class="node"><title>Node20</title>
<g id="a_node20"><a xlink:title=" ">
<polygon fill="none" stroke="#bfbfbf" points="299,-201.5 299,-220.5 357,-220.5 357,-201.5 299,-201.5"/>
<text text-anchor="middle" x="328" y="-208.5" font-family="Helvetica,sans-Serif" font-size="10.00">functional</text>
</a>
</g>
</g>
<!-- Node19&#45;&gt;Node20 -->
<g id="edge28" class="edge"><title>Node19&#45;&gt;Node20</title>
<path fill="none" stroke="midnightblue" d="M473.268,-318.988C444.337,-311.471 405.69,-298.316 377,-277 360.041,-264.4 346.179,-244.349 337.58,-229.846"/>
<polygon fill="midnightblue" stroke="midnightblue" points="340.463,-227.835 332.495,-220.853 334.37,-231.28 340.463,-227.835"/>
</g>
<!-- Node21 -->
<g id="node21" class="node"><title>Node21</title>
<g id="a_node21"><a xlink:href="XalanMap_8hpp.html" target="_top" xlink:title=" ">
<polygon fill="none" stroke="black" points="386.5,-257.5 386.5,-276.5 529.5,-276.5 529.5,-257.5 386.5,-257.5"/>
<text text-anchor="middle" x="458" y="-264.5" font-family="Helvetica,sans-Serif" font-size="10.00">xalanc/Include/XalanMap.hpp</text>
</a>
</g>
</g>
<!-- Node19&#45;&gt;Node21 -->
<g id="edge29" class="edge"><title>Node19&#45;&gt;Node21</title>
<path fill="none" stroke="midnightblue" d="M505.977,-318.975C497.41,-309.873 483.639,-295.241 473.043,-283.983"/>
<polygon fill="midnightblue" stroke="midnightblue" points="475.411,-281.392 466.009,-276.509 470.314,-286.19 475.411,-281.392"/>
</g>
<!-- Node21&#45;&gt;Node3 -->
<g id="edge30" class="edge"><title>Node21&#45;&gt;Node3</title>
<path fill="none" stroke="midnightblue" d="M442.461,-257.476C429.896,-249.704 412.883,-237.005 404,-221 382.921,-183.02 382.106,-130.357 383.469,-102.516"/>
<polygon fill="midnightblue" stroke="midnightblue" points="386.982,-102.424 384.134,-92.2194 379.997,-101.973 386.982,-102.424"/>
</g>
<!-- Node21&#45;&gt;Node7 -->
<g id="edge35" class="edge"><title>Node21&#45;&gt;Node7</title>
<path fill="none" stroke="midnightblue" d="M515.677,-257.444C580.507,-247.826 685.651,-232.228 754.317,-222.041"/>
<polygon fill="midnightblue" stroke="midnightblue" points="755.215,-225.446 764.593,-220.516 754.188,-218.522 755.215,-225.446"/>
</g>
<!-- Node21&#45;&gt;Node8 -->
<g id="edge31" class="edge"><title>Node21&#45;&gt;Node8</title>
<path fill="none" stroke="midnightblue" d="M458.994,-257.388C459.985,-248.342 461.437,-233.694 462,-221 462.394,-212.12 464.23,-209.605 462,-201 457.409,-183.282 446.591,-182.718 442,-165 438.544,-151.663 433.395,-144.76 442,-134 465.331,-104.824 574.562,-91.3006 631.41,-86.1491"/>
<polygon fill="midnightblue" stroke="midnightblue" points="632.052,-89.6067 641.712,-85.2554 631.447,-82.6329 632.052,-89.6067"/>
</g>
<!-- Node21&#45;&gt;Node9 -->
<g id="edge32" class="edge"><title>Node21&#45;&gt;Node9</title>
<path fill="none" stroke="midnightblue" d="M468.438,-257.245C477.424,-248.969 489.746,-235.663 495,-221 501.2,-203.696 495.07,-183.118 488.688,-168.674"/>
<polygon fill="midnightblue" stroke="midnightblue" points="491.688,-166.841 484.169,-159.376 485.393,-169.9 491.688,-166.841"/>
</g>
<!-- Node21&#45;&gt;Node20 -->
<g id="edge33" class="edge"><title>Node21&#45;&gt;Node20</title>
<path fill="none" stroke="midnightblue" d="M437.401,-257.444C416.007,-248.557 382.319,-234.563 357.976,-224.451"/>
<polygon fill="midnightblue" stroke="midnightblue" points="359.08,-221.12 348.503,-220.516 356.395,-227.585 359.08,-221.12"/>
</g>
<!-- Node22 -->
<g id="node22" class="node"><title>Node22</title>
<g id="a_node22"><a xlink:title=" ">
<polygon fill="none" stroke="#bfbfbf" points="413,-201.5 413,-220.5 453,-220.5 453,-201.5 413,-201.5"/>
<text text-anchor="middle" x="433" y="-208.5" font-family="Helvetica,sans-Serif" font-size="10.00">utility</text>
</a>
</g>
</g>
<!-- Node21&#45;&gt;Node22 -->
<g id="edge34" class="edge"><title>Node21&#45;&gt;Node22</title>
<path fill="none" stroke="midnightblue" d="M453.872,-257.083C450.486,-249.77 445.584,-239.181 441.381,-230.103"/>
<polygon fill="midnightblue" stroke="midnightblue" points="444.429,-228.355 437.051,-220.751 438.077,-231.296 444.429,-228.355"/>
</g>
<!-- Node23 -->
<g id="node23" class="node"><title>Node23</title>
<g id="a_node23"><a xlink:href="XalanList_8hpp.html" target="_top" xlink:title=" ">
<polygon fill="none" stroke="black" points="586,-201.5 586,-220.5 726,-220.5 726,-201.5 586,-201.5"/>
<text text-anchor="middle" x="656" y="-208.5" font-family="Helvetica,sans-Serif" font-size="10.00">xalanc/Include/XalanList.hpp</text>
</a>
</g>
</g>
<!-- Node21&#45;&gt;Node23 -->
<g id="edge36" class="edge"><title>Node21&#45;&gt;Node23</title>
<path fill="none" stroke="midnightblue" d="M489.374,-257.444C523.263,-248.201 577.403,-233.436 614.724,-223.257"/>
<polygon fill="midnightblue" stroke="midnightblue" points="616.046,-226.524 624.773,-220.516 614.205,-219.771 616.046,-226.524"/>
</g>
<!-- Node23&#45;&gt;Node3 -->
<g id="edge37" class="edge"><title>Node23&#45;&gt;Node3</title>
<path fill="none" stroke="midnightblue" d="M641.605,-201.376C616.579,-186.568 563.203,-155.799 516,-134 484.016,-119.229 446.39,-105.04 419.688,-95.4837"/>
<polygon fill="midnightblue" stroke="midnightblue" points="420.618,-92.1001 410.024,-92.0565 418.279,-98.6976 420.618,-92.1001"/>
</g>
<!-- Node23&#45;&gt;Node8 -->
<g id="edge38" class="edge"><title>Node23&#45;&gt;Node8</title>
<path fill="none" stroke="midnightblue" d="M637.016,-201.398C623.114,-193.954 605.286,-181.741 597,-165 590.888,-152.652 590.766,-146.287 597,-134 605.343,-117.555 621.835,-105.179 636.604,-96.7956"/>
<polygon fill="midnightblue" stroke="midnightblue" points="638.289,-99.8636 645.489,-92.0906 635.013,-93.6775 638.289,-99.8636"/>
</g>
<!-- Node23&#45;&gt;Node9 -->
<g id="edge39" class="edge"><title>Node23&#45;&gt;Node9</title>
<path fill="none" stroke="midnightblue" d="M630.092,-201.455C602.894,-192.463 558.901,-177.859 521,-165 518.571,-164.176 516.065,-163.321 513.542,-162.458"/>
<polygon fill="midnightblue" stroke="midnightblue" points="514.453,-159.07 503.859,-159.131 512.179,-165.691 514.453,-159.07"/>
</g>
<!-- Node23&#45;&gt;Node10 -->
<g id="edge40" class="edge"><title>Node23&#45;&gt;Node10</title>
<path fill="none" stroke="midnightblue" d="M726.302,-201.593C826.958,-189.471 1000.8,-168.18 1007,-165 1035.85,-150.204 1059.49,-119.856 1072.39,-100.657"/>
<polygon fill="midnightblue" stroke="midnightblue" points="1075.34,-102.542 1077.83,-92.2443 1069.46,-98.7401 1075.34,-102.542"/>
</g>
<!-- Node23&#45;&gt;Node11 -->
<g id="edge41" class="edge"><title>Node23&#45;&gt;Node11</title>
<path fill="none" stroke="midnightblue" d="M648.187,-201.391C635.221,-186.053 612.35,-153.761 630,-134 677.375,-80.9589 880.117,-119.206 948,-98 949.428,-97.5538 950.869,-97.0306 952.301,-96.4528"/>
<polygon fill="midnightblue" stroke="midnightblue" points="953.922,-99.5574 961.431,-92.0826 950.9,-93.2435 953.922,-99.5574"/>
</g>
<!-- Node23&#45;&gt;Node12 -->
<g id="edge42" class="edge"><title>Node23&#45;&gt;Node12</title>
<path fill="none" stroke="midnightblue" d="M668.035,-201.475C681.508,-191.931 703.566,-176.307 719.715,-164.868"/>
<polygon fill="midnightblue" stroke="midnightblue" points="721.85,-167.645 727.987,-159.009 717.804,-161.933 721.85,-167.645"/>
</g>
<!-- Node23&#45;&gt;Node13 -->
<g id="edge43" class="edge"><title>Node23&#45;&gt;Node13</title>
<path fill="none" stroke="midnightblue" d="M657.863,-201.475C659.716,-192.992 662.619,-179.704 664.997,-168.822"/>
<polygon fill="midnightblue" stroke="midnightblue" points="668.426,-169.526 667.141,-159.009 661.587,-168.032 668.426,-169.526"/>
</g>
<!-- Node23&#45;&gt;Node14 -->
<g id="edge44" class="edge"><title>Node23&#45;&gt;Node14</title>
<path fill="none" stroke="midnightblue" d="M694.971,-201.475C736.285,-192.438 802.527,-177.947 853.843,-166.722"/>
<polygon fill="midnightblue" stroke="midnightblue" points="854.874,-170.079 863.895,-164.523 853.378,-163.241 854.874,-170.079"/>
</g>
<!-- Node24&#45;&gt;Node18 -->
<g id="edge48" class="edge"><title>Node24&#45;&gt;Node18</title>
<path fill="none" stroke="midnightblue" d="M301.231,-318.975C279.149,-308.945 242.281,-292.2 216.861,-280.655"/>
<polygon fill="midnightblue" stroke="midnightblue" points="218.287,-277.458 207.734,-276.509 215.392,-283.831 218.287,-277.458"/>
</g>
</g>
</svg>
