<?xml version="1.0" encoding="UTF-8" standalone="no"?>
<!DOCTYPE svg PUBLIC "-//W3C//DTD SVG 1.1//EN"
 "http://www.w3.org/Graphics/SVG/1.1/DTD/svg11.dtd">
<!-- Generated by graphviz version 2.43.0 (0)
 -->
<!-- Title: xalanc/XalanSourceTree/XalanSourceTreeParserLiaison.hpp Pages: 1 -->
<svg width="1577pt" height="620pt"
 viewBox="0.00 0.00 1577.00 620.00" xmlns="http://www.w3.org/2000/svg" xmlns:xlink="http://www.w3.org/1999/xlink">
<g id="graph0" class="graph" transform="scale(1 1) rotate(0) translate(4 616)">
<title>xalanc/XalanSourceTree/XalanSourceTreeParserLiaison.hpp</title>
<!-- Node1 -->
<g id="node1" class="node">
<title>Node1</title>
<g id="a_node1"><a xlink:title=" ">
<polygon fill="#bfbfbf" stroke="black" points="557.5,-581.5 557.5,-611.5 743.5,-611.5 743.5,-581.5 557.5,-581.5"/>
<text text-anchor="start" x="565.5" y="-599.5" font-family="Helvetica,sans-Serif" font-size="10.00">xalanc/XalanSourceTree</text>
<text text-anchor="middle" x="650.5" y="-588.5" font-family="Helvetica,sans-Serif" font-size="10.00">/XalanSourceTreeParserLiaison.hpp</text>
</a>
</g>
</g>
<!-- Node2 -->
<g id="node2" class="node">
<title>Node2</title>
<g id="a_node2"><a xlink:href="XalanSourceTreeDefinitions_8hpp.html" target="_top" xlink:title=" ">
<polygon fill="none" stroke="black" points="725.5,-514.5 725.5,-544.5 899.5,-544.5 899.5,-514.5 725.5,-514.5"/>
<text text-anchor="start" x="733.5" y="-532.5" font-family="Helvetica,sans-Serif" font-size="10.00">xalanc/XalanSourceTree</text>
<text text-anchor="middle" x="812.5" y="-521.5" font-family="Helvetica,sans-Serif" font-size="10.00">/XalanSourceTreeDefinitions.hpp</text>
</a>
</g>
</g>
<!-- Node1&#45;&gt;Node2 -->
<g id="edge1" class="edge">
<title>Node1&#45;&gt;Node2</title>
<path fill="none" stroke="midnightblue" d="M685.65,-581.4C709.75,-571.73 741.91,-558.82 767.82,-548.43"/>
<polygon fill="midnightblue" stroke="midnightblue" points="769.44,-551.55 777.42,-544.58 766.83,-545.05 769.44,-551.55"/>
</g>
<!-- Node7 -->
<g id="node7" class="node">
<title>Node7</title>
<g id="a_node7"><a xlink:href="XalanMap_8hpp.html" target="_top" xlink:title=" ">
<polygon fill="none" stroke="black" points="1040.5,-263 1040.5,-282 1200.5,-282 1200.5,-263 1040.5,-263"/>
<text text-anchor="middle" x="1120.5" y="-270" font-family="Helvetica,sans-Serif" font-size="10.00">xalanc/Include/XalanMap.hpp</text>
</a>
</g>
</g>
<!-- Node1&#45;&gt;Node7 -->
<g id="edge6" class="edge">
<title>Node1&#45;&gt;Node7</title>
<path fill="none" stroke="midnightblue" d="M743.85,-591.3C971.84,-579.79 1538.5,-543.18 1538.5,-463.5 1538.5,-463.5 1538.5,-463.5 1538.5,-394.5 1538.5,-326.8 1333.65,-294.59 1210.76,-281.36"/>
<polygon fill="midnightblue" stroke="midnightblue" points="1210.91,-277.85 1200.6,-280.29 1210.18,-284.81 1210.91,-277.85"/>
</g>
<!-- Node20 -->
<g id="node20" class="node">
<title>Node20</title>
<g id="a_node20"><a xlink:href="XercesDOMSupport_8hpp.html" target="_top" xlink:title=" ">
<polygon fill="none" stroke="black" points="71,-447.5 71,-477.5 220,-477.5 220,-447.5 71,-447.5"/>
<text text-anchor="start" x="79" y="-465.5" font-family="Helvetica,sans-Serif" font-size="10.00">xalanc/XercesParserLiaison</text>
<text text-anchor="middle" x="145.5" y="-454.5" font-family="Helvetica,sans-Serif" font-size="10.00">/XercesDOMSupport.hpp</text>
</a>
</g>
</g>
<!-- Node1&#45;&gt;Node20 -->
<g id="edge35" class="edge">
<title>Node1&#45;&gt;Node20</title>
<path fill="none" stroke="midnightblue" d="M596.93,-581.5C503.09,-556.97 309.41,-506.34 208.99,-480.1"/>
<polygon fill="midnightblue" stroke="midnightblue" points="209.84,-476.7 199.28,-477.56 208.07,-483.47 209.84,-476.7"/>
</g>
<!-- Node25 -->
<g id="node25" class="node">
<title>Node25</title>
<g id="a_node25"><a xlink:href="XercesParserLiaison_8hpp.html" target="_top" xlink:title=" ">
<polygon fill="none" stroke="black" points="486,-514.5 486,-544.5 635,-544.5 635,-514.5 486,-514.5"/>
<text text-anchor="start" x="494" y="-532.5" font-family="Helvetica,sans-Serif" font-size="10.00">xalanc/XercesParserLiaison</text>
<text text-anchor="middle" x="560.5" y="-521.5" font-family="Helvetica,sans-Serif" font-size="10.00">/XercesParserLiaison.hpp</text>
</a>
</g>
</g>
<!-- Node1&#45;&gt;Node25 -->
<g id="edge42" class="edge">
<title>Node1&#45;&gt;Node25</title>
<path fill="none" stroke="midnightblue" d="M630.97,-581.4C618.47,-572.37 602.06,-560.51 588.22,-550.52"/>
<polygon fill="midnightblue" stroke="midnightblue" points="590.15,-547.59 579.99,-544.58 586.05,-553.27 590.15,-547.59"/>
</g>
<!-- Node3 -->
<g id="node3" class="node">
<title>Node3</title>
<g id="a_node3"><a xlink:href="PlatformDefinitions_8hpp.html" target="_top" xlink:title=" ">
<polygon fill="none" stroke="black" points="599.5,-73 599.5,-92 805.5,-92 805.5,-73 599.5,-73"/>
<text text-anchor="middle" x="702.5" y="-80" font-family="Helvetica,sans-Serif" font-size="10.00">xalanc/Include/PlatformDefinitions.hpp</text>
</a>
</g>
</g>
<!-- Node2&#45;&gt;Node3 -->
<g id="edge2" class="edge">
<title>Node2&#45;&gt;Node3</title>
<path fill="none" stroke="midnightblue" d="M812.75,-514.49C812.31,-496.56 808.84,-465.59 791.5,-447 756.99,-410 731.36,-427.41 683.5,-411 598.8,-381.95 554.37,-409.67 493.5,-344 471.44,-320.2 474.5,-305.95 474.5,-273.5 474.5,-273.5 474.5,-273.5 474.5,-210 474.5,-139.39 559.16,-107.86 625.3,-94"/>
<polygon fill="midnightblue" stroke="midnightblue" points="626.2,-97.39 635.33,-92.01 624.83,-90.53 626.2,-97.39"/>
</g>
<!-- Node4 -->
<g id="node4" class="node">
<title>Node4</title>
<g id="a_node4"><a xlink:title=" ">
<polygon fill="none" stroke="#bfbfbf" points="481.5,-0.5 481.5,-30.5 601.5,-30.5 601.5,-0.5 481.5,-0.5"/>
<text text-anchor="start" x="489.5" y="-18.5" font-family="Helvetica,sans-Serif" font-size="10.00">xercesc/util/Xerces</text>
<text text-anchor="middle" x="541.5" y="-7.5" font-family="Helvetica,sans-Serif" font-size="10.00">_autoconf_config.hpp</text>
</a>
</g>
</g>
<!-- Node3&#45;&gt;Node4 -->
<g id="edge3" class="edge">
<title>Node3&#45;&gt;Node4</title>
<path fill="none" stroke="midnightblue" d="M681.12,-72.87C656.86,-63.07 616.62,-46.83 585.56,-34.29"/>
<polygon fill="midnightblue" stroke="midnightblue" points="586.83,-31.03 576.25,-30.53 584.21,-37.52 586.83,-31.03"/>
</g>
<!-- Node5 -->
<g id="node5" class="node">
<title>Node5</title>
<g id="a_node5"><a xlink:title=" ">
<polygon fill="none" stroke="#bfbfbf" points="620,-6 620,-25 785,-25 785,-6 620,-6"/>
<text text-anchor="middle" x="702.5" y="-13" font-family="Helvetica,sans-Serif" font-size="10.00">xercesc/util/XercesVersion.hpp</text>
</a>
</g>
</g>
<!-- Node3&#45;&gt;Node5 -->
<g id="edge4" class="edge">
<title>Node3&#45;&gt;Node5</title>
<path fill="none" stroke="midnightblue" d="M702.5,-72.73C702.5,-63.18 702.5,-47.62 702.5,-35.28"/>
<polygon fill="midnightblue" stroke="midnightblue" points="706,-35.13 702.5,-25.13 699,-35.13 706,-35.13"/>
</g>
<!-- Node6 -->
<g id="node6" class="node">
<title>Node6</title>
<g id="a_node6"><a xlink:href="XalanVersion_8hpp.html" target="_top" xlink:title=" ">
<polygon fill="none" stroke="black" points="803,-6 803,-25 978,-25 978,-6 803,-6"/>
<text text-anchor="middle" x="890.5" y="-13" font-family="Helvetica,sans-Serif" font-size="10.00">xalanc/Include/XalanVersion.hpp</text>
</a>
</g>
</g>
<!-- Node3&#45;&gt;Node6 -->
<g id="edge5" class="edge">
<title>Node3&#45;&gt;Node6</title>
<path fill="none" stroke="midnightblue" d="M727.46,-72.87C760.42,-61.47 818.62,-41.35 855.83,-28.49"/>
<polygon fill="midnightblue" stroke="midnightblue" points="857.42,-31.64 865.73,-25.06 855.14,-25.02 857.42,-31.64"/>
</g>
<!-- Node7&#45;&gt;Node3 -->
<g id="edge7" class="edge">
<title>Node7&#45;&gt;Node3</title>
<path fill="none" stroke="midnightblue" d="M1094.47,-262.96C1066.47,-253.54 1020.8,-237.52 982.5,-221 964.25,-213.13 960.49,-209.44 942.5,-201 906.47,-184.09 896.43,-182.13 860.5,-165 812.99,-142.34 758.66,-113.7 727.68,-97.11"/>
<polygon fill="midnightblue" stroke="midnightblue" points="728.95,-93.82 718.48,-92.17 725.64,-99.98 728.95,-93.82"/>
</g>
<!-- Node8 -->
<g id="node8" class="node">
<title>Node8</title>
<g id="a_node8"><a xlink:title=" ">
<polygon fill="none" stroke="#bfbfbf" points="1516,-73 1516,-92 1569,-92 1569,-73 1516,-73"/>
<text text-anchor="middle" x="1542.5" y="-80" font-family="Helvetica,sans-Serif" font-size="10.00">cstddef</text>
</a>
</g>
</g>
<!-- Node7&#45;&gt;Node8 -->
<g id="edge8" class="edge">
<title>Node7&#45;&gt;Node8</title>
<path fill="none" stroke="midnightblue" d="M1200.55,-270.79C1268.07,-267.49 1365.83,-256.21 1443.5,-221 1478.85,-204.98 1487.81,-196.49 1510.5,-165 1524.42,-145.68 1533.29,-119.48 1538.07,-102.06"/>
<polygon fill="midnightblue" stroke="midnightblue" points="1541.55,-102.59 1540.64,-92.04 1534.77,-100.86 1541.55,-102.59"/>
</g>
<!-- Node9 -->
<g id="node9" class="node">
<title>Node9</title>
<g id="a_node9"><a xlink:title=" ">
<polygon fill="none" stroke="#bfbfbf" points="869.5,-140 869.5,-159 933.5,-159 933.5,-140 869.5,-140"/>
<text text-anchor="middle" x="901.5" y="-147" font-family="Helvetica,sans-Serif" font-size="10.00">algorithm</text>
</a>
</g>
</g>
<!-- Node7&#45;&gt;Node9 -->
<g id="edge9" class="edge">
<title>Node7&#45;&gt;Node9</title>
<path fill="none" stroke="midnightblue" d="M1101.84,-262.83C1081.2,-253.11 1047.1,-236.66 1018.5,-221 984.86,-202.58 947.03,-179.3 923.73,-164.65"/>
<polygon fill="midnightblue" stroke="midnightblue" points="925.3,-161.5 914.98,-159.12 921.56,-167.42 925.3,-161.5"/>
</g>
<!-- Node10 -->
<g id="node10" class="node">
<title>Node10</title>
<g id="a_node10"><a xlink:title=" ">
<polygon fill="none" stroke="#bfbfbf" points="869,-201.5 869,-220.5 934,-220.5 934,-201.5 869,-201.5"/>
<text text-anchor="middle" x="901.5" y="-208.5" font-family="Helvetica,sans-Serif" font-size="10.00">functional</text>
</a>
</g>
</g>
<!-- Node7&#45;&gt;Node10 -->
<g id="edge10" class="edge">
<title>Node7&#45;&gt;Node10</title>
<path fill="none" stroke="midnightblue" d="M1089.12,-262.98C1050.58,-252.5 985.09,-234.71 942.58,-223.16"/>
<polygon fill="midnightblue" stroke="midnightblue" points="943.39,-219.75 932.82,-220.51 941.55,-226.51 943.39,-219.75"/>
</g>
<!-- Node11 -->
<g id="node11" class="node">
<title>Node11</title>
<g id="a_node11"><a xlink:title=" ">
<polygon fill="none" stroke="#bfbfbf" points="1215,-201.5 1215,-220.5 1260,-220.5 1260,-201.5 1215,-201.5"/>
<text text-anchor="middle" x="1237.5" y="-208.5" font-family="Helvetica,sans-Serif" font-size="10.00">utility</text>
</a>
</g>
</g>
<!-- Node7&#45;&gt;Node11 -->
<g id="edge11" class="edge">
<title>Node7&#45;&gt;Node11</title>
<path fill="none" stroke="midnightblue" d="M1137.26,-262.98C1156.72,-253.08 1189.05,-236.64 1211.71,-225.12"/>
<polygon fill="midnightblue" stroke="midnightblue" points="1213.44,-228.16 1220.77,-220.51 1210.27,-221.92 1213.44,-228.16"/>
</g>
<!-- Node12 -->
<g id="node12" class="node">
<title>Node12</title>
<g id="a_node12"><a xlink:href="XalanVector_8hpp.html" target="_top" xlink:title=" ">
<polygon fill="none" stroke="black" points="1028,-201.5 1028,-220.5 1197,-220.5 1197,-201.5 1028,-201.5"/>
<text text-anchor="middle" x="1112.5" y="-208.5" font-family="Helvetica,sans-Serif" font-size="10.00">xalanc/Include/XalanVector.hpp</text>
</a>
</g>
</g>
<!-- Node7&#45;&gt;Node12 -->
<g id="edge12" class="edge">
<title>Node7&#45;&gt;Node12</title>
<path fill="none" stroke="midnightblue" d="M1119.35,-262.98C1118.23,-254.58 1116.46,-241.48 1115.01,-230.66"/>
<polygon fill="midnightblue" stroke="midnightblue" points="1118.45,-229.95 1113.64,-220.51 1111.51,-230.89 1118.45,-229.95"/>
</g>
<!-- Node19 -->
<g id="node19" class="node">
<title>Node19</title>
<g id="a_node19"><a xlink:href="XalanList_8hpp.html" target="_top" xlink:title=" ">
<polygon fill="none" stroke="black" points="1278.5,-201.5 1278.5,-220.5 1434.5,-220.5 1434.5,-201.5 1278.5,-201.5"/>
<text text-anchor="middle" x="1356.5" y="-208.5" font-family="Helvetica,sans-Serif" font-size="10.00">xalanc/Include/XalanList.hpp</text>
</a>
</g>
</g>
<!-- Node7&#45;&gt;Node19 -->
<g id="edge26" class="edge">
<title>Node7&#45;&gt;Node19</title>
<path fill="none" stroke="midnightblue" d="M1154.31,-262.98C1196.02,-252.46 1267.01,-234.56 1312.81,-223.01"/>
<polygon fill="midnightblue" stroke="midnightblue" points="1313.91,-226.35 1322.75,-220.51 1312.2,-219.56 1313.91,-226.35"/>
</g>
<!-- Node12&#45;&gt;Node3 -->
<g id="edge13" class="edge">
<title>Node12&#45;&gt;Node3</title>
<path fill="none" stroke="midnightblue" d="M1093.86,-201.4C1052.99,-182.57 957.87,-138.99 942.5,-134 885.6,-115.53 818.86,-102.12 770.22,-93.78"/>
<polygon fill="midnightblue" stroke="midnightblue" points="770.57,-90.29 760.13,-92.08 769.41,-97.19 770.57,-90.29"/>
</g>
<!-- Node12&#45;&gt;Node8 -->
<g id="edge14" class="edge">
<title>Node12&#45;&gt;Node8</title>
<path fill="none" stroke="midnightblue" d="M1189.1,-201.48C1288.67,-190.21 1451.36,-171.08 1463.5,-165 1471.42,-161.03 1507.23,-122.39 1527.81,-99.77"/>
<polygon fill="midnightblue" stroke="midnightblue" points="1530.5,-102.01 1534.63,-92.25 1525.32,-97.31 1530.5,-102.01"/>
</g>
<!-- Node12&#45;&gt;Node9 -->
<g id="edge15" class="edge">
<title>Node12&#45;&gt;Node9</title>
<path fill="none" stroke="midnightblue" d="M1079.83,-201.49C1046.47,-192.71 993.22,-178.44 947.5,-165 944.37,-164.08 941.12,-163.1 937.87,-162.11"/>
<polygon fill="midnightblue" stroke="midnightblue" points="938.79,-158.73 928.2,-159.11 936.72,-165.42 938.79,-158.73"/>
</g>
<!-- Node13 -->
<g id="node13" class="node">
<title>Node13</title>
<g id="a_node13"><a xlink:title=" ">
<polygon fill="none" stroke="#bfbfbf" points="1073.5,-73 1073.5,-92 1125.5,-92 1125.5,-73 1073.5,-73"/>
<text text-anchor="middle" x="1099.5" y="-80" font-family="Helvetica,sans-Serif" font-size="10.00">cassert</text>
</a>
</g>
</g>
<!-- Node12&#45;&gt;Node13 -->
<g id="edge16" class="edge">
<title>Node12&#45;&gt;Node13</title>
<path fill="none" stroke="midnightblue" d="M1075.8,-201.35C1056.67,-194.77 1034.93,-183.58 1023.5,-165 1016.28,-153.26 1016.99,-146.14 1023.5,-134 1032.7,-116.84 1050.58,-104.52 1066.68,-96.35"/>
<polygon fill="midnightblue" stroke="midnightblue" points="1068.33,-99.44 1075.88,-92.01 1065.35,-93.11 1068.33,-99.44"/>
</g>
<!-- Node14 -->
<g id="node14" class="node">
<title>Node14</title>
<g id="a_node14"><a xlink:title=" ">
<polygon fill="none" stroke="#bfbfbf" points="1259,-73 1259,-92 1296,-92 1296,-73 1259,-73"/>
<text text-anchor="middle" x="1277.5" y="-80" font-family="Helvetica,sans-Serif" font-size="10.00">new</text>
</a>
</g>
</g>
<!-- Node12&#45;&gt;Node14 -->
<g id="edge17" class="edge">
<title>Node12&#45;&gt;Node14</title>
<path fill="none" stroke="midnightblue" d="M1095,-201.46C1081.71,-193.92 1064.42,-181.53 1056.5,-165 1050.55,-152.58 1047.91,-144.77 1056.5,-134 1080.25,-104.21 1194.46,-90.6 1248.74,-85.73"/>
<polygon fill="midnightblue" stroke="midnightblue" points="1249.08,-89.21 1258.75,-84.87 1248.49,-82.24 1249.08,-89.21"/>
</g>
<!-- Node15 -->
<g id="node15" class="node">
<title>Node15</title>
<g id="a_node15"><a xlink:title=" ">
<polygon fill="none" stroke="#bfbfbf" points="1066,-140 1066,-159 1119,-159 1119,-140 1066,-140"/>
<text text-anchor="middle" x="1092.5" y="-147" font-family="Helvetica,sans-Serif" font-size="10.00">iterator</text>
</a>
</g>
</g>
<!-- Node12&#45;&gt;Node15 -->
<g id="edge18" class="edge">
<title>Node12&#45;&gt;Node15</title>
<path fill="none" stroke="midnightblue" d="M1109.63,-201.48C1106.78,-192.99 1102.32,-179.7 1098.66,-168.82"/>
<polygon fill="midnightblue" stroke="midnightblue" points="1101.86,-167.37 1095.36,-159.01 1095.23,-169.6 1101.86,-167.37"/>
</g>
<!-- Node16 -->
<g id="node16" class="node">
<title>Node16</title>
<g id="a_node16"><a xlink:title=" ">
<polygon fill="none" stroke="#bfbfbf" points="1137,-140 1137,-159 1202,-159 1202,-140 1137,-140"/>
<text text-anchor="middle" x="1169.5" y="-147" font-family="Helvetica,sans-Serif" font-size="10.00">stdexcept</text>
</a>
</g>
</g>
<!-- Node12&#45;&gt;Node16 -->
<g id="edge19" class="edge">
<title>Node12&#45;&gt;Node16</title>
<path fill="none" stroke="midnightblue" d="M1120.67,-201.48C1129.39,-192.37 1143.4,-177.74 1154.19,-166.48"/>
<polygon fill="midnightblue" stroke="midnightblue" points="1156.96,-168.65 1161.35,-159.01 1151.9,-163.81 1156.96,-168.65"/>
</g>
<!-- Node17 -->
<g id="node17" class="node">
<title>Node17</title>
<g id="a_node17"><a xlink:href="XalanMemoryManagement_8hpp.html" target="_top" xlink:title=" ">
<polygon fill="none" stroke="black" points="1296.5,-134.5 1296.5,-164.5 1454.5,-164.5 1454.5,-134.5 1296.5,-134.5"/>
<text text-anchor="start" x="1304.5" y="-152.5" font-family="Helvetica,sans-Serif" font-size="10.00">xalanc/Include/XalanMemory</text>
<text text-anchor="middle" x="1375.5" y="-141.5" font-family="Helvetica,sans-Serif" font-size="10.00">Management.hpp</text>
</a>
</g>
</g>
<!-- Node12&#45;&gt;Node17 -->
<g id="edge20" class="edge">
<title>Node12&#45;&gt;Node17</title>
<path fill="none" stroke="midnightblue" d="M1150.18,-201.48C1190.05,-192.46 1253.91,-178.01 1303.49,-166.79"/>
<polygon fill="midnightblue" stroke="midnightblue" points="1304.53,-170.14 1313.52,-164.52 1302.99,-163.32 1304.53,-170.14"/>
</g>
<!-- Node17&#45;&gt;Node3 -->
<g id="edge21" class="edge">
<title>Node17&#45;&gt;Node3</title>
<path fill="none" stroke="midnightblue" d="M1296.2,-139.5C1279.15,-137.63 1261.23,-135.71 1244.5,-134 1093.61,-118.62 918.89,-102.68 809.53,-92.92"/>
<polygon fill="midnightblue" stroke="midnightblue" points="809.75,-89.43 799.48,-92.03 809.13,-96.4 809.75,-89.43"/>
</g>
<!-- Node17&#45;&gt;Node8 -->
<g id="edge23" class="edge">
<title>Node17&#45;&gt;Node8</title>
<path fill="none" stroke="midnightblue" d="M1411.74,-134.4C1441.43,-122.84 1483.01,-106.66 1511.25,-95.66"/>
<polygon fill="midnightblue" stroke="midnightblue" points="1512.59,-98.9 1520.64,-92.01 1510.06,-92.37 1512.59,-98.9"/>
</g>
<!-- Node17&#45;&gt;Node13 -->
<g id="edge22" class="edge">
<title>Node17&#45;&gt;Node13</title>
<path fill="none" stroke="midnightblue" d="M1315.95,-134.48C1261,-121.53 1181.19,-102.74 1135.41,-91.96"/>
<polygon fill="midnightblue" stroke="midnightblue" points="1136.16,-88.54 1125.63,-89.65 1134.56,-95.35 1136.16,-88.54"/>
</g>
<!-- Node17&#45;&gt;Node14 -->
<g id="edge24" class="edge">
<title>Node17&#45;&gt;Node14</title>
<path fill="none" stroke="midnightblue" d="M1354.24,-134.4C1337.8,-123.5 1315.16,-108.48 1298.73,-97.58"/>
<polygon fill="midnightblue" stroke="midnightblue" points="1300.59,-94.62 1290.33,-92.01 1296.72,-100.45 1300.59,-94.62"/>
</g>
<!-- Node18 -->
<g id="node18" class="node">
<title>Node18</title>
<g id="a_node18"><a xlink:title=" ">
<polygon fill="none" stroke="#bfbfbf" points="1314,-67.5 1314,-97.5 1467,-97.5 1467,-67.5 1314,-67.5"/>
<text text-anchor="start" x="1322" y="-85.5" font-family="Helvetica,sans-Serif" font-size="10.00">xercesc/framework/Memory</text>
<text text-anchor="middle" x="1390.5" y="-74.5" font-family="Helvetica,sans-Serif" font-size="10.00">Manager.hpp</text>
</a>
</g>
</g>
<!-- Node17&#45;&gt;Node18 -->
<g id="edge25" class="edge">
<title>Node17&#45;&gt;Node18</title>
<path fill="none" stroke="midnightblue" d="M1378.75,-134.4C1380.56,-126.56 1382.86,-116.6 1384.95,-107.57"/>
<polygon fill="midnightblue" stroke="midnightblue" points="1388.41,-108.11 1387.25,-97.58 1381.59,-106.53 1388.41,-108.11"/>
</g>
<!-- Node19&#45;&gt;Node3 -->
<g id="edge27" class="edge">
<title>Node19&#45;&gt;Node3</title>
<path fill="none" stroke="midnightblue" d="M1327.07,-201.38C1303.65,-193.79 1270.59,-181.38 1244.5,-165 1227.18,-154.13 1229.18,-142.32 1210.5,-134 1142.27,-103.6 943.65,-91.34 815.93,-86.51"/>
<polygon fill="midnightblue" stroke="midnightblue" points="815.84,-83 805.71,-86.13 815.58,-90 815.84,-83"/>
</g>
<!-- Node19&#45;&gt;Node8 -->
<g id="edge28" class="edge">
<title>Node19&#45;&gt;Node8</title>
<path fill="none" stroke="midnightblue" d="M1398.26,-201.45C1424.06,-194.68 1456.84,-183.24 1481.5,-165 1504.64,-147.88 1523.02,-119.57 1533.34,-101.22"/>
<polygon fill="midnightblue" stroke="midnightblue" points="1536.54,-102.65 1538.22,-92.19 1530.38,-99.33 1536.54,-102.65"/>
</g>
<!-- Node19&#45;&gt;Node9 -->
<g id="edge29" class="edge">
<title>Node19&#45;&gt;Node9</title>
<path fill="none" stroke="midnightblue" d="M1291.31,-201.48C1196.54,-189.08 1023.35,-166.43 943.67,-156.01"/>
<polygon fill="midnightblue" stroke="midnightblue" points="943.88,-152.51 933.51,-154.69 942.98,-159.45 943.88,-152.51"/>
</g>
<!-- Node19&#45;&gt;Node13 -->
<g id="edge30" class="edge">
<title>Node19&#45;&gt;Node13</title>
<path fill="none" stroke="midnightblue" d="M1342.89,-201.39C1328.88,-192.47 1306.49,-178.03 1287.5,-165 1268.07,-151.67 1265.4,-144.88 1244.5,-134 1209.02,-115.53 1165.32,-101.37 1135.23,-92.8"/>
<polygon fill="midnightblue" stroke="midnightblue" points="1136.14,-89.43 1125.57,-90.11 1134.27,-96.17 1136.14,-89.43"/>
</g>
<!-- Node19&#45;&gt;Node14 -->
<g id="edge31" class="edge">
<title>Node19&#45;&gt;Node14</title>
<path fill="none" stroke="midnightblue" d="M1407.01,-201.49C1428.18,-195.15 1450.79,-184.14 1463.5,-165 1471.12,-153.52 1472.1,-144.76 1463.5,-134 1418.28,-77.39 1372.37,-123.37 1304.5,-98 1303.29,-97.55 1302.08,-97.05 1300.86,-96.53"/>
<polygon fill="midnightblue" stroke="midnightblue" points="1302.26,-93.32 1291.74,-92.07 1299.18,-99.61 1302.26,-93.32"/>
</g>
<!-- Node19&#45;&gt;Node15 -->
<g id="edge32" class="edge">
<title>Node19&#45;&gt;Node15</title>
<path fill="none" stroke="midnightblue" d="M1295.91,-201.46C1249.28,-194.09 1183.55,-181.93 1127.5,-165 1125.22,-164.31 1122.88,-163.52 1120.54,-162.68"/>
<polygon fill="midnightblue" stroke="midnightblue" points="1121.73,-159.39 1111.14,-159.03 1119.19,-165.91 1121.73,-159.39"/>
</g>
<!-- Node19&#45;&gt;Node16 -->
<g id="edge33" class="edge">
<title>Node19&#45;&gt;Node16</title>
<path fill="none" stroke="midnightblue" d="M1329.71,-201.48C1297.21,-191.14 1242.29,-173.66 1205.96,-162.1"/>
<polygon fill="midnightblue" stroke="midnightblue" points="1206.83,-158.71 1196.24,-159.01 1204.71,-165.38 1206.83,-158.71"/>
</g>
<!-- Node19&#45;&gt;Node17 -->
<g id="edge34" class="edge">
<title>Node19&#45;&gt;Node17</title>
<path fill="none" stroke="midnightblue" d="M1359.22,-201.48C1361.51,-194.32 1364.88,-183.75 1367.97,-174.08"/>
<polygon fill="midnightblue" stroke="midnightblue" points="1371.31,-175.11 1371.02,-164.52 1364.65,-172.98 1371.31,-175.11"/>
</g>
<!-- Node21 -->
<g id="node21" class="node">
<title>Node21</title>
<g id="a_node21"><a xlink:href="XercesParserLiaisonDefinitions_8hpp.html" target="_top" xlink:title=" ">
<polygon fill="none" stroke="black" points="217,-380.5 217,-410.5 408,-410.5 408,-380.5 217,-380.5"/>
<text text-anchor="start" x="225" y="-398.5" font-family="Helvetica,sans-Serif" font-size="10.00">xalanc/XercesParserLiaison</text>
<text text-anchor="middle" x="312.5" y="-387.5" font-family="Helvetica,sans-Serif" font-size="10.00">/XercesParserLiaisonDefinitions.hpp</text>
</a>
</g>
</g>
<!-- Node20&#45;&gt;Node21 -->
<g id="edge36" class="edge">
<title>Node20&#45;&gt;Node21</title>
<path fill="none" stroke="midnightblue" d="M181.74,-447.4C206.68,-437.69 240.03,-424.71 266.8,-414.29"/>
<polygon fill="midnightblue" stroke="midnightblue" points="268.28,-417.47 276.33,-410.58 265.75,-410.94 268.28,-417.47"/>
</g>
<!-- Node23 -->
<g id="node23" class="node">
<title>Node23</title>
<g id="a_node23"><a xlink:href="DOMSupport_8hpp.html" target="_top" xlink:title=" ">
<polygon fill="none" stroke="black" points="0,-386 0,-405 199,-405 199,-386 0,-386"/>
<text text-anchor="middle" x="99.5" y="-393" font-family="Helvetica,sans-Serif" font-size="10.00">xalanc/DOMSupport/DOMSupport.hpp</text>
</a>
</g>
</g>
<!-- Node20&#45;&gt;Node23 -->
<g id="edge39" class="edge">
<title>Node20&#45;&gt;Node23</title>
<path fill="none" stroke="midnightblue" d="M135.52,-447.4C128.49,-437.46 119.04,-424.11 111.58,-413.57"/>
<polygon fill="midnightblue" stroke="midnightblue" points="114.29,-411.34 105.65,-405.19 108.57,-415.38 114.29,-411.34"/>
</g>
<!-- Node21&#45;&gt;Node3 -->
<g id="edge37" class="edge">
<title>Node21&#45;&gt;Node3</title>
<path fill="none" stroke="midnightblue" d="M287.27,-380.47C273.62,-371.66 257.55,-359.11 247.5,-344 229.53,-316.98 228.5,-305.95 228.5,-273.5 228.5,-273.5 228.5,-273.5 228.5,-210 228.5,-135.68 448.76,-103.9 588.98,-91.2"/>
<polygon fill="midnightblue" stroke="midnightblue" points="589.7,-94.65 599.36,-90.28 589.09,-87.68 589.7,-94.65"/>
</g>
<!-- Node22 -->
<g id="node22" class="node">
<title>Node22</title>
<g id="a_node22"><a xlink:title=" ">
<polygon fill="none" stroke="#bfbfbf" points="256.5,-324.5 256.5,-343.5 408.5,-343.5 408.5,-324.5 256.5,-324.5"/>
<text text-anchor="middle" x="332.5" y="-331.5" font-family="Helvetica,sans-Serif" font-size="10.00">xercesc/util/XercesDefs.hpp</text>
</a>
</g>
</g>
<!-- Node21&#45;&gt;Node22 -->
<g id="edge38" class="edge">
<title>Node21&#45;&gt;Node22</title>
<path fill="none" stroke="midnightblue" d="M317.24,-380.4C319.97,-372.29 323.42,-362.01 326.36,-353.28"/>
<polygon fill="midnightblue" stroke="midnightblue" points="329.72,-354.25 329.59,-343.66 323.09,-352.02 329.72,-354.25"/>
</g>
<!-- Node24 -->
<g id="node24" class="node">
<title>Node24</title>
<g id="a_node24"><a xlink:href="DOMSupportDefinitions_8hpp.html" target="_top" xlink:title=" ">
<polygon fill="none" stroke="black" points="19.5,-257.5 19.5,-287.5 197.5,-287.5 197.5,-257.5 19.5,-257.5"/>
<text text-anchor="start" x="27.5" y="-275.5" font-family="Helvetica,sans-Serif" font-size="10.00">xalanc/DOMSupport/DOMSupport</text>
<text text-anchor="middle" x="108.5" y="-264.5" font-family="Helvetica,sans-Serif" font-size="10.00">Definitions.hpp</text>
</a>
</g>
</g>
<!-- Node23&#45;&gt;Node24 -->
<g id="edge40" class="edge">
<title>Node23&#45;&gt;Node24</title>
<path fill="none" stroke="midnightblue" d="M100.15,-385.8C101.5,-367.6 104.67,-324.98 106.69,-297.79"/>
<polygon fill="midnightblue" stroke="midnightblue" points="110.2,-297.77 107.46,-287.54 103.22,-297.25 110.2,-297.77"/>
</g>
<!-- Node24&#45;&gt;Node3 -->
<g id="edge41" class="edge">
<title>Node24&#45;&gt;Node3</title>
<path fill="none" stroke="midnightblue" d="M114.74,-257.12C128.18,-228.08 162.9,-162.77 214.5,-134 276.64,-99.36 465.48,-88.42 589.21,-85.01"/>
<polygon fill="midnightblue" stroke="midnightblue" points="589.58,-88.5 599.48,-84.74 589.4,-81.5 589.58,-88.5"/>
</g>
<!-- Node25&#45;&gt;Node7 -->
<g id="edge44" class="edge">
<title>Node25&#45;&gt;Node7</title>
<path fill="none" stroke="midnightblue" d="M635.23,-518.03C681.29,-510.16 740.99,-497.35 791.5,-478 899.83,-436.5 918.3,-407.33 1015.5,-344 1044.83,-324.89 1078.34,-302.24 1099.46,-287.87"/>
<polygon fill="midnightblue" stroke="midnightblue" points="1101.68,-290.6 1107.97,-282.08 1097.73,-284.82 1101.68,-290.6"/>
</g>
<!-- Node25&#45;&gt;Node21 -->
<g id="edge43" class="edge">
<title>Node25&#45;&gt;Node21</title>
<path fill="none" stroke="midnightblue" d="M515.75,-514.48C490.69,-505.72 459.38,-493.21 433.5,-478 414.71,-466.96 413.3,-459.58 395.5,-447 379.84,-435.93 361.72,-424.73 346.42,-415.7"/>
<polygon fill="midnightblue" stroke="midnightblue" points="348.17,-412.67 337.77,-410.66 344.64,-418.72 348.17,-412.67"/>
</g>
<!-- Node26 -->
<g id="node26" class="node">
<title>Node26</title>
<g id="a_node26"><a xlink:title=" ">
<polygon fill="none" stroke="#bfbfbf" points="624.5,-453 624.5,-472 782.5,-472 782.5,-453 624.5,-453"/>
<text text-anchor="middle" x="703.5" y="-460" font-family="Helvetica,sans-Serif" font-size="10.00">xercesc/sax/ErrorHandler.hpp</text>
</a>
</g>
</g>
<!-- Node25&#45;&gt;Node26 -->
<g id="edge45" class="edge">
<title>Node25&#45;&gt;Node26</title>
<path fill="none" stroke="midnightblue" d="M591.53,-514.4C616.51,-503.04 651.32,-487.22 675.46,-476.24"/>
<polygon fill="midnightblue" stroke="midnightblue" points="677.13,-479.33 684.78,-472.01 674.23,-472.96 677.13,-479.33"/>
</g>
<!-- Node27 -->
<g id="node27" class="node">
<title>Node27</title>
<g id="a_node27"><a xlink:href="XMLParserLiaison_8hpp.html" target="_top" xlink:title=" ">
<polygon fill="none" stroke="black" points="442.5,-447.5 442.5,-477.5 606.5,-477.5 606.5,-447.5 442.5,-447.5"/>
<text text-anchor="start" x="450.5" y="-465.5" font-family="Helvetica,sans-Serif" font-size="10.00">xalanc/XMLSupport/XMLParser</text>
<text text-anchor="middle" x="524.5" y="-454.5" font-family="Helvetica,sans-Serif" font-size="10.00">Liaison.hpp</text>
</a>
</g>
</g>
<!-- Node25&#45;&gt;Node27 -->
<g id="edge46" class="edge">
<title>Node25&#45;&gt;Node27</title>
<path fill="none" stroke="midnightblue" d="M552.69,-514.4C548.16,-506.22 542.35,-495.73 537.18,-486.39"/>
<polygon fill="midnightblue" stroke="midnightblue" points="540.2,-484.63 532.3,-477.58 534.08,-488.02 540.2,-484.63"/>
</g>
<!-- Node33 -->
<g id="node33" class="node">
<title>Node33</title>
<g id="a_node33"><a xlink:href="XercesWrapperTypes_8hpp.html" target="_top" xlink:title=" ">
<polygon fill="none" stroke="black" points="238,-447.5 238,-477.5 387,-477.5 387,-447.5 238,-447.5"/>
<text text-anchor="start" x="246" y="-465.5" font-family="Helvetica,sans-Serif" font-size="10.00">xalanc/XercesParserLiaison</text>
<text text-anchor="middle" x="312.5" y="-454.5" font-family="Helvetica,sans-Serif" font-size="10.00">/XercesWrapperTypes.hpp</text>
</a>
</g>
</g>
<!-- Node25&#45;&gt;Node33 -->
<g id="edge62" class="edge">
<title>Node25&#45;&gt;Node33</title>
<path fill="none" stroke="midnightblue" d="M506.99,-514.48C468.58,-504.41 416.66,-490.8 376.12,-480.17"/>
<polygon fill="midnightblue" stroke="midnightblue" points="376.9,-476.76 366.34,-477.61 375.12,-483.53 376.9,-476.76"/>
</g>
<!-- Node28 -->
<g id="node28" class="node">
<title>Node28</title>
<g id="a_node28"><a xlink:href="XMLSupportDefinitions_8hpp.html" target="_top" xlink:title=" ">
<polygon fill="none" stroke="black" points="274.5,-257.5 274.5,-287.5 446.5,-287.5 446.5,-257.5 274.5,-257.5"/>
<text text-anchor="start" x="282.5" y="-275.5" font-family="Helvetica,sans-Serif" font-size="10.00">xalanc/XMLSupport/XMLSupport</text>
<text text-anchor="middle" x="360.5" y="-264.5" font-family="Helvetica,sans-Serif" font-size="10.00">Definitions.hpp</text>
</a>
</g>
</g>
<!-- Node27&#45;&gt;Node28 -->
<g id="edge47" class="edge">
<title>Node27&#45;&gt;Node28</title>
<path fill="none" stroke="midnightblue" d="M514.67,-447.15C496.72,-421.35 456.82,-365.91 417.5,-324 407.72,-313.58 396.04,-302.95 385.8,-294.15"/>
<polygon fill="midnightblue" stroke="midnightblue" points="387.86,-291.31 377.97,-287.53 383.34,-296.66 387.86,-291.31"/>
</g>
<!-- Node29 -->
<g id="node29" class="node">
<title>Node29</title>
<g id="a_node29"><a xlink:href="XalanDOMString_8hpp.html" target="_top" xlink:title=" ">
<polygon fill="none" stroke="black" points="692.5,-386 692.5,-405 900.5,-405 900.5,-386 692.5,-386"/>
<text text-anchor="middle" x="796.5" y="-393" font-family="Helvetica,sans-Serif" font-size="10.00">xalanc/XalanDOM/XalanDOMString.hpp</text>
</a>
</g>
</g>
<!-- Node27&#45;&gt;Node29 -->
<g id="edge49" class="edge">
<title>Node27&#45;&gt;Node29</title>
<path fill="none" stroke="midnightblue" d="M583.19,-447.48C633.42,-435.47 704.73,-418.43 750.81,-407.42"/>
<polygon fill="midnightblue" stroke="midnightblue" points="751.9,-410.76 760.81,-405.03 750.27,-403.95 751.9,-410.76"/>
</g>
<!-- Node28&#45;&gt;Node3 -->
<g id="edge48" class="edge">
<title>Node28&#45;&gt;Node3</title>
<path fill="none" stroke="midnightblue" d="M366.59,-257.12C379.44,-228.67 412.16,-165.25 460.5,-134 498.54,-109.41 546.34,-96.51 589.39,-89.85"/>
<polygon fill="midnightblue" stroke="midnightblue" points="589.96,-93.3 599.35,-88.4 588.96,-86.37 589.96,-93.3"/>
</g>
<!-- Node29&#45;&gt;Node12 -->
<g id="edge59" class="edge">
<title>Node29&#45;&gt;Node12</title>
<path fill="none" stroke="midnightblue" d="M899.64,-385.99C932.64,-378.88 967.35,-366.25 993.5,-344 1025.64,-316.66 1003.12,-288.22 1031.5,-257 1044.31,-242.9 1062.61,-232.22 1078.57,-224.81"/>
<polygon fill="midnightblue" stroke="midnightblue" points="1080.38,-227.83 1088.13,-220.61 1077.57,-221.42 1080.38,-227.83"/>
</g>
<!-- Node29&#45;&gt;Node13 -->
<g id="edge52" class="edge">
<title>Node29&#45;&gt;Node13</title>
<path fill="none" stroke="midnightblue" d="M795.66,-385.74C792.64,-349 786.21,-205.9 860.5,-134 889.03,-106.39 1003.7,-92.15 1063.23,-86.49"/>
<polygon fill="midnightblue" stroke="midnightblue" points="1063.68,-89.97 1073.32,-85.57 1063.04,-83 1063.68,-89.97"/>
</g>
<!-- Node29&#45;&gt;Node17 -->
<g id="edge58" class="edge">
<title>Node29&#45;&gt;Node17</title>
<path fill="none" stroke="midnightblue" d="M870.42,-385.98C1025.08,-366.46 1374.24,-312.97 1443.5,-221 1457.59,-202.29 1436.84,-183.31 1414.66,-169.76"/>
<polygon fill="midnightblue" stroke="midnightblue" points="1416.24,-166.63 1405.83,-164.67 1412.74,-172.7 1416.24,-166.63"/>
</g>
<!-- Node30 -->
<g id="node30" class="node">
<title>Node30</title>
<g id="a_node30"><a xlink:href="XalanDOMDefinitions_8hpp.html" target="_top" xlink:title=" ">
<polygon fill="none" stroke="black" points="504.5,-263 504.5,-282 736.5,-282 736.5,-263 504.5,-263"/>
<text text-anchor="middle" x="620.5" y="-270" font-family="Helvetica,sans-Serif" font-size="10.00">xalanc/XalanDOM/XalanDOMDefinitions.hpp</text>
</a>
</g>
</g>
<!-- Node29&#45;&gt;Node30 -->
<g id="edge50" class="edge">
<title>Node29&#45;&gt;Node30</title>
<path fill="none" stroke="midnightblue" d="M791.15,-385.54C782.02,-370.89 762.09,-341.68 738.5,-324 715.07,-306.44 684.61,-293.6 660.5,-285.26"/>
<polygon fill="midnightblue" stroke="midnightblue" points="661.53,-281.91 650.94,-282.07 659.32,-288.56 661.53,-281.91"/>
</g>
<!-- Node31 -->
<g id="node31" class="node">
<title>Node31</title>
<g id="a_node31"><a xlink:href="STLHelper_8hpp.html" target="_top" xlink:title=" ">
<polygon fill="none" stroke="black" points="824.5,-324.5 824.5,-343.5 984.5,-343.5 984.5,-324.5 824.5,-324.5"/>
<text text-anchor="middle" x="904.5" y="-331.5" font-family="Helvetica,sans-Serif" font-size="10.00">xalanc/Include/STLHelper.hpp</text>
</a>
</g>
</g>
<!-- Node29&#45;&gt;Node31 -->
<g id="edge53" class="edge">
<title>Node29&#45;&gt;Node31</title>
<path fill="none" stroke="midnightblue" d="M811.97,-385.98C829.78,-376.17 859.24,-359.93 880.13,-348.42"/>
<polygon fill="midnightblue" stroke="midnightblue" points="881.99,-351.4 889.05,-343.51 878.61,-345.27 881.99,-351.4"/>
</g>
<!-- Node32 -->
<g id="node32" class="node">
<title>Node32</title>
<g id="a_node32"><a xlink:href="XalanDOMException_8hpp.html" target="_top" xlink:title=" ">
<polygon fill="none" stroke="black" points="503,-324.5 503,-343.5 730,-343.5 730,-324.5 503,-324.5"/>
<text text-anchor="middle" x="616.5" y="-331.5" font-family="Helvetica,sans-Serif" font-size="10.00">xalanc/XalanDOM/XalanDOMException.hpp</text>
</a>
</g>
</g>
<!-- Node29&#45;&gt;Node32 -->
<g id="edge60" class="edge">
<title>Node29&#45;&gt;Node32</title>
<path fill="none" stroke="midnightblue" d="M770.71,-385.98C739.57,-375.68 687.02,-358.31 652.05,-346.75"/>
<polygon fill="midnightblue" stroke="midnightblue" points="652.84,-343.32 642.24,-343.51 650.64,-349.97 652.84,-343.32"/>
</g>
<!-- Node30&#45;&gt;Node3 -->
<g id="edge51" class="edge">
<title>Node30&#45;&gt;Node3</title>
<path fill="none" stroke="midnightblue" d="M624.24,-262.93C636.78,-234.18 677.54,-140.74 694.73,-101.31"/>
<polygon fill="midnightblue" stroke="midnightblue" points="697.95,-102.68 698.74,-92.12 691.54,-99.88 697.95,-102.68"/>
</g>
<!-- Node31&#45;&gt;Node3 -->
<g id="edge54" class="edge">
<title>Node31&#45;&gt;Node3</title>
<path fill="none" stroke="midnightblue" d="M894.7,-324.45C884.88,-315.7 869.52,-301.49 857.5,-288 799.01,-222.36 738.58,-136.38 713.96,-100.44"/>
<polygon fill="midnightblue" stroke="midnightblue" points="716.77,-98.35 708.25,-92.05 710.99,-102.29 716.77,-98.35"/>
</g>
<!-- Node31&#45;&gt;Node7 -->
<g id="edge57" class="edge">
<title>Node31&#45;&gt;Node7</title>
<path fill="none" stroke="midnightblue" d="M935.45,-324.48C973.38,-314.03 1037.78,-296.29 1079.72,-284.73"/>
<polygon fill="midnightblue" stroke="midnightblue" points="1080.9,-288.04 1089.61,-282.01 1079.04,-281.29 1080.9,-288.04"/>
</g>
<!-- Node31&#45;&gt;Node9 -->
<g id="edge55" class="edge">
<title>Node31&#45;&gt;Node9</title>
<path fill="none" stroke="midnightblue" d="M897.36,-324.31C880.88,-303.14 842.79,-247.22 859.5,-201 864.3,-187.73 874.27,-175.49 883.3,-166.38"/>
<polygon fill="midnightblue" stroke="midnightblue" points="885.98,-168.66 890.83,-159.24 881.16,-163.58 885.98,-168.66"/>
</g>
<!-- Node31&#45;&gt;Node10 -->
<g id="edge56" class="edge">
<title>Node31&#45;&gt;Node10</title>
<path fill="none" stroke="midnightblue" d="M904.28,-324.3C903.8,-304.85 902.63,-257.49 901.97,-230.9"/>
<polygon fill="midnightblue" stroke="midnightblue" points="905.46,-230.53 901.71,-220.62 898.46,-230.71 905.46,-230.53"/>
</g>
<!-- Node32&#45;&gt;Node30 -->
<g id="edge61" class="edge">
<title>Node32&#45;&gt;Node30</title>
<path fill="none" stroke="midnightblue" d="M617.07,-324.48C617.64,-316.08 618.52,-302.98 619.25,-292.16"/>
<polygon fill="midnightblue" stroke="midnightblue" points="622.75,-292.22 619.93,-282.01 615.76,-291.75 622.75,-292.22"/>
</g>
<!-- Node33&#45;&gt;Node21 -->
<g id="edge63" class="edge">
<title>Node33&#45;&gt;Node21</title>
<path fill="none" stroke="midnightblue" d="M312.5,-447.4C312.5,-439.64 312.5,-429.81 312.5,-420.86"/>
<polygon fill="midnightblue" stroke="midnightblue" points="316,-420.58 312.5,-410.58 309,-420.58 316,-420.58"/>
</g>
</g>
</svg>
