<?xml version="1.0" encoding="UTF-8" standalone="no"?>
<!DOCTYPE svg PUBLIC "-//W3C//DTD SVG 1.1//EN"
 "http://www.w3.org/Graphics/SVG/1.1/DTD/svg11.dtd">
<!-- Generated by graphviz version 2.38.0 (20140413.2041)
 -->
<!-- Title: xalanc/PlatformSupport/XalanToXercesTranscoderWrapper.hpp Pages: 1 -->
<svg width="1218pt" height="743pt"
 viewBox="0.00 0.00 1218.00 743.00" xmlns="http://www.w3.org/2000/svg" xmlns:xlink="http://www.w3.org/1999/xlink">
<g id="graph0" class="graph" transform="scale(1 1) rotate(0) translate(4 739)">
<title>xalanc/PlatformSupport/XalanToXercesTranscoderWrapper.hpp</title>
<!-- Node1 -->
<g id="node1" class="node"><title>Node1</title>
<g id="a_node1"><a xlink:title=" ">
<polygon fill="#bfbfbf" stroke="black" points="0,-704.5 0,-734.5 186,-734.5 186,-704.5 0,-704.5"/>
<text text-anchor="start" x="8" y="-722.5" font-family="Helvetica,sans-Serif" font-size="10.00">xalanc/PlatformSupport</text>
<text text-anchor="middle" x="93" y="-711.5" font-family="Helvetica,sans-Serif" font-size="10.00">/XalanToXercesTranscoderWrapper.hpp</text>
</a>
</g>
</g>
<!-- Node2 -->
<g id="node2" class="node"><title>Node2</title>
<g id="a_node2"><a xlink:href="PlatformSupportDefinitions_8hpp.html" target="_top" xlink:title=" ">
<polygon fill="none" stroke="black" points="147.5,-369.5 147.5,-399.5 300.5,-399.5 300.5,-369.5 147.5,-369.5"/>
<text text-anchor="start" x="155.5" y="-387.5" font-family="Helvetica,sans-Serif" font-size="10.00">xalanc/PlatformSupport</text>
<text text-anchor="middle" x="224" y="-376.5" font-family="Helvetica,sans-Serif" font-size="10.00">/PlatformSupportDefinitions.hpp</text>
</a>
</g>
</g>
<!-- Node1&#45;&gt;Node2 -->
<g id="edge1" class="edge"><title>Node1&#45;&gt;Node2</title>
<path fill="none" stroke="midnightblue" d="M74.5848,-704.487C47.9943,-682.504 2,-637.159 2,-586.5 2,-586.5 2,-586.5 2,-517.5 2,-451.634 75.0915,-417.895 137.395,-401.101"/>
<polygon fill="midnightblue" stroke="midnightblue" points="138.481,-404.435 147.289,-398.548 136.732,-397.657 138.481,-404.435"/>
</g>
<!-- Node7 -->
<g id="node7" class="node"><title>Node7</title>
<g id="a_node7"><a xlink:href="XalanTranscodingServices_8hpp.html" target="_top" xlink:title=" ">
<polygon fill="none" stroke="black" points="109.5,-637.5 109.5,-667.5 260.5,-667.5 260.5,-637.5 109.5,-637.5"/>
<text text-anchor="start" x="117.5" y="-655.5" font-family="Helvetica,sans-Serif" font-size="10.00">xalanc/PlatformSupport</text>
<text text-anchor="middle" x="185" y="-644.5" font-family="Helvetica,sans-Serif" font-size="10.00">/XalanTranscodingServices.hpp</text>
</a>
</g>
</g>
<!-- Node1&#45;&gt;Node7 -->
<g id="edge6" class="edge"><title>Node1&#45;&gt;Node7</title>
<path fill="none" stroke="midnightblue" d="M112.963,-704.396C125.742,-695.367 142.519,-683.514 156.666,-673.518"/>
<polygon fill="midnightblue" stroke="midnightblue" points="158.929,-676.205 165.076,-667.577 154.889,-670.488 158.929,-676.205"/>
</g>
<!-- Node3 -->
<g id="node3" class="node"><title>Node3</title>
<g id="a_node3"><a xlink:href="PlatformDefinitions_8hpp.html" target="_top" xlink:title=" ">
<polygon fill="none" stroke="black" points="247,-73 247,-92 429,-92 429,-73 247,-73"/>
<text text-anchor="middle" x="338" y="-80" font-family="Helvetica,sans-Serif" font-size="10.00">xalanc/Include/PlatformDefinitions.hpp</text>
</a>
</g>
</g>
<!-- Node2&#45;&gt;Node3 -->
<g id="edge2" class="edge"><title>Node2&#45;&gt;Node3</title>
<path fill="none" stroke="midnightblue" d="M224,-369.275C224,-347.476 224,-304.495 224,-268 224,-268 224,-268 224,-210 224,-157.575 278.699,-117.081 312.318,-97.1442"/>
<polygon fill="midnightblue" stroke="midnightblue" points="314.238,-100.078 321.179,-92.0732 310.761,-94.0028 314.238,-100.078"/>
</g>
<!-- Node4 -->
<g id="node4" class="node"><title>Node4</title>
<g id="a_node4"><a xlink:title=" ">
<polygon fill="none" stroke="#bfbfbf" points="136,-0.5 136,-30.5 244,-30.5 244,-0.5 136,-0.5"/>
<text text-anchor="start" x="144" y="-18.5" font-family="Helvetica,sans-Serif" font-size="10.00">xercesc/util/Xerces</text>
<text text-anchor="middle" x="190" y="-7.5" font-family="Helvetica,sans-Serif" font-size="10.00">_autoconf_config.hpp</text>
</a>
</g>
</g>
<!-- Node3&#45;&gt;Node4 -->
<g id="edge3" class="edge"><title>Node3&#45;&gt;Node4</title>
<path fill="none" stroke="midnightblue" d="M318.347,-72.8685C296.235,-63.1572 259.695,-47.1092 231.246,-34.6148"/>
<polygon fill="midnightblue" stroke="midnightblue" points="232.504,-31.3447 221.941,-30.5281 229.689,-37.7539 232.504,-31.3447"/>
</g>
<!-- Node5 -->
<g id="node5" class="node"><title>Node5</title>
<g id="a_node5"><a xlink:title=" ">
<polygon fill="none" stroke="#bfbfbf" points="262.5,-6 262.5,-25 413.5,-25 413.5,-6 262.5,-6"/>
<text text-anchor="middle" x="338" y="-13" font-family="Helvetica,sans-Serif" font-size="10.00">xercesc/util/XercesVersion.hpp</text>
</a>
</g>
</g>
<!-- Node3&#45;&gt;Node5 -->
<g id="edge4" class="edge"><title>Node3&#45;&gt;Node5</title>
<path fill="none" stroke="midnightblue" d="M338,-72.7338C338,-63.1826 338,-47.6183 338,-35.2829"/>
<polygon fill="midnightblue" stroke="midnightblue" points="341.5,-35.1273 338,-25.1273 334.5,-35.1273 341.5,-35.1273"/>
</g>
<!-- Node6 -->
<g id="node6" class="node"><title>Node6</title>
<g id="a_node6"><a xlink:href="XalanVersion_8hpp.html" target="_top" xlink:title=" ">
<polygon fill="none" stroke="black" points="432,-6 432,-25 524,-25 524,-6 432,-6"/>
<text text-anchor="middle" x="478" y="-13" font-family="Helvetica,sans-Serif" font-size="10.00">XalanVersion.hpp</text>
</a>
</g>
</g>
<!-- Node3&#45;&gt;Node6 -->
<g id="edge5" class="edge"><title>Node3&#45;&gt;Node6</title>
<path fill="none" stroke="midnightblue" d="M356.591,-72.8685C380.544,-61.7476 422.395,-42.3167 450.154,-29.4286"/>
<polygon fill="midnightblue" stroke="midnightblue" points="451.736,-32.5529 459.332,-25.1672 448.788,-26.2038 451.736,-32.5529"/>
</g>
<!-- Node7&#45;&gt;Node2 -->
<g id="edge7" class="edge"><title>Node7&#45;&gt;Node2</title>
<path fill="none" stroke="midnightblue" d="M156.261,-637.495C142.004,-628.986 125.957,-616.714 117,-601 80.6831,-537.285 73.2448,-496.292 115,-436 125.025,-421.524 140.294,-411.104 156.257,-403.638"/>
<polygon fill="midnightblue" stroke="midnightblue" points="157.898,-406.742 165.701,-399.576 155.132,-400.312 157.898,-406.742"/>
</g>
<!-- Node8 -->
<g id="node8" class="node"><title>Node8</title>
<g id="a_node8"><a xlink:title=" ">
<polygon fill="none" stroke="#bfbfbf" points="1012.5,-73 1012.5,-92 1061.5,-92 1061.5,-73 1012.5,-73"/>
<text text-anchor="middle" x="1037" y="-80" font-family="Helvetica,sans-Serif" font-size="10.00">cassert</text>
</a>
</g>
</g>
<!-- Node7&#45;&gt;Node8 -->
<g id="edge8" class="edge"><title>Node7&#45;&gt;Node8</title>
<path fill="none" stroke="midnightblue" d="M260.787,-649.7C497.916,-643.075 1210,-615.21 1210,-519.5 1210,-519.5 1210,-519.5 1210,-210 1210,-142.122 1122.14,-106.746 1071.65,-92.0194"/>
<polygon fill="midnightblue" stroke="midnightblue" points="1072.36,-88.5837 1061.79,-89.2658 1070.48,-95.3259 1072.36,-88.5837"/>
</g>
<!-- Node9 -->
<g id="node9" class="node"><title>Node9</title>
<g id="a_node9"><a xlink:href="DOMStringHelper_8hpp.html" target="_top" xlink:title=" ">
<polygon fill="none" stroke="black" points="721,-503.5 721,-533.5 839,-533.5 839,-503.5 721,-503.5"/>
<text text-anchor="start" x="729" y="-521.5" font-family="Helvetica,sans-Serif" font-size="10.00">xalanc/PlatformSupport</text>
<text text-anchor="middle" x="780" y="-510.5" font-family="Helvetica,sans-Serif" font-size="10.00">/DOMStringHelper.hpp</text>
</a>
</g>
</g>
<!-- Node7&#45;&gt;Node9 -->
<g id="edge9" class="edge"><title>Node7&#45;&gt;Node9</title>
<path fill="none" stroke="midnightblue" d="M248.112,-637.499C360.434,-612.58 594.15,-560.731 710.741,-534.865"/>
<polygon fill="midnightblue" stroke="midnightblue" points="711.626,-538.254 720.631,-532.671 710.11,-531.42 711.626,-538.254"/>
</g>
<!-- Node31 -->
<g id="node31" class="node"><title>Node31</title>
<g id="a_node31"><a xlink:href="XSLException_8hpp.html" target="_top" xlink:title=" ">
<polygon fill="none" stroke="black" points="126,-570.5 126,-600.5 244,-600.5 244,-570.5 126,-570.5"/>
<text text-anchor="start" x="134" y="-588.5" font-family="Helvetica,sans-Serif" font-size="10.00">xalanc/PlatformSupport</text>
<text text-anchor="middle" x="185" y="-577.5" font-family="Helvetica,sans-Serif" font-size="10.00">/XSLException.hpp</text>
</a>
</g>
</g>
<!-- Node7&#45;&gt;Node31 -->
<g id="edge68" class="edge"><title>Node7&#45;&gt;Node31</title>
<path fill="none" stroke="midnightblue" d="M185,-637.396C185,-629.645 185,-619.812 185,-610.86"/>
<polygon fill="midnightblue" stroke="midnightblue" points="188.5,-610.576 185,-600.577 181.5,-610.577 188.5,-610.576"/>
</g>
<!-- Node9&#45;&gt;Node2 -->
<g id="edge10" class="edge"><title>Node9&#45;&gt;Node2</title>
<path fill="none" stroke="midnightblue" d="M720.899,-507.353C682.867,-499.456 633.057,-486.506 592,-467 570.72,-456.89 570.796,-444.944 549,-436 527.287,-427.09 399.41,-408.795 310.691,-396.845"/>
<polygon fill="midnightblue" stroke="midnightblue" points="310.993,-393.354 300.616,-395.492 310.062,-400.292 310.993,-393.354"/>
</g>
<!-- Node9&#45;&gt;Node8 -->
<g id="edge12" class="edge"><title>Node9&#45;&gt;Node8</title>
<path fill="none" stroke="midnightblue" d="M839.085,-514.008C922.094,-508.19 1068.12,-494.35 1113,-467 1151.18,-443.728 1172,-430.217 1172,-385.5 1172,-385.5 1172,-385.5 1172,-210 1172,-153.474 1108.2,-114.883 1068.32,-96.2816"/>
<polygon fill="midnightblue" stroke="midnightblue" points="1069.55,-92.9964 1058.99,-92.0893 1066.68,-99.3812 1069.55,-92.9964"/>
</g>
<!-- Node10 -->
<g id="node10" class="node"><title>Node10</title>
<g id="a_node10"><a xlink:title=" ">
<polygon fill="none" stroke="#bfbfbf" points="1009,-140 1009,-159 1065,-159 1065,-140 1009,-140"/>
<text text-anchor="middle" x="1037" y="-147" font-family="Helvetica,sans-Serif" font-size="10.00">algorithm</text>
</a>
</g>
</g>
<!-- Node9&#45;&gt;Node10 -->
<g id="edge11" class="edge"><title>Node9&#45;&gt;Node10</title>
<path fill="none" stroke="midnightblue" d="M839.036,-513.221C915.081,-506.764 1042.11,-492.49 1081,-467 1117.14,-443.313 1134,-428.708 1134,-385.5 1134,-385.5 1134,-385.5 1134,-266 1134,-220.634 1089.57,-183.772 1060.85,-164.682"/>
<polygon fill="midnightblue" stroke="midnightblue" points="1062.47,-161.559 1052.16,-159.12 1058.7,-167.456 1062.47,-161.559"/>
</g>
<!-- Node11 -->
<g id="node11" class="node"><title>Node11</title>
<g id="a_node11"><a xlink:title=" ">
<polygon fill="none" stroke="#bfbfbf" points="972,-201.5 972,-220.5 1030,-220.5 1030,-201.5 972,-201.5"/>
<text text-anchor="middle" x="1001" y="-208.5" font-family="Helvetica,sans-Serif" font-size="10.00">functional</text>
</a>
</g>
</g>
<!-- Node9&#45;&gt;Node11 -->
<g id="edge13" class="edge"><title>Node9&#45;&gt;Node11</title>
<path fill="none" stroke="midnightblue" d="M839.297,-514.905C920.943,-507.787 1058,-481.537 1058,-385.5 1058,-385.5 1058,-385.5 1058,-322 1058,-285.3 1032.68,-248.657 1015.79,-228.297"/>
<polygon fill="midnightblue" stroke="midnightblue" points="1018.35,-225.904 1009.17,-220.616 1013.05,-230.475 1018.35,-225.904"/>
</g>
<!-- Node12 -->
<g id="node12" class="node"><title>Node12</title>
<g id="a_node12"><a xlink:title=" ">
<polygon fill="none" stroke="#bfbfbf" points="846,-442 846,-461 890,-461 890,-442 846,-442"/>
<text text-anchor="middle" x="868" y="-449" font-family="Helvetica,sans-Serif" font-size="10.00">iosfwd</text>
</a>
</g>
</g>
<!-- Node9&#45;&gt;Node12 -->
<g id="edge14" class="edge"><title>Node9&#45;&gt;Node12</title>
<path fill="none" stroke="midnightblue" d="M799.095,-503.396C813.579,-492.697 833.432,-478.033 848.108,-467.193"/>
<polygon fill="midnightblue" stroke="midnightblue" points="850.519,-469.764 856.483,-461.007 846.36,-464.133 850.519,-469.764"/>
</g>
<!-- Node13 -->
<g id="node13" class="node"><title>Node13</title>
<g id="a_node13"><a xlink:href="XalanVector_8hpp.html" target="_top" xlink:title=" ">
<polygon fill="none" stroke="black" points="434,-201.5 434,-220.5 586,-220.5 586,-201.5 434,-201.5"/>
<text text-anchor="middle" x="510" y="-208.5" font-family="Helvetica,sans-Serif" font-size="10.00">xalanc/Include/XalanVector.hpp</text>
</a>
</g>
</g>
<!-- Node9&#45;&gt;Node13 -->
<g id="edge15" class="edge"><title>Node9&#45;&gt;Node13</title>
<path fill="none" stroke="midnightblue" d="M721.025,-503.45C691.245,-495.088 655.137,-482.964 625,-467 605.125,-456.472 605.469,-445.321 585,-436 509.958,-401.829 474.473,-441.117 403,-400 368.607,-380.215 358.014,-370.12 344,-333 332.069,-301.399 323.477,-283.828 344,-257 356,-241.313 399.926,-229.822 439.577,-222.38"/>
<polygon fill="midnightblue" stroke="midnightblue" points="440.328,-225.801 449.544,-220.575 439.081,-218.913 440.328,-225.801"/>
</g>
<!-- Node18 -->
<g id="node18" class="node"><title>Node18</title>
<g id="a_node18"><a xlink:href="XalanMemoryManagement_8hpp.html" target="_top" xlink:title=" ">
<polygon fill="none" stroke="black" points="699,-134.5 699,-164.5 839,-164.5 839,-134.5 699,-134.5"/>
<text text-anchor="start" x="707" y="-152.5" font-family="Helvetica,sans-Serif" font-size="10.00">xalanc/Include/XalanMemory</text>
<text text-anchor="middle" x="769" y="-141.5" font-family="Helvetica,sans-Serif" font-size="10.00">Management.hpp</text>
</a>
</g>
</g>
<!-- Node9&#45;&gt;Node18 -->
<g id="edge45" class="edge"><title>Node9&#45;&gt;Node18</title>
<path fill="none" stroke="midnightblue" d="M839.066,-518.064C930.528,-515.5 1096,-495.641 1096,-385.5 1096,-385.5 1096,-385.5 1096,-266 1096,-227.577 1072.38,-220.021 1039,-201 980.978,-167.941 905.644,-155.939 849.299,-151.848"/>
<polygon fill="midnightblue" stroke="midnightblue" points="849.215,-148.335 839.008,-151.173 848.757,-155.32 849.215,-148.335"/>
</g>
<!-- Node20 -->
<g id="node20" class="node"><title>Node20</title>
<g id="a_node20"><a xlink:href="XalanMap_8hpp.html" target="_top" xlink:title=" ">
<polygon fill="none" stroke="black" points="748.5,-257.5 748.5,-276.5 891.5,-276.5 891.5,-257.5 748.5,-257.5"/>
<text text-anchor="middle" x="820" y="-264.5" font-family="Helvetica,sans-Serif" font-size="10.00">xalanc/Include/XalanMap.hpp</text>
</a>
</g>
</g>
<!-- Node9&#45;&gt;Node20 -->
<g id="edge29" class="edge"><title>Node9&#45;&gt;Node20</title>
<path fill="none" stroke="midnightblue" d="M782.265,-503.371C789.058,-460.998 809.265,-334.958 816.97,-286.901"/>
<polygon fill="midnightblue" stroke="midnightblue" points="820.441,-287.358 818.568,-276.93 813.529,-286.25 820.441,-287.358"/>
</g>
<!-- Node23 -->
<g id="node23" class="node"><title>Node23</title>
<g id="a_node23"><a xlink:href="STLHelper_8hpp.html" target="_top" xlink:title=" ">
<polygon fill="none" stroke="black" points="884,-313.5 884,-332.5 1030,-332.5 1030,-313.5 884,-313.5"/>
<text text-anchor="middle" x="957" y="-320.5" font-family="Helvetica,sans-Serif" font-size="10.00">xalanc/Include/STLHelper.hpp</text>
</a>
</g>
</g>
<!-- Node9&#45;&gt;Node23 -->
<g id="edge46" class="edge"><title>Node9&#45;&gt;Node23</title>
<path fill="none" stroke="midnightblue" d="M836.893,-503.487C858.604,-495.746 882.156,-484.116 899,-467 933.825,-431.612 948.625,-372.519 954.142,-342.588"/>
<polygon fill="midnightblue" stroke="midnightblue" points="957.605,-343.099 955.824,-332.655 950.703,-341.93 957.605,-343.099"/>
</g>
<!-- Node24 -->
<g id="node24" class="node"><title>Node24</title>
<g id="a_node24"><a xlink:href="XalanDOMString_8hpp.html" target="_top" xlink:title=" ">
<polygon fill="none" stroke="black" points="599.5,-375 599.5,-394 786.5,-394 786.5,-375 599.5,-375"/>
<text text-anchor="middle" x="693" y="-382" font-family="Helvetica,sans-Serif" font-size="10.00">xalanc/XalanDOM/XalanDOMString.hpp</text>
</a>
</g>
</g>
<!-- Node9&#45;&gt;Node24 -->
<g id="edge51" class="edge"><title>Node9&#45;&gt;Node24</title>
<path fill="none" stroke="midnightblue" d="M779.614,-503.382C778.526,-486.159 774.626,-456.774 761,-436 750.811,-420.467 734.12,-407.967 719.824,-399.288"/>
<polygon fill="midnightblue" stroke="midnightblue" points="721.282,-396.09 710.868,-394.144 717.796,-402.16 721.282,-396.09"/>
</g>
<!-- Node27 -->
<g id="node27" class="node"><title>Node27</title>
<g id="a_node27"><a xlink:href="FormatterListener_8hpp.html" target="_top" xlink:title=" ">
<polygon fill="none" stroke="black" points="634,-436.5 634,-466.5 752,-466.5 752,-436.5 634,-436.5"/>
<text text-anchor="start" x="642" y="-454.5" font-family="Helvetica,sans-Serif" font-size="10.00">xalanc/PlatformSupport</text>
<text text-anchor="middle" x="693" y="-443.5" font-family="Helvetica,sans-Serif" font-size="10.00">/FormatterListener.hpp</text>
</a>
</g>
</g>
<!-- Node9&#45;&gt;Node27 -->
<g id="edge60" class="edge"><title>Node9&#45;&gt;Node27</title>
<path fill="none" stroke="midnightblue" d="M761.122,-503.396C749.152,-494.452 733.472,-482.737 720.173,-472.802"/>
<polygon fill="midnightblue" stroke="midnightblue" points="721.947,-469.758 711.841,-466.577 717.757,-475.366 721.947,-469.758"/>
</g>
<!-- Node29 -->
<g id="node29" class="node"><title>Node29</title>
<g id="a_node29"><a xlink:href="XalanUnicode_8hpp.html" target="_top" xlink:title=" ">
<polygon fill="none" stroke="black" points="286,-436.5 286,-466.5 404,-466.5 404,-436.5 286,-436.5"/>
<text text-anchor="start" x="294" y="-454.5" font-family="Helvetica,sans-Serif" font-size="10.00">xalanc/PlatformSupport</text>
<text text-anchor="middle" x="345" y="-443.5" font-family="Helvetica,sans-Serif" font-size="10.00">/XalanUnicode.hpp</text>
</a>
</g>
</g>
<!-- Node9&#45;&gt;Node29 -->
<g id="edge64" class="edge"><title>Node9&#45;&gt;Node29</title>
<path fill="none" stroke="midnightblue" d="M720.998,-510.733C650.373,-502.332 528.33,-486.857 414.242,-467.144"/>
<polygon fill="midnightblue" stroke="midnightblue" points="414.741,-463.679 404.288,-465.41 413.539,-470.575 414.741,-463.679"/>
</g>
<!-- Node30 -->
<g id="node30" class="node"><title>Node30</title>
<g id="a_node30"><a xlink:href="XalanXMLChar_8hpp.html" target="_top" xlink:title=" ">
<polygon fill="none" stroke="black" points="422,-436.5 422,-466.5 540,-466.5 540,-436.5 422,-436.5"/>
<text text-anchor="start" x="430" y="-454.5" font-family="Helvetica,sans-Serif" font-size="10.00">xalanc/PlatformSupport</text>
<text text-anchor="middle" x="481" y="-443.5" font-family="Helvetica,sans-Serif" font-size="10.00">/XalanXMLChar.hpp</text>
</a>
</g>
</g>
<!-- Node9&#45;&gt;Node30 -->
<g id="edge66" class="edge"><title>Node9&#45;&gt;Node30</title>
<path fill="none" stroke="midnightblue" d="M720.927,-504.658C671.864,-493.992 601.988,-478.802 550.291,-467.563"/>
<polygon fill="midnightblue" stroke="midnightblue" points="550.721,-464.075 540.205,-465.371 549.234,-470.915 550.721,-464.075"/>
</g>
<!-- Node13&#45;&gt;Node3 -->
<g id="edge16" class="edge"><title>Node13&#45;&gt;Node3</title>
<path fill="none" stroke="midnightblue" d="M491.935,-201.428C475.05,-193.082 449.443,-179.556 429,-165 400.384,-144.625 370.704,-116.499 353.315,-99.1802"/>
<polygon fill="midnightblue" stroke="midnightblue" points="355.767,-96.6824 346.239,-92.0503 350.799,-101.614 355.767,-96.6824"/>
</g>
<!-- Node13&#45;&gt;Node8 -->
<g id="edge19" class="edge"><title>Node13&#45;&gt;Node8</title>
<path fill="none" stroke="midnightblue" d="M586.122,-202.321C670.261,-193.399 800.214,-178.212 848,-165 909.389,-148.027 976.915,-115.18 1012.27,-96.7919"/>
<polygon fill="midnightblue" stroke="midnightblue" points="1014.14,-99.7656 1021.36,-92.0141 1010.88,-93.5697 1014.14,-99.7656"/>
</g>
<!-- Node13&#45;&gt;Node10 -->
<g id="edge18" class="edge"><title>Node13&#45;&gt;Node10</title>
<path fill="none" stroke="midnightblue" d="M586.147,-204.177C675.286,-196.935 827.245,-183.261 957,-165 970.676,-163.075 985.584,-160.504 998.785,-158.061"/>
<polygon fill="midnightblue" stroke="midnightblue" points="999.772,-161.437 1008.95,-156.144 998.474,-154.558 999.772,-161.437"/>
</g>
<!-- Node14 -->
<g id="node14" class="node"><title>Node14</title>
<g id="a_node14"><a xlink:title=" ">
<polygon fill="none" stroke="#bfbfbf" points="849,-73 849,-92 897,-92 897,-73 849,-73"/>
<text text-anchor="middle" x="873" y="-80" font-family="Helvetica,sans-Serif" font-size="10.00">cstddef</text>
</a>
</g>
</g>
<!-- Node13&#45;&gt;Node14 -->
<g id="edge17" class="edge"><title>Node13&#45;&gt;Node14</title>
<path fill="none" stroke="midnightblue" d="M499.515,-201.374C482.401,-186.292 452.17,-154.762 471,-134 526.201,-73.1356 759.393,-118.354 839,-98 841.361,-97.3965 843.769,-96.653 846.159,-95.8243"/>
<polygon fill="midnightblue" stroke="midnightblue" points="847.678,-98.9881 855.71,-92.079 845.123,-92.4712 847.678,-98.9881"/>
</g>
<!-- Node15 -->
<g id="node15" class="node"><title>Node15</title>
<g id="a_node15"><a xlink:title=" ">
<polygon fill="none" stroke="#bfbfbf" points="641,-73 641,-92 675,-92 675,-73 641,-73"/>
<text text-anchor="middle" x="658" y="-80" font-family="Helvetica,sans-Serif" font-size="10.00">new</text>
</a>
</g>
</g>
<!-- Node13&#45;&gt;Node15 -->
<g id="edge20" class="edge"><title>Node13&#45;&gt;Node15</title>
<path fill="none" stroke="midnightblue" d="M484.496,-201.472C468.013,-194.478 447.861,-182.792 438,-165 431.321,-152.949 429.416,-144.777 438,-134 461.811,-104.104 577.064,-90.4475 630.585,-85.6401"/>
<polygon fill="midnightblue" stroke="midnightblue" points="631.053,-89.1128 640.717,-84.7701 630.454,-82.1385 631.053,-89.1128"/>
</g>
<!-- Node16 -->
<g id="node16" class="node"><title>Node16</title>
<g id="a_node16"><a xlink:title=" ">
<polygon fill="none" stroke="#bfbfbf" points="557.5,-140 557.5,-159 604.5,-159 604.5,-140 557.5,-140"/>
<text text-anchor="middle" x="581" y="-147" font-family="Helvetica,sans-Serif" font-size="10.00">iterator</text>
</a>
</g>
</g>
<!-- Node13&#45;&gt;Node16 -->
<g id="edge21" class="edge"><title>Node13&#45;&gt;Node16</title>
<path fill="none" stroke="midnightblue" d="M520.173,-201.475C531.35,-192.108 549.517,-176.884 563.091,-165.508"/>
<polygon fill="midnightblue" stroke="midnightblue" points="565.43,-168.115 570.846,-159.009 560.934,-162.75 565.43,-168.115"/>
</g>
<!-- Node17 -->
<g id="node17" class="node"><title>Node17</title>
<g id="a_node17"><a xlink:title=" ">
<polygon fill="none" stroke="#bfbfbf" points="480.5,-140 480.5,-159 539.5,-159 539.5,-140 480.5,-140"/>
<text text-anchor="middle" x="510" y="-147" font-family="Helvetica,sans-Serif" font-size="10.00">stdexcept</text>
</a>
</g>
</g>
<!-- Node13&#45;&gt;Node17 -->
<g id="edge22" class="edge"><title>Node13&#45;&gt;Node17</title>
<path fill="none" stroke="midnightblue" d="M510,-201.475C510,-193.08 510,-179.981 510,-169.163"/>
<polygon fill="midnightblue" stroke="midnightblue" points="513.5,-169.009 510,-159.009 506.5,-169.009 513.5,-169.009"/>
</g>
<!-- Node13&#45;&gt;Node18 -->
<g id="edge23" class="edge"><title>Node13&#45;&gt;Node18</title>
<path fill="none" stroke="midnightblue" d="M547.108,-201.475C586.366,-192.456 649.261,-178.008 698.081,-166.792"/>
<polygon fill="midnightblue" stroke="midnightblue" points="698.996,-170.173 707.959,-164.523 697.429,-163.351 698.996,-170.173"/>
</g>
<!-- Node18&#45;&gt;Node3 -->
<g id="edge24" class="edge"><title>Node18&#45;&gt;Node3</title>
<path fill="none" stroke="midnightblue" d="M698.793,-137.912C617.358,-125.631 484.11,-105.535 404.354,-93.5069"/>
<polygon fill="midnightblue" stroke="midnightblue" points="404.832,-90.0396 394.422,-92.0091 403.788,-96.9613 404.832,-90.0396"/>
</g>
<!-- Node18&#45;&gt;Node8 -->
<g id="edge25" class="edge"><title>Node18&#45;&gt;Node8</title>
<path fill="none" stroke="midnightblue" d="M826.822,-134.476C880.356,-121.492 958.179,-102.617 1002.57,-91.8515"/>
<polygon fill="midnightblue" stroke="midnightblue" points="1003.41,-95.2485 1012.3,-89.49 1001.76,-88.4458 1003.41,-95.2485"/>
</g>
<!-- Node18&#45;&gt;Node14 -->
<g id="edge26" class="edge"><title>Node18&#45;&gt;Node14</title>
<path fill="none" stroke="midnightblue" d="M791.566,-134.396C809.007,-123.496 833.034,-108.479 850.466,-97.5835"/>
<polygon fill="midnightblue" stroke="midnightblue" points="852.764,-100.275 859.389,-92.007 849.054,-94.339 852.764,-100.275"/>
</g>
<!-- Node18&#45;&gt;Node15 -->
<g id="edge27" class="edge"><title>Node18&#45;&gt;Node15</title>
<path fill="none" stroke="midnightblue" d="M744.915,-134.396C726.042,-123.344 699.942,-108.061 681.279,-97.1319"/>
<polygon fill="midnightblue" stroke="midnightblue" points="682.925,-94.04 672.527,-92.007 679.388,-100.081 682.925,-94.04"/>
</g>
<!-- Node19 -->
<g id="node19" class="node"><title>Node19</title>
<g id="a_node19"><a xlink:title=" ">
<polygon fill="none" stroke="#bfbfbf" points="693.5,-67.5 693.5,-97.5 830.5,-97.5 830.5,-67.5 693.5,-67.5"/>
<text text-anchor="start" x="701.5" y="-85.5" font-family="Helvetica,sans-Serif" font-size="10.00">xercesc/framework/Memory</text>
<text text-anchor="middle" x="762" y="-74.5" font-family="Helvetica,sans-Serif" font-size="10.00">Manager.hpp</text>
</a>
</g>
</g>
<!-- Node18&#45;&gt;Node19 -->
<g id="edge28" class="edge"><title>Node18&#45;&gt;Node19</title>
<path fill="none" stroke="midnightblue" d="M767.481,-134.396C766.637,-126.56 765.564,-116.596 764.592,-107.565"/>
<polygon fill="midnightblue" stroke="midnightblue" points="768.067,-107.144 763.516,-97.5765 761.107,-107.894 768.067,-107.144"/>
</g>
<!-- Node20&#45;&gt;Node3 -->
<g id="edge30" class="edge"><title>Node20&#45;&gt;Node3</title>
<path fill="none" stroke="midnightblue" d="M748.384,-259.439C638.258,-249.123 438.535,-229.419 425,-221 380.137,-193.095 354.39,-132.572 343.773,-101.986"/>
<polygon fill="midnightblue" stroke="midnightblue" points="346.997,-100.587 340.538,-92.1882 340.349,-102.781 346.997,-100.587"/>
</g>
<!-- Node20&#45;&gt;Node10 -->
<g id="edge32" class="edge"><title>Node20&#45;&gt;Node10</title>
<path fill="none" stroke="midnightblue" d="M833.657,-257.373C854.225,-244.509 894.524,-219.801 930,-201 955.97,-187.237 986.336,-173.082 1008.07,-163.274"/>
<polygon fill="midnightblue" stroke="midnightblue" points="1009.71,-166.375 1017.4,-159.09 1006.85,-159.987 1009.71,-166.375"/>
</g>
<!-- Node20&#45;&gt;Node11 -->
<g id="edge33" class="edge"><title>Node20&#45;&gt;Node11</title>
<path fill="none" stroke="midnightblue" d="M848.68,-257.444C879.527,-248.241 928.728,-233.562 962.829,-223.388"/>
<polygon fill="midnightblue" stroke="midnightblue" points="963.872,-226.729 972.454,-220.516 961.871,-220.021 963.872,-226.729"/>
</g>
<!-- Node20&#45;&gt;Node13 -->
<g id="edge35" class="edge"><title>Node20&#45;&gt;Node13</title>
<path fill="none" stroke="midnightblue" d="M770.88,-257.444C716.121,-247.905 627.59,-232.483 569.089,-222.293"/>
<polygon fill="midnightblue" stroke="midnightblue" points="569.343,-218.785 558.891,-220.516 568.142,-225.681 569.343,-218.785"/>
</g>
<!-- Node20&#45;&gt;Node14 -->
<g id="edge31" class="edge"><title>Node20&#45;&gt;Node14</title>
<path fill="none" stroke="midnightblue" d="M826.316,-257.345C832.587,-248.505 842.22,-234.235 849,-221 861.191,-197.2 865.702,-191.211 871,-165 875.283,-143.809 875.167,-118.89 874.377,-102.237"/>
<polygon fill="midnightblue" stroke="midnightblue" points="877.865,-101.946 873.767,-92.1756 870.878,-102.369 877.865,-101.946"/>
</g>
<!-- Node21 -->
<g id="node21" class="node"><title>Node21</title>
<g id="a_node21"><a xlink:title=" ">
<polygon fill="none" stroke="#bfbfbf" points="800,-201.5 800,-220.5 840,-220.5 840,-201.5 800,-201.5"/>
<text text-anchor="middle" x="820" y="-208.5" font-family="Helvetica,sans-Serif" font-size="10.00">utility</text>
</a>
</g>
</g>
<!-- Node20&#45;&gt;Node21 -->
<g id="edge34" class="edge"><title>Node20&#45;&gt;Node21</title>
<path fill="none" stroke="midnightblue" d="M820,-257.083C820,-250.006 820,-239.861 820,-230.986"/>
<polygon fill="midnightblue" stroke="midnightblue" points="823.5,-230.751 820,-220.751 816.5,-230.751 823.5,-230.751"/>
</g>
<!-- Node22 -->
<g id="node22" class="node"><title>Node22</title>
<g id="a_node22"><a xlink:href="XalanList_8hpp.html" target="_top" xlink:title=" ">
<polygon fill="none" stroke="black" points="642,-201.5 642,-220.5 782,-220.5 782,-201.5 642,-201.5"/>
<text text-anchor="middle" x="712" y="-208.5" font-family="Helvetica,sans-Serif" font-size="10.00">xalanc/Include/XalanList.hpp</text>
</a>
</g>
</g>
<!-- Node20&#45;&gt;Node22 -->
<g id="edge36" class="edge"><title>Node20&#45;&gt;Node22</title>
<path fill="none" stroke="midnightblue" d="M802.648,-257.324C785.328,-248.664 758.485,-235.242 738.498,-225.249"/>
<polygon fill="midnightblue" stroke="midnightblue" points="739.819,-221.996 729.309,-220.655 736.688,-228.257 739.819,-221.996"/>
</g>
<!-- Node22&#45;&gt;Node3 -->
<g id="edge37" class="edge"><title>Node22&#45;&gt;Node3</title>
<path fill="none" stroke="midnightblue" d="M703.66,-201.293C687.696,-185.197 651.018,-150.894 613,-134 558.408,-109.741 492.751,-97.1353 439.283,-90.5852"/>
<polygon fill="midnightblue" stroke="midnightblue" points="439.443,-87.08 429.103,-89.3927 438.628,-94.0325 439.443,-87.08"/>
</g>
<!-- Node22&#45;&gt;Node8 -->
<g id="edge40" class="edge"><title>Node22&#45;&gt;Node8</title>
<path fill="none" stroke="midnightblue" d="M782.196,-201.892C843.558,-193.943 927.351,-180.745 957,-165 986.345,-149.417 1011.55,-119.312 1025.46,-100.375"/>
<polygon fill="midnightblue" stroke="midnightblue" points="1028.41,-102.267 1031.35,-92.0883 1022.71,-98.2109 1028.41,-102.267"/>
</g>
<!-- Node22&#45;&gt;Node10 -->
<g id="edge39" class="edge"><title>Node22&#45;&gt;Node10</title>
<path fill="none" stroke="midnightblue" d="M773.709,-201.475C843.948,-191.543 954.218,-175.199 995,-165 998.218,-164.195 1001.54,-163.252 1004.84,-162.239"/>
<polygon fill="midnightblue" stroke="midnightblue" points="1006.13,-165.498 1014.55,-159.061 1003.96,-158.845 1006.13,-165.498"/>
</g>
<!-- Node22&#45;&gt;Node14 -->
<g id="edge38" class="edge"><title>Node22&#45;&gt;Node14</title>
<path fill="none" stroke="midnightblue" d="M777.323,-201.433C802.328,-195.106 829.303,-184.111 848,-165 864.456,-148.179 870.115,-120.814 872.04,-102.491"/>
<polygon fill="midnightblue" stroke="midnightblue" points="875.537,-102.666 872.82,-92.4259 868.558,-102.126 875.537,-102.666"/>
</g>
<!-- Node22&#45;&gt;Node15 -->
<g id="edge41" class="edge"><title>Node22&#45;&gt;Node15</title>
<path fill="none" stroke="midnightblue" d="M707.574,-201.47C702.976,-192.49 695.673,-177.895 690,-165 680.56,-143.542 670.881,-118.36 664.676,-101.729"/>
<polygon fill="midnightblue" stroke="midnightblue" points="667.889,-100.325 661.138,-92.1593 661.323,-102.752 667.889,-100.325"/>
</g>
<!-- Node22&#45;&gt;Node16 -->
<g id="edge42" class="edge"><title>Node22&#45;&gt;Node16</title>
<path fill="none" stroke="midnightblue" d="M693.231,-201.475C671.149,-191.445 634.281,-174.7 608.861,-163.155"/>
<polygon fill="midnightblue" stroke="midnightblue" points="610.287,-159.958 599.734,-159.009 607.392,-166.331 610.287,-159.958"/>
</g>
<!-- Node22&#45;&gt;Node17 -->
<g id="edge43" class="edge"><title>Node22&#45;&gt;Node17</title>
<path fill="none" stroke="midnightblue" d="M677.156,-201.482C643.757,-193.072 592.056,-179.412 548,-165 545.735,-164.259 543.407,-163.461 541.071,-162.635"/>
<polygon fill="midnightblue" stroke="midnightblue" points="542.167,-159.309 531.573,-159.146 539.754,-165.88 542.167,-159.309"/>
</g>
<!-- Node22&#45;&gt;Node18 -->
<g id="edge44" class="edge"><title>Node22&#45;&gt;Node18</title>
<path fill="none" stroke="midnightblue" d="M720.167,-201.475C727.526,-193.793 738.659,-182.172 748.438,-171.964"/>
<polygon fill="midnightblue" stroke="midnightblue" points="751.176,-174.165 755.566,-164.523 746.121,-169.323 751.176,-174.165"/>
</g>
<!-- Node23&#45;&gt;Node3 -->
<g id="edge47" class="edge"><title>Node23&#45;&gt;Node3</title>
<path fill="none" stroke="midnightblue" d="M903.744,-313.461C768.098,-291.57 418.724,-234.236 397,-221 370.202,-204.673 366.92,-193.597 354,-165 344.932,-144.928 340.989,-119.793 339.283,-102.783"/>
<polygon fill="midnightblue" stroke="midnightblue" points="342.742,-102.142 338.425,-92.4671 335.766,-102.723 342.742,-102.142"/>
</g>
<!-- Node23&#45;&gt;Node10 -->
<g id="edge48" class="edge"><title>Node23&#45;&gt;Node10</title>
<path fill="none" stroke="midnightblue" d="M967.679,-313.386C986.431,-297.489 1024.65,-261.443 1039,-221 1044.94,-204.246 1043.5,-183.82 1041.14,-169.275"/>
<polygon fill="midnightblue" stroke="midnightblue" points="1044.5,-168.212 1039.17,-159.054 1037.63,-169.536 1044.5,-168.212"/>
</g>
<!-- Node23&#45;&gt;Node11 -->
<g id="edge49" class="edge"><title>Node23&#45;&gt;Node11</title>
<path fill="none" stroke="midnightblue" d="M960.453,-313.368C967.617,-295.456 984.231,-253.923 993.821,-229.948"/>
<polygon fill="midnightblue" stroke="midnightblue" points="997.099,-231.176 997.563,-220.591 990.6,-228.576 997.099,-231.176"/>
</g>
<!-- Node23&#45;&gt;Node20 -->
<g id="edge50" class="edge"><title>Node23&#45;&gt;Node20</title>
<path fill="none" stroke="midnightblue" d="M935.292,-313.444C912.645,-304.517 876.928,-290.439 851.248,-280.317"/>
<polygon fill="midnightblue" stroke="midnightblue" points="852.193,-276.927 841.606,-276.516 849.626,-283.44 852.193,-276.927"/>
</g>
<!-- Node24&#45;&gt;Node8 -->
<g id="edge54" class="edge"><title>Node24&#45;&gt;Node8</title>
<path fill="none" stroke="midnightblue" d="M716.843,-374.901C757.345,-359.533 840.93,-324.467 900,-277 934.2,-249.518 926.694,-225.633 963,-201 1005.92,-171.882 1043.5,-206.95 1074,-165 1088.92,-144.477 1069.75,-116.979 1053.92,-99.7522"/>
<polygon fill="midnightblue" stroke="midnightblue" points="1056.05,-96.9274 1046.57,-92.1961 1051.03,-101.806 1056.05,-96.9274"/>
</g>
<!-- Node24&#45;&gt;Node13 -->
<g id="edge57" class="edge"><title>Node24&#45;&gt;Node13</title>
<path fill="none" stroke="midnightblue" d="M685.174,-374.827C666.015,-353.765 614.888,-298.591 568,-257 555.844,-246.217 541.409,-235.013 529.981,-226.481"/>
<polygon fill="midnightblue" stroke="midnightblue" points="532.041,-223.651 521.916,-220.53 527.884,-229.284 532.041,-223.651"/>
</g>
<!-- Node24&#45;&gt;Node18 -->
<g id="edge56" class="edge"><title>Node24&#45;&gt;Node18</title>
<path fill="none" stroke="midnightblue" d="M688.054,-374.603C670.348,-342.202 612.245,-230.847 633,-201 646.215,-181.997 667.468,-170.129 689.286,-162.723"/>
<polygon fill="midnightblue" stroke="midnightblue" points="690.467,-166.021 698.984,-159.72 688.396,-159.335 690.467,-166.021"/>
</g>
<!-- Node24&#45;&gt;Node23 -->
<g id="edge55" class="edge"><title>Node24&#45;&gt;Node23</title>
<path fill="none" stroke="midnightblue" d="M730.825,-374.975C777.874,-364.371 858.232,-346.26 909.416,-334.724"/>
<polygon fill="midnightblue" stroke="midnightblue" points="910.26,-338.122 919.245,-332.509 908.721,-331.293 910.26,-338.122"/>
</g>
<!-- Node25 -->
<g id="node25" class="node"><title>Node25</title>
<g id="a_node25"><a xlink:href="XalanDOMDefinitions_8hpp.html" target="_top" xlink:title=" ">
<polygon fill="none" stroke="black" points="353,-257.5 353,-276.5 559,-276.5 559,-257.5 353,-257.5"/>
<text text-anchor="middle" x="456" y="-264.5" font-family="Helvetica,sans-Serif" font-size="10.00">xalanc/XalanDOM/XalanDOMDefinitions.hpp</text>
</a>
</g>
</g>
<!-- Node24&#45;&gt;Node25 -->
<g id="edge52" class="edge"><title>Node24&#45;&gt;Node25</title>
<path fill="none" stroke="midnightblue" d="M678.947,-374.871C655.989,-360.951 608.804,-333.072 567,-313 541.363,-300.691 511.439,-288.69 489.125,-280.182"/>
<polygon fill="midnightblue" stroke="midnightblue" points="490.349,-276.903 479.757,-276.644 487.876,-283.452 490.349,-276.903"/>
</g>
<!-- Node26 -->
<g id="node26" class="node"><title>Node26</title>
<g id="a_node26"><a xlink:href="XalanDOMException_8hpp.html" target="_top" xlink:title=" ">
<polygon fill="none" stroke="black" points="353.5,-313.5 353.5,-332.5 558.5,-332.5 558.5,-313.5 353.5,-313.5"/>
<text text-anchor="middle" x="456" y="-320.5" font-family="Helvetica,sans-Serif" font-size="10.00">xalanc/XalanDOM/XalanDOMException.hpp</text>
</a>
</g>
</g>
<!-- Node24&#45;&gt;Node26 -->
<g id="edge58" class="edge"><title>Node24&#45;&gt;Node26</title>
<path fill="none" stroke="midnightblue" d="M659.044,-374.975C617.158,-364.459 545.867,-346.562 499.872,-335.014"/>
<polygon fill="midnightblue" stroke="midnightblue" points="500.445,-331.549 489.893,-332.509 498.74,-338.339 500.445,-331.549"/>
</g>
<!-- Node25&#45;&gt;Node3 -->
<g id="edge53" class="edge"><title>Node25&#45;&gt;Node3</title>
<path fill="none" stroke="midnightblue" d="M393.206,-257.472C350.44,-250.228 299.268,-238.238 286,-221 262.415,-190.359 270.942,-169.614 286,-134 292.092,-119.591 304.53,-107.268 315.713,-98.4025"/>
<polygon fill="midnightblue" stroke="midnightblue" points="317.958,-101.095 323.895,-92.3198 313.781,-95.4772 317.958,-101.095"/>
</g>
<!-- Node26&#45;&gt;Node25 -->
<g id="edge59" class="edge"><title>Node26&#45;&gt;Node25</title>
<path fill="none" stroke="midnightblue" d="M456,-313.083C456,-306.006 456,-295.861 456,-286.986"/>
<polygon fill="midnightblue" stroke="midnightblue" points="459.5,-286.751 456,-276.751 452.5,-286.751 459.5,-286.751"/>
</g>
<!-- Node27&#45;&gt;Node2 -->
<g id="edge61" class="edge"><title>Node27&#45;&gt;Node2</title>
<path fill="none" stroke="midnightblue" d="M633.601,-442.268C552.028,-430.962 404.779,-410.555 310.836,-397.535"/>
<polygon fill="midnightblue" stroke="midnightblue" points="311.171,-394.048 300.785,-396.142 310.21,-400.982 311.171,-394.048"/>
</g>
<!-- Node27&#45;&gt;Node24 -->
<g id="edge63" class="edge"><title>Node27&#45;&gt;Node24</title>
<path fill="none" stroke="midnightblue" d="M693,-436.396C693,-427.064 693,-414.714 693,-404.517"/>
<polygon fill="midnightblue" stroke="midnightblue" points="696.5,-404.195 693,-394.195 689.5,-404.195 696.5,-404.195"/>
</g>
<!-- Node28 -->
<g id="node28" class="node"><title>Node28</title>
<g id="a_node28"><a xlink:title=" ">
<polygon fill="none" stroke="#bfbfbf" points="412.5,-375 412.5,-394 581.5,-394 581.5,-375 412.5,-375"/>
<text text-anchor="middle" x="497" y="-382" font-family="Helvetica,sans-Serif" font-size="10.00">xercesc/sax/DocumentHandler.hpp</text>
</a>
</g>
</g>
<!-- Node27&#45;&gt;Node28 -->
<g id="edge62" class="edge"><title>Node27&#45;&gt;Node28</title>
<path fill="none" stroke="midnightblue" d="M650.471,-436.396C615.167,-424.688 565.544,-408.231 532.381,-397.234"/>
<polygon fill="midnightblue" stroke="midnightblue" points="533.245,-393.833 522.652,-394.007 531.042,-400.477 533.245,-393.833"/>
</g>
<!-- Node29&#45;&gt;Node2 -->
<g id="edge65" class="edge"><title>Node29&#45;&gt;Node2</title>
<path fill="none" stroke="midnightblue" d="M318.745,-436.396C301.303,-427.026 278.2,-414.615 259.174,-404.395"/>
<polygon fill="midnightblue" stroke="midnightblue" points="260.67,-401.226 250.204,-399.577 257.357,-407.392 260.67,-401.226"/>
</g>
<!-- Node30&#45;&gt;Node2 -->
<g id="edge67" class="edge"><title>Node30&#45;&gt;Node2</title>
<path fill="none" stroke="midnightblue" d="M425.551,-436.476C385.661,-426.387 331.708,-412.741 289.662,-402.107"/>
<polygon fill="midnightblue" stroke="midnightblue" points="290.345,-398.67 279.792,-399.611 288.629,-405.456 290.345,-398.67"/>
</g>
<!-- Node31&#45;&gt;Node2 -->
<g id="edge69" class="edge"><title>Node31&#45;&gt;Node2</title>
<path fill="none" stroke="midnightblue" d="M154.884,-570.442C140.624,-562.047 124.995,-549.896 117,-534 106.566,-513.255 122.047,-444.258 128,-436 138.032,-422.084 153.08,-411.678 168.304,-404.045"/>
<polygon fill="midnightblue" stroke="midnightblue" points="170.172,-407.036 177.762,-399.644 167.219,-400.69 170.172,-407.036"/>
</g>
<!-- Node31&#45;&gt;Node9 -->
<g id="edge70" class="edge"><title>Node31&#45;&gt;Node9</title>
<path fill="none" stroke="midnightblue" d="M244.226,-578.03C354.903,-565.939 592.551,-539.978 710.565,-527.085"/>
<polygon fill="midnightblue" stroke="midnightblue" points="711.012,-530.557 720.573,-525.992 710.252,-523.599 711.012,-530.557"/>
</g>
<!-- Node32 -->
<g id="node32" class="node"><title>Node32</title>
<g id="a_node32"><a xlink:href="XalanLocator_8hpp.html" target="_top" xlink:title=" ">
<polygon fill="none" stroke="black" points="126,-503.5 126,-533.5 244,-533.5 244,-503.5 126,-503.5"/>
<text text-anchor="start" x="134" y="-521.5" font-family="Helvetica,sans-Serif" font-size="10.00">xalanc/PlatformSupport</text>
<text text-anchor="middle" x="185" y="-510.5" font-family="Helvetica,sans-Serif" font-size="10.00">/XalanLocator.hpp</text>
</a>
</g>
</g>
<!-- Node31&#45;&gt;Node32 -->
<g id="edge71" class="edge"><title>Node31&#45;&gt;Node32</title>
<path fill="none" stroke="midnightblue" d="M185,-570.396C185,-562.645 185,-552.812 185,-543.86"/>
<polygon fill="midnightblue" stroke="midnightblue" points="188.5,-543.576 185,-533.577 181.5,-543.577 188.5,-543.576"/>
</g>
<!-- Node32&#45;&gt;Node2 -->
<g id="edge72" class="edge"><title>Node32&#45;&gt;Node2</title>
<path fill="none" stroke="midnightblue" d="M166.014,-503.484C146.578,-487.339 121.049,-459.956 135,-436 143.067,-422.147 156.505,-411.786 170.525,-404.176"/>
<polygon fill="midnightblue" stroke="midnightblue" points="172.385,-407.159 179.771,-399.563 169.26,-400.895 172.385,-407.159"/>
</g>
<!-- Node33 -->
<g id="node33" class="node"><title>Node33</title>
<g id="a_node33"><a xlink:title=" ">
<polygon fill="none" stroke="#bfbfbf" points="144,-442 144,-461 268,-461 268,-442 144,-442"/>
<text text-anchor="middle" x="206" y="-449" font-family="Helvetica,sans-Serif" font-size="10.00">xercesc/sax/Locator.hpp</text>
</a>
</g>
</g>
<!-- Node32&#45;&gt;Node33 -->
<g id="edge73" class="edge"><title>Node32&#45;&gt;Node33</title>
<path fill="none" stroke="midnightblue" d="M189.557,-503.396C192.637,-493.863 196.734,-481.182 200.068,-470.862"/>
<polygon fill="midnightblue" stroke="midnightblue" points="203.447,-471.786 203.191,-461.195 196.786,-469.634 203.447,-471.786"/>
</g>
</g>
</svg>
