<?xml version="1.0" encoding="UTF-8" standalone="no"?>
<!DOCTYPE svg PUBLIC "-//W3C//DTD SVG 1.1//EN"
 "http://www.w3.org/Graphics/SVG/1.1/DTD/svg11.dtd">
<!-- Generated by graphviz version 2.38.0 (20140413.2041)
 -->
<!-- Title: xalanc/PlatformSupport/XalanCollationServices.hpp Pages: 1 -->
<!--zoomable 475 -->
<svg id="main" version="1.1" xmlns="http://www.w3.org/2000/svg" xmlns:xlink="http://www.w3.org/1999/xlink" xml:space="preserve" onload="init(evt)">
<style type="text/css"><![CDATA[
.edge:hover path { stroke: red; }
.edge:hover polygon { stroke: red; fill: red; }
]]></style>
<script type="text/javascript"><![CDATA[
var edges = document.getElementsByTagName('g');
if (edges && edges.length) {
  for (var i=0;i<edges.length;i++) {
    if (edges[i].id.substr(0,4)=='edge') {
      edges[i].setAttribute('class','edge');
    }
  }
}
]]></script>
        <defs>
                <circle id="rim" cx="0" cy="0" r="7"/>
                <circle id="rim2" cx="0" cy="0" r="3.5"/>
                <g id="zoomPlus">
                        <use xlink:href="#rim" fill="#404040">
                                <set attributeName="fill" to="#808080" begin="zoomplus.mouseover" end="zoomplus.mouseout"/>
                        </use>
                        <path d="M-4,0h8M0,-4v8" fill="none" stroke="white" stroke-width="1.5" pointer-events="none"/>
                </g>
                <g id="zoomMin">
                        <use xlink:href="#rim" fill="#404040">
                                <set attributeName="fill" to="#808080" begin="zoomminus.mouseover" end="zoomminus.mouseout"/>
                        </use>
                        <path d="M-4,0h8" fill="none" stroke="white" stroke-width="1.5" pointer-events="none"/>
                </g>
                <g id="dirArrow">
                        <path fill="none" stroke="white" stroke-width="1.5" d="M0,-3.0v7 M-2.5,-0.5L0,-3.0L2.5,-0.5"/>
                </g>
               <g id="resetDef">
                       <use xlink:href="#rim2" fill="#404040">
                               <set attributeName="fill" to="#808080" begin="reset.mouseover" end="reset.mouseout"/>
                       </use>
               </g>
        </defs>

<script type="text/javascript">
var viewWidth = 1010;
var viewHeight = 475;
var sectionId = 'dynsection-0';
</script>
<script xlink:href="svgpan.js"/>
<svg id="graph" class="graph">
<g id="viewport">
<title>xalanc/PlatformSupport/XalanCollationServices.hpp</title>
<!-- Node1 -->
<g id="node1" class="node"><title>Node1</title>
<g id="a_node1"><a xlink:title=" ">
<polygon fill="#bfbfbf" stroke="black" points="130.5,-436.5 130.5,-466.5 266.5,-466.5 266.5,-436.5 130.5,-436.5"/>
<text text-anchor="start" x="138.5" y="-454.5" font-family="Helvetica,sans-Serif" font-size="10.00">xalanc/PlatformSupport</text>
<text text-anchor="middle" x="198.5" y="-443.5" font-family="Helvetica,sans-Serif" font-size="10.00">/XalanCollationServices.hpp</text>
</a>
</g>
</g>
<!-- Node2 -->
<g id="node2" class="node"><title>Node2</title>
<g id="a_node2"><a xlink:href="PlatformSupportDefinitions_8hpp.html" target="_top" xlink:title=" ">
<polygon fill="none" stroke="black" points="0,-369.5 0,-399.5 153,-399.5 153,-369.5 0,-369.5"/>
<text text-anchor="start" x="8" y="-387.5" font-family="Helvetica,sans-Serif" font-size="10.00">xalanc/PlatformSupport</text>
<text text-anchor="middle" x="76.5" y="-376.5" font-family="Helvetica,sans-Serif" font-size="10.00">/PlatformSupportDefinitions.hpp</text>
</a>
</g>
</g>
<!-- Node1&#45;&gt;Node2 -->
<g id="edge1" class="edge"><title>Node1&#45;&gt;Node2</title>
<path fill="none" stroke="midnightblue" d="M172.028,-436.396C154.442,-427.026 131.147,-414.615 111.964,-404.395"/>
<polygon fill="midnightblue" stroke="midnightblue" points="113.392,-401.19 102.921,-399.577 110.1,-407.368 113.392,-401.19"/>
</g>
<!-- Node7 -->
<g id="node7" class="node"><title>Node7</title>
<g id="a_node7"><a xlink:href="XalanDOMString_8hpp.html" target="_top" xlink:title=" ">
<polygon fill="none" stroke="black" points="227,-375 227,-394 414,-394 414,-375 227,-375"/>
<text text-anchor="middle" x="320.5" y="-382" font-family="Helvetica,sans-Serif" font-size="10.00">xalanc/XalanDOM/XalanDOMString.hpp</text>
</a>
</g>
</g>
<!-- Node1&#45;&gt;Node7 -->
<g id="edge6" class="edge"><title>Node1&#45;&gt;Node7</title>
<path fill="none" stroke="midnightblue" d="M224.972,-436.396C245.905,-425.243 274.926,-409.781 295.474,-398.834"/>
<polygon fill="midnightblue" stroke="midnightblue" points="297.353,-401.798 304.533,-394.007 294.062,-395.62 297.353,-401.798"/>
</g>
<!-- Node3 -->
<g id="node3" class="node"><title>Node3</title>
<g id="a_node3"><a xlink:href="PlatformDefinitions_8hpp.html" target="_top" xlink:title=" ">
<polygon fill="none" stroke="black" points="150.5,-73 150.5,-92 332.5,-92 332.5,-73 150.5,-73"/>
<text text-anchor="middle" x="241.5" y="-80" font-family="Helvetica,sans-Serif" font-size="10.00">xalanc/Include/PlatformDefinitions.hpp</text>
</a>
</g>
</g>
<!-- Node2&#45;&gt;Node3 -->
<g id="edge2" class="edge"><title>Node2&#45;&gt;Node3</title>
<path fill="none" stroke="midnightblue" d="M64.3488,-369.265C47.8788,-348.465 20.5,-307.89 20.5,-268 20.5,-268 20.5,-268 20.5,-210 20.5,-140.025 104.984,-108.221 169.482,-94.1367"/>
<polygon fill="midnightblue" stroke="midnightblue" points="170.566,-97.4862 179.645,-92.0252 169.142,-90.6325 170.566,-97.4862"/>
</g>
<!-- Node4 -->
<g id="node4" class="node"><title>Node4</title>
<g id="a_node4"><a xlink:title=" ">
<polygon fill="none" stroke="#bfbfbf" points="39.5,-0.5 39.5,-30.5 147.5,-30.5 147.5,-0.5 39.5,-0.5"/>
<text text-anchor="start" x="47.5" y="-18.5" font-family="Helvetica,sans-Serif" font-size="10.00">xercesc/util/Xerces</text>
<text text-anchor="middle" x="93.5" y="-7.5" font-family="Helvetica,sans-Serif" font-size="10.00">_autoconf_config.hpp</text>
</a>
</g>
</g>
<!-- Node3&#45;&gt;Node4 -->
<g id="edge3" class="edge"><title>Node3&#45;&gt;Node4</title>
<path fill="none" stroke="midnightblue" d="M221.847,-72.8685C199.735,-63.1572 163.195,-47.1092 134.746,-34.6148"/>
<polygon fill="midnightblue" stroke="midnightblue" points="136.004,-31.3447 125.441,-30.5281 133.189,-37.7539 136.004,-31.3447"/>
</g>
<!-- Node5 -->
<g id="node5" class="node"><title>Node5</title>
<g id="a_node5"><a xlink:title=" ">
<polygon fill="none" stroke="#bfbfbf" points="166,-6 166,-25 317,-25 317,-6 166,-6"/>
<text text-anchor="middle" x="241.5" y="-13" font-family="Helvetica,sans-Serif" font-size="10.00">xercesc/util/XercesVersion.hpp</text>
</a>
</g>
</g>
<!-- Node3&#45;&gt;Node5 -->
<g id="edge4" class="edge"><title>Node3&#45;&gt;Node5</title>
<path fill="none" stroke="midnightblue" d="M241.5,-72.7338C241.5,-63.1826 241.5,-47.6183 241.5,-35.2829"/>
<polygon fill="midnightblue" stroke="midnightblue" points="245,-35.1273 241.5,-25.1273 238,-35.1273 245,-35.1273"/>
</g>
<!-- Node6 -->
<g id="node6" class="node"><title>Node6</title>
<g id="a_node6"><a xlink:href="XalanVersion_8hpp.html" target="_top" xlink:title=" ">
<polygon fill="none" stroke="black" points="335.5,-6 335.5,-25 427.5,-25 427.5,-6 335.5,-6"/>
<text text-anchor="middle" x="381.5" y="-13" font-family="Helvetica,sans-Serif" font-size="10.00">XalanVersion.hpp</text>
</a>
</g>
</g>
<!-- Node3&#45;&gt;Node6 -->
<g id="edge5" class="edge"><title>Node3&#45;&gt;Node6</title>
<path fill="none" stroke="midnightblue" d="M260.091,-72.8685C284.044,-61.7476 325.895,-42.3167 353.654,-29.4286"/>
<polygon fill="midnightblue" stroke="midnightblue" points="355.236,-32.5529 362.832,-25.1672 352.288,-26.2038 355.236,-32.5529"/>
</g>
<!-- Node8 -->
<g id="node8" class="node"><title>Node8</title>
<g id="a_node8"><a xlink:href="XalanDOMDefinitions_8hpp.html" target="_top" xlink:title=" ">
<polygon fill="none" stroke="black" points="66.5,-257.5 66.5,-276.5 272.5,-276.5 272.5,-257.5 66.5,-257.5"/>
<text text-anchor="middle" x="169.5" y="-264.5" font-family="Helvetica,sans-Serif" font-size="10.00">xalanc/XalanDOM/XalanDOMDefinitions.hpp</text>
</a>
</g>
</g>
<!-- Node7&#45;&gt;Node8 -->
<g id="edge7" class="edge"><title>Node7&#45;&gt;Node8</title>
<path fill="none" stroke="midnightblue" d="M226.79,-376.091C166.667,-369.168 96.4329,-356.272 77.5,-333 58.5978,-309.766 95.2416,-291.067 127.734,-279.793"/>
<polygon fill="midnightblue" stroke="midnightblue" points="129.217,-282.99 137.619,-276.536 127.026,-276.341 129.217,-282.99"/>
</g>
<!-- Node9 -->
<g id="node9" class="node"><title>Node9</title>
<g id="a_node9"><a xlink:title=" ">
<polygon fill="none" stroke="#bfbfbf" points="802,-73 802,-92 851,-92 851,-73 802,-73"/>
<text text-anchor="middle" x="826.5" y="-80" font-family="Helvetica,sans-Serif" font-size="10.00">cassert</text>
</a>
</g>
</g>
<!-- Node7&#45;&gt;Node9 -->
<g id="edge9" class="edge"><title>Node7&#45;&gt;Node9</title>
<path fill="none" stroke="midnightblue" d="M414.337,-377.163C600.879,-363.301 1000.5,-326.751 1000.5,-268 1000.5,-268 1000.5,-268 1000.5,-210 1000.5,-175.183 1005.24,-159.466 981.5,-134 950.279,-100.514 896.624,-89.183 861.354,-85.3785"/>
<polygon fill="midnightblue" stroke="midnightblue" points="861.324,-81.8608 851.043,-84.4232 860.678,-88.8309 861.324,-81.8608"/>
</g>
<!-- Node10 -->
<g id="node10" class="node"><title>Node10</title>
<g id="a_node10"><a xlink:href="STLHelper_8hpp.html" target="_top" xlink:title=" ">
<polygon fill="none" stroke="black" points="405.5,-313.5 405.5,-332.5 551.5,-332.5 551.5,-313.5 405.5,-313.5"/>
<text text-anchor="middle" x="478.5" y="-320.5" font-family="Helvetica,sans-Serif" font-size="10.00">xalanc/Include/STLHelper.hpp</text>
</a>
</g>
</g>
<!-- Node7&#45;&gt;Node10 -->
<g id="edge10" class="edge"><title>Node7&#45;&gt;Node10</title>
<path fill="none" stroke="midnightblue" d="M343.138,-374.975C370.24,-364.769 415.81,-347.608 446.504,-336.049"/>
<polygon fill="midnightblue" stroke="midnightblue" points="447.78,-339.309 455.904,-332.509 445.313,-332.758 447.78,-339.309"/>
</g>
<!-- Node16 -->
<g id="node16" class="node"><title>Node16</title>
<g id="a_node16"><a xlink:href="XalanVector_8hpp.html" target="_top" xlink:title=" ">
<polygon fill="none" stroke="black" points="482.5,-201.5 482.5,-220.5 634.5,-220.5 634.5,-201.5 482.5,-201.5"/>
<text text-anchor="middle" x="558.5" y="-208.5" font-family="Helvetica,sans-Serif" font-size="10.00">xalanc/Include/XalanVector.hpp</text>
</a>
</g>
</g>
<!-- Node7&#45;&gt;Node16 -->
<g id="edge44" class="edge"><title>Node7&#45;&gt;Node16</title>
<path fill="none" stroke="midnightblue" d="M328.91,-374.679C342.44,-360.733 370.192,-333.111 396.5,-313 442.513,-277.825 501.194,-243.61 533.808,-225.434"/>
<polygon fill="midnightblue" stroke="midnightblue" points="535.61,-228.437 542.667,-220.535 532.222,-222.312 535.61,-228.437"/>
</g>
<!-- Node20 -->
<g id="node20" class="node"><title>Node20</title>
<g id="a_node20"><a xlink:href="XalanMemoryManagement_8hpp.html" target="_top" xlink:title=" ">
<polygon fill="none" stroke="black" points="349.5,-134.5 349.5,-164.5 489.5,-164.5 489.5,-134.5 349.5,-134.5"/>
<text text-anchor="start" x="357.5" y="-152.5" font-family="Helvetica,sans-Serif" font-size="10.00">xalanc/Include/XalanMemory</text>
<text text-anchor="middle" x="419.5" y="-141.5" font-family="Helvetica,sans-Serif" font-size="10.00">Management.hpp</text>
</a>
</g>
</g>
<!-- Node7&#45;&gt;Node20 -->
<g id="edge43" class="edge"><title>Node7&#45;&gt;Node20</title>
<path fill="none" stroke="midnightblue" d="M320.345,-374.78C320.242,-347.176 322.923,-260.044 358.5,-201 365.611,-189.199 376.501,-178.899 387.123,-170.733"/>
<polygon fill="midnightblue" stroke="midnightblue" points="389.466,-173.357 395.507,-164.653 385.357,-167.69 389.466,-173.357"/>
</g>
<!-- Node23 -->
<g id="node23" class="node"><title>Node23</title>
<g id="a_node23"><a xlink:href="XalanDOMException_8hpp.html" target="_top" xlink:title=" ">
<polygon fill="none" stroke="black" points="87,-313.5 87,-332.5 292,-332.5 292,-313.5 87,-313.5"/>
<text text-anchor="middle" x="189.5" y="-320.5" font-family="Helvetica,sans-Serif" font-size="10.00">xalanc/XalanDOM/XalanDOMException.hpp</text>
</a>
</g>
</g>
<!-- Node7&#45;&gt;Node23 -->
<g id="edge45" class="edge"><title>Node7&#45;&gt;Node23</title>
<path fill="none" stroke="midnightblue" d="M301.731,-374.975C279.649,-364.945 242.781,-348.2 217.361,-336.655"/>
<polygon fill="midnightblue" stroke="midnightblue" points="218.787,-333.458 208.234,-332.509 215.892,-339.831 218.787,-333.458"/>
</g>
<!-- Node8&#45;&gt;Node3 -->
<g id="edge8" class="edge"><title>Node8&#45;&gt;Node3</title>
<path fill="none" stroke="midnightblue" d="M169.404,-257.44C169.495,-235.608 171.878,-176.573 193.5,-134 200.415,-120.384 212.184,-107.916 222.337,-98.7749"/>
<polygon fill="midnightblue" stroke="midnightblue" points="224.695,-101.364 230.01,-92.1989 220.139,-96.049 224.695,-101.364"/>
</g>
<!-- Node10&#45;&gt;Node3 -->
<g id="edge11" class="edge"><title>Node10&#45;&gt;Node3</title>
<path fill="none" stroke="midnightblue" d="M453.457,-313.453C404.063,-295.117 294.784,-246.884 247.5,-165 236.384,-145.75 236.627,-119.535 238.489,-102.091"/>
<polygon fill="midnightblue" stroke="midnightblue" points="241.974,-102.434 239.843,-92.0558 235.037,-101.498 241.974,-102.434"/>
</g>
<!-- Node11 -->
<g id="node11" class="node"><title>Node11</title>
<g id="a_node11"><a xlink:title=" ">
<polygon fill="none" stroke="#bfbfbf" points="916.5,-140 916.5,-159 972.5,-159 972.5,-140 916.5,-140"/>
<text text-anchor="middle" x="944.5" y="-147" font-family="Helvetica,sans-Serif" font-size="10.00">algorithm</text>
</a>
</g>
</g>
<!-- Node10&#45;&gt;Node11 -->
<g id="edge12" class="edge"><title>Node10&#45;&gt;Node11</title>
<path fill="none" stroke="midnightblue" d="M551.575,-314.627C663.997,-301.818 871.923,-271.843 924.5,-221 938.336,-207.62 942.804,-185.435 944.144,-169.523"/>
<polygon fill="midnightblue" stroke="midnightblue" points="947.653,-169.423 944.656,-159.261 940.662,-169.074 947.653,-169.423"/>
</g>
<!-- Node12 -->
<g id="node12" class="node"><title>Node12</title>
<g id="a_node12"><a xlink:title=" ">
<polygon fill="none" stroke="#bfbfbf" points="367.5,-201.5 367.5,-220.5 425.5,-220.5 425.5,-201.5 367.5,-201.5"/>
<text text-anchor="middle" x="396.5" y="-208.5" font-family="Helvetica,sans-Serif" font-size="10.00">functional</text>
</a>
</g>
</g>
<!-- Node10&#45;&gt;Node12 -->
<g id="edge13" class="edge"><title>Node10&#45;&gt;Node12</title>
<path fill="none" stroke="midnightblue" d="M472.066,-313.368C458.473,-295.135 426.636,-252.426 408.931,-228.675"/>
<polygon fill="midnightblue" stroke="midnightblue" points="411.687,-226.517 402.905,-220.591 406.075,-230.701 411.687,-226.517"/>
</g>
<!-- Node13 -->
<g id="node13" class="node"><title>Node13</title>
<g id="a_node13"><a xlink:href="XalanMap_8hpp.html" target="_top" xlink:title=" ">
<polygon fill="none" stroke="black" points="547,-257.5 547,-276.5 690,-276.5 690,-257.5 547,-257.5"/>
<text text-anchor="middle" x="618.5" y="-264.5" font-family="Helvetica,sans-Serif" font-size="10.00">xalanc/Include/XalanMap.hpp</text>
</a>
</g>
</g>
<!-- Node10&#45;&gt;Node13 -->
<g id="edge14" class="edge"><title>Node10&#45;&gt;Node13</title>
<path fill="none" stroke="midnightblue" d="M500.683,-313.444C523.928,-304.478 560.649,-290.314 586.915,-280.183"/>
<polygon fill="midnightblue" stroke="midnightblue" points="588.35,-283.381 596.42,-276.516 585.831,-276.85 588.35,-283.381"/>
</g>
<!-- Node13&#45;&gt;Node3 -->
<g id="edge15" class="edge"><title>Node13&#45;&gt;Node3</title>
<path fill="none" stroke="midnightblue" d="M585.395,-257.486C555.631,-249.418 510.962,-236.284 473.5,-221 455.464,-213.641 452.832,-207.587 434.5,-201 364.272,-175.765 326.479,-214.347 270.5,-165 252.315,-148.97 245.533,-120.753 243.004,-102.091"/>
<polygon fill="midnightblue" stroke="midnightblue" points="246.482,-101.704 241.933,-92.1354 239.523,-102.452 246.482,-101.704"/>
</g>
<!-- Node13&#45;&gt;Node11 -->
<g id="edge17" class="edge"><title>Node13&#45;&gt;Node11</title>
<path fill="none" stroke="midnightblue" d="M690.074,-261.435C762.297,-255.643 867.818,-243.571 901.5,-221 920.062,-208.561 931.961,-185.136 938.429,-168.713"/>
<polygon fill="midnightblue" stroke="midnightblue" points="941.79,-169.712 941.912,-159.118 935.21,-167.324 941.79,-169.712"/>
</g>
<!-- Node13&#45;&gt;Node12 -->
<g id="edge18" class="edge"><title>Node13&#45;&gt;Node12</title>
<path fill="none" stroke="midnightblue" d="M583.323,-257.444C543.114,-247.663 477.476,-231.697 435.668,-221.527"/>
<polygon fill="midnightblue" stroke="midnightblue" points="436.384,-218.1 425.84,-219.137 434.73,-224.901 436.384,-218.1"/>
</g>
<!-- Node14 -->
<g id="node14" class="node"><title>Node14</title>
<g id="a_node14"><a xlink:title=" ">
<polygon fill="none" stroke="#bfbfbf" points="673.5,-73 673.5,-92 721.5,-92 721.5,-73 673.5,-73"/>
<text text-anchor="middle" x="697.5" y="-80" font-family="Helvetica,sans-Serif" font-size="10.00">cstddef</text>
</a>
</g>
</g>
<!-- Node13&#45;&gt;Node14 -->
<g id="edge16" class="edge"><title>Node13&#45;&gt;Node14</title>
<path fill="none" stroke="midnightblue" d="M688.077,-257.44C733.391,-250.326 786.737,-238.509 801.5,-221 826.451,-191.407 826.28,-166.657 805.5,-134 789.385,-108.675 756.871,-95.8372 731.708,-89.4654"/>
<polygon fill="midnightblue" stroke="midnightblue" points="732.318,-86.0144 721.788,-87.1842 730.749,-92.8363 732.318,-86.0144"/>
</g>
<!-- Node15 -->
<g id="node15" class="node"><title>Node15</title>
<g id="a_node15"><a xlink:title=" ">
<polygon fill="none" stroke="#bfbfbf" points="852.5,-201.5 852.5,-220.5 892.5,-220.5 892.5,-201.5 852.5,-201.5"/>
<text text-anchor="middle" x="872.5" y="-208.5" font-family="Helvetica,sans-Serif" font-size="10.00">utility</text>
</a>
</g>
</g>
<!-- Node13&#45;&gt;Node15 -->
<g id="edge19" class="edge"><title>Node13&#45;&gt;Node15</title>
<path fill="none" stroke="midnightblue" d="M664.171,-257.446C708.782,-248.905 778.529,-235.059 838.5,-221 839.771,-220.702 841.066,-220.391 842.374,-220.072"/>
<polygon fill="midnightblue" stroke="midnightblue" points="843.582,-223.376 852.412,-217.52 841.858,-216.592 843.582,-223.376"/>
</g>
<!-- Node13&#45;&gt;Node16 -->
<g id="edge20" class="edge"><title>Node13&#45;&gt;Node16</title>
<path fill="none" stroke="midnightblue" d="M608.86,-257.324C599.99,-249.341 586.625,-237.313 575.892,-227.653"/>
<polygon fill="midnightblue" stroke="midnightblue" points="578.09,-224.922 568.315,-220.834 573.407,-230.125 578.09,-224.922"/>
</g>
<!-- Node22 -->
<g id="node22" class="node"><title>Node22</title>
<g id="a_node22"><a xlink:href="XalanList_8hpp.html" target="_top" xlink:title=" ">
<polygon fill="none" stroke="black" points="652.5,-201.5 652.5,-220.5 792.5,-220.5 792.5,-201.5 652.5,-201.5"/>
<text text-anchor="middle" x="722.5" y="-208.5" font-family="Helvetica,sans-Serif" font-size="10.00">xalanc/Include/XalanList.hpp</text>
</a>
</g>
</g>
<!-- Node13&#45;&gt;Node22 -->
<g id="edge34" class="edge"><title>Node13&#45;&gt;Node22</title>
<path fill="none" stroke="midnightblue" d="M635.209,-257.324C651.812,-248.703 677.502,-235.364 696.72,-225.386"/>
<polygon fill="midnightblue" stroke="midnightblue" points="698.57,-228.369 705.832,-220.655 695.344,-222.156 698.57,-228.369"/>
</g>
<!-- Node16&#45;&gt;Node3 -->
<g id="edge21" class="edge"><title>Node16&#45;&gt;Node3</title>
<path fill="none" stroke="midnightblue" d="M482.225,-202.229C419.522,-194.773 336.466,-182.118 307.5,-165 281.472,-149.618 261.441,-119.9 250.578,-100.916"/>
<polygon fill="midnightblue" stroke="midnightblue" points="253.623,-99.19 245.75,-92.1002 247.483,-102.552 253.623,-99.19"/>
</g>
<!-- Node16&#45;&gt;Node9 -->
<g id="edge24" class="edge"><title>Node16&#45;&gt;Node9</title>
<path fill="none" stroke="midnightblue" d="M562.103,-201.378C569.234,-185.426 586.718,-151.352 612.5,-134 641.596,-114.418 739.176,-96.9293 791.937,-88.6175"/>
<polygon fill="midnightblue" stroke="midnightblue" points="792.513,-92.0702 801.859,-87.0796 791.441,-85.1528 792.513,-92.0702"/>
</g>
<!-- Node16&#45;&gt;Node11 -->
<g id="edge23" class="edge"><title>Node16&#45;&gt;Node11</title>
<path fill="none" stroke="midnightblue" d="M613.804,-201.475C693.316,-189.219 837.886,-166.934 906.457,-156.364"/>
<polygon fill="midnightblue" stroke="midnightblue" points="907.047,-159.815 916.397,-154.832 905.981,-152.896 907.047,-159.815"/>
</g>
<!-- Node16&#45;&gt;Node14 -->
<g id="edge22" class="edge"><title>Node16&#45;&gt;Node14</title>
<path fill="none" stroke="midnightblue" d="M558.556,-201.356C559.11,-185.964 562.389,-153.588 579.5,-134 600.983,-109.406 636.539,-96.4212 663.015,-89.8133"/>
<polygon fill="midnightblue" stroke="midnightblue" points="664.066,-93.1629 673.025,-87.5067 662.494,-86.3417 664.066,-93.1629"/>
</g>
<!-- Node17 -->
<g id="node17" class="node"><title>Node17</title>
<g id="a_node17"><a xlink:title=" ">
<polygon fill="none" stroke="#bfbfbf" points="506.5,-73 506.5,-92 540.5,-92 540.5,-73 506.5,-73"/>
<text text-anchor="middle" x="523.5" y="-80" font-family="Helvetica,sans-Serif" font-size="10.00">new</text>
</a>
</g>
</g>
<!-- Node16&#45;&gt;Node17 -->
<g id="edge25" class="edge"><title>Node16&#45;&gt;Node17</title>
<path fill="none" stroke="midnightblue" d="M554.868,-201.499C551.142,-192.543 545.359,-177.967 541.5,-165 535.186,-143.786 529.998,-118.872 526.841,-102.226"/>
<polygon fill="midnightblue" stroke="midnightblue" points="530.242,-101.371 524.99,-92.1696 523.358,-102.638 530.242,-101.371"/>
</g>
<!-- Node18 -->
<g id="node18" class="node"><title>Node18</title>
<g id="a_node18"><a xlink:title=" ">
<polygon fill="none" stroke="#bfbfbf" points="699,-140 699,-159 746,-159 746,-140 699,-140"/>
<text text-anchor="middle" x="722.5" y="-147" font-family="Helvetica,sans-Serif" font-size="10.00">iterator</text>
</a>
</g>
</g>
<!-- Node16&#45;&gt;Node18 -->
<g id="edge26" class="edge"><title>Node16&#45;&gt;Node18</title>
<path fill="none" stroke="midnightblue" d="M585.583,-201.425C612.24,-192.815 653.998,-178.87 689.5,-165 691.103,-164.374 692.742,-163.715 694.392,-163.037"/>
<polygon fill="midnightblue" stroke="midnightblue" points="695.931,-166.186 703.766,-159.054 693.193,-159.744 695.931,-166.186"/>
</g>
<!-- Node19 -->
<g id="node19" class="node"><title>Node19</title>
<g id="a_node19"><a xlink:title=" ">
<polygon fill="none" stroke="#bfbfbf" points="622,-140 622,-159 681,-159 681,-140 622,-140"/>
<text text-anchor="middle" x="651.5" y="-147" font-family="Helvetica,sans-Serif" font-size="10.00">stdexcept</text>
</a>
</g>
</g>
<!-- Node16&#45;&gt;Node19 -->
<g id="edge27" class="edge"><title>Node16&#45;&gt;Node19</title>
<path fill="none" stroke="midnightblue" d="M571.825,-201.475C586.88,-191.843 611.616,-176.017 629.537,-164.552"/>
<polygon fill="midnightblue" stroke="midnightblue" points="631.663,-167.347 638.2,-159.009 627.89,-161.45 631.663,-167.347"/>
</g>
<!-- Node16&#45;&gt;Node20 -->
<g id="edge28" class="edge"><title>Node16&#45;&gt;Node20</title>
<path fill="none" stroke="midnightblue" d="M538.585,-201.475C518.615,-192.927 487.25,-179.501 461.722,-168.573"/>
<polygon fill="midnightblue" stroke="midnightblue" points="462.83,-165.241 452.26,-164.523 460.075,-171.676 462.83,-165.241"/>
</g>
<!-- Node20&#45;&gt;Node3 -->
<g id="edge29" class="edge"><title>Node20&#45;&gt;Node3</title>
<path fill="none" stroke="midnightblue" d="M380.877,-134.396C349.092,-122.789 304.525,-106.515 274.414,-95.5192"/>
<polygon fill="midnightblue" stroke="midnightblue" points="275.39,-92.1495 264.796,-92.007 272.989,-98.7249 275.39,-92.1495"/>
</g>
<!-- Node20&#45;&gt;Node9 -->
<g id="edge30" class="edge"><title>Node20&#45;&gt;Node9</title>
<path fill="none" stroke="midnightblue" d="M489.929,-137.252C578.042,-123.18 725.427,-99.6419 792.002,-89.0096"/>
<polygon fill="midnightblue" stroke="midnightblue" points="792.648,-92.4507 801.971,-87.4174 791.544,-85.5383 792.648,-92.4507"/>
</g>
<!-- Node20&#45;&gt;Node14 -->
<g id="edge31" class="edge"><title>Node20&#45;&gt;Node14</title>
<path fill="none" stroke="midnightblue" d="M479.48,-134.476C535.603,-121.354 617.463,-102.214 663.243,-91.5098"/>
<polygon fill="midnightblue" stroke="midnightblue" points="664.314,-94.8538 673.255,-89.1689 662.72,-88.0376 664.314,-94.8538"/>
</g>
<!-- Node20&#45;&gt;Node17 -->
<g id="edge32" class="edge"><title>Node20&#45;&gt;Node17</title>
<path fill="none" stroke="midnightblue" d="M442.066,-134.396C459.507,-123.496 483.534,-108.479 500.966,-97.5835"/>
<polygon fill="midnightblue" stroke="midnightblue" points="503.264,-100.275 509.889,-92.007 499.554,-94.339 503.264,-100.275"/>
</g>
<!-- Node21 -->
<g id="node21" class="node"><title>Node21</title>
<g id="a_node21"><a xlink:title=" ">
<polygon fill="none" stroke="#bfbfbf" points="351,-67.5 351,-97.5 488,-97.5 488,-67.5 351,-67.5"/>
<text text-anchor="start" x="359" y="-85.5" font-family="Helvetica,sans-Serif" font-size="10.00">xercesc/framework/Memory</text>
<text text-anchor="middle" x="419.5" y="-74.5" font-family="Helvetica,sans-Serif" font-size="10.00">Manager.hpp</text>
</a>
</g>
</g>
<!-- Node20&#45;&gt;Node21 -->
<g id="edge33" class="edge"><title>Node20&#45;&gt;Node21</title>
<path fill="none" stroke="midnightblue" d="M419.5,-134.396C419.5,-126.645 419.5,-116.812 419.5,-107.86"/>
<polygon fill="midnightblue" stroke="midnightblue" points="423,-107.576 419.5,-97.5765 416,-107.577 423,-107.576"/>
</g>
<!-- Node22&#45;&gt;Node3 -->
<g id="edge35" class="edge"><title>Node22&#45;&gt;Node3</title>
<path fill="none" stroke="midnightblue" d="M652.348,-202.001C543.018,-189.499 344.033,-166.582 340.5,-165 321.535,-156.507 321.441,-147.33 305.5,-134 290.856,-121.754 273.878,-108.394 261.089,-98.4933"/>
<polygon fill="midnightblue" stroke="midnightblue" points="263.043,-95.58 252.986,-92.2477 258.77,-101.124 263.043,-95.58"/>
</g>
<!-- Node22&#45;&gt;Node9 -->
<g id="edge38" class="edge"><title>Node22&#45;&gt;Node9</title>
<path fill="none" stroke="midnightblue" d="M750.272,-201.494C768.545,-194.511 791.576,-182.827 805.5,-165 819.733,-146.777 824.394,-119.94 825.878,-102.103"/>
<polygon fill="midnightblue" stroke="midnightblue" points="829.374,-102.274 826.457,-92.0889 822.386,-101.87 829.374,-102.274"/>
</g>
<!-- Node22&#45;&gt;Node11 -->
<g id="edge37" class="edge"><title>Node22&#45;&gt;Node11</title>
<path fill="none" stroke="midnightblue" d="M760.687,-201.476C797.304,-193.061 854.021,-179.398 902.5,-165 905.273,-164.176 908.135,-163.283 911,-162.358"/>
<polygon fill="midnightblue" stroke="midnightblue" points="912.251,-165.63 920.63,-159.146 910.036,-158.99 912.251,-165.63"/>
</g>
<!-- Node22&#45;&gt;Node14 -->
<g id="edge36" class="edge"><title>Node22&#45;&gt;Node14</title>
<path fill="none" stroke="midnightblue" d="M744.959,-201.382C760.269,-194.184 779.363,-182.288 788.5,-165 794.938,-152.819 795.49,-145.873 788.5,-134 776.211,-113.126 751.837,-100.265 731.406,-92.7498"/>
<polygon fill="midnightblue" stroke="midnightblue" points="732.357,-89.3766 721.763,-89.478 730.108,-96.0055 732.357,-89.3766"/>
</g>
<!-- Node22&#45;&gt;Node17 -->
<g id="edge39" class="edge"><title>Node22&#45;&gt;Node17</title>
<path fill="none" stroke="midnightblue" d="M731.646,-201.2C746.208,-186.125 771.377,-154.966 754.5,-134 729.16,-102.522 606.176,-89.5929 550.719,-85.2997"/>
<polygon fill="midnightblue" stroke="midnightblue" points="550.807,-81.7968 540.577,-84.5533 550.293,-88.7779 550.807,-81.7968"/>
</g>
<!-- Node22&#45;&gt;Node18 -->
<g id="edge40" class="edge"><title>Node22&#45;&gt;Node18</title>
<path fill="none" stroke="midnightblue" d="M722.5,-201.475C722.5,-193.08 722.5,-179.981 722.5,-169.163"/>
<polygon fill="midnightblue" stroke="midnightblue" points="726,-169.009 722.5,-159.009 719,-169.009 726,-169.009"/>
</g>
<!-- Node22&#45;&gt;Node19 -->
<g id="edge41" class="edge"><title>Node22&#45;&gt;Node19</title>
<path fill="none" stroke="midnightblue" d="M712.327,-201.475C701.15,-192.108 682.983,-176.884 669.409,-165.508"/>
<polygon fill="midnightblue" stroke="midnightblue" points="671.566,-162.75 661.654,-159.009 667.07,-168.115 671.566,-162.75"/>
</g>
<!-- Node22&#45;&gt;Node20 -->
<g id="edge42" class="edge"><title>Node22&#45;&gt;Node20</title>
<path fill="none" stroke="midnightblue" d="M679.087,-201.475C632.468,-192.32 557.357,-177.571 499.895,-166.287"/>
<polygon fill="midnightblue" stroke="midnightblue" points="500.233,-162.787 489.746,-164.294 498.884,-169.656 500.233,-162.787"/>
</g>
<!-- Node23&#45;&gt;Node8 -->
<g id="edge46" class="edge"><title>Node23&#45;&gt;Node8</title>
<path fill="none" stroke="midnightblue" d="M186.197,-313.083C183.518,-305.849 179.651,-295.409 176.314,-286.397"/>
<polygon fill="midnightblue" stroke="midnightblue" points="179.496,-284.913 172.741,-276.751 172.932,-287.344 179.496,-284.913"/>
</g>
</g>
</svg>
        <g id="navigator" transform="translate(0 0)" fill="#404254">
                <rect fill="#f2f5e9" fill-opacity="0.5" stroke="#606060" stroke-width=".5" x="0" y="0" width="60" height="60"/>
                <use id="zoomplus" xlink:href="#zoomPlus" x="17" y="9" onmousedown="handleZoom(evt,'in')"/>
                <use id="zoomminus" xlink:href="#zoomMin" x="42" y="9" onmousedown="handleZoom(evt,'out')"/>
                <use id="reset" xlink:href="#resetDef" x="30" y="36" onmousedown="handleReset()"/>
                <g id="arrowUp" xlink:href="#dirArrow" transform="translate(30 24)" onmousedown="handlePan(0,-1)">
                  <use xlink:href="#rim" fill="#404040">
                        <set attributeName="fill" to="#808080" begin="arrowUp.mouseover" end="arrowUp.mouseout"/>
                  </use>
                  <path fill="none" stroke="white" stroke-width="1.5" d="M0,-3.0v7 M-2.5,-0.5L0,-3.0L2.5,-0.5"/>
                </g>
                <g id="arrowRight" xlink:href="#dirArrow" transform="rotate(90) translate(36 -43)" onmousedown="handlePan(1,0)">
                  <use xlink:href="#rim" fill="#404040">
                        <set attributeName="fill" to="#808080" begin="arrowRight.mouseover" end="arrowRight.mouseout"/>
                  </use>
                  <path fill="none" stroke="white" stroke-width="1.5" d="M0,-3.0v7 M-2.5,-0.5L0,-3.0L2.5,-0.5"/>
                </g>
                <g id="arrowDown" xlink:href="#dirArrow" transform="rotate(180) translate(-30 -48)" onmousedown="handlePan(0,1)">
                  <use xlink:href="#rim" fill="#404040">
                        <set attributeName="fill" to="#808080" begin="arrowDown.mouseover" end="arrowDown.mouseout"/>
                  </use>
                  <path fill="none" stroke="white" stroke-width="1.5" d="M0,-3.0v7 M-2.5,-0.5L0,-3.0L2.5,-0.5"/>
                </g>
                <g id="arrowLeft" xlink:href="#dirArrow" transform="rotate(270) translate(-36 17)" onmousedown="handlePan(-1,0)">
                  <use xlink:href="#rim" fill="#404040">
                        <set attributeName="fill" to="#808080" begin="arrowLeft.mouseover" end="arrowLeft.mouseout"/>
                  </use>
                  <path fill="none" stroke="white" stroke-width="1.5" d="M0,-3.0v7 M-2.5,-0.5L0,-3.0L2.5,-0.5"/>
                </g>
        </g>
        <svg viewBox="0 0 15 15" width="100%" height="30px" preserveAspectRatio="xMaxYMin meet">
         <g id="arrow_out" transform="scale(0.3 0.3)">
          <a xlink:href="XalanCollationServices_8hpp__incl_org.svg" target="_base">
           <rect id="button" ry="5" rx="5" y="6" x="6" height="38" width="38"
                fill="#f2f5e9" fill-opacity="0.5" stroke="#606060" stroke-width="1.0"/>
           <path id="arrow"
             d="M 11.500037,31.436501 C 11.940474,20.09759 22.043105,11.32322 32.158766,21.979434 L 37.068811,17.246167 C 37.068811,17.246167 37.088388,32 37.088388,32 L 22.160133,31.978069 C 22.160133,31.978069 26.997745,27.140456 26.997745,27.140456 C 18.528582,18.264221 13.291696,25.230495 11.500037,31.436501 z"
             style="fill:#404040;"/>
          </a>
         </g>
        </svg>
</svg>
