<?xml version="1.0" encoding="UTF-8" standalone="no"?>
<!DOCTYPE svg PUBLIC "-//W3C//DTD SVG 1.1//EN"
 "http://www.w3.org/Graphics/SVG/1.1/DTD/svg11.dtd">
<!-- Generated by graphviz version 2.43.0 (0)
 -->
<!-- Title: xalanc/PlatformSupport/XalanDecimalFormatSymbols.hpp Pages: 1 -->
<svg width="1133pt" height="475pt"
 viewBox="0.00 0.00 1133.00 475.00" xmlns="http://www.w3.org/2000/svg" xmlns:xlink="http://www.w3.org/1999/xlink">
<g id="graph0" class="graph" transform="scale(1 1) rotate(0) translate(4 471)">
<title>xalanc/PlatformSupport/XalanDecimalFormatSymbols.hpp</title>
<!-- Node1 -->
<g id="node1" class="node">
<title>Node1</title>
<g id="a_node1"><a xlink:title=" ">
<polygon fill="#bfbfbf" stroke="black" points="436.5,-436.5 436.5,-466.5 621.5,-466.5 621.5,-436.5 436.5,-436.5"/>
<text text-anchor="start" x="444.5" y="-454.5" font-family="Helvetica,sans-Serif" font-size="10.00">xalanc/PlatformSupport</text>
<text text-anchor="middle" x="529" y="-443.5" font-family="Helvetica,sans-Serif" font-size="10.00">/XalanDecimalFormatSymbols.hpp</text>
</a>
</g>
</g>
<!-- Node2 -->
<g id="node2" class="node">
<title>Node2</title>
<g id="a_node2"><a xlink:href="PlatformSupportDefinitions_8hpp.html" target="_top" xlink:title=" ">
<polygon fill="none" stroke="black" points="930.5,-369.5 930.5,-399.5 1103.5,-399.5 1103.5,-369.5 930.5,-369.5"/>
<text text-anchor="start" x="938.5" y="-387.5" font-family="Helvetica,sans-Serif" font-size="10.00">xalanc/PlatformSupport</text>
<text text-anchor="middle" x="1017" y="-376.5" font-family="Helvetica,sans-Serif" font-size="10.00">/PlatformSupportDefinitions.hpp</text>
</a>
</g>
</g>
<!-- Node1&#45;&gt;Node2 -->
<g id="edge1" class="edge">
<title>Node1&#45;&gt;Node2</title>
<path fill="none" stroke="midnightblue" d="M621.65,-438.16C707.14,-426.77 833.59,-409.93 920.33,-398.38"/>
<polygon fill="midnightblue" stroke="midnightblue" points="920.99,-401.82 930.44,-397.03 920.07,-394.88 920.99,-401.82"/>
</g>
<!-- Node7 -->
<g id="node7" class="node">
<title>Node7</title>
<g id="a_node7"><a xlink:title=" ">
<polygon fill="none" stroke="#bfbfbf" points="50,-73 50,-92 102,-92 102,-73 50,-73"/>
<text text-anchor="middle" x="76" y="-80" font-family="Helvetica,sans-Serif" font-size="10.00">cassert</text>
</a>
</g>
</g>
<!-- Node1&#45;&gt;Node7 -->
<g id="edge6" class="edge">
<title>Node1&#45;&gt;Node7</title>
<path fill="none" stroke="midnightblue" d="M436.25,-447.22C284.53,-439.31 0,-412.65 0,-324 0,-324 0,-324 0,-210 0,-164.62 36.38,-121.48 58.8,-99.2"/>
<polygon fill="midnightblue" stroke="midnightblue" points="61.28,-101.68 66.06,-92.23 56.43,-96.63 61.28,-101.68"/>
</g>
<!-- Node8 -->
<g id="node8" class="node">
<title>Node8</title>
<g id="a_node8"><a xlink:href="XalanDOMString_8hpp.html" target="_top" xlink:title=" ">
<polygon fill="none" stroke="black" points="425,-375 425,-394 633,-394 633,-375 425,-375"/>
<text text-anchor="middle" x="529" y="-382" font-family="Helvetica,sans-Serif" font-size="10.00">xalanc/XalanDOM/XalanDOMString.hpp</text>
</a>
</g>
</g>
<!-- Node1&#45;&gt;Node8 -->
<g id="edge7" class="edge">
<title>Node1&#45;&gt;Node8</title>
<path fill="none" stroke="midnightblue" d="M529,-436.4C529,-427.06 529,-414.71 529,-404.52"/>
<polygon fill="midnightblue" stroke="midnightblue" points="532.5,-404.19 529,-394.19 525.5,-404.19 532.5,-404.19"/>
</g>
<!-- Node3 -->
<g id="node3" class="node">
<title>Node3</title>
<g id="a_node3"><a xlink:href="PlatformDefinitions_8hpp.html" target="_top" xlink:title=" ">
<polygon fill="none" stroke="black" points="728,-73 728,-92 934,-92 934,-73 728,-73"/>
<text text-anchor="middle" x="831" y="-80" font-family="Helvetica,sans-Serif" font-size="10.00">xalanc/Include/PlatformDefinitions.hpp</text>
</a>
</g>
</g>
<!-- Node2&#45;&gt;Node3 -->
<g id="edge2" class="edge">
<title>Node2&#45;&gt;Node3</title>
<path fill="none" stroke="midnightblue" d="M1044.53,-369.44C1076.53,-350.92 1125,-315.08 1125,-268 1125,-268 1125,-268 1125,-210 1125,-127.9 1027.08,-98.43 944.26,-88.19"/>
<polygon fill="midnightblue" stroke="midnightblue" points="944.58,-84.7 934.24,-87.03 943.77,-91.66 944.58,-84.7"/>
</g>
<!-- Node4 -->
<g id="node4" class="node">
<title>Node4</title>
<g id="a_node4"><a xlink:title=" ">
<polygon fill="none" stroke="#bfbfbf" points="610,-0.5 610,-30.5 730,-30.5 730,-0.5 610,-0.5"/>
<text text-anchor="start" x="618" y="-18.5" font-family="Helvetica,sans-Serif" font-size="10.00">xercesc/util/Xerces</text>
<text text-anchor="middle" x="670" y="-7.5" font-family="Helvetica,sans-Serif" font-size="10.00">_autoconf_config.hpp</text>
</a>
</g>
</g>
<!-- Node3&#45;&gt;Node4 -->
<g id="edge3" class="edge">
<title>Node3&#45;&gt;Node4</title>
<path fill="none" stroke="midnightblue" d="M809.62,-72.87C785.36,-63.07 745.12,-46.83 714.06,-34.29"/>
<polygon fill="midnightblue" stroke="midnightblue" points="715.33,-31.03 704.75,-30.53 712.71,-37.52 715.33,-31.03"/>
</g>
<!-- Node5 -->
<g id="node5" class="node">
<title>Node5</title>
<g id="a_node5"><a xlink:title=" ">
<polygon fill="none" stroke="#bfbfbf" points="748.5,-6 748.5,-25 913.5,-25 913.5,-6 748.5,-6"/>
<text text-anchor="middle" x="831" y="-13" font-family="Helvetica,sans-Serif" font-size="10.00">xercesc/util/XercesVersion.hpp</text>
</a>
</g>
</g>
<!-- Node3&#45;&gt;Node5 -->
<g id="edge4" class="edge">
<title>Node3&#45;&gt;Node5</title>
<path fill="none" stroke="midnightblue" d="M831,-72.73C831,-63.18 831,-47.62 831,-35.28"/>
<polygon fill="midnightblue" stroke="midnightblue" points="834.5,-35.13 831,-25.13 827.5,-35.13 834.5,-35.13"/>
</g>
<!-- Node6 -->
<g id="node6" class="node">
<title>Node6</title>
<g id="a_node6"><a xlink:href="XalanVersion_8hpp.html" target="_top" xlink:title=" ">
<polygon fill="none" stroke="black" points="931.5,-6 931.5,-25 1106.5,-25 1106.5,-6 931.5,-6"/>
<text text-anchor="middle" x="1019" y="-13" font-family="Helvetica,sans-Serif" font-size="10.00">xalanc/Include/XalanVersion.hpp</text>
</a>
</g>
</g>
<!-- Node3&#45;&gt;Node6 -->
<g id="edge5" class="edge">
<title>Node3&#45;&gt;Node6</title>
<path fill="none" stroke="midnightblue" d="M855.96,-72.87C888.92,-61.47 947.12,-41.35 984.33,-28.49"/>
<polygon fill="midnightblue" stroke="midnightblue" points="985.92,-31.64 994.23,-25.06 983.64,-25.02 985.92,-31.64"/>
</g>
<!-- Node8&#45;&gt;Node7 -->
<g id="edge10" class="edge">
<title>Node8&#45;&gt;Node7</title>
<path fill="none" stroke="midnightblue" d="M424.87,-379.84C280.74,-371.9 38,-346.81 38,-268 38,-268 38,-268 38,-210 38,-169.85 55.78,-125.45 67.01,-101.39"/>
<polygon fill="midnightblue" stroke="midnightblue" points="70.29,-102.65 71.49,-92.13 63.99,-99.6 70.29,-102.65"/>
</g>
<!-- Node9 -->
<g id="node9" class="node">
<title>Node9</title>
<g id="a_node9"><a xlink:href="XalanDOMDefinitions_8hpp.html" target="_top" xlink:title=" ">
<polygon fill="none" stroke="black" points="865,-257.5 865,-276.5 1097,-276.5 1097,-257.5 865,-257.5"/>
<text text-anchor="middle" x="981" y="-264.5" font-family="Helvetica,sans-Serif" font-size="10.00">xalanc/XalanDOM/XalanDOMDefinitions.hpp</text>
</a>
</g>
</g>
<!-- Node8&#45;&gt;Node9 -->
<g id="edge8" class="edge">
<title>Node8&#45;&gt;Node9</title>
<path fill="none" stroke="midnightblue" d="M633.12,-384.2C745.18,-382.79 913.86,-373.65 962,-333 975.31,-321.76 979.58,-301.74 980.81,-286.88"/>
<polygon fill="midnightblue" stroke="midnightblue" points="984.31,-286.9 981.26,-276.76 977.32,-286.59 984.31,-286.9"/>
</g>
<!-- Node10 -->
<g id="node10" class="node">
<title>Node10</title>
<g id="a_node10"><a xlink:href="STLHelper_8hpp.html" target="_top" xlink:title=" ">
<polygon fill="none" stroke="black" points="547,-313.5 547,-332.5 707,-332.5 707,-313.5 547,-313.5"/>
<text text-anchor="middle" x="627" y="-320.5" font-family="Helvetica,sans-Serif" font-size="10.00">xalanc/Include/STLHelper.hpp</text>
</a>
</g>
</g>
<!-- Node8&#45;&gt;Node10 -->
<g id="edge11" class="edge">
<title>Node8&#45;&gt;Node10</title>
<path fill="none" stroke="midnightblue" d="M543.04,-374.98C559.05,-365.25 585.45,-349.23 604.37,-337.74"/>
<polygon fill="midnightblue" stroke="midnightblue" points="606.25,-340.69 612.99,-332.51 602.62,-334.71 606.25,-340.69"/>
</g>
<!-- Node16 -->
<g id="node16" class="node">
<title>Node16</title>
<g id="a_node16"><a xlink:href="XalanVector_8hpp.html" target="_top" xlink:title=" ">
<polygon fill="none" stroke="black" points="272.5,-201.5 272.5,-220.5 441.5,-220.5 441.5,-201.5 272.5,-201.5"/>
<text text-anchor="middle" x="357" y="-208.5" font-family="Helvetica,sans-Serif" font-size="10.00">xalanc/Include/XalanVector.hpp</text>
</a>
</g>
</g>
<!-- Node8&#45;&gt;Node16 -->
<g id="edge45" class="edge">
<title>Node8&#45;&gt;Node16</title>
<path fill="none" stroke="midnightblue" d="M520.23,-374.76C492.74,-347.35 407.94,-262.79 372.65,-227.61"/>
<polygon fill="midnightblue" stroke="midnightblue" points="375.1,-225.1 365.54,-220.52 370.15,-230.06 375.1,-225.1"/>
</g>
<!-- Node20 -->
<g id="node20" class="node">
<title>Node20</title>
<g id="a_node20"><a xlink:href="XalanMemoryManagement_8hpp.html" target="_top" xlink:title=" ">
<polygon fill="none" stroke="black" points="142,-134.5 142,-164.5 300,-164.5 300,-134.5 142,-134.5"/>
<text text-anchor="start" x="150" y="-152.5" font-family="Helvetica,sans-Serif" font-size="10.00">xalanc/Include/XalanMemory</text>
<text text-anchor="middle" x="221" y="-141.5" font-family="Helvetica,sans-Serif" font-size="10.00">Management.hpp</text>
</a>
</g>
</g>
<!-- Node8&#45;&gt;Node20 -->
<g id="edge44" class="edge">
<title>Node8&#45;&gt;Node20</title>
<path fill="none" stroke="midnightblue" d="M508.03,-374.93C459.85,-354.41 339.49,-298.34 263,-221 249.57,-207.42 238.69,-188.73 231.37,-174"/>
<polygon fill="midnightblue" stroke="midnightblue" points="234.33,-172.09 226.88,-164.56 228.01,-175.09 234.33,-172.09"/>
</g>
<!-- Node23 -->
<g id="node23" class="node">
<title>Node23</title>
<g id="a_node23"><a xlink:href="XalanDOMException_8hpp.html" target="_top" xlink:title=" ">
<polygon fill="none" stroke="black" points="725.5,-313.5 725.5,-332.5 952.5,-332.5 952.5,-313.5 725.5,-313.5"/>
<text text-anchor="middle" x="839" y="-320.5" font-family="Helvetica,sans-Serif" font-size="10.00">xalanc/XalanDOM/XalanDOMException.hpp</text>
</a>
</g>
</g>
<!-- Node8&#45;&gt;Node23 -->
<g id="edge46" class="edge">
<title>Node8&#45;&gt;Node23</title>
<path fill="none" stroke="midnightblue" d="M573.42,-374.98C629.12,-364.28 724.6,-345.96 784.62,-334.44"/>
<polygon fill="midnightblue" stroke="midnightblue" points="785.51,-337.83 794.67,-332.51 784.19,-330.96 785.51,-337.83"/>
</g>
<!-- Node9&#45;&gt;Node3 -->
<g id="edge9" class="edge">
<title>Node9&#45;&gt;Node3</title>
<path fill="none" stroke="midnightblue" d="M982.05,-257.45C984.37,-234.6 987.49,-171.35 957,-134 940.96,-114.35 916.14,-102.3 892.75,-94.93"/>
<polygon fill="midnightblue" stroke="midnightblue" points="893.42,-91.48 882.84,-92.05 891.47,-98.2 893.42,-91.48"/>
</g>
<!-- Node10&#45;&gt;Node3 -->
<g id="edge12" class="edge">
<title>Node10&#45;&gt;Node3</title>
<path fill="none" stroke="midnightblue" d="M659,-313.45C732.55,-293.48 908.53,-243.74 924,-221 954.49,-176.19 890,-123.02 853.62,-97.94"/>
<polygon fill="midnightblue" stroke="midnightblue" points="855.3,-94.86 845.05,-92.2 851.4,-100.68 855.3,-94.86"/>
</g>
<!-- Node11 -->
<g id="node11" class="node">
<title>Node11</title>
<g id="a_node11"><a xlink:title=" ">
<polygon fill="none" stroke="#bfbfbf" points="394,-140 394,-159 458,-159 458,-140 394,-140"/>
<text text-anchor="middle" x="426" y="-147" font-family="Helvetica,sans-Serif" font-size="10.00">algorithm</text>
</a>
</g>
</g>
<!-- Node10&#45;&gt;Node11 -->
<g id="edge13" class="edge">
<title>Node10&#45;&gt;Node11</title>
<path fill="none" stroke="midnightblue" d="M613.62,-313.3C588.49,-296.69 532.99,-258.76 491,-221 471.96,-203.88 452.33,-181.88 439.7,-167.05"/>
<polygon fill="midnightblue" stroke="midnightblue" points="442.24,-164.63 433.13,-159.23 436.89,-169.14 442.24,-164.63"/>
</g>
<!-- Node12 -->
<g id="node12" class="node">
<title>Node12</title>
<g id="a_node12"><a xlink:title=" ">
<polygon fill="none" stroke="#bfbfbf" points="849.5,-201.5 849.5,-220.5 914.5,-220.5 914.5,-201.5 849.5,-201.5"/>
<text text-anchor="middle" x="882" y="-208.5" font-family="Helvetica,sans-Serif" font-size="10.00">functional</text>
</a>
</g>
</g>
<!-- Node10&#45;&gt;Node12 -->
<g id="edge14" class="edge">
<title>Node10&#45;&gt;Node12</title>
<path fill="none" stroke="midnightblue" d="M652.3,-313.38C676.98,-304.8 715.44,-290.92 748,-277 786.54,-260.53 830,-238.86 856.69,-225.17"/>
<polygon fill="midnightblue" stroke="midnightblue" points="858.44,-228.21 865.73,-220.52 855.24,-221.99 858.44,-228.21"/>
</g>
<!-- Node13 -->
<g id="node13" class="node">
<title>Node13</title>
<g id="a_node13"><a xlink:href="XalanMap_8hpp.html" target="_top" xlink:title=" ">
<polygon fill="none" stroke="black" points="579,-257.5 579,-276.5 739,-276.5 739,-257.5 579,-257.5"/>
<text text-anchor="middle" x="659" y="-264.5" font-family="Helvetica,sans-Serif" font-size="10.00">xalanc/Include/XalanMap.hpp</text>
</a>
</g>
</g>
<!-- Node10&#45;&gt;Node13 -->
<g id="edge15" class="edge">
<title>Node10&#45;&gt;Node13</title>
<path fill="none" stroke="midnightblue" d="M632.28,-313.08C636.71,-305.61 643.16,-294.72 648.62,-285.52"/>
<polygon fill="midnightblue" stroke="midnightblue" points="651.73,-287.14 653.81,-276.75 645.71,-283.57 651.73,-287.14"/>
</g>
<!-- Node13&#45;&gt;Node3 -->
<g id="edge16" class="edge">
<title>Node13&#45;&gt;Node3</title>
<path fill="none" stroke="midnightblue" d="M735.22,-257.42C759.63,-251.02 784.77,-239.99 802,-221 832.1,-187.82 833.94,-131.5 832.58,-102.3"/>
<polygon fill="midnightblue" stroke="midnightblue" points="836.06,-101.98 831.92,-92.23 829.08,-102.43 836.06,-101.98"/>
</g>
<!-- Node13&#45;&gt;Node11 -->
<g id="edge18" class="edge">
<title>Node13&#45;&gt;Node11</title>
<path fill="none" stroke="midnightblue" d="M625.13,-257.46C597.59,-249.83 558.16,-237.34 526,-221 495.29,-205.39 463.36,-181.27 444.08,-165.68"/>
<polygon fill="midnightblue" stroke="midnightblue" points="446.11,-162.82 436.16,-159.18 441.67,-168.23 446.11,-162.82"/>
</g>
<!-- Node13&#45;&gt;Node12 -->
<g id="edge19" class="edge">
<title>Node13&#45;&gt;Node12</title>
<path fill="none" stroke="midnightblue" d="M694.34,-257.44C733.7,-247.91 797.34,-232.5 839.43,-222.31"/>
<polygon fill="midnightblue" stroke="midnightblue" points="840.47,-225.66 849.37,-219.9 838.83,-218.85 840.47,-225.66"/>
</g>
<!-- Node14 -->
<g id="node14" class="node">
<title>Node14</title>
<g id="a_node14"><a xlink:title=" ">
<polygon fill="none" stroke="#bfbfbf" points="507.5,-73 507.5,-92 560.5,-92 560.5,-73 507.5,-73"/>
<text text-anchor="middle" x="534" y="-80" font-family="Helvetica,sans-Serif" font-size="10.00">cstddef</text>
</a>
</g>
</g>
<!-- Node13&#45;&gt;Node14 -->
<g id="edge17" class="edge">
<title>Node13&#45;&gt;Node14</title>
<path fill="none" stroke="midnightblue" d="M669.97,-257.24C679.53,-248.97 692.93,-235.66 700,-221 716.88,-185.98 732.37,-165.07 709,-134 692.39,-111.92 616.89,-96.45 570.65,-88.86"/>
<polygon fill="midnightblue" stroke="midnightblue" points="571.13,-85.39 560.7,-87.27 570.02,-92.3 571.13,-85.39"/>
</g>
<!-- Node15 -->
<g id="node15" class="node">
<title>Node15</title>
<g id="a_node15"><a xlink:title=" ">
<polygon fill="none" stroke="#bfbfbf" points="747.5,-201.5 747.5,-220.5 792.5,-220.5 792.5,-201.5 747.5,-201.5"/>
<text text-anchor="middle" x="770" y="-208.5" font-family="Helvetica,sans-Serif" font-size="10.00">utility</text>
</a>
</g>
</g>
<!-- Node13&#45;&gt;Node15 -->
<g id="edge20" class="edge">
<title>Node13&#45;&gt;Node15</title>
<path fill="none" stroke="midnightblue" d="M676.83,-257.32C694.72,-248.62 722.48,-235.12 743.05,-225.11"/>
<polygon fill="midnightblue" stroke="midnightblue" points="744.75,-228.18 752.21,-220.65 741.69,-221.88 744.75,-228.18"/>
</g>
<!-- Node13&#45;&gt;Node16 -->
<g id="edge21" class="edge">
<title>Node13&#45;&gt;Node16</title>
<path fill="none" stroke="midnightblue" d="M611.15,-257.44C557.8,-247.9 471.56,-232.48 414.56,-222.29"/>
<polygon fill="midnightblue" stroke="midnightblue" points="415.09,-218.83 404.63,-220.52 413.86,-225.72 415.09,-218.83"/>
</g>
<!-- Node22 -->
<g id="node22" class="node">
<title>Node22</title>
<g id="a_node22"><a xlink:href="XalanList_8hpp.html" target="_top" xlink:title=" ">
<polygon fill="none" stroke="black" points="535,-201.5 535,-220.5 691,-220.5 691,-201.5 535,-201.5"/>
<text text-anchor="middle" x="613" y="-208.5" font-family="Helvetica,sans-Serif" font-size="10.00">xalanc/Include/XalanList.hpp</text>
</a>
</g>
</g>
<!-- Node13&#45;&gt;Node22 -->
<g id="edge35" class="edge">
<title>Node13&#45;&gt;Node22</title>
<path fill="none" stroke="midnightblue" d="M651.4,-257.08C644.77,-249.3 634.98,-237.8 626.94,-228.37"/>
<polygon fill="midnightblue" stroke="midnightblue" points="629.6,-226.09 620.45,-220.75 624.27,-230.63 629.6,-226.09"/>
</g>
<!-- Node16&#45;&gt;Node3 -->
<g id="edge22" class="edge">
<title>Node16&#45;&gt;Node3</title>
<path fill="none" stroke="midnightblue" d="M357.39,-201.25C358.63,-185.08 363.76,-150.67 385,-134 410.7,-113.84 594.04,-98.42 717.51,-90.19"/>
<polygon fill="midnightblue" stroke="midnightblue" points="718.03,-93.66 727.78,-89.51 717.57,-86.68 718.03,-93.66"/>
</g>
<!-- Node16&#45;&gt;Node7 -->
<g id="edge25" class="edge">
<title>Node16&#45;&gt;Node7</title>
<path fill="none" stroke="midnightblue" d="M274.56,-201.47C217.28,-194.19 147.09,-182.16 123,-165 101.21,-149.48 88.07,-120.47 81.42,-101.57"/>
<polygon fill="midnightblue" stroke="midnightblue" points="84.74,-100.45 78.31,-92.03 78.08,-102.62 84.74,-100.45"/>
</g>
<!-- Node16&#45;&gt;Node11 -->
<g id="edge24" class="edge">
<title>Node16&#45;&gt;Node11</title>
<path fill="none" stroke="midnightblue" d="M366.89,-201.48C377.65,-192.2 395.07,-177.17 408.22,-165.83"/>
<polygon fill="midnightblue" stroke="midnightblue" points="410.84,-168.19 416.13,-159.01 406.27,-162.89 410.84,-168.19"/>
</g>
<!-- Node16&#45;&gt;Node14 -->
<g id="edge23" class="edge">
<title>Node16&#45;&gt;Node14</title>
<path fill="none" stroke="midnightblue" d="M353.14,-201.44C346.91,-186.18 336.79,-154 352,-134 369.52,-110.96 449.43,-95.68 497.35,-88.42"/>
<polygon fill="midnightblue" stroke="midnightblue" points="497.96,-91.86 507.34,-86.95 496.94,-84.94 497.96,-91.86"/>
</g>
<!-- Node17 -->
<g id="node17" class="node">
<title>Node17</title>
<g id="a_node17"><a xlink:title=" ">
<polygon fill="none" stroke="#bfbfbf" points="303.5,-73 303.5,-92 340.5,-92 340.5,-73 303.5,-73"/>
<text text-anchor="middle" x="322" y="-80" font-family="Helvetica,sans-Serif" font-size="10.00">new</text>
</a>
</g>
</g>
<!-- Node16&#45;&gt;Node17 -->
<g id="edge26" class="edge">
<title>Node16&#45;&gt;Node17</title>
<path fill="none" stroke="midnightblue" d="M272.43,-203.98C216.64,-198.05 150.69,-186.6 133,-165 124.27,-154.34 124.39,-144.75 133,-134 178.84,-76.78 225.1,-123.07 294,-98 295.24,-97.55 296.5,-97.05 297.76,-96.52"/>
<polygon fill="midnightblue" stroke="midnightblue" points="299.66,-99.5 307.21,-92.06 296.67,-93.17 299.66,-99.5"/>
</g>
<!-- Node18 -->
<g id="node18" class="node">
<title>Node18</title>
<g id="a_node18"><a xlink:title=" ">
<polygon fill="none" stroke="#bfbfbf" points="559.5,-140 559.5,-159 612.5,-159 612.5,-140 559.5,-140"/>
<text text-anchor="middle" x="586" y="-147" font-family="Helvetica,sans-Serif" font-size="10.00">iterator</text>
</a>
</g>
</g>
<!-- Node16&#45;&gt;Node18 -->
<g id="edge27" class="edge">
<title>Node16&#45;&gt;Node18</title>
<path fill="none" stroke="midnightblue" d="M403.44,-201.47C443.11,-193.65 501.45,-180.89 551,-165 553.14,-164.31 555.33,-163.55 557.52,-162.75"/>
<polygon fill="midnightblue" stroke="midnightblue" points="558.92,-165.96 566.96,-159.06 556.37,-159.44 558.92,-165.96"/>
</g>
<!-- Node19 -->
<g id="node19" class="node">
<title>Node19</title>
<g id="a_node19"><a xlink:title=" ">
<polygon fill="none" stroke="#bfbfbf" points="476.5,-140 476.5,-159 541.5,-159 541.5,-140 476.5,-140"/>
<text text-anchor="middle" x="509" y="-147" font-family="Helvetica,sans-Serif" font-size="10.00">stdexcept</text>
</a>
</g>
</g>
<!-- Node16&#45;&gt;Node19 -->
<g id="edge28" class="edge">
<title>Node16&#45;&gt;Node19</title>
<path fill="none" stroke="midnightblue" d="M378.78,-201.48C404.74,-191.31 448.31,-174.26 477.83,-162.7"/>
<polygon fill="midnightblue" stroke="midnightblue" points="479.23,-165.91 487.26,-159.01 476.67,-159.4 479.23,-165.91"/>
</g>
<!-- Node16&#45;&gt;Node20 -->
<g id="edge29" class="edge">
<title>Node16&#45;&gt;Node20</title>
<path fill="none" stroke="midnightblue" d="M337.51,-201.48C317.98,-192.93 287.29,-179.5 262.31,-168.57"/>
<polygon fill="midnightblue" stroke="midnightblue" points="263.62,-165.32 253.05,-164.52 260.81,-171.74 263.62,-165.32"/>
</g>
<!-- Node20&#45;&gt;Node3 -->
<g id="edge30" class="edge">
<title>Node20&#45;&gt;Node3</title>
<path fill="none" stroke="midnightblue" d="M300.31,-139.65C317.36,-137.77 335.28,-135.81 352,-134 486.49,-119.47 642.29,-103.14 738.76,-93.08"/>
<polygon fill="midnightblue" stroke="midnightblue" points="739.19,-96.56 748.77,-92.04 738.46,-89.59 739.19,-96.56"/>
</g>
<!-- Node20&#45;&gt;Node7 -->
<g id="edge31" class="edge">
<title>Node20&#45;&gt;Node7</title>
<path fill="none" stroke="midnightblue" d="M189.54,-134.4C164.1,-122.99 128.6,-107.08 104.1,-96.1"/>
<polygon fill="midnightblue" stroke="midnightblue" points="105.53,-92.9 94.98,-92.01 102.67,-99.29 105.53,-92.9"/>
</g>
<!-- Node20&#45;&gt;Node14 -->
<g id="edge32" class="edge">
<title>Node20&#45;&gt;Node14</title>
<path fill="none" stroke="midnightblue" d="M288.53,-134.48C352.59,-121.17 446.43,-101.69 497.53,-91.07"/>
<polygon fill="midnightblue" stroke="midnightblue" points="498.38,-94.47 507.46,-89.01 496.96,-87.62 498.38,-94.47"/>
</g>
<!-- Node20&#45;&gt;Node17 -->
<g id="edge33" class="edge">
<title>Node20&#45;&gt;Node17</title>
<path fill="none" stroke="midnightblue" d="M242.92,-134.4C259.85,-123.5 283.19,-108.48 300.12,-97.58"/>
<polygon fill="midnightblue" stroke="midnightblue" points="302.27,-100.36 308.78,-92.01 298.48,-94.48 302.27,-100.36"/>
</g>
<!-- Node21 -->
<g id="node21" class="node">
<title>Node21</title>
<g id="a_node21"><a xlink:title=" ">
<polygon fill="none" stroke="#bfbfbf" points="132.5,-67.5 132.5,-97.5 285.5,-97.5 285.5,-67.5 132.5,-67.5"/>
<text text-anchor="start" x="140.5" y="-85.5" font-family="Helvetica,sans-Serif" font-size="10.00">xercesc/framework/Memory</text>
<text text-anchor="middle" x="209" y="-74.5" font-family="Helvetica,sans-Serif" font-size="10.00">Manager.hpp</text>
</a>
</g>
</g>
<!-- Node20&#45;&gt;Node21 -->
<g id="edge34" class="edge">
<title>Node20&#45;&gt;Node21</title>
<path fill="none" stroke="midnightblue" d="M218.4,-134.4C216.95,-126.56 215.11,-116.6 213.44,-107.57"/>
<polygon fill="midnightblue" stroke="midnightblue" points="216.86,-106.77 211.6,-97.58 209.97,-108.05 216.86,-106.77"/>
</g>
<!-- Node22&#45;&gt;Node3 -->
<g id="edge36" class="edge">
<title>Node22&#45;&gt;Node3</title>
<path fill="none" stroke="midnightblue" d="M633.67,-201.39C653.43,-192.91 683.83,-179.2 709,-165 746.38,-143.91 787.4,-115.28 811.08,-98.17"/>
<polygon fill="midnightblue" stroke="midnightblue" points="813.23,-100.93 819.26,-92.22 809.11,-95.27 813.23,-100.93"/>
</g>
<!-- Node22&#45;&gt;Node7 -->
<g id="edge39" class="edge">
<title>Node22&#45;&gt;Node7</title>
<path fill="none" stroke="midnightblue" d="M617.79,-201.38C625.77,-185.74 639.29,-152.58 622,-134 584.13,-93.3 177.63,-108.26 123,-98 118.75,-97.2 114.34,-96.15 110.01,-94.98"/>
<polygon fill="midnightblue" stroke="midnightblue" points="110.71,-91.54 100.13,-92.09 108.75,-98.26 110.71,-91.54"/>
</g>
<!-- Node22&#45;&gt;Node11 -->
<g id="edge38" class="edge">
<title>Node22&#45;&gt;Node11</title>
<path fill="none" stroke="midnightblue" d="M584.08,-201.47C554.54,-192.66 507.42,-178.37 467,-165 464.55,-164.19 462.03,-163.34 459.5,-162.47"/>
<polygon fill="midnightblue" stroke="midnightblue" points="460.39,-159.08 449.79,-159.1 458.09,-165.69 460.39,-159.08"/>
</g>
<!-- Node22&#45;&gt;Node14 -->
<g id="edge37" class="edge">
<title>Node22&#45;&gt;Node14</title>
<path fill="none" stroke="midnightblue" d="M643.25,-201.49C661.13,-194.73 682.3,-183.29 693,-165 699.96,-153.11 701.14,-145.12 693,-134 665.1,-95.86 608.17,-85.82 570.56,-83.56"/>
<polygon fill="midnightblue" stroke="midnightblue" points="570.65,-80.06 560.5,-83.11 570.33,-87.05 570.65,-80.06"/>
</g>
<!-- Node22&#45;&gt;Node17 -->
<g id="edge40" class="edge">
<title>Node22&#45;&gt;Node17</title>
<path fill="none" stroke="midnightblue" d="M624.23,-201.31C642.17,-186.4 673.48,-155.49 655,-134 635.2,-110.97 428.27,-92.07 350.94,-85.75"/>
<polygon fill="midnightblue" stroke="midnightblue" points="351.17,-82.26 340.92,-84.95 350.61,-89.24 351.17,-82.26"/>
</g>
<!-- Node22&#45;&gt;Node18 -->
<g id="edge41" class="edge">
<title>Node22&#45;&gt;Node18</title>
<path fill="none" stroke="midnightblue" d="M609.13,-201.48C605.2,-192.82 599,-179.15 594.01,-168.15"/>
<polygon fill="midnightblue" stroke="midnightblue" points="597.18,-166.67 589.86,-159.01 590.81,-169.56 597.18,-166.67"/>
</g>
<!-- Node22&#45;&gt;Node19 -->
<g id="edge42" class="edge">
<title>Node22&#45;&gt;Node19</title>
<path fill="none" stroke="midnightblue" d="M598.1,-201.48C581.03,-191.71 552.84,-175.58 532.74,-164.08"/>
<polygon fill="midnightblue" stroke="midnightblue" points="534.29,-160.94 523.87,-159.01 530.81,-167.01 534.29,-160.94"/>
</g>
<!-- Node22&#45;&gt;Node20 -->
<g id="edge43" class="edge">
<title>Node22&#45;&gt;Node20</title>
<path fill="none" stroke="midnightblue" d="M556.84,-201.48C492.41,-191.7 385.92,-175.53 310.13,-164.03"/>
<polygon fill="midnightblue" stroke="midnightblue" points="310.53,-160.55 300.11,-162.51 309.47,-167.47 310.53,-160.55"/>
</g>
<!-- Node23&#45;&gt;Node9 -->
<g id="edge47" class="edge">
<title>Node23&#45;&gt;Node9</title>
<path fill="none" stroke="midnightblue" d="M861.5,-313.44C885.08,-304.48 922.32,-290.31 948.96,-280.18"/>
<polygon fill="midnightblue" stroke="midnightblue" points="950.5,-283.34 958.6,-276.52 948.01,-276.8 950.5,-283.34"/>
</g>
</g>
</svg>
