<?xml version="1.0" encoding="UTF-8" standalone="no"?>
<!DOCTYPE svg PUBLIC "-//W3C//DTD SVG 1.1//EN"
 "http://www.w3.org/Graphics/SVG/1.1/DTD/svg11.dtd">
<!-- Generated by graphviz version 2.38.0 (20140413.2041)
 -->
<!-- Title: xalanc/XalanDOM/XalanEntity.hpp Pages: 1 -->
<svg width="336pt" height="95pt"
 viewBox="0.00 0.00 336.00 95.00" xmlns="http://www.w3.org/2000/svg" xmlns:xlink="http://www.w3.org/1999/xlink">
<g id="graph0" class="graph" transform="scale(1 1) rotate(0) translate(4 91)">
<title>xalanc/XalanDOM/XalanEntity.hpp</title>
<!-- Node1 -->
<g id="node1" class="node"><title>Node1</title>
<g id="a_node1"><a xlink:title=" ">
<polygon fill="#bfbfbf" stroke="black" points="90.5,-67.5 90.5,-86.5 254.5,-86.5 254.5,-67.5 90.5,-67.5"/>
<text text-anchor="middle" x="172.5" y="-74.5" font-family="Helvetica,sans-Serif" font-size="10.00">xalanc/XalanDOM/XalanEntity.hpp</text>
</a>
</g>
</g>
<!-- Node2 -->
<g id="node2" class="node"><title>Node2</title>
<g id="a_node2"><a xlink:href="XercesEntityBridge_8hpp.html" target="_top" xlink:title=" ">
<polygon fill="none" stroke="black" points="0,-0.5 0,-30.5 173,-30.5 173,-0.5 0,-0.5"/>
<text text-anchor="start" x="8" y="-18.5" font-family="Helvetica,sans-Serif" font-size="10.00">xalanc/XercesParserLiaison</text>
<text text-anchor="middle" x="86.5" y="-7.5" font-family="Helvetica,sans-Serif" font-size="10.00">/Deprecated/XercesEntityBridge.hpp</text>
</a>
</g>
</g>
<!-- Node1&#45;&gt;Node2 -->
<g id="edge1" class="edge"><title>Node1&#45;&gt;Node2</title>
<path fill="none" stroke="midnightblue" d="M151.887,-61.739C138.219,-52.2824 120.366,-39.9304 106.768,-30.523"/>
<polygon fill="midnightblue" stroke="midnightblue" points="149.963,-64.6637 160.178,-67.4751 153.946,-58.9072 149.963,-64.6637"/>
</g>
<!-- Node3 -->
<g id="node3" class="node"><title>Node3</title>
<g id="a_node3"><a xlink:href="XercesEntityWrapper_8hpp.html" target="_top" xlink:title=" ">
<polygon fill="none" stroke="black" points="191,-0.5 191,-30.5 328,-30.5 328,-0.5 191,-0.5"/>
<text text-anchor="start" x="199" y="-18.5" font-family="Helvetica,sans-Serif" font-size="10.00">xalanc/XercesParserLiaison</text>
<text text-anchor="middle" x="259.5" y="-7.5" font-family="Helvetica,sans-Serif" font-size="10.00">/XercesEntityWrapper.hpp</text>
</a>
</g>
</g>
<!-- Node1&#45;&gt;Node3 -->
<g id="edge2" class="edge"><title>Node1&#45;&gt;Node3</title>
<path fill="none" stroke="midnightblue" d="M193.352,-61.739C207.179,-52.2824 225.24,-39.9304 238.996,-30.523"/>
<polygon fill="midnightblue" stroke="midnightblue" points="191.243,-58.9409 184.965,-67.4751 195.195,-64.7189 191.243,-58.9409"/>
</g>
</g>
</svg>
