<?xml version="1.0" encoding="UTF-8" standalone="no"?>
<!DOCTYPE svg PUBLIC "-//W3C//DTD SVG 1.1//EN"
 "http://www.w3.org/Graphics/SVG/1.1/DTD/svg11.dtd">
<!-- Generated by graphviz version 2.38.0 (20140413.2041)
 -->
<!-- Title: xalanc/XSLT/XalanAVTPartSimpleAllocator.hpp Pages: 1 -->
<svg width="1372pt" height="542pt"
 viewBox="0.00 0.00 1372.00 542.00" xmlns="http://www.w3.org/2000/svg" xmlns:xlink="http://www.w3.org/1999/xlink">
<g id="graph0" class="graph" transform="scale(1 1) rotate(0) translate(4 538)">
<title>xalanc/XSLT/XalanAVTPartSimpleAllocator.hpp</title>
<!-- Node1 -->
<g id="node1" class="node"><title>Node1</title>
<g id="a_node1"><a xlink:title=" ">
<polygon fill="#bfbfbf" stroke="black" points="185,-503.5 185,-533.5 319,-533.5 319,-503.5 185,-503.5"/>
<text text-anchor="start" x="193" y="-521.5" font-family="Helvetica,sans-Serif" font-size="10.00">xalanc/XSLT/XalanAVTPart</text>
<text text-anchor="middle" x="252" y="-510.5" font-family="Helvetica,sans-Serif" font-size="10.00">SimpleAllocator.hpp</text>
</a>
</g>
</g>
<!-- Node2 -->
<g id="node2" class="node"><title>Node2</title>
<g id="a_node2"><a xlink:href="XSLTDefinitions_8hpp.html" target="_top" xlink:title=" ">
<polygon fill="none" stroke="black" points="0,-324.5 0,-343.5 160,-343.5 160,-324.5 0,-324.5"/>
<text text-anchor="middle" x="80" y="-331.5" font-family="Helvetica,sans-Serif" font-size="10.00">xalanc/XSLT/XSLTDefinitions.hpp</text>
</a>
</g>
</g>
<!-- Node1&#45;&gt;Node2 -->
<g id="edge1" class="edge"><title>Node1&#45;&gt;Node2</title>
<path fill="none" stroke="midnightblue" d="M249.667,-503.391C244.282,-475.422 228.298,-412.824 189,-380 170.484,-364.535 145.919,-353.772 124.797,-346.66"/>
<polygon fill="midnightblue" stroke="midnightblue" points="125.65,-343.258 115.059,-343.551 123.521,-349.927 125.65,-343.258"/>
</g>
<!-- Node7 -->
<g id="node7" class="node"><title>Node7</title>
<g id="a_node7"><a xlink:href="AVTPartSimple_8hpp.html" target="_top" xlink:title=" ">
<polygon fill="none" stroke="black" points="64.5,-447.5 64.5,-466.5 223.5,-466.5 223.5,-447.5 64.5,-447.5"/>
<text text-anchor="middle" x="144" y="-454.5" font-family="Helvetica,sans-Serif" font-size="10.00">xalanc/XSLT/AVTPartSimple.hpp</text>
</a>
</g>
</g>
<!-- Node1&#45;&gt;Node7 -->
<g id="edge6" class="edge"><title>Node1&#45;&gt;Node7</title>
<path fill="none" stroke="midnightblue" d="M226.406,-503.399C208.932,-493.773 185.912,-481.09 168.644,-471.577"/>
<polygon fill="midnightblue" stroke="midnightblue" points="170.163,-468.418 159.715,-466.658 166.785,-474.549 170.163,-468.418"/>
</g>
<!-- Node26 -->
<g id="node26" class="node"><title>Node26</title>
<g id="a_node26"><a xlink:href="ArenaAllocator_8hpp.html" target="_top" xlink:title=" ">
<polygon fill="none" stroke="black" points="822,-380.5 822,-410.5 940,-410.5 940,-380.5 822,-380.5"/>
<text text-anchor="start" x="830" y="-398.5" font-family="Helvetica,sans-Serif" font-size="10.00">xalanc/PlatformSupport</text>
<text text-anchor="middle" x="881" y="-387.5" font-family="Helvetica,sans-Serif" font-size="10.00">/ArenaAllocator.hpp</text>
</a>
</g>
</g>
<!-- Node1&#45;&gt;Node26 -->
<g id="edge51" class="edge"><title>Node1&#45;&gt;Node26</title>
<path fill="none" stroke="midnightblue" d="M319.016,-504.608C439.248,-481.479 690.369,-433.171 812.015,-409.771"/>
<polygon fill="midnightblue" stroke="midnightblue" points="812.803,-413.183 821.961,-407.857 811.48,-406.309 812.803,-413.183"/>
</g>
<!-- Node3 -->
<g id="node3" class="node"><title>Node3</title>
<g id="a_node3"><a xlink:href="PlatformDefinitions_8hpp.html" target="_top" xlink:title=" ">
<polygon fill="none" stroke="black" points="352,-73 352,-92 534,-92 534,-73 352,-73"/>
<text text-anchor="middle" x="443" y="-80" font-family="Helvetica,sans-Serif" font-size="10.00">xalanc/Include/PlatformDefinitions.hpp</text>
</a>
</g>
</g>
<!-- Node2&#45;&gt;Node3 -->
<g id="edge2" class="edge"><title>Node2&#45;&gt;Node3</title>
<path fill="none" stroke="midnightblue" d="M89.876,-324.274C123.333,-294.975 236.103,-198.354 340,-134 363.678,-119.334 392.225,-105.621 413.254,-96.1961"/>
<polygon fill="midnightblue" stroke="midnightblue" points="414.898,-99.2965 422.631,-92.0544 412.069,-92.8934 414.898,-99.2965"/>
</g>
<!-- Node4 -->
<g id="node4" class="node"><title>Node4</title>
<g id="a_node4"><a xlink:title=" ">
<polygon fill="none" stroke="#bfbfbf" points="241,-0.5 241,-30.5 349,-30.5 349,-0.5 241,-0.5"/>
<text text-anchor="start" x="249" y="-18.5" font-family="Helvetica,sans-Serif" font-size="10.00">xercesc/util/Xerces</text>
<text text-anchor="middle" x="295" y="-7.5" font-family="Helvetica,sans-Serif" font-size="10.00">_autoconf_config.hpp</text>
</a>
</g>
</g>
<!-- Node3&#45;&gt;Node4 -->
<g id="edge3" class="edge"><title>Node3&#45;&gt;Node4</title>
<path fill="none" stroke="midnightblue" d="M423.347,-72.8685C401.235,-63.1572 364.695,-47.1092 336.246,-34.6148"/>
<polygon fill="midnightblue" stroke="midnightblue" points="337.504,-31.3447 326.941,-30.5281 334.689,-37.7539 337.504,-31.3447"/>
</g>
<!-- Node5 -->
<g id="node5" class="node"><title>Node5</title>
<g id="a_node5"><a xlink:title=" ">
<polygon fill="none" stroke="#bfbfbf" points="367.5,-6 367.5,-25 518.5,-25 518.5,-6 367.5,-6"/>
<text text-anchor="middle" x="443" y="-13" font-family="Helvetica,sans-Serif" font-size="10.00">xercesc/util/XercesVersion.hpp</text>
</a>
</g>
</g>
<!-- Node3&#45;&gt;Node5 -->
<g id="edge4" class="edge"><title>Node3&#45;&gt;Node5</title>
<path fill="none" stroke="midnightblue" d="M443,-72.7338C443,-63.1826 443,-47.6183 443,-35.2829"/>
<polygon fill="midnightblue" stroke="midnightblue" points="446.5,-35.1273 443,-25.1273 439.5,-35.1273 446.5,-35.1273"/>
</g>
<!-- Node6 -->
<g id="node6" class="node"><title>Node6</title>
<g id="a_node6"><a xlink:href="XalanVersion_8hpp.html" target="_top" xlink:title=" ">
<polygon fill="none" stroke="black" points="537,-6 537,-25 629,-25 629,-6 537,-6"/>
<text text-anchor="middle" x="583" y="-13" font-family="Helvetica,sans-Serif" font-size="10.00">XalanVersion.hpp</text>
</a>
</g>
</g>
<!-- Node3&#45;&gt;Node6 -->
<g id="edge5" class="edge"><title>Node3&#45;&gt;Node6</title>
<path fill="none" stroke="midnightblue" d="M461.591,-72.8685C485.544,-61.7476 527.395,-42.3167 555.154,-29.4286"/>
<polygon fill="midnightblue" stroke="midnightblue" points="556.736,-32.5529 564.332,-25.1672 553.788,-26.2038 556.736,-32.5529"/>
</g>
<!-- Node7&#45;&gt;Node2 -->
<g id="edge7" class="edge"><title>Node7&#45;&gt;Node2</title>
<path fill="none" stroke="midnightblue" d="M132.254,-447.313C121.965,-439.083 107.383,-425.806 99,-411 88.8627,-393.096 84.0715,-369.812 81.848,-353.759"/>
<polygon fill="midnightblue" stroke="midnightblue" points="85.2888,-353.05 80.643,-343.529 78.3368,-353.869 85.2888,-353.05"/>
</g>
<!-- Node8 -->
<g id="node8" class="node"><title>Node8</title>
<g id="a_node8"><a xlink:href="XalanDOMString_8hpp.html" target="_top" xlink:title=" ">
<polygon fill="none" stroke="black" points="356.5,-386 356.5,-405 543.5,-405 543.5,-386 356.5,-386"/>
<text text-anchor="middle" x="450" y="-393" font-family="Helvetica,sans-Serif" font-size="10.00">xalanc/XalanDOM/XalanDOMString.hpp</text>
</a>
</g>
</g>
<!-- Node7&#45;&gt;Node8 -->
<g id="edge8" class="edge"><title>Node7&#45;&gt;Node8</title>
<path fill="none" stroke="midnightblue" d="M187.842,-447.475C242.832,-436.783 337.074,-418.458 396.322,-406.937"/>
<polygon fill="midnightblue" stroke="midnightblue" points="397.091,-410.354 406.239,-405.009 395.755,-403.482 397.091,-410.354"/>
</g>
<!-- Node25 -->
<g id="node25" class="node"><title>Node25</title>
<g id="a_node25"><a xlink:href="AVTPart_8hpp.html" target="_top" xlink:title=" ">
<polygon fill="none" stroke="black" points="108,-386 108,-405 180,-405 180,-386 108,-386"/>
<text text-anchor="middle" x="144" y="-393" font-family="Helvetica,sans-Serif" font-size="10.00">AVTPart.hpp</text>
</a>
</g>
</g>
<!-- Node7&#45;&gt;Node25 -->
<g id="edge49" class="edge"><title>Node7&#45;&gt;Node25</title>
<path fill="none" stroke="midnightblue" d="M144,-447.475C144,-439.08 144,-425.981 144,-415.163"/>
<polygon fill="midnightblue" stroke="midnightblue" points="147.5,-415.009 144,-405.009 140.5,-415.009 147.5,-415.009"/>
</g>
<!-- Node9 -->
<g id="node9" class="node"><title>Node9</title>
<g id="a_node9"><a xlink:href="XalanDOMDefinitions_8hpp.html" target="_top" xlink:title=" ">
<polygon fill="none" stroke="black" points="216,-263 216,-282 422,-282 422,-263 216,-263"/>
<text text-anchor="middle" x="319" y="-270" font-family="Helvetica,sans-Serif" font-size="10.00">xalanc/XalanDOM/XalanDOMDefinitions.hpp</text>
</a>
</g>
</g>
<!-- Node8&#45;&gt;Node9 -->
<g id="edge9" class="edge"><title>Node8&#45;&gt;Node9</title>
<path fill="none" stroke="midnightblue" d="M443.91,-385.593C434.035,-371.527 413.461,-343.745 392,-324 376.785,-310.002 357.47,-296.807 342.529,-287.417"/>
<polygon fill="midnightblue" stroke="midnightblue" points="344.219,-284.347 333.868,-282.089 340.552,-290.31 344.219,-284.347"/>
</g>
<!-- Node10 -->
<g id="node10" class="node"><title>Node10</title>
<g id="a_node10"><a xlink:title=" ">
<polygon fill="none" stroke="#bfbfbf" points="760.5,-73 760.5,-92 809.5,-92 809.5,-73 760.5,-73"/>
<text text-anchor="middle" x="785" y="-80" font-family="Helvetica,sans-Serif" font-size="10.00">cassert</text>
</a>
</g>
</g>
<!-- Node8&#45;&gt;Node10 -->
<g id="edge11" class="edge"><title>Node8&#45;&gt;Node10</title>
<path fill="none" stroke="midnightblue" d="M450.085,-385.89C450.964,-348.526 459.861,-199.387 545,-134 618.712,-77.3883 661.887,-124.405 751,-98 753.15,-97.3631 755.346,-96.6299 757.536,-95.8387"/>
<polygon fill="midnightblue" stroke="midnightblue" points="758.925,-99.053 766.933,-92.1161 756.347,-92.5449 758.925,-99.053"/>
</g>
<!-- Node11 -->
<g id="node11" class="node"><title>Node11</title>
<g id="a_node11"><a xlink:href="STLHelper_8hpp.html" target="_top" xlink:title=" ">
<polygon fill="none" stroke="black" points="808,-324.5 808,-343.5 954,-343.5 954,-324.5 808,-324.5"/>
<text text-anchor="middle" x="881" y="-331.5" font-family="Helvetica,sans-Serif" font-size="10.00">xalanc/Include/STLHelper.hpp</text>
</a>
</g>
</g>
<!-- Node8&#45;&gt;Node11 -->
<g id="edge12" class="edge"><title>Node8&#45;&gt;Node11</title>
<path fill="none" stroke="midnightblue" d="M511.752,-385.975C590.404,-375.117 726.071,-356.388 809.238,-344.907"/>
<polygon fill="midnightblue" stroke="midnightblue" points="809.935,-348.344 819.363,-343.509 808.978,-341.41 809.935,-348.344"/>
</g>
<!-- Node17 -->
<g id="node17" class="node"><title>Node17</title>
<g id="a_node17"><a xlink:href="XalanVector_8hpp.html" target="_top" xlink:title=" ">
<polygon fill="none" stroke="black" points="652,-201.5 652,-220.5 804,-220.5 804,-201.5 652,-201.5"/>
<text text-anchor="middle" x="728" y="-208.5" font-family="Helvetica,sans-Serif" font-size="10.00">xalanc/Include/XalanVector.hpp</text>
</a>
</g>
</g>
<!-- Node8&#45;&gt;Node17 -->
<g id="edge46" class="edge"><title>Node8&#45;&gt;Node17</title>
<path fill="none" stroke="midnightblue" d="M463.036,-385.942C507.178,-356.964 651.328,-262.333 706.371,-226.199"/>
<polygon fill="midnightblue" stroke="midnightblue" points="708.554,-228.953 714.993,-220.539 704.712,-223.101 708.554,-228.953"/>
</g>
<!-- Node21 -->
<g id="node21" class="node"><title>Node21</title>
<g id="a_node21"><a xlink:href="XalanMemoryManagement_8hpp.html" target="_top" xlink:title=" ">
<polygon fill="none" stroke="black" points="554,-134.5 554,-164.5 694,-164.5 694,-134.5 554,-134.5"/>
<text text-anchor="start" x="562" y="-152.5" font-family="Helvetica,sans-Serif" font-size="10.00">xalanc/Include/XalanMemory</text>
<text text-anchor="middle" x="624" y="-141.5" font-family="Helvetica,sans-Serif" font-size="10.00">Management.hpp</text>
</a>
</g>
</g>
<!-- Node8&#45;&gt;Node21 -->
<g id="edge45" class="edge"><title>Node8&#45;&gt;Node21</title>
<path fill="none" stroke="midnightblue" d="M452.533,-385.843C461.372,-356.81 493.272,-261.34 547,-201 557.988,-188.66 572.656,-178.052 586.24,-169.789"/>
<polygon fill="midnightblue" stroke="midnightblue" points="588.085,-172.765 594.961,-164.704 584.559,-166.718 588.085,-172.765"/>
</g>
<!-- Node24 -->
<g id="node24" class="node"><title>Node24</title>
<g id="a_node24"><a xlink:href="XalanDOMException_8hpp.html" target="_top" xlink:title=" ">
<polygon fill="none" stroke="black" points="178.5,-324.5 178.5,-343.5 383.5,-343.5 383.5,-324.5 178.5,-324.5"/>
<text text-anchor="middle" x="281" y="-331.5" font-family="Helvetica,sans-Serif" font-size="10.00">xalanc/XalanDOM/XalanDOMException.hpp</text>
</a>
</g>
</g>
<!-- Node8&#45;&gt;Node24 -->
<g id="edge47" class="edge"><title>Node8&#45;&gt;Node24</title>
<path fill="none" stroke="midnightblue" d="M425.786,-385.975C396.671,-375.725 347.632,-358.459 314.798,-346.899"/>
<polygon fill="midnightblue" stroke="midnightblue" points="315.763,-343.529 305.169,-343.509 313.439,-350.131 315.763,-343.529"/>
</g>
<!-- Node9&#45;&gt;Node3 -->
<g id="edge10" class="edge"><title>Node9&#45;&gt;Node3</title>
<path fill="none" stroke="midnightblue" d="M319.47,-262.804C321.138,-239.531 328.508,-174.83 360,-134 372.951,-117.209 393.199,-104.731 410.453,-96.3787"/>
<polygon fill="midnightblue" stroke="midnightblue" points="412.03,-99.5065 419.666,-92.1621 409.116,-93.1415 412.03,-99.5065"/>
</g>
<!-- Node11&#45;&gt;Node3 -->
<g id="edge13" class="edge"><title>Node11&#45;&gt;Node3</title>
<path fill="none" stroke="midnightblue" d="M815.755,-324.479C737.082,-311.853 603.199,-282.675 505,-221 476.493,-203.096 468.23,-195.508 454,-165 444.683,-145.025 442.603,-119.504 442.419,-102.39"/>
<polygon fill="midnightblue" stroke="midnightblue" points="445.923,-102.093 442.53,-92.0558 438.923,-102.018 445.923,-102.093"/>
</g>
<!-- Node12 -->
<g id="node12" class="node"><title>Node12</title>
<g id="a_node12"><a xlink:title=" ">
<polygon fill="none" stroke="#bfbfbf" points="1083,-140 1083,-159 1139,-159 1139,-140 1083,-140"/>
<text text-anchor="middle" x="1111" y="-147" font-family="Helvetica,sans-Serif" font-size="10.00">algorithm</text>
</a>
</g>
</g>
<!-- Node11&#45;&gt;Node12 -->
<g id="edge14" class="edge"><title>Node11&#45;&gt;Node12</title>
<path fill="none" stroke="midnightblue" d="M908.911,-324.478C932.815,-316.625 967.749,-303.809 996,-288 1015.94,-276.844 1017.2,-268.389 1037,-257 1072.92,-236.342 1100.04,-255.496 1123,-221 1133.4,-205.38 1127.34,-183.633 1120.63,-168.437"/>
<polygon fill="midnightblue" stroke="midnightblue" points="1123.61,-166.566 1116.07,-159.119 1117.32,-169.64 1123.61,-166.566"/>
</g>
<!-- Node13 -->
<g id="node13" class="node"><title>Node13</title>
<g id="a_node13"><a xlink:title=" ">
<polygon fill="none" stroke="#bfbfbf" points="1056,-201.5 1056,-220.5 1114,-220.5 1114,-201.5 1056,-201.5"/>
<text text-anchor="middle" x="1085" y="-208.5" font-family="Helvetica,sans-Serif" font-size="10.00">functional</text>
</a>
</g>
</g>
<!-- Node11&#45;&gt;Node13 -->
<g id="edge15" class="edge"><title>Node11&#45;&gt;Node13</title>
<path fill="none" stroke="midnightblue" d="M897.002,-324.473C913.151,-315.732 938.681,-301.538 960,-288 980.194,-275.176 983.738,-269.716 1004,-257 1022.11,-245.634 1043.25,-233.94 1059.39,-225.323"/>
<polygon fill="midnightblue" stroke="midnightblue" points="1061.06,-228.402 1068.26,-220.63 1057.78,-222.215 1061.06,-228.402"/>
</g>
<!-- Node14 -->
<g id="node14" class="node"><title>Node14</title>
<g id="a_node14"><a xlink:href="XalanMap_8hpp.html" target="_top" xlink:title=" ">
<polygon fill="none" stroke="black" points="808.5,-263 808.5,-282 951.5,-282 951.5,-263 808.5,-263"/>
<text text-anchor="middle" x="880" y="-270" font-family="Helvetica,sans-Serif" font-size="10.00">xalanc/Include/XalanMap.hpp</text>
</a>
</g>
</g>
<!-- Node11&#45;&gt;Node14 -->
<g id="edge16" class="edge"><title>Node11&#45;&gt;Node14</title>
<path fill="none" stroke="midnightblue" d="M880.857,-324.475C880.716,-316.08 880.495,-302.981 880.314,-292.163"/>
<polygon fill="midnightblue" stroke="midnightblue" points="883.811,-291.949 880.143,-282.009 876.812,-292.067 883.811,-291.949"/>
</g>
<!-- Node14&#45;&gt;Node3 -->
<g id="edge17" class="edge"><title>Node14&#45;&gt;Node3</title>
<path fill="none" stroke="midnightblue" d="M808.336,-270.873C738.93,-267.941 632.007,-257.185 547,-221 509.376,-204.984 498.418,-197.8 474,-165 459.836,-145.975 451.398,-119.709 446.982,-102.192"/>
<polygon fill="midnightblue" stroke="midnightblue" points="450.312,-101.058 444.641,-92.1088 443.493,-102.641 450.312,-101.058"/>
</g>
<!-- Node14&#45;&gt;Node12 -->
<g id="edge19" class="edge"><title>Node14&#45;&gt;Node12</title>
<path fill="none" stroke="midnightblue" d="M896.491,-262.794C921.766,-249.458 971.612,-223.185 1014,-201 1038.29,-188.29 1066.03,-173.854 1085.61,-163.681"/>
<polygon fill="midnightblue" stroke="midnightblue" points="1087.25,-166.772 1094.51,-159.056 1084.02,-160.56 1087.25,-166.772"/>
</g>
<!-- Node14&#45;&gt;Node13 -->
<g id="edge20" class="edge"><title>Node14&#45;&gt;Node13</title>
<path fill="none" stroke="midnightblue" d="M909.372,-262.975C945.297,-252.548 1006.23,-234.862 1046.04,-223.307"/>
<polygon fill="midnightblue" stroke="midnightblue" points="1047.05,-226.658 1055.68,-220.509 1045.1,-219.935 1047.05,-226.658"/>
</g>
<!-- Node15 -->
<g id="node15" class="node"><title>Node15</title>
<g id="a_node15"><a xlink:title=" ">
<polygon fill="none" stroke="#bfbfbf" points="1031,-73 1031,-92 1079,-92 1079,-73 1031,-73"/>
<text text-anchor="middle" x="1055" y="-80" font-family="Helvetica,sans-Serif" font-size="10.00">cstddef</text>
</a>
</g>
</g>
<!-- Node14&#45;&gt;Node15 -->
<g id="edge18" class="edge"><title>Node14&#45;&gt;Node15</title>
<path fill="none" stroke="midnightblue" d="M904.821,-262.905C931.269,-253.506 974.176,-237.561 1010,-221 1026.97,-213.156 1029.92,-208.605 1047,-201 1090.53,-181.613 1120.54,-203.945 1148,-165 1155.94,-153.74 1155.04,-145.841 1148,-134 1135.27,-112.599 1109.95,-99.7039 1088.94,-92.3065"/>
<polygon fill="midnightblue" stroke="midnightblue" points="1089.94,-88.952 1079.35,-89.1937 1087.78,-95.6101 1089.94,-88.952"/>
</g>
<!-- Node16 -->
<g id="node16" class="node"><title>Node16</title>
<g id="a_node16"><a xlink:title=" ">
<polygon fill="none" stroke="#bfbfbf" points="556,-201.5 556,-220.5 596,-220.5 596,-201.5 556,-201.5"/>
<text text-anchor="middle" x="576" y="-208.5" font-family="Helvetica,sans-Serif" font-size="10.00">utility</text>
</a>
</g>
</g>
<!-- Node14&#45;&gt;Node16 -->
<g id="edge21" class="edge"><title>Node14&#45;&gt;Node16</title>
<path fill="none" stroke="midnightblue" d="M828.258,-262.992C773.737,-253.754 685.478,-238.024 610,-221 608.727,-220.713 607.429,-220.411 606.12,-220.099"/>
<polygon fill="midnightblue" stroke="midnightblue" points="606.627,-216.617 596.075,-217.577 604.922,-223.407 606.627,-216.617"/>
</g>
<!-- Node14&#45;&gt;Node17 -->
<g id="edge22" class="edge"><title>Node14&#45;&gt;Node17</title>
<path fill="none" stroke="midnightblue" d="M858.222,-262.975C832.262,-252.813 788.689,-235.756 759.165,-224.2"/>
<polygon fill="midnightblue" stroke="midnightblue" points="760.325,-220.895 749.737,-220.509 757.774,-227.413 760.325,-220.895"/>
</g>
<!-- Node23 -->
<g id="node23" class="node"><title>Node23</title>
<g id="a_node23"><a xlink:href="XalanList_8hpp.html" target="_top" xlink:title=" ">
<polygon fill="none" stroke="black" points="822,-201.5 822,-220.5 962,-220.5 962,-201.5 822,-201.5"/>
<text text-anchor="middle" x="892" y="-208.5" font-family="Helvetica,sans-Serif" font-size="10.00">xalanc/Include/XalanList.hpp</text>
</a>
</g>
</g>
<!-- Node14&#45;&gt;Node23 -->
<g id="edge36" class="edge"><title>Node14&#45;&gt;Node23</title>
<path fill="none" stroke="midnightblue" d="M881.719,-262.975C883.43,-254.492 886.11,-241.204 888.305,-230.322"/>
<polygon fill="midnightblue" stroke="midnightblue" points="891.738,-231.004 890.284,-220.509 884.876,-229.62 891.738,-231.004"/>
</g>
<!-- Node17&#45;&gt;Node3 -->
<g id="edge23" class="edge"><title>Node17&#45;&gt;Node3</title>
<path fill="none" stroke="midnightblue" d="M651.855,-206.335C608.345,-201.369 554.216,-190.124 512,-165 485.545,-149.256 464.379,-119.646 452.771,-100.782"/>
<polygon fill="midnightblue" stroke="midnightblue" points="455.697,-98.8543 447.594,-92.0278 449.671,-102.417 455.697,-98.8543"/>
</g>
<!-- Node17&#45;&gt;Node10 -->
<g id="edge26" class="edge"><title>Node17&#45;&gt;Node10</title>
<path fill="none" stroke="midnightblue" d="M731.918,-201.305C741.151,-180.813 764.433,-129.145 776.871,-101.542"/>
<polygon fill="midnightblue" stroke="midnightblue" points="780.138,-102.811 781.055,-92.2557 773.756,-99.935 780.138,-102.811"/>
</g>
<!-- Node17&#45;&gt;Node12 -->
<g id="edge25" class="edge"><title>Node17&#45;&gt;Node12</title>
<path fill="none" stroke="midnightblue" d="M782.875,-201.475C861.571,-189.249 1004.5,-167.045 1072.74,-156.443"/>
<polygon fill="midnightblue" stroke="midnightblue" points="1073.3,-159.899 1082.64,-154.905 1072.22,-152.982 1073.3,-159.899"/>
</g>
<!-- Node17&#45;&gt;Node15 -->
<g id="edge24" class="edge"><title>Node17&#45;&gt;Node15</title>
<path fill="none" stroke="midnightblue" d="M735.345,-201.359C749.441,-185.373 782.008,-151.247 817,-134 884.277,-100.841 972.731,-89.3856 1020.62,-85.4786"/>
<polygon fill="midnightblue" stroke="midnightblue" points="1021.05,-88.9561 1030.76,-84.7156 1020.52,-81.9758 1021.05,-88.9561"/>
</g>
<!-- Node18 -->
<g id="node18" class="node"><title>Node18</title>
<g id="a_node18"><a xlink:title=" ">
<polygon fill="none" stroke="#bfbfbf" points="708,-73 708,-92 742,-92 742,-73 708,-73"/>
<text text-anchor="middle" x="725" y="-80" font-family="Helvetica,sans-Serif" font-size="10.00">new</text>
</a>
</g>
</g>
<!-- Node17&#45;&gt;Node18 -->
<g id="edge27" class="edge"><title>Node17&#45;&gt;Node18</title>
<path fill="none" stroke="midnightblue" d="M727.794,-201.305C727.312,-180.994 726.104,-130.053 725.445,-102.277"/>
<polygon fill="midnightblue" stroke="midnightblue" points="728.944,-102.17 725.208,-92.2557 721.946,-102.336 728.944,-102.17"/>
</g>
<!-- Node19 -->
<g id="node19" class="node"><title>Node19</title>
<g id="a_node19"><a xlink:title=" ">
<polygon fill="none" stroke="#bfbfbf" points="826.5,-140 826.5,-159 873.5,-159 873.5,-140 826.5,-140"/>
<text text-anchor="middle" x="850" y="-147" font-family="Helvetica,sans-Serif" font-size="10.00">iterator</text>
</a>
</g>
</g>
<!-- Node17&#45;&gt;Node19 -->
<g id="edge28" class="edge"><title>Node17&#45;&gt;Node19</title>
<path fill="none" stroke="midnightblue" d="M745.48,-201.475C765.863,-191.534 799.775,-174.995 823.425,-163.461"/>
<polygon fill="midnightblue" stroke="midnightblue" points="825.099,-166.538 832.553,-159.009 822.031,-160.247 825.099,-166.538"/>
</g>
<!-- Node20 -->
<g id="node20" class="node"><title>Node20</title>
<g id="a_node20"><a xlink:title=" ">
<polygon fill="none" stroke="#bfbfbf" points="891.5,-140 891.5,-159 950.5,-159 950.5,-140 891.5,-140"/>
<text text-anchor="middle" x="921" y="-147" font-family="Helvetica,sans-Serif" font-size="10.00">stdexcept</text>
</a>
</g>
</g>
<!-- Node17&#45;&gt;Node20 -->
<g id="edge29" class="edge"><title>Node17&#45;&gt;Node20</title>
<path fill="none" stroke="midnightblue" d="M759.764,-201.435C791.046,-192.833 840.094,-178.893 882,-165 884.4,-164.204 886.872,-163.355 889.353,-162.482"/>
<polygon fill="midnightblue" stroke="midnightblue" points="890.609,-165.75 898.823,-159.058 888.229,-159.167 890.609,-165.75"/>
</g>
<!-- Node17&#45;&gt;Node21 -->
<g id="edge30" class="edge"><title>Node17&#45;&gt;Node21</title>
<path fill="none" stroke="midnightblue" d="M713.099,-201.475C698.619,-193.191 676.13,-180.325 657.37,-169.591"/>
<polygon fill="midnightblue" stroke="midnightblue" points="658.929,-166.451 648.511,-164.523 655.453,-172.527 658.929,-166.451"/>
</g>
<!-- Node21&#45;&gt;Node3 -->
<g id="edge31" class="edge"><title>Node21&#45;&gt;Node3</title>
<path fill="none" stroke="midnightblue" d="M584.726,-134.396C552.405,-122.789 507.087,-106.515 476.469,-95.5192"/>
<polygon fill="midnightblue" stroke="midnightblue" points="477.283,-92.0929 466.689,-92.007 474.917,-98.6809 477.283,-92.0929"/>
</g>
<!-- Node21&#45;&gt;Node10 -->
<g id="edge32" class="edge"><title>Node21&#45;&gt;Node10</title>
<path fill="none" stroke="midnightblue" d="M659.951,-134.477C685.434,-124.471 720.395,-110.609 751,-98 752.591,-97.3446 754.221,-96.6674 755.866,-95.9802"/>
<polygon fill="midnightblue" stroke="midnightblue" points="757.406,-99.1294 765.258,-92.0166 754.684,-92.6802 757.406,-99.1294"/>
</g>
<!-- Node21&#45;&gt;Node15 -->
<g id="edge33" class="edge"><title>Node21&#45;&gt;Node15</title>
<path fill="none" stroke="midnightblue" d="M694.207,-137.912C787.911,-123.78 950.216,-99.3026 1020.69,-88.674"/>
<polygon fill="midnightblue" stroke="midnightblue" points="1021.43,-92.1021 1030.8,-87.1499 1020.39,-85.1804 1021.43,-92.1021"/>
</g>
<!-- Node21&#45;&gt;Node18 -->
<g id="edge34" class="edge"><title>Node21&#45;&gt;Node18</title>
<path fill="none" stroke="midnightblue" d="M645.915,-134.396C662.853,-123.496 686.187,-108.479 703.116,-97.5835"/>
<polygon fill="midnightblue" stroke="midnightblue" points="705.266,-100.362 711.781,-92.007 701.478,-94.4756 705.266,-100.362"/>
</g>
<!-- Node22 -->
<g id="node22" class="node"><title>Node22</title>
<g id="a_node22"><a xlink:title=" ">
<polygon fill="none" stroke="#bfbfbf" points="552.5,-67.5 552.5,-97.5 689.5,-97.5 689.5,-67.5 552.5,-67.5"/>
<text text-anchor="start" x="560.5" y="-85.5" font-family="Helvetica,sans-Serif" font-size="10.00">xercesc/framework/Memory</text>
<text text-anchor="middle" x="621" y="-74.5" font-family="Helvetica,sans-Serif" font-size="10.00">Manager.hpp</text>
</a>
</g>
</g>
<!-- Node21&#45;&gt;Node22 -->
<g id="edge35" class="edge"><title>Node21&#45;&gt;Node22</title>
<path fill="none" stroke="midnightblue" d="M623.349,-134.396C622.991,-126.645 622.537,-116.812 622.124,-107.86"/>
<polygon fill="midnightblue" stroke="midnightblue" points="625.607,-107.404 621.65,-97.5765 618.615,-107.727 625.607,-107.404"/>
</g>
<!-- Node23&#45;&gt;Node3 -->
<g id="edge37" class="edge"><title>Node23&#45;&gt;Node3</title>
<path fill="none" stroke="midnightblue" d="M821.71,-201.93C723.962,-190.556 557.481,-170.573 545,-165 525.72,-156.392 525.391,-147.31 509,-134 493.894,-121.734 476.385,-108.375 463.198,-98.4795"/>
<polygon fill="midnightblue" stroke="midnightblue" points="464.949,-95.4184 454.843,-92.2383 460.76,-101.027 464.949,-95.4184"/>
</g>
<!-- Node23&#45;&gt;Node10 -->
<g id="edge40" class="edge"><title>Node23&#45;&gt;Node10</title>
<path fill="none" stroke="midnightblue" d="M937.653,-201.431C958.243,-195.044 980.665,-183.999 993,-165 1000.5,-153.444 1001.52,-144.831 993,-134 971.844,-107.093 873.427,-92.7604 819.899,-86.8382"/>
<polygon fill="midnightblue" stroke="midnightblue" points="820.143,-83.3445 809.828,-85.7647 819.401,-90.305 820.143,-83.3445"/>
</g>
<!-- Node23&#45;&gt;Node12 -->
<g id="edge39" class="edge"><title>Node23&#45;&gt;Node12</title>
<path fill="none" stroke="midnightblue" d="M929.198,-201.498C965.186,-193.048 1021.16,-179.313 1069,-165 1071.77,-164.171 1074.63,-163.274 1077.5,-162.346"/>
<polygon fill="midnightblue" stroke="midnightblue" points="1078.75,-165.617 1087.12,-159.129 1076.53,-158.978 1078.75,-165.617"/>
</g>
<!-- Node23&#45;&gt;Node15 -->
<g id="edge38" class="edge"><title>Node23&#45;&gt;Node15</title>
<path fill="none" stroke="midnightblue" d="M935.54,-201.46C959.97,-194.863 989.72,-183.613 1011,-165 1030.43,-148.009 1042.79,-120.288 1049.31,-101.97"/>
<polygon fill="midnightblue" stroke="midnightblue" points="1052.65,-103.017 1052.48,-92.4233 1046.01,-100.809 1052.65,-103.017"/>
</g>
<!-- Node23&#45;&gt;Node18 -->
<g id="edge41" class="edge"><title>Node23&#45;&gt;Node18</title>
<path fill="none" stroke="midnightblue" d="M914.788,-201.471C930.326,-194.316 949.707,-182.435 959,-165 965.48,-152.841 967.873,-144.54 959,-134 898.581,-62.2258 839.446,-129.292 751,-98 749.794,-97.5733 748.578,-97.0937 747.366,-96.5752"/>
<polygon fill="midnightblue" stroke="midnightblue" points="748.866,-93.4123 738.356,-92.0779 745.74,-99.6754 748.866,-93.4123"/>
</g>
<!-- Node23&#45;&gt;Node19 -->
<g id="edge42" class="edge"><title>Node23&#45;&gt;Node19</title>
<path fill="none" stroke="midnightblue" d="M885.982,-201.475C879.745,-192.638 869.827,-178.589 861.982,-167.475"/>
<polygon fill="midnightblue" stroke="midnightblue" points="864.633,-165.16 856.006,-159.009 858.914,-169.197 864.633,-165.16"/>
</g>
<!-- Node23&#45;&gt;Node20 -->
<g id="edge43" class="edge"><title>Node23&#45;&gt;Node20</title>
<path fill="none" stroke="midnightblue" d="M896.155,-201.475C900.376,-192.815 907.037,-179.149 912.4,-168.145"/>
<polygon fill="midnightblue" stroke="midnightblue" points="915.618,-169.532 916.853,-159.009 909.325,-166.465 915.618,-169.532"/>
</g>
<!-- Node23&#45;&gt;Node21 -->
<g id="edge44" class="edge"><title>Node23&#45;&gt;Node21</title>
<path fill="none" stroke="midnightblue" d="M853.602,-201.475C812.895,-192.438 747.628,-177.947 697.067,-166.722"/>
<polygon fill="midnightblue" stroke="midnightblue" points="697.683,-163.274 687.162,-164.523 696.166,-170.107 697.683,-163.274"/>
</g>
<!-- Node24&#45;&gt;Node9 -->
<g id="edge48" class="edge"><title>Node24&#45;&gt;Node9</title>
<path fill="none" stroke="midnightblue" d="M286.444,-324.475C292.088,-315.638 301.061,-301.589 308.159,-290.475"/>
<polygon fill="midnightblue" stroke="midnightblue" points="311.133,-292.321 313.566,-282.009 305.233,-288.553 311.133,-292.321"/>
</g>
<!-- Node25&#45;&gt;Node2 -->
<g id="edge50" class="edge"><title>Node25&#45;&gt;Node2</title>
<path fill="none" stroke="midnightblue" d="M134.83,-385.975C124.85,-376.697 108.688,-361.671 96.4905,-350.331"/>
<polygon fill="midnightblue" stroke="midnightblue" points="98.8596,-347.755 89.1526,-343.509 94.0934,-352.881 98.8596,-347.755"/>
</g>
<!-- Node26&#45;&gt;Node11 -->
<g id="edge53" class="edge"><title>Node26&#45;&gt;Node11</title>
<path fill="none" stroke="midnightblue" d="M881,-380.399C881,-372.466 881,-362.458 881,-353.858"/>
<polygon fill="midnightblue" stroke="midnightblue" points="884.5,-353.658 881,-343.658 877.5,-353.658 884.5,-353.658"/>
</g>
<!-- Node26&#45;&gt;Node12 -->
<g id="edge52" class="edge"><title>Node26&#45;&gt;Node12</title>
<path fill="none" stroke="midnightblue" d="M940.37,-390.126C988.834,-384.588 1057.9,-372.094 1112,-344 1144.66,-327.039 1158.19,-321.693 1173,-288 1192.39,-243.87 1151.84,-192.111 1127.52,-166.511"/>
<polygon fill="midnightblue" stroke="midnightblue" points="1129.8,-163.837 1120.3,-159.161 1124.81,-168.745 1129.8,-163.837"/>
</g>
<!-- Node26&#45;&gt;Node23 -->
<g id="edge54" class="edge"><title>Node26&#45;&gt;Node23</title>
<path fill="none" stroke="midnightblue" d="M841.88,-380.483C825.572,-372.474 808.295,-360.64 799,-344 780.144,-310.243 778.459,-289.759 799,-257 808.877,-241.248 826.003,-230.875 842.888,-224.106"/>
<polygon fill="midnightblue" stroke="midnightblue" points="844.542,-227.23 852.745,-220.525 842.151,-220.65 844.542,-227.23"/>
</g>
<!-- Node27 -->
<g id="node27" class="node"><title>Node27</title>
<g id="a_node27"><a xlink:href="ArenaBlock_8hpp.html" target="_top" xlink:title=" ">
<polygon fill="none" stroke="black" points="1017,-324.5 1017,-343.5 1103,-343.5 1103,-324.5 1017,-324.5"/>
<text text-anchor="middle" x="1060" y="-331.5" font-family="Helvetica,sans-Serif" font-size="10.00">ArenaBlock.hpp</text>
</a>
</g>
</g>
<!-- Node26&#45;&gt;Node27 -->
<g id="edge55" class="edge"><title>Node26&#45;&gt;Node27</title>
<path fill="none" stroke="midnightblue" d="M923.421,-380.399C954.216,-370.163 995.409,-356.47 1024.48,-346.808"/>
<polygon fill="midnightblue" stroke="midnightblue" points="1025.83,-350.047 1034.22,-343.571 1023.62,-343.404 1025.83,-350.047"/>
</g>
<!-- Node28 -->
<g id="node28" class="node"><title>Node28</title>
<g id="a_node28"><a xlink:href="ArenaBlockBase_8hpp.html" target="_top" xlink:title=" ">
<polygon fill="none" stroke="black" points="1046,-257.5 1046,-287.5 1164,-287.5 1164,-257.5 1046,-257.5"/>
<text text-anchor="start" x="1054" y="-275.5" font-family="Helvetica,sans-Serif" font-size="10.00">xalanc/PlatformSupport</text>
<text text-anchor="middle" x="1105" y="-264.5" font-family="Helvetica,sans-Serif" font-size="10.00">/ArenaBlockBase.hpp</text>
</a>
</g>
</g>
<!-- Node27&#45;&gt;Node28 -->
<g id="edge56" class="edge"><title>Node27&#45;&gt;Node28</title>
<path fill="none" stroke="midnightblue" d="M1066.45,-324.475C1072.14,-316.944 1080.7,-305.626 1088.31,-295.566"/>
<polygon fill="midnightblue" stroke="midnightblue" points="1091.15,-297.61 1094.39,-287.523 1085.57,-293.388 1091.15,-297.61"/>
</g>
<!-- Node28&#45;&gt;Node10 -->
<g id="edge57" class="edge"><title>Node28&#45;&gt;Node10</title>
<path fill="none" stroke="midnightblue" d="M1117.29,-257.232C1139.16,-230.072 1179.69,-170.41 1148,-134 1126.57,-109.381 906.284,-91.7842 819.688,-85.7688"/>
<polygon fill="midnightblue" stroke="midnightblue" points="819.79,-82.2677 809.574,-85.0769 819.312,-89.2514 819.79,-82.2677"/>
</g>
<!-- Node28&#45;&gt;Node13 -->
<g id="edge58" class="edge"><title>Node28&#45;&gt;Node13</title>
<path fill="none" stroke="midnightblue" d="M1100.26,-257.399C1097.53,-249.288 1094.08,-239.007 1091.14,-230.281"/>
<polygon fill="midnightblue" stroke="midnightblue" points="1094.41,-229.021 1087.91,-220.658 1087.78,-231.252 1094.41,-229.021"/>
</g>
<!-- Node28&#45;&gt;Node21 -->
<g id="edge59" class="edge"><title>Node28&#45;&gt;Node21</title>
<path fill="none" stroke="midnightblue" d="M1045.65,-265.446C921.782,-252.753 646.797,-224.252 643,-221 629.78,-209.678 625.275,-190.219 623.94,-174.609"/>
<polygon fill="midnightblue" stroke="midnightblue" points="627.433,-174.384 623.454,-164.564 620.442,-174.722 627.433,-174.384"/>
</g>
<!-- Node29 -->
<g id="node29" class="node"><title>Node29</title>
<g id="a_node29"><a xlink:href="XalanAllocator_8hpp.html" target="_top" xlink:title=" ">
<polygon fill="none" stroke="black" points="1246,-134.5 1246,-164.5 1364,-164.5 1364,-134.5 1246,-134.5"/>
<text text-anchor="start" x="1254" y="-152.5" font-family="Helvetica,sans-Serif" font-size="10.00">xalanc/PlatformSupport</text>
<text text-anchor="middle" x="1305" y="-141.5" font-family="Helvetica,sans-Serif" font-size="10.00">/XalanAllocator.hpp</text>
</a>
</g>
</g>
<!-- Node28&#45;&gt;Node29 -->
<g id="edge60" class="edge"><title>Node28&#45;&gt;Node29</title>
<path fill="none" stroke="midnightblue" d="M1152.67,-257.484C1177.45,-249.005 1207.58,-236.764 1232,-221 1252.73,-207.616 1272.63,-187.774 1286.4,-172.547"/>
<polygon fill="midnightblue" stroke="midnightblue" points="1289.39,-174.446 1293.39,-164.632 1284.15,-169.813 1289.39,-174.446"/>
</g>
<!-- Node29&#45;&gt;Node15 -->
<g id="edge61" class="edge"><title>Node29&#45;&gt;Node15</title>
<path fill="none" stroke="midnightblue" d="M1251.06,-134.476C1201.86,-121.685 1130.68,-103.176 1088.98,-92.3359"/>
<polygon fill="midnightblue" stroke="midnightblue" points="1089.86,-88.9475 1079.3,-89.8185 1088.1,-95.7223 1089.86,-88.9475"/>
</g>
</g>
</svg>
