<?xml version="1.0" encoding="UTF-8" standalone="no"?>
<!DOCTYPE svg PUBLIC "-//W3C//DTD SVG 1.1//EN"
 "http://www.w3.org/Graphics/SVG/1.1/DTD/svg11.dtd">
<!-- Generated by graphviz version 2.43.0 (0)
 -->
<!-- Title: xalanc/XalanSourceTree/XalanSourceTreeCommentAllocator.hpp Pages: 1 -->
<!--zoomable 564 -->
<svg id="main" version="1.1" xmlns="http://www.w3.org/2000/svg" xmlns:xlink="http://www.w3.org/1999/xlink" xml:space="preserve" onload="init(evt)">
<style type="text/css"><![CDATA[
.edge:hover path { stroke: red; }
.edge:hover polygon { stroke: red; fill: red; }
]]></style>
<script type="text/javascript"><![CDATA[
var edges = document.getElementsByTagName('g');
if (edges && edges.length) {
  for (var i=0;i<edges.length;i++) {
    if (edges[i].id.substr(0,4)=='edge') {
      edges[i].setAttribute('class','edge');
    }
  }
}
]]></script>
        <defs>
                <circle id="rim" cx="0" cy="0" r="7"/>
                <circle id="rim2" cx="0" cy="0" r="3.5"/>
                <g id="zoomPlus">
                        <use xlink:href="#rim" fill="#404040">
                                <set attributeName="fill" to="#808080" begin="zoomplus.mouseover" end="zoomplus.mouseout"/>
                        </use>
                        <path d="M-4,0h8M0,-4v8" fill="none" stroke="white" stroke-width="1.5" pointer-events="none"/>
                </g>
                <g id="zoomMin">
                        <use xlink:href="#rim" fill="#404040">
                                <set attributeName="fill" to="#808080" begin="zoomminus.mouseover" end="zoomminus.mouseout"/>
                        </use>
                        <path d="M-4,0h8" fill="none" stroke="white" stroke-width="1.5" pointer-events="none"/>
                </g>
                <g id="dirArrow">
                        <path fill="none" stroke="white" stroke-width="1.5" d="M0,-3.0v7 M-2.5,-0.5L0,-3.0L2.5,-0.5"/>
                </g>
               <g id="resetDef">
                       <use xlink:href="#rim2" fill="#404040">
                               <set attributeName="fill" to="#808080" begin="reset.mouseover" end="reset.mouseout"/>
                       </use>
               </g>
        </defs>

<script type="text/javascript">
var viewWidth = 1766;
var viewHeight = 564;
var sectionId = 'dynsection-0';
</script>
<script xlink:href="svgpan.js"/>
<svg id="graph" class="graph">
<g id="viewport">
<title>xalanc/XalanSourceTree/XalanSourceTreeCommentAllocator.hpp</title>
<!-- Node1 -->
<g id="node1" class="node">
<title>Node1</title>
<g id="a_node1"><a xlink:title=" ">
<polygon fill="#bfbfbf" stroke="black" points="1357.5,-525.5 1357.5,-555.5 1569.5,-555.5 1569.5,-525.5 1357.5,-525.5"/>
<text text-anchor="start" x="1365.5" y="-543.5" font-family="Helvetica,sans-Serif" font-size="10.00">xalanc/XalanSourceTree</text>
<text text-anchor="middle" x="1463.5" y="-532.5" font-family="Helvetica,sans-Serif" font-size="10.00">/XalanSourceTreeCommentAllocator.hpp</text>
</a>
</g>
</g>
<!-- Node2 -->
<g id="node2" class="node">
<title>Node2</title>
<g id="a_node2"><a xlink:href="XalanSourceTreeDefinitions_8hpp.html" target="_top" xlink:title=" ">
<polygon fill="none" stroke="black" points="1583.5,-391.5 1583.5,-421.5 1757.5,-421.5 1757.5,-391.5 1583.5,-391.5"/>
<text text-anchor="start" x="1591.5" y="-409.5" font-family="Helvetica,sans-Serif" font-size="10.00">xalanc/XalanSourceTree</text>
<text text-anchor="middle" x="1670.5" y="-398.5" font-family="Helvetica,sans-Serif" font-size="10.00">/XalanSourceTreeDefinitions.hpp</text>
</a>
</g>
</g>
<!-- Node1&#45;&gt;Node2 -->
<g id="edge1" class="edge">
<title>Node1&#45;&gt;Node2</title>
<path fill="none" stroke="midnightblue" d="M1492.02,-525.42C1510.95,-515.78 1536.14,-502.36 1557.5,-489 1588.41,-469.67 1622.1,-444.84 1644.58,-427.7"/>
<polygon fill="midnightblue" stroke="midnightblue" points="1646.81,-430.4 1652.61,-421.53 1642.55,-424.84 1646.81,-430.4"/>
</g>
<!-- Node7 -->
<g id="node7" class="node">
<title>Node7</title>
<g id="a_node7"><a xlink:href="ArenaAllocator_8hpp.html" target="_top" xlink:title=" ">
<polygon fill="none" stroke="black" points="320,-391.5 320,-421.5 451,-421.5 451,-391.5 320,-391.5"/>
<text text-anchor="start" x="328" y="-409.5" font-family="Helvetica,sans-Serif" font-size="10.00">xalanc/PlatformSupport</text>
<text text-anchor="middle" x="385.5" y="-398.5" font-family="Helvetica,sans-Serif" font-size="10.00">/ArenaAllocator.hpp</text>
</a>
</g>
</g>
<!-- Node1&#45;&gt;Node7 -->
<g id="edge6" class="edge">
<title>Node1&#45;&gt;Node7</title>
<path fill="none" stroke="midnightblue" d="M1357.19,-526.48C1139.95,-499.88 649.78,-439.86 461.31,-416.78"/>
<polygon fill="midnightblue" stroke="midnightblue" points="461.57,-413.29 451.22,-415.55 460.72,-420.24 461.57,-413.29"/>
</g>
<!-- Node25 -->
<g id="node25" class="node">
<title>Node25</title>
<g id="a_node25"><a xlink:href="XalanSourceTreeComment_8hpp.html" target="_top" xlink:title=" ">
<polygon fill="none" stroke="black" points="1378.5,-458.5 1378.5,-488.5 1548.5,-488.5 1548.5,-458.5 1378.5,-458.5"/>
<text text-anchor="start" x="1386.5" y="-476.5" font-family="Helvetica,sans-Serif" font-size="10.00">xalanc/XalanSourceTree</text>
<text text-anchor="middle" x="1463.5" y="-465.5" font-family="Helvetica,sans-Serif" font-size="10.00">/XalanSourceTreeComment.hpp</text>
</a>
</g>
</g>
<!-- Node1&#45;&gt;Node25 -->
<g id="edge49" class="edge">
<title>Node1&#45;&gt;Node25</title>
<path fill="none" stroke="midnightblue" d="M1463.5,-525.4C1463.5,-517.64 1463.5,-507.81 1463.5,-498.86"/>
<polygon fill="midnightblue" stroke="midnightblue" points="1467,-498.58 1463.5,-488.58 1460,-498.58 1467,-498.58"/>
</g>
<!-- Node3 -->
<g id="node3" class="node">
<title>Node3</title>
<g id="a_node3"><a xlink:href="PlatformDefinitions_8hpp.html" target="_top" xlink:title=" ">
<polygon fill="none" stroke="black" points="950.5,-73 950.5,-92 1156.5,-92 1156.5,-73 950.5,-73"/>
<text text-anchor="middle" x="1053.5" y="-80" font-family="Helvetica,sans-Serif" font-size="10.00">xalanc/Include/PlatformDefinitions.hpp</text>
</a>
</g>
</g>
<!-- Node2&#45;&gt;Node3 -->
<g id="edge2" class="edge">
<title>Node2&#45;&gt;Node3</title>
<path fill="none" stroke="midnightblue" d="M1670.5,-391.24C1670.5,-367.03 1670.5,-316.35 1670.5,-273.5 1670.5,-273.5 1670.5,-273.5 1670.5,-210 1670.5,-108.37 1345.17,-87.63 1166.98,-83.9"/>
<polygon fill="midnightblue" stroke="midnightblue" points="1166.84,-80.4 1156.77,-83.7 1166.7,-87.39 1166.84,-80.4"/>
</g>
<!-- Node4 -->
<g id="node4" class="node">
<title>Node4</title>
<g id="a_node4"><a xlink:title=" ">
<polygon fill="none" stroke="#bfbfbf" points="832.5,-0.5 832.5,-30.5 952.5,-30.5 952.5,-0.5 832.5,-0.5"/>
<text text-anchor="start" x="840.5" y="-18.5" font-family="Helvetica,sans-Serif" font-size="10.00">xercesc/util/Xerces</text>
<text text-anchor="middle" x="892.5" y="-7.5" font-family="Helvetica,sans-Serif" font-size="10.00">_autoconf_config.hpp</text>
</a>
</g>
</g>
<!-- Node3&#45;&gt;Node4 -->
<g id="edge3" class="edge">
<title>Node3&#45;&gt;Node4</title>
<path fill="none" stroke="midnightblue" d="M1032.12,-72.87C1007.86,-63.07 967.62,-46.83 936.56,-34.29"/>
<polygon fill="midnightblue" stroke="midnightblue" points="937.83,-31.03 927.25,-30.53 935.21,-37.52 937.83,-31.03"/>
</g>
<!-- Node5 -->
<g id="node5" class="node">
<title>Node5</title>
<g id="a_node5"><a xlink:title=" ">
<polygon fill="none" stroke="#bfbfbf" points="971,-6 971,-25 1136,-25 1136,-6 971,-6"/>
<text text-anchor="middle" x="1053.5" y="-13" font-family="Helvetica,sans-Serif" font-size="10.00">xercesc/util/XercesVersion.hpp</text>
</a>
</g>
</g>
<!-- Node3&#45;&gt;Node5 -->
<g id="edge4" class="edge">
<title>Node3&#45;&gt;Node5</title>
<path fill="none" stroke="midnightblue" d="M1053.5,-72.73C1053.5,-63.18 1053.5,-47.62 1053.5,-35.28"/>
<polygon fill="midnightblue" stroke="midnightblue" points="1057,-35.13 1053.5,-25.13 1050,-35.13 1057,-35.13"/>
</g>
<!-- Node6 -->
<g id="node6" class="node">
<title>Node6</title>
<g id="a_node6"><a xlink:href="XalanVersion_8hpp.html" target="_top" xlink:title=" ">
<polygon fill="none" stroke="black" points="1154,-6 1154,-25 1329,-25 1329,-6 1154,-6"/>
<text text-anchor="middle" x="1241.5" y="-13" font-family="Helvetica,sans-Serif" font-size="10.00">xalanc/Include/XalanVersion.hpp</text>
</a>
</g>
</g>
<!-- Node3&#45;&gt;Node6 -->
<g id="edge5" class="edge">
<title>Node3&#45;&gt;Node6</title>
<path fill="none" stroke="midnightblue" d="M1078.46,-72.87C1111.42,-61.47 1169.62,-41.35 1206.83,-28.49"/>
<polygon fill="midnightblue" stroke="midnightblue" points="1208.42,-31.64 1216.73,-25.06 1206.14,-25.02 1208.42,-31.64"/>
</g>
<!-- Node8 -->
<g id="node8" class="node">
<title>Node8</title>
<g id="a_node8"><a xlink:title=" ">
<polygon fill="none" stroke="#bfbfbf" points="308.5,-140 308.5,-159 372.5,-159 372.5,-140 308.5,-140"/>
<text text-anchor="middle" x="340.5" y="-147" font-family="Helvetica,sans-Serif" font-size="10.00">algorithm</text>
</a>
</g>
</g>
<!-- Node7&#45;&gt;Node8 -->
<g id="edge7" class="edge">
<title>Node7&#45;&gt;Node8</title>
<path fill="none" stroke="midnightblue" d="M319.98,-393.64C294.19,-386.19 265.93,-374.2 245.5,-355 221.85,-332.78 223.08,-319.77 216.5,-288 208.2,-247.95 217.6,-229.94 246.5,-201 263.41,-184.07 287.19,-171.37 306.6,-162.94"/>
<polygon fill="midnightblue" stroke="midnightblue" points="308.12,-166.1 316.01,-159.03 305.43,-159.63 308.12,-166.1"/>
</g>
<!-- Node9 -->
<g id="node9" class="node">
<title>Node9</title>
<g id="a_node9"><a xlink:href="STLHelper_8hpp.html" target="_top" xlink:title=" ">
<polygon fill="none" stroke="black" points="451.5,-330 451.5,-349 611.5,-349 611.5,-330 451.5,-330"/>
<text text-anchor="middle" x="531.5" y="-337" font-family="Helvetica,sans-Serif" font-size="10.00">xalanc/Include/STLHelper.hpp</text>
</a>
</g>
</g>
<!-- Node7&#45;&gt;Node9 -->
<g id="edge8" class="edge">
<title>Node7&#45;&gt;Node9</title>
<path fill="none" stroke="midnightblue" d="M417.18,-391.4C442.8,-379.99 478.54,-364.08 503.2,-353.1"/>
<polygon fill="midnightblue" stroke="midnightblue" points="504.68,-356.27 512.39,-349.01 501.83,-349.88 504.68,-356.27"/>
</g>
<!-- Node21 -->
<g id="node21" class="node">
<title>Node21</title>
<g id="a_node21"><a xlink:href="XalanList_8hpp.html" target="_top" xlink:title=" ">
<polygon fill="none" stroke="black" points="423.5,-201.5 423.5,-220.5 579.5,-220.5 579.5,-201.5 423.5,-201.5"/>
<text text-anchor="middle" x="501.5" y="-208.5" font-family="Helvetica,sans-Serif" font-size="10.00">xalanc/Include/XalanList.hpp</text>
</a>
</g>
</g>
<!-- Node7&#45;&gt;Node21 -->
<g id="edge41" class="edge">
<title>Node7&#45;&gt;Node21</title>
<path fill="none" stroke="midnightblue" d="M394.03,-391.27C414.87,-356.5 468.35,-267.3 491.05,-229.42"/>
<polygon fill="midnightblue" stroke="midnightblue" points="494.22,-230.95 496.36,-220.58 488.21,-227.35 494.22,-230.95"/>
</g>
<!-- Node22 -->
<g id="node22" class="node">
<title>Node22</title>
<g id="a_node22"><a xlink:href="ArenaBlock_8hpp.html" target="_top" xlink:title=" ">
<polygon fill="none" stroke="black" points="255,-330 255,-349 348,-349 348,-330 255,-330"/>
<text text-anchor="middle" x="301.5" y="-337" font-family="Helvetica,sans-Serif" font-size="10.00">ArenaBlock.hpp</text>
</a>
</g>
</g>
<!-- Node7&#45;&gt;Node22 -->
<g id="edge42" class="edge">
<title>Node7&#45;&gt;Node22</title>
<path fill="none" stroke="midnightblue" d="M367.27,-391.4C353.53,-380.76 334.72,-366.2 320.73,-355.38"/>
<polygon fill="midnightblue" stroke="midnightblue" points="322.79,-352.55 312.74,-349.19 318.5,-358.08 322.79,-352.55"/>
</g>
<!-- Node9&#45;&gt;Node3 -->
<g id="edge9" class="edge">
<title>Node9&#45;&gt;Node3</title>
<path fill="none" stroke="midnightblue" d="M611.79,-334.95C724.09,-325.38 926.21,-290.59 1032.5,-165 1047.44,-147.35 1051.93,-120.38 1053.19,-102.35"/>
<polygon fill="midnightblue" stroke="midnightblue" points="1056.69,-102.36 1053.62,-92.22 1049.7,-102.06 1056.69,-102.36"/>
</g>
<!-- Node9&#45;&gt;Node8 -->
<g id="edge10" class="edge">
<title>Node9&#45;&gt;Node8</title>
<path fill="none" stroke="midnightblue" d="M515.82,-329.86C486.77,-314.06 422.33,-280.03 365.5,-257 317.43,-237.52 285,-262.95 254.5,-221 236.55,-196.3 273.59,-175.22 304.54,-162.7"/>
<polygon fill="midnightblue" stroke="midnightblue" points="305.81,-165.97 313.88,-159.1 303.29,-159.43 305.81,-165.97"/>
</g>
<!-- Node10 -->
<g id="node10" class="node">
<title>Node10</title>
<g id="a_node10"><a xlink:title=" ">
<polygon fill="none" stroke="#bfbfbf" points="264,-201.5 264,-220.5 329,-220.5 329,-201.5 264,-201.5"/>
<text text-anchor="middle" x="296.5" y="-208.5" font-family="Helvetica,sans-Serif" font-size="10.00">functional</text>
</a>
</g>
</g>
<!-- Node9&#45;&gt;Node10 -->
<g id="edge11" class="edge">
<title>Node9&#45;&gt;Node10</title>
<path fill="none" stroke="midnightblue" d="M522.38,-329.74C502.65,-310.93 456.24,-267.52 437.5,-257 406.53,-239.61 367.91,-227.88 338.92,-220.77"/>
<polygon fill="midnightblue" stroke="midnightblue" points="339.63,-217.34 329.09,-218.45 338.02,-224.16 339.63,-217.34"/>
</g>
<!-- Node11 -->
<g id="node11" class="node">
<title>Node11</title>
<g id="a_node11"><a xlink:href="XalanMap_8hpp.html" target="_top" xlink:title=" ">
<polygon fill="none" stroke="black" points="489.5,-263 489.5,-282 649.5,-282 649.5,-263 489.5,-263"/>
<text text-anchor="middle" x="569.5" y="-270" font-family="Helvetica,sans-Serif" font-size="10.00">xalanc/Include/XalanMap.hpp</text>
</a>
</g>
</g>
<!-- Node9&#45;&gt;Node11 -->
<g id="edge12" class="edge">
<title>Node9&#45;&gt;Node11</title>
<path fill="none" stroke="midnightblue" d="M536.62,-329.73C542.44,-319.79 552.06,-303.34 559.39,-290.79"/>
<polygon fill="midnightblue" stroke="midnightblue" points="562.43,-292.53 564.46,-282.13 556.39,-288.99 562.43,-292.53"/>
</g>
<!-- Node11&#45;&gt;Node3 -->
<g id="edge13" class="edge">
<title>Node11&#45;&gt;Node3</title>
<path fill="none" stroke="midnightblue" d="M634.21,-262.95C741.67,-247.6 950.66,-212.49 1006.5,-165 1026.47,-148.02 1039.87,-120.29 1047.1,-101.97"/>
<polygon fill="midnightblue" stroke="midnightblue" points="1050.44,-103.02 1050.64,-92.43 1043.88,-100.58 1050.44,-103.02"/>
</g>
<!-- Node11&#45;&gt;Node8 -->
<g id="edge15" class="edge">
<title>Node11&#45;&gt;Node8</title>
<path fill="none" stroke="midnightblue" d="M526.55,-262.95C494.16,-255.25 449.5,-241.89 414.5,-221 390.33,-206.58 367.7,-182.96 353.98,-167.08"/>
<polygon fill="midnightblue" stroke="midnightblue" points="356.44,-164.56 347.33,-159.16 351.08,-169.07 356.44,-164.56"/>
</g>
<!-- Node11&#45;&gt;Node10 -->
<g id="edge16" class="edge">
<title>Node11&#45;&gt;Node10</title>
<path fill="none" stroke="midnightblue" d="M530.39,-262.98C479.66,-251.92 391.49,-232.7 339.11,-221.29"/>
<polygon fill="midnightblue" stroke="midnightblue" points="339.65,-217.82 329.13,-219.11 338.16,-224.66 339.65,-217.82"/>
</g>
<!-- Node12 -->
<g id="node12" class="node">
<title>Node12</title>
<g id="a_node12"><a xlink:title=" ">
<polygon fill="none" stroke="#bfbfbf" points="374,-73 374,-92 427,-92 427,-73 374,-73"/>
<text text-anchor="middle" x="400.5" y="-80" font-family="Helvetica,sans-Serif" font-size="10.00">cstddef</text>
</a>
</g>
</g>
<!-- Node11&#45;&gt;Node12 -->
<g id="edge14" class="edge">
<title>Node11&#45;&gt;Node12</title>
<path fill="none" stroke="midnightblue" d="M522.48,-262.96C484.22,-255 429.4,-241.29 384.5,-221 363.89,-211.68 310.23,-184.91 299.5,-165 292.97,-152.87 292.26,-145.72 299.5,-134 313.51,-111.34 341.1,-98.51 363.91,-91.45"/>
<polygon fill="midnightblue" stroke="midnightblue" points="365,-94.78 373.67,-88.69 363.09,-88.05 365,-94.78"/>
</g>
<!-- Node13 -->
<g id="node13" class="node">
<title>Node13</title>
<g id="a_node13"><a xlink:title=" ">
<polygon fill="none" stroke="#bfbfbf" points="598,-201.5 598,-220.5 643,-220.5 643,-201.5 598,-201.5"/>
<text text-anchor="middle" x="620.5" y="-208.5" font-family="Helvetica,sans-Serif" font-size="10.00">utility</text>
</a>
</g>
</g>
<!-- Node11&#45;&gt;Node13 -->
<g id="edge17" class="edge">
<title>Node11&#45;&gt;Node13</title>
<path fill="none" stroke="midnightblue" d="M576.81,-262.98C584.53,-253.96 596.91,-239.52 606.52,-228.31"/>
<polygon fill="midnightblue" stroke="midnightblue" points="609.36,-230.38 613.21,-220.51 604.04,-225.82 609.36,-230.38"/>
</g>
<!-- Node14 -->
<g id="node14" class="node">
<title>Node14</title>
<g id="a_node14"><a xlink:href="XalanVector_8hpp.html" target="_top" xlink:title=" ">
<polygon fill="none" stroke="black" points="661,-201.5 661,-220.5 830,-220.5 830,-201.5 661,-201.5"/>
<text text-anchor="middle" x="745.5" y="-208.5" font-family="Helvetica,sans-Serif" font-size="10.00">xalanc/Include/XalanVector.hpp</text>
</a>
</g>
</g>
<!-- Node11&#45;&gt;Node14 -->
<g id="edge18" class="edge">
<title>Node11&#45;&gt;Node14</title>
<path fill="none" stroke="midnightblue" d="M594.72,-262.98C625.17,-252.68 676.55,-235.31 710.74,-223.75"/>
<polygon fill="midnightblue" stroke="midnightblue" points="711.98,-227.03 720.33,-220.51 709.74,-220.4 711.98,-227.03"/>
</g>
<!-- Node11&#45;&gt;Node21 -->
<g id="edge32" class="edge">
<title>Node11&#45;&gt;Node21</title>
<path fill="none" stroke="midnightblue" d="M559.76,-262.98C549.15,-253.7 531.98,-238.67 519.02,-227.33"/>
<polygon fill="midnightblue" stroke="midnightblue" points="521.06,-224.46 511.22,-220.51 516.45,-229.73 521.06,-224.46"/>
</g>
<!-- Node14&#45;&gt;Node3 -->
<g id="edge19" class="edge">
<title>Node14&#45;&gt;Node3</title>
<path fill="none" stroke="midnightblue" d="M830.27,-205.33C875.04,-199.96 929.65,-188.66 973.5,-165 1002.74,-149.22 1027.98,-119.18 1041.93,-100.31"/>
<polygon fill="midnightblue" stroke="midnightblue" points="1044.86,-102.22 1047.83,-92.05 1039.17,-98.15 1044.86,-102.22"/>
</g>
<!-- Node14&#45;&gt;Node8 -->
<g id="edge21" class="edge">
<title>Node14&#45;&gt;Node8</title>
<path fill="none" stroke="midnightblue" d="M687.47,-201.48C604.92,-189.35 455.52,-167.4 382.7,-156.7"/>
<polygon fill="midnightblue" stroke="midnightblue" points="382.93,-153.2 372.52,-155.2 381.91,-160.12 382.93,-153.2"/>
</g>
<!-- Node14&#45;&gt;Node12 -->
<g id="edge20" class="edge">
<title>Node14&#45;&gt;Node12</title>
<path fill="none" stroke="midnightblue" d="M737.55,-201.34C722.31,-185.33 687.24,-151.16 650.5,-134 579.71,-100.93 487.74,-89.46 437.41,-85.52"/>
<polygon fill="midnightblue" stroke="midnightblue" points="437.56,-82.02 427.33,-84.79 437.05,-89 437.56,-82.02"/>
</g>
<!-- Node15 -->
<g id="node15" class="node">
<title>Node15</title>
<g id="a_node15"><a xlink:title=" ">
<polygon fill="none" stroke="#bfbfbf" points="653.5,-73 653.5,-92 705.5,-92 705.5,-73 653.5,-73"/>
<text text-anchor="middle" x="679.5" y="-80" font-family="Helvetica,sans-Serif" font-size="10.00">cassert</text>
</a>
</g>
</g>
<!-- Node14&#45;&gt;Node15 -->
<g id="edge22" class="edge">
<title>Node14&#45;&gt;Node15</title>
<path fill="none" stroke="midnightblue" d="M740.96,-201.31C730.23,-180.72 703.08,-128.69 688.72,-101.18"/>
<polygon fill="midnightblue" stroke="midnightblue" points="691.8,-99.5 684.07,-92.26 685.59,-102.74 691.8,-99.5"/>
</g>
<!-- Node16 -->
<g id="node16" class="node">
<title>Node16</title>
<g id="a_node16"><a xlink:title=" ">
<polygon fill="none" stroke="#bfbfbf" points="724,-73 724,-92 761,-92 761,-73 724,-73"/>
<text text-anchor="middle" x="742.5" y="-80" font-family="Helvetica,sans-Serif" font-size="10.00">new</text>
</a>
</g>
</g>
<!-- Node14&#45;&gt;Node16 -->
<g id="edge23" class="edge">
<title>Node14&#45;&gt;Node16</title>
<path fill="none" stroke="midnightblue" d="M745.29,-201.31C744.81,-180.99 743.6,-130.05 742.95,-102.28"/>
<polygon fill="midnightblue" stroke="midnightblue" points="746.44,-102.17 742.71,-92.26 739.45,-102.34 746.44,-102.17"/>
</g>
<!-- Node17 -->
<g id="node17" class="node">
<title>Node17</title>
<g id="a_node17"><a xlink:title=" ">
<polygon fill="none" stroke="#bfbfbf" points="588,-140 588,-159 641,-159 641,-140 588,-140"/>
<text text-anchor="middle" x="614.5" y="-147" font-family="Helvetica,sans-Serif" font-size="10.00">iterator</text>
</a>
</g>
</g>
<!-- Node14&#45;&gt;Node17 -->
<g id="edge24" class="edge">
<title>Node14&#45;&gt;Node17</title>
<path fill="none" stroke="midnightblue" d="M726.73,-201.48C704.65,-191.45 667.78,-174.7 642.36,-163.15"/>
<polygon fill="midnightblue" stroke="midnightblue" points="643.79,-159.96 633.23,-159.01 640.89,-166.33 643.79,-159.96"/>
</g>
<!-- Node18 -->
<g id="node18" class="node">
<title>Node18</title>
<g id="a_node18"><a xlink:title=" ">
<polygon fill="none" stroke="#bfbfbf" points="505,-140 505,-159 570,-159 570,-140 505,-140"/>
<text text-anchor="middle" x="537.5" y="-147" font-family="Helvetica,sans-Serif" font-size="10.00">stdexcept</text>
</a>
</g>
</g>
<!-- Node14&#45;&gt;Node18 -->
<g id="edge25" class="edge">
<title>Node14&#45;&gt;Node18</title>
<path fill="none" stroke="midnightblue" d="M711.29,-201.45C677.59,-192.85 624.73,-178.92 579.5,-165 576.74,-164.15 573.88,-163.24 571.02,-162.3"/>
<polygon fill="midnightblue" stroke="midnightblue" points="571.99,-158.93 561.4,-159.06 569.76,-165.57 571.99,-158.93"/>
</g>
<!-- Node19 -->
<g id="node19" class="node">
<title>Node19</title>
<g id="a_node19"><a xlink:href="XalanMemoryManagement_8hpp.html" target="_top" xlink:title=" ">
<polygon fill="none" stroke="black" points="773.5,-134.5 773.5,-164.5 931.5,-164.5 931.5,-134.5 773.5,-134.5"/>
<text text-anchor="start" x="781.5" y="-152.5" font-family="Helvetica,sans-Serif" font-size="10.00">xalanc/Include/XalanMemory</text>
<text text-anchor="middle" x="852.5" y="-141.5" font-family="Helvetica,sans-Serif" font-size="10.00">Management.hpp</text>
</a>
</g>
</g>
<!-- Node14&#45;&gt;Node19 -->
<g id="edge26" class="edge">
<title>Node14&#45;&gt;Node19</title>
<path fill="none" stroke="midnightblue" d="M760.83,-201.48C775.8,-193.15 799.08,-180.21 818.43,-169.45"/>
<polygon fill="midnightblue" stroke="midnightblue" points="820.24,-172.44 827.28,-164.52 816.84,-166.32 820.24,-172.44"/>
</g>
<!-- Node19&#45;&gt;Node3 -->
<g id="edge27" class="edge">
<title>Node19&#45;&gt;Node3</title>
<path fill="none" stroke="midnightblue" d="M896.11,-134.4C932.47,-122.64 983.65,-106.09 1017.66,-95.09"/>
<polygon fill="midnightblue" stroke="midnightblue" points="1018.76,-98.41 1027.19,-92.01 1016.6,-91.75 1018.76,-98.41"/>
</g>
<!-- Node19&#45;&gt;Node12 -->
<g id="edge29" class="edge">
<title>Node19&#45;&gt;Node12</title>
<path fill="none" stroke="midnightblue" d="M773.25,-137.1C674.55,-122.91 510.06,-99.26 437.18,-88.78"/>
<polygon fill="midnightblue" stroke="midnightblue" points="437.51,-85.29 427.11,-87.33 436.51,-92.22 437.51,-85.29"/>
</g>
<!-- Node19&#45;&gt;Node15 -->
<g id="edge28" class="edge">
<title>Node19&#45;&gt;Node15</title>
<path fill="none" stroke="midnightblue" d="M813.41,-134.44C785.94,-124.48 748.38,-110.68 715.5,-98 713.66,-97.29 711.77,-96.55 709.87,-95.81"/>
<polygon fill="midnightblue" stroke="midnightblue" points="710.98,-92.48 700.4,-92.04 708.4,-98.99 710.98,-92.48"/>
</g>
<!-- Node19&#45;&gt;Node16 -->
<g id="edge30" class="edge">
<title>Node19&#45;&gt;Node16</title>
<path fill="none" stroke="midnightblue" d="M828.63,-134.4C809.93,-123.34 784.06,-108.06 765.57,-97.13"/>
<polygon fill="midnightblue" stroke="midnightblue" points="767.29,-94.08 756.9,-92.01 763.73,-100.11 767.29,-94.08"/>
</g>
<!-- Node20 -->
<g id="node20" class="node">
<title>Node20</title>
<g id="a_node20"><a xlink:title=" ">
<polygon fill="none" stroke="#bfbfbf" points="779,-67.5 779,-97.5 932,-97.5 932,-67.5 779,-67.5"/>
<text text-anchor="start" x="787" y="-85.5" font-family="Helvetica,sans-Serif" font-size="10.00">xercesc/framework/Memory</text>
<text text-anchor="middle" x="855.5" y="-74.5" font-family="Helvetica,sans-Serif" font-size="10.00">Manager.hpp</text>
</a>
</g>
</g>
<!-- Node19&#45;&gt;Node20 -->
<g id="edge31" class="edge">
<title>Node19&#45;&gt;Node20</title>
<path fill="none" stroke="midnightblue" d="M853.15,-134.4C853.51,-126.64 853.96,-116.81 854.38,-107.86"/>
<polygon fill="midnightblue" stroke="midnightblue" points="857.89,-107.73 854.85,-97.58 850.89,-107.4 857.89,-107.73"/>
</g>
<!-- Node21&#45;&gt;Node3 -->
<g id="edge33" class="edge">
<title>Node21&#45;&gt;Node3</title>
<path fill="none" stroke="midnightblue" d="M579.68,-202.01C705.81,-189.11 940.25,-165.12 940.5,-165 958.81,-156.65 957.59,-146.32 973.5,-134 991.2,-120.3 1012.72,-106.88 1028.98,-97.32"/>
<polygon fill="midnightblue" stroke="midnightblue" points="1030.98,-100.21 1037.88,-92.16 1027.47,-94.15 1030.98,-100.21"/>
</g>
<!-- Node21&#45;&gt;Node8 -->
<g id="edge35" class="edge">
<title>Node21&#45;&gt;Node8</title>
<path fill="none" stroke="midnightblue" d="M478.43,-201.48C450.82,-191.27 404.38,-174.11 373.1,-162.55"/>
<polygon fill="midnightblue" stroke="midnightblue" points="374.12,-159.19 363.52,-159.01 371.69,-165.76 374.12,-159.19"/>
</g>
<!-- Node21&#45;&gt;Node12 -->
<g id="edge34" class="edge">
<title>Node21&#45;&gt;Node12</title>
<path fill="none" stroke="midnightblue" d="M477.35,-201.48C460.26,-194.27 438.05,-182.31 424.5,-165 410.11,-146.62 404.34,-119.82 402.03,-102.03"/>
<polygon fill="midnightblue" stroke="midnightblue" points="405.51,-101.63 400.98,-92.05 398.55,-102.37 405.51,-101.63"/>
</g>
<!-- Node21&#45;&gt;Node15 -->
<g id="edge36" class="edge">
<title>Node21&#45;&gt;Node15</title>
<path fill="none" stroke="midnightblue" d="M491.04,-201.38C474.32,-186.59 445.16,-155.84 462.5,-134 484.64,-106.11 587.2,-92.22 643.03,-86.61"/>
<polygon fill="midnightblue" stroke="midnightblue" points="643.59,-90.07 653.21,-85.63 642.92,-83.11 643.59,-90.07"/>
</g>
<!-- Node21&#45;&gt;Node16 -->
<g id="edge37" class="edge">
<title>Node21&#45;&gt;Node16</title>
<path fill="none" stroke="midnightblue" d="M497.43,-201.27C490.87,-185.74 480.25,-153.16 496.5,-134 528.27,-96.56 667.9,-113.48 714.5,-98 715.93,-97.53 717.37,-96.99 718.81,-96.4"/>
<polygon fill="midnightblue" stroke="midnightblue" points="720.48,-99.48 728.06,-92.08 717.52,-93.14 720.48,-99.48"/>
</g>
<!-- Node21&#45;&gt;Node17 -->
<g id="edge38" class="edge">
<title>Node21&#45;&gt;Node17</title>
<path fill="none" stroke="midnightblue" d="M517.69,-201.48C536.4,-191.62 567.42,-175.29 589.3,-163.77"/>
<polygon fill="midnightblue" stroke="midnightblue" points="591.12,-166.77 598.34,-159.01 587.86,-160.57 591.12,-166.77"/>
</g>
<!-- Node21&#45;&gt;Node18 -->
<g id="edge39" class="edge">
<title>Node21&#45;&gt;Node18</title>
<path fill="none" stroke="midnightblue" d="M506.66,-201.48C511.95,-192.73 520.34,-178.87 527.03,-167.81"/>
<polygon fill="midnightblue" stroke="midnightblue" points="530.17,-169.38 532.35,-159.01 524.18,-165.75 530.17,-169.38"/>
</g>
<!-- Node21&#45;&gt;Node19 -->
<g id="edge40" class="edge">
<title>Node21&#45;&gt;Node19</title>
<path fill="none" stroke="midnightblue" d="M551.79,-201.48C606.87,-192.14 696.29,-176.98 763.33,-165.62"/>
<polygon fill="midnightblue" stroke="midnightblue" points="764.2,-169.02 773.47,-163.9 763.03,-162.12 764.2,-169.02"/>
</g>
<!-- Node23 -->
<g id="node23" class="node">
<title>Node23</title>
<g id="a_node23"><a xlink:href="ArenaBlockBase_8hpp.html" target="_top" xlink:title=" ">
<polygon fill="none" stroke="black" points="226,-257.5 226,-287.5 357,-287.5 357,-257.5 226,-257.5"/>
<text text-anchor="start" x="234" y="-275.5" font-family="Helvetica,sans-Serif" font-size="10.00">xalanc/PlatformSupport</text>
<text text-anchor="middle" x="291.5" y="-264.5" font-family="Helvetica,sans-Serif" font-size="10.00">/ArenaBlockBase.hpp</text>
</a>
</g>
</g>
<!-- Node22&#45;&gt;Node23 -->
<g id="edge43" class="edge">
<title>Node22&#45;&gt;Node23</title>
<path fill="none" stroke="midnightblue" d="M300.15,-329.73C298.89,-321.54 296.95,-308.92 295.23,-297.71"/>
<polygon fill="midnightblue" stroke="midnightblue" points="298.65,-296.94 293.67,-287.59 291.73,-298 298.65,-296.94"/>
</g>
<!-- Node23&#45;&gt;Node10 -->
<g id="edge45" class="edge">
<title>Node23&#45;&gt;Node10</title>
<path fill="none" stroke="midnightblue" d="M292.68,-257.4C293.35,-249.47 294.19,-239.46 294.92,-230.86"/>
<polygon fill="midnightblue" stroke="midnightblue" points="298.42,-230.92 295.77,-220.66 291.45,-230.33 298.42,-230.92"/>
</g>
<!-- Node23&#45;&gt;Node15 -->
<g id="edge44" class="edge">
<title>Node23&#45;&gt;Node15</title>
<path fill="none" stroke="midnightblue" d="M273.48,-257.21C263.45,-248.07 251.93,-235.27 246.5,-221 230.38,-178.69 260.14,-156.37 299.5,-134 357.83,-100.85 560,-88.59 643.25,-84.88"/>
<polygon fill="midnightblue" stroke="midnightblue" points="643.42,-88.38 653.26,-84.45 643.12,-81.38 643.42,-88.38"/>
</g>
<!-- Node23&#45;&gt;Node19 -->
<g id="edge46" class="edge">
<title>Node23&#45;&gt;Node19</title>
<path fill="none" stroke="midnightblue" d="M357.16,-266.48C500.76,-255.38 830.68,-229.06 839.5,-221 851.92,-209.65 854.85,-190.63 854.85,-175.2"/>
<polygon fill="midnightblue" stroke="midnightblue" points="858.33,-174.61 854.42,-164.77 851.33,-174.9 858.33,-174.61"/>
</g>
<!-- Node24 -->
<g id="node24" class="node">
<title>Node24</title>
<g id="a_node24"><a xlink:href="XalanAllocator_8hpp.html" target="_top" xlink:title=" ">
<polygon fill="none" stroke="black" points="0,-134.5 0,-164.5 131,-164.5 131,-134.5 0,-134.5"/>
<text text-anchor="start" x="8" y="-152.5" font-family="Helvetica,sans-Serif" font-size="10.00">xalanc/PlatformSupport</text>
<text text-anchor="middle" x="65.5" y="-141.5" font-family="Helvetica,sans-Serif" font-size="10.00">/XalanAllocator.hpp</text>
</a>
</g>
</g>
<!-- Node23&#45;&gt;Node24 -->
<g id="edge47" class="edge">
<title>Node23&#45;&gt;Node24</title>
<path fill="none" stroke="midnightblue" d="M234.51,-257.4C206.56,-249.11 173.08,-237.07 145.5,-221 122.89,-207.82 100.86,-187.7 85.66,-172.32"/>
<polygon fill="midnightblue" stroke="midnightblue" points="87.83,-169.54 78.37,-164.78 82.8,-174.4 87.83,-169.54"/>
</g>
<!-- Node24&#45;&gt;Node12 -->
<g id="edge48" class="edge">
<title>Node24&#45;&gt;Node12</title>
<path fill="none" stroke="midnightblue" d="M131.29,-135.74C200.74,-122.26 307.75,-101.5 363.64,-90.65"/>
<polygon fill="midnightblue" stroke="midnightblue" points="364.64,-94.02 373.79,-88.68 363.3,-87.15 364.64,-94.02"/>
</g>
<!-- Node25&#45;&gt;Node2 -->
<g id="edge50" class="edge">
<title>Node25&#45;&gt;Node2</title>
<path fill="none" stroke="midnightblue" d="M1508.16,-458.48C1539.75,-448.56 1582.28,-435.2 1615.89,-424.65"/>
<polygon fill="midnightblue" stroke="midnightblue" points="1617.07,-427.95 1625.56,-421.61 1614.97,-421.27 1617.07,-427.95"/>
</g>
<!-- Node26 -->
<g id="node26" class="node">
<title>Node26</title>
<g id="a_node26"><a xlink:href="XalanComment_8hpp.html" target="_top" xlink:title=" ">
<polygon fill="none" stroke="black" points="1362,-397 1362,-416 1565,-416 1565,-397 1362,-397"/>
<text text-anchor="middle" x="1463.5" y="-404" font-family="Helvetica,sans-Serif" font-size="10.00">xalanc/XalanDOM/XalanComment.hpp</text>
</a>
</g>
</g>
<!-- Node25&#45;&gt;Node26 -->
<g id="edge51" class="edge">
<title>Node25&#45;&gt;Node26</title>
<path fill="none" stroke="midnightblue" d="M1463.5,-458.4C1463.5,-449.06 1463.5,-436.71 1463.5,-426.52"/>
<polygon fill="midnightblue" stroke="midnightblue" points="1467,-426.19 1463.5,-416.19 1460,-426.19 1467,-426.19"/>
</g>
<!-- Node30 -->
<g id="node30" class="node">
<title>Node30</title>
<g id="a_node30"><a xlink:href="XalanDOMString_8hpp.html" target="_top" xlink:title=" ">
<polygon fill="none" stroke="black" points="969.5,-397 969.5,-416 1177.5,-416 1177.5,-397 969.5,-397"/>
<text text-anchor="middle" x="1073.5" y="-404" font-family="Helvetica,sans-Serif" font-size="10.00">xalanc/XalanDOM/XalanDOMString.hpp</text>
</a>
</g>
</g>
<!-- Node25&#45;&gt;Node30 -->
<g id="edge58" class="edge">
<title>Node25&#45;&gt;Node30</title>
<path fill="none" stroke="midnightblue" d="M1379.36,-458.48C1305.81,-446.22 1200.77,-428.71 1134.9,-417.73"/>
<polygon fill="midnightblue" stroke="midnightblue" points="1135.11,-414.22 1124.67,-416.03 1133.96,-421.13 1135.11,-414.22"/>
</g>
<!-- Node27 -->
<g id="node27" class="node">
<title>Node27</title>
<g id="a_node27"><a xlink:href="XalanDOMDefinitions_8hpp.html" target="_top" xlink:title=" ">
<polygon fill="none" stroke="black" points="1278.5,-201.5 1278.5,-220.5 1510.5,-220.5 1510.5,-201.5 1278.5,-201.5"/>
<text text-anchor="middle" x="1394.5" y="-208.5" font-family="Helvetica,sans-Serif" font-size="10.00">xalanc/XalanDOM/XalanDOMDefinitions.hpp</text>
</a>
</g>
</g>
<!-- Node26&#45;&gt;Node27 -->
<g id="edge52" class="edge">
<title>Node26&#45;&gt;Node27</title>
<path fill="none" stroke="midnightblue" d="M1503.43,-396.95C1527.68,-389.74 1557.36,-376.95 1575.5,-355 1603.62,-320.99 1619.01,-291.51 1591.5,-257 1577.95,-240.01 1531.39,-228.93 1486.93,-222.01"/>
<polygon fill="midnightblue" stroke="midnightblue" points="1487.3,-218.53 1476.89,-220.51 1486.27,-225.45 1487.3,-218.53"/>
</g>
<!-- Node28 -->
<g id="node28" class="node">
<title>Node28</title>
<g id="a_node28"><a xlink:href="XalanCharacterData_8hpp.html" target="_top" xlink:title=" ">
<polygon fill="none" stroke="black" points="1384.5,-324.5 1384.5,-354.5 1566.5,-354.5 1566.5,-324.5 1384.5,-324.5"/>
<text text-anchor="start" x="1392.5" y="-342.5" font-family="Helvetica,sans-Serif" font-size="10.00">xalanc/XalanDOM/XalanCharacter</text>
<text text-anchor="middle" x="1475.5" y="-331.5" font-family="Helvetica,sans-Serif" font-size="10.00">Data.hpp</text>
</a>
</g>
</g>
<!-- Node26&#45;&gt;Node28 -->
<g id="edge54" class="edge">
<title>Node26&#45;&gt;Node28</title>
<path fill="none" stroke="midnightblue" d="M1465.12,-396.73C1466.63,-388.54 1468.96,-375.92 1471.03,-364.71"/>
<polygon fill="midnightblue" stroke="midnightblue" points="1474.53,-365.06 1472.9,-354.59 1467.64,-363.79 1474.53,-365.06"/>
</g>
<!-- Node27&#45;&gt;Node3 -->
<g id="edge53" class="edge">
<title>Node27&#45;&gt;Node3</title>
<path fill="none" stroke="midnightblue" d="M1371.33,-201.4C1312.04,-179.41 1154.66,-121.03 1086.14,-95.61"/>
<polygon fill="midnightblue" stroke="midnightblue" points="1087.3,-92.3 1076.7,-92.11 1084.86,-98.87 1087.3,-92.3"/>
</g>
<!-- Node28&#45;&gt;Node27 -->
<g id="edge55" class="edge">
<title>Node28&#45;&gt;Node27</title>
<path fill="none" stroke="midnightblue" d="M1528.19,-324.45C1546.41,-316.79 1564.9,-305.23 1575.5,-288 1582.72,-276.27 1583.99,-267.85 1575.5,-257 1562.71,-240.65 1517.33,-229.39 1475.21,-222.22"/>
<polygon fill="midnightblue" stroke="midnightblue" points="1475.59,-218.74 1465.16,-220.57 1474.46,-225.64 1475.59,-218.74"/>
</g>
<!-- Node29 -->
<g id="node29" class="node">
<title>Node29</title>
<g id="a_node29"><a xlink:href="XalanNode_8hpp.html" target="_top" xlink:title=" ">
<polygon fill="none" stroke="black" points="1385,-263 1385,-282 1566,-282 1566,-263 1385,-263"/>
<text text-anchor="middle" x="1475.5" y="-270" font-family="Helvetica,sans-Serif" font-size="10.00">xalanc/XalanDOM/XalanNode.hpp</text>
</a>
</g>
</g>
<!-- Node28&#45;&gt;Node29 -->
<g id="edge56" class="edge">
<title>Node28&#45;&gt;Node29</title>
<path fill="none" stroke="midnightblue" d="M1475.5,-324.4C1475.5,-315.06 1475.5,-302.71 1475.5,-292.52"/>
<polygon fill="midnightblue" stroke="midnightblue" points="1479,-292.19 1475.5,-282.19 1472,-292.19 1479,-292.19"/>
</g>
<!-- Node29&#45;&gt;Node27 -->
<g id="edge57" class="edge">
<title>Node29&#45;&gt;Node27</title>
<path fill="none" stroke="midnightblue" d="M1463.89,-262.98C1451.02,-253.52 1430.03,-238.1 1414.49,-226.69"/>
<polygon fill="midnightblue" stroke="midnightblue" points="1416.22,-223.61 1406.08,-220.51 1412.07,-229.25 1416.22,-223.61"/>
</g>
<!-- Node30&#45;&gt;Node9 -->
<g id="edge61" class="edge">
<title>Node30&#45;&gt;Node9</title>
<path fill="none" stroke="midnightblue" d="M1002.36,-396.97C901.79,-384.91 718.51,-362.93 612.71,-350.24"/>
<polygon fill="midnightblue" stroke="midnightblue" points="613.07,-346.76 602.72,-349.04 612.24,-353.71 613.07,-346.76"/>
</g>
<!-- Node30&#45;&gt;Node14 -->
<g id="edge63" class="edge">
<title>Node30&#45;&gt;Node14</title>
<path fill="none" stroke="midnightblue" d="M1058.98,-396.94C1007.45,-366.53 832.98,-263.61 769.15,-225.95"/>
<polygon fill="midnightblue" stroke="midnightblue" points="770.61,-222.75 760.22,-220.68 767.06,-228.78 770.61,-222.75"/>
</g>
<!-- Node30&#45;&gt;Node15 -->
<g id="edge60" class="edge">
<title>Node30&#45;&gt;Node15</title>
<path fill="none" stroke="midnightblue" d="M1073.5,-396.85C1073.5,-375.76 1073.5,-320.02 1073.5,-273.5 1073.5,-273.5 1073.5,-273.5 1073.5,-210 1073.5,-103.03 742.85,-105.59 715.5,-98 713.06,-97.32 710.55,-96.53 708.06,-95.67"/>
<polygon fill="midnightblue" stroke="midnightblue" points="709.25,-92.38 698.65,-92.14 706.79,-98.93 709.25,-92.38"/>
</g>
<!-- Node30&#45;&gt;Node19 -->
<g id="edge62" class="edge">
<title>Node30&#45;&gt;Node19</title>
<path fill="none" stroke="midnightblue" d="M1065.89,-396.72C1034.91,-360.98 917.71,-225.74 871.45,-172.36"/>
<polygon fill="midnightblue" stroke="midnightblue" points="873.85,-169.79 864.66,-164.53 868.56,-174.38 873.85,-169.79"/>
</g>
<!-- Node30&#45;&gt;Node27 -->
<g id="edge59" class="edge">
<title>Node30&#45;&gt;Node27</title>
<path fill="none" stroke="midnightblue" d="M1076.32,-396.87C1086.28,-366.59 1119.86,-266.49 1131.5,-257 1153.09,-239.4 1212.45,-228.4 1269.32,-221.69"/>
<polygon fill="midnightblue" stroke="midnightblue" points="1269.99,-225.14 1279.53,-220.53 1269.2,-218.18 1269.99,-225.14"/>
</g>
<!-- Node31 -->
<g id="node31" class="node">
<title>Node31</title>
<g id="a_node31"><a xlink:href="XalanDOMException_8hpp.html" target="_top" xlink:title=" ">
<polygon fill="none" stroke="black" points="1140,-263 1140,-282 1367,-282 1367,-263 1140,-263"/>
<text text-anchor="middle" x="1253.5" y="-270" font-family="Helvetica,sans-Serif" font-size="10.00">xalanc/XalanDOM/XalanDOMException.hpp</text>
</a>
</g>
</g>
<!-- Node30&#45;&gt;Node31 -->
<g id="edge64" class="edge">
<title>Node30&#45;&gt;Node31</title>
<path fill="none" stroke="midnightblue" d="M1085.31,-396.84C1115.58,-374.64 1196.17,-315.54 1233.73,-288"/>
<polygon fill="midnightblue" stroke="midnightblue" points="1235.89,-290.76 1241.88,-282.02 1231.75,-285.11 1235.89,-290.76"/>
</g>
<!-- Node31&#45;&gt;Node27 -->
<g id="edge65" class="edge">
<title>Node31&#45;&gt;Node27</title>
<path fill="none" stroke="midnightblue" d="M1273.7,-262.98C1297.57,-252.9 1337.5,-236.05 1364.87,-224.5"/>
<polygon fill="midnightblue" stroke="midnightblue" points="1366.48,-227.62 1374.34,-220.51 1363.76,-221.17 1366.48,-227.62"/>
</g>
</g>
</svg>
        <g id="navigator" transform="translate(0 0)" fill="#404254">
                <rect fill="#f2f5e9" fill-opacity="0.5" stroke="#606060" stroke-width=".5" x="0" y="0" width="60" height="60"/>
                <use id="zoomplus" xlink:href="#zoomPlus" x="17" y="9" onmousedown="handleZoom(evt,'in')"/>
                <use id="zoomminus" xlink:href="#zoomMin" x="42" y="9" onmousedown="handleZoom(evt,'out')"/>
                <use id="reset" xlink:href="#resetDef" x="30" y="36" onmousedown="handleReset()"/>
                <g id="arrowUp" xlink:href="#dirArrow" transform="translate(30 24)" onmousedown="handlePan(0,-1)">
                  <use xlink:href="#rim" fill="#404040">
                        <set attributeName="fill" to="#808080" begin="arrowUp.mouseover" end="arrowUp.mouseout"/>
                  </use>
                  <path fill="none" stroke="white" stroke-width="1.5" d="M0,-3.0v7 M-2.5,-0.5L0,-3.0L2.5,-0.5"/>
                </g>
                <g id="arrowRight" xlink:href="#dirArrow" transform="rotate(90) translate(36 -43)" onmousedown="handlePan(1,0)">
                  <use xlink:href="#rim" fill="#404040">
                        <set attributeName="fill" to="#808080" begin="arrowRight.mouseover" end="arrowRight.mouseout"/>
                  </use>
                  <path fill="none" stroke="white" stroke-width="1.5" d="M0,-3.0v7 M-2.5,-0.5L0,-3.0L2.5,-0.5"/>
                </g>
                <g id="arrowDown" xlink:href="#dirArrow" transform="rotate(180) translate(-30 -48)" onmousedown="handlePan(0,1)">
                  <use xlink:href="#rim" fill="#404040">
                        <set attributeName="fill" to="#808080" begin="arrowDown.mouseover" end="arrowDown.mouseout"/>
                  </use>
                  <path fill="none" stroke="white" stroke-width="1.5" d="M0,-3.0v7 M-2.5,-0.5L0,-3.0L2.5,-0.5"/>
                </g>
                <g id="arrowLeft" xlink:href="#dirArrow" transform="rotate(270) translate(-36 17)" onmousedown="handlePan(-1,0)">
                  <use xlink:href="#rim" fill="#404040">
                        <set attributeName="fill" to="#808080" begin="arrowLeft.mouseover" end="arrowLeft.mouseout"/>
                  </use>
                  <path fill="none" stroke="white" stroke-width="1.5" d="M0,-3.0v7 M-2.5,-0.5L0,-3.0L2.5,-0.5"/>
                </g>
        </g>
        <svg viewBox="0 0 15 15" width="100%" height="30px" preserveAspectRatio="xMaxYMin meet">
         <g id="arrow_out" transform="scale(0.3 0.3)">
          <a xlink:href="XalanSourceTreeCommentAllocator_8hpp__incl_org.svg" target="_base">
           <rect id="button" ry="5" rx="5" y="6" x="6" height="38" width="38"
                fill="#f2f5e9" fill-opacity="0.5" stroke="#606060" stroke-width="1.0"/>
           <path id="arrow"
             d="M 11.500037,31.436501 C 11.940474,20.09759 22.043105,11.32322 32.158766,21.979434 L 37.068811,17.246167 C 37.068811,17.246167 37.088388,32 37.088388,32 L 22.160133,31.978069 C 22.160133,31.978069 26.997745,27.140456 26.997745,27.140456 C 18.528582,18.264221 13.291696,25.230495 11.500037,31.436501 z"
             style="fill:#404040;"/>
          </a>
         </g>
        </svg>
</svg>
