<?xml version="1.0" encoding="UTF-8" standalone="no"?>
<!DOCTYPE svg PUBLIC "-//W3C//DTD SVG 1.1//EN"
 "http://www.w3.org/Graphics/SVG/1.1/DTD/svg11.dtd">
<!-- Generated by graphviz version 2.38.0 (20140413.2041)
 -->
<!-- Title: xalanc/PlatformSupport/XalanDecimalFormatSymbols.hpp Pages: 1 -->
<!--zoomable 475 -->
<svg id="main" version="1.1" xmlns="http://www.w3.org/2000/svg" xmlns:xlink="http://www.w3.org/1999/xlink" xml:space="preserve" onload="init(evt)">
<style type="text/css"><![CDATA[
.edge:hover path { stroke: red; }
.edge:hover polygon { stroke: red; fill: red; }
]]></style>
<script type="text/javascript"><![CDATA[
var edges = document.getElementsByTagName('g');
if (edges && edges.length) {
  for (var i=0;i<edges.length;i++) {
    if (edges[i].id.substr(0,4)=='edge') {
      edges[i].setAttribute('class','edge');
    }
  }
}
]]></script>
        <defs>
                <circle id="rim" cx="0" cy="0" r="7"/>
                <circle id="rim2" cx="0" cy="0" r="3.5"/>
                <g id="zoomPlus">
                        <use xlink:href="#rim" fill="#404040">
                                <set attributeName="fill" to="#808080" begin="zoomplus.mouseover" end="zoomplus.mouseout"/>
                        </use>
                        <path d="M-4,0h8M0,-4v8" fill="none" stroke="white" stroke-width="1.5" pointer-events="none"/>
                </g>
                <g id="zoomMin">
                        <use xlink:href="#rim" fill="#404040">
                                <set attributeName="fill" to="#808080" begin="zoomminus.mouseover" end="zoomminus.mouseout"/>
                        </use>
                        <path d="M-4,0h8" fill="none" stroke="white" stroke-width="1.5" pointer-events="none"/>
                </g>
                <g id="dirArrow">
                        <path fill="none" stroke="white" stroke-width="1.5" d="M0,-3.0v7 M-2.5,-0.5L0,-3.0L2.5,-0.5"/>
                </g>
               <g id="resetDef">
                       <use xlink:href="#rim2" fill="#404040">
                               <set attributeName="fill" to="#808080" begin="reset.mouseover" end="reset.mouseout"/>
                       </use>
               </g>
        </defs>

<script type="text/javascript">
var viewWidth = 1065;
var viewHeight = 475;
var sectionId = 'dynsection-0';
</script>
<script xlink:href="svgpan.js"/>
<svg id="graph" class="graph">
<g id="viewport">
<title>xalanc/PlatformSupport/XalanDecimalFormatSymbols.hpp</title>
<!-- Node1 -->
<g id="node1" class="node"><title>Node1</title>
<g id="a_node1"><a xlink:title=" ">
<polygon fill="#bfbfbf" stroke="black" points="387,-436.5 387,-466.5 553,-466.5 553,-436.5 387,-436.5"/>
<text text-anchor="start" x="395" y="-454.5" font-family="Helvetica,sans-Serif" font-size="10.00">xalanc/PlatformSupport</text>
<text text-anchor="middle" x="470" y="-443.5" font-family="Helvetica,sans-Serif" font-size="10.00">/XalanDecimalFormatSymbols.hpp</text>
</a>
</g>
</g>
<!-- Node2 -->
<g id="node2" class="node"><title>Node2</title>
<g id="a_node2"><a xlink:href="PlatformSupportDefinitions_8hpp.html" target="_top" xlink:title=" ">
<polygon fill="none" stroke="black" points="780.5,-369.5 780.5,-399.5 933.5,-399.5 933.5,-369.5 780.5,-369.5"/>
<text text-anchor="start" x="788.5" y="-387.5" font-family="Helvetica,sans-Serif" font-size="10.00">xalanc/PlatformSupport</text>
<text text-anchor="middle" x="857" y="-376.5" font-family="Helvetica,sans-Serif" font-size="10.00">/PlatformSupportDefinitions.hpp</text>
</a>
</g>
</g>
<!-- Node1&#45;&gt;Node2 -->
<g id="edge1" class="edge"><title>Node1&#45;&gt;Node2</title>
<path fill="none" stroke="midnightblue" d="M553.021,-436.556C617.004,-425.809 705.224,-410.992 770.149,-400.087"/>
<polygon fill="midnightblue" stroke="midnightblue" points="771.079,-403.48 780.362,-398.372 769.92,-396.577 771.079,-403.48"/>
</g>
<!-- Node7 -->
<g id="node7" class="node"><title>Node7</title>
<g id="a_node7"><a xlink:title=" ">
<polygon fill="none" stroke="#bfbfbf" points="51.5,-73 51.5,-92 100.5,-92 100.5,-73 51.5,-73"/>
<text text-anchor="middle" x="76" y="-80" font-family="Helvetica,sans-Serif" font-size="10.00">cassert</text>
</a>
</g>
</g>
<!-- Node1&#45;&gt;Node7 -->
<g id="edge6" class="edge"><title>Node1&#45;&gt;Node7</title>
<path fill="none" stroke="midnightblue" d="M386.785,-445.17C251.792,-434.213 0,-403.167 0,-324 0,-324 0,-324 0,-210 0,-164.622 36.3794,-121.482 58.7989,-99.205"/>
<polygon fill="midnightblue" stroke="midnightblue" points="61.2772,-101.678 66.0643,-92.2259 56.4279,-96.6293 61.2772,-101.678"/>
</g>
<!-- Node8 -->
<g id="node8" class="node"><title>Node8</title>
<g id="a_node8"><a xlink:href="XalanDOMString_8hpp.html" target="_top" xlink:title=" ">
<polygon fill="none" stroke="black" points="376.5,-375 376.5,-394 563.5,-394 563.5,-375 376.5,-375"/>
<text text-anchor="middle" x="470" y="-382" font-family="Helvetica,sans-Serif" font-size="10.00">xalanc/XalanDOM/XalanDOMString.hpp</text>
</a>
</g>
</g>
<!-- Node1&#45;&gt;Node8 -->
<g id="edge7" class="edge"><title>Node1&#45;&gt;Node8</title>
<path fill="none" stroke="midnightblue" d="M470,-436.396C470,-427.064 470,-414.714 470,-404.517"/>
<polygon fill="midnightblue" stroke="midnightblue" points="473.5,-404.195 470,-394.195 466.5,-404.195 473.5,-404.195"/>
</g>
<!-- Node3 -->
<g id="node3" class="node"><title>Node3</title>
<g id="a_node3"><a xlink:href="PlatformDefinitions_8hpp.html" target="_top" xlink:title=" ">
<polygon fill="none" stroke="black" points="702,-73 702,-92 884,-92 884,-73 702,-73"/>
<text text-anchor="middle" x="793" y="-80" font-family="Helvetica,sans-Serif" font-size="10.00">xalanc/Include/PlatformDefinitions.hpp</text>
</a>
</g>
</g>
<!-- Node2&#45;&gt;Node3 -->
<g id="edge2" class="edge"><title>Node2&#45;&gt;Node3</title>
<path fill="none" stroke="midnightblue" d="M933.753,-370.86C990.154,-356.674 1057,-327.343 1057,-268 1057,-268 1057,-268 1057,-210 1057,-134.73 968.644,-104.213 894.162,-91.8593"/>
<polygon fill="midnightblue" stroke="midnightblue" points="894.645,-88.3923 884.223,-90.3028 893.562,-95.308 894.645,-88.3923"/>
</g>
<!-- Node4 -->
<g id="node4" class="node"><title>Node4</title>
<g id="a_node4"><a xlink:title=" ">
<polygon fill="none" stroke="#bfbfbf" points="591,-0.5 591,-30.5 699,-30.5 699,-0.5 591,-0.5"/>
<text text-anchor="start" x="599" y="-18.5" font-family="Helvetica,sans-Serif" font-size="10.00">xercesc/util/Xerces</text>
<text text-anchor="middle" x="645" y="-7.5" font-family="Helvetica,sans-Serif" font-size="10.00">_autoconf_config.hpp</text>
</a>
</g>
</g>
<!-- Node3&#45;&gt;Node4 -->
<g id="edge3" class="edge"><title>Node3&#45;&gt;Node4</title>
<path fill="none" stroke="midnightblue" d="M773.347,-72.8685C751.235,-63.1572 714.695,-47.1092 686.246,-34.6148"/>
<polygon fill="midnightblue" stroke="midnightblue" points="687.504,-31.3447 676.941,-30.5281 684.689,-37.7539 687.504,-31.3447"/>
</g>
<!-- Node5 -->
<g id="node5" class="node"><title>Node5</title>
<g id="a_node5"><a xlink:title=" ">
<polygon fill="none" stroke="#bfbfbf" points="717.5,-6 717.5,-25 868.5,-25 868.5,-6 717.5,-6"/>
<text text-anchor="middle" x="793" y="-13" font-family="Helvetica,sans-Serif" font-size="10.00">xercesc/util/XercesVersion.hpp</text>
</a>
</g>
</g>
<!-- Node3&#45;&gt;Node5 -->
<g id="edge4" class="edge"><title>Node3&#45;&gt;Node5</title>
<path fill="none" stroke="midnightblue" d="M793,-72.7338C793,-63.1826 793,-47.6183 793,-35.2829"/>
<polygon fill="midnightblue" stroke="midnightblue" points="796.5,-35.1273 793,-25.1273 789.5,-35.1273 796.5,-35.1273"/>
</g>
<!-- Node6 -->
<g id="node6" class="node"><title>Node6</title>
<g id="a_node6"><a xlink:href="XalanVersion_8hpp.html" target="_top" xlink:title=" ">
<polygon fill="none" stroke="black" points="887,-6 887,-25 979,-25 979,-6 887,-6"/>
<text text-anchor="middle" x="933" y="-13" font-family="Helvetica,sans-Serif" font-size="10.00">XalanVersion.hpp</text>
</a>
</g>
</g>
<!-- Node3&#45;&gt;Node6 -->
<g id="edge5" class="edge"><title>Node3&#45;&gt;Node6</title>
<path fill="none" stroke="midnightblue" d="M811.591,-72.8685C835.544,-61.7476 877.395,-42.3167 905.154,-29.4286"/>
<polygon fill="midnightblue" stroke="midnightblue" points="906.736,-32.5529 914.332,-25.1672 903.788,-26.2038 906.736,-32.5529"/>
</g>
<!-- Node8&#45;&gt;Node7 -->
<g id="edge10" class="edge"><title>Node8&#45;&gt;Node7</title>
<path fill="none" stroke="midnightblue" d="M376.262,-377.296C249.208,-366.267 38,-337.483 38,-268 38,-268 38,-268 38,-210 38,-169.85 55.7757,-125.446 67.0118,-101.389"/>
<polygon fill="midnightblue" stroke="midnightblue" points="70.289,-102.652 71.4917,-92.1255 63.9871,-99.6043 70.289,-102.652"/>
</g>
<!-- Node9 -->
<g id="node9" class="node"><title>Node9</title>
<g id="a_node9"><a xlink:href="XalanDOMDefinitions_8hpp.html" target="_top" xlink:title=" ">
<polygon fill="none" stroke="black" points="823,-257.5 823,-276.5 1029,-276.5 1029,-257.5 823,-257.5"/>
<text text-anchor="middle" x="926" y="-264.5" font-family="Helvetica,sans-Serif" font-size="10.00">xalanc/XalanDOM/XalanDOMDefinitions.hpp</text>
</a>
</g>
</g>
<!-- Node8&#45;&gt;Node9 -->
<g id="edge8" class="edge"><title>Node8&#45;&gt;Node9</title>
<path fill="none" stroke="midnightblue" d="M563.571,-378.069C683.811,-370.269 880.223,-354.44 906,-333 919.454,-321.809 924.033,-301.788 925.504,-286.913"/>
<polygon fill="midnightblue" stroke="midnightblue" points="929.007,-286.965 926.119,-276.772 922.02,-286.542 929.007,-286.965"/>
</g>
<!-- Node10 -->
<g id="node10" class="node"><title>Node10</title>
<g id="a_node10"><a xlink:href="STLHelper_8hpp.html" target="_top" xlink:title=" ">
<polygon fill="none" stroke="black" points="528,-313.5 528,-332.5 674,-332.5 674,-313.5 528,-313.5"/>
<text text-anchor="middle" x="601" y="-320.5" font-family="Helvetica,sans-Serif" font-size="10.00">xalanc/Include/STLHelper.hpp</text>
</a>
</g>
</g>
<!-- Node8&#45;&gt;Node10 -->
<g id="edge11" class="edge"><title>Node8&#45;&gt;Node10</title>
<path fill="none" stroke="midnightblue" d="M488.769,-374.975C510.851,-364.945 547.719,-348.2 573.139,-336.655"/>
<polygon fill="midnightblue" stroke="midnightblue" points="574.608,-339.831 582.266,-332.509 571.713,-333.458 574.608,-339.831"/>
</g>
<!-- Node16 -->
<g id="node16" class="node"><title>Node16</title>
<g id="a_node16"><a xlink:href="XalanVector_8hpp.html" target="_top" xlink:title=" ">
<polygon fill="none" stroke="black" points="264,-201.5 264,-220.5 416,-220.5 416,-201.5 264,-201.5"/>
<text text-anchor="middle" x="340" y="-208.5" font-family="Helvetica,sans-Serif" font-size="10.00">xalanc/Include/XalanVector.hpp</text>
</a>
</g>
</g>
<!-- Node8&#45;&gt;Node16 -->
<g id="edge45" class="edge"><title>Node8&#45;&gt;Node16</title>
<path fill="none" stroke="midnightblue" d="M463.375,-374.76C442.769,-347.576 379.574,-264.208 352.512,-228.506"/>
<polygon fill="midnightblue" stroke="midnightblue" points="355.288,-226.374 346.458,-220.519 349.709,-230.603 355.288,-226.374"/>
</g>
<!-- Node20 -->
<g id="node20" class="node"><title>Node20</title>
<g id="a_node20"><a xlink:href="XalanMemoryManagement_8hpp.html" target="_top" xlink:title=" ">
<polygon fill="none" stroke="black" points="142,-134.5 142,-164.5 282,-164.5 282,-134.5 142,-134.5"/>
<text text-anchor="start" x="150" y="-152.5" font-family="Helvetica,sans-Serif" font-size="10.00">xalanc/Include/XalanMemory</text>
<text text-anchor="middle" x="212" y="-141.5" font-family="Helvetica,sans-Serif" font-size="10.00">Management.hpp</text>
</a>
</g>
</g>
<!-- Node8&#45;&gt;Node20 -->
<g id="edge44" class="edge"><title>Node8&#45;&gt;Node20</title>
<path fill="none" stroke="midnightblue" d="M454.92,-374.869C417.548,-352.938 319.052,-291.766 255,-221 242.18,-206.837 231.056,-188.317 223.336,-173.813"/>
<polygon fill="midnightblue" stroke="midnightblue" points="226.241,-171.81 218.556,-164.517 220.016,-175.011 226.241,-171.81"/>
</g>
<!-- Node23 -->
<g id="node23" class="node"><title>Node23</title>
<g id="a_node23"><a xlink:href="XalanDOMException_8hpp.html" target="_top" xlink:title=" ">
<polygon fill="none" stroke="black" points="692.5,-313.5 692.5,-332.5 897.5,-332.5 897.5,-313.5 692.5,-313.5"/>
<text text-anchor="middle" x="795" y="-320.5" font-family="Helvetica,sans-Serif" font-size="10.00">xalanc/XalanDOM/XalanDOMException.hpp</text>
</a>
</g>
</g>
<!-- Node8&#45;&gt;Node23 -->
<g id="edge46" class="edge"><title>Node8&#45;&gt;Node23</title>
<path fill="none" stroke="midnightblue" d="M516.565,-374.975C575.089,-364.261 675.476,-345.882 738.379,-334.366"/>
<polygon fill="midnightblue" stroke="midnightblue" points="739.316,-337.753 748.522,-332.509 738.055,-330.867 739.316,-337.753"/>
</g>
<!-- Node9&#45;&gt;Node3 -->
<g id="edge9" class="edge"><title>Node9&#45;&gt;Node3</title>
<path fill="none" stroke="midnightblue" d="M926.971,-257.204C929.008,-234.298 931.358,-171.953 902,-134 887.282,-114.974 863.702,-102.841 842.231,-95.2519"/>
<polygon fill="midnightblue" stroke="midnightblue" points="843.147,-91.8689 832.555,-92.0764 840.965,-98.52 843.147,-91.8689"/>
</g>
<!-- Node10&#45;&gt;Node3 -->
<g id="edge12" class="edge"><title>Node10&#45;&gt;Node3</title>
<path fill="none" stroke="midnightblue" d="M631.025,-313.427C659.789,-304.979 704.274,-291.291 742,-277 770.844,-266.073 852.155,-246.838 869,-221 896.913,-178.186 843.245,-124.38 812.469,-98.6121"/>
<polygon fill="midnightblue" stroke="midnightblue" points="814.45,-95.712 804.483,-92.1202 810.035,-101.144 814.45,-95.712"/>
</g>
<!-- Node11 -->
<g id="node11" class="node"><title>Node11</title>
<g id="a_node11"><a xlink:title=" ">
<polygon fill="none" stroke="#bfbfbf" points="376,-140 376,-159 432,-159 432,-140 376,-140"/>
<text text-anchor="middle" x="404" y="-147" font-family="Helvetica,sans-Serif" font-size="10.00">algorithm</text>
</a>
</g>
</g>
<!-- Node10&#45;&gt;Node11 -->
<g id="edge13" class="edge"><title>Node10&#45;&gt;Node11</title>
<path fill="none" stroke="midnightblue" d="M587.781,-313.319C562.958,-296.746 508.165,-258.868 467,-221 448.419,-203.907 429.423,-181.904 417.219,-167.061"/>
<polygon fill="midnightblue" stroke="midnightblue" points="419.891,-164.8 410.872,-159.241 414.456,-169.211 419.891,-164.8"/>
</g>
<!-- Node12 -->
<g id="node12" class="node"><title>Node12</title>
<g id="a_node12"><a xlink:title=" ">
<polygon fill="none" stroke="#bfbfbf" points="802,-201.5 802,-220.5 860,-220.5 860,-201.5 802,-201.5"/>
<text text-anchor="middle" x="831" y="-208.5" font-family="Helvetica,sans-Serif" font-size="10.00">functional</text>
</a>
</g>
</g>
<!-- Node10&#45;&gt;Node12 -->
<g id="edge14" class="edge"><title>Node10&#45;&gt;Node12</title>
<path fill="none" stroke="midnightblue" d="M623.194,-313.466C645.217,-304.832 679.809,-290.82 709,-277 743.66,-260.591 782.583,-239.343 806.944,-225.689"/>
<polygon fill="midnightblue" stroke="midnightblue" points="808.836,-228.64 815.831,-220.682 805.4,-222.541 808.836,-228.64"/>
</g>
<!-- Node13 -->
<g id="node13" class="node"><title>Node13</title>
<g id="a_node13"><a xlink:href="XalanMap_8hpp.html" target="_top" xlink:title=" ">
<polygon fill="none" stroke="black" points="557.5,-257.5 557.5,-276.5 700.5,-276.5 700.5,-257.5 557.5,-257.5"/>
<text text-anchor="middle" x="629" y="-264.5" font-family="Helvetica,sans-Serif" font-size="10.00">xalanc/Include/XalanMap.hpp</text>
</a>
</g>
</g>
<!-- Node10&#45;&gt;Node13 -->
<g id="edge15" class="edge"><title>Node10&#45;&gt;Node13</title>
<path fill="none" stroke="midnightblue" d="M605.624,-313.083C609.456,-305.691 615.024,-294.953 619.765,-285.811"/>
<polygon fill="midnightblue" stroke="midnightblue" points="622.966,-287.24 624.462,-276.751 616.752,-284.018 622.966,-287.24"/>
</g>
<!-- Node13&#45;&gt;Node3 -->
<g id="edge16" class="edge"><title>Node13&#45;&gt;Node3</title>
<path fill="none" stroke="midnightblue" d="M686.62,-257.478C710.725,-251.152 737.212,-240.143 755,-221 785.956,-187.685 792.054,-131.419 793.028,-102.268"/>
<polygon fill="midnightblue" stroke="midnightblue" points="796.529,-102.265 793.191,-92.2091 789.53,-102.151 796.529,-102.265"/>
</g>
<!-- Node13&#45;&gt;Node11 -->
<g id="edge18" class="edge"><title>Node13&#45;&gt;Node11</title>
<path fill="none" stroke="midnightblue" d="M596.629,-257.458C570.084,-249.793 531.974,-237.255 501,-221 471.106,-205.312 440.163,-181.21 421.494,-165.649"/>
<polygon fill="midnightblue" stroke="midnightblue" points="423.723,-162.95 413.829,-159.161 419.201,-168.293 423.723,-162.95"/>
</g>
<!-- Node13&#45;&gt;Node12 -->
<g id="edge19" class="edge"><title>Node13&#45;&gt;Node12</title>
<path fill="none" stroke="midnightblue" d="M661.008,-257.444C696.546,-247.943 753.914,-232.607 792.036,-222.416"/>
<polygon fill="midnightblue" stroke="midnightblue" points="793.009,-225.779 801.766,-219.815 791.201,-219.016 793.009,-225.779"/>
</g>
<!-- Node14 -->
<g id="node14" class="node"><title>Node14</title>
<g id="a_node14"><a xlink:title=" ">
<polygon fill="none" stroke="#bfbfbf" points="488,-73 488,-92 536,-92 536,-73 488,-73"/>
<text text-anchor="middle" x="512" y="-80" font-family="Helvetica,sans-Serif" font-size="10.00">cstddef</text>
</a>
</g>
</g>
<!-- Node13&#45;&gt;Node14 -->
<g id="edge17" class="edge"><title>Node13&#45;&gt;Node14</title>
<path fill="none" stroke="midnightblue" d="M636.639,-257.443C655.622,-235.115 701.353,-174.044 672,-134 643.273,-94.8096 584.046,-85.2511 546.266,-83.3475"/>
<polygon fill="midnightblue" stroke="midnightblue" points="546.339,-79.848 536.222,-82.9953 546.093,-86.8437 546.339,-79.848"/>
</g>
<!-- Node15 -->
<g id="node15" class="node"><title>Node15</title>
<g id="a_node15"><a xlink:title=" ">
<polygon fill="none" stroke="#bfbfbf" points="706,-201.5 706,-220.5 746,-220.5 746,-201.5 706,-201.5"/>
<text text-anchor="middle" x="726" y="-208.5" font-family="Helvetica,sans-Serif" font-size="10.00">utility</text>
</a>
</g>
</g>
<!-- Node13&#45;&gt;Node15 -->
<g id="edge20" class="edge"><title>Node13&#45;&gt;Node15</title>
<path fill="none" stroke="midnightblue" d="M644.585,-257.324C659.999,-248.743 683.812,-235.486 701.71,-225.522"/>
<polygon fill="midnightblue" stroke="midnightblue" points="703.419,-228.577 710.454,-220.655 700.014,-222.461 703.419,-228.577"/>
</g>
<!-- Node13&#45;&gt;Node16 -->
<g id="edge21" class="edge"><title>Node13&#45;&gt;Node16</title>
<path fill="none" stroke="midnightblue" d="M583.207,-257.444C532.263,-247.925 449.966,-232.547 395.426,-222.356"/>
<polygon fill="midnightblue" stroke="midnightblue" points="396.051,-218.913 385.579,-220.516 394.766,-225.794 396.051,-218.913"/>
</g>
<!-- Node22 -->
<g id="node22" class="node"><title>Node22</title>
<g id="a_node22"><a xlink:href="XalanList_8hpp.html" target="_top" xlink:title=" ">
<polygon fill="none" stroke="black" points="510,-201.5 510,-220.5 650,-220.5 650,-201.5 510,-201.5"/>
<text text-anchor="middle" x="580" y="-208.5" font-family="Helvetica,sans-Serif" font-size="10.00">xalanc/Include/XalanList.hpp</text>
</a>
</g>
</g>
<!-- Node13&#45;&gt;Node22 -->
<g id="edge35" class="edge"><title>Node13&#45;&gt;Node22</title>
<path fill="none" stroke="midnightblue" d="M620.909,-257.083C613.845,-249.298 603.412,-237.801 594.851,-228.367"/>
<polygon fill="midnightblue" stroke="midnightblue" points="597.253,-225.805 587.941,-220.751 592.069,-230.509 597.253,-225.805"/>
</g>
<!-- Node16&#45;&gt;Node3 -->
<g id="edge22" class="edge"><title>Node16&#45;&gt;Node3</title>
<path fill="none" stroke="midnightblue" d="M340.279,-201.27C341.307,-185.137 345.99,-150.773 367,-134 391.884,-114.134 573.63,-98.274 691.556,-89.933"/>
<polygon fill="midnightblue" stroke="midnightblue" points="691.968,-93.4129 701.699,-89.223 691.479,-86.43 691.968,-93.4129"/>
</g>
<!-- Node16&#45;&gt;Node7 -->
<g id="edge25" class="edge"><title>Node16&#45;&gt;Node7</title>
<path fill="none" stroke="midnightblue" d="M267.944,-201.485C214.065,-193.949 145.915,-181.571 123,-165 101.435,-149.406 88.2823,-120.649 81.5687,-101.8"/>
<polygon fill="midnightblue" stroke="midnightblue" points="84.8767,-100.656 78.4168,-92.2583 78.23,-102.852 84.8767,-100.656"/>
</g>
<!-- Node16&#45;&gt;Node11 -->
<g id="edge24" class="edge"><title>Node16&#45;&gt;Node11</title>
<path fill="none" stroke="midnightblue" d="M349.17,-201.475C359.15,-192.197 375.312,-177.171 387.509,-165.831"/>
<polygon fill="midnightblue" stroke="midnightblue" points="389.907,-168.381 394.847,-159.009 385.14,-163.255 389.907,-168.381"/>
</g>
<!-- Node16&#45;&gt;Node14 -->
<g id="edge23" class="edge"><title>Node16&#45;&gt;Node14</title>
<path fill="none" stroke="midnightblue" d="M335.986,-201.451C329.487,-186.209 318.838,-154.062 334,-134 351.286,-111.128 431.006,-95.5997 477.69,-88.2939"/>
<polygon fill="midnightblue" stroke="midnightblue" points="478.313,-91.7395 487.674,-86.7778 477.262,-84.8189 478.313,-91.7395"/>
</g>
<!-- Node17 -->
<g id="node17" class="node"><title>Node17</title>
<g id="a_node17"><a xlink:title=" ">
<polygon fill="none" stroke="#bfbfbf" points="287,-73 287,-92 321,-92 321,-73 287,-73"/>
<text text-anchor="middle" x="304" y="-80" font-family="Helvetica,sans-Serif" font-size="10.00">new</text>
</a>
</g>
</g>
<!-- Node16&#45;&gt;Node17 -->
<g id="edge26" class="edge"><title>Node16&#45;&gt;Node17</title>
<path fill="none" stroke="midnightblue" d="M263.982,-203.371C211.938,-197.075 149.472,-185.438 133,-165 124.354,-154.273 124.521,-144.86 133,-134 173.599,-82.0023 215.469,-121.788 277,-98 278.2,-97.5359 279.415,-97.0301 280.63,-96.4946"/>
<polygon fill="midnightblue" stroke="midnightblue" points="282.316,-99.5659 289.74,-92.0074 279.223,-93.2864 282.316,-99.5659"/>
</g>
<!-- Node18 -->
<g id="node18" class="node"><title>Node18</title>
<g id="a_node18"><a xlink:title=" ">
<polygon fill="none" stroke="#bfbfbf" points="527.5,-140 527.5,-159 574.5,-159 574.5,-140 527.5,-140"/>
<text text-anchor="middle" x="551" y="-147" font-family="Helvetica,sans-Serif" font-size="10.00">iterator</text>
</a>
</g>
</g>
<!-- Node16&#45;&gt;Node18 -->
<g id="edge27" class="edge"><title>Node16&#45;&gt;Node18</title>
<path fill="none" stroke="midnightblue" d="M381.935,-201.468C418.373,-193.566 472.328,-180.685 518,-165 519.864,-164.36 521.77,-163.657 523.677,-162.918"/>
<polygon fill="midnightblue" stroke="midnightblue" points="525.163,-166.091 533.06,-159.029 522.482,-159.625 525.163,-166.091"/>
</g>
<!-- Node19 -->
<g id="node19" class="node"><title>Node19</title>
<g id="a_node19"><a xlink:title=" ">
<polygon fill="none" stroke="#bfbfbf" points="450.5,-140 450.5,-159 509.5,-159 509.5,-140 450.5,-140"/>
<text text-anchor="middle" x="480" y="-147" font-family="Helvetica,sans-Serif" font-size="10.00">stdexcept</text>
</a>
</g>
</g>
<!-- Node16&#45;&gt;Node19 -->
<g id="edge28" class="edge"><title>Node16&#45;&gt;Node19</title>
<path fill="none" stroke="midnightblue" d="M360.059,-201.475C383.762,-191.401 423.406,-174.553 450.583,-163.002"/>
<polygon fill="midnightblue" stroke="midnightblue" points="452.144,-166.142 459.979,-159.009 449.406,-159.699 452.144,-166.142"/>
</g>
<!-- Node16&#45;&gt;Node20 -->
<g id="edge29" class="edge"><title>Node16&#45;&gt;Node20</title>
<path fill="none" stroke="midnightblue" d="M321.661,-201.475C303.434,-193.002 274.897,-179.737 251.503,-168.863"/>
<polygon fill="midnightblue" stroke="midnightblue" points="252.711,-165.564 242.167,-164.523 249.76,-171.912 252.711,-165.564"/>
</g>
<!-- Node20&#45;&gt;Node3 -->
<g id="edge30" class="edge"><title>Node20&#45;&gt;Node3</title>
<path fill="none" stroke="midnightblue" d="M282.307,-140.038C299.232,-138.03 317.259,-135.916 334,-134 462.399,-119.307 611.1,-103.093 703.619,-93.1007"/>
<polygon fill="midnightblue" stroke="midnightblue" points="704.217,-96.5567 713.783,-92.0036 703.466,-89.5971 704.217,-96.5567"/>
</g>
<!-- Node20&#45;&gt;Node7 -->
<g id="edge31" class="edge"><title>Node20&#45;&gt;Node7</title>
<path fill="none" stroke="midnightblue" d="M182.49,-134.396C158.838,-123.092 125.924,-107.361 102.97,-96.3903"/>
<polygon fill="midnightblue" stroke="midnightblue" points="104.331,-93.1614 93.7993,-92.007 101.312,-99.4771 104.331,-93.1614"/>
</g>
<!-- Node20&#45;&gt;Node14 -->
<g id="edge32" class="edge"><title>Node20&#45;&gt;Node14</title>
<path fill="none" stroke="midnightblue" d="M276.726,-134.476C338.509,-121.09 429.193,-101.441 477.964,-90.8745"/>
<polygon fill="midnightblue" stroke="midnightblue" points="478.963,-94.2394 487.995,-88.7011 477.48,-87.3981 478.963,-94.2394"/>
</g>
<!-- Node20&#45;&gt;Node17 -->
<g id="edge33" class="edge"><title>Node20&#45;&gt;Node17</title>
<path fill="none" stroke="midnightblue" d="M231.963,-134.396C247.248,-123.597 268.252,-108.756 283.637,-97.8872"/>
<polygon fill="midnightblue" stroke="midnightblue" points="285.812,-100.636 291.959,-92.007 281.772,-94.9188 285.812,-100.636"/>
</g>
<!-- Node21 -->
<g id="node21" class="node"><title>Node21</title>
<g id="a_node21"><a xlink:title=" ">
<polygon fill="none" stroke="#bfbfbf" points="131.5,-67.5 131.5,-97.5 268.5,-97.5 268.5,-67.5 131.5,-67.5"/>
<text text-anchor="start" x="139.5" y="-85.5" font-family="Helvetica,sans-Serif" font-size="10.00">xercesc/framework/Memory</text>
<text text-anchor="middle" x="200" y="-74.5" font-family="Helvetica,sans-Serif" font-size="10.00">Manager.hpp</text>
</a>
</g>
</g>
<!-- Node20&#45;&gt;Node21 -->
<g id="edge34" class="edge"><title>Node20&#45;&gt;Node21</title>
<path fill="none" stroke="midnightblue" d="M209.396,-134.396C207.949,-126.56 206.11,-116.596 204.443,-107.565"/>
<polygon fill="midnightblue" stroke="midnightblue" points="207.856,-106.775 202.599,-97.5765 200.972,-108.046 207.856,-106.775"/>
</g>
<!-- Node22&#45;&gt;Node3 -->
<g id="edge36" class="edge"><title>Node22&#45;&gt;Node3</title>
<path fill="none" stroke="midnightblue" d="M599.43,-201.443C618.331,-192.9 647.674,-179.052 672,-165 708.949,-143.656 749.672,-115.107 773.197,-98.0805"/>
<polygon fill="midnightblue" stroke="midnightblue" points="775.306,-100.875 781.328,-92.1582 771.185,-95.2166 775.306,-100.875"/>
</g>
<!-- Node22&#45;&gt;Node7 -->
<g id="edge39" class="edge"><title>Node22&#45;&gt;Node7</title>
<path fill="none" stroke="midnightblue" d="M583.794,-201.37C590.027,-185.708 600.126,-152.515 583,-134 548.113,-96.2824 172.438,-107.786 122,-98 117.839,-97.1926 113.524,-96.1374 109.28,-94.9641"/>
<polygon fill="midnightblue" stroke="midnightblue" points="110.193,-91.584 99.6092,-92.073 108.188,-98.2907 110.193,-91.584"/>
</g>
<!-- Node22&#45;&gt;Node11 -->
<g id="edge38" class="edge"><title>Node22&#45;&gt;Node11</title>
<path fill="none" stroke="midnightblue" d="M551.877,-201.443C523.679,-192.735 479.097,-178.618 441,-165 438.889,-164.245 436.717,-163.448 434.534,-162.632"/>
<polygon fill="midnightblue" stroke="midnightblue" points="435.639,-159.308 425.049,-159.003 433.137,-165.845 435.639,-159.308"/>
</g>
<!-- Node22&#45;&gt;Node14 -->
<g id="edge37" class="edge"><title>Node22&#45;&gt;Node14</title>
<path fill="none" stroke="midnightblue" d="M607.282,-201.453C624.294,-194.548 644.825,-182.971 655,-165 661.788,-153.011 662.957,-145.248 655,-134 630.578,-99.4757 580.51,-88.3942 546.591,-84.9293"/>
<polygon fill="midnightblue" stroke="midnightblue" points="546.458,-81.4056 536.199,-84.0518 545.869,-88.3808 546.458,-81.4056"/>
</g>
<!-- Node22&#45;&gt;Node17 -->
<g id="edge40" class="edge"><title>Node22&#45;&gt;Node17</title>
<path fill="none" stroke="midnightblue" d="M589.972,-201.447C606.246,-186.478 634.983,-155.116 617,-134 598.5,-112.276 404.619,-92.6126 331.605,-85.9241"/>
<polygon fill="midnightblue" stroke="midnightblue" points="331.631,-82.4122 321.357,-84.9981 331.001,-89.3838 331.631,-82.4122"/>
</g>
<!-- Node22&#45;&gt;Node18 -->
<g id="edge41" class="edge"><title>Node22&#45;&gt;Node18</title>
<path fill="none" stroke="midnightblue" d="M575.845,-201.475C571.624,-192.815 564.963,-179.149 559.6,-168.145"/>
<polygon fill="midnightblue" stroke="midnightblue" points="562.675,-166.465 555.147,-159.009 556.382,-169.532 562.675,-166.465"/>
</g>
<!-- Node22&#45;&gt;Node19 -->
<g id="edge42" class="edge"><title>Node22&#45;&gt;Node19</title>
<path fill="none" stroke="midnightblue" d="M565.672,-201.475C549.336,-191.755 522.398,-175.727 503.088,-164.237"/>
<polygon fill="midnightblue" stroke="midnightblue" points="504.685,-161.115 494.301,-159.009 501.105,-167.13 504.685,-161.115"/>
</g>
<!-- Node22&#45;&gt;Node20 -->
<g id="edge43" class="edge"><title>Node22&#45;&gt;Node20</title>
<path fill="none" stroke="midnightblue" d="M527.275,-201.475C465.901,-191.552 363.869,-175.055 292.551,-163.524"/>
<polygon fill="midnightblue" stroke="midnightblue" points="292.691,-160.001 282.261,-161.86 291.574,-166.911 292.691,-160.001"/>
</g>
<!-- Node23&#45;&gt;Node9 -->
<g id="edge47" class="edge"><title>Node23&#45;&gt;Node9</title>
<path fill="none" stroke="midnightblue" d="M815.757,-313.444C837.316,-304.557 871.263,-290.563 895.794,-280.451"/>
<polygon fill="midnightblue" stroke="midnightblue" points="897.428,-283.563 905.34,-276.516 894.761,-277.092 897.428,-283.563"/>
</g>
</g>
</svg>
        <g id="navigator" transform="translate(0 0)" fill="#404254">
                <rect fill="#f2f5e9" fill-opacity="0.5" stroke="#606060" stroke-width=".5" x="0" y="0" width="60" height="60"/>
                <use id="zoomplus" xlink:href="#zoomPlus" x="17" y="9" onmousedown="handleZoom(evt,'in')"/>
                <use id="zoomminus" xlink:href="#zoomMin" x="42" y="9" onmousedown="handleZoom(evt,'out')"/>
                <use id="reset" xlink:href="#resetDef" x="30" y="36" onmousedown="handleReset()"/>
                <g id="arrowUp" xlink:href="#dirArrow" transform="translate(30 24)" onmousedown="handlePan(0,-1)">
                  <use xlink:href="#rim" fill="#404040">
                        <set attributeName="fill" to="#808080" begin="arrowUp.mouseover" end="arrowUp.mouseout"/>
                  </use>
                  <path fill="none" stroke="white" stroke-width="1.5" d="M0,-3.0v7 M-2.5,-0.5L0,-3.0L2.5,-0.5"/>
                </g>
                <g id="arrowRight" xlink:href="#dirArrow" transform="rotate(90) translate(36 -43)" onmousedown="handlePan(1,0)">
                  <use xlink:href="#rim" fill="#404040">
                        <set attributeName="fill" to="#808080" begin="arrowRight.mouseover" end="arrowRight.mouseout"/>
                  </use>
                  <path fill="none" stroke="white" stroke-width="1.5" d="M0,-3.0v7 M-2.5,-0.5L0,-3.0L2.5,-0.5"/>
                </g>
                <g id="arrowDown" xlink:href="#dirArrow" transform="rotate(180) translate(-30 -48)" onmousedown="handlePan(0,1)">
                  <use xlink:href="#rim" fill="#404040">
                        <set attributeName="fill" to="#808080" begin="arrowDown.mouseover" end="arrowDown.mouseout"/>
                  </use>
                  <path fill="none" stroke="white" stroke-width="1.5" d="M0,-3.0v7 M-2.5,-0.5L0,-3.0L2.5,-0.5"/>
                </g>
                <g id="arrowLeft" xlink:href="#dirArrow" transform="rotate(270) translate(-36 17)" onmousedown="handlePan(-1,0)">
                  <use xlink:href="#rim" fill="#404040">
                        <set attributeName="fill" to="#808080" begin="arrowLeft.mouseover" end="arrowLeft.mouseout"/>
                  </use>
                  <path fill="none" stroke="white" stroke-width="1.5" d="M0,-3.0v7 M-2.5,-0.5L0,-3.0L2.5,-0.5"/>
                </g>
        </g>
        <svg viewBox="0 0 15 15" width="100%" height="30px" preserveAspectRatio="xMaxYMin meet">
         <g id="arrow_out" transform="scale(0.3 0.3)">
          <a xlink:href="XalanDecimalFormatSymbols_8hpp__incl_org.svg" target="_base">
           <rect id="button" ry="5" rx="5" y="6" x="6" height="38" width="38"
                fill="#f2f5e9" fill-opacity="0.5" stroke="#606060" stroke-width="1.0"/>
           <path id="arrow"
             d="M 11.500037,31.436501 C 11.940474,20.09759 22.043105,11.32322 32.158766,21.979434 L 37.068811,17.246167 C 37.068811,17.246167 37.088388,32 37.088388,32 L 22.160133,31.978069 C 22.160133,31.978069 26.997745,27.140456 26.997745,27.140456 C 18.528582,18.264221 13.291696,25.230495 11.500037,31.436501 z"
             style="fill:#404040;"/>
          </a>
         </g>
        </svg>
</svg>
