<?xml version="1.0" encoding="UTF-8" standalone="no"?>
<!DOCTYPE svg PUBLIC "-//W3C//DTD SVG 1.1//EN"
 "http://www.w3.org/Graphics/SVG/1.1/DTD/svg11.dtd">
<!-- Generated by graphviz version 2.38.0 (20140413.2041)
 -->
<!-- Title: xalanc/XalanSourceTree/XalanSourceTreeParserLiaison.hpp Pages: 1 -->
<svg width="1460pt" height="620pt"
 viewBox="0.00 0.00 1460.00 620.00" xmlns="http://www.w3.org/2000/svg" xmlns:xlink="http://www.w3.org/1999/xlink">
<g id="graph0" class="graph" transform="scale(1 1) rotate(0) translate(4 616)">
<title>xalanc/XalanSourceTree/XalanSourceTreeParserLiaison.hpp</title>
<!-- Node1 -->
<g id="node1" class="node"><title>Node1</title>
<g id="a_node1"><a xlink:title=" ">
<polygon fill="#bfbfbf" stroke="black" points="555,-581.5 555,-611.5 725,-611.5 725,-581.5 555,-581.5"/>
<text text-anchor="start" x="563" y="-599.5" font-family="Helvetica,sans-Serif" font-size="10.00">xalanc/XalanSourceTree</text>
<text text-anchor="middle" x="640" y="-588.5" font-family="Helvetica,sans-Serif" font-size="10.00">/XalanSourceTreeParserLiaison.hpp</text>
</a>
</g>
</g>
<!-- Node2 -->
<g id="node2" class="node"><title>Node2</title>
<g id="a_node2"><a xlink:href="XalanSourceTreeDefinitions_8hpp.html" target="_top" xlink:title=" ">
<polygon fill="none" stroke="black" points="680,-514.5 680,-544.5 836,-544.5 836,-514.5 680,-514.5"/>
<text text-anchor="start" x="688" y="-532.5" font-family="Helvetica,sans-Serif" font-size="10.00">xalanc/XalanSourceTree</text>
<text text-anchor="middle" x="758" y="-521.5" font-family="Helvetica,sans-Serif" font-size="10.00">/XalanSourceTreeDefinitions.hpp</text>
</a>
</g>
</g>
<!-- Node1&#45;&gt;Node2 -->
<g id="edge1" class="edge"><title>Node1&#45;&gt;Node2</title>
<path fill="none" stroke="midnightblue" d="M665.604,-581.396C682.536,-572.069 704.94,-559.728 723.445,-549.534"/>
<polygon fill="midnightblue" stroke="midnightblue" points="725.375,-552.467 732.446,-544.577 721.998,-546.336 725.375,-552.467"/>
</g>
<!-- Node7 -->
<g id="node7" class="node"><title>Node7</title>
<g id="a_node7"><a xlink:href="XalanMap_8hpp.html" target="_top" xlink:title=" ">
<polygon fill="none" stroke="black" points="968.5,-263 968.5,-282 1111.5,-282 1111.5,-263 968.5,-263"/>
<text text-anchor="middle" x="1040" y="-270" font-family="Helvetica,sans-Serif" font-size="10.00">xalanc/Include/XalanMap.hpp</text>
</a>
</g>
</g>
<!-- Node1&#45;&gt;Node7 -->
<g id="edge6" class="edge"><title>Node1&#45;&gt;Node7</title>
<path fill="none" stroke="midnightblue" d="M725.026,-590.137C929.323,-576.116 1431,-534.461 1431,-463.5 1431,-463.5 1431,-463.5 1431,-394.5 1431,-330.352 1236.51,-296.501 1121.87,-282.12"/>
<polygon fill="midnightblue" stroke="midnightblue" points="1122.07,-278.618 1111.72,-280.87 1121.21,-285.565 1122.07,-278.618"/>
</g>
<!-- Node20 -->
<g id="node20" class="node"><title>Node20</title>
<g id="a_node20"><a xlink:href="XercesDOMSupport_8hpp.html" target="_top" xlink:title=" ">
<polygon fill="none" stroke="black" points="62.5,-447.5 62.5,-477.5 199.5,-477.5 199.5,-447.5 62.5,-447.5"/>
<text text-anchor="start" x="70.5" y="-465.5" font-family="Helvetica,sans-Serif" font-size="10.00">xalanc/XercesParserLiaison</text>
<text text-anchor="middle" x="131" y="-454.5" font-family="Helvetica,sans-Serif" font-size="10.00">/XercesDOMSupport.hpp</text>
</a>
</g>
</g>
<!-- Node1&#45;&gt;Node20 -->
<g id="edge35" class="edge"><title>Node1&#45;&gt;Node20</title>
<path fill="none" stroke="midnightblue" d="M585.781,-581.467C546.653,-571.338 492.562,-557.331 445,-545 358.449,-522.561 258.489,-496.609 195.036,-480.132"/>
<polygon fill="midnightblue" stroke="midnightblue" points="195.732,-476.696 185.173,-477.57 193.972,-483.472 195.732,-476.696"/>
</g>
<!-- Node25 -->
<g id="node25" class="node"><title>Node25</title>
<g id="a_node25"><a xlink:href="XercesParserLiaison_8hpp.html" target="_top" xlink:title=" ">
<polygon fill="none" stroke="black" points="454.5,-514.5 454.5,-544.5 591.5,-544.5 591.5,-514.5 454.5,-514.5"/>
<text text-anchor="start" x="462.5" y="-532.5" font-family="Helvetica,sans-Serif" font-size="10.00">xalanc/XercesParserLiaison</text>
<text text-anchor="middle" x="523" y="-521.5" font-family="Helvetica,sans-Serif" font-size="10.00">/XercesParserLiaison.hpp</text>
</a>
</g>
</g>
<!-- Node1&#45;&gt;Node25 -->
<g id="edge42" class="edge"><title>Node1&#45;&gt;Node25</title>
<path fill="none" stroke="midnightblue" d="M614.613,-581.396C597.824,-572.069 575.611,-559.728 557.262,-549.534"/>
<polygon fill="midnightblue" stroke="midnightblue" points="558.779,-546.373 548.338,-544.577 555.38,-552.493 558.779,-546.373"/>
</g>
<!-- Node3 -->
<g id="node3" class="node"><title>Node3</title>
<g id="a_node3"><a xlink:href="PlatformDefinitions_8hpp.html" target="_top" xlink:title=" ">
<polygon fill="none" stroke="black" points="559,-73 559,-92 741,-92 741,-73 559,-73"/>
<text text-anchor="middle" x="650" y="-80" font-family="Helvetica,sans-Serif" font-size="10.00">xalanc/Include/PlatformDefinitions.hpp</text>
</a>
</g>
</g>
<!-- Node2&#45;&gt;Node3 -->
<g id="edge2" class="edge"><title>Node2&#45;&gt;Node3</title>
<path fill="none" stroke="midnightblue" d="M757.989,-514.226C757.206,-496.293 753.209,-465.62 736,-447 703.655,-412.002 679.746,-427.395 635,-411 555.63,-381.92 513.811,-406.592 457,-344 435.19,-319.971 438,-305.951 438,-273.5 438,-273.5 438,-273.5 438,-210 438,-140.736 522.482,-108.511 584.784,-94.1623"/>
<polygon fill="midnightblue" stroke="midnightblue" points="585.561,-97.5752 594.576,-92.0101 584.058,-90.7384 585.561,-97.5752"/>
</g>
<!-- Node4 -->
<g id="node4" class="node"><title>Node4</title>
<g id="a_node4"><a xlink:title=" ">
<polygon fill="none" stroke="#bfbfbf" points="448,-0.5 448,-30.5 556,-30.5 556,-0.5 448,-0.5"/>
<text text-anchor="start" x="456" y="-18.5" font-family="Helvetica,sans-Serif" font-size="10.00">xercesc/util/Xerces</text>
<text text-anchor="middle" x="502" y="-7.5" font-family="Helvetica,sans-Serif" font-size="10.00">_autoconf_config.hpp</text>
</a>
</g>
</g>
<!-- Node3&#45;&gt;Node4 -->
<g id="edge3" class="edge"><title>Node3&#45;&gt;Node4</title>
<path fill="none" stroke="midnightblue" d="M630.347,-72.8685C608.235,-63.1572 571.695,-47.1092 543.246,-34.6148"/>
<polygon fill="midnightblue" stroke="midnightblue" points="544.504,-31.3447 533.941,-30.5281 541.689,-37.7539 544.504,-31.3447"/>
</g>
<!-- Node5 -->
<g id="node5" class="node"><title>Node5</title>
<g id="a_node5"><a xlink:title=" ">
<polygon fill="none" stroke="#bfbfbf" points="574.5,-6 574.5,-25 725.5,-25 725.5,-6 574.5,-6"/>
<text text-anchor="middle" x="650" y="-13" font-family="Helvetica,sans-Serif" font-size="10.00">xercesc/util/XercesVersion.hpp</text>
</a>
</g>
</g>
<!-- Node3&#45;&gt;Node5 -->
<g id="edge4" class="edge"><title>Node3&#45;&gt;Node5</title>
<path fill="none" stroke="midnightblue" d="M650,-72.7338C650,-63.1826 650,-47.6183 650,-35.2829"/>
<polygon fill="midnightblue" stroke="midnightblue" points="653.5,-35.1273 650,-25.1273 646.5,-35.1273 653.5,-35.1273"/>
</g>
<!-- Node6 -->
<g id="node6" class="node"><title>Node6</title>
<g id="a_node6"><a xlink:href="XalanVersion_8hpp.html" target="_top" xlink:title=" ">
<polygon fill="none" stroke="black" points="744,-6 744,-25 836,-25 836,-6 744,-6"/>
<text text-anchor="middle" x="790" y="-13" font-family="Helvetica,sans-Serif" font-size="10.00">XalanVersion.hpp</text>
</a>
</g>
</g>
<!-- Node3&#45;&gt;Node6 -->
<g id="edge5" class="edge"><title>Node3&#45;&gt;Node6</title>
<path fill="none" stroke="midnightblue" d="M668.591,-72.8685C692.544,-61.7476 734.395,-42.3167 762.154,-29.4286"/>
<polygon fill="midnightblue" stroke="midnightblue" points="763.736,-32.5529 771.332,-25.1672 760.788,-26.2038 763.736,-32.5529"/>
</g>
<!-- Node7&#45;&gt;Node3 -->
<g id="edge7" class="edge"><title>Node7&#45;&gt;Node3</title>
<path fill="none" stroke="midnightblue" d="M1017,-262.936C991.558,-253.312 949.467,-236.942 914,-221 895.871,-212.851 892.132,-209.142 874,-201 834.699,-183.351 822.537,-184.26 784,-165 742.567,-144.293 697.031,-115.119 671.138,-97.8738"/>
<polygon fill="midnightblue" stroke="midnightblue" points="672.786,-94.7642 662.532,-92.0977 668.885,-100.577 672.786,-94.7642"/>
</g>
<!-- Node8 -->
<g id="node8" class="node"><title>Node8</title>
<g id="a_node8"><a xlink:title=" ">
<polygon fill="none" stroke="#bfbfbf" points="1404,-73 1404,-92 1452,-92 1452,-73 1404,-73"/>
<text text-anchor="middle" x="1428" y="-80" font-family="Helvetica,sans-Serif" font-size="10.00">cstddef</text>
</a>
</g>
</g>
<!-- Node7&#45;&gt;Node8 -->
<g id="edge8" class="edge"><title>Node7&#45;&gt;Node8</title>
<path fill="none" stroke="midnightblue" d="M1111.78,-270.831C1174.08,-267.625 1265.14,-256.473 1336,-221 1368.33,-204.816 1374.64,-194.877 1395,-165 1408.4,-145.338 1417.71,-119.408 1422.95,-102.13"/>
<polygon fill="midnightblue" stroke="midnightblue" points="1426.41,-102.756 1425.81,-92.1786 1419.68,-100.825 1426.41,-102.756"/>
</g>
<!-- Node9 -->
<g id="node9" class="node"><title>Node9</title>
<g id="a_node9"><a xlink:title=" ">
<polygon fill="none" stroke="#bfbfbf" points="793,-140 793,-159 849,-159 849,-140 793,-140"/>
<text text-anchor="middle" x="821" y="-147" font-family="Helvetica,sans-Serif" font-size="10.00">algorithm</text>
</a>
</g>
</g>
<!-- Node7&#45;&gt;Node9 -->
<g id="edge9" class="edge"><title>Node7&#45;&gt;Node9</title>
<path fill="none" stroke="midnightblue" d="M1024.6,-262.992C987.151,-242.3 891.062,-189.21 845.575,-164.078"/>
<polygon fill="midnightblue" stroke="midnightblue" points="847.121,-160.934 836.676,-159.161 843.736,-167.061 847.121,-160.934"/>
</g>
<!-- Node10 -->
<g id="node10" class="node"><title>Node10</title>
<g id="a_node10"><a xlink:title=" ">
<polygon fill="none" stroke="#bfbfbf" points="807,-201.5 807,-220.5 865,-220.5 865,-201.5 807,-201.5"/>
<text text-anchor="middle" x="836" y="-208.5" font-family="Helvetica,sans-Serif" font-size="10.00">functional</text>
</a>
</g>
</g>
<!-- Node7&#45;&gt;Node10 -->
<g id="edge10" class="edge"><title>Node7&#45;&gt;Node10</title>
<path fill="none" stroke="midnightblue" d="M1010.77,-262.975C975.097,-252.57 914.64,-234.937 875.018,-223.38"/>
<polygon fill="midnightblue" stroke="midnightblue" points="875.754,-219.949 865.174,-220.509 873.794,-226.669 875.754,-219.949"/>
</g>
<!-- Node11 -->
<g id="node11" class="node"><title>Node11</title>
<g id="a_node11"><a xlink:title=" ">
<polygon fill="none" stroke="#bfbfbf" points="1129,-201.5 1129,-220.5 1169,-220.5 1169,-201.5 1129,-201.5"/>
<text text-anchor="middle" x="1149" y="-208.5" font-family="Helvetica,sans-Serif" font-size="10.00">utility</text>
</a>
</g>
</g>
<!-- Node7&#45;&gt;Node11 -->
<g id="edge11" class="edge"><title>Node7&#45;&gt;Node11</title>
<path fill="none" stroke="midnightblue" d="M1055.62,-262.975C1073.59,-253.166 1103.32,-236.935 1124.41,-225.425"/>
<polygon fill="midnightblue" stroke="midnightblue" points="1126.31,-228.373 1133.41,-220.509 1122.96,-222.228 1126.31,-228.373"/>
</g>
<!-- Node12 -->
<g id="node12" class="node"><title>Node12</title>
<g id="a_node12"><a xlink:href="XalanVector_8hpp.html" target="_top" xlink:title=" ">
<polygon fill="none" stroke="black" points="959,-201.5 959,-220.5 1111,-220.5 1111,-201.5 959,-201.5"/>
<text text-anchor="middle" x="1035" y="-208.5" font-family="Helvetica,sans-Serif" font-size="10.00">xalanc/Include/XalanVector.hpp</text>
</a>
</g>
</g>
<!-- Node7&#45;&gt;Node12 -->
<g id="edge12" class="edge"><title>Node7&#45;&gt;Node12</title>
<path fill="none" stroke="midnightblue" d="M1039.28,-262.975C1038.58,-254.58 1037.48,-241.481 1036.57,-230.663"/>
<polygon fill="midnightblue" stroke="midnightblue" points="1040.04,-230.181 1035.72,-220.509 1033.06,-230.767 1040.04,-230.181"/>
</g>
<!-- Node19 -->
<g id="node19" class="node"><title>Node19</title>
<g id="a_node19"><a xlink:href="XalanList_8hpp.html" target="_top" xlink:title=" ">
<polygon fill="none" stroke="black" points="1187,-201.5 1187,-220.5 1327,-220.5 1327,-201.5 1187,-201.5"/>
<text text-anchor="middle" x="1257" y="-208.5" font-family="Helvetica,sans-Serif" font-size="10.00">xalanc/Include/XalanList.hpp</text>
</a>
</g>
</g>
<!-- Node7&#45;&gt;Node19 -->
<g id="edge26" class="edge"><title>Node7&#45;&gt;Node19</title>
<path fill="none" stroke="midnightblue" d="M1071.09,-262.975C1109.28,-252.504 1174.17,-234.712 1216.3,-223.16"/>
<polygon fill="midnightblue" stroke="midnightblue" points="1217.25,-226.529 1225.97,-220.509 1215.4,-219.778 1217.25,-226.529"/>
</g>
<!-- Node12&#45;&gt;Node3 -->
<g id="edge13" class="edge"><title>Node12&#45;&gt;Node3</title>
<path fill="none" stroke="midnightblue" d="M1014.87,-201.383C993.727,-192.333 959.521,-177.681 930,-165 897.988,-151.249 891.045,-145.038 858,-134 806.771,-116.888 746.664,-102.928 704.274,-94.0574"/>
<polygon fill="midnightblue" stroke="midnightblue" points="704.936,-90.6203 694.434,-92.023 703.518,-97.4753 704.936,-90.6203"/>
</g>
<!-- Node12&#45;&gt;Node8 -->
<g id="edge14" class="edge"><title>Node12&#45;&gt;Node8</title>
<path fill="none" stroke="midnightblue" d="M1111.2,-201.691C1197.3,-191.893 1328.21,-175.603 1349,-165 1356.9,-160.973 1392.71,-122.356 1413.3,-99.7541"/>
<polygon fill="midnightblue" stroke="midnightblue" points="1415.99,-102.002 1420.12,-92.2455 1410.81,-97.2957 1415.99,-102.002"/>
</g>
<!-- Node12&#45;&gt;Node9 -->
<g id="edge15" class="edge"><title>Node12&#45;&gt;Node9</title>
<path fill="none" stroke="midnightblue" d="M999.2,-201.482C964.253,-192.967 909.674,-179.14 863,-165 860.232,-164.161 857.373,-163.257 854.51,-162.325"/>
<polygon fill="midnightblue" stroke="midnightblue" points="855.478,-158.958 844.884,-159.1 853.254,-165.595 855.478,-158.958"/>
</g>
<!-- Node13 -->
<g id="node13" class="node"><title>Node13</title>
<g id="a_node13"><a xlink:title=" ">
<polygon fill="none" stroke="#bfbfbf" points="993.5,-73 993.5,-92 1042.5,-92 1042.5,-73 993.5,-73"/>
<text text-anchor="middle" x="1018" y="-80" font-family="Helvetica,sans-Serif" font-size="10.00">cassert</text>
</a>
</g>
</g>
<!-- Node12&#45;&gt;Node13 -->
<g id="edge16" class="edge"><title>Node12&#45;&gt;Node13</title>
<path fill="none" stroke="midnightblue" d="M993.529,-201.497C973.414,-195.06 951.047,-183.952 939,-165 931.609,-153.373 932.382,-146.084 939,-134 948.608,-116.455 967.194,-104.118 983.926,-96.0318"/>
<polygon fill="midnightblue" stroke="midnightblue" points="985.784,-99.0349 993.481,-91.7546 982.924,-92.6458 985.784,-99.0349"/>
</g>
<!-- Node14 -->
<g id="node14" class="node"><title>Node14</title>
<g id="a_node14"><a xlink:title=" ">
<polygon fill="none" stroke="#bfbfbf" points="1165,-73 1165,-92 1199,-92 1199,-73 1165,-73"/>
<text text-anchor="middle" x="1182" y="-80" font-family="Helvetica,sans-Serif" font-size="10.00">new</text>
</a>
</g>
</g>
<!-- Node12&#45;&gt;Node14 -->
<g id="edge17" class="edge"><title>Node12&#45;&gt;Node14</title>
<path fill="none" stroke="midnightblue" d="M1014.15,-201.427C999.422,-194.129 980.795,-182.091 972,-165 965.696,-152.749 963.472,-144.822 972,-134 994.48,-105.473 1103.19,-91.2022 1154.75,-85.9471"/>
<polygon fill="midnightblue" stroke="midnightblue" points="1155.22,-89.4177 1164.84,-84.9607 1154.54,-82.451 1155.22,-89.4177"/>
</g>
<!-- Node15 -->
<g id="node15" class="node"><title>Node15</title>
<g id="a_node15"><a xlink:title=" ">
<polygon fill="none" stroke="#bfbfbf" points="981.5,-140 981.5,-159 1028.5,-159 1028.5,-140 981.5,-140"/>
<text text-anchor="middle" x="1005" y="-147" font-family="Helvetica,sans-Serif" font-size="10.00">iterator</text>
</a>
</g>
</g>
<!-- Node12&#45;&gt;Node15 -->
<g id="edge18" class="edge"><title>Node12&#45;&gt;Node15</title>
<path fill="none" stroke="midnightblue" d="M1030.7,-201.475C1026.34,-192.815 1019.44,-179.149 1013.9,-168.145"/>
<polygon fill="midnightblue" stroke="midnightblue" points="1016.92,-166.363 1009.29,-159.009 1010.67,-169.514 1016.92,-166.363"/>
</g>
<!-- Node16 -->
<g id="node16" class="node"><title>Node16</title>
<g id="a_node16"><a xlink:title=" ">
<polygon fill="none" stroke="#bfbfbf" points="1046.5,-140 1046.5,-159 1105.5,-159 1105.5,-140 1046.5,-140"/>
<text text-anchor="middle" x="1076" y="-147" font-family="Helvetica,sans-Serif" font-size="10.00">stdexcept</text>
</a>
</g>
</g>
<!-- Node12&#45;&gt;Node16 -->
<g id="edge19" class="edge"><title>Node12&#45;&gt;Node16</title>
<path fill="none" stroke="midnightblue" d="M1040.87,-201.475C1046.96,-192.638 1056.64,-178.589 1064.3,-167.475"/>
<polygon fill="midnightblue" stroke="midnightblue" points="1067.34,-169.229 1070.14,-159.009 1061.58,-165.258 1067.34,-169.229"/>
</g>
<!-- Node17 -->
<g id="node17" class="node"><title>Node17</title>
<g id="a_node17"><a xlink:href="XalanMemoryManagement_8hpp.html" target="_top" xlink:title=" ">
<polygon fill="none" stroke="black" points="1200,-134.5 1200,-164.5 1340,-164.5 1340,-134.5 1200,-134.5"/>
<text text-anchor="start" x="1208" y="-152.5" font-family="Helvetica,sans-Serif" font-size="10.00">xalanc/Include/XalanMemory</text>
<text text-anchor="middle" x="1270" y="-141.5" font-family="Helvetica,sans-Serif" font-size="10.00">Management.hpp</text>
</a>
</g>
</g>
<!-- Node12&#45;&gt;Node17 -->
<g id="edge20" class="edge"><title>Node12&#45;&gt;Node17</title>
<path fill="none" stroke="midnightblue" d="M1068.67,-201.475C1104.07,-192.513 1160.64,-178.188 1204.82,-167.003"/>
<polygon fill="midnightblue" stroke="midnightblue" points="1205.78,-170.37 1214.62,-164.523 1204.06,-163.585 1205.78,-170.37"/>
</g>
<!-- Node17&#45;&gt;Node3 -->
<g id="edge21" class="edge"><title>Node17&#45;&gt;Node3</title>
<path fill="none" stroke="midnightblue" d="M1199.7,-139.935C1182.78,-137.931 1164.75,-135.844 1148,-134 1009.58,-118.757 849.32,-102.81 748.8,-93.0125"/>
<polygon fill="midnightblue" stroke="midnightblue" points="748.95,-89.5107 738.658,-92.0252 748.271,-96.4777 748.95,-89.5107"/>
</g>
<!-- Node17&#45;&gt;Node8 -->
<g id="edge23" class="edge"><title>Node17&#45;&gt;Node8</title>
<path fill="none" stroke="midnightblue" d="M1304.28,-134.396C1332.13,-122.941 1371.03,-106.938 1397.73,-95.9521"/>
<polygon fill="midnightblue" stroke="midnightblue" points="1399.41,-99.0484 1407.32,-92.007 1396.74,-92.5748 1399.41,-99.0484"/>
</g>
<!-- Node17&#45;&gt;Node13 -->
<g id="edge22" class="edge"><title>Node17&#45;&gt;Node13</title>
<path fill="none" stroke="midnightblue" d="M1215.63,-134.476C1166.17,-121.719 1094.67,-103.275 1052.6,-92.4237"/>
<polygon fill="midnightblue" stroke="midnightblue" points="1053.38,-89.0103 1042.82,-89.9017 1051.63,-95.7885 1053.38,-89.0103"/>
</g>
<!-- Node17&#45;&gt;Node14 -->
<g id="edge24" class="edge"><title>Node17&#45;&gt;Node14</title>
<path fill="none" stroke="midnightblue" d="M1250.91,-134.396C1236.42,-123.697 1216.57,-109.033 1201.89,-98.193"/>
<polygon fill="midnightblue" stroke="midnightblue" points="1203.64,-95.1331 1193.52,-92.007 1199.48,-100.764 1203.64,-95.1331"/>
</g>
<!-- Node18 -->
<g id="node18" class="node"><title>Node18</title>
<g id="a_node18"><a xlink:title=" ">
<polygon fill="none" stroke="#bfbfbf" points="1217.5,-67.5 1217.5,-97.5 1354.5,-97.5 1354.5,-67.5 1217.5,-67.5"/>
<text text-anchor="start" x="1225.5" y="-85.5" font-family="Helvetica,sans-Serif" font-size="10.00">xercesc/framework/Memory</text>
<text text-anchor="middle" x="1286" y="-74.5" font-family="Helvetica,sans-Serif" font-size="10.00">Manager.hpp</text>
</a>
</g>
</g>
<!-- Node17&#45;&gt;Node18 -->
<g id="edge25" class="edge"><title>Node17&#45;&gt;Node18</title>
<path fill="none" stroke="midnightblue" d="M1273.47,-134.396C1275.4,-126.56 1277.85,-116.596 1280.08,-107.565"/>
<polygon fill="midnightblue" stroke="midnightblue" points="1283.54,-108.123 1282.54,-97.5765 1276.75,-106.45 1283.54,-108.123"/>
</g>
<!-- Node19&#45;&gt;Node3 -->
<g id="edge27" class="edge"><title>Node19&#45;&gt;Node3</title>
<path fill="none" stroke="midnightblue" d="M1228.83,-201.398C1206.02,-193.737 1173.58,-181.233 1148,-165 1130.73,-154.044 1132.64,-142.41 1114,-134 1051.29,-105.707 867.635,-92.729 751.064,-87.1974"/>
<polygon fill="midnightblue" stroke="midnightblue" points="751.199,-83.6999 741.047,-86.7325 750.874,-90.6924 751.199,-83.6999"/>
</g>
<!-- Node19&#45;&gt;Node8 -->
<g id="edge28" class="edge"><title>Node19&#45;&gt;Node8</title>
<path fill="none" stroke="midnightblue" d="M1289.87,-201.423C1312.82,-194.302 1343.29,-182.482 1366,-165 1388.82,-147.433 1407.59,-119.462 1418.29,-101.29"/>
<polygon fill="midnightblue" stroke="midnightblue" points="1421.49,-102.754 1423.38,-92.3306 1415.4,-99.2953 1421.49,-102.754"/>
</g>
<!-- Node19&#45;&gt;Node9 -->
<g id="edge29" class="edge"><title>Node19&#45;&gt;Node9</title>
<path fill="none" stroke="midnightblue" d="M1194.53,-201.475C1102.78,-188.954 934.323,-165.965 859.066,-155.695"/>
<polygon fill="midnightblue" stroke="midnightblue" points="859.464,-152.217 849.083,-154.332 858.518,-159.153 859.464,-152.217"/>
</g>
<!-- Node19&#45;&gt;Node13 -->
<g id="edge30" class="edge"><title>Node19&#45;&gt;Node13</title>
<path fill="none" stroke="midnightblue" d="M1244.28,-201.471C1230.94,-192.493 1209.4,-177.898 1191,-165 1171.71,-151.474 1168.7,-145.245 1148,-134 1117.06,-117.194 1079.32,-103.186 1052.49,-94.22"/>
<polygon fill="midnightblue" stroke="midnightblue" points="1053.37,-90.8257 1042.78,-91.0352 1051.19,-97.4772 1053.37,-90.8257"/>
</g>
<!-- Node19&#45;&gt;Node14 -->
<g id="edge31" class="edge"><title>Node19&#45;&gt;Node14</title>
<path fill="none" stroke="midnightblue" d="M1295.85,-201.364C1315.38,-194.847 1337.33,-183.704 1349,-165 1356.29,-153.312 1357.45,-144.881 1349,-134 1309.32,-82.9219 1268.08,-121.951 1208,-98 1206.97,-97.5885 1205.93,-97.1438 1204.88,-96.6745"/>
<polygon fill="midnightblue" stroke="midnightblue" points="1206.21,-93.4219 1195.71,-92.0127 1203.04,-99.6627 1206.21,-93.4219"/>
</g>
<!-- Node19&#45;&gt;Node15 -->
<g id="edge32" class="edge"><title>Node19&#45;&gt;Node15</title>
<path fill="none" stroke="midnightblue" d="M1197.24,-201.49C1152.46,-194.224 1090.03,-182.198 1037,-165 1035.13,-164.393 1033.22,-163.709 1031.32,-162.977"/>
<polygon fill="midnightblue" stroke="midnightblue" points="1032.57,-159.706 1021.99,-159.05 1029.85,-166.157 1032.57,-159.706"/>
</g>
<!-- Node19&#45;&gt;Node16 -->
<g id="edge33" class="edge"><title>Node19&#45;&gt;Node16</title>
<path fill="none" stroke="midnightblue" d="M1230.99,-201.464C1203.43,-192.419 1158.64,-177.714 1120,-165 1117.28,-164.105 1114.46,-163.177 1111.63,-162.245"/>
<polygon fill="midnightblue" stroke="midnightblue" points="1112.65,-158.896 1102.06,-159.092 1110.46,-165.545 1112.65,-158.896"/>
</g>
<!-- Node19&#45;&gt;Node17 -->
<g id="edge34" class="edge"><title>Node19&#45;&gt;Node17</title>
<path fill="none" stroke="midnightblue" d="M1258.86,-201.475C1260.41,-194.396 1262.69,-183.97 1264.78,-174.39"/>
<polygon fill="midnightblue" stroke="midnightblue" points="1268.22,-175.04 1266.94,-164.523 1261.38,-173.545 1268.22,-175.04"/>
</g>
<!-- Node21 -->
<g id="node21" class="node"><title>Node21</title>
<g id="a_node21"><a xlink:href="XercesParserLiaisonDefinitions_8hpp.html" target="_top" xlink:title=" ">
<polygon fill="none" stroke="black" points="200,-380.5 200,-410.5 372,-410.5 372,-380.5 200,-380.5"/>
<text text-anchor="start" x="208" y="-398.5" font-family="Helvetica,sans-Serif" font-size="10.00">xalanc/XercesParserLiaison</text>
<text text-anchor="middle" x="286" y="-387.5" font-family="Helvetica,sans-Serif" font-size="10.00">/XercesParserLiaisonDefinitions.hpp</text>
</a>
</g>
</g>
<!-- Node20&#45;&gt;Node21 -->
<g id="edge36" class="edge"><title>Node20&#45;&gt;Node21</title>
<path fill="none" stroke="midnightblue" d="M164.633,-447.396C187.585,-437.771 218.19,-424.936 242.925,-414.564"/>
<polygon fill="midnightblue" stroke="midnightblue" points="244.565,-417.672 252.433,-410.577 241.857,-411.216 244.565,-417.672"/>
</g>
<!-- Node23 -->
<g id="node23" class="node"><title>Node23</title>
<g id="a_node23"><a xlink:href="DOMSupport_8hpp.html" target="_top" xlink:title=" ">
<polygon fill="none" stroke="black" points="0,-386 0,-405 182,-405 182,-386 0,-386"/>
<text text-anchor="middle" x="91" y="-393" font-family="Helvetica,sans-Serif" font-size="10.00">xalanc/DOMSupport/DOMSupport.hpp</text>
</a>
</g>
</g>
<!-- Node20&#45;&gt;Node23 -->
<g id="edge39" class="edge"><title>Node20&#45;&gt;Node23</title>
<path fill="none" stroke="midnightblue" d="M122.321,-447.396C116.269,-437.562 108.156,-424.378 101.703,-413.892"/>
<polygon fill="midnightblue" stroke="midnightblue" points="104.572,-411.877 96.3505,-405.195 98.6107,-415.545 104.572,-411.877"/>
</g>
<!-- Node21&#45;&gt;Node3 -->
<g id="edge37" class="edge"><title>Node21&#45;&gt;Node3</title>
<path fill="none" stroke="midnightblue" d="M262.636,-380.353C249.765,-371.429 234.515,-358.804 225,-344 207.454,-316.701 206,-305.951 206,-273.5 206,-273.5 206,-273.5 206,-210 206,-139.159 417.699,-105.835 548.738,-91.9938"/>
<polygon fill="midnightblue" stroke="midnightblue" points="549.224,-95.4623 558.81,-90.9513 548.503,-88.4995 549.224,-95.4623"/>
</g>
<!-- Node22 -->
<g id="node22" class="node"><title>Node22</title>
<g id="a_node22"><a xlink:title=" ">
<polygon fill="none" stroke="#bfbfbf" points="234.5,-324.5 234.5,-343.5 371.5,-343.5 371.5,-324.5 234.5,-324.5"/>
<text text-anchor="middle" x="303" y="-331.5" font-family="Helvetica,sans-Serif" font-size="10.00">xercesc/util/XercesDefs.hpp</text>
</a>
</g>
</g>
<!-- Node21&#45;&gt;Node22 -->
<g id="edge38" class="edge"><title>Node21&#45;&gt;Node22</title>
<path fill="none" stroke="midnightblue" d="M290.029,-380.399C292.346,-372.288 295.284,-362.007 297.777,-353.281"/>
<polygon fill="midnightblue" stroke="midnightblue" points="301.144,-354.235 300.526,-343.658 294.414,-352.311 301.144,-354.235"/>
</g>
<!-- Node24 -->
<g id="node24" class="node"><title>Node24</title>
<g id="a_node24"><a xlink:href="DOMSupportDefinitions_8hpp.html" target="_top" xlink:title=" ">
<polygon fill="none" stroke="black" points="13,-257.5 13,-287.5 177,-287.5 177,-257.5 13,-257.5"/>
<text text-anchor="start" x="21" y="-275.5" font-family="Helvetica,sans-Serif" font-size="10.00">xalanc/DOMSupport/DOMSupport</text>
<text text-anchor="middle" x="95" y="-264.5" font-family="Helvetica,sans-Serif" font-size="10.00">Definitions.hpp</text>
</a>
</g>
</g>
<!-- Node23&#45;&gt;Node24 -->
<g id="edge40" class="edge"><title>Node23&#45;&gt;Node24</title>
<path fill="none" stroke="midnightblue" d="M91.2877,-385.798C91.8891,-367.605 93.2981,-324.983 94.1969,-297.794"/>
<polygon fill="midnightblue" stroke="midnightblue" points="97.7035,-297.649 94.5359,-287.539 90.7073,-297.418 97.7035,-297.649"/>
</g>
<!-- Node24&#45;&gt;Node3 -->
<g id="edge41" class="edge"><title>Node24&#45;&gt;Node3</title>
<path fill="none" stroke="midnightblue" d="M100.361,-257.177C112.025,-228.241 142.687,-163.1 192,-134 250.349,-99.5672 431.999,-88.5914 548.234,-85.106"/>
<polygon fill="midnightblue" stroke="midnightblue" points="548.679,-88.5948 558.575,-84.8105 548.479,-81.5977 548.679,-88.5948"/>
</g>
<!-- Node25&#45;&gt;Node7 -->
<g id="edge44" class="edge"><title>Node25&#45;&gt;Node7</title>
<path fill="none" stroke="midnightblue" d="M591.538,-518.355C634.238,-510.562 689.67,-497.728 736,-478 836.834,-435.065 852.709,-406.117 943,-344 970.219,-325.275 1000.97,-302.673 1020.41,-288.197"/>
<polygon fill="midnightblue" stroke="midnightblue" points="1022.57,-290.949 1028.49,-282.161 1018.39,-285.34 1022.57,-290.949"/>
</g>
<!-- Node25&#45;&gt;Node21 -->
<g id="edge43" class="edge"><title>Node25&#45;&gt;Node21</title>
<path fill="none" stroke="midnightblue" d="M481.597,-514.467C457.574,-505.541 427.186,-492.875 402,-478 382.935,-466.74 380.943,-459.974 363,-447 348.195,-436.295 331.264,-425.084 317.054,-415.952"/>
<polygon fill="midnightblue" stroke="midnightblue" points="318.915,-412.987 308.602,-410.558 315.149,-418.888 318.915,-412.987"/>
</g>
<!-- Node26 -->
<g id="node26" class="node"><title>Node26</title>
<g id="a_node26"><a xlink:title=" ">
<polygon fill="none" stroke="#bfbfbf" points="581,-453 581,-472 727,-472 727,-453 581,-453"/>
<text text-anchor="middle" x="654" y="-460" font-family="Helvetica,sans-Serif" font-size="10.00">xercesc/sax/ErrorHandler.hpp</text>
</a>
</g>
</g>
<!-- Node25&#45;&gt;Node26 -->
<g id="edge45" class="edge"><title>Node25&#45;&gt;Node26</title>
<path fill="none" stroke="midnightblue" d="M551.425,-514.396C574.105,-503.142 605.629,-487.501 627.724,-476.538"/>
<polygon fill="midnightblue" stroke="midnightblue" points="629.453,-479.587 636.855,-472.007 626.342,-473.317 629.453,-479.587"/>
</g>
<!-- Node27 -->
<g id="node27" class="node"><title>Node27</title>
<g id="a_node27"><a xlink:href="XMLParserLiaison_8hpp.html" target="_top" xlink:title=" ">
<polygon fill="none" stroke="black" points="411.5,-447.5 411.5,-477.5 562.5,-477.5 562.5,-447.5 411.5,-447.5"/>
<text text-anchor="start" x="419.5" y="-465.5" font-family="Helvetica,sans-Serif" font-size="10.00">xalanc/XMLSupport/XMLParser</text>
<text text-anchor="middle" x="487" y="-454.5" font-family="Helvetica,sans-Serif" font-size="10.00">Liaison.hpp</text>
</a>
</g>
</g>
<!-- Node25&#45;&gt;Node27 -->
<g id="edge46" class="edge"><title>Node25&#45;&gt;Node27</title>
<path fill="none" stroke="midnightblue" d="M515.189,-514.396C510.66,-506.219 504.848,-495.725 499.679,-486.393"/>
<polygon fill="midnightblue" stroke="midnightblue" points="502.703,-484.629 494.796,-477.577 496.579,-488.02 502.703,-484.629"/>
</g>
<!-- Node33 -->
<g id="node33" class="node"><title>Node33</title>
<g id="a_node33"><a xlink:href="XercesWrapperTypes_8hpp.html" target="_top" xlink:title=" ">
<polygon fill="none" stroke="black" points="217.5,-447.5 217.5,-477.5 354.5,-477.5 354.5,-447.5 217.5,-447.5"/>
<text text-anchor="start" x="225.5" y="-465.5" font-family="Helvetica,sans-Serif" font-size="10.00">xalanc/XercesParserLiaison</text>
<text text-anchor="middle" x="286" y="-454.5" font-family="Helvetica,sans-Serif" font-size="10.00">/XercesWrapperTypes.hpp</text>
</a>
</g>
</g>
<!-- Node25&#45;&gt;Node33 -->
<g id="edge62" class="edge"><title>Node25&#45;&gt;Node33</title>
<path fill="none" stroke="midnightblue" d="M471.866,-514.476C435.391,-504.472 386.165,-490.971 347.536,-480.377"/>
<polygon fill="midnightblue" stroke="midnightblue" points="348.02,-476.881 337.451,-477.611 346.169,-483.631 348.02,-476.881"/>
</g>
<!-- Node28 -->
<g id="node28" class="node"><title>Node28</title>
<g id="a_node28"><a xlink:href="XMLSupportDefinitions_8hpp.html" target="_top" xlink:title=" ">
<polygon fill="none" stroke="black" points="254,-257.5 254,-287.5 410,-287.5 410,-257.5 254,-257.5"/>
<text text-anchor="start" x="262" y="-275.5" font-family="Helvetica,sans-Serif" font-size="10.00">xalanc/XMLSupport/XMLSupport</text>
<text text-anchor="middle" x="332" y="-264.5" font-family="Helvetica,sans-Serif" font-size="10.00">Definitions.hpp</text>
</a>
</g>
</g>
<!-- Node27&#45;&gt;Node28 -->
<g id="edge47" class="edge"><title>Node27&#45;&gt;Node28</title>
<path fill="none" stroke="midnightblue" d="M476.807,-447.48C458.271,-422.201 417.49,-367.559 380,-324 371.578,-314.215 361.835,-303.811 353.336,-295.004"/>
<polygon fill="midnightblue" stroke="midnightblue" points="355.738,-292.454 346.253,-287.733 350.724,-297.338 355.738,-292.454"/>
</g>
<!-- Node29 -->
<g id="node29" class="node"><title>Node29</title>
<g id="a_node29"><a xlink:href="XalanDOMString_8hpp.html" target="_top" xlink:title=" ">
<polygon fill="none" stroke="black" points="644.5,-386 644.5,-405 831.5,-405 831.5,-386 644.5,-386"/>
<text text-anchor="middle" x="738" y="-393" font-family="Helvetica,sans-Serif" font-size="10.00">xalanc/XalanDOM/XalanDOMString.hpp</text>
</a>
</g>
</g>
<!-- Node27&#45;&gt;Node29 -->
<g id="edge49" class="edge"><title>Node27&#45;&gt;Node29</title>
<path fill="none" stroke="midnightblue" d="M541.154,-447.476C587.317,-435.521 652.766,-418.573 695.3,-407.558"/>
<polygon fill="midnightblue" stroke="midnightblue" points="696.263,-410.924 705.066,-405.029 694.508,-404.147 696.263,-410.924"/>
</g>
<!-- Node28&#45;&gt;Node3 -->
<g id="edge48" class="edge"><title>Node28&#45;&gt;Node3</title>
<path fill="none" stroke="midnightblue" d="M337.31,-257.19C348.598,-228.861 377.79,-165.647 424,-134 460.39,-109.079 507.094,-96.2429 548.59,-89.7109"/>
<polygon fill="midnightblue" stroke="midnightblue" points="549.354,-93.1363 558.739,-88.2205 548.337,-86.2106 549.354,-93.1363"/>
</g>
<!-- Node29&#45;&gt;Node12 -->
<g id="edge59" class="edge"><title>Node29&#45;&gt;Node12</title>
<path fill="none" stroke="midnightblue" d="M827.539,-385.975C860.039,-378.993 895.098,-366.45 921,-344 952.885,-316.365 931.051,-288.61 959,-257 971.081,-243.336 988.343,-232.655 1003.36,-225.134"/>
<polygon fill="midnightblue" stroke="midnightblue" points="1005.29,-228.093 1012.83,-220.649 1002.3,-221.767 1005.29,-228.093"/>
</g>
<!-- Node29&#45;&gt;Node13 -->
<g id="edge52" class="edge"><title>Node29&#45;&gt;Node13</title>
<path fill="none" stroke="midnightblue" d="M736.476,-385.822C730.623,-349.407 713.282,-207.441 784,-134 811.138,-105.817 924.933,-91.7731 983.238,-86.3153"/>
<polygon fill="midnightblue" stroke="midnightblue" points="983.8,-89.7789 993.445,-85.3947 983.171,-82.8072 983.8,-89.7789"/>
</g>
<!-- Node29&#45;&gt;Node17 -->
<g id="edge58" class="edge"><title>Node29&#45;&gt;Node17</title>
<path fill="none" stroke="midnightblue" d="M800.56,-385.962C940.533,-365.433 1271.75,-308.436 1336,-221 1349.61,-202.476 1329.71,-183.571 1308.29,-170.007"/>
<polygon fill="midnightblue" stroke="midnightblue" points="1309.81,-166.841 1299.43,-164.72 1306.23,-172.851 1309.81,-166.841"/>
</g>
<!-- Node30 -->
<g id="node30" class="node"><title>Node30</title>
<g id="a_node30"><a xlink:href="XalanDOMDefinitions_8hpp.html" target="_top" xlink:title=" ">
<polygon fill="none" stroke="black" points="469,-263 469,-282 675,-282 675,-263 469,-263"/>
<text text-anchor="middle" x="572" y="-270" font-family="Helvetica,sans-Serif" font-size="10.00">xalanc/XalanDOM/XalanDOMDefinitions.hpp</text>
</a>
</g>
</g>
<!-- Node29&#45;&gt;Node30 -->
<g id="edge50" class="edge"><title>Node29&#45;&gt;Node30</title>
<path fill="none" stroke="midnightblue" d="M732.586,-385.623C723.355,-371.099 703.291,-342.072 680,-324 658.205,-307.089 629.831,-294.099 607.636,-285.53"/>
<polygon fill="midnightblue" stroke="midnightblue" points="608.822,-282.237 598.23,-282.019 606.374,-288.795 608.822,-282.237"/>
</g>
<!-- Node31 -->
<g id="node31" class="node"><title>Node31</title>
<g id="a_node31"><a xlink:href="STLHelper_8hpp.html" target="_top" xlink:title=" ">
<polygon fill="none" stroke="black" points="766,-324.5 766,-343.5 912,-343.5 912,-324.5 766,-324.5"/>
<text text-anchor="middle" x="839" y="-331.5" font-family="Helvetica,sans-Serif" font-size="10.00">xalanc/Include/STLHelper.hpp</text>
</a>
</g>
</g>
<!-- Node29&#45;&gt;Node31 -->
<g id="edge53" class="edge"><title>Node29&#45;&gt;Node31</title>
<path fill="none" stroke="midnightblue" d="M752.471,-385.975C768.971,-376.255 796.178,-360.227 815.681,-348.737"/>
<polygon fill="midnightblue" stroke="midnightblue" points="817.716,-351.601 824.556,-343.509 814.163,-345.569 817.716,-351.601"/>
</g>
<!-- Node32 -->
<g id="node32" class="node"><title>Node32</title>
<g id="a_node32"><a xlink:href="XalanDOMException_8hpp.html" target="_top" xlink:title=" ">
<polygon fill="none" stroke="black" points="466.5,-324.5 466.5,-343.5 671.5,-343.5 671.5,-324.5 466.5,-324.5"/>
<text text-anchor="middle" x="569" y="-331.5" font-family="Helvetica,sans-Serif" font-size="10.00">xalanc/XalanDOM/XalanDOMException.hpp</text>
</a>
</g>
</g>
<!-- Node29&#45;&gt;Node32 -->
<g id="edge60" class="edge"><title>Node29&#45;&gt;Node32</title>
<path fill="none" stroke="midnightblue" d="M713.786,-385.975C684.671,-375.725 635.632,-358.459 602.798,-346.899"/>
<polygon fill="midnightblue" stroke="midnightblue" points="603.763,-343.529 593.169,-343.509 601.439,-350.131 603.763,-343.529"/>
</g>
<!-- Node30&#45;&gt;Node3 -->
<g id="edge51" class="edge"><title>Node30&#45;&gt;Node3</title>
<path fill="none" stroke="midnightblue" d="M575.554,-262.934C587.457,-234.245 626.088,-141.133 642.507,-101.56"/>
<polygon fill="midnightblue" stroke="midnightblue" points="645.825,-102.695 646.425,-92.1168 639.36,-100.012 645.825,-102.695"/>
</g>
<!-- Node31&#45;&gt;Node3 -->
<g id="edge54" class="edge"><title>Node31&#45;&gt;Node3</title>
<path fill="none" stroke="midnightblue" d="M832.25,-324.404C825.172,-315.371 813.745,-300.733 804,-288 750.936,-218.667 688.628,-135.322 662.51,-100.296"/>
<polygon fill="midnightblue" stroke="midnightblue" points="665.19,-98.0346 656.408,-92.1082 659.577,-102.218 665.19,-98.0346"/>
</g>
<!-- Node31&#45;&gt;Node7 -->
<g id="edge57" class="edge"><title>Node31&#45;&gt;Node7</title>
<path fill="none" stroke="midnightblue" d="M867.798,-324.475C902.874,-314.092 962.263,-296.512 1001.31,-284.954"/>
<polygon fill="midnightblue" stroke="midnightblue" points="1002.66,-288.204 1011.26,-282.009 1000.67,-281.492 1002.66,-288.204"/>
</g>
<!-- Node31&#45;&gt;Node9 -->
<g id="edge55" class="edge"><title>Node31&#45;&gt;Node9</title>
<path fill="none" stroke="midnightblue" d="M834.605,-324.295C825.561,-305.838 805.121,-261.165 798,-221 796.448,-212.248 796.115,-209.687 798,-201 800.517,-189.401 805.938,-177.27 810.886,-167.805"/>
<polygon fill="midnightblue" stroke="midnightblue" points="813.955,-169.487 815.728,-159.041 807.828,-166.101 813.955,-169.487"/>
</g>
<!-- Node31&#45;&gt;Node10 -->
<g id="edge56" class="edge"><title>Node31&#45;&gt;Node10</title>
<path fill="none" stroke="midnightblue" d="M838.784,-324.298C838.302,-304.85 837.128,-257.49 836.469,-230.904"/>
<polygon fill="midnightblue" stroke="midnightblue" points="839.961,-230.533 836.214,-220.623 832.963,-230.707 839.961,-230.533"/>
</g>
<!-- Node32&#45;&gt;Node30 -->
<g id="edge61" class="edge"><title>Node32&#45;&gt;Node30</title>
<path fill="none" stroke="midnightblue" d="M569.43,-324.475C569.853,-316.08 570.514,-302.981 571.059,-292.163"/>
<polygon fill="midnightblue" stroke="midnightblue" points="574.563,-292.173 571.571,-282.009 567.572,-291.82 574.563,-292.173"/>
</g>
<!-- Node33&#45;&gt;Node21 -->
<g id="edge63" class="edge"><title>Node33&#45;&gt;Node21</title>
<path fill="none" stroke="midnightblue" d="M286,-447.396C286,-439.645 286,-429.812 286,-420.86"/>
<polygon fill="midnightblue" stroke="midnightblue" points="289.5,-420.576 286,-410.577 282.5,-420.577 289.5,-420.576"/>
</g>
</g>
</svg>
