<?xml version="1.0" encoding="UTF-8" standalone="no"?>
<!DOCTYPE svg PUBLIC "-//W3C//DTD SVG 1.1//EN"
 "http://www.w3.org/Graphics/SVG/1.1/DTD/svg11.dtd">
<!-- Generated by graphviz version 2.43.0 (0)
 -->
<!-- Title: xalanc/XalanSourceTree/XalanSourceTreeAttrNS.hpp Pages: 1 -->
<!--zoomable 542 -->
<svg id="main" version="1.1" xmlns="http://www.w3.org/2000/svg" xmlns:xlink="http://www.w3.org/1999/xlink" xml:space="preserve" onload="init(evt)">
<style type="text/css"><![CDATA[
.edge:hover path { stroke: red; }
.edge:hover polygon { stroke: red; fill: red; }
]]></style>
<script type="text/javascript"><![CDATA[
var edges = document.getElementsByTagName('g');
if (edges && edges.length) {
  for (var i=0;i<edges.length;i++) {
    if (edges[i].id.substr(0,4)=='edge') {
      edges[i].setAttribute('class','edge');
    }
  }
}
]]></script>
        <defs>
                <circle id="rim" cx="0" cy="0" r="7"/>
                <circle id="rim2" cx="0" cy="0" r="3.5"/>
                <g id="zoomPlus">
                        <use xlink:href="#rim" fill="#404040">
                                <set attributeName="fill" to="#808080" begin="zoomplus.mouseover" end="zoomplus.mouseout"/>
                        </use>
                        <path d="M-4,0h8M0,-4v8" fill="none" stroke="white" stroke-width="1.5" pointer-events="none"/>
                </g>
                <g id="zoomMin">
                        <use xlink:href="#rim" fill="#404040">
                                <set attributeName="fill" to="#808080" begin="zoomminus.mouseover" end="zoomminus.mouseout"/>
                        </use>
                        <path d="M-4,0h8" fill="none" stroke="white" stroke-width="1.5" pointer-events="none"/>
                </g>
                <g id="dirArrow">
                        <path fill="none" stroke="white" stroke-width="1.5" d="M0,-3.0v7 M-2.5,-0.5L0,-3.0L2.5,-0.5"/>
                </g>
               <g id="resetDef">
                       <use xlink:href="#rim2" fill="#404040">
                               <set attributeName="fill" to="#808080" begin="reset.mouseover" end="reset.mouseout"/>
                       </use>
               </g>
        </defs>

<script type="text/javascript">
var viewWidth = 1409;
var viewHeight = 542;
var sectionId = 'dynsection-0';
</script>
<script xlink:href="svgpan.js"/>
<svg id="graph" class="graph">
<g id="viewport">
<title>xalanc/XalanSourceTree/XalanSourceTreeAttrNS.hpp</title>
<!-- Node1 -->
<g id="node1" class="node">
<title>Node1</title>
<g id="a_node1"><a xlink:title=" ">
<polygon fill="#bfbfbf" stroke="black" points="106.5,-503.5 106.5,-533.5 259.5,-533.5 259.5,-503.5 106.5,-503.5"/>
<text text-anchor="start" x="114.5" y="-521.5" font-family="Helvetica,sans-Serif" font-size="10.00">xalanc/XalanSourceTree</text>
<text text-anchor="middle" x="183" y="-510.5" font-family="Helvetica,sans-Serif" font-size="10.00">/XalanSourceTreeAttrNS.hpp</text>
</a>
</g>
</g>
<!-- Node2 -->
<g id="node2" class="node">
<title>Node2</title>
<g id="a_node2"><a xlink:href="XalanSourceTreeDefinitions_8hpp.html" target="_top" xlink:title=" ">
<polygon fill="none" stroke="black" points="0,-369.5 0,-399.5 174,-399.5 174,-369.5 0,-369.5"/>
<text text-anchor="start" x="8" y="-387.5" font-family="Helvetica,sans-Serif" font-size="10.00">xalanc/XalanSourceTree</text>
<text text-anchor="middle" x="87" y="-376.5" font-family="Helvetica,sans-Serif" font-size="10.00">/XalanSourceTreeDefinitions.hpp</text>
</a>
</g>
</g>
<!-- Node1&#45;&gt;Node2 -->
<g id="edge1" class="edge">
<title>Node1&#45;&gt;Node2</title>
<path fill="none" stroke="midnightblue" d="M172.73,-503.37C156.05,-480.45 122.98,-434.97 103.14,-407.69"/>
<polygon fill="midnightblue" stroke="midnightblue" points="105.91,-405.55 97.2,-399.52 100.25,-409.67 105.91,-405.55"/>
</g>
<!-- Node7 -->
<g id="node7" class="node">
<title>Node7</title>
<g id="a_node7"><a xlink:href="XalanSourceTreeAttr_8hpp.html" target="_top" xlink:title=" ">
<polygon fill="none" stroke="black" points="185.5,-436.5 185.5,-466.5 324.5,-466.5 324.5,-436.5 185.5,-436.5"/>
<text text-anchor="start" x="193.5" y="-454.5" font-family="Helvetica,sans-Serif" font-size="10.00">xalanc/XalanSourceTree</text>
<text text-anchor="middle" x="255" y="-443.5" font-family="Helvetica,sans-Serif" font-size="10.00">/XalanSourceTreeAttr.hpp</text>
</a>
</g>
</g>
<!-- Node1&#45;&gt;Node7 -->
<g id="edge6" class="edge">
<title>Node1&#45;&gt;Node7</title>
<path fill="none" stroke="midnightblue" d="M198.62,-503.4C208.34,-494.62 221.01,-483.18 231.88,-473.37"/>
<polygon fill="midnightblue" stroke="midnightblue" points="234.33,-475.88 239.41,-466.58 229.64,-470.68 234.33,-475.88"/>
</g>
<!-- Node3 -->
<g id="node3" class="node">
<title>Node3</title>
<g id="a_node3"><a xlink:href="PlatformDefinitions_8hpp.html" target="_top" xlink:title=" ">
<polygon fill="none" stroke="black" points="505,-73 505,-92 711,-92 711,-73 505,-73"/>
<text text-anchor="middle" x="608" y="-80" font-family="Helvetica,sans-Serif" font-size="10.00">xalanc/Include/PlatformDefinitions.hpp</text>
</a>
</g>
</g>
<!-- Node2&#45;&gt;Node3 -->
<g id="edge2" class="edge">
<title>Node2&#45;&gt;Node3</title>
<path fill="none" stroke="midnightblue" d="M82.35,-369.45C75.62,-347.89 64,-305.21 64,-268 64,-268 64,-268 64,-210 64,-122.41 334.92,-95.45 494.38,-87.16"/>
<polygon fill="midnightblue" stroke="midnightblue" points="494.91,-90.64 504.72,-86.64 494.55,-83.65 494.91,-90.64"/>
</g>
<!-- Node4 -->
<g id="node4" class="node">
<title>Node4</title>
<g id="a_node4"><a xlink:title=" ">
<polygon fill="none" stroke="#bfbfbf" points="387,-0.5 387,-30.5 507,-30.5 507,-0.5 387,-0.5"/>
<text text-anchor="start" x="395" y="-18.5" font-family="Helvetica,sans-Serif" font-size="10.00">xercesc/util/Xerces</text>
<text text-anchor="middle" x="447" y="-7.5" font-family="Helvetica,sans-Serif" font-size="10.00">_autoconf_config.hpp</text>
</a>
</g>
</g>
<!-- Node3&#45;&gt;Node4 -->
<g id="edge3" class="edge">
<title>Node3&#45;&gt;Node4</title>
<path fill="none" stroke="midnightblue" d="M586.62,-72.87C562.36,-63.07 522.12,-46.83 491.06,-34.29"/>
<polygon fill="midnightblue" stroke="midnightblue" points="492.33,-31.03 481.75,-30.53 489.71,-37.52 492.33,-31.03"/>
</g>
<!-- Node5 -->
<g id="node5" class="node">
<title>Node5</title>
<g id="a_node5"><a xlink:title=" ">
<polygon fill="none" stroke="#bfbfbf" points="525.5,-6 525.5,-25 690.5,-25 690.5,-6 525.5,-6"/>
<text text-anchor="middle" x="608" y="-13" font-family="Helvetica,sans-Serif" font-size="10.00">xercesc/util/XercesVersion.hpp</text>
</a>
</g>
</g>
<!-- Node3&#45;&gt;Node5 -->
<g id="edge4" class="edge">
<title>Node3&#45;&gt;Node5</title>
<path fill="none" stroke="midnightblue" d="M608,-72.73C608,-63.18 608,-47.62 608,-35.28"/>
<polygon fill="midnightblue" stroke="midnightblue" points="611.5,-35.13 608,-25.13 604.5,-35.13 611.5,-35.13"/>
</g>
<!-- Node6 -->
<g id="node6" class="node">
<title>Node6</title>
<g id="a_node6"><a xlink:href="XalanVersion_8hpp.html" target="_top" xlink:title=" ">
<polygon fill="none" stroke="black" points="708.5,-6 708.5,-25 883.5,-25 883.5,-6 708.5,-6"/>
<text text-anchor="middle" x="796" y="-13" font-family="Helvetica,sans-Serif" font-size="10.00">xalanc/Include/XalanVersion.hpp</text>
</a>
</g>
</g>
<!-- Node3&#45;&gt;Node6 -->
<g id="edge5" class="edge">
<title>Node3&#45;&gt;Node6</title>
<path fill="none" stroke="midnightblue" d="M632.96,-72.87C665.92,-61.47 724.12,-41.35 761.33,-28.49"/>
<polygon fill="midnightblue" stroke="midnightblue" points="762.92,-31.64 771.23,-25.06 760.64,-25.02 762.92,-31.64"/>
</g>
<!-- Node7&#45;&gt;Node2 -->
<g id="edge7" class="edge">
<title>Node7&#45;&gt;Node2</title>
<path fill="none" stroke="midnightblue" d="M218.55,-436.4C193.45,-426.69 159.91,-413.71 132.98,-403.29"/>
<polygon fill="midnightblue" stroke="midnightblue" points="133.97,-399.92 123.38,-399.58 131.45,-406.45 133.97,-399.92"/>
</g>
<!-- Node8 -->
<g id="node8" class="node">
<title>Node8</title>
<g id="a_node8"><a xlink:href="XalanAttr_8hpp.html" target="_top" xlink:title=" ">
<polygon fill="none" stroke="black" points="192.5,-375 192.5,-394 365.5,-394 365.5,-375 192.5,-375"/>
<text text-anchor="middle" x="279" y="-382" font-family="Helvetica,sans-Serif" font-size="10.00">xalanc/XalanDOM/XalanAttr.hpp</text>
</a>
</g>
</g>
<!-- Node7&#45;&gt;Node8 -->
<g id="edge8" class="edge">
<title>Node7&#45;&gt;Node8</title>
<path fill="none" stroke="midnightblue" d="M260.21,-436.4C263.73,-426.86 268.41,-414.18 272.22,-403.86"/>
<polygon fill="midnightblue" stroke="midnightblue" points="275.61,-404.79 275.79,-394.19 269.04,-402.36 275.61,-404.79"/>
</g>
<!-- Node11 -->
<g id="node11" class="node">
<title>Node11</title>
<g id="a_node11"><a xlink:href="XalanDOMString_8hpp.html" target="_top" xlink:title=" ">
<polygon fill="none" stroke="black" points="520,-375 520,-394 728,-394 728,-375 520,-375"/>
<text text-anchor="middle" x="624" y="-382" font-family="Helvetica,sans-Serif" font-size="10.00">xalanc/XalanDOM/XalanDOMString.hpp</text>
</a>
</g>
</g>
<!-- Node7&#45;&gt;Node11 -->
<g id="edge13" class="edge">
<title>Node7&#45;&gt;Node11</title>
<path fill="none" stroke="midnightblue" d="M324.84,-438.2C394.45,-425.94 500.15,-407.32 565.49,-395.81"/>
<polygon fill="midnightblue" stroke="midnightblue" points="566.37,-399.2 575.62,-394.02 565.16,-392.31 566.37,-399.2"/>
</g>
<!-- Node9 -->
<g id="node9" class="node">
<title>Node9</title>
<g id="a_node9"><a xlink:href="XalanDOMDefinitions_8hpp.html" target="_top" xlink:title=" ">
<polygon fill="none" stroke="black" points="328,-257.5 328,-276.5 560,-276.5 560,-257.5 328,-257.5"/>
<text text-anchor="middle" x="444" y="-264.5" font-family="Helvetica,sans-Serif" font-size="10.00">xalanc/XalanDOM/XalanDOMDefinitions.hpp</text>
</a>
</g>
</g>
<!-- Node8&#45;&gt;Node9 -->
<g id="edge9" class="edge">
<title>Node8&#45;&gt;Node9</title>
<path fill="none" stroke="midnightblue" d="M281.95,-374.84C287.39,-360.1 300.38,-330.09 321,-313 340.61,-296.75 366.6,-286.1 389.64,-279.27"/>
<polygon fill="midnightblue" stroke="midnightblue" points="390.62,-282.63 399.31,-276.57 388.73,-275.89 390.62,-282.63"/>
</g>
<!-- Node10 -->
<g id="node10" class="node">
<title>Node10</title>
<g id="a_node10"><a xlink:href="XalanNode_8hpp.html" target="_top" xlink:title=" ">
<polygon fill="none" stroke="black" points="92.5,-313.5 92.5,-332.5 273.5,-332.5 273.5,-313.5 92.5,-313.5"/>
<text text-anchor="middle" x="183" y="-320.5" font-family="Helvetica,sans-Serif" font-size="10.00">xalanc/XalanDOM/XalanNode.hpp</text>
</a>
</g>
</g>
<!-- Node8&#45;&gt;Node10 -->
<g id="edge11" class="edge">
<title>Node8&#45;&gt;Node10</title>
<path fill="none" stroke="midnightblue" d="M265.25,-374.98C249.63,-365.3 223.94,-349.37 205.42,-337.89"/>
<polygon fill="midnightblue" stroke="midnightblue" points="207.07,-334.8 196.73,-332.51 203.38,-340.75 207.07,-334.8"/>
</g>
<!-- Node9&#45;&gt;Node3 -->
<g id="edge10" class="edge">
<title>Node9&#45;&gt;Node3</title>
<path fill="none" stroke="midnightblue" d="M450.8,-257.42C467.87,-236.01 514.13,-178.78 556,-134 567.26,-121.96 580.61,-109.02 590.96,-99.25"/>
<polygon fill="midnightblue" stroke="midnightblue" points="593.62,-101.57 598.53,-92.18 588.83,-96.45 593.62,-101.57"/>
</g>
<!-- Node10&#45;&gt;Node9 -->
<g id="edge12" class="edge">
<title>Node10&#45;&gt;Node9</title>
<path fill="none" stroke="midnightblue" d="M224.36,-313.44C270.08,-303.98 343.76,-288.74 393.02,-278.55"/>
<polygon fill="midnightblue" stroke="midnightblue" points="393.75,-281.97 402.84,-276.52 392.34,-275.12 393.75,-281.97"/>
</g>
<!-- Node11&#45;&gt;Node9 -->
<g id="edge14" class="edge">
<title>Node11&#45;&gt;Node9</title>
<path fill="none" stroke="midnightblue" d="M619.04,-374.87C610.18,-360.19 590.29,-330.26 566,-313 543.94,-297.32 515.79,-286.46 492.09,-279.34"/>
<polygon fill="midnightblue" stroke="midnightblue" points="492.81,-275.91 482.23,-276.52 490.88,-282.64 492.81,-275.91"/>
</g>
<!-- Node12 -->
<g id="node12" class="node">
<title>Node12</title>
<g id="a_node12"><a xlink:title=" ">
<polygon fill="none" stroke="#bfbfbf" points="1172,-73 1172,-92 1224,-92 1224,-73 1172,-73"/>
<text text-anchor="middle" x="1198" y="-80" font-family="Helvetica,sans-Serif" font-size="10.00">cassert</text>
</a>
</g>
</g>
<!-- Node11&#45;&gt;Node12 -->
<g id="edge15" class="edge">
<title>Node11&#45;&gt;Node12</title>
<path fill="none" stroke="midnightblue" d="M728.39,-378.65C940.29,-367.4 1401,-335.21 1401,-268 1401,-268 1401,-268 1401,-210 1401,-171.62 1389.62,-158.4 1360,-134 1323.68,-104.08 1269.62,-91.84 1234.09,-86.86"/>
<polygon fill="midnightblue" stroke="midnightblue" points="1234.51,-83.38 1224.14,-85.59 1233.62,-90.33 1234.51,-83.38"/>
</g>
<!-- Node13 -->
<g id="node13" class="node">
<title>Node13</title>
<g id="a_node13"><a xlink:href="STLHelper_8hpp.html" target="_top" xlink:title=" ">
<polygon fill="none" stroke="black" points="652,-313.5 652,-332.5 812,-332.5 812,-313.5 652,-313.5"/>
<text text-anchor="middle" x="732" y="-320.5" font-family="Helvetica,sans-Serif" font-size="10.00">xalanc/Include/STLHelper.hpp</text>
</a>
</g>
</g>
<!-- Node11&#45;&gt;Node13 -->
<g id="edge16" class="edge">
<title>Node11&#45;&gt;Node13</title>
<path fill="none" stroke="midnightblue" d="M639.47,-374.98C657.28,-365.17 686.74,-348.93 707.63,-337.42"/>
<polygon fill="midnightblue" stroke="midnightblue" points="709.49,-340.4 716.55,-332.51 706.11,-334.27 709.49,-340.4"/>
</g>
<!-- Node19 -->
<g id="node19" class="node">
<title>Node19</title>
<g id="a_node19"><a xlink:href="XalanVector_8hpp.html" target="_top" xlink:title=" ">
<polygon fill="none" stroke="black" points="1032.5,-201.5 1032.5,-220.5 1201.5,-220.5 1201.5,-201.5 1032.5,-201.5"/>
<text text-anchor="middle" x="1117" y="-208.5" font-family="Helvetica,sans-Serif" font-size="10.00">xalanc/Include/XalanVector.hpp</text>
</a>
</g>
</g>
<!-- Node11&#45;&gt;Node19 -->
<g id="edge50" class="edge">
<title>Node11&#45;&gt;Node19</title>
<path fill="none" stroke="midnightblue" d="M662.47,-374.92C702.43,-365.7 766.6,-350.08 821,-333 888.9,-311.69 905.13,-303.93 971,-277 1012.76,-259.93 1060.38,-238.32 1089.56,-224.82"/>
<polygon fill="midnightblue" stroke="midnightblue" points="1091.12,-227.96 1098.72,-220.57 1088.17,-221.61 1091.12,-227.96"/>
</g>
<!-- Node23 -->
<g id="node23" class="node">
<title>Node23</title>
<g id="a_node23"><a xlink:href="XalanMemoryManagement_8hpp.html" target="_top" xlink:title=" ">
<polygon fill="none" stroke="black" points="750,-134.5 750,-164.5 908,-164.5 908,-134.5 750,-134.5"/>
<text text-anchor="start" x="758" y="-152.5" font-family="Helvetica,sans-Serif" font-size="10.00">xalanc/Include/XalanMemory</text>
<text text-anchor="middle" x="829" y="-141.5" font-family="Helvetica,sans-Serif" font-size="10.00">Management.hpp</text>
</a>
</g>
</g>
<!-- Node11&#45;&gt;Node23 -->
<g id="edge49" class="edge">
<title>Node11&#45;&gt;Node23</title>
<path fill="none" stroke="midnightblue" d="M623.05,-374.9C620.4,-346.16 615.88,-252.3 663,-201 682.87,-179.37 711.68,-166.89 739.75,-159.73"/>
<polygon fill="midnightblue" stroke="midnightblue" points="740.69,-163.1 749.63,-157.41 739.09,-156.29 740.69,-163.1"/>
</g>
<!-- Node26 -->
<g id="node26" class="node">
<title>Node26</title>
<g id="a_node26"><a xlink:href="XalanDOMException_8hpp.html" target="_top" xlink:title=" ">
<polygon fill="none" stroke="black" points="330.5,-313.5 330.5,-332.5 557.5,-332.5 557.5,-313.5 330.5,-313.5"/>
<text text-anchor="middle" x="444" y="-320.5" font-family="Helvetica,sans-Serif" font-size="10.00">xalanc/XalanDOM/XalanDOMException.hpp</text>
</a>
</g>
</g>
<!-- Node11&#45;&gt;Node26 -->
<g id="edge51" class="edge">
<title>Node11&#45;&gt;Node26</title>
<path fill="none" stroke="midnightblue" d="M598.21,-374.98C567.07,-364.68 514.52,-347.31 479.55,-335.75"/>
<polygon fill="midnightblue" stroke="midnightblue" points="480.34,-332.32 469.74,-332.51 478.14,-338.97 480.34,-332.32"/>
</g>
<!-- Node13&#45;&gt;Node3 -->
<g id="edge17" class="edge">
<title>Node13&#45;&gt;Node3</title>
<path fill="none" stroke="midnightblue" d="M725.26,-313.48C712.1,-296.57 682.55,-257.26 663,-221 650.23,-197.32 650.03,-189.97 640,-165 631.26,-143.25 621.44,-118.13 615.01,-101.59"/>
<polygon fill="midnightblue" stroke="midnightblue" points="618.2,-100.14 611.32,-92.08 611.68,-102.67 618.2,-100.14"/>
</g>
<!-- Node14 -->
<g id="node14" class="node">
<title>Node14</title>
<g id="a_node14"><a xlink:title=" ">
<polygon fill="none" stroke="#bfbfbf" points="1271,-140 1271,-159 1335,-159 1335,-140 1271,-140"/>
<text text-anchor="middle" x="1303" y="-147" font-family="Helvetica,sans-Serif" font-size="10.00">algorithm</text>
</a>
</g>
</g>
<!-- Node13&#45;&gt;Node14 -->
<g id="edge18" class="edge">
<title>Node13&#45;&gt;Node14</title>
<path fill="none" stroke="midnightblue" d="M812.15,-321.86C917.45,-318.32 1104.93,-300.18 1241,-221 1263.38,-207.98 1281.85,-183.98 1292.65,-167.63"/>
<polygon fill="midnightblue" stroke="midnightblue" points="1295.71,-169.36 1298.1,-159.04 1289.79,-165.61 1295.71,-169.36"/>
</g>
<!-- Node15 -->
<g id="node15" class="node">
<title>Node15</title>
<g id="a_node15"><a xlink:title=" ">
<polygon fill="none" stroke="#bfbfbf" points="672.5,-201.5 672.5,-220.5 737.5,-220.5 737.5,-201.5 672.5,-201.5"/>
<text text-anchor="middle" x="705" y="-208.5" font-family="Helvetica,sans-Serif" font-size="10.00">functional</text>
</a>
</g>
</g>
<!-- Node13&#45;&gt;Node15 -->
<g id="edge19" class="edge">
<title>Node13&#45;&gt;Node15</title>
<path fill="none" stroke="midnightblue" d="M729.88,-313.37C725.52,-295.62 715.47,-254.67 709.56,-230.6"/>
<polygon fill="midnightblue" stroke="midnightblue" points="712.89,-229.47 707.11,-220.59 706.09,-231.14 712.89,-229.47"/>
</g>
<!-- Node16 -->
<g id="node16" class="node">
<title>Node16</title>
<g id="a_node16"><a xlink:href="XalanMap_8hpp.html" target="_top" xlink:title=" ">
<polygon fill="none" stroke="black" points="802,-257.5 802,-276.5 962,-276.5 962,-257.5 802,-257.5"/>
<text text-anchor="middle" x="882" y="-264.5" font-family="Helvetica,sans-Serif" font-size="10.00">xalanc/Include/XalanMap.hpp</text>
</a>
</g>
</g>
<!-- Node13&#45;&gt;Node16 -->
<g id="edge20" class="edge">
<title>Node13&#45;&gt;Node16</title>
<path fill="none" stroke="midnightblue" d="M755.77,-313.44C780.89,-304.4 820.71,-290.06 848.9,-279.92"/>
<polygon fill="midnightblue" stroke="midnightblue" points="850.12,-283.2 858.34,-276.52 847.75,-276.61 850.12,-283.2"/>
</g>
<!-- Node16&#45;&gt;Node3 -->
<g id="edge21" class="edge">
<title>Node16&#45;&gt;Node3</title>
<path fill="none" stroke="midnightblue" d="M862.94,-257.42C843.3,-248.53 811.86,-234.11 785,-221 767.49,-212.46 763.38,-209.8 746,-201 714.08,-184.84 701.89,-187.41 674,-165 651.01,-146.53 630.68,-118.8 618.86,-100.92"/>
<polygon fill="midnightblue" stroke="midnightblue" points="621.56,-98.65 613.2,-92.13 615.67,-102.43 621.56,-98.65"/>
</g>
<!-- Node16&#45;&gt;Node14 -->
<g id="edge23" class="edge">
<title>Node16&#45;&gt;Node14</title>
<path fill="none" stroke="midnightblue" d="M962.03,-259.79C1044.62,-252.54 1167.37,-239.19 1211,-221 1241.33,-208.36 1270.39,-183.16 1287.47,-166.57"/>
<polygon fill="midnightblue" stroke="midnightblue" points="1290.24,-168.75 1294.85,-159.21 1285.3,-163.8 1290.24,-168.75"/>
</g>
<!-- Node16&#45;&gt;Node15 -->
<g id="edge24" class="edge">
<title>Node16&#45;&gt;Node15</title>
<path fill="none" stroke="midnightblue" d="M853.95,-257.44C823.92,-248.28 776.09,-233.69 742.76,-223.52"/>
<polygon fill="midnightblue" stroke="midnightblue" points="743.5,-220.09 732.91,-220.52 741.46,-226.78 743.5,-220.09"/>
</g>
<!-- Node17 -->
<g id="node17" class="node">
<title>Node17</title>
<g id="a_node17"><a xlink:title=" ">
<polygon fill="none" stroke="#bfbfbf" points="1055.5,-73 1055.5,-92 1108.5,-92 1108.5,-73 1055.5,-73"/>
<text text-anchor="middle" x="1082" y="-80" font-family="Helvetica,sans-Serif" font-size="10.00">cstddef</text>
</a>
</g>
</g>
<!-- Node16&#45;&gt;Node17 -->
<g id="edge22" class="edge">
<title>Node16&#45;&gt;Node17</title>
<path fill="none" stroke="midnightblue" d="M962.41,-261.9C1084.22,-253.63 1305.45,-229.84 1344,-165 1351.04,-153.16 1352.77,-144.62 1344,-134 1342.2,-131.82 1190.52,-103.55 1118.8,-90.28"/>
<polygon fill="midnightblue" stroke="midnightblue" points="1119.3,-86.82 1108.83,-88.44 1118.02,-93.7 1119.3,-86.82"/>
</g>
<!-- Node18 -->
<g id="node18" class="node">
<title>Node18</title>
<g id="a_node18"><a xlink:title=" ">
<polygon fill="none" stroke="#bfbfbf" points="794.5,-201.5 794.5,-220.5 839.5,-220.5 839.5,-201.5 794.5,-201.5"/>
<text text-anchor="middle" x="817" y="-208.5" font-family="Helvetica,sans-Serif" font-size="10.00">utility</text>
</a>
</g>
</g>
<!-- Node16&#45;&gt;Node18 -->
<g id="edge25" class="edge">
<title>Node16&#45;&gt;Node18</title>
<path fill="none" stroke="midnightblue" d="M871.56,-257.32C861.85,-249.26 847.18,-237.08 835.5,-227.37"/>
<polygon fill="midnightblue" stroke="midnightblue" points="837.56,-224.53 827.63,-220.83 833.09,-229.92 837.56,-224.53"/>
</g>
<!-- Node16&#45;&gt;Node19 -->
<g id="edge26" class="edge">
<title>Node16&#45;&gt;Node19</title>
<path fill="none" stroke="midnightblue" d="M919.24,-257.44C960.06,-248.06 1025.64,-232.99 1069.98,-222.8"/>
<polygon fill="midnightblue" stroke="midnightblue" points="1070.98,-226.17 1079.94,-220.52 1069.41,-219.34 1070.98,-226.17"/>
</g>
<!-- Node25 -->
<g id="node25" class="node">
<title>Node25</title>
<g id="a_node25"><a xlink:href="XalanList_8hpp.html" target="_top" xlink:title=" ">
<polygon fill="none" stroke="black" points="858,-201.5 858,-220.5 1014,-220.5 1014,-201.5 858,-201.5"/>
<text text-anchor="middle" x="936" y="-208.5" font-family="Helvetica,sans-Serif" font-size="10.00">xalanc/Include/XalanList.hpp</text>
</a>
</g>
</g>
<!-- Node16&#45;&gt;Node25 -->
<g id="edge40" class="edge">
<title>Node16&#45;&gt;Node25</title>
<path fill="none" stroke="midnightblue" d="M890.92,-257.08C898.78,-249.22 910.43,-237.57 919.92,-228.08"/>
<polygon fill="midnightblue" stroke="midnightblue" points="922.65,-230.3 927.25,-220.75 917.7,-225.35 922.65,-230.3"/>
</g>
<!-- Node19&#45;&gt;Node3 -->
<g id="edge27" class="edge">
<title>Node19&#45;&gt;Node3</title>
<path fill="none" stroke="midnightblue" d="M1034.99,-201.5C928.39,-190.25 754.16,-171.14 741,-165 722.76,-156.49 724.48,-145.54 708,-134 686.13,-118.69 658.97,-105.28 638.47,-96.13"/>
<polygon fill="midnightblue" stroke="midnightblue" points="639.85,-92.91 629.28,-92.12 637.04,-99.33 639.85,-92.91"/>
</g>
<!-- Node19&#45;&gt;Node12 -->
<g id="edge30" class="edge">
<title>Node19&#45;&gt;Node12</title>
<path fill="none" stroke="midnightblue" d="M1147.17,-201.44C1165.02,-194.66 1186.19,-183.23 1197,-165 1208.31,-145.93 1206.15,-119.68 1202.77,-102.17"/>
<polygon fill="midnightblue" stroke="midnightblue" points="1206.12,-101.09 1200.51,-92.1 1199.29,-102.62 1206.12,-101.09"/>
</g>
<!-- Node19&#45;&gt;Node14 -->
<g id="edge29" class="edge">
<title>Node19&#45;&gt;Node14</title>
<path fill="none" stroke="midnightblue" d="M1143.65,-201.48C1175.97,-191.14 1230.6,-173.66 1266.73,-162.1"/>
<polygon fill="midnightblue" stroke="midnightblue" points="1267.94,-165.39 1276.4,-159.01 1265.81,-158.72 1267.94,-165.39"/>
</g>
<!-- Node19&#45;&gt;Node17 -->
<g id="edge28" class="edge">
<title>Node19&#45;&gt;Node17</title>
<path fill="none" stroke="midnightblue" d="M1138.48,-201.36C1153.39,-194.09 1172.11,-182.12 1181,-165 1187.35,-152.77 1188.2,-145.75 1181,-134 1167.45,-111.88 1140.84,-99.07 1118.62,-91.89"/>
<polygon fill="midnightblue" stroke="midnightblue" points="1119.36,-88.46 1108.78,-88.97 1117.37,-95.17 1119.36,-88.46"/>
</g>
<!-- Node20 -->
<g id="node20" class="node">
<title>Node20</title>
<g id="a_node20"><a xlink:title=" ">
<polygon fill="none" stroke="#bfbfbf" points="911.5,-73 911.5,-92 948.5,-92 948.5,-73 911.5,-73"/>
<text text-anchor="middle" x="930" y="-80" font-family="Helvetica,sans-Serif" font-size="10.00">new</text>
</a>
</g>
</g>
<!-- Node19&#45;&gt;Node20 -->
<g id="edge31" class="edge">
<title>Node19&#45;&gt;Node20</title>
<path fill="none" stroke="midnightblue" d="M1125.93,-201.2C1140.14,-186.13 1164.67,-154.97 1148,-134 1136.19,-119.14 1015.4,-97.54 958.87,-88.15"/>
<polygon fill="midnightblue" stroke="midnightblue" points="959.23,-84.66 948.79,-86.49 958.09,-91.57 959.23,-84.66"/>
</g>
<!-- Node21 -->
<g id="node21" class="node">
<title>Node21</title>
<g id="a_node21"><a xlink:title=" ">
<polygon fill="none" stroke="#bfbfbf" points="1085.5,-140 1085.5,-159 1138.5,-159 1138.5,-140 1085.5,-140"/>
<text text-anchor="middle" x="1112" y="-147" font-family="Helvetica,sans-Serif" font-size="10.00">iterator</text>
</a>
</g>
</g>
<!-- Node19&#45;&gt;Node21 -->
<g id="edge32" class="edge">
<title>Node19&#45;&gt;Node21</title>
<path fill="none" stroke="midnightblue" d="M1116.28,-201.48C1115.58,-193.08 1114.48,-179.98 1113.57,-169.16"/>
<polygon fill="midnightblue" stroke="midnightblue" points="1117.04,-168.68 1112.72,-159.01 1110.06,-169.27 1117.04,-168.68"/>
</g>
<!-- Node22 -->
<g id="node22" class="node">
<title>Node22</title>
<g id="a_node22"><a xlink:title=" ">
<polygon fill="none" stroke="#bfbfbf" points="1002.5,-140 1002.5,-159 1067.5,-159 1067.5,-140 1002.5,-140"/>
<text text-anchor="middle" x="1035" y="-147" font-family="Helvetica,sans-Serif" font-size="10.00">stdexcept</text>
</a>
</g>
</g>
<!-- Node19&#45;&gt;Node22 -->
<g id="edge33" class="edge">
<title>Node19&#45;&gt;Node22</title>
<path fill="none" stroke="midnightblue" d="M1105.25,-201.48C1092.22,-192.02 1070.96,-176.6 1055.24,-165.19"/>
<polygon fill="midnightblue" stroke="midnightblue" points="1056.88,-162.05 1046.73,-159.01 1052.77,-167.71 1056.88,-162.05"/>
</g>
<!-- Node19&#45;&gt;Node23 -->
<g id="edge34" class="edge">
<title>Node19&#45;&gt;Node23</title>
<path fill="none" stroke="midnightblue" d="M1075.74,-201.48C1031.81,-192.4 961.27,-177.83 906.84,-166.58"/>
<polygon fill="midnightblue" stroke="midnightblue" points="907.38,-163.12 896.88,-164.52 905.96,-169.97 907.38,-163.12"/>
</g>
<!-- Node23&#45;&gt;Node3 -->
<g id="edge35" class="edge">
<title>Node23&#45;&gt;Node3</title>
<path fill="none" stroke="midnightblue" d="M781.32,-134.48C741.19,-122.67 684.5,-106 647.03,-94.98"/>
<polygon fill="midnightblue" stroke="midnightblue" points="647.58,-91.49 637,-92.03 645.6,-98.21 647.58,-91.49"/>
</g>
<!-- Node23&#45;&gt;Node12 -->
<g id="edge36" class="edge">
<title>Node23&#45;&gt;Node12</title>
<path fill="none" stroke="midnightblue" d="M908.14,-134.81C966.23,-124.73 1047.04,-110.63 1118,-98 1132.29,-95.46 1148,-92.62 1161.69,-90.13"/>
<polygon fill="midnightblue" stroke="midnightblue" points="1162.49,-93.54 1171.7,-88.31 1161.24,-86.66 1162.49,-93.54"/>
</g>
<!-- Node23&#45;&gt;Node17 -->
<g id="edge37" class="edge">
<title>Node23&#45;&gt;Node17</title>
<path fill="none" stroke="midnightblue" d="M883.59,-134.48C932.57,-121.89 1003.09,-103.77 1045.54,-92.87"/>
<polygon fill="midnightblue" stroke="midnightblue" points="1046.62,-96.2 1055.44,-90.32 1044.88,-89.42 1046.62,-96.2"/>
</g>
<!-- Node23&#45;&gt;Node20 -->
<g id="edge38" class="edge">
<title>Node23&#45;&gt;Node20</title>
<path fill="none" stroke="midnightblue" d="M850.92,-134.4C867.85,-123.5 891.19,-108.48 908.12,-97.58"/>
<polygon fill="midnightblue" stroke="midnightblue" points="910.27,-100.36 916.78,-92.01 906.48,-94.48 910.27,-100.36"/>
</g>
<!-- Node24 -->
<g id="node24" class="node">
<title>Node24</title>
<g id="a_node24"><a xlink:title=" ">
<polygon fill="none" stroke="#bfbfbf" points="740.5,-67.5 740.5,-97.5 893.5,-97.5 893.5,-67.5 740.5,-67.5"/>
<text text-anchor="start" x="748.5" y="-85.5" font-family="Helvetica,sans-Serif" font-size="10.00">xercesc/framework/Memory</text>
<text text-anchor="middle" x="817" y="-74.5" font-family="Helvetica,sans-Serif" font-size="10.00">Manager.hpp</text>
</a>
</g>
</g>
<!-- Node23&#45;&gt;Node24 -->
<g id="edge39" class="edge">
<title>Node23&#45;&gt;Node24</title>
<path fill="none" stroke="midnightblue" d="M826.4,-134.4C824.95,-126.56 823.11,-116.6 821.44,-107.57"/>
<polygon fill="midnightblue" stroke="midnightblue" points="824.86,-106.77 819.6,-97.58 817.97,-108.05 824.86,-106.77"/>
</g>
<!-- Node25&#45;&gt;Node3 -->
<g id="edge41" class="edge">
<title>Node25&#45;&gt;Node3</title>
<path fill="none" stroke="midnightblue" d="M867.6,-201.45C826.8,-194.79 774.62,-183.47 731,-165 690.42,-147.81 648.84,-116.92 625.92,-98.51"/>
<polygon fill="midnightblue" stroke="midnightblue" points="628.06,-95.73 618.1,-92.12 623.63,-101.15 628.06,-95.73"/>
</g>
<!-- Node25&#45;&gt;Node12 -->
<g id="edge44" class="edge">
<title>Node25&#45;&gt;Node12</title>
<path fill="none" stroke="midnightblue" d="M940.07,-201.4C948.05,-185.49 967.36,-151.49 994,-134 1008.01,-124.81 1106.92,-102.81 1161.7,-91.12"/>
<polygon fill="midnightblue" stroke="midnightblue" points="1162.65,-94.49 1171.7,-88.99 1161.19,-87.64 1162.65,-94.49"/>
</g>
<!-- Node25&#45;&gt;Node14 -->
<g id="edge43" class="edge">
<title>Node25&#45;&gt;Node14</title>
<path fill="none" stroke="midnightblue" d="M988.58,-201.48C1061.77,-189.61 1192.92,-168.35 1260.37,-157.41"/>
<polygon fill="midnightblue" stroke="midnightblue" points="1261.32,-160.8 1270.63,-155.75 1260.2,-153.89 1261.32,-160.8"/>
</g>
<!-- Node25&#45;&gt;Node17 -->
<g id="edge42" class="edge">
<title>Node25&#45;&gt;Node17</title>
<path fill="none" stroke="midnightblue" d="M936.42,-201.31C937.62,-185.86 942.23,-153.38 960,-134 982.39,-109.58 1018.39,-96.64 1045.49,-90"/>
<polygon fill="midnightblue" stroke="midnightblue" points="1046.42,-93.37 1055.39,-87.75 1044.87,-86.55 1046.42,-93.37"/>
</g>
<!-- Node25&#45;&gt;Node20 -->
<g id="edge45" class="edge">
<title>Node25&#45;&gt;Node20</title>
<path fill="none" stroke="midnightblue" d="M857.85,-201.87C810.22,-195.12 755.76,-183.56 741,-165 732.42,-154.22 732.38,-144.75 741,-134 787.15,-76.47 833.86,-123.69 903,-98 904.21,-97.55 905.43,-97.06 906.65,-96.53"/>
<polygon fill="midnightblue" stroke="midnightblue" points="908.32,-99.61 915.77,-92.08 905.25,-93.32 908.32,-99.61"/>
</g>
<!-- Node25&#45;&gt;Node21 -->
<g id="edge46" class="edge">
<title>Node25&#45;&gt;Node21</title>
<path fill="none" stroke="midnightblue" d="M965.14,-201.48C993.82,-192.91 1038.75,-179 1077,-165 1078.85,-164.32 1080.75,-163.6 1082.66,-162.86"/>
<polygon fill="midnightblue" stroke="midnightblue" points="1084.14,-166.04 1092.12,-159.07 1081.54,-159.54 1084.14,-166.04"/>
</g>
<!-- Node25&#45;&gt;Node22 -->
<g id="edge47" class="edge">
<title>Node25&#45;&gt;Node22</title>
<path fill="none" stroke="midnightblue" d="M950.18,-201.48C966.36,-191.75 993.03,-175.73 1012.14,-164.24"/>
<polygon fill="midnightblue" stroke="midnightblue" points="1014.07,-167.16 1020.84,-159.01 1010.47,-161.16 1014.07,-167.16"/>
</g>
<!-- Node25&#45;&gt;Node23 -->
<g id="edge48" class="edge">
<title>Node25&#45;&gt;Node23</title>
<path fill="none" stroke="midnightblue" d="M920.67,-201.48C905.7,-193.15 882.42,-180.21 863.07,-169.45"/>
<polygon fill="midnightblue" stroke="midnightblue" points="864.66,-166.32 854.22,-164.52 861.26,-172.44 864.66,-166.32"/>
</g>
<!-- Node26&#45;&gt;Node9 -->
<g id="edge52" class="edge">
<title>Node26&#45;&gt;Node9</title>
<path fill="none" stroke="midnightblue" d="M444,-313.08C444,-306.01 444,-295.86 444,-286.99"/>
<polygon fill="midnightblue" stroke="midnightblue" points="447.5,-286.75 444,-276.75 440.5,-286.75 447.5,-286.75"/>
</g>
</g>
</svg>
        <g id="navigator" transform="translate(0 0)" fill="#404254">
                <rect fill="#f2f5e9" fill-opacity="0.5" stroke="#606060" stroke-width=".5" x="0" y="0" width="60" height="60"/>
                <use id="zoomplus" xlink:href="#zoomPlus" x="17" y="9" onmousedown="handleZoom(evt,'in')"/>
                <use id="zoomminus" xlink:href="#zoomMin" x="42" y="9" onmousedown="handleZoom(evt,'out')"/>
                <use id="reset" xlink:href="#resetDef" x="30" y="36" onmousedown="handleReset()"/>
                <g id="arrowUp" xlink:href="#dirArrow" transform="translate(30 24)" onmousedown="handlePan(0,-1)">
                  <use xlink:href="#rim" fill="#404040">
                        <set attributeName="fill" to="#808080" begin="arrowUp.mouseover" end="arrowUp.mouseout"/>
                  </use>
                  <path fill="none" stroke="white" stroke-width="1.5" d="M0,-3.0v7 M-2.5,-0.5L0,-3.0L2.5,-0.5"/>
                </g>
                <g id="arrowRight" xlink:href="#dirArrow" transform="rotate(90) translate(36 -43)" onmousedown="handlePan(1,0)">
                  <use xlink:href="#rim" fill="#404040">
                        <set attributeName="fill" to="#808080" begin="arrowRight.mouseover" end="arrowRight.mouseout"/>
                  </use>
                  <path fill="none" stroke="white" stroke-width="1.5" d="M0,-3.0v7 M-2.5,-0.5L0,-3.0L2.5,-0.5"/>
                </g>
                <g id="arrowDown" xlink:href="#dirArrow" transform="rotate(180) translate(-30 -48)" onmousedown="handlePan(0,1)">
                  <use xlink:href="#rim" fill="#404040">
                        <set attributeName="fill" to="#808080" begin="arrowDown.mouseover" end="arrowDown.mouseout"/>
                  </use>
                  <path fill="none" stroke="white" stroke-width="1.5" d="M0,-3.0v7 M-2.5,-0.5L0,-3.0L2.5,-0.5"/>
                </g>
                <g id="arrowLeft" xlink:href="#dirArrow" transform="rotate(270) translate(-36 17)" onmousedown="handlePan(-1,0)">
                  <use xlink:href="#rim" fill="#404040">
                        <set attributeName="fill" to="#808080" begin="arrowLeft.mouseover" end="arrowLeft.mouseout"/>
                  </use>
                  <path fill="none" stroke="white" stroke-width="1.5" d="M0,-3.0v7 M-2.5,-0.5L0,-3.0L2.5,-0.5"/>
                </g>
        </g>
        <svg viewBox="0 0 15 15" width="100%" height="30px" preserveAspectRatio="xMaxYMin meet">
         <g id="arrow_out" transform="scale(0.3 0.3)">
          <a xlink:href="XalanSourceTreeAttrNS_8hpp__incl_org.svg" target="_base">
           <rect id="button" ry="5" rx="5" y="6" x="6" height="38" width="38"
                fill="#f2f5e9" fill-opacity="0.5" stroke="#606060" stroke-width="1.0"/>
           <path id="arrow"
             d="M 11.500037,31.436501 C 11.940474,20.09759 22.043105,11.32322 32.158766,21.979434 L 37.068811,17.246167 C 37.068811,17.246167 37.088388,32 37.088388,32 L 22.160133,31.978069 C 22.160133,31.978069 26.997745,27.140456 26.997745,27.140456 C 18.528582,18.264221 13.291696,25.230495 11.500037,31.436501 z"
             style="fill:#404040;"/>
          </a>
         </g>
        </svg>
</svg>
