<?xml version="1.0" encoding="UTF-8" standalone="no"?>
<!DOCTYPE svg PUBLIC "-//W3C//DTD SVG 1.1//EN"
 "http://www.w3.org/Graphics/SVG/1.1/DTD/svg11.dtd">
<!-- Generated by graphviz version 2.38.0 (20140413.2041)
 -->
<!-- Title: xalanc/XPath/XBoolean.hpp Pages: 1 -->
<svg width="151pt" height="162pt"
 viewBox="0.00 0.00 151.00 162.00" xmlns="http://www.w3.org/2000/svg" xmlns:xlink="http://www.w3.org/1999/xlink">
<g id="graph0" class="graph" transform="scale(1 1) rotate(0) translate(4 158)">
<title>xalanc/XPath/XBoolean.hpp</title>
<!-- Node1 -->
<g id="node1" class="node"><title>Node1</title>
<g id="a_node1"><a xlink:title=" ">
<polygon fill="#bfbfbf" stroke="black" points="3.5,-134.5 3.5,-153.5 139.5,-153.5 139.5,-134.5 3.5,-134.5"/>
<text text-anchor="middle" x="71.5" y="-141.5" font-family="Helvetica,sans-Serif" font-size="10.00">xalanc/XPath/XBoolean.hpp</text>
</a>
</g>
</g>
<!-- Node2 -->
<g id="node2" class="node"><title>Node2</title>
<g id="a_node2"><a xlink:href="XObjectFactoryDefault_8hpp.html" target="_top" xlink:title=" ">
<polygon fill="none" stroke="black" points="0,-67.5 0,-97.5 143,-97.5 143,-67.5 0,-67.5"/>
<text text-anchor="start" x="8" y="-85.5" font-family="Helvetica,sans-Serif" font-size="10.00">xalanc/XPath/XObjectFactory</text>
<text text-anchor="middle" x="71.5" y="-74.5" font-family="Helvetica,sans-Serif" font-size="10.00">Default.hpp</text>
</a>
</g>
</g>
<!-- Node1&#45;&gt;Node2 -->
<g id="edge1" class="edge"><title>Node1&#45;&gt;Node2</title>
<path fill="none" stroke="midnightblue" d="M71.5,-124.235C71.5,-115.586 71.5,-105.497 71.5,-97.523"/>
<polygon fill="midnightblue" stroke="midnightblue" points="68.0001,-124.475 71.5,-134.475 75.0001,-124.475 68.0001,-124.475"/>
</g>
<!-- Node3 -->
<g id="node3" class="node"><title>Node3</title>
<g id="a_node3"><a xlink:href="XalanTransformer_8hpp.html" target="_top" xlink:title=" ">
<polygon fill="none" stroke="black" points="10.5,-0.5 10.5,-30.5 132.5,-30.5 132.5,-0.5 10.5,-0.5"/>
<text text-anchor="start" x="18.5" y="-18.5" font-family="Helvetica,sans-Serif" font-size="10.00">xalanc/XalanTransformer</text>
<text text-anchor="middle" x="71.5" y="-7.5" font-family="Helvetica,sans-Serif" font-size="10.00">/XalanTransformer.hpp</text>
</a>
</g>
</g>
<!-- Node2&#45;&gt;Node3 -->
<g id="edge2" class="edge"><title>Node2&#45;&gt;Node3</title>
<path fill="none" stroke="midnightblue" d="M71.5,-57.1081C71.5,-48.1539 71.5,-38.3227 71.5,-30.5765"/>
<polygon fill="midnightblue" stroke="midnightblue" points="68.0001,-57.3959 71.5,-67.396 75.0001,-57.396 68.0001,-57.3959"/>
</g>
</g>
</svg>
