<?xml version="1.0" encoding="UTF-8" standalone="no"?>
<!DOCTYPE svg PUBLIC "-//W3C//DTD SVG 1.1//EN"
 "http://www.w3.org/Graphics/SVG/1.1/DTD/svg11.dtd">
<!-- Generated by graphviz version 2.38.0 (20140413.2041)
 -->
<!-- Title: xalanc/XercesParserLiaison/XercesDOMException.hpp Pages: 1 -->
<svg width="634pt" height="296pt"
 viewBox="0.00 0.00 633.67 296.00" xmlns="http://www.w3.org/2000/svg" xmlns:xlink="http://www.w3.org/1999/xlink">
<g id="graph0" class="graph" transform="scale(1 1) rotate(0) translate(4 292)">
<title>xalanc/XercesParserLiaison/XercesDOMException.hpp</title>
<!-- Node1 -->
<g id="node1" class="node"><title>Node1</title>
<g id="a_node1"><a xlink:title=" ">
<polygon fill="#bfbfbf" stroke="black" points="113.166,-257.5 113.166,-287.5 250.166,-287.5 250.166,-257.5 113.166,-257.5"/>
<text text-anchor="start" x="121.166" y="-275.5" font-family="Helvetica,sans-Serif" font-size="10.00">xalanc/XercesParserLiaison</text>
<text text-anchor="middle" x="181.666" y="-264.5" font-family="Helvetica,sans-Serif" font-size="10.00">/XercesDOMException.hpp</text>
</a>
</g>
</g>
<!-- Node2 -->
<g id="node2" class="node"><title>Node2</title>
<g id="a_node2"><a xlink:href="XercesParserLiaisonDefinitions_8hpp.html" target="_top" xlink:title=" ">
<polygon fill="none" stroke="black" points="161.666,-123.5 161.666,-153.5 333.666,-153.5 333.666,-123.5 161.666,-123.5"/>
<text text-anchor="start" x="169.666" y="-141.5" font-family="Helvetica,sans-Serif" font-size="10.00">xalanc/XercesParserLiaison</text>
<text text-anchor="middle" x="247.666" y="-130.5" font-family="Helvetica,sans-Serif" font-size="10.00">/XercesParserLiaisonDefinitions.hpp</text>
</a>
</g>
</g>
<!-- Node1&#45;&gt;Node2 -->
<g id="edge1" class="edge"><title>Node1&#45;&gt;Node2</title>
<path fill="none" stroke="midnightblue" d="M113.102,-263.169C51.3901,-252.85 -24.8417,-231.327 8.6657,-190 26.8444,-167.579 93.2667,-154.723 151.487,-147.6"/>
<polygon fill="midnightblue" stroke="midnightblue" points="151.976,-151.067 161.498,-146.421 151.157,-144.115 151.976,-151.067"/>
</g>
<!-- Node8 -->
<g id="node8" class="node"><title>Node8</title>
<g id="a_node8"><a xlink:title=" ">
<polygon fill="none" stroke="#bfbfbf" points="18.1657,-196 18.1657,-215 179.166,-215 179.166,-196 18.1657,-196"/>
<text text-anchor="middle" x="98.6657" y="-203" font-family="Helvetica,sans-Serif" font-size="10.00">xercesc/dom/DOMException.hpp</text>
</a>
</g>
</g>
<!-- Node1&#45;&gt;Node8 -->
<g id="edge7" class="edge"><title>Node1&#45;&gt;Node8</title>
<path fill="none" stroke="midnightblue" d="M163.656,-257.396C150.074,-246.759 131.486,-232.203 117.668,-221.381"/>
<polygon fill="midnightblue" stroke="midnightblue" points="119.799,-218.605 109.768,-215.195 115.483,-224.116 119.799,-218.605"/>
</g>
<!-- Node9 -->
<g id="node9" class="node"><title>Node9</title>
<g id="a_node9"><a xlink:href="XalanDOMException_8hpp.html" target="_top" xlink:title=" ">
<polygon fill="none" stroke="black" points="352.166,-196 352.166,-215 557.166,-215 557.166,-196 352.166,-196"/>
<text text-anchor="middle" x="454.666" y="-203" font-family="Helvetica,sans-Serif" font-size="10.00">xalanc/XalanDOM/XalanDOMException.hpp</text>
</a>
</g>
</g>
<!-- Node1&#45;&gt;Node9 -->
<g id="edge8" class="edge"><title>Node1&#45;&gt;Node9</title>
<path fill="none" stroke="midnightblue" d="M240.567,-257.476C291.094,-245.446 362.863,-228.358 409.098,-217.349"/>
<polygon fill="midnightblue" stroke="midnightblue" points="409.928,-220.75 418.845,-215.029 408.307,-213.94 409.928,-220.75"/>
</g>
<!-- Node11 -->
<g id="node11" class="node"><title>Node11</title>
<g id="a_node11"><a xlink:href="XercesWrapperTypes_8hpp.html" target="_top" xlink:title=" ">
<polygon fill="none" stroke="black" points="197.166,-190.5 197.166,-220.5 334.166,-220.5 334.166,-190.5 197.166,-190.5"/>
<text text-anchor="start" x="205.166" y="-208.5" font-family="Helvetica,sans-Serif" font-size="10.00">xalanc/XercesParserLiaison</text>
<text text-anchor="middle" x="265.666" y="-197.5" font-family="Helvetica,sans-Serif" font-size="10.00">/XercesWrapperTypes.hpp</text>
</a>
</g>
</g>
<!-- Node1&#45;&gt;Node11 -->
<g id="edge11" class="edge"><title>Node1&#45;&gt;Node11</title>
<path fill="none" stroke="midnightblue" d="M199.892,-257.396C211.45,-248.452 226.59,-236.737 239.43,-226.802"/>
<polygon fill="midnightblue" stroke="midnightblue" points="241.708,-229.464 247.475,-220.577 237.424,-223.928 241.708,-229.464"/>
</g>
<!-- Node3 -->
<g id="node3" class="node"><title>Node3</title>
<g id="a_node3"><a xlink:href="PlatformDefinitions_8hpp.html" target="_top" xlink:title=" ">
<polygon fill="none" stroke="black" points="348.666,-67.5 348.666,-86.5 530.666,-86.5 530.666,-67.5 348.666,-67.5"/>
<text text-anchor="middle" x="439.666" y="-74.5" font-family="Helvetica,sans-Serif" font-size="10.00">xalanc/Include/PlatformDefinitions.hpp</text>
</a>
</g>
</g>
<!-- Node2&#45;&gt;Node3 -->
<g id="edge2" class="edge"><title>Node2&#45;&gt;Node3</title>
<path fill="none" stroke="midnightblue" d="M293.167,-123.399C326.488,-113.073 371.156,-99.2309 402.376,-89.5559"/>
<polygon fill="midnightblue" stroke="midnightblue" points="403.492,-92.8742 412.008,-86.5709 401.42,-86.1879 403.492,-92.8742"/>
</g>
<!-- Node7 -->
<g id="node7" class="node"><title>Node7</title>
<g id="a_node7"><a xlink:title=" ">
<polygon fill="none" stroke="#bfbfbf" points="179.166,-67.5 179.166,-86.5 316.166,-86.5 316.166,-67.5 179.166,-67.5"/>
<text text-anchor="middle" x="247.666" y="-74.5" font-family="Helvetica,sans-Serif" font-size="10.00">xercesc/util/XercesDefs.hpp</text>
</a>
</g>
</g>
<!-- Node2&#45;&gt;Node7 -->
<g id="edge6" class="edge"><title>Node2&#45;&gt;Node7</title>
<path fill="none" stroke="midnightblue" d="M247.666,-123.399C247.666,-115.466 247.666,-105.458 247.666,-96.8583"/>
<polygon fill="midnightblue" stroke="midnightblue" points="251.166,-96.6577 247.666,-86.6578 244.166,-96.6578 251.166,-96.6577"/>
</g>
<!-- Node4 -->
<g id="node4" class="node"><title>Node4</title>
<g id="a_node4"><a xlink:title=" ">
<polygon fill="none" stroke="#bfbfbf" points="237.666,-0.5 237.666,-30.5 345.666,-30.5 345.666,-0.5 237.666,-0.5"/>
<text text-anchor="start" x="245.666" y="-18.5" font-family="Helvetica,sans-Serif" font-size="10.00">xercesc/util/Xerces</text>
<text text-anchor="middle" x="291.666" y="-7.5" font-family="Helvetica,sans-Serif" font-size="10.00">_autoconf_config.hpp</text>
</a>
</g>
</g>
<!-- Node3&#45;&gt;Node4 -->
<g id="edge3" class="edge"><title>Node3&#45;&gt;Node4</title>
<path fill="none" stroke="midnightblue" d="M418.461,-67.4751C397.011,-58.8518 363.213,-45.2641 335.904,-34.2852"/>
<polygon fill="midnightblue" stroke="midnightblue" points="337.13,-31.0058 326.546,-30.523 334.519,-37.5005 337.13,-31.0058"/>
</g>
<!-- Node5 -->
<g id="node5" class="node"><title>Node5</title>
<g id="a_node5"><a xlink:title=" ">
<polygon fill="none" stroke="#bfbfbf" points="364.166,-6 364.166,-25 515.166,-25 515.166,-6 364.166,-6"/>
<text text-anchor="middle" x="439.666" y="-13" font-family="Helvetica,sans-Serif" font-size="10.00">xercesc/util/XercesVersion.hpp</text>
</a>
</g>
</g>
<!-- Node3&#45;&gt;Node5 -->
<g id="edge4" class="edge"><title>Node3&#45;&gt;Node5</title>
<path fill="none" stroke="midnightblue" d="M439.666,-67.4751C439.666,-59.0803 439.666,-45.9806 439.666,-35.1631"/>
<polygon fill="midnightblue" stroke="midnightblue" points="443.166,-35.0091 439.666,-25.0091 436.166,-35.0091 443.166,-35.0091"/>
</g>
<!-- Node6 -->
<g id="node6" class="node"><title>Node6</title>
<g id="a_node6"><a xlink:href="XalanVersion_8hpp.html" target="_top" xlink:title=" ">
<polygon fill="none" stroke="black" points="533.666,-6 533.666,-25 625.666,-25 625.666,-6 533.666,-6"/>
<text text-anchor="middle" x="579.666" y="-13" font-family="Helvetica,sans-Serif" font-size="10.00">XalanVersion.hpp</text>
</a>
</g>
</g>
<!-- Node3&#45;&gt;Node6 -->
<g id="edge5" class="edge"><title>Node3&#45;&gt;Node6</title>
<path fill="none" stroke="midnightblue" d="M459.724,-67.4751C483.427,-57.4013 523.072,-40.5525 550.248,-29.0023"/>
<polygon fill="midnightblue" stroke="midnightblue" points="551.81,-32.1417 559.644,-25.0091 549.072,-25.6994 551.81,-32.1417"/>
</g>
<!-- Node10 -->
<g id="node10" class="node"><title>Node10</title>
<g id="a_node10"><a xlink:href="XalanDOMDefinitions_8hpp.html" target="_top" xlink:title=" ">
<polygon fill="none" stroke="black" points="351.666,-129 351.666,-148 557.666,-148 557.666,-129 351.666,-129"/>
<text text-anchor="middle" x="454.666" y="-136" font-family="Helvetica,sans-Serif" font-size="10.00">xalanc/XalanDOM/XalanDOMDefinitions.hpp</text>
</a>
</g>
</g>
<!-- Node9&#45;&gt;Node10 -->
<g id="edge9" class="edge"><title>Node9&#45;&gt;Node10</title>
<path fill="none" stroke="midnightblue" d="M454.666,-195.734C454.666,-186.183 454.666,-170.618 454.666,-158.283"/>
<polygon fill="midnightblue" stroke="midnightblue" points="458.166,-158.127 454.666,-148.127 451.166,-158.127 458.166,-158.127"/>
</g>
<!-- Node10&#45;&gt;Node3 -->
<g id="edge10" class="edge"><title>Node10&#45;&gt;Node3</title>
<path fill="none" stroke="midnightblue" d="M452.517,-128.975C450.378,-120.492 447.028,-107.204 444.285,-96.3222"/>
<polygon fill="midnightblue" stroke="midnightblue" points="447.649,-95.3501 441.811,-86.5091 440.862,-97.0613 447.649,-95.3501"/>
</g>
<!-- Node11&#45;&gt;Node2 -->
<g id="edge12" class="edge"><title>Node11&#45;&gt;Node2</title>
<path fill="none" stroke="midnightblue" d="M261.76,-190.396C259.566,-182.474 256.771,-172.379 254.248,-163.271"/>
<polygon fill="midnightblue" stroke="midnightblue" points="257.606,-162.28 251.564,-153.577 250.86,-164.148 257.606,-162.28"/>
</g>
</g>
</svg>
