<?xml version="1.0" encoding="UTF-8" standalone="no"?>
<!DOCTYPE svg PUBLIC "-//W3C//DTD SVG 1.1//EN"
 "http://www.w3.org/Graphics/SVG/1.1/DTD/svg11.dtd">
<!-- Generated by graphviz version 2.38.0 (20140413.2041)
 -->
<!-- Title: xalanc/XercesParserLiaison/XercesAttrWrapper.hpp Pages: 1 -->
<svg width="602pt" height="363pt"
 viewBox="0.00 0.00 601.57 363.00" xmlns="http://www.w3.org/2000/svg" xmlns:xlink="http://www.w3.org/1999/xlink">
<g id="graph0" class="graph" transform="scale(1 1) rotate(0) translate(4 359)">
<title>xalanc/XercesParserLiaison/XercesAttrWrapper.hpp</title>
<!-- Node1 -->
<g id="node1" class="node"><title>Node1</title>
<g id="a_node1"><a xlink:title=" ">
<polygon fill="#bfbfbf" stroke="black" points="114.567,-324.5 114.567,-354.5 251.567,-354.5 251.567,-324.5 114.567,-324.5"/>
<text text-anchor="start" x="122.567" y="-342.5" font-family="Helvetica,sans-Serif" font-size="10.00">xalanc/XercesParserLiaison</text>
<text text-anchor="middle" x="183.067" y="-331.5" font-family="Helvetica,sans-Serif" font-size="10.00">/XercesAttrWrapper.hpp</text>
</a>
</g>
</g>
<!-- Node2 -->
<g id="node2" class="node"><title>Node2</title>
<g id="a_node2"><a xlink:href="XercesParserLiaisonDefinitions_8hpp.html" target="_top" xlink:title=" ">
<polygon fill="none" stroke="black" points="19.0672,-123.5 19.0672,-153.5 191.067,-153.5 191.067,-123.5 19.0672,-123.5"/>
<text text-anchor="start" x="27.0672" y="-141.5" font-family="Helvetica,sans-Serif" font-size="10.00">xalanc/XercesParserLiaison</text>
<text text-anchor="middle" x="105.067" y="-130.5" font-family="Helvetica,sans-Serif" font-size="10.00">/XercesParserLiaisonDefinitions.hpp</text>
</a>
</g>
</g>
<!-- Node1&#45;&gt;Node2 -->
<g id="edge1" class="edge"><title>Node1&#45;&gt;Node2</title>
<path fill="none" stroke="midnightblue" d="M138.551,-324.438C94.5856,-307.768 30.3656,-275.186 5.06715,-221 -0.761455,-208.516 -2.15285,-201.735 5.06715,-190 13.8451,-175.733 28.035,-165.35 43.0019,-157.853"/>
<polygon fill="midnightblue" stroke="midnightblue" points="44.7516,-160.901 52.3799,-153.548 41.8315,-154.539 44.7516,-160.901"/>
</g>
<!-- Node8 -->
<g id="node8" class="node"><title>Node8</title>
<g id="a_node8"><a xlink:title=" ">
<polygon fill="none" stroke="#bfbfbf" points="460.567,-263 460.567,-282 593.567,-282 593.567,-263 460.567,-263"/>
<text text-anchor="middle" x="527.067" y="-270" font-family="Helvetica,sans-Serif" font-size="10.00">xercesc/dom/DOMAttr.hpp</text>
</a>
</g>
</g>
<!-- Node1&#45;&gt;Node8 -->
<g id="edge7" class="edge"><title>Node1&#45;&gt;Node8</title>
<path fill="none" stroke="midnightblue" d="M251.636,-325.733C306.007,-315.584 383.918,-300.985 452.067,-288 458.807,-286.716 465.886,-285.359 472.891,-284.01"/>
<polygon fill="midnightblue" stroke="midnightblue" points="473.898,-287.381 483.054,-282.05 472.572,-280.507 473.898,-287.381"/>
</g>
<!-- Node9 -->
<g id="node9" class="node"><title>Node9</title>
<g id="a_node9"><a xlink:href="XalanAttr_8hpp.html" target="_top" xlink:title=" ">
<polygon fill="none" stroke="black" points="287.567,-263 287.567,-282 442.567,-282 442.567,-263 287.567,-263"/>
<text text-anchor="middle" x="365.067" y="-270" font-family="Helvetica,sans-Serif" font-size="10.00">xalanc/XalanDOM/XalanAttr.hpp</text>
</a>
</g>
</g>
<!-- Node1&#45;&gt;Node9 -->
<g id="edge8" class="edge"><title>Node1&#45;&gt;Node9</title>
<path fill="none" stroke="midnightblue" d="M222.558,-324.396C255.199,-312.739 301.022,-296.373 331.814,-285.376"/>
<polygon fill="midnightblue" stroke="midnightblue" points="333.007,-288.667 341.248,-282.007 330.653,-282.074 333.007,-288.667"/>
</g>
<!-- Node12 -->
<g id="node12" class="node"><title>Node12</title>
<g id="a_node12"><a xlink:href="XercesNodeListWrapper_8hpp.html" target="_top" xlink:title=" ">
<polygon fill="none" stroke="black" points="111.567,-257.5 111.567,-287.5 254.567,-287.5 254.567,-257.5 111.567,-257.5"/>
<text text-anchor="start" x="119.567" y="-275.5" font-family="Helvetica,sans-Serif" font-size="10.00">xalanc/XercesParserLiaison</text>
<text text-anchor="middle" x="183.067" y="-264.5" font-family="Helvetica,sans-Serif" font-size="10.00">/XercesNodeListWrapper.hpp</text>
</a>
</g>
</g>
<!-- Node1&#45;&gt;Node12 -->
<g id="edge13" class="edge"><title>Node1&#45;&gt;Node12</title>
<path fill="none" stroke="midnightblue" d="M183.067,-324.396C183.067,-316.645 183.067,-306.812 183.067,-297.86"/>
<polygon fill="midnightblue" stroke="midnightblue" points="186.567,-297.576 183.067,-287.577 179.567,-297.577 186.567,-297.576"/>
</g>
<!-- Node14 -->
<g id="node14" class="node"><title>Node14</title>
<g id="a_node14"><a xlink:href="XercesWrapperTypes_8hpp.html" target="_top" xlink:title=" ">
<polygon fill="none" stroke="black" points="14.5672,-190.5 14.5672,-220.5 151.567,-220.5 151.567,-190.5 14.5672,-190.5"/>
<text text-anchor="start" x="22.5672" y="-208.5" font-family="Helvetica,sans-Serif" font-size="10.00">xalanc/XercesParserLiaison</text>
<text text-anchor="middle" x="83.0672" y="-197.5" font-family="Helvetica,sans-Serif" font-size="10.00">/XercesWrapperTypes.hpp</text>
</a>
</g>
</g>
<!-- Node1&#45;&gt;Node14 -->
<g id="edge19" class="edge"><title>Node1&#45;&gt;Node14</title>
<path fill="none" stroke="midnightblue" d="M148.163,-324.369C131.854,-316.076 113.544,-304.036 102.067,-288 90.1369,-271.33 85.5858,-248.279 83.9038,-230.944"/>
<polygon fill="midnightblue" stroke="midnightblue" points="87.3621,-230.23 83.1641,-220.502 80.3796,-230.725 87.3621,-230.23"/>
</g>
<!-- Node3 -->
<g id="node3" class="node"><title>Node3</title>
<g id="a_node3"><a xlink:href="PlatformDefinitions_8hpp.html" target="_top" xlink:title=" ">
<polygon fill="none" stroke="black" points="229.067,-67.5 229.067,-86.5 411.067,-86.5 411.067,-67.5 229.067,-67.5"/>
<text text-anchor="middle" x="320.067" y="-74.5" font-family="Helvetica,sans-Serif" font-size="10.00">xalanc/Include/PlatformDefinitions.hpp</text>
</a>
</g>
</g>
<!-- Node2&#45;&gt;Node3 -->
<g id="edge2" class="edge"><title>Node2&#45;&gt;Node3</title>
<path fill="none" stroke="midnightblue" d="M155.747,-123.475C193.487,-113.03 244.338,-98.9576 279.427,-89.2469"/>
<polygon fill="midnightblue" stroke="midnightblue" points="280.626,-92.5468 289.33,-86.5064 278.759,-85.8004 280.626,-92.5468"/>
</g>
<!-- Node7 -->
<g id="node7" class="node"><title>Node7</title>
<g id="a_node7"><a xlink:title=" ">
<polygon fill="none" stroke="#bfbfbf" points="36.5672,-67.5 36.5672,-86.5 173.567,-86.5 173.567,-67.5 36.5672,-67.5"/>
<text text-anchor="middle" x="105.067" y="-74.5" font-family="Helvetica,sans-Serif" font-size="10.00">xercesc/util/XercesDefs.hpp</text>
</a>
</g>
</g>
<!-- Node2&#45;&gt;Node7 -->
<g id="edge6" class="edge"><title>Node2&#45;&gt;Node7</title>
<path fill="none" stroke="midnightblue" d="M105.067,-123.399C105.067,-115.466 105.067,-105.458 105.067,-96.8583"/>
<polygon fill="midnightblue" stroke="midnightblue" points="108.567,-96.6577 105.067,-86.6578 101.567,-96.6578 108.567,-96.6577"/>
</g>
<!-- Node4 -->
<g id="node4" class="node"><title>Node4</title>
<g id="a_node4"><a xlink:title=" ">
<polygon fill="none" stroke="#bfbfbf" points="118.067,-0.5 118.067,-30.5 226.067,-30.5 226.067,-0.5 118.067,-0.5"/>
<text text-anchor="start" x="126.067" y="-18.5" font-family="Helvetica,sans-Serif" font-size="10.00">xercesc/util/Xerces</text>
<text text-anchor="middle" x="172.067" y="-7.5" font-family="Helvetica,sans-Serif" font-size="10.00">_autoconf_config.hpp</text>
</a>
</g>
</g>
<!-- Node3&#45;&gt;Node4 -->
<g id="edge3" class="edge"><title>Node3&#45;&gt;Node4</title>
<path fill="none" stroke="midnightblue" d="M298.862,-67.4751C277.413,-58.8518 243.615,-45.2641 216.306,-34.2852"/>
<polygon fill="midnightblue" stroke="midnightblue" points="217.532,-31.0058 206.948,-30.523 214.921,-37.5005 217.532,-31.0058"/>
</g>
<!-- Node5 -->
<g id="node5" class="node"><title>Node5</title>
<g id="a_node5"><a xlink:title=" ">
<polygon fill="none" stroke="#bfbfbf" points="244.567,-6 244.567,-25 395.567,-25 395.567,-6 244.567,-6"/>
<text text-anchor="middle" x="320.067" y="-13" font-family="Helvetica,sans-Serif" font-size="10.00">xercesc/util/XercesVersion.hpp</text>
</a>
</g>
</g>
<!-- Node3&#45;&gt;Node5 -->
<g id="edge4" class="edge"><title>Node3&#45;&gt;Node5</title>
<path fill="none" stroke="midnightblue" d="M320.067,-67.4751C320.067,-59.0803 320.067,-45.9806 320.067,-35.1631"/>
<polygon fill="midnightblue" stroke="midnightblue" points="323.567,-35.0091 320.067,-25.0091 316.567,-35.0091 323.567,-35.0091"/>
</g>
<!-- Node6 -->
<g id="node6" class="node"><title>Node6</title>
<g id="a_node6"><a xlink:href="XalanVersion_8hpp.html" target="_top" xlink:title=" ">
<polygon fill="none" stroke="black" points="414.067,-6 414.067,-25 506.067,-25 506.067,-6 414.067,-6"/>
<text text-anchor="middle" x="460.067" y="-13" font-family="Helvetica,sans-Serif" font-size="10.00">XalanVersion.hpp</text>
</a>
</g>
</g>
<!-- Node3&#45;&gt;Node6 -->
<g id="edge5" class="edge"><title>Node3&#45;&gt;Node6</title>
<path fill="none" stroke="midnightblue" d="M340.126,-67.4751C363.829,-57.4013 403.473,-40.5525 430.65,-29.0023"/>
<polygon fill="midnightblue" stroke="midnightblue" points="432.211,-32.1417 440.046,-25.0091 429.473,-25.6994 432.211,-32.1417"/>
</g>
<!-- Node10 -->
<g id="node10" class="node"><title>Node10</title>
<g id="a_node10"><a xlink:href="XalanDOMDefinitions_8hpp.html" target="_top" xlink:title=" ">
<polygon fill="none" stroke="black" points="254.067,-129 254.067,-148 460.067,-148 460.067,-129 254.067,-129"/>
<text text-anchor="middle" x="357.067" y="-136" font-family="Helvetica,sans-Serif" font-size="10.00">xalanc/XalanDOM/XalanDOMDefinitions.hpp</text>
</a>
</g>
</g>
<!-- Node9&#45;&gt;Node10 -->
<g id="edge9" class="edge"><title>Node9&#45;&gt;Node10</title>
<path fill="none" stroke="midnightblue" d="M364.731,-262.93C364.13,-248.073 362.772,-216.578 361.067,-190 360.395,-179.517 359.479,-167.824 358.694,-158.331"/>
<polygon fill="midnightblue" stroke="midnightblue" points="362.156,-157.741 357.825,-148.072 355.181,-158.332 362.156,-157.741"/>
</g>
<!-- Node11 -->
<g id="node11" class="node"><title>Node11</title>
<g id="a_node11"><a xlink:href="XalanNode_8hpp.html" target="_top" xlink:title=" ">
<polygon fill="none" stroke="black" points="408.567,-196 408.567,-215 569.567,-215 569.567,-196 408.567,-196"/>
<text text-anchor="middle" x="489.067" y="-203" font-family="Helvetica,sans-Serif" font-size="10.00">xalanc/XalanDOM/XalanNode.hpp</text>
</a>
</g>
</g>
<!-- Node9&#45;&gt;Node11 -->
<g id="edge11" class="edge"><title>Node9&#45;&gt;Node11</title>
<path fill="none" stroke="midnightblue" d="M381.533,-262.869C402.471,-251.893 438.848,-232.824 463.431,-219.938"/>
<polygon fill="midnightblue" stroke="midnightblue" points="465.301,-222.91 472.533,-215.167 462.051,-216.71 465.301,-222.91"/>
</g>
<!-- Node10&#45;&gt;Node3 -->
<g id="edge10" class="edge"><title>Node10&#45;&gt;Node3</title>
<path fill="none" stroke="midnightblue" d="M351.766,-128.975C346.326,-120.227 337.708,-106.369 330.831,-95.3093"/>
<polygon fill="midnightblue" stroke="midnightblue" points="333.611,-93.1528 325.359,-86.5091 327.667,-96.8494 333.611,-93.1528"/>
</g>
<!-- Node11&#45;&gt;Node10 -->
<g id="edge12" class="edge"><title>Node11&#45;&gt;Node10</title>
<path fill="none" stroke="midnightblue" d="M471.539,-195.869C449.053,-184.796 409.839,-165.486 383.666,-152.598"/>
<polygon fill="midnightblue" stroke="midnightblue" points="385.186,-149.445 374.668,-148.167 382.093,-155.725 385.186,-149.445"/>
</g>
<!-- Node12&#45;&gt;Node2 -->
<g id="edge14" class="edge"><title>Node12&#45;&gt;Node2</title>
<path fill="none" stroke="midnightblue" d="M181.458,-257.294C179.009,-240.242 173.164,-211.287 160.067,-190 153.115,-178.7 142.931,-168.364 133.211,-160.027"/>
<polygon fill="midnightblue" stroke="midnightblue" points="135.196,-157.13 125.236,-153.517 130.769,-162.552 135.196,-157.13"/>
</g>
<!-- Node13 -->
<g id="node13" class="node"><title>Node13</title>
<g id="a_node13"><a xlink:href="XalanNodeList_8hpp.html" target="_top" xlink:title=" ">
<polygon fill="none" stroke="black" points="208.567,-190.5 208.567,-220.5 351.567,-220.5 351.567,-190.5 208.567,-190.5"/>
<text text-anchor="start" x="216.567" y="-208.5" font-family="Helvetica,sans-Serif" font-size="10.00">xalanc/XalanDOM/XalanNode</text>
<text text-anchor="middle" x="280.067" y="-197.5" font-family="Helvetica,sans-Serif" font-size="10.00">List.hpp</text>
</a>
</g>
</g>
<!-- Node12&#45;&gt;Node13 -->
<g id="edge15" class="edge"><title>Node12&#45;&gt;Node13</title>
<path fill="none" stroke="midnightblue" d="M204.115,-257.396C217.716,-248.282 235.611,-236.29 250.615,-226.236"/>
<polygon fill="midnightblue" stroke="midnightblue" points="252.702,-229.051 259.061,-220.577 248.805,-223.236 252.702,-229.051"/>
</g>
<!-- Node12&#45;&gt;Node14 -->
<g id="edge17" class="edge"><title>Node12&#45;&gt;Node14</title>
<path fill="none" stroke="midnightblue" d="M161.369,-257.396C147.347,-248.282 128.898,-236.29 113.43,-226.236"/>
<polygon fill="midnightblue" stroke="midnightblue" points="115.015,-223.092 104.723,-220.577 111.2,-228.961 115.015,-223.092"/>
</g>
<!-- Node13&#45;&gt;Node10 -->
<g id="edge16" class="edge"><title>Node13&#45;&gt;Node10</title>
<path fill="none" stroke="midnightblue" d="M296.775,-190.396C309.256,-179.86 326.294,-165.477 339.074,-154.689"/>
<polygon fill="midnightblue" stroke="midnightblue" points="341.384,-157.32 346.767,-148.195 336.868,-151.971 341.384,-157.32"/>
</g>
<!-- Node14&#45;&gt;Node2 -->
<g id="edge18" class="edge"><title>Node14&#45;&gt;Node2</title>
<path fill="none" stroke="midnightblue" d="M87.8408,-190.396C90.5219,-182.474 93.9389,-172.379 97.0215,-163.271"/>
<polygon fill="midnightblue" stroke="midnightblue" points="100.412,-164.171 100.303,-153.577 93.7815,-161.927 100.412,-164.171"/>
</g>
</g>
</svg>
