<?xml version="1.0" encoding="UTF-8" standalone="no"?>
<!DOCTYPE svg PUBLIC "-//W3C//DTD SVG 1.1//EN"
 "http://www.w3.org/Graphics/SVG/1.1/DTD/svg11.dtd">
<!-- Generated by graphviz version 2.43.0 (0)
 -->
<!-- Title: xalanc/XercesParserLiaison/Deprecated/XercesAttributeBridgeAllocator.hpp Pages: 1 -->
<svg width="1887pt" height="519pt"
 viewBox="0.00 0.00 1887.42 519.00" xmlns="http://www.w3.org/2000/svg" xmlns:xlink="http://www.w3.org/1999/xlink">
<g id="graph0" class="graph" transform="scale(1 1) rotate(0) translate(4 515)">
<title>xalanc/XercesParserLiaison/Deprecated/XercesAttributeBridgeAllocator.hpp</title>
<!-- Node1 -->
<g id="node1" class="node">
<title>Node1</title>
<g id="a_node1"><a xlink:title=" ">
<polygon fill="#bfbfbf" stroke="black" points="1558.5,-469.5 1558.5,-510.5 1744.5,-510.5 1744.5,-469.5 1558.5,-469.5"/>
<text text-anchor="start" x="1566.5" y="-498.5" font-family="Helvetica,sans-Serif" font-size="10.00">xalanc/XercesParserLiaison</text>
<text text-anchor="start" x="1566.5" y="-487.5" font-family="Helvetica,sans-Serif" font-size="10.00">/Deprecated/XercesAttributeBridge</text>
<text text-anchor="middle" x="1651.5" y="-476.5" font-family="Helvetica,sans-Serif" font-size="10.00">Allocator.hpp</text>
</a>
</g>
</g>
<!-- Node2 -->
<g id="node2" class="node">
<title>Node2</title>
<g id="a_node2"><a xlink:href="XercesParserLiaisonDefinitions_8hpp.html" target="_top" xlink:title=" ">
<polygon fill="none" stroke="black" points="1658,-201.5 1658,-231.5 1849,-231.5 1849,-201.5 1658,-201.5"/>
<text text-anchor="start" x="1666" y="-219.5" font-family="Helvetica,sans-Serif" font-size="10.00">xalanc/XercesParserLiaison</text>
<text text-anchor="middle" x="1753.5" y="-208.5" font-family="Helvetica,sans-Serif" font-size="10.00">/XercesParserLiaisonDefinitions.hpp</text>
</a>
</g>
</g>
<!-- Node1&#45;&gt;Node2 -->
<g id="edge1" class="edge">
<title>Node1&#45;&gt;Node2</title>
<path fill="none" stroke="midnightblue" d="M1695.8,-469.3C1752.29,-441.16 1846.05,-383.34 1874.5,-299 1878.9,-285.94 1882.14,-279.47 1874.5,-268 1864.74,-253.35 1849.84,-242.95 1833.79,-235.55"/>
<polygon fill="midnightblue" stroke="midnightblue" points="1834.81,-232.19 1824.24,-231.54 1832.1,-238.64 1834.81,-232.19"/>
</g>
<!-- Node8 -->
<g id="node8" class="node">
<title>Node8</title>
<g id="a_node8"><a xlink:href="ArenaAllocator_8hpp.html" target="_top" xlink:title=" ">
<polygon fill="none" stroke="black" points="772,-402.5 772,-432.5 903,-432.5 903,-402.5 772,-402.5"/>
<text text-anchor="start" x="780" y="-420.5" font-family="Helvetica,sans-Serif" font-size="10.00">xalanc/PlatformSupport</text>
<text text-anchor="middle" x="837.5" y="-409.5" font-family="Helvetica,sans-Serif" font-size="10.00">/ArenaAllocator.hpp</text>
</a>
</g>
</g>
<!-- Node1&#45;&gt;Node8 -->
<g id="edge7" class="edge">
<title>Node1&#45;&gt;Node8</title>
<path fill="none" stroke="midnightblue" d="M1558.12,-480.91C1395.35,-466.81 1062.74,-438.01 913.24,-425.06"/>
<polygon fill="midnightblue" stroke="midnightblue" points="913.5,-421.57 903.23,-424.19 912.89,-428.54 913.5,-421.57"/>
</g>
<!-- Node26 -->
<g id="node26" class="node">
<title>Node26</title>
<g id="a_node26"><a xlink:href="XercesAttrBridge_8hpp.html" target="_top" xlink:title=" ">
<polygon fill="none" stroke="black" points="1560.5,-402.5 1560.5,-432.5 1742.5,-432.5 1742.5,-402.5 1560.5,-402.5"/>
<text text-anchor="start" x="1568.5" y="-420.5" font-family="Helvetica,sans-Serif" font-size="10.00">xalanc/XercesParserLiaison</text>
<text text-anchor="middle" x="1651.5" y="-409.5" font-family="Helvetica,sans-Serif" font-size="10.00">/Deprecated/XercesAttrBridge.hpp</text>
</a>
</g>
</g>
<!-- Node1&#45;&gt;Node26 -->
<g id="edge50" class="edge">
<title>Node1&#45;&gt;Node26</title>
<path fill="none" stroke="midnightblue" d="M1651.5,-469.36C1651.5,-461.23 1651.5,-451.7 1651.5,-443.11"/>
<polygon fill="midnightblue" stroke="midnightblue" points="1655,-442.89 1651.5,-432.89 1648,-442.89 1655,-442.89"/>
</g>
<!-- Node3 -->
<g id="node3" class="node">
<title>Node3</title>
<g id="a_node3"><a xlink:href="PlatformDefinitions_8hpp.html" target="_top" xlink:title=" ">
<polygon fill="none" stroke="black" points="849.5,-73 849.5,-92 1055.5,-92 1055.5,-73 849.5,-73"/>
<text text-anchor="middle" x="952.5" y="-80" font-family="Helvetica,sans-Serif" font-size="10.00">xalanc/Include/PlatformDefinitions.hpp</text>
</a>
</g>
</g>
<!-- Node2&#45;&gt;Node3 -->
<g id="edge2" class="edge">
<title>Node2&#45;&gt;Node3</title>
<path fill="none" stroke="midnightblue" d="M1668.54,-201.5C1506.51,-174.8 1156.83,-117.17 1014.58,-93.73"/>
<polygon fill="midnightblue" stroke="midnightblue" points="1014.73,-90.21 1004.3,-92.04 1013.6,-97.12 1014.73,-90.21"/>
</g>
<!-- Node7 -->
<g id="node7" class="node">
<title>Node7</title>
<g id="a_node7"><a xlink:title=" ">
<polygon fill="none" stroke="#bfbfbf" points="1677.5,-140 1677.5,-159 1829.5,-159 1829.5,-140 1677.5,-140"/>
<text text-anchor="middle" x="1753.5" y="-147" font-family="Helvetica,sans-Serif" font-size="10.00">xercesc/util/XercesDefs.hpp</text>
</a>
</g>
</g>
<!-- Node2&#45;&gt;Node7 -->
<g id="edge6" class="edge">
<title>Node2&#45;&gt;Node7</title>
<path fill="none" stroke="midnightblue" d="M1753.5,-201.4C1753.5,-192.06 1753.5,-179.71 1753.5,-169.52"/>
<polygon fill="midnightblue" stroke="midnightblue" points="1757,-169.19 1753.5,-159.19 1750,-169.19 1757,-169.19"/>
</g>
<!-- Node4 -->
<g id="node4" class="node">
<title>Node4</title>
<g id="a_node4"><a xlink:title=" ">
<polygon fill="none" stroke="#bfbfbf" points="731.5,-0.5 731.5,-30.5 851.5,-30.5 851.5,-0.5 731.5,-0.5"/>
<text text-anchor="start" x="739.5" y="-18.5" font-family="Helvetica,sans-Serif" font-size="10.00">xercesc/util/Xerces</text>
<text text-anchor="middle" x="791.5" y="-7.5" font-family="Helvetica,sans-Serif" font-size="10.00">_autoconf_config.hpp</text>
</a>
</g>
</g>
<!-- Node3&#45;&gt;Node4 -->
<g id="edge3" class="edge">
<title>Node3&#45;&gt;Node4</title>
<path fill="none" stroke="midnightblue" d="M931.12,-72.87C906.86,-63.07 866.62,-46.83 835.56,-34.29"/>
<polygon fill="midnightblue" stroke="midnightblue" points="836.83,-31.03 826.25,-30.53 834.21,-37.52 836.83,-31.03"/>
</g>
<!-- Node5 -->
<g id="node5" class="node">
<title>Node5</title>
<g id="a_node5"><a xlink:title=" ">
<polygon fill="none" stroke="#bfbfbf" points="870,-6 870,-25 1035,-25 1035,-6 870,-6"/>
<text text-anchor="middle" x="952.5" y="-13" font-family="Helvetica,sans-Serif" font-size="10.00">xercesc/util/XercesVersion.hpp</text>
</a>
</g>
</g>
<!-- Node3&#45;&gt;Node5 -->
<g id="edge4" class="edge">
<title>Node3&#45;&gt;Node5</title>
<path fill="none" stroke="midnightblue" d="M952.5,-72.73C952.5,-63.18 952.5,-47.62 952.5,-35.28"/>
<polygon fill="midnightblue" stroke="midnightblue" points="956,-35.13 952.5,-25.13 949,-35.13 956,-35.13"/>
</g>
<!-- Node6 -->
<g id="node6" class="node">
<title>Node6</title>
<g id="a_node6"><a xlink:href="XalanVersion_8hpp.html" target="_top" xlink:title=" ">
<polygon fill="none" stroke="black" points="1053,-6 1053,-25 1228,-25 1228,-6 1053,-6"/>
<text text-anchor="middle" x="1140.5" y="-13" font-family="Helvetica,sans-Serif" font-size="10.00">xalanc/Include/XalanVersion.hpp</text>
</a>
</g>
</g>
<!-- Node3&#45;&gt;Node6 -->
<g id="edge5" class="edge">
<title>Node3&#45;&gt;Node6</title>
<path fill="none" stroke="midnightblue" d="M977.46,-72.87C1010.42,-61.47 1068.62,-41.35 1105.83,-28.49"/>
<polygon fill="midnightblue" stroke="midnightblue" points="1107.42,-31.64 1115.73,-25.06 1105.14,-25.02 1107.42,-31.64"/>
</g>
<!-- Node9 -->
<g id="node9" class="node">
<title>Node9</title>
<g id="a_node9"><a xlink:title=" ">
<polygon fill="none" stroke="#bfbfbf" points="860.5,-140 860.5,-159 924.5,-159 924.5,-140 860.5,-140"/>
<text text-anchor="middle" x="892.5" y="-147" font-family="Helvetica,sans-Serif" font-size="10.00">algorithm</text>
</a>
</g>
</g>
<!-- Node8&#45;&gt;Node9 -->
<g id="edge8" class="edge">
<title>Node8&#45;&gt;Node9</title>
<path fill="none" stroke="midnightblue" d="M881.73,-402.44C898.85,-394.59 916.67,-382.89 926.5,-366 964.47,-300.8 922.76,-206.59 902.39,-167.99"/>
<polygon fill="midnightblue" stroke="midnightblue" points="905.36,-166.14 897.51,-159.04 899.22,-169.49 905.36,-166.14"/>
</g>
<!-- Node10 -->
<g id="node10" class="node">
<title>Node10</title>
<g id="a_node10"><a xlink:href="STLHelper_8hpp.html" target="_top" xlink:title=" ">
<polygon fill="none" stroke="black" points="757.5,-341 757.5,-360 917.5,-360 917.5,-341 757.5,-341"/>
<text text-anchor="middle" x="837.5" y="-348" font-family="Helvetica,sans-Serif" font-size="10.00">xalanc/Include/STLHelper.hpp</text>
</a>
</g>
</g>
<!-- Node8&#45;&gt;Node10 -->
<g id="edge9" class="edge">
<title>Node8&#45;&gt;Node10</title>
<path fill="none" stroke="midnightblue" d="M837.5,-402.4C837.5,-393.06 837.5,-380.71 837.5,-370.52"/>
<polygon fill="midnightblue" stroke="midnightblue" points="841,-370.19 837.5,-360.19 834,-370.19 841,-370.19"/>
</g>
<!-- Node22 -->
<g id="node22" class="node">
<title>Node22</title>
<g id="a_node22"><a xlink:href="XalanList_8hpp.html" target="_top" xlink:title=" ">
<polygon fill="none" stroke="black" points="422.5,-207 422.5,-226 578.5,-226 578.5,-207 422.5,-207"/>
<text text-anchor="middle" x="500.5" y="-214" font-family="Helvetica,sans-Serif" font-size="10.00">xalanc/Include/XalanList.hpp</text>
</a>
</g>
</g>
<!-- Node8&#45;&gt;Node22 -->
<g id="edge42" class="edge">
<title>Node8&#45;&gt;Node22</title>
<path fill="none" stroke="midnightblue" d="M812.09,-402.29C794.24,-392.26 769.83,-378.44 748.5,-366 665.09,-317.37 566.99,-257.97 523.38,-231.44"/>
<polygon fill="midnightblue" stroke="midnightblue" points="525.05,-228.36 514.69,-226.15 521.41,-234.34 525.05,-228.36"/>
</g>
<!-- Node23 -->
<g id="node23" class="node">
<title>Node23</title>
<g id="a_node23"><a xlink:href="ArenaBlock_8hpp.html" target="_top" xlink:title=" ">
<polygon fill="none" stroke="black" points="253,-341 253,-360 346,-360 346,-341 253,-341"/>
<text text-anchor="middle" x="299.5" y="-348" font-family="Helvetica,sans-Serif" font-size="10.00">ArenaBlock.hpp</text>
</a>
</g>
</g>
<!-- Node8&#45;&gt;Node23 -->
<g id="edge43" class="edge">
<title>Node8&#45;&gt;Node23</title>
<path fill="none" stroke="midnightblue" d="M771.8,-408.56C665.29,-395.69 456.77,-370.5 356.29,-358.36"/>
<polygon fill="midnightblue" stroke="midnightblue" points="356.68,-354.88 346.33,-357.16 355.84,-361.83 356.68,-354.88"/>
</g>
<!-- Node10&#45;&gt;Node3 -->
<g id="edge10" class="edge">
<title>Node10&#45;&gt;Node3</title>
<path fill="none" stroke="midnightblue" d="M848.57,-340.77C859.94,-331.38 877.61,-315.56 889.5,-299 928,-245.39 938.92,-229.37 953.5,-165 958.28,-143.92 957,-118.98 955.19,-102.29"/>
<polygon fill="midnightblue" stroke="midnightblue" points="958.64,-101.69 953.92,-92.2 951.69,-102.56 958.64,-101.69"/>
</g>
<!-- Node10&#45;&gt;Node9 -->
<g id="edge11" class="edge">
<title>Node10&#45;&gt;Node9</title>
<path fill="none" stroke="midnightblue" d="M844.86,-340.84C852.57,-331.27 864.4,-315.06 870.5,-299 887.33,-254.67 891.35,-198.35 892.27,-169.47"/>
<polygon fill="midnightblue" stroke="midnightblue" points="895.77,-169.27 892.5,-159.2 888.78,-169.12 895.77,-169.27"/>
</g>
<!-- Node11 -->
<g id="node11" class="node">
<title>Node11</title>
<g id="a_node11"><a xlink:title=" ">
<polygon fill="none" stroke="#bfbfbf" points="264,-207 264,-226 329,-226 329,-207 264,-207"/>
<text text-anchor="middle" x="296.5" y="-214" font-family="Helvetica,sans-Serif" font-size="10.00">functional</text>
</a>
</g>
</g>
<!-- Node10&#45;&gt;Node11 -->
<g id="edge12" class="edge">
<title>Node10&#45;&gt;Node11</title>
<path fill="none" stroke="midnightblue" d="M797.57,-340.94C713.26,-322.65 511.04,-277.72 343.5,-232 340.1,-231.07 336.58,-230.07 333.06,-229.03"/>
<polygon fill="midnightblue" stroke="midnightblue" points="333.84,-225.61 323.25,-226.09 331.82,-232.32 333.84,-225.61"/>
</g>
<!-- Node12 -->
<g id="node12" class="node">
<title>Node12</title>
<g id="a_node12"><a xlink:href="XalanMap_8hpp.html" target="_top" xlink:title=" ">
<polygon fill="none" stroke="black" points="701.5,-274 701.5,-293 861.5,-293 861.5,-274 701.5,-274"/>
<text text-anchor="middle" x="781.5" y="-281" font-family="Helvetica,sans-Serif" font-size="10.00">xalanc/Include/XalanMap.hpp</text>
</a>
</g>
</g>
<!-- Node10&#45;&gt;Node12 -->
<g id="edge13" class="edge">
<title>Node10&#45;&gt;Node12</title>
<path fill="none" stroke="midnightblue" d="M829.95,-340.73C821.22,-330.6 806.65,-313.69 795.76,-301.06"/>
<polygon fill="midnightblue" stroke="midnightblue" points="798.11,-298.42 788.93,-293.13 792.81,-302.99 798.11,-298.42"/>
</g>
<!-- Node12&#45;&gt;Node3 -->
<g id="edge14" class="edge">
<title>Node12&#45;&gt;Node3</title>
<path fill="none" stroke="midnightblue" d="M802.61,-273.84C822.58,-265.05 852.8,-250.18 875.5,-232 906.25,-207.38 915.62,-200.09 933.5,-165 943.68,-145.02 948.49,-119.5 950.71,-102.39"/>
<polygon fill="midnightblue" stroke="midnightblue" points="954.23,-102.38 951.86,-92.05 947.27,-101.6 954.23,-102.38"/>
</g>
<!-- Node12&#45;&gt;Node9 -->
<g id="edge16" class="edge">
<title>Node12&#45;&gt;Node9</title>
<path fill="none" stroke="midnightblue" d="M782.89,-273.98C785.86,-258.09 794.1,-223.5 812.5,-201 825.8,-184.74 845.78,-172.12 862.44,-163.57"/>
<polygon fill="midnightblue" stroke="midnightblue" points="864.35,-166.53 871.8,-159 861.27,-160.24 864.35,-166.53"/>
</g>
<!-- Node12&#45;&gt;Node11 -->
<g id="edge17" class="edge">
<title>Node12&#45;&gt;Node11</title>
<path fill="none" stroke="midnightblue" d="M706.09,-273.98C583.16,-260.08 352.28,-233.84 343.5,-232 339.36,-231.13 335.07,-230.06 330.83,-228.89"/>
<polygon fill="midnightblue" stroke="midnightblue" points="331.74,-225.5 321.16,-226.04 329.76,-232.22 331.74,-225.5"/>
</g>
<!-- Node13 -->
<g id="node13" class="node">
<title>Node13</title>
<g id="a_node13"><a xlink:title=" ">
<polygon fill="none" stroke="#bfbfbf" points="200,-73 200,-92 253,-92 253,-73 200,-73"/>
<text text-anchor="middle" x="226.5" y="-80" font-family="Helvetica,sans-Serif" font-size="10.00">cstddef</text>
</a>
</g>
</g>
<!-- Node12&#45;&gt;Node13 -->
<g id="edge15" class="edge">
<title>Node12&#45;&gt;Node13</title>
<path fill="none" stroke="midnightblue" d="M701.14,-278.22C625.64,-272.62 510.13,-260 413.5,-232 396.26,-227 279.37,-177.51 266.5,-165 248.44,-147.45 237.35,-120.07 231.55,-101.96"/>
<polygon fill="midnightblue" stroke="midnightblue" points="234.88,-100.87 228.68,-92.28 228.17,-102.86 234.88,-100.87"/>
</g>
<!-- Node14 -->
<g id="node14" class="node">
<title>Node14</title>
<g id="a_node14"><a xlink:title=" ">
<polygon fill="none" stroke="#bfbfbf" points="822,-207 822,-226 867,-226 867,-207 822,-207"/>
<text text-anchor="middle" x="844.5" y="-214" font-family="Helvetica,sans-Serif" font-size="10.00">utility</text>
</a>
</g>
</g>
<!-- Node12&#45;&gt;Node14 -->
<g id="edge18" class="edge">
<title>Node12&#45;&gt;Node14</title>
<path fill="none" stroke="midnightblue" d="M790,-273.73C800.01,-263.4 816.84,-246.04 829.16,-233.33"/>
<polygon fill="midnightblue" stroke="midnightblue" points="831.69,-235.74 836.14,-226.13 826.67,-230.87 831.69,-235.74"/>
</g>
<!-- Node15 -->
<g id="node15" class="node">
<title>Node15</title>
<g id="a_node15"><a xlink:href="XalanVector_8hpp.html" target="_top" xlink:title=" ">
<polygon fill="none" stroke="black" points="597,-207 597,-226 766,-226 766,-207 597,-207"/>
<text text-anchor="middle" x="681.5" y="-214" font-family="Helvetica,sans-Serif" font-size="10.00">xalanc/Include/XalanVector.hpp</text>
</a>
</g>
</g>
<!-- Node12&#45;&gt;Node15 -->
<g id="edge19" class="edge">
<title>Node12&#45;&gt;Node15</title>
<path fill="none" stroke="midnightblue" d="M768.01,-273.73C751.45,-262.96 723.12,-244.55 703.41,-231.74"/>
<polygon fill="midnightblue" stroke="midnightblue" points="705.06,-228.64 694.77,-226.13 701.25,-234.51 705.06,-228.64"/>
</g>
<!-- Node12&#45;&gt;Node22 -->
<g id="edge33" class="edge">
<title>Node12&#45;&gt;Node22</title>
<path fill="none" stroke="midnightblue" d="M744.48,-273.94C693.83,-262.22 602.92,-241.19 547.52,-228.38"/>
<polygon fill="midnightblue" stroke="midnightblue" points="548.14,-224.93 537.61,-226.08 546.56,-231.75 548.14,-224.93"/>
</g>
<!-- Node15&#45;&gt;Node3 -->
<g id="edge20" class="edge">
<title>Node15&#45;&gt;Node3</title>
<path fill="none" stroke="midnightblue" d="M699.54,-207C720.67,-197.03 756.69,-179.95 787.5,-165 836.48,-141.24 893.34,-113.01 925.91,-96.78"/>
<polygon fill="midnightblue" stroke="midnightblue" points="927.81,-99.74 935.2,-92.15 924.69,-93.48 927.81,-99.74"/>
</g>
<!-- Node15&#45;&gt;Node9 -->
<g id="edge22" class="edge">
<title>Node15&#45;&gt;Node9</title>
<path fill="none" stroke="midnightblue" d="M709.55,-206.99C742.4,-197.01 798.44,-179.93 846.5,-165 849.44,-164.09 852.49,-163.13 855.55,-162.18"/>
<polygon fill="midnightblue" stroke="midnightblue" points="856.78,-165.46 865.27,-159.12 854.68,-158.78 856.78,-165.46"/>
</g>
<!-- Node15&#45;&gt;Node13 -->
<g id="edge21" class="edge">
<title>Node15&#45;&gt;Node13</title>
<path fill="none" stroke="midnightblue" d="M626.84,-206.94C613.95,-204.95 600.24,-202.88 587.5,-201 473.39,-184.21 434.52,-214.82 330.5,-165 312.35,-156.31 313.07,-146.75 297.5,-134 281.66,-121.03 262.72,-107.66 248.39,-97.93"/>
<polygon fill="midnightblue" stroke="midnightblue" points="249.97,-94.78 239.72,-92.11 246.07,-100.59 249.97,-94.78"/>
</g>
<!-- Node16 -->
<g id="node16" class="node">
<title>Node16</title>
<g id="a_node16"><a xlink:title=" ">
<polygon fill="none" stroke="#bfbfbf" points="271.5,-73 271.5,-92 323.5,-92 323.5,-73 271.5,-73"/>
<text text-anchor="middle" x="297.5" y="-80" font-family="Helvetica,sans-Serif" font-size="10.00">cassert</text>
</a>
</g>
</g>
<!-- Node15&#45;&gt;Node16 -->
<g id="edge23" class="edge">
<title>Node15&#45;&gt;Node16</title>
<path fill="none" stroke="midnightblue" d="M694.95,-206.81C717.49,-191.23 758.39,-157.93 736.5,-134 675.66,-67.5 420.03,-119.5 332.5,-98 329.98,-97.38 327.42,-96.61 324.87,-95.75"/>
<polygon fill="midnightblue" stroke="midnightblue" points="325.9,-92.4 315.31,-92.1 323.41,-98.94 325.9,-92.4"/>
</g>
<!-- Node17 -->
<g id="node17" class="node">
<title>Node17</title>
<g id="a_node17"><a xlink:title=" ">
<polygon fill="none" stroke="#bfbfbf" points="513,-73 513,-92 550,-92 550,-73 513,-73"/>
<text text-anchor="middle" x="531.5" y="-80" font-family="Helvetica,sans-Serif" font-size="10.00">new</text>
</a>
</g>
</g>
<!-- Node15&#45;&gt;Node17 -->
<g id="edge24" class="edge">
<title>Node15&#45;&gt;Node17</title>
<path fill="none" stroke="midnightblue" d="M712.49,-206.87C732.9,-199.39 758.07,-186.34 770.5,-165 777.43,-153.09 779.18,-144.7 770.5,-134 744.34,-101.74 618.29,-89.28 560.53,-85.21"/>
<polygon fill="midnightblue" stroke="midnightblue" points="560.47,-81.7 550.26,-84.52 560,-88.68 560.47,-81.7"/>
</g>
<!-- Node18 -->
<g id="node18" class="node">
<title>Node18</title>
<g id="a_node18"><a xlink:title=" ">
<polygon fill="none" stroke="#bfbfbf" points="675,-140 675,-159 728,-159 728,-140 675,-140"/>
<text text-anchor="middle" x="701.5" y="-147" font-family="Helvetica,sans-Serif" font-size="10.00">iterator</text>
</a>
</g>
</g>
<!-- Node15&#45;&gt;Node18 -->
<g id="edge25" class="edge">
<title>Node15&#45;&gt;Node18</title>
<path fill="none" stroke="midnightblue" d="M684.2,-206.73C687.17,-197.09 692.02,-181.3 695.84,-168.91"/>
<polygon fill="midnightblue" stroke="midnightblue" points="699.25,-169.71 698.85,-159.13 692.56,-167.66 699.25,-169.71"/>
</g>
<!-- Node19 -->
<g id="node19" class="node">
<title>Node19</title>
<g id="a_node19"><a xlink:title=" ">
<polygon fill="none" stroke="#bfbfbf" points="592,-140 592,-159 657,-159 657,-140 592,-140"/>
<text text-anchor="middle" x="624.5" y="-147" font-family="Helvetica,sans-Serif" font-size="10.00">stdexcept</text>
</a>
</g>
</g>
<!-- Node15&#45;&gt;Node19 -->
<g id="edge26" class="edge">
<title>Node15&#45;&gt;Node19</title>
<path fill="none" stroke="midnightblue" d="M673.81,-206.73C664.84,-196.5 649.81,-179.36 638.7,-166.69"/>
<polygon fill="midnightblue" stroke="midnightblue" points="641.29,-164.34 632.07,-159.13 636.03,-168.95 641.29,-164.34"/>
</g>
<!-- Node20 -->
<g id="node20" class="node">
<title>Node20</title>
<g id="a_node20"><a xlink:href="XalanMemoryManagement_8hpp.html" target="_top" xlink:title=" ">
<polygon fill="none" stroke="black" points="339.5,-134.5 339.5,-164.5 497.5,-164.5 497.5,-134.5 339.5,-134.5"/>
<text text-anchor="start" x="347.5" y="-152.5" font-family="Helvetica,sans-Serif" font-size="10.00">xalanc/Include/XalanMemory</text>
<text text-anchor="middle" x="418.5" y="-141.5" font-family="Helvetica,sans-Serif" font-size="10.00">Management.hpp</text>
</a>
</g>
</g>
<!-- Node15&#45;&gt;Node20 -->
<g id="edge27" class="edge">
<title>Node15&#45;&gt;Node20</title>
<path fill="none" stroke="midnightblue" d="M646.85,-206.94C605.83,-196.8 536.61,-179.69 485.11,-166.96"/>
<polygon fill="midnightblue" stroke="midnightblue" points="485.93,-163.56 475.39,-164.56 484.25,-170.36 485.93,-163.56"/>
</g>
<!-- Node20&#45;&gt;Node3 -->
<g id="edge28" class="edge">
<title>Node20&#45;&gt;Node3</title>
<path fill="none" stroke="midnightblue" d="M497.58,-138.87C598.21,-126.63 771.07,-105.58 872.25,-93.27"/>
<polygon fill="midnightblue" stroke="midnightblue" points="872.91,-96.71 882.42,-92.03 872.07,-89.76 872.91,-96.71"/>
</g>
<!-- Node20&#45;&gt;Node13 -->
<g id="edge30" class="edge">
<title>Node20&#45;&gt;Node13</title>
<path fill="none" stroke="midnightblue" d="M372.14,-134.42C340.95,-124.73 299.03,-111.25 262.5,-98 260.6,-97.31 258.65,-96.58 256.69,-95.84"/>
<polygon fill="midnightblue" stroke="midnightblue" points="257.55,-92.42 246.97,-92.03 255,-98.94 257.55,-92.42"/>
</g>
<!-- Node20&#45;&gt;Node16 -->
<g id="edge29" class="edge">
<title>Node20&#45;&gt;Node16</title>
<path fill="none" stroke="midnightblue" d="M392.24,-134.4C371.48,-123.24 342.7,-107.78 322.32,-96.83"/>
<polygon fill="midnightblue" stroke="midnightblue" points="323.8,-93.66 313.34,-92.01 320.49,-99.82 323.8,-93.66"/>
</g>
<!-- Node20&#45;&gt;Node17 -->
<g id="edge31" class="edge">
<title>Node20&#45;&gt;Node17</title>
<path fill="none" stroke="midnightblue" d="M443.02,-134.4C462.23,-123.34 488.8,-108.06 507.8,-97.13"/>
<polygon fill="midnightblue" stroke="midnightblue" points="509.79,-100.03 516.71,-92.01 506.3,-93.96 509.79,-100.03"/>
</g>
<!-- Node21 -->
<g id="node21" class="node">
<title>Node21</title>
<g id="a_node21"><a xlink:title=" ">
<polygon fill="none" stroke="#bfbfbf" points="342,-67.5 342,-97.5 495,-97.5 495,-67.5 342,-67.5"/>
<text text-anchor="start" x="350" y="-85.5" font-family="Helvetica,sans-Serif" font-size="10.00">xercesc/framework/Memory</text>
<text text-anchor="middle" x="418.5" y="-74.5" font-family="Helvetica,sans-Serif" font-size="10.00">Manager.hpp</text>
</a>
</g>
</g>
<!-- Node20&#45;&gt;Node21 -->
<g id="edge32" class="edge">
<title>Node20&#45;&gt;Node21</title>
<path fill="none" stroke="midnightblue" d="M418.5,-134.4C418.5,-126.64 418.5,-116.81 418.5,-107.86"/>
<polygon fill="midnightblue" stroke="midnightblue" points="422,-107.58 418.5,-97.58 415,-107.58 422,-107.58"/>
</g>
<!-- Node22&#45;&gt;Node3 -->
<g id="edge34" class="edge">
<title>Node22&#45;&gt;Node3</title>
<path fill="none" stroke="midnightblue" d="M506.27,-206.78C518.2,-189.55 547.41,-151.34 582.5,-134 626.41,-112.3 747.36,-98.63 839.13,-91.06"/>
<polygon fill="midnightblue" stroke="midnightblue" points="839.64,-94.53 849.32,-90.23 839.07,-87.55 839.64,-94.53"/>
</g>
<!-- Node22&#45;&gt;Node9 -->
<g id="edge36" class="edge">
<title>Node22&#45;&gt;Node9</title>
<path fill="none" stroke="midnightblue" d="M551.56,-206.98C563.36,-205.01 575.87,-202.93 587.5,-201 681.4,-185.4 791.58,-167.18 850.41,-157.45"/>
<polygon fill="midnightblue" stroke="midnightblue" points="851.15,-160.88 860.44,-155.8 850.01,-153.97 851.15,-160.88"/>
</g>
<!-- Node22&#45;&gt;Node13 -->
<g id="edge35" class="edge">
<title>Node22&#45;&gt;Node13</title>
<path fill="none" stroke="midnightblue" d="M433.72,-207C394.93,-199.93 346.22,-187.29 307.5,-165 278.67,-148.41 253.04,-118.86 238.67,-100.27"/>
<polygon fill="midnightblue" stroke="midnightblue" points="241.35,-98.02 232.55,-92.13 235.76,-102.23 241.35,-98.02"/>
</g>
<!-- Node22&#45;&gt;Node16 -->
<g id="edge37" class="edge">
<title>Node22&#45;&gt;Node16</title>
<path fill="none" stroke="midnightblue" d="M422.15,-207.18C390.48,-200.3 355.57,-187.77 330.5,-165 312.35,-148.51 303.98,-120.62 300.27,-102.13"/>
<polygon fill="midnightblue" stroke="midnightblue" points="303.67,-101.28 298.51,-92.02 296.78,-102.47 303.67,-101.28"/>
</g>
<!-- Node22&#45;&gt;Node17 -->
<g id="edge38" class="edge">
<title>Node22&#45;&gt;Node17</title>
<path fill="none" stroke="midnightblue" d="M502.53,-206.84C507.5,-185.67 520.36,-130.95 527.15,-102.03"/>
<polygon fill="midnightblue" stroke="midnightblue" points="530.62,-102.56 529.5,-92.02 523.81,-100.96 530.62,-102.56"/>
</g>
<!-- Node22&#45;&gt;Node18 -->
<g id="edge39" class="edge">
<title>Node22&#45;&gt;Node18</title>
<path fill="none" stroke="midnightblue" d="M531.17,-206.97C564.49,-197.5 619.18,-181.38 665.5,-165 667.41,-164.33 669.36,-163.61 671.32,-162.87"/>
<polygon fill="midnightblue" stroke="midnightblue" points="673,-165.98 681.06,-159.09 670.47,-159.45 673,-165.98"/>
</g>
<!-- Node22&#45;&gt;Node19 -->
<g id="edge40" class="edge">
<title>Node22&#45;&gt;Node19</title>
<path fill="none" stroke="midnightblue" d="M516.97,-206.87C537.9,-195.89 574.28,-176.82 598.86,-163.94"/>
<polygon fill="midnightblue" stroke="midnightblue" points="600.73,-166.91 607.97,-159.17 597.48,-160.71 600.73,-166.91"/>
</g>
<!-- Node22&#45;&gt;Node20 -->
<g id="edge41" class="edge">
<title>Node22&#45;&gt;Node20</title>
<path fill="none" stroke="midnightblue" d="M489.44,-206.73C477.93,-197.61 459.5,-183 444.31,-170.96"/>
<polygon fill="midnightblue" stroke="midnightblue" points="446.28,-168.06 436.27,-164.59 441.94,-173.54 446.28,-168.06"/>
</g>
<!-- Node24 -->
<g id="node24" class="node">
<title>Node24</title>
<g id="a_node24"><a xlink:href="ArenaBlockBase_8hpp.html" target="_top" xlink:title=" ">
<polygon fill="none" stroke="black" points="170,-268.5 170,-298.5 301,-298.5 301,-268.5 170,-268.5"/>
<text text-anchor="start" x="178" y="-286.5" font-family="Helvetica,sans-Serif" font-size="10.00">xalanc/PlatformSupport</text>
<text text-anchor="middle" x="235.5" y="-275.5" font-family="Helvetica,sans-Serif" font-size="10.00">/ArenaBlockBase.hpp</text>
</a>
</g>
</g>
<!-- Node23&#45;&gt;Node24 -->
<g id="edge44" class="edge">
<title>Node23&#45;&gt;Node24</title>
<path fill="none" stroke="midnightblue" d="M290.87,-340.73C282.14,-331.86 268.3,-317.81 256.64,-305.97"/>
<polygon fill="midnightblue" stroke="midnightblue" points="258.88,-303.26 249.37,-298.59 253.89,-308.17 258.88,-303.26"/>
</g>
<!-- Node24&#45;&gt;Node11 -->
<g id="edge46" class="edge">
<title>Node24&#45;&gt;Node11</title>
<path fill="none" stroke="midnightblue" d="M248.74,-268.4C258.34,-258.16 271.35,-244.3 281.37,-233.62"/>
<polygon fill="midnightblue" stroke="midnightblue" points="284.05,-235.88 288.34,-226.19 278.95,-231.09 284.05,-235.88"/>
</g>
<!-- Node24&#45;&gt;Node16 -->
<g id="edge45" class="edge">
<title>Node24&#45;&gt;Node16</title>
<path fill="none" stroke="midnightblue" d="M233.47,-268.41C231.57,-251.96 229.79,-224.07 235.5,-201 245.11,-162.21 270.11,-122.11 285.26,-100.24"/>
<polygon fill="midnightblue" stroke="midnightblue" points="288.15,-102.22 291.09,-92.03 282.44,-98.16 288.15,-102.22"/>
</g>
<!-- Node24&#45;&gt;Node20 -->
<g id="edge47" class="edge">
<title>Node24&#45;&gt;Node20</title>
<path fill="none" stroke="midnightblue" d="M234.79,-268.46C234.68,-250.49 237.26,-219.49 254.5,-201 274.04,-180.04 302.05,-167.71 329.41,-160.47"/>
<polygon fill="midnightblue" stroke="midnightblue" points="330.55,-163.79 339.44,-158.03 328.9,-156.99 330.55,-163.79"/>
</g>
<!-- Node25 -->
<g id="node25" class="node">
<title>Node25</title>
<g id="a_node25"><a xlink:href="XalanAllocator_8hpp.html" target="_top" xlink:title=" ">
<polygon fill="none" stroke="black" points="0,-134.5 0,-164.5 131,-164.5 131,-134.5 0,-134.5"/>
<text text-anchor="start" x="8" y="-152.5" font-family="Helvetica,sans-Serif" font-size="10.00">xalanc/PlatformSupport</text>
<text text-anchor="middle" x="65.5" y="-141.5" font-family="Helvetica,sans-Serif" font-size="10.00">/XalanAllocator.hpp</text>
</a>
</g>
</g>
<!-- Node24&#45;&gt;Node25 -->
<g id="edge48" class="edge">
<title>Node24&#45;&gt;Node25</title>
<path fill="none" stroke="midnightblue" d="M217.31,-268.37C187.14,-244.95 126.66,-197.99 91.83,-170.94"/>
<polygon fill="midnightblue" stroke="midnightblue" points="93.61,-167.89 83.56,-164.52 89.31,-173.42 93.61,-167.89"/>
</g>
<!-- Node25&#45;&gt;Node13 -->
<g id="edge49" class="edge">
<title>Node25&#45;&gt;Node13</title>
<path fill="none" stroke="midnightblue" d="M100.43,-134.4C128.93,-122.89 168.79,-106.8 196.02,-95.81"/>
<polygon fill="midnightblue" stroke="midnightblue" points="197.47,-99 205.43,-92.01 194.85,-92.51 197.47,-99"/>
</g>
<!-- Node26&#45;&gt;Node2 -->
<g id="edge51" class="edge">
<title>Node26&#45;&gt;Node2</title>
<path fill="none" stroke="midnightblue" d="M1708.48,-402.35C1758.52,-386.5 1827.96,-355.3 1858.5,-299 1865.07,-286.89 1865.83,-279.66 1858.5,-268 1849.5,-253.68 1835.17,-243.32 1819.95,-235.87"/>
<polygon fill="midnightblue" stroke="midnightblue" points="1820.96,-232.49 1810.41,-231.6 1818.1,-238.88 1820.96,-232.49"/>
</g>
<!-- Node27 -->
<g id="node27" class="node">
<title>Node27</title>
<g id="a_node27"><a xlink:title=" ">
<polygon fill="none" stroke="#bfbfbf" points="1577,-341 1577,-360 1726,-360 1726,-341 1577,-341"/>
<text text-anchor="middle" x="1651.5" y="-348" font-family="Helvetica,sans-Serif" font-size="10.00">xercesc/dom/DOM_Attr.hpp</text>
</a>
</g>
</g>
<!-- Node26&#45;&gt;Node27 -->
<g id="edge52" class="edge">
<title>Node26&#45;&gt;Node27</title>
<path fill="none" stroke="midnightblue" d="M1651.5,-402.4C1651.5,-393.06 1651.5,-380.71 1651.5,-370.52"/>
<polygon fill="midnightblue" stroke="midnightblue" points="1655,-370.19 1651.5,-360.19 1648,-370.19 1655,-370.19"/>
</g>
<!-- Node28 -->
<g id="node28" class="node">
<title>Node28</title>
<g id="a_node28"><a xlink:href="XalanAttr_8hpp.html" target="_top" xlink:title=" ">
<polygon fill="none" stroke="black" points="1054,-341 1054,-360 1227,-360 1227,-341 1054,-341"/>
<text text-anchor="middle" x="1140.5" y="-348" font-family="Helvetica,sans-Serif" font-size="10.00">xalanc/XalanDOM/XalanAttr.hpp</text>
</a>
</g>
</g>
<!-- Node26&#45;&gt;Node28 -->
<g id="edge53" class="edge">
<title>Node26&#45;&gt;Node28</title>
<path fill="none" stroke="midnightblue" d="M1560.44,-404.92C1462.81,-392.5 1309.49,-373 1217.61,-361.31"/>
<polygon fill="midnightblue" stroke="midnightblue" points="1217.9,-357.82 1207.54,-360.03 1217.02,-364.76 1217.9,-357.82"/>
</g>
<!-- Node31 -->
<g id="node31" class="node">
<title>Node31</title>
<g id="a_node31"><a xlink:href="XercesBridgeTypes_8hpp.html" target="_top" xlink:title=" ">
<polygon fill="none" stroke="black" points="1657.5,-268.5 1657.5,-298.5 1849.5,-298.5 1849.5,-268.5 1657.5,-268.5"/>
<text text-anchor="start" x="1665.5" y="-286.5" font-family="Helvetica,sans-Serif" font-size="10.00">xalanc/XercesParserLiaison</text>
<text text-anchor="middle" x="1753.5" y="-275.5" font-family="Helvetica,sans-Serif" font-size="10.00">/Deprecated/XercesBridgeTypes.hpp</text>
</a>
</g>
</g>
<!-- Node26&#45;&gt;Node31 -->
<g id="edge58" class="edge">
<title>Node26&#45;&gt;Node31</title>
<path fill="none" stroke="midnightblue" d="M1688.62,-402.3C1705.33,-394.1 1723.88,-382.16 1735.5,-366 1747.44,-349.4 1751.68,-326.34 1753.09,-308.99"/>
<polygon fill="midnightblue" stroke="midnightblue" points="1756.61,-308.71 1753.66,-298.53 1749.62,-308.33 1756.61,-308.71"/>
</g>
<!-- Node32 -->
<g id="node32" class="node">
<title>Node32</title>
<g id="a_node32"><a xlink:href="XercesNodeListBridge_8hpp.html" target="_top" xlink:title=" ">
<polygon fill="none" stroke="black" points="1352,-335.5 1352,-365.5 1559,-365.5 1559,-335.5 1352,-335.5"/>
<text text-anchor="start" x="1360" y="-353.5" font-family="Helvetica,sans-Serif" font-size="10.00">xalanc/XercesParserLiaison</text>
<text text-anchor="middle" x="1455.5" y="-342.5" font-family="Helvetica,sans-Serif" font-size="10.00">/Deprecated/XercesNodeListBridge.hpp</text>
</a>
</g>
</g>
<!-- Node26&#45;&gt;Node32 -->
<g id="edge60" class="edge">
<title>Node26&#45;&gt;Node32</title>
<path fill="none" stroke="midnightblue" d="M1608.97,-402.4C1579.18,-392.52 1539.18,-379.25 1507.49,-368.74"/>
<polygon fill="midnightblue" stroke="midnightblue" points="1508.54,-365.4 1497.95,-365.58 1506.34,-372.05 1508.54,-365.4"/>
</g>
<!-- Node29 -->
<g id="node29" class="node">
<title>Node29</title>
<g id="a_node29"><a xlink:href="XalanDOMDefinitions_8hpp.html" target="_top" xlink:title=" ">
<polygon fill="none" stroke="black" points="1037.5,-207 1037.5,-226 1269.5,-226 1269.5,-207 1037.5,-207"/>
<text text-anchor="middle" x="1153.5" y="-214" font-family="Helvetica,sans-Serif" font-size="10.00">xalanc/XalanDOM/XalanDOMDefinitions.hpp</text>
</a>
</g>
</g>
<!-- Node28&#45;&gt;Node29 -->
<g id="edge54" class="edge">
<title>Node28&#45;&gt;Node29</title>
<path fill="none" stroke="midnightblue" d="M1102.82,-340.99C1080.52,-333.8 1054.06,-321.03 1040.5,-299 1033.28,-287.27 1033,-279.56 1040.5,-268 1053.12,-248.53 1075.2,-236.51 1096.5,-229.1"/>
<polygon fill="midnightblue" stroke="midnightblue" points="1097.74,-232.38 1106.2,-226.02 1095.61,-225.71 1097.74,-232.38"/>
</g>
<!-- Node30 -->
<g id="node30" class="node">
<title>Node30</title>
<g id="a_node30"><a xlink:href="XalanNode_8hpp.html" target="_top" xlink:title=" ">
<polygon fill="none" stroke="black" points="1050,-274 1050,-293 1231,-293 1231,-274 1050,-274"/>
<text text-anchor="middle" x="1140.5" y="-281" font-family="Helvetica,sans-Serif" font-size="10.00">xalanc/XalanDOM/XalanNode.hpp</text>
</a>
</g>
</g>
<!-- Node28&#45;&gt;Node30 -->
<g id="edge56" class="edge">
<title>Node28&#45;&gt;Node30</title>
<path fill="none" stroke="midnightblue" d="M1140.5,-340.73C1140.5,-331.18 1140.5,-315.62 1140.5,-303.28"/>
<polygon fill="midnightblue" stroke="midnightblue" points="1144,-303.13 1140.5,-293.13 1137,-303.13 1144,-303.13"/>
</g>
<!-- Node29&#45;&gt;Node3 -->
<g id="edge55" class="edge">
<title>Node29&#45;&gt;Node3</title>
<path fill="none" stroke="midnightblue" d="M1140.31,-206.84C1106.37,-184.55 1015.76,-125.04 974.05,-97.65"/>
<polygon fill="midnightblue" stroke="midnightblue" points="975.76,-94.58 965.48,-92.02 971.91,-100.44 975.76,-94.58"/>
</g>
<!-- Node30&#45;&gt;Node29 -->
<g id="edge57" class="edge">
<title>Node30&#45;&gt;Node29</title>
<path fill="none" stroke="midnightblue" d="M1142.25,-273.73C1144.16,-264.18 1147.28,-248.62 1149.74,-236.28"/>
<polygon fill="midnightblue" stroke="midnightblue" points="1153.25,-236.62 1151.77,-226.13 1146.38,-235.25 1153.25,-236.62"/>
</g>
<!-- Node31&#45;&gt;Node2 -->
<g id="edge59" class="edge">
<title>Node31&#45;&gt;Node2</title>
<path fill="none" stroke="midnightblue" d="M1753.5,-268.4C1753.5,-260.64 1753.5,-250.81 1753.5,-241.86"/>
<polygon fill="midnightblue" stroke="midnightblue" points="1757,-241.58 1753.5,-231.58 1750,-241.58 1757,-241.58"/>
</g>
<!-- Node32&#45;&gt;Node2 -->
<g id="edge61" class="edge">
<title>Node32&#45;&gt;Node2</title>
<path fill="none" stroke="midnightblue" d="M1450.73,-335.22C1445.73,-317.29 1440.59,-286.61 1456.5,-268 1481.1,-239.23 1572.83,-226.85 1647.92,-221.52"/>
<polygon fill="midnightblue" stroke="midnightblue" points="1648.18,-225.01 1657.93,-220.84 1647.71,-218.03 1648.18,-225.01"/>
</g>
<!-- Node32&#45;&gt;Node31 -->
<g id="edge65" class="edge">
<title>Node32&#45;&gt;Node31</title>
<path fill="none" stroke="midnightblue" d="M1519.79,-335.48C1566.62,-325.26 1630.15,-311.41 1679.15,-300.72"/>
<polygon fill="midnightblue" stroke="midnightblue" points="1680.04,-304.11 1689.06,-298.55 1678.55,-297.27 1680.04,-304.11"/>
</g>
<!-- Node33 -->
<g id="node33" class="node">
<title>Node33</title>
<g id="a_node33"><a xlink:title=" ">
<polygon fill="none" stroke="#bfbfbf" points="1465.5,-274 1465.5,-293 1639.5,-293 1639.5,-274 1465.5,-274"/>
<text text-anchor="middle" x="1552.5" y="-281" font-family="Helvetica,sans-Serif" font-size="10.00">xercesc/dom/DOM_NodeList.hpp</text>
</a>
</g>
</g>
<!-- Node32&#45;&gt;Node33 -->
<g id="edge62" class="edge">
<title>Node32&#45;&gt;Node33</title>
<path fill="none" stroke="midnightblue" d="M1476.55,-335.4C1492.81,-324.5 1515.22,-309.48 1531.48,-298.58"/>
<polygon fill="midnightblue" stroke="midnightblue" points="1533.45,-301.48 1539.8,-293.01 1529.55,-295.67 1533.45,-301.48"/>
</g>
<!-- Node34 -->
<g id="node34" class="node">
<title>Node34</title>
<g id="a_node34"><a xlink:href="XalanNodeList_8hpp.html" target="_top" xlink:title=" ">
<polygon fill="none" stroke="black" points="1249.5,-268.5 1249.5,-298.5 1409.5,-298.5 1409.5,-268.5 1249.5,-268.5"/>
<text text-anchor="start" x="1257.5" y="-286.5" font-family="Helvetica,sans-Serif" font-size="10.00">xalanc/XalanDOM/XalanNode</text>
<text text-anchor="middle" x="1329.5" y="-275.5" font-family="Helvetica,sans-Serif" font-size="10.00">List.hpp</text>
</a>
</g>
</g>
<!-- Node32&#45;&gt;Node34 -->
<g id="edge63" class="edge">
<title>Node32&#45;&gt;Node34</title>
<path fill="none" stroke="midnightblue" d="M1428.16,-335.4C1409.91,-325.98 1385.72,-313.5 1365.86,-303.26"/>
<polygon fill="midnightblue" stroke="midnightblue" points="1367.28,-300.05 1356.79,-298.58 1364.07,-306.27 1367.28,-300.05"/>
</g>
<!-- Node34&#45;&gt;Node29 -->
<g id="edge64" class="edge">
<title>Node34&#45;&gt;Node29</title>
<path fill="none" stroke="midnightblue" d="M1291.31,-268.4C1259.88,-256.79 1215.82,-240.51 1186.04,-229.52"/>
<polygon fill="midnightblue" stroke="midnightblue" points="1187.13,-226.19 1176.53,-226.01 1184.7,-232.75 1187.13,-226.19"/>
</g>
</g>
</svg>
