<?xml version="1.0" encoding="UTF-8" standalone="no"?>
<!DOCTYPE svg PUBLIC "-//W3C//DTD SVG 1.1//EN"
 "http://www.w3.org/Graphics/SVG/1.1/DTD/svg11.dtd">
<!-- Generated by graphviz version 2.43.0 (0)
 -->
<!-- Title: xalanc/XercesParserLiaison/Deprecated/XercesAttrBridge.hpp Pages: 1 -->
<svg width="861pt" height="363pt"
 viewBox="0.00 0.00 861.07 363.00" xmlns="http://www.w3.org/2000/svg" xmlns:xlink="http://www.w3.org/1999/xlink">
<g id="graph0" class="graph" transform="scale(1 1) rotate(0) translate(4 359)">
<title>xalanc/XercesParserLiaison/Deprecated/XercesAttrBridge.hpp</title>
<!-- Node1 -->
<g id="node1" class="node">
<title>Node1</title>
<g id="a_node1"><a xlink:title=" ">
<polygon fill="#bfbfbf" stroke="black" points="227.57,-324.5 227.57,-354.5 409.57,-354.5 409.57,-324.5 227.57,-324.5"/>
<text text-anchor="start" x="235.57" y="-342.5" font-family="Helvetica,sans-Serif" font-size="10.00">xalanc/XercesParserLiaison</text>
<text text-anchor="middle" x="318.57" y="-331.5" font-family="Helvetica,sans-Serif" font-size="10.00">/Deprecated/XercesAttrBridge.hpp</text>
</a>
</g>
</g>
<!-- Node2 -->
<g id="node2" class="node">
<title>Node2</title>
<g id="a_node2"><a xlink:href="XercesParserLiaisonDefinitions_8hpp.html" target="_top" xlink:title=" ">
<polygon fill="none" stroke="black" points="78.07,-123.5 78.07,-153.5 269.07,-153.5 269.07,-123.5 78.07,-123.5"/>
<text text-anchor="start" x="86.07" y="-141.5" font-family="Helvetica,sans-Serif" font-size="10.00">xalanc/XercesParserLiaison</text>
<text text-anchor="middle" x="173.57" y="-130.5" font-family="Helvetica,sans-Serif" font-size="10.00">/XercesParserLiaisonDefinitions.hpp</text>
</a>
</g>
</g>
<!-- Node1&#45;&gt;Node2 -->
<g id="edge1" class="edge">
<title>Node1&#45;&gt;Node2</title>
<path fill="none" stroke="midnightblue" d="M227.24,-332.15C153.43,-321.57 54.25,-293.73 6.57,-221 -15.27,-187.69 22.81,-167.55 68.08,-155.63"/>
<polygon fill="midnightblue" stroke="midnightblue" points="68.97,-159.01 77.83,-153.21 67.28,-152.22 68.97,-159.01"/>
</g>
<!-- Node8 -->
<g id="node8" class="node">
<title>Node8</title>
<g id="a_node8"><a xlink:title=" ">
<polygon fill="none" stroke="#bfbfbf" points="702.07,-263 702.07,-282 851.07,-282 851.07,-263 702.07,-263"/>
<text text-anchor="middle" x="776.57" y="-270" font-family="Helvetica,sans-Serif" font-size="10.00">xercesc/dom/DOM_Attr.hpp</text>
</a>
</g>
</g>
<!-- Node1&#45;&gt;Node8 -->
<g id="edge7" class="edge">
<title>Node1&#45;&gt;Node8</title>
<path fill="none" stroke="midnightblue" d="M409.65,-327.25C485.67,-317.61 596.84,-302.96 693.57,-288 701.99,-286.7 710.87,-285.24 719.57,-283.76"/>
<polygon fill="midnightblue" stroke="midnightblue" points="720.39,-287.17 729.66,-282.03 719.21,-280.27 720.39,-287.17"/>
</g>
<!-- Node9 -->
<g id="node9" class="node">
<title>Node9</title>
<g id="a_node9"><a xlink:href="XalanAttr_8hpp.html" target="_top" xlink:title=" ">
<polygon fill="none" stroke="black" points="511.07,-263 511.07,-282 684.07,-282 684.07,-263 511.07,-263"/>
<text text-anchor="middle" x="597.57" y="-270" font-family="Helvetica,sans-Serif" font-size="10.00">xalanc/XalanDOM/XalanAttr.hpp</text>
</a>
</g>
</g>
<!-- Node1&#45;&gt;Node9 -->
<g id="edge8" class="edge">
<title>Node1&#45;&gt;Node9</title>
<path fill="none" stroke="midnightblue" d="M378.77,-324.48C430.4,-312.45 503.75,-295.36 551,-284.35"/>
<polygon fill="midnightblue" stroke="midnightblue" points="552.02,-287.71 560.96,-282.03 550.43,-280.89 552.02,-287.71"/>
</g>
<!-- Node12 -->
<g id="node12" class="node">
<title>Node12</title>
<g id="a_node12"><a xlink:href="XercesBridgeTypes_8hpp.html" target="_top" xlink:title=" ">
<polygon fill="none" stroke="black" points="15.57,-190.5 15.57,-220.5 207.57,-220.5 207.57,-190.5 15.57,-190.5"/>
<text text-anchor="start" x="23.57" y="-208.5" font-family="Helvetica,sans-Serif" font-size="10.00">xalanc/XercesParserLiaison</text>
<text text-anchor="middle" x="111.57" y="-197.5" font-family="Helvetica,sans-Serif" font-size="10.00">/Deprecated/XercesBridgeTypes.hpp</text>
</a>
</g>
</g>
<!-- Node1&#45;&gt;Node12 -->
<g id="edge13" class="edge">
<title>Node1&#45;&gt;Node12</title>
<path fill="none" stroke="midnightblue" d="M280.37,-324.45C258.05,-315.47 229.79,-302.76 206.57,-288 178.97,-270.45 150.99,-245.37 132.61,-227.68"/>
<polygon fill="midnightblue" stroke="midnightblue" points="134.96,-225.07 125.36,-220.59 130.07,-230.08 134.96,-225.07"/>
</g>
<!-- Node13 -->
<g id="node13" class="node">
<title>Node13</title>
<g id="a_node13"><a xlink:href="XercesNodeListBridge_8hpp.html" target="_top" xlink:title=" ">
<polygon fill="none" stroke="black" points="215.07,-257.5 215.07,-287.5 422.07,-287.5 422.07,-257.5 215.07,-257.5"/>
<text text-anchor="start" x="223.07" y="-275.5" font-family="Helvetica,sans-Serif" font-size="10.00">xalanc/XercesParserLiaison</text>
<text text-anchor="middle" x="318.57" y="-264.5" font-family="Helvetica,sans-Serif" font-size="10.00">/Deprecated/XercesNodeListBridge.hpp</text>
</a>
</g>
</g>
<!-- Node1&#45;&gt;Node13 -->
<g id="edge15" class="edge">
<title>Node1&#45;&gt;Node13</title>
<path fill="none" stroke="midnightblue" d="M318.57,-324.4C318.57,-316.64 318.57,-306.81 318.57,-297.86"/>
<polygon fill="midnightblue" stroke="midnightblue" points="322.07,-297.58 318.57,-287.58 315.07,-297.58 322.07,-297.58"/>
</g>
<!-- Node3 -->
<g id="node3" class="node">
<title>Node3</title>
<g id="a_node3"><a xlink:href="PlatformDefinitions_8hpp.html" target="_top" xlink:title=" ">
<polygon fill="none" stroke="black" points="283.57,-67.5 283.57,-86.5 489.57,-86.5 489.57,-67.5 283.57,-67.5"/>
<text text-anchor="middle" x="386.57" y="-74.5" font-family="Helvetica,sans-Serif" font-size="10.00">xalanc/Include/PlatformDefinitions.hpp</text>
</a>
</g>
</g>
<!-- Node2&#45;&gt;Node3 -->
<g id="edge2" class="edge">
<title>Node2&#45;&gt;Node3</title>
<path fill="none" stroke="midnightblue" d="M223.78,-123.47C261.17,-113.03 311.55,-98.96 346.31,-89.25"/>
<polygon fill="midnightblue" stroke="midnightblue" points="347.43,-92.57 356.12,-86.51 345.55,-85.83 347.43,-92.57"/>
</g>
<!-- Node7 -->
<g id="node7" class="node">
<title>Node7</title>
<g id="a_node7"><a xlink:title=" ">
<polygon fill="none" stroke="#bfbfbf" points="97.57,-67.5 97.57,-86.5 249.57,-86.5 249.57,-67.5 97.57,-67.5"/>
<text text-anchor="middle" x="173.57" y="-74.5" font-family="Helvetica,sans-Serif" font-size="10.00">xercesc/util/XercesDefs.hpp</text>
</a>
</g>
</g>
<!-- Node2&#45;&gt;Node7 -->
<g id="edge6" class="edge">
<title>Node2&#45;&gt;Node7</title>
<path fill="none" stroke="midnightblue" d="M173.57,-123.4C173.57,-115.47 173.57,-105.46 173.57,-96.86"/>
<polygon fill="midnightblue" stroke="midnightblue" points="177.07,-96.66 173.57,-86.66 170.07,-96.66 177.07,-96.66"/>
</g>
<!-- Node4 -->
<g id="node4" class="node">
<title>Node4</title>
<g id="a_node4"><a xlink:title=" ">
<polygon fill="none" stroke="#bfbfbf" points="165.57,-0.5 165.57,-30.5 285.57,-30.5 285.57,-0.5 165.57,-0.5"/>
<text text-anchor="start" x="173.57" y="-18.5" font-family="Helvetica,sans-Serif" font-size="10.00">xercesc/util/Xerces</text>
<text text-anchor="middle" x="225.57" y="-7.5" font-family="Helvetica,sans-Serif" font-size="10.00">_autoconf_config.hpp</text>
</a>
</g>
</g>
<!-- Node3&#45;&gt;Node4 -->
<g id="edge3" class="edge">
<title>Node3&#45;&gt;Node4</title>
<path fill="none" stroke="midnightblue" d="M363.5,-67.48C339.97,-58.78 302.76,-45.03 272.92,-34"/>
<polygon fill="midnightblue" stroke="midnightblue" points="274.11,-30.71 263.52,-30.52 271.68,-37.27 274.11,-30.71"/>
</g>
<!-- Node5 -->
<g id="node5" class="node">
<title>Node5</title>
<g id="a_node5"><a xlink:title=" ">
<polygon fill="none" stroke="#bfbfbf" points="304.07,-6 304.07,-25 469.07,-25 469.07,-6 304.07,-6"/>
<text text-anchor="middle" x="386.57" y="-13" font-family="Helvetica,sans-Serif" font-size="10.00">xercesc/util/XercesVersion.hpp</text>
</a>
</g>
</g>
<!-- Node3&#45;&gt;Node5 -->
<g id="edge4" class="edge">
<title>Node3&#45;&gt;Node5</title>
<path fill="none" stroke="midnightblue" d="M386.57,-67.48C386.57,-59.08 386.57,-45.98 386.57,-35.16"/>
<polygon fill="midnightblue" stroke="midnightblue" points="390.07,-35.01 386.57,-25.01 383.07,-35.01 390.07,-35.01"/>
</g>
<!-- Node6 -->
<g id="node6" class="node">
<title>Node6</title>
<g id="a_node6"><a xlink:href="XalanVersion_8hpp.html" target="_top" xlink:title=" ">
<polygon fill="none" stroke="black" points="487.07,-6 487.07,-25 662.07,-25 662.07,-6 487.07,-6"/>
<text text-anchor="middle" x="574.57" y="-13" font-family="Helvetica,sans-Serif" font-size="10.00">xalanc/Include/XalanVersion.hpp</text>
</a>
</g>
</g>
<!-- Node3&#45;&gt;Node6 -->
<g id="edge5" class="edge">
<title>Node3&#45;&gt;Node6</title>
<path fill="none" stroke="midnightblue" d="M413.51,-67.48C446.17,-57.14 501.39,-39.66 537.91,-28.1"/>
<polygon fill="midnightblue" stroke="midnightblue" points="539.21,-31.36 547.69,-25.01 537.1,-24.69 539.21,-31.36"/>
</g>
<!-- Node10 -->
<g id="node10" class="node">
<title>Node10</title>
<g id="a_node10"><a xlink:href="XalanDOMDefinitions_8hpp.html" target="_top" xlink:title=" ">
<polygon fill="none" stroke="black" points="288.57,-129 288.57,-148 520.57,-148 520.57,-129 288.57,-129"/>
<text text-anchor="middle" x="404.57" y="-136" font-family="Helvetica,sans-Serif" font-size="10.00">xalanc/XalanDOM/XalanDOMDefinitions.hpp</text>
</a>
</g>
</g>
<!-- Node9&#45;&gt;Node10 -->
<g id="edge9" class="edge">
<title>Node9&#45;&gt;Node10</title>
<path fill="none" stroke="midnightblue" d="M605.13,-262.96C618.3,-247.04 642.4,-212.39 624.57,-190 608.54,-169.88 551.09,-157.11 498.92,-149.45"/>
<polygon fill="midnightblue" stroke="midnightblue" points="499.31,-145.97 488.91,-148.03 498.32,-152.9 499.31,-145.97"/>
</g>
<!-- Node11 -->
<g id="node11" class="node">
<title>Node11</title>
<g id="a_node11"><a xlink:href="XalanNode_8hpp.html" target="_top" xlink:title=" ">
<polygon fill="none" stroke="black" points="672.07,-196 672.07,-215 853.07,-215 853.07,-196 672.07,-196"/>
<text text-anchor="middle" x="762.57" y="-203" font-family="Helvetica,sans-Serif" font-size="10.00">xalanc/XalanDOM/XalanNode.hpp</text>
</a>
</g>
</g>
<!-- Node9&#45;&gt;Node11 -->
<g id="edge11" class="edge">
<title>Node9&#45;&gt;Node11</title>
<path fill="none" stroke="midnightblue" d="M619.48,-262.87C648.16,-251.57 698.61,-231.7 731.3,-218.82"/>
<polygon fill="midnightblue" stroke="midnightblue" points="732.81,-221.99 740.83,-215.06 730.25,-215.47 732.81,-221.99"/>
</g>
<!-- Node10&#45;&gt;Node3 -->
<g id="edge10" class="edge">
<title>Node10&#45;&gt;Node3</title>
<path fill="none" stroke="midnightblue" d="M401.99,-128.98C399.43,-120.49 395.41,-107.2 392.11,-96.32"/>
<polygon fill="midnightblue" stroke="midnightblue" points="395.39,-95.07 389.15,-86.51 388.69,-97.09 395.39,-95.07"/>
</g>
<!-- Node11&#45;&gt;Node10 -->
<g id="edge12" class="edge">
<title>Node11&#45;&gt;Node10</title>
<path fill="none" stroke="midnightblue" d="M715.4,-195.94C649.98,-184.06 531.84,-162.61 461.57,-149.85"/>
<polygon fill="midnightblue" stroke="midnightblue" points="462.03,-146.37 451.56,-148.03 460.77,-153.26 462.03,-146.37"/>
</g>
<!-- Node12&#45;&gt;Node2 -->
<g id="edge14" class="edge">
<title>Node12&#45;&gt;Node2</title>
<path fill="none" stroke="midnightblue" d="M125.02,-190.4C133.23,-181.79 143.88,-170.63 153.12,-160.94"/>
<polygon fill="midnightblue" stroke="midnightblue" points="155.77,-163.23 160.14,-153.58 150.71,-158.4 155.77,-163.23"/>
</g>
<!-- Node13&#45;&gt;Node2 -->
<g id="edge16" class="edge">
<title>Node13&#45;&gt;Node2</title>
<path fill="none" stroke="midnightblue" d="M299.6,-257.49C286.61,-247.66 269.15,-234 254.57,-221 232.95,-201.72 209.79,-178.08 193.8,-161.24"/>
<polygon fill="midnightblue" stroke="midnightblue" points="195.97,-158.44 186.56,-153.57 190.87,-163.24 195.97,-158.44"/>
</g>
<!-- Node13&#45;&gt;Node12 -->
<g id="edge20" class="edge">
<title>Node13&#45;&gt;Node12</title>
<path fill="none" stroke="midnightblue" d="M273.91,-257.48C242.32,-247.56 199.79,-234.2 166.18,-223.65"/>
<polygon fill="midnightblue" stroke="midnightblue" points="167.1,-220.27 156.51,-220.61 165,-226.95 167.1,-220.27"/>
</g>
<!-- Node14 -->
<g id="node14" class="node">
<title>Node14</title>
<g id="a_node14"><a xlink:title=" ">
<polygon fill="none" stroke="#bfbfbf" points="441.57,-196 441.57,-215 615.57,-215 615.57,-196 441.57,-196"/>
<text text-anchor="middle" x="528.57" y="-203" font-family="Helvetica,sans-Serif" font-size="10.00">xercesc/dom/DOM_NodeList.hpp</text>
</a>
</g>
</g>
<!-- Node13&#45;&gt;Node14 -->
<g id="edge17" class="edge">
<title>Node13&#45;&gt;Node14</title>
<path fill="none" stroke="midnightblue" d="M363.88,-257.48C401.85,-245.72 455.42,-229.14 491.03,-218.12"/>
<polygon fill="midnightblue" stroke="midnightblue" points="492.5,-221.33 501.02,-215.03 490.43,-214.64 492.5,-221.33"/>
</g>
<!-- Node15 -->
<g id="node15" class="node">
<title>Node15</title>
<g id="a_node15"><a xlink:href="XalanNodeList_8hpp.html" target="_top" xlink:title=" ">
<polygon fill="none" stroke="black" points="263.57,-190.5 263.57,-220.5 423.57,-220.5 423.57,-190.5 263.57,-190.5"/>
<text text-anchor="start" x="271.57" y="-208.5" font-family="Helvetica,sans-Serif" font-size="10.00">xalanc/XalanDOM/XalanNode</text>
<text text-anchor="middle" x="343.57" y="-197.5" font-family="Helvetica,sans-Serif" font-size="10.00">List.hpp</text>
</a>
</g>
</g>
<!-- Node13&#45;&gt;Node15 -->
<g id="edge18" class="edge">
<title>Node13&#45;&gt;Node15</title>
<path fill="none" stroke="midnightblue" d="M324,-257.4C327.07,-249.39 331.01,-239.16 334.54,-229.98"/>
<polygon fill="midnightblue" stroke="midnightblue" points="337.83,-231.17 338.16,-220.58 331.3,-228.65 337.83,-231.17"/>
</g>
<!-- Node15&#45;&gt;Node10 -->
<g id="edge19" class="edge">
<title>Node15&#45;&gt;Node10</title>
<path fill="none" stroke="midnightblue" d="M356.81,-190.4C366.41,-180.16 379.42,-166.3 389.44,-155.62"/>
<polygon fill="midnightblue" stroke="midnightblue" points="392.12,-157.88 396.41,-148.19 387.02,-153.09 392.12,-157.88"/>
</g>
</g>
</svg>
