<?xml version="1.0" encoding="UTF-8" standalone="no"?>
<!DOCTYPE svg PUBLIC "-//W3C//DTD SVG 1.1//EN"
 "http://www.w3.org/Graphics/SVG/1.1/DTD/svg11.dtd">
<!-- Generated by graphviz version 2.38.0 (20140413.2041)
 -->
<!-- Title: xalanc/XercesParserLiaison/Deprecated/XercesDOM_NodeHack.hpp Pages: 1 -->
<svg width="854pt" height="296pt"
 viewBox="0.00 0.00 853.76 296.00" xmlns="http://www.w3.org/2000/svg" xmlns:xlink="http://www.w3.org/1999/xlink">
<g id="graph0" class="graph" transform="scale(1 1) rotate(0) translate(4 292)">
<title>xalanc/XercesParserLiaison/Deprecated/XercesDOM_NodeHack.hpp</title>
<!-- Node1 -->
<g id="node1" class="node"><title>Node1</title>
<g id="a_node1"><a xlink:title=" ">
<polygon fill="#bfbfbf" stroke="black" points="235.261,-257.5 235.261,-287.5 428.261,-287.5 428.261,-257.5 235.261,-257.5"/>
<text text-anchor="start" x="243.261" y="-275.5" font-family="Helvetica,sans-Serif" font-size="10.00">xalanc/XercesParserLiaison</text>
<text text-anchor="middle" x="331.761" y="-264.5" font-family="Helvetica,sans-Serif" font-size="10.00">/Deprecated/XercesDOM_NodeHack.hpp</text>
</a>
</g>
</g>
<!-- Node2 -->
<g id="node2" class="node"><title>Node2</title>
<g id="a_node2"><a xlink:href="XercesParserLiaisonDefinitions_8hpp.html" target="_top" xlink:title=" ">
<polygon fill="none" stroke="black" points="286.761,-123.5 286.761,-153.5 458.761,-153.5 458.761,-123.5 286.761,-123.5"/>
<text text-anchor="start" x="294.761" y="-141.5" font-family="Helvetica,sans-Serif" font-size="10.00">xalanc/XercesParserLiaison</text>
<text text-anchor="middle" x="372.761" y="-130.5" font-family="Helvetica,sans-Serif" font-size="10.00">/XercesParserLiaisonDefinitions.hpp</text>
</a>
</g>
</g>
<!-- Node1&#45;&gt;Node2 -->
<g id="edge1" class="edge"><title>Node1&#45;&gt;Node2</title>
<path fill="none" stroke="midnightblue" d="M234.995,-269.887C150.083,-266.178 35.7363,-254.825 6.76132,-221 -2.20196,-210.536 -2.29078,-200.387 6.76132,-190 41.104,-150.593 180.066,-140.894 276.516,-139.049"/>
<polygon fill="midnightblue" stroke="midnightblue" points="276.649,-142.547 286.59,-138.881 276.533,-135.548 276.649,-142.547"/>
</g>
<!-- Node8 -->
<g id="node8" class="node"><title>Node8</title>
<g id="a_node8"><a xlink:title=" ">
<polygon fill="none" stroke="#bfbfbf" points="16.2613,-196 16.2613,-215 161.261,-215 161.261,-196 16.2613,-196"/>
<text text-anchor="middle" x="88.7613" y="-203" font-family="Helvetica,sans-Serif" font-size="10.00">xercesc/dom/DOM_Node.hpp</text>
</a>
</g>
</g>
<!-- Node1&#45;&gt;Node8 -->
<g id="edge7" class="edge"><title>Node1&#45;&gt;Node8</title>
<path fill="none" stroke="midnightblue" d="M279.333,-257.476C234.736,-245.547 171.546,-228.644 130.361,-217.628"/>
<polygon fill="midnightblue" stroke="midnightblue" points="131.21,-214.232 120.645,-215.029 129.401,-220.994 131.21,-214.232"/>
</g>
<!-- Node9 -->
<g id="node9" class="node"><title>Node9</title>
<g id="a_node9"><a xlink:title=" ">
<polygon fill="none" stroke="#bfbfbf" points="179.761,-196 179.761,-215 317.761,-215 317.761,-196 179.761,-196"/>
<text text-anchor="middle" x="248.761" y="-203" font-family="Helvetica,sans-Serif" font-size="10.00">xercesc/dom/DOM_Attr.hpp</text>
</a>
</g>
</g>
<!-- Node1&#45;&gt;Node9 -->
<g id="edge8" class="edge"><title>Node1&#45;&gt;Node9</title>
<path fill="none" stroke="midnightblue" d="M313.752,-257.396C300.169,-246.759 281.582,-232.203 267.764,-221.381"/>
<polygon fill="midnightblue" stroke="midnightblue" points="269.895,-218.605 259.864,-215.195 265.579,-224.116 269.895,-218.605"/>
</g>
<!-- Node10 -->
<g id="node10" class="node"><title>Node10</title>
<g id="a_node10"><a xlink:title=" ">
<polygon fill="none" stroke="#bfbfbf" points="335.761,-196 335.761,-215 493.761,-215 493.761,-196 335.761,-196"/>
<text text-anchor="middle" x="414.761" y="-203" font-family="Helvetica,sans-Serif" font-size="10.00">xercesc/dom/DOM_Element.hpp</text>
</a>
</g>
</g>
<!-- Node1&#45;&gt;Node10 -->
<g id="edge9" class="edge"><title>Node1&#45;&gt;Node10</title>
<path fill="none" stroke="midnightblue" d="M349.771,-257.396C363.353,-246.759 381.941,-232.203 395.759,-221.381"/>
<polygon fill="midnightblue" stroke="midnightblue" points="397.944,-224.116 403.659,-215.195 393.628,-218.605 397.944,-224.116"/>
</g>
<!-- Node11 -->
<g id="node11" class="node"><title>Node11</title>
<g id="a_node11"><a xlink:title=" ">
<polygon fill="none" stroke="#bfbfbf" points="512.261,-196 512.261,-215 653.261,-215 653.261,-196 512.261,-196"/>
<text text-anchor="middle" x="582.761" y="-203" font-family="Helvetica,sans-Serif" font-size="10.00">xercesc/dom/DOM_Text.hpp</text>
</a>
</g>
</g>
<!-- Node1&#45;&gt;Node11 -->
<g id="edge10" class="edge"><title>Node1&#45;&gt;Node11</title>
<path fill="none" stroke="midnightblue" d="M385.916,-257.476C432.079,-245.521 497.527,-228.573 540.061,-217.558"/>
<polygon fill="midnightblue" stroke="midnightblue" points="541.024,-220.924 549.828,-215.029 539.269,-214.147 541.024,-220.924"/>
</g>
<!-- Node12 -->
<g id="node12" class="node"><title>Node12</title>
<g id="a_node12"><a xlink:href="XercesBridgeTypes_8hpp.html" target="_top" xlink:title=" ">
<polygon fill="none" stroke="black" points="671.761,-190.5 671.761,-220.5 845.761,-220.5 845.761,-190.5 671.761,-190.5"/>
<text text-anchor="start" x="679.761" y="-208.5" font-family="Helvetica,sans-Serif" font-size="10.00">xalanc/XercesParserLiaison</text>
<text text-anchor="middle" x="758.761" y="-197.5" font-family="Helvetica,sans-Serif" font-size="10.00">/Deprecated/XercesBridgeTypes.hpp</text>
</a>
</g>
</g>
<!-- Node1&#45;&gt;Node12 -->
<g id="edge11" class="edge"><title>Node1&#45;&gt;Node12</title>
<path fill="none" stroke="midnightblue" d="M423.888,-257.476C494.018,-246.801 590.31,-232.143 661.642,-221.284"/>
<polygon fill="midnightblue" stroke="midnightblue" points="662.177,-224.743 671.536,-219.778 661.123,-217.823 662.177,-224.743"/>
</g>
<!-- Node3 -->
<g id="node3" class="node"><title>Node3</title>
<g id="a_node3"><a xlink:href="PlatformDefinitions_8hpp.html" target="_top" xlink:title=" ">
<polygon fill="none" stroke="black" points="192.761,-67.5 192.761,-86.5 374.761,-86.5 374.761,-67.5 192.761,-67.5"/>
<text text-anchor="middle" x="283.761" y="-74.5" font-family="Helvetica,sans-Serif" font-size="10.00">xalanc/Include/PlatformDefinitions.hpp</text>
</a>
</g>
</g>
<!-- Node2&#45;&gt;Node3 -->
<g id="edge2" class="edge"><title>Node2&#45;&gt;Node3</title>
<path fill="none" stroke="midnightblue" d="M351.67,-123.399C337.67,-114.04 319.35,-101.792 305.267,-92.3771"/>
<polygon fill="midnightblue" stroke="midnightblue" points="306.97,-89.3059 296.712,-86.6578 303.08,-95.1253 306.97,-89.3059"/>
</g>
<!-- Node7 -->
<g id="node7" class="node"><title>Node7</title>
<g id="a_node7"><a xlink:title=" ">
<polygon fill="none" stroke="#bfbfbf" points="393.261,-67.5 393.261,-86.5 530.261,-86.5 530.261,-67.5 393.261,-67.5"/>
<text text-anchor="middle" x="461.761" y="-74.5" font-family="Helvetica,sans-Serif" font-size="10.00">xercesc/util/XercesDefs.hpp</text>
</a>
</g>
</g>
<!-- Node2&#45;&gt;Node7 -->
<g id="edge6" class="edge"><title>Node2&#45;&gt;Node7</title>
<path fill="none" stroke="midnightblue" d="M393.853,-123.399C407.852,-114.04 426.173,-101.792 440.256,-92.3771"/>
<polygon fill="midnightblue" stroke="midnightblue" points="442.443,-95.1253 448.811,-86.6578 438.552,-89.3059 442.443,-95.1253"/>
</g>
<!-- Node4 -->
<g id="node4" class="node"><title>Node4</title>
<g id="a_node4"><a xlink:title=" ">
<polygon fill="none" stroke="#bfbfbf" points="81.7613,-0.5 81.7613,-30.5 189.761,-30.5 189.761,-0.5 81.7613,-0.5"/>
<text text-anchor="start" x="89.7613" y="-18.5" font-family="Helvetica,sans-Serif" font-size="10.00">xercesc/util/Xerces</text>
<text text-anchor="middle" x="135.761" y="-7.5" font-family="Helvetica,sans-Serif" font-size="10.00">_autoconf_config.hpp</text>
</a>
</g>
</g>
<!-- Node3&#45;&gt;Node4 -->
<g id="edge3" class="edge"><title>Node3&#45;&gt;Node4</title>
<path fill="none" stroke="midnightblue" d="M262.557,-67.4751C241.107,-58.8518 207.309,-45.2641 180,-34.2852"/>
<polygon fill="midnightblue" stroke="midnightblue" points="181.226,-31.0058 170.642,-30.523 178.615,-37.5005 181.226,-31.0058"/>
</g>
<!-- Node5 -->
<g id="node5" class="node"><title>Node5</title>
<g id="a_node5"><a xlink:title=" ">
<polygon fill="none" stroke="#bfbfbf" points="208.261,-6 208.261,-25 359.261,-25 359.261,-6 208.261,-6"/>
<text text-anchor="middle" x="283.761" y="-13" font-family="Helvetica,sans-Serif" font-size="10.00">xercesc/util/XercesVersion.hpp</text>
</a>
</g>
</g>
<!-- Node3&#45;&gt;Node5 -->
<g id="edge4" class="edge"><title>Node3&#45;&gt;Node5</title>
<path fill="none" stroke="midnightblue" d="M283.761,-67.4751C283.761,-59.0803 283.761,-45.9806 283.761,-35.1631"/>
<polygon fill="midnightblue" stroke="midnightblue" points="287.261,-35.0091 283.761,-25.0091 280.261,-35.0091 287.261,-35.0091"/>
</g>
<!-- Node6 -->
<g id="node6" class="node"><title>Node6</title>
<g id="a_node6"><a xlink:href="XalanVersion_8hpp.html" target="_top" xlink:title=" ">
<polygon fill="none" stroke="black" points="377.761,-6 377.761,-25 469.761,-25 469.761,-6 377.761,-6"/>
<text text-anchor="middle" x="423.761" y="-13" font-family="Helvetica,sans-Serif" font-size="10.00">XalanVersion.hpp</text>
</a>
</g>
</g>
<!-- Node3&#45;&gt;Node6 -->
<g id="edge5" class="edge"><title>Node3&#45;&gt;Node6</title>
<path fill="none" stroke="midnightblue" d="M303.82,-67.4751C327.523,-57.4013 367.167,-40.5525 394.344,-29.0023"/>
<polygon fill="midnightblue" stroke="midnightblue" points="395.906,-32.1417 403.74,-25.0091 393.168,-25.6994 395.906,-32.1417"/>
</g>
<!-- Node12&#45;&gt;Node2 -->
<g id="edge12" class="edge"><title>Node12&#45;&gt;Node2</title>
<path fill="none" stroke="midnightblue" d="M675.48,-190.476C613.946,-180.114 530.13,-166 466.293,-155.25"/>
<polygon fill="midnightblue" stroke="midnightblue" points="466.668,-151.764 456.226,-153.555 465.505,-158.667 466.668,-151.764"/>
</g>
</g>
</svg>
