<?xml version="1.0" encoding="UTF-8" standalone="no"?>
<!DOCTYPE svg PUBLIC "-//W3C//DTD SVG 1.1//EN"
 "http://www.w3.org/Graphics/SVG/1.1/DTD/svg11.dtd">
<!-- Generated by graphviz version 2.43.0 (0)
 -->
<!-- Title: xalanc/XercesParserLiaison/Deprecated/XercesDOM_NodeHack.hpp Pages: 1 -->
<!--zoomable 251 -->
<svg id="main" version="1.1" xmlns="http://www.w3.org/2000/svg" xmlns:xlink="http://www.w3.org/1999/xlink" xml:space="preserve" onload="init(evt)">
<style type="text/css"><![CDATA[
.edge:hover path { stroke: red; }
.edge:hover polygon { stroke: red; fill: red; }
]]></style>
<script type="text/javascript"><![CDATA[
var edges = document.getElementsByTagName('g');
if (edges && edges.length) {
  for (var i=0;i<edges.length;i++) {
    if (edges[i].id.substr(0,4)=='edge') {
      edges[i].setAttribute('class','edge');
    }
  }
}
]]></script>
        <defs>
                <circle id="rim" cx="0" cy="0" r="7"/>
                <circle id="rim2" cx="0" cy="0" r="3.5"/>
                <g id="zoomPlus">
                        <use xlink:href="#rim" fill="#404040">
                                <set attributeName="fill" to="#808080" begin="zoomplus.mouseover" end="zoomplus.mouseout"/>
                        </use>
                        <path d="M-4,0h8M0,-4v8" fill="none" stroke="white" stroke-width="1.5" pointer-events="none"/>
                </g>
                <g id="zoomMin">
                        <use xlink:href="#rim" fill="#404040">
                                <set attributeName="fill" to="#808080" begin="zoomminus.mouseover" end="zoomminus.mouseout"/>
                        </use>
                        <path d="M-4,0h8" fill="none" stroke="white" stroke-width="1.5" pointer-events="none"/>
                </g>
                <g id="dirArrow">
                        <path fill="none" stroke="white" stroke-width="1.5" d="M0,-3.0v7 M-2.5,-0.5L0,-3.0L2.5,-0.5"/>
                </g>
               <g id="resetDef">
                       <use xlink:href="#rim2" fill="#404040">
                               <set attributeName="fill" to="#808080" begin="reset.mouseover" end="reset.mouseout"/>
                       </use>
               </g>
        </defs>

<script type="text/javascript">
var viewWidth = 679;
var viewHeight = 251;
var sectionId = 'dynsection-1';
</script>
<script xlink:href="svgpan.js"/>
<svg id="graph" class="graph">
<g id="viewport">
<title>xalanc/XercesParserLiaison/Deprecated/XercesDOM_NodeHack.hpp</title>
<!-- Node1 -->
<g id="node1" class="node">
<title>Node1</title>
<g id="a_node1"><a xlink:title=" ">
<polygon fill="#bfbfbf" stroke="black" points="214.5,-212.5 214.5,-242.5 426.5,-242.5 426.5,-212.5 214.5,-212.5"/>
<text text-anchor="start" x="222.5" y="-230.5" font-family="Helvetica,sans-Serif" font-size="10.00">xalanc/XercesParserLiaison</text>
<text text-anchor="middle" x="320.5" y="-219.5" font-family="Helvetica,sans-Serif" font-size="10.00">/Deprecated/XercesDOM_NodeHack.hpp</text>
</a>
</g>
</g>
<!-- Node2 -->
<g id="node2" class="node">
<title>Node2</title>
<g id="a_node2"><a xlink:href="XercesElementBridge_8hpp.html" target="_top" xlink:title=" ">
<polygon fill="none" stroke="black" points="0,-145.5 0,-175.5 205,-175.5 205,-145.5 0,-145.5"/>
<text text-anchor="start" x="8" y="-163.5" font-family="Helvetica,sans-Serif" font-size="10.00">xalanc/XercesParserLiaison</text>
<text text-anchor="middle" x="102.5" y="-152.5" font-family="Helvetica,sans-Serif" font-size="10.00">/Deprecated/XercesElementBridge.hpp</text>
</a>
</g>
</g>
<!-- Node1&#45;&gt;Node2 -->
<g id="edge1" class="edge">
<title>Node1&#45;&gt;Node2</title>
<path fill="none" stroke="midnightblue" d="M263.75,-209.58C228.34,-199.02 183.3,-185.59 149.83,-175.61"/>
<polygon fill="midnightblue" stroke="midnightblue" points="262.88,-212.97 273.47,-212.48 264.88,-206.26 262.88,-212.97"/>
</g>
<!-- Node5 -->
<g id="node5" class="node">
<title>Node5</title>
<g id="a_node5"><a xlink:href="XercesTextBridge_8hpp.html" target="_top" xlink:title=" ">
<polygon fill="none" stroke="black" points="228,-145.5 228,-175.5 413,-175.5 413,-145.5 228,-145.5"/>
<text text-anchor="start" x="236" y="-163.5" font-family="Helvetica,sans-Serif" font-size="10.00">xalanc/XercesParserLiaison</text>
<text text-anchor="middle" x="320.5" y="-152.5" font-family="Helvetica,sans-Serif" font-size="10.00">/Deprecated/XercesTextBridge.hpp</text>
</a>
</g>
</g>
<!-- Node1&#45;&gt;Node5 -->
<g id="edge4" class="edge">
<title>Node1&#45;&gt;Node5</title>
<path fill="none" stroke="midnightblue" d="M320.5,-202.11C320.5,-193.15 320.5,-183.32 320.5,-175.58"/>
<polygon fill="midnightblue" stroke="midnightblue" points="317,-202.4 320.5,-212.4 324,-202.4 317,-202.4"/>
</g>
<!-- Node7 -->
<g id="node7" class="node">
<title>Node7</title>
<g id="a_node7"><a xlink:href="XercesToXalanNodeMap_8hpp.html" target="_top" xlink:title=" ">
<polygon fill="none" stroke="black" points="452.5,-73 452.5,-103 670.5,-103 670.5,-73 452.5,-73"/>
<text text-anchor="start" x="460.5" y="-91" font-family="Helvetica,sans-Serif" font-size="10.00">xalanc/XercesParserLiaison</text>
<text text-anchor="middle" x="561.5" y="-80" font-family="Helvetica,sans-Serif" font-size="10.00">/Deprecated/XercesToXalanNodeMap.hpp</text>
</a>
</g>
</g>
<!-- Node1&#45;&gt;Node7 -->
<g id="edge7" class="edge">
<title>Node1&#45;&gt;Node7</title>
<path fill="none" stroke="midnightblue" d="M359.85,-208.15C378.99,-198.94 402.19,-187.35 422.5,-176 465.25,-152.12 513.3,-121.05 540.23,-103.24"/>
<polygon fill="midnightblue" stroke="midnightblue" points="358.32,-205 350.81,-212.47 361.34,-211.31 358.32,-205"/>
</g>
<!-- Node3 -->
<g id="node3" class="node">
<title>Node3</title>
<g id="a_node3"><a xlink:href="XercesElementBridgeAllocator_8hpp.html" target="_top" xlink:title=" ">
<polygon fill="none" stroke="black" points="4.5,-67.5 4.5,-108.5 188.5,-108.5 188.5,-67.5 4.5,-67.5"/>
<text text-anchor="start" x="12.5" y="-96.5" font-family="Helvetica,sans-Serif" font-size="10.00">xalanc/XercesParserLiaison</text>
<text text-anchor="start" x="12.5" y="-85.5" font-family="Helvetica,sans-Serif" font-size="10.00">/Deprecated/XercesElementBridge</text>
<text text-anchor="middle" x="96.5" y="-74.5" font-family="Helvetica,sans-Serif" font-size="10.00">Allocator.hpp</text>
</a>
</g>
</g>
<!-- Node2&#45;&gt;Node3 -->
<g id="edge2" class="edge">
<title>Node2&#45;&gt;Node3</title>
<path fill="none" stroke="midnightblue" d="M100.44,-135.27C99.7,-126.56 98.87,-116.85 98.17,-108.59"/>
<polygon fill="midnightblue" stroke="midnightblue" points="96.95,-135.57 101.29,-145.23 103.93,-134.97 96.95,-135.57"/>
</g>
<!-- Node4 -->
<g id="node4" class="node">
<title>Node4</title>
<g id="a_node4"><a xlink:href="XercesDocumentBridge_8hpp.html" target="_top" xlink:title=" ">
<polygon fill="none" stroke="black" points="213,-0.5 213,-30.5 428,-30.5 428,-0.5 213,-0.5"/>
<text text-anchor="start" x="221" y="-18.5" font-family="Helvetica,sans-Serif" font-size="10.00">xalanc/XercesParserLiaison</text>
<text text-anchor="middle" x="320.5" y="-7.5" font-family="Helvetica,sans-Serif" font-size="10.00">/Deprecated/XercesDocumentBridge.hpp</text>
</a>
</g>
</g>
<!-- Node3&#45;&gt;Node4 -->
<g id="edge3" class="edge">
<title>Node3&#45;&gt;Node4</title>
<path fill="none" stroke="midnightblue" d="M168.37,-64.38C203.63,-53.28 245.02,-40.26 275.71,-30.6"/>
<polygon fill="midnightblue" stroke="midnightblue" points="167.09,-61.11 158.6,-67.46 169.19,-67.79 167.09,-61.11"/>
</g>
<!-- Node6 -->
<g id="node6" class="node">
<title>Node6</title>
<g id="a_node6"><a xlink:href="XercesTextBridgeAllocator_8hpp.html" target="_top" xlink:title=" ">
<polygon fill="none" stroke="black" points="207,-73 207,-103 434,-103 434,-73 207,-73"/>
<text text-anchor="start" x="215" y="-91" font-family="Helvetica,sans-Serif" font-size="10.00">xalanc/XercesParserLiaison</text>
<text text-anchor="middle" x="320.5" y="-80" font-family="Helvetica,sans-Serif" font-size="10.00">/Deprecated/XercesTextBridgeAllocator.hpp</text>
</a>
</g>
</g>
<!-- Node5&#45;&gt;Node6 -->
<g id="edge5" class="edge">
<title>Node5&#45;&gt;Node6</title>
<path fill="none" stroke="midnightblue" d="M320.5,-135.23C320.5,-124.57 320.5,-112.41 320.5,-103.25"/>
<polygon fill="midnightblue" stroke="midnightblue" points="317,-135.23 320.5,-145.23 324,-135.23 317,-135.23"/>
</g>
<!-- Node6&#45;&gt;Node4 -->
<g id="edge6" class="edge">
<title>Node6&#45;&gt;Node4</title>
<path fill="none" stroke="midnightblue" d="M320.5,-62.73C320.5,-52.07 320.5,-39.91 320.5,-30.75"/>
<polygon fill="midnightblue" stroke="midnightblue" points="317,-62.73 320.5,-72.73 324,-62.73 317,-62.73"/>
</g>
<!-- Node7&#45;&gt;Node4 -->
<g id="edge8" class="edge">
<title>Node7&#45;&gt;Node4</title>
<path fill="none" stroke="midnightblue" d="M503.95,-70.16C462.68,-58.09 407.7,-42.01 368.72,-30.61"/>
<polygon fill="midnightblue" stroke="midnightblue" points="503.02,-73.54 513.6,-72.99 504.98,-66.82 503.02,-73.54"/>
</g>
</g>
</svg>
        <g id="navigator" transform="translate(0 0)" fill="#404254">
                <rect fill="#f2f5e9" fill-opacity="0.5" stroke="#606060" stroke-width=".5" x="0" y="0" width="60" height="60"/>
                <use id="zoomplus" xlink:href="#zoomPlus" x="17" y="9" onmousedown="handleZoom(evt,'in')"/>
                <use id="zoomminus" xlink:href="#zoomMin" x="42" y="9" onmousedown="handleZoom(evt,'out')"/>
                <use id="reset" xlink:href="#resetDef" x="30" y="36" onmousedown="handleReset()"/>
                <g id="arrowUp" xlink:href="#dirArrow" transform="translate(30 24)" onmousedown="handlePan(0,-1)">
                  <use xlink:href="#rim" fill="#404040">
                        <set attributeName="fill" to="#808080" begin="arrowUp.mouseover" end="arrowUp.mouseout"/>
                  </use>
                  <path fill="none" stroke="white" stroke-width="1.5" d="M0,-3.0v7 M-2.5,-0.5L0,-3.0L2.5,-0.5"/>
                </g>
                <g id="arrowRight" xlink:href="#dirArrow" transform="rotate(90) translate(36 -43)" onmousedown="handlePan(1,0)">
                  <use xlink:href="#rim" fill="#404040">
                        <set attributeName="fill" to="#808080" begin="arrowRight.mouseover" end="arrowRight.mouseout"/>
                  </use>
                  <path fill="none" stroke="white" stroke-width="1.5" d="M0,-3.0v7 M-2.5,-0.5L0,-3.0L2.5,-0.5"/>
                </g>
                <g id="arrowDown" xlink:href="#dirArrow" transform="rotate(180) translate(-30 -48)" onmousedown="handlePan(0,1)">
                  <use xlink:href="#rim" fill="#404040">
                        <set attributeName="fill" to="#808080" begin="arrowDown.mouseover" end="arrowDown.mouseout"/>
                  </use>
                  <path fill="none" stroke="white" stroke-width="1.5" d="M0,-3.0v7 M-2.5,-0.5L0,-3.0L2.5,-0.5"/>
                </g>
                <g id="arrowLeft" xlink:href="#dirArrow" transform="rotate(270) translate(-36 17)" onmousedown="handlePan(-1,0)">
                  <use xlink:href="#rim" fill="#404040">
                        <set attributeName="fill" to="#808080" begin="arrowLeft.mouseover" end="arrowLeft.mouseout"/>
                  </use>
                  <path fill="none" stroke="white" stroke-width="1.5" d="M0,-3.0v7 M-2.5,-0.5L0,-3.0L2.5,-0.5"/>
                </g>
        </g>
        <svg viewBox="0 0 15 15" width="100%" height="30px" preserveAspectRatio="xMaxYMin meet">
         <g id="arrow_out" transform="scale(0.3 0.3)">
          <a xlink:href="XercesDOM__NodeHack_8hpp__dep__incl_org.svg" target="_base">
           <rect id="button" ry="5" rx="5" y="6" x="6" height="38" width="38"
                fill="#f2f5e9" fill-opacity="0.5" stroke="#606060" stroke-width="1.0"/>
           <path id="arrow"
             d="M 11.500037,31.436501 C 11.940474,20.09759 22.043105,11.32322 32.158766,21.979434 L 37.068811,17.246167 C 37.068811,17.246167 37.088388,32 37.088388,32 L 22.160133,31.978069 C 22.160133,31.978069 26.997745,27.140456 26.997745,27.140456 C 18.528582,18.264221 13.291696,25.230495 11.500037,31.436501 z"
             style="fill:#404040;"/>
          </a>
         </g>
        </svg>
</svg>
