<?xml version="1.0" encoding="UTF-8" standalone="no"?>
<!DOCTYPE svg PUBLIC "-//W3C//DTD SVG 1.1//EN"
 "http://www.w3.org/Graphics/SVG/1.1/DTD/svg11.dtd">
<!-- Generated by graphviz version 2.38.0 (20140413.2041)
 -->
<!-- Title: xalanc/XercesParserLiaison/XercesTextWrapper.hpp Pages: 1 -->
<svg width="526pt" height="408pt"
 viewBox="0.00 0.00 525.50 408.00" xmlns="http://www.w3.org/2000/svg" xmlns:xlink="http://www.w3.org/1999/xlink">
<g id="graph0" class="graph" transform="scale(1 1) rotate(0) translate(4 404)">
<title>xalanc/XercesParserLiaison/XercesTextWrapper.hpp</title>
<!-- Node1 -->
<g id="node1" class="node"><title>Node1</title>
<g id="a_node1"><a xlink:title=" ">
<polygon fill="#bfbfbf" stroke="black" points="127.5,-369.5 127.5,-399.5 264.5,-399.5 264.5,-369.5 127.5,-369.5"/>
<text text-anchor="start" x="135.5" y="-387.5" font-family="Helvetica,sans-Serif" font-size="10.00">xalanc/XercesParserLiaison</text>
<text text-anchor="middle" x="196" y="-376.5" font-family="Helvetica,sans-Serif" font-size="10.00">/XercesTextWrapper.hpp</text>
</a>
</g>
</g>
<!-- Node2 -->
<g id="node2" class="node"><title>Node2</title>
<g id="a_node2"><a xlink:href="XercesParserLiaisonDefinitions_8hpp.html" target="_top" xlink:title=" ">
<polygon fill="none" stroke="black" points="47,-235.5 47,-265.5 219,-265.5 219,-235.5 47,-235.5"/>
<text text-anchor="start" x="55" y="-253.5" font-family="Helvetica,sans-Serif" font-size="10.00">xalanc/XercesParserLiaison</text>
<text text-anchor="middle" x="133" y="-242.5" font-family="Helvetica,sans-Serif" font-size="10.00">/XercesParserLiaisonDefinitions.hpp</text>
</a>
</g>
</g>
<!-- Node1&#45;&gt;Node2 -->
<g id="edge1" class="edge"><title>Node1&#45;&gt;Node2</title>
<path fill="none" stroke="midnightblue" d="M159.553,-369.459C143.794,-361.349 126.941,-349.439 118,-333 108.232,-315.039 113.931,-291.905 120.935,-274.875"/>
<polygon fill="midnightblue" stroke="midnightblue" points="124.18,-276.193 125.103,-265.639 117.799,-273.314 124.18,-276.193"/>
</g>
<!-- Node8 -->
<g id="node8" class="node"><title>Node8</title>
<g id="a_node8"><a xlink:href="XalanText_8hpp.html" target="_top" xlink:title=" ">
<polygon fill="none" stroke="black" points="283,-308 283,-327 441,-327 441,-308 283,-308"/>
<text text-anchor="middle" x="362" y="-315" font-family="Helvetica,sans-Serif" font-size="10.00">xalanc/XalanDOM/XalanText.hpp</text>
</a>
</g>
</g>
<!-- Node1&#45;&gt;Node8 -->
<g id="edge7" class="edge"><title>Node1&#45;&gt;Node8</title>
<path fill="none" stroke="midnightblue" d="M232.02,-369.396C261.533,-357.84 302.863,-341.656 330.938,-330.663"/>
<polygon fill="midnightblue" stroke="midnightblue" points="332.239,-333.912 340.274,-327.007 329.687,-327.394 332.239,-333.912"/>
</g>
<!-- Node12 -->
<g id="node12" class="node"><title>Node12</title>
<g id="a_node12"><a xlink:href="XercesWrapperTypes_8hpp.html" target="_top" xlink:title=" ">
<polygon fill="none" stroke="black" points="127.5,-302.5 127.5,-332.5 264.5,-332.5 264.5,-302.5 127.5,-302.5"/>
<text text-anchor="start" x="135.5" y="-320.5" font-family="Helvetica,sans-Serif" font-size="10.00">xalanc/XercesParserLiaison</text>
<text text-anchor="middle" x="196" y="-309.5" font-family="Helvetica,sans-Serif" font-size="10.00">/XercesWrapperTypes.hpp</text>
</a>
</g>
</g>
<!-- Node1&#45;&gt;Node12 -->
<g id="edge14" class="edge"><title>Node1&#45;&gt;Node12</title>
<path fill="none" stroke="midnightblue" d="M196,-369.396C196,-361.645 196,-351.812 196,-342.86"/>
<polygon fill="midnightblue" stroke="midnightblue" points="199.5,-342.576 196,-332.577 192.5,-342.577 199.5,-342.576"/>
</g>
<!-- Node3 -->
<g id="node3" class="node"><title>Node3</title>
<g id="a_node3"><a xlink:href="PlatformDefinitions_8hpp.html" target="_top" xlink:title=" ">
<polygon fill="none" stroke="black" points="111,-67.5 111,-86.5 293,-86.5 293,-67.5 111,-67.5"/>
<text text-anchor="middle" x="202" y="-74.5" font-family="Helvetica,sans-Serif" font-size="10.00">xalanc/Include/PlatformDefinitions.hpp</text>
</a>
</g>
</g>
<!-- Node2&#45;&gt;Node3 -->
<g id="edge2" class="edge"><title>Node2&#45;&gt;Node3</title>
<path fill="none" stroke="midnightblue" d="M124.479,-235.457C116.865,-221.035 107.921,-198.066 115,-179 128.441,-142.8 161.319,-110.884 182.587,-93.0442"/>
<polygon fill="midnightblue" stroke="midnightblue" points="184.825,-95.7352 190.37,-86.7072 180.406,-90.3068 184.825,-95.7352"/>
</g>
<!-- Node7 -->
<g id="node7" class="node"><title>Node7</title>
<g id="a_node7"><a xlink:title=" ">
<polygon fill="none" stroke="#bfbfbf" points="124.5,-179.5 124.5,-198.5 261.5,-198.5 261.5,-179.5 124.5,-179.5"/>
<text text-anchor="middle" x="193" y="-186.5" font-family="Helvetica,sans-Serif" font-size="10.00">xercesc/util/XercesDefs.hpp</text>
</a>
</g>
</g>
<!-- Node2&#45;&gt;Node7 -->
<g id="edge6" class="edge"><title>Node2&#45;&gt;Node7</title>
<path fill="none" stroke="midnightblue" d="M147.219,-235.399C156.208,-226.486 167.838,-214.952 177.127,-205.741"/>
<polygon fill="midnightblue" stroke="midnightblue" points="179.633,-208.184 184.269,-198.658 174.704,-203.214 179.633,-208.184"/>
</g>
<!-- Node4 -->
<g id="node4" class="node"><title>Node4</title>
<g id="a_node4"><a xlink:title=" ">
<polygon fill="none" stroke="#bfbfbf" points="0,-0.5 0,-30.5 108,-30.5 108,-0.5 0,-0.5"/>
<text text-anchor="start" x="8" y="-18.5" font-family="Helvetica,sans-Serif" font-size="10.00">xercesc/util/Xerces</text>
<text text-anchor="middle" x="54" y="-7.5" font-family="Helvetica,sans-Serif" font-size="10.00">_autoconf_config.hpp</text>
</a>
</g>
</g>
<!-- Node3&#45;&gt;Node4 -->
<g id="edge3" class="edge"><title>Node3&#45;&gt;Node4</title>
<path fill="none" stroke="midnightblue" d="M180.795,-67.4751C159.346,-58.8518 125.548,-45.2641 98.2387,-34.2852"/>
<polygon fill="midnightblue" stroke="midnightblue" points="99.4645,-31.0058 88.8807,-30.523 96.8534,-37.5005 99.4645,-31.0058"/>
</g>
<!-- Node5 -->
<g id="node5" class="node"><title>Node5</title>
<g id="a_node5"><a xlink:title=" ">
<polygon fill="none" stroke="#bfbfbf" points="126.5,-6 126.5,-25 277.5,-25 277.5,-6 126.5,-6"/>
<text text-anchor="middle" x="202" y="-13" font-family="Helvetica,sans-Serif" font-size="10.00">xercesc/util/XercesVersion.hpp</text>
</a>
</g>
</g>
<!-- Node3&#45;&gt;Node5 -->
<g id="edge4" class="edge"><title>Node3&#45;&gt;Node5</title>
<path fill="none" stroke="midnightblue" d="M202,-67.4751C202,-59.0803 202,-45.9806 202,-35.1631"/>
<polygon fill="midnightblue" stroke="midnightblue" points="205.5,-35.0091 202,-25.0091 198.5,-35.0091 205.5,-35.0091"/>
</g>
<!-- Node6 -->
<g id="node6" class="node"><title>Node6</title>
<g id="a_node6"><a xlink:href="XalanVersion_8hpp.html" target="_top" xlink:title=" ">
<polygon fill="none" stroke="black" points="296,-6 296,-25 388,-25 388,-6 296,-6"/>
<text text-anchor="middle" x="342" y="-13" font-family="Helvetica,sans-Serif" font-size="10.00">XalanVersion.hpp</text>
</a>
</g>
</g>
<!-- Node3&#45;&gt;Node6 -->
<g id="edge5" class="edge"><title>Node3&#45;&gt;Node6</title>
<path fill="none" stroke="midnightblue" d="M222.059,-67.4751C245.762,-57.4013 285.406,-40.5525 312.583,-29.0023"/>
<polygon fill="midnightblue" stroke="midnightblue" points="314.144,-32.1417 321.979,-25.0091 311.406,-25.6994 314.144,-32.1417"/>
</g>
<!-- Node9 -->
<g id="node9" class="node"><title>Node9</title>
<g id="a_node9"><a xlink:href="XalanDOMDefinitions_8hpp.html" target="_top" xlink:title=" ">
<polygon fill="none" stroke="black" points="206,-123.5 206,-142.5 412,-142.5 412,-123.5 206,-123.5"/>
<text text-anchor="middle" x="309" y="-130.5" font-family="Helvetica,sans-Serif" font-size="10.00">xalanc/XalanDOM/XalanDOMDefinitions.hpp</text>
</a>
</g>
</g>
<!-- Node8&#45;&gt;Node9 -->
<g id="edge8" class="edge"><title>Node8&#45;&gt;Node9</title>
<path fill="none" stroke="midnightblue" d="M347.631,-307.746C334.781,-298.991 316.808,-284.225 309,-266 292.891,-228.399 299.246,-179.058 304.571,-152.63"/>
<polygon fill="midnightblue" stroke="midnightblue" points="308.002,-153.324 306.721,-142.807 301.164,-151.827 308.002,-153.324"/>
</g>
<!-- Node10 -->
<g id="node10" class="node"><title>Node10</title>
<g id="a_node10"><a xlink:href="XalanCharacterData_8hpp.html" target="_top" xlink:title=" ">
<polygon fill="none" stroke="black" points="318,-235.5 318,-265.5 480,-265.5 480,-235.5 318,-235.5"/>
<text text-anchor="start" x="326" y="-253.5" font-family="Helvetica,sans-Serif" font-size="10.00">xalanc/XalanDOM/XalanCharacter</text>
<text text-anchor="middle" x="399" y="-242.5" font-family="Helvetica,sans-Serif" font-size="10.00">Data.hpp</text>
</a>
</g>
</g>
<!-- Node8&#45;&gt;Node10 -->
<g id="edge10" class="edge"><title>Node8&#45;&gt;Node10</title>
<path fill="none" stroke="midnightblue" d="M366.99,-307.734C371.846,-299.203 379.433,-285.874 386.002,-274.334"/>
<polygon fill="midnightblue" stroke="midnightblue" points="389.075,-276.011 390.98,-265.589 382.991,-272.548 389.075,-276.011"/>
</g>
<!-- Node9&#45;&gt;Node3 -->
<g id="edge9" class="edge"><title>Node9&#45;&gt;Node3</title>
<path fill="none" stroke="midnightblue" d="M291.809,-123.324C274.649,-114.664 248.054,-101.242 228.253,-91.249"/>
<polygon fill="midnightblue" stroke="midnightblue" points="229.653,-88.0354 219.149,-86.6545 226.499,-94.2847 229.653,-88.0354"/>
</g>
<!-- Node10&#45;&gt;Node9 -->
<g id="edge11" class="edge"><title>Node10&#45;&gt;Node9</title>
<path fill="none" stroke="midnightblue" d="M382.392,-235.495C371.571,-225.883 357.555,-212.473 347,-199 335.437,-184.24 324.902,-165.614 317.873,-152.088"/>
<polygon fill="midnightblue" stroke="midnightblue" points="320.857,-150.233 313.222,-142.887 314.61,-153.391 320.857,-150.233"/>
</g>
<!-- Node11 -->
<g id="node11" class="node"><title>Node11</title>
<g id="a_node11"><a xlink:href="XalanNode_8hpp.html" target="_top" xlink:title=" ">
<polygon fill="none" stroke="black" points="356.5,-179.5 356.5,-198.5 517.5,-198.5 517.5,-179.5 356.5,-179.5"/>
<text text-anchor="middle" x="437" y="-186.5" font-family="Helvetica,sans-Serif" font-size="10.00">xalanc/XalanDOM/XalanNode.hpp</text>
</a>
</g>
</g>
<!-- Node10&#45;&gt;Node11 -->
<g id="edge12" class="edge"><title>Node10&#45;&gt;Node11</title>
<path fill="none" stroke="midnightblue" d="M408.005,-235.399C413.413,-226.932 420.332,-216.099 426.054,-207.139"/>
<polygon fill="midnightblue" stroke="midnightblue" points="429.038,-208.97 431.471,-198.658 423.138,-205.202 429.038,-208.97"/>
</g>
<!-- Node11&#45;&gt;Node9 -->
<g id="edge13" class="edge"><title>Node11&#45;&gt;Node9</title>
<path fill="none" stroke="midnightblue" d="M416.718,-179.444C395.653,-170.557 362.483,-156.563 338.514,-146.451"/>
<polygon fill="midnightblue" stroke="midnightblue" points="339.761,-143.179 329.187,-142.516 337.04,-149.628 339.761,-143.179"/>
</g>
<!-- Node12&#45;&gt;Node2 -->
<g id="edge15" class="edge"><title>Node12&#45;&gt;Node2</title>
<path fill="none" stroke="midnightblue" d="M182.33,-302.396C173.992,-293.793 163.168,-282.626 153.785,-272.945"/>
<polygon fill="midnightblue" stroke="midnightblue" points="156.116,-270.321 146.643,-265.577 151.09,-275.193 156.116,-270.321"/>
</g>
</g>
</svg>
