<?xml version="1.0" encoding="UTF-8" standalone="no"?>
<!DOCTYPE svg PUBLIC "-//W3C//DTD SVG 1.1//EN"
 "http://www.w3.org/Graphics/SVG/1.1/DTD/svg11.dtd">
<!-- Generated by graphviz version 2.43.0 (0)
 -->
<!-- Title: xalanc/XercesParserLiaison/XercesCommentWrapper.hpp Pages: 1 -->
<!--zoomable 441 -->
<svg id="main" version="1.1" xmlns="http://www.w3.org/2000/svg" xmlns:xlink="http://www.w3.org/1999/xlink" xml:space="preserve" onload="init(evt)">
<style type="text/css"><![CDATA[
.edge:hover path { stroke: red; }
.edge:hover polygon { stroke: red; fill: red; }
]]></style>
<script type="text/javascript"><![CDATA[
var edges = document.getElementsByTagName('g');
if (edges && edges.length) {
  for (var i=0;i<edges.length;i++) {
    if (edges[i].id.substr(0,4)=='edge') {
      edges[i].setAttribute('class','edge');
    }
  }
}
]]></script>
        <defs>
                <circle id="rim" cx="0" cy="0" r="7"/>
                <circle id="rim2" cx="0" cy="0" r="3.5"/>
                <g id="zoomPlus">
                        <use xlink:href="#rim" fill="#404040">
                                <set attributeName="fill" to="#808080" begin="zoomplus.mouseover" end="zoomplus.mouseout"/>
                        </use>
                        <path d="M-4,0h8M0,-4v8" fill="none" stroke="white" stroke-width="1.5" pointer-events="none"/>
                </g>
                <g id="zoomMin">
                        <use xlink:href="#rim" fill="#404040">
                                <set attributeName="fill" to="#808080" begin="zoomminus.mouseover" end="zoomminus.mouseout"/>
                        </use>
                        <path d="M-4,0h8" fill="none" stroke="white" stroke-width="1.5" pointer-events="none"/>
                </g>
                <g id="dirArrow">
                        <path fill="none" stroke="white" stroke-width="1.5" d="M0,-3.0v7 M-2.5,-0.5L0,-3.0L2.5,-0.5"/>
                </g>
               <g id="resetDef">
                       <use xlink:href="#rim2" fill="#404040">
                               <set attributeName="fill" to="#808080" begin="reset.mouseover" end="reset.mouseout"/>
                       </use>
               </g>
        </defs>

<script type="text/javascript">
var viewWidth = 853;
var viewHeight = 441;
var sectionId = 'dynsection-0';
</script>
<script xlink:href="svgpan.js"/>
<svg id="graph" class="graph">
<g id="viewport">
<title>xalanc/XercesParserLiaison/XercesCommentWrapper.hpp</title>
<!-- Node1 -->
<g id="node1" class="node">
<title>Node1</title>
<g id="a_node1"><a xlink:title=" ">
<polygon fill="#bfbfbf" stroke="black" points="479.5,-402.5 479.5,-432.5 641.5,-432.5 641.5,-402.5 479.5,-402.5"/>
<text text-anchor="start" x="487.5" y="-420.5" font-family="Helvetica,sans-Serif" font-size="10.00">xalanc/XercesParserLiaison</text>
<text text-anchor="middle" x="560.5" y="-409.5" font-family="Helvetica,sans-Serif" font-size="10.00">/XercesCommentWrapper.hpp</text>
</a>
</g>
</g>
<!-- Node2 -->
<g id="node2" class="node">
<title>Node2</title>
<g id="a_node2"><a xlink:href="XercesParserLiaisonDefinitions_8hpp.html" target="_top" xlink:title=" ">
<polygon fill="none" stroke="black" points="632,-268.5 632,-298.5 823,-298.5 823,-268.5 632,-268.5"/>
<text text-anchor="start" x="640" y="-286.5" font-family="Helvetica,sans-Serif" font-size="10.00">xalanc/XercesParserLiaison</text>
<text text-anchor="middle" x="727.5" y="-275.5" font-family="Helvetica,sans-Serif" font-size="10.00">/XercesParserLiaisonDefinitions.hpp</text>
</a>
</g>
</g>
<!-- Node1&#45;&gt;Node2 -->
<g id="edge1" class="edge">
<title>Node1&#45;&gt;Node2</title>
<path fill="none" stroke="midnightblue" d="M573.32,-402.24C589.1,-385.14 617.18,-356.14 644.5,-335 659.3,-323.55 676.87,-312.53 692.02,-303.73"/>
<polygon fill="midnightblue" stroke="midnightblue" points="694.15,-306.55 701.1,-298.55 690.68,-300.47 694.15,-306.55"/>
</g>
<!-- Node8 -->
<g id="node8" class="node">
<title>Node8</title>
<g id="a_node8"><a xlink:href="XalanMemMgrAutoPtr_8hpp.html" target="_top" xlink:title=" ">
<polygon fill="none" stroke="black" points="148,-201.5 148,-231.5 309,-231.5 309,-201.5 148,-201.5"/>
<text text-anchor="start" x="156" y="-219.5" font-family="Helvetica,sans-Serif" font-size="10.00">xalanc/Include/XalanMemMgr</text>
<text text-anchor="middle" x="228.5" y="-208.5" font-family="Helvetica,sans-Serif" font-size="10.00">AutoPtr.hpp</text>
</a>
</g>
</g>
<!-- Node1&#45;&gt;Node8 -->
<g id="edge7" class="edge">
<title>Node1&#45;&gt;Node8</title>
<path fill="none" stroke="midnightblue" d="M481.91,-402.49C450.27,-394.72 414.29,-383.06 384.5,-366 325.82,-332.4 272.2,-272.16 245.77,-239.69"/>
<polygon fill="midnightblue" stroke="midnightblue" points="248.34,-237.3 239.35,-231.69 242.88,-241.68 248.34,-237.3"/>
</g>
<!-- Node16 -->
<g id="node16" class="node">
<title>Node16</title>
<g id="a_node16"><a xlink:href="XalanComment_8hpp.html" target="_top" xlink:title=" ">
<polygon fill="none" stroke="black" points="394,-341 394,-360 597,-360 597,-341 394,-341"/>
<text text-anchor="middle" x="495.5" y="-348" font-family="Helvetica,sans-Serif" font-size="10.00">xalanc/XalanDOM/XalanComment.hpp</text>
</a>
</g>
</g>
<!-- Node1&#45;&gt;Node16 -->
<g id="edge19" class="edge">
<title>Node1&#45;&gt;Node16</title>
<path fill="none" stroke="midnightblue" d="M546.4,-402.4C536.06,-392.06 522.02,-378.02 511.31,-367.31"/>
<polygon fill="midnightblue" stroke="midnightblue" points="513.74,-364.79 504.19,-360.19 508.79,-369.74 513.74,-364.79"/>
</g>
<!-- Node20 -->
<g id="node20" class="node">
<title>Node20</title>
<g id="a_node20"><a xlink:href="XercesWrapperTypes_8hpp.html" target="_top" xlink:title=" ">
<polygon fill="none" stroke="black" points="653,-335.5 653,-365.5 802,-365.5 802,-335.5 653,-335.5"/>
<text text-anchor="start" x="661" y="-353.5" font-family="Helvetica,sans-Serif" font-size="10.00">xalanc/XercesParserLiaison</text>
<text text-anchor="middle" x="727.5" y="-342.5" font-family="Helvetica,sans-Serif" font-size="10.00">/XercesWrapperTypes.hpp</text>
</a>
</g>
</g>
<!-- Node1&#45;&gt;Node20 -->
<g id="edge26" class="edge">
<title>Node1&#45;&gt;Node20</title>
<path fill="none" stroke="midnightblue" d="M596.74,-402.4C621.68,-392.69 655.03,-379.71 681.8,-369.29"/>
<polygon fill="midnightblue" stroke="midnightblue" points="683.28,-372.47 691.33,-365.58 680.75,-365.94 683.28,-372.47"/>
</g>
<!-- Node3 -->
<g id="node3" class="node">
<title>Node3</title>
<g id="a_node3"><a xlink:href="PlatformDefinitions_8hpp.html" target="_top" xlink:title=" ">
<polygon fill="none" stroke="black" points="466.5,-73 466.5,-92 672.5,-92 672.5,-73 466.5,-73"/>
<text text-anchor="middle" x="569.5" y="-80" font-family="Helvetica,sans-Serif" font-size="10.00">xalanc/Include/PlatformDefinitions.hpp</text>
</a>
</g>
</g>
<!-- Node2&#45;&gt;Node3 -->
<g id="edge2" class="edge">
<title>Node2&#45;&gt;Node3</title>
<path fill="none" stroke="midnightblue" d="M768.9,-268.4C785.53,-260.46 802.99,-248.71 812.5,-232 819.31,-220.03 817.63,-213.79 812.5,-201 786.61,-136.42 709,-107.22 648.38,-94.09"/>
<polygon fill="midnightblue" stroke="midnightblue" points="648.93,-90.63 638.43,-92.05 647.52,-97.49 648.93,-90.63"/>
</g>
<!-- Node7 -->
<g id="node7" class="node">
<title>Node7</title>
<g id="a_node7"><a xlink:title=" ">
<polygon fill="none" stroke="#bfbfbf" points="651.5,-207 651.5,-226 803.5,-226 803.5,-207 651.5,-207"/>
<text text-anchor="middle" x="727.5" y="-214" font-family="Helvetica,sans-Serif" font-size="10.00">xercesc/util/XercesDefs.hpp</text>
</a>
</g>
</g>
<!-- Node2&#45;&gt;Node7 -->
<g id="edge6" class="edge">
<title>Node2&#45;&gt;Node7</title>
<path fill="none" stroke="midnightblue" d="M727.5,-268.4C727.5,-259.06 727.5,-246.71 727.5,-236.52"/>
<polygon fill="midnightblue" stroke="midnightblue" points="731,-236.19 727.5,-226.19 724,-236.19 731,-236.19"/>
</g>
<!-- Node4 -->
<g id="node4" class="node">
<title>Node4</title>
<g id="a_node4"><a xlink:title=" ">
<polygon fill="none" stroke="#bfbfbf" points="348.5,-0.5 348.5,-30.5 468.5,-30.5 468.5,-0.5 348.5,-0.5"/>
<text text-anchor="start" x="356.5" y="-18.5" font-family="Helvetica,sans-Serif" font-size="10.00">xercesc/util/Xerces</text>
<text text-anchor="middle" x="408.5" y="-7.5" font-family="Helvetica,sans-Serif" font-size="10.00">_autoconf_config.hpp</text>
</a>
</g>
</g>
<!-- Node3&#45;&gt;Node4 -->
<g id="edge3" class="edge">
<title>Node3&#45;&gt;Node4</title>
<path fill="none" stroke="midnightblue" d="M548.12,-72.87C523.86,-63.07 483.62,-46.83 452.56,-34.29"/>
<polygon fill="midnightblue" stroke="midnightblue" points="453.83,-31.03 443.25,-30.53 451.21,-37.52 453.83,-31.03"/>
</g>
<!-- Node5 -->
<g id="node5" class="node">
<title>Node5</title>
<g id="a_node5"><a xlink:title=" ">
<polygon fill="none" stroke="#bfbfbf" points="487,-6 487,-25 652,-25 652,-6 487,-6"/>
<text text-anchor="middle" x="569.5" y="-13" font-family="Helvetica,sans-Serif" font-size="10.00">xercesc/util/XercesVersion.hpp</text>
</a>
</g>
</g>
<!-- Node3&#45;&gt;Node5 -->
<g id="edge4" class="edge">
<title>Node3&#45;&gt;Node5</title>
<path fill="none" stroke="midnightblue" d="M569.5,-72.73C569.5,-63.18 569.5,-47.62 569.5,-35.28"/>
<polygon fill="midnightblue" stroke="midnightblue" points="573,-35.13 569.5,-25.13 566,-35.13 573,-35.13"/>
</g>
<!-- Node6 -->
<g id="node6" class="node">
<title>Node6</title>
<g id="a_node6"><a xlink:href="XalanVersion_8hpp.html" target="_top" xlink:title=" ">
<polygon fill="none" stroke="black" points="670,-6 670,-25 845,-25 845,-6 670,-6"/>
<text text-anchor="middle" x="757.5" y="-13" font-family="Helvetica,sans-Serif" font-size="10.00">xalanc/Include/XalanVersion.hpp</text>
</a>
</g>
</g>
<!-- Node3&#45;&gt;Node6 -->
<g id="edge5" class="edge">
<title>Node3&#45;&gt;Node6</title>
<path fill="none" stroke="midnightblue" d="M594.46,-72.87C627.42,-61.47 685.62,-41.35 722.83,-28.49"/>
<polygon fill="midnightblue" stroke="midnightblue" points="724.42,-31.64 732.73,-25.06 722.14,-25.02 724.42,-31.64"/>
</g>
<!-- Node9 -->
<g id="node9" class="node">
<title>Node9</title>
<g id="a_node9"><a xlink:href="PlatformSupportDefinitions_8hpp.html" target="_top" xlink:title=" ">
<polygon fill="none" stroke="black" points="316,-134.5 316,-164.5 489,-164.5 489,-134.5 316,-134.5"/>
<text text-anchor="start" x="324" y="-152.5" font-family="Helvetica,sans-Serif" font-size="10.00">xalanc/PlatformSupport</text>
<text text-anchor="middle" x="402.5" y="-141.5" font-family="Helvetica,sans-Serif" font-size="10.00">/PlatformSupportDefinitions.hpp</text>
</a>
</g>
</g>
<!-- Node8&#45;&gt;Node9 -->
<g id="edge8" class="edge">
<title>Node8&#45;&gt;Node9</title>
<path fill="none" stroke="midnightblue" d="M266.26,-201.4C292.36,-191.64 327.29,-178.59 355.25,-168.15"/>
<polygon fill="midnightblue" stroke="midnightblue" points="356.68,-171.35 364.82,-164.58 354.23,-164.8 356.68,-171.35"/>
</g>
<!-- Node10 -->
<g id="node10" class="node">
<title>Node10</title>
<g id="a_node10"><a xlink:href="XalanMemoryManagement_8hpp.html" target="_top" xlink:title=" ">
<polygon fill="none" stroke="black" points="101.5,-134.5 101.5,-164.5 259.5,-164.5 259.5,-134.5 101.5,-134.5"/>
<text text-anchor="start" x="109.5" y="-152.5" font-family="Helvetica,sans-Serif" font-size="10.00">xalanc/Include/XalanMemory</text>
<text text-anchor="middle" x="180.5" y="-141.5" font-family="Helvetica,sans-Serif" font-size="10.00">Management.hpp</text>
</a>
</g>
</g>
<!-- Node8&#45;&gt;Node10 -->
<g id="edge10" class="edge">
<title>Node8&#45;&gt;Node10</title>
<path fill="none" stroke="midnightblue" d="M218.08,-201.4C211.92,-193.05 203.97,-182.29 196.98,-172.81"/>
<polygon fill="midnightblue" stroke="midnightblue" points="199.65,-170.54 190.89,-164.58 194.02,-174.7 199.65,-170.54"/>
</g>
<!-- Node11 -->
<g id="node11" class="node">
<title>Node11</title>
<g id="a_node11"><a xlink:title=" ">
<polygon fill="none" stroke="#bfbfbf" points="309.5,-73 309.5,-92 361.5,-92 361.5,-73 309.5,-73"/>
<text text-anchor="middle" x="335.5" y="-80" font-family="Helvetica,sans-Serif" font-size="10.00">cassert</text>
</a>
</g>
</g>
<!-- Node8&#45;&gt;Node11 -->
<g id="edge17" class="edge">
<title>Node8&#45;&gt;Node11</title>
<path fill="none" stroke="midnightblue" d="M239.95,-201.37C259.91,-176.76 300.95,-126.12 322.16,-99.96"/>
<polygon fill="midnightblue" stroke="midnightblue" points="324.95,-102.07 328.53,-92.1 319.51,-97.66 324.95,-102.07"/>
</g>
<!-- Node12 -->
<g id="node12" class="node">
<title>Node12</title>
<g id="a_node12"><a xlink:title=" ">
<polygon fill="none" stroke="#bfbfbf" points="12,-73 12,-92 65,-92 65,-73 12,-73"/>
<text text-anchor="middle" x="38.5" y="-80" font-family="Helvetica,sans-Serif" font-size="10.00">cstddef</text>
</a>
</g>
</g>
<!-- Node8&#45;&gt;Node12 -->
<g id="edge16" class="edge">
<title>Node8&#45;&gt;Node12</title>
<path fill="none" stroke="midnightblue" d="M166.4,-201.44C141.6,-193.64 113.91,-181.98 92.5,-165 71.06,-147.99 55.2,-120.07 46.4,-101.74"/>
<polygon fill="midnightblue" stroke="midnightblue" points="49.49,-100.08 42.15,-92.44 43.13,-102.99 49.49,-100.08"/>
</g>
<!-- Node15 -->
<g id="node15" class="node">
<title>Node15</title>
<g id="a_node15"><a xlink:title=" ">
<polygon fill="none" stroke="#bfbfbf" points="0,-140 0,-159 45,-159 45,-140 0,-140"/>
<text text-anchor="middle" x="22.5" y="-147" font-family="Helvetica,sans-Serif" font-size="10.00">utility</text>
</a>
</g>
</g>
<!-- Node8&#45;&gt;Node15 -->
<g id="edge18" class="edge">
<title>Node8&#45;&gt;Node15</title>
<path fill="none" stroke="midnightblue" d="M177.49,-201.45C143.78,-191.88 98.73,-178.52 59.5,-165 57.38,-164.27 55.2,-163.49 53.02,-162.69"/>
<polygon fill="midnightblue" stroke="midnightblue" points="54.11,-159.36 43.52,-159.09 51.63,-165.9 54.11,-159.36"/>
</g>
<!-- Node9&#45;&gt;Node3 -->
<g id="edge9" class="edge">
<title>Node9&#45;&gt;Node3</title>
<path fill="none" stroke="midnightblue" d="M438.74,-134.4C468.43,-122.84 510.01,-106.66 538.25,-95.66"/>
<polygon fill="midnightblue" stroke="midnightblue" points="539.59,-98.9 547.64,-92.01 537.06,-92.37 539.59,-98.9"/>
</g>
<!-- Node10&#45;&gt;Node3 -->
<g id="edge11" class="edge">
<title>Node10&#45;&gt;Node3</title>
<path fill="none" stroke="midnightblue" d="M259.69,-135.27C333.33,-122.96 441.48,-104.89 508.58,-93.68"/>
<polygon fill="midnightblue" stroke="midnightblue" points="509.3,-97.11 518.58,-92.01 508.14,-90.2 509.3,-97.11"/>
</g>
<!-- Node10&#45;&gt;Node11 -->
<g id="edge12" class="edge">
<title>Node10&#45;&gt;Node11</title>
<path fill="none" stroke="midnightblue" d="M214.13,-134.4C241.45,-122.94 279.61,-106.94 305.81,-95.95"/>
<polygon fill="midnightblue" stroke="midnightblue" points="307.35,-99.1 315.21,-92.01 304.64,-92.65 307.35,-99.1"/>
</g>
<!-- Node10&#45;&gt;Node12 -->
<g id="edge13" class="edge">
<title>Node10&#45;&gt;Node12</title>
<path fill="none" stroke="midnightblue" d="M149.69,-134.4C124.88,-123.04 90.32,-107.22 66.34,-96.24"/>
<polygon fill="midnightblue" stroke="midnightblue" points="67.63,-92.99 57.08,-92.01 64.72,-99.35 67.63,-92.99"/>
</g>
<!-- Node13 -->
<g id="node13" class="node">
<title>Node13</title>
<g id="a_node13"><a xlink:title=" ">
<polygon fill="none" stroke="#bfbfbf" points="83,-73 83,-92 120,-92 120,-73 83,-73"/>
<text text-anchor="middle" x="101.5" y="-80" font-family="Helvetica,sans-Serif" font-size="10.00">new</text>
</a>
</g>
</g>
<!-- Node10&#45;&gt;Node13 -->
<g id="edge14" class="edge">
<title>Node10&#45;&gt;Node13</title>
<path fill="none" stroke="midnightblue" d="M163.36,-134.4C150.55,-123.86 133.07,-109.48 119.96,-98.69"/>
<polygon fill="midnightblue" stroke="midnightblue" points="122.01,-95.85 112.07,-92.19 117.57,-101.25 122.01,-95.85"/>
</g>
<!-- Node14 -->
<g id="node14" class="node">
<title>Node14</title>
<g id="a_node14"><a xlink:title=" ">
<polygon fill="none" stroke="#bfbfbf" points="138,-67.5 138,-97.5 291,-97.5 291,-67.5 138,-67.5"/>
<text text-anchor="start" x="146" y="-85.5" font-family="Helvetica,sans-Serif" font-size="10.00">xercesc/framework/Memory</text>
<text text-anchor="middle" x="214.5" y="-74.5" font-family="Helvetica,sans-Serif" font-size="10.00">Manager.hpp</text>
</a>
</g>
</g>
<!-- Node10&#45;&gt;Node14 -->
<g id="edge15" class="edge">
<title>Node10&#45;&gt;Node14</title>
<path fill="none" stroke="midnightblue" d="M187.88,-134.4C192.11,-126.3 197.53,-115.94 202.37,-106.69"/>
<polygon fill="midnightblue" stroke="midnightblue" points="205.6,-108.06 207.14,-97.58 199.4,-104.82 205.6,-108.06"/>
</g>
<!-- Node17 -->
<g id="node17" class="node">
<title>Node17</title>
<g id="a_node17"><a xlink:href="XalanDOMDefinitions_8hpp.html" target="_top" xlink:title=" ">
<polygon fill="none" stroke="black" points="507.5,-140 507.5,-159 739.5,-159 739.5,-140 507.5,-140"/>
<text text-anchor="middle" x="623.5" y="-147" font-family="Helvetica,sans-Serif" font-size="10.00">xalanc/XalanDOM/XalanDOMDefinitions.hpp</text>
</a>
</g>
</g>
<!-- Node16&#45;&gt;Node17 -->
<g id="edge20" class="edge">
<title>Node16&#45;&gt;Node17</title>
<path fill="none" stroke="midnightblue" d="M463.38,-340.9C442.61,-333.48 417.15,-320.49 404.5,-299 382.4,-261.47 377.38,-235.08 404.5,-201 420.5,-180.89 478.05,-168.1 530.13,-160.42"/>
<polygon fill="midnightblue" stroke="midnightblue" points="530.71,-163.88 540.12,-159 529.73,-156.95 530.71,-163.88"/>
</g>
<!-- Node18 -->
<g id="node18" class="node">
<title>Node18</title>
<g id="a_node18"><a xlink:href="XalanCharacterData_8hpp.html" target="_top" xlink:title=" ">
<polygon fill="none" stroke="black" points="413.5,-268.5 413.5,-298.5 595.5,-298.5 595.5,-268.5 413.5,-268.5"/>
<text text-anchor="start" x="421.5" y="-286.5" font-family="Helvetica,sans-Serif" font-size="10.00">xalanc/XalanDOM/XalanCharacter</text>
<text text-anchor="middle" x="504.5" y="-275.5" font-family="Helvetica,sans-Serif" font-size="10.00">Data.hpp</text>
</a>
</g>
</g>
<!-- Node16&#45;&gt;Node18 -->
<g id="edge22" class="edge">
<title>Node16&#45;&gt;Node18</title>
<path fill="none" stroke="midnightblue" d="M496.71,-340.73C497.85,-332.54 499.6,-319.92 501.15,-308.71"/>
<polygon fill="midnightblue" stroke="midnightblue" points="504.64,-308.97 502.55,-298.59 497.71,-308.01 504.64,-308.97"/>
</g>
<!-- Node17&#45;&gt;Node3 -->
<g id="edge21" class="edge">
<title>Node17&#45;&gt;Node3</title>
<path fill="none" stroke="midnightblue" d="M616.22,-139.73C607.8,-129.6 593.75,-112.69 583.25,-100.06"/>
<polygon fill="midnightblue" stroke="midnightblue" points="585.75,-97.58 576.67,-92.13 580.37,-102.06 585.75,-97.58"/>
</g>
<!-- Node18&#45;&gt;Node17 -->
<g id="edge23" class="edge">
<title>Node18&#45;&gt;Node17</title>
<path fill="none" stroke="midnightblue" d="M551.82,-268.48C570.77,-260.62 591.22,-248.9 604.5,-232 618.71,-213.92 622.61,-187.05 623.52,-169.17"/>
<polygon fill="midnightblue" stroke="midnightblue" points="627.02,-169.2 623.76,-159.12 620.02,-169.03 627.02,-169.2"/>
</g>
<!-- Node19 -->
<g id="node19" class="node">
<title>Node19</title>
<g id="a_node19"><a xlink:href="XalanNode_8hpp.html" target="_top" xlink:title=" ">
<polygon fill="none" stroke="black" points="414,-207 414,-226 595,-226 595,-207 414,-207"/>
<text text-anchor="middle" x="504.5" y="-214" font-family="Helvetica,sans-Serif" font-size="10.00">xalanc/XalanDOM/XalanNode.hpp</text>
</a>
</g>
</g>
<!-- Node18&#45;&gt;Node19 -->
<g id="edge24" class="edge">
<title>Node18&#45;&gt;Node19</title>
<path fill="none" stroke="midnightblue" d="M504.5,-268.4C504.5,-259.06 504.5,-246.71 504.5,-236.52"/>
<polygon fill="midnightblue" stroke="midnightblue" points="508,-236.19 504.5,-226.19 501,-236.19 508,-236.19"/>
</g>
<!-- Node19&#45;&gt;Node17 -->
<g id="edge25" class="edge">
<title>Node19&#45;&gt;Node17</title>
<path fill="none" stroke="midnightblue" d="M520.55,-206.73C540.62,-195.77 575.2,-176.88 598.69,-164.05"/>
<polygon fill="midnightblue" stroke="midnightblue" points="600.61,-166.99 607.71,-159.13 597.25,-160.85 600.61,-166.99"/>
</g>
<!-- Node20&#45;&gt;Node2 -->
<g id="edge27" class="edge">
<title>Node20&#45;&gt;Node2</title>
<path fill="none" stroke="midnightblue" d="M727.5,-335.4C727.5,-327.64 727.5,-317.81 727.5,-308.86"/>
<polygon fill="midnightblue" stroke="midnightblue" points="731,-308.58 727.5,-298.58 724,-308.58 731,-308.58"/>
</g>
</g>
</svg>
        <g id="navigator" transform="translate(0 0)" fill="#404254">
                <rect fill="#f2f5e9" fill-opacity="0.5" stroke="#606060" stroke-width=".5" x="0" y="0" width="60" height="60"/>
                <use id="zoomplus" xlink:href="#zoomPlus" x="17" y="9" onmousedown="handleZoom(evt,'in')"/>
                <use id="zoomminus" xlink:href="#zoomMin" x="42" y="9" onmousedown="handleZoom(evt,'out')"/>
                <use id="reset" xlink:href="#resetDef" x="30" y="36" onmousedown="handleReset()"/>
                <g id="arrowUp" xlink:href="#dirArrow" transform="translate(30 24)" onmousedown="handlePan(0,-1)">
                  <use xlink:href="#rim" fill="#404040">
                        <set attributeName="fill" to="#808080" begin="arrowUp.mouseover" end="arrowUp.mouseout"/>
                  </use>
                  <path fill="none" stroke="white" stroke-width="1.5" d="M0,-3.0v7 M-2.5,-0.5L0,-3.0L2.5,-0.5"/>
                </g>
                <g id="arrowRight" xlink:href="#dirArrow" transform="rotate(90) translate(36 -43)" onmousedown="handlePan(1,0)">
                  <use xlink:href="#rim" fill="#404040">
                        <set attributeName="fill" to="#808080" begin="arrowRight.mouseover" end="arrowRight.mouseout"/>
                  </use>
                  <path fill="none" stroke="white" stroke-width="1.5" d="M0,-3.0v7 M-2.5,-0.5L0,-3.0L2.5,-0.5"/>
                </g>
                <g id="arrowDown" xlink:href="#dirArrow" transform="rotate(180) translate(-30 -48)" onmousedown="handlePan(0,1)">
                  <use xlink:href="#rim" fill="#404040">
                        <set attributeName="fill" to="#808080" begin="arrowDown.mouseover" end="arrowDown.mouseout"/>
                  </use>
                  <path fill="none" stroke="white" stroke-width="1.5" d="M0,-3.0v7 M-2.5,-0.5L0,-3.0L2.5,-0.5"/>
                </g>
                <g id="arrowLeft" xlink:href="#dirArrow" transform="rotate(270) translate(-36 17)" onmousedown="handlePan(-1,0)">
                  <use xlink:href="#rim" fill="#404040">
                        <set attributeName="fill" to="#808080" begin="arrowLeft.mouseover" end="arrowLeft.mouseout"/>
                  </use>
                  <path fill="none" stroke="white" stroke-width="1.5" d="M0,-3.0v7 M-2.5,-0.5L0,-3.0L2.5,-0.5"/>
                </g>
        </g>
        <svg viewBox="0 0 15 15" width="100%" height="30px" preserveAspectRatio="xMaxYMin meet">
         <g id="arrow_out" transform="scale(0.3 0.3)">
          <a xlink:href="XercesCommentWrapper_8hpp__incl_org.svg" target="_base">
           <rect id="button" ry="5" rx="5" y="6" x="6" height="38" width="38"
                fill="#f2f5e9" fill-opacity="0.5" stroke="#606060" stroke-width="1.0"/>
           <path id="arrow"
             d="M 11.500037,31.436501 C 11.940474,20.09759 22.043105,11.32322 32.158766,21.979434 L 37.068811,17.246167 C 37.068811,17.246167 37.088388,32 37.088388,32 L 22.160133,31.978069 C 22.160133,31.978069 26.997745,27.140456 26.997745,27.140456 C 18.528582,18.264221 13.291696,25.230495 11.500037,31.436501 z"
             style="fill:#404040;"/>
          </a>
         </g>
        </svg>
</svg>
