<?xml version="1.0" encoding="UTF-8" standalone="no"?>
<!DOCTYPE svg PUBLIC "-//W3C//DTD SVG 1.1//EN"
 "http://www.w3.org/Graphics/SVG/1.1/DTD/svg11.dtd">
<!-- Generated by graphviz version 2.38.0 (20140413.2041)
 -->
<!-- Title: xalanc/XercesParserLiaison/Deprecated/XercesTextBridge.hpp Pages: 1 -->
<svg width="213pt" height="173pt"
 viewBox="0.00 0.00 213.00 173.00" xmlns="http://www.w3.org/2000/svg" xmlns:xlink="http://www.w3.org/1999/xlink">
<g id="graph0" class="graph" transform="scale(1 1) rotate(0) translate(4 169)">
<title>xalanc/XercesParserLiaison/Deprecated/XercesTextBridge.hpp</title>
<!-- Node1 -->
<g id="node1" class="node"><title>Node1</title>
<g id="a_node1"><a xlink:title=" ">
<polygon fill="#bfbfbf" stroke="black" points="19,-134.5 19,-164.5 186,-164.5 186,-134.5 19,-134.5"/>
<text text-anchor="start" x="27" y="-152.5" font-family="Helvetica,sans-Serif" font-size="10.00">xalanc/XercesParserLiaison</text>
<text text-anchor="middle" x="102.5" y="-141.5" font-family="Helvetica,sans-Serif" font-size="10.00">/Deprecated/XercesTextBridge.hpp</text>
</a>
</g>
</g>
<!-- Node2 -->
<g id="node2" class="node"><title>Node2</title>
<g id="a_node2"><a xlink:href="XercesTextBridgeAllocator_8hpp.html" target="_top" xlink:title=" ">
<polygon fill="none" stroke="black" points="0,-67.5 0,-97.5 205,-97.5 205,-67.5 0,-67.5"/>
<text text-anchor="start" x="8" y="-85.5" font-family="Helvetica,sans-Serif" font-size="10.00">xalanc/XercesParserLiaison</text>
<text text-anchor="middle" x="102.5" y="-74.5" font-family="Helvetica,sans-Serif" font-size="10.00">/Deprecated/XercesTextBridgeAllocator.hpp</text>
</a>
</g>
</g>
<!-- Node1&#45;&gt;Node2 -->
<g id="edge1" class="edge"><title>Node1&#45;&gt;Node2</title>
<path fill="none" stroke="midnightblue" d="M102.5,-124.108C102.5,-115.154 102.5,-105.323 102.5,-97.5765"/>
<polygon fill="midnightblue" stroke="midnightblue" points="99.0001,-124.396 102.5,-134.396 106,-124.396 99.0001,-124.396"/>
</g>
<!-- Node3 -->
<g id="node3" class="node"><title>Node3</title>
<g id="a_node3"><a xlink:href="XercesDocumentBridge_8hpp.html" target="_top" xlink:title=" ">
<polygon fill="none" stroke="black" points="6.5,-0.5 6.5,-30.5 198.5,-30.5 198.5,-0.5 6.5,-0.5"/>
<text text-anchor="start" x="14.5" y="-18.5" font-family="Helvetica,sans-Serif" font-size="10.00">xalanc/XercesParserLiaison</text>
<text text-anchor="middle" x="102.5" y="-7.5" font-family="Helvetica,sans-Serif" font-size="10.00">/Deprecated/XercesDocumentBridge.hpp</text>
</a>
</g>
</g>
<!-- Node2&#45;&gt;Node3 -->
<g id="edge2" class="edge"><title>Node2&#45;&gt;Node3</title>
<path fill="none" stroke="midnightblue" d="M102.5,-57.1081C102.5,-48.1539 102.5,-38.3227 102.5,-30.5765"/>
<polygon fill="midnightblue" stroke="midnightblue" points="99.0001,-57.3959 102.5,-67.396 106,-57.396 99.0001,-57.3959"/>
</g>
</g>
</svg>
