<?xml version="1.0" encoding="UTF-8" standalone="no"?>
<!DOCTYPE svg PUBLIC "-//W3C//DTD SVG 1.1//EN"
 "http://www.w3.org/Graphics/SVG/1.1/DTD/svg11.dtd">
<!-- Generated by graphviz version 2.38.0 (20140413.2041)
 -->
<!-- Title: xalanc/XercesParserLiaison/Deprecated/XercesCommentBridge.hpp Pages: 1 -->
<!--zoomable 408 -->
<svg id="main" version="1.1" xmlns="http://www.w3.org/2000/svg" xmlns:xlink="http://www.w3.org/1999/xlink" xml:space="preserve" onload="init(evt)">
<style type="text/css"><![CDATA[
.edge:hover path { stroke: red; }
.edge:hover polygon { stroke: red; fill: red; }
]]></style>
<script type="text/javascript"><![CDATA[
var edges = document.getElementsByTagName('g');
if (edges && edges.length) {
  for (var i=0;i<edges.length;i++) {
    if (edges[i].id.substr(0,4)=='edge') {
      edges[i].setAttribute('class','edge');
    }
  }
}
]]></script>
        <defs>
                <circle id="rim" cx="0" cy="0" r="7"/>
                <circle id="rim2" cx="0" cy="0" r="3.5"/>
                <g id="zoomPlus">
                        <use xlink:href="#rim" fill="#404040">
                                <set attributeName="fill" to="#808080" begin="zoomplus.mouseover" end="zoomplus.mouseout"/>
                        </use>
                        <path d="M-4,0h8M0,-4v8" fill="none" stroke="white" stroke-width="1.5" pointer-events="none"/>
                </g>
                <g id="zoomMin">
                        <use xlink:href="#rim" fill="#404040">
                                <set attributeName="fill" to="#808080" begin="zoomminus.mouseover" end="zoomminus.mouseout"/>
                        </use>
                        <path d="M-4,0h8" fill="none" stroke="white" stroke-width="1.5" pointer-events="none"/>
                </g>
                <g id="dirArrow">
                        <path fill="none" stroke="white" stroke-width="1.5" d="M0,-3.0v7 M-2.5,-0.5L0,-3.0L2.5,-0.5"/>
                </g>
               <g id="resetDef">
                       <use xlink:href="#rim2" fill="#404040">
                               <set attributeName="fill" to="#808080" begin="reset.mouseover" end="reset.mouseout"/>
                       </use>
               </g>
        </defs>

<script type="text/javascript">
var viewWidth = 662;
var viewHeight = 408;
var sectionId = 'dynsection-0';
</script>
<script xlink:href="svgpan.js"/>
<svg id="graph" class="graph">
<g id="viewport">
<title>xalanc/XercesParserLiaison/Deprecated/XercesCommentBridge.hpp</title>
<!-- Node1 -->
<g id="node1" class="node"><title>Node1</title>
<g id="a_node1"><a xlink:title=" ">
<polygon fill="#bfbfbf" stroke="black" points="97.936,-369.5 97.936,-399.5 287.936,-399.5 287.936,-369.5 97.936,-369.5"/>
<text text-anchor="start" x="105.936" y="-387.5" font-family="Helvetica,sans-Serif" font-size="10.00">xalanc/XercesParserLiaison</text>
<text text-anchor="middle" x="192.936" y="-376.5" font-family="Helvetica,sans-Serif" font-size="10.00">/Deprecated/XercesCommentBridge.hpp</text>
</a>
</g>
</g>
<!-- Node2 -->
<g id="node2" class="node"><title>Node2</title>
<g id="a_node2"><a xlink:href="XercesParserLiaisonDefinitions_8hpp.html" target="_top" xlink:title=" ">
<polygon fill="none" stroke="black" points="173.936,-235.5 173.936,-265.5 345.936,-265.5 345.936,-235.5 173.936,-235.5"/>
<text text-anchor="start" x="181.936" y="-253.5" font-family="Helvetica,sans-Serif" font-size="10.00">xalanc/XercesParserLiaison</text>
<text text-anchor="middle" x="259.936" y="-242.5" font-family="Helvetica,sans-Serif" font-size="10.00">/XercesParserLiaisonDefinitions.hpp</text>
</a>
</g>
</g>
<!-- Node1&#45;&gt;Node2 -->
<g id="edge1" class="edge"><title>Node1&#45;&gt;Node2</title>
<path fill="none" stroke="midnightblue" d="M97.9016,-372.36C37.9794,-361.409 -22.6059,-340.52 8.93597,-302 28.576,-278.015 101.33,-265.175 163.487,-258.455"/>
<polygon fill="midnightblue" stroke="midnightblue" points="164.173,-261.903 173.758,-257.389 163.45,-254.94 164.173,-261.903"/>
</g>
<!-- Node8 -->
<g id="node8" class="node"><title>Node8</title>
<g id="a_node8"><a xlink:title=" ">
<polygon fill="none" stroke="#bfbfbf" points="17.936,-308 17.936,-327 181.936,-327 181.936,-308 17.936,-308"/>
<text text-anchor="middle" x="99.936" y="-315" font-family="Helvetica,sans-Serif" font-size="10.00">xercesc/dom/DOM_Comment.hpp</text>
</a>
</g>
</g>
<!-- Node1&#45;&gt;Node8 -->
<g id="edge7" class="edge"><title>Node1&#45;&gt;Node8</title>
<path fill="none" stroke="midnightblue" d="M172.756,-369.396C157.305,-358.597 136.072,-343.756 120.521,-332.887"/>
<polygon fill="midnightblue" stroke="midnightblue" points="122.309,-329.867 112.108,-327.007 118.299,-335.605 122.309,-329.867"/>
</g>
<!-- Node9 -->
<g id="node9" class="node"><title>Node9</title>
<g id="a_node9"><a xlink:href="XalanComment_8hpp.html" target="_top" xlink:title=" ">
<polygon fill="none" stroke="black" points="392.436,-308 392.436,-327 573.436,-327 573.436,-308 392.436,-308"/>
<text text-anchor="middle" x="482.936" y="-315" font-family="Helvetica,sans-Serif" font-size="10.00">xalanc/XalanDOM/XalanComment.hpp</text>
</a>
</g>
</g>
<!-- Node1&#45;&gt;Node9 -->
<g id="edge8" class="edge"><title>Node1&#45;&gt;Node9</title>
<path fill="none" stroke="midnightblue" d="M255.505,-369.476C309.291,-357.421 385.736,-340.286 434.84,-329.28"/>
<polygon fill="midnightblue" stroke="midnightblue" points="435.893,-332.631 444.885,-327.029 434.362,-325.801 435.893,-332.631"/>
</g>
<!-- Node13 -->
<g id="node13" class="node"><title>Node13</title>
<g id="a_node13"><a xlink:href="XercesBridgeTypes_8hpp.html" target="_top" xlink:title=" ">
<polygon fill="none" stroke="black" points="199.936,-302.5 199.936,-332.5 373.936,-332.5 373.936,-302.5 199.936,-302.5"/>
<text text-anchor="start" x="207.936" y="-320.5" font-family="Helvetica,sans-Serif" font-size="10.00">xalanc/XercesParserLiaison</text>
<text text-anchor="middle" x="286.936" y="-309.5" font-family="Helvetica,sans-Serif" font-size="10.00">/Deprecated/XercesBridgeTypes.hpp</text>
</a>
</g>
</g>
<!-- Node1&#45;&gt;Node13 -->
<g id="edge15" class="edge"><title>Node1&#45;&gt;Node13</title>
<path fill="none" stroke="midnightblue" d="M213.333,-369.396C226.39,-360.367 243.531,-348.514 257.986,-338.518"/>
<polygon fill="midnightblue" stroke="midnightblue" points="260.345,-341.143 266.579,-332.577 256.363,-335.385 260.345,-341.143"/>
</g>
<!-- Node3 -->
<g id="node3" class="node"><title>Node3</title>
<g id="a_node3"><a xlink:href="PlatformDefinitions_8hpp.html" target="_top" xlink:title=" ">
<polygon fill="none" stroke="black" points="247.936,-67.5 247.936,-86.5 429.936,-86.5 429.936,-67.5 247.936,-67.5"/>
<text text-anchor="middle" x="338.936" y="-74.5" font-family="Helvetica,sans-Serif" font-size="10.00">xalanc/Include/PlatformDefinitions.hpp</text>
</a>
</g>
</g>
<!-- Node2&#45;&gt;Node3 -->
<g id="edge2" class="edge"><title>Node2&#45;&gt;Node3</title>
<path fill="none" stroke="midnightblue" d="M254.597,-235.261C249.977,-220.683 245.033,-197.592 251.936,-179 265.377,-142.8 298.255,-110.884 319.523,-93.0442"/>
<polygon fill="midnightblue" stroke="midnightblue" points="321.761,-95.7352 327.306,-86.7072 317.342,-90.3068 321.761,-95.7352"/>
</g>
<!-- Node7 -->
<g id="node7" class="node"><title>Node7</title>
<g id="a_node7"><a xlink:title=" ">
<polygon fill="none" stroke="#bfbfbf" points="261.436,-179.5 261.436,-198.5 398.436,-198.5 398.436,-179.5 261.436,-179.5"/>
<text text-anchor="middle" x="329.936" y="-186.5" font-family="Helvetica,sans-Serif" font-size="10.00">xercesc/util/XercesDefs.hpp</text>
</a>
</g>
</g>
<!-- Node2&#45;&gt;Node7 -->
<g id="edge6" class="edge"><title>Node2&#45;&gt;Node7</title>
<path fill="none" stroke="midnightblue" d="M276.525,-235.399C287.221,-226.308 301.124,-214.49 312.064,-205.191"/>
<polygon fill="midnightblue" stroke="midnightblue" points="314.398,-207.801 319.75,-198.658 309.864,-202.468 314.398,-207.801"/>
</g>
<!-- Node4 -->
<g id="node4" class="node"><title>Node4</title>
<g id="a_node4"><a xlink:title=" ">
<polygon fill="none" stroke="#bfbfbf" points="136.936,-0.5 136.936,-30.5 244.936,-30.5 244.936,-0.5 136.936,-0.5"/>
<text text-anchor="start" x="144.936" y="-18.5" font-family="Helvetica,sans-Serif" font-size="10.00">xercesc/util/Xerces</text>
<text text-anchor="middle" x="190.936" y="-7.5" font-family="Helvetica,sans-Serif" font-size="10.00">_autoconf_config.hpp</text>
</a>
</g>
</g>
<!-- Node3&#45;&gt;Node4 -->
<g id="edge3" class="edge"><title>Node3&#45;&gt;Node4</title>
<path fill="none" stroke="midnightblue" d="M317.731,-67.4751C296.282,-58.8518 262.484,-45.2641 235.175,-34.2852"/>
<polygon fill="midnightblue" stroke="midnightblue" points="236.4,-31.0058 225.817,-30.523 233.789,-37.5005 236.4,-31.0058"/>
</g>
<!-- Node5 -->
<g id="node5" class="node"><title>Node5</title>
<g id="a_node5"><a xlink:title=" ">
<polygon fill="none" stroke="#bfbfbf" points="263.436,-6 263.436,-25 414.436,-25 414.436,-6 263.436,-6"/>
<text text-anchor="middle" x="338.936" y="-13" font-family="Helvetica,sans-Serif" font-size="10.00">xercesc/util/XercesVersion.hpp</text>
</a>
</g>
</g>
<!-- Node3&#45;&gt;Node5 -->
<g id="edge4" class="edge"><title>Node3&#45;&gt;Node5</title>
<path fill="none" stroke="midnightblue" d="M338.936,-67.4751C338.936,-59.0803 338.936,-45.9806 338.936,-35.1631"/>
<polygon fill="midnightblue" stroke="midnightblue" points="342.436,-35.0091 338.936,-25.0091 335.436,-35.0091 342.436,-35.0091"/>
</g>
<!-- Node6 -->
<g id="node6" class="node"><title>Node6</title>
<g id="a_node6"><a xlink:href="XalanVersion_8hpp.html" target="_top" xlink:title=" ">
<polygon fill="none" stroke="black" points="432.936,-6 432.936,-25 524.936,-25 524.936,-6 432.936,-6"/>
<text text-anchor="middle" x="478.936" y="-13" font-family="Helvetica,sans-Serif" font-size="10.00">XalanVersion.hpp</text>
</a>
</g>
</g>
<!-- Node3&#45;&gt;Node6 -->
<g id="edge5" class="edge"><title>Node3&#45;&gt;Node6</title>
<path fill="none" stroke="midnightblue" d="M358.995,-67.4751C382.698,-57.4013 422.342,-40.5525 449.519,-29.0023"/>
<polygon fill="midnightblue" stroke="midnightblue" points="451.08,-32.1417 458.915,-25.0091 448.342,-25.6994 451.08,-32.1417"/>
</g>
<!-- Node10 -->
<g id="node10" class="node"><title>Node10</title>
<g id="a_node10"><a xlink:href="XalanDOMDefinitions_8hpp.html" target="_top" xlink:title=" ">
<polygon fill="none" stroke="black" points="342.936,-123.5 342.936,-142.5 548.936,-142.5 548.936,-123.5 342.936,-123.5"/>
<text text-anchor="middle" x="445.936" y="-130.5" font-family="Helvetica,sans-Serif" font-size="10.00">xalanc/XalanDOM/XalanDOMDefinitions.hpp</text>
</a>
</g>
</g>
<!-- Node9&#45;&gt;Node10 -->
<g id="edge9" class="edge"><title>Node9&#45;&gt;Node10</title>
<path fill="none" stroke="midnightblue" d="M473.848,-307.843C464.773,-298.512 451.41,-282.735 445.936,-266 433.274,-227.295 438.191,-178.72 442.383,-152.628"/>
<polygon fill="midnightblue" stroke="midnightblue" points="445.857,-153.081 444.137,-142.626 438.962,-151.872 445.857,-153.081"/>
</g>
<!-- Node11 -->
<g id="node11" class="node"><title>Node11</title>
<g id="a_node11"><a xlink:href="XalanCharacterData_8hpp.html" target="_top" xlink:title=" ">
<polygon fill="none" stroke="black" points="454.936,-235.5 454.936,-265.5 616.936,-265.5 616.936,-235.5 454.936,-235.5"/>
<text text-anchor="start" x="462.936" y="-253.5" font-family="Helvetica,sans-Serif" font-size="10.00">xalanc/XalanDOM/XalanCharacter</text>
<text text-anchor="middle" x="535.936" y="-242.5" font-family="Helvetica,sans-Serif" font-size="10.00">Data.hpp</text>
</a>
</g>
</g>
<!-- Node9&#45;&gt;Node11 -->
<g id="edge11" class="edge"><title>Node9&#45;&gt;Node11</title>
<path fill="none" stroke="midnightblue" d="M490.084,-307.734C497.178,-299.034 508.34,-285.345 517.874,-273.651"/>
<polygon fill="midnightblue" stroke="midnightblue" points="520.841,-275.551 524.448,-265.589 515.416,-271.127 520.841,-275.551"/>
</g>
<!-- Node10&#45;&gt;Node3 -->
<g id="edge10" class="edge"><title>Node10&#45;&gt;Node3</title>
<path fill="none" stroke="midnightblue" d="M428.745,-123.324C411.585,-114.664 384.99,-101.242 365.189,-91.249"/>
<polygon fill="midnightblue" stroke="midnightblue" points="366.589,-88.0354 356.085,-86.6545 363.435,-94.2847 366.589,-88.0354"/>
</g>
<!-- Node11&#45;&gt;Node10 -->
<g id="edge12" class="edge"><title>Node11&#45;&gt;Node10</title>
<path fill="none" stroke="midnightblue" d="M519.72,-235.402C509.137,-225.751 495.398,-212.331 484.936,-199 473.282,-184.15 462.444,-165.535 455.166,-152.036"/>
<polygon fill="midnightblue" stroke="midnightblue" points="458.092,-150.08 450.34,-142.858 451.896,-153.338 458.092,-150.08"/>
</g>
<!-- Node12 -->
<g id="node12" class="node"><title>Node12</title>
<g id="a_node12"><a xlink:href="XalanNode_8hpp.html" target="_top" xlink:title=" ">
<polygon fill="none" stroke="black" points="493.436,-179.5 493.436,-198.5 654.436,-198.5 654.436,-179.5 493.436,-179.5"/>
<text text-anchor="middle" x="573.936" y="-186.5" font-family="Helvetica,sans-Serif" font-size="10.00">xalanc/XalanDOM/XalanNode.hpp</text>
</a>
</g>
</g>
<!-- Node11&#45;&gt;Node12 -->
<g id="edge13" class="edge"><title>Node11&#45;&gt;Node12</title>
<path fill="none" stroke="midnightblue" d="M544.941,-235.399C550.349,-226.932 557.268,-216.099 562.99,-207.139"/>
<polygon fill="midnightblue" stroke="midnightblue" points="565.974,-208.97 568.407,-198.658 560.074,-205.202 565.974,-208.97"/>
</g>
<!-- Node12&#45;&gt;Node10 -->
<g id="edge14" class="edge"><title>Node12&#45;&gt;Node10</title>
<path fill="none" stroke="midnightblue" d="M553.654,-179.444C532.589,-170.557 499.419,-156.563 475.45,-146.451"/>
<polygon fill="midnightblue" stroke="midnightblue" points="476.697,-143.179 466.123,-142.516 473.976,-149.628 476.697,-143.179"/>
</g>
<!-- Node13&#45;&gt;Node2 -->
<g id="edge16" class="edge"><title>Node13&#45;&gt;Node2</title>
<path fill="none" stroke="midnightblue" d="M281.077,-302.396C277.752,-294.389 273.503,-284.162 269.688,-274.978"/>
<polygon fill="midnightblue" stroke="midnightblue" points="272.851,-273.469 265.783,-265.577 266.387,-276.154 272.851,-273.469"/>
</g>
</g>
</svg>
        <g id="navigator" transform="translate(0 0)" fill="#404254">
                <rect fill="#f2f5e9" fill-opacity="0.5" stroke="#606060" stroke-width=".5" x="0" y="0" width="60" height="60"/>
                <use id="zoomplus" xlink:href="#zoomPlus" x="17" y="9" onmousedown="handleZoom(evt,'in')"/>
                <use id="zoomminus" xlink:href="#zoomMin" x="42" y="9" onmousedown="handleZoom(evt,'out')"/>
                <use id="reset" xlink:href="#resetDef" x="30" y="36" onmousedown="handleReset()"/>
                <g id="arrowUp" xlink:href="#dirArrow" transform="translate(30 24)" onmousedown="handlePan(0,-1)">
                  <use xlink:href="#rim" fill="#404040">
                        <set attributeName="fill" to="#808080" begin="arrowUp.mouseover" end="arrowUp.mouseout"/>
                  </use>
                  <path fill="none" stroke="white" stroke-width="1.5" d="M0,-3.0v7 M-2.5,-0.5L0,-3.0L2.5,-0.5"/>
                </g>
                <g id="arrowRight" xlink:href="#dirArrow" transform="rotate(90) translate(36 -43)" onmousedown="handlePan(1,0)">
                  <use xlink:href="#rim" fill="#404040">
                        <set attributeName="fill" to="#808080" begin="arrowRight.mouseover" end="arrowRight.mouseout"/>
                  </use>
                  <path fill="none" stroke="white" stroke-width="1.5" d="M0,-3.0v7 M-2.5,-0.5L0,-3.0L2.5,-0.5"/>
                </g>
                <g id="arrowDown" xlink:href="#dirArrow" transform="rotate(180) translate(-30 -48)" onmousedown="handlePan(0,1)">
                  <use xlink:href="#rim" fill="#404040">
                        <set attributeName="fill" to="#808080" begin="arrowDown.mouseover" end="arrowDown.mouseout"/>
                  </use>
                  <path fill="none" stroke="white" stroke-width="1.5" d="M0,-3.0v7 M-2.5,-0.5L0,-3.0L2.5,-0.5"/>
                </g>
                <g id="arrowLeft" xlink:href="#dirArrow" transform="rotate(270) translate(-36 17)" onmousedown="handlePan(-1,0)">
                  <use xlink:href="#rim" fill="#404040">
                        <set attributeName="fill" to="#808080" begin="arrowLeft.mouseover" end="arrowLeft.mouseout"/>
                  </use>
                  <path fill="none" stroke="white" stroke-width="1.5" d="M0,-3.0v7 M-2.5,-0.5L0,-3.0L2.5,-0.5"/>
                </g>
        </g>
        <svg viewBox="0 0 15 15" width="100%" height="30px" preserveAspectRatio="xMaxYMin meet">
         <g id="arrow_out" transform="scale(0.3 0.3)">
          <a xlink:href="XercesCommentBridge_8hpp__incl_org.svg" target="_base">
           <rect id="button" ry="5" rx="5" y="6" x="6" height="38" width="38"
                fill="#f2f5e9" fill-opacity="0.5" stroke="#606060" stroke-width="1.0"/>
           <path id="arrow"
             d="M 11.500037,31.436501 C 11.940474,20.09759 22.043105,11.32322 32.158766,21.979434 L 37.068811,17.246167 C 37.068811,17.246167 37.088388,32 37.088388,32 L 22.160133,31.978069 C 22.160133,31.978069 26.997745,27.140456 26.997745,27.140456 C 18.528582,18.264221 13.291696,25.230495 11.500037,31.436501 z"
             style="fill:#404040;"/>
          </a>
         </g>
        </svg>
</svg>
