<?xml version="1.0" encoding="UTF-8" standalone="no"?>
<!DOCTYPE svg PUBLIC "-//W3C//DTD SVG 1.1//EN"
 "http://www.w3.org/Graphics/SVG/1.1/DTD/svg11.dtd">
<!-- Generated by graphviz version 2.38.0 (20140413.2041)
 -->
<!-- Title: xalanc/XercesParserLiaison/Deprecated/XercesDocumentTypeBridge.hpp Pages: 1 -->
<!--zoomable 352 -->
<svg id="main" version="1.1" xmlns="http://www.w3.org/2000/svg" xmlns:xlink="http://www.w3.org/1999/xlink" xml:space="preserve" onload="init(evt)">
<style type="text/css"><![CDATA[
.edge:hover path { stroke: red; }
.edge:hover polygon { stroke: red; fill: red; }
]]></style>
<script type="text/javascript"><![CDATA[
var edges = document.getElementsByTagName('g');
if (edges && edges.length) {
  for (var i=0;i<edges.length;i++) {
    if (edges[i].id.substr(0,4)=='edge') {
      edges[i].setAttribute('class','edge');
    }
  }
}
]]></script>
        <defs>
                <circle id="rim" cx="0" cy="0" r="7"/>
                <circle id="rim2" cx="0" cy="0" r="3.5"/>
                <g id="zoomPlus">
                        <use xlink:href="#rim" fill="#404040">
                                <set attributeName="fill" to="#808080" begin="zoomplus.mouseover" end="zoomplus.mouseout"/>
                        </use>
                        <path d="M-4,0h8M0,-4v8" fill="none" stroke="white" stroke-width="1.5" pointer-events="none"/>
                </g>
                <g id="zoomMin">
                        <use xlink:href="#rim" fill="#404040">
                                <set attributeName="fill" to="#808080" begin="zoomminus.mouseover" end="zoomminus.mouseout"/>
                        </use>
                        <path d="M-4,0h8" fill="none" stroke="white" stroke-width="1.5" pointer-events="none"/>
                </g>
                <g id="dirArrow">
                        <path fill="none" stroke="white" stroke-width="1.5" d="M0,-3.0v7 M-2.5,-0.5L0,-3.0L2.5,-0.5"/>
                </g>
               <g id="resetDef">
                       <use xlink:href="#rim2" fill="#404040">
                               <set attributeName="fill" to="#808080" begin="reset.mouseover" end="reset.mouseout"/>
                       </use>
               </g>
        </defs>

<script type="text/javascript">
var viewWidth = 814;
var viewHeight = 352;
var sectionId = 'dynsection-0';
</script>
<script xlink:href="svgpan.js"/>
<svg id="graph" class="graph">
<g id="viewport">
<title>xalanc/XercesParserLiaison/Deprecated/XercesDocumentTypeBridge.hpp</title>
<!-- Node1 -->
<g id="node1" class="node"><title>Node1</title>
<g id="a_node1"><a xlink:title=" ">
<polygon fill="#bfbfbf" stroke="black" points="359,-313.5 359,-343.5 572,-343.5 572,-313.5 359,-313.5"/>
<text text-anchor="start" x="367" y="-331.5" font-family="Helvetica,sans-Serif" font-size="10.00">xalanc/XercesParserLiaison</text>
<text text-anchor="middle" x="465.5" y="-320.5" font-family="Helvetica,sans-Serif" font-size="10.00">/Deprecated/XercesDocumentTypeBridge.hpp</text>
</a>
</g>
</g>
<!-- Node2 -->
<g id="node2" class="node"><title>Node2</title>
<g id="a_node2"><a xlink:href="XercesParserLiaisonDefinitions_8hpp.html" target="_top" xlink:title=" ">
<polygon fill="none" stroke="black" points="562.5,-179.5 562.5,-209.5 734.5,-209.5 734.5,-179.5 562.5,-179.5"/>
<text text-anchor="start" x="570.5" y="-197.5" font-family="Helvetica,sans-Serif" font-size="10.00">xalanc/XercesParserLiaison</text>
<text text-anchor="middle" x="648.5" y="-186.5" font-family="Helvetica,sans-Serif" font-size="10.00">/XercesParserLiaisonDefinitions.hpp</text>
</a>
</g>
</g>
<!-- Node1&#45;&gt;Node2 -->
<g id="edge1" class="edge"><title>Node1&#45;&gt;Node2</title>
<path fill="none" stroke="midnightblue" d="M513.333,-313.433C536.315,-305.183 563.38,-293.163 584.5,-277 605.547,-260.893 623.565,-236.334 635.07,-218.385"/>
<polygon fill="midnightblue" stroke="midnightblue" points="638.173,-220.023 640.474,-209.681 632.226,-216.33 638.173,-220.023"/>
</g>
<!-- Node8 -->
<g id="node8" class="node"><title>Node8</title>
<g id="a_node8"><a xlink:title=" ">
<polygon fill="none" stroke="#bfbfbf" points="189.5,-246.5 189.5,-276.5 337.5,-276.5 337.5,-246.5 189.5,-246.5"/>
<text text-anchor="start" x="197.5" y="-264.5" font-family="Helvetica,sans-Serif" font-size="10.00">xercesc/dom/DOM_Document</text>
<text text-anchor="middle" x="263.5" y="-253.5" font-family="Helvetica,sans-Serif" font-size="10.00">Type.hpp</text>
</a>
</g>
</g>
<!-- Node1&#45;&gt;Node8 -->
<g id="edge7" class="edge"><title>Node1&#45;&gt;Node8</title>
<path fill="none" stroke="midnightblue" d="M421.669,-313.396C390.963,-303.515 349.746,-290.252 317.086,-279.743"/>
<polygon fill="midnightblue" stroke="midnightblue" points="317.837,-276.308 307.245,-276.577 315.693,-282.971 317.837,-276.308"/>
</g>
<!-- Node9 -->
<g id="node9" class="node"><title>Node9</title>
<g id="a_node9"><a xlink:href="XalanDocumentType_8hpp.html" target="_top" xlink:title=" ">
<polygon fill="none" stroke="black" points="7.5,-246.5 7.5,-276.5 171.5,-276.5 171.5,-246.5 7.5,-246.5"/>
<text text-anchor="start" x="15.5" y="-264.5" font-family="Helvetica,sans-Serif" font-size="10.00">xalanc/XalanDOM/XalanDocument</text>
<text text-anchor="middle" x="89.5" y="-253.5" font-family="Helvetica,sans-Serif" font-size="10.00">Type.hpp</text>
</a>
</g>
</g>
<!-- Node1&#45;&gt;Node9 -->
<g id="edge8" class="edge"><title>Node1&#45;&gt;Node9</title>
<path fill="none" stroke="midnightblue" d="M384.377,-313.476C324.56,-303.135 243.128,-289.058 180.993,-278.317"/>
<polygon fill="midnightblue" stroke="midnightblue" points="181.252,-274.81 170.802,-276.555 180.06,-281.707 181.252,-274.81"/>
</g>
<!-- Node12 -->
<g id="node12" class="node"><title>Node12</title>
<g id="a_node12"><a xlink:href="XercesBridgeTypes_8hpp.html" target="_top" xlink:title=" ">
<polygon fill="none" stroke="black" points="631.5,-246.5 631.5,-276.5 805.5,-276.5 805.5,-246.5 631.5,-246.5"/>
<text text-anchor="start" x="639.5" y="-264.5" font-family="Helvetica,sans-Serif" font-size="10.00">xalanc/XercesParserLiaison</text>
<text text-anchor="middle" x="718.5" y="-253.5" font-family="Helvetica,sans-Serif" font-size="10.00">/Deprecated/XercesBridgeTypes.hpp</text>
</a>
</g>
</g>
<!-- Node1&#45;&gt;Node12 -->
<g id="edge13" class="edge"><title>Node1&#45;&gt;Node12</title>
<path fill="none" stroke="midnightblue" d="M520.086,-313.476C559.355,-303.387 612.468,-289.741 653.86,-279.107"/>
<polygon fill="midnightblue" stroke="midnightblue" points="654.761,-282.489 663.576,-276.611 653.02,-275.709 654.761,-282.489"/>
</g>
<!-- Node13 -->
<g id="node13" class="node"><title>Node13</title>
<g id="a_node13"><a xlink:href="XercesNamedNodeMapBridge_8hpp.html" target="_top" xlink:title=" ">
<polygon fill="none" stroke="black" points="355.5,-246.5 355.5,-276.5 575.5,-276.5 575.5,-246.5 355.5,-246.5"/>
<text text-anchor="start" x="363.5" y="-264.5" font-family="Helvetica,sans-Serif" font-size="10.00">xalanc/XercesParserLiaison</text>
<text text-anchor="middle" x="465.5" y="-253.5" font-family="Helvetica,sans-Serif" font-size="10.00">/Deprecated/XercesNamedNodeMapBridge.hpp</text>
</a>
</g>
</g>
<!-- Node1&#45;&gt;Node13 -->
<g id="edge15" class="edge"><title>Node1&#45;&gt;Node13</title>
<path fill="none" stroke="midnightblue" d="M465.5,-313.396C465.5,-305.645 465.5,-295.812 465.5,-286.86"/>
<polygon fill="midnightblue" stroke="midnightblue" points="469,-286.576 465.5,-276.577 462,-286.577 469,-286.576"/>
</g>
<!-- Node3 -->
<g id="node3" class="node"><title>Node3</title>
<g id="a_node3"><a xlink:href="PlatformDefinitions_8hpp.html" target="_top" xlink:title=" ">
<polygon fill="none" stroke="black" points="379.5,-67.5 379.5,-86.5 561.5,-86.5 561.5,-67.5 379.5,-67.5"/>
<text text-anchor="middle" x="470.5" y="-74.5" font-family="Helvetica,sans-Serif" font-size="10.00">xalanc/Include/PlatformDefinitions.hpp</text>
</a>
</g>
</g>
<!-- Node2&#45;&gt;Node3 -->
<g id="edge2" class="edge"><title>Node2&#45;&gt;Node3</title>
<path fill="none" stroke="midnightblue" d="M648.374,-179.312C647.452,-163.453 643.516,-138.031 628.5,-123 612.083,-106.565 590.119,-96.0333 567.799,-89.3115"/>
<polygon fill="midnightblue" stroke="midnightblue" points="568.455,-85.8616 557.884,-86.5708 566.59,-92.6086 568.455,-85.8616"/>
</g>
<!-- Node7 -->
<g id="node7" class="node"><title>Node7</title>
<g id="a_node7"><a xlink:title=" ">
<polygon fill="none" stroke="#bfbfbf" points="483,-123.5 483,-142.5 620,-142.5 620,-123.5 483,-123.5"/>
<text text-anchor="middle" x="551.5" y="-130.5" font-family="Helvetica,sans-Serif" font-size="10.00">xercesc/util/XercesDefs.hpp</text>
</a>
</g>
</g>
<!-- Node2&#45;&gt;Node7 -->
<g id="edge6" class="edge"><title>Node2&#45;&gt;Node7</title>
<path fill="none" stroke="midnightblue" d="M625.512,-179.399C610.109,-169.951 589.907,-157.559 574.501,-148.109"/>
<polygon fill="midnightblue" stroke="midnightblue" points="575.969,-144.903 565.614,-142.658 572.308,-150.87 575.969,-144.903"/>
</g>
<!-- Node4 -->
<g id="node4" class="node"><title>Node4</title>
<g id="a_node4"><a xlink:title=" ">
<polygon fill="none" stroke="#bfbfbf" points="268.5,-0.5 268.5,-30.5 376.5,-30.5 376.5,-0.5 268.5,-0.5"/>
<text text-anchor="start" x="276.5" y="-18.5" font-family="Helvetica,sans-Serif" font-size="10.00">xercesc/util/Xerces</text>
<text text-anchor="middle" x="322.5" y="-7.5" font-family="Helvetica,sans-Serif" font-size="10.00">_autoconf_config.hpp</text>
</a>
</g>
</g>
<!-- Node3&#45;&gt;Node4 -->
<g id="edge3" class="edge"><title>Node3&#45;&gt;Node4</title>
<path fill="none" stroke="midnightblue" d="M449.295,-67.4751C427.846,-58.8518 394.048,-45.2641 366.739,-34.2852"/>
<polygon fill="midnightblue" stroke="midnightblue" points="367.965,-31.0058 357.381,-30.523 365.353,-37.5005 367.965,-31.0058"/>
</g>
<!-- Node5 -->
<g id="node5" class="node"><title>Node5</title>
<g id="a_node5"><a xlink:title=" ">
<polygon fill="none" stroke="#bfbfbf" points="395,-6 395,-25 546,-25 546,-6 395,-6"/>
<text text-anchor="middle" x="470.5" y="-13" font-family="Helvetica,sans-Serif" font-size="10.00">xercesc/util/XercesVersion.hpp</text>
</a>
</g>
</g>
<!-- Node3&#45;&gt;Node5 -->
<g id="edge4" class="edge"><title>Node3&#45;&gt;Node5</title>
<path fill="none" stroke="midnightblue" d="M470.5,-67.4751C470.5,-59.0803 470.5,-45.9806 470.5,-35.1631"/>
<polygon fill="midnightblue" stroke="midnightblue" points="474,-35.0091 470.5,-25.0091 467,-35.0091 474,-35.0091"/>
</g>
<!-- Node6 -->
<g id="node6" class="node"><title>Node6</title>
<g id="a_node6"><a xlink:href="XalanVersion_8hpp.html" target="_top" xlink:title=" ">
<polygon fill="none" stroke="black" points="564.5,-6 564.5,-25 656.5,-25 656.5,-6 564.5,-6"/>
<text text-anchor="middle" x="610.5" y="-13" font-family="Helvetica,sans-Serif" font-size="10.00">XalanVersion.hpp</text>
</a>
</g>
</g>
<!-- Node3&#45;&gt;Node6 -->
<g id="edge5" class="edge"><title>Node3&#45;&gt;Node6</title>
<path fill="none" stroke="midnightblue" d="M490.559,-67.4751C514.262,-57.4013 553.906,-40.5525 581.083,-29.0023"/>
<polygon fill="midnightblue" stroke="midnightblue" points="582.644,-32.1417 590.479,-25.0091 579.906,-25.6994 582.644,-32.1417"/>
</g>
<!-- Node10 -->
<g id="node10" class="node"><title>Node10</title>
<g id="a_node10"><a xlink:href="XalanDOMDefinitions_8hpp.html" target="_top" xlink:title=" ">
<polygon fill="none" stroke="black" points="138.5,-123.5 138.5,-142.5 344.5,-142.5 344.5,-123.5 138.5,-123.5"/>
<text text-anchor="middle" x="241.5" y="-130.5" font-family="Helvetica,sans-Serif" font-size="10.00">xalanc/XalanDOM/XalanDOMDefinitions.hpp</text>
</a>
</g>
</g>
<!-- Node9&#45;&gt;Node10 -->
<g id="edge9" class="edge"><title>Node9&#45;&gt;Node10</title>
<path fill="none" stroke="midnightblue" d="M115.468,-246.332C131.687,-236.956 152.621,-223.867 169.5,-210 191.777,-191.698 214.091,-166.898 227.843,-150.679"/>
<polygon fill="midnightblue" stroke="midnightblue" points="230.826,-152.567 234.547,-142.647 225.452,-148.081 230.826,-152.567"/>
</g>
<!-- Node11 -->
<g id="node11" class="node"><title>Node11</title>
<g id="a_node11"><a xlink:href="XalanNode_8hpp.html" target="_top" xlink:title=" ">
<polygon fill="none" stroke="black" points="0,-185 0,-204 161,-204 161,-185 0,-185"/>
<text text-anchor="middle" x="80.5" y="-192" font-family="Helvetica,sans-Serif" font-size="10.00">xalanc/XalanDOM/XalanNode.hpp</text>
</a>
</g>
</g>
<!-- Node9&#45;&gt;Node11 -->
<g id="edge11" class="edge"><title>Node9&#45;&gt;Node11</title>
<path fill="none" stroke="midnightblue" d="M87.5471,-246.396C86.2411,-236.963 84.5082,-224.448 83.0877,-214.189"/>
<polygon fill="midnightblue" stroke="midnightblue" points="86.5424,-213.62 81.7039,-204.195 79.6085,-214.58 86.5424,-213.62"/>
</g>
<!-- Node10&#45;&gt;Node3 -->
<g id="edge10" class="edge"><title>Node10&#45;&gt;Node3</title>
<path fill="none" stroke="midnightblue" d="M277.786,-123.444C317.483,-114.083 381.207,-99.0561 424.412,-88.868"/>
<polygon fill="midnightblue" stroke="midnightblue" points="425.454,-92.2182 434.384,-86.5164 423.848,-85.4051 425.454,-92.2182"/>
</g>
<!-- Node11&#45;&gt;Node10 -->
<g id="edge12" class="edge"><title>Node11&#45;&gt;Node10</title>
<path fill="none" stroke="midnightblue" d="M103.567,-184.975C131.185,-174.769 177.62,-157.608 208.896,-146.049"/>
<polygon fill="midnightblue" stroke="midnightblue" points="210.309,-149.259 218.475,-142.509 207.882,-142.693 210.309,-149.259"/>
</g>
<!-- Node12&#45;&gt;Node2 -->
<g id="edge14" class="edge"><title>Node12&#45;&gt;Node2</title>
<path fill="none" stroke="midnightblue" d="M703.311,-246.396C693.955,-237.708 681.782,-226.405 671.285,-216.658"/>
<polygon fill="midnightblue" stroke="midnightblue" points="673.369,-213.816 663.659,-209.577 668.606,-218.946 673.369,-213.816"/>
</g>
<!-- Node13&#45;&gt;Node2 -->
<g id="edge16" class="edge"><title>Node13&#45;&gt;Node2</title>
<path fill="none" stroke="midnightblue" d="M505.208,-246.396C532.786,-236.601 569.723,-223.481 599.188,-213.015"/>
<polygon fill="midnightblue" stroke="midnightblue" points="600.617,-216.222 608.869,-209.577 598.274,-209.625 600.617,-216.222"/>
</g>
<!-- Node14 -->
<g id="node14" class="node"><title>Node14</title>
<g id="a_node14"><a xlink:title=" ">
<polygon fill="none" stroke="#bfbfbf" points="387,-179.5 387,-209.5 544,-209.5 544,-179.5 387,-179.5"/>
<text text-anchor="start" x="395" y="-197.5" font-family="Helvetica,sans-Serif" font-size="10.00">xercesc/dom/DOM_NamedNode</text>
<text text-anchor="middle" x="465.5" y="-186.5" font-family="Helvetica,sans-Serif" font-size="10.00">Map.hpp</text>
</a>
</g>
</g>
<!-- Node13&#45;&gt;Node14 -->
<g id="edge17" class="edge"><title>Node13&#45;&gt;Node14</title>
<path fill="none" stroke="midnightblue" d="M465.5,-246.396C465.5,-238.645 465.5,-228.812 465.5,-219.86"/>
<polygon fill="midnightblue" stroke="midnightblue" points="469,-219.576 465.5,-209.577 462,-219.577 469,-219.576"/>
</g>
<!-- Node15 -->
<g id="node15" class="node"><title>Node15</title>
<g id="a_node15"><a xlink:href="XalanNamedNodeMap_8hpp.html" target="_top" xlink:title=" ">
<polygon fill="none" stroke="black" points="218,-179.5 218,-209.5 369,-209.5 369,-179.5 218,-179.5"/>
<text text-anchor="start" x="226" y="-197.5" font-family="Helvetica,sans-Serif" font-size="10.00">xalanc/XalanDOM/XalanNamed</text>
<text text-anchor="middle" x="293.5" y="-186.5" font-family="Helvetica,sans-Serif" font-size="10.00">NodeMap.hpp</text>
</a>
</g>
</g>
<!-- Node13&#45;&gt;Node15 -->
<g id="edge18" class="edge"><title>Node13&#45;&gt;Node15</title>
<path fill="none" stroke="midnightblue" d="M428.179,-246.396C402.371,-236.643 367.844,-223.595 340.21,-213.152"/>
<polygon fill="midnightblue" stroke="midnightblue" points="341.34,-209.838 330.749,-209.577 338.866,-216.386 341.34,-209.838"/>
</g>
<!-- Node15&#45;&gt;Node10 -->
<g id="edge19" class="edge"><title>Node15&#45;&gt;Node10</title>
<path fill="none" stroke="midnightblue" d="M281.177,-179.399C273.543,-170.664 263.709,-159.413 255.742,-150.296"/>
<polygon fill="midnightblue" stroke="midnightblue" points="258.282,-147.884 249.066,-142.658 253.012,-152.491 258.282,-147.884"/>
</g>
</g>
</svg>
        <g id="navigator" transform="translate(0 0)" fill="#404254">
                <rect fill="#f2f5e9" fill-opacity="0.5" stroke="#606060" stroke-width=".5" x="0" y="0" width="60" height="60"/>
                <use id="zoomplus" xlink:href="#zoomPlus" x="17" y="9" onmousedown="handleZoom(evt,'in')"/>
                <use id="zoomminus" xlink:href="#zoomMin" x="42" y="9" onmousedown="handleZoom(evt,'out')"/>
                <use id="reset" xlink:href="#resetDef" x="30" y="36" onmousedown="handleReset()"/>
                <g id="arrowUp" xlink:href="#dirArrow" transform="translate(30 24)" onmousedown="handlePan(0,-1)">
                  <use xlink:href="#rim" fill="#404040">
                        <set attributeName="fill" to="#808080" begin="arrowUp.mouseover" end="arrowUp.mouseout"/>
                  </use>
                  <path fill="none" stroke="white" stroke-width="1.5" d="M0,-3.0v7 M-2.5,-0.5L0,-3.0L2.5,-0.5"/>
                </g>
                <g id="arrowRight" xlink:href="#dirArrow" transform="rotate(90) translate(36 -43)" onmousedown="handlePan(1,0)">
                  <use xlink:href="#rim" fill="#404040">
                        <set attributeName="fill" to="#808080" begin="arrowRight.mouseover" end="arrowRight.mouseout"/>
                  </use>
                  <path fill="none" stroke="white" stroke-width="1.5" d="M0,-3.0v7 M-2.5,-0.5L0,-3.0L2.5,-0.5"/>
                </g>
                <g id="arrowDown" xlink:href="#dirArrow" transform="rotate(180) translate(-30 -48)" onmousedown="handlePan(0,1)">
                  <use xlink:href="#rim" fill="#404040">
                        <set attributeName="fill" to="#808080" begin="arrowDown.mouseover" end="arrowDown.mouseout"/>
                  </use>
                  <path fill="none" stroke="white" stroke-width="1.5" d="M0,-3.0v7 M-2.5,-0.5L0,-3.0L2.5,-0.5"/>
                </g>
                <g id="arrowLeft" xlink:href="#dirArrow" transform="rotate(270) translate(-36 17)" onmousedown="handlePan(-1,0)">
                  <use xlink:href="#rim" fill="#404040">
                        <set attributeName="fill" to="#808080" begin="arrowLeft.mouseover" end="arrowLeft.mouseout"/>
                  </use>
                  <path fill="none" stroke="white" stroke-width="1.5" d="M0,-3.0v7 M-2.5,-0.5L0,-3.0L2.5,-0.5"/>
                </g>
        </g>
        <svg viewBox="0 0 15 15" width="100%" height="30px" preserveAspectRatio="xMaxYMin meet">
         <g id="arrow_out" transform="scale(0.3 0.3)">
          <a xlink:href="XercesDocumentTypeBridge_8hpp__incl_org.svg" target="_base">
           <rect id="button" ry="5" rx="5" y="6" x="6" height="38" width="38"
                fill="#f2f5e9" fill-opacity="0.5" stroke="#606060" stroke-width="1.0"/>
           <path id="arrow"
             d="M 11.500037,31.436501 C 11.940474,20.09759 22.043105,11.32322 32.158766,21.979434 L 37.068811,17.246167 C 37.068811,17.246167 37.088388,32 37.088388,32 L 22.160133,31.978069 C 22.160133,31.978069 26.997745,27.140456 26.997745,27.140456 C 18.528582,18.264221 13.291696,25.230495 11.500037,31.436501 z"
             style="fill:#404040;"/>
          </a>
         </g>
        </svg>
</svg>
