<?xml version="1.0" encoding="UTF-8" standalone="no"?>
<!DOCTYPE svg PUBLIC "-//W3C//DTD SVG 1.1//EN"
 "http://www.w3.org/Graphics/SVG/1.1/DTD/svg11.dtd">
<!-- Generated by graphviz version 2.38.0 (20140413.2041)
 -->
<!-- Title: xalanc/XercesParserLiaison/XercesDOMFormatterWalker.hpp Pages: 1 -->
<!--zoomable 363 -->
<svg id="main" version="1.1" xmlns="http://www.w3.org/2000/svg" xmlns:xlink="http://www.w3.org/1999/xlink" xml:space="preserve" onload="init(evt)">
<style type="text/css"><![CDATA[
.edge:hover path { stroke: red; }
.edge:hover polygon { stroke: red; fill: red; }
]]></style>
<script type="text/javascript"><![CDATA[
var edges = document.getElementsByTagName('g');
if (edges && edges.length) {
  for (var i=0;i<edges.length;i++) {
    if (edges[i].id.substr(0,4)=='edge') {
      edges[i].setAttribute('class','edge');
    }
  }
}
]]></script>
        <defs>
                <circle id="rim" cx="0" cy="0" r="7"/>
                <circle id="rim2" cx="0" cy="0" r="3.5"/>
                <g id="zoomPlus">
                        <use xlink:href="#rim" fill="#404040">
                                <set attributeName="fill" to="#808080" begin="zoomplus.mouseover" end="zoomplus.mouseout"/>
                        </use>
                        <path d="M-4,0h8M0,-4v8" fill="none" stroke="white" stroke-width="1.5" pointer-events="none"/>
                </g>
                <g id="zoomMin">
                        <use xlink:href="#rim" fill="#404040">
                                <set attributeName="fill" to="#808080" begin="zoomminus.mouseover" end="zoomminus.mouseout"/>
                        </use>
                        <path d="M-4,0h8" fill="none" stroke="white" stroke-width="1.5" pointer-events="none"/>
                </g>
                <g id="dirArrow">
                        <path fill="none" stroke="white" stroke-width="1.5" d="M0,-3.0v7 M-2.5,-0.5L0,-3.0L2.5,-0.5"/>
                </g>
               <g id="resetDef">
                       <use xlink:href="#rim2" fill="#404040">
                               <set attributeName="fill" to="#808080" begin="reset.mouseover" end="reset.mouseout"/>
                       </use>
               </g>
        </defs>

<script type="text/javascript">
var viewWidth = 628;
var viewHeight = 363;
var sectionId = 'dynsection-0';
</script>
<script xlink:href="svgpan.js"/>
<svg id="graph" class="graph">
<g id="viewport">
<title>xalanc/XercesParserLiaison/XercesDOMFormatterWalker.hpp</title>
<!-- Node1 -->
<g id="node1" class="node"><title>Node1</title>
<g id="a_node1"><a xlink:title=" ">
<polygon fill="#bfbfbf" stroke="black" points="423.5,-324.5 423.5,-354.5 586.5,-354.5 586.5,-324.5 423.5,-324.5"/>
<text text-anchor="start" x="431.5" y="-342.5" font-family="Helvetica,sans-Serif" font-size="10.00">xalanc/XercesParserLiaison</text>
<text text-anchor="middle" x="505" y="-331.5" font-family="Helvetica,sans-Serif" font-size="10.00">/XercesDOMFormatterWalker.hpp</text>
</a>
</g>
</g>
<!-- Node2 -->
<g id="node2" class="node"><title>Node2</title>
<g id="a_node2"><a xlink:href="XercesParserLiaisonDefinitions_8hpp.html" target="_top" xlink:title=" ">
<polygon fill="none" stroke="black" points="448,-123.5 448,-153.5 620,-153.5 620,-123.5 448,-123.5"/>
<text text-anchor="start" x="456" y="-141.5" font-family="Helvetica,sans-Serif" font-size="10.00">xalanc/XercesParserLiaison</text>
<text text-anchor="middle" x="534" y="-130.5" font-family="Helvetica,sans-Serif" font-size="10.00">/XercesParserLiaisonDefinitions.hpp</text>
</a>
</g>
</g>
<!-- Node1&#45;&gt;Node2 -->
<g id="edge1" class="edge"><title>Node1&#45;&gt;Node2</title>
<path fill="none" stroke="midnightblue" d="M540.992,-324.35C556.552,-316.216 573.188,-304.317 582,-288 588.666,-275.656 588.806,-214.108 579,-190 574.596,-179.173 566.815,-169.132 558.947,-160.901"/>
<polygon fill="midnightblue" stroke="midnightblue" points="561.382,-158.387 551.793,-153.881 556.479,-163.383 561.382,-158.387"/>
</g>
<!-- Node8 -->
<g id="node8" class="node"><title>Node8</title>
<g id="a_node8"><a xlink:href="XalanMemoryManagement_8hpp.html" target="_top" xlink:title=" ">
<polygon fill="none" stroke="black" points="183,-257.5 183,-287.5 323,-287.5 323,-257.5 183,-257.5"/>
<text text-anchor="start" x="191" y="-275.5" font-family="Helvetica,sans-Serif" font-size="10.00">xalanc/Include/XalanMemory</text>
<text text-anchor="middle" x="253" y="-264.5" font-family="Helvetica,sans-Serif" font-size="10.00">Management.hpp</text>
</a>
</g>
</g>
<!-- Node1&#45;&gt;Node8 -->
<g id="edge7" class="edge"><title>Node1&#45;&gt;Node8</title>
<path fill="none" stroke="midnightblue" d="M450.63,-324.476C411.599,-314.408 358.836,-300.799 317.645,-290.174"/>
<polygon fill="midnightblue" stroke="midnightblue" points="318.264,-286.72 307.707,-287.611 316.516,-293.498 318.264,-286.72"/>
</g>
<!-- Node13 -->
<g id="node13" class="node"><title>Node13</title>
<g id="a_node13"><a xlink:href="XercesDOMWalker_8hpp.html" target="_top" xlink:title=" ">
<polygon fill="none" stroke="black" points="436.5,-257.5 436.5,-287.5 573.5,-287.5 573.5,-257.5 436.5,-257.5"/>
<text text-anchor="start" x="444.5" y="-275.5" font-family="Helvetica,sans-Serif" font-size="10.00">xalanc/XercesParserLiaison</text>
<text text-anchor="middle" x="505" y="-264.5" font-family="Helvetica,sans-Serif" font-size="10.00">/XercesDOMWalker.hpp</text>
</a>
</g>
</g>
<!-- Node1&#45;&gt;Node13 -->
<g id="edge13" class="edge"><title>Node1&#45;&gt;Node13</title>
<path fill="none" stroke="midnightblue" d="M505,-324.396C505,-316.645 505,-306.812 505,-297.86"/>
<polygon fill="midnightblue" stroke="midnightblue" points="508.5,-297.576 505,-287.577 501.5,-297.577 508.5,-297.576"/>
</g>
<!-- Node3 -->
<g id="node3" class="node"><title>Node3</title>
<g id="a_node3"><a xlink:href="PlatformDefinitions_8hpp.html" target="_top" xlink:title=" ">
<polygon fill="none" stroke="black" points="111,-67.5 111,-86.5 293,-86.5 293,-67.5 111,-67.5"/>
<text text-anchor="middle" x="202" y="-74.5" font-family="Helvetica,sans-Serif" font-size="10.00">xalanc/Include/PlatformDefinitions.hpp</text>
</a>
</g>
</g>
<!-- Node2&#45;&gt;Node3 -->
<g id="edge2" class="edge"><title>Node2&#45;&gt;Node3</title>
<path fill="none" stroke="midnightblue" d="M455.741,-123.475C395.588,-112.694 313.864,-98.0479 259.6,-88.323"/>
<polygon fill="midnightblue" stroke="midnightblue" points="259.925,-84.8254 249.464,-86.5064 258.69,-91.7156 259.925,-84.8254"/>
</g>
<!-- Node7 -->
<g id="node7" class="node"><title>Node7</title>
<g id="a_node7"><a xlink:title=" ">
<polygon fill="none" stroke="#bfbfbf" points="465.5,-67.5 465.5,-86.5 602.5,-86.5 602.5,-67.5 465.5,-67.5"/>
<text text-anchor="middle" x="534" y="-74.5" font-family="Helvetica,sans-Serif" font-size="10.00">xercesc/util/XercesDefs.hpp</text>
</a>
</g>
</g>
<!-- Node2&#45;&gt;Node7 -->
<g id="edge6" class="edge"><title>Node2&#45;&gt;Node7</title>
<path fill="none" stroke="midnightblue" d="M534,-123.399C534,-115.466 534,-105.458 534,-96.8583"/>
<polygon fill="midnightblue" stroke="midnightblue" points="537.5,-96.6577 534,-86.6578 530.5,-96.6578 537.5,-96.6577"/>
</g>
<!-- Node4 -->
<g id="node4" class="node"><title>Node4</title>
<g id="a_node4"><a xlink:title=" ">
<polygon fill="none" stroke="#bfbfbf" points="0,-0.5 0,-30.5 108,-30.5 108,-0.5 0,-0.5"/>
<text text-anchor="start" x="8" y="-18.5" font-family="Helvetica,sans-Serif" font-size="10.00">xercesc/util/Xerces</text>
<text text-anchor="middle" x="54" y="-7.5" font-family="Helvetica,sans-Serif" font-size="10.00">_autoconf_config.hpp</text>
</a>
</g>
</g>
<!-- Node3&#45;&gt;Node4 -->
<g id="edge3" class="edge"><title>Node3&#45;&gt;Node4</title>
<path fill="none" stroke="midnightblue" d="M180.795,-67.4751C159.346,-58.8518 125.548,-45.2641 98.2387,-34.2852"/>
<polygon fill="midnightblue" stroke="midnightblue" points="99.4645,-31.0058 88.8807,-30.523 96.8534,-37.5005 99.4645,-31.0058"/>
</g>
<!-- Node5 -->
<g id="node5" class="node"><title>Node5</title>
<g id="a_node5"><a xlink:title=" ">
<polygon fill="none" stroke="#bfbfbf" points="126.5,-6 126.5,-25 277.5,-25 277.5,-6 126.5,-6"/>
<text text-anchor="middle" x="202" y="-13" font-family="Helvetica,sans-Serif" font-size="10.00">xercesc/util/XercesVersion.hpp</text>
</a>
</g>
</g>
<!-- Node3&#45;&gt;Node5 -->
<g id="edge4" class="edge"><title>Node3&#45;&gt;Node5</title>
<path fill="none" stroke="midnightblue" d="M202,-67.4751C202,-59.0803 202,-45.9806 202,-35.1631"/>
<polygon fill="midnightblue" stroke="midnightblue" points="205.5,-35.0091 202,-25.0091 198.5,-35.0091 205.5,-35.0091"/>
</g>
<!-- Node6 -->
<g id="node6" class="node"><title>Node6</title>
<g id="a_node6"><a xlink:href="XalanVersion_8hpp.html" target="_top" xlink:title=" ">
<polygon fill="none" stroke="black" points="296,-6 296,-25 388,-25 388,-6 296,-6"/>
<text text-anchor="middle" x="342" y="-13" font-family="Helvetica,sans-Serif" font-size="10.00">XalanVersion.hpp</text>
</a>
</g>
</g>
<!-- Node3&#45;&gt;Node6 -->
<g id="edge5" class="edge"><title>Node3&#45;&gt;Node6</title>
<path fill="none" stroke="midnightblue" d="M222.059,-67.4751C245.762,-57.4013 285.406,-40.5525 312.583,-29.0023"/>
<polygon fill="midnightblue" stroke="midnightblue" points="314.144,-32.1417 321.979,-25.0091 311.406,-25.6994 314.144,-32.1417"/>
</g>
<!-- Node8&#45;&gt;Node3 -->
<g id="edge8" class="edge"><title>Node8&#45;&gt;Node3</title>
<path fill="none" stroke="midnightblue" d="M182.794,-261.428C136.299,-253.155 81.3295,-239.739 67,-221 27.3508,-169.15 122.21,-114.992 172.791,-90.8892"/>
<polygon fill="midnightblue" stroke="midnightblue" points="174.384,-94.008 181.971,-86.6122 171.428,-87.6628 174.384,-94.008"/>
</g>
<!-- Node9 -->
<g id="node9" class="node"><title>Node9</title>
<g id="a_node9"><a xlink:title=" ">
<polygon fill="none" stroke="#bfbfbf" points="283.5,-196 283.5,-215 332.5,-215 332.5,-196 283.5,-196"/>
<text text-anchor="middle" x="308" y="-203" font-family="Helvetica,sans-Serif" font-size="10.00">cassert</text>
</a>
</g>
</g>
<!-- Node8&#45;&gt;Node9 -->
<g id="edge9" class="edge"><title>Node8&#45;&gt;Node9</title>
<path fill="none" stroke="midnightblue" d="M264.934,-257.396C273.51,-247.261 285.097,-233.567 294.092,-222.937"/>
<polygon fill="midnightblue" stroke="midnightblue" points="296.855,-225.089 300.643,-215.195 291.512,-220.568 296.855,-225.089"/>
</g>
<!-- Node10 -->
<g id="node10" class="node"><title>Node10</title>
<g id="a_node10"><a xlink:title=" ">
<polygon fill="none" stroke="#bfbfbf" points="351,-196 351,-215 399,-215 399,-196 351,-196"/>
<text text-anchor="middle" x="375" y="-203" font-family="Helvetica,sans-Serif" font-size="10.00">cstddef</text>
</a>
</g>
</g>
<!-- Node8&#45;&gt;Node10 -->
<g id="edge10" class="edge"><title>Node8&#45;&gt;Node10</title>
<path fill="none" stroke="midnightblue" d="M279.472,-257.396C300.405,-246.243 329.426,-230.781 349.974,-219.834"/>
<polygon fill="midnightblue" stroke="midnightblue" points="351.853,-222.798 359.033,-215.007 348.562,-216.62 351.853,-222.798"/>
</g>
<!-- Node11 -->
<g id="node11" class="node"><title>Node11</title>
<g id="a_node11"><a xlink:title=" ">
<polygon fill="none" stroke="#bfbfbf" points="76,-196 76,-215 110,-215 110,-196 76,-196"/>
<text text-anchor="middle" x="93" y="-203" font-family="Helvetica,sans-Serif" font-size="10.00">new</text>
</a>
</g>
</g>
<!-- Node8&#45;&gt;Node11 -->
<g id="edge11" class="edge"><title>Node8&#45;&gt;Node11</title>
<path fill="none" stroke="midnightblue" d="M210.996,-257.475C184.252,-248.106 149.105,-234.973 119,-221 118.159,-220.61 117.308,-220.203 116.453,-219.784"/>
<polygon fill="midnightblue" stroke="midnightblue" points="117.859,-216.569 107.378,-215.017 114.604,-222.766 117.859,-216.569"/>
</g>
<!-- Node12 -->
<g id="node12" class="node"><title>Node12</title>
<g id="a_node12"><a xlink:title=" ">
<polygon fill="none" stroke="#bfbfbf" points="128.5,-190.5 128.5,-220.5 265.5,-220.5 265.5,-190.5 128.5,-190.5"/>
<text text-anchor="start" x="136.5" y="-208.5" font-family="Helvetica,sans-Serif" font-size="10.00">xercesc/framework/Memory</text>
<text text-anchor="middle" x="197" y="-197.5" font-family="Helvetica,sans-Serif" font-size="10.00">Manager.hpp</text>
</a>
</g>
</g>
<!-- Node8&#45;&gt;Node12 -->
<g id="edge12" class="edge"><title>Node8&#45;&gt;Node12</title>
<path fill="none" stroke="midnightblue" d="M240.849,-257.396C233.51,-248.878 224.007,-237.847 215.724,-228.233"/>
<polygon fill="midnightblue" stroke="midnightblue" points="218.306,-225.868 209.127,-220.577 213.003,-230.437 218.306,-225.868"/>
</g>
<!-- Node13&#45;&gt;Node2 -->
<g id="edge14" class="edge"><title>Node13&#45;&gt;Node2</title>
<path fill="none" stroke="midnightblue" d="M529.587,-257.295C542.095,-248.585 556.085,-236.189 563,-221 571.82,-201.625 561.982,-178.719 551.443,-162.132"/>
<polygon fill="midnightblue" stroke="midnightblue" points="554.163,-159.91 545.63,-153.63 548.385,-163.86 554.163,-159.91"/>
</g>
<!-- Node14 -->
<g id="node14" class="node"><title>Node14</title>
<g id="a_node14"><a xlink:href="XercesWrapperTypes_8hpp.html" target="_top" xlink:title=" ">
<polygon fill="none" stroke="black" points="417.5,-190.5 417.5,-220.5 554.5,-220.5 554.5,-190.5 417.5,-190.5"/>
<text text-anchor="start" x="425.5" y="-208.5" font-family="Helvetica,sans-Serif" font-size="10.00">xalanc/XercesParserLiaison</text>
<text text-anchor="middle" x="486" y="-197.5" font-family="Helvetica,sans-Serif" font-size="10.00">/XercesWrapperTypes.hpp</text>
</a>
</g>
</g>
<!-- Node13&#45;&gt;Node14 -->
<g id="edge15" class="edge"><title>Node13&#45;&gt;Node14</title>
<path fill="none" stroke="midnightblue" d="M500.877,-257.396C498.562,-249.474 495.611,-239.379 492.949,-230.271"/>
<polygon fill="midnightblue" stroke="midnightblue" points="496.28,-229.193 490.115,-220.577 489.561,-231.157 496.28,-229.193"/>
</g>
<!-- Node14&#45;&gt;Node2 -->
<g id="edge16" class="edge"><title>Node14&#45;&gt;Node2</title>
<path fill="none" stroke="midnightblue" d="M496.415,-190.396C502.579,-182.049 510.526,-171.287 517.524,-161.811"/>
<polygon fill="midnightblue" stroke="midnightblue" points="520.48,-163.7 523.605,-153.577 514.849,-159.542 520.48,-163.7"/>
</g>
</g>
</svg>
        <g id="navigator" transform="translate(0 0)" fill="#404254">
                <rect fill="#f2f5e9" fill-opacity="0.5" stroke="#606060" stroke-width=".5" x="0" y="0" width="60" height="60"/>
                <use id="zoomplus" xlink:href="#zoomPlus" x="17" y="9" onmousedown="handleZoom(evt,'in')"/>
                <use id="zoomminus" xlink:href="#zoomMin" x="42" y="9" onmousedown="handleZoom(evt,'out')"/>
                <use id="reset" xlink:href="#resetDef" x="30" y="36" onmousedown="handleReset()"/>
                <g id="arrowUp" xlink:href="#dirArrow" transform="translate(30 24)" onmousedown="handlePan(0,-1)">
                  <use xlink:href="#rim" fill="#404040">
                        <set attributeName="fill" to="#808080" begin="arrowUp.mouseover" end="arrowUp.mouseout"/>
                  </use>
                  <path fill="none" stroke="white" stroke-width="1.5" d="M0,-3.0v7 M-2.5,-0.5L0,-3.0L2.5,-0.5"/>
                </g>
                <g id="arrowRight" xlink:href="#dirArrow" transform="rotate(90) translate(36 -43)" onmousedown="handlePan(1,0)">
                  <use xlink:href="#rim" fill="#404040">
                        <set attributeName="fill" to="#808080" begin="arrowRight.mouseover" end="arrowRight.mouseout"/>
                  </use>
                  <path fill="none" stroke="white" stroke-width="1.5" d="M0,-3.0v7 M-2.5,-0.5L0,-3.0L2.5,-0.5"/>
                </g>
                <g id="arrowDown" xlink:href="#dirArrow" transform="rotate(180) translate(-30 -48)" onmousedown="handlePan(0,1)">
                  <use xlink:href="#rim" fill="#404040">
                        <set attributeName="fill" to="#808080" begin="arrowDown.mouseover" end="arrowDown.mouseout"/>
                  </use>
                  <path fill="none" stroke="white" stroke-width="1.5" d="M0,-3.0v7 M-2.5,-0.5L0,-3.0L2.5,-0.5"/>
                </g>
                <g id="arrowLeft" xlink:href="#dirArrow" transform="rotate(270) translate(-36 17)" onmousedown="handlePan(-1,0)">
                  <use xlink:href="#rim" fill="#404040">
                        <set attributeName="fill" to="#808080" begin="arrowLeft.mouseover" end="arrowLeft.mouseout"/>
                  </use>
                  <path fill="none" stroke="white" stroke-width="1.5" d="M0,-3.0v7 M-2.5,-0.5L0,-3.0L2.5,-0.5"/>
                </g>
        </g>
        <svg viewBox="0 0 15 15" width="100%" height="30px" preserveAspectRatio="xMaxYMin meet">
         <g id="arrow_out" transform="scale(0.3 0.3)">
          <a xlink:href="XercesDOMFormatterWalker_8hpp__incl_org.svg" target="_base">
           <rect id="button" ry="5" rx="5" y="6" x="6" height="38" width="38"
                fill="#f2f5e9" fill-opacity="0.5" stroke="#606060" stroke-width="1.0"/>
           <path id="arrow"
             d="M 11.500037,31.436501 C 11.940474,20.09759 22.043105,11.32322 32.158766,21.979434 L 37.068811,17.246167 C 37.068811,17.246167 37.088388,32 37.088388,32 L 22.160133,31.978069 C 22.160133,31.978069 26.997745,27.140456 26.997745,27.140456 C 18.528582,18.264221 13.291696,25.230495 11.500037,31.436501 z"
             style="fill:#404040;"/>
          </a>
         </g>
        </svg>
</svg>
