<?xml version="1.0" encoding="UTF-8" standalone="no"?>
<!DOCTYPE svg PUBLIC "-//W3C//DTD SVG 1.1//EN"
 "http://www.w3.org/Graphics/SVG/1.1/DTD/svg11.dtd">
<!-- Generated by graphviz version 2.43.0 (0)
 -->
<!-- Title: xalanc/XercesParserLiaison/Deprecated/XercesDOM_NodeHack.hpp Pages: 1 -->
<svg width="919pt" height="296pt"
 viewBox="0.00 0.00 918.80 296.00" xmlns="http://www.w3.org/2000/svg" xmlns:xlink="http://www.w3.org/1999/xlink">
<g id="graph0" class="graph" transform="scale(1 1) rotate(0) translate(4 292)">
<title>xalanc/XercesParserLiaison/Deprecated/XercesDOM_NodeHack.hpp</title>
<!-- Node1 -->
<g id="node1" class="node">
<title>Node1</title>
<g id="a_node1"><a xlink:title=" ">
<polygon fill="#bfbfbf" stroke="black" points="248.8,-257.5 248.8,-287.5 460.8,-287.5 460.8,-257.5 248.8,-257.5"/>
<text text-anchor="start" x="256.8" y="-275.5" font-family="Helvetica,sans-Serif" font-size="10.00">xalanc/XercesParserLiaison</text>
<text text-anchor="middle" x="354.8" y="-264.5" font-family="Helvetica,sans-Serif" font-size="10.00">/Deprecated/XercesDOM_NodeHack.hpp</text>
</a>
</g>
</g>
<!-- Node2 -->
<g id="node2" class="node">
<title>Node2</title>
<g id="a_node2"><a xlink:href="XercesParserLiaisonDefinitions_8hpp.html" target="_top" xlink:title=" ">
<polygon fill="none" stroke="black" points="305.3,-123.5 305.3,-153.5 496.3,-153.5 496.3,-123.5 305.3,-123.5"/>
<text text-anchor="start" x="313.3" y="-141.5" font-family="Helvetica,sans-Serif" font-size="10.00">xalanc/XercesParserLiaison</text>
<text text-anchor="middle" x="400.8" y="-130.5" font-family="Helvetica,sans-Serif" font-size="10.00">/XercesParserLiaisonDefinitions.hpp</text>
</a>
</g>
</g>
<!-- Node1&#45;&gt;Node2 -->
<g id="edge1" class="edge">
<title>Node1&#45;&gt;Node2</title>
<path fill="none" stroke="midnightblue" d="M248.62,-270.8C158.02,-267.67 37.66,-256.66 6.8,-221 -2.22,-210.58 -2.3,-200.34 6.8,-190 25.66,-168.57 184.95,-153.73 295.12,-145.93"/>
<polygon fill="midnightblue" stroke="midnightblue" points="295.56,-149.41 305.29,-145.22 295.07,-142.42 295.56,-149.41"/>
</g>
<!-- Node8 -->
<g id="node8" class="node">
<title>Node8</title>
<g id="a_node8"><a xlink:title=" ">
<polygon fill="none" stroke="#bfbfbf" points="16.3,-196 16.3,-215 173.3,-215 173.3,-196 16.3,-196"/>
<text text-anchor="middle" x="94.8" y="-203" font-family="Helvetica,sans-Serif" font-size="10.00">xercesc/dom/DOM_Node.hpp</text>
</a>
</g>
</g>
<!-- Node1&#45;&gt;Node8 -->
<g id="edge7" class="edge">
<title>Node1&#45;&gt;Node8</title>
<path fill="none" stroke="midnightblue" d="M298.7,-257.48C250.78,-245.5 182.8,-228.5 138.75,-217.49"/>
<polygon fill="midnightblue" stroke="midnightblue" points="139.46,-214.06 128.91,-215.03 137.77,-220.85 139.46,-214.06"/>
</g>
<!-- Node9 -->
<g id="node9" class="node">
<title>Node9</title>
<g id="a_node9"><a xlink:title=" ">
<polygon fill="none" stroke="#bfbfbf" points="191.3,-196 191.3,-215 340.3,-215 340.3,-196 191.3,-196"/>
<text text-anchor="middle" x="265.8" y="-203" font-family="Helvetica,sans-Serif" font-size="10.00">xercesc/dom/DOM_Attr.hpp</text>
</a>
</g>
</g>
<!-- Node1&#45;&gt;Node9 -->
<g id="edge8" class="edge">
<title>Node1&#45;&gt;Node9</title>
<path fill="none" stroke="midnightblue" d="M335.49,-257.4C320.84,-246.7 300.76,-232.03 285.92,-221.19"/>
<polygon fill="midnightblue" stroke="midnightblue" points="287.59,-218.08 277.45,-215.01 283.46,-223.73 287.59,-218.08"/>
</g>
<!-- Node10 -->
<g id="node10" class="node">
<title>Node10</title>
<g id="a_node10"><a xlink:title=" ">
<polygon fill="none" stroke="#bfbfbf" points="358.8,-196 358.8,-215 530.8,-215 530.8,-196 358.8,-196"/>
<text text-anchor="middle" x="444.8" y="-203" font-family="Helvetica,sans-Serif" font-size="10.00">xercesc/dom/DOM_Element.hpp</text>
</a>
</g>
</g>
<!-- Node1&#45;&gt;Node10 -->
<g id="edge9" class="edge">
<title>Node1&#45;&gt;Node10</title>
<path fill="none" stroke="midnightblue" d="M374.33,-257.4C389.28,-246.6 409.83,-231.76 424.88,-220.89"/>
<polygon fill="midnightblue" stroke="midnightblue" points="426.96,-223.7 433.02,-215.01 422.86,-218.02 426.96,-223.7"/>
</g>
<!-- Node11 -->
<g id="node11" class="node">
<title>Node11</title>
<g id="a_node11"><a xlink:title=" ">
<polygon fill="none" stroke="#bfbfbf" points="548.8,-196 548.8,-215 700.8,-215 700.8,-196 548.8,-196"/>
<text text-anchor="middle" x="624.8" y="-203" font-family="Helvetica,sans-Serif" font-size="10.00">xercesc/dom/DOM_Text.hpp</text>
</a>
</g>
</g>
<!-- Node1&#45;&gt;Node11 -->
<g id="edge10" class="edge">
<title>Node1&#45;&gt;Node11</title>
<path fill="none" stroke="midnightblue" d="M413.05,-257.48C462.92,-245.47 533.71,-228.43 579.45,-217.42"/>
<polygon fill="midnightblue" stroke="midnightblue" points="580.47,-220.77 589.37,-215.03 578.83,-213.97 580.47,-220.77"/>
</g>
<!-- Node12 -->
<g id="node12" class="node">
<title>Node12</title>
<g id="a_node12"><a xlink:href="XercesBridgeTypes_8hpp.html" target="_top" xlink:title=" ">
<polygon fill="none" stroke="black" points="718.8,-190.5 718.8,-220.5 910.8,-220.5 910.8,-190.5 718.8,-190.5"/>
<text text-anchor="start" x="726.8" y="-208.5" font-family="Helvetica,sans-Serif" font-size="10.00">xalanc/XercesParserLiaison</text>
<text text-anchor="middle" x="814.8" y="-197.5" font-family="Helvetica,sans-Serif" font-size="10.00">/Deprecated/XercesBridgeTypes.hpp</text>
</a>
</g>
</g>
<!-- Node1&#45;&gt;Node12 -->
<g id="edge11" class="edge">
<title>Node1&#45;&gt;Node12</title>
<path fill="none" stroke="midnightblue" d="M454.05,-257.48C528.99,-246.89 631.67,-232.38 708.33,-221.55"/>
<polygon fill="midnightblue" stroke="midnightblue" points="709.08,-224.97 718.49,-220.11 708.1,-218.04 709.08,-224.97"/>
</g>
<!-- Node3 -->
<g id="node3" class="node">
<title>Node3</title>
<g id="a_node3"><a xlink:href="PlatformDefinitions_8hpp.html" target="_top" xlink:title=" ">
<polygon fill="none" stroke="black" points="199.8,-67.5 199.8,-86.5 405.8,-86.5 405.8,-67.5 199.8,-67.5"/>
<text text-anchor="middle" x="302.8" y="-74.5" font-family="Helvetica,sans-Serif" font-size="10.00">xalanc/Include/PlatformDefinitions.hpp</text>
</a>
</g>
</g>
<!-- Node2&#45;&gt;Node3 -->
<g id="edge2" class="edge">
<title>Node2&#45;&gt;Node3</title>
<path fill="none" stroke="midnightblue" d="M377.57,-123.4C362.01,-113.95 341.6,-101.56 326.04,-92.11"/>
<polygon fill="midnightblue" stroke="midnightblue" points="327.42,-88.86 317.06,-86.66 323.79,-94.84 327.42,-88.86"/>
</g>
<!-- Node7 -->
<g id="node7" class="node">
<title>Node7</title>
<g id="a_node7"><a xlink:title=" ">
<polygon fill="none" stroke="#bfbfbf" points="423.8,-67.5 423.8,-86.5 575.8,-86.5 575.8,-67.5 423.8,-67.5"/>
<text text-anchor="middle" x="499.8" y="-74.5" font-family="Helvetica,sans-Serif" font-size="10.00">xercesc/util/XercesDefs.hpp</text>
</a>
</g>
</g>
<!-- Node2&#45;&gt;Node7 -->
<g id="edge6" class="edge">
<title>Node2&#45;&gt;Node7</title>
<path fill="none" stroke="midnightblue" d="M424.26,-123.4C440.13,-113.86 460.99,-101.32 476.77,-91.84"/>
<polygon fill="midnightblue" stroke="midnightblue" points="478.63,-94.81 485.39,-86.66 475.02,-88.81 478.63,-94.81"/>
</g>
<!-- Node4 -->
<g id="node4" class="node">
<title>Node4</title>
<g id="a_node4"><a xlink:title=" ">
<polygon fill="none" stroke="#bfbfbf" points="81.8,-0.5 81.8,-30.5 201.8,-30.5 201.8,-0.5 81.8,-0.5"/>
<text text-anchor="start" x="89.8" y="-18.5" font-family="Helvetica,sans-Serif" font-size="10.00">xercesc/util/Xerces</text>
<text text-anchor="middle" x="141.8" y="-7.5" font-family="Helvetica,sans-Serif" font-size="10.00">_autoconf_config.hpp</text>
</a>
</g>
</g>
<!-- Node3&#45;&gt;Node4 -->
<g id="edge3" class="edge">
<title>Node3&#45;&gt;Node4</title>
<path fill="none" stroke="midnightblue" d="M279.73,-67.48C256.19,-58.78 218.99,-45.03 189.15,-34"/>
<polygon fill="midnightblue" stroke="midnightblue" points="190.34,-30.71 179.74,-30.52 187.91,-37.27 190.34,-30.71"/>
</g>
<!-- Node5 -->
<g id="node5" class="node">
<title>Node5</title>
<g id="a_node5"><a xlink:title=" ">
<polygon fill="none" stroke="#bfbfbf" points="220.3,-6 220.3,-25 385.3,-25 385.3,-6 220.3,-6"/>
<text text-anchor="middle" x="302.8" y="-13" font-family="Helvetica,sans-Serif" font-size="10.00">xercesc/util/XercesVersion.hpp</text>
</a>
</g>
</g>
<!-- Node3&#45;&gt;Node5 -->
<g id="edge4" class="edge">
<title>Node3&#45;&gt;Node5</title>
<path fill="none" stroke="midnightblue" d="M302.8,-67.48C302.8,-59.08 302.8,-45.98 302.8,-35.16"/>
<polygon fill="midnightblue" stroke="midnightblue" points="306.3,-35.01 302.8,-25.01 299.3,-35.01 306.3,-35.01"/>
</g>
<!-- Node6 -->
<g id="node6" class="node">
<title>Node6</title>
<g id="a_node6"><a xlink:href="XalanVersion_8hpp.html" target="_top" xlink:title=" ">
<polygon fill="none" stroke="black" points="403.3,-6 403.3,-25 578.3,-25 578.3,-6 403.3,-6"/>
<text text-anchor="middle" x="490.8" y="-13" font-family="Helvetica,sans-Serif" font-size="10.00">xalanc/Include/XalanVersion.hpp</text>
</a>
</g>
</g>
<!-- Node3&#45;&gt;Node6 -->
<g id="edge5" class="edge">
<title>Node3&#45;&gt;Node6</title>
<path fill="none" stroke="midnightblue" d="M329.74,-67.48C362.4,-57.14 417.62,-39.66 454.14,-28.1"/>
<polygon fill="midnightblue" stroke="midnightblue" points="455.44,-31.36 463.91,-25.01 453.32,-24.69 455.44,-31.36"/>
</g>
<!-- Node12&#45;&gt;Node2 -->
<g id="edge12" class="edge">
<title>Node12&#45;&gt;Node2</title>
<path fill="none" stroke="midnightblue" d="M725.48,-190.48C659.21,-180.07 568.84,-165.88 500.27,-155.12"/>
<polygon fill="midnightblue" stroke="midnightblue" points="500.74,-151.65 490.32,-153.55 499.65,-158.56 500.74,-151.65"/>
</g>
</g>
</svg>
