<?xml version="1.0" encoding="UTF-8" standalone="no"?>
<!DOCTYPE svg PUBLIC "-//W3C//DTD SVG 1.1//EN"
 "http://www.w3.org/Graphics/SVG/1.1/DTD/svg11.dtd">
<!-- Generated by graphviz version 2.38.0 (20140413.2041)
 -->
<!-- Title: xalanc/XercesParserLiaison/Deprecated/XercesNodeListBridge.hpp Pages: 1 -->
<svg width="656pt" height="296pt"
 viewBox="0.00 0.00 656.06 296.00" xmlns="http://www.w3.org/2000/svg" xmlns:xlink="http://www.w3.org/1999/xlink">
<g id="graph0" class="graph" transform="scale(1 1) rotate(0) translate(4 292)">
<title>xalanc/XercesParserLiaison/Deprecated/XercesNodeListBridge.hpp</title>
<!-- Node1 -->
<g id="node1" class="node"><title>Node1</title>
<g id="a_node1"><a xlink:title=" ">
<polygon fill="#bfbfbf" stroke="black" points="99.056,-257.5 99.056,-287.5 285.056,-287.5 285.056,-257.5 99.056,-257.5"/>
<text text-anchor="start" x="107.056" y="-275.5" font-family="Helvetica,sans-Serif" font-size="10.00">xalanc/XercesParserLiaison</text>
<text text-anchor="middle" x="192.056" y="-264.5" font-family="Helvetica,sans-Serif" font-size="10.00">/Deprecated/XercesNodeListBridge.hpp</text>
</a>
</g>
</g>
<!-- Node2 -->
<g id="node2" class="node"><title>Node2</title>
<g id="a_node2"><a xlink:href="XercesParserLiaisonDefinitions_8hpp.html" target="_top" xlink:title=" ">
<polygon fill="none" stroke="black" points="198.056,-123.5 198.056,-153.5 370.056,-153.5 370.056,-123.5 198.056,-123.5"/>
<text text-anchor="start" x="206.056" y="-141.5" font-family="Helvetica,sans-Serif" font-size="10.00">xalanc/XercesParserLiaison</text>
<text text-anchor="middle" x="284.056" y="-130.5" font-family="Helvetica,sans-Serif" font-size="10.00">/XercesParserLiaisonDefinitions.hpp</text>
</a>
</g>
</g>
<!-- Node1&#45;&gt;Node2 -->
<g id="edge1" class="edge"><title>Node1&#45;&gt;Node2</title>
<path fill="none" stroke="midnightblue" d="M98.9016,-260.389C38.6946,-249.383 -22.9444,-228.412 9.05599,-190 31.7104,-162.807 117.79,-150.207 187.685,-144.399"/>
<polygon fill="midnightblue" stroke="midnightblue" points="188.178,-147.871 197.87,-143.591 187.624,-140.893 188.178,-147.871"/>
</g>
<!-- Node8 -->
<g id="node8" class="node"><title>Node8</title>
<g id="a_node8"><a xlink:title=" ">
<polygon fill="none" stroke="#bfbfbf" points="18.556,-196 18.556,-215 179.556,-215 179.556,-196 18.556,-196"/>
<text text-anchor="middle" x="99.056" y="-203" font-family="Helvetica,sans-Serif" font-size="10.00">xercesc/dom/DOM_NodeList.hpp</text>
</a>
</g>
</g>
<!-- Node1&#45;&gt;Node8 -->
<g id="edge7" class="edge"><title>Node1&#45;&gt;Node8</title>
<path fill="none" stroke="midnightblue" d="M171.876,-257.396C156.425,-246.597 135.192,-231.756 119.641,-220.887"/>
<polygon fill="midnightblue" stroke="midnightblue" points="121.429,-217.867 111.228,-215.007 117.419,-223.605 121.429,-217.867"/>
</g>
<!-- Node9 -->
<g id="node9" class="node"><title>Node9</title>
<g id="a_node9"><a xlink:href="XalanNodeList_8hpp.html" target="_top" xlink:title=" ">
<polygon fill="none" stroke="black" points="390.556,-190.5 390.556,-220.5 533.556,-220.5 533.556,-190.5 390.556,-190.5"/>
<text text-anchor="start" x="398.556" y="-208.5" font-family="Helvetica,sans-Serif" font-size="10.00">xalanc/XalanDOM/XalanNode</text>
<text text-anchor="middle" x="462.056" y="-197.5" font-family="Helvetica,sans-Serif" font-size="10.00">List.hpp</text>
</a>
</g>
</g>
<!-- Node1&#45;&gt;Node9 -->
<g id="edge8" class="edge"><title>Node1&#45;&gt;Node9</title>
<path fill="none" stroke="midnightblue" d="M250.31,-257.476C292.394,-247.345 349.378,-233.626 393.631,-222.973"/>
<polygon fill="midnightblue" stroke="midnightblue" points="394.538,-226.354 403.441,-220.611 392.9,-219.549 394.538,-226.354"/>
</g>
<!-- Node11 -->
<g id="node11" class="node"><title>Node11</title>
<g id="a_node11"><a xlink:href="XercesBridgeTypes_8hpp.html" target="_top" xlink:title=" ">
<polygon fill="none" stroke="black" points="198.056,-190.5 198.056,-220.5 372.056,-220.5 372.056,-190.5 198.056,-190.5"/>
<text text-anchor="start" x="206.056" y="-208.5" font-family="Helvetica,sans-Serif" font-size="10.00">xalanc/XercesParserLiaison</text>
<text text-anchor="middle" x="285.056" y="-197.5" font-family="Helvetica,sans-Serif" font-size="10.00">/Deprecated/XercesBridgeTypes.hpp</text>
</a>
</g>
</g>
<!-- Node1&#45;&gt;Node11 -->
<g id="edge11" class="edge"><title>Node1&#45;&gt;Node11</title>
<path fill="none" stroke="midnightblue" d="M212.236,-257.396C225.154,-248.367 242.113,-236.514 256.414,-226.518"/>
<polygon fill="midnightblue" stroke="midnightblue" points="258.724,-229.174 264.916,-220.577 254.714,-223.436 258.724,-229.174"/>
</g>
<!-- Node3 -->
<g id="node3" class="node"><title>Node3</title>
<g id="a_node3"><a xlink:href="PlatformDefinitions_8hpp.html" target="_top" xlink:title=" ">
<polygon fill="none" stroke="black" points="371.056,-67.5 371.056,-86.5 553.056,-86.5 553.056,-67.5 371.056,-67.5"/>
<text text-anchor="middle" x="462.056" y="-74.5" font-family="Helvetica,sans-Serif" font-size="10.00">xalanc/Include/PlatformDefinitions.hpp</text>
</a>
</g>
</g>
<!-- Node2&#45;&gt;Node3 -->
<g id="edge2" class="edge"><title>Node2&#45;&gt;Node3</title>
<path fill="none" stroke="midnightblue" d="M326.24,-123.399C356.863,-113.163 397.826,-99.4703 426.731,-89.8082"/>
<polygon fill="midnightblue" stroke="midnightblue" points="428.041,-93.0607 436.415,-86.5709 425.821,-86.4218 428.041,-93.0607"/>
</g>
<!-- Node7 -->
<g id="node7" class="node"><title>Node7</title>
<g id="a_node7"><a xlink:title=" ">
<polygon fill="none" stroke="#bfbfbf" points="215.556,-67.5 215.556,-86.5 352.556,-86.5 352.556,-67.5 215.556,-67.5"/>
<text text-anchor="middle" x="284.056" y="-74.5" font-family="Helvetica,sans-Serif" font-size="10.00">xercesc/util/XercesDefs.hpp</text>
</a>
</g>
</g>
<!-- Node2&#45;&gt;Node7 -->
<g id="edge6" class="edge"><title>Node2&#45;&gt;Node7</title>
<path fill="none" stroke="midnightblue" d="M284.056,-123.399C284.056,-115.466 284.056,-105.458 284.056,-96.8583"/>
<polygon fill="midnightblue" stroke="midnightblue" points="287.556,-96.6577 284.056,-86.6578 280.556,-96.6578 287.556,-96.6577"/>
</g>
<!-- Node4 -->
<g id="node4" class="node"><title>Node4</title>
<g id="a_node4"><a xlink:title=" ">
<polygon fill="none" stroke="#bfbfbf" points="260.056,-0.5 260.056,-30.5 368.056,-30.5 368.056,-0.5 260.056,-0.5"/>
<text text-anchor="start" x="268.056" y="-18.5" font-family="Helvetica,sans-Serif" font-size="10.00">xercesc/util/Xerces</text>
<text text-anchor="middle" x="314.056" y="-7.5" font-family="Helvetica,sans-Serif" font-size="10.00">_autoconf_config.hpp</text>
</a>
</g>
</g>
<!-- Node3&#45;&gt;Node4 -->
<g id="edge3" class="edge"><title>Node3&#45;&gt;Node4</title>
<path fill="none" stroke="midnightblue" d="M440.851,-67.4751C419.402,-58.8518 385.604,-45.2641 358.295,-34.2852"/>
<polygon fill="midnightblue" stroke="midnightblue" points="359.521,-31.0058 348.937,-30.523 356.909,-37.5005 359.521,-31.0058"/>
</g>
<!-- Node5 -->
<g id="node5" class="node"><title>Node5</title>
<g id="a_node5"><a xlink:title=" ">
<polygon fill="none" stroke="#bfbfbf" points="386.556,-6 386.556,-25 537.556,-25 537.556,-6 386.556,-6"/>
<text text-anchor="middle" x="462.056" y="-13" font-family="Helvetica,sans-Serif" font-size="10.00">xercesc/util/XercesVersion.hpp</text>
</a>
</g>
</g>
<!-- Node3&#45;&gt;Node5 -->
<g id="edge4" class="edge"><title>Node3&#45;&gt;Node5</title>
<path fill="none" stroke="midnightblue" d="M462.056,-67.4751C462.056,-59.0803 462.056,-45.9806 462.056,-35.1631"/>
<polygon fill="midnightblue" stroke="midnightblue" points="465.556,-35.0091 462.056,-25.0091 458.556,-35.0091 465.556,-35.0091"/>
</g>
<!-- Node6 -->
<g id="node6" class="node"><title>Node6</title>
<g id="a_node6"><a xlink:href="XalanVersion_8hpp.html" target="_top" xlink:title=" ">
<polygon fill="none" stroke="black" points="556.056,-6 556.056,-25 648.056,-25 648.056,-6 556.056,-6"/>
<text text-anchor="middle" x="602.056" y="-13" font-family="Helvetica,sans-Serif" font-size="10.00">XalanVersion.hpp</text>
</a>
</g>
</g>
<!-- Node3&#45;&gt;Node6 -->
<g id="edge5" class="edge"><title>Node3&#45;&gt;Node6</title>
<path fill="none" stroke="midnightblue" d="M482.115,-67.4751C505.818,-57.4013 545.462,-40.5525 572.639,-29.0023"/>
<polygon fill="midnightblue" stroke="midnightblue" points="574.2,-32.1417 582.035,-25.0091 571.462,-25.6994 574.2,-32.1417"/>
</g>
<!-- Node10 -->
<g id="node10" class="node"><title>Node10</title>
<g id="a_node10"><a xlink:href="XalanDOMDefinitions_8hpp.html" target="_top" xlink:title=" ">
<polygon fill="none" stroke="black" points="399.056,-129 399.056,-148 525.056,-148 525.056,-129 399.056,-129"/>
<text text-anchor="middle" x="462.056" y="-136" font-family="Helvetica,sans-Serif" font-size="10.00">XalanDOMDefinitions.hpp</text>
</a>
</g>
</g>
<!-- Node9&#45;&gt;Node10 -->
<g id="edge9" class="edge"><title>Node9&#45;&gt;Node10</title>
<path fill="none" stroke="midnightblue" d="M462.056,-190.396C462.056,-181.064 462.056,-168.714 462.056,-158.517"/>
<polygon fill="midnightblue" stroke="midnightblue" points="465.556,-158.195 462.056,-148.195 458.556,-158.195 465.556,-158.195"/>
</g>
<!-- Node10&#45;&gt;Node3 -->
<g id="edge10" class="edge"><title>Node10&#45;&gt;Node3</title>
<path fill="none" stroke="midnightblue" d="M462.056,-128.975C462.056,-120.58 462.056,-107.481 462.056,-96.6631"/>
<polygon fill="midnightblue" stroke="midnightblue" points="465.556,-96.5091 462.056,-86.5091 458.556,-96.5091 465.556,-96.5091"/>
</g>
<!-- Node11&#45;&gt;Node2 -->
<g id="edge12" class="edge"><title>Node11&#45;&gt;Node2</title>
<path fill="none" stroke="midnightblue" d="M284.839,-190.396C284.72,-182.645 284.568,-172.812 284.431,-163.86"/>
<polygon fill="midnightblue" stroke="midnightblue" points="287.926,-163.521 284.273,-153.577 280.927,-163.629 287.926,-163.521"/>
</g>
</g>
</svg>
