<?xml version="1.0" encoding="UTF-8" standalone="no"?>
<!DOCTYPE svg PUBLIC "-//W3C//DTD SVG 1.1//EN"
 "http://www.w3.org/Graphics/SVG/1.1/DTD/svg11.dtd">
<!-- Generated by graphviz version 2.43.0 (0)
 -->
<!-- Title: xalanc/XercesParserLiaison/Deprecated/XercesCDATASectionBridge.hpp Pages: 1 -->
<!--zoomable 475 -->
<svg id="main" version="1.1" xmlns="http://www.w3.org/2000/svg" xmlns:xlink="http://www.w3.org/1999/xlink" xml:space="preserve" onload="init(evt)">
<style type="text/css"><![CDATA[
.edge:hover path { stroke: red; }
.edge:hover polygon { stroke: red; fill: red; }
]]></style>
<script type="text/javascript"><![CDATA[
var edges = document.getElementsByTagName('g');
if (edges && edges.length) {
  for (var i=0;i<edges.length;i++) {
    if (edges[i].id.substr(0,4)=='edge') {
      edges[i].setAttribute('class','edge');
    }
  }
}
]]></script>
        <defs>
                <circle id="rim" cx="0" cy="0" r="7"/>
                <circle id="rim2" cx="0" cy="0" r="3.5"/>
                <g id="zoomPlus">
                        <use xlink:href="#rim" fill="#404040">
                                <set attributeName="fill" to="#808080" begin="zoomplus.mouseover" end="zoomplus.mouseout"/>
                        </use>
                        <path d="M-4,0h8M0,-4v8" fill="none" stroke="white" stroke-width="1.5" pointer-events="none"/>
                </g>
                <g id="zoomMin">
                        <use xlink:href="#rim" fill="#404040">
                                <set attributeName="fill" to="#808080" begin="zoomminus.mouseover" end="zoomminus.mouseout"/>
                        </use>
                        <path d="M-4,0h8" fill="none" stroke="white" stroke-width="1.5" pointer-events="none"/>
                </g>
                <g id="dirArrow">
                        <path fill="none" stroke="white" stroke-width="1.5" d="M0,-3.0v7 M-2.5,-0.5L0,-3.0L2.5,-0.5"/>
                </g>
               <g id="resetDef">
                       <use xlink:href="#rim2" fill="#404040">
                               <set attributeName="fill" to="#808080" begin="reset.mouseover" end="reset.mouseout"/>
                       </use>
               </g>
        </defs>

<script type="text/javascript">
var viewWidth = 765;
var viewHeight = 475;
var sectionId = 'dynsection-0';
</script>
<script xlink:href="svgpan.js"/>
<svg id="graph" class="graph">
<g id="viewport">
<title>xalanc/XercesParserLiaison/Deprecated/XercesCDATASectionBridge.hpp</title>
<!-- Node1 -->
<g id="node1" class="node">
<title>Node1</title>
<g id="a_node1"><a xlink:title=" ">
<polygon fill="#bfbfbf" stroke="black" points="109.9,-436.5 109.9,-466.5 342.9,-466.5 342.9,-436.5 109.9,-436.5"/>
<text text-anchor="start" x="117.9" y="-454.5" font-family="Helvetica,sans-Serif" font-size="10.00">xalanc/XercesParserLiaison</text>
<text text-anchor="middle" x="226.4" y="-443.5" font-family="Helvetica,sans-Serif" font-size="10.00">/Deprecated/XercesCDATASectionBridge.hpp</text>
</a>
</g>
</g>
<!-- Node2 -->
<g id="node2" class="node">
<title>Node2</title>
<g id="a_node2"><a xlink:href="XercesParserLiaisonDefinitions_8hpp.html" target="_top" xlink:title=" ">
<polygon fill="none" stroke="black" points="209.9,-302.5 209.9,-332.5 400.9,-332.5 400.9,-302.5 209.9,-302.5"/>
<text text-anchor="start" x="217.9" y="-320.5" font-family="Helvetica,sans-Serif" font-size="10.00">xalanc/XercesParserLiaison</text>
<text text-anchor="middle" x="305.4" y="-309.5" font-family="Helvetica,sans-Serif" font-size="10.00">/XercesParserLiaisonDefinitions.hpp</text>
</a>
</g>
</g>
<!-- Node1&#45;&gt;Node2 -->
<g id="edge1" class="edge">
<title>Node1&#45;&gt;Node2</title>
<path fill="none" stroke="midnightblue" d="M109.78,-441.68C41.25,-431.96 -25.52,-411.59 10.4,-369 34.52,-340.41 124.82,-328 199.23,-322.62"/>
<polygon fill="midnightblue" stroke="midnightblue" points="199.88,-326.08 209.61,-321.91 199.4,-319.1 199.88,-326.08"/>
</g>
<!-- Node8 -->
<g id="node8" class="node">
<title>Node8</title>
<g id="a_node8"><a xlink:title=" ">
<polygon fill="none" stroke="#bfbfbf" points="19.4,-375 19.4,-394 219.4,-394 219.4,-375 19.4,-375"/>
<text text-anchor="middle" x="119.4" y="-382" font-family="Helvetica,sans-Serif" font-size="10.00">xercesc/dom/DOM_CDATASection.hpp</text>
</a>
</g>
</g>
<!-- Node1&#45;&gt;Node8 -->
<g id="edge7" class="edge">
<title>Node1&#45;&gt;Node8</title>
<path fill="none" stroke="midnightblue" d="M203.18,-436.4C185.07,-425.39 160.06,-410.2 142.09,-399.28"/>
<polygon fill="midnightblue" stroke="midnightblue" points="143.77,-396.21 133.41,-394.01 140.13,-402.19 143.77,-396.21"/>
</g>
<!-- Node9 -->
<g id="node9" class="node">
<title>Node9</title>
<g id="a_node9"><a xlink:href="XalanCDATASection_8hpp.html" target="_top" xlink:title=" ">
<polygon fill="none" stroke="black" points="447.4,-375 447.4,-394 671.4,-394 671.4,-375 447.4,-375"/>
<text text-anchor="middle" x="559.4" y="-382" font-family="Helvetica,sans-Serif" font-size="10.00">xalanc/XalanDOM/XalanCDATASection.hpp</text>
</a>
</g>
</g>
<!-- Node1&#45;&gt;Node9 -->
<g id="edge8" class="edge">
<title>Node1&#45;&gt;Node9</title>
<path fill="none" stroke="midnightblue" d="M298.25,-436.48C360.53,-424.32 449.26,-407 505.58,-396.01"/>
<polygon fill="midnightblue" stroke="midnightblue" points="506.56,-399.38 515.71,-394.03 505.22,-392.51 506.56,-399.38"/>
</g>
<!-- Node14 -->
<g id="node14" class="node">
<title>Node14</title>
<g id="a_node14"><a xlink:href="XercesBridgeTypes_8hpp.html" target="_top" xlink:title=" ">
<polygon fill="none" stroke="black" points="237.4,-369.5 237.4,-399.5 429.4,-399.5 429.4,-369.5 237.4,-369.5"/>
<text text-anchor="start" x="245.4" y="-387.5" font-family="Helvetica,sans-Serif" font-size="10.00">xalanc/XercesParserLiaison</text>
<text text-anchor="middle" x="333.4" y="-376.5" font-family="Helvetica,sans-Serif" font-size="10.00">/Deprecated/XercesBridgeTypes.hpp</text>
</a>
</g>
</g>
<!-- Node1&#45;&gt;Node14 -->
<g id="edge17" class="edge">
<title>Node1&#45;&gt;Node14</title>
<path fill="none" stroke="midnightblue" d="M249.62,-436.4C264.76,-427.2 284.73,-415.07 301.38,-404.95"/>
<polygon fill="midnightblue" stroke="midnightblue" points="303.5,-407.76 310.23,-399.58 299.87,-401.78 303.5,-407.76"/>
</g>
<!-- Node3 -->
<g id="node3" class="node">
<title>Node3</title>
<g id="a_node3"><a xlink:href="PlatformDefinitions_8hpp.html" target="_top" xlink:title=" ">
<polygon fill="none" stroke="black" points="283.4,-67.5 283.4,-86.5 489.4,-86.5 489.4,-67.5 283.4,-67.5"/>
<text text-anchor="middle" x="386.4" y="-74.5" font-family="Helvetica,sans-Serif" font-size="10.00">xalanc/Include/PlatformDefinitions.hpp</text>
</a>
</g>
</g>
<!-- Node2&#45;&gt;Node3 -->
<g id="edge2" class="edge">
<title>Node2&#45;&gt;Node3</title>
<path fill="none" stroke="midnightblue" d="M296.43,-302.32C287.27,-286.03 275.32,-258.51 282.4,-235 299.84,-177.09 346.38,-120.9 370.86,-94.17"/>
<polygon fill="midnightblue" stroke="midnightblue" points="373.69,-96.27 377.96,-86.57 368.58,-91.49 373.69,-96.27"/>
</g>
<!-- Node7 -->
<g id="node7" class="node">
<title>Node7</title>
<g id="a_node7"><a xlink:title=" ">
<polygon fill="none" stroke="#bfbfbf" points="291.4,-241 291.4,-260 443.4,-260 443.4,-241 291.4,-241"/>
<text text-anchor="middle" x="367.4" y="-248" font-family="Helvetica,sans-Serif" font-size="10.00">xercesc/util/XercesDefs.hpp</text>
</a>
</g>
</g>
<!-- Node2&#45;&gt;Node7 -->
<g id="edge6" class="edge">
<title>Node2&#45;&gt;Node7</title>
<path fill="none" stroke="midnightblue" d="M318.85,-302.4C328.62,-292.16 341.84,-278.3 352.02,-267.62"/>
<polygon fill="midnightblue" stroke="midnightblue" points="354.74,-269.85 359.11,-260.19 349.67,-265.01 354.74,-269.85"/>
</g>
<!-- Node4 -->
<g id="node4" class="node">
<title>Node4</title>
<g id="a_node4"><a xlink:title=" ">
<polygon fill="none" stroke="#bfbfbf" points="165.4,-0.5 165.4,-30.5 285.4,-30.5 285.4,-0.5 165.4,-0.5"/>
<text text-anchor="start" x="173.4" y="-18.5" font-family="Helvetica,sans-Serif" font-size="10.00">xercesc/util/Xerces</text>
<text text-anchor="middle" x="225.4" y="-7.5" font-family="Helvetica,sans-Serif" font-size="10.00">_autoconf_config.hpp</text>
</a>
</g>
</g>
<!-- Node3&#45;&gt;Node4 -->
<g id="edge3" class="edge">
<title>Node3&#45;&gt;Node4</title>
<path fill="none" stroke="midnightblue" d="M363.33,-67.48C339.8,-58.78 302.59,-45.03 272.75,-34"/>
<polygon fill="midnightblue" stroke="midnightblue" points="273.94,-30.71 263.35,-30.52 271.51,-37.27 273.94,-30.71"/>
</g>
<!-- Node5 -->
<g id="node5" class="node">
<title>Node5</title>
<g id="a_node5"><a xlink:title=" ">
<polygon fill="none" stroke="#bfbfbf" points="303.9,-6 303.9,-25 468.9,-25 468.9,-6 303.9,-6"/>
<text text-anchor="middle" x="386.4" y="-13" font-family="Helvetica,sans-Serif" font-size="10.00">xercesc/util/XercesVersion.hpp</text>
</a>
</g>
</g>
<!-- Node3&#45;&gt;Node5 -->
<g id="edge4" class="edge">
<title>Node3&#45;&gt;Node5</title>
<path fill="none" stroke="midnightblue" d="M386.4,-67.48C386.4,-59.08 386.4,-45.98 386.4,-35.16"/>
<polygon fill="midnightblue" stroke="midnightblue" points="389.9,-35.01 386.4,-25.01 382.9,-35.01 389.9,-35.01"/>
</g>
<!-- Node6 -->
<g id="node6" class="node">
<title>Node6</title>
<g id="a_node6"><a xlink:href="XalanVersion_8hpp.html" target="_top" xlink:title=" ">
<polygon fill="none" stroke="black" points="486.9,-6 486.9,-25 661.9,-25 661.9,-6 486.9,-6"/>
<text text-anchor="middle" x="574.4" y="-13" font-family="Helvetica,sans-Serif" font-size="10.00">xalanc/Include/XalanVersion.hpp</text>
</a>
</g>
</g>
<!-- Node3&#45;&gt;Node6 -->
<g id="edge5" class="edge">
<title>Node3&#45;&gt;Node6</title>
<path fill="none" stroke="midnightblue" d="M413.34,-67.48C446,-57.14 501.22,-39.66 537.74,-28.1"/>
<polygon fill="midnightblue" stroke="midnightblue" points="539.04,-31.36 547.52,-25.01 536.93,-24.69 539.04,-31.36"/>
</g>
<!-- Node10 -->
<g id="node10" class="node">
<title>Node10</title>
<g id="a_node10"><a xlink:href="XalanDOMDefinitions_8hpp.html" target="_top" xlink:title=" ">
<polygon fill="none" stroke="black" points="393.4,-123.5 393.4,-142.5 625.4,-142.5 625.4,-123.5 393.4,-123.5"/>
<text text-anchor="middle" x="509.4" y="-130.5" font-family="Helvetica,sans-Serif" font-size="10.00">xalanc/XalanDOM/XalanDOMDefinitions.hpp</text>
</a>
</g>
</g>
<!-- Node9&#45;&gt;Node10 -->
<g id="edge9" class="edge">
<title>Node9&#45;&gt;Node10</title>
<path fill="none" stroke="midnightblue" d="M538.89,-374.91C522.43,-366.78 500.48,-352.86 490.4,-333 459.67,-272.44 487.02,-188.19 501.62,-151.85"/>
<polygon fill="midnightblue" stroke="midnightblue" points="504.87,-153.13 505.5,-142.56 498.41,-150.44 504.87,-153.13"/>
</g>
<!-- Node11 -->
<g id="node11" class="node">
<title>Node11</title>
<g id="a_node11"><a xlink:href="XalanText_8hpp.html" target="_top" xlink:title=" ">
<polygon fill="none" stroke="black" points="499.4,-308 499.4,-327 675.4,-327 675.4,-308 499.4,-308"/>
<text text-anchor="middle" x="587.4" y="-315" font-family="Helvetica,sans-Serif" font-size="10.00">xalanc/XalanDOM/XalanText.hpp</text>
</a>
</g>
</g>
<!-- Node9&#45;&gt;Node11 -->
<g id="edge11" class="edge">
<title>Node9&#45;&gt;Node11</title>
<path fill="none" stroke="midnightblue" d="M563.18,-374.73C567.38,-364.99 574.27,-348.98 579.63,-336.53"/>
<polygon fill="midnightblue" stroke="midnightblue" points="582.94,-337.7 583.68,-327.13 576.51,-334.93 582.94,-337.7"/>
</g>
<!-- Node10&#45;&gt;Node3 -->
<g id="edge10" class="edge">
<title>Node10&#45;&gt;Node3</title>
<path fill="none" stroke="midnightblue" d="M489.91,-123.44C469.76,-114.6 438.08,-100.69 415.07,-90.59"/>
<polygon fill="midnightblue" stroke="midnightblue" points="416.36,-87.33 405.8,-86.52 413.55,-93.74 416.36,-87.33"/>
</g>
<!-- Node11&#45;&gt;Node10 -->
<g id="edge12" class="edge">
<title>Node11&#45;&gt;Node10</title>
<path fill="none" stroke="midnightblue" d="M572.07,-307.84C558.23,-299.15 538.54,-284.43 528.4,-266 508.47,-229.77 507.1,-179.86 508.1,-152.98"/>
<polygon fill="midnightblue" stroke="midnightblue" points="511.61,-152.85 508.64,-142.68 504.62,-152.48 511.61,-152.85"/>
</g>
<!-- Node12 -->
<g id="node12" class="node">
<title>Node12</title>
<g id="a_node12"><a xlink:href="XalanCharacterData_8hpp.html" target="_top" xlink:title=" ">
<polygon fill="none" stroke="black" points="537.4,-235.5 537.4,-265.5 719.4,-265.5 719.4,-235.5 537.4,-235.5"/>
<text text-anchor="start" x="545.4" y="-253.5" font-family="Helvetica,sans-Serif" font-size="10.00">xalanc/XalanDOM/XalanCharacter</text>
<text text-anchor="middle" x="628.4" y="-242.5" font-family="Helvetica,sans-Serif" font-size="10.00">Data.hpp</text>
</a>
</g>
</g>
<!-- Node11&#45;&gt;Node12 -->
<g id="edge13" class="edge">
<title>Node11&#45;&gt;Node12</title>
<path fill="none" stroke="midnightblue" d="M592.93,-307.73C598.31,-299.2 606.72,-285.87 614,-274.33"/>
<polygon fill="midnightblue" stroke="midnightblue" points="617.14,-275.91 619.51,-265.59 611.22,-272.18 617.14,-275.91"/>
</g>
<!-- Node12&#45;&gt;Node10 -->
<g id="edge14" class="edge">
<title>Node12&#45;&gt;Node10</title>
<path fill="none" stroke="midnightblue" d="M609.9,-235.38C597.48,-225.61 580.96,-212.07 567.4,-199 551.32,-183.5 534.49,-164.26 523.13,-150.75"/>
<polygon fill="midnightblue" stroke="midnightblue" points="525.6,-148.24 516.52,-142.79 520.22,-152.72 525.6,-148.24"/>
</g>
<!-- Node13 -->
<g id="node13" class="node">
<title>Node13</title>
<g id="a_node13"><a xlink:href="XalanNode_8hpp.html" target="_top" xlink:title=" ">
<polygon fill="none" stroke="black" points="575.9,-179.5 575.9,-198.5 756.9,-198.5 756.9,-179.5 575.9,-179.5"/>
<text text-anchor="middle" x="666.4" y="-186.5" font-family="Helvetica,sans-Serif" font-size="10.00">xalanc/XalanDOM/XalanNode.hpp</text>
</a>
</g>
</g>
<!-- Node12&#45;&gt;Node13 -->
<g id="edge15" class="edge">
<title>Node12&#45;&gt;Node13</title>
<path fill="none" stroke="midnightblue" d="M637.41,-235.4C642.81,-226.93 649.73,-216.1 655.46,-207.14"/>
<polygon fill="midnightblue" stroke="midnightblue" points="658.44,-208.97 660.87,-198.66 652.54,-205.2 658.44,-208.97"/>
</g>
<!-- Node13&#45;&gt;Node10 -->
<g id="edge16" class="edge">
<title>Node13&#45;&gt;Node10</title>
<path fill="none" stroke="midnightblue" d="M641.52,-179.44C615.11,-170.36 573.19,-155.94 543.66,-145.78"/>
<polygon fill="midnightblue" stroke="midnightblue" points="544.76,-142.46 534.16,-142.52 542.48,-149.08 544.76,-142.46"/>
</g>
<!-- Node14&#45;&gt;Node2 -->
<g id="edge18" class="edge">
<title>Node14&#45;&gt;Node2</title>
<path fill="none" stroke="midnightblue" d="M327.33,-369.4C323.88,-361.39 319.47,-351.16 315.51,-341.98"/>
<polygon fill="midnightblue" stroke="midnightblue" points="318.64,-340.38 311.46,-332.58 312.21,-343.15 318.64,-340.38"/>
</g>
</g>
</svg>
        <g id="navigator" transform="translate(0 0)" fill="#404254">
                <rect fill="#f2f5e9" fill-opacity="0.5" stroke="#606060" stroke-width=".5" x="0" y="0" width="60" height="60"/>
                <use id="zoomplus" xlink:href="#zoomPlus" x="17" y="9" onmousedown="handleZoom(evt,'in')"/>
                <use id="zoomminus" xlink:href="#zoomMin" x="42" y="9" onmousedown="handleZoom(evt,'out')"/>
                <use id="reset" xlink:href="#resetDef" x="30" y="36" onmousedown="handleReset()"/>
                <g id="arrowUp" xlink:href="#dirArrow" transform="translate(30 24)" onmousedown="handlePan(0,-1)">
                  <use xlink:href="#rim" fill="#404040">
                        <set attributeName="fill" to="#808080" begin="arrowUp.mouseover" end="arrowUp.mouseout"/>
                  </use>
                  <path fill="none" stroke="white" stroke-width="1.5" d="M0,-3.0v7 M-2.5,-0.5L0,-3.0L2.5,-0.5"/>
                </g>
                <g id="arrowRight" xlink:href="#dirArrow" transform="rotate(90) translate(36 -43)" onmousedown="handlePan(1,0)">
                  <use xlink:href="#rim" fill="#404040">
                        <set attributeName="fill" to="#808080" begin="arrowRight.mouseover" end="arrowRight.mouseout"/>
                  </use>
                  <path fill="none" stroke="white" stroke-width="1.5" d="M0,-3.0v7 M-2.5,-0.5L0,-3.0L2.5,-0.5"/>
                </g>
                <g id="arrowDown" xlink:href="#dirArrow" transform="rotate(180) translate(-30 -48)" onmousedown="handlePan(0,1)">
                  <use xlink:href="#rim" fill="#404040">
                        <set attributeName="fill" to="#808080" begin="arrowDown.mouseover" end="arrowDown.mouseout"/>
                  </use>
                  <path fill="none" stroke="white" stroke-width="1.5" d="M0,-3.0v7 M-2.5,-0.5L0,-3.0L2.5,-0.5"/>
                </g>
                <g id="arrowLeft" xlink:href="#dirArrow" transform="rotate(270) translate(-36 17)" onmousedown="handlePan(-1,0)">
                  <use xlink:href="#rim" fill="#404040">
                        <set attributeName="fill" to="#808080" begin="arrowLeft.mouseover" end="arrowLeft.mouseout"/>
                  </use>
                  <path fill="none" stroke="white" stroke-width="1.5" d="M0,-3.0v7 M-2.5,-0.5L0,-3.0L2.5,-0.5"/>
                </g>
        </g>
        <svg viewBox="0 0 15 15" width="100%" height="30px" preserveAspectRatio="xMaxYMin meet">
         <g id="arrow_out" transform="scale(0.3 0.3)">
          <a xlink:href="XercesCDATASectionBridge_8hpp__incl_org.svg" target="_base">
           <rect id="button" ry="5" rx="5" y="6" x="6" height="38" width="38"
                fill="#f2f5e9" fill-opacity="0.5" stroke="#606060" stroke-width="1.0"/>
           <path id="arrow"
             d="M 11.500037,31.436501 C 11.940474,20.09759 22.043105,11.32322 32.158766,21.979434 L 37.068811,17.246167 C 37.068811,17.246167 37.088388,32 37.088388,32 L 22.160133,31.978069 C 22.160133,31.978069 26.997745,27.140456 26.997745,27.140456 C 18.528582,18.264221 13.291696,25.230495 11.500037,31.436501 z"
             style="fill:#404040;"/>
          </a>
         </g>
        </svg>
</svg>
