<?xml version="1.0" encoding="UTF-8" standalone="no"?>
<!DOCTYPE svg PUBLIC "-//W3C//DTD SVG 1.1//EN"
 "http://www.w3.org/Graphics/SVG/1.1/DTD/svg11.dtd">
<!-- Generated by graphviz version 2.38.0 (20140413.2041)
 -->
<!-- Title: xalanc/XercesParserLiaison/XercesNamedNodeMapAttributeList.hpp Pages: 1 -->
<svg width="498pt" height="296pt"
 viewBox="0.00 0.00 497.50 296.00" xmlns="http://www.w3.org/2000/svg" xmlns:xlink="http://www.w3.org/1999/xlink">
<g id="graph0" class="graph" transform="scale(1 1) rotate(0) translate(4 292)">
<title>xalanc/XercesParserLiaison/XercesNamedNodeMapAttributeList.hpp</title>
<!-- Node1 -->
<g id="node1" class="node"><title>Node1</title>
<g id="a_node1"><a xlink:title=" ">
<polygon fill="#bfbfbf" stroke="black" points="166,-257.5 166,-287.5 358,-287.5 358,-257.5 166,-257.5"/>
<text text-anchor="start" x="174" y="-275.5" font-family="Helvetica,sans-Serif" font-size="10.00">xalanc/XercesParserLiaison</text>
<text text-anchor="middle" x="262" y="-264.5" font-family="Helvetica,sans-Serif" font-size="10.00">/XercesNamedNodeMapAttributeList.hpp</text>
</a>
</g>
</g>
<!-- Node2 -->
<g id="node2" class="node"><title>Node2</title>
<g id="a_node2"><a xlink:href="XercesParserLiaisonDefinitions_8hpp.html" target="_top" xlink:title=" ">
<polygon fill="none" stroke="black" points="205,-123.5 205,-153.5 377,-153.5 377,-123.5 205,-123.5"/>
<text text-anchor="start" x="213" y="-141.5" font-family="Helvetica,sans-Serif" font-size="10.00">xalanc/XercesParserLiaison</text>
<text text-anchor="middle" x="291" y="-130.5" font-family="Helvetica,sans-Serif" font-size="10.00">/XercesParserLiaisonDefinitions.hpp</text>
</a>
</g>
</g>
<!-- Node1&#45;&gt;Node2 -->
<g id="edge1" class="edge"><title>Node1&#45;&gt;Node2</title>
<path fill="none" stroke="midnightblue" d="M223.344,-257.371C207.233,-249.339 190.167,-237.518 181,-221 174.314,-208.953 173.563,-201.598 181,-190 190.34,-175.435 205.051,-165.015 220.713,-157.58"/>
<polygon fill="midnightblue" stroke="midnightblue" points="222.234,-160.735 230.01,-153.539 219.444,-154.316 222.234,-160.735"/>
</g>
<!-- Node8 -->
<g id="node8" class="node"><title>Node8</title>
<g id="a_node8"><a xlink:title=" ">
<polygon fill="none" stroke="#bfbfbf" points="190,-196 190,-215 334,-215 334,-196 190,-196"/>
<text text-anchor="middle" x="262" y="-203" font-family="Helvetica,sans-Serif" font-size="10.00">xercesc/sax/AttributeList.hpp</text>
</a>
</g>
</g>
<!-- Node1&#45;&gt;Node8 -->
<g id="edge7" class="edge"><title>Node1&#45;&gt;Node8</title>
<path fill="none" stroke="midnightblue" d="M262,-257.396C262,-248.064 262,-235.714 262,-225.517"/>
<polygon fill="midnightblue" stroke="midnightblue" points="265.5,-225.195 262,-215.195 258.5,-225.195 265.5,-225.195"/>
</g>
<!-- Node9 -->
<g id="node9" class="node"><title>Node9</title>
<g id="a_node9"><a xlink:href="XercesWrapperTypes_8hpp.html" target="_top" xlink:title=" ">
<polygon fill="none" stroke="black" points="352.5,-190.5 352.5,-220.5 489.5,-220.5 489.5,-190.5 352.5,-190.5"/>
<text text-anchor="start" x="360.5" y="-208.5" font-family="Helvetica,sans-Serif" font-size="10.00">xalanc/XercesParserLiaison</text>
<text text-anchor="middle" x="421" y="-197.5" font-family="Helvetica,sans-Serif" font-size="10.00">/XercesWrapperTypes.hpp</text>
</a>
</g>
</g>
<!-- Node1&#45;&gt;Node9 -->
<g id="edge8" class="edge"><title>Node1&#45;&gt;Node9</title>
<path fill="none" stroke="midnightblue" d="M296.501,-257.396C320.149,-247.728 351.719,-234.823 377.15,-224.426"/>
<polygon fill="midnightblue" stroke="midnightblue" points="378.635,-227.6 386.567,-220.577 375.986,-221.121 378.635,-227.6"/>
</g>
<!-- Node3 -->
<g id="node3" class="node"><title>Node3</title>
<g id="a_node3"><a xlink:href="PlatformDefinitions_8hpp.html" target="_top" xlink:title=" ">
<polygon fill="none" stroke="black" points="111,-67.5 111,-86.5 293,-86.5 293,-67.5 111,-67.5"/>
<text text-anchor="middle" x="202" y="-74.5" font-family="Helvetica,sans-Serif" font-size="10.00">xalanc/Include/PlatformDefinitions.hpp</text>
</a>
</g>
</g>
<!-- Node2&#45;&gt;Node3 -->
<g id="edge2" class="edge"><title>Node2&#45;&gt;Node3</title>
<path fill="none" stroke="midnightblue" d="M269.908,-123.399C255.909,-114.04 237.589,-101.792 223.505,-92.3771"/>
<polygon fill="midnightblue" stroke="midnightblue" points="225.209,-89.3059 214.95,-86.6578 221.318,-95.1253 225.209,-89.3059"/>
</g>
<!-- Node7 -->
<g id="node7" class="node"><title>Node7</title>
<g id="a_node7"><a xlink:title=" ">
<polygon fill="none" stroke="#bfbfbf" points="311.5,-67.5 311.5,-86.5 448.5,-86.5 448.5,-67.5 311.5,-67.5"/>
<text text-anchor="middle" x="380" y="-74.5" font-family="Helvetica,sans-Serif" font-size="10.00">xercesc/util/XercesDefs.hpp</text>
</a>
</g>
</g>
<!-- Node2&#45;&gt;Node7 -->
<g id="edge6" class="edge"><title>Node2&#45;&gt;Node7</title>
<path fill="none" stroke="midnightblue" d="M312.092,-123.399C326.091,-114.04 344.411,-101.792 358.495,-92.3771"/>
<polygon fill="midnightblue" stroke="midnightblue" points="360.682,-95.1253 367.05,-86.6578 356.791,-89.3059 360.682,-95.1253"/>
</g>
<!-- Node4 -->
<g id="node4" class="node"><title>Node4</title>
<g id="a_node4"><a xlink:title=" ">
<polygon fill="none" stroke="#bfbfbf" points="0,-0.5 0,-30.5 108,-30.5 108,-0.5 0,-0.5"/>
<text text-anchor="start" x="8" y="-18.5" font-family="Helvetica,sans-Serif" font-size="10.00">xercesc/util/Xerces</text>
<text text-anchor="middle" x="54" y="-7.5" font-family="Helvetica,sans-Serif" font-size="10.00">_autoconf_config.hpp</text>
</a>
</g>
</g>
<!-- Node3&#45;&gt;Node4 -->
<g id="edge3" class="edge"><title>Node3&#45;&gt;Node4</title>
<path fill="none" stroke="midnightblue" d="M180.795,-67.4751C159.346,-58.8518 125.548,-45.2641 98.2387,-34.2852"/>
<polygon fill="midnightblue" stroke="midnightblue" points="99.4645,-31.0058 88.8807,-30.523 96.8534,-37.5005 99.4645,-31.0058"/>
</g>
<!-- Node5 -->
<g id="node5" class="node"><title>Node5</title>
<g id="a_node5"><a xlink:title=" ">
<polygon fill="none" stroke="#bfbfbf" points="126.5,-6 126.5,-25 277.5,-25 277.5,-6 126.5,-6"/>
<text text-anchor="middle" x="202" y="-13" font-family="Helvetica,sans-Serif" font-size="10.00">xercesc/util/XercesVersion.hpp</text>
</a>
</g>
</g>
<!-- Node3&#45;&gt;Node5 -->
<g id="edge4" class="edge"><title>Node3&#45;&gt;Node5</title>
<path fill="none" stroke="midnightblue" d="M202,-67.4751C202,-59.0803 202,-45.9806 202,-35.1631"/>
<polygon fill="midnightblue" stroke="midnightblue" points="205.5,-35.0091 202,-25.0091 198.5,-35.0091 205.5,-35.0091"/>
</g>
<!-- Node6 -->
<g id="node6" class="node"><title>Node6</title>
<g id="a_node6"><a xlink:href="XalanVersion_8hpp.html" target="_top" xlink:title=" ">
<polygon fill="none" stroke="black" points="296,-6 296,-25 388,-25 388,-6 296,-6"/>
<text text-anchor="middle" x="342" y="-13" font-family="Helvetica,sans-Serif" font-size="10.00">XalanVersion.hpp</text>
</a>
</g>
</g>
<!-- Node3&#45;&gt;Node6 -->
<g id="edge5" class="edge"><title>Node3&#45;&gt;Node6</title>
<path fill="none" stroke="midnightblue" d="M222.059,-67.4751C245.762,-57.4013 285.406,-40.5525 312.583,-29.0023"/>
<polygon fill="midnightblue" stroke="midnightblue" points="314.144,-32.1417 321.979,-25.0091 311.406,-25.6994 314.144,-32.1417"/>
</g>
<!-- Node9&#45;&gt;Node2 -->
<g id="edge9" class="edge"><title>Node9&#45;&gt;Node2</title>
<path fill="none" stroke="midnightblue" d="M392.792,-190.396C373.883,-180.941 348.779,-168.39 328.234,-158.117"/>
<polygon fill="midnightblue" stroke="midnightblue" points="329.663,-154.918 319.153,-153.577 326.532,-161.179 329.663,-154.918"/>
</g>
</g>
</svg>
