<?xml version="1.0" encoding="UTF-8" standalone="no"?>
<!DOCTYPE svg PUBLIC "-//W3C//DTD SVG 1.1//EN"
 "http://www.w3.org/Graphics/SVG/1.1/DTD/svg11.dtd">
<!-- Generated by graphviz version 2.43.0 (0)
 -->
<!-- Title: xalanc/XercesParserLiaison/Deprecated/XercesNamedNodeMapBridge.hpp Pages: 1 -->
<svg width="577pt" height="285pt"
 viewBox="0.00 0.00 576.50 285.00" xmlns="http://www.w3.org/2000/svg" xmlns:xlink="http://www.w3.org/1999/xlink">
<g id="graph0" class="graph" transform="scale(1 1) rotate(0) translate(4 281)">
<title>xalanc/XercesParserLiaison/Deprecated/XercesNamedNodeMapBridge.hpp</title>
<!-- Node1 -->
<g id="node1" class="node">
<title>Node1</title>
<g id="a_node1"><a xlink:title=" ">
<polygon fill="#bfbfbf" stroke="black" points="171.5,-246.5 171.5,-276.5 417.5,-276.5 417.5,-246.5 171.5,-246.5"/>
<text text-anchor="start" x="179.5" y="-264.5" font-family="Helvetica,sans-Serif" font-size="10.00">xalanc/XercesParserLiaison</text>
<text text-anchor="middle" x="294.5" y="-253.5" font-family="Helvetica,sans-Serif" font-size="10.00">/Deprecated/XercesNamedNodeMapBridge.hpp</text>
</a>
</g>
</g>
<!-- Node2 -->
<g id="node2" class="node">
<title>Node2</title>
<g id="a_node2"><a xlink:href="XercesParserLiaisonDefinitions_8hpp.html" target="_top" xlink:title=" ">
<polygon fill="none" stroke="black" points="0,-179.5 0,-209.5 191,-209.5 191,-179.5 0,-179.5"/>
<text text-anchor="start" x="8" y="-197.5" font-family="Helvetica,sans-Serif" font-size="10.00">xalanc/XercesParserLiaison</text>
<text text-anchor="middle" x="95.5" y="-186.5" font-family="Helvetica,sans-Serif" font-size="10.00">/XercesParserLiaisonDefinitions.hpp</text>
</a>
</g>
</g>
<!-- Node1&#45;&gt;Node2 -->
<g id="edge1" class="edge">
<title>Node1&#45;&gt;Node2</title>
<path fill="none" stroke="midnightblue" d="M251.32,-246.4C221.07,-236.52 180.47,-223.25 148.29,-212.74"/>
<polygon fill="midnightblue" stroke="midnightblue" points="149.19,-209.35 138.6,-209.58 147.01,-216.01 149.19,-209.35"/>
</g>
<!-- Node8 -->
<g id="node8" class="node">
<title>Node8</title>
<g id="a_node8"><a xlink:title=" ">
<polygon fill="none" stroke="#bfbfbf" points="209,-179.5 209,-209.5 380,-209.5 380,-179.5 209,-179.5"/>
<text text-anchor="start" x="217" y="-197.5" font-family="Helvetica,sans-Serif" font-size="10.00">xercesc/dom/DOM_NamedNode</text>
<text text-anchor="middle" x="294.5" y="-186.5" font-family="Helvetica,sans-Serif" font-size="10.00">Map.hpp</text>
</a>
</g>
</g>
<!-- Node1&#45;&gt;Node8 -->
<g id="edge7" class="edge">
<title>Node1&#45;&gt;Node8</title>
<path fill="none" stroke="midnightblue" d="M294.5,-246.4C294.5,-238.64 294.5,-228.81 294.5,-219.86"/>
<polygon fill="midnightblue" stroke="midnightblue" points="298,-219.58 294.5,-209.58 291,-219.58 298,-219.58"/>
</g>
<!-- Node9 -->
<g id="node9" class="node">
<title>Node9</title>
<g id="a_node9"><a xlink:href="XalanNamedNodeMap_8hpp.html" target="_top" xlink:title=" ">
<polygon fill="none" stroke="black" points="398.5,-179.5 398.5,-209.5 568.5,-209.5 568.5,-179.5 398.5,-179.5"/>
<text text-anchor="start" x="406.5" y="-197.5" font-family="Helvetica,sans-Serif" font-size="10.00">xalanc/XalanDOM/XalanNamed</text>
<text text-anchor="middle" x="483.5" y="-186.5" font-family="Helvetica,sans-Serif" font-size="10.00">NodeMap.hpp</text>
</a>
</g>
</g>
<!-- Node1&#45;&gt;Node9 -->
<g id="edge8" class="edge">
<title>Node1&#45;&gt;Node9</title>
<path fill="none" stroke="midnightblue" d="M335.51,-246.4C364.12,-236.56 402.47,-223.37 432.97,-212.88"/>
<polygon fill="midnightblue" stroke="midnightblue" points="434.25,-216.14 442.57,-209.58 431.98,-209.52 434.25,-216.14"/>
</g>
<!-- Node3 -->
<g id="node3" class="node">
<title>Node3</title>
<g id="a_node3"><a xlink:href="PlatformDefinitions_8hpp.html" target="_top" xlink:title=" ">
<polygon fill="none" stroke="black" points="149.5,-67.5 149.5,-86.5 355.5,-86.5 355.5,-67.5 149.5,-67.5"/>
<text text-anchor="middle" x="252.5" y="-74.5" font-family="Helvetica,sans-Serif" font-size="10.00">xalanc/Include/PlatformDefinitions.hpp</text>
</a>
</g>
</g>
<!-- Node2&#45;&gt;Node3 -->
<g id="edge2" class="edge">
<title>Node2&#45;&gt;Node3</title>
<path fill="none" stroke="midnightblue" d="M95.51,-179.43C96.28,-163.68 99.92,-138.35 114.5,-123 130.29,-106.36 152.3,-95.87 174.11,-89.25"/>
<polygon fill="midnightblue" stroke="midnightblue" points="175.07,-92.62 183.76,-86.56 173.19,-85.88 175.07,-92.62"/>
</g>
<!-- Node7 -->
<g id="node7" class="node">
<title>Node7</title>
<g id="a_node7"><a xlink:title=" ">
<polygon fill="none" stroke="#bfbfbf" points="123.5,-123.5 123.5,-142.5 275.5,-142.5 275.5,-123.5 123.5,-123.5"/>
<text text-anchor="middle" x="199.5" y="-130.5" font-family="Helvetica,sans-Serif" font-size="10.00">xercesc/util/XercesDefs.hpp</text>
</a>
</g>
</g>
<!-- Node2&#45;&gt;Node7 -->
<g id="edge6" class="edge">
<title>Node2&#45;&gt;Node7</title>
<path fill="none" stroke="midnightblue" d="M120.15,-179.4C136.82,-169.86 158.73,-157.32 175.31,-147.84"/>
<polygon fill="midnightblue" stroke="midnightblue" points="177.43,-150.66 184.37,-142.66 173.95,-144.59 177.43,-150.66"/>
</g>
<!-- Node4 -->
<g id="node4" class="node">
<title>Node4</title>
<g id="a_node4"><a xlink:title=" ">
<polygon fill="none" stroke="#bfbfbf" points="31.5,-0.5 31.5,-30.5 151.5,-30.5 151.5,-0.5 31.5,-0.5"/>
<text text-anchor="start" x="39.5" y="-18.5" font-family="Helvetica,sans-Serif" font-size="10.00">xercesc/util/Xerces</text>
<text text-anchor="middle" x="91.5" y="-7.5" font-family="Helvetica,sans-Serif" font-size="10.00">_autoconf_config.hpp</text>
</a>
</g>
</g>
<!-- Node3&#45;&gt;Node4 -->
<g id="edge3" class="edge">
<title>Node3&#45;&gt;Node4</title>
<path fill="none" stroke="midnightblue" d="M229.43,-67.48C205.9,-58.78 168.69,-45.03 138.85,-34"/>
<polygon fill="midnightblue" stroke="midnightblue" points="140.04,-30.71 129.44,-30.52 137.61,-37.27 140.04,-30.71"/>
</g>
<!-- Node5 -->
<g id="node5" class="node">
<title>Node5</title>
<g id="a_node5"><a xlink:title=" ">
<polygon fill="none" stroke="#bfbfbf" points="170,-6 170,-25 335,-25 335,-6 170,-6"/>
<text text-anchor="middle" x="252.5" y="-13" font-family="Helvetica,sans-Serif" font-size="10.00">xercesc/util/XercesVersion.hpp</text>
</a>
</g>
</g>
<!-- Node3&#45;&gt;Node5 -->
<g id="edge4" class="edge">
<title>Node3&#45;&gt;Node5</title>
<path fill="none" stroke="midnightblue" d="M252.5,-67.48C252.5,-59.08 252.5,-45.98 252.5,-35.16"/>
<polygon fill="midnightblue" stroke="midnightblue" points="256,-35.01 252.5,-25.01 249,-35.01 256,-35.01"/>
</g>
<!-- Node6 -->
<g id="node6" class="node">
<title>Node6</title>
<g id="a_node6"><a xlink:href="XalanVersion_8hpp.html" target="_top" xlink:title=" ">
<polygon fill="none" stroke="black" points="353,-6 353,-25 528,-25 528,-6 353,-6"/>
<text text-anchor="middle" x="440.5" y="-13" font-family="Helvetica,sans-Serif" font-size="10.00">xalanc/Include/XalanVersion.hpp</text>
</a>
</g>
</g>
<!-- Node3&#45;&gt;Node6 -->
<g id="edge5" class="edge">
<title>Node3&#45;&gt;Node6</title>
<path fill="none" stroke="midnightblue" d="M279.44,-67.48C312.1,-57.14 367.32,-39.66 403.84,-28.1"/>
<polygon fill="midnightblue" stroke="midnightblue" points="405.14,-31.36 413.61,-25.01 403.02,-24.69 405.14,-31.36"/>
</g>
<!-- Node10 -->
<g id="node10" class="node">
<title>Node10</title>
<g id="a_node10"><a xlink:href="XalanDOMDefinitions_8hpp.html" target="_top" xlink:title=" ">
<polygon fill="none" stroke="black" points="330.5,-123.5 330.5,-142.5 562.5,-142.5 562.5,-123.5 330.5,-123.5"/>
<text text-anchor="middle" x="446.5" y="-130.5" font-family="Helvetica,sans-Serif" font-size="10.00">xalanc/XalanDOM/XalanDOMDefinitions.hpp</text>
</a>
</g>
</g>
<!-- Node9&#45;&gt;Node10 -->
<g id="edge9" class="edge">
<title>Node9&#45;&gt;Node10</title>
<path fill="none" stroke="midnightblue" d="M474.73,-179.4C469.52,-171.02 462.87,-160.33 457.33,-151.42"/>
<polygon fill="midnightblue" stroke="midnightblue" points="460.14,-149.3 451.88,-142.66 454.19,-153 460.14,-149.3"/>
</g>
<!-- Node10&#45;&gt;Node3 -->
<g id="edge10" class="edge">
<title>Node10&#45;&gt;Node3</title>
<path fill="none" stroke="midnightblue" d="M415.76,-123.44C382.56,-114.2 329.51,-99.44 292.94,-89.26"/>
<polygon fill="midnightblue" stroke="midnightblue" points="293.67,-85.83 283.1,-86.52 291.79,-92.57 293.67,-85.83"/>
</g>
</g>
</svg>
