<?xml version="1.0" encoding="UTF-8" standalone="no"?>
<!DOCTYPE svg PUBLIC "-//W3C//DTD SVG 1.1//EN"
 "http://www.w3.org/Graphics/SVG/1.1/DTD/svg11.dtd">
<!-- Generated by graphviz version 2.43.0 (0)
 -->
<!-- Title: xalanc/XercesParserLiaison/XercesNodeListWrapper.hpp Pages: 1 -->
<svg width="600pt" height="240pt"
 viewBox="0.00 0.00 599.50 240.00" xmlns="http://www.w3.org/2000/svg" xmlns:xlink="http://www.w3.org/1999/xlink">
<g id="graph0" class="graph" transform="scale(1 1) rotate(0) translate(4 236)">
<title>xalanc/XercesParserLiaison/XercesNodeListWrapper.hpp</title>
<!-- Node1 -->
<g id="node1" class="node">
<title>Node1</title>
<g id="a_node1"><a xlink:title=" ">
<polygon fill="#bfbfbf" stroke="black" points="187.5,-201.5 187.5,-231.5 344.5,-231.5 344.5,-201.5 187.5,-201.5"/>
<text text-anchor="start" x="195.5" y="-219.5" font-family="Helvetica,sans-Serif" font-size="10.00">xalanc/XercesParserLiaison</text>
<text text-anchor="middle" x="266" y="-208.5" font-family="Helvetica,sans-Serif" font-size="10.00">/XercesNodeListWrapper.hpp</text>
</a>
</g>
</g>
<!-- Node2 -->
<g id="node2" class="node">
<title>Node2</title>
<g id="a_node2"><a xlink:href="XercesAttrWrapper_8hpp.html" target="_top" xlink:title=" ">
<polygon fill="none" stroke="black" points="20.5,-134.5 20.5,-164.5 169.5,-164.5 169.5,-134.5 20.5,-134.5"/>
<text text-anchor="start" x="28.5" y="-152.5" font-family="Helvetica,sans-Serif" font-size="10.00">xalanc/XercesParserLiaison</text>
<text text-anchor="middle" x="95" y="-141.5" font-family="Helvetica,sans-Serif" font-size="10.00">/XercesAttrWrapper.hpp</text>
</a>
</g>
</g>
<!-- Node1&#45;&gt;Node2 -->
<g id="edge1" class="edge">
<title>Node1&#45;&gt;Node2</title>
<path fill="none" stroke="midnightblue" d="M219.48,-197.82C192,-187.37 157.67,-174.32 132.03,-164.58"/>
<polygon fill="midnightblue" stroke="midnightblue" points="218.3,-201.11 228.9,-201.4 220.79,-194.57 218.3,-201.11"/>
</g>
<!-- Node4 -->
<g id="node4" class="node">
<title>Node4</title>
<g id="a_node4"><a xlink:href="XercesDocumentWrapper_8hpp.html" target="_top" xlink:title=" ">
<polygon fill="none" stroke="black" points="64,-0.5 64,-30.5 228,-30.5 228,-0.5 64,-0.5"/>
<text text-anchor="start" x="72" y="-18.5" font-family="Helvetica,sans-Serif" font-size="10.00">xalanc/XercesParserLiaison</text>
<text text-anchor="middle" x="146" y="-7.5" font-family="Helvetica,sans-Serif" font-size="10.00">/XercesDocumentWrapper.hpp</text>
</a>
</g>
</g>
<!-- Node1&#45;&gt;Node4 -->
<g id="edge4" class="edge">
<title>Node1&#45;&gt;Node4</title>
<path fill="none" stroke="midnightblue" d="M244.8,-193.88C237.23,-185.36 229.08,-175.19 223,-165 199.08,-124.88 207.96,-107.68 185,-67 177.6,-53.88 167.05,-40.45 158.79,-30.74"/>
<polygon fill="midnightblue" stroke="midnightblue" points="242.45,-196.49 251.8,-201.48 247.6,-191.75 242.45,-196.49"/>
</g>
<!-- Node5 -->
<g id="node5" class="node">
<title>Node5</title>
<g id="a_node5"><a xlink:href="XercesEntityReferenceWrapper_8hpp.html" target="_top" xlink:title=" ">
<polygon fill="none" stroke="black" points="232,-134.5 232,-164.5 424,-164.5 424,-134.5 232,-134.5"/>
<text text-anchor="start" x="240" y="-152.5" font-family="Helvetica,sans-Serif" font-size="10.00">xalanc/XercesParserLiaison</text>
<text text-anchor="middle" x="328" y="-141.5" font-family="Helvetica,sans-Serif" font-size="10.00">/XercesEntityReferenceWrapper.hpp</text>
</a>
</g>
</g>
<!-- Node1&#45;&gt;Node5 -->
<g id="edge5" class="edge">
<title>Node1&#45;&gt;Node5</title>
<path fill="none" stroke="midnightblue" d="M286.48,-194.02C295.72,-184.34 306.37,-173.17 314.57,-164.58"/>
<polygon fill="midnightblue" stroke="midnightblue" points="283.82,-191.74 279.45,-201.4 288.89,-196.58 283.82,-191.74"/>
</g>
<!-- Node6 -->
<g id="node6" class="node">
<title>Node6</title>
<g id="a_node6"><a xlink:href="XercesEntityWrapper_8hpp.html" target="_top" xlink:title=" ">
<polygon fill="none" stroke="black" points="442.5,-134.5 442.5,-164.5 591.5,-164.5 591.5,-134.5 442.5,-134.5"/>
<text text-anchor="start" x="450.5" y="-152.5" font-family="Helvetica,sans-Serif" font-size="10.00">xalanc/XercesParserLiaison</text>
<text text-anchor="middle" x="517" y="-141.5" font-family="Helvetica,sans-Serif" font-size="10.00">/XercesEntityWrapper.hpp</text>
</a>
</g>
</g>
<!-- Node1&#45;&gt;Node6 -->
<g id="edge6" class="edge">
<title>Node1&#45;&gt;Node6</title>
<path fill="none" stroke="midnightblue" d="M330.04,-198.92C371,-188.31 423.56,-174.7 462.51,-164.61"/>
<polygon fill="midnightblue" stroke="midnightblue" points="328.96,-195.58 320.15,-201.48 330.71,-202.36 328.96,-195.58"/>
</g>
<!-- Node3 -->
<g id="node3" class="node">
<title>Node3</title>
<g id="a_node3"><a xlink:href="XercesAttrWrapperAllocator_8hpp.html" target="_top" xlink:title=" ">
<polygon fill="none" stroke="black" points="0,-67.5 0,-97.5 176,-97.5 176,-67.5 0,-67.5"/>
<text text-anchor="start" x="8" y="-85.5" font-family="Helvetica,sans-Serif" font-size="10.00">xalanc/XercesParserLiaison</text>
<text text-anchor="middle" x="88" y="-74.5" font-family="Helvetica,sans-Serif" font-size="10.00">/XercesAttrWrapperAllocator.hpp</text>
</a>
</g>
</g>
<!-- Node2&#45;&gt;Node3 -->
<g id="edge2" class="edge">
<title>Node2&#45;&gt;Node3</title>
<path fill="none" stroke="midnightblue" d="M92.4,-124.4C91.43,-115.37 90.36,-105.41 89.52,-97.58"/>
<polygon fill="midnightblue" stroke="midnightblue" points="88.93,-124.83 93.48,-134.4 95.89,-124.08 88.93,-124.83"/>
</g>
<!-- Node3&#45;&gt;Node4 -->
<g id="edge3" class="edge">
<title>Node3&#45;&gt;Node4</title>
<path fill="none" stroke="midnightblue" d="M107.42,-59.74C116,-50.12 125.84,-39.09 133.44,-30.58"/>
<polygon fill="midnightblue" stroke="midnightblue" points="104.63,-57.6 100.59,-67.4 109.85,-62.26 104.63,-57.6"/>
</g>
</g>
</svg>
