<?xml version="1.0" encoding="UTF-8" standalone="no"?>
<!DOCTYPE svg PUBLIC "-//W3C//DTD SVG 1.1//EN"
 "http://www.w3.org/Graphics/SVG/1.1/DTD/svg11.dtd">
<!-- Generated by graphviz version 2.38.0 (20140413.2041)
 -->
<!-- Title: xalanc/XercesParserLiaison/Deprecated/XercesNodeListBridge.hpp Pages: 1 -->
<svg width="1000pt" height="262pt"
 viewBox="0.00 0.00 1000.00 262.00" xmlns="http://www.w3.org/2000/svg" xmlns:xlink="http://www.w3.org/1999/xlink">
<g id="graph0" class="graph" transform="scale(1 1) rotate(0) translate(4 258)">
<title>xalanc/XercesParserLiaison/Deprecated/XercesNodeListBridge.hpp</title>
<!-- Node1 -->
<g id="node1" class="node"><title>Node1</title>
<g id="a_node1"><a xlink:title=" ">
<polygon fill="#bfbfbf" stroke="black" points="325,-223.5 325,-253.5 511,-253.5 511,-223.5 325,-223.5"/>
<text text-anchor="start" x="333" y="-241.5" font-family="Helvetica,sans-Serif" font-size="10.00">xalanc/XercesParserLiaison</text>
<text text-anchor="middle" x="418" y="-230.5" font-family="Helvetica,sans-Serif" font-size="10.00">/Deprecated/XercesNodeListBridge.hpp</text>
</a>
</g>
</g>
<!-- Node2 -->
<g id="node2" class="node"><title>Node2</title>
<g id="a_node2"><a xlink:href="XercesAttrBridge_8hpp.html" target="_top" xlink:title=" ">
<polygon fill="none" stroke="black" points="2,-151 2,-181 166,-181 166,-151 2,-151"/>
<text text-anchor="start" x="10" y="-169" font-family="Helvetica,sans-Serif" font-size="10.00">xalanc/XercesParserLiaison</text>
<text text-anchor="middle" x="84" y="-158" font-family="Helvetica,sans-Serif" font-size="10.00">/Deprecated/XercesAttrBridge.hpp</text>
</a>
</g>
</g>
<!-- Node1&#45;&gt;Node2 -->
<g id="edge1" class="edge"><title>Node1&#45;&gt;Node2</title>
<path fill="none" stroke="midnightblue" d="M341.821,-221.42C284.15,-209.247 205.712,-192.691 150.547,-181.047"/>
<polygon fill="midnightblue" stroke="midnightblue" points="341.106,-224.846 351.613,-223.487 342.551,-217.997 341.106,-224.846"/>
</g>
<!-- Node4 -->
<g id="node4" class="node"><title>Node4</title>
<g id="a_node4"><a xlink:href="XercesDocumentBridge_8hpp.html" target="_top" xlink:title=" ">
<polygon fill="none" stroke="black" points="98,-0.5 98,-30.5 290,-30.5 290,-0.5 98,-0.5"/>
<text text-anchor="start" x="106" y="-18.5" font-family="Helvetica,sans-Serif" font-size="10.00">xalanc/XercesParserLiaison</text>
<text text-anchor="middle" x="194" y="-7.5" font-family="Helvetica,sans-Serif" font-size="10.00">/Deprecated/XercesDocumentBridge.hpp</text>
</a>
</g>
</g>
<!-- Node1&#45;&gt;Node4 -->
<g id="edge4" class="edge"><title>Node1&#45;&gt;Node4</title>
<path fill="none" stroke="midnightblue" d="M314.984,-223.289C271.282,-215.081 227.158,-203.138 213,-187 173.716,-142.221 184.217,-63.3444 190.69,-30.9785"/>
<polygon fill="midnightblue" stroke="midnightblue" points="314.414,-226.743 324.879,-225.088 315.666,-219.856 314.414,-226.743"/>
</g>
<!-- Node5 -->
<g id="node5" class="node"><title>Node5</title>
<g id="a_node5"><a xlink:href="XercesDocumentFragmentBridge_8hpp.html" target="_top" xlink:title=" ">
<polygon fill="none" stroke="black" points="222.5,-145.5 222.5,-186.5 409.5,-186.5 409.5,-145.5 222.5,-145.5"/>
<text text-anchor="start" x="230.5" y="-174.5" font-family="Helvetica,sans-Serif" font-size="10.00">xalanc/XercesParserLiaison</text>
<text text-anchor="start" x="230.5" y="-163.5" font-family="Helvetica,sans-Serif" font-size="10.00">/Deprecated/XercesDocumentFragment</text>
<text text-anchor="middle" x="316" y="-152.5" font-family="Helvetica,sans-Serif" font-size="10.00">Bridge.hpp</text>
</a>
</g>
</g>
<!-- Node1&#45;&gt;Node5 -->
<g id="edge5" class="edge"><title>Node1&#45;&gt;Node5</title>
<path fill="none" stroke="midnightblue" d="M389.04,-217.483C375.029,-207.799 358.269,-196.216 344.341,-186.588"/>
<polygon fill="midnightblue" stroke="midnightblue" points="387.142,-220.427 397.359,-223.233 391.123,-214.668 387.142,-220.427"/>
</g>
<!-- Node6 -->
<g id="node6" class="node"><title>Node6</title>
<g id="a_node6"><a xlink:href="XercesElementBridge_8hpp.html" target="_top" xlink:title=" ">
<polygon fill="none" stroke="black" points="428,-151 428,-181 612,-181 612,-151 428,-151"/>
<text text-anchor="start" x="436" y="-169" font-family="Helvetica,sans-Serif" font-size="10.00">xalanc/XercesParserLiaison</text>
<text text-anchor="middle" x="520" y="-158" font-family="Helvetica,sans-Serif" font-size="10.00">/Deprecated/XercesElementBridge.hpp</text>
</a>
</g>
</g>
<!-- Node1&#45;&gt;Node6 -->
<g id="edge6" class="edge"><title>Node1&#45;&gt;Node6</title>
<path fill="none" stroke="midnightblue" d="M447.036,-217.431C463.875,-205.792 484.663,-191.424 499.738,-181.005"/>
<polygon fill="midnightblue" stroke="midnightblue" points="444.877,-214.668 438.641,-223.233 448.858,-220.427 444.877,-214.668"/>
</g>
<!-- Node8 -->
<g id="node8" class="node"><title>Node8</title>
<g id="a_node8"><a xlink:href="XercesEntityBridge_8hpp.html" target="_top" xlink:title=" ">
<polygon fill="none" stroke="black" points="630.5,-151 630.5,-181 803.5,-181 803.5,-151 630.5,-151"/>
<text text-anchor="start" x="638.5" y="-169" font-family="Helvetica,sans-Serif" font-size="10.00">xalanc/XercesParserLiaison</text>
<text text-anchor="middle" x="717" y="-158" font-family="Helvetica,sans-Serif" font-size="10.00">/Deprecated/XercesEntityBridge.hpp</text>
</a>
</g>
</g>
<!-- Node1&#45;&gt;Node8 -->
<g id="edge9" class="edge"><title>Node1&#45;&gt;Node8</title>
<path fill="none" stroke="midnightblue" d="M487.48,-221.118C538.983,-208.974 608.45,-192.595 657.427,-181.047"/>
<polygon fill="midnightblue" stroke="midnightblue" points="486.36,-217.786 477.43,-223.487 487.967,-224.599 486.36,-217.786"/>
</g>
<!-- Node9 -->
<g id="node9" class="node"><title>Node9</title>
<g id="a_node9"><a xlink:href="XercesEntityReferenceBridge_8hpp.html" target="_top" xlink:title=" ">
<polygon fill="none" stroke="black" points="822,-145.5 822,-186.5 992,-186.5 992,-145.5 822,-145.5"/>
<text text-anchor="start" x="830" y="-174.5" font-family="Helvetica,sans-Serif" font-size="10.00">xalanc/XercesParserLiaison</text>
<text text-anchor="start" x="830" y="-163.5" font-family="Helvetica,sans-Serif" font-size="10.00">/Deprecated/XercesEntityReference</text>
<text text-anchor="middle" x="907" y="-152.5" font-family="Helvetica,sans-Serif" font-size="10.00">Bridge.hpp</text>
</a>
</g>
</g>
<!-- Node1&#45;&gt;Node9 -->
<g id="edge10" class="edge"><title>Node1&#45;&gt;Node9</title>
<path fill="none" stroke="midnightblue" d="M521.363,-226.647C601.255,-217.688 714.468,-203.751 813,-187 815.879,-186.511 818.803,-185.995 821.753,-185.458"/>
<polygon fill="midnightblue" stroke="midnightblue" points="520.85,-223.182 511.299,-227.769 521.625,-230.139 520.85,-223.182"/>
</g>
<!-- Node3 -->
<g id="node3" class="node"><title>Node3</title>
<g id="a_node3"><a xlink:href="XercesAttributeBridgeAllocator_8hpp.html" target="_top" xlink:title=" ">
<polygon fill="none" stroke="black" points="0,-67.5 0,-108.5 166,-108.5 166,-67.5 0,-67.5"/>
<text text-anchor="start" x="8" y="-96.5" font-family="Helvetica,sans-Serif" font-size="10.00">xalanc/XercesParserLiaison</text>
<text text-anchor="start" x="8" y="-85.5" font-family="Helvetica,sans-Serif" font-size="10.00">/Deprecated/XercesAttributeBridge</text>
<text text-anchor="middle" x="83" y="-74.5" font-family="Helvetica,sans-Serif" font-size="10.00">Allocator.hpp</text>
</a>
</g>
</g>
<!-- Node2&#45;&gt;Node3 -->
<g id="edge2" class="edge"><title>Node2&#45;&gt;Node3</title>
<path fill="none" stroke="midnightblue" d="M83.6797,-140.656C83.5438,-130.326 83.3874,-118.443 83.2589,-108.68"/>
<polygon fill="midnightblue" stroke="midnightblue" points="80.1805,-140.752 83.8119,-150.705 87.1799,-140.66 80.1805,-140.752"/>
</g>
<!-- Node3&#45;&gt;Node4 -->
<g id="edge3" class="edge"><title>Node3&#45;&gt;Node4</title>
<path fill="none" stroke="midnightblue" d="M122.808,-61.7168C139.25,-51.2735 157.695,-39.5586 171.69,-30.67"/>
<polygon fill="midnightblue" stroke="midnightblue" points="120.485,-59.0459 113.92,-67.3618 124.238,-64.9549 120.485,-59.0459"/>
</g>
<!-- Node7 -->
<g id="node7" class="node"><title>Node7</title>
<g id="a_node7"><a xlink:href="XercesElementBridgeAllocator_8hpp.html" target="_top" xlink:title=" ">
<polygon fill="none" stroke="black" points="329.5,-67.5 329.5,-108.5 494.5,-108.5 494.5,-67.5 329.5,-67.5"/>
<text text-anchor="start" x="337.5" y="-96.5" font-family="Helvetica,sans-Serif" font-size="10.00">xalanc/XercesParserLiaison</text>
<text text-anchor="start" x="337.5" y="-85.5" font-family="Helvetica,sans-Serif" font-size="10.00">/Deprecated/XercesElementBridge</text>
<text text-anchor="middle" x="412" y="-74.5" font-family="Helvetica,sans-Serif" font-size="10.00">Allocator.hpp</text>
</a>
</g>
</g>
<!-- Node6&#45;&gt;Node7 -->
<g id="edge7" class="edge"><title>Node6&#45;&gt;Node7</title>
<path fill="none" stroke="midnightblue" d="M491.554,-144.982C475.662,-133.799 455.931,-119.915 440.096,-108.771"/>
<polygon fill="midnightblue" stroke="midnightblue" points="489.747,-147.99 499.939,-150.883 493.775,-142.266 489.747,-147.99"/>
</g>
<!-- Node7&#45;&gt;Node4 -->
<g id="edge8" class="edge"><title>Node7&#45;&gt;Node4</title>
<path fill="none" stroke="midnightblue" d="M341.615,-64.238C307.391,-53.1702 267.335,-40.216 237.59,-30.5968"/>
<polygon fill="midnightblue" stroke="midnightblue" points="340.973,-67.7085 351.564,-67.4554 343.127,-61.0481 340.973,-67.7085"/>
</g>
</g>
</svg>
