<?xml version="1.0" encoding="UTF-8" standalone="no"?>
<!DOCTYPE svg PUBLIC "-//W3C//DTD SVG 1.1//EN"
 "http://www.w3.org/Graphics/SVG/1.1/DTD/svg11.dtd">
<!-- Generated by graphviz version 2.43.0 (0)
 -->
<!-- Title: xalanc/XercesParserLiaison/Deprecated/XercesToXalanNodeMap.hpp Pages: 1 -->
<svg width="1074pt" height="363pt"
 viewBox="0.00 0.00 1074.00 363.00" xmlns="http://www.w3.org/2000/svg" xmlns:xlink="http://www.w3.org/1999/xlink">
<g id="graph0" class="graph" transform="scale(1 1) rotate(0) translate(4 359)">
<title>xalanc/XercesParserLiaison/Deprecated/XercesToXalanNodeMap.hpp</title>
<!-- Node1 -->
<g id="node1" class="node">
<title>Node1</title>
<g id="a_node1"><a xlink:title=" ">
<polygon fill="#bfbfbf" stroke="black" points="79,-324.5 79,-354.5 297,-354.5 297,-324.5 79,-324.5"/>
<text text-anchor="start" x="87" y="-342.5" font-family="Helvetica,sans-Serif" font-size="10.00">xalanc/XercesParserLiaison</text>
<text text-anchor="middle" x="188" y="-331.5" font-family="Helvetica,sans-Serif" font-size="10.00">/Deprecated/XercesToXalanNodeMap.hpp</text>
</a>
</g>
</g>
<!-- Node2 -->
<g id="node2" class="node">
<title>Node2</title>
<g id="a_node2"><a xlink:href="XercesParserLiaisonDefinitions_8hpp.html" target="_top" xlink:title=" ">
<polygon fill="none" stroke="black" points="223.5,-123.5 223.5,-153.5 414.5,-153.5 414.5,-123.5 223.5,-123.5"/>
<text text-anchor="start" x="231.5" y="-141.5" font-family="Helvetica,sans-Serif" font-size="10.00">xalanc/XercesParserLiaison</text>
<text text-anchor="middle" x="319" y="-130.5" font-family="Helvetica,sans-Serif" font-size="10.00">/XercesParserLiaisonDefinitions.hpp</text>
</a>
</g>
</g>
<!-- Node1&#45;&gt;Node2 -->
<g id="edge1" class="edge">
<title>Node1&#45;&gt;Node2</title>
<path fill="none" stroke="midnightblue" d="M168.9,-324.43C157.87,-315.28 144.7,-302.39 137,-288 116.28,-249.25 97.11,-224.75 124,-190 135.84,-174.7 173.86,-163.2 213.22,-155.06"/>
<polygon fill="midnightblue" stroke="midnightblue" points="214.12,-158.45 223.25,-153.07 212.75,-151.59 214.12,-158.45"/>
</g>
<!-- Node8 -->
<g id="node8" class="node">
<title>Node8</title>
<g id="a_node8"><a xlink:title=" ">
<polygon fill="none" stroke="#bfbfbf" points="146,-263 146,-282 184,-282 184,-263 146,-263"/>
<text text-anchor="middle" x="165" y="-270" font-family="Helvetica,sans-Serif" font-size="10.00">map</text>
</a>
</g>
</g>
<!-- Node1&#45;&gt;Node8 -->
<g id="edge7" class="edge">
<title>Node1&#45;&gt;Node8</title>
<path fill="none" stroke="midnightblue" d="M183.01,-324.4C179.64,-314.86 175.15,-302.18 171.5,-291.86"/>
<polygon fill="midnightblue" stroke="midnightblue" points="174.71,-290.45 168.08,-282.19 168.11,-292.79 174.71,-290.45"/>
</g>
<!-- Node9 -->
<g id="node9" class="node">
<title>Node9</title>
<g id="a_node9"><a xlink:title=" ">
<polygon fill="none" stroke="#bfbfbf" points="133.5,-196 133.5,-215 290.5,-215 290.5,-196 133.5,-196"/>
<text text-anchor="middle" x="212" y="-203" font-family="Helvetica,sans-Serif" font-size="10.00">xercesc/dom/DOM_Node.hpp</text>
</a>
</g>
</g>
<!-- Node1&#45;&gt;Node9 -->
<g id="edge8" class="edge">
<title>Node1&#45;&gt;Node9</title>
<path fill="none" stroke="midnightblue" d="M190.57,-324.37C194.93,-300.4 203.77,-251.75 208.63,-225.06"/>
<polygon fill="midnightblue" stroke="midnightblue" points="212.09,-225.56 210.44,-215.1 205.2,-224.31 212.09,-225.56"/>
</g>
<!-- Node10 -->
<g id="node10" class="node">
<title>Node10</title>
<g id="a_node10"><a xlink:href="XercesDOM__NodeHack_8hpp.html" target="_top" xlink:title=" ">
<polygon fill="none" stroke="black" points="315,-257.5 315,-287.5 527,-287.5 527,-257.5 315,-257.5"/>
<text text-anchor="start" x="323" y="-275.5" font-family="Helvetica,sans-Serif" font-size="10.00">xalanc/XercesParserLiaison</text>
<text text-anchor="middle" x="421" y="-264.5" font-family="Helvetica,sans-Serif" font-size="10.00">/Deprecated/XercesDOM_NodeHack.hpp</text>
</a>
</g>
</g>
<!-- Node1&#45;&gt;Node10 -->
<g id="edge9" class="edge">
<title>Node1&#45;&gt;Node10</title>
<path fill="none" stroke="midnightblue" d="M238.27,-324.48C274.13,-314.47 322.53,-300.97 360.5,-290.38"/>
<polygon fill="midnightblue" stroke="midnightblue" points="361.73,-293.67 370.42,-287.61 359.85,-286.93 361.73,-293.67"/>
</g>
<!-- Node3 -->
<g id="node3" class="node">
<title>Node3</title>
<g id="a_node3"><a xlink:href="PlatformDefinitions_8hpp.html" target="_top" xlink:title=" ">
<polygon fill="none" stroke="black" points="118,-67.5 118,-86.5 324,-86.5 324,-67.5 118,-67.5"/>
<text text-anchor="middle" x="221" y="-74.5" font-family="Helvetica,sans-Serif" font-size="10.00">xalanc/Include/PlatformDefinitions.hpp</text>
</a>
</g>
</g>
<!-- Node2&#45;&gt;Node3 -->
<g id="edge2" class="edge">
<title>Node2&#45;&gt;Node3</title>
<path fill="none" stroke="midnightblue" d="M295.78,-123.4C280.21,-113.95 259.8,-101.56 244.24,-92.11"/>
<polygon fill="midnightblue" stroke="midnightblue" points="245.62,-88.86 235.26,-86.66 241.99,-94.84 245.62,-88.86"/>
</g>
<!-- Node7 -->
<g id="node7" class="node">
<title>Node7</title>
<g id="a_node7"><a xlink:title=" ">
<polygon fill="none" stroke="#bfbfbf" points="342,-67.5 342,-86.5 494,-86.5 494,-67.5 342,-67.5"/>
<text text-anchor="middle" x="418" y="-74.5" font-family="Helvetica,sans-Serif" font-size="10.00">xercesc/util/XercesDefs.hpp</text>
</a>
</g>
</g>
<!-- Node2&#45;&gt;Node7 -->
<g id="edge6" class="edge">
<title>Node2&#45;&gt;Node7</title>
<path fill="none" stroke="midnightblue" d="M342.46,-123.4C358.33,-113.86 379.19,-101.32 394.97,-91.84"/>
<polygon fill="midnightblue" stroke="midnightblue" points="396.83,-94.81 403.59,-86.66 393.22,-88.81 396.83,-94.81"/>
</g>
<!-- Node4 -->
<g id="node4" class="node">
<title>Node4</title>
<g id="a_node4"><a xlink:title=" ">
<polygon fill="none" stroke="#bfbfbf" points="0,-0.5 0,-30.5 120,-30.5 120,-0.5 0,-0.5"/>
<text text-anchor="start" x="8" y="-18.5" font-family="Helvetica,sans-Serif" font-size="10.00">xercesc/util/Xerces</text>
<text text-anchor="middle" x="60" y="-7.5" font-family="Helvetica,sans-Serif" font-size="10.00">_autoconf_config.hpp</text>
</a>
</g>
</g>
<!-- Node3&#45;&gt;Node4 -->
<g id="edge3" class="edge">
<title>Node3&#45;&gt;Node4</title>
<path fill="none" stroke="midnightblue" d="M197.93,-67.48C174.4,-58.78 137.19,-45.03 107.35,-34"/>
<polygon fill="midnightblue" stroke="midnightblue" points="108.54,-30.71 97.94,-30.52 106.11,-37.27 108.54,-30.71"/>
</g>
<!-- Node5 -->
<g id="node5" class="node">
<title>Node5</title>
<g id="a_node5"><a xlink:title=" ">
<polygon fill="none" stroke="#bfbfbf" points="138.5,-6 138.5,-25 303.5,-25 303.5,-6 138.5,-6"/>
<text text-anchor="middle" x="221" y="-13" font-family="Helvetica,sans-Serif" font-size="10.00">xercesc/util/XercesVersion.hpp</text>
</a>
</g>
</g>
<!-- Node3&#45;&gt;Node5 -->
<g id="edge4" class="edge">
<title>Node3&#45;&gt;Node5</title>
<path fill="none" stroke="midnightblue" d="M221,-67.48C221,-59.08 221,-45.98 221,-35.16"/>
<polygon fill="midnightblue" stroke="midnightblue" points="224.5,-35.01 221,-25.01 217.5,-35.01 224.5,-35.01"/>
</g>
<!-- Node6 -->
<g id="node6" class="node">
<title>Node6</title>
<g id="a_node6"><a xlink:href="XalanVersion_8hpp.html" target="_top" xlink:title=" ">
<polygon fill="none" stroke="black" points="321.5,-6 321.5,-25 496.5,-25 496.5,-6 321.5,-6"/>
<text text-anchor="middle" x="409" y="-13" font-family="Helvetica,sans-Serif" font-size="10.00">xalanc/Include/XalanVersion.hpp</text>
</a>
</g>
</g>
<!-- Node3&#45;&gt;Node6 -->
<g id="edge5" class="edge">
<title>Node3&#45;&gt;Node6</title>
<path fill="none" stroke="midnightblue" d="M247.94,-67.48C280.6,-57.14 335.82,-39.66 372.34,-28.1"/>
<polygon fill="midnightblue" stroke="midnightblue" points="373.64,-31.36 382.11,-25.01 371.52,-24.69 373.64,-31.36"/>
</g>
<!-- Node10&#45;&gt;Node2 -->
<g id="edge10" class="edge">
<title>Node10&#45;&gt;Node2</title>
<path fill="none" stroke="midnightblue" d="M384.82,-257.35C368.22,-249.11 349.67,-237.12 338,-221 325.98,-204.4 321.44,-181.34 319.78,-163.98"/>
<polygon fill="midnightblue" stroke="midnightblue" points="323.24,-163.26 319.06,-153.53 316.26,-163.74 323.24,-163.26"/>
</g>
<!-- Node10&#45;&gt;Node9 -->
<g id="edge11" class="edge">
<title>Node10&#45;&gt;Node9</title>
<path fill="none" stroke="midnightblue" d="M375.91,-257.48C338.12,-245.72 284.81,-229.14 249.36,-218.12"/>
<polygon fill="midnightblue" stroke="midnightblue" points="250.01,-214.66 239.42,-215.03 247.93,-221.34 250.01,-214.66"/>
</g>
<!-- Node11 -->
<g id="node11" class="node">
<title>Node11</title>
<g id="a_node11"><a xlink:title=" ">
<polygon fill="none" stroke="#bfbfbf" points="346.5,-196 346.5,-215 495.5,-215 495.5,-196 346.5,-196"/>
<text text-anchor="middle" x="421" y="-203" font-family="Helvetica,sans-Serif" font-size="10.00">xercesc/dom/DOM_Attr.hpp</text>
</a>
</g>
</g>
<!-- Node10&#45;&gt;Node11 -->
<g id="edge12" class="edge">
<title>Node10&#45;&gt;Node11</title>
<path fill="none" stroke="midnightblue" d="M421,-257.4C421,-248.06 421,-235.71 421,-225.52"/>
<polygon fill="midnightblue" stroke="midnightblue" points="424.5,-225.19 421,-215.19 417.5,-225.19 424.5,-225.19"/>
</g>
<!-- Node12 -->
<g id="node12" class="node">
<title>Node12</title>
<g id="a_node12"><a xlink:title=" ">
<polygon fill="none" stroke="#bfbfbf" points="514,-196 514,-215 686,-215 686,-196 514,-196"/>
<text text-anchor="middle" x="600" y="-203" font-family="Helvetica,sans-Serif" font-size="10.00">xercesc/dom/DOM_Element.hpp</text>
</a>
</g>
</g>
<!-- Node10&#45;&gt;Node12 -->
<g id="edge13" class="edge">
<title>Node10&#45;&gt;Node12</title>
<path fill="none" stroke="midnightblue" d="M459.84,-257.4C491.8,-245.79 536.62,-229.51 566.9,-218.52"/>
<polygon fill="midnightblue" stroke="midnightblue" points="568.37,-221.71 576.57,-215.01 565.98,-215.13 568.37,-221.71"/>
</g>
<!-- Node13 -->
<g id="node13" class="node">
<title>Node13</title>
<g id="a_node13"><a xlink:title=" ">
<polygon fill="none" stroke="#bfbfbf" points="704,-196 704,-215 856,-215 856,-196 704,-196"/>
<text text-anchor="middle" x="780" y="-203" font-family="Helvetica,sans-Serif" font-size="10.00">xercesc/dom/DOM_Text.hpp</text>
</a>
</g>
</g>
<!-- Node10&#45;&gt;Node13 -->
<g id="edge14" class="edge">
<title>Node10&#45;&gt;Node13</title>
<path fill="none" stroke="midnightblue" d="M498.46,-257.48C565.87,-245.27 662.05,-227.86 722.73,-216.87"/>
<polygon fill="midnightblue" stroke="midnightblue" points="723.68,-220.25 732.9,-215.03 722.43,-213.37 723.68,-220.25"/>
</g>
<!-- Node14 -->
<g id="node14" class="node">
<title>Node14</title>
<g id="a_node14"><a xlink:href="XercesBridgeTypes_8hpp.html" target="_top" xlink:title=" ">
<polygon fill="none" stroke="black" points="874,-190.5 874,-220.5 1066,-220.5 1066,-190.5 874,-190.5"/>
<text text-anchor="start" x="882" y="-208.5" font-family="Helvetica,sans-Serif" font-size="10.00">xalanc/XercesParserLiaison</text>
<text text-anchor="middle" x="970" y="-197.5" font-family="Helvetica,sans-Serif" font-size="10.00">/Deprecated/XercesBridgeTypes.hpp</text>
</a>
</g>
</g>
<!-- Node10&#45;&gt;Node14 -->
<g id="edge15" class="edge">
<title>Node10&#45;&gt;Node14</title>
<path fill="none" stroke="midnightblue" d="M527.39,-260.12C614.93,-250.59 742.53,-236.32 863.68,-221.15"/>
<polygon fill="midnightblue" stroke="midnightblue" points="864.4,-224.59 873.88,-219.87 863.52,-217.64 864.4,-224.59"/>
</g>
<!-- Node14&#45;&gt;Node2 -->
<g id="edge16" class="edge">
<title>Node14&#45;&gt;Node2</title>
<path fill="none" stroke="midnightblue" d="M873.89,-191.05C870.89,-190.69 867.92,-190.34 865,-190 712.31,-172.4 535.03,-156.92 424.92,-147.88"/>
<polygon fill="midnightblue" stroke="midnightblue" points="425.06,-144.38 414.81,-147.05 424.49,-151.35 425.06,-144.38"/>
</g>
</g>
</svg>
