<?xml version="1.0" encoding="UTF-8" standalone="no"?>
<!DOCTYPE svg PUBLIC "-//W3C//DTD SVG 1.1//EN"
 "http://www.w3.org/Graphics/SVG/1.1/DTD/svg11.dtd">
<!-- Generated by graphviz version 2.38.0 (20140413.2041)
 -->
<!-- Title: xalanc/XercesParserLiaison/Deprecated/XercesNotationBridge.hpp Pages: 1 -->
<svg width="616pt" height="352pt"
 viewBox="0.00 0.00 616.11 352.00" xmlns="http://www.w3.org/2000/svg" xmlns:xlink="http://www.w3.org/1999/xlink">
<g id="graph0" class="graph" transform="scale(1 1) rotate(0) translate(4 348)">
<title>xalanc/XercesParserLiaison/Deprecated/XercesNotationBridge.hpp</title>
<!-- Node1 -->
<g id="node1" class="node"><title>Node1</title>
<g id="a_node1"><a xlink:title=" ">
<polygon fill="#bfbfbf" stroke="black" points="96.6134,-313.5 96.6134,-343.5 280.613,-343.5 280.613,-313.5 96.6134,-313.5"/>
<text text-anchor="start" x="104.613" y="-331.5" font-family="Helvetica,sans-Serif" font-size="10.00">xalanc/XercesParserLiaison</text>
<text text-anchor="middle" x="188.613" y="-320.5" font-family="Helvetica,sans-Serif" font-size="10.00">/Deprecated/XercesNotationBridge.hpp</text>
</a>
</g>
</g>
<!-- Node2 -->
<g id="node2" class="node"><title>Node2</title>
<g id="a_node2"><a xlink:href="XercesParserLiaisonDefinitions_8hpp.html" target="_top" xlink:title=" ">
<polygon fill="none" stroke="black" points="146.613,-179.5 146.613,-209.5 318.613,-209.5 318.613,-179.5 146.613,-179.5"/>
<text text-anchor="start" x="154.613" y="-197.5" font-family="Helvetica,sans-Serif" font-size="10.00">xalanc/XercesParserLiaison</text>
<text text-anchor="middle" x="232.613" y="-186.5" font-family="Helvetica,sans-Serif" font-size="10.00">/XercesParserLiaisonDefinitions.hpp</text>
</a>
</g>
</g>
<!-- Node1&#45;&gt;Node2 -->
<g id="edge1" class="edge"><title>Node1&#45;&gt;Node2</title>
<path fill="none" stroke="midnightblue" d="M96.4539,-316.274C37.7323,-305.252 -22.0227,-284.312 8.61338,-246 24.9275,-225.598 83.2421,-212.851 136.279,-205.267"/>
<polygon fill="midnightblue" stroke="midnightblue" points="137.027,-208.697 146.456,-203.864 136.071,-201.763 137.027,-208.697"/>
</g>
<!-- Node8 -->
<g id="node8" class="node"><title>Node8</title>
<g id="a_node8"><a xlink:title=" ">
<polygon fill="none" stroke="#bfbfbf" points="17.6134,-252 17.6134,-271 175.613,-271 175.613,-252 17.6134,-252"/>
<text text-anchor="middle" x="96.6134" y="-259" font-family="Helvetica,sans-Serif" font-size="10.00">xercesc/dom/DOM_Notation.hpp</text>
</a>
</g>
</g>
<!-- Node1&#45;&gt;Node8 -->
<g id="edge7" class="edge"><title>Node1&#45;&gt;Node8</title>
<path fill="none" stroke="midnightblue" d="M168.651,-313.396C153.365,-302.597 132.361,-287.756 116.977,-276.887"/>
<polygon fill="midnightblue" stroke="midnightblue" points="118.841,-273.919 108.654,-271.007 114.802,-279.636 118.841,-273.919"/>
</g>
<!-- Node9 -->
<g id="node9" class="node"><title>Node9</title>
<g id="a_node9"><a xlink:href="XalanNotation_8hpp.html" target="_top" xlink:title=" ">
<polygon fill="none" stroke="black" points="386.113,-252 386.113,-271 561.113,-271 561.113,-252 386.113,-252"/>
<text text-anchor="middle" x="473.613" y="-259" font-family="Helvetica,sans-Serif" font-size="10.00">xalanc/XalanDOM/XalanNotation.hpp</text>
</a>
</g>
</g>
<!-- Node1&#45;&gt;Node9 -->
<g id="edge8" class="edge"><title>Node1&#45;&gt;Node9</title>
<path fill="none" stroke="midnightblue" d="M250.103,-313.476C302.962,-301.421 378.089,-284.286 426.346,-273.28"/>
<polygon fill="midnightblue" stroke="midnightblue" points="427.247,-276.665 436.218,-271.029 425.691,-269.84 427.247,-276.665"/>
</g>
<!-- Node12 -->
<g id="node12" class="node"><title>Node12</title>
<g id="a_node12"><a xlink:href="XercesBridgeTypes_8hpp.html" target="_top" xlink:title=" ">
<polygon fill="none" stroke="black" points="193.613,-246.5 193.613,-276.5 367.613,-276.5 367.613,-246.5 193.613,-246.5"/>
<text text-anchor="start" x="201.613" y="-264.5" font-family="Helvetica,sans-Serif" font-size="10.00">xalanc/XercesParserLiaison</text>
<text text-anchor="middle" x="280.613" y="-253.5" font-family="Helvetica,sans-Serif" font-size="10.00">/Deprecated/XercesBridgeTypes.hpp</text>
</a>
</g>
</g>
<!-- Node1&#45;&gt;Node12 -->
<g id="edge13" class="edge"><title>Node1&#45;&gt;Node12</title>
<path fill="none" stroke="midnightblue" d="M208.576,-313.396C221.355,-304.367 238.132,-292.514 252.28,-282.518"/>
<polygon fill="midnightblue" stroke="midnightblue" points="254.542,-285.205 260.69,-276.577 250.503,-279.488 254.542,-285.205"/>
</g>
<!-- Node3 -->
<g id="node3" class="node"><title>Node3</title>
<g id="a_node3"><a xlink:href="PlatformDefinitions_8hpp.html" target="_top" xlink:title=" ">
<polygon fill="none" stroke="black" points="237.613,-67.5 237.613,-86.5 419.613,-86.5 419.613,-67.5 237.613,-67.5"/>
<text text-anchor="middle" x="328.613" y="-74.5" font-family="Helvetica,sans-Serif" font-size="10.00">xalanc/Include/PlatformDefinitions.hpp</text>
</a>
</g>
</g>
<!-- Node2&#45;&gt;Node3 -->
<g id="edge2" class="edge"><title>Node2&#45;&gt;Node3</title>
<path fill="none" stroke="midnightblue" d="M219.334,-179.307C207.013,-164.353 192.292,-140.578 204.613,-123 216.027,-106.716 233.963,-96.3017 252.685,-89.6484"/>
<polygon fill="midnightblue" stroke="midnightblue" points="253.762,-92.9784 262.213,-86.5881 251.622,-86.3137 253.762,-92.9784"/>
</g>
<!-- Node7 -->
<g id="node7" class="node"><title>Node7</title>
<g id="a_node7"><a xlink:title=" ">
<polygon fill="none" stroke="#bfbfbf" points="214.113,-123.5 214.113,-142.5 351.113,-142.5 351.113,-123.5 214.113,-123.5"/>
<text text-anchor="middle" x="282.613" y="-130.5" font-family="Helvetica,sans-Serif" font-size="10.00">xercesc/util/XercesDefs.hpp</text>
</a>
</g>
</g>
<!-- Node2&#45;&gt;Node7 -->
<g id="edge6" class="edge"><title>Node2&#45;&gt;Node7</title>
<path fill="none" stroke="midnightblue" d="M244.463,-179.399C251.728,-170.753 261.066,-159.642 268.684,-150.576"/>
<polygon fill="midnightblue" stroke="midnightblue" points="271.584,-152.565 275.338,-142.658 266.225,-148.062 271.584,-152.565"/>
</g>
<!-- Node4 -->
<g id="node4" class="node"><title>Node4</title>
<g id="a_node4"><a xlink:title=" ">
<polygon fill="none" stroke="#bfbfbf" points="126.613,-0.5 126.613,-30.5 234.613,-30.5 234.613,-0.5 126.613,-0.5"/>
<text text-anchor="start" x="134.613" y="-18.5" font-family="Helvetica,sans-Serif" font-size="10.00">xercesc/util/Xerces</text>
<text text-anchor="middle" x="180.613" y="-7.5" font-family="Helvetica,sans-Serif" font-size="10.00">_autoconf_config.hpp</text>
</a>
</g>
</g>
<!-- Node3&#45;&gt;Node4 -->
<g id="edge3" class="edge"><title>Node3&#45;&gt;Node4</title>
<path fill="none" stroke="midnightblue" d="M307.409,-67.4751C285.959,-58.8518 252.161,-45.2641 224.852,-34.2852"/>
<polygon fill="midnightblue" stroke="midnightblue" points="226.078,-31.0058 215.494,-30.523 223.467,-37.5005 226.078,-31.0058"/>
</g>
<!-- Node5 -->
<g id="node5" class="node"><title>Node5</title>
<g id="a_node5"><a xlink:title=" ">
<polygon fill="none" stroke="#bfbfbf" points="253.113,-6 253.113,-25 404.113,-25 404.113,-6 253.113,-6"/>
<text text-anchor="middle" x="328.613" y="-13" font-family="Helvetica,sans-Serif" font-size="10.00">xercesc/util/XercesVersion.hpp</text>
</a>
</g>
</g>
<!-- Node3&#45;&gt;Node5 -->
<g id="edge4" class="edge"><title>Node3&#45;&gt;Node5</title>
<path fill="none" stroke="midnightblue" d="M328.613,-67.4751C328.613,-59.0803 328.613,-45.9806 328.613,-35.1631"/>
<polygon fill="midnightblue" stroke="midnightblue" points="332.113,-35.0091 328.613,-25.0091 325.113,-35.0091 332.113,-35.0091"/>
</g>
<!-- Node6 -->
<g id="node6" class="node"><title>Node6</title>
<g id="a_node6"><a xlink:href="XalanVersion_8hpp.html" target="_top" xlink:title=" ">
<polygon fill="none" stroke="black" points="422.613,-6 422.613,-25 514.613,-25 514.613,-6 422.613,-6"/>
<text text-anchor="middle" x="468.613" y="-13" font-family="Helvetica,sans-Serif" font-size="10.00">XalanVersion.hpp</text>
</a>
</g>
</g>
<!-- Node3&#45;&gt;Node6 -->
<g id="edge5" class="edge"><title>Node3&#45;&gt;Node6</title>
<path fill="none" stroke="midnightblue" d="M348.672,-67.4751C372.375,-57.4013 412.019,-40.5525 439.196,-29.0023"/>
<polygon fill="midnightblue" stroke="midnightblue" points="440.758,-32.1417 448.592,-25.0091 438.02,-25.6994 440.758,-32.1417"/>
</g>
<!-- Node10 -->
<g id="node10" class="node"><title>Node10</title>
<g id="a_node10"><a xlink:href="XalanDOMDefinitions_8hpp.html" target="_top" xlink:title=" ">
<polygon fill="none" stroke="black" points="369.613,-123.5 369.613,-142.5 575.613,-142.5 575.613,-123.5 369.613,-123.5"/>
<text text-anchor="middle" x="472.613" y="-130.5" font-family="Helvetica,sans-Serif" font-size="10.00">xalanc/XalanDOM/XalanDOMDefinitions.hpp</text>
</a>
</g>
</g>
<!-- Node9&#45;&gt;Node10 -->
<g id="edge9" class="edge"><title>Node9&#45;&gt;Node10</title>
<path fill="none" stroke="midnightblue" d="M464.767,-251.794C455.933,-242.423 442.929,-226.613 437.613,-210 433.415,-196.878 433.142,-192.032 437.613,-179 441.332,-168.161 448.847,-157.922 455.962,-149.957"/>
<polygon fill="midnightblue" stroke="midnightblue" points="458.668,-152.192 463.058,-142.55 453.613,-147.35 458.668,-152.192"/>
</g>
<!-- Node11 -->
<g id="node11" class="node"><title>Node11</title>
<g id="a_node11"><a xlink:href="XalanNode_8hpp.html" target="_top" xlink:title=" ">
<polygon fill="none" stroke="black" points="447.113,-185 447.113,-204 608.113,-204 608.113,-185 447.113,-185"/>
<text text-anchor="middle" x="527.613" y="-192" font-family="Helvetica,sans-Serif" font-size="10.00">xalanc/XalanDOM/XalanNode.hpp</text>
</a>
</g>
</g>
<!-- Node9&#45;&gt;Node11 -->
<g id="edge11" class="edge"><title>Node9&#45;&gt;Node11</title>
<path fill="none" stroke="midnightblue" d="M480.896,-251.734C489.317,-241.598 503.363,-224.69 513.859,-212.056"/>
<polygon fill="midnightblue" stroke="midnightblue" points="516.748,-214.056 520.446,-204.127 511.364,-209.583 516.748,-214.056"/>
</g>
<!-- Node10&#45;&gt;Node3 -->
<g id="edge10" class="edge"><title>Node10&#45;&gt;Node3</title>
<path fill="none" stroke="midnightblue" d="M449.796,-123.444C425.782,-114.438 387.784,-100.189 360.744,-90.049"/>
<polygon fill="midnightblue" stroke="midnightblue" points="361.916,-86.7506 351.324,-86.5164 359.458,-93.3049 361.916,-86.7506"/>
</g>
<!-- Node11&#45;&gt;Node10 -->
<g id="edge12" class="edge"><title>Node11&#45;&gt;Node10</title>
<path fill="none" stroke="midnightblue" d="M519.733,-184.975C511.32,-175.873 497.794,-161.241 487.388,-149.983"/>
<polygon fill="midnightblue" stroke="midnightblue" points="489.837,-147.477 480.479,-142.509 484.697,-152.228 489.837,-147.477"/>
</g>
<!-- Node12&#45;&gt;Node2 -->
<g id="edge14" class="edge"><title>Node12&#45;&gt;Node2</title>
<path fill="none" stroke="midnightblue" d="M270.198,-246.396C264.034,-238.049 256.087,-227.287 249.089,-217.811"/>
<polygon fill="midnightblue" stroke="midnightblue" points="251.764,-215.542 243.008,-209.577 246.133,-219.7 251.764,-215.542"/>
</g>
</g>
</svg>
