<?xml version="1.0" encoding="UTF-8" standalone="no"?>
<!DOCTYPE svg PUBLIC "-//W3C//DTD SVG 1.1//EN"
 "http://www.w3.org/Graphics/SVG/1.1/DTD/svg11.dtd">
<!-- Generated by graphviz version 2.38.0 (20140413.2041)
 -->
<!-- Title: xalanc/XercesParserLiaison/Deprecated/XercesCDATASectionBridge.hpp Pages: 1 -->
<!--zoomable 475 -->
<svg id="main" version="1.1" xmlns="http://www.w3.org/2000/svg" xmlns:xlink="http://www.w3.org/1999/xlink" xml:space="preserve" onload="init(evt)">
<style type="text/css"><![CDATA[
.edge:hover path { stroke: red; }
.edge:hover polygon { stroke: red; fill: red; }
]]></style>
<script type="text/javascript"><![CDATA[
var edges = document.getElementsByTagName('g');
if (edges && edges.length) {
  for (var i=0;i<edges.length;i++) {
    if (edges[i].id.substr(0,4)=='edge') {
      edges[i].setAttribute('class','edge');
    }
  }
}
]]></script>
        <defs>
                <circle id="rim" cx="0" cy="0" r="7"/>
                <circle id="rim2" cx="0" cy="0" r="3.5"/>
                <g id="zoomPlus">
                        <use xlink:href="#rim" fill="#404040">
                                <set attributeName="fill" to="#808080" begin="zoomplus.mouseover" end="zoomplus.mouseout"/>
                        </use>
                        <path d="M-4,0h8M0,-4v8" fill="none" stroke="white" stroke-width="1.5" pointer-events="none"/>
                </g>
                <g id="zoomMin">
                        <use xlink:href="#rim" fill="#404040">
                                <set attributeName="fill" to="#808080" begin="zoomminus.mouseover" end="zoomminus.mouseout"/>
                        </use>
                        <path d="M-4,0h8" fill="none" stroke="white" stroke-width="1.5" pointer-events="none"/>
                </g>
                <g id="dirArrow">
                        <path fill="none" stroke="white" stroke-width="1.5" d="M0,-3.0v7 M-2.5,-0.5L0,-3.0L2.5,-0.5"/>
                </g>
               <g id="resetDef">
                       <use xlink:href="#rim2" fill="#404040">
                               <set attributeName="fill" to="#808080" begin="reset.mouseover" end="reset.mouseout"/>
                       </use>
               </g>
        </defs>

<script type="text/javascript">
var viewWidth = 732;
var viewHeight = 475;
var sectionId = 'dynsection-0';
</script>
<script xlink:href="svgpan.js"/>
<svg id="graph" class="graph">
<g id="viewport">
<title>xalanc/XercesParserLiaison/Deprecated/XercesCDATASectionBridge.hpp</title>
<!-- Node1 -->
<g id="node1" class="node"><title>Node1</title>
<g id="a_node1"><a xlink:title=" ">
<polygon fill="#bfbfbf" stroke="black" points="105.263,-436.5 105.263,-466.5 318.263,-466.5 318.263,-436.5 105.263,-436.5"/>
<text text-anchor="start" x="113.263" y="-454.5" font-family="Helvetica,sans-Serif" font-size="10.00">xalanc/XercesParserLiaison</text>
<text text-anchor="middle" x="211.763" y="-443.5" font-family="Helvetica,sans-Serif" font-size="10.00">/Deprecated/XercesCDATASectionBridge.hpp</text>
</a>
</g>
</g>
<!-- Node2 -->
<g id="node2" class="node"><title>Node2</title>
<g id="a_node2"><a xlink:href="XercesParserLiaisonDefinitions_8hpp.html" target="_top" xlink:title=" ">
<polygon fill="none" stroke="black" points="201.763,-302.5 201.763,-332.5 373.763,-332.5 373.763,-302.5 201.763,-302.5"/>
<text text-anchor="start" x="209.763" y="-320.5" font-family="Helvetica,sans-Serif" font-size="10.00">xalanc/XercesParserLiaison</text>
<text text-anchor="middle" x="287.763" y="-309.5" font-family="Helvetica,sans-Serif" font-size="10.00">/XercesParserLiaisonDefinitions.hpp</text>
</a>
</g>
</g>
<!-- Node1&#45;&gt;Node2 -->
<g id="edge1" class="edge"><title>Node1&#45;&gt;Node2</title>
<path fill="none" stroke="midnightblue" d="M105.065,-440.664C40.114,-430.428 -24.3451,-409.862 9.76277,-369 32.795,-341.407 120.553,-328.856 191.388,-323.168"/>
<polygon fill="midnightblue" stroke="midnightblue" points="192.003,-326.632 201.706,-322.378 191.468,-319.652 192.003,-326.632"/>
</g>
<!-- Node8 -->
<g id="node8" class="node"><title>Node8</title>
<g id="a_node8"><a xlink:title=" ">
<polygon fill="none" stroke="#bfbfbf" points="18.7628,-375 18.7628,-394 206.763,-394 206.763,-375 18.7628,-375"/>
<text text-anchor="middle" x="112.763" y="-382" font-family="Helvetica,sans-Serif" font-size="10.00">xercesc/dom/DOM_CDATASection.hpp</text>
</a>
</g>
</g>
<!-- Node1&#45;&gt;Node8 -->
<g id="edge7" class="edge"><title>Node1&#45;&gt;Node8</title>
<path fill="none" stroke="midnightblue" d="M190.281,-436.396C173.679,-425.496 150.807,-410.479 134.213,-399.584"/>
<polygon fill="midnightblue" stroke="midnightblue" points="136,-396.57 125.72,-394.007 132.158,-402.421 136,-396.57"/>
</g>
<!-- Node9 -->
<g id="node9" class="node"><title>Node9</title>
<g id="a_node9"><a xlink:href="XalanCDATASection_8hpp.html" target="_top" xlink:title=" ">
<polygon fill="none" stroke="black" points="416.763,-375 416.763,-394 620.763,-394 620.763,-375 416.763,-375"/>
<text text-anchor="middle" x="518.763" y="-382" font-family="Helvetica,sans-Serif" font-size="10.00">xalanc/XalanDOM/XalanCDATASection.hpp</text>
</a>
</g>
</g>
<!-- Node1&#45;&gt;Node9 -->
<g id="edge8" class="edge"><title>Node1&#45;&gt;Node9</title>
<path fill="none" stroke="midnightblue" d="M277.999,-436.476C335.176,-424.37 416.542,-407.143 468.498,-396.142"/>
<polygon fill="midnightblue" stroke="midnightblue" points="469.423,-399.524 478.481,-394.029 467.973,-392.676 469.423,-399.524"/>
</g>
<!-- Node14 -->
<g id="node14" class="node"><title>Node14</title>
<g id="a_node14"><a xlink:href="XercesBridgeTypes_8hpp.html" target="_top" xlink:title=" ">
<polygon fill="none" stroke="black" points="224.763,-369.5 224.763,-399.5 398.763,-399.5 398.763,-369.5 224.763,-369.5"/>
<text text-anchor="start" x="232.763" y="-387.5" font-family="Helvetica,sans-Serif" font-size="10.00">xalanc/XercesParserLiaison</text>
<text text-anchor="middle" x="311.763" y="-376.5" font-family="Helvetica,sans-Serif" font-size="10.00">/Deprecated/XercesBridgeTypes.hpp</text>
</a>
</g>
</g>
<!-- Node1&#45;&gt;Node14 -->
<g id="edge17" class="edge"><title>Node1&#45;&gt;Node14</title>
<path fill="none" stroke="midnightblue" d="M233.461,-436.396C247.483,-427.282 265.932,-415.29 281.4,-405.236"/>
<polygon fill="midnightblue" stroke="midnightblue" points="283.63,-407.961 290.107,-399.577 279.815,-402.092 283.63,-407.961"/>
</g>
<!-- Node3 -->
<g id="node3" class="node"><title>Node3</title>
<g id="a_node3"><a xlink:href="PlatformDefinitions_8hpp.html" target="_top" xlink:title=" ">
<polygon fill="none" stroke="black" points="289.763,-67.5 289.763,-86.5 471.763,-86.5 471.763,-67.5 289.763,-67.5"/>
<text text-anchor="middle" x="380.763" y="-74.5" font-family="Helvetica,sans-Serif" font-size="10.00">xalanc/Include/PlatformDefinitions.hpp</text>
</a>
</g>
</g>
<!-- Node2&#45;&gt;Node3 -->
<g id="edge2" class="edge"><title>Node2&#45;&gt;Node3</title>
<path fill="none" stroke="midnightblue" d="M284.365,-302.346C281.015,-285.839 277.261,-257.894 283.763,-235 299.954,-177.988 343.392,-121.394 366.247,-94.3816"/>
<polygon fill="midnightblue" stroke="midnightblue" points="369.003,-96.5459 372.884,-86.6876 363.702,-91.9738 369.003,-96.5459"/>
</g>
<!-- Node7 -->
<g id="node7" class="node"><title>Node7</title>
<g id="a_node7"><a xlink:title=" ">
<polygon fill="none" stroke="#bfbfbf" points="293.263,-241 293.263,-260 430.263,-260 430.263,-241 293.263,-241"/>
<text text-anchor="middle" x="361.763" y="-248" font-family="Helvetica,sans-Serif" font-size="10.00">xercesc/util/XercesDefs.hpp</text>
</a>
</g>
</g>
<!-- Node2&#45;&gt;Node7 -->
<g id="edge6" class="edge"><title>Node2&#45;&gt;Node7</title>
<path fill="none" stroke="midnightblue" d="M303.82,-302.396C315.701,-291.96 331.877,-277.751 344.119,-266.998"/>
<polygon fill="midnightblue" stroke="midnightblue" points="346.661,-269.424 351.864,-260.195 342.041,-264.164 346.661,-269.424"/>
</g>
<!-- Node4 -->
<g id="node4" class="node"><title>Node4</title>
<g id="a_node4"><a xlink:title=" ">
<polygon fill="none" stroke="#bfbfbf" points="178.763,-0.5 178.763,-30.5 286.763,-30.5 286.763,-0.5 178.763,-0.5"/>
<text text-anchor="start" x="186.763" y="-18.5" font-family="Helvetica,sans-Serif" font-size="10.00">xercesc/util/Xerces</text>
<text text-anchor="middle" x="232.763" y="-7.5" font-family="Helvetica,sans-Serif" font-size="10.00">_autoconf_config.hpp</text>
</a>
</g>
</g>
<!-- Node3&#45;&gt;Node4 -->
<g id="edge3" class="edge"><title>Node3&#45;&gt;Node4</title>
<path fill="none" stroke="midnightblue" d="M359.558,-67.4751C338.108,-58.8518 304.311,-45.2641 277.001,-34.2852"/>
<polygon fill="midnightblue" stroke="midnightblue" points="278.227,-31.0058 267.643,-30.523 275.616,-37.5005 278.227,-31.0058"/>
</g>
<!-- Node5 -->
<g id="node5" class="node"><title>Node5</title>
<g id="a_node5"><a xlink:title=" ">
<polygon fill="none" stroke="#bfbfbf" points="305.263,-6 305.263,-25 456.263,-25 456.263,-6 305.263,-6"/>
<text text-anchor="middle" x="380.763" y="-13" font-family="Helvetica,sans-Serif" font-size="10.00">xercesc/util/XercesVersion.hpp</text>
</a>
</g>
</g>
<!-- Node3&#45;&gt;Node5 -->
<g id="edge4" class="edge"><title>Node3&#45;&gt;Node5</title>
<path fill="none" stroke="midnightblue" d="M380.763,-67.4751C380.763,-59.0803 380.763,-45.9806 380.763,-35.1631"/>
<polygon fill="midnightblue" stroke="midnightblue" points="384.263,-35.0091 380.763,-25.0091 377.263,-35.0091 384.263,-35.0091"/>
</g>
<!-- Node6 -->
<g id="node6" class="node"><title>Node6</title>
<g id="a_node6"><a xlink:href="XalanVersion_8hpp.html" target="_top" xlink:title=" ">
<polygon fill="none" stroke="black" points="474.763,-6 474.763,-25 566.763,-25 566.763,-6 474.763,-6"/>
<text text-anchor="middle" x="520.763" y="-13" font-family="Helvetica,sans-Serif" font-size="10.00">XalanVersion.hpp</text>
</a>
</g>
</g>
<!-- Node3&#45;&gt;Node6 -->
<g id="edge5" class="edge"><title>Node3&#45;&gt;Node6</title>
<path fill="none" stroke="midnightblue" d="M400.821,-67.4751C424.524,-57.4013 464.169,-40.5525 491.346,-29.0023"/>
<polygon fill="midnightblue" stroke="midnightblue" points="492.907,-32.1417 500.741,-25.0091 490.169,-25.6994 492.907,-32.1417"/>
</g>
<!-- Node10 -->
<g id="node10" class="node"><title>Node10</title>
<g id="a_node10"><a xlink:href="XalanDOMDefinitions_8hpp.html" target="_top" xlink:title=" ">
<polygon fill="none" stroke="black" points="393.763,-123.5 393.763,-142.5 599.763,-142.5 599.763,-123.5 393.763,-123.5"/>
<text text-anchor="middle" x="496.763" y="-130.5" font-family="Helvetica,sans-Serif" font-size="10.00">xalanc/XalanDOM/XalanDOMDefinitions.hpp</text>
</a>
</g>
</g>
<!-- Node9&#45;&gt;Node10 -->
<g id="edge9" class="edge"><title>Node9&#45;&gt;Node10</title>
<path fill="none" stroke="midnightblue" d="M508.339,-374.705C498.31,-365.498 483.805,-350.029 477.763,-333 455.255,-269.567 477.754,-188.036 489.986,-152.232"/>
<polygon fill="midnightblue" stroke="midnightblue" points="493.337,-153.254 493.391,-142.66 486.742,-150.908 493.337,-153.254"/>
</g>
<!-- Node11 -->
<g id="node11" class="node"><title>Node11</title>
<g id="a_node11"><a xlink:href="XalanText_8hpp.html" target="_top" xlink:title=" ">
<polygon fill="none" stroke="black" points="486.763,-308 486.763,-327 644.763,-327 644.763,-308 486.763,-308"/>
<text text-anchor="middle" x="565.763" y="-315" font-family="Helvetica,sans-Serif" font-size="10.00">xalanc/XalanDOM/XalanText.hpp</text>
</a>
</g>
</g>
<!-- Node9&#45;&gt;Node11 -->
<g id="edge11" class="edge"><title>Node9&#45;&gt;Node11</title>
<path fill="none" stroke="midnightblue" d="M525.101,-374.734C532.36,-364.695 544.422,-348.014 553.527,-335.421"/>
<polygon fill="midnightblue" stroke="midnightblue" points="556.501,-337.282 559.525,-327.127 550.829,-333.18 556.501,-337.282"/>
</g>
<!-- Node10&#45;&gt;Node3 -->
<g id="edge10" class="edge"><title>Node10&#45;&gt;Node3</title>
<path fill="none" stroke="midnightblue" d="M478.382,-123.444C459.546,-114.675 430.032,-100.935 408.384,-90.8579"/>
<polygon fill="midnightblue" stroke="midnightblue" points="409.6,-87.5637 399.057,-86.5164 406.646,-93.9098 409.6,-87.5637"/>
</g>
<!-- Node11&#45;&gt;Node10 -->
<g id="edge12" class="edge"><title>Node11&#45;&gt;Node10</title>
<path fill="none" stroke="midnightblue" d="M553.652,-307.977C541.889,-298.982 524.556,-283.674 515.763,-266 497.345,-228.984 495.377,-179.38 495.871,-152.762"/>
<polygon fill="midnightblue" stroke="midnightblue" points="499.376,-152.68 496.207,-142.57 492.38,-152.449 499.376,-152.68"/>
</g>
<!-- Node12 -->
<g id="node12" class="node"><title>Node12</title>
<g id="a_node12"><a xlink:href="XalanCharacterData_8hpp.html" target="_top" xlink:title=" ">
<polygon fill="none" stroke="black" points="524.763,-235.5 524.763,-265.5 686.763,-265.5 686.763,-235.5 524.763,-235.5"/>
<text text-anchor="start" x="532.763" y="-253.5" font-family="Helvetica,sans-Serif" font-size="10.00">xalanc/XalanDOM/XalanCharacter</text>
<text text-anchor="middle" x="605.763" y="-242.5" font-family="Helvetica,sans-Serif" font-size="10.00">Data.hpp</text>
</a>
</g>
</g>
<!-- Node11&#45;&gt;Node12 -->
<g id="edge13" class="edge"><title>Node11&#45;&gt;Node12</title>
<path fill="none" stroke="midnightblue" d="M571.157,-307.734C576.407,-299.203 584.609,-285.874 591.711,-274.334"/>
<polygon fill="midnightblue" stroke="midnightblue" points="594.832,-275.94 597.093,-265.589 588.871,-272.271 594.832,-275.94"/>
</g>
<!-- Node12&#45;&gt;Node10 -->
<g id="edge14" class="edge"><title>Node12&#45;&gt;Node10</title>
<path fill="none" stroke="midnightblue" d="M590.791,-235.152C580.497,-225.171 566.602,-211.471 554.763,-199 539.387,-182.805 522.453,-163.668 510.873,-150.37"/>
<polygon fill="midnightblue" stroke="midnightblue" points="513.302,-147.828 504.107,-142.565 508.013,-152.413 513.302,-147.828"/>
</g>
<!-- Node13 -->
<g id="node13" class="node"><title>Node13</title>
<g id="a_node13"><a xlink:href="XalanNode_8hpp.html" target="_top" xlink:title=" ">
<polygon fill="none" stroke="black" points="563.263,-179.5 563.263,-198.5 724.263,-198.5 724.263,-179.5 563.263,-179.5"/>
<text text-anchor="middle" x="643.763" y="-186.5" font-family="Helvetica,sans-Serif" font-size="10.00">xalanc/XalanDOM/XalanNode.hpp</text>
</a>
</g>
</g>
<!-- Node12&#45;&gt;Node13 -->
<g id="edge15" class="edge"><title>Node12&#45;&gt;Node13</title>
<path fill="none" stroke="midnightblue" d="M614.768,-235.399C620.176,-226.932 627.094,-216.099 632.817,-207.139"/>
<polygon fill="midnightblue" stroke="midnightblue" points="635.801,-208.97 638.233,-198.658 629.901,-205.202 635.801,-208.97"/>
</g>
<!-- Node13&#45;&gt;Node10 -->
<g id="edge16" class="edge"><title>Node13&#45;&gt;Node10</title>
<path fill="none" stroke="midnightblue" d="M620.47,-179.444C595.955,-170.438 557.167,-156.189 529.563,-146.049"/>
<polygon fill="midnightblue" stroke="midnightblue" points="530.54,-142.679 519.946,-142.516 528.126,-149.25 530.54,-142.679"/>
</g>
<!-- Node14&#45;&gt;Node2 -->
<g id="edge18" class="edge"><title>Node14&#45;&gt;Node2</title>
<path fill="none" stroke="midnightblue" d="M306.555,-369.396C303.599,-361.389 299.822,-351.162 296.431,-341.978"/>
<polygon fill="midnightblue" stroke="midnightblue" points="299.707,-340.745 292.96,-332.577 293.141,-343.17 299.707,-340.745"/>
</g>
</g>
</svg>
        <g id="navigator" transform="translate(0 0)" fill="#404254">
                <rect fill="#f2f5e9" fill-opacity="0.5" stroke="#606060" stroke-width=".5" x="0" y="0" width="60" height="60"/>
                <use id="zoomplus" xlink:href="#zoomPlus" x="17" y="9" onmousedown="handleZoom(evt,'in')"/>
                <use id="zoomminus" xlink:href="#zoomMin" x="42" y="9" onmousedown="handleZoom(evt,'out')"/>
                <use id="reset" xlink:href="#resetDef" x="30" y="36" onmousedown="handleReset()"/>
                <g id="arrowUp" xlink:href="#dirArrow" transform="translate(30 24)" onmousedown="handlePan(0,-1)">
                  <use xlink:href="#rim" fill="#404040">
                        <set attributeName="fill" to="#808080" begin="arrowUp.mouseover" end="arrowUp.mouseout"/>
                  </use>
                  <path fill="none" stroke="white" stroke-width="1.5" d="M0,-3.0v7 M-2.5,-0.5L0,-3.0L2.5,-0.5"/>
                </g>
                <g id="arrowRight" xlink:href="#dirArrow" transform="rotate(90) translate(36 -43)" onmousedown="handlePan(1,0)">
                  <use xlink:href="#rim" fill="#404040">
                        <set attributeName="fill" to="#808080" begin="arrowRight.mouseover" end="arrowRight.mouseout"/>
                  </use>
                  <path fill="none" stroke="white" stroke-width="1.5" d="M0,-3.0v7 M-2.5,-0.5L0,-3.0L2.5,-0.5"/>
                </g>
                <g id="arrowDown" xlink:href="#dirArrow" transform="rotate(180) translate(-30 -48)" onmousedown="handlePan(0,1)">
                  <use xlink:href="#rim" fill="#404040">
                        <set attributeName="fill" to="#808080" begin="arrowDown.mouseover" end="arrowDown.mouseout"/>
                  </use>
                  <path fill="none" stroke="white" stroke-width="1.5" d="M0,-3.0v7 M-2.5,-0.5L0,-3.0L2.5,-0.5"/>
                </g>
                <g id="arrowLeft" xlink:href="#dirArrow" transform="rotate(270) translate(-36 17)" onmousedown="handlePan(-1,0)">
                  <use xlink:href="#rim" fill="#404040">
                        <set attributeName="fill" to="#808080" begin="arrowLeft.mouseover" end="arrowLeft.mouseout"/>
                  </use>
                  <path fill="none" stroke="white" stroke-width="1.5" d="M0,-3.0v7 M-2.5,-0.5L0,-3.0L2.5,-0.5"/>
                </g>
        </g>
        <svg viewBox="0 0 15 15" width="100%" height="30px" preserveAspectRatio="xMaxYMin meet">
         <g id="arrow_out" transform="scale(0.3 0.3)">
          <a xlink:href="XercesCDATASectionBridge_8hpp__incl_org.svg" target="_base">
           <rect id="button" ry="5" rx="5" y="6" x="6" height="38" width="38"
                fill="#f2f5e9" fill-opacity="0.5" stroke="#606060" stroke-width="1.0"/>
           <path id="arrow"
             d="M 11.500037,31.436501 C 11.940474,20.09759 22.043105,11.32322 32.158766,21.979434 L 37.068811,17.246167 C 37.068811,17.246167 37.088388,32 37.088388,32 L 22.160133,31.978069 C 22.160133,31.978069 26.997745,27.140456 26.997745,27.140456 C 18.528582,18.264221 13.291696,25.230495 11.500037,31.436501 z"
             style="fill:#404040;"/>
          </a>
         </g>
        </svg>
</svg>
