<?xml version="1.0" encoding="UTF-8" standalone="no"?>
<!DOCTYPE svg PUBLIC "-//W3C//DTD SVG 1.1//EN"
 "http://www.w3.org/Graphics/SVG/1.1/DTD/svg11.dtd">
<!-- Generated by graphviz version 2.38.0 (20140413.2041)
 -->
<!-- Title: xalanc/XMLSupport/XMLSupportException.hpp Pages: 1 -->
<svg width="1511pt" height="676pt"
 viewBox="0.00 0.00 1511.00 676.00" xmlns="http://www.w3.org/2000/svg" xmlns:xlink="http://www.w3.org/1999/xlink">
<g id="graph0" class="graph" transform="scale(1 1) rotate(0) translate(4 672)">
<title>xalanc/XMLSupport/XMLSupportException.hpp</title>
<!-- Node1 -->
<g id="node1" class="node"><title>Node1</title>
<g id="a_node1"><a xlink:title=" ">
<polygon fill="#bfbfbf" stroke="black" points="77,-637.5 77,-667.5 233,-667.5 233,-637.5 77,-637.5"/>
<text text-anchor="start" x="85" y="-655.5" font-family="Helvetica,sans-Serif" font-size="10.00">xalanc/XMLSupport/XMLSupport</text>
<text text-anchor="middle" x="155" y="-644.5" font-family="Helvetica,sans-Serif" font-size="10.00">Exception.hpp</text>
</a>
</g>
</g>
<!-- Node2 -->
<g id="node2" class="node"><title>Node2</title>
<g id="a_node2"><a xlink:href="XMLSupportDefinitions_8hpp.html" target="_top" xlink:title=" ">
<polygon fill="none" stroke="black" points="0,-570.5 0,-600.5 156,-600.5 156,-570.5 0,-570.5"/>
<text text-anchor="start" x="8" y="-588.5" font-family="Helvetica,sans-Serif" font-size="10.00">xalanc/XMLSupport/XMLSupport</text>
<text text-anchor="middle" x="78" y="-577.5" font-family="Helvetica,sans-Serif" font-size="10.00">Definitions.hpp</text>
</a>
</g>
</g>
<!-- Node1&#45;&gt;Node2 -->
<g id="edge1" class="edge"><title>Node1&#45;&gt;Node2</title>
<path fill="none" stroke="midnightblue" d="M138.292,-637.396C127.798,-628.538 114.084,-616.96 102.387,-607.086"/>
<polygon fill="midnightblue" stroke="midnightblue" points="104.574,-604.353 94.6752,-600.577 100.059,-609.702 104.574,-604.353"/>
</g>
<!-- Node7 -->
<g id="node7" class="node"><title>Node7</title>
<g id="a_node7"><a xlink:href="XSLException_8hpp.html" target="_top" xlink:title=" ">
<polygon fill="none" stroke="black" points="174,-570.5 174,-600.5 292,-600.5 292,-570.5 174,-570.5"/>
<text text-anchor="start" x="182" y="-588.5" font-family="Helvetica,sans-Serif" font-size="10.00">xalanc/PlatformSupport</text>
<text text-anchor="middle" x="233" y="-577.5" font-family="Helvetica,sans-Serif" font-size="10.00">/XSLException.hpp</text>
</a>
</g>
</g>
<!-- Node1&#45;&gt;Node7 -->
<g id="edge6" class="edge"><title>Node1&#45;&gt;Node7</title>
<path fill="none" stroke="midnightblue" d="M171.925,-637.396C182.555,-628.538 196.448,-616.96 208.297,-607.086"/>
<polygon fill="midnightblue" stroke="midnightblue" points="210.667,-609.667 216.108,-600.577 206.185,-604.29 210.667,-609.667"/>
</g>
<!-- Node3 -->
<g id="node3" class="node"><title>Node3</title>
<g id="a_node3"><a xlink:href="PlatformDefinitions_8hpp.html" target="_top" xlink:title=" ">
<polygon fill="none" stroke="black" points="562,-73 562,-92 744,-92 744,-73 562,-73"/>
<text text-anchor="middle" x="653" y="-80" font-family="Helvetica,sans-Serif" font-size="10.00">xalanc/Include/PlatformDefinitions.hpp</text>
</a>
</g>
</g>
<!-- Node2&#45;&gt;Node3 -->
<g id="edge2" class="edge"><title>Node2&#45;&gt;Node3</title>
<path fill="none" stroke="midnightblue" d="M78,-570.241C78,-546.034 78,-495.354 78,-452.5 78,-452.5 78,-452.5 78,-210 78,-114.138 386.693,-90.8405 551.717,-85.2352"/>
<polygon fill="midnightblue" stroke="midnightblue" points="552.008,-88.7277 561.89,-84.9059 551.781,-81.7314 552.008,-88.7277"/>
</g>
<!-- Node4 -->
<g id="node4" class="node"><title>Node4</title>
<g id="a_node4"><a xlink:title=" ">
<polygon fill="none" stroke="#bfbfbf" points="451,-0.5 451,-30.5 559,-30.5 559,-0.5 451,-0.5"/>
<text text-anchor="start" x="459" y="-18.5" font-family="Helvetica,sans-Serif" font-size="10.00">xercesc/util/Xerces</text>
<text text-anchor="middle" x="505" y="-7.5" font-family="Helvetica,sans-Serif" font-size="10.00">_autoconf_config.hpp</text>
</a>
</g>
</g>
<!-- Node3&#45;&gt;Node4 -->
<g id="edge3" class="edge"><title>Node3&#45;&gt;Node4</title>
<path fill="none" stroke="midnightblue" d="M633.347,-72.8685C611.235,-63.1572 574.695,-47.1092 546.246,-34.6148"/>
<polygon fill="midnightblue" stroke="midnightblue" points="547.504,-31.3447 536.941,-30.5281 544.689,-37.7539 547.504,-31.3447"/>
</g>
<!-- Node5 -->
<g id="node5" class="node"><title>Node5</title>
<g id="a_node5"><a xlink:title=" ">
<polygon fill="none" stroke="#bfbfbf" points="577.5,-6 577.5,-25 728.5,-25 728.5,-6 577.5,-6"/>
<text text-anchor="middle" x="653" y="-13" font-family="Helvetica,sans-Serif" font-size="10.00">xercesc/util/XercesVersion.hpp</text>
</a>
</g>
</g>
<!-- Node3&#45;&gt;Node5 -->
<g id="edge4" class="edge"><title>Node3&#45;&gt;Node5</title>
<path fill="none" stroke="midnightblue" d="M653,-72.7338C653,-63.1826 653,-47.6183 653,-35.2829"/>
<polygon fill="midnightblue" stroke="midnightblue" points="656.5,-35.1273 653,-25.1273 649.5,-35.1273 656.5,-35.1273"/>
</g>
<!-- Node6 -->
<g id="node6" class="node"><title>Node6</title>
<g id="a_node6"><a xlink:href="XalanVersion_8hpp.html" target="_top" xlink:title=" ">
<polygon fill="none" stroke="black" points="747,-6 747,-25 839,-25 839,-6 747,-6"/>
<text text-anchor="middle" x="793" y="-13" font-family="Helvetica,sans-Serif" font-size="10.00">XalanVersion.hpp</text>
</a>
</g>
</g>
<!-- Node3&#45;&gt;Node6 -->
<g id="edge5" class="edge"><title>Node3&#45;&gt;Node6</title>
<path fill="none" stroke="midnightblue" d="M671.591,-72.8685C695.544,-61.7476 737.395,-42.3167 765.154,-29.4286"/>
<polygon fill="midnightblue" stroke="midnightblue" points="766.736,-32.5529 774.332,-25.1672 763.788,-26.2038 766.736,-32.5529"/>
</g>
<!-- Node8 -->
<g id="node8" class="node"><title>Node8</title>
<g id="a_node8"><a xlink:href="PlatformSupportDefinitions_8hpp.html" target="_top" xlink:title=" ">
<polygon fill="none" stroke="black" points="333.5,-369.5 333.5,-399.5 486.5,-399.5 486.5,-369.5 333.5,-369.5"/>
<text text-anchor="start" x="341.5" y="-387.5" font-family="Helvetica,sans-Serif" font-size="10.00">xalanc/PlatformSupport</text>
<text text-anchor="middle" x="410" y="-376.5" font-family="Helvetica,sans-Serif" font-size="10.00">/PlatformSupportDefinitions.hpp</text>
</a>
</g>
</g>
<!-- Node7&#45;&gt;Node8 -->
<g id="edge7" class="edge"><title>Node7&#45;&gt;Node8</title>
<path fill="none" stroke="midnightblue" d="M208.167,-570.467C194.05,-561.499 176.876,-548.792 165,-534 136.482,-498.481 105.844,-470.997 135,-436 158.691,-407.563 251.743,-395.085 323.113,-389.644"/>
<polygon fill="midnightblue" stroke="midnightblue" points="323.754,-393.107 333.474,-388.891 323.247,-386.125 323.754,-393.107"/>
</g>
<!-- Node9 -->
<g id="node9" class="node"><title>Node9</title>
<g id="a_node9"><a xlink:href="DOMStringHelper_8hpp.html" target="_top" xlink:title=" ">
<polygon fill="none" stroke="black" points="784,-503.5 784,-533.5 902,-533.5 902,-503.5 784,-503.5"/>
<text text-anchor="start" x="792" y="-521.5" font-family="Helvetica,sans-Serif" font-size="10.00">xalanc/PlatformSupport</text>
<text text-anchor="middle" x="843" y="-510.5" font-family="Helvetica,sans-Serif" font-size="10.00">/DOMStringHelper.hpp</text>
</a>
</g>
</g>
<!-- Node7&#45;&gt;Node9 -->
<g id="edge9" class="edge"><title>Node7&#45;&gt;Node9</title>
<path fill="none" stroke="midnightblue" d="M292.044,-578.208C405.35,-566.135 652.753,-539.772 773.679,-526.887"/>
<polygon fill="midnightblue" stroke="midnightblue" points="774.351,-530.335 783.924,-525.795 773.609,-523.374 774.351,-530.335"/>
</g>
<!-- Node32 -->
<g id="node32" class="node"><title>Node32</title>
<g id="a_node32"><a xlink:href="XalanLocator_8hpp.html" target="_top" xlink:title=" ">
<polygon fill="none" stroke="black" points="174,-503.5 174,-533.5 292,-533.5 292,-503.5 174,-503.5"/>
<text text-anchor="start" x="182" y="-521.5" font-family="Helvetica,sans-Serif" font-size="10.00">xalanc/PlatformSupport</text>
<text text-anchor="middle" x="233" y="-510.5" font-family="Helvetica,sans-Serif" font-size="10.00">/XalanLocator.hpp</text>
</a>
</g>
</g>
<!-- Node7&#45;&gt;Node32 -->
<g id="edge68" class="edge"><title>Node7&#45;&gt;Node32</title>
<path fill="none" stroke="midnightblue" d="M233,-570.396C233,-562.645 233,-552.812 233,-543.86"/>
<polygon fill="midnightblue" stroke="midnightblue" points="236.5,-543.576 233,-533.577 229.5,-543.577 236.5,-543.576"/>
</g>
<!-- Node8&#45;&gt;Node3 -->
<g id="edge8" class="edge"><title>Node8&#45;&gt;Node3</title>
<path fill="none" stroke="midnightblue" d="M410,-369.275C410,-347.476 410,-304.495 410,-268 410,-268 410,-268 410,-210 410,-138.602 493.558,-107.441 562.678,-93.8777"/>
<polygon fill="midnightblue" stroke="midnightblue" points="563.568,-97.2721 572.759,-92.0016 562.288,-90.3902 563.568,-97.2721"/>
</g>
<!-- Node9&#45;&gt;Node8 -->
<g id="edge10" class="edge"><title>Node9&#45;&gt;Node8</title>
<path fill="none" stroke="midnightblue" d="M783.644,-511.173C738.361,-504.622 675.402,-491.719 625,-467 605.431,-457.403 606.322,-446.086 587,-436 558.116,-420.922 524.161,-409.843 493.757,-401.97"/>
<polygon fill="midnightblue" stroke="midnightblue" points="494.572,-398.567 484.021,-399.526 492.868,-405.356 494.572,-398.567"/>
</g>
<!-- Node10 -->
<g id="node10" class="node"><title>Node10</title>
<g id="a_node10"><a xlink:title=" ">
<polygon fill="none" stroke="#bfbfbf" points="776,-140 776,-159 832,-159 832,-140 776,-140"/>
<text text-anchor="middle" x="804" y="-147" font-family="Helvetica,sans-Serif" font-size="10.00">algorithm</text>
</a>
</g>
</g>
<!-- Node9&#45;&gt;Node10 -->
<g id="edge11" class="edge"><title>Node9&#45;&gt;Node10</title>
<path fill="none" stroke="midnightblue" d="M902.176,-508.231C935.17,-500.963 975.776,-488.367 1007,-467 1047.86,-439.035 1073.34,-416.686 1060,-369 1032.3,-269.997 986.104,-258.673 901,-201 879.254,-186.264 852.68,-172.705 832.849,-163.356"/>
<polygon fill="midnightblue" stroke="midnightblue" points="834.25,-160.148 823.706,-159.117 831.306,-166.498 834.25,-160.148"/>
</g>
<!-- Node11 -->
<g id="node11" class="node"><title>Node11</title>
<g id="a_node11"><a xlink:title=" ">
<polygon fill="none" stroke="#bfbfbf" points="1402.5,-73 1402.5,-92 1451.5,-92 1451.5,-73 1402.5,-73"/>
<text text-anchor="middle" x="1427" y="-80" font-family="Helvetica,sans-Serif" font-size="10.00">cassert</text>
</a>
</g>
</g>
<!-- Node9&#45;&gt;Node11 -->
<g id="edge12" class="edge"><title>Node9&#45;&gt;Node11</title>
<path fill="none" stroke="midnightblue" d="M902.151,-518.134C1064.15,-518.292 1503,-507.465 1503,-385.5 1503,-385.5 1503,-385.5 1503,-210 1503,-164.622 1466.62,-121.482 1444.2,-99.205"/>
<polygon fill="midnightblue" stroke="midnightblue" points="1446.57,-96.6293 1436.94,-92.2259 1441.72,-101.678 1446.57,-96.6293"/>
</g>
<!-- Node12 -->
<g id="node12" class="node"><title>Node12</title>
<g id="a_node12"><a xlink:title=" ">
<polygon fill="none" stroke="#bfbfbf" points="624,-201.5 624,-220.5 682,-220.5 682,-201.5 624,-201.5"/>
<text text-anchor="middle" x="653" y="-208.5" font-family="Helvetica,sans-Serif" font-size="10.00">functional</text>
</a>
</g>
</g>
<!-- Node9&#45;&gt;Node12 -->
<g id="edge13" class="edge"><title>Node9&#45;&gt;Node12</title>
<path fill="none" stroke="midnightblue" d="M837.105,-503.442C822.674,-469.719 784.932,-385.777 760,-369 652.247,-296.491 558.569,-427.995 470,-333 446.948,-308.275 446.095,-283.565 467,-257 484.934,-234.209 564.911,-221.575 613.968,-215.844"/>
<polygon fill="midnightblue" stroke="midnightblue" points="614.387,-219.319 623.934,-214.725 613.605,-212.363 614.387,-219.319"/>
</g>
<!-- Node13 -->
<g id="node13" class="node"><title>Node13</title>
<g id="a_node13"><a xlink:title=" ">
<polygon fill="none" stroke="#bfbfbf" points="846,-442 846,-461 890,-461 890,-442 846,-442"/>
<text text-anchor="middle" x="868" y="-449" font-family="Helvetica,sans-Serif" font-size="10.00">iosfwd</text>
</a>
</g>
</g>
<!-- Node9&#45;&gt;Node13 -->
<g id="edge14" class="edge"><title>Node9&#45;&gt;Node13</title>
<path fill="none" stroke="midnightblue" d="M848.425,-503.396C852.13,-493.763 857.071,-480.914 861.063,-470.537"/>
<polygon fill="midnightblue" stroke="midnightblue" points="864.333,-471.784 864.656,-461.195 857.799,-469.272 864.333,-471.784"/>
</g>
<!-- Node14 -->
<g id="node14" class="node"><title>Node14</title>
<g id="a_node14"><a xlink:href="XalanVector_8hpp.html" target="_top" xlink:title=" ">
<polygon fill="none" stroke="black" points="1106,-201.5 1106,-220.5 1258,-220.5 1258,-201.5 1106,-201.5"/>
<text text-anchor="middle" x="1182" y="-208.5" font-family="Helvetica,sans-Serif" font-size="10.00">xalanc/Include/XalanVector.hpp</text>
</a>
</g>
</g>
<!-- Node9&#45;&gt;Node14 -->
<g id="edge15" class="edge"><title>Node9&#45;&gt;Node14</title>
<path fill="none" stroke="midnightblue" d="M902.099,-517.135C966.389,-514.669 1070.83,-504.515 1152,-467 1202.8,-443.519 1248,-441.469 1248,-385.5 1248,-385.5 1248,-385.5 1248,-322 1248,-283.857 1218.46,-247.517 1198.91,-227.64"/>
<polygon fill="midnightblue" stroke="midnightblue" points="1201.33,-225.119 1191.74,-220.628 1196.44,-230.123 1201.33,-225.119"/>
</g>
<!-- Node19 -->
<g id="node19" class="node"><title>Node19</title>
<g id="a_node19"><a xlink:href="XalanMemoryManagement_8hpp.html" target="_top" xlink:title=" ">
<polygon fill="none" stroke="black" points="1221,-134.5 1221,-164.5 1361,-164.5 1361,-134.5 1221,-134.5"/>
<text text-anchor="start" x="1229" y="-152.5" font-family="Helvetica,sans-Serif" font-size="10.00">xalanc/Include/XalanMemory</text>
<text text-anchor="middle" x="1291" y="-141.5" font-family="Helvetica,sans-Serif" font-size="10.00">Management.hpp</text>
</a>
</g>
</g>
<!-- Node9&#45;&gt;Node19 -->
<g id="edge45" class="edge"><title>Node9&#45;&gt;Node19</title>
<path fill="none" stroke="midnightblue" d="M902.462,-513.708C1031.15,-503.872 1324,-471.986 1324,-385.5 1324,-385.5 1324,-385.5 1324,-266 1324,-233.119 1311.48,-196.929 1301.87,-173.978"/>
<polygon fill="midnightblue" stroke="midnightblue" points="1305.03,-172.487 1297.84,-164.712 1298.62,-175.278 1305.03,-172.487"/>
</g>
<!-- Node21 -->
<g id="node21" class="node"><title>Node21</title>
<g id="a_node21"><a xlink:href="XalanMap_8hpp.html" target="_top" xlink:title=" ">
<polygon fill="none" stroke="black" points="814.5,-257.5 814.5,-276.5 957.5,-276.5 957.5,-257.5 814.5,-257.5"/>
<text text-anchor="middle" x="886" y="-264.5" font-family="Helvetica,sans-Serif" font-size="10.00">xalanc/Include/XalanMap.hpp</text>
</a>
</g>
</g>
<!-- Node9&#45;&gt;Node21 -->
<g id="edge29" class="edge"><title>Node9&#45;&gt;Node21</title>
<path fill="none" stroke="midnightblue" d="M893.89,-503.384C941.702,-487.11 1010.47,-455.228 1042,-400 1074.44,-343.176 979.174,-299.718 923.37,-279.859"/>
<polygon fill="midnightblue" stroke="midnightblue" points="924.376,-276.504 913.782,-276.54 922.086,-283.119 924.376,-276.504"/>
</g>
<!-- Node24 -->
<g id="node24" class="node"><title>Node24</title>
<g id="a_node24"><a xlink:href="STLHelper_8hpp.html" target="_top" xlink:title=" ">
<polygon fill="none" stroke="black" points="742,-313.5 742,-332.5 888,-332.5 888,-313.5 742,-313.5"/>
<text text-anchor="middle" x="815" y="-320.5" font-family="Helvetica,sans-Serif" font-size="10.00">xalanc/Include/STLHelper.hpp</text>
</a>
</g>
</g>
<!-- Node9&#45;&gt;Node24 -->
<g id="edge46" class="edge"><title>Node9&#45;&gt;Node24</title>
<path fill="none" stroke="midnightblue" d="M840.941,-503.271C835.974,-468.944 823.33,-381.566 817.735,-342.9"/>
<polygon fill="midnightblue" stroke="midnightblue" points="821.137,-341.973 816.241,-332.577 814.209,-342.975 821.137,-341.973"/>
</g>
<!-- Node25 -->
<g id="node25" class="node"><title>Node25</title>
<g id="a_node25"><a xlink:href="XalanDOMString_8hpp.html" target="_top" xlink:title=" ">
<polygon fill="none" stroke="black" points="846.5,-375 846.5,-394 1033.5,-394 1033.5,-375 846.5,-375"/>
<text text-anchor="middle" x="940" y="-382" font-family="Helvetica,sans-Serif" font-size="10.00">xalanc/XalanDOM/XalanDOMString.hpp</text>
</a>
</g>
</g>
<!-- Node9&#45;&gt;Node25 -->
<g id="edge51" class="edge"><title>Node9&#45;&gt;Node25</title>
<path fill="none" stroke="midnightblue" d="M862.048,-503.317C873.739,-493.935 888.441,-480.845 899,-467 914.113,-447.184 926.136,-420.939 933.159,-403.654"/>
<polygon fill="midnightblue" stroke="midnightblue" points="936.479,-404.774 936.869,-394.187 929.962,-402.221 936.479,-404.774"/>
</g>
<!-- Node28 -->
<g id="node28" class="node"><title>Node28</title>
<g id="a_node28"><a xlink:href="FormatterListener_8hpp.html" target="_top" xlink:title=" ">
<polygon fill="none" stroke="black" points="634,-436.5 634,-466.5 752,-466.5 752,-436.5 634,-436.5"/>
<text text-anchor="start" x="642" y="-454.5" font-family="Helvetica,sans-Serif" font-size="10.00">xalanc/PlatformSupport</text>
<text text-anchor="middle" x="693" y="-443.5" font-family="Helvetica,sans-Serif" font-size="10.00">/FormatterListener.hpp</text>
</a>
</g>
</g>
<!-- Node9&#45;&gt;Node28 -->
<g id="edge60" class="edge"><title>Node9&#45;&gt;Node28</title>
<path fill="none" stroke="midnightblue" d="M810.452,-503.396C788.241,-493.771 758.622,-480.936 734.686,-470.564"/>
<polygon fill="midnightblue" stroke="midnightblue" points="736.051,-467.341 725.484,-466.577 733.268,-473.764 736.051,-467.341"/>
</g>
<!-- Node30 -->
<g id="node30" class="node"><title>Node30</title>
<g id="a_node30"><a xlink:href="XalanUnicode_8hpp.html" target="_top" xlink:title=" ">
<polygon fill="none" stroke="black" points="324,-436.5 324,-466.5 442,-466.5 442,-436.5 324,-436.5"/>
<text text-anchor="start" x="332" y="-454.5" font-family="Helvetica,sans-Serif" font-size="10.00">xalanc/PlatformSupport</text>
<text text-anchor="middle" x="383" y="-443.5" font-family="Helvetica,sans-Serif" font-size="10.00">/XalanUnicode.hpp</text>
</a>
</g>
</g>
<!-- Node9&#45;&gt;Node30 -->
<g id="edge64" class="edge"><title>Node9&#45;&gt;Node30</title>
<path fill="none" stroke="midnightblue" d="M783.669,-511.389C708.723,-503.328 575.607,-487.879 452.28,-467.137"/>
<polygon fill="midnightblue" stroke="midnightblue" points="452.728,-463.663 442.283,-465.44 451.556,-470.564 452.728,-463.663"/>
</g>
<!-- Node31 -->
<g id="node31" class="node"><title>Node31</title>
<g id="a_node31"><a xlink:href="XalanXMLChar_8hpp.html" target="_top" xlink:title=" ">
<polygon fill="none" stroke="black" points="460,-436.5 460,-466.5 578,-466.5 578,-436.5 460,-436.5"/>
<text text-anchor="start" x="468" y="-454.5" font-family="Helvetica,sans-Serif" font-size="10.00">xalanc/PlatformSupport</text>
<text text-anchor="middle" x="519" y="-443.5" font-family="Helvetica,sans-Serif" font-size="10.00">/XalanXMLChar.hpp</text>
</a>
</g>
</g>
<!-- Node9&#45;&gt;Node31 -->
<g id="edge66" class="edge"><title>Node9&#45;&gt;Node31</title>
<path fill="none" stroke="midnightblue" d="M783.95,-505.654C728.736,-494.577 646.28,-478.035 588.045,-466.352"/>
<polygon fill="midnightblue" stroke="midnightblue" points="588.684,-462.91 578.191,-464.375 587.307,-469.773 588.684,-462.91"/>
</g>
<!-- Node14&#45;&gt;Node3 -->
<g id="edge16" class="edge"><title>Node14&#45;&gt;Node3</title>
<path fill="none" stroke="midnightblue" d="M1172.18,-201.42C1161.88,-192.4 1145.24,-177.773 1131,-165 1115.78,-151.346 1115.62,-142.455 1097,-134 1037.92,-107.171 866.474,-93.8416 754.735,-87.8251"/>
<polygon fill="midnightblue" stroke="midnightblue" points="754.62,-84.3143 744.449,-87.2828 754.251,-91.3046 754.62,-84.3143"/>
</g>
<!-- Node14&#45;&gt;Node10 -->
<g id="edge18" class="edge"><title>Node14&#45;&gt;Node10</title>
<path fill="none" stroke="midnightblue" d="M1127.84,-201.475C1050.53,-189.305 910.391,-167.247 842.682,-156.589"/>
<polygon fill="midnightblue" stroke="midnightblue" points="842.88,-153.077 832.457,-154.979 841.792,-159.992 842.88,-153.077"/>
</g>
<!-- Node14&#45;&gt;Node11 -->
<g id="edge19" class="edge"><title>Node14&#45;&gt;Node11</title>
<path fill="none" stroke="midnightblue" d="M1258.25,-202.852C1313.49,-196.166 1382.02,-184.263 1403,-165 1420.46,-148.975 1425.46,-120.966 1426.76,-102.325"/>
<polygon fill="midnightblue" stroke="midnightblue" points="1430.26,-102.253 1427.17,-92.1206 1423.27,-101.972 1430.26,-102.253"/>
</g>
<!-- Node15 -->
<g id="node15" class="node"><title>Node15</title>
<g id="a_node15"><a xlink:title=" ">
<polygon fill="none" stroke="#bfbfbf" points="990,-73 990,-92 1038,-92 1038,-73 990,-73"/>
<text text-anchor="middle" x="1014" y="-80" font-family="Helvetica,sans-Serif" font-size="10.00">cstddef</text>
</a>
</g>
</g>
<!-- Node14&#45;&gt;Node15 -->
<g id="edge17" class="edge"><title>Node14&#45;&gt;Node15</title>
<path fill="none" stroke="midnightblue" d="M1178.21,-201.299C1171.06,-185.816 1154.21,-153.302 1131,-134 1106.63,-113.737 1072.89,-100.338 1047.91,-92.466"/>
<polygon fill="midnightblue" stroke="midnightblue" points="1048.71,-89.0525 1038.13,-89.5237 1046.69,-95.7558 1048.71,-89.0525"/>
</g>
<!-- Node16 -->
<g id="node16" class="node"><title>Node16</title>
<g id="a_node16"><a xlink:title=" ">
<polygon fill="none" stroke="#bfbfbf" points="1173,-73 1173,-92 1207,-92 1207,-73 1173,-73"/>
<text text-anchor="middle" x="1190" y="-80" font-family="Helvetica,sans-Serif" font-size="10.00">new</text>
</a>
</g>
</g>
<!-- Node14&#45;&gt;Node16 -->
<g id="edge20" class="edge"><title>Node14&#45;&gt;Node16</title>
<path fill="none" stroke="midnightblue" d="M1182.55,-201.305C1183.83,-180.994 1187.06,-130.053 1188.81,-102.277"/>
<polygon fill="midnightblue" stroke="midnightblue" points="1192.31,-102.457 1189.45,-92.2557 1185.32,-102.015 1192.31,-102.457"/>
</g>
<!-- Node17 -->
<g id="node17" class="node"><title>Node17</title>
<g id="a_node17"><a xlink:title=" ">
<polygon fill="none" stroke="#bfbfbf" points="1041.5,-140 1041.5,-159 1088.5,-159 1088.5,-140 1041.5,-140"/>
<text text-anchor="middle" x="1065" y="-147" font-family="Helvetica,sans-Serif" font-size="10.00">iterator</text>
</a>
</g>
</g>
<!-- Node14&#45;&gt;Node17 -->
<g id="edge21" class="edge"><title>Node14&#45;&gt;Node17</title>
<path fill="none" stroke="midnightblue" d="M1165.24,-201.475C1145.78,-191.578 1113.45,-175.142 1090.79,-163.615"/>
<polygon fill="midnightblue" stroke="midnightblue" points="1092.23,-160.422 1081.73,-159.009 1089.06,-166.662 1092.23,-160.422"/>
</g>
<!-- Node18 -->
<g id="node18" class="node"><title>Node18</title>
<g id="a_node18"><a xlink:title=" ">
<polygon fill="none" stroke="#bfbfbf" points="964.5,-140 964.5,-159 1023.5,-159 1023.5,-140 964.5,-140"/>
<text text-anchor="middle" x="994" y="-147" font-family="Helvetica,sans-Serif" font-size="10.00">stdexcept</text>
</a>
</g>
</g>
<!-- Node14&#45;&gt;Node18 -->
<g id="edge22" class="edge"><title>Node14&#45;&gt;Node18</title>
<path fill="none" stroke="midnightblue" d="M1151.05,-201.431C1120.58,-192.824 1072.8,-178.882 1032,-165 1029.74,-164.232 1027.42,-163.415 1025.09,-162.574"/>
<polygon fill="midnightblue" stroke="midnightblue" points="1026.2,-159.251 1015.6,-159.057 1023.76,-165.815 1026.2,-159.251"/>
</g>
<!-- Node14&#45;&gt;Node19 -->
<g id="edge23" class="edge"><title>Node14&#45;&gt;Node19</title>
<path fill="none" stroke="midnightblue" d="M1197.62,-201.475C1212.86,-193.153 1236.58,-180.207 1256.29,-169.445"/>
<polygon fill="midnightblue" stroke="midnightblue" points="1258.21,-172.386 1265.31,-164.523 1254.86,-166.242 1258.21,-172.386"/>
</g>
<!-- Node19&#45;&gt;Node3 -->
<g id="edge24" class="edge"><title>Node19&#45;&gt;Node3</title>
<path fill="none" stroke="midnightblue" d="M1220.9,-141.358C1105.63,-129.614 875.982,-106.218 746.825,-93.059"/>
<polygon fill="midnightblue" stroke="midnightblue" points="746.861,-89.5446 736.557,-92.0129 746.151,-96.5085 746.861,-89.5446"/>
</g>
<!-- Node19&#45;&gt;Node11 -->
<g id="edge25" class="edge"><title>Node19&#45;&gt;Node11</title>
<path fill="none" stroke="midnightblue" d="M1320.51,-134.396C1344.16,-123.092 1377.08,-107.361 1400.03,-96.3903"/>
<polygon fill="midnightblue" stroke="midnightblue" points="1401.69,-99.4771 1409.2,-92.007 1398.67,-93.1614 1401.69,-99.4771"/>
</g>
<!-- Node19&#45;&gt;Node15 -->
<g id="edge26" class="edge"><title>Node19&#45;&gt;Node15</title>
<path fill="none" stroke="midnightblue" d="M1231.24,-134.476C1175.31,-121.354 1093.75,-102.214 1048.13,-91.5098"/>
<polygon fill="midnightblue" stroke="midnightblue" points="1048.69,-88.046 1038.16,-89.1689 1047.09,-94.8609 1048.69,-88.046"/>
</g>
<!-- Node19&#45;&gt;Node16 -->
<g id="edge27" class="edge"><title>Node19&#45;&gt;Node16</title>
<path fill="none" stroke="midnightblue" d="M1269.08,-134.396C1252.15,-123.496 1228.81,-108.479 1211.88,-97.5835"/>
<polygon fill="midnightblue" stroke="midnightblue" points="1213.52,-94.4756 1203.22,-92.007 1209.73,-100.362 1213.52,-94.4756"/>
</g>
<!-- Node20 -->
<g id="node20" class="node"><title>Node20</title>
<g id="a_node20"><a xlink:title=" ">
<polygon fill="none" stroke="#bfbfbf" points="1225.5,-67.5 1225.5,-97.5 1362.5,-97.5 1362.5,-67.5 1225.5,-67.5"/>
<text text-anchor="start" x="1233.5" y="-85.5" font-family="Helvetica,sans-Serif" font-size="10.00">xercesc/framework/Memory</text>
<text text-anchor="middle" x="1294" y="-74.5" font-family="Helvetica,sans-Serif" font-size="10.00">Manager.hpp</text>
</a>
</g>
</g>
<!-- Node19&#45;&gt;Node20 -->
<g id="edge28" class="edge"><title>Node19&#45;&gt;Node20</title>
<path fill="none" stroke="midnightblue" d="M1291.65,-134.396C1292.01,-126.645 1292.46,-116.812 1292.88,-107.86"/>
<polygon fill="midnightblue" stroke="midnightblue" points="1296.39,-107.727 1293.35,-97.5765 1289.39,-107.404 1296.39,-107.727"/>
</g>
<!-- Node21&#45;&gt;Node3 -->
<g id="edge30" class="edge"><title>Node21&#45;&gt;Node3</title>
<path fill="none" stroke="midnightblue" d="M856.57,-257.445C834.045,-250.027 802.891,-237.825 779,-221 729.529,-186.161 685.142,-128.916 664.778,-100.541"/>
<polygon fill="midnightblue" stroke="midnightblue" points="667.446,-98.2516 658.82,-92.0994 661.727,-102.288 667.446,-98.2516"/>
</g>
<!-- Node21&#45;&gt;Node10 -->
<g id="edge32" class="edge"><title>Node21&#45;&gt;Node10</title>
<path fill="none" stroke="midnightblue" d="M876.366,-257.313C867.123,-248.673 853.113,-234.755 843,-221 830.613,-204.152 819.393,-182.939 812.202,-168.205"/>
<polygon fill="midnightblue" stroke="midnightblue" points="815.36,-166.697 807.902,-159.172 809.04,-169.706 815.36,-166.697"/>
</g>
<!-- Node21&#45;&gt;Node12 -->
<g id="edge33" class="edge"><title>Node21&#45;&gt;Node12</title>
<path fill="none" stroke="midnightblue" d="M849.08,-257.444C806.195,-247.504 735.75,-231.178 691.998,-221.038"/>
<polygon fill="midnightblue" stroke="midnightblue" points="692.549,-217.573 682.017,-218.725 690.969,-224.393 692.549,-217.573"/>
</g>
<!-- Node21&#45;&gt;Node14 -->
<g id="edge35" class="edge"><title>Node21&#45;&gt;Node14</title>
<path fill="none" stroke="midnightblue" d="M932.902,-257.444C985.08,-247.925 1069.37,-232.547 1125.23,-222.356"/>
<polygon fill="midnightblue" stroke="midnightblue" points="1126.11,-225.754 1135.32,-220.516 1124.85,-218.868 1126.11,-225.754"/>
</g>
<!-- Node21&#45;&gt;Node15 -->
<g id="edge31" class="edge"><title>Node21&#45;&gt;Node15</title>
<path fill="none" stroke="midnightblue" d="M867.404,-257.456C824.946,-236.824 727.492,-182.403 767,-134 793.435,-101.613 917.956,-89.4411 979.456,-85.3489"/>
<polygon fill="midnightblue" stroke="midnightblue" points="980.057,-88.8181 989.818,-84.6966 979.618,-81.8319 980.057,-88.8181"/>
</g>
<!-- Node22 -->
<g id="node22" class="node"><title>Node22</title>
<g id="a_node22"><a xlink:title=" ">
<polygon fill="none" stroke="#bfbfbf" points="852,-201.5 852,-220.5 892,-220.5 892,-201.5 852,-201.5"/>
<text text-anchor="middle" x="872" y="-208.5" font-family="Helvetica,sans-Serif" font-size="10.00">utility</text>
</a>
</g>
</g>
<!-- Node21&#45;&gt;Node22 -->
<g id="edge34" class="edge"><title>Node21&#45;&gt;Node22</title>
<path fill="none" stroke="midnightblue" d="M883.688,-257.083C881.833,-249.927 879.165,-239.635 876.846,-230.691"/>
<polygon fill="midnightblue" stroke="midnightblue" points="880.166,-229.553 874.269,-220.751 873.391,-231.309 880.166,-229.553"/>
</g>
<!-- Node23 -->
<g id="node23" class="node"><title>Node23</title>
<g id="a_node23"><a xlink:href="XalanList_8hpp.html" target="_top" xlink:title=" ">
<polygon fill="none" stroke="black" points="948,-201.5 948,-220.5 1088,-220.5 1088,-201.5 948,-201.5"/>
<text text-anchor="middle" x="1018" y="-208.5" font-family="Helvetica,sans-Serif" font-size="10.00">xalanc/Include/XalanList.hpp</text>
</a>
</g>
</g>
<!-- Node21&#45;&gt;Node23 -->
<g id="edge36" class="edge"><title>Node21&#45;&gt;Node23</title>
<path fill="none" stroke="midnightblue" d="M906.916,-257.444C928.736,-248.517 963.15,-234.439 987.892,-224.317"/>
<polygon fill="midnightblue" stroke="midnightblue" points="989.252,-227.542 997.182,-220.516 986.601,-221.063 989.252,-227.542"/>
</g>
<!-- Node23&#45;&gt;Node3 -->
<g id="edge37" class="edge"><title>Node23&#45;&gt;Node3</title>
<path fill="none" stroke="midnightblue" d="M997.867,-201.383C976.727,-192.333 942.521,-177.681 913,-165 880.988,-151.249 873.909,-145.438 841,-134 794.26,-117.755 739.487,-103.573 701.16,-94.4084"/>
<polygon fill="midnightblue" stroke="midnightblue" points="701.834,-90.9712 691.296,-92.0737 700.221,-97.783 701.834,-90.9712"/>
</g>
<!-- Node23&#45;&gt;Node10 -->
<g id="edge39" class="edge"><title>Node23&#45;&gt;Node10</title>
<path fill="none" stroke="midnightblue" d="M982.2,-201.482C947.253,-192.967 892.674,-179.14 846,-165 843.232,-164.161 840.373,-163.257 837.51,-162.325"/>
<polygon fill="midnightblue" stroke="midnightblue" points="838.478,-158.958 827.884,-159.1 836.254,-165.595 838.478,-158.958"/>
</g>
<!-- Node23&#45;&gt;Node11 -->
<g id="edge40" class="edge"><title>Node23&#45;&gt;Node11</title>
<path fill="none" stroke="midnightblue" d="M1088.15,-201.753C1189.1,-189.782 1364.01,-168.621 1370,-165 1394.31,-150.301 1410.92,-120.832 1419.68,-101.649"/>
<polygon fill="midnightblue" stroke="midnightblue" points="1423,-102.779 1423.74,-92.2096 1416.57,-100.013 1423,-102.779"/>
</g>
<!-- Node23&#45;&gt;Node15 -->
<g id="edge38" class="edge"><title>Node23&#45;&gt;Node15</title>
<path fill="none" stroke="midnightblue" d="M976.529,-201.497C956.414,-195.06 934.047,-183.952 922,-165 914.609,-153.373 914.983,-145.857 922,-134 934.521,-112.844 959.398,-99.961 980.13,-92.5067"/>
<polygon fill="midnightblue" stroke="midnightblue" points="981.509,-95.737 989.902,-89.271 979.309,-89.0919 981.509,-95.737"/>
</g>
<!-- Node23&#45;&gt;Node16 -->
<g id="edge41" class="edge"><title>Node23&#45;&gt;Node16</title>
<path fill="none" stroke="midnightblue" d="M997.153,-201.427C982.422,-194.129 963.795,-182.091 955,-165 948.696,-152.749 946.341,-144.717 955,-134 980.877,-101.971 1106.51,-89.3134 1162.72,-85.1943"/>
<polygon fill="midnightblue" stroke="midnightblue" points="1163.25,-88.6658 1172.98,-84.4811 1162.77,-81.6826 1163.25,-88.6658"/>
</g>
<!-- Node23&#45;&gt;Node17 -->
<g id="edge42" class="edge"><title>Node23&#45;&gt;Node17</title>
<path fill="none" stroke="midnightblue" d="M1024.73,-201.475C1031.78,-192.55 1043.03,-178.307 1051.85,-167.143"/>
<polygon fill="midnightblue" stroke="midnightblue" points="1054.83,-169.026 1058.28,-159.009 1049.33,-164.687 1054.83,-169.026"/>
</g>
<!-- Node23&#45;&gt;Node18 -->
<g id="edge43" class="edge"><title>Node23&#45;&gt;Node18</title>
<path fill="none" stroke="midnightblue" d="M1014.56,-201.475C1011.1,-192.904 1005.67,-179.427 1001.25,-168.483"/>
<polygon fill="midnightblue" stroke="midnightblue" points="1004.42,-166.974 997.432,-159.009 997.927,-169.592 1004.42,-166.974"/>
</g>
<!-- Node23&#45;&gt;Node19 -->
<g id="edge44" class="edge"><title>Node23&#45;&gt;Node19</title>
<path fill="none" stroke="midnightblue" d="M1057.11,-201.475C1098.58,-192.438 1165.07,-177.947 1216.57,-166.722"/>
<polygon fill="midnightblue" stroke="midnightblue" points="1217.63,-170.072 1226.66,-164.523 1216.14,-163.233 1217.63,-170.072"/>
</g>
<!-- Node24&#45;&gt;Node3 -->
<g id="edge47" class="edge"><title>Node24&#45;&gt;Node3</title>
<path fill="none" stroke="midnightblue" d="M796.636,-313.487C778.087,-304.756 748.72,-290.57 724,-277 708.966,-268.747 706.103,-265.126 691,-257 658.086,-239.291 634.987,-252.583 615,-221 590.489,-182.267 621.28,-127.671 640.223,-100.394"/>
<polygon fill="midnightblue" stroke="midnightblue" points="643.083,-102.411 646.095,-92.253 637.406,-98.3155 643.083,-102.411"/>
</g>
<!-- Node24&#45;&gt;Node10 -->
<g id="edge48" class="edge"><title>Node24&#45;&gt;Node10</title>
<path fill="none" stroke="midnightblue" d="M812.538,-313.464C810.081,-304.48 806.466,-289.882 805,-277 800.671,-238.947 801.775,-194.039 802.92,-169.272"/>
<polygon fill="midnightblue" stroke="midnightblue" points="806.423,-169.295 803.445,-159.127 799.433,-168.933 806.423,-169.295"/>
</g>
<!-- Node24&#45;&gt;Node12 -->
<g id="edge49" class="edge"><title>Node24&#45;&gt;Node12</title>
<path fill="none" stroke="midnightblue" d="M803.366,-313.376C786.201,-300.724 752.989,-276.518 724,-257 708.012,-246.236 689.624,-234.601 675.567,-225.859"/>
<polygon fill="midnightblue" stroke="midnightblue" points="677.369,-222.858 667.024,-220.57 673.684,-228.81 677.369,-222.858"/>
</g>
<!-- Node24&#45;&gt;Node21 -->
<g id="edge50" class="edge"><title>Node24&#45;&gt;Node21</title>
<path fill="none" stroke="midnightblue" d="M826.407,-313.324C837.109,-305.185 853.341,-292.839 866.163,-283.087"/>
<polygon fill="midnightblue" stroke="midnightblue" points="868.544,-285.673 874.385,-276.834 864.307,-280.102 868.544,-285.673"/>
</g>
<!-- Node25&#45;&gt;Node11 -->
<g id="edge54" class="edge"><title>Node25&#45;&gt;Node11</title>
<path fill="none" stroke="midnightblue" d="M987.902,-374.987C1028.33,-366.907 1087.24,-353.008 1136,-333 1273.45,-276.602 1349.33,-292.857 1425,-165 1436.29,-145.916 1434.51,-119.664 1431.43,-102.166"/>
<polygon fill="midnightblue" stroke="midnightblue" points="1434.8,-101.176 1429.34,-92.0949 1427.95,-102.597 1434.8,-101.176"/>
</g>
<!-- Node25&#45;&gt;Node14 -->
<g id="edge57" class="edge"><title>Node25&#45;&gt;Node14</title>
<path fill="none" stroke="midnightblue" d="M952.001,-374.995C990.788,-347.508 1113.07,-260.849 1161.73,-226.362"/>
<polygon fill="midnightblue" stroke="midnightblue" points="1163.79,-229.194 1169.93,-220.556 1159.74,-223.483 1163.79,-229.194"/>
</g>
<!-- Node25&#45;&gt;Node19 -->
<g id="edge56" class="edge"><title>Node25&#45;&gt;Node19</title>
<path fill="none" stroke="midnightblue" d="M977.382,-374.947C1044.86,-357.61 1187.37,-312.003 1267,-221 1278.37,-208.003 1284.41,-189.374 1287.59,-174.53"/>
<polygon fill="midnightblue" stroke="midnightblue" points="1291.06,-174.993 1289.43,-164.525 1284.18,-173.727 1291.06,-174.993"/>
</g>
<!-- Node25&#45;&gt;Node24 -->
<g id="edge55" class="edge"><title>Node25&#45;&gt;Node24</title>
<path fill="none" stroke="midnightblue" d="M922.091,-374.975C901.113,-364.99 866.15,-348.348 841.907,-336.807"/>
<polygon fill="midnightblue" stroke="midnightblue" points="843.41,-333.647 832.876,-332.509 840.401,-339.967 843.41,-333.647"/>
</g>
<!-- Node26 -->
<g id="node26" class="node"><title>Node26</title>
<g id="a_node26"><a xlink:href="XalanDOMDefinitions_8hpp.html" target="_top" xlink:title=" ">
<polygon fill="none" stroke="black" points="476,-257.5 476,-276.5 682,-276.5 682,-257.5 476,-257.5"/>
<text text-anchor="middle" x="579" y="-264.5" font-family="Helvetica,sans-Serif" font-size="10.00">xalanc/XalanDOM/XalanDOMDefinitions.hpp</text>
</a>
</g>
</g>
<!-- Node25&#45;&gt;Node26 -->
<g id="edge52" class="edge"><title>Node25&#45;&gt;Node26</title>
<path fill="none" stroke="midnightblue" d="M891.825,-374.935C849.282,-366.624 785.963,-352.421 733,-333 714.339,-326.157 711.15,-321.101 693,-313 666.088,-300.988 634.927,-288.802 611.992,-280.146"/>
<polygon fill="midnightblue" stroke="midnightblue" points="612.984,-276.78 602.391,-276.547 610.527,-283.334 612.984,-276.78"/>
</g>
<!-- Node27 -->
<g id="node27" class="node"><title>Node27</title>
<g id="a_node27"><a xlink:href="XalanDOMException_8hpp.html" target="_top" xlink:title=" ">
<polygon fill="none" stroke="black" points="479.5,-313.5 479.5,-332.5 684.5,-332.5 684.5,-313.5 479.5,-313.5"/>
<text text-anchor="middle" x="582" y="-320.5" font-family="Helvetica,sans-Serif" font-size="10.00">xalanc/XalanDOM/XalanDOMException.hpp</text>
</a>
</g>
</g>
<!-- Node25&#45;&gt;Node27 -->
<g id="edge58" class="edge"><title>Node25&#45;&gt;Node27</title>
<path fill="none" stroke="midnightblue" d="M888.707,-374.975C823.842,-364.194 712.291,-345.654 643.09,-334.153"/>
<polygon fill="midnightblue" stroke="midnightblue" points="643.636,-330.696 633.198,-332.509 642.488,-337.601 643.636,-330.696"/>
</g>
<!-- Node26&#45;&gt;Node3 -->
<g id="edge53" class="edge"><title>Node26&#45;&gt;Node3</title>
<path fill="none" stroke="midnightblue" d="M576.688,-257.314C571.304,-235.186 559.983,-175.514 582,-134 590.745,-117.511 607.555,-105.185 622.623,-96.8398"/>
<polygon fill="midnightblue" stroke="midnightblue" points="624.413,-99.8546 631.692,-92.1565 621.201,-93.6349 624.413,-99.8546"/>
</g>
<!-- Node27&#45;&gt;Node26 -->
<g id="edge59" class="edge"><title>Node27&#45;&gt;Node26</title>
<path fill="none" stroke="midnightblue" d="M581.505,-313.083C581.111,-306.006 580.548,-295.861 580.055,-286.986"/>
<polygon fill="midnightblue" stroke="midnightblue" points="583.536,-286.542 579.486,-276.751 576.546,-286.93 583.536,-286.542"/>
</g>
<!-- Node28&#45;&gt;Node8 -->
<g id="edge61" class="edge"><title>Node28&#45;&gt;Node8</title>
<path fill="none" stroke="midnightblue" d="M633.674,-436.874C589.187,-426.656 528.116,-412.629 481.028,-401.814"/>
<polygon fill="midnightblue" stroke="midnightblue" points="481.732,-398.385 471.203,-399.557 480.165,-405.207 481.732,-398.385"/>
</g>
<!-- Node28&#45;&gt;Node25 -->
<g id="edge63" class="edge"><title>Node28&#45;&gt;Node25</title>
<path fill="none" stroke="midnightblue" d="M746.291,-436.476C791.623,-424.547 855.852,-407.644 897.715,-396.628"/>
<polygon fill="midnightblue" stroke="midnightblue" points="898.811,-399.958 907.591,-394.029 897.03,-393.189 898.811,-399.958"/>
</g>
<!-- Node29 -->
<g id="node29" class="node"><title>Node29</title>
<g id="a_node29"><a xlink:title=" ">
<polygon fill="none" stroke="#bfbfbf" points="582.5,-375 582.5,-394 751.5,-394 751.5,-375 582.5,-375"/>
<text text-anchor="middle" x="667" y="-382" font-family="Helvetica,sans-Serif" font-size="10.00">xercesc/sax/DocumentHandler.hpp</text>
</a>
</g>
</g>
<!-- Node28&#45;&gt;Node29 -->
<g id="edge62" class="edge"><title>Node28&#45;&gt;Node29</title>
<path fill="none" stroke="midnightblue" d="M687.358,-436.396C683.505,-426.763 678.366,-413.914 674.215,-403.537"/>
<polygon fill="midnightblue" stroke="midnightblue" points="677.441,-402.179 670.478,-394.195 670.942,-404.779 677.441,-402.179"/>
</g>
<!-- Node30&#45;&gt;Node8 -->
<g id="edge65" class="edge"><title>Node30&#45;&gt;Node8</title>
<path fill="none" stroke="midnightblue" d="M388.859,-436.396C392.184,-428.389 396.433,-418.162 400.248,-408.978"/>
<polygon fill="midnightblue" stroke="midnightblue" points="403.549,-410.154 404.153,-399.577 397.084,-407.469 403.549,-410.154"/>
</g>
<!-- Node31&#45;&gt;Node8 -->
<g id="edge67" class="edge"><title>Node31&#45;&gt;Node8</title>
<path fill="none" stroke="midnightblue" d="M495.349,-436.396C479.922,-427.197 459.58,-415.066 442.624,-404.955"/>
<polygon fill="midnightblue" stroke="midnightblue" points="443.987,-401.692 433.605,-399.577 440.401,-407.704 443.987,-401.692"/>
</g>
<!-- Node32&#45;&gt;Node8 -->
<g id="edge69" class="edge"><title>Node32&#45;&gt;Node8</title>
<path fill="none" stroke="midnightblue" d="M244.981,-503.249C260.07,-485.892 287.377,-456.372 315,-436 331.489,-423.839 351.288,-412.829 368.534,-404.215"/>
<polygon fill="midnightblue" stroke="midnightblue" points="370.364,-407.216 377.815,-399.684 367.294,-400.926 370.364,-407.216"/>
</g>
<!-- Node33 -->
<g id="node33" class="node"><title>Node33</title>
<g id="a_node33"><a xlink:title=" ">
<polygon fill="none" stroke="#bfbfbf" points="144,-442 144,-461 268,-461 268,-442 144,-442"/>
<text text-anchor="middle" x="206" y="-449" font-family="Helvetica,sans-Serif" font-size="10.00">xercesc/sax/Locator.hpp</text>
</a>
</g>
</g>
<!-- Node32&#45;&gt;Node33 -->
<g id="edge70" class="edge"><title>Node32&#45;&gt;Node33</title>
<path fill="none" stroke="midnightblue" d="M227.141,-503.396C223.14,-493.763 217.803,-480.914 213.492,-470.537"/>
<polygon fill="midnightblue" stroke="midnightblue" points="216.68,-469.087 209.612,-461.195 210.215,-471.772 216.68,-469.087"/>
</g>
</g>
</svg>
