<?xml version="1.0" encoding="UTF-8" standalone="no"?>
<!DOCTYPE svg PUBLIC "-//W3C//DTD SVG 1.1//EN"
 "http://www.w3.org/Graphics/SVG/1.1/DTD/svg11.dtd">
<!-- Generated by graphviz version 2.43.0 (0)
 -->
<!-- Title: xalanc/XPath/XNodeSetBase.hpp Pages: 1 -->
<svg width="376pt" height="296pt"
 viewBox="0.00 0.00 376.00 296.00" xmlns="http://www.w3.org/2000/svg" xmlns:xlink="http://www.w3.org/1999/xlink">
<g id="graph0" class="graph" transform="scale(1 1) rotate(0) translate(4 292)">
<title>xalanc/XPath/XNodeSetBase.hpp</title>
<!-- Node1 -->
<g id="node1" class="node">
<title>Node1</title>
<g id="a_node1"><a xlink:title=" ">
<polygon fill="#bfbfbf" stroke="black" points="105,-268.5 105,-287.5 281,-287.5 281,-268.5 105,-268.5"/>
<text text-anchor="middle" x="193" y="-275.5" font-family="Helvetica,sans-Serif" font-size="10.00">xalanc/XPath/XNodeSetBase.hpp</text>
</a>
</g>
</g>
<!-- Node2 -->
<g id="node2" class="node">
<title>Node2</title>
<g id="a_node2"><a xlink:href="XNodeSet_8hpp.html" target="_top" xlink:title=" ">
<polygon fill="none" stroke="black" points="26,-207 26,-226 178,-226 178,-207 26,-207"/>
<text text-anchor="middle" x="102" y="-214" font-family="Helvetica,sans-Serif" font-size="10.00">xalanc/XPath/XNodeSet.hpp</text>
</a>
</g>
</g>
<!-- Node1&#45;&gt;Node2 -->
<g id="edge1" class="edge">
<title>Node1&#45;&gt;Node2</title>
<path fill="none" stroke="midnightblue" d="M171.48,-262.93C153.94,-251.46 129.73,-235.63 115.01,-226.01"/>
<polygon fill="midnightblue" stroke="midnightblue" points="169.68,-265.93 179.96,-268.48 173.51,-260.07 169.68,-265.93"/>
</g>
<!-- Node6 -->
<g id="node6" class="node">
<title>Node6</title>
<g id="a_node6"><a xlink:href="XNodeSetNodeProxy_8hpp.html" target="_top" xlink:title=" ">
<polygon fill="none" stroke="black" points="206,-201.5 206,-231.5 362,-231.5 362,-201.5 206,-201.5"/>
<text text-anchor="start" x="214" y="-219.5" font-family="Helvetica,sans-Serif" font-size="10.00">xalanc/XPath/XNodeSetNode</text>
<text text-anchor="middle" x="284" y="-208.5" font-family="Helvetica,sans-Serif" font-size="10.00">Proxy.hpp</text>
</a>
</g>
</g>
<!-- Node1&#45;&gt;Node6 -->
<g id="edge5" class="edge">
<title>Node1&#45;&gt;Node6</title>
<path fill="none" stroke="midnightblue" d="M214.81,-262.74C229.27,-253.28 248.17,-240.93 262.55,-231.52"/>
<polygon fill="midnightblue" stroke="midnightblue" points="212.49,-260.07 206.04,-268.48 216.32,-265.93 212.49,-260.07"/>
</g>
<!-- Node3 -->
<g id="node3" class="node">
<title>Node3</title>
<g id="a_node3"><a xlink:href="XNodeSetAllocator_8hpp.html" target="_top" xlink:title=" ">
<polygon fill="none" stroke="black" points="0,-140 0,-159 194,-159 194,-140 0,-140"/>
<text text-anchor="middle" x="97" y="-147" font-family="Helvetica,sans-Serif" font-size="10.00">xalanc/XPath/XNodeSetAllocator.hpp</text>
</a>
</g>
</g>
<!-- Node2&#45;&gt;Node3 -->
<g id="edge2" class="edge">
<title>Node2&#45;&gt;Node3</title>
<path fill="none" stroke="midnightblue" d="M100.54,-196.54C99.59,-184.17 98.39,-168.62 97.66,-159.13"/>
<polygon fill="midnightblue" stroke="midnightblue" points="97.07,-197.03 101.33,-206.73 104.05,-196.49 97.07,-197.03"/>
</g>
<!-- Node4 -->
<g id="node4" class="node">
<title>Node4</title>
<g id="a_node4"><a xlink:href="XObjectFactoryDefault_8hpp.html" target="_top" xlink:title=" ">
<polygon fill="none" stroke="black" points="115.5,-67.5 115.5,-97.5 270.5,-97.5 270.5,-67.5 115.5,-67.5"/>
<text text-anchor="start" x="123.5" y="-85.5" font-family="Helvetica,sans-Serif" font-size="10.00">xalanc/XPath/XObjectFactory</text>
<text text-anchor="middle" x="193" y="-74.5" font-family="Helvetica,sans-Serif" font-size="10.00">Default.hpp</text>
</a>
</g>
</g>
<!-- Node3&#45;&gt;Node4 -->
<g id="edge3" class="edge">
<title>Node3&#45;&gt;Node4</title>
<path fill="none" stroke="midnightblue" d="M118.64,-133.85C134.66,-123 156.37,-108.3 172.19,-97.59"/>
<polygon fill="midnightblue" stroke="midnightblue" points="116.27,-131.23 109.95,-139.73 120.19,-137.03 116.27,-131.23"/>
</g>
<!-- Node5 -->
<g id="node5" class="node">
<title>Node5</title>
<g id="a_node5"><a xlink:href="XalanTransformer_8hpp.html" target="_top" xlink:title=" ">
<polygon fill="none" stroke="black" points="124,-0.5 124,-30.5 262,-30.5 262,-0.5 124,-0.5"/>
<text text-anchor="start" x="132" y="-18.5" font-family="Helvetica,sans-Serif" font-size="10.00">xalanc/XalanTransformer</text>
<text text-anchor="middle" x="193" y="-7.5" font-family="Helvetica,sans-Serif" font-size="10.00">/XalanTransformer.hpp</text>
</a>
</g>
</g>
<!-- Node4&#45;&gt;Node5 -->
<g id="edge4" class="edge">
<title>Node4&#45;&gt;Node5</title>
<path fill="none" stroke="midnightblue" d="M193,-57.11C193,-48.15 193,-38.32 193,-30.58"/>
<polygon fill="midnightblue" stroke="midnightblue" points="189.5,-57.4 193,-67.4 196.5,-57.4 189.5,-57.4"/>
</g>
<!-- Node7 -->
<g id="node7" class="node">
<title>Node7</title>
<g id="a_node7"><a xlink:href="XNodeSetNodeProxyAllocator_8hpp.html" target="_top" xlink:title=" ">
<polygon fill="none" stroke="black" points="212,-134.5 212,-164.5 368,-164.5 368,-134.5 212,-134.5"/>
<text text-anchor="start" x="220" y="-152.5" font-family="Helvetica,sans-Serif" font-size="10.00">xalanc/XPath/XNodeSetNode</text>
<text text-anchor="middle" x="290" y="-141.5" font-family="Helvetica,sans-Serif" font-size="10.00">ProxyAllocator.hpp</text>
</a>
</g>
</g>
<!-- Node6&#45;&gt;Node7 -->
<g id="edge6" class="edge">
<title>Node6&#45;&gt;Node7</title>
<path fill="none" stroke="midnightblue" d="M286.22,-191.4C287.06,-182.37 287.98,-172.41 288.7,-164.58"/>
<polygon fill="midnightblue" stroke="midnightblue" points="282.74,-191.12 285.3,-201.4 289.71,-191.76 282.74,-191.12"/>
</g>
<!-- Node7&#45;&gt;Node4 -->
<g id="edge7" class="edge">
<title>Node7&#45;&gt;Node4</title>
<path fill="none" stroke="midnightblue" d="M260.5,-128.73C245.49,-118.68 227.6,-106.68 214.01,-97.58"/>
<polygon fill="midnightblue" stroke="midnightblue" points="258.7,-131.74 268.95,-134.4 262.59,-125.92 258.7,-131.74"/>
</g>
</g>
</svg>
