<?xml version="1.0" encoding="UTF-8" standalone="no"?>
<!DOCTYPE svg PUBLIC "-//W3C//DTD SVG 1.1//EN"
 "http://www.w3.org/Graphics/SVG/1.1/DTD/svg11.dtd">
<!-- Generated by graphviz version 2.43.0 (0)
 -->
<!-- Title: xalanc/XPath/XNodeSetResultTreeFragProxy.hpp Pages: 1 -->
<svg width="883pt" height="419pt"
 viewBox="0.00 0.00 882.50 419.00" xmlns="http://www.w3.org/2000/svg" xmlns:xlink="http://www.w3.org/1999/xlink">
<g id="graph0" class="graph" transform="scale(1 1) rotate(0) translate(4 415)">
<title>xalanc/XPath/XNodeSetResultTreeFragProxy.hpp</title>
<!-- Node1 -->
<g id="node1" class="node">
<title>Node1</title>
<g id="a_node1"><a xlink:title=" ">
<polygon fill="#bfbfbf" stroke="black" points="197.5,-380.5 197.5,-410.5 358.5,-410.5 358.5,-380.5 197.5,-380.5"/>
<text text-anchor="start" x="205.5" y="-398.5" font-family="Helvetica,sans-Serif" font-size="10.00">xalanc/XPath/XNodeSetResult</text>
<text text-anchor="middle" x="278" y="-387.5" font-family="Helvetica,sans-Serif" font-size="10.00">TreeFragProxy.hpp</text>
</a>
</g>
</g>
<!-- Node2 -->
<g id="node2" class="node">
<title>Node2</title>
<g id="a_node2"><a xlink:href="XPathDefinitions_8hpp.html" target="_top" xlink:title=" ">
<polygon fill="none" stroke="black" points="91,-252 91,-271 275,-271 275,-252 91,-252"/>
<text text-anchor="middle" x="183" y="-259" font-family="Helvetica,sans-Serif" font-size="10.00">xalanc/XPath/XPathDefinitions.hpp</text>
</a>
</g>
</g>
<!-- Node1&#45;&gt;Node2 -->
<g id="edge1" class="edge">
<title>Node1&#45;&gt;Node2</title>
<path fill="none" stroke="midnightblue" d="M267.83,-380.37C250.19,-355.86 213.99,-305.56 195.09,-279.3"/>
<polygon fill="midnightblue" stroke="midnightblue" points="197.87,-277.17 189.19,-271.1 192.19,-281.26 197.87,-277.17"/>
</g>
<!-- Node7 -->
<g id="node7" class="node">
<title>Node7</title>
<g id="a_node7"><a xlink:href="XObjectResultTreeFragProxyBase_8hpp.html" target="_top" xlink:title=" ">
<polygon fill="none" stroke="black" points="296.5,-313.5 296.5,-343.5 447.5,-343.5 447.5,-313.5 296.5,-313.5"/>
<text text-anchor="start" x="304.5" y="-331.5" font-family="Helvetica,sans-Serif" font-size="10.00">xalanc/XPath/XObjectResult</text>
<text text-anchor="middle" x="372" y="-320.5" font-family="Helvetica,sans-Serif" font-size="10.00">TreeFragProxyBase.hpp</text>
</a>
</g>
</g>
<!-- Node1&#45;&gt;Node7 -->
<g id="edge6" class="edge">
<title>Node1&#45;&gt;Node7</title>
<path fill="none" stroke="midnightblue" d="M298.4,-380.4C311.45,-371.37 328.6,-359.51 343.05,-349.52"/>
<polygon fill="midnightblue" stroke="midnightblue" points="345.41,-352.14 351.64,-343.58 341.43,-346.39 345.41,-352.14"/>
</g>
<!-- Node3 -->
<g id="node3" class="node">
<title>Node3</title>
<g id="a_node3"><a xlink:href="PlatformDefinitions_8hpp.html" target="_top" xlink:title=" ">
<polygon fill="none" stroke="black" points="118,-67.5 118,-86.5 324,-86.5 324,-67.5 118,-67.5"/>
<text text-anchor="middle" x="221" y="-74.5" font-family="Helvetica,sans-Serif" font-size="10.00">xalanc/Include/PlatformDefinitions.hpp</text>
</a>
</g>
</g>
<!-- Node2&#45;&gt;Node3 -->
<g id="edge2" class="edge">
<title>Node2&#45;&gt;Node3</title>
<path fill="none" stroke="midnightblue" d="M184.13,-251.73C187.04,-229.83 195.38,-171.05 207,-123 209.17,-114.04 212.14,-104.25 214.78,-96.1"/>
<polygon fill="midnightblue" stroke="midnightblue" points="218.13,-97.13 217.98,-86.53 211.49,-94.91 218.13,-97.13"/>
</g>
<!-- Node4 -->
<g id="node4" class="node">
<title>Node4</title>
<g id="a_node4"><a xlink:title=" ">
<polygon fill="none" stroke="#bfbfbf" points="0,-0.5 0,-30.5 120,-30.5 120,-0.5 0,-0.5"/>
<text text-anchor="start" x="8" y="-18.5" font-family="Helvetica,sans-Serif" font-size="10.00">xercesc/util/Xerces</text>
<text text-anchor="middle" x="60" y="-7.5" font-family="Helvetica,sans-Serif" font-size="10.00">_autoconf_config.hpp</text>
</a>
</g>
</g>
<!-- Node3&#45;&gt;Node4 -->
<g id="edge3" class="edge">
<title>Node3&#45;&gt;Node4</title>
<path fill="none" stroke="midnightblue" d="M197.93,-67.48C174.4,-58.78 137.19,-45.03 107.35,-34"/>
<polygon fill="midnightblue" stroke="midnightblue" points="108.54,-30.71 97.94,-30.52 106.11,-37.27 108.54,-30.71"/>
</g>
<!-- Node5 -->
<g id="node5" class="node">
<title>Node5</title>
<g id="a_node5"><a xlink:title=" ">
<polygon fill="none" stroke="#bfbfbf" points="138.5,-6 138.5,-25 303.5,-25 303.5,-6 138.5,-6"/>
<text text-anchor="middle" x="221" y="-13" font-family="Helvetica,sans-Serif" font-size="10.00">xercesc/util/XercesVersion.hpp</text>
</a>
</g>
</g>
<!-- Node3&#45;&gt;Node5 -->
<g id="edge4" class="edge">
<title>Node3&#45;&gt;Node5</title>
<path fill="none" stroke="midnightblue" d="M221,-67.48C221,-59.08 221,-45.98 221,-35.16"/>
<polygon fill="midnightblue" stroke="midnightblue" points="224.5,-35.01 221,-25.01 217.5,-35.01 224.5,-35.01"/>
</g>
<!-- Node6 -->
<g id="node6" class="node">
<title>Node6</title>
<g id="a_node6"><a xlink:href="XalanVersion_8hpp.html" target="_top" xlink:title=" ">
<polygon fill="none" stroke="black" points="321.5,-6 321.5,-25 496.5,-25 496.5,-6 321.5,-6"/>
<text text-anchor="middle" x="409" y="-13" font-family="Helvetica,sans-Serif" font-size="10.00">xalanc/Include/XalanVersion.hpp</text>
</a>
</g>
</g>
<!-- Node3&#45;&gt;Node6 -->
<g id="edge5" class="edge">
<title>Node3&#45;&gt;Node6</title>
<path fill="none" stroke="midnightblue" d="M247.94,-67.48C280.6,-57.14 335.82,-39.66 372.34,-28.1"/>
<polygon fill="midnightblue" stroke="midnightblue" points="373.64,-31.36 382.11,-25.01 371.52,-24.69 373.64,-31.36"/>
</g>
<!-- Node7&#45;&gt;Node2 -->
<g id="edge7" class="edge">
<title>Node7&#45;&gt;Node2</title>
<path fill="none" stroke="midnightblue" d="M330.99,-313.4C297.09,-301.74 249.51,-285.37 217.53,-274.38"/>
<polygon fill="midnightblue" stroke="midnightblue" points="218.33,-270.95 207.74,-271.01 216.05,-277.57 218.33,-270.95"/>
</g>
<!-- Node8 -->
<g id="node8" class="node">
<title>Node8</title>
<g id="a_node8"><a xlink:href="XalanMemoryManagement_8hpp.html" target="_top" xlink:title=" ">
<polygon fill="none" stroke="black" points="293,-246.5 293,-276.5 451,-276.5 451,-246.5 293,-246.5"/>
<text text-anchor="start" x="301" y="-264.5" font-family="Helvetica,sans-Serif" font-size="10.00">xalanc/Include/XalanMemory</text>
<text text-anchor="middle" x="372" y="-253.5" font-family="Helvetica,sans-Serif" font-size="10.00">Management.hpp</text>
</a>
</g>
</g>
<!-- Node7&#45;&gt;Node8 -->
<g id="edge8" class="edge">
<title>Node7&#45;&gt;Node8</title>
<path fill="none" stroke="midnightblue" d="M372,-313.4C372,-305.64 372,-295.81 372,-286.86"/>
<polygon fill="midnightblue" stroke="midnightblue" points="375.5,-286.58 372,-276.58 368.5,-286.58 375.5,-286.58"/>
</g>
<!-- Node13 -->
<g id="node13" class="node">
<title>Node13</title>
<g id="a_node13"><a xlink:href="XalanNodeList_8hpp.html" target="_top" xlink:title=" ">
<polygon fill="none" stroke="black" points="469,-246.5 469,-276.5 629,-276.5 629,-246.5 469,-246.5"/>
<text text-anchor="start" x="477" y="-264.5" font-family="Helvetica,sans-Serif" font-size="10.00">xalanc/XalanDOM/XalanNode</text>
<text text-anchor="middle" x="549" y="-253.5" font-family="Helvetica,sans-Serif" font-size="10.00">List.hpp</text>
</a>
</g>
</g>
<!-- Node7&#45;&gt;Node13 -->
<g id="edge14" class="edge">
<title>Node7&#45;&gt;Node13</title>
<path fill="none" stroke="midnightblue" d="M410.41,-313.4C436.96,-303.64 472.5,-290.59 500.93,-280.15"/>
<polygon fill="midnightblue" stroke="midnightblue" points="502.49,-283.31 510.67,-276.58 500.07,-276.74 502.49,-283.31"/>
</g>
<!-- Node15 -->
<g id="node15" class="node">
<title>Node15</title>
<g id="a_node15"><a xlink:href="XalanDocumentFragment_8hpp.html" target="_top" xlink:title=" ">
<polygon fill="none" stroke="black" points="647.5,-246.5 647.5,-276.5 832.5,-276.5 832.5,-246.5 647.5,-246.5"/>
<text text-anchor="start" x="655.5" y="-264.5" font-family="Helvetica,sans-Serif" font-size="10.00">xalanc/XalanDOM/XalanDocument</text>
<text text-anchor="middle" x="740" y="-253.5" font-family="Helvetica,sans-Serif" font-size="10.00">Fragment.hpp</text>
</a>
</g>
</g>
<!-- Node7&#45;&gt;Node15 -->
<g id="edge17" class="edge">
<title>Node7&#45;&gt;Node15</title>
<path fill="none" stroke="midnightblue" d="M447.8,-314.11C506.6,-303.73 588.26,-289.3 650.3,-278.34"/>
<polygon fill="midnightblue" stroke="midnightblue" points="651.24,-281.73 660.48,-276.55 650.02,-274.84 651.24,-281.73"/>
</g>
<!-- Node8&#45;&gt;Node3 -->
<g id="edge9" class="edge">
<title>Node8&#45;&gt;Node3</title>
<path fill="none" stroke="midnightblue" d="M295.9,-246.47C274.87,-238.99 254.02,-227.54 240,-210 213.7,-177.09 215.19,-124.29 218.25,-96.49"/>
<polygon fill="midnightblue" stroke="midnightblue" points="221.72,-96.91 219.53,-86.54 214.78,-96.01 221.72,-96.91"/>
</g>
<!-- Node9 -->
<g id="node9" class="node">
<title>Node9</title>
<g id="a_node9"><a xlink:title=" ">
<polygon fill="none" stroke="#bfbfbf" points="249,-185 249,-204 301,-204 301,-185 249,-185"/>
<text text-anchor="middle" x="275" y="-192" font-family="Helvetica,sans-Serif" font-size="10.00">cassert</text>
</a>
</g>
</g>
<!-- Node8&#45;&gt;Node9 -->
<g id="edge10" class="edge">
<title>Node8&#45;&gt;Node9</title>
<path fill="none" stroke="midnightblue" d="M350.95,-246.4C334.69,-235.5 312.28,-220.48 296.02,-209.58"/>
<polygon fill="midnightblue" stroke="midnightblue" points="297.95,-206.67 287.7,-204.01 294.05,-212.48 297.95,-206.67"/>
</g>
<!-- Node10 -->
<g id="node10" class="node">
<title>Node10</title>
<g id="a_node10"><a xlink:title=" ">
<polygon fill="none" stroke="#bfbfbf" points="319.5,-185 319.5,-204 372.5,-204 372.5,-185 319.5,-185"/>
<text text-anchor="middle" x="346" y="-192" font-family="Helvetica,sans-Serif" font-size="10.00">cstddef</text>
</a>
</g>
</g>
<!-- Node8&#45;&gt;Node10 -->
<g id="edge11" class="edge">
<title>Node8&#45;&gt;Node10</title>
<path fill="none" stroke="midnightblue" d="M366.36,-246.4C362.51,-236.76 357.37,-223.91 353.21,-213.54"/>
<polygon fill="midnightblue" stroke="midnightblue" points="356.44,-212.18 349.48,-204.19 349.94,-214.78 356.44,-212.18"/>
</g>
<!-- Node11 -->
<g id="node11" class="node">
<title>Node11</title>
<g id="a_node11"><a xlink:title=" ">
<polygon fill="none" stroke="#bfbfbf" points="390.5,-185 390.5,-204 427.5,-204 427.5,-185 390.5,-185"/>
<text text-anchor="middle" x="409" y="-192" font-family="Helvetica,sans-Serif" font-size="10.00">new</text>
</a>
</g>
</g>
<!-- Node8&#45;&gt;Node11 -->
<g id="edge12" class="edge">
<title>Node8&#45;&gt;Node11</title>
<path fill="none" stroke="midnightblue" d="M380.03,-246.4C385.63,-236.56 393.13,-223.38 399.1,-212.89"/>
<polygon fill="midnightblue" stroke="midnightblue" points="402.15,-214.62 404.05,-204.19 396.06,-211.15 402.15,-214.62"/>
</g>
<!-- Node12 -->
<g id="node12" class="node">
<title>Node12</title>
<g id="a_node12"><a xlink:title=" ">
<polygon fill="none" stroke="#bfbfbf" points="445.5,-179.5 445.5,-209.5 598.5,-209.5 598.5,-179.5 445.5,-179.5"/>
<text text-anchor="start" x="453.5" y="-197.5" font-family="Helvetica,sans-Serif" font-size="10.00">xercesc/framework/Memory</text>
<text text-anchor="middle" x="522" y="-186.5" font-family="Helvetica,sans-Serif" font-size="10.00">Manager.hpp</text>
</a>
</g>
</g>
<!-- Node8&#45;&gt;Node12 -->
<g id="edge13" class="edge">
<title>Node8&#45;&gt;Node12</title>
<path fill="none" stroke="midnightblue" d="M404.55,-246.4C426.76,-236.77 456.38,-223.94 480.31,-213.56"/>
<polygon fill="midnightblue" stroke="midnightblue" points="481.73,-216.76 489.52,-209.58 478.95,-210.34 481.73,-216.76"/>
</g>
<!-- Node14 -->
<g id="node14" class="node">
<title>Node14</title>
<g id="a_node14"><a xlink:href="XalanDOMDefinitions_8hpp.html" target="_top" xlink:title=" ">
<polygon fill="none" stroke="black" points="575,-123.5 575,-142.5 717,-142.5 717,-123.5 575,-123.5"/>
<text text-anchor="middle" x="646" y="-130.5" font-family="Helvetica,sans-Serif" font-size="10.00">XalanDOMDefinitions.hpp</text>
</a>
</g>
</g>
<!-- Node13&#45;&gt;Node14 -->
<g id="edge15" class="edge">
<title>Node13&#45;&gt;Node14</title>
<path fill="none" stroke="midnightblue" d="M568.72,-246.41C580.83,-237.07 596.05,-223.98 607,-210 621.1,-191.99 632.36,-168.1 639.09,-151.95"/>
<polygon fill="midnightblue" stroke="midnightblue" points="642.37,-153.18 642.84,-142.59 635.88,-150.57 642.37,-153.18"/>
</g>
<!-- Node14&#45;&gt;Node3 -->
<g id="edge16" class="edge">
<title>Node14&#45;&gt;Node3</title>
<path fill="none" stroke="midnightblue" d="M578.66,-123.44C502.34,-113.75 378.18,-97.97 298.06,-87.79"/>
<polygon fill="midnightblue" stroke="midnightblue" points="298.39,-84.3 288.03,-86.52 297.51,-91.25 298.39,-84.3"/>
</g>
<!-- Node15&#45;&gt;Node14 -->
<g id="edge18" class="edge">
<title>Node15&#45;&gt;Node14</title>
<path fill="none" stroke="midnightblue" d="M720.94,-246.33C709.25,-236.95 694.54,-223.86 684,-210 670.23,-191.89 659.26,-168.02 652.71,-151.9"/>
<polygon fill="midnightblue" stroke="midnightblue" points="655.96,-150.61 649.06,-142.57 649.44,-153.15 655.96,-150.61"/>
</g>
<!-- Node16 -->
<g id="node16" class="node">
<title>Node16</title>
<g id="a_node16"><a xlink:href="XalanNode_8hpp.html" target="_top" xlink:title=" ">
<polygon fill="none" stroke="black" points="693.5,-185 693.5,-204 874.5,-204 874.5,-185 693.5,-185"/>
<text text-anchor="middle" x="784" y="-192" font-family="Helvetica,sans-Serif" font-size="10.00">xalanc/XalanDOM/XalanNode.hpp</text>
</a>
</g>
</g>
<!-- Node15&#45;&gt;Node16 -->
<g id="edge19" class="edge">
<title>Node15&#45;&gt;Node16</title>
<path fill="none" stroke="midnightblue" d="M749.55,-246.4C756.27,-236.46 765.31,-223.11 772.44,-212.57"/>
<polygon fill="midnightblue" stroke="midnightblue" points="775.41,-214.44 778.11,-204.19 769.61,-210.51 775.41,-214.44"/>
</g>
<!-- Node16&#45;&gt;Node14 -->
<g id="edge20" class="edge">
<title>Node16&#45;&gt;Node14</title>
<path fill="none" stroke="midnightblue" d="M764.23,-184.98C740.86,-174.9 701.79,-158.05 675,-146.5"/>
<polygon fill="midnightblue" stroke="midnightblue" points="676.3,-143.25 665.74,-142.51 673.53,-149.68 676.3,-143.25"/>
</g>
</g>
</svg>
