<?xml version="1.0" encoding="UTF-8" standalone="no"?>
<!DOCTYPE svg PUBLIC "-//W3C//DTD SVG 1.1//EN"
 "http://www.w3.org/Graphics/SVG/1.1/DTD/svg11.dtd">
<!-- Generated by graphviz version 2.43.0 (0)
 -->
<!-- Title: xalanc/XPath/XObjectResultTreeFragProxy.hpp Pages: 1 -->
<!--zoomable 363 -->
<svg id="main" version="1.1" xmlns="http://www.w3.org/2000/svg" xmlns:xlink="http://www.w3.org/1999/xlink" xml:space="preserve" onload="init(evt)">
<style type="text/css"><![CDATA[
.edge:hover path { stroke: red; }
.edge:hover polygon { stroke: red; fill: red; }
]]></style>
<script type="text/javascript"><![CDATA[
var edges = document.getElementsByTagName('g');
if (edges && edges.length) {
  for (var i=0;i<edges.length;i++) {
    if (edges[i].id.substr(0,4)=='edge') {
      edges[i].setAttribute('class','edge');
    }
  }
}
]]></script>
        <defs>
                <circle id="rim" cx="0" cy="0" r="7"/>
                <circle id="rim2" cx="0" cy="0" r="3.5"/>
                <g id="zoomPlus">
                        <use xlink:href="#rim" fill="#404040">
                                <set attributeName="fill" to="#808080" begin="zoomplus.mouseover" end="zoomplus.mouseout"/>
                        </use>
                        <path d="M-4,0h8M0,-4v8" fill="none" stroke="white" stroke-width="1.5" pointer-events="none"/>
                </g>
                <g id="zoomMin">
                        <use xlink:href="#rim" fill="#404040">
                                <set attributeName="fill" to="#808080" begin="zoomminus.mouseover" end="zoomminus.mouseout"/>
                        </use>
                        <path d="M-4,0h8" fill="none" stroke="white" stroke-width="1.5" pointer-events="none"/>
                </g>
                <g id="dirArrow">
                        <path fill="none" stroke="white" stroke-width="1.5" d="M0,-3.0v7 M-2.5,-0.5L0,-3.0L2.5,-0.5"/>
                </g>
               <g id="resetDef">
                       <use xlink:href="#rim2" fill="#404040">
                               <set attributeName="fill" to="#808080" begin="reset.mouseover" end="reset.mouseout"/>
                       </use>
               </g>
        </defs>

<script type="text/javascript">
var viewWidth = 924;
var viewHeight = 363;
var sectionId = 'dynsection-1';
</script>
<script xlink:href="svgpan.js"/>
<svg id="graph" class="graph">
<g id="viewport">
<title>xalanc/XPath/XObjectResultTreeFragProxy.hpp</title>
<!-- Node1 -->
<g id="node1" class="node">
<title>Node1</title>
<g id="a_node1"><a xlink:title=" ">
<polygon fill="#bfbfbf" stroke="black" points="382.5,-324.5 382.5,-354.5 533.5,-354.5 533.5,-324.5 382.5,-324.5"/>
<text text-anchor="start" x="390.5" y="-342.5" font-family="Helvetica,sans-Serif" font-size="10.00">xalanc/XPath/XObjectResult</text>
<text text-anchor="middle" x="458" y="-331.5" font-family="Helvetica,sans-Serif" font-size="10.00">TreeFragProxy.hpp</text>
</a>
</g>
</g>
<!-- Node2 -->
<g id="node2" class="node">
<title>Node2</title>
<g id="a_node2"><a xlink:href="XStringBase_8hpp.html" target="_top" xlink:title=" ">
<polygon fill="none" stroke="black" points="376.5,-268.5 376.5,-287.5 539.5,-287.5 539.5,-268.5 376.5,-268.5"/>
<text text-anchor="middle" x="458" y="-275.5" font-family="Helvetica,sans-Serif" font-size="10.00">xalanc/XPath/XStringBase.hpp</text>
</a>
</g>
</g>
<!-- Node1&#45;&gt;Node2 -->
<g id="edge1" class="edge">
<title>Node1&#45;&gt;Node2</title>
<path fill="none" stroke="midnightblue" d="M458,-314.29C458,-304.86 458,-294.65 458,-287.66"/>
<polygon fill="midnightblue" stroke="midnightblue" points="454.5,-314.4 458,-324.4 461.5,-314.4 454.5,-314.4"/>
</g>
<!-- Node3 -->
<g id="node3" class="node">
<title>Node3</title>
<g id="a_node3"><a xlink:href="XString_8hpp.html" target="_top" xlink:title=" ">
<polygon fill="none" stroke="black" points="18.5,-207 18.5,-226 157.5,-226 157.5,-207 18.5,-207"/>
<text text-anchor="middle" x="88" y="-214" font-family="Helvetica,sans-Serif" font-size="10.00">xalanc/XPath/XString.hpp</text>
</a>
</g>
</g>
<!-- Node2&#45;&gt;Node3 -->
<g id="edge2" class="edge">
<title>Node2&#45;&gt;Node3</title>
<path fill="none" stroke="midnightblue" d="M389.72,-267C330.7,-258.21 243.12,-244.87 167,-232 156,-230.14 144.16,-228.03 133.08,-226"/>
<polygon fill="midnightblue" stroke="midnightblue" points="389.27,-270.47 399.67,-268.47 390.3,-263.54 389.27,-270.47"/>
</g>
<!-- Node7 -->
<g id="node7" class="node">
<title>Node7</title>
<g id="a_node7"><a xlink:href="XStringAdapter_8hpp.html" target="_top" xlink:title=" ">
<polygon fill="none" stroke="black" points="176,-207 176,-226 352,-226 352,-207 176,-207"/>
<text text-anchor="middle" x="264" y="-214" font-family="Helvetica,sans-Serif" font-size="10.00">xalanc/XPath/XStringAdapter.hpp</text>
</a>
</g>
</g>
<!-- Node2&#45;&gt;Node7 -->
<g id="edge6" class="edge">
<title>Node2&#45;&gt;Node7</title>
<path fill="none" stroke="midnightblue" d="M420.6,-265.53C382.89,-253.96 325.57,-236.38 291.74,-226.01"/>
<polygon fill="midnightblue" stroke="midnightblue" points="419.62,-268.89 430.2,-268.48 421.67,-262.2 419.62,-268.89"/>
</g>
<!-- Node9 -->
<g id="node9" class="node">
<title>Node9</title>
<g id="a_node9"><a xlink:href="XStringCached_8hpp.html" target="_top" xlink:title=" ">
<polygon fill="none" stroke="black" points="370.5,-207 370.5,-226 545.5,-226 545.5,-207 370.5,-207"/>
<text text-anchor="middle" x="458" y="-214" font-family="Helvetica,sans-Serif" font-size="10.00">xalanc/XPath/XStringCached.hpp</text>
</a>
</g>
</g>
<!-- Node2&#45;&gt;Node9 -->
<g id="edge9" class="edge">
<title>Node2&#45;&gt;Node9</title>
<path fill="none" stroke="midnightblue" d="M458,-258.32C458,-247.5 458,-234.4 458,-226.01"/>
<polygon fill="midnightblue" stroke="midnightblue" points="454.5,-258.48 458,-268.48 461.5,-258.48 454.5,-258.48"/>
</g>
<!-- Node11 -->
<g id="node11" class="node">
<title>Node11</title>
<g id="a_node11"><a xlink:href="XStringReference_8hpp.html" target="_top" xlink:title=" ">
<polygon fill="none" stroke="black" points="564,-207 564,-226 752,-226 752,-207 564,-207"/>
<text text-anchor="middle" x="658" y="-214" font-family="Helvetica,sans-Serif" font-size="10.00">xalanc/XPath/XStringReference.hpp</text>
</a>
</g>
</g>
<!-- Node2&#45;&gt;Node11 -->
<g id="edge12" class="edge">
<title>Node2&#45;&gt;Node11</title>
<path fill="none" stroke="midnightblue" d="M496.56,-265.53C535.43,-253.96 594.52,-236.38 629.4,-226.01"/>
<polygon fill="midnightblue" stroke="midnightblue" points="495.24,-262.27 486.66,-268.48 497.24,-268.98 495.24,-262.27"/>
</g>
<!-- Node13 -->
<g id="node13" class="node">
<title>Node13</title>
<g id="a_node13"><a xlink:href="XTokenStringAdapter_8hpp.html" target="_top" xlink:title=" ">
<polygon fill="none" stroke="black" points="770,-201.5 770,-231.5 916,-231.5 916,-201.5 770,-201.5"/>
<text text-anchor="start" x="778" y="-219.5" font-family="Helvetica,sans-Serif" font-size="10.00">xalanc/XPath/XTokenString</text>
<text text-anchor="middle" x="843" y="-208.5" font-family="Helvetica,sans-Serif" font-size="10.00">Adapter.hpp</text>
</a>
</g>
</g>
<!-- Node2&#45;&gt;Node13 -->
<g id="edge15" class="edge">
<title>Node2&#45;&gt;Node13</title>
<path fill="none" stroke="midnightblue" d="M528.71,-267.06C590.17,-258.29 681.57,-244.92 761,-232 763.85,-231.54 766.76,-231.06 769.7,-230.56"/>
<polygon fill="midnightblue" stroke="midnightblue" points="528.13,-263.61 518.73,-268.48 529.12,-270.54 528.13,-263.61"/>
</g>
<!-- Node4 -->
<g id="node4" class="node">
<title>Node4</title>
<g id="a_node4"><a xlink:href="XStringAllocator_8hpp.html" target="_top" xlink:title=" ">
<polygon fill="none" stroke="black" points="0,-140 0,-159 182,-159 182,-140 0,-140"/>
<text text-anchor="middle" x="91" y="-147" font-family="Helvetica,sans-Serif" font-size="10.00">xalanc/XPath/XStringAllocator.hpp</text>
</a>
</g>
</g>
<!-- Node3&#45;&gt;Node4 -->
<g id="edge3" class="edge">
<title>Node3&#45;&gt;Node4</title>
<path fill="none" stroke="midnightblue" d="M88.88,-196.54C89.45,-184.17 90.16,-168.62 90.6,-159.13"/>
<polygon fill="midnightblue" stroke="midnightblue" points="85.37,-196.58 88.4,-206.73 92.36,-196.91 85.37,-196.58"/>
</g>
<!-- Node5 -->
<g id="node5" class="node">
<title>Node5</title>
<g id="a_node5"><a xlink:href="XObjectFactoryDefault_8hpp.html" target="_top" xlink:title=" ">
<polygon fill="none" stroke="black" points="380.5,-67.5 380.5,-97.5 535.5,-97.5 535.5,-67.5 380.5,-67.5"/>
<text text-anchor="start" x="388.5" y="-85.5" font-family="Helvetica,sans-Serif" font-size="10.00">xalanc/XPath/XObjectFactory</text>
<text text-anchor="middle" x="458" y="-74.5" font-family="Helvetica,sans-Serif" font-size="10.00">Default.hpp</text>
</a>
</g>
</g>
<!-- Node4&#45;&gt;Node5 -->
<g id="edge4" class="edge">
<title>Node4&#45;&gt;Node5</title>
<path fill="none" stroke="midnightblue" d="M149.44,-138.15C211.93,-127.08 311.33,-109.48 380.36,-97.25"/>
<polygon fill="midnightblue" stroke="midnightblue" points="148.59,-134.75 139.36,-139.94 149.81,-141.64 148.59,-134.75"/>
</g>
<!-- Node6 -->
<g id="node6" class="node">
<title>Node6</title>
<g id="a_node6"><a xlink:href="XalanTransformer_8hpp.html" target="_top" xlink:title=" ">
<polygon fill="none" stroke="black" points="389,-0.5 389,-30.5 527,-30.5 527,-0.5 389,-0.5"/>
<text text-anchor="start" x="397" y="-18.5" font-family="Helvetica,sans-Serif" font-size="10.00">xalanc/XalanTransformer</text>
<text text-anchor="middle" x="458" y="-7.5" font-family="Helvetica,sans-Serif" font-size="10.00">/XalanTransformer.hpp</text>
</a>
</g>
</g>
<!-- Node5&#45;&gt;Node6 -->
<g id="edge5" class="edge">
<title>Node5&#45;&gt;Node6</title>
<path fill="none" stroke="midnightblue" d="M458,-57.11C458,-48.15 458,-38.32 458,-30.58"/>
<polygon fill="midnightblue" stroke="midnightblue" points="454.5,-57.4 458,-67.4 461.5,-57.4 454.5,-57.4"/>
</g>
<!-- Node8 -->
<g id="node8" class="node">
<title>Node8</title>
<g id="a_node8"><a xlink:href="XStringAdapterAllocator_8hpp.html" target="_top" xlink:title=" ">
<polygon fill="none" stroke="black" points="205,-134.5 205,-164.5 361,-164.5 361,-134.5 205,-134.5"/>
<text text-anchor="start" x="213" y="-152.5" font-family="Helvetica,sans-Serif" font-size="10.00">xalanc/XPath/XStringAdapter</text>
<text text-anchor="middle" x="283" y="-141.5" font-family="Helvetica,sans-Serif" font-size="10.00">Allocator.hpp</text>
</a>
</g>
</g>
<!-- Node7&#45;&gt;Node8 -->
<g id="edge7" class="edge">
<title>Node7&#45;&gt;Node8</title>
<path fill="none" stroke="midnightblue" d="M269.39,-197.06C272.4,-186.75 276.1,-174.1 278.88,-164.59"/>
<polygon fill="midnightblue" stroke="midnightblue" points="266.01,-196.15 266.56,-206.73 272.73,-198.12 266.01,-196.15"/>
</g>
<!-- Node8&#45;&gt;Node5 -->
<g id="edge8" class="edge">
<title>Node8&#45;&gt;Node5</title>
<path fill="none" stroke="midnightblue" d="M330.6,-130.82C358.73,-120.37 393.86,-107.32 420.1,-97.58"/>
<polygon fill="midnightblue" stroke="midnightblue" points="329.13,-127.63 320.97,-134.4 331.57,-134.2 329.13,-127.63"/>
</g>
<!-- Node10 -->
<g id="node10" class="node">
<title>Node10</title>
<g id="a_node10"><a xlink:href="XStringCachedAllocator_8hpp.html" target="_top" xlink:title=" ">
<polygon fill="none" stroke="black" points="381,-134.5 381,-164.5 535,-164.5 535,-134.5 381,-134.5"/>
<text text-anchor="start" x="389" y="-152.5" font-family="Helvetica,sans-Serif" font-size="10.00">xalanc/XPath/XStringCached</text>
<text text-anchor="middle" x="458" y="-141.5" font-family="Helvetica,sans-Serif" font-size="10.00">Allocator.hpp</text>
</a>
</g>
</g>
<!-- Node9&#45;&gt;Node10 -->
<g id="edge10" class="edge">
<title>Node9&#45;&gt;Node10</title>
<path fill="none" stroke="midnightblue" d="M458,-196.41C458,-186.22 458,-173.9 458,-164.59"/>
<polygon fill="midnightblue" stroke="midnightblue" points="454.5,-196.73 458,-206.73 461.5,-196.73 454.5,-196.73"/>
</g>
<!-- Node10&#45;&gt;Node5 -->
<g id="edge11" class="edge">
<title>Node10&#45;&gt;Node5</title>
<path fill="none" stroke="midnightblue" d="M458,-124.11C458,-115.15 458,-105.32 458,-97.58"/>
<polygon fill="midnightblue" stroke="midnightblue" points="454.5,-124.4 458,-134.4 461.5,-124.4 454.5,-124.4"/>
</g>
<!-- Node12 -->
<g id="node12" class="node">
<title>Node12</title>
<g id="a_node12"><a xlink:href="XStringReferenceAllocator_8hpp.html" target="_top" xlink:title=" ">
<polygon fill="none" stroke="black" points="563.5,-134.5 563.5,-164.5 730.5,-164.5 730.5,-134.5 563.5,-134.5"/>
<text text-anchor="start" x="571.5" y="-152.5" font-family="Helvetica,sans-Serif" font-size="10.00">xalanc/XPath/XStringReference</text>
<text text-anchor="middle" x="647" y="-141.5" font-family="Helvetica,sans-Serif" font-size="10.00">Allocator.hpp</text>
</a>
</g>
</g>
<!-- Node11&#45;&gt;Node12 -->
<g id="edge13" class="edge">
<title>Node11&#45;&gt;Node12</title>
<path fill="none" stroke="midnightblue" d="M654.82,-196.74C653.09,-186.49 650.98,-174 649.38,-164.59"/>
<polygon fill="midnightblue" stroke="midnightblue" points="651.4,-197.46 656.52,-206.73 658.3,-196.29 651.4,-197.46"/>
</g>
<!-- Node12&#45;&gt;Node5 -->
<g id="edge14" class="edge">
<title>Node12&#45;&gt;Node5</title>
<path fill="none" stroke="midnightblue" d="M596.38,-131.09C565.87,-120.6 527.52,-107.41 498.93,-97.58"/>
<polygon fill="midnightblue" stroke="midnightblue" points="595.4,-134.45 605.99,-134.4 597.67,-127.83 595.4,-134.45"/>
</g>
<!-- Node14 -->
<g id="node14" class="node">
<title>Node14</title>
<g id="a_node14"><a xlink:href="XTokenStringAdapterAllocator_8hpp.html" target="_top" xlink:title=" ">
<polygon fill="none" stroke="black" points="759,-134.5 759,-164.5 905,-164.5 905,-134.5 759,-134.5"/>
<text text-anchor="start" x="767" y="-152.5" font-family="Helvetica,sans-Serif" font-size="10.00">xalanc/XPath/XTokenString</text>
<text text-anchor="middle" x="832" y="-141.5" font-family="Helvetica,sans-Serif" font-size="10.00">AdapterAllocator.hpp</text>
</a>
</g>
</g>
<!-- Node13&#45;&gt;Node14 -->
<g id="edge16" class="edge">
<title>Node13&#45;&gt;Node14</title>
<path fill="none" stroke="midnightblue" d="M838.92,-191.4C837.39,-182.37 835.71,-172.41 834.38,-164.58"/>
<polygon fill="midnightblue" stroke="midnightblue" points="835.49,-192.12 840.61,-201.4 842.4,-190.95 835.49,-192.12"/>
</g>
<!-- Node14&#45;&gt;Node5 -->
<g id="edge17" class="edge">
<title>Node14&#45;&gt;Node5</title>
<path fill="none" stroke="midnightblue" d="M748.55,-134C684.93,-122.94 597.96,-107.82 535.79,-97.02"/>
<polygon fill="midnightblue" stroke="midnightblue" points="748.1,-137.47 758.56,-135.74 749.3,-130.57 748.1,-137.47"/>
</g>
</g>
</svg>
        <g id="navigator" transform="translate(0 0)" fill="#404254">
                <rect fill="#f2f5e9" fill-opacity="0.5" stroke="#606060" stroke-width=".5" x="0" y="0" width="60" height="60"/>
                <use id="zoomplus" xlink:href="#zoomPlus" x="17" y="9" onmousedown="handleZoom(evt,'in')"/>
                <use id="zoomminus" xlink:href="#zoomMin" x="42" y="9" onmousedown="handleZoom(evt,'out')"/>
                <use id="reset" xlink:href="#resetDef" x="30" y="36" onmousedown="handleReset()"/>
                <g id="arrowUp" xlink:href="#dirArrow" transform="translate(30 24)" onmousedown="handlePan(0,-1)">
                  <use xlink:href="#rim" fill="#404040">
                        <set attributeName="fill" to="#808080" begin="arrowUp.mouseover" end="arrowUp.mouseout"/>
                  </use>
                  <path fill="none" stroke="white" stroke-width="1.5" d="M0,-3.0v7 M-2.5,-0.5L0,-3.0L2.5,-0.5"/>
                </g>
                <g id="arrowRight" xlink:href="#dirArrow" transform="rotate(90) translate(36 -43)" onmousedown="handlePan(1,0)">
                  <use xlink:href="#rim" fill="#404040">
                        <set attributeName="fill" to="#808080" begin="arrowRight.mouseover" end="arrowRight.mouseout"/>
                  </use>
                  <path fill="none" stroke="white" stroke-width="1.5" d="M0,-3.0v7 M-2.5,-0.5L0,-3.0L2.5,-0.5"/>
                </g>
                <g id="arrowDown" xlink:href="#dirArrow" transform="rotate(180) translate(-30 -48)" onmousedown="handlePan(0,1)">
                  <use xlink:href="#rim" fill="#404040">
                        <set attributeName="fill" to="#808080" begin="arrowDown.mouseover" end="arrowDown.mouseout"/>
                  </use>
                  <path fill="none" stroke="white" stroke-width="1.5" d="M0,-3.0v7 M-2.5,-0.5L0,-3.0L2.5,-0.5"/>
                </g>
                <g id="arrowLeft" xlink:href="#dirArrow" transform="rotate(270) translate(-36 17)" onmousedown="handlePan(-1,0)">
                  <use xlink:href="#rim" fill="#404040">
                        <set attributeName="fill" to="#808080" begin="arrowLeft.mouseover" end="arrowLeft.mouseout"/>
                  </use>
                  <path fill="none" stroke="white" stroke-width="1.5" d="M0,-3.0v7 M-2.5,-0.5L0,-3.0L2.5,-0.5"/>
                </g>
        </g>
        <svg viewBox="0 0 15 15" width="100%" height="30px" preserveAspectRatio="xMaxYMin meet">
         <g id="arrow_out" transform="scale(0.3 0.3)">
          <a xlink:href="XObjectResultTreeFragProxy_8hpp__dep__incl_org.svg" target="_base">
           <rect id="button" ry="5" rx="5" y="6" x="6" height="38" width="38"
                fill="#f2f5e9" fill-opacity="0.5" stroke="#606060" stroke-width="1.0"/>
           <path id="arrow"
             d="M 11.500037,31.436501 C 11.940474,20.09759 22.043105,11.32322 32.158766,21.979434 L 37.068811,17.246167 C 37.068811,17.246167 37.088388,32 37.088388,32 L 22.160133,31.978069 C 22.160133,31.978069 26.997745,27.140456 26.997745,27.140456 C 18.528582,18.264221 13.291696,25.230495 11.500037,31.436501 z"
             style="fill:#404040;"/>
          </a>
         </g>
        </svg>
</svg>
