<?xml version="1.0" encoding="UTF-8" standalone="no"?>
<!DOCTYPE svg PUBLIC "-//W3C//DTD SVG 1.1//EN"
 "http://www.w3.org/Graphics/SVG/1.1/DTD/svg11.dtd">
<!-- Generated by graphviz version 2.38.0 (20140413.2041)
 -->
<!-- Title: xalanc/XPath/XObjectResultTreeFragProxyText.hpp Pages: 1 -->
<svg width="818pt" height="408pt"
 viewBox="0.00 0.00 817.50 408.00" xmlns="http://www.w3.org/2000/svg" xmlns:xlink="http://www.w3.org/1999/xlink">
<g id="graph0" class="graph" transform="scale(1 1) rotate(0) translate(4 404)">
<title>xalanc/XPath/XObjectResultTreeFragProxyText.hpp</title>
<!-- Node1 -->
<g id="node1" class="node"><title>Node1</title>
<g id="a_node1"><a xlink:title=" ">
<polygon fill="#bfbfbf" stroke="black" points="253,-369.5 253,-399.5 391,-399.5 391,-369.5 253,-369.5"/>
<text text-anchor="start" x="261" y="-387.5" font-family="Helvetica,sans-Serif" font-size="10.00">xalanc/XPath/XObjectResult</text>
<text text-anchor="middle" x="322" y="-376.5" font-family="Helvetica,sans-Serif" font-size="10.00">TreeFragProxyText.hpp</text>
</a>
</g>
</g>
<!-- Node2 -->
<g id="node2" class="node"><title>Node2</title>
<g id="a_node2"><a xlink:href="XPathDefinitions_8hpp.html" target="_top" xlink:title=" ">
<polygon fill="none" stroke="black" points="8,-179.5 8,-198.5 174,-198.5 174,-179.5 8,-179.5"/>
<text text-anchor="middle" x="91" y="-186.5" font-family="Helvetica,sans-Serif" font-size="10.00">xalanc/XPath/XPathDefinitions.hpp</text>
</a>
</g>
</g>
<!-- Node1&#45;&gt;Node2 -->
<g id="edge1" class="edge"><title>Node1&#45;&gt;Node2</title>
<path fill="none" stroke="midnightblue" d="M297.356,-369.371C281.357,-359.81 260.336,-346.505 243,-333 189.382,-291.229 132.725,-233.889 106.274,-206.227"/>
<polygon fill="midnightblue" stroke="midnightblue" points="108.497,-203.485 99.0717,-198.646 103.422,-208.306 108.497,-203.485"/>
</g>
<!-- Node7 -->
<g id="node7" class="node"><title>Node7</title>
<g id="a_node7"><a xlink:href="XalanMemoryManagement_8hpp.html" target="_top" xlink:title=" ">
<polygon fill="none" stroke="black" points="252,-302.5 252,-332.5 392,-332.5 392,-302.5 252,-302.5"/>
<text text-anchor="start" x="260" y="-320.5" font-family="Helvetica,sans-Serif" font-size="10.00">xalanc/Include/XalanMemory</text>
<text text-anchor="middle" x="322" y="-309.5" font-family="Helvetica,sans-Serif" font-size="10.00">Management.hpp</text>
</a>
</g>
</g>
<!-- Node1&#45;&gt;Node7 -->
<g id="edge6" class="edge"><title>Node1&#45;&gt;Node7</title>
<path fill="none" stroke="midnightblue" d="M322,-369.396C322,-361.645 322,-351.812 322,-342.86"/>
<polygon fill="midnightblue" stroke="midnightblue" points="325.5,-342.576 322,-332.577 318.5,-342.577 325.5,-342.576"/>
</g>
<!-- Node12 -->
<g id="node12" class="node"><title>Node12</title>
<g id="a_node12"><a xlink:href="XalanText_8hpp.html" target="_top" xlink:title=" ">
<polygon fill="none" stroke="black" points="503,-308 503,-327 661,-327 661,-308 503,-308"/>
<text text-anchor="middle" x="582" y="-315" font-family="Helvetica,sans-Serif" font-size="10.00">xalanc/XalanDOM/XalanText.hpp</text>
</a>
</g>
</g>
<!-- Node1&#45;&gt;Node12 -->
<g id="edge12" class="edge"><title>Node1&#45;&gt;Node12</title>
<path fill="none" stroke="midnightblue" d="M378.096,-369.476C426.015,-357.496 493.996,-340.501 538.047,-329.488"/>
<polygon fill="midnightblue" stroke="midnightblue" points="539.033,-332.85 547.885,-327.029 537.335,-326.059 539.033,-332.85"/>
</g>
<!-- Node3 -->
<g id="node3" class="node"><title>Node3</title>
<g id="a_node3"><a xlink:href="PlatformDefinitions_8hpp.html" target="_top" xlink:title=" ">
<polygon fill="none" stroke="black" points="111,-67.5 111,-86.5 293,-86.5 293,-67.5 111,-67.5"/>
<text text-anchor="middle" x="202" y="-74.5" font-family="Helvetica,sans-Serif" font-size="10.00">xalanc/Include/PlatformDefinitions.hpp</text>
</a>
</g>
</g>
<!-- Node2&#45;&gt;Node3 -->
<g id="edge2" class="edge"><title>Node2&#45;&gt;Node3</title>
<path fill="none" stroke="midnightblue" d="M99.71,-179.368C118.352,-160.894 162.35,-117.293 186.113,-93.7436"/>
<polygon fill="midnightblue" stroke="midnightblue" points="188.691,-96.1165 193.33,-86.5914 183.764,-91.1444 188.691,-96.1165"/>
</g>
<!-- Node4 -->
<g id="node4" class="node"><title>Node4</title>
<g id="a_node4"><a xlink:title=" ">
<polygon fill="none" stroke="#bfbfbf" points="0,-0.5 0,-30.5 108,-30.5 108,-0.5 0,-0.5"/>
<text text-anchor="start" x="8" y="-18.5" font-family="Helvetica,sans-Serif" font-size="10.00">xercesc/util/Xerces</text>
<text text-anchor="middle" x="54" y="-7.5" font-family="Helvetica,sans-Serif" font-size="10.00">_autoconf_config.hpp</text>
</a>
</g>
</g>
<!-- Node3&#45;&gt;Node4 -->
<g id="edge3" class="edge"><title>Node3&#45;&gt;Node4</title>
<path fill="none" stroke="midnightblue" d="M180.795,-67.4751C159.346,-58.8518 125.548,-45.2641 98.2387,-34.2852"/>
<polygon fill="midnightblue" stroke="midnightblue" points="99.4645,-31.0058 88.8807,-30.523 96.8534,-37.5005 99.4645,-31.0058"/>
</g>
<!-- Node5 -->
<g id="node5" class="node"><title>Node5</title>
<g id="a_node5"><a xlink:title=" ">
<polygon fill="none" stroke="#bfbfbf" points="126.5,-6 126.5,-25 277.5,-25 277.5,-6 126.5,-6"/>
<text text-anchor="middle" x="202" y="-13" font-family="Helvetica,sans-Serif" font-size="10.00">xercesc/util/XercesVersion.hpp</text>
</a>
</g>
</g>
<!-- Node3&#45;&gt;Node5 -->
<g id="edge4" class="edge"><title>Node3&#45;&gt;Node5</title>
<path fill="none" stroke="midnightblue" d="M202,-67.4751C202,-59.0803 202,-45.9806 202,-35.1631"/>
<polygon fill="midnightblue" stroke="midnightblue" points="205.5,-35.0091 202,-25.0091 198.5,-35.0091 205.5,-35.0091"/>
</g>
<!-- Node6 -->
<g id="node6" class="node"><title>Node6</title>
<g id="a_node6"><a xlink:href="XalanVersion_8hpp.html" target="_top" xlink:title=" ">
<polygon fill="none" stroke="black" points="296,-6 296,-25 388,-25 388,-6 296,-6"/>
<text text-anchor="middle" x="342" y="-13" font-family="Helvetica,sans-Serif" font-size="10.00">XalanVersion.hpp</text>
</a>
</g>
</g>
<!-- Node3&#45;&gt;Node6 -->
<g id="edge5" class="edge"><title>Node3&#45;&gt;Node6</title>
<path fill="none" stroke="midnightblue" d="M222.059,-67.4751C245.762,-57.4013 285.406,-40.5525 312.583,-29.0023"/>
<polygon fill="midnightblue" stroke="midnightblue" points="314.144,-32.1417 321.979,-25.0091 311.406,-25.6994 314.144,-32.1417"/>
</g>
<!-- Node7&#45;&gt;Node3 -->
<g id="edge7" class="edge"><title>Node7&#45;&gt;Node3</title>
<path fill="none" stroke="midnightblue" d="M270.763,-302.422C252.146,-294.703 232.801,-283.105 221,-266 185.026,-213.858 192.512,-133.411 198.362,-97.0273"/>
<polygon fill="midnightblue" stroke="midnightblue" points="201.866,-97.3088 200.147,-86.8544 194.972,-96.0991 201.866,-97.3088"/>
</g>
<!-- Node8 -->
<g id="node8" class="node"><title>Node8</title>
<g id="a_node8"><a xlink:title=" ">
<polygon fill="none" stroke="#bfbfbf" points="230.5,-241 230.5,-260 279.5,-260 279.5,-241 230.5,-241"/>
<text text-anchor="middle" x="255" y="-248" font-family="Helvetica,sans-Serif" font-size="10.00">cassert</text>
</a>
</g>
</g>
<!-- Node7&#45;&gt;Node8 -->
<g id="edge8" class="edge"><title>Node7&#45;&gt;Node8</title>
<path fill="none" stroke="midnightblue" d="M307.462,-302.396C296.808,-292.06 282.34,-278.024 271.295,-267.309"/>
<polygon fill="midnightblue" stroke="midnightblue" points="273.577,-264.646 263.962,-260.195 268.702,-269.67 273.577,-264.646"/>
</g>
<!-- Node9 -->
<g id="node9" class="node"><title>Node9</title>
<g id="a_node9"><a xlink:title=" ">
<polygon fill="none" stroke="#bfbfbf" points="298,-241 298,-260 346,-260 346,-241 298,-241"/>
<text text-anchor="middle" x="322" y="-248" font-family="Helvetica,sans-Serif" font-size="10.00">cstddef</text>
</a>
</g>
</g>
<!-- Node7&#45;&gt;Node9 -->
<g id="edge9" class="edge"><title>Node7&#45;&gt;Node9</title>
<path fill="none" stroke="midnightblue" d="M322,-302.396C322,-293.064 322,-280.714 322,-270.517"/>
<polygon fill="midnightblue" stroke="midnightblue" points="325.5,-270.195 322,-260.195 318.5,-270.195 325.5,-270.195"/>
</g>
<!-- Node10 -->
<g id="node10" class="node"><title>Node10</title>
<g id="a_node10"><a xlink:title=" ">
<polygon fill="none" stroke="#bfbfbf" points="364,-241 364,-260 398,-260 398,-241 364,-241"/>
<text text-anchor="middle" x="381" y="-248" font-family="Helvetica,sans-Serif" font-size="10.00">new</text>
</a>
</g>
</g>
<!-- Node7&#45;&gt;Node10 -->
<g id="edge10" class="edge"><title>Node7&#45;&gt;Node10</title>
<path fill="none" stroke="midnightblue" d="M334.802,-302.396C344.093,-292.161 356.678,-278.296 366.366,-267.622"/>
<polygon fill="midnightblue" stroke="midnightblue" points="368.979,-269.951 373.108,-260.195 363.795,-265.247 368.979,-269.951"/>
</g>
<!-- Node11 -->
<g id="node11" class="node"><title>Node11</title>
<g id="a_node11"><a xlink:title=" ">
<polygon fill="none" stroke="#bfbfbf" points="416.5,-235.5 416.5,-265.5 553.5,-265.5 553.5,-235.5 416.5,-235.5"/>
<text text-anchor="start" x="424.5" y="-253.5" font-family="Helvetica,sans-Serif" font-size="10.00">xercesc/framework/Memory</text>
<text text-anchor="middle" x="485" y="-242.5" font-family="Helvetica,sans-Serif" font-size="10.00">Manager.hpp</text>
</a>
</g>
</g>
<!-- Node7&#45;&gt;Node11 -->
<g id="edge11" class="edge"><title>Node7&#45;&gt;Node11</title>
<path fill="none" stroke="midnightblue" d="M357.369,-302.396C381.719,-292.686 414.261,-279.709 440.391,-269.289"/>
<polygon fill="midnightblue" stroke="midnightblue" points="441.708,-272.532 449.7,-265.577 439.115,-266.03 441.708,-272.532"/>
</g>
<!-- Node13 -->
<g id="node13" class="node"><title>Node13</title>
<g id="a_node13"><a xlink:href="XalanDOMDefinitions_8hpp.html" target="_top" xlink:title=" ">
<polygon fill="none" stroke="black" points="498,-123.5 498,-142.5 704,-142.5 704,-123.5 498,-123.5"/>
<text text-anchor="middle" x="601" y="-130.5" font-family="Helvetica,sans-Serif" font-size="10.00">xalanc/XalanDOM/XalanDOMDefinitions.hpp</text>
</a>
</g>
</g>
<!-- Node12&#45;&gt;Node13 -->
<g id="edge13" class="edge"><title>Node12&#45;&gt;Node13</title>
<path fill="none" stroke="midnightblue" d="M582.916,-307.698C585.832,-279.693 594.939,-192.213 599.005,-153.16"/>
<polygon fill="midnightblue" stroke="midnightblue" points="602.538,-153.023 600.093,-142.714 595.576,-152.298 602.538,-153.023"/>
</g>
<!-- Node14 -->
<g id="node14" class="node"><title>Node14</title>
<g id="a_node14"><a xlink:href="XalanCharacterData_8hpp.html" target="_top" xlink:title=" ">
<polygon fill="none" stroke="black" points="610,-235.5 610,-265.5 772,-265.5 772,-235.5 610,-235.5"/>
<text text-anchor="start" x="618" y="-253.5" font-family="Helvetica,sans-Serif" font-size="10.00">xalanc/XalanDOM/XalanCharacter</text>
<text text-anchor="middle" x="691" y="-242.5" font-family="Helvetica,sans-Serif" font-size="10.00">Data.hpp</text>
</a>
</g>
</g>
<!-- Node12&#45;&gt;Node14 -->
<g id="edge15" class="edge"><title>Node12&#45;&gt;Node14</title>
<path fill="none" stroke="midnightblue" d="M596.7,-307.734C612.493,-298.316 638.091,-283.051 658.634,-270.801"/>
<polygon fill="midnightblue" stroke="midnightblue" points="660.578,-273.717 667.374,-265.589 656.992,-267.705 660.578,-273.717"/>
</g>
<!-- Node13&#45;&gt;Node3 -->
<g id="edge14" class="edge"><title>Node13&#45;&gt;Node3</title>
<path fill="none" stroke="midnightblue" d="M537.777,-123.444C466.422,-113.786 350.512,-98.0993 275.266,-87.9157"/>
<polygon fill="midnightblue" stroke="midnightblue" points="275.306,-84.3893 264.927,-86.5164 274.367,-91.326 275.306,-84.3893"/>
</g>
<!-- Node14&#45;&gt;Node13 -->
<g id="edge16" class="edge"><title>Node14&#45;&gt;Node13</title>
<path fill="none" stroke="midnightblue" d="M674.392,-235.495C663.571,-225.883 649.555,-212.473 639,-199 627.437,-184.24 616.902,-165.614 609.873,-152.088"/>
<polygon fill="midnightblue" stroke="midnightblue" points="612.857,-150.233 605.222,-142.887 606.61,-153.391 612.857,-150.233"/>
</g>
<!-- Node15 -->
<g id="node15" class="node"><title>Node15</title>
<g id="a_node15"><a xlink:href="XalanNode_8hpp.html" target="_top" xlink:title=" ">
<polygon fill="none" stroke="black" points="648.5,-179.5 648.5,-198.5 809.5,-198.5 809.5,-179.5 648.5,-179.5"/>
<text text-anchor="middle" x="729" y="-186.5" font-family="Helvetica,sans-Serif" font-size="10.00">xalanc/XalanDOM/XalanNode.hpp</text>
</a>
</g>
</g>
<!-- Node14&#45;&gt;Node15 -->
<g id="edge17" class="edge"><title>Node14&#45;&gt;Node15</title>
<path fill="none" stroke="midnightblue" d="M700.005,-235.399C705.413,-226.932 712.332,-216.099 718.054,-207.139"/>
<polygon fill="midnightblue" stroke="midnightblue" points="721.038,-208.97 723.471,-198.658 715.138,-205.202 721.038,-208.97"/>
</g>
<!-- Node15&#45;&gt;Node13 -->
<g id="edge18" class="edge"><title>Node15&#45;&gt;Node13</title>
<path fill="none" stroke="midnightblue" d="M708.718,-179.444C687.653,-170.557 654.483,-156.563 630.514,-146.451"/>
<polygon fill="midnightblue" stroke="midnightblue" points="631.761,-143.179 621.187,-142.516 629.04,-149.628 631.761,-143.179"/>
</g>
</g>
</svg>
