<?xml version="1.0" encoding="UTF-8" standalone="no"?>
<!DOCTYPE svg PUBLIC "-//W3C//DTD SVG 1.1//EN"
 "http://www.w3.org/Graphics/SVG/1.1/DTD/svg11.dtd">
<!-- Generated by graphviz version 2.38.0 (20140413.2041)
 -->
<!-- Title: xalanc/XPath/XPathConstructionContext.hpp Pages: 1 -->
<svg width="1384pt" height="486pt"
 viewBox="0.00 0.00 1384.00 486.00" xmlns="http://www.w3.org/2000/svg" xmlns:xlink="http://www.w3.org/1999/xlink">
<g id="graph0" class="graph" transform="scale(1 1) rotate(0) translate(4 482)">
<title>xalanc/XPath/XPathConstructionContext.hpp</title>
<!-- Node1 -->
<g id="node1" class="node"><title>Node1</title>
<g id="a_node1"><a xlink:title=" ">
<polygon fill="#bfbfbf" stroke="black" points="146.5,-447.5 146.5,-477.5 303.5,-477.5 303.5,-447.5 146.5,-447.5"/>
<text text-anchor="start" x="154.5" y="-465.5" font-family="Helvetica,sans-Serif" font-size="10.00">xalanc/XPath/XPathConstruction</text>
<text text-anchor="middle" x="225" y="-454.5" font-family="Helvetica,sans-Serif" font-size="10.00">Context.hpp</text>
</a>
</g>
</g>
<!-- Node2 -->
<g id="node2" class="node"><title>Node2</title>
<g id="a_node2"><a xlink:href="XPathDefinitions_8hpp.html" target="_top" xlink:title=" ">
<polygon fill="none" stroke="black" points="0,-263 0,-282 166,-282 166,-263 0,-263"/>
<text text-anchor="middle" x="83" y="-270" font-family="Helvetica,sans-Serif" font-size="10.00">xalanc/XPath/XPathDefinitions.hpp</text>
</a>
</g>
</g>
<!-- Node1&#45;&gt;Node2 -->
<g id="edge1" class="edge"><title>Node1&#45;&gt;Node2</title>
<path fill="none" stroke="midnightblue" d="M197.026,-447.413C181.643,-438.589 163.082,-426.043 150,-411 118.156,-374.383 97.6339,-319.978 88.4965,-291.84"/>
<polygon fill="midnightblue" stroke="midnightblue" points="91.7841,-290.625 85.4597,-282.125 85.1029,-292.714 91.7841,-290.625"/>
</g>
<!-- Node7 -->
<g id="node7" class="node"><title>Node7</title>
<g id="a_node7"><a xlink:href="XalanDOMString_8hpp.html" target="_top" xlink:title=" ">
<polygon fill="none" stroke="black" points="496.5,-386 496.5,-405 683.5,-405 683.5,-386 496.5,-386"/>
<text text-anchor="middle" x="590" y="-393" font-family="Helvetica,sans-Serif" font-size="10.00">xalanc/XalanDOM/XalanDOMString.hpp</text>
</a>
</g>
</g>
<!-- Node1&#45;&gt;Node7 -->
<g id="edge6" class="edge"><title>Node1&#45;&gt;Node7</title>
<path fill="none" stroke="midnightblue" d="M303.75,-447.476C372.438,-435.244 470.486,-417.783 532.158,-406.801"/>
<polygon fill="midnightblue" stroke="midnightblue" points="532.877,-410.228 542.108,-405.029 531.65,-403.336 532.877,-410.228"/>
</g>
<!-- Node24 -->
<g id="node24" class="node"><title>Node24</title>
<g id="a_node24"><a xlink:href="ProblemListenerBase_8hpp.html" target="_top" xlink:title=" ">
<polygon fill="none" stroke="black" points="159.5,-380.5 159.5,-410.5 290.5,-410.5 290.5,-380.5 159.5,-380.5"/>
<text text-anchor="start" x="167.5" y="-398.5" font-family="Helvetica,sans-Serif" font-size="10.00">xalanc/PlatformSupport</text>
<text text-anchor="middle" x="225" y="-387.5" font-family="Helvetica,sans-Serif" font-size="10.00">/ProblemListenerBase.hpp</text>
</a>
</g>
</g>
<!-- Node1&#45;&gt;Node24 -->
<g id="edge47" class="edge"><title>Node1&#45;&gt;Node24</title>
<path fill="none" stroke="midnightblue" d="M225,-447.396C225,-439.645 225,-429.812 225,-420.86"/>
<polygon fill="midnightblue" stroke="midnightblue" points="228.5,-420.576 225,-410.577 221.5,-420.577 228.5,-420.576"/>
</g>
<!-- Node3 -->
<g id="node3" class="node"><title>Node3</title>
<g id="a_node3"><a xlink:href="PlatformDefinitions_8hpp.html" target="_top" xlink:title=" ">
<polygon fill="none" stroke="black" points="425,-73 425,-92 607,-92 607,-73 425,-73"/>
<text text-anchor="middle" x="516" y="-80" font-family="Helvetica,sans-Serif" font-size="10.00">xalanc/Include/PlatformDefinitions.hpp</text>
</a>
</g>
</g>
<!-- Node2&#45;&gt;Node3 -->
<g id="edge2" class="edge"><title>Node2&#45;&gt;Node3</title>
<path fill="none" stroke="midnightblue" d="M102.73,-262.934C172.046,-232.838 404.65,-131.846 486.891,-96.1386"/>
<polygon fill="midnightblue" stroke="midnightblue" points="488.375,-99.3099 496.154,-92.1168 485.587,-92.889 488.375,-99.3099"/>
</g>
<!-- Node4 -->
<g id="node4" class="node"><title>Node4</title>
<g id="a_node4"><a xlink:title=" ">
<polygon fill="none" stroke="#bfbfbf" points="314,-0.5 314,-30.5 422,-30.5 422,-0.5 314,-0.5"/>
<text text-anchor="start" x="322" y="-18.5" font-family="Helvetica,sans-Serif" font-size="10.00">xercesc/util/Xerces</text>
<text text-anchor="middle" x="368" y="-7.5" font-family="Helvetica,sans-Serif" font-size="10.00">_autoconf_config.hpp</text>
</a>
</g>
</g>
<!-- Node3&#45;&gt;Node4 -->
<g id="edge3" class="edge"><title>Node3&#45;&gt;Node4</title>
<path fill="none" stroke="midnightblue" d="M496.347,-72.8685C474.235,-63.1572 437.695,-47.1092 409.246,-34.6148"/>
<polygon fill="midnightblue" stroke="midnightblue" points="410.504,-31.3447 399.941,-30.5281 407.689,-37.7539 410.504,-31.3447"/>
</g>
<!-- Node5 -->
<g id="node5" class="node"><title>Node5</title>
<g id="a_node5"><a xlink:title=" ">
<polygon fill="none" stroke="#bfbfbf" points="440.5,-6 440.5,-25 591.5,-25 591.5,-6 440.5,-6"/>
<text text-anchor="middle" x="516" y="-13" font-family="Helvetica,sans-Serif" font-size="10.00">xercesc/util/XercesVersion.hpp</text>
</a>
</g>
</g>
<!-- Node3&#45;&gt;Node5 -->
<g id="edge4" class="edge"><title>Node3&#45;&gt;Node5</title>
<path fill="none" stroke="midnightblue" d="M516,-72.7338C516,-63.1826 516,-47.6183 516,-35.2829"/>
<polygon fill="midnightblue" stroke="midnightblue" points="519.5,-35.1273 516,-25.1273 512.5,-35.1273 519.5,-35.1273"/>
</g>
<!-- Node6 -->
<g id="node6" class="node"><title>Node6</title>
<g id="a_node6"><a xlink:href="XalanVersion_8hpp.html" target="_top" xlink:title=" ">
<polygon fill="none" stroke="black" points="610,-6 610,-25 702,-25 702,-6 610,-6"/>
<text text-anchor="middle" x="656" y="-13" font-family="Helvetica,sans-Serif" font-size="10.00">XalanVersion.hpp</text>
</a>
</g>
</g>
<!-- Node3&#45;&gt;Node6 -->
<g id="edge5" class="edge"><title>Node3&#45;&gt;Node6</title>
<path fill="none" stroke="midnightblue" d="M534.591,-72.8685C558.544,-61.7476 600.395,-42.3167 628.154,-29.4286"/>
<polygon fill="midnightblue" stroke="midnightblue" points="629.736,-32.5529 637.332,-25.1672 626.788,-26.2038 629.736,-32.5529"/>
</g>
<!-- Node8 -->
<g id="node8" class="node"><title>Node8</title>
<g id="a_node8"><a xlink:href="XalanDOMDefinitions_8hpp.html" target="_top" xlink:title=" ">
<polygon fill="none" stroke="black" points="356,-263 356,-282 562,-282 562,-263 356,-263"/>
<text text-anchor="middle" x="459" y="-270" font-family="Helvetica,sans-Serif" font-size="10.00">xalanc/XalanDOM/XalanDOMDefinitions.hpp</text>
</a>
</g>
</g>
<!-- Node7&#45;&gt;Node8 -->
<g id="edge7" class="edge"><title>Node7&#45;&gt;Node8</title>
<path fill="none" stroke="midnightblue" d="M583.91,-385.593C574.035,-371.527 553.461,-343.745 532,-324 516.785,-310.002 497.47,-296.807 482.529,-287.417"/>
<polygon fill="midnightblue" stroke="midnightblue" points="484.219,-284.347 473.868,-282.089 480.552,-290.31 484.219,-284.347"/>
</g>
<!-- Node9 -->
<g id="node9" class="node"><title>Node9</title>
<g id="a_node9"><a xlink:title=" ">
<polygon fill="none" stroke="#bfbfbf" points="709.5,-73 709.5,-92 758.5,-92 758.5,-73 709.5,-73"/>
<text text-anchor="middle" x="734" y="-80" font-family="Helvetica,sans-Serif" font-size="10.00">cassert</text>
</a>
</g>
</g>
<!-- Node7&#45;&gt;Node9 -->
<g id="edge9" class="edge"><title>Node7&#45;&gt;Node9</title>
<path fill="none" stroke="midnightblue" d="M588.672,-385.787C583.776,-350.39 569.972,-215.376 630,-134 646.607,-111.488 675.957,-98.5195 699.253,-91.3762"/>
<polygon fill="midnightblue" stroke="midnightblue" points="700.469,-94.6694 709.136,-88.5756 698.561,-87.9346 700.469,-94.6694"/>
</g>
<!-- Node10 -->
<g id="node10" class="node"><title>Node10</title>
<g id="a_node10"><a xlink:href="STLHelper_8hpp.html" target="_top" xlink:title=" ">
<polygon fill="none" stroke="black" points="722,-324.5 722,-343.5 868,-343.5 868,-324.5 722,-324.5"/>
<text text-anchor="middle" x="795" y="-331.5" font-family="Helvetica,sans-Serif" font-size="10.00">xalanc/Include/STLHelper.hpp</text>
</a>
</g>
</g>
<!-- Node7&#45;&gt;Node10 -->
<g id="edge10" class="edge"><title>Node7&#45;&gt;Node10</title>
<path fill="none" stroke="midnightblue" d="M619.372,-385.975C655.297,-375.548 716.232,-357.862 756.044,-346.307"/>
<polygon fill="midnightblue" stroke="midnightblue" points="757.055,-349.658 765.683,-343.509 755.104,-342.935 757.055,-349.658"/>
</g>
<!-- Node16 -->
<g id="node16" class="node"><title>Node16</title>
<g id="a_node16"><a xlink:href="XalanVector_8hpp.html" target="_top" xlink:title=" ">
<polygon fill="none" stroke="black" points="816,-201.5 816,-220.5 968,-220.5 968,-201.5 816,-201.5"/>
<text text-anchor="middle" x="892" y="-208.5" font-family="Helvetica,sans-Serif" font-size="10.00">xalanc/Include/XalanVector.hpp</text>
</a>
</g>
</g>
<!-- Node7&#45;&gt;Node16 -->
<g id="edge44" class="edge"><title>Node7&#45;&gt;Node16</title>
<path fill="none" stroke="midnightblue" d="M683.863,-389.882C757.249,-384.182 851.044,-371.59 877,-344 905.88,-313.302 901.172,-259.168 896.113,-230.7"/>
<polygon fill="midnightblue" stroke="midnightblue" points="899.535,-229.963 894.157,-220.835 892.669,-231.325 899.535,-229.963"/>
</g>
<!-- Node20 -->
<g id="node20" class="node"><title>Node20</title>
<g id="a_node20"><a xlink:href="XalanMemoryManagement_8hpp.html" target="_top" xlink:title=" ">
<polygon fill="none" stroke="black" points="789,-134.5 789,-164.5 929,-164.5 929,-134.5 789,-134.5"/>
<text text-anchor="start" x="797" y="-152.5" font-family="Helvetica,sans-Serif" font-size="10.00">xalanc/Include/XalanMemory</text>
<text text-anchor="middle" x="859" y="-141.5" font-family="Helvetica,sans-Serif" font-size="10.00">Management.hpp</text>
</a>
</g>
</g>
<!-- Node7&#45;&gt;Node20 -->
<g id="edge43" class="edge"><title>Node7&#45;&gt;Node20</title>
<path fill="none" stroke="midnightblue" d="M599.574,-385.816C637.665,-351.265 779.118,-222.958 835.543,-171.777"/>
<polygon fill="midnightblue" stroke="midnightblue" points="838.173,-174.117 843.228,-164.806 833.47,-168.932 838.173,-174.117"/>
</g>
<!-- Node23 -->
<g id="node23" class="node"><title>Node23</title>
<g id="a_node23"><a xlink:href="XalanDOMException_8hpp.html" target="_top" xlink:title=" ">
<polygon fill="none" stroke="black" points="318.5,-324.5 318.5,-343.5 523.5,-343.5 523.5,-324.5 318.5,-324.5"/>
<text text-anchor="middle" x="421" y="-331.5" font-family="Helvetica,sans-Serif" font-size="10.00">xalanc/XalanDOM/XalanDOMException.hpp</text>
</a>
</g>
</g>
<!-- Node7&#45;&gt;Node23 -->
<g id="edge45" class="edge"><title>Node7&#45;&gt;Node23</title>
<path fill="none" stroke="midnightblue" d="M565.786,-385.975C536.671,-375.725 487.632,-358.459 454.798,-346.899"/>
<polygon fill="midnightblue" stroke="midnightblue" points="455.763,-343.529 445.169,-343.509 453.439,-350.131 455.763,-343.529"/>
</g>
<!-- Node8&#45;&gt;Node3 -->
<g id="edge8" class="edge"><title>Node8&#45;&gt;Node3</title>
<path fill="none" stroke="midnightblue" d="M459.307,-262.805C460.346,-240.584 464.768,-180.21 483,-134 487.777,-121.892 495.694,-109.638 502.575,-100.234"/>
<polygon fill="midnightblue" stroke="midnightblue" points="505.432,-102.26 508.72,-92.188 499.869,-98.0111 505.432,-102.26"/>
</g>
<!-- Node10&#45;&gt;Node3 -->
<g id="edge11" class="edge"><title>Node10&#45;&gt;Node3</title>
<path fill="none" stroke="midnightblue" d="M772.416,-324.484C722.642,-304.548 602.934,-250.003 540,-165 526.248,-146.426 520.34,-120.06 517.825,-102.396"/>
<polygon fill="midnightblue" stroke="midnightblue" points="521.27,-101.732 516.614,-92.2153 514.319,-102.559 521.27,-101.732"/>
</g>
<!-- Node11 -->
<g id="node11" class="node"><title>Node11</title>
<g id="a_node11"><a xlink:title=" ">
<polygon fill="none" stroke="#bfbfbf" points="639,-140 639,-159 695,-159 695,-140 639,-140"/>
<text text-anchor="middle" x="667" y="-147" font-family="Helvetica,sans-Serif" font-size="10.00">algorithm</text>
</a>
</g>
</g>
<!-- Node10&#45;&gt;Node11 -->
<g id="edge12" class="edge"><title>Node10&#45;&gt;Node11</title>
<path fill="none" stroke="midnightblue" d="M788.826,-324.198C768.846,-295.71 705.701,-205.679 679.052,-167.684"/>
<polygon fill="midnightblue" stroke="midnightblue" points="681.719,-165.391 673.112,-159.214 675.988,-169.411 681.719,-165.391"/>
</g>
<!-- Node12 -->
<g id="node12" class="node"><title>Node12</title>
<g id="a_node12"><a xlink:title=" ">
<polygon fill="none" stroke="#bfbfbf" points="1318,-201.5 1318,-220.5 1376,-220.5 1376,-201.5 1318,-201.5"/>
<text text-anchor="middle" x="1347" y="-208.5" font-family="Helvetica,sans-Serif" font-size="10.00">functional</text>
</a>
</g>
</g>
<!-- Node10&#45;&gt;Node12 -->
<g id="edge13" class="edge"><title>Node10&#45;&gt;Node12</title>
<path fill="none" stroke="midnightblue" d="M868.119,-325.872C931.746,-318.859 1026.18,-306.495 1107,-288 1182.65,-270.688 1268.83,-240.827 1314.53,-224.155"/>
<polygon fill="midnightblue" stroke="midnightblue" points="1316,-227.343 1324.18,-220.609 1313.58,-220.772 1316,-227.343"/>
</g>
<!-- Node13 -->
<g id="node13" class="node"><title>Node13</title>
<g id="a_node13"><a xlink:href="XalanMap_8hpp.html" target="_top" xlink:title=" ">
<polygon fill="none" stroke="black" points="954.5,-263 954.5,-282 1097.5,-282 1097.5,-263 954.5,-263"/>
<text text-anchor="middle" x="1026" y="-270" font-family="Helvetica,sans-Serif" font-size="10.00">xalanc/Include/XalanMap.hpp</text>
</a>
</g>
</g>
<!-- Node10&#45;&gt;Node13 -->
<g id="edge14" class="edge"><title>Node10&#45;&gt;Node13</title>
<path fill="none" stroke="midnightblue" d="M828.097,-324.475C868.922,-313.959 938.408,-296.062 983.239,-284.514"/>
<polygon fill="midnightblue" stroke="midnightblue" points="984.154,-287.893 992.965,-282.009 982.408,-281.114 984.154,-287.893"/>
</g>
<!-- Node13&#45;&gt;Node3 -->
<g id="edge15" class="edge"><title>Node13&#45;&gt;Node3</title>
<path fill="none" stroke="midnightblue" d="M964.031,-262.94C855.186,-246.94 635.291,-210.011 573,-165 550.092,-148.447 533.175,-119.742 523.954,-101.192"/>
<polygon fill="midnightblue" stroke="midnightblue" points="527.078,-99.6118 519.633,-92.0734 520.752,-102.609 527.078,-99.6118"/>
</g>
<!-- Node13&#45;&gt;Node11 -->
<g id="edge17" class="edge"><title>Node13&#45;&gt;Node11</title>
<path fill="none" stroke="midnightblue" d="M972.766,-262.921C927.774,-254.801 862.048,-240.88 807,-221 763.956,-205.455 717.048,-179.91 689.929,-164.211"/>
<polygon fill="midnightblue" stroke="midnightblue" points="691.599,-161.133 681.201,-159.102 688.063,-167.174 691.599,-161.133"/>
</g>
<!-- Node13&#45;&gt;Node12 -->
<g id="edge18" class="edge"><title>Node13&#45;&gt;Node12</title>
<path fill="none" stroke="midnightblue" d="M1075.29,-262.955C1130.92,-253.216 1224.08,-236.619 1304,-221 1305.26,-220.753 1306.55,-220.5 1307.84,-220.242"/>
<polygon fill="midnightblue" stroke="midnightblue" points="1308.77,-223.624 1317.88,-218.205 1307.38,-216.764 1308.77,-223.624"/>
</g>
<!-- Node14 -->
<g id="node14" class="node"><title>Node14</title>
<g id="a_node14"><a xlink:title=" ">
<polygon fill="none" stroke="#bfbfbf" points="1113,-73 1113,-92 1161,-92 1161,-73 1113,-73"/>
<text text-anchor="middle" x="1137" y="-80" font-family="Helvetica,sans-Serif" font-size="10.00">cstddef</text>
</a>
</g>
</g>
<!-- Node13&#45;&gt;Node14 -->
<g id="edge16" class="edge"><title>Node13&#45;&gt;Node14</title>
<path fill="none" stroke="midnightblue" d="M1062.13,-262.975C1104.34,-252.605 1171.16,-234.779 1193,-221 1221.47,-203.037 1231.85,-196.393 1244,-165 1248.97,-152.151 1251.38,-145.637 1244,-134 1228.05,-108.839 1195.84,-95.9791 1170.9,-89.5576"/>
<polygon fill="midnightblue" stroke="midnightblue" points="1171.61,-86.1279 1161.07,-87.2548 1170.01,-92.9434 1171.61,-86.1279"/>
</g>
<!-- Node15 -->
<g id="node15" class="node"><title>Node15</title>
<g id="a_node15"><a xlink:title=" ">
<polygon fill="none" stroke="#bfbfbf" points="1144,-201.5 1144,-220.5 1184,-220.5 1184,-201.5 1144,-201.5"/>
<text text-anchor="middle" x="1164" y="-208.5" font-family="Helvetica,sans-Serif" font-size="10.00">utility</text>
</a>
</g>
</g>
<!-- Node13&#45;&gt;Node15 -->
<g id="edge19" class="edge"><title>Node13&#45;&gt;Node15</title>
<path fill="none" stroke="midnightblue" d="M1045.77,-262.975C1069.14,-252.901 1108.21,-236.053 1135,-224.502"/>
<polygon fill="midnightblue" stroke="midnightblue" points="1136.47,-227.682 1144.26,-220.509 1133.7,-221.254 1136.47,-227.682"/>
</g>
<!-- Node13&#45;&gt;Node16 -->
<g id="edge20" class="edge"><title>Node13&#45;&gt;Node16</title>
<path fill="none" stroke="midnightblue" d="M1006.8,-262.975C984.213,-252.945 946.501,-236.2 920.499,-224.655"/>
<polygon fill="midnightblue" stroke="midnightblue" points="921.723,-221.369 911.163,-220.509 918.882,-227.766 921.723,-221.369"/>
</g>
<!-- Node22 -->
<g id="node22" class="node"><title>Node22</title>
<g id="a_node22"><a xlink:href="XalanList_8hpp.html" target="_top" xlink:title=" ">
<polygon fill="none" stroke="black" points="986,-201.5 986,-220.5 1126,-220.5 1126,-201.5 986,-201.5"/>
<text text-anchor="middle" x="1056" y="-208.5" font-family="Helvetica,sans-Serif" font-size="10.00">xalanc/Include/XalanList.hpp</text>
</a>
</g>
</g>
<!-- Node13&#45;&gt;Node22 -->
<g id="edge34" class="edge"><title>Node13&#45;&gt;Node22</title>
<path fill="none" stroke="midnightblue" d="M1030.3,-262.975C1034.66,-254.315 1041.56,-240.649 1047.1,-229.645"/>
<polygon fill="midnightblue" stroke="midnightblue" points="1050.33,-231.014 1051.71,-220.509 1044.08,-227.863 1050.33,-231.014"/>
</g>
<!-- Node16&#45;&gt;Node3 -->
<g id="edge21" class="edge"><title>Node16&#45;&gt;Node3</title>
<path fill="none" stroke="midnightblue" d="M815.809,-205.957C762.135,-200.972 689.522,-189.842 630,-165 591.52,-148.94 553.468,-117.855 532.518,-99.0613"/>
<polygon fill="midnightblue" stroke="midnightblue" points="534.615,-96.236 524.876,-92.0645 529.888,-101.399 534.615,-96.236"/>
</g>
<!-- Node16&#45;&gt;Node9 -->
<g id="edge24" class="edge"><title>Node16&#45;&gt;Node9</title>
<path fill="none" stroke="midnightblue" d="M853.533,-201.461C830.153,-194.709 800.884,-183.298 780,-165 760.386,-147.815 747.285,-120.143 740.24,-101.889"/>
<polygon fill="midnightblue" stroke="midnightblue" points="743.49,-100.585 736.788,-92.3798 736.91,-102.974 743.49,-100.585"/>
</g>
<!-- Node16&#45;&gt;Node11 -->
<g id="edge23" class="edge"><title>Node16&#45;&gt;Node11</title>
<path fill="none" stroke="midnightblue" d="M852.812,-201.454C815.568,-193.076 758.112,-179.483 709,-165 706.061,-164.133 703.023,-163.187 699.988,-162.205"/>
<polygon fill="midnightblue" stroke="midnightblue" points="701.018,-158.86 690.424,-159.01 698.8,-165.499 701.018,-158.86"/>
</g>
<!-- Node16&#45;&gt;Node14 -->
<g id="edge22" class="edge"><title>Node16&#45;&gt;Node14</title>
<path fill="none" stroke="midnightblue" d="M904.533,-201.312C926.347,-186.407 972.989,-155.497 1015,-134 1044.19,-119.066 1078.84,-105.057 1103.74,-95.6005"/>
<polygon fill="midnightblue" stroke="midnightblue" points="1104.97,-98.8757 1113.1,-92.0837 1102.51,-92.3224 1104.97,-98.8757"/>
</g>
<!-- Node17 -->
<g id="node17" class="node"><title>Node17</title>
<g id="a_node17"><a xlink:title=" ">
<polygon fill="none" stroke="#bfbfbf" points="943,-73 943,-92 977,-92 977,-73 943,-73"/>
<text text-anchor="middle" x="960" y="-80" font-family="Helvetica,sans-Serif" font-size="10.00">new</text>
</a>
</g>
</g>
<!-- Node16&#45;&gt;Node17 -->
<g id="edge25" class="edge"><title>Node16&#45;&gt;Node17</title>
<path fill="none" stroke="midnightblue" d="M903.946,-201.331C914.422,-193.114 929.302,-179.844 938,-165 949.548,-145.292 955.189,-119.372 957.836,-102.109"/>
<polygon fill="midnightblue" stroke="midnightblue" points="961.308,-102.545 959.174,-92.1674 954.371,-101.611 961.308,-102.545"/>
</g>
<!-- Node18 -->
<g id="node18" class="node"><title>Node18</title>
<g id="a_node18"><a xlink:title=" ">
<polygon fill="none" stroke="#bfbfbf" points="1100.5,-140 1100.5,-159 1147.5,-159 1147.5,-140 1100.5,-140"/>
<text text-anchor="middle" x="1124" y="-147" font-family="Helvetica,sans-Serif" font-size="10.00">iterator</text>
</a>
</g>
</g>
<!-- Node16&#45;&gt;Node18 -->
<g id="edge26" class="edge"><title>Node16&#45;&gt;Node18</title>
<path fill="none" stroke="midnightblue" d="M943.337,-201.438C984.21,-193.911 1042.56,-181.569 1092,-165 1093.67,-164.44 1095.37,-163.822 1097.07,-163.167"/>
<polygon fill="midnightblue" stroke="midnightblue" points="1098.79,-166.24 1106.65,-159.136 1096.08,-159.788 1098.79,-166.24"/>
</g>
<!-- Node19 -->
<g id="node19" class="node"><title>Node19</title>
<g id="a_node19"><a xlink:title=" ">
<polygon fill="none" stroke="#bfbfbf" points="1023.5,-140 1023.5,-159 1082.5,-159 1082.5,-140 1023.5,-140"/>
<text text-anchor="middle" x="1053" y="-147" font-family="Helvetica,sans-Serif" font-size="10.00">stdexcept</text>
</a>
</g>
</g>
<!-- Node16&#45;&gt;Node19 -->
<g id="edge27" class="edge"><title>Node16&#45;&gt;Node19</title>
<path fill="none" stroke="midnightblue" d="M915.067,-201.475C942.685,-191.269 989.12,-174.108 1020.4,-162.549"/>
<polygon fill="midnightblue" stroke="midnightblue" points="1021.81,-165.759 1029.98,-159.009 1019.38,-159.193 1021.81,-165.759"/>
</g>
<!-- Node16&#45;&gt;Node20 -->
<g id="edge28" class="edge"><title>Node16&#45;&gt;Node20</title>
<path fill="none" stroke="midnightblue" d="M887.272,-201.475C883.22,-194.17 877.192,-183.302 871.742,-173.475"/>
<polygon fill="midnightblue" stroke="midnightblue" points="874.688,-171.57 866.777,-164.523 868.567,-174.966 874.688,-171.57"/>
</g>
<!-- Node20&#45;&gt;Node3 -->
<g id="edge29" class="edge"><title>Node20&#45;&gt;Node3</title>
<path fill="none" stroke="midnightblue" d="M788.761,-135.189C724.285,-122.971 630.059,-105.115 570.931,-93.9097"/>
<polygon fill="midnightblue" stroke="midnightblue" points="571.511,-90.4573 561.034,-92.0341 570.207,-97.3349 571.511,-90.4573"/>
</g>
<!-- Node20&#45;&gt;Node9 -->
<g id="edge30" class="edge"><title>Node20&#45;&gt;Node9</title>
<path fill="none" stroke="midnightblue" d="M831.877,-134.396C810.332,-123.193 780.425,-107.641 759.356,-96.6853"/>
<polygon fill="midnightblue" stroke="midnightblue" points="760.847,-93.5153 750.36,-92.007 757.617,-99.7258 760.847,-93.5153"/>
</g>
<!-- Node20&#45;&gt;Node14 -->
<g id="edge31" class="edge"><title>Node20&#45;&gt;Node14</title>
<path fill="none" stroke="midnightblue" d="M918.98,-134.476C975.103,-121.354 1056.96,-102.214 1102.74,-91.5098"/>
<polygon fill="midnightblue" stroke="midnightblue" points="1103.81,-94.8538 1112.75,-89.1689 1102.22,-88.0376 1103.81,-94.8538"/>
</g>
<!-- Node20&#45;&gt;Node17 -->
<g id="edge32" class="edge"><title>Node20&#45;&gt;Node17</title>
<path fill="none" stroke="midnightblue" d="M880.915,-134.396C897.853,-123.496 921.187,-108.479 938.116,-97.5835"/>
<polygon fill="midnightblue" stroke="midnightblue" points="940.266,-100.362 946.781,-92.007 936.478,-94.4756 940.266,-100.362"/>
</g>
<!-- Node21 -->
<g id="node21" class="node"><title>Node21</title>
<g id="a_node21"><a xlink:title=" ">
<polygon fill="none" stroke="#bfbfbf" points="787.5,-67.5 787.5,-97.5 924.5,-97.5 924.5,-67.5 787.5,-67.5"/>
<text text-anchor="start" x="795.5" y="-85.5" font-family="Helvetica,sans-Serif" font-size="10.00">xercesc/framework/Memory</text>
<text text-anchor="middle" x="856" y="-74.5" font-family="Helvetica,sans-Serif" font-size="10.00">Manager.hpp</text>
</a>
</g>
</g>
<!-- Node20&#45;&gt;Node21 -->
<g id="edge33" class="edge"><title>Node20&#45;&gt;Node21</title>
<path fill="none" stroke="midnightblue" d="M858.349,-134.396C857.991,-126.645 857.537,-116.812 857.124,-107.86"/>
<polygon fill="midnightblue" stroke="midnightblue" points="860.607,-107.404 856.65,-97.5765 853.615,-107.727 860.607,-107.404"/>
</g>
<!-- Node22&#45;&gt;Node3 -->
<g id="edge35" class="edge"><title>Node22&#45;&gt;Node3</title>
<path fill="none" stroke="midnightblue" d="M993.576,-201.492C924.901,-191.837 819.08,-176.003 780,-165 744.886,-155.113 738.572,-145.643 704,-134 656.664,-118.058 601.325,-103.692 562.999,-94.3952"/>
<polygon fill="midnightblue" stroke="midnightblue" points="563.692,-90.962 553.15,-92.027 562.055,-97.768 563.692,-90.962"/>
</g>
<!-- Node22&#45;&gt;Node9 -->
<g id="edge38" class="edge"><title>Node22&#45;&gt;Node9</title>
<path fill="none" stroke="midnightblue" d="M1101.65,-201.431C1122.24,-195.044 1144.67,-183.999 1157,-165 1164.5,-153.444 1166.27,-144.193 1157,-134 1100.08,-71.4133 860.804,-115.348 778,-98 774.125,-97.1883 770.114,-96.1527 766.162,-95.0093"/>
<polygon fill="midnightblue" stroke="midnightblue" points="767.161,-91.6545 756.572,-92.0113 765.072,-98.3356 767.161,-91.6545"/>
</g>
<!-- Node22&#45;&gt;Node11 -->
<g id="edge37" class="edge"><title>Node22&#45;&gt;Node11</title>
<path fill="none" stroke="midnightblue" d="M992.874,-201.46C930.355,-192.848 831.935,-178.878 747,-165 733.37,-162.773 718.472,-160.13 705.267,-157.715"/>
<polygon fill="midnightblue" stroke="midnightblue" points="705.566,-154.211 695.097,-155.839 704.296,-161.095 705.566,-154.211"/>
</g>
<!-- Node22&#45;&gt;Node14 -->
<g id="edge36" class="edge"><title>Node22&#45;&gt;Node14</title>
<path fill="none" stroke="midnightblue" d="M1119.98,-201.496C1163.15,-194.295 1214.61,-182.347 1228,-165 1236.42,-154.094 1234.99,-145.873 1228,-134 1215.71,-113.126 1191.34,-100.265 1170.91,-92.7498"/>
<polygon fill="midnightblue" stroke="midnightblue" points="1171.86,-89.3766 1161.26,-89.478 1169.61,-96.0055 1171.86,-89.3766"/>
</g>
<!-- Node22&#45;&gt;Node17 -->
<g id="edge39" class="edge"><title>Node22&#45;&gt;Node17</title>
<path fill="none" stroke="midnightblue" d="M1103.48,-201.45C1152.44,-190.542 1217.99,-168.805 1190,-134 1164.78,-102.641 1042.32,-89.6476 987.102,-85.3187"/>
<polygon fill="midnightblue" stroke="midnightblue" points="987.236,-81.8191 977.004,-84.5656 986.716,-88.7997 987.236,-81.8191"/>
</g>
<!-- Node22&#45;&gt;Node18 -->
<g id="edge40" class="edge"><title>Node22&#45;&gt;Node18</title>
<path fill="none" stroke="midnightblue" d="M1065.74,-201.475C1076.35,-192.197 1093.52,-177.171 1106.48,-165.831"/>
<polygon fill="midnightblue" stroke="midnightblue" points="1109.05,-168.228 1114.28,-159.009 1104.44,-162.96 1109.05,-168.228"/>
</g>
<!-- Node22&#45;&gt;Node19 -->
<g id="edge41" class="edge"><title>Node22&#45;&gt;Node19</title>
<path fill="none" stroke="midnightblue" d="M1055.57,-201.475C1055.15,-193.08 1054.49,-179.981 1053.94,-169.163"/>
<polygon fill="midnightblue" stroke="midnightblue" points="1057.43,-168.82 1053.43,-159.009 1050.44,-169.173 1057.43,-168.82"/>
</g>
<!-- Node22&#45;&gt;Node20 -->
<g id="edge42" class="edge"><title>Node22&#45;&gt;Node20</title>
<path fill="none" stroke="midnightblue" d="M1027.77,-201.475C998.476,-192.626 951.867,-178.549 915.046,-167.428"/>
<polygon fill="midnightblue" stroke="midnightblue" points="916.014,-164.064 905.429,-164.523 913.99,-170.765 916.014,-164.064"/>
</g>
<!-- Node23&#45;&gt;Node8 -->
<g id="edge46" class="edge"><title>Node23&#45;&gt;Node8</title>
<path fill="none" stroke="midnightblue" d="M426.444,-324.475C432.088,-315.638 441.061,-301.589 448.159,-290.475"/>
<polygon fill="midnightblue" stroke="midnightblue" points="451.133,-292.321 453.566,-282.009 445.233,-288.553 451.133,-292.321"/>
</g>
<!-- Node25 -->
<g id="node25" class="node"><title>Node25</title>
<g id="a_node25"><a xlink:href="PlatformSupportDefinitions_8hpp.html" target="_top" xlink:title=" ">
<polygon fill="none" stroke="black" points="184.5,-257.5 184.5,-287.5 337.5,-287.5 337.5,-257.5 184.5,-257.5"/>
<text text-anchor="start" x="192.5" y="-275.5" font-family="Helvetica,sans-Serif" font-size="10.00">xalanc/PlatformSupport</text>
<text text-anchor="middle" x="261" y="-264.5" font-family="Helvetica,sans-Serif" font-size="10.00">/PlatformSupportDefinitions.hpp</text>
</a>
</g>
</g>
<!-- Node24&#45;&gt;Node25 -->
<g id="edge48" class="edge"><title>Node24&#45;&gt;Node25</title>
<path fill="none" stroke="midnightblue" d="M229.598,-380.386C232.86,-370.279 237.298,-356.332 241,-344 245.618,-328.616 250.545,-311.259 254.354,-297.617"/>
<polygon fill="midnightblue" stroke="midnightblue" points="257.837,-298.153 257.141,-287.582 251.093,-296.28 257.837,-298.153"/>
</g>
<!-- Node26 -->
<g id="node26" class="node"><title>Node26</title>
<g id="a_node26"><a xlink:title=" ">
<polygon fill="none" stroke="#bfbfbf" points="131.5,-324.5 131.5,-343.5 232.5,-343.5 232.5,-324.5 131.5,-324.5"/>
<text text-anchor="middle" x="182" y="-331.5" font-family="Helvetica,sans-Serif" font-size="10.00">LocalMsgIndex.hpp</text>
</a>
</g>
</g>
<!-- Node24&#45;&gt;Node26 -->
<g id="edge50" class="edge"><title>Node24&#45;&gt;Node26</title>
<path fill="none" stroke="midnightblue" d="M214.81,-380.399C208.626,-371.842 200.697,-360.871 194.182,-351.857"/>
<polygon fill="midnightblue" stroke="midnightblue" points="196.951,-349.713 188.257,-343.658 191.278,-353.813 196.951,-349.713"/>
</g>
<!-- Node25&#45;&gt;Node3 -->
<g id="edge49" class="edge"><title>Node25&#45;&gt;Node3</title>
<path fill="none" stroke="midnightblue" d="M280.166,-257.369C327.174,-222.713 447.837,-133.753 495.852,-98.3542"/>
<polygon fill="midnightblue" stroke="midnightblue" points="498.219,-100.957 504.191,-92.2062 494.065,-95.3232 498.219,-100.957"/>
</g>
</g>
</svg>
