<?xml version="1.0" encoding="UTF-8" standalone="no"?>
<!DOCTYPE svg PUBLIC "-//W3C//DTD SVG 1.1//EN"
 "http://www.w3.org/Graphics/SVG/1.1/DTD/svg11.dtd">
<!-- Generated by graphviz version 2.43.0 (0)
 -->
<!-- Title: xalanc/XPath/XPathFactoryDefault.hpp Pages: 1 -->
<!--zoomable 408 -->
<svg id="main" version="1.1" xmlns="http://www.w3.org/2000/svg" xmlns:xlink="http://www.w3.org/1999/xlink" xml:space="preserve" onload="init(evt)">
<style type="text/css"><![CDATA[
.edge:hover path { stroke: red; }
.edge:hover polygon { stroke: red; fill: red; }
]]></style>
<script type="text/javascript"><![CDATA[
var edges = document.getElementsByTagName('g');
if (edges && edges.length) {
  for (var i=0;i<edges.length;i++) {
    if (edges[i].id.substr(0,4)=='edge') {
      edges[i].setAttribute('class','edge');
    }
  }
}
]]></script>
        <defs>
                <circle id="rim" cx="0" cy="0" r="7"/>
                <circle id="rim2" cx="0" cy="0" r="3.5"/>
                <g id="zoomPlus">
                        <use xlink:href="#rim" fill="#404040">
                                <set attributeName="fill" to="#808080" begin="zoomplus.mouseover" end="zoomplus.mouseout"/>
                        </use>
                        <path d="M-4,0h8M0,-4v8" fill="none" stroke="white" stroke-width="1.5" pointer-events="none"/>
                </g>
                <g id="zoomMin">
                        <use xlink:href="#rim" fill="#404040">
                                <set attributeName="fill" to="#808080" begin="zoomminus.mouseover" end="zoomminus.mouseout"/>
                        </use>
                        <path d="M-4,0h8" fill="none" stroke="white" stroke-width="1.5" pointer-events="none"/>
                </g>
                <g id="dirArrow">
                        <path fill="none" stroke="white" stroke-width="1.5" d="M0,-3.0v7 M-2.5,-0.5L0,-3.0L2.5,-0.5"/>
                </g>
               <g id="resetDef">
                       <use xlink:href="#rim2" fill="#404040">
                               <set attributeName="fill" to="#808080" begin="reset.mouseover" end="reset.mouseout"/>
                       </use>
               </g>
        </defs>

<script type="text/javascript">
var viewWidth = 1084;
var viewHeight = 408;
var sectionId = 'dynsection-0';
</script>
<script xlink:href="svgpan.js"/>
<svg id="graph" class="graph">
<g id="viewport">
<title>xalanc/XPath/XPathFactoryDefault.hpp</title>
<!-- Node1 -->
<g id="node1" class="node">
<title>Node1</title>
<g id="a_node1"><a xlink:title=" ">
<polygon fill="#bfbfbf" stroke="black" points="461,-369.5 461,-399.5 607,-399.5 607,-369.5 461,-369.5"/>
<text text-anchor="start" x="469" y="-387.5" font-family="Helvetica,sans-Serif" font-size="10.00">xalanc/XPath/XPathFactory</text>
<text text-anchor="middle" x="534" y="-376.5" font-family="Helvetica,sans-Serif" font-size="10.00">Default.hpp</text>
</a>
</g>
</g>
<!-- Node2 -->
<g id="node2" class="node">
<title>Node2</title>
<g id="a_node2"><a xlink:href="XPathDefinitions_8hpp.html" target="_top" xlink:title=" ">
<polygon fill="none" stroke="black" points="110,-201.5 110,-220.5 294,-220.5 294,-201.5 110,-201.5"/>
<text text-anchor="middle" x="202" y="-208.5" font-family="Helvetica,sans-Serif" font-size="10.00">xalanc/XPath/XPathDefinitions.hpp</text>
</a>
</g>
</g>
<!-- Node1&#45;&gt;Node2 -->
<g id="edge1" class="edge">
<title>Node1&#45;&gt;Node2</title>
<path fill="none" stroke="midnightblue" d="M506.83,-369.47C443.91,-336.96 288.92,-256.9 227.58,-225.21"/>
<polygon fill="midnightblue" stroke="midnightblue" points="229.06,-222.04 218.57,-220.56 225.85,-228.26 229.06,-222.04"/>
</g>
<!-- Node7 -->
<g id="node7" class="node">
<title>Node7</title>
<g id="a_node7"><a xlink:href="XalanSet_8hpp.html" target="_top" xlink:title=" ">
<polygon fill="none" stroke="black" points="456.5,-313.5 456.5,-332.5 611.5,-332.5 611.5,-313.5 456.5,-313.5"/>
<text text-anchor="middle" x="534" y="-320.5" font-family="Helvetica,sans-Serif" font-size="10.00">xalanc/Include/XalanSet.hpp</text>
</a>
</g>
</g>
<!-- Node1&#45;&gt;Node7 -->
<g id="edge6" class="edge">
<title>Node1&#45;&gt;Node7</title>
<path fill="none" stroke="midnightblue" d="M534,-369.4C534,-361.47 534,-351.46 534,-342.86"/>
<polygon fill="midnightblue" stroke="midnightblue" points="537.5,-342.66 534,-332.66 530.5,-342.66 537.5,-342.66"/>
</g>
<!-- Node21 -->
<g id="node21" class="node">
<title>Node21</title>
<g id="a_node21"><a xlink:href="XPathFactory_8hpp.html" target="_top" xlink:title=" ">
<polygon fill="none" stroke="black" points="910.5,-257.5 910.5,-276.5 1075.5,-276.5 1075.5,-257.5 910.5,-257.5"/>
<text text-anchor="middle" x="993" y="-264.5" font-family="Helvetica,sans-Serif" font-size="10.00">xalanc/XPath/XPathFactory.hpp</text>
</a>
</g>
</g>
<!-- Node1&#45;&gt;Node21 -->
<g id="edge38" class="edge">
<title>Node1&#45;&gt;Node21</title>
<path fill="none" stroke="midnightblue" d="M589.82,-369.45C682.35,-346.17 865.56,-300.07 949.34,-278.99"/>
<polygon fill="midnightblue" stroke="midnightblue" points="950.21,-282.38 959.05,-276.54 948.5,-275.59 950.21,-282.38"/>
</g>
<!-- Node3 -->
<g id="node3" class="node">
<title>Node3</title>
<g id="a_node3"><a xlink:href="PlatformDefinitions_8hpp.html" target="_top" xlink:title=" ">
<polygon fill="none" stroke="black" points="118,-73 118,-92 324,-92 324,-73 118,-73"/>
<text text-anchor="middle" x="221" y="-80" font-family="Helvetica,sans-Serif" font-size="10.00">xalanc/Include/PlatformDefinitions.hpp</text>
</a>
</g>
</g>
<!-- Node2&#45;&gt;Node3 -->
<g id="edge2" class="edge">
<title>Node2&#45;&gt;Node3</title>
<path fill="none" stroke="midnightblue" d="M203.31,-201.31C206.36,-180.99 214.01,-130.05 218.18,-102.28"/>
<polygon fill="midnightblue" stroke="midnightblue" points="221.66,-102.66 219.68,-92.26 214.74,-101.62 221.66,-102.66"/>
</g>
<!-- Node4 -->
<g id="node4" class="node">
<title>Node4</title>
<g id="a_node4"><a xlink:title=" ">
<polygon fill="none" stroke="#bfbfbf" points="0,-0.5 0,-30.5 120,-30.5 120,-0.5 0,-0.5"/>
<text text-anchor="start" x="8" y="-18.5" font-family="Helvetica,sans-Serif" font-size="10.00">xercesc/util/Xerces</text>
<text text-anchor="middle" x="60" y="-7.5" font-family="Helvetica,sans-Serif" font-size="10.00">_autoconf_config.hpp</text>
</a>
</g>
</g>
<!-- Node3&#45;&gt;Node4 -->
<g id="edge3" class="edge">
<title>Node3&#45;&gt;Node4</title>
<path fill="none" stroke="midnightblue" d="M199.62,-72.87C175.36,-63.07 135.12,-46.83 104.06,-34.29"/>
<polygon fill="midnightblue" stroke="midnightblue" points="105.33,-31.03 94.75,-30.53 102.71,-37.52 105.33,-31.03"/>
</g>
<!-- Node5 -->
<g id="node5" class="node">
<title>Node5</title>
<g id="a_node5"><a xlink:title=" ">
<polygon fill="none" stroke="#bfbfbf" points="138.5,-6 138.5,-25 303.5,-25 303.5,-6 138.5,-6"/>
<text text-anchor="middle" x="221" y="-13" font-family="Helvetica,sans-Serif" font-size="10.00">xercesc/util/XercesVersion.hpp</text>
</a>
</g>
</g>
<!-- Node3&#45;&gt;Node5 -->
<g id="edge4" class="edge">
<title>Node3&#45;&gt;Node5</title>
<path fill="none" stroke="midnightblue" d="M221,-72.73C221,-63.18 221,-47.62 221,-35.28"/>
<polygon fill="midnightblue" stroke="midnightblue" points="224.5,-35.13 221,-25.13 217.5,-35.13 224.5,-35.13"/>
</g>
<!-- Node6 -->
<g id="node6" class="node">
<title>Node6</title>
<g id="a_node6"><a xlink:href="XalanVersion_8hpp.html" target="_top" xlink:title=" ">
<polygon fill="none" stroke="black" points="321.5,-6 321.5,-25 496.5,-25 496.5,-6 321.5,-6"/>
<text text-anchor="middle" x="409" y="-13" font-family="Helvetica,sans-Serif" font-size="10.00">xalanc/Include/XalanVersion.hpp</text>
</a>
</g>
</g>
<!-- Node3&#45;&gt;Node6 -->
<g id="edge5" class="edge">
<title>Node3&#45;&gt;Node6</title>
<path fill="none" stroke="midnightblue" d="M245.96,-72.87C278.92,-61.47 337.12,-41.35 374.33,-28.49"/>
<polygon fill="midnightblue" stroke="midnightblue" points="375.92,-31.64 384.23,-25.06 373.64,-25.02 375.92,-31.64"/>
</g>
<!-- Node7&#45;&gt;Node3 -->
<g id="edge7" class="edge">
<title>Node7&#45;&gt;Node3</title>
<path fill="none" stroke="midnightblue" d="M456.47,-315.85C341.2,-304.91 133.28,-277.68 88,-221 74.5,-204.1 69.27,-171.49 99,-134 114.58,-114.36 139.12,-102.28 162.11,-94.89"/>
<polygon fill="midnightblue" stroke="midnightblue" points="163.25,-98.2 171.84,-92 161.26,-91.49 163.25,-98.2"/>
</g>
<!-- Node8 -->
<g id="node8" class="node">
<title>Node8</title>
<g id="a_node8"><a xlink:href="XalanMap_8hpp.html" target="_top" xlink:title=" ">
<polygon fill="none" stroke="black" points="454,-257.5 454,-276.5 614,-276.5 614,-257.5 454,-257.5"/>
<text text-anchor="middle" x="534" y="-264.5" font-family="Helvetica,sans-Serif" font-size="10.00">xalanc/Include/XalanMap.hpp</text>
</a>
</g>
</g>
<!-- Node7&#45;&gt;Node8 -->
<g id="edge8" class="edge">
<title>Node7&#45;&gt;Node8</title>
<path fill="none" stroke="midnightblue" d="M534,-313.08C534,-306.01 534,-295.86 534,-286.99"/>
<polygon fill="midnightblue" stroke="midnightblue" points="537.5,-286.75 534,-276.75 530.5,-286.75 537.5,-286.75"/>
</g>
<!-- Node18 -->
<g id="node18" class="node">
<title>Node18</title>
<g id="a_node18"><a xlink:href="XalanMemoryManagement_8hpp.html" target="_top" xlink:title=" ">
<polygon fill="none" stroke="black" points="808,-134.5 808,-164.5 966,-164.5 966,-134.5 808,-134.5"/>
<text text-anchor="start" x="816" y="-152.5" font-family="Helvetica,sans-Serif" font-size="10.00">xalanc/Include/XalanMemory</text>
<text text-anchor="middle" x="887" y="-141.5" font-family="Helvetica,sans-Serif" font-size="10.00">Management.hpp</text>
</a>
</g>
</g>
<!-- Node7&#45;&gt;Node18 -->
<g id="edge37" class="edge">
<title>Node7&#45;&gt;Node18</title>
<path fill="none" stroke="midnightblue" d="M593.81,-313.49C684.62,-299.23 850.52,-267.4 886,-221 895.93,-208.01 895.77,-189.38 893.35,-174.54"/>
<polygon fill="midnightblue" stroke="midnightblue" points="896.73,-173.62 891.29,-164.53 889.87,-175.03 896.73,-173.62"/>
</g>
<!-- Node8&#45;&gt;Node3 -->
<g id="edge9" class="edge">
<title>Node8&#45;&gt;Node3</title>
<path fill="none" stroke="midnightblue" d="M453.61,-263.36C334.89,-258.61 124.12,-246.65 101,-221 60.41,-175.98 147.51,-121.45 194.12,-96.77"/>
<polygon fill="midnightblue" stroke="midnightblue" points="195.85,-99.82 203.12,-92.11 192.63,-93.6 195.85,-99.82"/>
</g>
<!-- Node9 -->
<g id="node9" class="node">
<title>Node9</title>
<g id="a_node9"><a xlink:title=" ">
<polygon fill="none" stroke="#bfbfbf" points="513.5,-73 513.5,-92 566.5,-92 566.5,-73 513.5,-73"/>
<text text-anchor="middle" x="540" y="-80" font-family="Helvetica,sans-Serif" font-size="10.00">cstddef</text>
</a>
</g>
</g>
<!-- Node8&#45;&gt;Node9 -->
<g id="edge10" class="edge">
<title>Node8&#45;&gt;Node9</title>
<path fill="none" stroke="midnightblue" d="M454.82,-257.5C408.12,-250.67 355.41,-239.16 341,-221 322.12,-197.21 337.03,-161.49 367,-134 404.62,-99.49 464.56,-88.46 503.09,-84.99"/>
<polygon fill="midnightblue" stroke="midnightblue" points="503.65,-88.46 513.35,-84.2 503.11,-81.48 503.65,-88.46"/>
</g>
<!-- Node10 -->
<g id="node10" class="node">
<title>Node10</title>
<g id="a_node10"><a xlink:title=" ">
<polygon fill="none" stroke="#bfbfbf" points="540,-140 540,-159 604,-159 604,-140 540,-140"/>
<text text-anchor="middle" x="572" y="-147" font-family="Helvetica,sans-Serif" font-size="10.00">algorithm</text>
</a>
</g>
</g>
<!-- Node8&#45;&gt;Node10 -->
<g id="edge11" class="edge">
<title>Node8&#45;&gt;Node10</title>
<path fill="none" stroke="midnightblue" d="M536.37,-257.1C539.78,-244.52 546.37,-220.85 553,-201 556.62,-190.15 561.11,-178.17 564.81,-168.6"/>
<polygon fill="midnightblue" stroke="midnightblue" points="568.18,-169.6 568.57,-159.01 561.66,-167.04 568.18,-169.6"/>
</g>
<!-- Node11 -->
<g id="node11" class="node">
<title>Node11</title>
<g id="a_node11"><a xlink:title=" ">
<polygon fill="none" stroke="#bfbfbf" points="812.5,-201.5 812.5,-220.5 877.5,-220.5 877.5,-201.5 812.5,-201.5"/>
<text text-anchor="middle" x="845" y="-208.5" font-family="Helvetica,sans-Serif" font-size="10.00">functional</text>
</a>
</g>
</g>
<!-- Node8&#45;&gt;Node11 -->
<g id="edge12" class="edge">
<title>Node8&#45;&gt;Node11</title>
<path fill="none" stroke="midnightblue" d="M589.51,-257.47C641.76,-249.26 722.44,-236.16 802.24,-221.07"/>
<polygon fill="midnightblue" stroke="midnightblue" points="803.3,-224.43 812.47,-219.12 801.99,-217.55 803.3,-224.43"/>
</g>
<!-- Node12 -->
<g id="node12" class="node">
<title>Node12</title>
<g id="a_node12"><a xlink:title=" ">
<polygon fill="none" stroke="#bfbfbf" points="562.5,-201.5 562.5,-220.5 607.5,-220.5 607.5,-201.5 562.5,-201.5"/>
<text text-anchor="middle" x="585" y="-208.5" font-family="Helvetica,sans-Serif" font-size="10.00">utility</text>
</a>
</g>
</g>
<!-- Node8&#45;&gt;Node12 -->
<g id="edge13" class="edge">
<title>Node8&#45;&gt;Node12</title>
<path fill="none" stroke="midnightblue" d="M542.42,-257.08C549.85,-249.22 560.85,-237.57 569.81,-228.08"/>
<polygon fill="midnightblue" stroke="midnightblue" points="572.41,-230.42 576.74,-220.75 567.32,-225.62 572.41,-230.42"/>
</g>
<!-- Node13 -->
<g id="node13" class="node">
<title>Node13</title>
<g id="a_node13"><a xlink:href="XalanVector_8hpp.html" target="_top" xlink:title=" ">
<polygon fill="none" stroke="black" points="625.5,-201.5 625.5,-220.5 794.5,-220.5 794.5,-201.5 625.5,-201.5"/>
<text text-anchor="middle" x="710" y="-208.5" font-family="Helvetica,sans-Serif" font-size="10.00">xalanc/Include/XalanVector.hpp</text>
</a>
</g>
</g>
<!-- Node8&#45;&gt;Node13 -->
<g id="edge14" class="edge">
<title>Node8&#45;&gt;Node13</title>
<path fill="none" stroke="midnightblue" d="M561.89,-257.44C591.75,-248.28 639.31,-233.69 672.46,-223.52"/>
<polygon fill="midnightblue" stroke="midnightblue" points="673.71,-226.8 682.24,-220.52 671.66,-220.1 673.71,-226.8"/>
</g>
<!-- Node20 -->
<g id="node20" class="node">
<title>Node20</title>
<g id="a_node20"><a xlink:href="XalanList_8hpp.html" target="_top" xlink:title=" ">
<polygon fill="none" stroke="black" points="350,-201.5 350,-220.5 506,-220.5 506,-201.5 350,-201.5"/>
<text text-anchor="middle" x="428" y="-208.5" font-family="Helvetica,sans-Serif" font-size="10.00">xalanc/Include/XalanList.hpp</text>
</a>
</g>
</g>
<!-- Node8&#45;&gt;Node20 -->
<g id="edge28" class="edge">
<title>Node8&#45;&gt;Node20</title>
<path fill="none" stroke="midnightblue" d="M516.97,-257.32C499.97,-248.66 473.62,-235.24 454.01,-225.25"/>
<polygon fill="midnightblue" stroke="midnightblue" points="455.49,-222.08 444.99,-220.65 452.31,-228.31 455.49,-222.08"/>
</g>
<!-- Node13&#45;&gt;Node3 -->
<g id="edge15" class="edge">
<title>Node13&#45;&gt;Node3</title>
<path fill="none" stroke="midnightblue" d="M709.86,-201.26C709.08,-185.11 704.9,-150.73 684,-134 657.22,-112.57 462.59,-97.37 334.34,-89.55"/>
<polygon fill="midnightblue" stroke="midnightblue" points="334.27,-86.04 324.08,-88.93 333.85,-93.02 334.27,-86.04"/>
</g>
<!-- Node13&#45;&gt;Node9 -->
<g id="edge16" class="edge">
<title>Node13&#45;&gt;Node9</title>
<path fill="none" stroke="midnightblue" d="M714.35,-201.46C721.43,-186.23 733.2,-154.11 718,-134 701.03,-111.54 623.88,-96.17 576.9,-88.7"/>
<polygon fill="midnightblue" stroke="midnightblue" points="577.21,-85.21 566.79,-87.14 576.14,-92.13 577.21,-85.21"/>
</g>
<!-- Node13&#45;&gt;Node10 -->
<g id="edge17" class="edge">
<title>Node13&#45;&gt;Node10</title>
<path fill="none" stroke="midnightblue" d="M690.23,-201.48C666.86,-191.4 627.79,-174.55 601,-163"/>
<polygon fill="midnightblue" stroke="midnightblue" points="602.3,-159.75 591.74,-159.01 599.53,-166.18 602.3,-159.75"/>
</g>
<!-- Node14 -->
<g id="node14" class="node">
<title>Node14</title>
<g id="a_node14"><a xlink:title=" ">
<polygon fill="none" stroke="#bfbfbf" points="975,-73 975,-92 1027,-92 1027,-73 975,-73"/>
<text text-anchor="middle" x="1001" y="-80" font-family="Helvetica,sans-Serif" font-size="10.00">cassert</text>
</a>
</g>
</g>
<!-- Node13&#45;&gt;Node14 -->
<g id="edge18" class="edge">
<title>Node13&#45;&gt;Node14</title>
<path fill="none" stroke="midnightblue" d="M783.49,-201.48C856.82,-192.35 960.62,-177.49 975,-165 993.1,-149.28 998.71,-120.98 1000.39,-102.22"/>
<polygon fill="midnightblue" stroke="midnightblue" points="1003.88,-102.39 1000.99,-92.2 996.9,-101.97 1003.88,-102.39"/>
</g>
<!-- Node15 -->
<g id="node15" class="node">
<title>Node15</title>
<g id="a_node15"><a xlink:title=" ">
<polygon fill="none" stroke="#bfbfbf" points="748.5,-73 748.5,-92 785.5,-92 785.5,-73 748.5,-73"/>
<text text-anchor="middle" x="767" y="-80" font-family="Helvetica,sans-Serif" font-size="10.00">new</text>
</a>
</g>
</g>
<!-- Node13&#45;&gt;Node15 -->
<g id="edge19" class="edge">
<title>Node13&#45;&gt;Node15</title>
<path fill="none" stroke="midnightblue" d="M722.83,-201.27C733.59,-193.19 748.38,-180.18 756,-165 765.89,-145.3 767.85,-119.72 767.85,-102.52"/>
<polygon fill="midnightblue" stroke="midnightblue" points="771.34,-102.04 767.61,-92.12 764.34,-102.2 771.34,-102.04"/>
</g>
<!-- Node16 -->
<g id="node16" class="node">
<title>Node16</title>
<g id="a_node16"><a xlink:title=" ">
<polygon fill="none" stroke="#bfbfbf" points="622.5,-140 622.5,-159 675.5,-159 675.5,-140 622.5,-140"/>
<text text-anchor="middle" x="649" y="-147" font-family="Helvetica,sans-Serif" font-size="10.00">iterator</text>
</a>
</g>
</g>
<!-- Node13&#45;&gt;Node16 -->
<g id="edge20" class="edge">
<title>Node13&#45;&gt;Node16</title>
<path fill="none" stroke="midnightblue" d="M701.26,-201.48C691.84,-192.28 676.64,-177.46 665.05,-166.16"/>
<polygon fill="midnightblue" stroke="midnightblue" points="667.33,-163.49 657.72,-159.01 662.44,-168.5 667.33,-163.49"/>
</g>
<!-- Node17 -->
<g id="node17" class="node">
<title>Node17</title>
<g id="a_node17"><a xlink:title=" ">
<polygon fill="none" stroke="#bfbfbf" points="456.5,-140 456.5,-159 521.5,-159 521.5,-140 456.5,-140"/>
<text text-anchor="middle" x="489" y="-147" font-family="Helvetica,sans-Serif" font-size="10.00">stdexcept</text>
</a>
</g>
</g>
<!-- Node13&#45;&gt;Node17 -->
<g id="edge21" class="edge">
<title>Node13&#45;&gt;Node17</title>
<path fill="none" stroke="midnightblue" d="M672.03,-201.46C635.62,-193.03 579.22,-179.35 531,-165 528.23,-164.17 525.37,-163.28 522.5,-162.35"/>
<polygon fill="midnightblue" stroke="midnightblue" points="523.47,-158.99 512.87,-159.14 521.25,-165.63 523.47,-158.99"/>
</g>
<!-- Node13&#45;&gt;Node18 -->
<g id="edge22" class="edge">
<title>Node13&#45;&gt;Node18</title>
<path fill="none" stroke="midnightblue" d="M735.36,-201.48C761.46,-192.7 802.85,-178.79 835.8,-167.71"/>
<polygon fill="midnightblue" stroke="midnightblue" points="836.92,-171.03 845.28,-164.52 834.69,-164.39 836.92,-171.03"/>
</g>
<!-- Node18&#45;&gt;Node3 -->
<g id="edge23" class="edge">
<title>Node18&#45;&gt;Node3</title>
<path fill="none" stroke="midnightblue" d="M807.99,-140.79C685.75,-128.86 451.1,-105.96 318.5,-93.02"/>
<polygon fill="midnightblue" stroke="midnightblue" points="318.64,-89.51 308.35,-92.02 317.96,-96.48 318.64,-89.51"/>
</g>
<!-- Node18&#45;&gt;Node9 -->
<g id="edge25" class="edge">
<title>Node18&#45;&gt;Node9</title>
<path fill="none" stroke="midnightblue" d="M812.13,-134.48C739.51,-120.87 632.36,-100.8 576.66,-90.37"/>
<polygon fill="midnightblue" stroke="midnightblue" points="577.03,-86.87 566.55,-88.47 575.74,-93.76 577.03,-86.87"/>
</g>
<!-- Node18&#45;&gt;Node14 -->
<g id="edge24" class="edge">
<title>Node18&#45;&gt;Node14</title>
<path fill="none" stroke="midnightblue" d="M911.74,-134.4C931.21,-123.29 958.17,-107.92 977.35,-96.98"/>
<polygon fill="midnightblue" stroke="midnightblue" points="979.13,-100 986.08,-92.01 975.66,-93.92 979.13,-100"/>
</g>
<!-- Node18&#45;&gt;Node15 -->
<g id="edge26" class="edge">
<title>Node18&#45;&gt;Node15</title>
<path fill="none" stroke="midnightblue" d="M860.96,-134.4C840.37,-123.24 811.83,-107.78 791.62,-96.83"/>
<polygon fill="midnightblue" stroke="midnightblue" points="793.17,-93.69 782.71,-92.01 789.83,-99.85 793.17,-93.69"/>
</g>
<!-- Node19 -->
<g id="node19" class="node">
<title>Node19</title>
<g id="a_node19"><a xlink:title=" ">
<polygon fill="none" stroke="#bfbfbf" points="803.5,-67.5 803.5,-97.5 956.5,-97.5 956.5,-67.5 803.5,-67.5"/>
<text text-anchor="start" x="811.5" y="-85.5" font-family="Helvetica,sans-Serif" font-size="10.00">xercesc/framework/Memory</text>
<text text-anchor="middle" x="880" y="-74.5" font-family="Helvetica,sans-Serif" font-size="10.00">Manager.hpp</text>
</a>
</g>
</g>
<!-- Node18&#45;&gt;Node19 -->
<g id="edge27" class="edge">
<title>Node18&#45;&gt;Node19</title>
<path fill="none" stroke="midnightblue" d="M885.48,-134.4C884.64,-126.56 883.56,-116.6 882.59,-107.57"/>
<polygon fill="midnightblue" stroke="midnightblue" points="886.07,-107.14 881.52,-97.58 879.11,-107.89 886.07,-107.14"/>
</g>
<!-- Node20&#45;&gt;Node3 -->
<g id="edge29" class="edge">
<title>Node20&#45;&gt;Node3</title>
<path fill="none" stroke="midnightblue" d="M413.77,-201.31C378.46,-179.72 286.55,-123.56 243.66,-97.35"/>
<polygon fill="midnightblue" stroke="midnightblue" points="245.41,-94.32 235.05,-92.09 241.76,-100.29 245.41,-94.32"/>
</g>
<!-- Node20&#45;&gt;Node9 -->
<g id="edge30" class="edge">
<title>Node20&#45;&gt;Node9</title>
<path fill="none" stroke="midnightblue" d="M412.22,-201.47C399.8,-193.77 383.39,-181.18 376,-165 370.27,-152.47 367.82,-145.08 376,-134 405.04,-94.68 464.22,-85.02 502.98,-83.15"/>
<polygon fill="midnightblue" stroke="midnightblue" points="503.45,-86.63 513.33,-82.81 503.22,-79.64 503.45,-86.63"/>
</g>
<!-- Node20&#45;&gt;Node10 -->
<g id="edge31" class="edge">
<title>Node20&#45;&gt;Node10</title>
<path fill="none" stroke="midnightblue" d="M448.63,-201.48C473.12,-191.36 514.15,-174.4 542.11,-162.85"/>
<polygon fill="midnightblue" stroke="midnightblue" points="543.5,-166.06 551.41,-159.01 540.83,-159.59 543.5,-166.06"/>
</g>
<!-- Node20&#45;&gt;Node14 -->
<g id="edge32" class="edge">
<title>Node20&#45;&gt;Node14</title>
<path fill="none" stroke="midnightblue" d="M427.22,-201.27C426.31,-185.14 426.99,-150.77 447,-134 491.22,-96.94 908.77,-110.94 965,-98 967.83,-97.35 970.73,-96.5 973.59,-95.55"/>
<polygon fill="midnightblue" stroke="midnightblue" points="974.91,-98.8 983.04,-92.02 972.45,-92.24 974.91,-98.8"/>
</g>
<!-- Node20&#45;&gt;Node15 -->
<g id="edge33" class="edge">
<title>Node20&#45;&gt;Node15</title>
<path fill="none" stroke="midnightblue" d="M422.36,-201.29C413.1,-185.79 397.3,-153.26 414,-134 435.21,-109.54 657.41,-91.34 738,-85.5"/>
<polygon fill="midnightblue" stroke="midnightblue" points="738.68,-88.96 748.4,-84.75 738.18,-81.98 738.68,-88.96"/>
</g>
<!-- Node20&#45;&gt;Node16 -->
<g id="edge34" class="edge">
<title>Node20&#45;&gt;Node16</title>
<path fill="none" stroke="midnightblue" d="M470.73,-201.44C508.54,-193.43 565.01,-180.41 613,-165 615.14,-164.31 617.33,-163.56 619.52,-162.77"/>
<polygon fill="midnightblue" stroke="midnightblue" points="620.91,-165.99 629.01,-159.15 618.41,-159.45 620.91,-165.99"/>
</g>
<!-- Node20&#45;&gt;Node17 -->
<g id="edge35" class="edge">
<title>Node20&#45;&gt;Node17</title>
<path fill="none" stroke="midnightblue" d="M436.74,-201.48C446.16,-192.28 461.36,-177.46 472.95,-166.16"/>
<polygon fill="midnightblue" stroke="midnightblue" points="475.56,-168.5 480.28,-159.01 470.67,-163.49 475.56,-168.5"/>
</g>
<!-- Node20&#45;&gt;Node18 -->
<g id="edge36" class="edge">
<title>Node20&#45;&gt;Node18</title>
<path fill="none" stroke="midnightblue" d="M493.76,-201.48C573.6,-191.13 708.61,-173.62 797.78,-162.07"/>
<polygon fill="midnightblue" stroke="midnightblue" points="798.41,-165.51 807.88,-160.76 797.51,-158.57 798.41,-165.51"/>
</g>
<!-- Node21&#45;&gt;Node2 -->
<g id="edge39" class="edge">
<title>Node21&#45;&gt;Node2</title>
<path fill="none" stroke="midnightblue" d="M910.22,-260.35C764.55,-250.4 462.87,-229.81 304.37,-218.99"/>
<polygon fill="midnightblue" stroke="midnightblue" points="304.36,-215.48 294.14,-218.29 303.88,-222.46 304.36,-215.48"/>
</g>
<!-- Node21&#45;&gt;Node11 -->
<g id="edge42" class="edge">
<title>Node21&#45;&gt;Node11</title>
<path fill="none" stroke="midnightblue" d="M969.55,-257.44C944.87,-248.44 905.81,-234.19 878.02,-224.05"/>
<polygon fill="midnightblue" stroke="midnightblue" points="878.94,-220.66 868.34,-220.52 876.54,-227.23 878.94,-220.66"/>
</g>
<!-- Node21&#45;&gt;Node14 -->
<g id="edge41" class="edge">
<title>Node21&#45;&gt;Node14</title>
<path fill="none" stroke="midnightblue" d="M993.62,-257.36C994.83,-239.91 997.56,-199.22 999,-165 999.9,-143.61 1000.43,-119.04 1000.72,-102.52"/>
<polygon fill="midnightblue" stroke="midnightblue" points="1004.23,-102.12 1000.89,-92.07 997.23,-102.01 1004.23,-102.12"/>
</g>
<!-- Node21&#45;&gt;Node18 -->
<g id="edge40" class="edge">
<title>Node21&#45;&gt;Node18</title>
<path fill="none" stroke="midnightblue" d="M985.03,-257.32C968.54,-239.35 930.23,-197.61 906.68,-171.95"/>
<polygon fill="midnightblue" stroke="midnightblue" points="909.23,-169.55 899.89,-164.55 904.07,-174.28 909.23,-169.55"/>
</g>
</g>
</svg>
        <g id="navigator" transform="translate(0 0)" fill="#404254">
                <rect fill="#f2f5e9" fill-opacity="0.5" stroke="#606060" stroke-width=".5" x="0" y="0" width="60" height="60"/>
                <use id="zoomplus" xlink:href="#zoomPlus" x="17" y="9" onmousedown="handleZoom(evt,'in')"/>
                <use id="zoomminus" xlink:href="#zoomMin" x="42" y="9" onmousedown="handleZoom(evt,'out')"/>
                <use id="reset" xlink:href="#resetDef" x="30" y="36" onmousedown="handleReset()"/>
                <g id="arrowUp" xlink:href="#dirArrow" transform="translate(30 24)" onmousedown="handlePan(0,-1)">
                  <use xlink:href="#rim" fill="#404040">
                        <set attributeName="fill" to="#808080" begin="arrowUp.mouseover" end="arrowUp.mouseout"/>
                  </use>
                  <path fill="none" stroke="white" stroke-width="1.5" d="M0,-3.0v7 M-2.5,-0.5L0,-3.0L2.5,-0.5"/>
                </g>
                <g id="arrowRight" xlink:href="#dirArrow" transform="rotate(90) translate(36 -43)" onmousedown="handlePan(1,0)">
                  <use xlink:href="#rim" fill="#404040">
                        <set attributeName="fill" to="#808080" begin="arrowRight.mouseover" end="arrowRight.mouseout"/>
                  </use>
                  <path fill="none" stroke="white" stroke-width="1.5" d="M0,-3.0v7 M-2.5,-0.5L0,-3.0L2.5,-0.5"/>
                </g>
                <g id="arrowDown" xlink:href="#dirArrow" transform="rotate(180) translate(-30 -48)" onmousedown="handlePan(0,1)">
                  <use xlink:href="#rim" fill="#404040">
                        <set attributeName="fill" to="#808080" begin="arrowDown.mouseover" end="arrowDown.mouseout"/>
                  </use>
                  <path fill="none" stroke="white" stroke-width="1.5" d="M0,-3.0v7 M-2.5,-0.5L0,-3.0L2.5,-0.5"/>
                </g>
                <g id="arrowLeft" xlink:href="#dirArrow" transform="rotate(270) translate(-36 17)" onmousedown="handlePan(-1,0)">
                  <use xlink:href="#rim" fill="#404040">
                        <set attributeName="fill" to="#808080" begin="arrowLeft.mouseover" end="arrowLeft.mouseout"/>
                  </use>
                  <path fill="none" stroke="white" stroke-width="1.5" d="M0,-3.0v7 M-2.5,-0.5L0,-3.0L2.5,-0.5"/>
                </g>
        </g>
        <svg viewBox="0 0 15 15" width="100%" height="30px" preserveAspectRatio="xMaxYMin meet">
         <g id="arrow_out" transform="scale(0.3 0.3)">
          <a xlink:href="XPathFactoryDefault_8hpp__incl_org.svg" target="_base">
           <rect id="button" ry="5" rx="5" y="6" x="6" height="38" width="38"
                fill="#f2f5e9" fill-opacity="0.5" stroke="#606060" stroke-width="1.0"/>
           <path id="arrow"
             d="M 11.500037,31.436501 C 11.940474,20.09759 22.043105,11.32322 32.158766,21.979434 L 37.068811,17.246167 C 37.068811,17.246167 37.088388,32 37.088388,32 L 22.160133,31.978069 C 22.160133,31.978069 26.997745,27.140456 26.997745,27.140456 C 18.528582,18.264221 13.291696,25.230495 11.500037,31.436501 z"
             style="fill:#404040;"/>
          </a>
         </g>
        </svg>
</svg>
