<?xml version="1.0" encoding="UTF-8" standalone="no"?>
<!DOCTYPE svg PUBLIC "-//W3C//DTD SVG 1.1//EN"
 "http://www.w3.org/Graphics/SVG/1.1/DTD/svg11.dtd">
<!-- Generated by graphviz version 2.43.0 (0)
 -->
<!-- Title: xalanc/XPath/XPathExecutionContext.hpp Pages: 1 -->
<svg width="1488pt" height="497pt"
 viewBox="0.00 0.00 1488.00 497.00" xmlns="http://www.w3.org/2000/svg" xmlns:xlink="http://www.w3.org/1999/xlink">
<g id="graph0" class="graph" transform="scale(1 1) rotate(0) translate(4 493)">
<title>xalanc/XPath/XPathExecutionContext.hpp</title>
<!-- Node1 -->
<g id="node1" class="node">
<title>Node1</title>
<g id="a_node1"><a xlink:title=" ">
<polygon fill="#bfbfbf" stroke="black" points="848,-458.5 848,-488.5 1006,-488.5 1006,-458.5 848,-458.5"/>
<text text-anchor="start" x="856" y="-476.5" font-family="Helvetica,sans-Serif" font-size="10.00">xalanc/XPath/XPathExecution</text>
<text text-anchor="middle" x="927" y="-465.5" font-family="Helvetica,sans-Serif" font-size="10.00">Context.hpp</text>
</a>
</g>
</g>
<!-- Node2 -->
<g id="node2" class="node">
<title>Node2</title>
<g id="a_node2"><a xlink:href="XPathDefinitions_8hpp.html" target="_top" xlink:title=" ">
<polygon fill="none" stroke="black" points="1296,-140 1296,-159 1480,-159 1480,-140 1296,-140"/>
<text text-anchor="middle" x="1388" y="-147" font-family="Helvetica,sans-Serif" font-size="10.00">xalanc/XPath/XPathDefinitions.hpp</text>
</a>
</g>
</g>
<!-- Node1&#45;&gt;Node2 -->
<g id="edge1" class="edge">
<title>Node1&#45;&gt;Node2</title>
<path fill="none" stroke="midnightblue" d="M1006.09,-471C1155.64,-466 1465,-444.42 1465,-351.5 1465,-351.5 1465,-351.5 1465,-282.5 1465,-235.03 1427.39,-189.44 1404.74,-166.29"/>
<polygon fill="midnightblue" stroke="midnightblue" points="1407.01,-163.61 1397.44,-159.07 1402.09,-168.59 1407.01,-163.61"/>
</g>
<!-- Node7 -->
<g id="node7" class="node">
<title>Node7</title>
<g id="a_node7"><a xlink:title=" ">
<polygon fill="none" stroke="#bfbfbf" points="50,-73 50,-92 102,-92 102,-73 50,-73"/>
<text text-anchor="middle" x="76" y="-80" font-family="Helvetica,sans-Serif" font-size="10.00">cassert</text>
</a>
</g>
</g>
<!-- Node1&#45;&gt;Node7 -->
<g id="edge6" class="edge">
<title>Node1&#45;&gt;Node7</title>
<path fill="none" stroke="midnightblue" d="M847.96,-470.44C623.79,-463.54 0,-436.71 0,-351.5 0,-351.5 0,-351.5 0,-215.5 0,-168.19 37.12,-122.54 59.47,-99.33"/>
<polygon fill="midnightblue" stroke="midnightblue" points="62.11,-101.65 66.68,-92.09 57.14,-96.71 62.11,-101.65"/>
</g>
<!-- Node8 -->
<g id="node8" class="node">
<title>Node8</title>
<g id="a_node8"><a xlink:href="XalanVector_8hpp.html" target="_top" xlink:title=" ">
<polygon fill="none" stroke="black" points="459.5,-207 459.5,-226 628.5,-226 628.5,-207 459.5,-207"/>
<text text-anchor="middle" x="544" y="-214" font-family="Helvetica,sans-Serif" font-size="10.00">xalanc/Include/XalanVector.hpp</text>
</a>
</g>
</g>
<!-- Node1&#45;&gt;Node8 -->
<g id="edge7" class="edge">
<title>Node1&#45;&gt;Node8</title>
<path fill="none" stroke="midnightblue" d="M847.99,-471.82C754.82,-469.29 607.7,-459.3 569,-422 517.68,-372.54 531.11,-276.18 539.58,-235.89"/>
<polygon fill="midnightblue" stroke="midnightblue" points="543,-236.63 541.78,-226.1 536.17,-235.09 543,-236.63"/>
</g>
<!-- Node16 -->
<g id="node16" class="node">
<title>Node16</title>
<g id="a_node16"><a xlink:href="XalanDOMString_8hpp.html" target="_top" xlink:title=" ">
<polygon fill="none" stroke="black" points="578,-402.5 578,-421.5 786,-421.5 786,-402.5 578,-402.5"/>
<text text-anchor="middle" x="682" y="-409.5" font-family="Helvetica,sans-Serif" font-size="10.00">xalanc/XalanDOM/XalanDOMString.hpp</text>
</a>
</g>
</g>
<!-- Node1&#45;&gt;Node16 -->
<g id="edge21" class="edge">
<title>Node1&#45;&gt;Node16</title>
<path fill="none" stroke="midnightblue" d="M869.25,-458.47C825.69,-447.9 766.8,-433.59 726.78,-423.87"/>
<polygon fill="midnightblue" stroke="midnightblue" points="727.57,-420.47 717.03,-421.51 725.92,-427.27 727.57,-420.47"/>
</g>
<!-- Node24 -->
<g id="node24" class="node">
<title>Node24</title>
<g id="a_node24"><a xlink:href="ExecutionContext_8hpp.html" target="_top" xlink:title=" ">
<polygon fill="none" stroke="black" points="1086.5,-268.5 1086.5,-298.5 1217.5,-298.5 1217.5,-268.5 1086.5,-268.5"/>
<text text-anchor="start" x="1094.5" y="-286.5" font-family="Helvetica,sans-Serif" font-size="10.00">xalanc/PlatformSupport</text>
<text text-anchor="middle" x="1152" y="-275.5" font-family="Helvetica,sans-Serif" font-size="10.00">/ExecutionContext.hpp</text>
</a>
</g>
</g>
<!-- Node1&#45;&gt;Node24 -->
<g id="edge49" class="edge">
<title>Node1&#45;&gt;Node24</title>
<path fill="none" stroke="midnightblue" d="M946.66,-458.25C973.85,-438.34 1024.2,-400.71 1065,-366 1087.96,-346.46 1112.97,-322.77 1130.25,-305.97"/>
<polygon fill="midnightblue" stroke="midnightblue" points="1132.9,-308.27 1137.61,-298.78 1128.01,-303.26 1132.9,-308.27"/>
</g>
<!-- Node28 -->
<g id="node28" class="node">
<title>Node28</title>
<g id="a_node28"><a xlink:href="MutableNodeRefList_8hpp.html" target="_top" xlink:title=" ">
<polygon fill="none" stroke="black" points="1243,-335.5 1243,-365.5 1391,-365.5 1391,-335.5 1243,-335.5"/>
<text text-anchor="start" x="1251" y="-353.5" font-family="Helvetica,sans-Serif" font-size="10.00">xalanc/XPath/MutableNode</text>
<text text-anchor="middle" x="1317" y="-342.5" font-family="Helvetica,sans-Serif" font-size="10.00">RefList.hpp</text>
</a>
</g>
</g>
<!-- Node1&#45;&gt;Node28 -->
<g id="edge56" class="edge">
<title>Node1&#45;&gt;Node28</title>
<path fill="none" stroke="midnightblue" d="M992.65,-458.48C1033.16,-449.31 1085.99,-436.37 1132,-422 1181.54,-406.52 1237.01,-384.77 1274.17,-369.54"/>
<polygon fill="midnightblue" stroke="midnightblue" points="1275.77,-372.67 1283.68,-365.62 1273.1,-366.19 1275.77,-372.67"/>
</g>
<!-- Node3 -->
<g id="node3" class="node">
<title>Node3</title>
<g id="a_node3"><a xlink:href="PlatformDefinitions_8hpp.html" target="_top" xlink:title=" ">
<polygon fill="none" stroke="black" points="750,-73 750,-92 956,-92 956,-73 750,-73"/>
<text text-anchor="middle" x="853" y="-80" font-family="Helvetica,sans-Serif" font-size="10.00">xalanc/Include/PlatformDefinitions.hpp</text>
</a>
</g>
</g>
<!-- Node2&#45;&gt;Node3 -->
<g id="edge2" class="edge">
<title>Node2&#45;&gt;Node3</title>
<path fill="none" stroke="midnightblue" d="M1327.21,-139.98C1312.42,-137.97 1296.65,-135.86 1282,-134 1163.21,-118.88 1025.7,-102.98 939.05,-93.15"/>
<polygon fill="midnightblue" stroke="midnightblue" points="939.33,-89.66 929,-92.01 938.54,-96.61 939.33,-89.66"/>
</g>
<!-- Node4 -->
<g id="node4" class="node">
<title>Node4</title>
<g id="a_node4"><a xlink:title=" ">
<polygon fill="none" stroke="#bfbfbf" points="632,-0.5 632,-30.5 752,-30.5 752,-0.5 632,-0.5"/>
<text text-anchor="start" x="640" y="-18.5" font-family="Helvetica,sans-Serif" font-size="10.00">xercesc/util/Xerces</text>
<text text-anchor="middle" x="692" y="-7.5" font-family="Helvetica,sans-Serif" font-size="10.00">_autoconf_config.hpp</text>
</a>
</g>
</g>
<!-- Node3&#45;&gt;Node4 -->
<g id="edge3" class="edge">
<title>Node3&#45;&gt;Node4</title>
<path fill="none" stroke="midnightblue" d="M831.62,-72.87C807.36,-63.07 767.12,-46.83 736.06,-34.29"/>
<polygon fill="midnightblue" stroke="midnightblue" points="737.33,-31.03 726.75,-30.53 734.71,-37.52 737.33,-31.03"/>
</g>
<!-- Node5 -->
<g id="node5" class="node">
<title>Node5</title>
<g id="a_node5"><a xlink:title=" ">
<polygon fill="none" stroke="#bfbfbf" points="770.5,-6 770.5,-25 935.5,-25 935.5,-6 770.5,-6"/>
<text text-anchor="middle" x="853" y="-13" font-family="Helvetica,sans-Serif" font-size="10.00">xercesc/util/XercesVersion.hpp</text>
</a>
</g>
</g>
<!-- Node3&#45;&gt;Node5 -->
<g id="edge4" class="edge">
<title>Node3&#45;&gt;Node5</title>
<path fill="none" stroke="midnightblue" d="M853,-72.73C853,-63.18 853,-47.62 853,-35.28"/>
<polygon fill="midnightblue" stroke="midnightblue" points="856.5,-35.13 853,-25.13 849.5,-35.13 856.5,-35.13"/>
</g>
<!-- Node6 -->
<g id="node6" class="node">
<title>Node6</title>
<g id="a_node6"><a xlink:href="XalanVersion_8hpp.html" target="_top" xlink:title=" ">
<polygon fill="none" stroke="black" points="953.5,-6 953.5,-25 1128.5,-25 1128.5,-6 953.5,-6"/>
<text text-anchor="middle" x="1041" y="-13" font-family="Helvetica,sans-Serif" font-size="10.00">xalanc/Include/XalanVersion.hpp</text>
</a>
</g>
</g>
<!-- Node3&#45;&gt;Node6 -->
<g id="edge5" class="edge">
<title>Node3&#45;&gt;Node6</title>
<path fill="none" stroke="midnightblue" d="M877.96,-72.87C910.92,-61.47 969.12,-41.35 1006.33,-28.49"/>
<polygon fill="midnightblue" stroke="midnightblue" points="1007.92,-31.64 1016.23,-25.06 1005.64,-25.02 1007.92,-31.64"/>
</g>
<!-- Node8&#45;&gt;Node3 -->
<g id="edge8" class="edge">
<title>Node8&#45;&gt;Node3</title>
<path fill="none" stroke="midnightblue" d="M557.41,-206.91C582.85,-190.9 640.21,-156.12 692,-134 730.57,-117.52 776.37,-103.68 809.23,-94.68"/>
<polygon fill="midnightblue" stroke="midnightblue" points="810.25,-98.03 819,-92.04 808.43,-91.27 810.25,-98.03"/>
</g>
<!-- Node8&#45;&gt;Node7 -->
<g id="edge11" class="edge">
<title>Node8&#45;&gt;Node7</title>
<path fill="none" stroke="midnightblue" d="M491.35,-207C477.89,-204.93 463.42,-202.8 450,-201 379.73,-191.59 193.93,-201.25 133,-165 108.47,-150.41 91.86,-120.68 83.16,-101.45"/>
<polygon fill="midnightblue" stroke="midnightblue" points="86.38,-100.07 79.24,-92.24 79.94,-102.82 86.38,-100.07"/>
</g>
<!-- Node9 -->
<g id="node9" class="node">
<title>Node9</title>
<g id="a_node9"><a xlink:title=" ">
<polygon fill="none" stroke="#bfbfbf" points="608.5,-73 608.5,-92 661.5,-92 661.5,-73 608.5,-73"/>
<text text-anchor="middle" x="635" y="-80" font-family="Helvetica,sans-Serif" font-size="10.00">cstddef</text>
</a>
</g>
</g>
<!-- Node8&#45;&gt;Node9 -->
<g id="edge9" class="edge">
<title>Node8&#45;&gt;Node9</title>
<path fill="none" stroke="midnightblue" d="M549.97,-206.84C564.82,-185.3 603.63,-129 623.27,-100.52"/>
<polygon fill="midnightblue" stroke="midnightblue" points="626.33,-102.24 629.13,-92.02 620.57,-98.27 626.33,-102.24"/>
</g>
<!-- Node10 -->
<g id="node10" class="node">
<title>Node10</title>
<g id="a_node10"><a xlink:title=" ">
<polygon fill="none" stroke="#bfbfbf" points="701,-140 701,-159 765,-159 765,-140 701,-140"/>
<text text-anchor="middle" x="733" y="-147" font-family="Helvetica,sans-Serif" font-size="10.00">algorithm</text>
</a>
</g>
</g>
<!-- Node8&#45;&gt;Node10 -->
<g id="edge10" class="edge">
<title>Node8&#45;&gt;Node10</title>
<path fill="none" stroke="midnightblue" d="M569.1,-206.87C602.37,-195.42 661.24,-175.18 698.62,-162.32"/>
<polygon fill="midnightblue" stroke="midnightblue" points="699.78,-165.63 708.1,-159.06 697.5,-159.01 699.78,-165.63"/>
</g>
<!-- Node11 -->
<g id="node11" class="node">
<title>Node11</title>
<g id="a_node11"><a xlink:title=" ">
<polygon fill="none" stroke="#bfbfbf" points="312.5,-73 312.5,-92 349.5,-92 349.5,-73 312.5,-73"/>
<text text-anchor="middle" x="331" y="-80" font-family="Helvetica,sans-Serif" font-size="10.00">new</text>
</a>
</g>
</g>
<!-- Node8&#45;&gt;Node11 -->
<g id="edge12" class="edge">
<title>Node8&#45;&gt;Node11</title>
<path fill="none" stroke="midnightblue" d="M546.49,-206.68C550.55,-190.28 556.47,-154.87 539,-134 516.17,-106.73 411.22,-92.01 359.7,-86.32"/>
<polygon fill="midnightblue" stroke="midnightblue" points="359.88,-82.82 349.57,-85.24 359.14,-89.78 359.88,-82.82"/>
</g>
<!-- Node12 -->
<g id="node12" class="node">
<title>Node12</title>
<g id="a_node12"><a xlink:title=" ">
<polygon fill="none" stroke="#bfbfbf" points="394.5,-140 394.5,-159 447.5,-159 447.5,-140 394.5,-140"/>
<text text-anchor="middle" x="421" y="-147" font-family="Helvetica,sans-Serif" font-size="10.00">iterator</text>
</a>
</g>
</g>
<!-- Node8&#45;&gt;Node12 -->
<g id="edge13" class="edge">
<title>Node8&#45;&gt;Node12</title>
<path fill="none" stroke="midnightblue" d="M527.67,-206.87C506.9,-195.89 470.81,-176.82 446.43,-163.94"/>
<polygon fill="midnightblue" stroke="midnightblue" points="447.88,-160.75 437.4,-159.17 444.61,-166.93 447.88,-160.75"/>
</g>
<!-- Node13 -->
<g id="node13" class="node">
<title>Node13</title>
<g id="a_node13"><a xlink:title=" ">
<polygon fill="none" stroke="#bfbfbf" points="465.5,-140 465.5,-159 530.5,-159 530.5,-140 465.5,-140"/>
<text text-anchor="middle" x="498" y="-147" font-family="Helvetica,sans-Serif" font-size="10.00">stdexcept</text>
</a>
</g>
</g>
<!-- Node8&#45;&gt;Node13 -->
<g id="edge14" class="edge">
<title>Node8&#45;&gt;Node13</title>
<path fill="none" stroke="midnightblue" d="M537.8,-206.73C530.69,-196.7 518.89,-180.01 509.98,-167.42"/>
<polygon fill="midnightblue" stroke="midnightblue" points="512.74,-165.27 504.11,-159.13 507.03,-169.31 512.74,-165.27"/>
</g>
<!-- Node14 -->
<g id="node14" class="node">
<title>Node14</title>
<g id="a_node14"><a xlink:href="XalanMemoryManagement_8hpp.html" target="_top" xlink:title=" ">
<polygon fill="none" stroke="black" points="142,-134.5 142,-164.5 300,-164.5 300,-134.5 142,-134.5"/>
<text text-anchor="start" x="150" y="-152.5" font-family="Helvetica,sans-Serif" font-size="10.00">xalanc/Include/XalanMemory</text>
<text text-anchor="middle" x="221" y="-141.5" font-family="Helvetica,sans-Serif" font-size="10.00">Management.hpp</text>
</a>
</g>
</g>
<!-- Node8&#45;&gt;Node14 -->
<g id="edge15" class="edge">
<title>Node8&#45;&gt;Node14</title>
<path fill="none" stroke="midnightblue" d="M501.44,-206.94C450.55,-196.69 364.28,-179.33 300.84,-166.57"/>
<polygon fill="midnightblue" stroke="midnightblue" points="301.36,-163.1 290.86,-164.56 299.98,-169.96 301.36,-163.1"/>
</g>
<!-- Node14&#45;&gt;Node3 -->
<g id="edge16" class="edge">
<title>Node14&#45;&gt;Node3</title>
<path fill="none" stroke="midnightblue" d="M300.08,-140.37C417.03,-128.34 635.62,-105.86 760.05,-93.06"/>
<polygon fill="midnightblue" stroke="midnightblue" points="760.73,-96.51 770.32,-92 760.02,-89.54 760.73,-96.51"/>
</g>
<!-- Node14&#45;&gt;Node7 -->
<g id="edge17" class="edge">
<title>Node14&#45;&gt;Node7</title>
<path fill="none" stroke="midnightblue" d="M189.54,-134.4C164.1,-122.99 128.6,-107.08 104.1,-96.1"/>
<polygon fill="midnightblue" stroke="midnightblue" points="105.53,-92.9 94.98,-92.01 102.67,-99.29 105.53,-92.9"/>
</g>
<!-- Node14&#45;&gt;Node9 -->
<g id="edge18" class="edge">
<title>Node14&#45;&gt;Node9</title>
<path fill="none" stroke="midnightblue" d="M300.33,-136.04C389.93,-121.98 531.86,-99.69 598.36,-89.25"/>
<polygon fill="midnightblue" stroke="midnightblue" points="599.03,-92.69 608.36,-87.68 597.94,-85.78 599.03,-92.69"/>
</g>
<!-- Node14&#45;&gt;Node11 -->
<g id="edge19" class="edge">
<title>Node14&#45;&gt;Node11</title>
<path fill="none" stroke="midnightblue" d="M244.87,-134.4C263.57,-123.34 289.44,-108.06 307.93,-97.13"/>
<polygon fill="midnightblue" stroke="midnightblue" points="309.77,-100.11 316.6,-92.01 306.21,-94.08 309.77,-100.11"/>
</g>
<!-- Node15 -->
<g id="node15" class="node">
<title>Node15</title>
<g id="a_node15"><a xlink:title=" ">
<polygon fill="none" stroke="#bfbfbf" points="141.5,-67.5 141.5,-97.5 294.5,-97.5 294.5,-67.5 141.5,-67.5"/>
<text text-anchor="start" x="149.5" y="-85.5" font-family="Helvetica,sans-Serif" font-size="10.00">xercesc/framework/Memory</text>
<text text-anchor="middle" x="218" y="-74.5" font-family="Helvetica,sans-Serif" font-size="10.00">Manager.hpp</text>
</a>
</g>
</g>
<!-- Node14&#45;&gt;Node15 -->
<g id="edge20" class="edge">
<title>Node14&#45;&gt;Node15</title>
<path fill="none" stroke="midnightblue" d="M220.35,-134.4C219.99,-126.64 219.54,-116.81 219.12,-107.86"/>
<polygon fill="midnightblue" stroke="midnightblue" points="222.61,-107.4 218.65,-97.58 215.61,-107.73 222.61,-107.4"/>
</g>
<!-- Node16&#45;&gt;Node7 -->
<g id="edge24" class="edge">
<title>Node16&#45;&gt;Node7</title>
<path fill="none" stroke="midnightblue" d="M577.81,-411.71C395.55,-410.13 38,-393.17 38,-284.5 38,-284.5 38,-284.5 38,-215.5 38,-173.35 56.11,-126.48 67.33,-101.5"/>
<polygon fill="midnightblue" stroke="midnightblue" points="70.61,-102.76 71.64,-92.21 64.26,-99.81 70.61,-102.76"/>
</g>
<!-- Node16&#45;&gt;Node8 -->
<g id="edge46" class="edge">
<title>Node16&#45;&gt;Node8</title>
<path fill="none" stroke="midnightblue" d="M651.79,-402.37C632.52,-395.43 608.36,-383.85 593,-366 560.18,-327.87 549.2,-267.12 545.64,-236.49"/>
<polygon fill="midnightblue" stroke="midnightblue" points="549.1,-235.92 544.61,-226.33 542.13,-236.63 549.1,-235.92"/>
</g>
<!-- Node16&#45;&gt;Node14 -->
<g id="edge45" class="edge">
<title>Node16&#45;&gt;Node14</title>
<path fill="none" stroke="midnightblue" d="M577.92,-409.39C453.62,-401.19 250.43,-366.52 154,-232 145.97,-220.8 147.85,-213.33 154,-201 160.27,-188.43 171.32,-178.17 182.66,-170.25"/>
<polygon fill="midnightblue" stroke="midnightblue" points="184.81,-173.03 191.31,-164.66 181.02,-167.15 184.81,-173.03"/>
</g>
<!-- Node17 -->
<g id="node17" class="node">
<title>Node17</title>
<g id="a_node17"><a xlink:href="XalanDOMDefinitions_8hpp.html" target="_top" xlink:title=" ">
<polygon fill="none" stroke="black" points="836,-274 836,-293 1068,-293 1068,-274 836,-274"/>
<text text-anchor="middle" x="952" y="-281" font-family="Helvetica,sans-Serif" font-size="10.00">xalanc/XalanDOM/XalanDOMDefinitions.hpp</text>
</a>
</g>
</g>
<!-- Node16&#45;&gt;Node17 -->
<g id="edge22" class="edge">
<title>Node16&#45;&gt;Node17</title>
<path fill="none" stroke="midnightblue" d="M700.34,-402.37C718.52,-393.65 747.06,-379.59 771,-366 793.41,-353.28 796.96,-346.55 820,-335 851.12,-319.4 888.29,-305.58 915.24,-296.36"/>
<polygon fill="midnightblue" stroke="midnightblue" points="916.68,-299.57 925.04,-293.06 914.45,-292.93 916.68,-299.57"/>
</g>
<!-- Node18 -->
<g id="node18" class="node">
<title>Node18</title>
<g id="a_node18"><a xlink:href="STLHelper_8hpp.html" target="_top" xlink:title=" ">
<polygon fill="none" stroke="black" points="602,-341 602,-360 762,-360 762,-341 602,-341"/>
<text text-anchor="middle" x="682" y="-348" font-family="Helvetica,sans-Serif" font-size="10.00">xalanc/Include/STLHelper.hpp</text>
</a>
</g>
</g>
<!-- Node16&#45;&gt;Node18 -->
<g id="edge25" class="edge">
<title>Node16&#45;&gt;Node18</title>
<path fill="none" stroke="midnightblue" d="M682,-402.48C682,-394.08 682,-380.98 682,-370.16"/>
<polygon fill="midnightblue" stroke="midnightblue" points="685.5,-370.01 682,-360.01 678.5,-370.01 685.5,-370.01"/>
</g>
<!-- Node23 -->
<g id="node23" class="node">
<title>Node23</title>
<g id="a_node23"><a xlink:href="XalanDOMException_8hpp.html" target="_top" xlink:title=" ">
<polygon fill="none" stroke="black" points="828.5,-341 828.5,-360 1055.5,-360 1055.5,-341 828.5,-341"/>
<text text-anchor="middle" x="942" y="-348" font-family="Helvetica,sans-Serif" font-size="10.00">xalanc/XalanDOM/XalanDOMException.hpp</text>
</a>
</g>
</g>
<!-- Node16&#45;&gt;Node23 -->
<g id="edge47" class="edge">
<title>Node16&#45;&gt;Node23</title>
<path fill="none" stroke="midnightblue" d="M719.25,-402.48C765.49,-391.89 844.4,-373.84 894.82,-362.3"/>
<polygon fill="midnightblue" stroke="midnightblue" points="895.85,-365.65 904.82,-360.01 894.29,-358.83 895.85,-365.65"/>
</g>
<!-- Node17&#45;&gt;Node3 -->
<g id="edge23" class="edge">
<title>Node17&#45;&gt;Node3</title>
<path fill="none" stroke="midnightblue" d="M948.74,-273.9C939.84,-250.73 913.92,-185.29 886,-134 879.7,-122.43 871.62,-110.04 865.04,-100.42"/>
<polygon fill="midnightblue" stroke="midnightblue" points="867.88,-98.37 859.29,-92.17 862.14,-102.38 867.88,-98.37"/>
</g>
<!-- Node18&#45;&gt;Node3 -->
<g id="edge26" class="edge">
<title>Node18&#45;&gt;Node3</title>
<path fill="none" stroke="midnightblue" d="M703.98,-340.96C723.11,-332.62 750.59,-318.36 769,-299 815.16,-250.45 816.37,-228.4 838,-165 845.1,-144.2 849.06,-119.21 851.11,-102.43"/>
<polygon fill="midnightblue" stroke="midnightblue" points="854.61,-102.6 852.24,-92.28 847.66,-101.83 854.61,-102.6"/>
</g>
<!-- Node18&#45;&gt;Node10 -->
<g id="edge27" class="edge">
<title>Node18&#45;&gt;Node10</title>
<path fill="none" stroke="midnightblue" d="M702.51,-340.91C718.97,-332.78 740.93,-318.86 751,-299 772.77,-256.1 753.61,-197.52 741.35,-168.43"/>
<polygon fill="midnightblue" stroke="midnightblue" points="744.48,-166.85 737.24,-159.12 738.08,-169.68 744.48,-166.85"/>
</g>
<!-- Node19 -->
<g id="node19" class="node">
<title>Node19</title>
<g id="a_node19"><a xlink:title=" ">
<polygon fill="none" stroke="#bfbfbf" points="163.5,-207 163.5,-226 228.5,-226 228.5,-207 163.5,-207"/>
<text text-anchor="middle" x="196" y="-214" font-family="Helvetica,sans-Serif" font-size="10.00">functional</text>
</a>
</g>
</g>
<!-- Node18&#45;&gt;Node19 -->
<g id="edge28" class="edge">
<title>Node18&#45;&gt;Node19</title>
<path fill="none" stroke="midnightblue" d="M648.28,-340.94C574.55,-322.11 393.5,-275.34 243,-232 239.8,-231.08 236.48,-230.1 233.16,-229.11"/>
<polygon fill="midnightblue" stroke="midnightblue" points="233.87,-225.66 223.29,-226.11 231.84,-232.36 233.87,-225.66"/>
</g>
<!-- Node20 -->
<g id="node20" class="node">
<title>Node20</title>
<g id="a_node20"><a xlink:href="XalanMap_8hpp.html" target="_top" xlink:title=" ">
<polygon fill="none" stroke="black" points="582,-274 582,-293 742,-293 742,-274 582,-274"/>
<text text-anchor="middle" x="662" y="-281" font-family="Helvetica,sans-Serif" font-size="10.00">xalanc/Include/XalanMap.hpp</text>
</a>
</g>
</g>
<!-- Node18&#45;&gt;Node20 -->
<g id="edge29" class="edge">
<title>Node18&#45;&gt;Node20</title>
<path fill="none" stroke="midnightblue" d="M679.3,-340.73C676.33,-331.09 671.48,-315.3 667.66,-302.91"/>
<polygon fill="midnightblue" stroke="midnightblue" points="670.94,-301.66 664.65,-293.13 664.25,-303.71 670.94,-301.66"/>
</g>
<!-- Node20&#45;&gt;Node3 -->
<g id="edge30" class="edge">
<title>Node20&#45;&gt;Node3</title>
<path fill="none" stroke="midnightblue" d="M690.27,-273.89C712.84,-265.9 744.19,-252.17 766,-232 807.03,-194.05 834.54,-132.29 846.39,-101.76"/>
<polygon fill="midnightblue" stroke="midnightblue" points="849.81,-102.63 850.04,-92.03 843.25,-100.17 849.81,-102.63"/>
</g>
<!-- Node20&#45;&gt;Node8 -->
<g id="edge35" class="edge">
<title>Node20&#45;&gt;Node8</title>
<path fill="none" stroke="midnightblue" d="M646.09,-273.73C626.18,-262.77 591.89,-243.88 568.6,-231.05"/>
<polygon fill="midnightblue" stroke="midnightblue" points="570.11,-227.89 559.66,-226.13 566.73,-234.02 570.11,-227.89"/>
</g>
<!-- Node20&#45;&gt;Node9 -->
<g id="edge31" class="edge">
<title>Node20&#45;&gt;Node9</title>
<path fill="none" stroke="midnightblue" d="M677.52,-273.95C716.39,-251.44 812.17,-188.48 774,-134 751.07,-101.27 704.63,-89.67 671.76,-85.61"/>
<polygon fill="midnightblue" stroke="midnightblue" points="671.92,-82.11 661.61,-84.54 671.18,-89.07 671.92,-82.11"/>
</g>
<!-- Node20&#45;&gt;Node10 -->
<g id="edge32" class="edge">
<title>Node20&#45;&gt;Node10</title>
<path fill="none" stroke="midnightblue" d="M670.02,-273.74C678.55,-264.08 692.04,-247.8 701,-232 712.56,-211.61 721.81,-186.21 727.33,-169.23"/>
<polygon fill="midnightblue" stroke="midnightblue" points="730.75,-170.02 730.41,-159.43 724.07,-167.93 730.75,-170.02"/>
</g>
<!-- Node20&#45;&gt;Node19 -->
<g id="edge33" class="edge">
<title>Node20&#45;&gt;Node19</title>
<path fill="none" stroke="midnightblue" d="M584.92,-273.97C473.08,-261.47 275.56,-238.93 243,-232 238.87,-231.12 234.57,-230.04 230.34,-228.87"/>
<polygon fill="midnightblue" stroke="midnightblue" points="231.24,-225.48 220.66,-226.02 229.27,-232.2 231.24,-225.48"/>
</g>
<!-- Node21 -->
<g id="node21" class="node">
<title>Node21</title>
<g id="a_node21"><a xlink:title=" ">
<polygon fill="none" stroke="#bfbfbf" points="646.5,-207 646.5,-226 691.5,-226 691.5,-207 646.5,-207"/>
<text text-anchor="middle" x="669" y="-214" font-family="Helvetica,sans-Serif" font-size="10.00">utility</text>
</a>
</g>
</g>
<!-- Node20&#45;&gt;Node21 -->
<g id="edge34" class="edge">
<title>Node20&#45;&gt;Node21</title>
<path fill="none" stroke="midnightblue" d="M662.94,-273.73C663.97,-264.18 665.65,-248.62 666.98,-236.28"/>
<polygon fill="midnightblue" stroke="midnightblue" points="670.48,-236.44 668.07,-226.13 663.52,-235.7 670.48,-236.44"/>
</g>
<!-- Node22 -->
<g id="node22" class="node">
<title>Node22</title>
<g id="a_node22"><a xlink:href="XalanList_8hpp.html" target="_top" xlink:title=" ">
<polygon fill="none" stroke="black" points="285,-207 285,-226 441,-226 441,-207 285,-207"/>
<text text-anchor="middle" x="363" y="-214" font-family="Helvetica,sans-Serif" font-size="10.00">xalanc/Include/XalanList.hpp</text>
</a>
</g>
</g>
<!-- Node20&#45;&gt;Node22 -->
<g id="edge36" class="edge">
<title>Node20&#45;&gt;Node22</title>
<path fill="none" stroke="midnightblue" d="M622.6,-273.94C568.49,-262.17 471.18,-241.02 412.3,-228.22"/>
<polygon fill="midnightblue" stroke="midnightblue" points="413,-224.79 402.48,-226.08 411.51,-231.63 413,-224.79"/>
</g>
<!-- Node22&#45;&gt;Node3 -->
<g id="edge37" class="edge">
<title>Node22&#45;&gt;Node3</title>
<path fill="none" stroke="midnightblue" d="M395.31,-206.92C430.76,-197.35 489.24,-181.09 539,-165 577.66,-152.5 585.97,-145.31 625,-134 682.68,-117.29 749.95,-103.01 796.4,-93.94"/>
<polygon fill="midnightblue" stroke="midnightblue" points="797.12,-97.37 806.27,-92.03 795.79,-90.49 797.12,-97.37"/>
</g>
<!-- Node22&#45;&gt;Node7 -->
<g id="edge40" class="edge">
<title>Node22&#45;&gt;Node7</title>
<path fill="none" stroke="midnightblue" d="M300.46,-206.96C227.45,-196.46 114.74,-178.38 100,-165 82.45,-149.07 77.48,-121.04 76.21,-102.37"/>
<polygon fill="midnightblue" stroke="midnightblue" points="79.69,-102 75.81,-92.14 72.7,-102.27 79.69,-102"/>
</g>
<!-- Node22&#45;&gt;Node9 -->
<g id="edge38" class="edge">
<title>Node22&#45;&gt;Node9</title>
<path fill="none" stroke="midnightblue" d="M362.6,-206.9C362.32,-190.22 364.26,-153.45 385,-134 415.38,-105.51 536.11,-91.62 598,-86.26"/>
<polygon fill="midnightblue" stroke="midnightblue" points="598.44,-89.74 608.12,-85.41 597.86,-82.76 598.44,-89.74"/>
</g>
<!-- Node22&#45;&gt;Node10 -->
<g id="edge39" class="edge">
<title>Node22&#45;&gt;Node10</title>
<path fill="none" stroke="midnightblue" d="M411.75,-206.94C484.83,-194.1 621.54,-170.08 690.67,-157.94"/>
<polygon fill="midnightblue" stroke="midnightblue" points="691.52,-161.34 700.76,-156.16 690.3,-154.45 691.52,-161.34"/>
</g>
<!-- Node22&#45;&gt;Node11 -->
<g id="edge41" class="edge">
<title>Node22&#45;&gt;Node11</title>
<path fill="none" stroke="midnightblue" d="M360.9,-206.84C355.77,-185.67 342.5,-130.95 335.49,-102.03"/>
<polygon fill="midnightblue" stroke="midnightblue" points="338.82,-100.92 333.07,-92.02 332.02,-102.56 338.82,-100.92"/>
</g>
<!-- Node22&#45;&gt;Node12 -->
<g id="edge42" class="edge">
<title>Node22&#45;&gt;Node12</title>
<path fill="none" stroke="midnightblue" d="M370.82,-206.73C379.95,-196.5 395.24,-179.36 406.55,-166.69"/>
<polygon fill="midnightblue" stroke="midnightblue" points="409.26,-168.92 413.3,-159.13 404.03,-164.26 409.26,-168.92"/>
</g>
<!-- Node22&#45;&gt;Node13 -->
<g id="edge43" class="edge">
<title>Node22&#45;&gt;Node13</title>
<path fill="none" stroke="midnightblue" d="M380.93,-206.87C403.92,-195.8 444.03,-176.49 470.8,-163.6"/>
<polygon fill="midnightblue" stroke="midnightblue" points="472.51,-166.66 480,-159.17 469.47,-160.35 472.51,-166.66"/>
</g>
<!-- Node22&#45;&gt;Node14 -->
<g id="edge44" class="edge">
<title>Node22&#45;&gt;Node14</title>
<path fill="none" stroke="midnightblue" d="M344.14,-206.87C323.02,-197.2 288.17,-181.25 260.93,-168.78"/>
<polygon fill="midnightblue" stroke="midnightblue" points="262.2,-165.51 251.65,-164.53 259.28,-171.87 262.2,-165.51"/>
</g>
<!-- Node23&#45;&gt;Node17 -->
<g id="edge48" class="edge">
<title>Node23&#45;&gt;Node17</title>
<path fill="none" stroke="midnightblue" d="M943.35,-340.73C944.82,-331.18 947.21,-315.62 949.11,-303.28"/>
<polygon fill="midnightblue" stroke="midnightblue" points="952.61,-303.54 950.67,-293.13 945.69,-302.48 952.61,-303.54"/>
</g>
<!-- Node24&#45;&gt;Node14 -->
<g id="edge52" class="edge">
<title>Node24&#45;&gt;Node14</title>
<path fill="none" stroke="midnightblue" d="M1086.24,-269.22C1083.12,-268.77 1080.03,-268.36 1077,-268 988.53,-257.52 353.71,-275.57 276,-232 253.56,-219.42 238.48,-193.4 229.87,-174.13"/>
<polygon fill="midnightblue" stroke="midnightblue" points="233.04,-172.64 225.95,-164.77 226.58,-175.35 233.04,-172.64"/>
</g>
<!-- Node25 -->
<g id="node25" class="node">
<title>Node25</title>
<g id="a_node25"><a xlink:href="PlatformSupportDefinitions_8hpp.html" target="_top" xlink:title=" ">
<polygon fill="none" stroke="black" points="1066.5,-134.5 1066.5,-164.5 1239.5,-164.5 1239.5,-134.5 1066.5,-134.5"/>
<text text-anchor="start" x="1074.5" y="-152.5" font-family="Helvetica,sans-Serif" font-size="10.00">xalanc/PlatformSupport</text>
<text text-anchor="middle" x="1153" y="-141.5" font-family="Helvetica,sans-Serif" font-size="10.00">/PlatformSupportDefinitions.hpp</text>
</a>
</g>
</g>
<!-- Node24&#45;&gt;Node25 -->
<g id="edge50" class="edge">
<title>Node24&#45;&gt;Node25</title>
<path fill="none" stroke="midnightblue" d="M1152.11,-268.37C1152.28,-246.04 1152.61,-202.31 1152.82,-174.85"/>
<polygon fill="midnightblue" stroke="midnightblue" points="1156.32,-174.55 1152.89,-164.52 1149.32,-174.5 1156.32,-174.55"/>
</g>
<!-- Node26 -->
<g id="node26" class="node">
<title>Node26</title>
<g id="a_node26"><a xlink:href="ProblemListenerBase_8hpp.html" target="_top" xlink:title=" ">
<polygon fill="none" stroke="black" points="981,-201.5 981,-231.5 1125,-231.5 1125,-201.5 981,-201.5"/>
<text text-anchor="start" x="989" y="-219.5" font-family="Helvetica,sans-Serif" font-size="10.00">xalanc/PlatformSupport</text>
<text text-anchor="middle" x="1053" y="-208.5" font-family="Helvetica,sans-Serif" font-size="10.00">/ProblemListenerBase.hpp</text>
</a>
</g>
</g>
<!-- Node24&#45;&gt;Node26 -->
<g id="edge53" class="edge">
<title>Node24&#45;&gt;Node26</title>
<path fill="none" stroke="midnightblue" d="M1130.52,-268.4C1116.64,-259.28 1098.37,-247.29 1083.06,-237.24"/>
<polygon fill="midnightblue" stroke="midnightblue" points="1084.72,-234.14 1074.44,-231.58 1080.88,-239.99 1084.72,-234.14"/>
</g>
<!-- Node25&#45;&gt;Node3 -->
<g id="edge51" class="edge">
<title>Node25&#45;&gt;Node3</title>
<path fill="none" stroke="midnightblue" d="M1088.27,-134.48C1032.52,-122.4 953.22,-105.21 902.44,-94.21"/>
<polygon fill="midnightblue" stroke="midnightblue" points="902.88,-90.73 892.36,-92.03 901.4,-97.57 902.88,-90.73"/>
</g>
<!-- Node26&#45;&gt;Node25 -->
<g id="edge54" class="edge">
<title>Node26&#45;&gt;Node25</title>
<path fill="none" stroke="midnightblue" d="M1074.7,-201.4C1088.72,-192.28 1107.17,-180.29 1122.64,-170.24"/>
<polygon fill="midnightblue" stroke="midnightblue" points="1124.87,-172.96 1131.34,-164.58 1121.05,-167.09 1124.87,-172.96"/>
</g>
<!-- Node27 -->
<g id="node27" class="node">
<title>Node27</title>
<g id="a_node27"><a xlink:title=" ">
<polygon fill="none" stroke="#bfbfbf" points="938,-140 938,-159 1048,-159 1048,-140 938,-140"/>
<text text-anchor="middle" x="993" y="-147" font-family="Helvetica,sans-Serif" font-size="10.00">LocalMsgIndex.hpp</text>
</a>
</g>
</g>
<!-- Node26&#45;&gt;Node27 -->
<g id="edge55" class="edge">
<title>Node26&#45;&gt;Node27</title>
<path fill="none" stroke="midnightblue" d="M1039.98,-201.4C1030.53,-191.16 1017.73,-177.3 1007.88,-166.62"/>
<polygon fill="midnightblue" stroke="midnightblue" points="1010.38,-164.17 1001.03,-159.19 1005.24,-168.92 1010.38,-164.17"/>
</g>
<!-- Node28&#45;&gt;Node2 -->
<g id="edge57" class="edge">
<title>Node28&#45;&gt;Node2</title>
<path fill="none" stroke="midnightblue" d="M1362.67,-335.46C1380.03,-327.65 1398.01,-315.97 1408,-299 1432.56,-257.29 1410.85,-197.76 1397.16,-168.35"/>
<polygon fill="midnightblue" stroke="midnightblue" points="1400.27,-166.74 1392.74,-159.29 1393.98,-169.81 1400.27,-166.74"/>
</g>
<!-- Node29 -->
<g id="node29" class="node">
<title>Node29</title>
<g id="a_node29"><a xlink:href="NodeRefList_8hpp.html" target="_top" xlink:title=" ">
<polygon fill="none" stroke="black" points="1235.5,-274 1235.5,-293 1398.5,-293 1398.5,-274 1235.5,-274"/>
<text text-anchor="middle" x="1317" y="-281" font-family="Helvetica,sans-Serif" font-size="10.00">xalanc/XPath/NodeRefList.hpp</text>
</a>
</g>
</g>
<!-- Node28&#45;&gt;Node29 -->
<g id="edge58" class="edge">
<title>Node28&#45;&gt;Node29</title>
<path fill="none" stroke="midnightblue" d="M1317,-335.4C1317,-326.06 1317,-313.71 1317,-303.52"/>
<polygon fill="midnightblue" stroke="midnightblue" points="1320.5,-303.19 1317,-293.19 1313.5,-303.19 1320.5,-303.19"/>
</g>
<!-- Node29&#45;&gt;Node2 -->
<g id="edge59" class="edge">
<title>Node29&#45;&gt;Node2</title>
<path fill="none" stroke="midnightblue" d="M1329.27,-273.92C1341.26,-264.87 1359.09,-249.53 1369,-232 1380.04,-212.48 1384.67,-186.86 1386.61,-169.6"/>
<polygon fill="midnightblue" stroke="midnightblue" points="1390.14,-169.44 1387.57,-159.17 1383.17,-168.8 1390.14,-169.44"/>
</g>
<!-- Node29&#45;&gt;Node8 -->
<g id="edge60" class="edge">
<title>Node29&#45;&gt;Node8</title>
<path fill="none" stroke="midnightblue" d="M1269.48,-273.94C1255.8,-271.73 1240.84,-269.53 1227,-268 966.33,-239.11 898.77,-260.02 638,-232 626.94,-230.81 615.19,-229.24 603.88,-227.58"/>
<polygon fill="midnightblue" stroke="midnightblue" points="604.06,-224.07 593.65,-226.03 603.01,-230.99 604.06,-224.07"/>
</g>
<!-- Node30 -->
<g id="node30" class="node">
<title>Node30</title>
<g id="a_node30"><a xlink:href="NodeRefListBase_8hpp.html" target="_top" xlink:title=" ">
<polygon fill="none" stroke="black" points="1218,-201.5 1218,-231.5 1360,-231.5 1360,-201.5 1218,-201.5"/>
<text text-anchor="start" x="1226" y="-219.5" font-family="Helvetica,sans-Serif" font-size="10.00">xalanc/XPath/NodeRefList</text>
<text text-anchor="middle" x="1289" y="-208.5" font-family="Helvetica,sans-Serif" font-size="10.00">Base.hpp</text>
</a>
</g>
</g>
<!-- Node29&#45;&gt;Node30 -->
<g id="edge61" class="edge">
<title>Node29&#45;&gt;Node30</title>
<path fill="none" stroke="midnightblue" d="M1313.22,-273.73C1309.62,-265.37 1304.03,-252.4 1299.13,-241.02"/>
<polygon fill="midnightblue" stroke="midnightblue" points="1302.24,-239.39 1295.07,-231.59 1295.81,-242.16 1302.24,-239.39"/>
</g>
<!-- Node30&#45;&gt;Node2 -->
<g id="edge62" class="edge">
<title>Node30&#45;&gt;Node2</title>
<path fill="none" stroke="midnightblue" d="M1310.48,-201.4C1327.08,-190.5 1349.96,-175.48 1366.55,-164.58"/>
<polygon fill="midnightblue" stroke="midnightblue" points="1368.6,-167.42 1375.04,-159.01 1364.76,-161.57 1368.6,-167.42"/>
</g>
<!-- Node30&#45;&gt;Node9 -->
<g id="edge63" class="edge">
<title>Node30&#45;&gt;Node9</title>
<path fill="none" stroke="midnightblue" d="M1286.53,-201.46C1282.4,-182.58 1272.14,-149.58 1249,-134 1202.06,-102.39 797.28,-103.84 741,-98 717.87,-95.6 692.02,-92.08 671.63,-89.11"/>
<polygon fill="midnightblue" stroke="midnightblue" points="671.92,-85.61 661.52,-87.62 670.9,-92.54 671.92,-85.61"/>
</g>
</g>
</svg>
