<?xml version="1.0" encoding="UTF-8" standalone="no"?>
<!DOCTYPE svg PUBLIC "-//W3C//DTD SVG 1.1//EN"
 "http://www.w3.org/Graphics/SVG/1.1/DTD/svg11.dtd">
<!-- Generated by graphviz version 2.43.0 (0)
 -->
<!-- Title: xalanc/XPath/XPathEvaluator.hpp Pages: 1 -->
<svg width="1325pt" height="464pt"
 viewBox="0.00 0.00 1324.68 464.00" xmlns="http://www.w3.org/2000/svg" xmlns:xlink="http://www.w3.org/1999/xlink">
<g id="graph0" class="graph" transform="scale(1 1) rotate(0) translate(4 460)">
<title>xalanc/XPath/XPathEvaluator.hpp</title>
<!-- Node1 -->
<g id="node1" class="node">
<title>Node1</title>
<g id="a_node1"><a xlink:title=" ">
<polygon fill="#bfbfbf" stroke="black" points="976.68,-436.5 976.68,-455.5 1153.68,-455.5 1153.68,-436.5 976.68,-436.5"/>
<text text-anchor="middle" x="1065.18" y="-443.5" font-family="Helvetica,sans-Serif" font-size="10.00">xalanc/XPath/XPathEvaluator.hpp</text>
</a>
</g>
</g>
<!-- Node2 -->
<g id="node2" class="node">
<title>Node2</title>
<g id="a_node2"><a xlink:href="XPathDefinitions_8hpp.html" target="_top" xlink:title=" ">
<polygon fill="none" stroke="black" points="1132.18,-380.5 1132.18,-399.5 1316.18,-399.5 1316.18,-380.5 1132.18,-380.5"/>
<text text-anchor="middle" x="1224.18" y="-387.5" font-family="Helvetica,sans-Serif" font-size="10.00">xalanc/XPath/XPathDefinitions.hpp</text>
</a>
</g>
</g>
<!-- Node1&#45;&gt;Node2 -->
<g id="edge1" class="edge">
<title>Node1&#45;&gt;Node2</title>
<path fill="none" stroke="midnightblue" d="M1090.38,-436.44C1117.13,-427.36 1159.59,-412.94 1189.49,-402.78"/>
<polygon fill="midnightblue" stroke="midnightblue" points="1190.77,-406.05 1199.11,-399.52 1188.51,-399.42 1190.77,-406.05"/>
</g>
<!-- Node7 -->
<g id="node7" class="node">
<title>Node7</title>
<g id="a_node7"><a xlink:href="XalanMemMgrAutoPtr_8hpp.html" target="_top" xlink:title=" ">
<polygon fill="none" stroke="black" points="811.68,-201.5 811.68,-231.5 972.68,-231.5 972.68,-201.5 811.68,-201.5"/>
<text text-anchor="start" x="819.68" y="-219.5" font-family="Helvetica,sans-Serif" font-size="10.00">xalanc/Include/XalanMemMgr</text>
<text text-anchor="middle" x="892.18" y="-208.5" font-family="Helvetica,sans-Serif" font-size="10.00">AutoPtr.hpp</text>
</a>
</g>
</g>
<!-- Node1&#45;&gt;Node7 -->
<g id="edge6" class="edge">
<title>Node1&#45;&gt;Node7</title>
<path fill="none" stroke="midnightblue" d="M1067.18,-436.42C1073.11,-408.55 1087.79,-319.41 1046.18,-268 1030.32,-248.39 1006.68,-236.33 982.65,-228.92"/>
<polygon fill="midnightblue" stroke="midnightblue" points="983.3,-225.47 972.72,-226.12 981.39,-232.2 983.3,-225.47"/>
</g>
<!-- Node15 -->
<g id="node15" class="node">
<title>Node15</title>
<g id="a_node15"><a xlink:href="XalanDOMString_8hpp.html" target="_top" xlink:title=" ">
<polygon fill="none" stroke="black" points="619.18,-380.5 619.18,-399.5 827.18,-399.5 827.18,-380.5 619.18,-380.5"/>
<text text-anchor="middle" x="723.18" y="-387.5" font-family="Helvetica,sans-Serif" font-size="10.00">xalanc/XalanDOM/XalanDOMString.hpp</text>
</a>
</g>
</g>
<!-- Node1&#45;&gt;Node15 -->
<g id="edge18" class="edge">
<title>Node1&#45;&gt;Node15</title>
<path fill="none" stroke="midnightblue" d="M1010.99,-436.44C950.21,-426.85 851.7,-411.29 787.18,-401.1"/>
<polygon fill="midnightblue" stroke="midnightblue" points="787.55,-397.62 777.12,-399.52 786.45,-404.53 787.55,-397.62"/>
</g>
<!-- Node3 -->
<g id="node3" class="node">
<title>Node3</title>
<g id="a_node3"><a xlink:href="PlatformDefinitions_8hpp.html" target="_top" xlink:title=" ">
<polygon fill="none" stroke="black" points="938.18,-73 938.18,-92 1144.18,-92 1144.18,-73 938.18,-73"/>
<text text-anchor="middle" x="1041.18" y="-80" font-family="Helvetica,sans-Serif" font-size="10.00">xalanc/Include/PlatformDefinitions.hpp</text>
</a>
</g>
</g>
<!-- Node2&#45;&gt;Node3 -->
<g id="edge2" class="edge">
<title>Node2&#45;&gt;Node3</title>
<path fill="none" stroke="midnightblue" d="M1226.88,-380.26C1232.34,-361.77 1244.18,-317.24 1244.18,-279 1244.18,-279 1244.18,-279 1244.18,-215.5 1244.18,-175.34 1235.6,-160.22 1205.18,-134 1181.67,-113.72 1150.12,-101.59 1120.98,-94.32"/>
<polygon fill="midnightblue" stroke="midnightblue" points="1121.73,-90.91 1111.2,-92.04 1120.14,-97.72 1121.73,-90.91"/>
</g>
<!-- Node4 -->
<g id="node4" class="node">
<title>Node4</title>
<g id="a_node4"><a xlink:title=" ">
<polygon fill="none" stroke="#bfbfbf" points="820.18,-0.5 820.18,-30.5 940.18,-30.5 940.18,-0.5 820.18,-0.5"/>
<text text-anchor="start" x="828.18" y="-18.5" font-family="Helvetica,sans-Serif" font-size="10.00">xercesc/util/Xerces</text>
<text text-anchor="middle" x="880.18" y="-7.5" font-family="Helvetica,sans-Serif" font-size="10.00">_autoconf_config.hpp</text>
</a>
</g>
</g>
<!-- Node3&#45;&gt;Node4 -->
<g id="edge3" class="edge">
<title>Node3&#45;&gt;Node4</title>
<path fill="none" stroke="midnightblue" d="M1019.81,-72.87C995.54,-63.07 955.31,-46.83 924.25,-34.29"/>
<polygon fill="midnightblue" stroke="midnightblue" points="925.51,-31.03 914.93,-30.53 922.89,-37.52 925.51,-31.03"/>
</g>
<!-- Node5 -->
<g id="node5" class="node">
<title>Node5</title>
<g id="a_node5"><a xlink:title=" ">
<polygon fill="none" stroke="#bfbfbf" points="958.68,-6 958.68,-25 1123.68,-25 1123.68,-6 958.68,-6"/>
<text text-anchor="middle" x="1041.18" y="-13" font-family="Helvetica,sans-Serif" font-size="10.00">xercesc/util/XercesVersion.hpp</text>
</a>
</g>
</g>
<!-- Node3&#45;&gt;Node5 -->
<g id="edge4" class="edge">
<title>Node3&#45;&gt;Node5</title>
<path fill="none" stroke="midnightblue" d="M1041.18,-72.73C1041.18,-63.18 1041.18,-47.62 1041.18,-35.28"/>
<polygon fill="midnightblue" stroke="midnightblue" points="1044.68,-35.13 1041.18,-25.13 1037.68,-35.13 1044.68,-35.13"/>
</g>
<!-- Node6 -->
<g id="node6" class="node">
<title>Node6</title>
<g id="a_node6"><a xlink:href="XalanVersion_8hpp.html" target="_top" xlink:title=" ">
<polygon fill="none" stroke="black" points="1141.68,-6 1141.68,-25 1316.68,-25 1316.68,-6 1141.68,-6"/>
<text text-anchor="middle" x="1229.18" y="-13" font-family="Helvetica,sans-Serif" font-size="10.00">xalanc/Include/XalanVersion.hpp</text>
</a>
</g>
</g>
<!-- Node3&#45;&gt;Node6 -->
<g id="edge5" class="edge">
<title>Node3&#45;&gt;Node6</title>
<path fill="none" stroke="midnightblue" d="M1066.15,-72.87C1099.11,-61.47 1157.3,-41.35 1194.52,-28.49"/>
<polygon fill="midnightblue" stroke="midnightblue" points="1196.11,-31.64 1204.42,-25.06 1193.82,-25.02 1196.11,-31.64"/>
</g>
<!-- Node8 -->
<g id="node8" class="node">
<title>Node8</title>
<g id="a_node8"><a xlink:href="PlatformSupportDefinitions_8hpp.html" target="_top" xlink:title=" ">
<polygon fill="none" stroke="black" points="865.68,-134.5 865.68,-164.5 1038.68,-164.5 1038.68,-134.5 865.68,-134.5"/>
<text text-anchor="start" x="873.68" y="-152.5" font-family="Helvetica,sans-Serif" font-size="10.00">xalanc/PlatformSupport</text>
<text text-anchor="middle" x="952.18" y="-141.5" font-family="Helvetica,sans-Serif" font-size="10.00">/PlatformSupportDefinitions.hpp</text>
</a>
</g>
</g>
<!-- Node7&#45;&gt;Node8 -->
<g id="edge7" class="edge">
<title>Node7&#45;&gt;Node8</title>
<path fill="none" stroke="midnightblue" d="M905.2,-201.4C913.15,-192.79 923.45,-181.63 932.39,-171.94"/>
<polygon fill="midnightblue" stroke="midnightblue" points="934.98,-174.3 939.19,-164.58 929.84,-169.55 934.98,-174.3"/>
</g>
<!-- Node9 -->
<g id="node9" class="node">
<title>Node9</title>
<g id="a_node9"><a xlink:href="XalanMemoryManagement_8hpp.html" target="_top" xlink:title=" ">
<polygon fill="none" stroke="black" points="461.18,-134.5 461.18,-164.5 619.18,-164.5 619.18,-134.5 461.18,-134.5"/>
<text text-anchor="start" x="469.18" y="-152.5" font-family="Helvetica,sans-Serif" font-size="10.00">xalanc/Include/XalanMemory</text>
<text text-anchor="middle" x="540.18" y="-141.5" font-family="Helvetica,sans-Serif" font-size="10.00">Management.hpp</text>
</a>
</g>
</g>
<!-- Node7&#45;&gt;Node9 -->
<g id="edge9" class="edge">
<title>Node7&#45;&gt;Node9</title>
<path fill="none" stroke="midnightblue" d="M816.24,-201.48C760.36,-191.16 684.32,-177.12 626.2,-166.38"/>
<polygon fill="midnightblue" stroke="midnightblue" points="626.77,-162.93 616.3,-164.55 625.5,-169.81 626.77,-162.93"/>
</g>
<!-- Node10 -->
<g id="node10" class="node">
<title>Node10</title>
<g id="a_node10"><a xlink:title=" ">
<polygon fill="none" stroke="#bfbfbf" points="642.18,-73 642.18,-92 694.18,-92 694.18,-73 642.18,-73"/>
<text text-anchor="middle" x="668.18" y="-80" font-family="Helvetica,sans-Serif" font-size="10.00">cassert</text>
</a>
</g>
</g>
<!-- Node7&#45;&gt;Node10 -->
<g id="edge16" class="edge">
<title>Node7&#45;&gt;Node10</title>
<path fill="none" stroke="midnightblue" d="M868.21,-201.37C824.98,-175.9 734.49,-122.57 691.64,-97.32"/>
<polygon fill="midnightblue" stroke="midnightblue" points="693.17,-94.16 682.77,-92.1 689.61,-100.19 693.17,-94.16"/>
</g>
<!-- Node11 -->
<g id="node11" class="node">
<title>Node11</title>
<g id="a_node11"><a xlink:title=" ">
<polygon fill="none" stroke="#bfbfbf" points="399.68,-73 399.68,-92 452.68,-92 452.68,-73 399.68,-73"/>
<text text-anchor="middle" x="426.18" y="-80" font-family="Helvetica,sans-Serif" font-size="10.00">cstddef</text>
</a>
</g>
</g>
<!-- Node7&#45;&gt;Node11 -->
<g id="edge15" class="edge">
<title>Node7&#45;&gt;Node11</title>
<path fill="none" stroke="midnightblue" d="M850.44,-201.38C798.67,-184.15 707.54,-154.76 628.18,-134 554.73,-114.78 533.66,-120.62 461.18,-98 459.04,-97.33 456.85,-96.58 454.66,-95.79"/>
<polygon fill="midnightblue" stroke="midnightblue" points="455.8,-92.48 445.21,-92.11 453.26,-99 455.8,-92.48"/>
</g>
<!-- Node14 -->
<g id="node14" class="node">
<title>Node14</title>
<g id="a_node14"><a xlink:title=" ">
<polygon fill="none" stroke="#bfbfbf" points="1056.68,-140 1056.68,-159 1101.68,-159 1101.68,-140 1056.68,-140"/>
<text text-anchor="middle" x="1079.18" y="-147" font-family="Helvetica,sans-Serif" font-size="10.00">utility</text>
</a>
</g>
</g>
<!-- Node7&#45;&gt;Node14 -->
<g id="edge17" class="edge">
<title>Node7&#45;&gt;Node14</title>
<path fill="none" stroke="midnightblue" d="M939.81,-201.48C970.71,-192.01 1011.7,-178.77 1047.18,-165 1048.61,-164.45 1050.06,-163.87 1051.51,-163.26"/>
<polygon fill="midnightblue" stroke="midnightblue" points="1053.27,-166.32 1061.06,-159.13 1050.49,-159.89 1053.27,-166.32"/>
</g>
<!-- Node8&#45;&gt;Node3 -->
<g id="edge8" class="edge">
<title>Node8&#45;&gt;Node3</title>
<path fill="none" stroke="midnightblue" d="M971.5,-134.4C986.15,-123.7 1006.22,-109.03 1021.07,-98.19"/>
<polygon fill="midnightblue" stroke="midnightblue" points="1023.53,-100.73 1029.54,-92.01 1019.4,-95.08 1023.53,-100.73"/>
</g>
<!-- Node9&#45;&gt;Node3 -->
<g id="edge10" class="edge">
<title>Node9&#45;&gt;Node3</title>
<path fill="none" stroke="midnightblue" d="M619.29,-138.24C714.27,-125.91 872.4,-105.4 965.73,-93.29"/>
<polygon fill="midnightblue" stroke="midnightblue" points="966.2,-96.76 975.66,-92 965.3,-89.82 966.2,-96.76"/>
</g>
<!-- Node9&#45;&gt;Node10 -->
<g id="edge11" class="edge">
<title>Node9&#45;&gt;Node10</title>
<path fill="none" stroke="midnightblue" d="M567.96,-134.4C590.12,-123.14 620.92,-107.5 642.51,-96.54"/>
<polygon fill="midnightblue" stroke="midnightblue" points="644.1,-99.66 651.43,-92.01 640.93,-93.41 644.1,-99.66"/>
</g>
<!-- Node9&#45;&gt;Node11 -->
<g id="edge12" class="edge">
<title>Node9&#45;&gt;Node11</title>
<path fill="none" stroke="midnightblue" d="M515.45,-134.4C495.98,-123.29 469.02,-107.92 449.83,-96.98"/>
<polygon fill="midnightblue" stroke="midnightblue" points="451.53,-93.92 441.1,-92.01 448.06,-100 451.53,-93.92"/>
</g>
<!-- Node12 -->
<g id="node12" class="node">
<title>Node12</title>
<g id="a_node12"><a xlink:title=" ">
<polygon fill="none" stroke="#bfbfbf" points="344.68,-73 344.68,-92 381.68,-92 381.68,-73 344.68,-73"/>
<text text-anchor="middle" x="363.18" y="-80" font-family="Helvetica,sans-Serif" font-size="10.00">new</text>
</a>
</g>
</g>
<!-- Node9&#45;&gt;Node12 -->
<g id="edge13" class="edge">
<title>Node9&#45;&gt;Node12</title>
<path fill="none" stroke="midnightblue" d="M491.79,-134.48C462.01,-125.3 423.34,-112.36 390.18,-98 389.18,-97.57 388.17,-97.11 387.15,-96.64"/>
<polygon fill="midnightblue" stroke="midnightblue" points="388.61,-93.45 378.1,-92.09 385.46,-99.7 388.61,-93.45"/>
</g>
<!-- Node13 -->
<g id="node13" class="node">
<title>Node13</title>
<g id="a_node13"><a xlink:title=" ">
<polygon fill="none" stroke="#bfbfbf" points="470.68,-67.5 470.68,-97.5 623.68,-97.5 623.68,-67.5 470.68,-67.5"/>
<text text-anchor="start" x="478.68" y="-85.5" font-family="Helvetica,sans-Serif" font-size="10.00">xercesc/framework/Memory</text>
<text text-anchor="middle" x="547.18" y="-74.5" font-family="Helvetica,sans-Serif" font-size="10.00">Manager.hpp</text>
</a>
</g>
</g>
<!-- Node9&#45;&gt;Node13 -->
<g id="edge14" class="edge">
<title>Node9&#45;&gt;Node13</title>
<path fill="none" stroke="midnightblue" d="M541.7,-134.4C542.55,-126.56 543.62,-116.6 544.59,-107.57"/>
<polygon fill="midnightblue" stroke="midnightblue" points="548.08,-107.89 545.67,-97.58 541.12,-107.14 548.08,-107.89"/>
</g>
<!-- Node15&#45;&gt;Node9 -->
<g id="edge50" class="edge">
<title>Node15&#45;&gt;Node9</title>
<path fill="none" stroke="midnightblue" d="M716.45,-380.23C690.49,-346.39 596.32,-223.66 557.3,-172.81"/>
<polygon fill="midnightblue" stroke="midnightblue" points="559.97,-170.54 551.11,-164.74 554.42,-174.8 559.97,-170.54"/>
</g>
<!-- Node15&#45;&gt;Node10 -->
<g id="edge21" class="edge">
<title>Node15&#45;&gt;Node10</title>
<path fill="none" stroke="midnightblue" d="M723.18,-380.44C723.18,-361.94 723.18,-316.81 723.18,-279 723.18,-279 723.18,-279 723.18,-215.5 723.18,-171.45 696.76,-125.04 680.54,-100.72"/>
<polygon fill="midnightblue" stroke="midnightblue" points="683.27,-98.5 674.71,-92.25 677.5,-102.47 683.27,-98.5"/>
</g>
<!-- Node16 -->
<g id="node16" class="node">
<title>Node16</title>
<g id="a_node16"><a xlink:href="XalanDOMDefinitions_8hpp.html" target="_top" xlink:title=" ">
<polygon fill="none" stroke="black" points="805.18,-268.5 805.18,-287.5 1037.18,-287.5 1037.18,-268.5 805.18,-268.5"/>
<text text-anchor="middle" x="921.18" y="-275.5" font-family="Helvetica,sans-Serif" font-size="10.00">xalanc/XalanDOM/XalanDOMDefinitions.hpp</text>
</a>
</g>
</g>
<!-- Node15&#45;&gt;Node16 -->
<g id="edge19" class="edge">
<title>Node15&#45;&gt;Node16</title>
<path fill="none" stroke="midnightblue" d="M827.26,-384.7C891.94,-379.6 966.57,-368.43 987.18,-344 1003.46,-324.71 974.98,-304.64 950.49,-292"/>
<polygon fill="midnightblue" stroke="midnightblue" points="951.92,-288.8 941.41,-287.53 948.84,-295.09 951.92,-288.8"/>
</g>
<!-- Node17 -->
<g id="node17" class="node">
<title>Node17</title>
<g id="a_node17"><a xlink:href="STLHelper_8hpp.html" target="_top" xlink:title=" ">
<polygon fill="none" stroke="black" points="172.18,-324.5 172.18,-343.5 332.18,-343.5 332.18,-324.5 172.18,-324.5"/>
<text text-anchor="middle" x="252.18" y="-331.5" font-family="Helvetica,sans-Serif" font-size="10.00">xalanc/Include/STLHelper.hpp</text>
</a>
</g>
</g>
<!-- Node15&#45;&gt;Node17 -->
<g id="edge22" class="edge">
<title>Node15&#45;&gt;Node17</title>
<path fill="none" stroke="midnightblue" d="M648.81,-380.47C563.95,-370.74 425.45,-354.86 336.6,-344.68"/>
<polygon fill="midnightblue" stroke="midnightblue" points="336.89,-341.19 326.55,-343.53 336.09,-348.14 336.89,-341.19"/>
</g>
<!-- Node21 -->
<g id="node21" class="node">
<title>Node21</title>
<g id="a_node21"><a xlink:href="XalanVector_8hpp.html" target="_top" xlink:title=" ">
<polygon fill="none" stroke="black" points="348.68,-207 348.68,-226 517.68,-226 517.68,-207 348.68,-207"/>
<text text-anchor="middle" x="433.18" y="-214" font-family="Helvetica,sans-Serif" font-size="10.00">xalanc/Include/XalanVector.hpp</text>
</a>
</g>
</g>
<!-- Node15&#45;&gt;Node21 -->
<g id="edge51" class="edge">
<title>Node15&#45;&gt;Node21</title>
<path fill="none" stroke="midnightblue" d="M708.8,-380.5C662.03,-352.84 513.96,-265.27 456.39,-231.22"/>
<polygon fill="midnightblue" stroke="midnightblue" points="458.04,-228.13 447.65,-226.06 454.48,-234.16 458.04,-228.13"/>
</g>
<!-- Node25 -->
<g id="node25" class="node">
<title>Node25</title>
<g id="a_node25"><a xlink:href="XalanDOMException_8hpp.html" target="_top" xlink:title=" ">
<polygon fill="none" stroke="black" points="751.68,-324.5 751.68,-343.5 978.68,-343.5 978.68,-324.5 751.68,-324.5"/>
<text text-anchor="middle" x="865.18" y="-331.5" font-family="Helvetica,sans-Serif" font-size="10.00">xalanc/XalanDOM/XalanDOMException.hpp</text>
</a>
</g>
</g>
<!-- Node15&#45;&gt;Node25 -->
<g id="edge52" class="edge">
<title>Node15&#45;&gt;Node25</title>
<path fill="none" stroke="midnightblue" d="M745.69,-380.44C769.26,-371.48 806.51,-357.31 833.15,-347.18"/>
<polygon fill="midnightblue" stroke="midnightblue" points="834.69,-350.34 842.79,-343.52 832.2,-343.8 834.69,-350.34"/>
</g>
<!-- Node16&#45;&gt;Node3 -->
<g id="edge20" class="edge">
<title>Node16&#45;&gt;Node3</title>
<path fill="none" stroke="midnightblue" d="M1037.47,-271.38C1097.98,-265.76 1163.23,-254.51 1182.18,-232 1210.25,-198.69 1207.26,-169.61 1182.18,-134 1168.37,-114.37 1146.18,-102.33 1123.46,-94.96"/>
<polygon fill="midnightblue" stroke="midnightblue" points="1124.29,-91.56 1113.71,-92.08 1122.31,-98.27 1124.29,-91.56"/>
</g>
<!-- Node17&#45;&gt;Node3 -->
<g id="edge23" class="edge">
<title>Node17&#45;&gt;Node3</title>
<path fill="none" stroke="midnightblue" d="M323.59,-324.47C520.61,-300.89 1057.93,-236.28 1066.18,-232 1111.74,-208.41 1152.67,-178.52 1127.18,-134 1116.95,-116.12 1097.66,-103.96 1079.93,-96.05"/>
<polygon fill="midnightblue" stroke="midnightblue" points="1080.89,-92.66 1070.31,-92.09 1078.23,-99.13 1080.89,-92.66"/>
</g>
<!-- Node18 -->
<g id="node18" class="node">
<title>Node18</title>
<g id="a_node18"><a xlink:title=" ">
<polygon fill="none" stroke="#bfbfbf" points="34.18,-140 34.18,-159 98.18,-159 98.18,-140 34.18,-140"/>
<text text-anchor="middle" x="66.18" y="-147" font-family="Helvetica,sans-Serif" font-size="10.00">algorithm</text>
</a>
</g>
</g>
<!-- Node17&#45;&gt;Node18 -->
<g id="edge24" class="edge">
<title>Node17&#45;&gt;Node18</title>
<path fill="none" stroke="midnightblue" d="M173.9,-324.45C116.13,-313.53 41.51,-288.64 5.18,-232 -2.25,-220.4 -0.68,-213.47 5.18,-201 12.51,-185.43 27.24,-173.02 40.4,-164.4"/>
<polygon fill="midnightblue" stroke="midnightblue" points="42.44,-167.25 49.14,-159.04 38.79,-161.28 42.44,-167.25"/>
</g>
<!-- Node19 -->
<g id="node19" class="node">
<title>Node19</title>
<g id="a_node19"><a xlink:title=" ">
<polygon fill="none" stroke="#bfbfbf" points="14.68,-207 14.68,-226 79.68,-226 79.68,-207 14.68,-207"/>
<text text-anchor="middle" x="47.18" y="-214" font-family="Helvetica,sans-Serif" font-size="10.00">functional</text>
</a>
</g>
</g>
<!-- Node17&#45;&gt;Node19 -->
<g id="edge25" class="edge">
<title>Node17&#45;&gt;Node19</title>
<path fill="none" stroke="midnightblue" d="M234.24,-324.44C216.11,-315.67 187.4,-301.45 163.18,-288 129.87,-269.49 92.35,-246.23 69.24,-231.61"/>
<polygon fill="midnightblue" stroke="midnightblue" points="70.87,-228.5 60.56,-226.1 67.12,-234.41 70.87,-228.5"/>
</g>
<!-- Node20 -->
<g id="node20" class="node">
<title>Node20</title>
<g id="a_node20"><a xlink:href="XalanMap_8hpp.html" target="_top" xlink:title=" ">
<polygon fill="none" stroke="black" points="172.18,-268.5 172.18,-287.5 332.18,-287.5 332.18,-268.5 172.18,-268.5"/>
<text text-anchor="middle" x="252.18" y="-275.5" font-family="Helvetica,sans-Serif" font-size="10.00">xalanc/Include/XalanMap.hpp</text>
</a>
</g>
</g>
<!-- Node17&#45;&gt;Node20 -->
<g id="edge26" class="edge">
<title>Node17&#45;&gt;Node20</title>
<path fill="none" stroke="midnightblue" d="M252.18,-324.08C252.18,-317.01 252.18,-306.86 252.18,-297.99"/>
<polygon fill="midnightblue" stroke="midnightblue" points="255.68,-297.75 252.18,-287.75 248.68,-297.75 255.68,-297.75"/>
</g>
<!-- Node20&#45;&gt;Node3 -->
<g id="edge27" class="edge">
<title>Node20&#45;&gt;Node3</title>
<path fill="none" stroke="midnightblue" d="M332.39,-274.87C516,-269.64 955.91,-254.86 1019.18,-232 1066.42,-214.94 1087.53,-209.82 1110.18,-165 1116.4,-152.7 1116.42,-146.29 1110.18,-134 1101.84,-117.56 1085.35,-105.18 1070.58,-96.8"/>
<polygon fill="midnightblue" stroke="midnightblue" points="1072.17,-93.68 1061.7,-92.09 1068.9,-99.86 1072.17,-93.68"/>
</g>
<!-- Node20&#45;&gt;Node11 -->
<g id="edge28" class="edge">
<title>Node20&#45;&gt;Node11</title>
<path fill="none" stroke="midnightblue" d="M215.15,-268.49C188.15,-261.28 151.34,-249.33 122.18,-232 104.61,-221.55 104.72,-213.03 88.18,-201 62.11,-182.02 41.37,-192.89 25.18,-165 18.27,-153.08 15.93,-144.21 25.18,-134 79.92,-73.61 311.03,-117.42 390.18,-98 392.85,-97.35 395.59,-96.53 398.29,-95.62"/>
<polygon fill="midnightblue" stroke="midnightblue" points="399.69,-98.84 407.83,-92.06 397.24,-92.28 399.69,-98.84"/>
</g>
<!-- Node20&#45;&gt;Node14 -->
<g id="edge31" class="edge">
<title>Node20&#45;&gt;Node14</title>
<path fill="none" stroke="midnightblue" d="M332.45,-274.86C509.43,-269.73 922.18,-255.41 981.18,-232 1016.3,-218.07 1048.17,-186.47 1065.5,-166.96"/>
<polygon fill="midnightblue" stroke="midnightblue" points="1068.32,-169.05 1072.2,-159.2 1063.02,-164.48 1068.32,-169.05"/>
</g>
<!-- Node20&#45;&gt;Node18 -->
<g id="edge29" class="edge">
<title>Node20&#45;&gt;Node18</title>
<path fill="none" stroke="midnightblue" d="M232.87,-268.45C214.79,-260.12 187.33,-246.61 165.18,-232 134.26,-211.61 101.72,-183.3 82.72,-165.97"/>
<polygon fill="midnightblue" stroke="midnightblue" points="84.95,-163.27 75.23,-159.07 80.21,-168.42 84.95,-163.27"/>
</g>
<!-- Node20&#45;&gt;Node19 -->
<g id="edge30" class="edge">
<title>Node20&#45;&gt;Node19</title>
<path fill="none" stroke="midnightblue" d="M221.54,-268.49C189.67,-259.58 138.35,-245.1 94.18,-232 90.99,-231.05 87.68,-230.06 84.36,-229.05"/>
<polygon fill="midnightblue" stroke="midnightblue" points="85.08,-225.61 74.49,-226.03 83.03,-232.3 85.08,-225.61"/>
</g>
<!-- Node20&#45;&gt;Node21 -->
<g id="edge32" class="edge">
<title>Node20&#45;&gt;Node21</title>
<path fill="none" stroke="midnightblue" d="M278.12,-268.48C309.43,-258.18 362.27,-240.81 397.44,-229.25"/>
<polygon fill="midnightblue" stroke="midnightblue" points="398.89,-232.46 407.3,-226.01 396.71,-225.81 398.89,-232.46"/>
</g>
<!-- Node24 -->
<g id="node24" class="node">
<title>Node24</title>
<g id="a_node24"><a xlink:href="XalanList_8hpp.html" target="_top" xlink:title=" ">
<polygon fill="none" stroke="black" points="174.18,-207 174.18,-226 330.18,-226 330.18,-207 174.18,-207"/>
<text text-anchor="middle" x="252.18" y="-214" font-family="Helvetica,sans-Serif" font-size="10.00">xalanc/Include/XalanList.hpp</text>
</a>
</g>
</g>
<!-- Node20&#45;&gt;Node24 -->
<g id="edge41" class="edge">
<title>Node20&#45;&gt;Node24</title>
<path fill="none" stroke="midnightblue" d="M252.18,-268.48C252.18,-260.08 252.18,-246.98 252.18,-236.16"/>
<polygon fill="midnightblue" stroke="midnightblue" points="255.68,-236.01 252.18,-226.01 248.68,-236.01 255.68,-236.01"/>
</g>
<!-- Node21&#45;&gt;Node3 -->
<g id="edge33" class="edge">
<title>Node21&#45;&gt;Node3</title>
<path fill="none" stroke="midnightblue" d="M517.84,-208.21C587.69,-200.95 688.96,-187.57 775.18,-165 812.47,-155.24 819.55,-145.98 856.18,-134 903.19,-118.63 957.93,-104.1 995.6,-94.6"/>
<polygon fill="midnightblue" stroke="midnightblue" points="996.9,-97.88 1005.76,-92.06 995.2,-91.09 996.9,-97.88"/>
</g>
<!-- Node21&#45;&gt;Node9 -->
<g id="edge40" class="edge">
<title>Node21&#45;&gt;Node9</title>
<path fill="none" stroke="midnightblue" d="M447.62,-206.73C463.12,-197.32 488.25,-182.05 508.41,-169.8"/>
<polygon fill="midnightblue" stroke="midnightblue" points="510.26,-172.77 516.99,-164.59 506.63,-166.79 510.26,-172.77"/>
</g>
<!-- Node21&#45;&gt;Node10 -->
<g id="edge36" class="edge">
<title>Node21&#45;&gt;Node10</title>
<path fill="none" stroke="midnightblue" d="M518.1,-209.38C555.24,-202.96 597.29,-190.19 628.18,-165 647.9,-148.92 658.66,-120.72 663.91,-102.07"/>
<polygon fill="midnightblue" stroke="midnightblue" points="667.37,-102.68 666.45,-92.13 660.59,-100.95 667.37,-102.68"/>
</g>
<!-- Node21&#45;&gt;Node11 -->
<g id="edge34" class="edge">
<title>Node21&#45;&gt;Node11</title>
<path fill="none" stroke="midnightblue" d="M432.73,-206.84C431.6,-185.67 428.7,-130.95 427.17,-102.03"/>
<polygon fill="midnightblue" stroke="midnightblue" points="430.66,-101.82 426.64,-92.02 423.67,-102.19 430.66,-101.82"/>
</g>
<!-- Node21&#45;&gt;Node12 -->
<g id="edge37" class="edge">
<title>Node21&#45;&gt;Node12</title>
<path fill="none" stroke="midnightblue" d="M428.59,-206.84C417.22,-185.39 387.57,-129.49 372.41,-100.9"/>
<polygon fill="midnightblue" stroke="midnightblue" points="375.48,-99.22 367.7,-92.02 369.3,-102.5 375.48,-99.22"/>
</g>
<!-- Node21&#45;&gt;Node18 -->
<g id="edge35" class="edge">
<title>Node21&#45;&gt;Node18</title>
<path fill="none" stroke="midnightblue" d="M384.83,-206.94C312.44,-194.11 177.09,-170.14 108.44,-157.98"/>
<polygon fill="midnightblue" stroke="midnightblue" points="108.87,-154.51 98.41,-156.21 107.65,-161.4 108.87,-154.51"/>
</g>
<!-- Node22 -->
<g id="node22" class="node">
<title>Node22</title>
<g id="a_node22"><a xlink:title=" ">
<polygon fill="none" stroke="#bfbfbf" points="313.68,-140 313.68,-159 366.68,-159 366.68,-140 313.68,-140"/>
<text text-anchor="middle" x="340.18" y="-147" font-family="Helvetica,sans-Serif" font-size="10.00">iterator</text>
</a>
</g>
</g>
<!-- Node21&#45;&gt;Node22 -->
<g id="edge38" class="edge">
<title>Node21&#45;&gt;Node22</title>
<path fill="none" stroke="midnightblue" d="M420.64,-206.73C405.3,-196.01 379.13,-177.72 360.81,-164.91"/>
<polygon fill="midnightblue" stroke="midnightblue" points="362.73,-161.99 352.53,-159.13 358.72,-167.72 362.73,-161.99"/>
</g>
<!-- Node23 -->
<g id="node23" class="node">
<title>Node23</title>
<g id="a_node23"><a xlink:title=" ">
<polygon fill="none" stroke="#bfbfbf" points="230.68,-140 230.68,-159 295.68,-159 295.68,-140 230.68,-140"/>
<text text-anchor="middle" x="263.18" y="-147" font-family="Helvetica,sans-Serif" font-size="10.00">stdexcept</text>
</a>
</g>
</g>
<!-- Node21&#45;&gt;Node23 -->
<g id="edge39" class="edge">
<title>Node21&#45;&gt;Node23</title>
<path fill="none" stroke="midnightblue" d="M410.61,-206.87C380.93,-195.52 328.63,-175.52 294.97,-162.65"/>
<polygon fill="midnightblue" stroke="midnightblue" points="296.17,-159.37 285.58,-159.06 293.67,-165.9 296.17,-159.37"/>
</g>
<!-- Node24&#45;&gt;Node3 -->
<g id="edge42" class="edge">
<title>Node24&#45;&gt;Node3</title>
<path fill="none" stroke="midnightblue" d="M301.36,-206.94C313.69,-204.89 326.91,-202.79 339.18,-201 467.27,-182.36 500.52,-186.37 628.18,-165 694.04,-153.97 709.72,-147.12 775.18,-134 847.28,-119.56 930.58,-103.91 984.48,-93.92"/>
<polygon fill="midnightblue" stroke="midnightblue" points="985.32,-97.33 994.52,-92.06 984.05,-90.44 985.32,-97.33"/>
</g>
<!-- Node24&#45;&gt;Node9 -->
<g id="edge49" class="edge">
<title>Node24&#45;&gt;Node9</title>
<path fill="none" stroke="midnightblue" d="M290.13,-206.94C335.23,-196.76 411.48,-179.55 467.95,-166.8"/>
<polygon fill="midnightblue" stroke="midnightblue" points="468.91,-170.17 477.89,-164.56 467.37,-163.35 468.91,-170.17"/>
</g>
<!-- Node24&#45;&gt;Node10 -->
<g id="edge45" class="edge">
<title>Node24&#45;&gt;Node10</title>
<path fill="none" stroke="midnightblue" d="M243.66,-206.78C228.8,-190.56 201.55,-155.43 221.18,-134 283.12,-66.4 543.02,-119.36 632.18,-98 634.86,-97.36 637.59,-96.56 640.3,-95.66"/>
<polygon fill="midnightblue" stroke="midnightblue" points="641.69,-98.87 649.84,-92.1 639.25,-92.31 641.69,-98.87"/>
</g>
<!-- Node24&#45;&gt;Node11 -->
<g id="edge43" class="edge">
<title>Node24&#45;&gt;Node11</title>
<path fill="none" stroke="midnightblue" d="M236.44,-206.79C211.16,-191.73 166.47,-159.93 188.18,-134 246.74,-64.09 302.53,-123.17 390.18,-98 392.62,-97.3 395.12,-96.49 397.61,-95.62"/>
<polygon fill="midnightblue" stroke="midnightblue" points="398.89,-98.88 407.01,-92.07 396.42,-92.33 398.89,-98.88"/>
</g>
<!-- Node24&#45;&gt;Node12 -->
<g id="edge46" class="edge">
<title>Node24&#45;&gt;Node12</title>
<path fill="none" stroke="midnightblue" d="M224.5,-206.9C186.26,-193.6 124.74,-166.18 150.18,-134 172.84,-105.34 281.6,-91.25 334.36,-86"/>
<polygon fill="midnightblue" stroke="midnightblue" points="334.79,-89.48 344.42,-85.04 334.13,-82.51 334.79,-89.48"/>
</g>
<!-- Node24&#45;&gt;Node18 -->
<g id="edge44" class="edge">
<title>Node24&#45;&gt;Node18</title>
<path fill="none" stroke="midnightblue" d="M227.49,-206.87C194.88,-195.47 137.3,-175.35 100.49,-162.49"/>
<polygon fill="midnightblue" stroke="midnightblue" points="101.28,-159.06 90.69,-159.06 98.98,-165.67 101.28,-159.06"/>
</g>
<!-- Node24&#45;&gt;Node22 -->
<g id="edge47" class="edge">
<title>Node24&#45;&gt;Node22</title>
<path fill="none" stroke="midnightblue" d="M264.05,-206.73C278.44,-196.11 302.89,-178.05 320.2,-165.26"/>
<polygon fill="midnightblue" stroke="midnightblue" points="322.54,-167.88 328.5,-159.13 318.38,-162.25 322.54,-167.88"/>
</g>
<!-- Node24&#45;&gt;Node23 -->
<g id="edge48" class="edge">
<title>Node24&#45;&gt;Node23</title>
<path fill="none" stroke="midnightblue" d="M253.67,-206.73C255.28,-197.18 257.92,-181.62 260.01,-169.28"/>
<polygon fill="midnightblue" stroke="midnightblue" points="263.51,-169.57 261.72,-159.13 256.61,-168.4 263.51,-169.57"/>
</g>
<!-- Node25&#45;&gt;Node16 -->
<g id="edge53" class="edge">
<title>Node25&#45;&gt;Node16</title>
<path fill="none" stroke="midnightblue" d="M874.18,-324.32C882.38,-316.42 894.69,-304.55 904.66,-294.94"/>
<polygon fill="midnightblue" stroke="midnightblue" points="907.25,-297.29 912.02,-287.83 902.4,-292.26 907.25,-297.29"/>
</g>
</g>
</svg>
