<?xml version="1.0" encoding="UTF-8" standalone="no"?>
<!DOCTYPE svg PUBLIC "-//W3C//DTD SVG 1.1//EN"
 "http://www.w3.org/Graphics/SVG/1.1/DTD/svg11.dtd">
<!-- Generated by graphviz version 2.38.0 (20140413.2041)
 -->
<!-- Title: xalanc/XPath/XPathExecutionContext.hpp Pages: 1 -->
<svg width="1400pt" height="497pt"
 viewBox="0.00 0.00 1400.00 497.00" xmlns="http://www.w3.org/2000/svg" xmlns:xlink="http://www.w3.org/1999/xlink">
<g id="graph0" class="graph" transform="scale(1 1) rotate(0) translate(4 493)">
<title>xalanc/XPath/XPathExecutionContext.hpp</title>
<!-- Node1 -->
<g id="node1" class="node"><title>Node1</title>
<g id="a_node1"><a xlink:title=" ">
<polygon fill="#bfbfbf" stroke="black" points="801,-458.5 801,-488.5 947,-488.5 947,-458.5 801,-458.5"/>
<text text-anchor="start" x="809" y="-476.5" font-family="Helvetica,sans-Serif" font-size="10.00">xalanc/XPath/XPathExecution</text>
<text text-anchor="middle" x="874" y="-465.5" font-family="Helvetica,sans-Serif" font-size="10.00">Context.hpp</text>
</a>
</g>
</g>
<!-- Node2 -->
<g id="node2" class="node"><title>Node2</title>
<g id="a_node2"><a xlink:href="XPathDefinitions_8hpp.html" target="_top" xlink:title=" ">
<polygon fill="none" stroke="black" points="1226,-140 1226,-159 1392,-159 1392,-140 1226,-140"/>
<text text-anchor="middle" x="1309" y="-147" font-family="Helvetica,sans-Serif" font-size="10.00">xalanc/XPath/XPathDefinitions.hpp</text>
</a>
</g>
</g>
<!-- Node1&#45;&gt;Node2 -->
<g id="edge1" class="edge"><title>Node1&#45;&gt;Node2</title>
<path fill="none" stroke="midnightblue" d="M947.067,-469.817C1085.22,-462.745 1371,-437.696 1371,-351.5 1371,-351.5 1371,-351.5 1371,-282.5 1371,-237.374 1340.95,-191.101 1322.69,-167.151"/>
<polygon fill="midnightblue" stroke="midnightblue" points="1325.29,-164.802 1316.36,-159.113 1319.8,-169.134 1325.29,-164.802"/>
</g>
<!-- Node7 -->
<g id="node7" class="node"><title>Node7</title>
<g id="a_node7"><a xlink:title=" ">
<polygon fill="none" stroke="#bfbfbf" points="51.5,-73 51.5,-92 100.5,-92 100.5,-73 51.5,-73"/>
<text text-anchor="middle" x="76" y="-80" font-family="Helvetica,sans-Serif" font-size="10.00">cassert</text>
</a>
</g>
</g>
<!-- Node1&#45;&gt;Node7 -->
<g id="edge6" class="edge"><title>Node1&#45;&gt;Node7</title>
<path fill="none" stroke="midnightblue" d="M800.987,-470.031C590.93,-461.966 0,-432.113 0,-351.5 0,-351.5 0,-351.5 0,-215.5 0,-168.191 37.118,-122.538 59.474,-99.3316"/>
<polygon fill="midnightblue" stroke="midnightblue" points="62.1053,-101.649 66.6809,-92.0936 57.1449,-96.7104 62.1053,-101.649"/>
</g>
<!-- Node8 -->
<g id="node8" class="node"><title>Node8</title>
<g id="a_node8"><a xlink:href="XalanVector_8hpp.html" target="_top" xlink:title=" ">
<polygon fill="none" stroke="black" points="441,-207 441,-226 593,-226 593,-207 441,-207"/>
<text text-anchor="middle" x="517" y="-214" font-family="Helvetica,sans-Serif" font-size="10.00">xalanc/Include/XalanVector.hpp</text>
</a>
</g>
</g>
<!-- Node1&#45;&gt;Node8 -->
<g id="edge7" class="edge"><title>Node1&#45;&gt;Node8</title>
<path fill="none" stroke="midnightblue" d="M800.797,-470.674C715.72,-466.977 582.437,-455.799 547,-422 495.369,-372.755 505.845,-276.636 513.097,-236.168"/>
<polygon fill="midnightblue" stroke="midnightblue" points="516.579,-236.594 515.045,-226.111 509.707,-235.263 516.579,-236.594"/>
</g>
<!-- Node16 -->
<g id="node16" class="node"><title>Node16</title>
<g id="a_node16"><a xlink:href="XalanDOMString_8hpp.html" target="_top" xlink:title=" ">
<polygon fill="none" stroke="black" points="556.5,-402.5 556.5,-421.5 743.5,-421.5 743.5,-402.5 556.5,-402.5"/>
<text text-anchor="middle" x="650" y="-409.5" font-family="Helvetica,sans-Serif" font-size="10.00">xalanc/XalanDOM/XalanDOMString.hpp</text>
</a>
</g>
</g>
<!-- Node1&#45;&gt;Node16 -->
<g id="edge21" class="edge"><title>Node1&#45;&gt;Node16</title>
<path fill="none" stroke="midnightblue" d="M821.199,-458.475C781.71,-447.986 728.444,-433.837 691.871,-424.122"/>
<polygon fill="midnightblue" stroke="midnightblue" points="692.587,-420.691 682.024,-421.506 690.79,-427.456 692.587,-420.691"/>
</g>
<!-- Node24 -->
<g id="node24" class="node"><title>Node24</title>
<g id="a_node24"><a xlink:href="ExecutionContext_8hpp.html" target="_top" xlink:title=" ">
<polygon fill="none" stroke="black" points="1021,-268.5 1021,-298.5 1139,-298.5 1139,-268.5 1021,-268.5"/>
<text text-anchor="start" x="1029" y="-286.5" font-family="Helvetica,sans-Serif" font-size="10.00">xalanc/PlatformSupport</text>
<text text-anchor="middle" x="1080" y="-275.5" font-family="Helvetica,sans-Serif" font-size="10.00">/ExecutionContext.hpp</text>
</a>
</g>
</g>
<!-- Node1&#45;&gt;Node24 -->
<g id="edge49" class="edge"><title>Node1&#45;&gt;Node24</title>
<path fill="none" stroke="midnightblue" d="M892.356,-458.305C917.718,-438.453 964.584,-400.902 1002,-366 1022.8,-346.598 1045.1,-322.979 1060.51,-306.173"/>
<polygon fill="midnightblue" stroke="midnightblue" points="1063.34,-308.268 1067.48,-298.518 1058.16,-303.554 1063.34,-308.268"/>
</g>
<!-- Node28 -->
<g id="node28" class="node"><title>Node28</title>
<g id="a_node28"><a xlink:href="MutableNodeRefList_8hpp.html" target="_top" xlink:title=" ">
<polygon fill="none" stroke="black" points="1164,-335.5 1164,-365.5 1298,-365.5 1298,-335.5 1164,-335.5"/>
<text text-anchor="start" x="1172" y="-353.5" font-family="Helvetica,sans-Serif" font-size="10.00">xalanc/XPath/MutableNode</text>
<text text-anchor="middle" x="1231" y="-342.5" font-family="Helvetica,sans-Serif" font-size="10.00">RefList.hpp</text>
</a>
</g>
</g>
<!-- Node1&#45;&gt;Node28 -->
<g id="edge56" class="edge"><title>Node1&#45;&gt;Node28</title>
<path fill="none" stroke="midnightblue" d="M936.173,-458.449C973.849,-449.346 1022.66,-436.506 1065,-422 1109.48,-406.761 1158.9,-385.14 1192.16,-369.869"/>
<polygon fill="midnightblue" stroke="midnightblue" points="1193.9,-372.917 1201.51,-365.545 1190.97,-366.563 1193.9,-372.917"/>
</g>
<!-- Node3 -->
<g id="node3" class="node"><title>Node3</title>
<g id="a_node3"><a xlink:href="PlatformDefinitions_8hpp.html" target="_top" xlink:title=" ">
<polygon fill="none" stroke="black" points="721,-73 721,-92 903,-92 903,-73 721,-73"/>
<text text-anchor="middle" x="812" y="-80" font-family="Helvetica,sans-Serif" font-size="10.00">xalanc/Include/PlatformDefinitions.hpp</text>
</a>
</g>
</g>
<!-- Node2&#45;&gt;Node3 -->
<g id="edge2" class="edge"><title>Node2&#45;&gt;Node3</title>
<path fill="none" stroke="midnightblue" d="M1253.38,-139.963C1239.85,-137.947 1225.41,-135.849 1212,-134 1101.95,-118.83 974.61,-103.059 893.718,-93.2639"/>
<polygon fill="midnightblue" stroke="midnightblue" points="893.947,-89.7661 883.599,-92.0403 893.107,-96.7155 893.947,-89.7661"/>
</g>
<!-- Node4 -->
<g id="node4" class="node"><title>Node4</title>
<g id="a_node4"><a xlink:title=" ">
<polygon fill="none" stroke="#bfbfbf" points="610,-0.5 610,-30.5 718,-30.5 718,-0.5 610,-0.5"/>
<text text-anchor="start" x="618" y="-18.5" font-family="Helvetica,sans-Serif" font-size="10.00">xercesc/util/Xerces</text>
<text text-anchor="middle" x="664" y="-7.5" font-family="Helvetica,sans-Serif" font-size="10.00">_autoconf_config.hpp</text>
</a>
</g>
</g>
<!-- Node3&#45;&gt;Node4 -->
<g id="edge3" class="edge"><title>Node3&#45;&gt;Node4</title>
<path fill="none" stroke="midnightblue" d="M792.347,-72.8685C770.235,-63.1572 733.695,-47.1092 705.246,-34.6148"/>
<polygon fill="midnightblue" stroke="midnightblue" points="706.504,-31.3447 695.941,-30.5281 703.689,-37.7539 706.504,-31.3447"/>
</g>
<!-- Node5 -->
<g id="node5" class="node"><title>Node5</title>
<g id="a_node5"><a xlink:title=" ">
<polygon fill="none" stroke="#bfbfbf" points="736.5,-6 736.5,-25 887.5,-25 887.5,-6 736.5,-6"/>
<text text-anchor="middle" x="812" y="-13" font-family="Helvetica,sans-Serif" font-size="10.00">xercesc/util/XercesVersion.hpp</text>
</a>
</g>
</g>
<!-- Node3&#45;&gt;Node5 -->
<g id="edge4" class="edge"><title>Node3&#45;&gt;Node5</title>
<path fill="none" stroke="midnightblue" d="M812,-72.7338C812,-63.1826 812,-47.6183 812,-35.2829"/>
<polygon fill="midnightblue" stroke="midnightblue" points="815.5,-35.1273 812,-25.1273 808.5,-35.1273 815.5,-35.1273"/>
</g>
<!-- Node6 -->
<g id="node6" class="node"><title>Node6</title>
<g id="a_node6"><a xlink:href="XalanVersion_8hpp.html" target="_top" xlink:title=" ">
<polygon fill="none" stroke="black" points="906,-6 906,-25 998,-25 998,-6 906,-6"/>
<text text-anchor="middle" x="952" y="-13" font-family="Helvetica,sans-Serif" font-size="10.00">XalanVersion.hpp</text>
</a>
</g>
</g>
<!-- Node3&#45;&gt;Node6 -->
<g id="edge5" class="edge"><title>Node3&#45;&gt;Node6</title>
<path fill="none" stroke="midnightblue" d="M830.591,-72.8685C854.544,-61.7476 896.395,-42.3167 924.154,-29.4286"/>
<polygon fill="midnightblue" stroke="midnightblue" points="925.736,-32.5529 933.332,-25.1672 922.788,-26.2038 925.736,-32.5529"/>
</g>
<!-- Node8&#45;&gt;Node3 -->
<g id="edge8" class="edge"><title>Node8&#45;&gt;Node3</title>
<path fill="none" stroke="midnightblue" d="M530.157,-206.99C555.106,-191.107 611.338,-156.527 662,-134 697.979,-118.001 740.68,-104.09 771.303,-94.9423"/>
<polygon fill="midnightblue" stroke="midnightblue" points="772.595,-98.2104 781.198,-92.0265 770.616,-91.4959 772.595,-98.2104"/>
</g>
<!-- Node8&#45;&gt;Node7 -->
<g id="edge11" class="edge"><title>Node8&#45;&gt;Node7</title>
<path fill="none" stroke="midnightblue" d="M469.412,-206.958C457.234,-204.889 444.148,-202.766 432,-201 365.772,-191.37 190.396,-199.417 133,-165 108.636,-150.39 92.0448,-120.895 83.2992,-101.683"/>
<polygon fill="midnightblue" stroke="midnightblue" points="86.4035,-100.041 79.2481,-92.2276 79.9691,-102.798 86.4035,-100.041"/>
</g>
<!-- Node9 -->
<g id="node9" class="node"><title>Node9</title>
<g id="a_node9"><a xlink:title=" ">
<polygon fill="none" stroke="#bfbfbf" points="581,-73 581,-92 629,-92 629,-73 581,-73"/>
<text text-anchor="middle" x="605" y="-80" font-family="Helvetica,sans-Serif" font-size="10.00">cstddef</text>
</a>
</g>
</g>
<!-- Node8&#45;&gt;Node9 -->
<g id="edge9" class="edge"><title>Node8&#45;&gt;Node9</title>
<path fill="none" stroke="midnightblue" d="M522.774,-206.839C537.134,-185.299 574.666,-129 593.652,-100.522"/>
<polygon fill="midnightblue" stroke="midnightblue" points="596.684,-102.283 599.319,-92.0212 590.86,-98.4002 596.684,-102.283"/>
</g>
<!-- Node10 -->
<g id="node10" class="node"><title>Node10</title>
<g id="a_node10"><a xlink:title=" ">
<polygon fill="none" stroke="#bfbfbf" points="671,-140 671,-159 727,-159 727,-140 671,-140"/>
<text text-anchor="middle" x="699" y="-147" font-family="Helvetica,sans-Serif" font-size="10.00">algorithm</text>
</a>
</g>
</g>
<!-- Node8&#45;&gt;Node10 -->
<g id="edge10" class="edge"><title>Node8&#45;&gt;Node10</title>
<path fill="none" stroke="midnightblue" d="M541.168,-206.869C573.075,-195.473 629.412,-175.353 665.437,-162.487"/>
<polygon fill="midnightblue" stroke="midnightblue" points="666.781,-165.723 675.022,-159.064 664.427,-159.131 666.781,-165.723"/>
</g>
<!-- Node11 -->
<g id="node11" class="node"><title>Node11</title>
<g id="a_node11"><a xlink:title=" ">
<polygon fill="none" stroke="#bfbfbf" points="296,-73 296,-92 330,-92 330,-73 296,-73"/>
<text text-anchor="middle" x="313" y="-80" font-family="Helvetica,sans-Serif" font-size="10.00">new</text>
</a>
</g>
</g>
<!-- Node8&#45;&gt;Node11 -->
<g id="edge12" class="edge"><title>Node8&#45;&gt;Node11</title>
<path fill="none" stroke="midnightblue" d="M519.079,-206.653C522.378,-190.21 526.757,-154.733 509,-134 487.165,-108.506 388.758,-92.9377 340.23,-86.6793"/>
<polygon fill="midnightblue" stroke="midnightblue" points="340.487,-83.1842 330.13,-85.4188 339.62,-90.1304 340.487,-83.1842"/>
</g>
<!-- Node12 -->
<g id="node12" class="node"><title>Node12</title>
<g id="a_node12"><a xlink:title=" ">
<polygon fill="none" stroke="#bfbfbf" points="376.5,-140 376.5,-159 423.5,-159 423.5,-140 376.5,-140"/>
<text text-anchor="middle" x="400" y="-147" font-family="Helvetica,sans-Serif" font-size="10.00">iterator</text>
</a>
</g>
</g>
<!-- Node8&#45;&gt;Node12 -->
<g id="edge13" class="edge"><title>Node8&#45;&gt;Node12</title>
<path fill="none" stroke="midnightblue" d="M501.221,-206.734C481.485,-195.769 447.486,-176.881 424.389,-164.049"/>
<polygon fill="midnightblue" stroke="midnightblue" points="425.97,-160.924 415.529,-159.127 422.571,-167.043 425.97,-160.924"/>
</g>
<!-- Node13 -->
<g id="node13" class="node"><title>Node13</title>
<g id="a_node13"><a xlink:title=" ">
<polygon fill="none" stroke="#bfbfbf" points="441.5,-140 441.5,-159 500.5,-159 500.5,-140 441.5,-140"/>
<text text-anchor="middle" x="471" y="-147" font-family="Helvetica,sans-Serif" font-size="10.00">stdexcept</text>
</a>
</g>
</g>
<!-- Node8&#45;&gt;Node13 -->
<g id="edge14" class="edge"><title>Node8&#45;&gt;Node13</title>
<path fill="none" stroke="midnightblue" d="M510.796,-206.734C503.692,-196.695 491.887,-180.014 482.975,-167.421"/>
<polygon fill="midnightblue" stroke="midnightblue" points="485.739,-165.268 477.105,-159.127 480.025,-169.312 485.739,-165.268"/>
</g>
<!-- Node14 -->
<g id="node14" class="node"><title>Node14</title>
<g id="a_node14"><a xlink:href="XalanMemoryManagement_8hpp.html" target="_top" xlink:title=" ">
<polygon fill="none" stroke="black" points="142,-134.5 142,-164.5 282,-164.5 282,-134.5 142,-134.5"/>
<text text-anchor="start" x="150" y="-152.5" font-family="Helvetica,sans-Serif" font-size="10.00">xalanc/Include/XalanMemory</text>
<text text-anchor="middle" x="212" y="-141.5" font-family="Helvetica,sans-Serif" font-size="10.00">Management.hpp</text>
</a>
</g>
</g>
<!-- Node8&#45;&gt;Node14 -->
<g id="edge15" class="edge"><title>Node8&#45;&gt;Node14</title>
<path fill="none" stroke="midnightblue" d="M476.813,-206.936C428.852,-196.714 347.635,-179.406 287.762,-166.646"/>
<polygon fill="midnightblue" stroke="midnightblue" points="288.48,-163.22 277.97,-164.559 287.021,-170.067 288.48,-163.22"/>
</g>
<!-- Node14&#45;&gt;Node3 -->
<g id="edge16" class="edge"><title>Node14&#45;&gt;Node3</title>
<path fill="none" stroke="midnightblue" d="M282.002,-140.916C391.488,-129.055 603.115,-106.129 723.179,-93.1223"/>
<polygon fill="midnightblue" stroke="midnightblue" points="723.874,-96.5675 733.439,-92.0108 723.12,-89.6083 723.874,-96.5675"/>
</g>
<!-- Node14&#45;&gt;Node7 -->
<g id="edge17" class="edge"><title>Node14&#45;&gt;Node7</title>
<path fill="none" stroke="midnightblue" d="M182.49,-134.396C158.838,-123.092 125.924,-107.361 102.97,-96.3903"/>
<polygon fill="midnightblue" stroke="midnightblue" points="104.331,-93.1614 93.7993,-92.007 101.312,-99.4771 104.331,-93.1614"/>
</g>
<!-- Node14&#45;&gt;Node9 -->
<g id="edge18" class="edge"><title>Node14&#45;&gt;Node9</title>
<path fill="none" stroke="midnightblue" d="M282.261,-136.879C367.171,-122.836 506.619,-99.7716 570.764,-89.1624"/>
<polygon fill="midnightblue" stroke="midnightblue" points="571.459,-92.5951 580.754,-87.5101 570.317,-85.6889 571.459,-92.5951"/>
</g>
<!-- Node14&#45;&gt;Node11 -->
<g id="edge19" class="edge"><title>Node14&#45;&gt;Node11</title>
<path fill="none" stroke="midnightblue" d="M233.915,-134.396C250.853,-123.496 274.187,-108.479 291.116,-97.5835"/>
<polygon fill="midnightblue" stroke="midnightblue" points="293.266,-100.362 299.781,-92.007 289.478,-94.4756 293.266,-100.362"/>
</g>
<!-- Node15 -->
<g id="node15" class="node"><title>Node15</title>
<g id="a_node15"><a xlink:title=" ">
<polygon fill="none" stroke="#bfbfbf" points="140.5,-67.5 140.5,-97.5 277.5,-97.5 277.5,-67.5 140.5,-67.5"/>
<text text-anchor="start" x="148.5" y="-85.5" font-family="Helvetica,sans-Serif" font-size="10.00">xercesc/framework/Memory</text>
<text text-anchor="middle" x="209" y="-74.5" font-family="Helvetica,sans-Serif" font-size="10.00">Manager.hpp</text>
</a>
</g>
</g>
<!-- Node14&#45;&gt;Node15 -->
<g id="edge20" class="edge"><title>Node14&#45;&gt;Node15</title>
<path fill="none" stroke="midnightblue" d="M211.349,-134.396C210.991,-126.645 210.537,-116.812 210.124,-107.86"/>
<polygon fill="midnightblue" stroke="midnightblue" points="213.607,-107.404 209.65,-97.5765 206.615,-107.727 213.607,-107.404"/>
</g>
<!-- Node16&#45;&gt;Node7 -->
<g id="edge24" class="edge"><title>Node16&#45;&gt;Node7</title>
<path fill="none" stroke="midnightblue" d="M556.384,-410.798C384.945,-407.882 38,-389.063 38,-284.5 38,-284.5 38,-284.5 38,-215.5 38,-173.35 56.1143,-126.48 67.3297,-101.5"/>
<polygon fill="midnightblue" stroke="midnightblue" points="70.6052,-102.756 71.6409,-92.2119 64.2559,-99.8087 70.6052,-102.756"/>
</g>
<!-- Node16&#45;&gt;Node8 -->
<g id="edge46" class="edge"><title>Node16&#45;&gt;Node8</title>
<path fill="none" stroke="midnightblue" d="M623.769,-402.367C605.794,-395.218 582.643,-383.39 568,-366 535.461,-327.357 523.306,-266.839 519.075,-236.37"/>
<polygon fill="midnightblue" stroke="midnightblue" points="522.526,-235.761 517.815,-226.272 515.58,-236.628 522.526,-235.761"/>
</g>
<!-- Node16&#45;&gt;Node14 -->
<g id="edge45" class="edge"><title>Node16&#45;&gt;Node14</title>
<path fill="none" stroke="midnightblue" d="M556.443,-407.177C441.166,-396.846 249.599,-360.121 160,-232 145.797,-211.691 165.278,-187.696 184.31,-171.024"/>
<polygon fill="midnightblue" stroke="midnightblue" points="186.611,-173.663 192.062,-164.579 182.135,-168.281 186.611,-173.663"/>
</g>
<!-- Node17 -->
<g id="node17" class="node"><title>Node17</title>
<g id="a_node17"><a xlink:href="XalanDOMDefinitions_8hpp.html" target="_top" xlink:title=" ">
<polygon fill="none" stroke="black" points="797,-274 797,-293 1003,-293 1003,-274 797,-274"/>
<text text-anchor="middle" x="900" y="-281" font-family="Helvetica,sans-Serif" font-size="10.00">xalanc/XalanDOM/XalanDOMDefinitions.hpp</text>
</a>
</g>
</g>
<!-- Node16&#45;&gt;Node17 -->
<g id="edge22" class="edge"><title>Node16&#45;&gt;Node17</title>
<path fill="none" stroke="midnightblue" d="M666.558,-402.421C683.28,-393.639 709.748,-379.414 732,-366 753.431,-353.081 756.912,-346.76 779,-335 807.432,-319.863 841.402,-306.03 866.101,-296.685"/>
<polygon fill="midnightblue" stroke="midnightblue" points="867.598,-299.862 875.743,-293.086 865.15,-293.304 867.598,-299.862"/>
</g>
<!-- Node18 -->
<g id="node18" class="node"><title>Node18</title>
<g id="a_node18"><a xlink:href="STLHelper_8hpp.html" target="_top" xlink:title=" ">
<polygon fill="none" stroke="black" points="577,-341 577,-360 723,-360 723,-341 577,-341"/>
<text text-anchor="middle" x="650" y="-348" font-family="Helvetica,sans-Serif" font-size="10.00">xalanc/Include/STLHelper.hpp</text>
</a>
</g>
</g>
<!-- Node16&#45;&gt;Node18 -->
<g id="edge25" class="edge"><title>Node16&#45;&gt;Node18</title>
<path fill="none" stroke="midnightblue" d="M650,-402.475C650,-394.08 650,-380.981 650,-370.163"/>
<polygon fill="midnightblue" stroke="midnightblue" points="653.5,-370.009 650,-360.009 646.5,-370.009 653.5,-370.009"/>
</g>
<!-- Node23 -->
<g id="node23" class="node"><title>Node23</title>
<g id="a_node23"><a xlink:href="XalanDOMException_8hpp.html" target="_top" xlink:title=" ">
<polygon fill="none" stroke="black" points="788.5,-341 788.5,-360 993.5,-360 993.5,-341 788.5,-341"/>
<text text-anchor="middle" x="891" y="-348" font-family="Helvetica,sans-Serif" font-size="10.00">xalanc/XalanDOM/XalanDOMException.hpp</text>
</a>
</g>
</g>
<!-- Node16&#45;&gt;Node23 -->
<g id="edge47" class="edge"><title>Node16&#45;&gt;Node23</title>
<path fill="none" stroke="midnightblue" d="M684.529,-402.475C727.212,-391.937 799.921,-373.986 846.682,-362.441"/>
<polygon fill="midnightblue" stroke="midnightblue" points="847.665,-365.804 856.535,-360.009 845.987,-359.008 847.665,-365.804"/>
</g>
<!-- Node17&#45;&gt;Node3 -->
<g id="edge23" class="edge"><title>Node17&#45;&gt;Node3</title>
<path fill="none" stroke="midnightblue" d="M897.541,-273.847C890.764,-250.548 870.609,-184.822 845,-134 839.071,-122.234 831.001,-109.838 824.325,-100.271"/>
<polygon fill="midnightblue" stroke="midnightblue" points="827.131,-98.1779 818.467,-92.0793 821.437,-102.25 827.131,-98.1779"/>
</g>
<!-- Node18&#45;&gt;Node3 -->
<g id="edge26" class="edge"><title>Node18&#45;&gt;Node3</title>
<path fill="none" stroke="midnightblue" d="M669.45,-340.84C687.017,-332.246 712.694,-317.671 730,-299 775.817,-249.569 780.394,-229.172 801,-165 807.668,-144.235 810.295,-119.234 811.329,-102.445"/>
<polygon fill="midnightblue" stroke="midnightblue" points="814.833,-102.444 811.821,-92.2866 807.841,-102.106 814.833,-102.444"/>
</g>
<!-- Node18&#45;&gt;Node10 -->
<g id="edge27" class="edge"><title>Node18&#45;&gt;Node10</title>
<path fill="none" stroke="midnightblue" d="M667.043,-340.962C681.744,-332.542 701.989,-318.159 711,-299 731.304,-255.831 716.123,-197.785 706.049,-168.705"/>
<polygon fill="midnightblue" stroke="midnightblue" points="709.246,-167.258 702.522,-159.07 702.673,-169.664 709.246,-167.258"/>
</g>
<!-- Node19 -->
<g id="node19" class="node"><title>Node19</title>
<g id="a_node19"><a xlink:title=" ">
<polygon fill="none" stroke="#bfbfbf" points="169,-207 169,-226 227,-226 227,-207 169,-207"/>
<text text-anchor="middle" x="198" y="-214" font-family="Helvetica,sans-Serif" font-size="10.00">functional</text>
</a>
</g>
</g>
<!-- Node18&#45;&gt;Node19 -->
<g id="edge28" class="edge"><title>Node18&#45;&gt;Node19</title>
<path fill="none" stroke="midnightblue" d="M618.555,-340.991C549.79,-322.27 380.992,-275.687 241,-232 238.25,-231.142 235.409,-230.233 232.558,-229.306"/>
<polygon fill="midnightblue" stroke="midnightblue" points="233.542,-225.945 222.949,-226.127 231.344,-232.591 233.542,-225.945"/>
</g>
<!-- Node20 -->
<g id="node20" class="node"><title>Node20</title>
<g id="a_node20"><a xlink:href="XalanMap_8hpp.html" target="_top" xlink:title=" ">
<polygon fill="none" stroke="black" points="559.5,-274 559.5,-293 702.5,-293 702.5,-274 559.5,-274"/>
<text text-anchor="middle" x="631" y="-281" font-family="Helvetica,sans-Serif" font-size="10.00">xalanc/Include/XalanMap.hpp</text>
</a>
</g>
</g>
<!-- Node18&#45;&gt;Node20 -->
<g id="edge29" class="edge"><title>Node18&#45;&gt;Node20</title>
<path fill="none" stroke="midnightblue" d="M647.438,-340.734C644.617,-331.085 640.003,-315.3 636.38,-302.906"/>
<polygon fill="midnightblue" stroke="midnightblue" points="639.687,-301.744 633.522,-293.127 632.968,-303.708 639.687,-301.744"/>
</g>
<!-- Node20&#45;&gt;Node3 -->
<g id="edge30" class="edge"><title>Node20&#45;&gt;Node3</title>
<path fill="none" stroke="midnightblue" d="M657.897,-273.976C679.725,-265.963 710.186,-252.164 731,-232 770.449,-193.782 795.491,-132.144 806.12,-101.706"/>
<polygon fill="midnightblue" stroke="midnightblue" points="809.513,-102.599 809.384,-92.0045 802.878,-100.366 809.513,-102.599"/>
</g>
<!-- Node20&#45;&gt;Node8 -->
<g id="edge35" class="edge"><title>Node20&#45;&gt;Node8</title>
<path fill="none" stroke="midnightblue" d="M615.625,-273.734C596.481,-262.818 563.562,-244.049 541.064,-231.221"/>
<polygon fill="midnightblue" stroke="midnightblue" points="542.552,-228.04 532.131,-226.127 539.084,-234.121 542.552,-228.04"/>
</g>
<!-- Node20&#45;&gt;Node9 -->
<g id="edge31" class="edge"><title>Node20&#45;&gt;Node9</title>
<path fill="none" stroke="midnightblue" d="M645.663,-273.856C682.387,-251.107 772.803,-187.631 736,-134 714.378,-102.492 670.108,-90.6356 639.039,-86.1784"/>
<polygon fill="midnightblue" stroke="midnightblue" points="639.417,-82.6985 629.06,-84.9327 638.55,-89.6445 639.417,-82.6985"/>
</g>
<!-- Node20&#45;&gt;Node10 -->
<g id="edge32" class="edge"><title>Node20&#45;&gt;Node10</title>
<path fill="none" stroke="midnightblue" d="M636.338,-273.673C642.317,-263.68 652.194,-246.857 660,-232 671.359,-210.382 683.326,-184.915 690.961,-168.276"/>
<polygon fill="midnightblue" stroke="midnightblue" points="694.148,-169.722 695.11,-159.171 687.779,-166.819 694.148,-169.722"/>
</g>
<!-- Node20&#45;&gt;Node19 -->
<g id="edge33" class="edge"><title>Node20&#45;&gt;Node19</title>
<path fill="none" stroke="midnightblue" d="M559.236,-273.982C455.111,-261.504 271.226,-238.982 241,-232 237.517,-231.195 233.918,-230.221 230.353,-229.161"/>
<polygon fill="midnightblue" stroke="midnightblue" points="231.113,-225.73 220.523,-226.022 228.984,-232.398 231.113,-225.73"/>
</g>
<!-- Node21 -->
<g id="node21" class="node"><title>Node21</title>
<g id="a_node21"><a xlink:title=" ">
<polygon fill="none" stroke="#bfbfbf" points="611,-207 611,-226 651,-226 651,-207 611,-207"/>
<text text-anchor="middle" x="631" y="-214" font-family="Helvetica,sans-Serif" font-size="10.00">utility</text>
</a>
</g>
</g>
<!-- Node20&#45;&gt;Node21 -->
<g id="edge34" class="edge"><title>Node20&#45;&gt;Node21</title>
<path fill="none" stroke="midnightblue" d="M631,-273.734C631,-264.183 631,-248.618 631,-236.283"/>
<polygon fill="midnightblue" stroke="midnightblue" points="634.5,-236.127 631,-226.127 627.5,-236.127 634.5,-236.127"/>
</g>
<!-- Node22 -->
<g id="node22" class="node"><title>Node22</title>
<g id="a_node22"><a xlink:href="XalanList_8hpp.html" target="_top" xlink:title=" ">
<polygon fill="none" stroke="black" points="283,-207 283,-226 423,-226 423,-207 283,-207"/>
<text text-anchor="middle" x="353" y="-214" font-family="Helvetica,sans-Serif" font-size="10.00">xalanc/Include/XalanList.hpp</text>
</a>
</g>
</g>
<!-- Node20&#45;&gt;Node22 -->
<g id="edge36" class="edge"><title>Node20&#45;&gt;Node22</title>
<path fill="none" stroke="midnightblue" d="M594.37,-273.936C544.264,-262.22 454.331,-241.193 399.519,-228.377"/>
<polygon fill="midnightblue" stroke="midnightblue" points="400.245,-224.952 389.711,-226.083 398.651,-231.768 400.245,-224.952"/>
</g>
<!-- Node22&#45;&gt;Node3 -->
<g id="edge37" class="edge"><title>Node22&#45;&gt;Node3</title>
<path fill="none" stroke="midnightblue" d="M380.124,-206.952C411.298,-197.073 463.962,-180.22 509,-165 548.284,-151.724 557.202,-145.647 597,-134 651.965,-117.915 715.981,-103.408 759.776,-94.114"/>
<polygon fill="midnightblue" stroke="midnightblue" points="760.564,-97.5248 769.628,-92.0387 759.121,-90.6751 760.564,-97.5248"/>
</g>
<!-- Node22&#45;&gt;Node7 -->
<g id="edge40" class="edge"><title>Node22&#45;&gt;Node7</title>
<path fill="none" stroke="midnightblue" d="M293.748,-206.955C223.536,-196.326 114.213,-177.997 100,-165 82.512,-149.009 77.5216,-120.991 76.2301,-102.339"/>
<polygon fill="midnightblue" stroke="midnightblue" points="79.7188,-101.981 75.8253,-92.1278 72.7243,-102.259 79.7188,-101.981"/>
</g>
<!-- Node22&#45;&gt;Node9 -->
<g id="edge38" class="edge"><title>Node22&#45;&gt;Node9</title>
<path fill="none" stroke="midnightblue" d="M351.637,-206.75C349.589,-190.152 347.793,-153.971 367,-134 394.702,-105.197 511.482,-91.3829 570.521,-86.1362"/>
<polygon fill="midnightblue" stroke="midnightblue" points="571.173,-89.5934 580.838,-85.2546 570.577,-82.6188 571.173,-89.5934"/>
</g>
<!-- Node22&#45;&gt;Node10 -->
<g id="edge39" class="edge"><title>Node22&#45;&gt;Node10</title>
<path fill="none" stroke="midnightblue" d="M398.589,-206.936C467.425,-194.004 596.649,-169.728 660.825,-157.672"/>
<polygon fill="midnightblue" stroke="midnightblue" points="661.735,-161.062 670.917,-155.776 660.442,-154.182 661.735,-161.062"/>
</g>
<!-- Node22&#45;&gt;Node11 -->
<g id="edge41" class="edge"><title>Node22&#45;&gt;Node11</title>
<path fill="none" stroke="midnightblue" d="M349.343,-206.662C345.283,-196.659 338.685,-179.827 334,-165 327.276,-143.718 321.1,-118.817 317.211,-102.193"/>
<polygon fill="midnightblue" stroke="midnightblue" points="320.555,-101.115 314.906,-92.1519 313.733,-102.681 320.555,-101.115"/>
</g>
<!-- Node22&#45;&gt;Node12 -->
<g id="edge42" class="edge"><title>Node22&#45;&gt;Node12</title>
<path fill="none" stroke="midnightblue" d="M359.339,-206.734C366.597,-196.695 378.659,-180.014 387.765,-167.421"/>
<polygon fill="midnightblue" stroke="midnightblue" points="390.739,-169.282 393.762,-159.127 385.066,-165.18 390.739,-169.282"/>
</g>
<!-- Node22&#45;&gt;Node13 -->
<g id="edge43" class="edge"><title>Node22&#45;&gt;Node13</title>
<path fill="none" stroke="midnightblue" d="M368.914,-206.734C388.819,-195.769 423.109,-176.881 446.403,-164.049"/>
<polygon fill="midnightblue" stroke="midnightblue" points="448.268,-167.018 455.338,-159.127 444.89,-160.887 448.268,-167.018"/>
</g>
<!-- Node22&#45;&gt;Node14 -->
<g id="edge44" class="edge"><title>Node22&#45;&gt;Node14</title>
<path fill="none" stroke="midnightblue" d="M334.276,-206.869C313.302,-197.199 278.701,-181.249 251.649,-168.778"/>
<polygon fill="midnightblue" stroke="midnightblue" points="252.977,-165.536 242.43,-164.528 250.046,-171.893 252.977,-165.536"/>
</g>
<!-- Node23&#45;&gt;Node17 -->
<g id="edge48" class="edge"><title>Node23&#45;&gt;Node17</title>
<path fill="none" stroke="midnightblue" d="M892.214,-340.734C893.536,-331.183 895.691,-315.618 897.399,-303.283"/>
<polygon fill="midnightblue" stroke="midnightblue" points="900.901,-303.513 898.805,-293.127 893.967,-302.553 900.901,-303.513"/>
</g>
<!-- Node24&#45;&gt;Node14 -->
<g id="edge52" class="edge"><title>Node24&#45;&gt;Node14</title>
<path fill="none" stroke="midnightblue" d="M1020.76,-269.28C1017.8,-268.805 1014.87,-268.374 1012,-268 930.589,-257.405 346.645,-270.246 274,-232 250.18,-219.459 232.848,-193.241 222.662,-173.913"/>
<polygon fill="midnightblue" stroke="midnightblue" points="225.713,-172.189 218.114,-164.806 219.45,-175.316 225.713,-172.189"/>
</g>
<!-- Node25 -->
<g id="node25" class="node"><title>Node25</title>
<g id="a_node25"><a xlink:href="PlatformSupportDefinitions_8hpp.html" target="_top" xlink:title=" ">
<polygon fill="none" stroke="black" points="1016.5,-134.5 1016.5,-164.5 1169.5,-164.5 1169.5,-134.5 1016.5,-134.5"/>
<text text-anchor="start" x="1024.5" y="-152.5" font-family="Helvetica,sans-Serif" font-size="10.00">xalanc/PlatformSupport</text>
<text text-anchor="middle" x="1093" y="-141.5" font-family="Helvetica,sans-Serif" font-size="10.00">/PlatformSupportDefinitions.hpp</text>
</a>
</g>
</g>
<!-- Node24&#45;&gt;Node25 -->
<g id="edge50" class="edge"><title>Node24&#45;&gt;Node25</title>
<path fill="none" stroke="midnightblue" d="M1081.39,-268.374C1083.6,-245.945 1087.94,-201.924 1090.64,-174.486"/>
<polygon fill="midnightblue" stroke="midnightblue" points="1094.12,-174.82 1091.62,-164.525 1087.16,-174.134 1094.12,-174.82"/>
</g>
<!-- Node26 -->
<g id="node26" class="node"><title>Node26</title>
<g id="a_node26"><a xlink:href="ProblemListenerBase_8hpp.html" target="_top" xlink:title=" ">
<polygon fill="none" stroke="black" points="933.5,-201.5 933.5,-231.5 1064.5,-231.5 1064.5,-201.5 933.5,-201.5"/>
<text text-anchor="start" x="941.5" y="-219.5" font-family="Helvetica,sans-Serif" font-size="10.00">xalanc/PlatformSupport</text>
<text text-anchor="middle" x="999" y="-208.5" font-family="Helvetica,sans-Serif" font-size="10.00">/ProblemListenerBase.hpp</text>
</a>
</g>
</g>
<!-- Node24&#45;&gt;Node26 -->
<g id="edge53" class="edge"><title>Node24&#45;&gt;Node26</title>
<path fill="none" stroke="midnightblue" d="M1062.42,-268.396C1051.39,-259.538 1036.96,-247.96 1024.65,-238.086"/>
<polygon fill="midnightblue" stroke="midnightblue" points="1026.53,-235.105 1016.54,-231.577 1022.15,-240.565 1026.53,-235.105"/>
</g>
<!-- Node25&#45;&gt;Node3 -->
<g id="edge51" class="edge"><title>Node25&#45;&gt;Node3</title>
<path fill="none" stroke="midnightblue" d="M1032.37,-134.476C980.365,-122.446 906.493,-105.358 858.903,-94.3493"/>
<polygon fill="midnightblue" stroke="midnightblue" points="859.402,-90.8724 848.87,-92.0287 857.824,-97.6924 859.402,-90.8724"/>
</g>
<!-- Node26&#45;&gt;Node25 -->
<g id="edge54" class="edge"><title>Node26&#45;&gt;Node25</title>
<path fill="none" stroke="midnightblue" d="M1019.4,-201.396C1032.45,-192.367 1049.6,-180.514 1064.05,-170.518"/>
<polygon fill="midnightblue" stroke="midnightblue" points="1066.41,-173.143 1072.64,-164.577 1062.43,-167.385 1066.41,-173.143"/>
</g>
<!-- Node27 -->
<g id="node27" class="node"><title>Node27</title>
<g id="a_node27"><a xlink:title=" ">
<polygon fill="none" stroke="#bfbfbf" points="897.5,-140 897.5,-159 998.5,-159 998.5,-140 897.5,-140"/>
<text text-anchor="middle" x="948" y="-147" font-family="Helvetica,sans-Serif" font-size="10.00">LocalMsgIndex.hpp</text>
</a>
</g>
</g>
<!-- Node26&#45;&gt;Node27 -->
<g id="edge55" class="edge"><title>Node26&#45;&gt;Node27</title>
<path fill="none" stroke="midnightblue" d="M987.934,-201.396C980.06,-191.361 969.45,-177.838 961.145,-167.253"/>
<polygon fill="midnightblue" stroke="midnightblue" points="963.748,-164.901 954.822,-159.195 958.241,-169.222 963.748,-164.901"/>
</g>
<!-- Node28&#45;&gt;Node2 -->
<g id="edge57" class="edge"><title>Node28&#45;&gt;Node2</title>
<path fill="none" stroke="midnightblue" d="M1271.02,-335.385C1287.39,-327.401 1304.66,-315.615 1314,-299 1337.31,-257.526 1324.44,-198.732 1315.42,-169.102"/>
<polygon fill="midnightblue" stroke="midnightblue" points="1318.65,-167.706 1312.23,-159.271 1311.99,-169.863 1318.65,-167.706"/>
</g>
<!-- Node29 -->
<g id="node29" class="node"><title>Node29</title>
<g id="a_node29"><a xlink:href="NodeRefList_8hpp.html" target="_top" xlink:title=" ">
<polygon fill="none" stroke="black" points="1157,-274 1157,-293 1305,-293 1305,-274 1157,-274"/>
<text text-anchor="middle" x="1231" y="-281" font-family="Helvetica,sans-Serif" font-size="10.00">xalanc/XPath/NodeRefList.hpp</text>
</a>
</g>
</g>
<!-- Node28&#45;&gt;Node29 -->
<g id="edge58" class="edge"><title>Node28&#45;&gt;Node29</title>
<path fill="none" stroke="midnightblue" d="M1231,-335.396C1231,-326.064 1231,-313.714 1231,-303.517"/>
<polygon fill="midnightblue" stroke="midnightblue" points="1234.5,-303.195 1231,-293.195 1227.5,-303.195 1234.5,-303.195"/>
</g>
<!-- Node29&#45;&gt;Node2 -->
<g id="edge59" class="edge"><title>Node29&#45;&gt;Node2</title>
<path fill="none" stroke="midnightblue" d="M1240.06,-273.898C1249.71,-264.368 1264.94,-248.198 1275,-232 1287.61,-211.704 1297.47,-185.912 1303.25,-168.839"/>
<polygon fill="midnightblue" stroke="midnightblue" points="1306.68,-169.617 1306.45,-159.024 1300.02,-167.447 1306.68,-169.617"/>
</g>
<!-- Node29&#45;&gt;Node8 -->
<g id="edge60" class="edge"><title>Node29&#45;&gt;Node8</title>
<path fill="none" stroke="midnightblue" d="M1187.19,-273.943C1174.58,-271.726 1160.78,-269.533 1148,-268 906.538,-239.033 843.52,-260.485 602,-232 592.188,-230.843 581.785,-229.318 571.749,-227.693"/>
<polygon fill="midnightblue" stroke="midnightblue" points="572.31,-224.238 561.87,-226.044 571.157,-231.143 572.31,-224.238"/>
</g>
<!-- Node30 -->
<g id="node30" class="node"><title>Node30</title>
<g id="a_node30"><a xlink:href="NodeRefListBase_8hpp.html" target="_top" xlink:title=" ">
<polygon fill="none" stroke="black" points="1137.5,-201.5 1137.5,-231.5 1266.5,-231.5 1266.5,-201.5 1137.5,-201.5"/>
<text text-anchor="start" x="1145.5" y="-219.5" font-family="Helvetica,sans-Serif" font-size="10.00">xalanc/XPath/NodeRefList</text>
<text text-anchor="middle" x="1202" y="-208.5" font-family="Helvetica,sans-Serif" font-size="10.00">Base.hpp</text>
</a>
</g>
</g>
<!-- Node29&#45;&gt;Node30 -->
<g id="edge61" class="edge"><title>Node29&#45;&gt;Node30</title>
<path fill="none" stroke="midnightblue" d="M1227.09,-273.734C1223.36,-265.372 1217.57,-252.4 1212.49,-241.022"/>
<polygon fill="midnightblue" stroke="midnightblue" points="1215.56,-239.295 1208.29,-231.589 1209.16,-242.147 1215.56,-239.295"/>
</g>
<!-- Node30&#45;&gt;Node2 -->
<g id="edge62" class="edge"><title>Node30&#45;&gt;Node2</title>
<path fill="none" stroke="midnightblue" d="M1225.22,-201.396C1243.33,-190.395 1268.34,-175.2 1286.31,-164.282"/>
<polygon fill="midnightblue" stroke="midnightblue" points="1288.27,-167.19 1295,-159.007 1284.63,-161.208 1288.27,-167.19"/>
</g>
<!-- Node30&#45;&gt;Node9 -->
<g id="edge63" class="edge"><title>Node30&#45;&gt;Node9</title>
<path fill="none" stroke="midnightblue" d="M1202.34,-201.384C1201.95,-182.733 1198.17,-150.339 1178,-134 1137.64,-101.315 763.641,-103.489 712,-98 687.601,-95.4065 660.181,-91.6747 639.207,-88.6464"/>
<polygon fill="midnightblue" stroke="midnightblue" points="639.575,-85.1631 629.174,-87.1807 638.563,-92.0896 639.575,-85.1631"/>
</g>
</g>
</svg>
