<?xml version="1.0" encoding="UTF-8" standalone="no"?>
<!DOCTYPE svg PUBLIC "-//W3C//DTD SVG 1.1//EN"
 "http://www.w3.org/Graphics/SVG/1.1/DTD/svg11.dtd">
<!-- Generated by graphviz version 2.43.0 (0)
 -->
<!-- Title: xalanc/XPath/XPathExpression.hpp Pages: 1 -->
<!--zoomable 352 -->
<svg id="main" version="1.1" xmlns="http://www.w3.org/2000/svg" xmlns:xlink="http://www.w3.org/1999/xlink" xml:space="preserve" onload="init(evt)">
<style type="text/css"><![CDATA[
.edge:hover path { stroke: red; }
.edge:hover polygon { stroke: red; fill: red; }
]]></style>
<script type="text/javascript"><![CDATA[
var edges = document.getElementsByTagName('g');
if (edges && edges.length) {
  for (var i=0;i<edges.length;i++) {
    if (edges[i].id.substr(0,4)=='edge') {
      edges[i].setAttribute('class','edge');
    }
  }
}
]]></script>
        <defs>
                <circle id="rim" cx="0" cy="0" r="7"/>
                <circle id="rim2" cx="0" cy="0" r="3.5"/>
                <g id="zoomPlus">
                        <use xlink:href="#rim" fill="#404040">
                                <set attributeName="fill" to="#808080" begin="zoomplus.mouseover" end="zoomplus.mouseout"/>
                        </use>
                        <path d="M-4,0h8M0,-4v8" fill="none" stroke="white" stroke-width="1.5" pointer-events="none"/>
                </g>
                <g id="zoomMin">
                        <use xlink:href="#rim" fill="#404040">
                                <set attributeName="fill" to="#808080" begin="zoomminus.mouseover" end="zoomminus.mouseout"/>
                        </use>
                        <path d="M-4,0h8" fill="none" stroke="white" stroke-width="1.5" pointer-events="none"/>
                </g>
                <g id="dirArrow">
                        <path fill="none" stroke="white" stroke-width="1.5" d="M0,-3.0v7 M-2.5,-0.5L0,-3.0L2.5,-0.5"/>
                </g>
               <g id="resetDef">
                       <use xlink:href="#rim2" fill="#404040">
                               <set attributeName="fill" to="#808080" begin="reset.mouseover" end="reset.mouseout"/>
                       </use>
               </g>
        </defs>

<script type="text/javascript">
var viewWidth = 1299;
var viewHeight = 352;
var sectionId = 'dynsection-1';
</script>
<script xlink:href="svgpan.js"/>
<svg id="graph" class="graph">
<g id="viewport">
<title>xalanc/XPath/XPathExpression.hpp</title>
<!-- Node1 -->
<g id="node1" class="node">
<title>Node1</title>
<g id="a_node1"><a xlink:title=" ">
<polygon fill="#bfbfbf" stroke="black" points="459.5,-324.5 459.5,-343.5 644.5,-343.5 644.5,-324.5 459.5,-324.5"/>
<text text-anchor="middle" x="552" y="-331.5" font-family="Helvetica,sans-Serif" font-size="10.00">xalanc/XPath/XPathExpression.hpp</text>
</a>
</g>
</g>
<!-- Node2 -->
<g id="node2" class="node">
<title>Node2</title>
<g id="a_node2"><a xlink:href="XPath_8hpp.html" target="_top" xlink:title=" ">
<polygon fill="none" stroke="black" points="486.5,-268.5 486.5,-287.5 617.5,-287.5 617.5,-268.5 486.5,-268.5"/>
<text text-anchor="middle" x="552" y="-275.5" font-family="Helvetica,sans-Serif" font-size="10.00">xalanc/XPath/XPath.hpp</text>
</a>
</g>
</g>
<!-- Node1&#45;&gt;Node2 -->
<g id="edge1" class="edge">
<title>Node1&#45;&gt;Node2</title>
<path fill="none" stroke="midnightblue" d="M552,-313.8C552,-304.91 552,-294.78 552,-287.75"/>
<polygon fill="midnightblue" stroke="midnightblue" points="548.5,-314.08 552,-324.08 555.5,-314.08 548.5,-314.08"/>
</g>
<!-- Node3 -->
<g id="node3" class="node">
<title>Node3</title>
<g id="a_node3"><a xlink:href="XPathAllocator_8hpp.html" target="_top" xlink:title=" ">
<polygon fill="none" stroke="black" points="0,-207 0,-226 174,-226 174,-207 0,-207"/>
<text text-anchor="middle" x="87" y="-214" font-family="Helvetica,sans-Serif" font-size="10.00">xalanc/XPath/XPathAllocator.hpp</text>
</a>
</g>
</g>
<!-- Node2&#45;&gt;Node3 -->
<g id="edge2" class="edge">
<title>Node2&#45;&gt;Node3</title>
<path fill="none" stroke="midnightblue" d="M476.02,-268.38C401.36,-259.75 284.23,-245.81 183,-232 169.56,-230.17 155.07,-228.05 141.54,-226.01"/>
<polygon fill="midnightblue" stroke="midnightblue" points="475.94,-271.89 486.27,-269.56 476.74,-264.94 475.94,-271.89"/>
</g>
<!-- Node6 -->
<g id="node6" class="node">
<title>Node6</title>
<g id="a_node6"><a xlink:href="XPathProcessorImpl_8hpp.html" target="_top" xlink:title=" ">
<polygon fill="none" stroke="black" points="192,-201.5 192,-231.5 350,-231.5 350,-201.5 192,-201.5"/>
<text text-anchor="start" x="200" y="-219.5" font-family="Helvetica,sans-Serif" font-size="10.00">xalanc/XPath/XPathProcessor</text>
<text text-anchor="middle" x="271" y="-208.5" font-family="Helvetica,sans-Serif" font-size="10.00">Impl.hpp</text>
</a>
</g>
</g>
<!-- Node2&#45;&gt;Node6 -->
<g id="edge5" class="edge">
<title>Node2&#45;&gt;Node6</title>
<path fill="none" stroke="midnightblue" d="M501.72,-266.35C455.79,-256.63 387.58,-242.18 337.23,-231.52"/>
<polygon fill="midnightblue" stroke="midnightblue" points="501.23,-269.83 511.74,-268.48 502.68,-262.98 501.23,-269.83"/>
</g>
<!-- Node7 -->
<g id="node7" class="node">
<title>Node7</title>
<g id="a_node7"><a xlink:href="Stylesheet_8hpp.html" target="_top" xlink:title=" ">
<polygon fill="none" stroke="black" points="725.5,-140 725.5,-159 876.5,-159 876.5,-140 725.5,-140"/>
<text text-anchor="middle" x="801" y="-147" font-family="Helvetica,sans-Serif" font-size="10.00">xalanc/XSLT/Stylesheet.hpp</text>
</a>
</g>
</g>
<!-- Node2&#45;&gt;Node7 -->
<g id="edge6" class="edge">
<title>Node2&#45;&gt;Node7</title>
<path fill="none" stroke="midnightblue" d="M627.98,-275.41C669.65,-271.07 720.17,-259.76 757,-232 781.91,-213.22 794.33,-176.1 798.89,-159.22"/>
<polygon fill="midnightblue" stroke="midnightblue" points="627.5,-271.94 617.87,-276.35 628.15,-278.91 627.5,-271.94"/>
</g>
<!-- Node14 -->
<g id="node14" class="node">
<title>Node14</title>
<g id="a_node14"><a xlink:href="StylesheetConstructionContext_8hpp.html" target="_top" xlink:title=" ">
<polygon fill="none" stroke="black" points="556.5,-201.5 556.5,-231.5 747.5,-231.5 747.5,-201.5 556.5,-201.5"/>
<text text-anchor="start" x="564.5" y="-219.5" font-family="Helvetica,sans-Serif" font-size="10.00">xalanc/XSLT/StylesheetConstruction</text>
<text text-anchor="middle" x="652" y="-208.5" font-family="Helvetica,sans-Serif" font-size="10.00">Context.hpp</text>
</a>
</g>
</g>
<!-- Node2&#45;&gt;Node14 -->
<g id="edge15" class="edge">
<title>Node2&#45;&gt;Node14</title>
<path fill="none" stroke="midnightblue" d="M575.07,-263.28C591.07,-253.75 612.32,-241.11 628.43,-231.52"/>
<polygon fill="midnightblue" stroke="midnightblue" points="573.13,-260.35 566.33,-268.48 576.71,-266.37 573.13,-260.35"/>
</g>
<!-- Node16 -->
<g id="node16" class="node">
<title>Node16</title>
<g id="a_node16"><a xlink:href="XalanMatchPatternData_8hpp.html" target="_top" xlink:title=" ">
<polygon fill="none" stroke="black" points="368,-201.5 368,-231.5 538,-231.5 538,-201.5 368,-201.5"/>
<text text-anchor="start" x="376" y="-219.5" font-family="Helvetica,sans-Serif" font-size="10.00">xalanc/XSLT/XalanMatchPattern</text>
<text text-anchor="middle" x="453" y="-208.5" font-family="Helvetica,sans-Serif" font-size="10.00">Data.hpp</text>
</a>
</g>
</g>
<!-- Node2&#45;&gt;Node16 -->
<g id="edge19" class="edge">
<title>Node2&#45;&gt;Node16</title>
<path fill="none" stroke="midnightblue" d="M529.17,-263.28C513.32,-253.75 492.28,-241.11 476.33,-231.52"/>
<polygon fill="midnightblue" stroke="midnightblue" points="527.44,-266.32 537.82,-268.48 531.05,-260.32 527.44,-266.32"/>
</g>
<!-- Node18 -->
<g id="node18" class="node">
<title>Node18</title>
<g id="a_node18"><a xlink:href="XalanSpaceNodeTester_8hpp.html" target="_top" xlink:title=" ">
<polygon fill="none" stroke="black" points="804.5,-201.5 804.5,-231.5 965.5,-231.5 965.5,-201.5 804.5,-201.5"/>
<text text-anchor="start" x="812.5" y="-219.5" font-family="Helvetica,sans-Serif" font-size="10.00">xalanc/XSLT/XalanSpaceNode</text>
<text text-anchor="middle" x="885" y="-208.5" font-family="Helvetica,sans-Serif" font-size="10.00">Tester.hpp</text>
</a>
</g>
</g>
<!-- Node2&#45;&gt;Node18 -->
<g id="edge22" class="edge">
<title>Node2&#45;&gt;Node18</title>
<path fill="none" stroke="midnightblue" d="M609.88,-266.66C664.31,-256.93 746.22,-242.3 806.52,-231.52"/>
<polygon fill="midnightblue" stroke="midnightblue" points="608.94,-263.27 599.71,-268.48 610.17,-270.16 608.94,-263.27"/>
</g>
<!-- Node4 -->
<g id="node4" class="node">
<title>Node4</title>
<g id="a_node4"><a xlink:href="XPathFactoryBlock_8hpp.html" target="_top" xlink:title=" ">
<polygon fill="none" stroke="black" points="167,-134.5 167,-164.5 313,-164.5 313,-134.5 167,-134.5"/>
<text text-anchor="start" x="175" y="-152.5" font-family="Helvetica,sans-Serif" font-size="10.00">xalanc/XPath/XPathFactory</text>
<text text-anchor="middle" x="240" y="-141.5" font-family="Helvetica,sans-Serif" font-size="10.00">Block.hpp</text>
</a>
</g>
</g>
<!-- Node3&#45;&gt;Node4 -->
<g id="edge3" class="edge">
<title>Node3&#45;&gt;Node4</title>
<path fill="none" stroke="midnightblue" d="M116.63,-202.91C142.54,-191.91 180.11,-175.94 206.98,-164.53"/>
<polygon fill="midnightblue" stroke="midnightblue" points="115.15,-199.74 107.32,-206.87 117.89,-206.18 115.15,-199.74"/>
</g>
<!-- Node5 -->
<g id="node5" class="node">
<title>Node5</title>
<g id="a_node5"><a xlink:href="XalanCompiledStylesheetDefault_8hpp.html" target="_top" xlink:title=" ">
<polygon fill="none" stroke="black" points="413.5,-0.5 413.5,-30.5 616.5,-30.5 616.5,-0.5 413.5,-0.5"/>
<text text-anchor="start" x="421.5" y="-18.5" font-family="Helvetica,sans-Serif" font-size="10.00">xalanc/XalanTransformer</text>
<text text-anchor="middle" x="515" y="-7.5" font-family="Helvetica,sans-Serif" font-size="10.00">/XalanCompiledStylesheetDefault.hpp</text>
</a>
</g>
</g>
<!-- Node4&#45;&gt;Node5 -->
<g id="edge4" class="edge">
<title>Node4&#45;&gt;Node5</title>
<path fill="none" stroke="midnightblue" d="M253.71,-125.84C266.13,-107.25 286.11,-81.69 310,-67 340.99,-47.94 378.76,-36.07 413.4,-28.68"/>
<polygon fill="midnightblue" stroke="midnightblue" points="250.72,-124.02 248.24,-134.32 256.6,-127.81 250.72,-124.02"/>
</g>
<!-- Node8 -->
<g id="node8" class="node">
<title>Node8</title>
<g id="a_node8"><a xlink:href="StylesheetExecutionContextDefault_8hpp.html" target="_top" xlink:title=" ">
<polygon fill="none" stroke="black" points="926.5,-67.5 926.5,-97.5 1103.5,-97.5 1103.5,-67.5 926.5,-67.5"/>
<text text-anchor="start" x="934.5" y="-85.5" font-family="Helvetica,sans-Serif" font-size="10.00">xalanc/XSLT/StylesheetExecution</text>
<text text-anchor="middle" x="1015" y="-74.5" font-family="Helvetica,sans-Serif" font-size="10.00">ContextDefault.hpp</text>
</a>
</g>
</g>
<!-- Node7&#45;&gt;Node8 -->
<g id="edge7" class="edge">
<title>Node7&#45;&gt;Node8</title>
<path fill="none" stroke="midnightblue" d="M839.14,-136.92C875.42,-125.9 930.08,-109.29 968.82,-97.53"/>
<polygon fill="midnightblue" stroke="midnightblue" points="837.97,-133.61 829.42,-139.87 840,-140.31 837.97,-133.61"/>
</g>
<!-- Node12 -->
<g id="node12" class="node">
<title>Node12</title>
<g id="a_node12"><a xlink:href="StylesheetHandler_8hpp.html" target="_top" xlink:title=" ">
<polygon fill="none" stroke="black" points="720,-73 720,-92 908,-92 908,-73 720,-73"/>
<text text-anchor="middle" x="814" y="-80" font-family="Helvetica,sans-Serif" font-size="10.00">xalanc/XSLT/StylesheetHandler.hpp</text>
</a>
</g>
</g>
<!-- Node7&#45;&gt;Node12 -->
<g id="edge12" class="edge">
<title>Node7&#45;&gt;Node12</title>
<path fill="none" stroke="midnightblue" d="M804.72,-129.91C807.2,-117.49 810.36,-101.72 812.27,-92.13"/>
<polygon fill="midnightblue" stroke="midnightblue" points="801.28,-129.24 802.75,-139.73 808.15,-130.61 801.28,-129.24"/>
</g>
<!-- Node13 -->
<g id="node13" class="node">
<title>Node13</title>
<g id="a_node13"><a xlink:href="StylesheetRoot_8hpp.html" target="_top" xlink:title=" ">
<polygon fill="none" stroke="black" points="528.5,-73 528.5,-92 701.5,-92 701.5,-73 528.5,-73"/>
<text text-anchor="middle" x="615" y="-80" font-family="Helvetica,sans-Serif" font-size="10.00">xalanc/XSLT/StylesheetRoot.hpp</text>
</a>
</g>
</g>
<!-- Node7&#45;&gt;Node13 -->
<g id="edge13" class="edge">
<title>Node7&#45;&gt;Node13</title>
<path fill="none" stroke="midnightblue" d="M766.48,-136.44C729.58,-123.54 672.01,-103.42 639.51,-92.06"/>
<polygon fill="midnightblue" stroke="midnightblue" points="765.71,-139.87 776.3,-139.87 768.02,-133.27 765.71,-139.87"/>
</g>
<!-- Node8&#45;&gt;Node5 -->
<g id="edge11" class="edge">
<title>Node8&#45;&gt;Node5</title>
<path fill="none" stroke="midnightblue" d="M916.2,-66.91C807.86,-52.16 695.55,-38.22 616.69,-28.65"/>
<polygon fill="midnightblue" stroke="midnightblue" points="915.96,-70.41 926.34,-68.29 916.9,-63.47 915.96,-70.41"/>
</g>
<!-- Node9 -->
<g id="node9" class="node">
<title>Node9</title>
<g id="a_node9"><a xlink:href="ICUBridgeCollationCompareFunctorImpl_8hpp.html" target="_top" xlink:title=" ">
<polygon fill="none" stroke="black" points="1107.5,-0.5 1107.5,-30.5 1290.5,-30.5 1290.5,-0.5 1107.5,-0.5"/>
<text text-anchor="start" x="1115.5" y="-18.5" font-family="Helvetica,sans-Serif" font-size="10.00">xalanc/ICUBridge/ICUBridge</text>
<text text-anchor="middle" x="1199" y="-7.5" font-family="Helvetica,sans-Serif" font-size="10.00">CollationCompareFunctorImpl.hpp</text>
</a>
</g>
</g>
<!-- Node8&#45;&gt;Node9 -->
<g id="edge8" class="edge">
<title>Node8&#45;&gt;Node9</title>
<path fill="none" stroke="midnightblue" d="M1064.67,-63.96C1094.3,-53.48 1131.44,-40.37 1159.15,-30.58"/>
<polygon fill="midnightblue" stroke="midnightblue" points="1063.19,-60.76 1054.93,-67.4 1065.52,-67.37 1063.19,-60.76"/>
</g>
<!-- Node10 -->
<g id="node10" class="node">
<title>Node10</title>
<g id="a_node10"><a xlink:href="ICUFormatNumberFunctor_8hpp.html" target="_top" xlink:title=" ">
<polygon fill="none" stroke="black" points="767.5,-0.5 767.5,-30.5 922.5,-30.5 922.5,-0.5 767.5,-0.5"/>
<text text-anchor="start" x="775.5" y="-18.5" font-family="Helvetica,sans-Serif" font-size="10.00">xalanc/ICUBridge/ICUFormat</text>
<text text-anchor="middle" x="845" y="-7.5" font-family="Helvetica,sans-Serif" font-size="10.00">NumberFunctor.hpp</text>
</a>
</g>
</g>
<!-- Node8&#45;&gt;Node10 -->
<g id="edge9" class="edge">
<title>Node8&#45;&gt;Node10</title>
<path fill="none" stroke="midnightblue" d="M968.76,-63.82C941.43,-53.37 907.31,-40.32 881.82,-30.58"/>
<polygon fill="midnightblue" stroke="midnightblue" points="967.52,-67.09 978.11,-67.4 970.02,-60.56 967.52,-67.09"/>
</g>
<!-- Node11 -->
<g id="node11" class="node">
<title>Node11</title>
<g id="a_node11"><a xlink:href="ICUXalanNumberFormatFactory_8hpp.html" target="_top" xlink:title=" ">
<polygon fill="none" stroke="black" points="940.5,-0.5 940.5,-30.5 1089.5,-30.5 1089.5,-0.5 940.5,-0.5"/>
<text text-anchor="start" x="948.5" y="-18.5" font-family="Helvetica,sans-Serif" font-size="10.00">xalanc/ICUBridge/ICUXalan</text>
<text text-anchor="middle" x="1015" y="-7.5" font-family="Helvetica,sans-Serif" font-size="10.00">NumberFormatFactory.hpp</text>
</a>
</g>
</g>
<!-- Node8&#45;&gt;Node11 -->
<g id="edge10" class="edge">
<title>Node8&#45;&gt;Node11</title>
<path fill="none" stroke="midnightblue" d="M1015,-57.11C1015,-48.15 1015,-38.32 1015,-30.58"/>
<polygon fill="midnightblue" stroke="midnightblue" points="1011.5,-57.4 1015,-67.4 1018.5,-57.4 1011.5,-57.4"/>
</g>
<!-- Node13&#45;&gt;Node5 -->
<g id="edge14" class="edge">
<title>Node13&#45;&gt;Node5</title>
<path fill="none" stroke="midnightblue" d="M592.93,-67.15C576.19,-56.27 553.31,-41.4 536.68,-30.59"/>
<polygon fill="midnightblue" stroke="midnightblue" points="591.22,-70.22 601.51,-72.73 595.04,-64.35 591.22,-70.22"/>
</g>
<!-- Node14&#45;&gt;Node7 -->
<g id="edge16" class="edge">
<title>Node14&#45;&gt;Node7</title>
<path fill="none" stroke="midnightblue" d="M693.73,-197.3C722.47,-184.76 759.32,-168.68 781.5,-159.01"/>
<polygon fill="midnightblue" stroke="midnightblue" points="692.1,-194.19 684.33,-201.4 694.9,-200.61 692.1,-194.19"/>
</g>
<!-- Node15 -->
<g id="node15" class="node">
<title>Node15</title>
<g id="a_node15"><a xlink:href="StylesheetConstructionContextDefault_8hpp.html" target="_top" xlink:title=" ">
<polygon fill="none" stroke="black" points="319.5,-67.5 319.5,-97.5 510.5,-97.5 510.5,-67.5 319.5,-67.5"/>
<text text-anchor="start" x="327.5" y="-85.5" font-family="Helvetica,sans-Serif" font-size="10.00">xalanc/XSLT/StylesheetConstruction</text>
<text text-anchor="middle" x="415" y="-74.5" font-family="Helvetica,sans-Serif" font-size="10.00">ContextDefault.hpp</text>
</a>
</g>
</g>
<!-- Node14&#45;&gt;Node15 -->
<g id="edge17" class="edge">
<title>Node14&#45;&gt;Node15</title>
<path fill="none" stroke="midnightblue" d="M625.91,-194.93C602.86,-177.36 567.88,-152.11 535,-134 508.96,-119.66 478.01,-106.73 454.07,-97.54"/>
<polygon fill="midnightblue" stroke="midnightblue" points="624.07,-197.94 634.13,-201.27 628.34,-192.39 624.07,-197.94"/>
</g>
<!-- Node15&#45;&gt;Node5 -->
<g id="edge18" class="edge">
<title>Node15&#45;&gt;Node5</title>
<path fill="none" stroke="midnightblue" d="M445.41,-61.73C460.88,-51.68 479.33,-39.68 493.34,-30.58"/>
<polygon fill="midnightblue" stroke="midnightblue" points="443.18,-59.01 436.7,-67.4 446.99,-64.88 443.18,-59.01"/>
</g>
<!-- Node17 -->
<g id="node17" class="node">
<title>Node17</title>
<g id="a_node17"><a xlink:href="XalanMatchPatternDataAllocator_8hpp.html" target="_top" xlink:title=" ">
<polygon fill="none" stroke="black" points="356,-134.5 356,-164.5 526,-164.5 526,-134.5 356,-134.5"/>
<text text-anchor="start" x="364" y="-152.5" font-family="Helvetica,sans-Serif" font-size="10.00">xalanc/XSLT/XalanMatchPattern</text>
<text text-anchor="middle" x="441" y="-141.5" font-family="Helvetica,sans-Serif" font-size="10.00">DataAllocator.hpp</text>
</a>
</g>
</g>
<!-- Node16&#45;&gt;Node17 -->
<g id="edge20" class="edge">
<title>Node16&#45;&gt;Node17</title>
<path fill="none" stroke="midnightblue" d="M448.55,-191.4C446.88,-182.37 445.04,-172.41 443.6,-164.58"/>
<polygon fill="midnightblue" stroke="midnightblue" points="445.14,-192.2 450.4,-201.4 452.02,-190.93 445.14,-192.2"/>
</g>
<!-- Node17&#45;&gt;Node15 -->
<g id="edge21" class="edge">
<title>Node17&#45;&gt;Node15</title>
<path fill="none" stroke="midnightblue" d="M431.6,-124.99C427.92,-115.8 423.83,-105.58 420.63,-97.58"/>
<polygon fill="midnightblue" stroke="midnightblue" points="428.39,-126.41 435.36,-134.4 434.89,-123.81 428.39,-126.41"/>
</g>
<!-- Node18&#45;&gt;Node7 -->
<g id="edge23" class="edge">
<title>Node18&#45;&gt;Node7</title>
<path fill="none" stroke="midnightblue" d="M858.52,-195.01C842.92,-182.94 824.01,-168.3 812.24,-159.19"/>
<polygon fill="midnightblue" stroke="midnightblue" points="856.72,-198.04 866.77,-201.4 861.01,-192.51 856.72,-198.04"/>
</g>
</g>
</svg>
        <g id="navigator" transform="translate(0 0)" fill="#404254">
                <rect fill="#f2f5e9" fill-opacity="0.5" stroke="#606060" stroke-width=".5" x="0" y="0" width="60" height="60"/>
                <use id="zoomplus" xlink:href="#zoomPlus" x="17" y="9" onmousedown="handleZoom(evt,'in')"/>
                <use id="zoomminus" xlink:href="#zoomMin" x="42" y="9" onmousedown="handleZoom(evt,'out')"/>
                <use id="reset" xlink:href="#resetDef" x="30" y="36" onmousedown="handleReset()"/>
                <g id="arrowUp" xlink:href="#dirArrow" transform="translate(30 24)" onmousedown="handlePan(0,-1)">
                  <use xlink:href="#rim" fill="#404040">
                        <set attributeName="fill" to="#808080" begin="arrowUp.mouseover" end="arrowUp.mouseout"/>
                  </use>
                  <path fill="none" stroke="white" stroke-width="1.5" d="M0,-3.0v7 M-2.5,-0.5L0,-3.0L2.5,-0.5"/>
                </g>
                <g id="arrowRight" xlink:href="#dirArrow" transform="rotate(90) translate(36 -43)" onmousedown="handlePan(1,0)">
                  <use xlink:href="#rim" fill="#404040">
                        <set attributeName="fill" to="#808080" begin="arrowRight.mouseover" end="arrowRight.mouseout"/>
                  </use>
                  <path fill="none" stroke="white" stroke-width="1.5" d="M0,-3.0v7 M-2.5,-0.5L0,-3.0L2.5,-0.5"/>
                </g>
                <g id="arrowDown" xlink:href="#dirArrow" transform="rotate(180) translate(-30 -48)" onmousedown="handlePan(0,1)">
                  <use xlink:href="#rim" fill="#404040">
                        <set attributeName="fill" to="#808080" begin="arrowDown.mouseover" end="arrowDown.mouseout"/>
                  </use>
                  <path fill="none" stroke="white" stroke-width="1.5" d="M0,-3.0v7 M-2.5,-0.5L0,-3.0L2.5,-0.5"/>
                </g>
                <g id="arrowLeft" xlink:href="#dirArrow" transform="rotate(270) translate(-36 17)" onmousedown="handlePan(-1,0)">
                  <use xlink:href="#rim" fill="#404040">
                        <set attributeName="fill" to="#808080" begin="arrowLeft.mouseover" end="arrowLeft.mouseout"/>
                  </use>
                  <path fill="none" stroke="white" stroke-width="1.5" d="M0,-3.0v7 M-2.5,-0.5L0,-3.0L2.5,-0.5"/>
                </g>
        </g>
        <svg viewBox="0 0 15 15" width="100%" height="30px" preserveAspectRatio="xMaxYMin meet">
         <g id="arrow_out" transform="scale(0.3 0.3)">
          <a xlink:href="XPathExpression_8hpp__dep__incl_org.svg" target="_base">
           <rect id="button" ry="5" rx="5" y="6" x="6" height="38" width="38"
                fill="#f2f5e9" fill-opacity="0.5" stroke="#606060" stroke-width="1.0"/>
           <path id="arrow"
             d="M 11.500037,31.436501 C 11.940474,20.09759 22.043105,11.32322 32.158766,21.979434 L 37.068811,17.246167 C 37.068811,17.246167 37.088388,32 37.088388,32 L 22.160133,31.978069 C 22.160133,31.978069 26.997745,27.140456 26.997745,27.140456 C 18.528582,18.264221 13.291696,25.230495 11.500037,31.436501 z"
             style="fill:#404040;"/>
          </a>
         </g>
        </svg>
</svg>
