<?xml version="1.0" encoding="UTF-8" standalone="no"?>
<!DOCTYPE svg PUBLIC "-//W3C//DTD SVG 1.1//EN"
 "http://www.w3.org/Graphics/SVG/1.1/DTD/svg11.dtd">
<!-- Generated by graphviz version 2.43.0 (0)
 -->
<!-- Title: xalanc/XPath/XPathInit.hpp Pages: 1 -->
<svg width="813pt" height="430pt"
 viewBox="0.00 0.00 812.50 430.00" xmlns="http://www.w3.org/2000/svg" xmlns:xlink="http://www.w3.org/1999/xlink">
<g id="graph0" class="graph" transform="scale(1 1) rotate(0) translate(4 426)">
<title>xalanc/XPath/XPathInit.hpp</title>
<!-- Node1 -->
<g id="node1" class="node">
<title>Node1</title>
<g id="a_node1"><a xlink:title=" ">
<polygon fill="#bfbfbf" stroke="black" points="482,-402.5 482,-421.5 629,-421.5 629,-402.5 482,-402.5"/>
<text text-anchor="middle" x="555.5" y="-409.5" font-family="Helvetica,sans-Serif" font-size="10.00">xalanc/XPath/XPathInit.hpp</text>
</a>
</g>
</g>
<!-- Node2 -->
<g id="node2" class="node">
<title>Node2</title>
<g id="a_node2"><a xlink:href="XPathDefinitions_8hpp.html" target="_top" xlink:title=" ">
<polygon fill="none" stroke="black" points="620.5,-341 620.5,-360 804.5,-360 804.5,-341 620.5,-341"/>
<text text-anchor="middle" x="712.5" y="-348" font-family="Helvetica,sans-Serif" font-size="10.00">xalanc/XPath/XPathDefinitions.hpp</text>
</a>
</g>
</g>
<!-- Node1&#45;&gt;Node2 -->
<g id="edge1" class="edge">
<title>Node1&#45;&gt;Node2</title>
<path fill="none" stroke="midnightblue" d="M577.99,-402.48C604.81,-392.31 649.82,-375.26 680.31,-363.7"/>
<polygon fill="midnightblue" stroke="midnightblue" points="681.94,-366.83 690.05,-360.01 679.46,-360.28 681.94,-366.83"/>
</g>
<!-- Node7 -->
<g id="node7" class="node">
<title>Node7</title>
<g id="a_node7"><a xlink:href="PlatformSupportInit_8hpp.html" target="_top" xlink:title=" ">
<polygon fill="none" stroke="black" points="478.5,-268.5 478.5,-298.5 614.5,-298.5 614.5,-268.5 478.5,-268.5"/>
<text text-anchor="start" x="486.5" y="-286.5" font-family="Helvetica,sans-Serif" font-size="10.00">xalanc/PlatformSupport</text>
<text text-anchor="middle" x="546.5" y="-275.5" font-family="Helvetica,sans-Serif" font-size="10.00">/PlatformSupportInit.hpp</text>
</a>
</g>
</g>
<!-- Node1&#45;&gt;Node7 -->
<g id="edge6" class="edge">
<title>Node1&#45;&gt;Node7</title>
<path fill="none" stroke="midnightblue" d="M554.88,-402.31C553.53,-383.3 550.27,-337.47 548.24,-308.9"/>
<polygon fill="midnightblue" stroke="midnightblue" points="551.72,-308.61 547.52,-298.89 544.74,-309.11 551.72,-308.61"/>
</g>
<!-- Node16 -->
<g id="node16" class="node">
<title>Node16</title>
<g id="a_node16"><a xlink:href="DOMSupportInit_8hpp.html" target="_top" xlink:title=" ">
<polygon fill="none" stroke="black" points="349.5,-335.5 349.5,-365.5 527.5,-365.5 527.5,-335.5 349.5,-335.5"/>
<text text-anchor="start" x="357.5" y="-353.5" font-family="Helvetica,sans-Serif" font-size="10.00">xalanc/DOMSupport/DOMSupport</text>
<text text-anchor="middle" x="438.5" y="-342.5" font-family="Helvetica,sans-Serif" font-size="10.00">Init.hpp</text>
</a>
</g>
</g>
<!-- Node1&#45;&gt;Node16 -->
<g id="edge18" class="edge">
<title>Node1&#45;&gt;Node16</title>
<path fill="none" stroke="midnightblue" d="M538.74,-402.48C522.22,-394.08 496.45,-380.97 475.18,-370.15"/>
<polygon fill="midnightblue" stroke="midnightblue" points="476.57,-366.94 466.07,-365.52 473.4,-373.18 476.57,-366.94"/>
</g>
<!-- Node3 -->
<g id="node3" class="node">
<title>Node3</title>
<g id="a_node3"><a xlink:href="PlatformDefinitions_8hpp.html" target="_top" xlink:title=" ">
<polygon fill="none" stroke="black" points="384.5,-73 384.5,-92 590.5,-92 590.5,-73 384.5,-73"/>
<text text-anchor="middle" x="487.5" y="-80" font-family="Helvetica,sans-Serif" font-size="10.00">xalanc/Include/PlatformDefinitions.hpp</text>
</a>
</g>
</g>
<!-- Node2&#45;&gt;Node3 -->
<g id="edge2" class="edge">
<title>Node2&#45;&gt;Node3</title>
<path fill="none" stroke="midnightblue" d="M720.59,-340.95C741.9,-317.36 795.97,-249.86 766.5,-201 727.26,-135.93 643.35,-106.88 577.75,-93.92"/>
<polygon fill="midnightblue" stroke="midnightblue" points="578.27,-90.46 567.8,-92.05 576.98,-97.34 578.27,-90.46"/>
</g>
<!-- Node4 -->
<g id="node4" class="node">
<title>Node4</title>
<g id="a_node4"><a xlink:title=" ">
<polygon fill="none" stroke="#bfbfbf" points="266.5,-0.5 266.5,-30.5 386.5,-30.5 386.5,-0.5 266.5,-0.5"/>
<text text-anchor="start" x="274.5" y="-18.5" font-family="Helvetica,sans-Serif" font-size="10.00">xercesc/util/Xerces</text>
<text text-anchor="middle" x="326.5" y="-7.5" font-family="Helvetica,sans-Serif" font-size="10.00">_autoconf_config.hpp</text>
</a>
</g>
</g>
<!-- Node3&#45;&gt;Node4 -->
<g id="edge3" class="edge">
<title>Node3&#45;&gt;Node4</title>
<path fill="none" stroke="midnightblue" d="M466.12,-72.87C441.86,-63.07 401.62,-46.83 370.56,-34.29"/>
<polygon fill="midnightblue" stroke="midnightblue" points="371.83,-31.03 361.25,-30.53 369.21,-37.52 371.83,-31.03"/>
</g>
<!-- Node5 -->
<g id="node5" class="node">
<title>Node5</title>
<g id="a_node5"><a xlink:title=" ">
<polygon fill="none" stroke="#bfbfbf" points="405,-6 405,-25 570,-25 570,-6 405,-6"/>
<text text-anchor="middle" x="487.5" y="-13" font-family="Helvetica,sans-Serif" font-size="10.00">xercesc/util/XercesVersion.hpp</text>
</a>
</g>
</g>
<!-- Node3&#45;&gt;Node5 -->
<g id="edge4" class="edge">
<title>Node3&#45;&gt;Node5</title>
<path fill="none" stroke="midnightblue" d="M487.5,-72.73C487.5,-63.18 487.5,-47.62 487.5,-35.28"/>
<polygon fill="midnightblue" stroke="midnightblue" points="491,-35.13 487.5,-25.13 484,-35.13 491,-35.13"/>
</g>
<!-- Node6 -->
<g id="node6" class="node">
<title>Node6</title>
<g id="a_node6"><a xlink:href="XalanVersion_8hpp.html" target="_top" xlink:title=" ">
<polygon fill="none" stroke="black" points="588,-6 588,-25 763,-25 763,-6 588,-6"/>
<text text-anchor="middle" x="675.5" y="-13" font-family="Helvetica,sans-Serif" font-size="10.00">xalanc/Include/XalanVersion.hpp</text>
</a>
</g>
</g>
<!-- Node3&#45;&gt;Node6 -->
<g id="edge5" class="edge">
<title>Node3&#45;&gt;Node6</title>
<path fill="none" stroke="midnightblue" d="M512.46,-72.87C545.42,-61.47 603.62,-41.35 640.83,-28.49"/>
<polygon fill="midnightblue" stroke="midnightblue" points="642.42,-31.64 650.73,-25.06 640.14,-25.02 642.42,-31.64"/>
</g>
<!-- Node8 -->
<g id="node8" class="node">
<title>Node8</title>
<g id="a_node8"><a xlink:href="PlatformSupportDefinitions_8hpp.html" target="_top" xlink:title=" ">
<polygon fill="none" stroke="black" points="584,-201.5 584,-231.5 757,-231.5 757,-201.5 584,-201.5"/>
<text text-anchor="start" x="592" y="-219.5" font-family="Helvetica,sans-Serif" font-size="10.00">xalanc/PlatformSupport</text>
<text text-anchor="middle" x="670.5" y="-208.5" font-family="Helvetica,sans-Serif" font-size="10.00">/PlatformSupportDefinitions.hpp</text>
</a>
</g>
</g>
<!-- Node7&#45;&gt;Node8 -->
<g id="edge7" class="edge">
<title>Node7&#45;&gt;Node8</title>
<path fill="none" stroke="midnightblue" d="M573.41,-268.4C591.36,-258.98 615.17,-246.5 634.72,-236.26"/>
<polygon fill="midnightblue" stroke="midnightblue" points="636.41,-239.32 643.65,-231.58 633.16,-233.12 636.41,-239.32"/>
</g>
<!-- Node9 -->
<g id="node9" class="node">
<title>Node9</title>
<g id="a_node9"><a xlink:href="XalanDOMInit_8hpp.html" target="_top" xlink:title=" ">
<polygon fill="none" stroke="black" points="371,-207 371,-226 566,-226 566,-207 371,-207"/>
<text text-anchor="middle" x="468.5" y="-214" font-family="Helvetica,sans-Serif" font-size="10.00">xalanc/XalanDOM/XalanDOMInit.hpp</text>
</a>
</g>
</g>
<!-- Node7&#45;&gt;Node9 -->
<g id="edge9" class="edge">
<title>Node7&#45;&gt;Node9</title>
<path fill="none" stroke="midnightblue" d="M529.58,-268.4C516.93,-257.86 499.67,-243.48 486.73,-232.69"/>
<polygon fill="midnightblue" stroke="midnightblue" points="488.86,-229.91 478.93,-226.19 484.38,-235.29 488.86,-229.91"/>
</g>
<!-- Node8&#45;&gt;Node3 -->
<g id="edge8" class="edge">
<title>Node8&#45;&gt;Node3</title>
<path fill="none" stroke="midnightblue" d="M663.6,-201.22C654.28,-183.29 636.08,-152.61 612.5,-134 589.14,-115.57 558.16,-102.99 532.88,-94.99"/>
<polygon fill="midnightblue" stroke="midnightblue" points="533.74,-91.6 523.15,-92.05 531.71,-98.3 533.74,-91.6"/>
</g>
<!-- Node10 -->
<g id="node10" class="node">
<title>Node10</title>
<g id="a_node10"><a xlink:href="XalanDOMDefinitions_8hpp.html" target="_top" xlink:title=" ">
<polygon fill="none" stroke="black" points="371.5,-140 371.5,-159 603.5,-159 603.5,-140 371.5,-140"/>
<text text-anchor="middle" x="487.5" y="-147" font-family="Helvetica,sans-Serif" font-size="10.00">xalanc/XalanDOM/XalanDOMDefinitions.hpp</text>
</a>
</g>
</g>
<!-- Node9&#45;&gt;Node10 -->
<g id="edge10" class="edge">
<title>Node9&#45;&gt;Node10</title>
<path fill="none" stroke="midnightblue" d="M471.06,-206.73C473.88,-197.09 478.5,-181.3 482.12,-168.91"/>
<polygon fill="midnightblue" stroke="midnightblue" points="485.53,-169.71 484.98,-159.13 478.81,-167.74 485.53,-169.71"/>
</g>
<!-- Node11 -->
<g id="node11" class="node">
<title>Node11</title>
<g id="a_node11"><a xlink:href="XalanMemoryManagement_8hpp.html" target="_top" xlink:title=" ">
<polygon fill="none" stroke="black" points="157.5,-134.5 157.5,-164.5 315.5,-164.5 315.5,-134.5 157.5,-134.5"/>
<text text-anchor="start" x="165.5" y="-152.5" font-family="Helvetica,sans-Serif" font-size="10.00">xalanc/Include/XalanMemory</text>
<text text-anchor="middle" x="236.5" y="-141.5" font-family="Helvetica,sans-Serif" font-size="10.00">Management.hpp</text>
</a>
</g>
</g>
<!-- Node9&#45;&gt;Node11 -->
<g id="edge12" class="edge">
<title>Node9&#45;&gt;Node11</title>
<path fill="none" stroke="midnightblue" d="M437.69,-206.87C401.75,-196.8 341.49,-179.91 296.27,-167.24"/>
<polygon fill="midnightblue" stroke="midnightblue" points="297.14,-163.86 286.57,-164.53 295.25,-170.6 297.14,-163.86"/>
</g>
<!-- Node10&#45;&gt;Node3 -->
<g id="edge11" class="edge">
<title>Node10&#45;&gt;Node3</title>
<path fill="none" stroke="midnightblue" d="M487.5,-139.73C487.5,-130.18 487.5,-114.62 487.5,-102.28"/>
<polygon fill="midnightblue" stroke="midnightblue" points="491,-102.13 487.5,-92.13 484,-102.13 491,-102.13"/>
</g>
<!-- Node11&#45;&gt;Node3 -->
<g id="edge13" class="edge">
<title>Node11&#45;&gt;Node3</title>
<path fill="none" stroke="midnightblue" d="M290.65,-134.48C336.82,-122.52 402.27,-105.57 444.8,-94.56"/>
<polygon fill="midnightblue" stroke="midnightblue" points="445.76,-97.92 454.57,-92.03 444.01,-91.15 445.76,-97.92"/>
</g>
<!-- Node12 -->
<g id="node12" class="node">
<title>Node12</title>
<g id="a_node12"><a xlink:title=" ">
<polygon fill="none" stroke="#bfbfbf" points="226.5,-73 226.5,-92 278.5,-92 278.5,-73 226.5,-73"/>
<text text-anchor="middle" x="252.5" y="-80" font-family="Helvetica,sans-Serif" font-size="10.00">cassert</text>
</a>
</g>
</g>
<!-- Node11&#45;&gt;Node12 -->
<g id="edge14" class="edge">
<title>Node11&#45;&gt;Node12</title>
<path fill="none" stroke="midnightblue" d="M239.97,-134.4C242.29,-124.96 245.37,-112.45 247.9,-102.19"/>
<polygon fill="midnightblue" stroke="midnightblue" points="251.37,-102.74 250.36,-92.19 244.57,-101.07 251.37,-102.74"/>
</g>
<!-- Node13 -->
<g id="node13" class="node">
<title>Node13</title>
<g id="a_node13"><a xlink:title=" ">
<polygon fill="none" stroke="#bfbfbf" points="297,-73 297,-92 350,-92 350,-73 297,-73"/>
<text text-anchor="middle" x="323.5" y="-80" font-family="Helvetica,sans-Serif" font-size="10.00">cstddef</text>
</a>
</g>
</g>
<!-- Node11&#45;&gt;Node13 -->
<g id="edge15" class="edge">
<title>Node11&#45;&gt;Node13</title>
<path fill="none" stroke="midnightblue" d="M255.38,-134.4C269.61,-123.76 289.1,-109.2 303.58,-98.38"/>
<polygon fill="midnightblue" stroke="midnightblue" points="305.95,-100.98 311.86,-92.19 301.76,-95.38 305.95,-100.98"/>
</g>
<!-- Node14 -->
<g id="node14" class="node">
<title>Node14</title>
<g id="a_node14"><a xlink:title=" ">
<polygon fill="none" stroke="#bfbfbf" points="0,-73 0,-92 37,-92 37,-73 0,-73"/>
<text text-anchor="middle" x="18.5" y="-80" font-family="Helvetica,sans-Serif" font-size="10.00">new</text>
</a>
</g>
</g>
<!-- Node11&#45;&gt;Node14 -->
<g id="edge16" class="edge">
<title>Node11&#45;&gt;Node14</title>
<path fill="none" stroke="midnightblue" d="M167.63,-134.41C130.74,-125.84 84.91,-113.54 45.5,-98 44.46,-97.59 43.41,-97.15 42.36,-96.69"/>
<polygon fill="midnightblue" stroke="midnightblue" points="43.58,-93.39 33.06,-92.12 40.49,-99.67 43.58,-93.39"/>
</g>
<!-- Node15 -->
<g id="node15" class="node">
<title>Node15</title>
<g id="a_node15"><a xlink:title=" ">
<polygon fill="none" stroke="#bfbfbf" points="55,-67.5 55,-97.5 208,-97.5 208,-67.5 55,-67.5"/>
<text text-anchor="start" x="63" y="-85.5" font-family="Helvetica,sans-Serif" font-size="10.00">xercesc/framework/Memory</text>
<text text-anchor="middle" x="131.5" y="-74.5" font-family="Helvetica,sans-Serif" font-size="10.00">Manager.hpp</text>
</a>
</g>
</g>
<!-- Node11&#45;&gt;Node15 -->
<g id="edge17" class="edge">
<title>Node11&#45;&gt;Node15</title>
<path fill="none" stroke="midnightblue" d="M213.72,-134.4C198.86,-125.2 179.26,-113.07 162.93,-102.95"/>
<polygon fill="midnightblue" stroke="midnightblue" points="164.58,-99.86 154.24,-97.58 160.9,-105.82 164.58,-99.86"/>
</g>
<!-- Node16&#45;&gt;Node7 -->
<g id="edge21" class="edge">
<title>Node16&#45;&gt;Node7</title>
<path fill="none" stroke="midnightblue" d="M461.93,-335.4C477.22,-326.2 497.38,-314.07 514.18,-303.95"/>
<polygon fill="midnightblue" stroke="midnightblue" points="516.35,-306.73 523.11,-298.58 512.74,-300.73 516.35,-306.73"/>
</g>
<!-- Node17 -->
<g id="node17" class="node">
<title>Node17</title>
<g id="a_node17"><a xlink:href="DOMSupportDefinitions_8hpp.html" target="_top" xlink:title=" ">
<polygon fill="none" stroke="black" points="264.5,-268.5 264.5,-298.5 442.5,-298.5 442.5,-268.5 264.5,-268.5"/>
<text text-anchor="start" x="272.5" y="-286.5" font-family="Helvetica,sans-Serif" font-size="10.00">xalanc/DOMSupport/DOMSupport</text>
<text text-anchor="middle" x="353.5" y="-275.5" font-family="Helvetica,sans-Serif" font-size="10.00">Definitions.hpp</text>
</a>
</g>
</g>
<!-- Node16&#45;&gt;Node17 -->
<g id="edge19" class="edge">
<title>Node16&#45;&gt;Node17</title>
<path fill="none" stroke="midnightblue" d="M420.06,-335.4C408.36,-326.45 393.04,-314.74 380.05,-304.8"/>
<polygon fill="midnightblue" stroke="midnightblue" points="381.98,-301.87 371.91,-298.58 377.73,-307.43 381.98,-301.87"/>
</g>
<!-- Node17&#45;&gt;Node3 -->
<g id="edge20" class="edge">
<title>Node17&#45;&gt;Node3</title>
<path fill="none" stroke="midnightblue" d="M349.78,-268.19C343.26,-239.65 333.08,-174.88 362.5,-134 376.67,-114.3 399.87,-102.27 422.46,-94.94"/>
<polygon fill="midnightblue" stroke="midnightblue" points="423.49,-98.28 432.07,-92.07 421.49,-91.57 423.49,-98.28"/>
</g>
</g>
</svg>
