<?xml version="1.0" encoding="UTF-8" standalone="no"?>
<!DOCTYPE svg PUBLIC "-//W3C//DTD SVG 1.1//EN"
 "http://www.w3.org/Graphics/SVG/1.1/DTD/svg11.dtd">
<!-- Generated by graphviz version 2.38.0 (20140413.2041)
 -->
<!-- Title: xalanc/XPath/XPathConstructionContext.hpp Pages: 1 -->
<svg width="746pt" height="307pt"
 viewBox="0.00 0.00 746.00 307.00" xmlns="http://www.w3.org/2000/svg" xmlns:xlink="http://www.w3.org/1999/xlink">
<g id="graph0" class="graph" transform="scale(1 1) rotate(0) translate(4 303)">
<title>xalanc/XPath/XPathConstructionContext.hpp</title>
<!-- Node1 -->
<g id="node1" class="node"><title>Node1</title>
<g id="a_node1"><a xlink:title=" ">
<polygon fill="#bfbfbf" stroke="black" points="97,-268.5 97,-298.5 254,-298.5 254,-268.5 97,-268.5"/>
<text text-anchor="start" x="105" y="-286.5" font-family="Helvetica,sans-Serif" font-size="10.00">xalanc/XPath/XPathConstruction</text>
<text text-anchor="middle" x="175.5" y="-275.5" font-family="Helvetica,sans-Serif" font-size="10.00">Context.hpp</text>
</a>
</g>
</g>
<!-- Node2 -->
<g id="node2" class="node"><title>Node2</title>
<g id="a_node2"><a xlink:href="XPathConstructionContextDefault_8hpp.html" target="_top" xlink:title=" ">
<polygon fill="none" stroke="black" points="5,-201.5 5,-231.5 162,-231.5 162,-201.5 5,-201.5"/>
<text text-anchor="start" x="13" y="-219.5" font-family="Helvetica,sans-Serif" font-size="10.00">xalanc/XPath/XPathConstruction</text>
<text text-anchor="middle" x="83.5" y="-208.5" font-family="Helvetica,sans-Serif" font-size="10.00">ContextDefault.hpp</text>
</a>
</g>
</g>
<!-- Node1&#45;&gt;Node2 -->
<g id="edge1" class="edge"><title>Node1&#45;&gt;Node2</title>
<path fill="none" stroke="midnightblue" d="M147.123,-262.451C132.97,-252.452 116.195,-240.6 103.424,-231.577"/>
<polygon fill="midnightblue" stroke="midnightblue" points="145.351,-265.484 155.537,-268.396 149.39,-259.767 145.351,-265.484"/>
</g>
<!-- Node5 -->
<g id="node5" class="node"><title>Node5</title>
<g id="a_node5"><a xlink:href="StylesheetConstructionContext_8hpp.html" target="_top" xlink:title=" ">
<polygon fill="none" stroke="black" points="181,-201.5 181,-231.5 356,-231.5 356,-201.5 181,-201.5"/>
<text text-anchor="start" x="189" y="-219.5" font-family="Helvetica,sans-Serif" font-size="10.00">xalanc/XSLT/StylesheetConstruction</text>
<text text-anchor="middle" x="268.5" y="-208.5" font-family="Helvetica,sans-Serif" font-size="10.00">Context.hpp</text>
</a>
</g>
</g>
<!-- Node1&#45;&gt;Node5 -->
<g id="edge4" class="edge"><title>Node1&#45;&gt;Node5</title>
<path fill="none" stroke="midnightblue" d="M204.185,-262.451C218.492,-252.452 235.45,-240.6 248.36,-231.577"/>
<polygon fill="midnightblue" stroke="midnightblue" points="201.871,-259.798 195.68,-268.396 205.881,-265.536 201.871,-259.798"/>
</g>
<!-- Node3 -->
<g id="node3" class="node"><title>Node3</title>
<g id="a_node3"><a xlink:href="XSLTEngineImpl_8hpp.html" target="_top" xlink:title=" ">
<polygon fill="none" stroke="black" points="0,-140 0,-159 163,-159 163,-140 0,-140"/>
<text text-anchor="middle" x="81.5" y="-147" font-family="Helvetica,sans-Serif" font-size="10.00">xalanc/XSLT/XSLTEngineImpl.hpp</text>
</a>
</g>
</g>
<!-- Node2&#45;&gt;Node3 -->
<g id="edge2" class="edge"><title>Node2&#45;&gt;Node3</title>
<path fill="none" stroke="midnightblue" d="M82.7538,-191.25C82.4082,-180.017 82.0193,-167.377 81.7675,-159.195"/>
<polygon fill="midnightblue" stroke="midnightblue" points="79.26,-191.508 83.066,-201.396 86.2567,-191.293 79.26,-191.508"/>
</g>
<!-- Node4 -->
<g id="node4" class="node"><title>Node4</title>
<g id="a_node4"><a xlink:href="XalanCompiledStylesheetDefault_8hpp.html" target="_top" xlink:title=" ">
<polygon fill="none" stroke="black" points="66,-0.5 66,-30.5 245,-30.5 245,-0.5 66,-0.5"/>
<text text-anchor="start" x="74" y="-18.5" font-family="Helvetica,sans-Serif" font-size="10.00">xalanc/XalanTransformer</text>
<text text-anchor="middle" x="155.5" y="-7.5" font-family="Helvetica,sans-Serif" font-size="10.00">/XalanCompiledStylesheetDefault.hpp</text>
</a>
</g>
</g>
<!-- Node3&#45;&gt;Node4 -->
<g id="edge3" class="edge"><title>Node3&#45;&gt;Node4</title>
<path fill="none" stroke="midnightblue" d="M91.3397,-130.948C106.141,-104.546 133.85,-55.1195 147.493,-30.7832"/>
<polygon fill="midnightblue" stroke="midnightblue" points="88.1925,-129.405 86.3553,-139.839 94.2984,-132.828 88.1925,-129.405"/>
</g>
<!-- Node6 -->
<g id="node6" class="node"><title>Node6</title>
<g id="a_node6"><a xlink:href="Stylesheet_8hpp.html" target="_top" xlink:title=" ">
<polygon fill="none" stroke="black" points="374,-140 374,-159 513,-159 513,-140 374,-140"/>
<text text-anchor="middle" x="443.5" y="-147" font-family="Helvetica,sans-Serif" font-size="10.00">xalanc/XSLT/Stylesheet.hpp</text>
</a>
</g>
</g>
<!-- Node5&#45;&gt;Node6 -->
<g id="edge5" class="edge"><title>Node5&#45;&gt;Node6</title>
<path fill="none" stroke="midnightblue" d="M316.197,-197.784C350.129,-185.181 394.209,-168.808 420.597,-159.007"/>
<polygon fill="midnightblue" stroke="midnightblue" points="314.628,-194.633 306.472,-201.396 317.065,-201.195 314.628,-194.633"/>
</g>
<!-- Node13 -->
<g id="node13" class="node"><title>Node13</title>
<g id="a_node13"><a xlink:href="StylesheetConstructionContextDefault_8hpp.html" target="_top" xlink:title=" ">
<polygon fill="none" stroke="black" points="181,-134.5 181,-164.5 356,-164.5 356,-134.5 181,-134.5"/>
<text text-anchor="start" x="189" y="-152.5" font-family="Helvetica,sans-Serif" font-size="10.00">xalanc/XSLT/StylesheetConstruction</text>
<text text-anchor="middle" x="268.5" y="-141.5" font-family="Helvetica,sans-Serif" font-size="10.00">ContextDefault.hpp</text>
</a>
</g>
</g>
<!-- Node5&#45;&gt;Node13 -->
<g id="edge14" class="edge"><title>Node5&#45;&gt;Node13</title>
<path fill="none" stroke="midnightblue" d="M268.5,-191.108C268.5,-182.154 268.5,-172.323 268.5,-164.577"/>
<polygon fill="midnightblue" stroke="midnightblue" points="265,-191.396 268.5,-201.396 272,-191.396 265,-191.396"/>
</g>
<!-- Node7 -->
<g id="node7" class="node"><title>Node7</title>
<g id="a_node7"><a xlink:href="StylesheetExecutionContextDefault_8hpp.html" target="_top" xlink:title=" ">
<polygon fill="none" stroke="black" points="361.5,-67.5 361.5,-97.5 525.5,-97.5 525.5,-67.5 361.5,-67.5"/>
<text text-anchor="start" x="369.5" y="-85.5" font-family="Helvetica,sans-Serif" font-size="10.00">xalanc/XSLT/StylesheetExecution</text>
<text text-anchor="middle" x="443.5" y="-74.5" font-family="Helvetica,sans-Serif" font-size="10.00">ContextDefault.hpp</text>
</a>
</g>
</g>
<!-- Node6&#45;&gt;Node7 -->
<g id="edge6" class="edge"><title>Node6&#45;&gt;Node7</title>
<path fill="none" stroke="midnightblue" d="M443.5,-129.411C443.5,-119.222 443.5,-106.901 443.5,-97.589"/>
<polygon fill="midnightblue" stroke="midnightblue" points="440,-129.734 443.5,-139.734 447,-129.734 440,-129.734"/>
</g>
<!-- Node11 -->
<g id="node11" class="node"><title>Node11</title>
<g id="a_node11"><a xlink:href="StylesheetHandler_8hpp.html" target="_top" xlink:title=" ">
<polygon fill="none" stroke="black" points="543.5,-73 543.5,-92 715.5,-92 715.5,-73 543.5,-73"/>
<text text-anchor="middle" x="629.5" y="-80" font-family="Helvetica,sans-Serif" font-size="10.00">xalanc/XSLT/StylesheetHandler.hpp</text>
</a>
</g>
</g>
<!-- Node6&#45;&gt;Node11 -->
<g id="edge11" class="edge"><title>Node6&#45;&gt;Node11</title>
<path fill="none" stroke="midnightblue" d="M478.021,-136.436C514.919,-123.542 572.486,-103.424 604.995,-92.0637"/>
<polygon fill="midnightblue" stroke="midnightblue" points="476.485,-133.265 468.199,-139.869 478.794,-139.874 476.485,-133.265"/>
</g>
<!-- Node12 -->
<g id="node12" class="node"><title>Node12</title>
<g id="a_node12"><a xlink:href="StylesheetRoot_8hpp.html" target="_top" xlink:title=" ">
<polygon fill="none" stroke="black" points="184,-73 184,-92 343,-92 343,-73 184,-73"/>
<text text-anchor="middle" x="263.5" y="-80" font-family="Helvetica,sans-Serif" font-size="10.00">xalanc/XSLT/StylesheetRoot.hpp</text>
</a>
</g>
</g>
<!-- Node6&#45;&gt;Node12 -->
<g id="edge12" class="edge"><title>Node6&#45;&gt;Node12</title>
<path fill="none" stroke="midnightblue" d="M410.093,-136.436C374.385,-123.542 318.675,-103.424 287.215,-92.0637"/>
<polygon fill="midnightblue" stroke="midnightblue" points="409.003,-139.764 419.597,-139.869 411.381,-133.18 409.003,-139.764"/>
</g>
<!-- Node7&#45;&gt;Node4 -->
<g id="edge10" class="edge"><title>Node7&#45;&gt;Node4</title>
<path fill="none" stroke="midnightblue" d="M371.511,-65.2525C324.303,-54.598 263.192,-40.8054 218.022,-30.6109"/>
<polygon fill="midnightblue" stroke="midnightblue" points="370.838,-68.6885 381.363,-67.476 372.379,-61.8602 370.838,-68.6885"/>
</g>
<!-- Node8 -->
<g id="node8" class="node"><title>Node8</title>
<g id="a_node8"><a xlink:href="ICUBridgeCollationCompareFunctorImpl_8hpp.html" target="_top" xlink:title=" ">
<polygon fill="none" stroke="black" points="575,-0.5 575,-30.5 738,-30.5 738,-0.5 575,-0.5"/>
<text text-anchor="start" x="583" y="-18.5" font-family="Helvetica,sans-Serif" font-size="10.00">xalanc/ICUBridge/ICUBridge</text>
<text text-anchor="middle" x="656.5" y="-7.5" font-family="Helvetica,sans-Serif" font-size="10.00">CollationCompareFunctorImpl.hpp</text>
</a>
</g>
</g>
<!-- Node7&#45;&gt;Node8 -->
<g id="edge7" class="edge"><title>Node7&#45;&gt;Node8</title>
<path fill="none" stroke="midnightblue" d="M499.39,-64.4442C533.918,-53.9078 577.692,-40.5495 610.26,-30.6109"/>
<polygon fill="midnightblue" stroke="midnightblue" points="497.999,-61.2096 489.456,-67.476 500.042,-67.9048 497.999,-61.2096"/>
</g>
<!-- Node9 -->
<g id="node9" class="node"><title>Node9</title>
<g id="a_node9"><a xlink:href="ICUFormatNumberFunctor_8hpp.html" target="_top" xlink:title=" ">
<polygon fill="none" stroke="black" points="263,-0.5 263,-30.5 404,-30.5 404,-0.5 263,-0.5"/>
<text text-anchor="start" x="271" y="-18.5" font-family="Helvetica,sans-Serif" font-size="10.00">xalanc/ICUBridge/ICUFormat</text>
<text text-anchor="middle" x="333.5" y="-7.5" font-family="Helvetica,sans-Serif" font-size="10.00">NumberFunctor.hpp</text>
</a>
</g>
</g>
<!-- Node7&#45;&gt;Node9 -->
<g id="edge8" class="edge"><title>Node7&#45;&gt;Node9</title>
<path fill="none" stroke="midnightblue" d="M411,-62.2956C393.788,-52.1248 373.024,-39.8549 357.322,-30.5765"/>
<polygon fill="midnightblue" stroke="midnightblue" points="409.242,-65.3219 419.632,-67.396 412.803,-59.2954 409.242,-65.3219"/>
</g>
<!-- Node10 -->
<g id="node10" class="node"><title>Node10</title>
<g id="a_node10"><a xlink:href="ICUXalanNumberFormatFactory_8hpp.html" target="_top" xlink:title=" ">
<polygon fill="none" stroke="black" points="422.5,-0.5 422.5,-30.5 556.5,-30.5 556.5,-0.5 422.5,-0.5"/>
<text text-anchor="start" x="430.5" y="-18.5" font-family="Helvetica,sans-Serif" font-size="10.00">xalanc/ICUBridge/ICUXalan</text>
<text text-anchor="middle" x="489.5" y="-7.5" font-family="Helvetica,sans-Serif" font-size="10.00">NumberFormatFactory.hpp</text>
</a>
</g>
</g>
<!-- Node7&#45;&gt;Node10 -->
<g id="edge9" class="edge"><title>Node7&#45;&gt;Node10</title>
<path fill="none" stroke="midnightblue" d="M459.312,-59.1575C466.02,-49.6788 473.635,-38.9186 479.538,-30.5765"/>
<polygon fill="midnightblue" stroke="midnightblue" points="456.401,-57.2114 453.481,-67.396 462.115,-61.2551 456.401,-57.2114"/>
</g>
<!-- Node12&#45;&gt;Node4 -->
<g id="edge13" class="edge"><title>Node12&#45;&gt;Node4</title>
<path fill="none" stroke="midnightblue" d="M240.162,-67.4538C222.046,-56.5506 197.043,-41.503 178.909,-30.589"/>
<polygon fill="midnightblue" stroke="midnightblue" points="238.562,-70.5759 248.935,-72.7338 242.172,-64.5784 238.562,-70.5759"/>
</g>
<!-- Node13&#45;&gt;Node4 -->
<g id="edge15" class="edge"><title>Node13&#45;&gt;Node4</title>
<path fill="none" stroke="midnightblue" d="M215.725,-129.933C200.433,-122.214 185.039,-111.765 174.5,-98 159.309,-78.1582 155.954,-48.1884 155.388,-30.657"/>
<polygon fill="midnightblue" stroke="midnightblue" points="214.65,-133.296 225.188,-134.391 217.634,-126.963 214.65,-133.296"/>
</g>
</g>
</svg>
