<?xml version="1.0" encoding="UTF-8" standalone="no"?>
<!DOCTYPE svg PUBLIC "-//W3C//DTD SVG 1.1//EN"
 "http://www.w3.org/Graphics/SVG/1.1/DTD/svg11.dtd">
<!-- Generated by graphviz version 2.43.0 (0)
 -->
<!-- Title: xalanc/XSLT/XResultTreeFragAllocator.hpp Pages: 1 -->
<svg width="752pt" height="173pt"
 viewBox="0.00 0.00 752.00 173.00" xmlns="http://www.w3.org/2000/svg" xmlns:xlink="http://www.w3.org/1999/xlink">
<g id="graph0" class="graph" transform="scale(1 1) rotate(0) translate(4 169)">
<title>xalanc/XSLT/XResultTreeFragAllocator.hpp</title>
<!-- Node1 -->
<g id="node1" class="node">
<title>Node1</title>
<g id="a_node1"><a xlink:title=" ">
<polygon fill="#bfbfbf" stroke="black" points="285,-134.5 285,-164.5 442,-164.5 442,-134.5 285,-134.5"/>
<text text-anchor="start" x="293" y="-152.5" font-family="Helvetica,sans-Serif" font-size="10.00">xalanc/XSLT/XResultTreeFrag</text>
<text text-anchor="middle" x="363.5" y="-141.5" font-family="Helvetica,sans-Serif" font-size="10.00">Allocator.hpp</text>
</a>
</g>
</g>
<!-- Node2 -->
<g id="node2" class="node">
<title>Node2</title>
<g id="a_node2"><a xlink:href="StylesheetExecutionContextDefault_8hpp.html" target="_top" xlink:title=" ">
<polygon fill="none" stroke="black" points="275,-67.5 275,-97.5 452,-97.5 452,-67.5 275,-67.5"/>
<text text-anchor="start" x="283" y="-85.5" font-family="Helvetica,sans-Serif" font-size="10.00">xalanc/XSLT/StylesheetExecution</text>
<text text-anchor="middle" x="363.5" y="-74.5" font-family="Helvetica,sans-Serif" font-size="10.00">ContextDefault.hpp</text>
</a>
</g>
</g>
<!-- Node1&#45;&gt;Node2 -->
<g id="edge1" class="edge">
<title>Node1&#45;&gt;Node2</title>
<path fill="none" stroke="midnightblue" d="M363.5,-124.11C363.5,-115.15 363.5,-105.32 363.5,-97.58"/>
<polygon fill="midnightblue" stroke="midnightblue" points="360,-124.4 363.5,-134.4 367,-124.4 360,-124.4"/>
</g>
<!-- Node3 -->
<g id="node3" class="node">
<title>Node3</title>
<g id="a_node3"><a xlink:href="ICUBridgeCollationCompareFunctorImpl_8hpp.html" target="_top" xlink:title=" ">
<polygon fill="none" stroke="black" points="0,-0.5 0,-30.5 183,-30.5 183,-0.5 0,-0.5"/>
<text text-anchor="start" x="8" y="-18.5" font-family="Helvetica,sans-Serif" font-size="10.00">xalanc/ICUBridge/ICUBridge</text>
<text text-anchor="middle" x="91.5" y="-7.5" font-family="Helvetica,sans-Serif" font-size="10.00">CollationCompareFunctorImpl.hpp</text>
</a>
</g>
</g>
<!-- Node2&#45;&gt;Node3 -->
<g id="edge2" class="edge">
<title>Node2&#45;&gt;Node3</title>
<path fill="none" stroke="midnightblue" d="M294.95,-65.12C250.44,-54.48 193.03,-40.76 150.55,-30.61"/>
<polygon fill="midnightblue" stroke="midnightblue" points="294.28,-68.56 304.81,-67.48 295.9,-61.75 294.28,-68.56"/>
</g>
<!-- Node4 -->
<g id="node4" class="node">
<title>Node4</title>
<g id="a_node4"><a xlink:href="ICUFormatNumberFunctor_8hpp.html" target="_top" xlink:title=" ">
<polygon fill="none" stroke="black" points="201,-0.5 201,-30.5 356,-30.5 356,-0.5 201,-0.5"/>
<text text-anchor="start" x="209" y="-18.5" font-family="Helvetica,sans-Serif" font-size="10.00">xalanc/ICUBridge/ICUFormat</text>
<text text-anchor="middle" x="278.5" y="-7.5" font-family="Helvetica,sans-Serif" font-size="10.00">NumberFunctor.hpp</text>
</a>
</g>
</g>
<!-- Node2&#45;&gt;Node4 -->
<g id="edge3" class="edge">
<title>Node2&#45;&gt;Node4</title>
<path fill="none" stroke="midnightblue" d="M336.91,-61.17C323.91,-51.23 308.6,-39.51 296.91,-30.58"/>
<polygon fill="midnightblue" stroke="midnightblue" points="334.99,-64.1 345.06,-67.4 339.24,-58.54 334.99,-64.1"/>
</g>
<!-- Node5 -->
<g id="node5" class="node">
<title>Node5</title>
<g id="a_node5"><a xlink:href="ICUXalanNumberFormatFactory_8hpp.html" target="_top" xlink:title=" ">
<polygon fill="none" stroke="black" points="374,-0.5 374,-30.5 523,-30.5 523,-0.5 374,-0.5"/>
<text text-anchor="start" x="382" y="-18.5" font-family="Helvetica,sans-Serif" font-size="10.00">xalanc/ICUBridge/ICUXalan</text>
<text text-anchor="middle" x="448.5" y="-7.5" font-family="Helvetica,sans-Serif" font-size="10.00">NumberFormatFactory.hpp</text>
</a>
</g>
</g>
<!-- Node2&#45;&gt;Node5 -->
<g id="edge4" class="edge">
<title>Node2&#45;&gt;Node5</title>
<path fill="none" stroke="midnightblue" d="M390.09,-61.17C403.09,-51.23 418.4,-39.51 430.09,-30.58"/>
<polygon fill="midnightblue" stroke="midnightblue" points="387.76,-58.54 381.94,-67.4 392.01,-64.1 387.76,-58.54"/>
</g>
<!-- Node6 -->
<g id="node6" class="node">
<title>Node6</title>
<g id="a_node6"><a xlink:href="XalanCompiledStylesheetDefault_8hpp.html" target="_top" xlink:title=" ">
<polygon fill="none" stroke="black" points="541,-0.5 541,-30.5 744,-30.5 744,-0.5 541,-0.5"/>
<text text-anchor="start" x="549" y="-18.5" font-family="Helvetica,sans-Serif" font-size="10.00">xalanc/XalanTransformer</text>
<text text-anchor="middle" x="642.5" y="-7.5" font-family="Helvetica,sans-Serif" font-size="10.00">/XalanCompiledStylesheetDefault.hpp</text>
</a>
</g>
</g>
<!-- Node2&#45;&gt;Node6 -->
<g id="edge5" class="edge">
<title>Node2&#45;&gt;Node6</title>
<path fill="none" stroke="midnightblue" d="M433.53,-65.19C479.22,-54.54 538.27,-40.78 581.93,-30.61"/>
<polygon fill="midnightblue" stroke="midnightblue" points="432.64,-61.8 423.7,-67.48 434.23,-68.62 432.64,-61.8"/>
</g>
</g>
</svg>
