<?xml version="1.0" encoding="UTF-8" standalone="no"?>
<!DOCTYPE svg PUBLIC "-//W3C//DTD SVG 1.1//EN"
 "http://www.w3.org/Graphics/SVG/1.1/DTD/svg11.dtd">
<!-- Generated by graphviz version 2.43.0 (0)
 -->
<!-- Title: xalanc/PlatformSupport/XSLException.hpp Pages: 1 -->
<!--zoomable 609 -->
<svg id="main" version="1.1" xmlns="http://www.w3.org/2000/svg" xmlns:xlink="http://www.w3.org/1999/xlink" xml:space="preserve" onload="init(evt)">
<style type="text/css"><![CDATA[
.edge:hover path { stroke: red; }
.edge:hover polygon { stroke: red; fill: red; }
]]></style>
<script type="text/javascript"><![CDATA[
var edges = document.getElementsByTagName('g');
if (edges && edges.length) {
  for (var i=0;i<edges.length;i++) {
    if (edges[i].id.substr(0,4)=='edge') {
      edges[i].setAttribute('class','edge');
    }
  }
}
]]></script>
        <defs>
                <circle id="rim" cx="0" cy="0" r="7"/>
                <circle id="rim2" cx="0" cy="0" r="3.5"/>
                <g id="zoomPlus">
                        <use xlink:href="#rim" fill="#404040">
                                <set attributeName="fill" to="#808080" begin="zoomplus.mouseover" end="zoomplus.mouseout"/>
                        </use>
                        <path d="M-4,0h8M0,-4v8" fill="none" stroke="white" stroke-width="1.5" pointer-events="none"/>
                </g>
                <g id="zoomMin">
                        <use xlink:href="#rim" fill="#404040">
                                <set attributeName="fill" to="#808080" begin="zoomminus.mouseover" end="zoomminus.mouseout"/>
                        </use>
                        <path d="M-4,0h8" fill="none" stroke="white" stroke-width="1.5" pointer-events="none"/>
                </g>
                <g id="dirArrow">
                        <path fill="none" stroke="white" stroke-width="1.5" d="M0,-3.0v7 M-2.5,-0.5L0,-3.0L2.5,-0.5"/>
                </g>
               <g id="resetDef">
                       <use xlink:href="#rim2" fill="#404040">
                               <set attributeName="fill" to="#808080" begin="reset.mouseover" end="reset.mouseout"/>
                       </use>
               </g>
        </defs>

<script type="text/javascript">
var viewWidth = 1458;
var viewHeight = 609;
var sectionId = 'dynsection-0';
</script>
<script xlink:href="svgpan.js"/>
<svg id="graph" class="graph">
<g id="viewport">
<title>xalanc/PlatformSupport/XSLException.hpp</title>
<!-- Node1 -->
<g id="node1" class="node">
<title>Node1</title>
<g id="a_node1"><a xlink:title=" ">
<polygon fill="#bfbfbf" stroke="black" points="1185,-570.5 1185,-600.5 1316,-600.5 1316,-570.5 1185,-570.5"/>
<text text-anchor="start" x="1193" y="-588.5" font-family="Helvetica,sans-Serif" font-size="10.00">xalanc/PlatformSupport</text>
<text text-anchor="middle" x="1250.5" y="-577.5" font-family="Helvetica,sans-Serif" font-size="10.00">/XSLException.hpp</text>
</a>
</g>
</g>
<!-- Node2 -->
<g id="node2" class="node">
<title>Node2</title>
<g id="a_node2"><a xlink:href="PlatformSupportDefinitions_8hpp.html" target="_top" xlink:title=" ">
<polygon fill="none" stroke="black" points="1080,-369.5 1080,-399.5 1253,-399.5 1253,-369.5 1080,-369.5"/>
<text text-anchor="start" x="1088" y="-387.5" font-family="Helvetica,sans-Serif" font-size="10.00">xalanc/PlatformSupport</text>
<text text-anchor="middle" x="1166.5" y="-376.5" font-family="Helvetica,sans-Serif" font-size="10.00">/PlatformSupportDefinitions.hpp</text>
</a>
</g>
</g>
<!-- Node1&#45;&gt;Node2 -->
<g id="edge1" class="edge">
<title>Node1&#45;&gt;Node2</title>
<path fill="none" stroke="midnightblue" d="M1251.95,-570.3C1254.1,-542.51 1255.5,-479.84 1230.5,-436 1223.52,-423.75 1212.28,-413.39 1201.15,-405.3"/>
<polygon fill="midnightblue" stroke="midnightblue" points="1202.97,-402.31 1192.74,-399.56 1199.03,-408.09 1202.97,-402.31"/>
</g>
<!-- Node7 -->
<g id="node7" class="node">
<title>Node7</title>
<g id="a_node7"><a xlink:href="DOMStringHelper_8hpp.html" target="_top" xlink:title=" ">
<polygon fill="none" stroke="black" points="575,-503.5 575,-533.5 706,-533.5 706,-503.5 575,-503.5"/>
<text text-anchor="start" x="583" y="-521.5" font-family="Helvetica,sans-Serif" font-size="10.00">xalanc/PlatformSupport</text>
<text text-anchor="middle" x="640.5" y="-510.5" font-family="Helvetica,sans-Serif" font-size="10.00">/DOMStringHelper.hpp</text>
</a>
</g>
</g>
<!-- Node1&#45;&gt;Node7 -->
<g id="edge6" class="edge">
<title>Node1&#45;&gt;Node7</title>
<path fill="none" stroke="midnightblue" d="M1184.93,-577.51C1071.01,-565.37 837.19,-540.46 716.42,-527.59"/>
<polygon fill="midnightblue" stroke="midnightblue" points="716.47,-524.08 706.16,-526.5 715.73,-531.04 716.47,-524.08"/>
</g>
<!-- Node30 -->
<g id="node30" class="node">
<title>Node30</title>
<g id="a_node30"><a xlink:href="XalanLocator_8hpp.html" target="_top" xlink:title=" ">
<polygon fill="none" stroke="black" points="1279,-503.5 1279,-533.5 1410,-533.5 1410,-503.5 1279,-503.5"/>
<text text-anchor="start" x="1287" y="-521.5" font-family="Helvetica,sans-Serif" font-size="10.00">xalanc/PlatformSupport</text>
<text text-anchor="middle" x="1344.5" y="-510.5" font-family="Helvetica,sans-Serif" font-size="10.00">/XalanLocator.hpp</text>
</a>
</g>
</g>
<!-- Node1&#45;&gt;Node30 -->
<g id="edge65" class="edge">
<title>Node1&#45;&gt;Node30</title>
<path fill="none" stroke="midnightblue" d="M1270.9,-570.4C1283.95,-561.37 1301.1,-549.51 1315.55,-539.52"/>
<polygon fill="midnightblue" stroke="midnightblue" points="1317.91,-542.14 1324.14,-533.58 1313.93,-536.39 1317.91,-542.14"/>
</g>
<!-- Node3 -->
<g id="node3" class="node">
<title>Node3</title>
<g id="a_node3"><a xlink:href="PlatformDefinitions_8hpp.html" target="_top" xlink:title=" ">
<polygon fill="none" stroke="black" points="692.5,-73 692.5,-92 898.5,-92 898.5,-73 692.5,-73"/>
<text text-anchor="middle" x="795.5" y="-80" font-family="Helvetica,sans-Serif" font-size="10.00">xalanc/Include/PlatformDefinitions.hpp</text>
</a>
</g>
</g>
<!-- Node2&#45;&gt;Node3 -->
<g id="edge2" class="edge">
<title>Node2&#45;&gt;Node3</title>
<path fill="none" stroke="midnightblue" d="M1168.93,-369.32C1172.43,-347.59 1178.5,-304.69 1178.5,-268 1178.5,-268 1178.5,-268 1178.5,-210 1178.5,-146.7 987.48,-109.72 875.24,-93.45"/>
<polygon fill="midnightblue" stroke="midnightblue" points="875.7,-89.98 865.3,-92.03 874.71,-96.91 875.7,-89.98"/>
</g>
<!-- Node4 -->
<g id="node4" class="node">
<title>Node4</title>
<g id="a_node4"><a xlink:title=" ">
<polygon fill="none" stroke="#bfbfbf" points="574.5,-0.5 574.5,-30.5 694.5,-30.5 694.5,-0.5 574.5,-0.5"/>
<text text-anchor="start" x="582.5" y="-18.5" font-family="Helvetica,sans-Serif" font-size="10.00">xercesc/util/Xerces</text>
<text text-anchor="middle" x="634.5" y="-7.5" font-family="Helvetica,sans-Serif" font-size="10.00">_autoconf_config.hpp</text>
</a>
</g>
</g>
<!-- Node3&#45;&gt;Node4 -->
<g id="edge3" class="edge">
<title>Node3&#45;&gt;Node4</title>
<path fill="none" stroke="midnightblue" d="M774.12,-72.87C749.86,-63.07 709.62,-46.83 678.56,-34.29"/>
<polygon fill="midnightblue" stroke="midnightblue" points="679.83,-31.03 669.25,-30.53 677.21,-37.52 679.83,-31.03"/>
</g>
<!-- Node5 -->
<g id="node5" class="node">
<title>Node5</title>
<g id="a_node5"><a xlink:title=" ">
<polygon fill="none" stroke="#bfbfbf" points="713,-6 713,-25 878,-25 878,-6 713,-6"/>
<text text-anchor="middle" x="795.5" y="-13" font-family="Helvetica,sans-Serif" font-size="10.00">xercesc/util/XercesVersion.hpp</text>
</a>
</g>
</g>
<!-- Node3&#45;&gt;Node5 -->
<g id="edge4" class="edge">
<title>Node3&#45;&gt;Node5</title>
<path fill="none" stroke="midnightblue" d="M795.5,-72.73C795.5,-63.18 795.5,-47.62 795.5,-35.28"/>
<polygon fill="midnightblue" stroke="midnightblue" points="799,-35.13 795.5,-25.13 792,-35.13 799,-35.13"/>
</g>
<!-- Node6 -->
<g id="node6" class="node">
<title>Node6</title>
<g id="a_node6"><a xlink:href="XalanVersion_8hpp.html" target="_top" xlink:title=" ">
<polygon fill="none" stroke="black" points="896,-6 896,-25 1071,-25 1071,-6 896,-6"/>
<text text-anchor="middle" x="983.5" y="-13" font-family="Helvetica,sans-Serif" font-size="10.00">xalanc/Include/XalanVersion.hpp</text>
</a>
</g>
</g>
<!-- Node3&#45;&gt;Node6 -->
<g id="edge5" class="edge">
<title>Node3&#45;&gt;Node6</title>
<path fill="none" stroke="midnightblue" d="M820.46,-72.87C853.42,-61.47 911.62,-41.35 948.83,-28.49"/>
<polygon fill="midnightblue" stroke="midnightblue" points="950.42,-31.64 958.73,-25.06 948.14,-25.02 950.42,-31.64"/>
</g>
<!-- Node7&#45;&gt;Node2 -->
<g id="edge7" class="edge">
<title>Node7&#45;&gt;Node2</title>
<path fill="none" stroke="midnightblue" d="M706.25,-513.56C804.23,-506.96 983.34,-491.89 1042.5,-467 1062.91,-458.41 1063.27,-448.57 1081.5,-436 1097.56,-424.92 1116.12,-413.72 1131.79,-404.69"/>
<polygon fill="midnightblue" stroke="midnightblue" points="1133.69,-407.64 1140.65,-399.65 1130.23,-401.56 1133.69,-407.64"/>
</g>
<!-- Node8 -->
<g id="node8" class="node">
<title>Node8</title>
<g id="a_node8"><a xlink:title=" ">
<polygon fill="none" stroke="#bfbfbf" points="665.5,-140 665.5,-159 729.5,-159 729.5,-140 665.5,-140"/>
<text text-anchor="middle" x="697.5" y="-147" font-family="Helvetica,sans-Serif" font-size="10.00">algorithm</text>
</a>
</g>
</g>
<!-- Node7&#45;&gt;Node8 -->
<g id="edge8" class="edge">
<title>Node7&#45;&gt;Node8</title>
<path fill="none" stroke="midnightblue" d="M574.9,-507.11C544.7,-499.79 509.82,-487.49 483.5,-467 449.78,-440.75 432.5,-428.23 432.5,-385.5 432.5,-385.5 432.5,-385.5 432.5,-322 432.5,-283.58 458.95,-280.31 489.5,-257 518.58,-234.81 530.87,-237.52 563.5,-221 580.53,-212.38 584.61,-209.89 601.5,-201 625.45,-188.4 652.77,-174.03 672.12,-163.85"/>
<polygon fill="midnightblue" stroke="midnightblue" points="673.97,-166.83 681.19,-159.08 670.71,-160.63 673.97,-166.83"/>
</g>
<!-- Node9 -->
<g id="node9" class="node">
<title>Node9</title>
<g id="a_node9"><a xlink:title=" ">
<polygon fill="none" stroke="#bfbfbf" points="297.5,-73 297.5,-92 349.5,-92 349.5,-73 297.5,-73"/>
<text text-anchor="middle" x="323.5" y="-80" font-family="Helvetica,sans-Serif" font-size="10.00">cassert</text>
</a>
</g>
</g>
<!-- Node7&#45;&gt;Node9 -->
<g id="edge9" class="edge">
<title>Node7&#45;&gt;Node9</title>
<path fill="none" stroke="midnightblue" d="M574.92,-517.68C412.12,-516.36 2.5,-501.51 2.5,-385.5 2.5,-385.5 2.5,-385.5 2.5,-210 2.5,-167.78 23.33,-155.78 59.5,-134 147.39,-81.08 188.62,-125.34 287.5,-98 289.94,-97.32 292.45,-96.53 294.94,-95.68"/>
<polygon fill="midnightblue" stroke="midnightblue" points="296.21,-98.94 304.35,-92.15 293.76,-92.38 296.21,-98.94"/>
</g>
<!-- Node10 -->
<g id="node10" class="node">
<title>Node10</title>
<g id="a_node10"><a xlink:title=" ">
<polygon fill="none" stroke="#bfbfbf" points="751,-201.5 751,-220.5 816,-220.5 816,-201.5 751,-201.5"/>
<text text-anchor="middle" x="783.5" y="-208.5" font-family="Helvetica,sans-Serif" font-size="10.00">functional</text>
</a>
</g>
</g>
<!-- Node7&#45;&gt;Node10 -->
<g id="edge10" class="edge">
<title>Node7&#45;&gt;Node10</title>
<path fill="none" stroke="midnightblue" d="M631.16,-503.17C614.82,-476.21 584.52,-416.35 603.5,-369 631.98,-297.97 712.93,-247.76 755.91,-225.27"/>
<polygon fill="midnightblue" stroke="midnightblue" points="757.66,-228.3 764.97,-220.64 754.47,-222.07 757.66,-228.3"/>
</g>
<!-- Node11 -->
<g id="node11" class="node">
<title>Node11</title>
<g id="a_node11"><a xlink:title=" ">
<polygon fill="none" stroke="#bfbfbf" points="508.5,-442 508.5,-461 556.5,-461 556.5,-442 508.5,-442"/>
<text text-anchor="middle" x="532.5" y="-449" font-family="Helvetica,sans-Serif" font-size="10.00">iosfwd</text>
</a>
</g>
</g>
<!-- Node7&#45;&gt;Node11 -->
<g id="edge11" class="edge">
<title>Node7&#45;&gt;Node11</title>
<path fill="none" stroke="midnightblue" d="M617.07,-503.4C598.79,-492.39 573.54,-477.2 555.4,-466.28"/>
<polygon fill="midnightblue" stroke="midnightblue" points="557.01,-463.16 546.63,-461.01 553.4,-469.16 557.01,-463.16"/>
</g>
<!-- Node12 -->
<g id="node12" class="node">
<title>Node12</title>
<g id="a_node12"><a xlink:href="XalanVector_8hpp.html" target="_top" xlink:title=" ">
<polygon fill="none" stroke="black" points="386,-201.5 386,-220.5 555,-220.5 555,-201.5 386,-201.5"/>
<text text-anchor="middle" x="470.5" y="-208.5" font-family="Helvetica,sans-Serif" font-size="10.00">xalanc/Include/XalanVector.hpp</text>
</a>
</g>
</g>
<!-- Node7&#45;&gt;Node12 -->
<g id="edge12" class="edge">
<title>Node7&#45;&gt;Node12</title>
<path fill="none" stroke="midnightblue" d="M574.99,-514.95C491.12,-507.77 356.5,-481.33 356.5,-385.5 356.5,-385.5 356.5,-385.5 356.5,-322 356.5,-275.11 407.05,-241.89 440.83,-224.93"/>
<polygon fill="midnightblue" stroke="midnightblue" points="442.37,-228.07 449.86,-220.58 439.33,-221.77 442.37,-228.07"/>
</g>
<!-- Node17 -->
<g id="node17" class="node">
<title>Node17</title>
<g id="a_node17"><a xlink:href="XalanMemoryManagement_8hpp.html" target="_top" xlink:title=" ">
<polygon fill="none" stroke="black" points="68.5,-134.5 68.5,-164.5 226.5,-164.5 226.5,-134.5 68.5,-134.5"/>
<text text-anchor="start" x="76.5" y="-152.5" font-family="Helvetica,sans-Serif" font-size="10.00">xalanc/Include/XalanMemory</text>
<text text-anchor="middle" x="147.5" y="-141.5" font-family="Helvetica,sans-Serif" font-size="10.00">Management.hpp</text>
</a>
</g>
</g>
<!-- Node7&#45;&gt;Node17 -->
<g id="edge42" class="edge">
<title>Node7&#45;&gt;Node17</title>
<path fill="none" stroke="midnightblue" d="M574.77,-513.73C440.12,-504.21 145.5,-473.33 145.5,-385.5 145.5,-385.5 145.5,-385.5 145.5,-266 145.5,-234.49 146.25,-198.15 146.84,-174.78"/>
<polygon fill="midnightblue" stroke="midnightblue" points="150.34,-174.81 147.1,-164.72 143.34,-174.63 150.34,-174.81"/>
</g>
<!-- Node19 -->
<g id="node19" class="node">
<title>Node19</title>
<g id="a_node19"><a xlink:href="XalanMap_8hpp.html" target="_top" xlink:title=" ">
<polygon fill="none" stroke="black" points="498.5,-257.5 498.5,-276.5 658.5,-276.5 658.5,-257.5 498.5,-257.5"/>
<text text-anchor="middle" x="578.5" y="-264.5" font-family="Helvetica,sans-Serif" font-size="10.00">xalanc/Include/XalanMap.hpp</text>
</a>
</g>
</g>
<!-- Node7&#45;&gt;Node19 -->
<g id="edge26" class="edge">
<title>Node7&#45;&gt;Node19</title>
<path fill="none" stroke="midnightblue" d="M574.96,-510.67C546.92,-504.12 516.71,-491.45 499.5,-467 456.91,-406.5 528.3,-319.78 562.18,-284.18"/>
<polygon fill="midnightblue" stroke="midnightblue" points="565.05,-286.25 569.53,-276.65 560.04,-281.37 565.05,-286.25"/>
</g>
<!-- Node22 -->
<g id="node22" class="node">
<title>Node22</title>
<g id="a_node22"><a xlink:href="STLHelper_8hpp.html" target="_top" xlink:title=" ">
<polygon fill="none" stroke="black" points="990.5,-313.5 990.5,-332.5 1150.5,-332.5 1150.5,-313.5 990.5,-313.5"/>
<text text-anchor="middle" x="1070.5" y="-320.5" font-family="Helvetica,sans-Serif" font-size="10.00">xalanc/Include/STLHelper.hpp</text>
</a>
</g>
</g>
<!-- Node7&#45;&gt;Node22 -->
<g id="edge43" class="edge">
<title>Node7&#45;&gt;Node22</title>
<path fill="none" stroke="midnightblue" d="M706.46,-507.02C747.56,-499.1 800.91,-486.25 845.5,-467 868.82,-456.94 870.24,-446.2 893.5,-436 951.94,-410.36 982.89,-440.14 1032.5,-400 1050.56,-385.39 1060.78,-359.99 1065.97,-342.61"/>
<polygon fill="midnightblue" stroke="midnightblue" points="1069.47,-343.1 1068.69,-332.53 1062.71,-341.28 1069.47,-343.1"/>
</g>
<!-- Node23 -->
<g id="node23" class="node">
<title>Node23</title>
<g id="a_node23"><a xlink:href="XalanDOMString_8hpp.html" target="_top" xlink:title=" ">
<polygon fill="none" stroke="black" points="612.5,-375 612.5,-394 820.5,-394 820.5,-375 612.5,-375"/>
<text text-anchor="middle" x="716.5" y="-382" font-family="Helvetica,sans-Serif" font-size="10.00">xalanc/XalanDOM/XalanDOMString.hpp</text>
</a>
</g>
</g>
<!-- Node7&#45;&gt;Node23 -->
<g id="edge48" class="edge">
<title>Node7&#45;&gt;Node23</title>
<path fill="none" stroke="midnightblue" d="M648.63,-503.37C662.62,-479.08 691.2,-429.44 706.43,-403"/>
<polygon fill="midnightblue" stroke="midnightblue" points="709.59,-404.51 711.55,-394.1 703.53,-401.02 709.59,-404.51"/>
</g>
<!-- Node26 -->
<g id="node26" class="node">
<title>Node26</title>
<g id="a_node26"><a xlink:href="FormatterListener_8hpp.html" target="_top" xlink:title=" ">
<polygon fill="none" stroke="black" points="706,-436.5 706,-466.5 837,-466.5 837,-436.5 706,-436.5"/>
<text text-anchor="start" x="714" y="-454.5" font-family="Helvetica,sans-Serif" font-size="10.00">xalanc/PlatformSupport</text>
<text text-anchor="middle" x="771.5" y="-443.5" font-family="Helvetica,sans-Serif" font-size="10.00">/FormatterListener.hpp</text>
</a>
</g>
</g>
<!-- Node7&#45;&gt;Node26 -->
<g id="edge57" class="edge">
<title>Node7&#45;&gt;Node26</title>
<path fill="none" stroke="midnightblue" d="M668.93,-503.4C687.98,-493.94 713.28,-481.39 733.98,-471.12"/>
<polygon fill="midnightblue" stroke="midnightblue" points="735.73,-474.16 743.13,-466.58 732.62,-467.89 735.73,-474.16"/>
</g>
<!-- Node28 -->
<g id="node28" class="node">
<title>Node28</title>
<g id="a_node28"><a xlink:href="XalanUnicode_8hpp.html" target="_top" xlink:title=" ">
<polygon fill="none" stroke="black" points="1091,-436.5 1091,-466.5 1222,-466.5 1222,-436.5 1091,-436.5"/>
<text text-anchor="start" x="1099" y="-454.5" font-family="Helvetica,sans-Serif" font-size="10.00">xalanc/PlatformSupport</text>
<text text-anchor="middle" x="1156.5" y="-443.5" font-family="Helvetica,sans-Serif" font-size="10.00">/XalanUnicode.hpp</text>
</a>
</g>
</g>
<!-- Node7&#45;&gt;Node28 -->
<g id="edge61" class="edge">
<title>Node7&#45;&gt;Node28</title>
<path fill="none" stroke="midnightblue" d="M706.04,-511.23C791.5,-502.75 945.54,-486.43 1076.5,-467 1077.8,-466.81 1079.1,-466.61 1080.42,-466.41"/>
<polygon fill="midnightblue" stroke="midnightblue" points="1081.31,-469.81 1090.63,-464.78 1080.21,-462.9 1081.31,-469.81"/>
</g>
<!-- Node29 -->
<g id="node29" class="node">
<title>Node29</title>
<g id="a_node29"><a xlink:href="XalanXMLChar_8hpp.html" target="_top" xlink:title=" ">
<polygon fill="none" stroke="black" points="903,-436.5 903,-466.5 1034,-466.5 1034,-436.5 903,-436.5"/>
<text text-anchor="start" x="911" y="-454.5" font-family="Helvetica,sans-Serif" font-size="10.00">xalanc/PlatformSupport</text>
<text text-anchor="middle" x="968.5" y="-443.5" font-family="Helvetica,sans-Serif" font-size="10.00">/XalanXMLChar.hpp</text>
</a>
</g>
</g>
<!-- Node7&#45;&gt;Node29 -->
<g id="edge63" class="edge">
<title>Node7&#45;&gt;Node29</title>
<path fill="none" stroke="midnightblue" d="M706.09,-504.5C759.97,-493.83 836.33,-478.69 892.8,-467.5"/>
<polygon fill="midnightblue" stroke="midnightblue" points="893.62,-470.91 902.75,-465.53 892.26,-464.04 893.62,-470.91"/>
</g>
<!-- Node12&#45;&gt;Node3 -->
<g id="edge13" class="edge">
<title>Node12&#45;&gt;Node3</title>
<path fill="none" stroke="midnightblue" d="M496.25,-201.47C521.35,-192.95 560.47,-179.12 593.5,-165 622.19,-152.73 627.79,-146.24 656.5,-134 691.04,-119.28 731.49,-104.89 759.81,-95.27"/>
<polygon fill="midnightblue" stroke="midnightblue" points="760.94,-98.58 769.3,-92.07 758.7,-91.95 760.94,-98.58"/>
</g>
<!-- Node12&#45;&gt;Node8 -->
<g id="edge15" class="edge">
<title>Node12&#45;&gt;Node8</title>
<path fill="none" stroke="midnightblue" d="M507.77,-201.44C544.49,-192.85 602.1,-178.91 651.5,-165 654.82,-164.06 658.27,-163.05 661.72,-162.02"/>
<polygon fill="midnightblue" stroke="midnightblue" points="662.78,-165.35 671.31,-159.06 660.72,-158.66 662.78,-165.35"/>
</g>
<!-- Node12&#45;&gt;Node9 -->
<g id="edge16" class="edge">
<title>Node12&#45;&gt;Node9</title>
<path fill="none" stroke="midnightblue" d="M519.27,-201.5C540.29,-195.15 562.89,-184.12 575.5,-165 583.08,-153.5 584.23,-144.66 575.5,-134 548.7,-101.29 423.45,-89.34 360.22,-85.33"/>
<polygon fill="midnightblue" stroke="midnightblue" points="360.09,-81.82 349.9,-84.71 359.67,-88.8 360.09,-81.82"/>
</g>
<!-- Node13 -->
<g id="node13" class="node">
<title>Node13</title>
<g id="a_node13"><a xlink:title=" ">
<polygon fill="none" stroke="#bfbfbf" points="0,-73 0,-92 53,-92 53,-73 0,-73"/>
<text text-anchor="middle" x="26.5" y="-80" font-family="Helvetica,sans-Serif" font-size="10.00">cstddef</text>
</a>
</g>
</g>
<!-- Node12&#45;&gt;Node13 -->
<g id="edge14" class="edge">
<title>Node12&#45;&gt;Node13</title>
<path fill="none" stroke="midnightblue" d="M479.64,-201.46C494.87,-186.23 522.02,-154.09 503.5,-134 470.1,-97.77 109.4,-109.57 61.5,-98 58.98,-97.39 56.41,-96.63 53.86,-95.77"/>
<polygon fill="midnightblue" stroke="midnightblue" points="54.9,-92.42 44.31,-92.13 52.41,-98.96 54.9,-92.42"/>
</g>
<!-- Node14 -->
<g id="node14" class="node">
<title>Node14</title>
<g id="a_node14"><a xlink:title=" ">
<polygon fill="none" stroke="#bfbfbf" points="242,-73 242,-92 279,-92 279,-73 242,-73"/>
<text text-anchor="middle" x="260.5" y="-80" font-family="Helvetica,sans-Serif" font-size="10.00">new</text>
</a>
</g>
</g>
<!-- Node12&#45;&gt;Node14 -->
<g id="edge17" class="edge">
<title>Node12&#45;&gt;Node14</title>
<path fill="none" stroke="midnightblue" d="M493.29,-201.47C508.83,-194.32 528.21,-182.44 537.5,-165 543.98,-152.84 546.52,-144.42 537.5,-134 500.9,-91.73 341.73,-115.09 288.5,-98 287.07,-97.54 285.62,-97.01 284.17,-96.43"/>
<polygon fill="midnightblue" stroke="midnightblue" points="285.47,-93.18 274.92,-92.13 282.52,-99.52 285.47,-93.18"/>
</g>
<!-- Node15 -->
<g id="node15" class="node">
<title>Node15</title>
<g id="a_node15"><a xlink:title=" ">
<polygon fill="none" stroke="#bfbfbf" points="442,-140 442,-159 495,-159 495,-140 442,-140"/>
<text text-anchor="middle" x="468.5" y="-147" font-family="Helvetica,sans-Serif" font-size="10.00">iterator</text>
</a>
</g>
</g>
<!-- Node12&#45;&gt;Node15 -->
<g id="edge18" class="edge">
<title>Node12&#45;&gt;Node15</title>
<path fill="none" stroke="midnightblue" d="M470.21,-201.48C469.93,-193.08 469.49,-179.98 469.13,-169.16"/>
<polygon fill="midnightblue" stroke="midnightblue" points="472.62,-168.89 468.79,-159.01 465.62,-169.12 472.62,-168.89"/>
</g>
<!-- Node16 -->
<g id="node16" class="node">
<title>Node16</title>
<g id="a_node16"><a xlink:title=" ">
<polygon fill="none" stroke="#bfbfbf" points="359,-140 359,-159 424,-159 424,-140 359,-140"/>
<text text-anchor="middle" x="391.5" y="-147" font-family="Helvetica,sans-Serif" font-size="10.00">stdexcept</text>
</a>
</g>
</g>
<!-- Node12&#45;&gt;Node16 -->
<g id="edge19" class="edge">
<title>Node12&#45;&gt;Node16</title>
<path fill="none" stroke="midnightblue" d="M459.18,-201.48C446.63,-192.02 426.15,-176.6 411,-165.19"/>
<polygon fill="midnightblue" stroke="midnightblue" points="412.89,-162.23 402.8,-159.01 408.68,-167.82 412.89,-162.23"/>
</g>
<!-- Node12&#45;&gt;Node17 -->
<g id="edge20" class="edge">
<title>Node12&#45;&gt;Node17</title>
<path fill="none" stroke="midnightblue" d="M424.22,-201.48C374.65,-192.34 294.86,-177.64 233.66,-166.37"/>
<polygon fill="midnightblue" stroke="midnightblue" points="234.09,-162.89 223.62,-164.52 232.83,-169.78 234.09,-162.89"/>
</g>
<!-- Node17&#45;&gt;Node3 -->
<g id="edge21" class="edge">
<title>Node17&#45;&gt;Node3</title>
<path fill="none" stroke="midnightblue" d="M226.63,-140.56C346.12,-128.58 572.23,-105.9 700.47,-93.03"/>
<polygon fill="midnightblue" stroke="midnightblue" points="701.07,-96.49 710.67,-92.01 700.37,-89.53 701.07,-96.49"/>
</g>
<!-- Node17&#45;&gt;Node9 -->
<g id="edge22" class="edge">
<title>Node17&#45;&gt;Node9</title>
<path fill="none" stroke="midnightblue" d="M187.78,-134.41C215.83,-124.49 254.07,-110.76 287.5,-98 289.34,-97.3 291.23,-96.57 293.14,-95.82"/>
<polygon fill="midnightblue" stroke="midnightblue" points="294.61,-99 302.61,-92.06 292.03,-92.5 294.61,-99"/>
</g>
<!-- Node17&#45;&gt;Node13 -->
<g id="edge23" class="edge">
<title>Node17&#45;&gt;Node13</title>
<path fill="none" stroke="midnightblue" d="M121.24,-134.4C100.48,-123.24 71.7,-107.78 51.32,-96.83"/>
<polygon fill="midnightblue" stroke="midnightblue" points="52.8,-93.66 42.34,-92.01 49.49,-99.82 52.8,-93.66"/>
</g>
<!-- Node17&#45;&gt;Node14 -->
<g id="edge24" class="edge">
<title>Node17&#45;&gt;Node14</title>
<path fill="none" stroke="midnightblue" d="M172.02,-134.4C191.23,-123.34 217.8,-108.06 236.8,-97.13"/>
<polygon fill="midnightblue" stroke="midnightblue" points="238.79,-100.03 245.71,-92.01 235.3,-93.96 238.79,-100.03"/>
</g>
<!-- Node18 -->
<g id="node18" class="node">
<title>Node18</title>
<g id="a_node18"><a xlink:title=" ">
<polygon fill="none" stroke="#bfbfbf" points="71,-67.5 71,-97.5 224,-97.5 224,-67.5 71,-67.5"/>
<text text-anchor="start" x="79" y="-85.5" font-family="Helvetica,sans-Serif" font-size="10.00">xercesc/framework/Memory</text>
<text text-anchor="middle" x="147.5" y="-74.5" font-family="Helvetica,sans-Serif" font-size="10.00">Manager.hpp</text>
</a>
</g>
</g>
<!-- Node17&#45;&gt;Node18 -->
<g id="edge25" class="edge">
<title>Node17&#45;&gt;Node18</title>
<path fill="none" stroke="midnightblue" d="M147.5,-134.4C147.5,-126.64 147.5,-116.81 147.5,-107.86"/>
<polygon fill="midnightblue" stroke="midnightblue" points="151,-107.58 147.5,-97.58 144,-107.58 151,-107.58"/>
</g>
<!-- Node19&#45;&gt;Node3 -->
<g id="edge27" class="edge">
<title>Node19&#45;&gt;Node3</title>
<path fill="none" stroke="midnightblue" d="M607.39,-257.49C629.91,-250.03 661.31,-237.75 685.5,-221 732.49,-188.47 769.51,-130.12 786.07,-101.01"/>
<polygon fill="midnightblue" stroke="midnightblue" points="789.26,-102.47 791.05,-92.02 783.14,-99.07 789.26,-102.47"/>
</g>
<!-- Node19&#45;&gt;Node8 -->
<g id="edge29" class="edge">
<title>Node19&#45;&gt;Node8</title>
<path fill="none" stroke="midnightblue" d="M604.63,-257.46C623.31,-250.24 647.96,-238.29 664.5,-221 678.48,-206.38 687.4,-184.76 692.39,-169.32"/>
<polygon fill="midnightblue" stroke="midnightblue" points="695.85,-169.94 695.34,-159.36 689.14,-167.95 695.85,-169.94"/>
</g>
<!-- Node19&#45;&gt;Node10 -->
<g id="edge30" class="edge">
<title>Node19&#45;&gt;Node10</title>
<path fill="none" stroke="midnightblue" d="M610.98,-257.44C646.22,-248.16 702.6,-233.31 741.26,-223.13"/>
<polygon fill="midnightblue" stroke="midnightblue" points="742.39,-226.45 751.17,-220.52 740.61,-219.68 742.39,-226.45"/>
</g>
<!-- Node19&#45;&gt;Node12 -->
<g id="edge32" class="edge">
<title>Node19&#45;&gt;Node12</title>
<path fill="none" stroke="midnightblue" d="M561.15,-257.32C543.83,-248.66 516.98,-235.24 497,-225.25"/>
<polygon fill="midnightblue" stroke="midnightblue" points="498.32,-222 487.81,-220.65 495.19,-228.26 498.32,-222"/>
</g>
<!-- Node19&#45;&gt;Node13 -->
<g id="edge28" class="edge">
<title>Node19&#45;&gt;Node13</title>
<path fill="none" stroke="midnightblue" d="M498.49,-261.14C421.82,-255.38 303.22,-243.57 202.5,-221 125.7,-203.79 83.59,-226.52 34.5,-165 20.4,-147.33 20.73,-120.17 23,-102.12"/>
<polygon fill="midnightblue" stroke="midnightblue" points="26.46,-102.66 24.56,-92.23 19.55,-101.57 26.46,-102.66"/>
</g>
<!-- Node20 -->
<g id="node20" class="node">
<title>Node20</title>
<g id="a_node20"><a xlink:title=" ">
<polygon fill="none" stroke="#bfbfbf" points="611,-201.5 611,-220.5 656,-220.5 656,-201.5 611,-201.5"/>
<text text-anchor="middle" x="633.5" y="-208.5" font-family="Helvetica,sans-Serif" font-size="10.00">utility</text>
</a>
</g>
</g>
<!-- Node19&#45;&gt;Node20 -->
<g id="edge31" class="edge">
<title>Node19&#45;&gt;Node20</title>
<path fill="none" stroke="midnightblue" d="M587.58,-257.08C595.67,-249.14 607.7,-237.34 617.41,-227.8"/>
<polygon fill="midnightblue" stroke="midnightblue" points="619.9,-230.25 624.59,-220.75 615,-225.26 619.9,-230.25"/>
</g>
<!-- Node21 -->
<g id="node21" class="node">
<title>Node21</title>
<g id="a_node21"><a xlink:href="XalanList_8hpp.html" target="_top" xlink:title=" ">
<polygon fill="none" stroke="black" points="211.5,-201.5 211.5,-220.5 367.5,-220.5 367.5,-201.5 211.5,-201.5"/>
<text text-anchor="middle" x="289.5" y="-208.5" font-family="Helvetica,sans-Serif" font-size="10.00">xalanc/Include/XalanList.hpp</text>
</a>
</g>
</g>
<!-- Node19&#45;&gt;Node21 -->
<g id="edge33" class="edge">
<title>Node19&#45;&gt;Node21</title>
<path fill="none" stroke="midnightblue" d="M532.71,-257.44C481.76,-247.92 399.47,-232.55 344.93,-222.36"/>
<polygon fill="midnightblue" stroke="midnightblue" points="345.55,-218.91 335.08,-220.52 344.27,-225.79 345.55,-218.91"/>
</g>
<!-- Node21&#45;&gt;Node3 -->
<g id="edge34" class="edge">
<title>Node21&#45;&gt;Node3</title>
<path fill="none" stroke="midnightblue" d="M295.1,-201.31C307.02,-183.13 334.96,-142.09 349.5,-134 404.78,-103.25 569.32,-91.19 682.3,-86.48"/>
<polygon fill="midnightblue" stroke="midnightblue" points="682.54,-89.98 692.39,-86.08 682.26,-82.98 682.54,-89.98"/>
</g>
<!-- Node21&#45;&gt;Node8 -->
<g id="edge36" class="edge">
<title>Node21&#45;&gt;Node8</title>
<path fill="none" stroke="midnightblue" d="M347.96,-201.48C431.23,-189.33 582.01,-167.34 655.27,-156.66"/>
<polygon fill="midnightblue" stroke="midnightblue" points="656.11,-160.07 665.5,-155.17 655.1,-153.15 656.11,-160.07"/>
</g>
<!-- Node21&#45;&gt;Node9 -->
<g id="edge37" class="edge">
<title>Node21&#45;&gt;Node9</title>
<path fill="none" stroke="midnightblue" d="M291.84,-201.31C297.3,-180.99 310.99,-130.05 318.45,-102.28"/>
<polygon fill="midnightblue" stroke="midnightblue" points="321.93,-102.82 321.15,-92.26 315.17,-101 321.93,-102.82"/>
</g>
<!-- Node21&#45;&gt;Node13 -->
<g id="edge35" class="edge">
<title>Node21&#45;&gt;Node13</title>
<path fill="none" stroke="midnightblue" d="M211.29,-202.68C154,-195.88 82.41,-183.9 59.5,-165 40.49,-149.32 32.33,-121.01 28.9,-102.24"/>
<polygon fill="midnightblue" stroke="midnightblue" points="32.34,-101.56 27.35,-92.21 25.42,-102.63 32.34,-101.56"/>
</g>
<!-- Node21&#45;&gt;Node14 -->
<g id="edge38" class="edge">
<title>Node21&#45;&gt;Node14</title>
<path fill="none" stroke="midnightblue" d="M287.33,-201.39C285.07,-192.34 281.45,-177.69 278.5,-165 273.49,-143.44 268.05,-118.59 264.47,-102.06"/>
<polygon fill="midnightblue" stroke="midnightblue" points="267.85,-101.12 262.33,-92.08 261.01,-102.59 267.85,-101.12"/>
</g>
<!-- Node21&#45;&gt;Node15 -->
<g id="edge39" class="edge">
<title>Node21&#45;&gt;Node15</title>
<path fill="none" stroke="midnightblue" d="M319.03,-201.44C348.1,-192.84 393.66,-178.91 432.5,-165 434.4,-164.32 436.35,-163.6 438.32,-162.86"/>
<polygon fill="midnightblue" stroke="midnightblue" points="440,-165.96 448.05,-159.06 437.46,-159.43 440,-165.96"/>
</g>
<!-- Node21&#45;&gt;Node16 -->
<g id="edge40" class="edge">
<title>Node21&#45;&gt;Node16</title>
<path fill="none" stroke="midnightblue" d="M304.11,-201.48C320.85,-191.71 348.5,-175.58 368.22,-164.08"/>
<polygon fill="midnightblue" stroke="midnightblue" points="370.04,-167.07 376.91,-159.01 366.51,-161.02 370.04,-167.07"/>
</g>
<!-- Node21&#45;&gt;Node17 -->
<g id="edge41" class="edge">
<title>Node21&#45;&gt;Node17</title>
<path fill="none" stroke="midnightblue" d="M269.15,-201.48C248.66,-192.89 216.43,-179.38 190.29,-168.43"/>
<polygon fill="midnightblue" stroke="midnightblue" points="191.54,-165.16 180.97,-164.52 188.84,-171.62 191.54,-165.16"/>
</g>
<!-- Node22&#45;&gt;Node3 -->
<g id="edge44" class="edge">
<title>Node22&#45;&gt;Node3</title>
<path fill="none" stroke="midnightblue" d="M1069.17,-313.18C1066.79,-299.85 1060.75,-274.29 1047.5,-257 986.18,-177 877.3,-120.27 825.06,-96.27"/>
<polygon fill="midnightblue" stroke="midnightblue" points="826.25,-92.96 815.69,-92.04 823.37,-99.34 826.25,-92.96"/>
</g>
<!-- Node22&#45;&gt;Node8 -->
<g id="edge45" class="edge">
<title>Node22&#45;&gt;Node8</title>
<path fill="none" stroke="midnightblue" d="M1066.35,-313.05C1059.42,-299.07 1044.2,-272.1 1023.5,-257 935.15,-192.55 805.76,-165.76 739.7,-155.77"/>
<polygon fill="midnightblue" stroke="midnightblue" points="740.06,-152.28 729.66,-154.3 739.05,-159.21 740.06,-152.28"/>
</g>
<!-- Node22&#45;&gt;Node10 -->
<g id="edge46" class="edge">
<title>Node22&#45;&gt;Node10</title>
<path fill="none" stroke="midnightblue" d="M1062.93,-313.29C1050.12,-299.15 1022.71,-271.33 993.5,-257 939.42,-230.47 869.97,-219.5 826.08,-215.02"/>
<polygon fill="midnightblue" stroke="midnightblue" points="826.33,-211.53 816.04,-214.07 825.66,-218.5 826.33,-211.53"/>
</g>
<!-- Node22&#45;&gt;Node19 -->
<g id="edge47" class="edge">
<title>Node22&#45;&gt;Node19</title>
<path fill="none" stroke="midnightblue" d="M992.81,-313.47C904.07,-303.73 759.19,-287.83 666.4,-277.65"/>
<polygon fill="midnightblue" stroke="midnightblue" points="666.51,-274.14 656.19,-276.53 665.74,-281.1 666.51,-274.14"/>
</g>
<!-- Node23&#45;&gt;Node9 -->
<g id="edge51" class="edge">
<title>Node23&#45;&gt;Node9</title>
<path fill="none" stroke="midnightblue" d="M715.5,-374.7C713.42,-351.87 711.26,-290.17 743.5,-257 774,-225.61 843.71,-240.32 824.5,-201 803.23,-157.47 783.29,-152.49 738.5,-134 670.16,-105.79 447.79,-90.5 359.81,-85.43"/>
<polygon fill="midnightblue" stroke="midnightblue" points="359.94,-81.93 349.76,-84.86 359.55,-88.92 359.94,-81.93"/>
</g>
<!-- Node23&#45;&gt;Node12 -->
<g id="edge54" class="edge">
<title>Node23&#45;&gt;Node12</title>
<path fill="none" stroke="midnightblue" d="M674.95,-374.99C623.93,-362.39 538.21,-333.87 489.5,-277 478.4,-264.04 473.78,-244.87 471.86,-230.71"/>
<polygon fill="midnightblue" stroke="midnightblue" points="475.33,-230.22 470.82,-220.63 468.36,-230.94 475.33,-230.22"/>
</g>
<!-- Node23&#45;&gt;Node17 -->
<g id="edge53" class="edge">
<title>Node23&#45;&gt;Node17</title>
<path fill="none" stroke="midnightblue" d="M644.21,-374.95C538.62,-359.5 339.88,-318.9 202.5,-221 185.02,-208.54 170.37,-188.97 160.6,-173.6"/>
<polygon fill="midnightblue" stroke="midnightblue" points="163.36,-171.4 155.17,-164.68 157.38,-175.04 163.36,-171.4"/>
</g>
<!-- Node23&#45;&gt;Node22 -->
<g id="edge52" class="edge">
<title>Node23&#45;&gt;Node22</title>
<path fill="none" stroke="midnightblue" d="M767.22,-374.98C831.23,-364.22 941.21,-345.73 1009.67,-334.22"/>
<polygon fill="midnightblue" stroke="midnightblue" points="1010.59,-337.62 1019.87,-332.51 1009.43,-330.72 1010.59,-337.62"/>
</g>
<!-- Node24 -->
<g id="node24" class="node">
<title>Node24</title>
<g id="a_node24"><a xlink:href="XalanDOMDefinitions_8hpp.html" target="_top" xlink:title=" ">
<polygon fill="none" stroke="black" points="752.5,-257.5 752.5,-276.5 984.5,-276.5 984.5,-257.5 752.5,-257.5"/>
<text text-anchor="middle" x="868.5" y="-264.5" font-family="Helvetica,sans-Serif" font-size="10.00">xalanc/XalanDOM/XalanDOMDefinitions.hpp</text>
</a>
</g>
</g>
<!-- Node23&#45;&gt;Node24 -->
<g id="edge49" class="edge">
<title>Node23&#45;&gt;Node24</title>
<path fill="none" stroke="midnightblue" d="M716.36,-374.9C716.59,-360.25 719.19,-330.37 735.5,-313 751.05,-296.43 772.92,-285.97 794.43,-279.35"/>
<polygon fill="midnightblue" stroke="midnightblue" points="795.59,-282.66 804.27,-276.57 793.69,-275.92 795.59,-282.66"/>
</g>
<!-- Node25 -->
<g id="node25" class="node">
<title>Node25</title>
<g id="a_node25"><a xlink:href="XalanDOMException_8hpp.html" target="_top" xlink:title=" ">
<polygon fill="none" stroke="black" points="745,-313.5 745,-332.5 972,-332.5 972,-313.5 745,-313.5"/>
<text text-anchor="middle" x="858.5" y="-320.5" font-family="Helvetica,sans-Serif" font-size="10.00">xalanc/XalanDOM/XalanDOMException.hpp</text>
</a>
</g>
</g>
<!-- Node23&#45;&gt;Node25 -->
<g id="edge55" class="edge">
<title>Node23&#45;&gt;Node25</title>
<path fill="none" stroke="midnightblue" d="M736.85,-374.98C760.89,-364.9 801.1,-348.05 828.66,-336.5"/>
<polygon fill="midnightblue" stroke="midnightblue" points="830.32,-339.6 838.19,-332.51 827.62,-333.15 830.32,-339.6"/>
</g>
<!-- Node24&#45;&gt;Node3 -->
<g id="edge50" class="edge">
<title>Node24&#45;&gt;Node3</title>
<path fill="none" stroke="midnightblue" d="M868.1,-257.37C867.31,-244.71 865.01,-220.49 858.5,-201 845.85,-163.13 821.65,-122.96 807.2,-100.77"/>
<polygon fill="midnightblue" stroke="midnightblue" points="809.94,-98.57 801.5,-92.17 804.11,-102.44 809.94,-98.57"/>
</g>
<!-- Node25&#45;&gt;Node24 -->
<g id="edge56" class="edge">
<title>Node25&#45;&gt;Node24</title>
<path fill="none" stroke="midnightblue" d="M860.15,-313.08C861.48,-305.93 863.38,-295.64 865.04,-286.69"/>
<polygon fill="midnightblue" stroke="midnightblue" points="868.5,-287.22 866.88,-276.75 861.62,-285.95 868.5,-287.22"/>
</g>
<!-- Node26&#45;&gt;Node2 -->
<g id="edge58" class="edge">
<title>Node26&#45;&gt;Node2</title>
<path fill="none" stroke="midnightblue" d="M837.17,-439.69C901.07,-429.18 998.86,-413.09 1071.3,-401.17"/>
<polygon fill="midnightblue" stroke="midnightblue" points="1072.05,-404.59 1081.34,-399.51 1070.91,-397.68 1072.05,-404.59"/>
</g>
<!-- Node26&#45;&gt;Node23 -->
<g id="edge60" class="edge">
<title>Node26&#45;&gt;Node23</title>
<path fill="none" stroke="midnightblue" d="M759.57,-436.4C750.99,-426.26 739.4,-412.57 730.41,-401.94"/>
<polygon fill="midnightblue" stroke="midnightblue" points="732.99,-399.57 723.86,-394.19 727.64,-404.09 732.99,-399.57"/>
</g>
<!-- Node27 -->
<g id="node27" class="node">
<title>Node27</title>
<g id="a_node27"><a xlink:title=" ">
<polygon fill="none" stroke="#bfbfbf" points="839,-375 839,-394 1024,-394 1024,-375 839,-375"/>
<text text-anchor="middle" x="931.5" y="-382" font-family="Helvetica,sans-Serif" font-size="10.00">xercesc/sax/DocumentHandler.hpp</text>
</a>
</g>
</g>
<!-- Node26&#45;&gt;Node27 -->
<g id="edge59" class="edge">
<title>Node26&#45;&gt;Node27</title>
<path fill="none" stroke="midnightblue" d="M806.22,-436.4C834.54,-424.89 874.15,-408.8 901.21,-397.81"/>
<polygon fill="midnightblue" stroke="midnightblue" points="902.61,-401.01 910.56,-394.01 899.98,-394.53 902.61,-401.01"/>
</g>
<!-- Node28&#45;&gt;Node2 -->
<g id="edge62" class="edge">
<title>Node28&#45;&gt;Node2</title>
<path fill="none" stroke="midnightblue" d="M1158.67,-436.4C1159.88,-428.56 1161.41,-418.6 1162.8,-409.57"/>
<polygon fill="midnightblue" stroke="midnightblue" points="1166.27,-409.99 1164.33,-399.58 1159.35,-408.93 1166.27,-409.99"/>
</g>
<!-- Node29&#45;&gt;Node2 -->
<g id="edge64" class="edge">
<title>Node29&#45;&gt;Node2</title>
<path fill="none" stroke="midnightblue" d="M1011.46,-436.4C1041.56,-426.52 1081.96,-413.25 1113.98,-402.74"/>
<polygon fill="midnightblue" stroke="midnightblue" points="1115.21,-406.02 1123.62,-399.58 1113.03,-399.37 1115.21,-406.02"/>
</g>
<!-- Node30&#45;&gt;Node2 -->
<g id="edge66" class="edge">
<title>Node30&#45;&gt;Node2</title>
<path fill="none" stroke="midnightblue" d="M1333.18,-503.47C1318.63,-486.07 1291.95,-456.24 1264.5,-436 1247.73,-423.64 1227.51,-412.66 1209.8,-404.12"/>
<polygon fill="midnightblue" stroke="midnightblue" points="1210.79,-400.72 1200.25,-399.64 1207.81,-407.06 1210.79,-400.72"/>
</g>
<!-- Node31 -->
<g id="node31" class="node">
<title>Node31</title>
<g id="a_node31"><a xlink:title=" ">
<polygon fill="none" stroke="#bfbfbf" points="1317,-442 1317,-461 1450,-461 1450,-442 1317,-442"/>
<text text-anchor="middle" x="1383.5" y="-449" font-family="Helvetica,sans-Serif" font-size="10.00">xercesc/sax/Locator.hpp</text>
</a>
</g>
</g>
<!-- Node30&#45;&gt;Node31 -->
<g id="edge67" class="edge">
<title>Node30&#45;&gt;Node31</title>
<path fill="none" stroke="midnightblue" d="M1352.96,-503.4C1358.86,-493.56 1366.77,-480.38 1373.06,-469.89"/>
<polygon fill="midnightblue" stroke="midnightblue" points="1376.14,-471.57 1378.28,-461.19 1370.14,-467.97 1376.14,-471.57"/>
</g>
</g>
</svg>
        <g id="navigator" transform="translate(0 0)" fill="#404254">
                <rect fill="#f2f5e9" fill-opacity="0.5" stroke="#606060" stroke-width=".5" x="0" y="0" width="60" height="60"/>
                <use id="zoomplus" xlink:href="#zoomPlus" x="17" y="9" onmousedown="handleZoom(evt,'in')"/>
                <use id="zoomminus" xlink:href="#zoomMin" x="42" y="9" onmousedown="handleZoom(evt,'out')"/>
                <use id="reset" xlink:href="#resetDef" x="30" y="36" onmousedown="handleReset()"/>
                <g id="arrowUp" xlink:href="#dirArrow" transform="translate(30 24)" onmousedown="handlePan(0,-1)">
                  <use xlink:href="#rim" fill="#404040">
                        <set attributeName="fill" to="#808080" begin="arrowUp.mouseover" end="arrowUp.mouseout"/>
                  </use>
                  <path fill="none" stroke="white" stroke-width="1.5" d="M0,-3.0v7 M-2.5,-0.5L0,-3.0L2.5,-0.5"/>
                </g>
                <g id="arrowRight" xlink:href="#dirArrow" transform="rotate(90) translate(36 -43)" onmousedown="handlePan(1,0)">
                  <use xlink:href="#rim" fill="#404040">
                        <set attributeName="fill" to="#808080" begin="arrowRight.mouseover" end="arrowRight.mouseout"/>
                  </use>
                  <path fill="none" stroke="white" stroke-width="1.5" d="M0,-3.0v7 M-2.5,-0.5L0,-3.0L2.5,-0.5"/>
                </g>
                <g id="arrowDown" xlink:href="#dirArrow" transform="rotate(180) translate(-30 -48)" onmousedown="handlePan(0,1)">
                  <use xlink:href="#rim" fill="#404040">
                        <set attributeName="fill" to="#808080" begin="arrowDown.mouseover" end="arrowDown.mouseout"/>
                  </use>
                  <path fill="none" stroke="white" stroke-width="1.5" d="M0,-3.0v7 M-2.5,-0.5L0,-3.0L2.5,-0.5"/>
                </g>
                <g id="arrowLeft" xlink:href="#dirArrow" transform="rotate(270) translate(-36 17)" onmousedown="handlePan(-1,0)">
                  <use xlink:href="#rim" fill="#404040">
                        <set attributeName="fill" to="#808080" begin="arrowLeft.mouseover" end="arrowLeft.mouseout"/>
                  </use>
                  <path fill="none" stroke="white" stroke-width="1.5" d="M0,-3.0v7 M-2.5,-0.5L0,-3.0L2.5,-0.5"/>
                </g>
        </g>
        <svg viewBox="0 0 15 15" width="100%" height="30px" preserveAspectRatio="xMaxYMin meet">
         <g id="arrow_out" transform="scale(0.3 0.3)">
          <a xlink:href="XSLException_8hpp__incl_org.svg" target="_base">
           <rect id="button" ry="5" rx="5" y="6" x="6" height="38" width="38"
                fill="#f2f5e9" fill-opacity="0.5" stroke="#606060" stroke-width="1.0"/>
           <path id="arrow"
             d="M 11.500037,31.436501 C 11.940474,20.09759 22.043105,11.32322 32.158766,21.979434 L 37.068811,17.246167 C 37.068811,17.246167 37.088388,32 37.088388,32 L 22.160133,31.978069 C 22.160133,31.978069 26.997745,27.140456 26.997745,27.140456 C 18.528582,18.264221 13.291696,25.230495 11.500037,31.436501 z"
             style="fill:#404040;"/>
          </a>
         </g>
        </svg>
</svg>
