<?xml version="1.0" encoding="UTF-8" standalone="no"?>
<!DOCTYPE svg PUBLIC "-//W3C//DTD SVG 1.1//EN"
 "http://www.w3.org/Graphics/SVG/1.1/DTD/svg11.dtd">
<!-- Generated by graphviz version 2.38.0 (20140413.2041)
 -->
<!-- Title: xalanc/XPath/XStringBase.hpp Pages: 1 -->
<!--zoomable 296 -->
<svg id="main" version="1.1" xmlns="http://www.w3.org/2000/svg" xmlns:xlink="http://www.w3.org/1999/xlink" xml:space="preserve" onload="init(evt)">
<style type="text/css"><![CDATA[
.edge:hover path { stroke: red; }
.edge:hover polygon { stroke: red; fill: red; }
]]></style>
<script type="text/javascript"><![CDATA[
var edges = document.getElementsByTagName('g');
if (edges && edges.length) {
  for (var i=0;i<edges.length;i++) {
    if (edges[i].id.substr(0,4)=='edge') {
      edges[i].setAttribute('class','edge');
    }
  }
}
]]></script>
        <defs>
                <circle id="rim" cx="0" cy="0" r="7"/>
                <circle id="rim2" cx="0" cy="0" r="3.5"/>
                <g id="zoomPlus">
                        <use xlink:href="#rim" fill="#404040">
                                <set attributeName="fill" to="#808080" begin="zoomplus.mouseover" end="zoomplus.mouseout"/>
                        </use>
                        <path d="M-4,0h8M0,-4v8" fill="none" stroke="white" stroke-width="1.5" pointer-events="none"/>
                </g>
                <g id="zoomMin">
                        <use xlink:href="#rim" fill="#404040">
                                <set attributeName="fill" to="#808080" begin="zoomminus.mouseover" end="zoomminus.mouseout"/>
                        </use>
                        <path d="M-4,0h8" fill="none" stroke="white" stroke-width="1.5" pointer-events="none"/>
                </g>
                <g id="dirArrow">
                        <path fill="none" stroke="white" stroke-width="1.5" d="M0,-3.0v7 M-2.5,-0.5L0,-3.0L2.5,-0.5"/>
                </g>
               <g id="resetDef">
                       <use xlink:href="#rim2" fill="#404040">
                               <set attributeName="fill" to="#808080" begin="reset.mouseover" end="reset.mouseout"/>
                       </use>
               </g>
        </defs>

<script type="text/javascript">
var viewWidth = 847;
var viewHeight = 296;
var sectionId = 'dynsection-1';
</script>
<script xlink:href="svgpan.js"/>
<svg id="graph" class="graph">
<g id="viewport">
<title>xalanc/XPath/XStringBase.hpp</title>
<!-- Node1 -->
<g id="node1" class="node"><title>Node1</title>
<g id="a_node1"><a xlink:title=" ">
<polygon fill="#bfbfbf" stroke="black" points="344.5,-268.5 344.5,-287.5 493.5,-287.5 493.5,-268.5 344.5,-268.5"/>
<text text-anchor="middle" x="419" y="-275.5" font-family="Helvetica,sans-Serif" font-size="10.00">xalanc/XPath/XStringBase.hpp</text>
</a>
</g>
</g>
<!-- Node2 -->
<g id="node2" class="node"><title>Node2</title>
<g id="a_node2"><a xlink:href="XString_8hpp.html" target="_top" xlink:title=" ">
<polygon fill="none" stroke="black" points="17,-207 17,-226 143,-226 143,-207 17,-207"/>
<text text-anchor="middle" x="80" y="-214" font-family="Helvetica,sans-Serif" font-size="10.00">xalanc/XPath/XString.hpp</text>
</a>
</g>
</g>
<!-- Node1&#45;&gt;Node2 -->
<g id="edge1" class="edge"><title>Node1&#45;&gt;Node2</title>
<path fill="none" stroke="midnightblue" d="M355.326,-266.852C301.169,-258.081 221.372,-244.828 152,-232 141.969,-230.145 131.177,-228.034 121.078,-226.007"/>
<polygon fill="midnightblue" stroke="midnightblue" points="355.037,-270.351 365.468,-268.491 356.154,-263.44 355.037,-270.351"/>
</g>
<!-- Node6 -->
<g id="node6" class="node"><title>Node6</title>
<g id="a_node6"><a xlink:href="XStringAdapter_8hpp.html" target="_top" xlink:title=" ">
<polygon fill="none" stroke="black" points="161,-207 161,-226 321,-226 321,-207 161,-207"/>
<text text-anchor="middle" x="241" y="-214" font-family="Helvetica,sans-Serif" font-size="10.00">xalanc/XPath/XStringAdapter.hpp</text>
</a>
</g>
</g>
<!-- Node1&#45;&gt;Node6 -->
<g id="edge5" class="edge"><title>Node1&#45;&gt;Node6</title>
<path fill="none" stroke="midnightblue" d="M383.795,-265.232C349.194,-253.666 297.232,-236.297 266.456,-226.009"/>
<polygon fill="midnightblue" stroke="midnightblue" points="382.903,-268.624 393.497,-268.475 385.122,-261.985 382.903,-268.624"/>
</g>
<!-- Node8 -->
<g id="node8" class="node"><title>Node8</title>
<g id="a_node8"><a xlink:href="XStringCached_8hpp.html" target="_top" xlink:title=" ">
<polygon fill="none" stroke="black" points="339.5,-207 339.5,-226 498.5,-226 498.5,-207 339.5,-207"/>
<text text-anchor="middle" x="419" y="-214" font-family="Helvetica,sans-Serif" font-size="10.00">xalanc/XPath/XStringCached.hpp</text>
</a>
</g>
</g>
<!-- Node1&#45;&gt;Node8 -->
<g id="edge8" class="edge"><title>Node1&#45;&gt;Node8</title>
<path fill="none" stroke="midnightblue" d="M419,-258.317C419,-247.496 419,-234.398 419,-226.009"/>
<polygon fill="midnightblue" stroke="midnightblue" points="415.5,-258.475 419,-268.475 422.5,-258.475 415.5,-258.475"/>
</g>
<!-- Node10 -->
<g id="node10" class="node"><title>Node10</title>
<g id="a_node10"><a xlink:href="XStringReference_8hpp.html" target="_top" xlink:title=" ">
<polygon fill="none" stroke="black" points="517,-207 517,-226 687,-226 687,-207 517,-207"/>
<text text-anchor="middle" x="602" y="-214" font-family="Helvetica,sans-Serif" font-size="10.00">xalanc/XPath/XStringReference.hpp</text>
</a>
</g>
</g>
<!-- Node1&#45;&gt;Node10 -->
<g id="edge11" class="edge"><title>Node1&#45;&gt;Node10</title>
<path fill="none" stroke="midnightblue" d="M454.737,-265.381C490.308,-253.815 544.053,-236.341 575.829,-226.009"/>
<polygon fill="midnightblue" stroke="midnightblue" points="453.647,-262.055 445.219,-268.475 455.812,-268.711 453.647,-262.055"/>
</g>
<!-- Node12 -->
<g id="node12" class="node"><title>Node12</title>
<g id="a_node12"><a xlink:href="XTokenStringAdapter_8hpp.html" target="_top" xlink:title=" ">
<polygon fill="none" stroke="black" points="705,-201.5 705,-231.5 839,-231.5 839,-201.5 705,-201.5"/>
<text text-anchor="start" x="713" y="-219.5" font-family="Helvetica,sans-Serif" font-size="10.00">xalanc/XPath/XTokenString</text>
<text text-anchor="middle" x="772" y="-208.5" font-family="Helvetica,sans-Serif" font-size="10.00">Adapter.hpp</text>
</a>
</g>
</g>
<!-- Node1&#45;&gt;Node12 -->
<g id="edge14" class="edge"><title>Node1&#45;&gt;Node12</title>
<path fill="none" stroke="midnightblue" d="M484.428,-266.89C540.612,-258.084 623.733,-244.762 696,-232 698.91,-231.486 701.881,-230.953 704.882,-230.409"/>
<polygon fill="midnightblue" stroke="midnightblue" points="483.598,-263.477 474.259,-268.481 484.68,-270.393 483.598,-263.477"/>
</g>
<!-- Node3 -->
<g id="node3" class="node"><title>Node3</title>
<g id="a_node3"><a xlink:href="XStringAllocator_8hpp.html" target="_top" xlink:title=" ">
<polygon fill="none" stroke="black" points="0,-140 0,-159 164,-159 164,-140 0,-140"/>
<text text-anchor="middle" x="82" y="-147" font-family="Helvetica,sans-Serif" font-size="10.00">xalanc/XPath/XStringAllocator.hpp</text>
</a>
</g>
</g>
<!-- Node2&#45;&gt;Node3 -->
<g id="edge2" class="edge"><title>Node2&#45;&gt;Node3</title>
<path fill="none" stroke="midnightblue" d="M80.5835,-196.537C80.964,-184.17 81.4425,-168.62 81.7345,-159.127"/>
<polygon fill="midnightblue" stroke="midnightblue" points="77.079,-196.631 80.2697,-206.734 84.0757,-196.846 77.079,-196.631"/>
</g>
<!-- Node4 -->
<g id="node4" class="node"><title>Node4</title>
<g id="a_node4"><a xlink:href="XObjectFactoryDefault_8hpp.html" target="_top" xlink:title=" ">
<polygon fill="none" stroke="black" points="347.5,-67.5 347.5,-97.5 490.5,-97.5 490.5,-67.5 347.5,-67.5"/>
<text text-anchor="start" x="355.5" y="-85.5" font-family="Helvetica,sans-Serif" font-size="10.00">xalanc/XPath/XObjectFactory</text>
<text text-anchor="middle" x="419" y="-74.5" font-family="Helvetica,sans-Serif" font-size="10.00">Default.hpp</text>
</a>
</g>
</g>
<!-- Node3&#45;&gt;Node4 -->
<g id="edge3" class="edge"><title>Node3&#45;&gt;Node4</title>
<path fill="none" stroke="midnightblue" d="M136.356,-138.016C193.681,-126.959 284.269,-109.487 347.387,-97.3126"/>
<polygon fill="midnightblue" stroke="midnightblue" points="135.56,-134.605 126.403,-139.936 136.885,-141.478 135.56,-134.605"/>
</g>
<!-- Node5 -->
<g id="node5" class="node"><title>Node5</title>
<g id="a_node5"><a xlink:href="XalanTransformer_8hpp.html" target="_top" xlink:title=" ">
<polygon fill="none" stroke="black" points="358,-0.5 358,-30.5 480,-30.5 480,-0.5 358,-0.5"/>
<text text-anchor="start" x="366" y="-18.5" font-family="Helvetica,sans-Serif" font-size="10.00">xalanc/XalanTransformer</text>
<text text-anchor="middle" x="419" y="-7.5" font-family="Helvetica,sans-Serif" font-size="10.00">/XalanTransformer.hpp</text>
</a>
</g>
</g>
<!-- Node4&#45;&gt;Node5 -->
<g id="edge4" class="edge"><title>Node4&#45;&gt;Node5</title>
<path fill="none" stroke="midnightblue" d="M419,-57.1081C419,-48.1539 419,-38.3227 419,-30.5765"/>
<polygon fill="midnightblue" stroke="midnightblue" points="415.5,-57.3959 419,-67.396 422.5,-57.396 415.5,-57.3959"/>
</g>
<!-- Node7 -->
<g id="node7" class="node"><title>Node7</title>
<g id="a_node7"><a xlink:href="XStringAdapterAllocator_8hpp.html" target="_top" xlink:title=" ">
<polygon fill="none" stroke="black" points="185.5,-134.5 185.5,-164.5 326.5,-164.5 326.5,-134.5 185.5,-134.5"/>
<text text-anchor="start" x="193.5" y="-152.5" font-family="Helvetica,sans-Serif" font-size="10.00">xalanc/XPath/XStringAdapter</text>
<text text-anchor="middle" x="256" y="-141.5" font-family="Helvetica,sans-Serif" font-size="10.00">Allocator.hpp</text>
</a>
</g>
</g>
<!-- Node6&#45;&gt;Node7 -->
<g id="edge6" class="edge"><title>Node6&#45;&gt;Node7</title>
<path fill="none" stroke="midnightblue" d="M245.33,-196.739C247.695,-186.487 250.577,-174.001 252.749,-164.589"/>
<polygon fill="midnightblue" stroke="midnightblue" points="241.861,-196.203 243.023,-206.734 248.682,-197.777 241.861,-196.203"/>
</g>
<!-- Node7&#45;&gt;Node4 -->
<g id="edge7" class="edge"><title>Node7&#45;&gt;Node4</title>
<path fill="none" stroke="midnightblue" d="M300.683,-130.682C326.825,-120.257 359.366,-107.281 383.7,-97.5765"/>
<polygon fill="midnightblue" stroke="midnightblue" points="299.361,-127.441 291.369,-134.396 301.954,-133.943 299.361,-127.441"/>
</g>
<!-- Node9 -->
<g id="node9" class="node"><title>Node9</title>
<g id="a_node9"><a xlink:href="XStringCachedAllocator_8hpp.html" target="_top" xlink:title=" ">
<polygon fill="none" stroke="black" points="349,-134.5 349,-164.5 489,-164.5 489,-134.5 349,-134.5"/>
<text text-anchor="start" x="357" y="-152.5" font-family="Helvetica,sans-Serif" font-size="10.00">xalanc/XPath/XStringCached</text>
<text text-anchor="middle" x="419" y="-141.5" font-family="Helvetica,sans-Serif" font-size="10.00">Allocator.hpp</text>
</a>
</g>
</g>
<!-- Node8&#45;&gt;Node9 -->
<g id="edge9" class="edge"><title>Node8&#45;&gt;Node9</title>
<path fill="none" stroke="midnightblue" d="M419,-196.411C419,-186.222 419,-173.901 419,-164.589"/>
<polygon fill="midnightblue" stroke="midnightblue" points="415.5,-196.734 419,-206.734 422.5,-196.734 415.5,-196.734"/>
</g>
<!-- Node9&#45;&gt;Node4 -->
<g id="edge10" class="edge"><title>Node9&#45;&gt;Node4</title>
<path fill="none" stroke="midnightblue" d="M419,-124.108C419,-115.154 419,-105.323 419,-97.5765"/>
<polygon fill="midnightblue" stroke="midnightblue" points="415.5,-124.396 419,-134.396 422.5,-124.396 415.5,-124.396"/>
</g>
<!-- Node11 -->
<g id="node11" class="node"><title>Node11</title>
<g id="a_node11"><a xlink:href="XStringReferenceAllocator_8hpp.html" target="_top" xlink:title=" ">
<polygon fill="none" stroke="black" points="514.5,-134.5 514.5,-164.5 665.5,-164.5 665.5,-134.5 514.5,-134.5"/>
<text text-anchor="start" x="522.5" y="-152.5" font-family="Helvetica,sans-Serif" font-size="10.00">xalanc/XPath/XStringReference</text>
<text text-anchor="middle" x="590" y="-141.5" font-family="Helvetica,sans-Serif" font-size="10.00">Allocator.hpp</text>
</a>
</g>
</g>
<!-- Node10&#45;&gt;Node11 -->
<g id="edge12" class="edge"><title>Node10&#45;&gt;Node11</title>
<path fill="none" stroke="midnightblue" d="M598.536,-196.739C596.644,-186.487 594.339,-174.001 592.601,-164.589"/>
<polygon fill="midnightblue" stroke="midnightblue" points="595.124,-197.535 600.382,-206.734 602.008,-196.265 595.124,-197.535"/>
</g>
<!-- Node11&#45;&gt;Node4 -->
<g id="edge13" class="edge"><title>Node11&#45;&gt;Node4</title>
<path fill="none" stroke="midnightblue" d="M543.484,-130.819C515.998,-120.371 481.673,-107.323 456.032,-97.5765"/>
<polygon fill="midnightblue" stroke="midnightblue" points="542.304,-134.114 552.896,-134.396 544.792,-127.571 542.304,-134.114"/>
</g>
<!-- Node13 -->
<g id="node13" class="node"><title>Node13</title>
<g id="a_node13"><a xlink:href="XTokenStringAdapterAllocator_8hpp.html" target="_top" xlink:title=" ">
<polygon fill="none" stroke="black" points="698,-134.5 698,-164.5 832,-164.5 832,-134.5 698,-134.5"/>
<text text-anchor="start" x="706" y="-152.5" font-family="Helvetica,sans-Serif" font-size="10.00">xalanc/XPath/XTokenString</text>
<text text-anchor="middle" x="765" y="-141.5" font-family="Helvetica,sans-Serif" font-size="10.00">AdapterAllocator.hpp</text>
</a>
</g>
</g>
<!-- Node12&#45;&gt;Node13 -->
<g id="edge15" class="edge"><title>Node12&#45;&gt;Node13</title>
<path fill="none" stroke="midnightblue" d="M769.405,-191.403C768.432,-182.37 767.359,-172.408 766.516,-164.577"/>
<polygon fill="midnightblue" stroke="midnightblue" points="765.93,-191.828 770.481,-201.396 772.89,-191.079 765.93,-191.828"/>
</g>
<!-- Node13&#45;&gt;Node4 -->
<g id="edge16" class="edge"><title>Node13&#45;&gt;Node4</title>
<path fill="none" stroke="midnightblue" d="M687.873,-134.011C628.922,-122.936 548.264,-107.784 490.704,-96.9704"/>
<polygon fill="midnightblue" stroke="midnightblue" points="687.403,-137.484 697.877,-135.89 688.696,-130.604 687.403,-137.484"/>
</g>
</g>
</svg>
        <g id="navigator" transform="translate(0 0)" fill="#404254">
                <rect fill="#f2f5e9" fill-opacity="0.5" stroke="#606060" stroke-width=".5" x="0" y="0" width="60" height="60"/>
                <use id="zoomplus" xlink:href="#zoomPlus" x="17" y="9" onmousedown="handleZoom(evt,'in')"/>
                <use id="zoomminus" xlink:href="#zoomMin" x="42" y="9" onmousedown="handleZoom(evt,'out')"/>
                <use id="reset" xlink:href="#resetDef" x="30" y="36" onmousedown="handleReset()"/>
                <g id="arrowUp" xlink:href="#dirArrow" transform="translate(30 24)" onmousedown="handlePan(0,-1)">
                  <use xlink:href="#rim" fill="#404040">
                        <set attributeName="fill" to="#808080" begin="arrowUp.mouseover" end="arrowUp.mouseout"/>
                  </use>
                  <path fill="none" stroke="white" stroke-width="1.5" d="M0,-3.0v7 M-2.5,-0.5L0,-3.0L2.5,-0.5"/>
                </g>
                <g id="arrowRight" xlink:href="#dirArrow" transform="rotate(90) translate(36 -43)" onmousedown="handlePan(1,0)">
                  <use xlink:href="#rim" fill="#404040">
                        <set attributeName="fill" to="#808080" begin="arrowRight.mouseover" end="arrowRight.mouseout"/>
                  </use>
                  <path fill="none" stroke="white" stroke-width="1.5" d="M0,-3.0v7 M-2.5,-0.5L0,-3.0L2.5,-0.5"/>
                </g>
                <g id="arrowDown" xlink:href="#dirArrow" transform="rotate(180) translate(-30 -48)" onmousedown="handlePan(0,1)">
                  <use xlink:href="#rim" fill="#404040">
                        <set attributeName="fill" to="#808080" begin="arrowDown.mouseover" end="arrowDown.mouseout"/>
                  </use>
                  <path fill="none" stroke="white" stroke-width="1.5" d="M0,-3.0v7 M-2.5,-0.5L0,-3.0L2.5,-0.5"/>
                </g>
                <g id="arrowLeft" xlink:href="#dirArrow" transform="rotate(270) translate(-36 17)" onmousedown="handlePan(-1,0)">
                  <use xlink:href="#rim" fill="#404040">
                        <set attributeName="fill" to="#808080" begin="arrowLeft.mouseover" end="arrowLeft.mouseout"/>
                  </use>
                  <path fill="none" stroke="white" stroke-width="1.5" d="M0,-3.0v7 M-2.5,-0.5L0,-3.0L2.5,-0.5"/>
                </g>
        </g>
        <svg viewBox="0 0 15 15" width="100%" height="30px" preserveAspectRatio="xMaxYMin meet">
         <g id="arrow_out" transform="scale(0.3 0.3)">
          <a xlink:href="XStringBase_8hpp__dep__incl_org.svg" target="_base">
           <rect id="button" ry="5" rx="5" y="6" x="6" height="38" width="38"
                fill="#f2f5e9" fill-opacity="0.5" stroke="#606060" stroke-width="1.0"/>
           <path id="arrow"
             d="M 11.500037,31.436501 C 11.940474,20.09759 22.043105,11.32322 32.158766,21.979434 L 37.068811,17.246167 C 37.068811,17.246167 37.088388,32 37.088388,32 L 22.160133,31.978069 C 22.160133,31.978069 26.997745,27.140456 26.997745,27.140456 C 18.528582,18.264221 13.291696,25.230495 11.500037,31.436501 z"
             style="fill:#404040;"/>
          </a>
         </g>
        </svg>
</svg>
