<?xml version="1.0" encoding="UTF-8" standalone="no"?>
<!DOCTYPE svg PUBLIC "-//W3C//DTD SVG 1.1//EN"
 "http://www.w3.org/Graphics/SVG/1.1/DTD/svg11.dtd">
<!-- Generated by graphviz version 2.38.0 (20140413.2041)
 -->
<!-- Title: xalanc/XPath/XStringCached.hpp Pages: 1 -->
<svg width="167pt" height="229pt"
 viewBox="0.00 0.00 167.00 229.00" xmlns="http://www.w3.org/2000/svg" xmlns:xlink="http://www.w3.org/1999/xlink">
<g id="graph0" class="graph" transform="scale(1 1) rotate(0) translate(4 225)">
<title>xalanc/XPath/XStringCached.hpp</title>
<!-- Node1 -->
<g id="node1" class="node"><title>Node1</title>
<g id="a_node1"><a xlink:title=" ">
<polygon fill="#bfbfbf" stroke="black" points="0,-201.5 0,-220.5 159,-220.5 159,-201.5 0,-201.5"/>
<text text-anchor="middle" x="79.5" y="-208.5" font-family="Helvetica,sans-Serif" font-size="10.00">xalanc/XPath/XStringCached.hpp</text>
</a>
</g>
</g>
<!-- Node2 -->
<g id="node2" class="node"><title>Node2</title>
<g id="a_node2"><a xlink:href="XStringCachedAllocator_8hpp.html" target="_top" xlink:title=" ">
<polygon fill="none" stroke="black" points="9.5,-134.5 9.5,-164.5 149.5,-164.5 149.5,-134.5 9.5,-134.5"/>
<text text-anchor="start" x="17.5" y="-152.5" font-family="Helvetica,sans-Serif" font-size="10.00">xalanc/XPath/XStringCached</text>
<text text-anchor="middle" x="79.5" y="-141.5" font-family="Helvetica,sans-Serif" font-size="10.00">Allocator.hpp</text>
</a>
</g>
</g>
<!-- Node1&#45;&gt;Node2 -->
<g id="edge1" class="edge"><title>Node1&#45;&gt;Node2</title>
<path fill="none" stroke="midnightblue" d="M79.5,-191.235C79.5,-182.586 79.5,-172.497 79.5,-164.523"/>
<polygon fill="midnightblue" stroke="midnightblue" points="76.0001,-191.475 79.5,-201.475 83.0001,-191.475 76.0001,-191.475"/>
</g>
<!-- Node3 -->
<g id="node3" class="node"><title>Node3</title>
<g id="a_node3"><a xlink:href="XObjectFactoryDefault_8hpp.html" target="_top" xlink:title=" ">
<polygon fill="none" stroke="black" points="8,-67.5 8,-97.5 151,-97.5 151,-67.5 8,-67.5"/>
<text text-anchor="start" x="16" y="-85.5" font-family="Helvetica,sans-Serif" font-size="10.00">xalanc/XPath/XObjectFactory</text>
<text text-anchor="middle" x="79.5" y="-74.5" font-family="Helvetica,sans-Serif" font-size="10.00">Default.hpp</text>
</a>
</g>
</g>
<!-- Node2&#45;&gt;Node3 -->
<g id="edge2" class="edge"><title>Node2&#45;&gt;Node3</title>
<path fill="none" stroke="midnightblue" d="M79.5,-124.108C79.5,-115.154 79.5,-105.323 79.5,-97.5765"/>
<polygon fill="midnightblue" stroke="midnightblue" points="76.0001,-124.396 79.5,-134.396 83.0001,-124.396 76.0001,-124.396"/>
</g>
<!-- Node4 -->
<g id="node4" class="node"><title>Node4</title>
<g id="a_node4"><a xlink:href="XalanTransformer_8hpp.html" target="_top" xlink:title=" ">
<polygon fill="none" stroke="black" points="18.5,-0.5 18.5,-30.5 140.5,-30.5 140.5,-0.5 18.5,-0.5"/>
<text text-anchor="start" x="26.5" y="-18.5" font-family="Helvetica,sans-Serif" font-size="10.00">xalanc/XalanTransformer</text>
<text text-anchor="middle" x="79.5" y="-7.5" font-family="Helvetica,sans-Serif" font-size="10.00">/XalanTransformer.hpp</text>
</a>
</g>
</g>
<!-- Node3&#45;&gt;Node4 -->
<g id="edge3" class="edge"><title>Node3&#45;&gt;Node4</title>
<path fill="none" stroke="midnightblue" d="M79.5,-57.1081C79.5,-48.1539 79.5,-38.3227 79.5,-30.5765"/>
<polygon fill="midnightblue" stroke="midnightblue" points="76.0001,-57.3959 79.5,-67.396 83.0001,-57.396 76.0001,-57.3959"/>
</g>
</g>
</svg>
